<?xml version="1.0" encoding="UTF-8" standalone="no"?>
<!DOCTYPE svg PUBLIC "-//W3C//DTD SVG 1.1//EN"
 "http://www.w3.org/Graphics/SVG/1.1/DTD/svg11.dtd">
<!-- Generated by graphviz version 2.43.0 (0)
 -->
<!-- Title: twoDegreesRelationshipsDiagram Pages: 1 -->
<svg width="746pt" height="879pt"
 viewBox="0.00 0.00 746.00 879.00" xmlns="http://www.w3.org/2000/svg" xmlns:xlink="http://www.w3.org/1999/xlink">
<g id="graph0" class="graph" transform="scale(1 1) rotate(0) translate(4 875)">
<title>twoDegreesRelationshipsDiagram</title>
<polygon fill="#ffffff" stroke="transparent" points="-4,4 -4,-875 742,-875 742,4 -4,4"/>
<text text-anchor="middle" x="71.5" y="-7.2" font-family="Helvetica,sans-Serif" font-size="11.00">Generated by SchemaSpy</text>
<!-- acc_product_mapping -->
<g id="node1" class="node">
<title>acc_product_mapping</title>
<g id="a_node1"><a xlink:href="../../tables/acc_product_mapping.html" xlink:title="acc_product_mapping" target="_top">
<polygon fill="#ffffff" stroke="transparent" points="497,-669 497,-867 730,-867 730,-669 497,-669"/>
<polygon fill="#f5f5f5" stroke="transparent" points="499.5,-843 499.5,-865 728.5,-865 728.5,-843 499.5,-843"/>
<polygon fill="none" stroke="black" points="499.5,-843 499.5,-865 728.5,-865 728.5,-843 499.5,-843"/>
<text text-anchor="start" x="504.5" y="-852.2" font-family="Helvetica,sans-Serif" font-weight="bold" font-size="11.00">acc_product_mapping</text>
<text text-anchor="start" x="693.5" y="-851.2" font-family="Helvetica,sans-Serif" font-size="11.00">[table]</text>
<polygon fill="none" stroke="black" points="499.5,-821 499.5,-843 673.5,-843 673.5,-821 499.5,-821"/>
<image xlink:href="../../images/primaryKeys.png" width="11px" height="12px" preserveAspectRatio="xMinYMin meet" x="504.5" y="-838"/>
<text text-anchor="start" x="519.5" y="-829.2" font-family="Helvetica,sans-Serif" font-size="11.00">id</text>
<polygon fill="none" stroke="black" points="673.5,-821 673.5,-843 728.5,-843 728.5,-821 673.5,-821"/>
<text text-anchor="start" x="676.5" y="-829.2" font-family="Helvetica,sans-Serif" font-size="11.00">bigint[19]</text>
<polygon fill="none" stroke="black" points="499.5,-799 499.5,-821 673.5,-821 673.5,-799 499.5,-799"/>
<text text-anchor="start" x="519.5" y="-807.2" font-family="Helvetica,sans-Serif" font-size="11.00">gl_account_id</text>
<polygon fill="none" stroke="black" points="673.5,-799 673.5,-821 728.5,-821 728.5,-799 673.5,-799"/>
<text text-anchor="start" x="676.5" y="-807.2" font-family="Helvetica,sans-Serif" font-size="11.00">bigint[19]</text>
<polygon fill="none" stroke="black" points="499.5,-777 499.5,-799 673.5,-799 673.5,-777 499.5,-777"/>
<text text-anchor="start" x="519.5" y="-785.2" font-family="Helvetica,sans-Serif" font-size="11.00">product_id</text>
<polygon fill="none" stroke="black" points="673.5,-777 673.5,-799 728.5,-799 728.5,-777 673.5,-777"/>
<text text-anchor="start" x="676.5" y="-785.2" font-family="Helvetica,sans-Serif" font-size="11.00">bigint[19]</text>
<polygon fill="none" stroke="black" points="499.5,-755 499.5,-777 673.5,-777 673.5,-755 499.5,-755"/>
<text text-anchor="start" x="519.5" y="-763.2" font-family="Helvetica,sans-Serif" font-size="11.00">product_type</text>
<polygon fill="none" stroke="black" points="673.5,-755 673.5,-777 728.5,-777 728.5,-755 673.5,-755"/>
<text text-anchor="start" x="676.5" y="-763.2" font-family="Helvetica,sans-Serif" font-size="11.00">smallint[5]</text>
<polygon fill="#ffffff" stroke="transparent" points="499.5,-733 499.5,-755 673.5,-755 673.5,-733 499.5,-733"/>
<polygon fill="none" stroke="black" points="499.5,-733 499.5,-755 673.5,-755 673.5,-733 499.5,-733"/>
<image xlink:href="../../images/foreignKeys.png" width="11px" height="12px" preserveAspectRatio="xMinYMin meet" x="504.5" y="-750"/>
<text text-anchor="start" x="519.5" y="-741.2" font-family="Helvetica,sans-Serif" font-size="11.00">payment_type</text>
<polygon fill="none" stroke="black" points="673.5,-733 673.5,-755 728.5,-755 728.5,-733 673.5,-733"/>
<text text-anchor="start" x="676.5" y="-741.2" font-family="Helvetica,sans-Serif" font-size="11.00">int[10]</text>
<polygon fill="#ffffff" stroke="transparent" points="499.5,-711 499.5,-733 673.5,-733 673.5,-711 499.5,-711"/>
<polygon fill="none" stroke="black" points="499.5,-711 499.5,-733 673.5,-733 673.5,-711 499.5,-711"/>
<image xlink:href="../../images/foreignKeys.png" width="11px" height="12px" preserveAspectRatio="xMinYMin meet" x="504.5" y="-728"/>
<text text-anchor="start" x="519.5" y="-719.2" font-family="Helvetica,sans-Serif" font-size="11.00">charge_id</text>
<polygon fill="none" stroke="black" points="673.5,-711 673.5,-733 728.5,-733 728.5,-711 673.5,-711"/>
<text text-anchor="start" x="676.5" y="-719.2" font-family="Helvetica,sans-Serif" font-size="11.00">bigint[19]</text>
<polygon fill="none" stroke="black" points="499.5,-689 499.5,-711 673.5,-711 673.5,-689 499.5,-689"/>
<text text-anchor="start" x="519.5" y="-697.2" font-family="Helvetica,sans-Serif" font-size="11.00">financial_account_type</text>
<polygon fill="none" stroke="black" points="673.5,-689 673.5,-711 728.5,-711 728.5,-689 673.5,-689"/>
<text text-anchor="start" x="676.5" y="-697.2" font-family="Helvetica,sans-Serif" font-size="11.00">smallint[5]</text>
<polygon fill="#ffffff" stroke="transparent" points="499.5,-671 499.5,-689 577.5,-689 577.5,-671 499.5,-671"/>
<polygon fill="none" stroke="black" points="499.5,-671 499.5,-689 577.5,-689 577.5,-671 499.5,-671"/>
<text text-anchor="start" x="502.5" y="-677.2" font-family="Helvetica,sans-Serif" font-size="11.00">&lt; 2</text>
<polygon fill="#ffffff" stroke="transparent" points="577.5,-671 577.5,-689 673.5,-689 673.5,-671 577.5,-671"/>
<polygon fill="none" stroke="black" points="577.5,-671 577.5,-689 673.5,-689 673.5,-671 577.5,-671"/>
<text text-anchor="start" x="637.5" y="-677.2" font-family="Helvetica,sans-Serif" font-size="11.00">0 rows</text>
<polygon fill="#ffffff" stroke="transparent" points="673.5,-671 673.5,-689 728.5,-689 728.5,-671 673.5,-671"/>
<polygon fill="none" stroke="black" points="673.5,-671 673.5,-689 728.5,-689 728.5,-671 673.5,-671"/>
<text text-anchor="start" x="709.5" y="-677.2" font-family="Helvetica,sans-Serif" font-size="11.00">0 &gt;</text>
<polygon fill="none" stroke="black" stroke-width="2" points="498,-670 498,-866 729,-866 729,-670 498,-670"/>
</a>
</g>
</g>
<!-- m_charge -->
<g id="node2" class="node">
<title>m_charge</title>
<g id="a_node2"><a xlink:href="../../tables/m_charge.html" xlink:title="m_charge" target="_top">
<polygon fill="#ffffff" stroke="transparent" points="192,-284 192,-452 448,-452 448,-284 192,-284"/>
<polygon fill="#f5f5f5" stroke="transparent" points="192,-430 192,-452 448,-452 448,-430 192,-430"/>
<polygon fill="none" stroke="black" points="192,-430 192,-452 448,-452 448,-430 192,-430"/>
<text text-anchor="start" x="197" y="-439.2" font-family="Helvetica,sans-Serif" font-weight="bold" font-size="11.00">m_charge</text>
<text text-anchor="start" x="413" y="-438.2" font-family="Helvetica,sans-Serif" font-size="11.00">[table]</text>
<polygon fill="none" stroke="black" points="192,-408 192,-430 448,-430 448,-408 192,-408"/>
<image xlink:href="../../images/primaryKeys.png" width="11px" height="12px" preserveAspectRatio="xMinYMin meet" x="197" y="-425"/>
<text text-anchor="start" x="212" y="-416.2" font-family="Helvetica,sans-Serif" font-size="11.00">id</text>
<polygon fill="#ffffff" stroke="transparent" points="192,-386 192,-408 448,-408 448,-386 192,-386"/>
<polygon fill="none" stroke="black" points="192,-386 192,-408 448,-408 448,-386 192,-386"/>
<text text-anchor="start" x="212" y="-394.2" font-family="Helvetica,sans-Serif" font-size="11.00">name</text>
<polygon fill="#ffffff" stroke="transparent" points="192,-364 192,-386 448,-386 448,-364 192,-364"/>
<polygon fill="none" stroke="black" points="192,-364 192,-386 448,-386 448,-364 192,-364"/>
<image xlink:href="../../images/foreignKeys.png" width="11px" height="12px" preserveAspectRatio="xMinYMin meet" x="197" y="-381"/>
<text text-anchor="start" x="212" y="-372.2" font-family="Helvetica,sans-Serif" font-size="11.00">payment_type_id</text>
<polygon fill="#ffffff" stroke="transparent" points="192,-342 192,-364 448,-364 448,-342 192,-342"/>
<polygon fill="none" stroke="black" points="192,-342 192,-364 448,-364 448,-342 192,-342"/>
<image xlink:href="../../images/foreignKeys.png" width="11px" height="12px" preserveAspectRatio="xMinYMin meet" x="197" y="-359"/>
<text text-anchor="start" x="212" y="-350.2" font-family="Helvetica,sans-Serif" font-size="11.00">income_or_liability_account_id</text>
<polygon fill="#ffffff" stroke="transparent" points="192,-320 192,-342 448,-342 448,-320 192,-320"/>
<polygon fill="none" stroke="black" points="192,-320 192,-342 448,-342 448,-320 192,-320"/>
<image xlink:href="../../images/foreignKeys.png" width="11px" height="12px" preserveAspectRatio="xMinYMin meet" x="197" y="-337"/>
<text text-anchor="start" x="212" y="-328.2" font-family="Helvetica,sans-Serif" font-size="11.00">tax_group_id</text>
<polygon fill="none" stroke="black" points="192,-302 192,-320 448,-320 448,-302 192,-302"/>
<text text-anchor="start" x="195" y="-308.2" font-family="Helvetica,sans-Serif" font-size="11.00">...</text>
<polygon fill="#ffffff" stroke="transparent" points="192,-284 192,-302 300,-302 300,-284 192,-284"/>
<polygon fill="none" stroke="black" points="192,-284 192,-302 300,-302 300,-284 192,-284"/>
<text text-anchor="start" x="195" y="-290.2" font-family="Helvetica,sans-Serif" font-size="11.00">&lt; 3</text>
<polygon fill="#ffffff" stroke="transparent" points="300,-284 300,-302 382,-302 382,-284 300,-284"/>
<polygon fill="none" stroke="black" points="300,-284 300,-302 382,-302 382,-284 300,-284"/>
<text text-anchor="start" x="346" y="-290.2" font-family="Helvetica,sans-Serif" font-size="11.00">0 rows</text>
<polygon fill="#ffffff" stroke="transparent" points="382,-284 382,-302 448,-302 448,-284 382,-284"/>
<polygon fill="none" stroke="black" points="382,-284 382,-302 448,-302 448,-284 382,-284"/>
<text text-anchor="start" x="429" y="-290.2" font-family="Helvetica,sans-Serif" font-size="11.00">9 &gt;</text>
</a>
</g>
</g>
<!-- acc_product_mapping&#45;&gt;m_charge -->
<g id="edge1" class="edge">
<title>acc_product_mapping:w&#45;&gt;m_charge:e</title>
<path fill="none" stroke="black" d="M484.94,-716.48C443.2,-675.42 511.76,-419 449,-419"/>
<polygon fill="black" stroke="black" points="491.09,-718.99 497.14,-725.33 494.79,-720.49 498.5,-722 498.5,-722 498.5,-722 494.79,-720.49 499.86,-718.67 491.09,-718.99 491.09,-718.99"/>
<ellipse fill="none" stroke="black" cx="488.13" cy="-717.78" rx="3.2" ry="3.2"/>
</g>
<!-- m_payment_type -->
<g id="node3" class="node">
<title>m_payment_type</title>
<g id="a_node3"><a xlink:href="../../tables/m_payment_type.html" xlink:title="m_payment_type" target="_top">
<polygon fill="#ffffff" stroke="transparent" points="8,-457 8,-537 143,-537 143,-457 8,-457"/>
<polygon fill="#f5f5f5" stroke="transparent" points="8.5,-515 8.5,-537 143.5,-537 143.5,-515 8.5,-515"/>
<polygon fill="none" stroke="black" points="8.5,-515 8.5,-537 143.5,-537 143.5,-515 8.5,-515"/>
<text text-anchor="start" x="13.5" y="-524.2" font-family="Helvetica,sans-Serif" font-weight="bold" font-size="11.00">m_payment_type</text>
<text text-anchor="start" x="108.5" y="-523.2" font-family="Helvetica,sans-Serif" font-size="11.00">[table]</text>
<polygon fill="none" stroke="black" points="8.5,-493 8.5,-515 143.5,-515 143.5,-493 8.5,-493"/>
<image xlink:href="../../images/primaryKeys.png" width="11px" height="12px" preserveAspectRatio="xMinYMin meet" x="13.5" y="-510"/>
<text text-anchor="start" x="28.5" y="-501.2" font-family="Helvetica,sans-Serif" font-size="11.00">id</text>
<polygon fill="none" stroke="black" points="8.5,-475 8.5,-493 143.5,-493 143.5,-475 8.5,-475"/>
<text text-anchor="start" x="11.5" y="-481.2" font-family="Helvetica,sans-Serif" font-size="11.00">...</text>
<polygon fill="#ffffff" stroke="transparent" points="8.5,-457 8.5,-475 51.5,-475 51.5,-457 8.5,-457"/>
<polygon fill="none" stroke="black" points="8.5,-457 8.5,-475 51.5,-475 51.5,-457 8.5,-457"/>
<text text-anchor="start" x="11.5" y="-463.2" font-family="Helvetica,sans-Serif" font-size="11.00"> &#160;</text>
<polygon fill="#ffffff" stroke="transparent" points="51.5,-457 51.5,-475 105.5,-475 105.5,-457 51.5,-457"/>
<polygon fill="none" stroke="black" points="51.5,-457 51.5,-475 105.5,-475 105.5,-457 51.5,-457"/>
<text text-anchor="start" x="69.5" y="-463.2" font-family="Helvetica,sans-Serif" font-size="11.00">0 rows</text>
<polygon fill="#ffffff" stroke="transparent" points="105.5,-457 105.5,-475 143.5,-475 143.5,-457 105.5,-457"/>
<polygon fill="none" stroke="black" points="105.5,-457 105.5,-475 143.5,-475 143.5,-457 105.5,-457"/>
<text text-anchor="start" x="124.5" y="-463.2" font-family="Helvetica,sans-Serif" font-size="11.00">3 &gt;</text>
</a>
</g>
</g>
<!-- acc_product_mapping&#45;&gt;m_payment_type -->
<g id="edge2" class="edge">
<title>acc_product_mapping:w&#45;&gt;m_payment_type:e</title>
<path fill="none" stroke="black" d="M483.89,-743.75C331.91,-738.36 307.64,-647.83 184,-546 164.22,-529.71 170.13,-504 144.5,-504"/>
<polygon fill="black" stroke="black" points="490.5,-743.86 498.44,-747.6 494.5,-743.93 498.5,-744 498.5,-744 498.5,-744 494.5,-743.93 498.56,-740.4 490.5,-743.86 490.5,-743.86"/>
<ellipse fill="none" stroke="black" cx="487.3" cy="-743.81" rx="3.2" ry="3.2"/>
</g>
<!-- m_charge&#45;&gt;m_payment_type -->
<g id="edge4" class="edge">
<title>m_charge:w&#45;&gt;m_payment_type:e</title>
<path fill="none" stroke="black" d="M176.79,-378.45C143.48,-398.97 199.49,-504 144.5,-504"/>
<polygon fill="black" stroke="black" points="183.23,-376.89 191.85,-378.5 187.11,-375.94 191,-375 191,-375 191,-375 187.11,-375.94 190.15,-371.5 183.23,-376.89 183.23,-376.89"/>
<ellipse fill="none" stroke="black" cx="180.12" cy="-377.64" rx="3.2" ry="3.2"/>
</g>
<!-- acc_gl_account -->
<g id="node4" class="node">
<title>acc_gl_account</title>
<g id="a_node4"><a xlink:href="../../tables/acc_gl_account.html" xlink:title="acc_gl_account" target="_top">
<polygon fill="#ffffff" stroke="transparent" points="12.5,-352 12.5,-410 138.5,-410 138.5,-352 12.5,-352"/>
<polygon fill="#f5f5f5" stroke="transparent" points="12.5,-388 12.5,-410 138.5,-410 138.5,-388 12.5,-388"/>
<polygon fill="none" stroke="black" points="12.5,-388 12.5,-410 138.5,-410 138.5,-388 12.5,-388"/>
<text text-anchor="start" x="17.5" y="-397.2" font-family="Helvetica,sans-Serif" font-weight="bold" font-size="11.00">acc_gl_account</text>
<text text-anchor="start" x="103.5" y="-396.2" font-family="Helvetica,sans-Serif" font-size="11.00">[table]</text>
<polygon fill="none" stroke="black" points="12.5,-370 12.5,-388 138.5,-388 138.5,-370 12.5,-370"/>
<text text-anchor="start" x="15.5" y="-376.2" font-family="Helvetica,sans-Serif" font-size="11.00">...</text>
<polygon fill="#ffffff" stroke="transparent" points="12.5,-352 12.5,-370 52.5,-370 52.5,-352 12.5,-352"/>
<polygon fill="none" stroke="black" points="12.5,-352 12.5,-370 52.5,-370 52.5,-352 12.5,-352"/>
<text text-anchor="start" x="15.5" y="-358.2" font-family="Helvetica,sans-Serif" font-size="11.00">&lt; 2</text>
<polygon fill="#ffffff" stroke="transparent" points="52.5,-352 52.5,-370 100.5,-370 100.5,-352 52.5,-352"/>
<polygon fill="none" stroke="black" points="52.5,-352 52.5,-370 100.5,-370 100.5,-352 52.5,-352"/>
<text text-anchor="start" x="64.5" y="-358.2" font-family="Helvetica,sans-Serif" font-size="11.00">0 rows</text>
<polygon fill="#ffffff" stroke="transparent" points="100.5,-352 100.5,-370 138.5,-370 138.5,-352 100.5,-352"/>
<polygon fill="none" stroke="black" points="100.5,-352 100.5,-370 138.5,-370 138.5,-352 100.5,-352"/>
<text text-anchor="start" x="113.5" y="-358.2" font-family="Helvetica,sans-Serif" font-size="11.00">14 &gt;</text>
</a>
</g>
</g>
<!-- m_charge&#45;&gt;acc_gl_account -->
<g id="edge3" class="edge">
<title>m_charge:w&#45;&gt;acc_gl_account:e</title>
<path fill="none" stroke="black" d="M176.9,-356.4C163.96,-363.45 159.33,-379 139.5,-379"/>
<polygon fill="black" stroke="black" points="183.22,-354.87 191.84,-356.5 187.11,-353.94 191,-353 191,-353 191,-353 187.11,-353.94 190.16,-349.5 183.22,-354.87 183.22,-354.87"/>
<ellipse fill="none" stroke="black" cx="180.11" cy="-355.62" rx="3.2" ry="3.2"/>
</g>
<!-- m_tax_group -->
<g id="node5" class="node">
<title>m_tax_group</title>
<g id="a_node5"><a xlink:href="../../tables/m_tax_group.html" xlink:title="m_tax_group" target="_top">
<polygon fill="#ffffff" stroke="transparent" points="18.5,-273 18.5,-331 132.5,-331 132.5,-273 18.5,-273"/>
<polygon fill="#f5f5f5" stroke="transparent" points="18.5,-309 18.5,-331 132.5,-331 132.5,-309 18.5,-309"/>
<polygon fill="none" stroke="black" points="18.5,-309 18.5,-331 132.5,-331 132.5,-309 18.5,-309"/>
<text text-anchor="start" x="23.5" y="-318.2" font-family="Helvetica,sans-Serif" font-weight="bold" font-size="11.00">m_tax_group</text>
<text text-anchor="start" x="97.5" y="-317.2" font-family="Helvetica,sans-Serif" font-size="11.00">[table]</text>
<polygon fill="none" stroke="black" points="18.5,-291 18.5,-309 132.5,-309 132.5,-291 18.5,-291"/>
<text text-anchor="start" x="21.5" y="-297.2" font-family="Helvetica,sans-Serif" font-size="11.00">...</text>
<polygon fill="#ffffff" stroke="transparent" points="18.5,-273 18.5,-291 55.5,-291 55.5,-273 18.5,-273"/>
<polygon fill="none" stroke="black" points="18.5,-273 18.5,-291 55.5,-291 55.5,-273 18.5,-273"/>
<text text-anchor="start" x="21.5" y="-279.2" font-family="Helvetica,sans-Serif" font-size="11.00">&lt; 2</text>
<polygon fill="#ffffff" stroke="transparent" points="55.5,-273 55.5,-291 102.5,-291 102.5,-273 55.5,-273"/>
<polygon fill="none" stroke="black" points="55.5,-273 55.5,-291 102.5,-291 102.5,-273 55.5,-273"/>
<text text-anchor="start" x="66.5" y="-279.2" font-family="Helvetica,sans-Serif" font-size="11.00">0 rows</text>
<polygon fill="#ffffff" stroke="transparent" points="102.5,-273 102.5,-291 132.5,-291 132.5,-273 102.5,-273"/>
<polygon fill="none" stroke="black" points="102.5,-273 102.5,-291 132.5,-291 132.5,-273 102.5,-273"/>
<text text-anchor="start" x="113.5" y="-279.2" font-family="Helvetica,sans-Serif" font-size="11.00">4 &gt;</text>
</a>
</g>
</g>
<!-- m_charge&#45;&gt;m_tax_group -->
<g id="edge5" class="edge">
<title>m_charge:w&#45;&gt;m_tax_group:e</title>
<path fill="none" stroke="black" d="M176.48,-327.68C160.98,-319.69 156.64,-300 133.5,-300"/>
<polygon fill="black" stroke="black" points="183.2,-329.22 190.2,-334.51 187.1,-330.11 191,-331 191,-331 191,-331 187.1,-330.11 191.8,-327.49 183.2,-329.22 183.2,-329.22"/>
<ellipse fill="none" stroke="black" cx="180.08" cy="-328.51" rx="3.2" ry="3.2"/>
</g>
<!-- m_client_charge -->
<g id="node6" class="node">
<title>m_client_charge</title>
<g id="a_node6"><a xlink:href="../../tables/m_client_charge.html" xlink:title="m_client_charge" target="_top">
<polygon fill="#ffffff" stroke="transparent" points="548,-590 548,-648 679,-648 679,-590 548,-590"/>
<polygon fill="#f5f5f5" stroke="transparent" points="548.5,-626 548.5,-648 679.5,-648 679.5,-626 548.5,-626"/>
<polygon fill="none" stroke="black" points="548.5,-626 548.5,-648 679.5,-648 679.5,-626 548.5,-626"/>
<text text-anchor="start" x="553.5" y="-635.2" font-family="Helvetica,sans-Serif" font-weight="bold" font-size="11.00">m_client_charge</text>
<text text-anchor="start" x="644.5" y="-634.2" font-family="Helvetica,sans-Serif" font-size="11.00">[table]</text>
<polygon fill="none" stroke="black" points="548.5,-608 548.5,-626 679.5,-626 679.5,-608 548.5,-608"/>
<text text-anchor="start" x="551.5" y="-614.2" font-family="Helvetica,sans-Serif" font-size="11.00">...</text>
<polygon fill="#ffffff" stroke="transparent" points="548.5,-590 548.5,-608 594.5,-608 594.5,-590 548.5,-590"/>
<polygon fill="none" stroke="black" points="548.5,-590 548.5,-608 594.5,-608 594.5,-590 548.5,-590"/>
<text text-anchor="start" x="551.5" y="-596.2" font-family="Helvetica,sans-Serif" font-size="11.00">&lt; 2</text>
<polygon fill="#ffffff" stroke="transparent" points="594.5,-590 594.5,-608 645.5,-608 645.5,-590 594.5,-590"/>
<polygon fill="none" stroke="black" points="594.5,-590 594.5,-608 645.5,-608 645.5,-590 594.5,-590"/>
<text text-anchor="start" x="609.5" y="-596.2" font-family="Helvetica,sans-Serif" font-size="11.00">0 rows</text>
<polygon fill="#ffffff" stroke="transparent" points="645.5,-590 645.5,-608 679.5,-608 679.5,-590 645.5,-590"/>
<polygon fill="none" stroke="black" points="645.5,-590 645.5,-608 679.5,-608 679.5,-590 645.5,-590"/>
<text text-anchor="start" x="660.5" y="-596.2" font-family="Helvetica,sans-Serif" font-size="11.00">1 &gt;</text>
</a>
</g>
</g>
<!-- m_client_charge&#45;&gt;m_charge -->
<g id="edge6" class="edge">
<title>m_client_charge:w&#45;&gt;m_charge:e</title>
<path fill="none" stroke="black" d="M533.07,-615.88C513.06,-612.36 503.84,-600.56 489,-580 445.85,-520.21 522.73,-419 449,-419"/>
<polygon fill="black" stroke="black" points="539.52,-616.38 547.22,-620.59 543.51,-616.69 547.5,-617 547.5,-617 547.5,-617 543.51,-616.69 547.78,-613.41 539.52,-616.38 539.52,-616.38"/>
<ellipse fill="none" stroke="black" cx="536.33" cy="-616.13" rx="3.2" ry="3.2"/>
</g>
<!-- m_loan_charge -->
<g id="node7" class="node">
<title>m_loan_charge</title>
<g id="a_node7"><a xlink:href="../../tables/m_loan_charge.html" xlink:title="m_loan_charge" target="_top">
<polygon fill="#ffffff" stroke="transparent" points="551,-511 551,-569 676,-569 676,-511 551,-511"/>
<polygon fill="#f5f5f5" stroke="transparent" points="551.5,-547 551.5,-569 676.5,-569 676.5,-547 551.5,-547"/>
<polygon fill="none" stroke="black" points="551.5,-547 551.5,-569 676.5,-569 676.5,-547 551.5,-547"/>
<text text-anchor="start" x="556.5" y="-556.2" font-family="Helvetica,sans-Serif" font-weight="bold" font-size="11.00">m_loan_charge</text>
<text text-anchor="start" x="641.5" y="-555.2" font-family="Helvetica,sans-Serif" font-size="11.00">[table]</text>
<polygon fill="none" stroke="black" points="551.5,-529 551.5,-547 676.5,-547 676.5,-529 551.5,-529"/>
<text text-anchor="start" x="554.5" y="-535.2" font-family="Helvetica,sans-Serif" font-size="11.00">...</text>
<polygon fill="#ffffff" stroke="transparent" points="551.5,-511 551.5,-529 594.5,-529 594.5,-511 551.5,-511"/>
<polygon fill="none" stroke="black" points="551.5,-511 551.5,-529 594.5,-529 594.5,-511 551.5,-511"/>
<text text-anchor="start" x="554.5" y="-517.2" font-family="Helvetica,sans-Serif" font-size="11.00">&lt; 2</text>
<polygon fill="#ffffff" stroke="transparent" points="594.5,-511 594.5,-529 643.5,-529 643.5,-511 594.5,-511"/>
<polygon fill="none" stroke="black" points="594.5,-511 594.5,-529 643.5,-529 643.5,-511 594.5,-511"/>
<text text-anchor="start" x="607.5" y="-517.2" font-family="Helvetica,sans-Serif" font-size="11.00">0 rows</text>
<polygon fill="#ffffff" stroke="transparent" points="643.5,-511 643.5,-529 676.5,-529 676.5,-511 643.5,-511"/>
<polygon fill="none" stroke="black" points="643.5,-511 643.5,-529 676.5,-529 676.5,-511 643.5,-511"/>
<text text-anchor="start" x="657.5" y="-517.2" font-family="Helvetica,sans-Serif" font-size="11.00">4 &gt;</text>
</a>
</g>
</g>
<!-- m_loan_charge&#45;&gt;m_charge -->
<g id="edge7" class="edge">
<title>m_loan_charge:w&#45;&gt;m_charge:e</title>
<path fill="none" stroke="black" d="M535.98,-536.82C515.43,-533.07 506.84,-520.48 489,-501 461.61,-471.1 489.55,-419 449,-419"/>
<polygon fill="black" stroke="black" points="542.53,-537.35 550.21,-541.59 546.51,-537.68 550.5,-538 550.5,-538 550.5,-538 546.51,-537.68 550.79,-534.41 542.53,-537.35 542.53,-537.35"/>
<ellipse fill="none" stroke="black" cx="539.34" cy="-537.1" rx="3.2" ry="3.2"/>
</g>
<!-- m_loan_tranche_charges -->
<g id="node8" class="node">
<title>m_loan_tranche_charges</title>
<g id="a_node8"><a xlink:href="../../tables/m_loan_tranche_charges.html" xlink:title="m_loan_tranche_charges" target="_top">
<polygon fill="#ffffff" stroke="transparent" points="525,-432 525,-490 702,-490 702,-432 525,-432"/>
<polygon fill="#f5f5f5" stroke="transparent" points="525.5,-468 525.5,-490 702.5,-490 702.5,-468 525.5,-468"/>
<polygon fill="none" stroke="black" points="525.5,-468 525.5,-490 702.5,-490 702.5,-468 525.5,-468"/>
<text text-anchor="start" x="530.5" y="-477.2" font-family="Helvetica,sans-Serif" font-weight="bold" font-size="11.00">m_loan_tranche_charges</text>
<text text-anchor="start" x="667.5" y="-476.2" font-family="Helvetica,sans-Serif" font-size="11.00">[table]</text>
<polygon fill="none" stroke="black" points="525.5,-450 525.5,-468 702.5,-468 702.5,-450 525.5,-450"/>
<text text-anchor="start" x="528.5" y="-456.2" font-family="Helvetica,sans-Serif" font-size="11.00">...</text>
<polygon fill="#ffffff" stroke="transparent" points="525.5,-432 525.5,-450 598.5,-450 598.5,-432 525.5,-432"/>
<polygon fill="none" stroke="black" points="525.5,-432 525.5,-450 598.5,-450 598.5,-432 525.5,-432"/>
<text text-anchor="start" x="528.5" y="-438.2" font-family="Helvetica,sans-Serif" font-size="11.00">&lt; 2</text>
<polygon fill="#ffffff" stroke="transparent" points="598.5,-432 598.5,-450 663.5,-450 663.5,-432 598.5,-432"/>
<polygon fill="none" stroke="black" points="598.5,-432 598.5,-450 663.5,-450 663.5,-432 598.5,-432"/>
<text text-anchor="start" x="627.5" y="-438.2" font-family="Helvetica,sans-Serif" font-size="11.00">0 rows</text>
<polygon fill="#ffffff" stroke="transparent" points="663.5,-432 663.5,-450 702.5,-450 702.5,-432 663.5,-432"/>
<polygon fill="none" stroke="black" points="663.5,-432 663.5,-450 702.5,-450 702.5,-432 663.5,-432"/>
<text text-anchor="start" x="692.5" y="-438.2" font-family="Helvetica,sans-Serif" font-size="11.00"> &#160;</text>
</a>
</g>
</g>
<!-- m_loan_tranche_charges&#45;&gt;m_charge -->
<g id="edge8" class="edge">
<title>m_loan_tranche_charges:w&#45;&gt;m_charge:e</title>
<path fill="none" stroke="black" d="M510.21,-456.73C485.85,-448.27 481.49,-419 449,-419"/>
<polygon fill="black" stroke="black" points="516.6,-457.75 523.94,-462.56 520.55,-458.37 524.5,-459 524.5,-459 524.5,-459 520.55,-458.37 525.06,-455.44 516.6,-457.75 516.6,-457.75"/>
<ellipse fill="none" stroke="black" cx="513.44" cy="-457.25" rx="3.2" ry="3.2"/>
</g>
<!-- m_payment_detail -->
<g id="node9" class="node">
<title>m_payment_detail</title>
<g id="a_node9"><a xlink:href="../../tables/m_payment_detail.html" xlink:title="m_payment_detail" target="_top">
<polygon fill="#ffffff" stroke="transparent" points="250,-477 250,-535 390,-535 390,-477 250,-477"/>
<polygon fill="#f5f5f5" stroke="transparent" points="250,-513 250,-535 390,-535 390,-513 250,-513"/>
<polygon fill="none" stroke="black" points="250,-513 250,-535 390,-535 390,-513 250,-513"/>
<text text-anchor="start" x="255" y="-522.2" font-family="Helvetica,sans-Serif" font-weight="bold" font-size="11.00">m_payment_detail</text>
<text text-anchor="start" x="355" y="-521.2" font-family="Helvetica,sans-Serif" font-size="11.00">[table]</text>
<polygon fill="none" stroke="black" points="250,-495 250,-513 390,-513 390,-495 250,-495"/>
<text text-anchor="start" x="253" y="-501.2" font-family="Helvetica,sans-Serif" font-size="11.00">...</text>
<polygon fill="#ffffff" stroke="transparent" points="250,-477 250,-495 300,-495 300,-477 250,-477"/>
<polygon fill="none" stroke="black" points="250,-477 250,-495 300,-495 300,-477 250,-477"/>
<text text-anchor="start" x="253" y="-483.2" font-family="Helvetica,sans-Serif" font-size="11.00">&lt; 1</text>
<polygon fill="#ffffff" stroke="transparent" points="300,-477 300,-495 353,-495 353,-477 300,-477"/>
<polygon fill="none" stroke="black" points="300,-477 300,-495 353,-495 353,-477 300,-477"/>
<text text-anchor="start" x="317" y="-483.2" font-family="Helvetica,sans-Serif" font-size="11.00">0 rows</text>
<polygon fill="#ffffff" stroke="transparent" points="353,-477 353,-495 390,-495 390,-477 353,-477"/>
<polygon fill="none" stroke="black" points="353,-477 353,-495 390,-495 390,-477 353,-477"/>
<text text-anchor="start" x="371" y="-483.2" font-family="Helvetica,sans-Serif" font-size="11.00">3 &gt;</text>
</a>
</g>
</g>
<!-- m_payment_detail&#45;&gt;m_payment_type -->
<g id="edge9" class="edge">
<title>m_payment_detail:w&#45;&gt;m_payment_type:e</title>
<path fill="none" stroke="black" d="M234.46,-504C199.48,-504 185.68,-504 144.5,-504"/>
<polygon fill="black" stroke="black" points="241,-504 249,-507.6 245,-504 249,-504 249,-504 249,-504 245,-504 249,-500.4 241,-504 241,-504"/>
<ellipse fill="none" stroke="black" cx="237.8" cy="-504" rx="3.2" ry="3.2"/>
</g>
<!-- m_product_loan_charge -->
<g id="node10" class="node">
<title>m_product_loan_charge</title>
<g id="a_node10"><a xlink:href="../../tables/m_product_loan_charge.html" xlink:title="m_product_loan_charge" target="_top">
<polygon fill="#ffffff" stroke="transparent" points="527.5,-353 527.5,-411 699.5,-411 699.5,-353 527.5,-353"/>
<polygon fill="#f5f5f5" stroke="transparent" points="527.5,-389 527.5,-411 699.5,-411 699.5,-389 527.5,-389"/>
<polygon fill="none" stroke="black" points="527.5,-389 527.5,-411 699.5,-411 699.5,-389 527.5,-389"/>
<text text-anchor="start" x="532.5" y="-398.2" font-family="Helvetica,sans-Serif" font-weight="bold" font-size="11.00">m_product_loan_charge</text>
<text text-anchor="start" x="664.5" y="-397.2" font-family="Helvetica,sans-Serif" font-size="11.00">[table]</text>
<polygon fill="none" stroke="black" points="527.5,-371 527.5,-389 699.5,-389 699.5,-371 527.5,-371"/>
<text text-anchor="start" x="530.5" y="-377.2" font-family="Helvetica,sans-Serif" font-size="11.00">...</text>
<polygon fill="#ffffff" stroke="transparent" points="527.5,-353 527.5,-371 598.5,-371 598.5,-353 527.5,-353"/>
<polygon fill="none" stroke="black" points="527.5,-353 527.5,-371 598.5,-371 598.5,-353 527.5,-353"/>
<text text-anchor="start" x="530.5" y="-359.2" font-family="Helvetica,sans-Serif" font-size="11.00">&lt; 2</text>
<polygon fill="#ffffff" stroke="transparent" points="598.5,-353 598.5,-371 661.5,-371 661.5,-353 598.5,-353"/>
<polygon fill="none" stroke="black" points="598.5,-353 598.5,-371 661.5,-371 661.5,-353 598.5,-353"/>
<text text-anchor="start" x="625.5" y="-359.2" font-family="Helvetica,sans-Serif" font-size="11.00">0 rows</text>
<polygon fill="#ffffff" stroke="transparent" points="661.5,-353 661.5,-371 699.5,-371 699.5,-353 661.5,-353"/>
<polygon fill="none" stroke="black" points="661.5,-353 661.5,-371 699.5,-371 699.5,-353 661.5,-353"/>
<text text-anchor="start" x="689.5" y="-359.2" font-family="Helvetica,sans-Serif" font-size="11.00"> &#160;</text>
</a>
</g>
</g>
<!-- m_product_loan_charge&#45;&gt;m_charge -->
<g id="edge10" class="edge">
<title>m_product_loan_charge:w&#45;&gt;m_charge:e</title>
<path fill="none" stroke="black" d="M511.94,-382.21C487.03,-390.46 481.99,-419 449,-419"/>
<polygon fill="black" stroke="black" points="518.59,-381.2 527.04,-383.56 522.55,-380.6 526.5,-380 526.5,-380 526.5,-380 522.55,-380.6 525.96,-376.44 518.59,-381.2 518.59,-381.2"/>
<ellipse fill="none" stroke="black" cx="515.43" cy="-381.68" rx="3.2" ry="3.2"/>
</g>
<!-- m_savings_account_charge -->
<g id="node11" class="node">
<title>m_savings_account_charge</title>
<g id="a_node11"><a xlink:href="../../tables/m_savings_account_charge.html" xlink:title="m_savings_account_charge" target="_top">
<polygon fill="#ffffff" stroke="transparent" points="518,-274 518,-332 709,-332 709,-274 518,-274"/>
<polygon fill="#f5f5f5" stroke="transparent" points="518.5,-310 518.5,-332 709.5,-332 709.5,-310 518.5,-310"/>
<polygon fill="none" stroke="black" points="518.5,-310 518.5,-332 709.5,-332 709.5,-310 518.5,-310"/>
<text text-anchor="start" x="523.5" y="-319.2" font-family="Helvetica,sans-Serif" font-weight="bold" font-size="11.00">m_savings_account_charge</text>
<text text-anchor="start" x="674.5" y="-318.2" font-family="Helvetica,sans-Serif" font-size="11.00">[table]</text>
<polygon fill="none" stroke="black" points="518.5,-292 518.5,-310 709.5,-310 709.5,-292 518.5,-292"/>
<text text-anchor="start" x="521.5" y="-298.2" font-family="Helvetica,sans-Serif" font-size="11.00">...</text>
<polygon fill="#ffffff" stroke="transparent" points="518.5,-274 518.5,-292 594.5,-292 594.5,-274 518.5,-274"/>
<polygon fill="none" stroke="black" points="518.5,-274 518.5,-292 594.5,-292 594.5,-274 518.5,-274"/>
<text text-anchor="start" x="521.5" y="-280.2" font-family="Helvetica,sans-Serif" font-size="11.00">&lt; 2</text>
<polygon fill="#ffffff" stroke="transparent" points="594.5,-274 594.5,-292 660.5,-292 660.5,-274 594.5,-274"/>
<polygon fill="none" stroke="black" points="594.5,-274 594.5,-292 660.5,-292 660.5,-274 594.5,-274"/>
<text text-anchor="start" x="624.5" y="-280.2" font-family="Helvetica,sans-Serif" font-size="11.00">0 rows</text>
<polygon fill="#ffffff" stroke="transparent" points="660.5,-274 660.5,-292 709.5,-292 709.5,-274 660.5,-274"/>
<polygon fill="none" stroke="black" points="660.5,-274 660.5,-292 709.5,-292 709.5,-274 660.5,-274"/>
<text text-anchor="start" x="690.5" y="-280.2" font-family="Helvetica,sans-Serif" font-size="11.00">1 &gt;</text>
</a>
</g>
</g>
<!-- m_savings_account_charge&#45;&gt;m_charge -->
<g id="edge11" class="edge">
<title>m_savings_account_charge:w&#45;&gt;m_charge:e</title>
<path fill="none" stroke="black" d="M503.25,-303.92C465.76,-322.09 503.96,-419 449,-419"/>
<polygon fill="black" stroke="black" points="509.66,-302.6 518.22,-304.53 513.58,-301.8 517.5,-301 517.5,-301 517.5,-301 513.58,-301.8 516.78,-297.47 509.66,-302.6 509.66,-302.6"/>
<ellipse fill="none" stroke="black" cx="506.53" cy="-303.25" rx="3.2" ry="3.2"/>
</g>
<!-- m_savings_product_charge -->
<g id="node12" class="node">
<title>m_savings_product_charge</title>
<g id="a_node12"><a xlink:href="../../tables/m_savings_product_charge.html" xlink:title="m_savings_product_charge" target="_top">
<polygon fill="#ffffff" stroke="transparent" points="518.5,-195 518.5,-253 708.5,-253 708.5,-195 518.5,-195"/>
<polygon fill="#f5f5f5" stroke="transparent" points="518.5,-231 518.5,-253 708.5,-253 708.5,-231 518.5,-231"/>
<polygon fill="none" stroke="black" points="518.5,-231 518.5,-253 708.5,-253 708.5,-231 518.5,-231"/>
<text text-anchor="start" x="523.5" y="-240.2" font-family="Helvetica,sans-Serif" font-weight="bold" font-size="11.00">m_savings_product_charge</text>
<text text-anchor="start" x="673.5" y="-239.2" font-family="Helvetica,sans-Serif" font-size="11.00">[table]</text>
<polygon fill="none" stroke="black" points="518.5,-213 518.5,-231 708.5,-231 708.5,-213 518.5,-213"/>
<text text-anchor="start" x="521.5" y="-219.2" font-family="Helvetica,sans-Serif" font-size="11.00">...</text>
<polygon fill="#ffffff" stroke="transparent" points="518.5,-195 518.5,-213 598.5,-213 598.5,-195 518.5,-195"/>
<polygon fill="none" stroke="black" points="518.5,-195 518.5,-213 598.5,-213 598.5,-195 518.5,-195"/>
<text text-anchor="start" x="521.5" y="-201.2" font-family="Helvetica,sans-Serif" font-size="11.00">&lt; 2</text>
<polygon fill="#ffffff" stroke="transparent" points="598.5,-195 598.5,-213 666.5,-213 666.5,-195 598.5,-195"/>
<polygon fill="none" stroke="black" points="598.5,-195 598.5,-213 666.5,-213 666.5,-195 598.5,-195"/>
<text text-anchor="start" x="630.5" y="-201.2" font-family="Helvetica,sans-Serif" font-size="11.00">0 rows</text>
<polygon fill="#ffffff" stroke="transparent" points="666.5,-195 666.5,-213 708.5,-213 708.5,-195 666.5,-195"/>
<polygon fill="none" stroke="black" points="666.5,-195 666.5,-213 708.5,-213 708.5,-195 666.5,-195"/>
<text text-anchor="start" x="698.5" y="-201.2" font-family="Helvetica,sans-Serif" font-size="11.00"> &#160;</text>
</a>
</g>
</g>
<!-- m_savings_product_charge&#45;&gt;m_charge -->
<g id="edge12" class="edge">
<title>m_savings_product_charge:w&#45;&gt;m_charge:e</title>
<path fill="none" stroke="black" d="M502.87,-224.08C438.19,-245.13 536.09,-419 449,-419"/>
<polygon fill="black" stroke="black" points="509.58,-223.13 518.01,-225.56 513.54,-222.56 517.5,-222 517.5,-222 517.5,-222 513.54,-222.56 516.99,-218.44 509.58,-223.13 509.58,-223.13"/>
<ellipse fill="none" stroke="black" cx="506.41" cy="-223.58" rx="3.2" ry="3.2"/>
</g>
<!-- m_share_account_charge -->
<g id="node13" class="node">
<title>m_share_account_charge</title>
<g id="a_node13"><a xlink:href="../../tables/m_share_account_charge.html" xlink:title="m_share_account_charge" target="_top">
<polygon fill="#ffffff" stroke="transparent" points="523.5,-116 523.5,-174 703.5,-174 703.5,-116 523.5,-116"/>
<polygon fill="#f5f5f5" stroke="transparent" points="523.5,-152 523.5,-174 703.5,-174 703.5,-152 523.5,-152"/>
<polygon fill="none" stroke="black" points="523.5,-152 523.5,-174 703.5,-174 703.5,-152 523.5,-152"/>
<text text-anchor="start" x="528.5" y="-161.2" font-family="Helvetica,sans-Serif" font-weight="bold" font-size="11.00">m_share_account_charge</text>
<text text-anchor="start" x="668.5" y="-160.2" font-family="Helvetica,sans-Serif" font-size="11.00">[table]</text>
<polygon fill="none" stroke="black" points="523.5,-134 523.5,-152 703.5,-152 703.5,-134 523.5,-134"/>
<text text-anchor="start" x="526.5" y="-140.2" font-family="Helvetica,sans-Serif" font-size="11.00">...</text>
<polygon fill="#ffffff" stroke="transparent" points="523.5,-116 523.5,-134 593.5,-134 593.5,-116 523.5,-116"/>
<polygon fill="none" stroke="black" points="523.5,-116 523.5,-134 593.5,-134 593.5,-116 523.5,-116"/>
<text text-anchor="start" x="526.5" y="-122.2" font-family="Helvetica,sans-Serif" font-size="11.00">&lt; 2</text>
<polygon fill="#ffffff" stroke="transparent" points="593.5,-116 593.5,-134 656.5,-134 656.5,-116 593.5,-116"/>
<polygon fill="none" stroke="black" points="593.5,-116 593.5,-134 656.5,-134 656.5,-116 593.5,-116"/>
<text text-anchor="start" x="620.5" y="-122.2" font-family="Helvetica,sans-Serif" font-size="11.00">0 rows</text>
<polygon fill="#ffffff" stroke="transparent" points="656.5,-116 656.5,-134 703.5,-134 703.5,-116 656.5,-116"/>
<polygon fill="none" stroke="black" points="656.5,-116 656.5,-134 703.5,-134 703.5,-116 656.5,-116"/>
<text text-anchor="start" x="684.5" y="-122.2" font-family="Helvetica,sans-Serif" font-size="11.00">1 &gt;</text>
</a>
</g>
</g>
<!-- m_share_account_charge&#45;&gt;m_charge -->
<g id="edge13" class="edge">
<title>m_share_account_charge:w&#45;&gt;m_charge:e</title>
<path fill="none" stroke="black" d="M508.24,-146.71C498.04,-153.53 496.25,-168.83 489,-185 467.43,-233.14 501.75,-419 449,-419"/>
<polygon fill="black" stroke="black" points="514.76,-145.01 523.41,-146.48 518.63,-144.01 522.5,-143 522.5,-143 522.5,-143 518.63,-144.01 521.59,-139.52 514.76,-145.01 514.76,-145.01"/>
<ellipse fill="none" stroke="black" cx="511.66" cy="-145.82" rx="3.2" ry="3.2"/>
</g>
<!-- m_share_product_charge -->
<g id="node14" class="node">
<title>m_share_product_charge</title>
<g id="a_node14"><a xlink:href="../../tables/m_share_product_charge.html" xlink:title="m_share_product_charge" target="_top">
<polygon fill="#ffffff" stroke="transparent" points="524,-37 524,-95 703,-95 703,-37 524,-37"/>
<polygon fill="#f5f5f5" stroke="transparent" points="524.5,-73 524.5,-95 703.5,-95 703.5,-73 524.5,-73"/>
<polygon fill="none" stroke="black" points="524.5,-73 524.5,-95 703.5,-95 703.5,-73 524.5,-73"/>
<text text-anchor="start" x="529.5" y="-82.2" font-family="Helvetica,sans-Serif" font-weight="bold" font-size="11.00">m_share_product_charge</text>
<text text-anchor="start" x="668.5" y="-81.2" font-family="Helvetica,sans-Serif" font-size="11.00">[table]</text>
<polygon fill="none" stroke="black" points="524.5,-55 524.5,-73 703.5,-73 703.5,-55 524.5,-55"/>
<text text-anchor="start" x="527.5" y="-61.2" font-family="Helvetica,sans-Serif" font-size="11.00">...</text>
<polygon fill="#ffffff" stroke="transparent" points="524.5,-37 524.5,-55 598.5,-55 598.5,-37 524.5,-37"/>
<polygon fill="none" stroke="black" points="524.5,-37 524.5,-55 598.5,-55 598.5,-37 524.5,-37"/>
<text text-anchor="start" x="527.5" y="-43.2" font-family="Helvetica,sans-Serif" font-size="11.00">&lt; 2</text>
<polygon fill="#ffffff" stroke="transparent" points="598.5,-37 598.5,-55 663.5,-55 663.5,-37 598.5,-37"/>
<polygon fill="none" stroke="black" points="598.5,-37 598.5,-55 663.5,-55 663.5,-37 598.5,-37"/>
<text text-anchor="start" x="627.5" y="-43.2" font-family="Helvetica,sans-Serif" font-size="11.00">0 rows</text>
<polygon fill="#ffffff" stroke="transparent" points="663.5,-37 663.5,-55 703.5,-55 703.5,-37 663.5,-37"/>
<polygon fill="none" stroke="black" points="663.5,-37 663.5,-55 703.5,-55 703.5,-37 663.5,-37"/>
<text text-anchor="start" x="693.5" y="-43.2" font-family="Helvetica,sans-Serif" font-size="11.00"> &#160;</text>
</a>
</g>
</g>
<!-- m_share_product_charge&#45;&gt;m_charge -->
<g id="edge14" class="edge">
<title>m_share_product_charge:w&#45;&gt;m_charge:e</title>
<path fill="none" stroke="black" d="M509.26,-67.44C498.41,-74.06 496.18,-89.37 489,-106 461.22,-170.38 519.12,-419 449,-419"/>
<polygon fill="black" stroke="black" points="515.72,-65.88 524.35,-67.5 519.61,-64.94 523.5,-64 523.5,-64 523.5,-64 519.61,-64.94 522.65,-60.5 515.72,-65.88 515.72,-65.88"/>
<ellipse fill="none" stroke="black" cx="512.61" cy="-66.63" rx="3.2" ry="3.2"/>
</g>
</g>
</svg>
