<?xml version="1.0" encoding="UTF-8" standalone="no"?>
<!DOCTYPE svg PUBLIC "-//W3C//DTD SVG 1.1//EN"
 "http://www.w3.org/Graphics/SVG/1.1/DTD/svg11.dtd">
<!-- Generated by graphviz version 2.43.0 (0)
 -->
<!-- Title: oneDegreeRelationshipsDiagram Pages: 1 -->
<svg width="609pt" height="219pt"
 viewBox="0.00 0.00 609.00 219.00" xmlns="http://www.w3.org/2000/svg" xmlns:xlink="http://www.w3.org/1999/xlink">
<g id="graph0" class="graph" transform="scale(1 1) rotate(0) translate(4 215)">
<title>oneDegreeRelationshipsDiagram</title>
<polygon fill="#ffffff" stroke="transparent" points="-4,4 -4,-215 605,-215 605,4 -4,4"/>
<text text-anchor="middle" x="71.5" y="-7.2" font-family="Helvetica,sans-Serif" font-size="11.00">Generated by SchemaSpy</text>
<!-- acc_gl_financial_activity_account -->
<g id="node1" class="node">
<title>acc_gl_financial_activity_account</title>
<g id="a_node1"><a xlink:href="../../tables/acc_gl_financial_activity_account.html" xlink:title="acc_gl_financial_activity_account" target="_top">
<polygon fill="#ffffff" stroke="transparent" points="293,-97 293,-207 593,-207 593,-97 293,-97"/>
<polygon fill="#f5f5f5" stroke="transparent" points="295,-183 295,-205 591,-205 591,-183 295,-183"/>
<polygon fill="none" stroke="black" points="295,-183 295,-205 591,-205 591,-183 295,-183"/>
<text text-anchor="start" x="300" y="-192.2" font-family="Helvetica,sans-Serif" font-weight="bold" font-size="11.00">acc_gl_financial_activity_account</text>
<text text-anchor="start" x="556" y="-191.2" font-family="Helvetica,sans-Serif" font-size="11.00">[table]</text>
<polygon fill="none" stroke="black" points="295,-161 295,-183 536,-183 536,-161 295,-161"/>
<image xlink:href="../../images/primaryKeys.png" width="11px" height="12px" preserveAspectRatio="xMinYMin meet" x="300" y="-178"/>
<text text-anchor="start" x="315" y="-169.2" font-family="Helvetica,sans-Serif" font-size="11.00">id</text>
<polygon fill="none" stroke="black" points="536,-161 536,-183 591,-183 591,-161 536,-161"/>
<text text-anchor="start" x="539" y="-169.2" font-family="Helvetica,sans-Serif" font-size="11.00">bigint[19]</text>
<polygon fill="#ffffff" stroke="transparent" points="295,-139 295,-161 536,-161 536,-139 295,-139"/>
<polygon fill="none" stroke="black" points="295,-139 295,-161 536,-161 536,-139 295,-139"/>
<image xlink:href="../../images/foreignKeys.png" width="11px" height="12px" preserveAspectRatio="xMinYMin meet" x="300" y="-156"/>
<text text-anchor="start" x="315" y="-147.2" font-family="Helvetica,sans-Serif" font-size="11.00">gl_account_id</text>
<polygon fill="none" stroke="black" points="536,-139 536,-161 591,-161 591,-139 536,-139"/>
<text text-anchor="start" x="539" y="-147.2" font-family="Helvetica,sans-Serif" font-size="11.00">bigint[19]</text>
<polygon fill="#ffffff" stroke="transparent" points="295,-117 295,-139 536,-139 536,-117 295,-117"/>
<polygon fill="none" stroke="black" points="295,-117 295,-139 536,-139 536,-117 295,-117"/>
<text text-anchor="start" x="315" y="-125.2" font-family="Helvetica,sans-Serif" font-size="11.00">financial_activity_type</text>
<polygon fill="none" stroke="black" points="536,-117 536,-139 591,-139 591,-117 536,-117"/>
<text text-anchor="start" x="539" y="-125.2" font-family="Helvetica,sans-Serif" font-size="11.00">smallint[5]</text>
<polygon fill="#ffffff" stroke="transparent" points="295,-99 295,-117 407,-117 407,-99 295,-99"/>
<polygon fill="none" stroke="black" points="295,-99 295,-117 407,-117 407,-99 295,-99"/>
<text text-anchor="start" x="298" y="-105.2" font-family="Helvetica,sans-Serif" font-size="11.00">&lt; 1</text>
<polygon fill="#ffffff" stroke="transparent" points="407,-99 407,-117 536,-117 536,-99 407,-99"/>
<polygon fill="none" stroke="black" points="407,-99 407,-117 536,-117 536,-99 407,-99"/>
<text text-anchor="start" x="500" y="-105.2" font-family="Helvetica,sans-Serif" font-size="11.00">0 rows</text>
<polygon fill="#ffffff" stroke="transparent" points="536,-99 536,-117 591,-117 591,-99 536,-99"/>
<polygon fill="none" stroke="black" points="536,-99 536,-117 591,-117 591,-99 536,-99"/>
<text text-anchor="start" x="572" y="-105.2" font-family="Helvetica,sans-Serif" font-size="11.00">0 &gt;</text>
<polygon fill="none" stroke="black" stroke-width="2" points="294,-98 294,-206 592,-206 592,-98 294,-98"/>
</a>
</g>
</g>
<!-- acc_gl_account -->
<g id="node2" class="node">
<title>acc_gl_account</title>
<g id="a_node2"><a xlink:href="../../tables/acc_gl_account.html" xlink:title="acc_gl_account" target="_top">
<polygon fill="#ffffff" stroke="transparent" points="8,-37 8,-183 244,-183 244,-37 8,-37"/>
<polygon fill="#f5f5f5" stroke="transparent" points="8,-161 8,-183 244,-183 244,-161 8,-161"/>
<polygon fill="none" stroke="black" points="8,-161 8,-183 244,-183 244,-161 8,-161"/>
<text text-anchor="start" x="13" y="-170.2" font-family="Helvetica,sans-Serif" font-weight="bold" font-size="11.00">acc_gl_account</text>
<text text-anchor="start" x="209" y="-169.2" font-family="Helvetica,sans-Serif" font-size="11.00">[table]</text>
<polygon fill="none" stroke="black" points="8,-139 8,-161 244,-161 244,-139 8,-139"/>
<image xlink:href="../../images/primaryKeys.png" width="11px" height="12px" preserveAspectRatio="xMinYMin meet" x="13" y="-156"/>
<text text-anchor="start" x="28" y="-147.2" font-family="Helvetica,sans-Serif" font-size="11.00">id</text>
<polygon fill="#ffffff" stroke="transparent" points="8,-117 8,-139 244,-139 244,-117 8,-117"/>
<polygon fill="none" stroke="black" points="8,-117 8,-139 244,-139 244,-117 8,-117"/>
<image xlink:href="../../images/foreignKeys.png" width="11px" height="12px" preserveAspectRatio="xMinYMin meet" x="13" y="-134"/>
<text text-anchor="start" x="28" y="-125.2" font-family="Helvetica,sans-Serif" font-size="11.00">parent_id</text>
<polygon fill="#ffffff" stroke="transparent" points="8,-95 8,-117 244,-117 244,-95 8,-95"/>
<polygon fill="none" stroke="black" points="8,-95 8,-117 244,-117 244,-95 8,-95"/>
<text text-anchor="start" x="28" y="-103.2" font-family="Helvetica,sans-Serif" font-size="11.00">gl_code</text>
<polygon fill="#ffffff" stroke="transparent" points="8,-73 8,-95 244,-95 244,-73 8,-73"/>
<polygon fill="none" stroke="black" points="8,-73 8,-95 244,-95 244,-73 8,-73"/>
<image xlink:href="../../images/foreignKeys.png" width="11px" height="12px" preserveAspectRatio="xMinYMin meet" x="13" y="-90"/>
<text text-anchor="start" x="28" y="-81.2" font-family="Helvetica,sans-Serif" font-size="11.00">tag_id</text>
<polygon fill="none" stroke="black" points="8,-55 8,-73 244,-73 244,-55 8,-55"/>
<text text-anchor="start" x="11" y="-61.2" font-family="Helvetica,sans-Serif" font-size="11.00">...</text>
<polygon fill="#ffffff" stroke="transparent" points="8,-37 8,-55 103,-55 103,-37 8,-37"/>
<polygon fill="none" stroke="black" points="8,-37 8,-55 103,-55 103,-37 8,-37"/>
<text text-anchor="start" x="11" y="-43.2" font-family="Helvetica,sans-Serif" font-size="11.00">&lt; 2</text>
<polygon fill="#ffffff" stroke="transparent" points="103,-37 103,-55 179,-55 179,-37 103,-37"/>
<polygon fill="none" stroke="black" points="103,-37 103,-55 179,-55 179,-37 103,-37"/>
<text text-anchor="start" x="143" y="-43.2" font-family="Helvetica,sans-Serif" font-size="11.00">0 rows</text>
<polygon fill="#ffffff" stroke="transparent" points="179,-37 179,-55 244,-55 244,-37 179,-37"/>
<polygon fill="none" stroke="black" points="179,-37 179,-55 244,-55 244,-37 179,-37"/>
<text text-anchor="start" x="219" y="-43.2" font-family="Helvetica,sans-Serif" font-size="11.00">14 &gt;</text>
</a>
</g>
</g>
<!-- acc_gl_financial_activity_account&#45;&gt;acc_gl_account -->
<g id="edge1" class="edge">
<title>acc_gl_financial_activity_account:w&#45;&gt;acc_gl_account:e</title>
<path fill="none" stroke="black" d="M279.49,-150C268.18,-150 260.99,-150 245,-150"/>
<polygon fill="black" stroke="black" points="286,-150 294,-153.6 290,-150 294,-150 294,-150 294,-150 290,-150 294,-146.4 286,-150 286,-150"/>
<ellipse fill="none" stroke="black" cx="282.8" cy="-150" rx="3.2" ry="3.2"/>
</g>
</g>
</svg>
