<?xml version="1.0" encoding="UTF-8" standalone="no"?>
<!DOCTYPE svg PUBLIC "-//W3C//DTD SVG 1.1//EN"
 "http://www.w3.org/Graphics/SVG/1.1/DTD/svg11.dtd">
<!-- Generated by graphviz version 2.43.0 (0)
 -->
<!-- Title: oneDegreeRelationshipsDiagram Pages: 1 -->
<svg width="509pt" height="137pt"
 viewBox="0.00 0.00 509.00 137.00" xmlns="http://www.w3.org/2000/svg" xmlns:xlink="http://www.w3.org/1999/xlink">
<g id="graph0" class="graph" transform="scale(1 1) rotate(0) translate(4 133)">
<title>oneDegreeRelationshipsDiagram</title>
<polygon fill="#ffffff" stroke="transparent" points="-4,4 -4,-133 505,-133 505,4 -4,4"/>
<text text-anchor="middle" x="71.5" y="-7.2" font-family="Helvetica,sans-Serif" font-size="11.00">Generated by SchemaSpy</text>
<!-- c_external_service_properties -->
<g id="node1" class="node">
<title>c_external_service_properties</title>
<g id="a_node1"><a xlink:href="../../tables/c_external_service_properties.html" xlink:title="c_external_service_properties" target="_top">
<polygon fill="#ffffff" stroke="transparent" points="272,-43 272,-123 493,-123 493,-43 272,-43"/>
<polygon fill="#f5f5f5" stroke="transparent" points="272.5,-101 272.5,-123 493.5,-123 493.5,-101 272.5,-101"/>
<polygon fill="none" stroke="black" points="272.5,-101 272.5,-123 493.5,-123 493.5,-101 272.5,-101"/>
<text text-anchor="start" x="277.5" y="-110.2" font-family="Helvetica,sans-Serif" font-weight="bold" font-size="11.00">c_external_service_properties</text>
<text text-anchor="start" x="458.5" y="-109.2" font-family="Helvetica,sans-Serif" font-size="11.00">[table]</text>
<polygon fill="#ffffff" stroke="transparent" points="272.5,-79 272.5,-101 493.5,-101 493.5,-79 272.5,-79"/>
<polygon fill="none" stroke="black" points="272.5,-79 272.5,-101 493.5,-101 493.5,-79 272.5,-79"/>
<image xlink:href="../../images/foreignKeys.png" width="11px" height="12px" preserveAspectRatio="xMinYMin meet" x="277.5" y="-96"/>
<text text-anchor="start" x="292.5" y="-87.2" font-family="Helvetica,sans-Serif" font-size="11.00">external_service_id</text>
<polygon fill="none" stroke="black" points="272.5,-61 272.5,-79 493.5,-79 493.5,-61 272.5,-61"/>
<text text-anchor="start" x="275.5" y="-67.2" font-family="Helvetica,sans-Serif" font-size="11.00">...</text>
<polygon fill="#ffffff" stroke="transparent" points="272.5,-43 272.5,-61 367.5,-61 367.5,-43 272.5,-43"/>
<polygon fill="none" stroke="black" points="272.5,-43 272.5,-61 367.5,-61 367.5,-43 272.5,-43"/>
<text text-anchor="start" x="275.5" y="-49.2" font-family="Helvetica,sans-Serif" font-size="11.00">&lt; 1</text>
<polygon fill="#ffffff" stroke="transparent" points="367.5,-43 367.5,-61 443.5,-61 443.5,-43 367.5,-43"/>
<polygon fill="none" stroke="black" points="367.5,-43 367.5,-61 443.5,-61 443.5,-43 367.5,-43"/>
<text text-anchor="start" x="407.5" y="-49.2" font-family="Helvetica,sans-Serif" font-size="11.00">0 rows</text>
<polygon fill="#ffffff" stroke="transparent" points="443.5,-43 443.5,-61 493.5,-61 493.5,-43 443.5,-43"/>
<polygon fill="none" stroke="black" points="443.5,-43 443.5,-61 493.5,-61 493.5,-43 443.5,-43"/>
<text text-anchor="start" x="483.5" y="-49.2" font-family="Helvetica,sans-Serif" font-size="11.00"> &#160;</text>
</a>
</g>
</g>
<!-- c_external_service -->
<g id="node2" class="node">
<title>c_external_service</title>
<g id="a_node2"><a xlink:href="../../tables/c_external_service.html" xlink:title="c_external_service" target="_top">
<polygon fill="#ffffff" stroke="transparent" points="8,-37 8,-125 223,-125 223,-37 8,-37"/>
<polygon fill="#f5f5f5" stroke="transparent" points="10.5,-101 10.5,-123 221.5,-123 221.5,-101 10.5,-101"/>
<polygon fill="none" stroke="black" points="10.5,-101 10.5,-123 221.5,-123 221.5,-101 10.5,-101"/>
<text text-anchor="start" x="15.5" y="-110.2" font-family="Helvetica,sans-Serif" font-weight="bold" font-size="11.00">c_external_service</text>
<text text-anchor="start" x="186.5" y="-109.2" font-family="Helvetica,sans-Serif" font-size="11.00">[table]</text>
<polygon fill="none" stroke="black" points="10.5,-79 10.5,-101 154.5,-101 154.5,-79 10.5,-79"/>
<image xlink:href="../../images/primaryKeys.png" width="11px" height="12px" preserveAspectRatio="xMinYMin meet" x="15.5" y="-96"/>
<text text-anchor="start" x="30.5" y="-87.2" font-family="Helvetica,sans-Serif" font-size="11.00">id</text>
<polygon fill="none" stroke="black" points="154.5,-79 154.5,-101 221.5,-101 221.5,-79 154.5,-79"/>
<text text-anchor="start" x="157.5" y="-87.2" font-family="Helvetica,sans-Serif" font-size="11.00">bigint[19]</text>
<polygon fill="#ffffff" stroke="transparent" points="10.5,-57 10.5,-79 154.5,-79 154.5,-57 10.5,-57"/>
<polygon fill="none" stroke="black" points="10.5,-57 10.5,-79 154.5,-79 154.5,-57 10.5,-57"/>
<text text-anchor="start" x="30.5" y="-65.2" font-family="Helvetica,sans-Serif" font-size="11.00">name</text>
<polygon fill="none" stroke="black" points="154.5,-57 154.5,-79 221.5,-79 221.5,-57 154.5,-57"/>
<text text-anchor="start" x="157.5" y="-65.2" font-family="Helvetica,sans-Serif" font-size="11.00">varchar[100]</text>
<polygon fill="#ffffff" stroke="transparent" points="10.5,-39 10.5,-57 73.5,-57 73.5,-39 10.5,-39"/>
<polygon fill="none" stroke="black" points="10.5,-39 10.5,-57 73.5,-57 73.5,-39 10.5,-39"/>
<text text-anchor="start" x="13.5" y="-45.2" font-family="Helvetica,sans-Serif" font-size="11.00">&lt; 0</text>
<polygon fill="#ffffff" stroke="transparent" points="73.5,-39 73.5,-57 154.5,-57 154.5,-39 73.5,-39"/>
<polygon fill="none" stroke="black" points="73.5,-39 73.5,-57 154.5,-57 154.5,-39 73.5,-39"/>
<text text-anchor="start" x="118.5" y="-45.2" font-family="Helvetica,sans-Serif" font-size="11.00">4 rows</text>
<polygon fill="#ffffff" stroke="transparent" points="154.5,-39 154.5,-57 221.5,-57 221.5,-39 154.5,-39"/>
<polygon fill="none" stroke="black" points="154.5,-39 154.5,-57 221.5,-57 221.5,-39 154.5,-39"/>
<text text-anchor="start" x="202.5" y="-45.2" font-family="Helvetica,sans-Serif" font-size="11.00">1 &gt;</text>
<polygon fill="none" stroke="black" stroke-width="2" points="9,-38 9,-124 222,-124 222,-38 9,-38"/>
</a>
</g>
</g>
<!-- c_external_service_properties&#45;&gt;c_external_service -->
<g id="edge1" class="edge">
<title>c_external_service_properties:w&#45;&gt;c_external_service:e</title>
<path fill="none" stroke="black" d="M256.99,-90C245.68,-90 238.49,-90 222.5,-90"/>
<polygon fill="black" stroke="black" points="263.5,-90 271.5,-93.6 267.5,-90 271.5,-90 271.5,-90 271.5,-90 267.5,-90 271.5,-86.4 263.5,-90 263.5,-90"/>
<ellipse fill="none" stroke="black" cx="260.3" cy="-90" rx="3.2" ry="3.2"/>
</g>
</g>
</svg>
