<?xml version="1.0" encoding="UTF-8" standalone="no"?>
<!DOCTYPE svg PUBLIC "-//W3C//DTD SVG 1.1//EN"
 "http://www.w3.org/Graphics/SVG/1.1/DTD/svg11.dtd">
<!-- Generated by graphviz version 2.43.0 (0)
 -->
<!-- Title: oneDegreeRelationshipsDiagram Pages: 1 -->
<svg width="509pt" height="179pt"
 viewBox="0.00 0.00 509.00 179.00" xmlns="http://www.w3.org/2000/svg" xmlns:xlink="http://www.w3.org/1999/xlink">
<g id="graph0" class="graph" transform="scale(1 1) rotate(0) translate(4 175)">
<title>oneDegreeRelationshipsDiagram</title>
<polygon fill="#ffffff" stroke="transparent" points="-4,4 -4,-175 505,-175 505,4 -4,4"/>
<text text-anchor="middle" x="71.5" y="-7.2" font-family="Helvetica,sans-Serif" font-size="11.00">Generated by SchemaSpy</text>
<!-- c_external_service_properties -->
<g id="node1" class="node">
<title>c_external_service_properties</title>
<g id="a_node1"><a xlink:href="../../tables/c_external_service_properties.html" xlink:title="c_external_service_properties" target="_top">
<polygon fill="#ffffff" stroke="transparent" points="201,-57 201,-167 493,-167 493,-57 201,-57"/>
<polygon fill="#f5f5f5" stroke="transparent" points="203,-143 203,-165 491,-165 491,-143 203,-143"/>
<polygon fill="none" stroke="black" points="203,-143 203,-165 491,-165 491,-143 203,-143"/>
<text text-anchor="start" x="208" y="-152.2" font-family="Helvetica,sans-Serif" font-weight="bold" font-size="11.00">c_external_service_properties</text>
<text text-anchor="start" x="456" y="-151.2" font-family="Helvetica,sans-Serif" font-size="11.00">[table]</text>
<polygon fill="none" stroke="black" points="203,-121 203,-143 424,-143 424,-121 203,-121"/>
<text text-anchor="start" x="223" y="-129.2" font-family="Helvetica,sans-Serif" font-size="11.00">name</text>
<polygon fill="none" stroke="black" points="424,-121 424,-143 491,-143 491,-121 424,-121"/>
<text text-anchor="start" x="427" y="-129.2" font-family="Helvetica,sans-Serif" font-size="11.00">varchar[150]</text>
<polygon fill="none" stroke="black" points="203,-99 203,-121 424,-121 424,-99 203,-99"/>
<text text-anchor="start" x="223" y="-107.2" font-family="Helvetica,sans-Serif" font-size="11.00">value</text>
<polygon fill="none" stroke="black" points="424,-99 424,-121 491,-121 491,-99 424,-99"/>
<text text-anchor="start" x="427" y="-107.2" font-family="Helvetica,sans-Serif" font-size="11.00">varchar[250]</text>
<polygon fill="#ffffff" stroke="transparent" points="203,-77 203,-99 424,-99 424,-77 203,-77"/>
<polygon fill="none" stroke="black" points="203,-77 203,-99 424,-99 424,-77 203,-77"/>
<image xlink:href="../../images/foreignKeys.png" width="11px" height="12px" preserveAspectRatio="xMinYMin meet" x="208" y="-94"/>
<text text-anchor="start" x="223" y="-85.2" font-family="Helvetica,sans-Serif" font-size="11.00">external_service_id</text>
<polygon fill="none" stroke="black" points="424,-77 424,-99 491,-99 491,-77 424,-77"/>
<text text-anchor="start" x="427" y="-85.2" font-family="Helvetica,sans-Serif" font-size="11.00">bigint[19]</text>
<polygon fill="#ffffff" stroke="transparent" points="203,-59 203,-77 305,-77 305,-59 203,-59"/>
<polygon fill="none" stroke="black" points="203,-59 203,-77 305,-77 305,-59 203,-59"/>
<text text-anchor="start" x="206" y="-65.2" font-family="Helvetica,sans-Serif" font-size="11.00">&lt; 1</text>
<polygon fill="#ffffff" stroke="transparent" points="305,-59 305,-77 424,-77 424,-59 305,-59"/>
<polygon fill="none" stroke="black" points="305,-59 305,-77 424,-77 424,-59 305,-59"/>
<text text-anchor="start" x="388" y="-65.2" font-family="Helvetica,sans-Serif" font-size="11.00">0 rows</text>
<polygon fill="#ffffff" stroke="transparent" points="424,-59 424,-77 491,-77 491,-59 424,-59"/>
<polygon fill="none" stroke="black" points="424,-59 424,-77 491,-77 491,-59 424,-59"/>
<text text-anchor="start" x="472" y="-65.2" font-family="Helvetica,sans-Serif" font-size="11.00">0 &gt;</text>
<polygon fill="none" stroke="black" stroke-width="2" points="202,-58 202,-166 492,-166 492,-58 202,-58"/>
</a>
</g>
</g>
<!-- c_external_service -->
<g id="node2" class="node">
<title>c_external_service</title>
<g id="a_node2"><a xlink:href="../../tables/c_external_service.html" xlink:title="c_external_service" target="_top">
<polygon fill="#ffffff" stroke="transparent" points="8,-37 8,-121 152,-121 152,-37 8,-37"/>
<polygon fill="#f5f5f5" stroke="transparent" points="8,-99 8,-121 152,-121 152,-99 8,-99"/>
<polygon fill="none" stroke="black" points="8,-99 8,-121 152,-121 152,-99 8,-99"/>
<text text-anchor="start" x="13" y="-108.2" font-family="Helvetica,sans-Serif" font-weight="bold" font-size="11.00">c_external_service</text>
<text text-anchor="start" x="117" y="-107.2" font-family="Helvetica,sans-Serif" font-size="11.00">[table]</text>
<polygon fill="none" stroke="black" points="8,-77 8,-99 152,-99 152,-77 8,-77"/>
<image xlink:href="../../images/primaryKeys.png" width="11px" height="12px" preserveAspectRatio="xMinYMin meet" x="13" y="-94"/>
<text text-anchor="start" x="28" y="-85.2" font-family="Helvetica,sans-Serif" font-size="11.00">id</text>
<polygon fill="#ffffff" stroke="transparent" points="8,-55 8,-77 152,-77 152,-55 8,-55"/>
<polygon fill="none" stroke="black" points="8,-55 8,-77 152,-77 152,-55 8,-55"/>
<text text-anchor="start" x="28" y="-63.2" font-family="Helvetica,sans-Serif" font-size="11.00">name</text>
<polygon fill="#ffffff" stroke="transparent" points="8,-37 8,-55 56,-55 56,-37 8,-37"/>
<polygon fill="none" stroke="black" points="8,-37 8,-55 56,-55 56,-37 8,-37"/>
<text text-anchor="start" x="11" y="-43.2" font-family="Helvetica,sans-Serif" font-size="11.00"> &#160;</text>
<polygon fill="#ffffff" stroke="transparent" points="56,-37 56,-55 112,-55 112,-37 56,-37"/>
<polygon fill="none" stroke="black" points="56,-37 56,-55 112,-55 112,-37 56,-37"/>
<text text-anchor="start" x="76" y="-43.2" font-family="Helvetica,sans-Serif" font-size="11.00">4 rows</text>
<polygon fill="#ffffff" stroke="transparent" points="112,-37 112,-55 152,-55 152,-37 112,-37"/>
<polygon fill="none" stroke="black" points="112,-37 112,-55 152,-55 152,-37 112,-37"/>
<text text-anchor="start" x="133" y="-43.2" font-family="Helvetica,sans-Serif" font-size="11.00">1 &gt;</text>
</a>
</g>
</g>
<!-- c_external_service_properties&#45;&gt;c_external_service -->
<g id="edge1" class="edge">
<title>c_external_service_properties:w&#45;&gt;c_external_service:e</title>
<path fill="none" stroke="black" d="M187.49,-88C176.18,-88 168.99,-88 153,-88"/>
<polygon fill="black" stroke="black" points="194,-88 202,-91.6 198,-88 202,-88 202,-88 202,-88 198,-88 202,-84.4 194,-88 194,-88"/>
<ellipse fill="none" stroke="black" cx="190.8" cy="-88" rx="3.2" ry="3.2"/>
</g>
</g>
</svg>
