<?xml version="1.0" encoding="UTF-8" standalone="no"?>
<!DOCTYPE svg PUBLIC "-//W3C//DTD SVG 1.1//EN"
 "http://www.w3.org/Graphics/SVG/1.1/DTD/svg11.dtd">
<!-- Generated by graphviz version 2.43.0 (0)
 -->
<!-- Title: oneDegreeRelationshipsDiagram Pages: 1 -->
<svg width="847pt" height="395pt"
 viewBox="0.00 0.00 847.00 395.00" xmlns="http://www.w3.org/2000/svg" xmlns:xlink="http://www.w3.org/1999/xlink">
<g id="graph0" class="graph" transform="scale(1 1) rotate(0) translate(4 391)">
<title>oneDegreeRelationshipsDiagram</title>
<polygon fill="#ffffff" stroke="transparent" points="-4,4 -4,-391 843,-391 843,4 -4,4"/>
<text text-anchor="middle" x="71.5" y="-7.2" font-family="Helvetica,sans-Serif" font-size="11.00">Generated by SchemaSpy</text>
<!-- gsim_accounts -->
<g id="node1" class="node">
<title>gsim_accounts</title>
<g id="a_node1"><a xlink:href="../../tables/gsim_accounts.html" xlink:title="gsim_accounts" target="_top">
<polygon fill="#ffffff" stroke="transparent" points="218,-37 218,-257 456,-257 456,-37 218,-37"/>
<polygon fill="#f5f5f5" stroke="transparent" points="220,-233 220,-255 454,-255 454,-233 220,-233"/>
<polygon fill="none" stroke="black" points="220,-233 220,-255 454,-255 454,-233 220,-233"/>
<text text-anchor="start" x="225" y="-242.2" font-family="Helvetica,sans-Serif" font-weight="bold" font-size="11.00">gsim_accounts</text>
<text text-anchor="start" x="419" y="-241.2" font-family="Helvetica,sans-Serif" font-size="11.00">[table]</text>
<polygon fill="none" stroke="black" points="220,-211 220,-233 384,-233 384,-211 220,-211"/>
<image xlink:href="../../images/primaryKeys.png" width="11px" height="12px" preserveAspectRatio="xMinYMin meet" x="225" y="-228"/>
<text text-anchor="start" x="240" y="-219.2" font-family="Helvetica,sans-Serif" font-size="11.00">id</text>
<polygon fill="none" stroke="black" points="384,-211 384,-233 454,-233 454,-211 384,-211"/>
<text text-anchor="start" x="387" y="-219.2" font-family="Helvetica,sans-Serif" font-size="11.00">bigint[19]</text>
<polygon fill="#ffffff" stroke="transparent" points="220,-189 220,-211 384,-211 384,-189 220,-189"/>
<polygon fill="none" stroke="black" points="220,-189 220,-211 384,-211 384,-189 220,-189"/>
<image xlink:href="../../images/foreignKeys.png" width="11px" height="12px" preserveAspectRatio="xMinYMin meet" x="225" y="-206"/>
<text text-anchor="start" x="240" y="-197.2" font-family="Helvetica,sans-Serif" font-size="11.00">group_id</text>
<polygon fill="none" stroke="black" points="384,-189 384,-211 454,-211 454,-189 384,-189"/>
<text text-anchor="start" x="387" y="-197.2" font-family="Helvetica,sans-Serif" font-size="11.00">bigint[19]</text>
<polygon fill="#ffffff" stroke="transparent" points="220,-167 220,-189 384,-189 384,-167 220,-167"/>
<polygon fill="none" stroke="black" points="220,-167 220,-189 384,-189 384,-167 220,-167"/>
<text text-anchor="start" x="240" y="-175.2" font-family="Helvetica,sans-Serif" font-size="11.00">account_number</text>
<polygon fill="none" stroke="black" points="384,-167 384,-189 454,-189 454,-167 384,-167"/>
<text text-anchor="start" x="387" y="-175.2" font-family="Helvetica,sans-Serif" font-size="11.00">varchar[50]</text>
<polygon fill="none" stroke="black" points="220,-145 220,-167 384,-167 384,-145 220,-145"/>
<text text-anchor="start" x="240" y="-153.2" font-family="Helvetica,sans-Serif" font-size="11.00">parent_deposit</text>
<polygon fill="none" stroke="black" points="384,-145 384,-167 454,-167 454,-145 384,-145"/>
<text text-anchor="start" x="387" y="-153.2" font-family="Helvetica,sans-Serif" font-size="11.00">decimal[19,6]</text>
<polygon fill="none" stroke="black" points="220,-123 220,-145 384,-145 384,-123 220,-123"/>
<text text-anchor="start" x="240" y="-131.2" font-family="Helvetica,sans-Serif" font-size="11.00">child_accounts_count</text>
<polygon fill="none" stroke="black" points="384,-123 384,-145 454,-145 454,-123 384,-123"/>
<text text-anchor="start" x="387" y="-131.2" font-family="Helvetica,sans-Serif" font-size="11.00">int[10]</text>
<polygon fill="none" stroke="black" points="220,-101 220,-123 384,-123 384,-101 220,-101"/>
<text text-anchor="start" x="240" y="-109.2" font-family="Helvetica,sans-Serif" font-size="11.00">accepting_child</text>
<polygon fill="none" stroke="black" points="384,-101 384,-123 454,-123 454,-101 384,-101"/>
<text text-anchor="start" x="387" y="-109.2" font-family="Helvetica,sans-Serif" font-size="11.00">bit[1]</text>
<polygon fill="none" stroke="black" points="220,-79 220,-101 384,-101 384,-79 220,-79"/>
<text text-anchor="start" x="240" y="-87.2" font-family="Helvetica,sans-Serif" font-size="11.00">savings_status_id</text>
<polygon fill="none" stroke="black" points="384,-79 384,-101 454,-101 454,-79 384,-79"/>
<text text-anchor="start" x="387" y="-87.2" font-family="Helvetica,sans-Serif" font-size="11.00">smallint[5]</text>
<polygon fill="none" stroke="black" points="220,-57 220,-79 384,-79 384,-57 220,-57"/>
<text text-anchor="start" x="240" y="-65.2" font-family="Helvetica,sans-Serif" font-size="11.00">application_id</text>
<polygon fill="none" stroke="black" points="384,-57 384,-79 454,-79 454,-57 384,-57"/>
<text text-anchor="start" x="387" y="-65.2" font-family="Helvetica,sans-Serif" font-size="11.00">decimal[10]</text>
<polygon fill="#ffffff" stroke="transparent" points="220,-39 220,-57 293,-57 293,-39 220,-39"/>
<polygon fill="none" stroke="black" points="220,-39 220,-57 293,-57 293,-39 220,-39"/>
<text text-anchor="start" x="223" y="-45.2" font-family="Helvetica,sans-Serif" font-size="11.00">&lt; 1</text>
<polygon fill="#ffffff" stroke="transparent" points="293,-39 293,-57 384,-57 384,-39 293,-39"/>
<polygon fill="none" stroke="black" points="293,-39 293,-57 384,-57 384,-39 293,-39"/>
<text text-anchor="start" x="348" y="-45.2" font-family="Helvetica,sans-Serif" font-size="11.00">0 rows</text>
<polygon fill="#ffffff" stroke="transparent" points="384,-39 384,-57 454,-57 454,-39 384,-39"/>
<polygon fill="none" stroke="black" points="384,-39 384,-57 454,-57 454,-39 384,-39"/>
<text text-anchor="start" x="435" y="-45.2" font-family="Helvetica,sans-Serif" font-size="11.00">1 &gt;</text>
<polygon fill="none" stroke="black" stroke-width="2" points="219,-38 219,-256 455,-256 455,-38 219,-38"/>
</a>
</g>
</g>
<!-- m_group -->
<g id="node2" class="node">
<title>m_group</title>
<g id="a_node2"><a xlink:href="../../tables/m_group.html" xlink:title="m_group" target="_top">
<polygon fill="#ffffff" stroke="transparent" points="8,-39 8,-273 169,-273 169,-39 8,-39"/>
<polygon fill="#f5f5f5" stroke="transparent" points="8.5,-251 8.5,-273 169.5,-273 169.5,-251 8.5,-251"/>
<polygon fill="none" stroke="black" points="8.5,-251 8.5,-273 169.5,-273 169.5,-251 8.5,-251"/>
<text text-anchor="start" x="13.5" y="-260.2" font-family="Helvetica,sans-Serif" font-weight="bold" font-size="11.00">m_group</text>
<text text-anchor="start" x="134.5" y="-259.2" font-family="Helvetica,sans-Serif" font-size="11.00">[table]</text>
<polygon fill="none" stroke="black" points="8.5,-229 8.5,-251 169.5,-251 169.5,-229 8.5,-229"/>
<image xlink:href="../../images/primaryKeys.png" width="11px" height="12px" preserveAspectRatio="xMinYMin meet" x="13.5" y="-246"/>
<text text-anchor="start" x="28.5" y="-237.2" font-family="Helvetica,sans-Serif" font-size="11.00">id</text>
<polygon fill="#ffffff" stroke="transparent" points="8.5,-207 8.5,-229 169.5,-229 169.5,-207 8.5,-207"/>
<polygon fill="none" stroke="black" points="8.5,-207 8.5,-229 169.5,-229 169.5,-207 8.5,-207"/>
<text text-anchor="start" x="28.5" y="-215.2" font-family="Helvetica,sans-Serif" font-size="11.00">external_id</text>
<polygon fill="#ffffff" stroke="transparent" points="8.5,-185 8.5,-207 169.5,-207 169.5,-185 8.5,-185"/>
<polygon fill="none" stroke="black" points="8.5,-185 8.5,-207 169.5,-207 169.5,-185 8.5,-185"/>
<image xlink:href="../../images/foreignKeys.png" width="11px" height="12px" preserveAspectRatio="xMinYMin meet" x="13.5" y="-202"/>
<text text-anchor="start" x="28.5" y="-193.2" font-family="Helvetica,sans-Serif" font-size="11.00">office_id</text>
<polygon fill="#ffffff" stroke="transparent" points="8.5,-163 8.5,-185 169.5,-185 169.5,-163 8.5,-163"/>
<polygon fill="none" stroke="black" points="8.5,-163 8.5,-185 169.5,-185 169.5,-163 8.5,-163"/>
<image xlink:href="../../images/foreignKeys.png" width="11px" height="12px" preserveAspectRatio="xMinYMin meet" x="13.5" y="-180"/>
<text text-anchor="start" x="28.5" y="-171.2" font-family="Helvetica,sans-Serif" font-size="11.00">staff_id</text>
<polygon fill="#ffffff" stroke="transparent" points="8.5,-141 8.5,-163 169.5,-163 169.5,-141 8.5,-141"/>
<polygon fill="none" stroke="black" points="8.5,-141 8.5,-163 169.5,-163 169.5,-141 8.5,-141"/>
<image xlink:href="../../images/foreignKeys.png" width="11px" height="12px" preserveAspectRatio="xMinYMin meet" x="13.5" y="-158"/>
<text text-anchor="start" x="28.5" y="-149.2" font-family="Helvetica,sans-Serif" font-size="11.00">parent_id</text>
<polygon fill="#ffffff" stroke="transparent" points="8.5,-119 8.5,-141 169.5,-141 169.5,-119 8.5,-119"/>
<polygon fill="none" stroke="black" points="8.5,-119 8.5,-141 169.5,-141 169.5,-119 8.5,-119"/>
<image xlink:href="../../images/foreignKeys.png" width="11px" height="12px" preserveAspectRatio="xMinYMin meet" x="13.5" y="-136"/>
<text text-anchor="start" x="28.5" y="-127.2" font-family="Helvetica,sans-Serif" font-size="11.00">level_id</text>
<polygon fill="#ffffff" stroke="transparent" points="8.5,-97 8.5,-119 169.5,-119 169.5,-97 8.5,-97"/>
<polygon fill="none" stroke="black" points="8.5,-97 8.5,-119 169.5,-119 169.5,-97 8.5,-97"/>
<text text-anchor="start" x="28.5" y="-105.2" font-family="Helvetica,sans-Serif" font-size="11.00">display_name</text>
<polygon fill="#ffffff" stroke="transparent" points="8.5,-75 8.5,-97 169.5,-97 169.5,-75 8.5,-75"/>
<polygon fill="none" stroke="black" points="8.5,-75 8.5,-97 169.5,-97 169.5,-75 8.5,-75"/>
<image xlink:href="../../images/foreignKeys.png" width="11px" height="12px" preserveAspectRatio="xMinYMin meet" x="13.5" y="-92"/>
<text text-anchor="start" x="28.5" y="-83.2" font-family="Helvetica,sans-Serif" font-size="11.00">closure_reason_cv_id</text>
<polygon fill="none" stroke="black" points="8.5,-57 8.5,-75 169.5,-75 169.5,-57 8.5,-57"/>
<text text-anchor="start" x="11.5" y="-63.2" font-family="Helvetica,sans-Serif" font-size="11.00">...</text>
<polygon fill="#ffffff" stroke="transparent" points="8.5,-39 8.5,-57 66.5,-57 66.5,-39 8.5,-39"/>
<polygon fill="none" stroke="black" points="8.5,-39 8.5,-57 66.5,-57 66.5,-39 8.5,-39"/>
<text text-anchor="start" x="11.5" y="-45.2" font-family="Helvetica,sans-Serif" font-size="11.00">&lt; 5</text>
<polygon fill="#ffffff" stroke="transparent" points="66.5,-39 66.5,-57 123.5,-57 123.5,-39 66.5,-39"/>
<polygon fill="none" stroke="black" points="66.5,-39 66.5,-57 123.5,-57 123.5,-39 66.5,-39"/>
<text text-anchor="start" x="87.5" y="-45.2" font-family="Helvetica,sans-Serif" font-size="11.00">0 rows</text>
<polygon fill="#ffffff" stroke="transparent" points="123.5,-39 123.5,-57 169.5,-57 169.5,-39 123.5,-39"/>
<polygon fill="none" stroke="black" points="123.5,-39 123.5,-57 169.5,-57 169.5,-39 123.5,-39"/>
<text text-anchor="start" x="144.5" y="-45.2" font-family="Helvetica,sans-Serif" font-size="11.00">11 &gt;</text>
</a>
</g>
</g>
<!-- gsim_accounts&#45;&gt;m_group -->
<g id="edge1" class="edge">
<title>gsim_accounts:w&#45;&gt;m_group:e</title>
<path fill="none" stroke="black" d="M205,-204.9C192.6,-215.59 192.33,-240 170.5,-240"/>
<polygon fill="black" stroke="black" points="211.45,-202.64 220.19,-203.4 215.22,-201.32 219,-200 219,-200 219,-200 215.22,-201.32 217.81,-196.6 211.45,-202.64 211.45,-202.64"/>
<ellipse fill="none" stroke="black" cx="208.43" cy="-203.7" rx="3.2" ry="3.2"/>
</g>
<!-- m_savings_account -->
<g id="node3" class="node">
<title>m_savings_account</title>
<g id="a_node3"><a xlink:href="../../tables/m_savings_account.html" xlink:title="m_savings_account" target="_top">
<polygon fill="#ffffff" stroke="transparent" points="505,-149 505,-383 831,-383 831,-149 505,-149"/>
<polygon fill="#f5f5f5" stroke="transparent" points="505,-361 505,-383 831,-383 831,-361 505,-361"/>
<polygon fill="none" stroke="black" points="505,-361 505,-383 831,-383 831,-361 505,-361"/>
<text text-anchor="start" x="510" y="-370.2" font-family="Helvetica,sans-Serif" font-weight="bold" font-size="11.00">m_savings_account</text>
<text text-anchor="start" x="796" y="-369.2" font-family="Helvetica,sans-Serif" font-size="11.00">[table]</text>
<polygon fill="none" stroke="black" points="505,-339 505,-361 831,-361 831,-339 505,-339"/>
<image xlink:href="../../images/primaryKeys.png" width="11px" height="12px" preserveAspectRatio="xMinYMin meet" x="510" y="-356"/>
<text text-anchor="start" x="525" y="-347.2" font-family="Helvetica,sans-Serif" font-size="11.00">id</text>
<polygon fill="#ffffff" stroke="transparent" points="505,-317 505,-339 831,-339 831,-317 505,-317"/>
<polygon fill="none" stroke="black" points="505,-317 505,-339 831,-339 831,-317 505,-317"/>
<text text-anchor="start" x="525" y="-325.2" font-family="Helvetica,sans-Serif" font-size="11.00">account_no</text>
<polygon fill="#ffffff" stroke="transparent" points="505,-295 505,-317 831,-317 831,-295 505,-295"/>
<polygon fill="none" stroke="black" points="505,-295 505,-317 831,-317 831,-295 505,-295"/>
<text text-anchor="start" x="525" y="-303.2" font-family="Helvetica,sans-Serif" font-size="11.00">external_id</text>
<polygon fill="#ffffff" stroke="transparent" points="505,-273 505,-295 831,-295 831,-273 505,-273"/>
<polygon fill="none" stroke="black" points="505,-273 505,-295 831,-295 831,-273 505,-273"/>
<image xlink:href="../../images/foreignKeys.png" width="11px" height="12px" preserveAspectRatio="xMinYMin meet" x="510" y="-290"/>
<text text-anchor="start" x="525" y="-281.2" font-family="Helvetica,sans-Serif" font-size="11.00">client_id</text>
<polygon fill="#ffffff" stroke="transparent" points="505,-251 505,-273 831,-273 831,-251 505,-251"/>
<polygon fill="none" stroke="black" points="505,-251 505,-273 831,-273 831,-251 505,-251"/>
<image xlink:href="../../images/foreignKeys.png" width="11px" height="12px" preserveAspectRatio="xMinYMin meet" x="510" y="-268"/>
<text text-anchor="start" x="525" y="-259.2" font-family="Helvetica,sans-Serif" font-size="11.00">group_id</text>
<polygon fill="#ffffff" stroke="transparent" points="505,-229 505,-251 831,-251 831,-229 505,-229"/>
<polygon fill="none" stroke="black" points="505,-229 505,-251 831,-251 831,-229 505,-229"/>
<image xlink:href="../../images/foreignKeys.png" width="11px" height="12px" preserveAspectRatio="xMinYMin meet" x="510" y="-246"/>
<text text-anchor="start" x="525" y="-237.2" font-family="Helvetica,sans-Serif" font-size="11.00">gsim_id</text>
<polygon fill="#ffffff" stroke="transparent" points="505,-207 505,-229 831,-229 831,-207 505,-207"/>
<polygon fill="none" stroke="black" points="505,-207 505,-229 831,-229 831,-207 505,-207"/>
<image xlink:href="../../images/foreignKeys.png" width="11px" height="12px" preserveAspectRatio="xMinYMin meet" x="510" y="-224"/>
<text text-anchor="start" x="525" y="-215.2" font-family="Helvetica,sans-Serif" font-size="11.00">product_id</text>
<polygon fill="#ffffff" stroke="transparent" points="505,-185 505,-207 831,-207 831,-185 505,-185"/>
<polygon fill="none" stroke="black" points="505,-185 505,-207 831,-207 831,-185 505,-185"/>
<image xlink:href="../../images/foreignKeys.png" width="11px" height="12px" preserveAspectRatio="xMinYMin meet" x="510" y="-202"/>
<text text-anchor="start" x="525" y="-193.2" font-family="Helvetica,sans-Serif" font-size="11.00">tax_group_id</text>
<polygon fill="none" stroke="black" points="505,-167 505,-185 831,-185 831,-167 505,-167"/>
<text text-anchor="start" x="508" y="-173.2" font-family="Helvetica,sans-Serif" font-size="11.00">...</text>
<polygon fill="#ffffff" stroke="transparent" points="505,-149 505,-167 645,-167 645,-149 505,-149"/>
<polygon fill="none" stroke="black" points="505,-149 505,-167 645,-167 645,-149 505,-149"/>
<text text-anchor="start" x="508" y="-155.2" font-family="Helvetica,sans-Serif" font-size="11.00">&lt; 5</text>
<polygon fill="#ffffff" stroke="transparent" points="645,-149 645,-167 743,-167 743,-149 645,-149"/>
<polygon fill="none" stroke="black" points="645,-149 645,-167 743,-167 743,-149 645,-149"/>
<text text-anchor="start" x="707" y="-155.2" font-family="Helvetica,sans-Serif" font-size="11.00">0 rows</text>
<polygon fill="#ffffff" stroke="transparent" points="743,-149 743,-167 831,-167 831,-149 743,-149"/>
<polygon fill="none" stroke="black" points="743,-149 743,-167 831,-167 831,-149 743,-149"/>
<text text-anchor="start" x="806" y="-155.2" font-family="Helvetica,sans-Serif" font-size="11.00">17 &gt;</text>
</a>
</g>
</g>
<!-- m_savings_account&#45;&gt;gsim_accounts -->
<g id="edge3" class="edge">
<title>m_savings_account:w&#45;&gt;gsim_accounts:e</title>
<path fill="none" stroke="black" d="M489.82,-237.19C478.21,-232.12 472.4,-222 455,-222"/>
<polygon fill="black" stroke="black" points="496.15,-238.44 503.3,-243.53 500.08,-239.22 504,-240 504,-240 504,-240 500.08,-239.22 504.7,-236.47 496.15,-238.44 496.15,-238.44"/>
<ellipse fill="none" stroke="black" cx="493.01" cy="-237.82" rx="3.2" ry="3.2"/>
</g>
<!-- m_savings_account&#45;&gt;m_group -->
<g id="edge2" class="edge">
<title>m_savings_account:w&#45;&gt;m_group:e</title>
<path fill="none" stroke="black" d="M489.53,-263.28C481.71,-264.76 475.9,-267.11 464,-268 351.42,-276.4 317.57,-302.26 210,-268 189.5,-261.47 192.02,-240 170.5,-240"/>
<polygon fill="black" stroke="black" points="496.03,-262.7 504.32,-265.59 500.02,-262.35 504,-262 504,-262 504,-262 500.02,-262.35 503.68,-258.41 496.03,-262.7 496.03,-262.7"/>
<ellipse fill="none" stroke="black" cx="492.84" cy="-262.98" rx="3.2" ry="3.2"/>
</g>
</g>
</svg>
