<?xml version="1.0" encoding="UTF-8" standalone="no"?>
<!DOCTYPE svg PUBLIC "-//W3C//DTD SVG 1.1//EN"
 "http://www.w3.org/Graphics/SVG/1.1/DTD/svg11.dtd">
<!-- Generated by graphviz version 2.43.0 (0)
 -->
<!-- Title: twoDegreesRelationshipsDiagram Pages: 1 -->
<svg width="462pt" height="260pt"
 viewBox="0.00 0.00 462.00 260.00" xmlns="http://www.w3.org/2000/svg" xmlns:xlink="http://www.w3.org/1999/xlink">
<g id="graph0" class="graph" transform="scale(1 1) rotate(0) translate(4 256)">
<title>twoDegreesRelationshipsDiagram</title>
<polygon fill="#ffffff" stroke="transparent" points="-4,4 -4,-256 458,-256 458,4 -4,4"/>
<text text-anchor="middle" x="71.5" y="-7.2" font-family="Helvetica,sans-Serif" font-size="11.00">Generated by SchemaSpy</text>
<!-- job_parameters -->
<g id="node1" class="node">
<title>job_parameters</title>
<g id="a_node1"><a xlink:href="../../tables/job_parameters.html" xlink:title="job_parameters" target="_top">
<polygon fill="#ffffff" stroke="transparent" points="240,-116 240,-248 446,-248 446,-116 240,-116"/>
<polygon fill="#f5f5f5" stroke="transparent" points="242,-224 242,-246 444,-246 444,-224 242,-224"/>
<polygon fill="none" stroke="black" points="242,-224 242,-246 444,-246 444,-224 242,-224"/>
<text text-anchor="start" x="247" y="-233.2" font-family="Helvetica,sans-Serif" font-weight="bold" font-size="11.00">job_parameters</text>
<text text-anchor="start" x="409" y="-232.2" font-family="Helvetica,sans-Serif" font-size="11.00">[table]</text>
<polygon fill="none" stroke="black" points="242,-202 242,-224 377,-224 377,-202 242,-202"/>
<image xlink:href="../../images/primaryKeys.png" width="11px" height="12px" preserveAspectRatio="xMinYMin meet" x="247" y="-219"/>
<text text-anchor="start" x="262" y="-210.2" font-family="Helvetica,sans-Serif" font-size="11.00">id</text>
<polygon fill="none" stroke="black" points="377,-202 377,-224 444,-224 444,-202 377,-202"/>
<text text-anchor="start" x="380" y="-210.2" font-family="Helvetica,sans-Serif" font-size="11.00">bigint[19]</text>
<polygon fill="#ffffff" stroke="transparent" points="242,-180 242,-202 377,-202 377,-180 242,-180"/>
<polygon fill="none" stroke="black" points="242,-180 242,-202 377,-202 377,-180 242,-180"/>
<image xlink:href="../../images/foreignKeys.png" width="11px" height="12px" preserveAspectRatio="xMinYMin meet" x="247" y="-197"/>
<text text-anchor="start" x="262" y="-188.2" font-family="Helvetica,sans-Serif" font-size="11.00">job_id</text>
<polygon fill="none" stroke="black" points="377,-180 377,-202 444,-202 444,-180 377,-180"/>
<text text-anchor="start" x="380" y="-188.2" font-family="Helvetica,sans-Serif" font-size="11.00">bigint[19]</text>
<polygon fill="none" stroke="black" points="242,-158 242,-180 377,-180 377,-158 242,-158"/>
<text text-anchor="start" x="262" y="-166.2" font-family="Helvetica,sans-Serif" font-size="11.00">parameter_name</text>
<polygon fill="none" stroke="black" points="377,-158 377,-180 444,-180 444,-158 377,-158"/>
<text text-anchor="start" x="380" y="-166.2" font-family="Helvetica,sans-Serif" font-size="11.00">varchar[100]</text>
<polygon fill="none" stroke="black" points="242,-136 242,-158 377,-158 377,-136 242,-136"/>
<text text-anchor="start" x="262" y="-144.2" font-family="Helvetica,sans-Serif" font-size="11.00">parameter_value</text>
<polygon fill="none" stroke="black" points="377,-136 377,-158 444,-158 444,-136 377,-136"/>
<text text-anchor="start" x="380" y="-144.2" font-family="Helvetica,sans-Serif" font-size="11.00">int[10]</text>
<polygon fill="#ffffff" stroke="transparent" points="242,-118 242,-136 301,-136 301,-118 242,-118"/>
<polygon fill="none" stroke="black" points="242,-118 242,-136 301,-136 301,-118 242,-118"/>
<text text-anchor="start" x="245" y="-124.2" font-family="Helvetica,sans-Serif" font-size="11.00">&lt; 1</text>
<polygon fill="#ffffff" stroke="transparent" points="301,-118 301,-136 377,-136 377,-118 301,-118"/>
<polygon fill="none" stroke="black" points="301,-118 301,-136 377,-136 377,-118 301,-118"/>
<text text-anchor="start" x="341" y="-124.2" font-family="Helvetica,sans-Serif" font-size="11.00">0 rows</text>
<polygon fill="#ffffff" stroke="transparent" points="377,-118 377,-136 444,-136 444,-118 377,-118"/>
<polygon fill="none" stroke="black" points="377,-118 377,-136 444,-136 444,-118 377,-118"/>
<text text-anchor="start" x="425" y="-124.2" font-family="Helvetica,sans-Serif" font-size="11.00">0 &gt;</text>
<polygon fill="none" stroke="black" stroke-width="2" points="241,-117 241,-247 445,-247 445,-117 241,-117"/>
</a>
</g>
</g>
<!-- job -->
<g id="node2" class="node">
<title>job</title>
<g id="a_node2"><a xlink:href="../../tables/job.html" xlink:title="job" target="_top">
<polygon fill="#ffffff" stroke="transparent" points="8,-80 8,-160 191,-160 191,-80 8,-80"/>
<polygon fill="#f5f5f5" stroke="transparent" points="8.5,-138 8.5,-160 191.5,-160 191.5,-138 8.5,-138"/>
<polygon fill="none" stroke="black" points="8.5,-138 8.5,-160 191.5,-160 191.5,-138 8.5,-138"/>
<text text-anchor="start" x="13.5" y="-147.2" font-family="Helvetica,sans-Serif" font-weight="bold" font-size="11.00">job</text>
<text text-anchor="start" x="156.5" y="-146.2" font-family="Helvetica,sans-Serif" font-size="11.00">[table]</text>
<polygon fill="none" stroke="black" points="8.5,-116 8.5,-138 191.5,-138 191.5,-116 8.5,-116"/>
<image xlink:href="../../images/primaryKeys.png" width="11px" height="12px" preserveAspectRatio="xMinYMin meet" x="13.5" y="-133"/>
<text text-anchor="start" x="28.5" y="-124.2" font-family="Helvetica,sans-Serif" font-size="11.00">id</text>
<polygon fill="none" stroke="black" points="8.5,-98 8.5,-116 191.5,-116 191.5,-98 8.5,-98"/>
<text text-anchor="start" x="11.5" y="-104.2" font-family="Helvetica,sans-Serif" font-size="11.00">...</text>
<polygon fill="#ffffff" stroke="transparent" points="8.5,-80 8.5,-98 75.5,-98 75.5,-80 8.5,-80"/>
<polygon fill="none" stroke="black" points="8.5,-80 8.5,-98 75.5,-98 75.5,-80 8.5,-80"/>
<text text-anchor="start" x="11.5" y="-86.2" font-family="Helvetica,sans-Serif" font-size="11.00"> &#160;</text>
<polygon fill="#ffffff" stroke="transparent" points="75.5,-80 75.5,-98 141.5,-98 141.5,-80 75.5,-80"/>
<polygon fill="none" stroke="black" points="75.5,-80 75.5,-98 141.5,-98 141.5,-80 75.5,-80"/>
<text text-anchor="start" x="105.5" y="-86.2" font-family="Helvetica,sans-Serif" font-size="11.00">0 rows</text>
<polygon fill="#ffffff" stroke="transparent" points="141.5,-80 141.5,-98 191.5,-98 191.5,-80 141.5,-80"/>
<polygon fill="none" stroke="black" points="141.5,-80 141.5,-98 191.5,-98 191.5,-80 141.5,-80"/>
<text text-anchor="start" x="172.5" y="-86.2" font-family="Helvetica,sans-Serif" font-size="11.00">2 &gt;</text>
</a>
</g>
</g>
<!-- job_parameters&#45;&gt;job -->
<g id="edge1" class="edge">
<title>job_parameters:w&#45;&gt;job:e</title>
<path fill="none" stroke="black" d="M227.19,-185.98C211.45,-170.89 222.06,-127 192.5,-127"/>
<polygon fill="black" stroke="black" points="233.48,-188.27 239.77,-194.38 237.24,-189.63 241,-191 241,-191 241,-191 237.24,-189.63 242.23,-187.62 233.48,-188.27 233.48,-188.27"/>
<ellipse fill="none" stroke="black" cx="230.47" cy="-187.17" rx="3.2" ry="3.2"/>
</g>
<!-- job_run_history -->
<g id="node3" class="node">
<title>job_run_history</title>
<g id="a_node3"><a xlink:href="../../tables/job_run_history.html" xlink:title="job_run_history" target="_top">
<polygon fill="#ffffff" stroke="transparent" points="279,-37 279,-95 407,-95 407,-37 279,-37"/>
<polygon fill="#f5f5f5" stroke="transparent" points="279,-73 279,-95 407,-95 407,-73 279,-73"/>
<polygon fill="none" stroke="black" points="279,-73 279,-95 407,-95 407,-73 279,-73"/>
<text text-anchor="start" x="284" y="-82.2" font-family="Helvetica,sans-Serif" font-weight="bold" font-size="11.00">job_run_history</text>
<text text-anchor="start" x="372" y="-81.2" font-family="Helvetica,sans-Serif" font-size="11.00">[table]</text>
<polygon fill="none" stroke="black" points="279,-55 279,-73 407,-73 407,-55 279,-55"/>
<text text-anchor="start" x="282" y="-61.2" font-family="Helvetica,sans-Serif" font-size="11.00">...</text>
<polygon fill="#ffffff" stroke="transparent" points="279,-37 279,-55 325,-55 325,-37 279,-37"/>
<polygon fill="none" stroke="black" points="279,-37 279,-55 325,-55 325,-37 279,-37"/>
<text text-anchor="start" x="282" y="-43.2" font-family="Helvetica,sans-Serif" font-size="11.00">&lt; 1</text>
<polygon fill="#ffffff" stroke="transparent" points="325,-37 325,-55 382,-55 382,-37 325,-37"/>
<polygon fill="none" stroke="black" points="325,-37 325,-55 382,-55 382,-37 325,-37"/>
<text text-anchor="start" x="340" y="-43.2" font-family="Helvetica,sans-Serif" font-size="11.00">29 rows</text>
<polygon fill="#ffffff" stroke="transparent" points="382,-37 382,-55 407,-55 407,-37 382,-37"/>
<polygon fill="none" stroke="black" points="382,-37 382,-55 407,-55 407,-37 382,-37"/>
<text text-anchor="start" x="397" y="-43.2" font-family="Helvetica,sans-Serif" font-size="11.00"> &#160;</text>
</a>
</g>
</g>
<!-- job_run_history&#45;&gt;job -->
<g id="edge2" class="edge">
<title>job_run_history:w&#45;&gt;job:e</title>
<path fill="none" stroke="black" d="M263.54,-66.39C232.11,-77.9 234.17,-127 192.5,-127"/>
<polygon fill="black" stroke="black" points="270.11,-65.31 278.59,-67.55 274.05,-64.65 278,-64 278,-64 278,-64 274.05,-64.65 277.41,-60.45 270.11,-65.31 270.11,-65.31"/>
<ellipse fill="none" stroke="black" cx="266.95" cy="-65.83" rx="3.2" ry="3.2"/>
</g>
</g>
</svg>
