<?xml version="1.0" encoding="UTF-8" standalone="no"?>
<!DOCTYPE svg PUBLIC "-//W3C//DTD SVG 1.1//EN"
 "http://www.w3.org/Graphics/SVG/1.1/DTD/svg11.dtd">
<!-- Generated by graphviz version 2.43.0 (0)
 -->
<!-- Title: oneDegreeRelationshipsDiagram Pages: 1 -->
<svg width="462pt" height="181pt"
 viewBox="0.00 0.00 462.00 181.00" xmlns="http://www.w3.org/2000/svg" xmlns:xlink="http://www.w3.org/1999/xlink">
<g id="graph0" class="graph" transform="scale(1 1) rotate(0) translate(4 177)">
<title>oneDegreeRelationshipsDiagram</title>
<polygon fill="#ffffff" stroke="transparent" points="-4,4 -4,-177 458,-177 458,4 -4,4"/>
<text text-anchor="middle" x="71.5" y="-7.2" font-family="Helvetica,sans-Serif" font-size="11.00">Generated by SchemaSpy</text>
<!-- job_parameters -->
<g id="node1" class="node">
<title>job_parameters</title>
<g id="a_node1"><a xlink:href="../../tables/job_parameters.html" xlink:title="job_parameters" target="_top">
<polygon fill="#ffffff" stroke="transparent" points="240,-37 240,-169 446,-169 446,-37 240,-37"/>
<polygon fill="#f5f5f5" stroke="transparent" points="242,-145 242,-167 444,-167 444,-145 242,-145"/>
<polygon fill="none" stroke="black" points="242,-145 242,-167 444,-167 444,-145 242,-145"/>
<text text-anchor="start" x="247" y="-154.2" font-family="Helvetica,sans-Serif" font-weight="bold" font-size="11.00">job_parameters</text>
<text text-anchor="start" x="409" y="-153.2" font-family="Helvetica,sans-Serif" font-size="11.00">[table]</text>
<polygon fill="none" stroke="black" points="242,-123 242,-145 377,-145 377,-123 242,-123"/>
<image xlink:href="../../images/primaryKeys.png" width="11px" height="12px" preserveAspectRatio="xMinYMin meet" x="247" y="-140"/>
<text text-anchor="start" x="262" y="-131.2" font-family="Helvetica,sans-Serif" font-size="11.00">id</text>
<polygon fill="none" stroke="black" points="377,-123 377,-145 444,-145 444,-123 377,-123"/>
<text text-anchor="start" x="380" y="-131.2" font-family="Helvetica,sans-Serif" font-size="11.00">bigint[19]</text>
<polygon fill="#ffffff" stroke="transparent" points="242,-101 242,-123 377,-123 377,-101 242,-101"/>
<polygon fill="none" stroke="black" points="242,-101 242,-123 377,-123 377,-101 242,-101"/>
<image xlink:href="../../images/foreignKeys.png" width="11px" height="12px" preserveAspectRatio="xMinYMin meet" x="247" y="-118"/>
<text text-anchor="start" x="262" y="-109.2" font-family="Helvetica,sans-Serif" font-size="11.00">job_id</text>
<polygon fill="none" stroke="black" points="377,-101 377,-123 444,-123 444,-101 377,-101"/>
<text text-anchor="start" x="380" y="-109.2" font-family="Helvetica,sans-Serif" font-size="11.00">bigint[19]</text>
<polygon fill="none" stroke="black" points="242,-79 242,-101 377,-101 377,-79 242,-79"/>
<text text-anchor="start" x="262" y="-87.2" font-family="Helvetica,sans-Serif" font-size="11.00">parameter_name</text>
<polygon fill="none" stroke="black" points="377,-79 377,-101 444,-101 444,-79 377,-79"/>
<text text-anchor="start" x="380" y="-87.2" font-family="Helvetica,sans-Serif" font-size="11.00">varchar[100]</text>
<polygon fill="none" stroke="black" points="242,-57 242,-79 377,-79 377,-57 242,-57"/>
<text text-anchor="start" x="262" y="-65.2" font-family="Helvetica,sans-Serif" font-size="11.00">parameter_value</text>
<polygon fill="none" stroke="black" points="377,-57 377,-79 444,-79 444,-57 377,-57"/>
<text text-anchor="start" x="380" y="-65.2" font-family="Helvetica,sans-Serif" font-size="11.00">int[10]</text>
<polygon fill="#ffffff" stroke="transparent" points="242,-39 242,-57 301,-57 301,-39 242,-39"/>
<polygon fill="none" stroke="black" points="242,-39 242,-57 301,-57 301,-39 242,-39"/>
<text text-anchor="start" x="245" y="-45.2" font-family="Helvetica,sans-Serif" font-size="11.00">&lt; 1</text>
<polygon fill="#ffffff" stroke="transparent" points="301,-39 301,-57 377,-57 377,-39 301,-39"/>
<polygon fill="none" stroke="black" points="301,-39 301,-57 377,-57 377,-39 301,-39"/>
<text text-anchor="start" x="341" y="-45.2" font-family="Helvetica,sans-Serif" font-size="11.00">0 rows</text>
<polygon fill="#ffffff" stroke="transparent" points="377,-39 377,-57 444,-57 444,-39 377,-39"/>
<polygon fill="none" stroke="black" points="377,-39 377,-57 444,-57 444,-39 377,-39"/>
<text text-anchor="start" x="425" y="-45.2" font-family="Helvetica,sans-Serif" font-size="11.00">0 &gt;</text>
<polygon fill="none" stroke="black" stroke-width="2" points="241,-38 241,-168 445,-168 445,-38 241,-38"/>
</a>
</g>
</g>
<!-- job -->
<g id="node2" class="node">
<title>job</title>
<g id="a_node2"><a xlink:href="../../tables/job.html" xlink:title="job" target="_top">
<polygon fill="#ffffff" stroke="transparent" points="8,-65 8,-145 191,-145 191,-65 8,-65"/>
<polygon fill="#f5f5f5" stroke="transparent" points="8.5,-123 8.5,-145 191.5,-145 191.5,-123 8.5,-123"/>
<polygon fill="none" stroke="black" points="8.5,-123 8.5,-145 191.5,-145 191.5,-123 8.5,-123"/>
<text text-anchor="start" x="13.5" y="-132.2" font-family="Helvetica,sans-Serif" font-weight="bold" font-size="11.00">job</text>
<text text-anchor="start" x="156.5" y="-131.2" font-family="Helvetica,sans-Serif" font-size="11.00">[table]</text>
<polygon fill="none" stroke="black" points="8.5,-101 8.5,-123 191.5,-123 191.5,-101 8.5,-101"/>
<image xlink:href="../../images/primaryKeys.png" width="11px" height="12px" preserveAspectRatio="xMinYMin meet" x="13.5" y="-118"/>
<text text-anchor="start" x="28.5" y="-109.2" font-family="Helvetica,sans-Serif" font-size="11.00">id</text>
<polygon fill="none" stroke="black" points="8.5,-83 8.5,-101 191.5,-101 191.5,-83 8.5,-83"/>
<text text-anchor="start" x="11.5" y="-89.2" font-family="Helvetica,sans-Serif" font-size="11.00">...</text>
<polygon fill="#ffffff" stroke="transparent" points="8.5,-65 8.5,-83 75.5,-83 75.5,-65 8.5,-65"/>
<polygon fill="none" stroke="black" points="8.5,-65 8.5,-83 75.5,-83 75.5,-65 8.5,-65"/>
<text text-anchor="start" x="11.5" y="-71.2" font-family="Helvetica,sans-Serif" font-size="11.00"> &#160;</text>
<polygon fill="#ffffff" stroke="transparent" points="75.5,-65 75.5,-83 141.5,-83 141.5,-65 75.5,-65"/>
<polygon fill="none" stroke="black" points="75.5,-65 75.5,-83 141.5,-83 141.5,-65 75.5,-65"/>
<text text-anchor="start" x="105.5" y="-71.2" font-family="Helvetica,sans-Serif" font-size="11.00">0 rows</text>
<polygon fill="#ffffff" stroke="transparent" points="141.5,-65 141.5,-83 191.5,-83 191.5,-65 141.5,-65"/>
<polygon fill="none" stroke="black" points="141.5,-65 141.5,-83 191.5,-83 191.5,-65 141.5,-65"/>
<text text-anchor="start" x="172.5" y="-71.2" font-family="Helvetica,sans-Serif" font-size="11.00">2 &gt;</text>
</a>
</g>
</g>
<!-- job_parameters&#45;&gt;job -->
<g id="edge1" class="edge">
<title>job_parameters:w&#45;&gt;job:e</title>
<path fill="none" stroke="black" d="M226.28,-112C215.29,-112 208.16,-112 192.5,-112"/>
<polygon fill="black" stroke="black" points="233,-112 241,-115.6 237,-112 241,-112 241,-112 241,-112 237,-112 241,-108.4 233,-112 233,-112"/>
<ellipse fill="none" stroke="black" cx="229.8" cy="-112" rx="3.2" ry="3.2"/>
</g>
</g>
</svg>
