<?xml version="1.0" encoding="UTF-8" standalone="no"?>
<!DOCTYPE svg PUBLIC "-//W3C//DTD SVG 1.1//EN"
 "http://www.w3.org/Graphics/SVG/1.1/DTD/svg11.dtd">
<!-- Generated by graphviz version 2.43.0 (0)
 -->
<!-- Title: twoDegreesRelationshipsDiagram Pages: 1 -->
<svg width="450pt" height="370pt"
 viewBox="0.00 0.00 450.00 370.00" xmlns="http://www.w3.org/2000/svg" xmlns:xlink="http://www.w3.org/1999/xlink">
<g id="graph0" class="graph" transform="scale(1 1) rotate(0) translate(4 366)">
<title>twoDegreesRelationshipsDiagram</title>
<polygon fill="#ffffff" stroke="transparent" points="-4,4 -4,-366 446,-366 446,4 -4,4"/>
<text text-anchor="middle" x="71.5" y="-7.2" font-family="Helvetica,sans-Serif" font-size="11.00">Generated by SchemaSpy</text>
<!-- job_parameters -->
<g id="node1" class="node">
<title>job_parameters</title>
<g id="a_node1"><a xlink:href="../../tables/job_parameters.html" xlink:title="job_parameters" target="_top">
<polygon fill="#ffffff" stroke="transparent" points="274,-300 274,-358 400,-358 400,-300 274,-300"/>
<polygon fill="#f5f5f5" stroke="transparent" points="274,-336 274,-358 400,-358 400,-336 274,-336"/>
<polygon fill="none" stroke="black" points="274,-336 274,-358 400,-358 400,-336 274,-336"/>
<text text-anchor="start" x="279" y="-345.2" font-family="Helvetica,sans-Serif" font-weight="bold" font-size="11.00">job_parameters</text>
<text text-anchor="start" x="365" y="-344.2" font-family="Helvetica,sans-Serif" font-size="11.00">[table]</text>
<polygon fill="none" stroke="black" points="274,-318 274,-336 400,-336 400,-318 274,-318"/>
<text text-anchor="start" x="277" y="-324.2" font-family="Helvetica,sans-Serif" font-size="11.00">...</text>
<polygon fill="#ffffff" stroke="transparent" points="274,-300 274,-318 322,-318 322,-300 274,-300"/>
<polygon fill="none" stroke="black" points="274,-300 274,-318 322,-318 322,-300 274,-300"/>
<text text-anchor="start" x="277" y="-306.2" font-family="Helvetica,sans-Serif" font-size="11.00">&lt; 1</text>
<polygon fill="#ffffff" stroke="transparent" points="322,-300 322,-318 374,-318 374,-300 322,-300"/>
<polygon fill="none" stroke="black" points="322,-300 322,-318 374,-318 374,-300 322,-300"/>
<text text-anchor="start" x="338" y="-306.2" font-family="Helvetica,sans-Serif" font-size="11.00">0 rows</text>
<polygon fill="#ffffff" stroke="transparent" points="374,-300 374,-318 400,-318 400,-300 374,-300"/>
<polygon fill="none" stroke="black" points="374,-300 374,-318 400,-318 400,-300 374,-300"/>
<text text-anchor="start" x="390" y="-306.2" font-family="Helvetica,sans-Serif" font-size="11.00"> &#160;</text>
</a>
</g>
</g>
<!-- job -->
<g id="node2" class="node">
<title>job</title>
<g id="a_node2"><a xlink:href="../../tables/job.html" xlink:title="job" target="_top">
<polygon fill="#ffffff" stroke="transparent" points="8,-227 8,-307 191,-307 191,-227 8,-227"/>
<polygon fill="#f5f5f5" stroke="transparent" points="8.5,-285 8.5,-307 191.5,-307 191.5,-285 8.5,-285"/>
<polygon fill="none" stroke="black" points="8.5,-285 8.5,-307 191.5,-307 191.5,-285 8.5,-285"/>
<text text-anchor="start" x="13.5" y="-294.2" font-family="Helvetica,sans-Serif" font-weight="bold" font-size="11.00">job</text>
<text text-anchor="start" x="156.5" y="-293.2" font-family="Helvetica,sans-Serif" font-size="11.00">[table]</text>
<polygon fill="none" stroke="black" points="8.5,-263 8.5,-285 191.5,-285 191.5,-263 8.5,-263"/>
<image xlink:href="../../images/primaryKeys.png" width="11px" height="12px" preserveAspectRatio="xMinYMin meet" x="13.5" y="-280"/>
<text text-anchor="start" x="28.5" y="-271.2" font-family="Helvetica,sans-Serif" font-size="11.00">id</text>
<polygon fill="none" stroke="black" points="8.5,-245 8.5,-263 191.5,-263 191.5,-245 8.5,-245"/>
<text text-anchor="start" x="11.5" y="-251.2" font-family="Helvetica,sans-Serif" font-size="11.00">...</text>
<polygon fill="#ffffff" stroke="transparent" points="8.5,-227 8.5,-245 75.5,-245 75.5,-227 8.5,-227"/>
<polygon fill="none" stroke="black" points="8.5,-227 8.5,-245 75.5,-245 75.5,-227 8.5,-227"/>
<text text-anchor="start" x="11.5" y="-233.2" font-family="Helvetica,sans-Serif" font-size="11.00"> &#160;</text>
<polygon fill="#ffffff" stroke="transparent" points="75.5,-227 75.5,-245 141.5,-245 141.5,-227 75.5,-227"/>
<polygon fill="none" stroke="black" points="75.5,-227 75.5,-245 141.5,-245 141.5,-227 75.5,-227"/>
<text text-anchor="start" x="105.5" y="-233.2" font-family="Helvetica,sans-Serif" font-size="11.00">0 rows</text>
<polygon fill="#ffffff" stroke="transparent" points="141.5,-227 141.5,-245 191.5,-245 191.5,-227 141.5,-227"/>
<polygon fill="none" stroke="black" points="141.5,-227 141.5,-245 191.5,-245 191.5,-227 141.5,-227"/>
<text text-anchor="start" x="172.5" y="-233.2" font-family="Helvetica,sans-Serif" font-size="11.00">2 &gt;</text>
</a>
</g>
</g>
<!-- job_parameters&#45;&gt;job -->
<g id="edge1" class="edge">
<title>job_parameters:w&#45;&gt;job:e</title>
<path fill="none" stroke="black" d="M258.62,-324.58C230.7,-314.22 229.81,-274 192.5,-274"/>
<polygon fill="black" stroke="black" points="265.11,-325.67 272.4,-330.55 269.06,-326.34 273,-327 273,-327 273,-327 269.06,-326.34 273.6,-323.45 265.11,-325.67 265.11,-325.67"/>
<ellipse fill="none" stroke="black" cx="261.95" cy="-325.14" rx="3.2" ry="3.2"/>
</g>
<!-- job_run_history -->
<g id="node3" class="node">
<title>job_run_history</title>
<g id="a_node3"><a xlink:href="../../tables/job_run_history.html" xlink:title="job_run_history" target="_top">
<polygon fill="#ffffff" stroke="transparent" points="240,-37 240,-279 434,-279 434,-37 240,-37"/>
<polygon fill="#f5f5f5" stroke="transparent" points="242,-255 242,-277 432,-277 432,-255 242,-255"/>
<polygon fill="none" stroke="black" points="242,-255 242,-277 432,-277 432,-255 242,-255"/>
<text text-anchor="start" x="247" y="-264.2" font-family="Helvetica,sans-Serif" font-weight="bold" font-size="11.00">job_run_history</text>
<text text-anchor="start" x="397" y="-263.2" font-family="Helvetica,sans-Serif" font-size="11.00">[table]</text>
<polygon fill="none" stroke="black" points="242,-233 242,-255 366,-255 366,-233 242,-233"/>
<image xlink:href="../../images/primaryKeys.png" width="11px" height="12px" preserveAspectRatio="xMinYMin meet" x="247" y="-250"/>
<text text-anchor="start" x="262" y="-241.2" font-family="Helvetica,sans-Serif" font-size="11.00">id</text>
<polygon fill="none" stroke="black" points="366,-233 366,-255 432,-255 432,-233 366,-233"/>
<text text-anchor="start" x="369" y="-241.2" font-family="Helvetica,sans-Serif" font-size="11.00">bigint[19]</text>
<polygon fill="#ffffff" stroke="transparent" points="242,-211 242,-233 366,-233 366,-211 242,-211"/>
<polygon fill="none" stroke="black" points="242,-211 242,-233 366,-233 366,-211 242,-211"/>
<image xlink:href="../../images/foreignKeys.png" width="11px" height="12px" preserveAspectRatio="xMinYMin meet" x="247" y="-228"/>
<text text-anchor="start" x="262" y="-219.2" font-family="Helvetica,sans-Serif" font-size="11.00">job_id</text>
<polygon fill="none" stroke="black" points="366,-211 366,-233 432,-233 432,-211 366,-211"/>
<text text-anchor="start" x="369" y="-219.2" font-family="Helvetica,sans-Serif" font-size="11.00">bigint[19]</text>
<polygon fill="none" stroke="black" points="242,-189 242,-211 366,-211 366,-189 242,-189"/>
<text text-anchor="start" x="262" y="-197.2" font-family="Helvetica,sans-Serif" font-size="11.00">version</text>
<polygon fill="none" stroke="black" points="366,-189 366,-211 432,-211 432,-189 366,-189"/>
<text text-anchor="start" x="369" y="-197.2" font-family="Helvetica,sans-Serif" font-size="11.00">bigint[19]</text>
<polygon fill="none" stroke="black" points="242,-167 242,-189 366,-189 366,-167 242,-167"/>
<text text-anchor="start" x="262" y="-175.2" font-family="Helvetica,sans-Serif" font-size="11.00">start_time</text>
<polygon fill="none" stroke="black" points="366,-167 366,-189 432,-189 432,-167 366,-167"/>
<text text-anchor="start" x="369" y="-175.2" font-family="Helvetica,sans-Serif" font-size="11.00">datetime[19]</text>
<polygon fill="none" stroke="black" points="242,-145 242,-167 366,-167 366,-145 242,-145"/>
<text text-anchor="start" x="262" y="-153.2" font-family="Helvetica,sans-Serif" font-size="11.00">end_time</text>
<polygon fill="none" stroke="black" points="366,-145 366,-167 432,-167 432,-145 366,-145"/>
<text text-anchor="start" x="369" y="-153.2" font-family="Helvetica,sans-Serif" font-size="11.00">datetime[19]</text>
<polygon fill="none" stroke="black" points="242,-123 242,-145 366,-145 366,-123 242,-123"/>
<text text-anchor="start" x="262" y="-131.2" font-family="Helvetica,sans-Serif" font-size="11.00">status</text>
<polygon fill="none" stroke="black" points="366,-123 366,-145 432,-145 432,-123 366,-123"/>
<text text-anchor="start" x="369" y="-131.2" font-family="Helvetica,sans-Serif" font-size="11.00">varchar[10]</text>
<polygon fill="none" stroke="black" points="242,-101 242,-123 366,-123 366,-101 242,-101"/>
<text text-anchor="start" x="262" y="-109.2" font-family="Helvetica,sans-Serif" font-size="11.00">error_message</text>
<polygon fill="none" stroke="black" points="366,-101 366,-123 432,-123 432,-101 366,-101"/>
<text text-anchor="start" x="369" y="-109.2" font-family="Helvetica,sans-Serif" font-size="11.00">text[65535]</text>
<polygon fill="none" stroke="black" points="242,-79 242,-101 366,-101 366,-79 242,-79"/>
<text text-anchor="start" x="262" y="-87.2" font-family="Helvetica,sans-Serif" font-size="11.00">trigger_type</text>
<polygon fill="none" stroke="black" points="366,-79 366,-101 432,-101 432,-79 366,-79"/>
<text text-anchor="start" x="369" y="-87.2" font-family="Helvetica,sans-Serif" font-size="11.00">varchar[25]</text>
<polygon fill="none" stroke="black" points="242,-57 242,-79 366,-79 366,-57 242,-57"/>
<text text-anchor="start" x="262" y="-65.2" font-family="Helvetica,sans-Serif" font-size="11.00">error_log</text>
<polygon fill="none" stroke="black" points="366,-57 366,-79 432,-79 432,-57 366,-57"/>
<text text-anchor="start" x="369" y="-65.2" font-family="Helvetica,sans-Serif" font-size="11.00">text[65535]</text>
<polygon fill="#ffffff" stroke="transparent" points="242,-39 242,-57 292,-57 292,-39 242,-39"/>
<polygon fill="none" stroke="black" points="242,-39 242,-57 292,-57 292,-39 242,-39"/>
<text text-anchor="start" x="245" y="-45.2" font-family="Helvetica,sans-Serif" font-size="11.00">&lt; 1</text>
<polygon fill="#ffffff" stroke="transparent" points="292,-39 292,-57 366,-57 366,-39 292,-39"/>
<polygon fill="none" stroke="black" points="292,-39 292,-57 366,-57 366,-39 292,-39"/>
<text text-anchor="start" x="324" y="-45.2" font-family="Helvetica,sans-Serif" font-size="11.00">29 rows</text>
<polygon fill="#ffffff" stroke="transparent" points="366,-39 366,-57 432,-57 432,-39 366,-39"/>
<polygon fill="none" stroke="black" points="366,-39 366,-57 432,-57 432,-39 366,-39"/>
<text text-anchor="start" x="413" y="-45.2" font-family="Helvetica,sans-Serif" font-size="11.00">0 &gt;</text>
<polygon fill="none" stroke="black" stroke-width="2" points="241,-38 241,-278 433,-278 433,-38 241,-38"/>
</a>
</g>
</g>
<!-- job_run_history&#45;&gt;job -->
<g id="edge2" class="edge">
<title>job_run_history:w&#45;&gt;job:e</title>
<path fill="none" stroke="black" d="M227.09,-227.18C213.37,-240.33 217.93,-274 192.5,-274"/>
<polygon fill="black" stroke="black" points="233.5,-224.79 242.26,-225.37 237.25,-223.4 241,-222 241,-222 241,-222 237.25,-223.4 239.74,-218.63 233.5,-224.79 233.5,-224.79"/>
<ellipse fill="none" stroke="black" cx="230.5" cy="-225.91" rx="3.2" ry="3.2"/>
</g>
</g>
</svg>
