<?xml version="1.0" encoding="UTF-8" standalone="no"?>
<!DOCTYPE svg PUBLIC "-//W3C//DTD SVG 1.1//EN"
 "http://www.w3.org/Graphics/SVG/1.1/DTD/svg11.dtd">
<!-- Generated by graphviz version 2.43.0 (0)
 -->
<!-- Title: oneDegreeRelationshipsDiagram Pages: 1 -->
<svg width="450pt" height="291pt"
 viewBox="0.00 0.00 450.00 291.00" xmlns="http://www.w3.org/2000/svg" xmlns:xlink="http://www.w3.org/1999/xlink">
<g id="graph0" class="graph" transform="scale(1 1) rotate(0) translate(4 287)">
<title>oneDegreeRelationshipsDiagram</title>
<polygon fill="#ffffff" stroke="transparent" points="-4,4 -4,-287 446,-287 446,4 -4,4"/>
<text text-anchor="middle" x="71.5" y="-7.2" font-family="Helvetica,sans-Serif" font-size="11.00">Generated by SchemaSpy</text>
<!-- job_run_history -->
<g id="node1" class="node">
<title>job_run_history</title>
<g id="a_node1"><a xlink:href="../../tables/job_run_history.html" xlink:title="job_run_history" target="_top">
<polygon fill="#ffffff" stroke="transparent" points="240,-37 240,-279 434,-279 434,-37 240,-37"/>
<polygon fill="#f5f5f5" stroke="transparent" points="242,-255 242,-277 432,-277 432,-255 242,-255"/>
<polygon fill="none" stroke="black" points="242,-255 242,-277 432,-277 432,-255 242,-255"/>
<text text-anchor="start" x="247" y="-264.2" font-family="Helvetica,sans-Serif" font-weight="bold" font-size="11.00">job_run_history</text>
<text text-anchor="start" x="397" y="-263.2" font-family="Helvetica,sans-Serif" font-size="11.00">[table]</text>
<polygon fill="none" stroke="black" points="242,-233 242,-255 366,-255 366,-233 242,-233"/>
<image xlink:href="../../images/primaryKeys.png" width="11px" height="12px" preserveAspectRatio="xMinYMin meet" x="247" y="-250"/>
<text text-anchor="start" x="262" y="-241.2" font-family="Helvetica,sans-Serif" font-size="11.00">id</text>
<polygon fill="none" stroke="black" points="366,-233 366,-255 432,-255 432,-233 366,-233"/>
<text text-anchor="start" x="369" y="-241.2" font-family="Helvetica,sans-Serif" font-size="11.00">bigint[19]</text>
<polygon fill="#ffffff" stroke="transparent" points="242,-211 242,-233 366,-233 366,-211 242,-211"/>
<polygon fill="none" stroke="black" points="242,-211 242,-233 366,-233 366,-211 242,-211"/>
<image xlink:href="../../images/foreignKeys.png" width="11px" height="12px" preserveAspectRatio="xMinYMin meet" x="247" y="-228"/>
<text text-anchor="start" x="262" y="-219.2" font-family="Helvetica,sans-Serif" font-size="11.00">job_id</text>
<polygon fill="none" stroke="black" points="366,-211 366,-233 432,-233 432,-211 366,-211"/>
<text text-anchor="start" x="369" y="-219.2" font-family="Helvetica,sans-Serif" font-size="11.00">bigint[19]</text>
<polygon fill="none" stroke="black" points="242,-189 242,-211 366,-211 366,-189 242,-189"/>
<text text-anchor="start" x="262" y="-197.2" font-family="Helvetica,sans-Serif" font-size="11.00">version</text>
<polygon fill="none" stroke="black" points="366,-189 366,-211 432,-211 432,-189 366,-189"/>
<text text-anchor="start" x="369" y="-197.2" font-family="Helvetica,sans-Serif" font-size="11.00">bigint[19]</text>
<polygon fill="none" stroke="black" points="242,-167 242,-189 366,-189 366,-167 242,-167"/>
<text text-anchor="start" x="262" y="-175.2" font-family="Helvetica,sans-Serif" font-size="11.00">start_time</text>
<polygon fill="none" stroke="black" points="366,-167 366,-189 432,-189 432,-167 366,-167"/>
<text text-anchor="start" x="369" y="-175.2" font-family="Helvetica,sans-Serif" font-size="11.00">datetime[19]</text>
<polygon fill="none" stroke="black" points="242,-145 242,-167 366,-167 366,-145 242,-145"/>
<text text-anchor="start" x="262" y="-153.2" font-family="Helvetica,sans-Serif" font-size="11.00">end_time</text>
<polygon fill="none" stroke="black" points="366,-145 366,-167 432,-167 432,-145 366,-145"/>
<text text-anchor="start" x="369" y="-153.2" font-family="Helvetica,sans-Serif" font-size="11.00">datetime[19]</text>
<polygon fill="none" stroke="black" points="242,-123 242,-145 366,-145 366,-123 242,-123"/>
<text text-anchor="start" x="262" y="-131.2" font-family="Helvetica,sans-Serif" font-size="11.00">status</text>
<polygon fill="none" stroke="black" points="366,-123 366,-145 432,-145 432,-123 366,-123"/>
<text text-anchor="start" x="369" y="-131.2" font-family="Helvetica,sans-Serif" font-size="11.00">varchar[10]</text>
<polygon fill="none" stroke="black" points="242,-101 242,-123 366,-123 366,-101 242,-101"/>
<text text-anchor="start" x="262" y="-109.2" font-family="Helvetica,sans-Serif" font-size="11.00">error_message</text>
<polygon fill="none" stroke="black" points="366,-101 366,-123 432,-123 432,-101 366,-101"/>
<text text-anchor="start" x="369" y="-109.2" font-family="Helvetica,sans-Serif" font-size="11.00">text[65535]</text>
<polygon fill="none" stroke="black" points="242,-79 242,-101 366,-101 366,-79 242,-79"/>
<text text-anchor="start" x="262" y="-87.2" font-family="Helvetica,sans-Serif" font-size="11.00">trigger_type</text>
<polygon fill="none" stroke="black" points="366,-79 366,-101 432,-101 432,-79 366,-79"/>
<text text-anchor="start" x="369" y="-87.2" font-family="Helvetica,sans-Serif" font-size="11.00">varchar[25]</text>
<polygon fill="none" stroke="black" points="242,-57 242,-79 366,-79 366,-57 242,-57"/>
<text text-anchor="start" x="262" y="-65.2" font-family="Helvetica,sans-Serif" font-size="11.00">error_log</text>
<polygon fill="none" stroke="black" points="366,-57 366,-79 432,-79 432,-57 366,-57"/>
<text text-anchor="start" x="369" y="-65.2" font-family="Helvetica,sans-Serif" font-size="11.00">text[65535]</text>
<polygon fill="#ffffff" stroke="transparent" points="242,-39 242,-57 292,-57 292,-39 242,-39"/>
<polygon fill="none" stroke="black" points="242,-39 242,-57 292,-57 292,-39 242,-39"/>
<text text-anchor="start" x="245" y="-45.2" font-family="Helvetica,sans-Serif" font-size="11.00">&lt; 1</text>
<polygon fill="#ffffff" stroke="transparent" points="292,-39 292,-57 366,-57 366,-39 292,-39"/>
<polygon fill="none" stroke="black" points="292,-39 292,-57 366,-57 366,-39 292,-39"/>
<text text-anchor="start" x="324" y="-45.2" font-family="Helvetica,sans-Serif" font-size="11.00">29 rows</text>
<polygon fill="#ffffff" stroke="transparent" points="366,-39 366,-57 432,-57 432,-39 366,-39"/>
<polygon fill="none" stroke="black" points="366,-39 366,-57 432,-57 432,-39 366,-39"/>
<text text-anchor="start" x="413" y="-45.2" font-family="Helvetica,sans-Serif" font-size="11.00">0 &gt;</text>
<polygon fill="none" stroke="black" stroke-width="2" points="241,-38 241,-278 433,-278 433,-38 241,-38"/>
</a>
</g>
</g>
<!-- job -->
<g id="node2" class="node">
<title>job</title>
<g id="a_node2"><a xlink:href="../../tables/job.html" xlink:title="job" target="_top">
<polygon fill="#ffffff" stroke="transparent" points="8,-175 8,-255 191,-255 191,-175 8,-175"/>
<polygon fill="#f5f5f5" stroke="transparent" points="8.5,-233 8.5,-255 191.5,-255 191.5,-233 8.5,-233"/>
<polygon fill="none" stroke="black" points="8.5,-233 8.5,-255 191.5,-255 191.5,-233 8.5,-233"/>
<text text-anchor="start" x="13.5" y="-242.2" font-family="Helvetica,sans-Serif" font-weight="bold" font-size="11.00">job</text>
<text text-anchor="start" x="156.5" y="-241.2" font-family="Helvetica,sans-Serif" font-size="11.00">[table]</text>
<polygon fill="none" stroke="black" points="8.5,-211 8.5,-233 191.5,-233 191.5,-211 8.5,-211"/>
<image xlink:href="../../images/primaryKeys.png" width="11px" height="12px" preserveAspectRatio="xMinYMin meet" x="13.5" y="-228"/>
<text text-anchor="start" x="28.5" y="-219.2" font-family="Helvetica,sans-Serif" font-size="11.00">id</text>
<polygon fill="none" stroke="black" points="8.5,-193 8.5,-211 191.5,-211 191.5,-193 8.5,-193"/>
<text text-anchor="start" x="11.5" y="-199.2" font-family="Helvetica,sans-Serif" font-size="11.00">...</text>
<polygon fill="#ffffff" stroke="transparent" points="8.5,-175 8.5,-193 75.5,-193 75.5,-175 8.5,-175"/>
<polygon fill="none" stroke="black" points="8.5,-175 8.5,-193 75.5,-193 75.5,-175 8.5,-175"/>
<text text-anchor="start" x="11.5" y="-181.2" font-family="Helvetica,sans-Serif" font-size="11.00"> &#160;</text>
<polygon fill="#ffffff" stroke="transparent" points="75.5,-175 75.5,-193 141.5,-193 141.5,-175 75.5,-175"/>
<polygon fill="none" stroke="black" points="75.5,-175 75.5,-193 141.5,-193 141.5,-175 75.5,-175"/>
<text text-anchor="start" x="105.5" y="-181.2" font-family="Helvetica,sans-Serif" font-size="11.00">0 rows</text>
<polygon fill="#ffffff" stroke="transparent" points="141.5,-175 141.5,-193 191.5,-193 191.5,-175 141.5,-175"/>
<polygon fill="none" stroke="black" points="141.5,-175 141.5,-193 191.5,-193 191.5,-175 141.5,-175"/>
<text text-anchor="start" x="172.5" y="-181.2" font-family="Helvetica,sans-Serif" font-size="11.00">2 &gt;</text>
</a>
</g>
</g>
<!-- job_run_history&#45;&gt;job -->
<g id="edge1" class="edge">
<title>job_run_history:w&#45;&gt;job:e</title>
<path fill="none" stroke="black" d="M226.28,-222C215.29,-222 208.16,-222 192.5,-222"/>
<polygon fill="black" stroke="black" points="233,-222 241,-225.6 237,-222 241,-222 241,-222 241,-222 237,-222 241,-218.4 233,-222 233,-222"/>
<ellipse fill="none" stroke="black" cx="229.8" cy="-222" rx="3.2" ry="3.2"/>
</g>
</g>
</svg>
