<?xml version="1.0" encoding="UTF-8" standalone="no"?>
<!DOCTYPE svg PUBLIC "-//W3C//DTD SVG 1.1//EN"
 "http://www.w3.org/Graphics/SVG/1.1/DTD/svg11.dtd">
<!-- Generated by graphviz version 2.43.0 (0)
 -->
<!-- Title: oneDegreeRelationshipsDiagram Pages: 1 -->
<svg width="811pt" height="225pt"
 viewBox="0.00 0.00 811.00 225.00" xmlns="http://www.w3.org/2000/svg" xmlns:xlink="http://www.w3.org/1999/xlink">
<g id="graph0" class="graph" transform="scale(1 1) rotate(0) translate(4 221)">
<title>oneDegreeRelationshipsDiagram</title>
<polygon fill="#ffffff" stroke="transparent" points="-4,4 -4,-221 807,-221 807,4 -4,4"/>
<text text-anchor="middle" x="71.5" y="-7.2" font-family="Helvetica,sans-Serif" font-size="11.00">Generated by SchemaSpy</text>
<!-- m_account_transfer_standing_instructions_history -->
<g id="node1" class="node">
<title>m_account_transfer_standing_instructions_history</title>
<g id="a_node1"><a xlink:href="../../tables/m_account_transfer_standing_instructions_history.html" xlink:title="m_account_transfer_standing_instructions_history" target="_top">
<polygon fill="#ffffff" stroke="transparent" points="362,-37 362,-213 795,-213 795,-37 362,-37"/>
<polygon fill="#f5f5f5" stroke="transparent" points="364.5,-189 364.5,-211 793.5,-211 793.5,-189 364.5,-189"/>
<polygon fill="none" stroke="black" points="364.5,-189 364.5,-211 793.5,-211 793.5,-189 364.5,-189"/>
<text text-anchor="start" x="369.5" y="-198.2" font-family="Helvetica,sans-Serif" font-weight="bold" font-size="11.00">m_account_transfer_standing_instructions_history</text>
<text text-anchor="start" x="758.5" y="-197.2" font-family="Helvetica,sans-Serif" font-size="11.00">[table]</text>
<polygon fill="none" stroke="black" points="364.5,-167 364.5,-189 723.5,-189 723.5,-167 364.5,-167"/>
<image xlink:href="../../images/primaryKeys.png" width="11px" height="12px" preserveAspectRatio="xMinYMin meet" x="369.5" y="-184"/>
<text text-anchor="start" x="384.5" y="-175.2" font-family="Helvetica,sans-Serif" font-size="11.00">id</text>
<polygon fill="none" stroke="black" points="723.5,-167 723.5,-189 793.5,-189 793.5,-167 723.5,-167"/>
<text text-anchor="start" x="726.5" y="-175.2" font-family="Helvetica,sans-Serif" font-size="11.00">bigint[19]</text>
<polygon fill="#ffffff" stroke="transparent" points="364.5,-145 364.5,-167 723.5,-167 723.5,-145 364.5,-145"/>
<polygon fill="none" stroke="black" points="364.5,-145 364.5,-167 723.5,-167 723.5,-145 364.5,-145"/>
<image xlink:href="../../images/foreignKeys.png" width="11px" height="12px" preserveAspectRatio="xMinYMin meet" x="369.5" y="-162"/>
<text text-anchor="start" x="384.5" y="-153.2" font-family="Helvetica,sans-Serif" font-size="11.00">standing_instruction_id</text>
<polygon fill="none" stroke="black" points="723.5,-145 723.5,-167 793.5,-167 793.5,-145 723.5,-145"/>
<text text-anchor="start" x="726.5" y="-153.2" font-family="Helvetica,sans-Serif" font-size="11.00">bigint[19]</text>
<polygon fill="none" stroke="black" points="364.5,-123 364.5,-145 723.5,-145 723.5,-123 364.5,-123"/>
<text text-anchor="start" x="384.5" y="-131.2" font-family="Helvetica,sans-Serif" font-size="11.00">status</text>
<polygon fill="none" stroke="black" points="723.5,-123 723.5,-145 793.5,-145 793.5,-123 723.5,-123"/>
<text text-anchor="start" x="726.5" y="-131.2" font-family="Helvetica,sans-Serif" font-size="11.00">varchar[20]</text>
<polygon fill="none" stroke="black" points="364.5,-101 364.5,-123 723.5,-123 723.5,-101 364.5,-101"/>
<text text-anchor="start" x="384.5" y="-109.2" font-family="Helvetica,sans-Serif" font-size="11.00">execution_time</text>
<polygon fill="none" stroke="black" points="723.5,-101 723.5,-123 793.5,-123 793.5,-101 723.5,-101"/>
<text text-anchor="start" x="726.5" y="-109.2" font-family="Helvetica,sans-Serif" font-size="11.00">datetime[19]</text>
<polygon fill="none" stroke="black" points="364.5,-79 364.5,-101 723.5,-101 723.5,-79 364.5,-79"/>
<text text-anchor="start" x="384.5" y="-87.2" font-family="Helvetica,sans-Serif" font-size="11.00">amount</text>
<polygon fill="none" stroke="black" points="723.5,-79 723.5,-101 793.5,-101 793.5,-79 723.5,-79"/>
<text text-anchor="start" x="726.5" y="-87.2" font-family="Helvetica,sans-Serif" font-size="11.00">decimal[19,6]</text>
<polygon fill="none" stroke="black" points="364.5,-57 364.5,-79 723.5,-79 723.5,-57 364.5,-57"/>
<text text-anchor="start" x="384.5" y="-65.2" font-family="Helvetica,sans-Serif" font-size="11.00">error_log</text>
<polygon fill="none" stroke="black" points="723.5,-57 723.5,-79 793.5,-79 793.5,-57 723.5,-57"/>
<text text-anchor="start" x="726.5" y="-65.2" font-family="Helvetica,sans-Serif" font-size="11.00">varchar[500]</text>
<polygon fill="#ffffff" stroke="transparent" points="364.5,-39 364.5,-57 535.5,-57 535.5,-39 364.5,-39"/>
<polygon fill="none" stroke="black" points="364.5,-39 364.5,-57 535.5,-57 535.5,-39 364.5,-39"/>
<text text-anchor="start" x="367.5" y="-45.2" font-family="Helvetica,sans-Serif" font-size="11.00">&lt; 1</text>
<polygon fill="#ffffff" stroke="transparent" points="535.5,-39 535.5,-57 723.5,-57 723.5,-39 535.5,-39"/>
<polygon fill="none" stroke="black" points="535.5,-39 535.5,-57 723.5,-57 723.5,-39 535.5,-39"/>
<text text-anchor="start" x="687.5" y="-45.2" font-family="Helvetica,sans-Serif" font-size="11.00">0 rows</text>
<polygon fill="#ffffff" stroke="transparent" points="723.5,-39 723.5,-57 793.5,-57 793.5,-39 723.5,-39"/>
<polygon fill="none" stroke="black" points="723.5,-39 723.5,-57 793.5,-57 793.5,-39 723.5,-39"/>
<text text-anchor="start" x="774.5" y="-45.2" font-family="Helvetica,sans-Serif" font-size="11.00">0 &gt;</text>
<polygon fill="none" stroke="black" stroke-width="2" points="363,-38 363,-212 794,-212 794,-38 363,-38"/>
</a>
</g>
</g>
<!-- m_account_transfer_standing_instructions -->
<g id="node2" class="node">
<title>m_account_transfer_standing_instructions</title>
<g id="a_node2"><a xlink:href="../../tables/m_account_transfer_standing_instructions.html" xlink:title="m_account_transfer_standing_instructions" target="_top">
<polygon fill="#ffffff" stroke="transparent" points="8,-65 8,-189 313,-189 313,-65 8,-65"/>
<polygon fill="#f5f5f5" stroke="transparent" points="8.5,-167 8.5,-189 313.5,-189 313.5,-167 8.5,-167"/>
<polygon fill="none" stroke="black" points="8.5,-167 8.5,-189 313.5,-189 313.5,-167 8.5,-167"/>
<text text-anchor="start" x="13.5" y="-176.2" font-family="Helvetica,sans-Serif" font-weight="bold" font-size="11.00">m_account_transfer_standing_instructions</text>
<text text-anchor="start" x="278.5" y="-175.2" font-family="Helvetica,sans-Serif" font-size="11.00">[table]</text>
<polygon fill="none" stroke="black" points="8.5,-145 8.5,-167 313.5,-167 313.5,-145 8.5,-145"/>
<image xlink:href="../../images/primaryKeys.png" width="11px" height="12px" preserveAspectRatio="xMinYMin meet" x="13.5" y="-162"/>
<text text-anchor="start" x="28.5" y="-153.2" font-family="Helvetica,sans-Serif" font-size="11.00">id</text>
<polygon fill="#ffffff" stroke="transparent" points="8.5,-123 8.5,-145 313.5,-145 313.5,-123 8.5,-123"/>
<polygon fill="none" stroke="black" points="8.5,-123 8.5,-145 313.5,-145 313.5,-123 8.5,-123"/>
<text text-anchor="start" x="28.5" y="-131.2" font-family="Helvetica,sans-Serif" font-size="11.00">name</text>
<polygon fill="#ffffff" stroke="transparent" points="8.5,-101 8.5,-123 313.5,-123 313.5,-101 8.5,-101"/>
<polygon fill="none" stroke="black" points="8.5,-101 8.5,-123 313.5,-123 313.5,-101 8.5,-101"/>
<image xlink:href="../../images/foreignKeys.png" width="11px" height="12px" preserveAspectRatio="xMinYMin meet" x="13.5" y="-118"/>
<text text-anchor="start" x="28.5" y="-109.2" font-family="Helvetica,sans-Serif" font-size="11.00">account_transfer_details_id</text>
<polygon fill="none" stroke="black" points="8.5,-83 8.5,-101 313.5,-101 313.5,-83 8.5,-83"/>
<text text-anchor="start" x="11.5" y="-89.2" font-family="Helvetica,sans-Serif" font-size="11.00">...</text>
<polygon fill="#ffffff" stroke="transparent" points="8.5,-65 8.5,-83 141.5,-83 141.5,-65 8.5,-65"/>
<polygon fill="none" stroke="black" points="8.5,-65 8.5,-83 141.5,-83 141.5,-65 8.5,-65"/>
<text text-anchor="start" x="11.5" y="-71.2" font-family="Helvetica,sans-Serif" font-size="11.00">&lt; 1</text>
<polygon fill="#ffffff" stroke="transparent" points="141.5,-65 141.5,-83 235.5,-83 235.5,-65 141.5,-65"/>
<polygon fill="none" stroke="black" points="141.5,-65 141.5,-83 235.5,-83 235.5,-65 141.5,-65"/>
<text text-anchor="start" x="199.5" y="-71.2" font-family="Helvetica,sans-Serif" font-size="11.00">0 rows</text>
<polygon fill="#ffffff" stroke="transparent" points="235.5,-65 235.5,-83 313.5,-83 313.5,-65 235.5,-65"/>
<polygon fill="none" stroke="black" points="235.5,-65 235.5,-83 313.5,-83 313.5,-65 235.5,-65"/>
<text text-anchor="start" x="294.5" y="-71.2" font-family="Helvetica,sans-Serif" font-size="11.00">1 &gt;</text>
</a>
</g>
</g>
<!-- m_account_transfer_standing_instructions_history&#45;&gt;m_account_transfer_standing_instructions -->
<g id="edge1" class="edge">
<title>m_account_transfer_standing_instructions_history:w&#45;&gt;m_account_transfer_standing_instructions:e</title>
<path fill="none" stroke="black" d="M348.99,-156C337.68,-156 330.49,-156 314.5,-156"/>
<polygon fill="black" stroke="black" points="355.5,-156 363.5,-159.6 359.5,-156 363.5,-156 363.5,-156 363.5,-156 359.5,-156 363.5,-152.4 355.5,-156 355.5,-156"/>
<ellipse fill="none" stroke="black" cx="352.3" cy="-156" rx="3.2" ry="3.2"/>
</g>
</g>
</svg>
