<?xml version="1.0" encoding="UTF-8" standalone="no"?>
<!DOCTYPE svg PUBLIC "-//W3C//DTD SVG 1.1//EN"
 "http://www.w3.org/Graphics/SVG/1.1/DTD/svg11.dtd">
<!-- Generated by graphviz version 2.43.0 (0)
 -->
<!-- Title: twoDegreesRelationshipsDiagram Pages: 1 -->
<svg width="1562pt" height="688pt"
 viewBox="0.00 0.00 1561.66 688.00" xmlns="http://www.w3.org/2000/svg" xmlns:xlink="http://www.w3.org/1999/xlink">
<g id="graph0" class="graph" transform="scale(1 1) rotate(0) translate(4 684)">
<title>twoDegreesRelationshipsDiagram</title>
<polygon fill="#ffffff" stroke="transparent" points="-4,4 -4,-684 1557.66,-684 1557.66,4 -4,4"/>
<text text-anchor="middle" x="71.5" y="-7.2" font-family="Helvetica,sans-Serif" font-size="11.00">Generated by SchemaSpy</text>
<!-- m_account_transfer_details -->
<g id="node1" class="node">
<title>m_account_transfer_details</title>
<g id="a_node1"><a xlink:href="../../tables/m_account_transfer_details.html" xlink:title="m_account_transfer_details" target="_top">
<polygon fill="#ffffff" stroke="transparent" points="504.66,-94 504.66,-350 709.66,-350 709.66,-94 504.66,-94"/>
<polygon fill="#f5f5f5" stroke="transparent" points="505.16,-328 505.16,-350 710.16,-350 710.16,-328 505.16,-328"/>
<polygon fill="none" stroke="black" points="505.16,-328 505.16,-350 710.16,-350 710.16,-328 505.16,-328"/>
<text text-anchor="start" x="510.16" y="-337.2" font-family="Helvetica,sans-Serif" font-weight="bold" font-size="11.00">m_account_transfer_details</text>
<text text-anchor="start" x="675.16" y="-336.2" font-family="Helvetica,sans-Serif" font-size="11.00">[table]</text>
<polygon fill="none" stroke="black" points="505.16,-306 505.16,-328 710.16,-328 710.16,-306 505.16,-306"/>
<image xlink:href="../../images/primaryKeys.png" width="11px" height="12px" preserveAspectRatio="xMinYMin meet" x="510.156" y="-323"/>
<text text-anchor="start" x="525.16" y="-314.2" font-family="Helvetica,sans-Serif" font-size="11.00">id</text>
<polygon fill="#ffffff" stroke="transparent" points="505.16,-284 505.16,-306 710.16,-306 710.16,-284 505.16,-284"/>
<polygon fill="none" stroke="black" points="505.16,-284 505.16,-306 710.16,-306 710.16,-284 505.16,-284"/>
<image xlink:href="../../images/foreignKeys.png" width="11px" height="12px" preserveAspectRatio="xMinYMin meet" x="510.156" y="-301"/>
<text text-anchor="start" x="525.16" y="-292.2" font-family="Helvetica,sans-Serif" font-size="11.00">from_office_id</text>
<polygon fill="#ffffff" stroke="transparent" points="505.16,-262 505.16,-284 710.16,-284 710.16,-262 505.16,-262"/>
<polygon fill="none" stroke="black" points="505.16,-262 505.16,-284 710.16,-284 710.16,-262 505.16,-262"/>
<image xlink:href="../../images/foreignKeys.png" width="11px" height="12px" preserveAspectRatio="xMinYMin meet" x="510.156" y="-279"/>
<text text-anchor="start" x="525.16" y="-270.2" font-family="Helvetica,sans-Serif" font-size="11.00">to_office_id</text>
<polygon fill="#ffffff" stroke="transparent" points="505.16,-240 505.16,-262 710.16,-262 710.16,-240 505.16,-240"/>
<polygon fill="none" stroke="black" points="505.16,-240 505.16,-262 710.16,-262 710.16,-240 505.16,-240"/>
<image xlink:href="../../images/foreignKeys.png" width="11px" height="12px" preserveAspectRatio="xMinYMin meet" x="510.156" y="-257"/>
<text text-anchor="start" x="525.16" y="-248.2" font-family="Helvetica,sans-Serif" font-size="11.00">from_client_id</text>
<polygon fill="#ffffff" stroke="transparent" points="505.16,-218 505.16,-240 710.16,-240 710.16,-218 505.16,-218"/>
<polygon fill="none" stroke="black" points="505.16,-218 505.16,-240 710.16,-240 710.16,-218 505.16,-218"/>
<image xlink:href="../../images/foreignKeys.png" width="11px" height="12px" preserveAspectRatio="xMinYMin meet" x="510.156" y="-235"/>
<text text-anchor="start" x="525.16" y="-226.2" font-family="Helvetica,sans-Serif" font-size="11.00">to_client_id</text>
<polygon fill="#ffffff" stroke="transparent" points="505.16,-196 505.16,-218 710.16,-218 710.16,-196 505.16,-196"/>
<polygon fill="none" stroke="black" points="505.16,-196 505.16,-218 710.16,-218 710.16,-196 505.16,-196"/>
<image xlink:href="../../images/foreignKeys.png" width="11px" height="12px" preserveAspectRatio="xMinYMin meet" x="510.156" y="-213"/>
<text text-anchor="start" x="525.16" y="-204.2" font-family="Helvetica,sans-Serif" font-size="11.00">from_savings_account_id</text>
<polygon fill="#ffffff" stroke="transparent" points="505.16,-174 505.16,-196 710.16,-196 710.16,-174 505.16,-174"/>
<polygon fill="none" stroke="black" points="505.16,-174 505.16,-196 710.16,-196 710.16,-174 505.16,-174"/>
<image xlink:href="../../images/foreignKeys.png" width="11px" height="12px" preserveAspectRatio="xMinYMin meet" x="510.156" y="-191"/>
<text text-anchor="start" x="525.16" y="-182.2" font-family="Helvetica,sans-Serif" font-size="11.00">to_savings_account_id</text>
<polygon fill="#ffffff" stroke="transparent" points="505.16,-152 505.16,-174 710.16,-174 710.16,-152 505.16,-152"/>
<polygon fill="none" stroke="black" points="505.16,-152 505.16,-174 710.16,-174 710.16,-152 505.16,-152"/>
<image xlink:href="../../images/foreignKeys.png" width="11px" height="12px" preserveAspectRatio="xMinYMin meet" x="510.156" y="-169"/>
<text text-anchor="start" x="525.16" y="-160.2" font-family="Helvetica,sans-Serif" font-size="11.00">from_loan_account_id</text>
<polygon fill="#ffffff" stroke="transparent" points="505.16,-130 505.16,-152 710.16,-152 710.16,-130 505.16,-130"/>
<polygon fill="none" stroke="black" points="505.16,-130 505.16,-152 710.16,-152 710.16,-130 505.16,-130"/>
<image xlink:href="../../images/foreignKeys.png" width="11px" height="12px" preserveAspectRatio="xMinYMin meet" x="510.156" y="-147"/>
<text text-anchor="start" x="525.16" y="-138.2" font-family="Helvetica,sans-Serif" font-size="11.00">to_loan_account_id</text>
<polygon fill="none" stroke="black" points="505.16,-112 505.16,-130 710.16,-130 710.16,-112 505.16,-112"/>
<text text-anchor="start" x="508.16" y="-118.2" font-family="Helvetica,sans-Serif" font-size="11.00">...</text>
<polygon fill="#ffffff" stroke="transparent" points="505.16,-94 505.16,-112 588.16,-112 588.16,-94 505.16,-94"/>
<polygon fill="none" stroke="black" points="505.16,-94 505.16,-112 588.16,-112 588.16,-94 505.16,-94"/>
<text text-anchor="start" x="508.16" y="-100.2" font-family="Helvetica,sans-Serif" font-size="11.00">&lt; 8</text>
<polygon fill="#ffffff" stroke="transparent" points="588.16,-94 588.16,-112 657.16,-112 657.16,-94 588.16,-94"/>
<polygon fill="none" stroke="black" points="588.16,-94 588.16,-112 657.16,-112 657.16,-94 588.16,-94"/>
<text text-anchor="start" x="621.16" y="-100.2" font-family="Helvetica,sans-Serif" font-size="11.00">0 rows</text>
<polygon fill="#ffffff" stroke="transparent" points="657.16,-94 657.16,-112 710.16,-112 710.16,-94 657.16,-94"/>
<polygon fill="none" stroke="black" points="657.16,-94 657.16,-112 710.16,-112 710.16,-94 657.16,-94"/>
<text text-anchor="start" x="691.16" y="-100.2" font-family="Helvetica,sans-Serif" font-size="11.00">3 &gt;</text>
</a>
</g>
</g>
<!-- m_client -->
<g id="node2" class="node">
<title>m_client</title>
<g id="a_node2"><a xlink:href="../../tables/m_client.html" xlink:title="m_client" target="_top">
<polygon fill="#ffffff" stroke="transparent" points="216.66,-211 216.66,-269 311.66,-269 311.66,-211 216.66,-211"/>
<polygon fill="#f5f5f5" stroke="transparent" points="217.16,-247 217.16,-269 312.16,-269 312.16,-247 217.16,-247"/>
<polygon fill="none" stroke="black" points="217.16,-247 217.16,-269 312.16,-269 312.16,-247 217.16,-247"/>
<text text-anchor="start" x="222.16" y="-256.2" font-family="Helvetica,sans-Serif" font-weight="bold" font-size="11.00">m_client</text>
<text text-anchor="start" x="277.16" y="-255.2" font-family="Helvetica,sans-Serif" font-size="11.00">[table]</text>
<polygon fill="none" stroke="black" points="217.16,-229 217.16,-247 312.16,-247 312.16,-229 217.16,-229"/>
<text text-anchor="start" x="220.16" y="-235.2" font-family="Helvetica,sans-Serif" font-size="11.00">...</text>
<polygon fill="#ffffff" stroke="transparent" points="217.16,-211 217.16,-229 245.16,-229 245.16,-211 217.16,-211"/>
<polygon fill="none" stroke="black" points="217.16,-211 217.16,-229 245.16,-229 245.16,-211 217.16,-211"/>
<text text-anchor="start" x="220.16" y="-217.2" font-family="Helvetica,sans-Serif" font-size="11.00">&lt; 13</text>
<polygon fill="#ffffff" stroke="transparent" points="245.16,-211 245.16,-229 284.16,-229 284.16,-211 245.16,-211"/>
<polygon fill="none" stroke="black" points="245.16,-211 245.16,-229 284.16,-229 284.16,-211 245.16,-211"/>
<text text-anchor="start" x="248.16" y="-217.2" font-family="Helvetica,sans-Serif" font-size="11.00">0 rows</text>
<polygon fill="#ffffff" stroke="transparent" points="284.16,-211 284.16,-229 312.16,-229 312.16,-211 284.16,-211"/>
<polygon fill="none" stroke="black" points="284.16,-211 284.16,-229 312.16,-229 312.16,-211 284.16,-211"/>
<text text-anchor="start" x="287.16" y="-217.2" font-family="Helvetica,sans-Serif" font-size="11.00">23 &gt;</text>
</a>
</g>
</g>
<!-- m_account_transfer_details&#45;&gt;m_client -->
<g id="edge1" class="edge">
<title>m_account_transfer_details:w&#45;&gt;m_client:e</title>
<path fill="none" stroke="black" d="M489.38,-250.86C416.31,-249.47 393.09,-238 313.16,-238"/>
<polygon fill="black" stroke="black" points="496.16,-250.93 504.12,-254.6 500.16,-250.96 504.16,-251 504.16,-251 504.16,-251 500.16,-250.96 504.19,-247.4 496.16,-250.93 496.16,-250.93"/>
<ellipse fill="none" stroke="black" cx="492.96" cy="-250.9" rx="3.2" ry="3.2"/>
</g>
<!-- m_account_transfer_details&#45;&gt;m_client -->
<g id="edge5" class="edge">
<title>m_account_transfer_details:w&#45;&gt;m_client:e</title>
<path fill="none" stroke="black" d="M489.69,-229.25C441.17,-230.7 351.41,-238 313.16,-238"/>
<polygon fill="black" stroke="black" points="496.16,-229.14 504.22,-232.6 500.16,-229.07 504.16,-229 504.16,-229 504.16,-229 500.16,-229.07 504.09,-225.4 496.16,-229.14 496.16,-229.14"/>
<ellipse fill="none" stroke="black" cx="492.96" cy="-229.19" rx="3.2" ry="3.2"/>
</g>
<!-- m_loan -->
<g id="node3" class="node">
<title>m_loan</title>
<g id="a_node3"><a xlink:href="../../tables/m_loan.html" xlink:title="m_loan" target="_top">
<polygon fill="#ffffff" stroke="transparent" points="360.66,-78 360.66,-136 455.66,-136 455.66,-78 360.66,-78"/>
<polygon fill="#f5f5f5" stroke="transparent" points="361.16,-114 361.16,-136 456.16,-136 456.16,-114 361.16,-114"/>
<polygon fill="none" stroke="black" points="361.16,-114 361.16,-136 456.16,-136 456.16,-114 361.16,-114"/>
<text text-anchor="start" x="366.16" y="-123.2" font-family="Helvetica,sans-Serif" font-weight="bold" font-size="11.00">m_loan</text>
<text text-anchor="start" x="421.16" y="-122.2" font-family="Helvetica,sans-Serif" font-size="11.00">[table]</text>
<polygon fill="none" stroke="black" points="361.16,-96 361.16,-114 456.16,-114 456.16,-96 361.16,-96"/>
<text text-anchor="start" x="364.16" y="-102.2" font-family="Helvetica,sans-Serif" font-size="11.00">...</text>
<polygon fill="#ffffff" stroke="transparent" points="361.16,-78 361.16,-96 389.16,-96 389.16,-78 361.16,-78"/>
<polygon fill="none" stroke="black" points="361.16,-78 361.16,-96 389.16,-96 389.16,-78 361.16,-78"/>
<text text-anchor="start" x="364.16" y="-84.2" font-family="Helvetica,sans-Serif" font-size="11.00">&lt; 15</text>
<polygon fill="#ffffff" stroke="transparent" points="389.16,-78 389.16,-96 428.16,-96 428.16,-78 389.16,-78"/>
<polygon fill="none" stroke="black" points="389.16,-78 389.16,-96 428.16,-96 428.16,-78 389.16,-78"/>
<text text-anchor="start" x="392.16" y="-84.2" font-family="Helvetica,sans-Serif" font-size="11.00">0 rows</text>
<polygon fill="#ffffff" stroke="transparent" points="428.16,-78 428.16,-96 456.16,-96 456.16,-78 428.16,-78"/>
<polygon fill="none" stroke="black" points="428.16,-78 428.16,-96 456.16,-96 456.16,-78 428.16,-78"/>
<text text-anchor="start" x="431.16" y="-84.2" font-family="Helvetica,sans-Serif" font-size="11.00">24 &gt;</text>
</a>
</g>
</g>
<!-- m_account_transfer_details&#45;&gt;m_loan -->
<g id="edge2" class="edge">
<title>m_account_transfer_details:w&#45;&gt;m_loan:e</title>
<path fill="none" stroke="black" d="M490.34,-157.65C476.39,-143.29 484.11,-105 457.16,-105"/>
<polygon fill="black" stroke="black" points="496.7,-160.11 502.86,-166.36 500.43,-161.55 504.16,-163 504.16,-163 504.16,-163 500.43,-161.55 505.46,-159.64 496.7,-160.11 496.7,-160.11"/>
<ellipse fill="none" stroke="black" cx="493.71" cy="-158.95" rx="3.2" ry="3.2"/>
</g>
<!-- m_account_transfer_details&#45;&gt;m_loan -->
<g id="edge6" class="edge">
<title>m_account_transfer_details:w&#45;&gt;m_loan:e</title>
<path fill="none" stroke="black" d="M490.45,-136.29C478.75,-126.54 477.51,-105 457.16,-105"/>
<polygon fill="black" stroke="black" points="496.59,-138.4 502.99,-144.4 500.37,-139.7 504.16,-141 504.16,-141 504.16,-141 500.37,-139.7 505.32,-137.6 496.59,-138.4 496.59,-138.4"/>
<ellipse fill="none" stroke="black" cx="493.56" cy="-137.36" rx="3.2" ry="3.2"/>
</g>
<!-- m_office -->
<g id="node4" class="node">
<title>m_office</title>
<g id="a_node4"><a xlink:href="../../tables/m_office.html" xlink:title="m_office" target="_top">
<polygon fill="#ffffff" stroke="transparent" points="48.16,-259 48.16,-317 138.16,-317 138.16,-259 48.16,-259"/>
<polygon fill="#f5f5f5" stroke="transparent" points="48.16,-295 48.16,-317 138.16,-317 138.16,-295 48.16,-295"/>
<polygon fill="none" stroke="black" points="48.16,-295 48.16,-317 138.16,-317 138.16,-295 48.16,-295"/>
<text text-anchor="start" x="53.16" y="-304.2" font-family="Helvetica,sans-Serif" font-weight="bold" font-size="11.00">m_office</text>
<text text-anchor="start" x="103.16" y="-303.2" font-family="Helvetica,sans-Serif" font-size="11.00">[table]</text>
<polygon fill="none" stroke="black" points="48.16,-277 48.16,-295 138.16,-295 138.16,-277 48.16,-277"/>
<text text-anchor="start" x="51.16" y="-283.2" font-family="Helvetica,sans-Serif" font-size="11.00">...</text>
<polygon fill="#ffffff" stroke="transparent" points="48.16,-259 48.16,-277 70.16,-277 70.16,-259 48.16,-259"/>
<polygon fill="none" stroke="black" points="48.16,-259 48.16,-277 70.16,-277 70.16,-259 48.16,-259"/>
<text text-anchor="start" x="51.16" y="-265.2" font-family="Helvetica,sans-Serif" font-size="11.00">&lt; 1</text>
<polygon fill="#ffffff" stroke="transparent" points="70.16,-259 70.16,-277 109.16,-277 109.16,-259 70.16,-259"/>
<polygon fill="none" stroke="black" points="70.16,-259 70.16,-277 109.16,-277 109.16,-259 70.16,-259"/>
<text text-anchor="start" x="73.16" y="-265.2" font-family="Helvetica,sans-Serif" font-size="11.00">0 rows</text>
<polygon fill="#ffffff" stroke="transparent" points="109.16,-259 109.16,-277 138.16,-277 138.16,-259 109.16,-259"/>
<polygon fill="none" stroke="black" points="109.16,-259 109.16,-277 138.16,-277 138.16,-259 109.16,-259"/>
<text text-anchor="start" x="113.16" y="-265.2" font-family="Helvetica,sans-Serif" font-size="11.00">20 &gt;</text>
</a>
</g>
</g>
<!-- m_account_transfer_details&#45;&gt;m_office -->
<g id="edge3" class="edge">
<title>m_account_transfer_details:w&#45;&gt;m_office:e</title>
<path fill="none" stroke="black" d="M489.75,-296.63C481.71,-298.6 475.92,-301.8 463.66,-303 350.86,-314.03 321.17,-316.56 208.66,-303 177.08,-299.19 170.96,-286 139.16,-286"/>
<polygon fill="black" stroke="black" points="496.21,-295.9 504.56,-298.58 500.18,-295.45 504.16,-295 504.16,-295 504.16,-295 500.18,-295.45 503.75,-291.42 496.21,-295.9 496.21,-295.9"/>
<ellipse fill="none" stroke="black" cx="493.03" cy="-296.26" rx="3.2" ry="3.2"/>
</g>
<!-- m_account_transfer_details&#45;&gt;m_office -->
<g id="edge7" class="edge">
<title>m_account_transfer_details:w&#45;&gt;m_office:e</title>
<path fill="none" stroke="black" d="M489.74,-273.04C339.28,-273.78 296.57,-286 139.16,-286"/>
<polygon fill="black" stroke="black" points="496.16,-273.02 504.16,-276.6 500.16,-273.01 504.16,-273 504.16,-273 504.16,-273 500.16,-273.01 504.15,-269.4 496.16,-273.02 496.16,-273.02"/>
<ellipse fill="none" stroke="black" cx="492.96" cy="-273.03" rx="3.2" ry="3.2"/>
</g>
<!-- m_savings_account -->
<g id="node5" class="node">
<title>m_savings_account</title>
<g id="a_node5"><a xlink:href="../../tables/m_savings_account.html" xlink:title="m_savings_account" target="_top">
<polygon fill="#ffffff" stroke="transparent" points="18.66,-173 18.66,-231 167.66,-231 167.66,-173 18.66,-173"/>
<polygon fill="#f5f5f5" stroke="transparent" points="19.16,-209 19.16,-231 168.16,-231 168.16,-209 19.16,-209"/>
<polygon fill="none" stroke="black" points="19.16,-209 19.16,-231 168.16,-231 168.16,-209 19.16,-209"/>
<text text-anchor="start" x="24.16" y="-218.2" font-family="Helvetica,sans-Serif" font-weight="bold" font-size="11.00">m_savings_account</text>
<text text-anchor="start" x="133.16" y="-217.2" font-family="Helvetica,sans-Serif" font-size="11.00">[table]</text>
<polygon fill="none" stroke="black" points="19.16,-191 19.16,-209 168.16,-209 168.16,-191 19.16,-191"/>
<text text-anchor="start" x="22.16" y="-197.2" font-family="Helvetica,sans-Serif" font-size="11.00">...</text>
<polygon fill="#ffffff" stroke="transparent" points="19.16,-173 19.16,-191 71.16,-191 71.16,-173 19.16,-173"/>
<polygon fill="none" stroke="black" points="19.16,-173 19.16,-191 71.16,-191 71.16,-173 19.16,-173"/>
<text text-anchor="start" x="22.16" y="-179.2" font-family="Helvetica,sans-Serif" font-size="11.00">&lt; 5</text>
<polygon fill="#ffffff" stroke="transparent" points="71.16,-173 71.16,-191 125.16,-191 125.16,-173 71.16,-173"/>
<polygon fill="none" stroke="black" points="71.16,-173 71.16,-191 125.16,-191 125.16,-173 71.16,-173"/>
<text text-anchor="start" x="89.16" y="-179.2" font-family="Helvetica,sans-Serif" font-size="11.00">0 rows</text>
<polygon fill="#ffffff" stroke="transparent" points="125.16,-173 125.16,-191 168.16,-191 168.16,-173 125.16,-173"/>
<polygon fill="none" stroke="black" points="125.16,-173 125.16,-191 168.16,-191 168.16,-173 125.16,-173"/>
<text text-anchor="start" x="143.16" y="-179.2" font-family="Helvetica,sans-Serif" font-size="11.00">17 &gt;</text>
</a>
</g>
</g>
<!-- m_account_transfer_details&#45;&gt;m_savings_account -->
<g id="edge4" class="edge">
<title>m_account_transfer_details:w&#45;&gt;m_savings_account:e</title>
<path fill="none" stroke="black" d="M489.46,-206.94C419.31,-206.33 396.57,-201.46 319.66,-200 252.78,-198.73 236.04,-200 169.16,-200"/>
<polygon fill="black" stroke="black" points="496.16,-206.97 504.14,-210.6 500.16,-206.98 504.16,-207 504.16,-207 504.16,-207 500.16,-206.98 504.17,-203.4 496.16,-206.97 496.16,-206.97"/>
<ellipse fill="none" stroke="black" cx="492.96" cy="-206.95" rx="3.2" ry="3.2"/>
</g>
<!-- m_account_transfer_details&#45;&gt;m_savings_account -->
<g id="edge8" class="edge">
<title>m_account_transfer_details:w&#45;&gt;m_savings_account:e</title>
<path fill="none" stroke="black" d="M489.56,-185.02C370.07,-185.34 334.88,-189.65 208.66,-197 191.08,-198.02 186.76,-200 169.16,-200"/>
<polygon fill="black" stroke="black" points="496.16,-185.01 504.16,-188.6 500.16,-185.01 504.16,-185 504.16,-185 504.16,-185 500.16,-185.01 504.15,-181.4 496.16,-185.01 496.16,-185.01"/>
<ellipse fill="none" stroke="black" cx="492.96" cy="-185.01" rx="3.2" ry="3.2"/>
</g>
<!-- m_client&#45;&gt;m_office -->
<g id="edge13" class="edge">
<title>m_client:w&#45;&gt;m_office:e</title>
<path fill="none" stroke="black" d="M201.51,-238.41C175.99,-244.67 173.81,-280.84 139.16,-286"/>
<polygon fill="black" stroke="black" points="208.16,-238.22 216.26,-241.6 212.16,-238.11 216.16,-238 216.16,-238 216.16,-238 212.16,-238.11 216.06,-234.4 208.16,-238.22 208.16,-238.22"/>
<ellipse fill="none" stroke="black" cx="204.96" cy="-238.31" rx="3.2" ry="3.2"/>
</g>
<!-- m_client&#45;&gt;m_office -->
<g id="edge14" class="edge">
<title>m_client:w&#45;&gt;m_office:e</title>
<path fill="none" stroke="black" d="M202.21,-242.73C176.02,-256.78 174.13,-292.07 139.16,-286"/>
<polygon fill="black" stroke="black" points="208.58,-240.57 217.31,-241.41 212.37,-239.29 216.16,-238 216.16,-238 216.16,-238 212.37,-239.29 215,-234.59 208.58,-240.57 208.58,-240.57"/>
<ellipse fill="none" stroke="black" cx="205.55" cy="-241.6" rx="3.2" ry="3.2"/>
</g>
<!-- m_client&#45;&gt;m_savings_account -->
<g id="edge12" class="edge">
<title>m_client:w&#45;&gt;m_savings_account:e</title>
<path fill="none" stroke="black" d="M202.29,-233.03C190.62,-222.73 189.93,-200 169.16,-200"/>
<polygon fill="black" stroke="black" points="208.62,-235.3 214.94,-241.39 212.39,-236.65 216.16,-238 216.16,-238 216.16,-238 212.39,-236.65 217.37,-234.61 208.62,-235.3 208.62,-235.3"/>
<ellipse fill="none" stroke="black" cx="205.61" cy="-234.22" rx="3.2" ry="3.2"/>
</g>
<!-- m_loan&#45;&gt;m_client -->
<g id="edge15" class="edge">
<title>m_loan:w&#45;&gt;m_client:e</title>
<path fill="none" stroke="black" d="M346.01,-108.29C310.92,-128.77 369.97,-238 313.16,-238"/>
<polygon fill="black" stroke="black" points="352.36,-106.81 360.97,-108.51 356.26,-105.91 360.16,-105 360.16,-105 360.16,-105 356.26,-105.91 359.34,-101.49 352.36,-106.81 352.36,-106.81"/>
<ellipse fill="none" stroke="black" cx="349.25" cy="-107.54" rx="3.2" ry="3.2"/>
</g>
<!-- m_savings_account&#45;&gt;m_client -->
<g id="edge19" class="edge">
<title>m_savings_account:w&#45;&gt;m_client:e</title>
<path fill="none" stroke="black" d="M5.12,-193.65C-12.15,-172.63 10.39,-110.01 175.66,-169 193.5,-175.37 191.17,-188.69 208.66,-196 230,-204.92 296.41,-190.05 312.16,-207 321.54,-217.1 326.94,-238 313.16,-238"/>
<polygon fill="black" stroke="black" points="10.96,-196.49 16.58,-203.24 14.56,-198.25 18.16,-200 18.16,-200 18.16,-200 14.56,-198.25 19.73,-196.76 10.96,-196.49 10.96,-196.49"/>
<ellipse fill="none" stroke="black" cx="8.09" cy="-195.09" rx="3.2" ry="3.2"/>
</g>
<!-- m_account_transfer_standing_instructions -->
<g id="node6" class="node">
<title>m_account_transfer_standing_instructions</title>
<g id="a_node6"><a xlink:href="../../tables/m_account_transfer_standing_instructions.html" xlink:title="m_account_transfer_standing_instructions" target="_top">
<polygon fill="#ffffff" stroke="transparent" points="758.66,-282 758.66,-656 1137.66,-656 1137.66,-282 758.66,-282"/>
<polygon fill="#f5f5f5" stroke="transparent" points="761.16,-632 761.16,-654 1136.16,-654 1136.16,-632 761.16,-632"/>
<polygon fill="none" stroke="black" points="761.16,-632 761.16,-654 1136.16,-654 1136.16,-632 761.16,-632"/>
<text text-anchor="start" x="766.16" y="-641.2" font-family="Helvetica,sans-Serif" font-weight="bold" font-size="11.00">m_account_transfer_standing_instructions</text>
<text text-anchor="start" x="1101.16" y="-640.2" font-family="Helvetica,sans-Serif" font-size="11.00">[table]</text>
<polygon fill="none" stroke="black" points="761.16,-610 761.16,-632 1066.16,-632 1066.16,-610 761.16,-610"/>
<image xlink:href="../../images/primaryKeys.png" width="11px" height="12px" preserveAspectRatio="xMinYMin meet" x="766.156" y="-627"/>
<text text-anchor="start" x="781.16" y="-618.2" font-family="Helvetica,sans-Serif" font-size="11.00">id</text>
<polygon fill="none" stroke="black" points="1066.16,-610 1066.16,-632 1136.16,-632 1136.16,-610 1066.16,-610"/>
<text text-anchor="start" x="1069.16" y="-618.2" font-family="Helvetica,sans-Serif" font-size="11.00">bigint[19]</text>
<polygon fill="#ffffff" stroke="transparent" points="761.16,-588 761.16,-610 1066.16,-610 1066.16,-588 761.16,-588"/>
<polygon fill="none" stroke="black" points="761.16,-588 761.16,-610 1066.16,-610 1066.16,-588 761.16,-588"/>
<text text-anchor="start" x="781.16" y="-596.2" font-family="Helvetica,sans-Serif" font-size="11.00">name</text>
<polygon fill="none" stroke="black" points="1066.16,-588 1066.16,-610 1136.16,-610 1136.16,-588 1066.16,-588"/>
<text text-anchor="start" x="1069.16" y="-596.2" font-family="Helvetica,sans-Serif" font-size="11.00">varchar[250]</text>
<polygon fill="#ffffff" stroke="transparent" points="761.16,-566 761.16,-588 1066.16,-588 1066.16,-566 761.16,-566"/>
<polygon fill="none" stroke="black" points="761.16,-566 761.16,-588 1066.16,-588 1066.16,-566 761.16,-566"/>
<image xlink:href="../../images/foreignKeys.png" width="11px" height="12px" preserveAspectRatio="xMinYMin meet" x="766.156" y="-583"/>
<text text-anchor="start" x="781.16" y="-574.2" font-family="Helvetica,sans-Serif" font-size="11.00">account_transfer_details_id</text>
<polygon fill="none" stroke="black" points="1066.16,-566 1066.16,-588 1136.16,-588 1136.16,-566 1066.16,-566"/>
<text text-anchor="start" x="1069.16" y="-574.2" font-family="Helvetica,sans-Serif" font-size="11.00">bigint[19]</text>
<polygon fill="none" stroke="black" points="761.16,-544 761.16,-566 1066.16,-566 1066.16,-544 761.16,-544"/>
<text text-anchor="start" x="781.16" y="-552.2" font-family="Helvetica,sans-Serif" font-size="11.00">priority</text>
<polygon fill="none" stroke="black" points="1066.16,-544 1066.16,-566 1136.16,-566 1136.16,-544 1066.16,-544"/>
<text text-anchor="start" x="1069.16" y="-552.2" font-family="Helvetica,sans-Serif" font-size="11.00">tinyint[3]</text>
<polygon fill="none" stroke="black" points="761.16,-522 761.16,-544 1066.16,-544 1066.16,-522 761.16,-522"/>
<text text-anchor="start" x="781.16" y="-530.2" font-family="Helvetica,sans-Serif" font-size="11.00">status</text>
<polygon fill="none" stroke="black" points="1066.16,-522 1066.16,-544 1136.16,-544 1136.16,-522 1066.16,-522"/>
<text text-anchor="start" x="1069.16" y="-530.2" font-family="Helvetica,sans-Serif" font-size="11.00">tinyint[3]</text>
<polygon fill="none" stroke="black" points="761.16,-500 761.16,-522 1066.16,-522 1066.16,-500 761.16,-500"/>
<text text-anchor="start" x="781.16" y="-508.2" font-family="Helvetica,sans-Serif" font-size="11.00">instruction_type</text>
<polygon fill="none" stroke="black" points="1066.16,-500 1066.16,-522 1136.16,-522 1136.16,-500 1066.16,-500"/>
<text text-anchor="start" x="1069.16" y="-508.2" font-family="Helvetica,sans-Serif" font-size="11.00">tinyint[3]</text>
<polygon fill="none" stroke="black" points="761.16,-478 761.16,-500 1066.16,-500 1066.16,-478 761.16,-478"/>
<text text-anchor="start" x="781.16" y="-486.2" font-family="Helvetica,sans-Serif" font-size="11.00">amount</text>
<polygon fill="none" stroke="black" points="1066.16,-478 1066.16,-500 1136.16,-500 1136.16,-478 1066.16,-478"/>
<text text-anchor="start" x="1069.16" y="-486.2" font-family="Helvetica,sans-Serif" font-size="11.00">decimal[19,6]</text>
<polygon fill="none" stroke="black" points="761.16,-456 761.16,-478 1066.16,-478 1066.16,-456 761.16,-456"/>
<text text-anchor="start" x="781.16" y="-464.2" font-family="Helvetica,sans-Serif" font-size="11.00">valid_from</text>
<polygon fill="none" stroke="black" points="1066.16,-456 1066.16,-478 1136.16,-478 1136.16,-456 1066.16,-456"/>
<text text-anchor="start" x="1069.16" y="-464.2" font-family="Helvetica,sans-Serif" font-size="11.00">date[10]</text>
<polygon fill="none" stroke="black" points="761.16,-434 761.16,-456 1066.16,-456 1066.16,-434 761.16,-434"/>
<text text-anchor="start" x="781.16" y="-442.2" font-family="Helvetica,sans-Serif" font-size="11.00">valid_till</text>
<polygon fill="none" stroke="black" points="1066.16,-434 1066.16,-456 1136.16,-456 1136.16,-434 1066.16,-434"/>
<text text-anchor="start" x="1069.16" y="-442.2" font-family="Helvetica,sans-Serif" font-size="11.00">date[10]</text>
<polygon fill="none" stroke="black" points="761.16,-412 761.16,-434 1066.16,-434 1066.16,-412 761.16,-412"/>
<text text-anchor="start" x="781.16" y="-420.2" font-family="Helvetica,sans-Serif" font-size="11.00">recurrence_type</text>
<polygon fill="none" stroke="black" points="1066.16,-412 1066.16,-434 1136.16,-434 1136.16,-412 1066.16,-412"/>
<text text-anchor="start" x="1069.16" y="-420.2" font-family="Helvetica,sans-Serif" font-size="11.00">tinyint[3]</text>
<polygon fill="none" stroke="black" points="761.16,-390 761.16,-412 1066.16,-412 1066.16,-390 761.16,-390"/>
<text text-anchor="start" x="781.16" y="-398.2" font-family="Helvetica,sans-Serif" font-size="11.00">recurrence_frequency</text>
<polygon fill="none" stroke="black" points="1066.16,-390 1066.16,-412 1136.16,-412 1136.16,-390 1066.16,-390"/>
<text text-anchor="start" x="1069.16" y="-398.2" font-family="Helvetica,sans-Serif" font-size="11.00">smallint[5]</text>
<polygon fill="none" stroke="black" points="761.16,-368 761.16,-390 1066.16,-390 1066.16,-368 761.16,-368"/>
<text text-anchor="start" x="781.16" y="-376.2" font-family="Helvetica,sans-Serif" font-size="11.00">recurrence_interval</text>
<polygon fill="none" stroke="black" points="1066.16,-368 1066.16,-390 1136.16,-390 1136.16,-368 1066.16,-368"/>
<text text-anchor="start" x="1069.16" y="-376.2" font-family="Helvetica,sans-Serif" font-size="11.00">smallint[5]</text>
<polygon fill="none" stroke="black" points="761.16,-346 761.16,-368 1066.16,-368 1066.16,-346 761.16,-346"/>
<text text-anchor="start" x="781.16" y="-354.2" font-family="Helvetica,sans-Serif" font-size="11.00">recurrence_on_day</text>
<polygon fill="none" stroke="black" points="1066.16,-346 1066.16,-368 1136.16,-368 1136.16,-346 1066.16,-346"/>
<text text-anchor="start" x="1069.16" y="-354.2" font-family="Helvetica,sans-Serif" font-size="11.00">smallint[5]</text>
<polygon fill="none" stroke="black" points="761.16,-324 761.16,-346 1066.16,-346 1066.16,-324 761.16,-324"/>
<text text-anchor="start" x="781.16" y="-332.2" font-family="Helvetica,sans-Serif" font-size="11.00">recurrence_on_month</text>
<polygon fill="none" stroke="black" points="1066.16,-324 1066.16,-346 1136.16,-346 1136.16,-324 1066.16,-324"/>
<text text-anchor="start" x="1069.16" y="-332.2" font-family="Helvetica,sans-Serif" font-size="11.00">smallint[5]</text>
<polygon fill="none" stroke="black" points="761.16,-302 761.16,-324 1066.16,-324 1066.16,-302 761.16,-302"/>
<text text-anchor="start" x="781.16" y="-310.2" font-family="Helvetica,sans-Serif" font-size="11.00">last_run_date</text>
<polygon fill="none" stroke="black" points="1066.16,-302 1066.16,-324 1136.16,-324 1136.16,-302 1066.16,-302"/>
<text text-anchor="start" x="1069.16" y="-310.2" font-family="Helvetica,sans-Serif" font-size="11.00">date[10]</text>
<polygon fill="#ffffff" stroke="transparent" points="761.16,-284 761.16,-302 905.16,-302 905.16,-284 761.16,-284"/>
<polygon fill="none" stroke="black" points="761.16,-284 761.16,-302 905.16,-302 905.16,-284 761.16,-284"/>
<text text-anchor="start" x="764.16" y="-290.2" font-family="Helvetica,sans-Serif" font-size="11.00">&lt; 1</text>
<polygon fill="#ffffff" stroke="transparent" points="905.16,-284 905.16,-302 1066.16,-302 1066.16,-284 905.16,-284"/>
<polygon fill="none" stroke="black" points="905.16,-284 905.16,-302 1066.16,-302 1066.16,-284 905.16,-284"/>
<text text-anchor="start" x="1030.16" y="-290.2" font-family="Helvetica,sans-Serif" font-size="11.00">0 rows</text>
<polygon fill="#ffffff" stroke="transparent" points="1066.16,-284 1066.16,-302 1136.16,-302 1136.16,-284 1066.16,-284"/>
<polygon fill="none" stroke="black" points="1066.16,-284 1066.16,-302 1136.16,-302 1136.16,-284 1066.16,-284"/>
<text text-anchor="start" x="1117.16" y="-290.2" font-family="Helvetica,sans-Serif" font-size="11.00">1 &gt;</text>
<polygon fill="none" stroke="black" stroke-width="2" points="759.66,-283 759.66,-655 1136.66,-655 1136.66,-283 759.66,-283"/>
</a>
</g>
</g>
<!-- m_account_transfer_standing_instructions&#45;&gt;m_account_transfer_details -->
<g id="edge9" class="edge">
<title>m_account_transfer_standing_instructions:w&#45;&gt;m_account_transfer_details:e</title>
<path fill="none" stroke="black" d="M745.83,-575.41C659.02,-553.68 823.35,-317 711.16,-317"/>
<polygon fill="black" stroke="black" points="752.2,-576.12 759.76,-580.58 756.18,-576.56 760.16,-577 760.16,-577 760.16,-577 756.18,-576.56 760.55,-573.42 752.2,-576.12 752.2,-576.12"/>
<ellipse fill="none" stroke="black" cx="749.02" cy="-575.76" rx="3.2" ry="3.2"/>
</g>
<!-- m_account_transfer_standing_instructions_history -->
<g id="node7" class="node">
<title>m_account_transfer_standing_instructions_history</title>
<g id="a_node7"><a xlink:href="../../tables/m_account_transfer_standing_instructions_history.html" xlink:title="m_account_transfer_standing_instructions_history" target="_top">
<polygon fill="#ffffff" stroke="transparent" points="1186.66,-574 1186.66,-676 1545.66,-676 1545.66,-574 1186.66,-574"/>
<polygon fill="#f5f5f5" stroke="transparent" points="1187.16,-654 1187.16,-676 1546.16,-676 1546.16,-654 1187.16,-654"/>
<polygon fill="none" stroke="black" points="1187.16,-654 1187.16,-676 1546.16,-676 1546.16,-654 1187.16,-654"/>
<text text-anchor="start" x="1192.16" y="-663.2" font-family="Helvetica,sans-Serif" font-weight="bold" font-size="11.00">m_account_transfer_standing_instructions_history</text>
<text text-anchor="start" x="1511.16" y="-662.2" font-family="Helvetica,sans-Serif" font-size="11.00">[table]</text>
<polygon fill="none" stroke="black" points="1187.16,-632 1187.16,-654 1546.16,-654 1546.16,-632 1187.16,-632"/>
<image xlink:href="../../images/primaryKeys.png" width="11px" height="12px" preserveAspectRatio="xMinYMin meet" x="1192.16" y="-649"/>
<text text-anchor="start" x="1207.16" y="-640.2" font-family="Helvetica,sans-Serif" font-size="11.00">id</text>
<polygon fill="#ffffff" stroke="transparent" points="1187.16,-610 1187.16,-632 1546.16,-632 1546.16,-610 1187.16,-610"/>
<polygon fill="none" stroke="black" points="1187.16,-610 1187.16,-632 1546.16,-632 1546.16,-610 1187.16,-610"/>
<image xlink:href="../../images/foreignKeys.png" width="11px" height="12px" preserveAspectRatio="xMinYMin meet" x="1192.16" y="-627"/>
<text text-anchor="start" x="1207.16" y="-618.2" font-family="Helvetica,sans-Serif" font-size="11.00">standing_instruction_id</text>
<polygon fill="none" stroke="black" points="1187.16,-592 1187.16,-610 1546.16,-610 1546.16,-592 1187.16,-592"/>
<text text-anchor="start" x="1190.16" y="-598.2" font-family="Helvetica,sans-Serif" font-size="11.00">...</text>
<polygon fill="#ffffff" stroke="transparent" points="1187.16,-574 1187.16,-592 1351.16,-592 1351.16,-574 1187.16,-574"/>
<polygon fill="none" stroke="black" points="1187.16,-574 1187.16,-592 1351.16,-592 1351.16,-574 1187.16,-574"/>
<text text-anchor="start" x="1190.16" y="-580.2" font-family="Helvetica,sans-Serif" font-size="11.00">&lt; 1</text>
<polygon fill="#ffffff" stroke="transparent" points="1351.16,-574 1351.16,-592 1461.16,-592 1461.16,-574 1351.16,-574"/>
<polygon fill="none" stroke="black" points="1351.16,-574 1351.16,-592 1461.16,-592 1461.16,-574 1351.16,-574"/>
<text text-anchor="start" x="1425.16" y="-580.2" font-family="Helvetica,sans-Serif" font-size="11.00">0 rows</text>
<polygon fill="#ffffff" stroke="transparent" points="1461.16,-574 1461.16,-592 1546.16,-592 1546.16,-574 1461.16,-574"/>
<polygon fill="none" stroke="black" points="1461.16,-574 1461.16,-592 1546.16,-592 1546.16,-574 1461.16,-574"/>
<text text-anchor="start" x="1536.16" y="-580.2" font-family="Helvetica,sans-Serif" font-size="11.00"> &#160;</text>
</a>
</g>
</g>
<!-- m_account_transfer_standing_instructions_history&#45;&gt;m_account_transfer_standing_instructions -->
<g id="edge10" class="edge">
<title>m_account_transfer_standing_instructions_history:w&#45;&gt;m_account_transfer_standing_instructions:e</title>
<path fill="none" stroke="black" d="M1171.65,-621C1160.33,-621 1153.15,-621 1137.16,-621"/>
<polygon fill="black" stroke="black" points="1178.16,-621 1186.16,-624.6 1182.16,-621 1186.16,-621 1186.16,-621 1186.16,-621 1182.16,-621 1186.16,-617.4 1178.16,-621 1178.16,-621"/>
<ellipse fill="none" stroke="black" cx="1174.96" cy="-621" rx="3.2" ry="3.2"/>
</g>
<!-- m_account_transfer_transaction -->
<g id="node8" class="node">
<title>m_account_transfer_transaction</title>
<g id="a_node8"><a xlink:href="../../tables/m_account_transfer_transaction.html" xlink:title="m_account_transfer_transaction" target="_top">
<polygon fill="#ffffff" stroke="transparent" points="840.66,-203 840.66,-261 1055.66,-261 1055.66,-203 840.66,-203"/>
<polygon fill="#f5f5f5" stroke="transparent" points="841.16,-239 841.16,-261 1056.16,-261 1056.16,-239 841.16,-239"/>
<polygon fill="none" stroke="black" points="841.16,-239 841.16,-261 1056.16,-261 1056.16,-239 841.16,-239"/>
<text text-anchor="start" x="846.16" y="-248.2" font-family="Helvetica,sans-Serif" font-weight="bold" font-size="11.00">m_account_transfer_transaction</text>
<text text-anchor="start" x="1021.16" y="-247.2" font-family="Helvetica,sans-Serif" font-size="11.00">[table]</text>
<polygon fill="none" stroke="black" points="841.16,-221 841.16,-239 1056.16,-239 1056.16,-221 841.16,-221"/>
<text text-anchor="start" x="844.16" y="-227.2" font-family="Helvetica,sans-Serif" font-size="11.00">...</text>
<polygon fill="#ffffff" stroke="transparent" points="841.16,-203 841.16,-221 933.16,-221 933.16,-203 841.16,-203"/>
<polygon fill="none" stroke="black" points="841.16,-203 841.16,-221 933.16,-221 933.16,-203 841.16,-203"/>
<text text-anchor="start" x="844.16" y="-209.2" font-family="Helvetica,sans-Serif" font-size="11.00">&lt; 5</text>
<polygon fill="#ffffff" stroke="transparent" points="933.16,-203 933.16,-221 1007.16,-221 1007.16,-203 933.16,-203"/>
<polygon fill="none" stroke="black" points="933.16,-203 933.16,-221 1007.16,-221 1007.16,-203 933.16,-203"/>
<text text-anchor="start" x="971.16" y="-209.2" font-family="Helvetica,sans-Serif" font-size="11.00">0 rows</text>
<polygon fill="#ffffff" stroke="transparent" points="1007.16,-203 1007.16,-221 1056.16,-221 1056.16,-203 1007.16,-203"/>
<polygon fill="none" stroke="black" points="1007.16,-203 1007.16,-221 1056.16,-221 1056.16,-203 1007.16,-203"/>
<text text-anchor="start" x="1046.16" y="-209.2" font-family="Helvetica,sans-Serif" font-size="11.00"> &#160;</text>
</a>
</g>
</g>
<!-- m_account_transfer_transaction&#45;&gt;m_account_transfer_details -->
<g id="edge11" class="edge">
<title>m_account_transfer_transaction:w&#45;&gt;m_account_transfer_details:e</title>
<path fill="none" stroke="black" d="M825.61,-230.64C793.43,-233.73 781.38,-247.87 750.66,-271 729.13,-287.21 738.1,-317 711.16,-317"/>
<polygon fill="black" stroke="black" points="832.16,-230.35 840.31,-233.6 836.16,-230.18 840.16,-230 840.16,-230 840.16,-230 836.16,-230.18 840,-226.4 832.16,-230.35 832.16,-230.35"/>
<ellipse fill="none" stroke="black" cx="828.97" cy="-230.49" rx="3.2" ry="3.2"/>
</g>
<!-- m_loan_topup -->
<g id="node9" class="node">
<title>m_loan_topup</title>
<g id="a_node9"><a xlink:href="../../tables/m_loan_topup.html" xlink:title="m_loan_topup" target="_top">
<polygon fill="#ffffff" stroke="transparent" points="888.16,-37 888.16,-95 1008.16,-95 1008.16,-37 888.16,-37"/>
<polygon fill="#f5f5f5" stroke="transparent" points="888.16,-73 888.16,-95 1008.16,-95 1008.16,-73 888.16,-73"/>
<polygon fill="none" stroke="black" points="888.16,-73 888.16,-95 1008.16,-95 1008.16,-73 888.16,-73"/>
<text text-anchor="start" x="893.16" y="-82.2" font-family="Helvetica,sans-Serif" font-weight="bold" font-size="11.00">m_loan_topup</text>
<text text-anchor="start" x="973.16" y="-81.2" font-family="Helvetica,sans-Serif" font-size="11.00">[table]</text>
<polygon fill="none" stroke="black" points="888.16,-55 888.16,-73 1008.16,-73 1008.16,-55 888.16,-55"/>
<text text-anchor="start" x="891.16" y="-61.2" font-family="Helvetica,sans-Serif" font-size="11.00">...</text>
<polygon fill="#ffffff" stroke="transparent" points="888.16,-37 888.16,-55 933.16,-55 933.16,-37 888.16,-37"/>
<polygon fill="none" stroke="black" points="888.16,-37 888.16,-55 933.16,-55 933.16,-37 888.16,-37"/>
<text text-anchor="start" x="891.16" y="-43.2" font-family="Helvetica,sans-Serif" font-size="11.00">&lt; 3</text>
<polygon fill="#ffffff" stroke="transparent" points="933.16,-37 933.16,-55 983.16,-55 983.16,-37 933.16,-37"/>
<polygon fill="none" stroke="black" points="933.16,-37 933.16,-55 983.16,-55 983.16,-37 933.16,-37"/>
<text text-anchor="start" x="947.16" y="-43.2" font-family="Helvetica,sans-Serif" font-size="11.00">0 rows</text>
<polygon fill="#ffffff" stroke="transparent" points="983.16,-37 983.16,-55 1008.16,-55 1008.16,-37 983.16,-37"/>
<polygon fill="none" stroke="black" points="983.16,-37 983.16,-55 1008.16,-55 1008.16,-37 983.16,-37"/>
<text text-anchor="start" x="998.16" y="-43.2" font-family="Helvetica,sans-Serif" font-size="11.00"> &#160;</text>
</a>
</g>
</g>
<!-- m_loan_topup&#45;&gt;m_account_transfer_details -->
<g id="edge16" class="edge">
<title>m_loan_topup:w&#45;&gt;m_account_transfer_details:e</title>
<path fill="none" stroke="black" d="M872.4,-64.66C802.72,-71.25 792.19,-126.01 750.66,-192 719.62,-241.31 769.42,-317 711.16,-317"/>
<polygon fill="black" stroke="black" points="879.16,-64.36 887.32,-67.6 883.16,-64.18 887.16,-64 887.16,-64 887.16,-64 883.16,-64.18 886.99,-60.4 879.16,-64.36 879.16,-64.36"/>
<ellipse fill="none" stroke="black" cx="875.97" cy="-64.5" rx="3.2" ry="3.2"/>
</g>
<!-- m_loan_topup&#45;&gt;m_loan -->
<g id="edge17" class="edge">
<title>m_loan_topup:w&#45;&gt;m_loan:e</title>
<path fill="none" stroke="black" d="M872.69,-63.93C710.49,-62.43 658.99,-36.6 496.66,-83 477.33,-88.52 477.25,-105 457.16,-105"/>
<polygon fill="black" stroke="black" points="879.16,-63.96 887.14,-67.6 883.16,-63.98 887.16,-64 887.16,-64 887.16,-64 883.16,-63.98 887.17,-60.4 879.16,-63.96 879.16,-63.96"/>
<ellipse fill="none" stroke="black" cx="875.96" cy="-63.95" rx="3.2" ry="3.2"/>
</g>
<!-- m_loan_topup&#45;&gt;m_loan -->
<g id="edge18" class="edge">
<title>m_loan_topup:w&#45;&gt;m_loan:e</title>
<path fill="none" stroke="black" d="M872.68,-63.96C710.49,-62.98 660.62,-46.32 496.66,-87 477.93,-91.65 476.45,-105 457.16,-105"/>
<polygon fill="black" stroke="black" points="879.16,-63.98 887.14,-67.6 883.16,-63.99 887.16,-64 887.16,-64 887.16,-64 883.16,-63.99 887.17,-60.4 879.16,-63.98 879.16,-63.98"/>
<ellipse fill="none" stroke="black" cx="875.96" cy="-63.97" rx="3.2" ry="3.2"/>
</g>
</g>
</svg>
