<?xml version="1.0" encoding="UTF-8" standalone="no"?>
<!DOCTYPE svg PUBLIC "-//W3C//DTD SVG 1.1//EN"
 "http://www.w3.org/Graphics/SVG/1.1/DTD/svg11.dtd">
<!-- Generated by graphviz version 2.43.0 (0)
 -->
<!-- Title: oneDegreeRelationshipsDiagram Pages: 1 -->
<svg width="636pt" height="683pt"
 viewBox="0.00 0.00 636.00 683.00" xmlns="http://www.w3.org/2000/svg" xmlns:xlink="http://www.w3.org/1999/xlink">
<g id="graph0" class="graph" transform="scale(1 1) rotate(0) translate(4 679)">
<title>oneDegreeRelationshipsDiagram</title>
<polygon fill="#ffffff" stroke="transparent" points="-4,4 -4,-679 632,-679 632,4 -4,4"/>
<text text-anchor="middle" x="71.5" y="-7.2" font-family="Helvetica,sans-Serif" font-size="11.00">Generated by SchemaSpy</text>
<!-- m_account_transfer_transaction -->
<g id="node1" class="node">
<title>m_account_transfer_transaction</title>
<g id="a_node1"><a xlink:href="../../tables/m_account_transfer_transaction.html" xlink:title="m_account_transfer_transaction" target="_top">
<polygon fill="#ffffff" stroke="transparent" points="310,-110 310,-440 620,-440 620,-110 310,-110"/>
<polygon fill="#f5f5f5" stroke="transparent" points="312,-416 312,-438 618,-438 618,-416 312,-416"/>
<polygon fill="none" stroke="black" points="312,-416 312,-438 618,-438 618,-416 312,-416"/>
<text text-anchor="start" x="317" y="-425.2" font-family="Helvetica,sans-Serif" font-weight="bold" font-size="11.00">m_account_transfer_transaction</text>
<text text-anchor="start" x="583" y="-424.2" font-family="Helvetica,sans-Serif" font-size="11.00">[table]</text>
<polygon fill="none" stroke="black" points="312,-394 312,-416 548,-416 548,-394 312,-394"/>
<image xlink:href="../../images/primaryKeys.png" width="11px" height="12px" preserveAspectRatio="xMinYMin meet" x="317" y="-411"/>
<text text-anchor="start" x="332" y="-402.2" font-family="Helvetica,sans-Serif" font-size="11.00">id</text>
<polygon fill="none" stroke="black" points="548,-394 548,-416 618,-416 618,-394 548,-394"/>
<text text-anchor="start" x="551" y="-402.2" font-family="Helvetica,sans-Serif" font-size="11.00">bigint[19]</text>
<polygon fill="#ffffff" stroke="transparent" points="312,-372 312,-394 548,-394 548,-372 312,-372"/>
<polygon fill="none" stroke="black" points="312,-372 312,-394 548,-394 548,-372 312,-372"/>
<image xlink:href="../../images/foreignKeys.png" width="11px" height="12px" preserveAspectRatio="xMinYMin meet" x="317" y="-389"/>
<text text-anchor="start" x="332" y="-380.2" font-family="Helvetica,sans-Serif" font-size="11.00">account_transfer_details_id</text>
<polygon fill="none" stroke="black" points="548,-372 548,-394 618,-394 618,-372 548,-372"/>
<text text-anchor="start" x="551" y="-380.2" font-family="Helvetica,sans-Serif" font-size="11.00">bigint[19]</text>
<polygon fill="#ffffff" stroke="transparent" points="312,-350 312,-372 548,-372 548,-350 312,-350"/>
<polygon fill="none" stroke="black" points="312,-350 312,-372 548,-372 548,-350 312,-350"/>
<image xlink:href="../../images/foreignKeys.png" width="11px" height="12px" preserveAspectRatio="xMinYMin meet" x="317" y="-367"/>
<text text-anchor="start" x="332" y="-358.2" font-family="Helvetica,sans-Serif" font-size="11.00">from_savings_transaction_id</text>
<polygon fill="none" stroke="black" points="548,-350 548,-372 618,-372 618,-350 548,-350"/>
<text text-anchor="start" x="551" y="-358.2" font-family="Helvetica,sans-Serif" font-size="11.00">bigint[19]</text>
<polygon fill="#ffffff" stroke="transparent" points="312,-328 312,-350 548,-350 548,-328 312,-328"/>
<polygon fill="none" stroke="black" points="312,-328 312,-350 548,-350 548,-328 312,-328"/>
<image xlink:href="../../images/foreignKeys.png" width="11px" height="12px" preserveAspectRatio="xMinYMin meet" x="317" y="-345"/>
<text text-anchor="start" x="332" y="-336.2" font-family="Helvetica,sans-Serif" font-size="11.00">from_loan_transaction_id</text>
<polygon fill="none" stroke="black" points="548,-328 548,-350 618,-350 618,-328 548,-328"/>
<text text-anchor="start" x="551" y="-336.2" font-family="Helvetica,sans-Serif" font-size="11.00">bigint[19]</text>
<polygon fill="#ffffff" stroke="transparent" points="312,-306 312,-328 548,-328 548,-306 312,-306"/>
<polygon fill="none" stroke="black" points="312,-306 312,-328 548,-328 548,-306 312,-306"/>
<image xlink:href="../../images/foreignKeys.png" width="11px" height="12px" preserveAspectRatio="xMinYMin meet" x="317" y="-323"/>
<text text-anchor="start" x="332" y="-314.2" font-family="Helvetica,sans-Serif" font-size="11.00">to_savings_transaction_id</text>
<polygon fill="none" stroke="black" points="548,-306 548,-328 618,-328 618,-306 548,-306"/>
<text text-anchor="start" x="551" y="-314.2" font-family="Helvetica,sans-Serif" font-size="11.00">bigint[19]</text>
<polygon fill="#ffffff" stroke="transparent" points="312,-284 312,-306 548,-306 548,-284 312,-284"/>
<polygon fill="none" stroke="black" points="312,-284 312,-306 548,-306 548,-284 312,-284"/>
<image xlink:href="../../images/foreignKeys.png" width="11px" height="12px" preserveAspectRatio="xMinYMin meet" x="317" y="-301"/>
<text text-anchor="start" x="332" y="-292.2" font-family="Helvetica,sans-Serif" font-size="11.00">to_loan_transaction_id</text>
<polygon fill="none" stroke="black" points="548,-284 548,-306 618,-306 618,-284 548,-284"/>
<text text-anchor="start" x="551" y="-292.2" font-family="Helvetica,sans-Serif" font-size="11.00">bigint[19]</text>
<polygon fill="none" stroke="black" points="312,-262 312,-284 548,-284 548,-262 312,-262"/>
<text text-anchor="start" x="332" y="-270.2" font-family="Helvetica,sans-Serif" font-size="11.00">is_reversed</text>
<polygon fill="none" stroke="black" points="548,-262 548,-284 618,-284 618,-262 548,-262"/>
<text text-anchor="start" x="551" y="-270.2" font-family="Helvetica,sans-Serif" font-size="11.00">bit[1]</text>
<polygon fill="none" stroke="black" points="312,-240 312,-262 548,-262 548,-240 312,-240"/>
<text text-anchor="start" x="332" y="-248.2" font-family="Helvetica,sans-Serif" font-size="11.00">transaction_date</text>
<polygon fill="none" stroke="black" points="548,-240 548,-262 618,-262 618,-240 548,-240"/>
<text text-anchor="start" x="551" y="-248.2" font-family="Helvetica,sans-Serif" font-size="11.00">date[10]</text>
<polygon fill="none" stroke="black" points="312,-218 312,-240 548,-240 548,-218 312,-218"/>
<text text-anchor="start" x="332" y="-226.2" font-family="Helvetica,sans-Serif" font-size="11.00">currency_code</text>
<polygon fill="none" stroke="black" points="548,-218 548,-240 618,-240 618,-218 548,-218"/>
<text text-anchor="start" x="551" y="-226.2" font-family="Helvetica,sans-Serif" font-size="11.00">varchar[3]</text>
<polygon fill="none" stroke="black" points="312,-196 312,-218 548,-218 548,-196 312,-196"/>
<text text-anchor="start" x="332" y="-204.2" font-family="Helvetica,sans-Serif" font-size="11.00">currency_digits</text>
<polygon fill="none" stroke="black" points="548,-196 548,-218 618,-218 618,-196 548,-196"/>
<text text-anchor="start" x="551" y="-204.2" font-family="Helvetica,sans-Serif" font-size="11.00">smallint[5]</text>
<polygon fill="none" stroke="black" points="312,-174 312,-196 548,-196 548,-174 312,-174"/>
<text text-anchor="start" x="332" y="-182.2" font-family="Helvetica,sans-Serif" font-size="11.00">currency_multiplesof</text>
<polygon fill="none" stroke="black" points="548,-174 548,-196 618,-196 618,-174 548,-174"/>
<text text-anchor="start" x="551" y="-182.2" font-family="Helvetica,sans-Serif" font-size="11.00">smallint[5]</text>
<polygon fill="none" stroke="black" points="312,-152 312,-174 548,-174 548,-152 312,-152"/>
<text text-anchor="start" x="332" y="-160.2" font-family="Helvetica,sans-Serif" font-size="11.00">amount</text>
<polygon fill="none" stroke="black" points="548,-152 548,-174 618,-174 618,-152 548,-152"/>
<text text-anchor="start" x="551" y="-160.2" font-family="Helvetica,sans-Serif" font-size="11.00">decimal[19,6]</text>
<polygon fill="none" stroke="black" points="312,-130 312,-152 548,-152 548,-130 312,-130"/>
<text text-anchor="start" x="332" y="-138.2" font-family="Helvetica,sans-Serif" font-size="11.00">description</text>
<polygon fill="none" stroke="black" points="548,-130 548,-152 618,-152 618,-130 548,-130"/>
<text text-anchor="start" x="551" y="-138.2" font-family="Helvetica,sans-Serif" font-size="11.00">varchar[200]</text>
<polygon fill="#ffffff" stroke="transparent" points="312,-112 312,-130 421,-130 421,-112 312,-112"/>
<polygon fill="none" stroke="black" points="312,-112 312,-130 421,-130 421,-112 312,-112"/>
<text text-anchor="start" x="315" y="-118.2" font-family="Helvetica,sans-Serif" font-size="11.00">&lt; 5</text>
<polygon fill="#ffffff" stroke="transparent" points="421,-112 421,-130 548,-130 548,-112 421,-112"/>
<polygon fill="none" stroke="black" points="421,-112 421,-130 548,-130 548,-112 421,-112"/>
<text text-anchor="start" x="512" y="-118.2" font-family="Helvetica,sans-Serif" font-size="11.00">0 rows</text>
<polygon fill="#ffffff" stroke="transparent" points="548,-112 548,-130 618,-130 618,-112 548,-112"/>
<polygon fill="none" stroke="black" points="548,-112 548,-130 618,-130 618,-112 548,-112"/>
<text text-anchor="start" x="599" y="-118.2" font-family="Helvetica,sans-Serif" font-size="11.00">0 &gt;</text>
<polygon fill="none" stroke="black" stroke-width="2" points="311,-111 311,-439 619,-439 619,-111 311,-111"/>
</a>
</g>
</g>
<!-- m_account_transfer_details -->
<g id="node2" class="node">
<title>m_account_transfer_details</title>
<g id="a_node2"><a xlink:href="../../tables/m_account_transfer_details.html" xlink:title="m_account_transfer_details" target="_top">
<polygon fill="#ffffff" stroke="transparent" points="32,-415 32,-671 237,-671 237,-415 32,-415"/>
<polygon fill="#f5f5f5" stroke="transparent" points="32.5,-649 32.5,-671 237.5,-671 237.5,-649 32.5,-649"/>
<polygon fill="none" stroke="black" points="32.5,-649 32.5,-671 237.5,-671 237.5,-649 32.5,-649"/>
<text text-anchor="start" x="37.5" y="-658.2" font-family="Helvetica,sans-Serif" font-weight="bold" font-size="11.00">m_account_transfer_details</text>
<text text-anchor="start" x="202.5" y="-657.2" font-family="Helvetica,sans-Serif" font-size="11.00">[table]</text>
<polygon fill="none" stroke="black" points="32.5,-627 32.5,-649 237.5,-649 237.5,-627 32.5,-627"/>
<image xlink:href="../../images/primaryKeys.png" width="11px" height="12px" preserveAspectRatio="xMinYMin meet" x="37.5" y="-644"/>
<text text-anchor="start" x="52.5" y="-635.2" font-family="Helvetica,sans-Serif" font-size="11.00">id</text>
<polygon fill="#ffffff" stroke="transparent" points="32.5,-605 32.5,-627 237.5,-627 237.5,-605 32.5,-605"/>
<polygon fill="none" stroke="black" points="32.5,-605 32.5,-627 237.5,-627 237.5,-605 32.5,-605"/>
<image xlink:href="../../images/foreignKeys.png" width="11px" height="12px" preserveAspectRatio="xMinYMin meet" x="37.5" y="-622"/>
<text text-anchor="start" x="52.5" y="-613.2" font-family="Helvetica,sans-Serif" font-size="11.00">from_office_id</text>
<polygon fill="#ffffff" stroke="transparent" points="32.5,-583 32.5,-605 237.5,-605 237.5,-583 32.5,-583"/>
<polygon fill="none" stroke="black" points="32.5,-583 32.5,-605 237.5,-605 237.5,-583 32.5,-583"/>
<image xlink:href="../../images/foreignKeys.png" width="11px" height="12px" preserveAspectRatio="xMinYMin meet" x="37.5" y="-600"/>
<text text-anchor="start" x="52.5" y="-591.2" font-family="Helvetica,sans-Serif" font-size="11.00">to_office_id</text>
<polygon fill="#ffffff" stroke="transparent" points="32.5,-561 32.5,-583 237.5,-583 237.5,-561 32.5,-561"/>
<polygon fill="none" stroke="black" points="32.5,-561 32.5,-583 237.5,-583 237.5,-561 32.5,-561"/>
<image xlink:href="../../images/foreignKeys.png" width="11px" height="12px" preserveAspectRatio="xMinYMin meet" x="37.5" y="-578"/>
<text text-anchor="start" x="52.5" y="-569.2" font-family="Helvetica,sans-Serif" font-size="11.00">from_client_id</text>
<polygon fill="#ffffff" stroke="transparent" points="32.5,-539 32.5,-561 237.5,-561 237.5,-539 32.5,-539"/>
<polygon fill="none" stroke="black" points="32.5,-539 32.5,-561 237.5,-561 237.5,-539 32.5,-539"/>
<image xlink:href="../../images/foreignKeys.png" width="11px" height="12px" preserveAspectRatio="xMinYMin meet" x="37.5" y="-556"/>
<text text-anchor="start" x="52.5" y="-547.2" font-family="Helvetica,sans-Serif" font-size="11.00">to_client_id</text>
<polygon fill="#ffffff" stroke="transparent" points="32.5,-517 32.5,-539 237.5,-539 237.5,-517 32.5,-517"/>
<polygon fill="none" stroke="black" points="32.5,-517 32.5,-539 237.5,-539 237.5,-517 32.5,-517"/>
<image xlink:href="../../images/foreignKeys.png" width="11px" height="12px" preserveAspectRatio="xMinYMin meet" x="37.5" y="-534"/>
<text text-anchor="start" x="52.5" y="-525.2" font-family="Helvetica,sans-Serif" font-size="11.00">from_savings_account_id</text>
<polygon fill="#ffffff" stroke="transparent" points="32.5,-495 32.5,-517 237.5,-517 237.5,-495 32.5,-495"/>
<polygon fill="none" stroke="black" points="32.5,-495 32.5,-517 237.5,-517 237.5,-495 32.5,-495"/>
<image xlink:href="../../images/foreignKeys.png" width="11px" height="12px" preserveAspectRatio="xMinYMin meet" x="37.5" y="-512"/>
<text text-anchor="start" x="52.5" y="-503.2" font-family="Helvetica,sans-Serif" font-size="11.00">to_savings_account_id</text>
<polygon fill="#ffffff" stroke="transparent" points="32.5,-473 32.5,-495 237.5,-495 237.5,-473 32.5,-473"/>
<polygon fill="none" stroke="black" points="32.5,-473 32.5,-495 237.5,-495 237.5,-473 32.5,-473"/>
<image xlink:href="../../images/foreignKeys.png" width="11px" height="12px" preserveAspectRatio="xMinYMin meet" x="37.5" y="-490"/>
<text text-anchor="start" x="52.5" y="-481.2" font-family="Helvetica,sans-Serif" font-size="11.00">from_loan_account_id</text>
<polygon fill="#ffffff" stroke="transparent" points="32.5,-451 32.5,-473 237.5,-473 237.5,-451 32.5,-451"/>
<polygon fill="none" stroke="black" points="32.5,-451 32.5,-473 237.5,-473 237.5,-451 32.5,-451"/>
<image xlink:href="../../images/foreignKeys.png" width="11px" height="12px" preserveAspectRatio="xMinYMin meet" x="37.5" y="-468"/>
<text text-anchor="start" x="52.5" y="-459.2" font-family="Helvetica,sans-Serif" font-size="11.00">to_loan_account_id</text>
<polygon fill="none" stroke="black" points="32.5,-433 32.5,-451 237.5,-451 237.5,-433 32.5,-433"/>
<text text-anchor="start" x="35.5" y="-439.2" font-family="Helvetica,sans-Serif" font-size="11.00">...</text>
<polygon fill="#ffffff" stroke="transparent" points="32.5,-415 32.5,-433 115.5,-433 115.5,-415 32.5,-415"/>
<polygon fill="none" stroke="black" points="32.5,-415 32.5,-433 115.5,-433 115.5,-415 32.5,-415"/>
<text text-anchor="start" x="35.5" y="-421.2" font-family="Helvetica,sans-Serif" font-size="11.00">&lt; 8</text>
<polygon fill="#ffffff" stroke="transparent" points="115.5,-415 115.5,-433 184.5,-433 184.5,-415 115.5,-415"/>
<polygon fill="none" stroke="black" points="115.5,-415 115.5,-433 184.5,-433 184.5,-415 115.5,-415"/>
<text text-anchor="start" x="148.5" y="-421.2" font-family="Helvetica,sans-Serif" font-size="11.00">0 rows</text>
<polygon fill="#ffffff" stroke="transparent" points="184.5,-415 184.5,-433 237.5,-433 237.5,-415 184.5,-415"/>
<polygon fill="none" stroke="black" points="184.5,-415 184.5,-433 237.5,-433 237.5,-415 184.5,-415"/>
<text text-anchor="start" x="218.5" y="-421.2" font-family="Helvetica,sans-Serif" font-size="11.00">3 &gt;</text>
</a>
</g>
</g>
<!-- m_account_transfer_transaction&#45;&gt;m_account_transfer_details -->
<g id="edge1" class="edge">
<title>m_account_transfer_transaction:w&#45;&gt;m_account_transfer_details:e</title>
<path fill="none" stroke="black" d="M296.5,-384.56C207.56,-405.87 350.92,-638 238.5,-638"/>
<polygon fill="black" stroke="black" points="303.05,-383.86 311.39,-386.58 307.02,-383.43 311,-383 311,-383 311,-383 307.02,-383.43 310.61,-379.42 303.05,-383.86 303.05,-383.86"/>
<ellipse fill="none" stroke="black" cx="299.86" cy="-384.2" rx="3.2" ry="3.2"/>
</g>
<!-- m_loan_transaction -->
<g id="node3" class="node">
<title>m_loan_transaction</title>
<g id="a_node3"><a xlink:href="../../tables/m_loan_transaction.html" xlink:title="m_loan_transaction" target="_top">
<polygon fill="#ffffff" stroke="transparent" points="8,-37 8,-205 261,-205 261,-37 8,-37"/>
<polygon fill="#f5f5f5" stroke="transparent" points="8.5,-183 8.5,-205 261.5,-205 261.5,-183 8.5,-183"/>
<polygon fill="none" stroke="black" points="8.5,-183 8.5,-205 261.5,-205 261.5,-183 8.5,-183"/>
<text text-anchor="start" x="13.5" y="-192.2" font-family="Helvetica,sans-Serif" font-weight="bold" font-size="11.00">m_loan_transaction</text>
<text text-anchor="start" x="226.5" y="-191.2" font-family="Helvetica,sans-Serif" font-size="11.00">[table]</text>
<polygon fill="none" stroke="black" points="8.5,-161 8.5,-183 261.5,-183 261.5,-161 8.5,-161"/>
<image xlink:href="../../images/primaryKeys.png" width="11px" height="12px" preserveAspectRatio="xMinYMin meet" x="13.5" y="-178"/>
<text text-anchor="start" x="28.5" y="-169.2" font-family="Helvetica,sans-Serif" font-size="11.00">id</text>
<polygon fill="#ffffff" stroke="transparent" points="8.5,-139 8.5,-161 261.5,-161 261.5,-139 8.5,-139"/>
<polygon fill="none" stroke="black" points="8.5,-139 8.5,-161 261.5,-161 261.5,-139 8.5,-139"/>
<image xlink:href="../../images/foreignKeys.png" width="11px" height="12px" preserveAspectRatio="xMinYMin meet" x="13.5" y="-156"/>
<text text-anchor="start" x="28.5" y="-147.2" font-family="Helvetica,sans-Serif" font-size="11.00">loan_id</text>
<polygon fill="#ffffff" stroke="transparent" points="8.5,-117 8.5,-139 261.5,-139 261.5,-117 8.5,-117"/>
<polygon fill="none" stroke="black" points="8.5,-117 8.5,-139 261.5,-139 261.5,-117 8.5,-117"/>
<image xlink:href="../../images/foreignKeys.png" width="11px" height="12px" preserveAspectRatio="xMinYMin meet" x="13.5" y="-134"/>
<text text-anchor="start" x="28.5" y="-125.2" font-family="Helvetica,sans-Serif" font-size="11.00">office_id</text>
<polygon fill="#ffffff" stroke="transparent" points="8.5,-95 8.5,-117 261.5,-117 261.5,-95 8.5,-95"/>
<polygon fill="none" stroke="black" points="8.5,-95 8.5,-117 261.5,-117 261.5,-95 8.5,-95"/>
<image xlink:href="../../images/foreignKeys.png" width="11px" height="12px" preserveAspectRatio="xMinYMin meet" x="13.5" y="-112"/>
<text text-anchor="start" x="28.5" y="-103.2" font-family="Helvetica,sans-Serif" font-size="11.00">payment_detail_id</text>
<polygon fill="#ffffff" stroke="transparent" points="8.5,-73 8.5,-95 261.5,-95 261.5,-73 8.5,-73"/>
<polygon fill="none" stroke="black" points="8.5,-73 8.5,-95 261.5,-95 261.5,-73 8.5,-73"/>
<text text-anchor="start" x="28.5" y="-81.2" font-family="Helvetica,sans-Serif" font-size="11.00">external_id</text>
<polygon fill="none" stroke="black" points="8.5,-55 8.5,-73 261.5,-73 261.5,-55 8.5,-55"/>
<text text-anchor="start" x="11.5" y="-61.2" font-family="Helvetica,sans-Serif" font-size="11.00">...</text>
<polygon fill="#ffffff" stroke="transparent" points="8.5,-37 8.5,-55 115.5,-55 115.5,-37 8.5,-37"/>
<polygon fill="none" stroke="black" points="8.5,-37 8.5,-55 115.5,-55 115.5,-37 8.5,-37"/>
<text text-anchor="start" x="11.5" y="-43.2" font-family="Helvetica,sans-Serif" font-size="11.00">&lt; 3</text>
<polygon fill="#ffffff" stroke="transparent" points="115.5,-37 115.5,-55 196.5,-55 196.5,-37 115.5,-37"/>
<polygon fill="none" stroke="black" points="115.5,-37 115.5,-55 196.5,-55 196.5,-37 115.5,-37"/>
<text text-anchor="start" x="160.5" y="-43.2" font-family="Helvetica,sans-Serif" font-size="11.00">0 rows</text>
<polygon fill="#ffffff" stroke="transparent" points="196.5,-37 196.5,-55 261.5,-55 261.5,-37 196.5,-37"/>
<polygon fill="none" stroke="black" points="196.5,-37 196.5,-55 261.5,-55 261.5,-37 196.5,-37"/>
<text text-anchor="start" x="242.5" y="-43.2" font-family="Helvetica,sans-Serif" font-size="11.00">8 &gt;</text>
</a>
</g>
</g>
<!-- m_account_transfer_transaction&#45;&gt;m_loan_transaction -->
<g id="edge2" class="edge">
<title>m_account_transfer_transaction:w&#45;&gt;m_loan_transaction:e</title>
<path fill="none" stroke="black" d="M296.67,-336.38C248.45,-315.13 334.05,-172 262.5,-172"/>
<polygon fill="black" stroke="black" points="303.13,-337.56 310.35,-342.54 307.07,-338.28 311,-339 311,-339 311,-339 307.07,-338.28 311.65,-335.46 303.13,-337.56 303.13,-337.56"/>
<ellipse fill="none" stroke="black" cx="299.98" cy="-336.98" rx="3.2" ry="3.2"/>
</g>
<!-- m_account_transfer_transaction&#45;&gt;m_loan_transaction -->
<g id="edge4" class="edge">
<title>m_account_transfer_transaction:w&#45;&gt;m_loan_transaction:e</title>
<path fill="none" stroke="black" d="M296.78,-291.45C264.94,-271.28 315.29,-172 262.5,-172"/>
<polygon fill="black" stroke="black" points="303.24,-293.06 310.13,-298.49 307.12,-294.03 311,-295 311,-295 311,-295 307.12,-294.03 311.87,-291.51 303.24,-293.06 303.24,-293.06"/>
<ellipse fill="none" stroke="black" cx="300.13" cy="-292.29" rx="3.2" ry="3.2"/>
</g>
<!-- m_savings_account_transaction -->
<g id="node4" class="node">
<title>m_savings_account_transaction</title>
<g id="a_node4"><a xlink:href="../../tables/m_savings_account_transaction.html" xlink:title="m_savings_account_transaction" target="_top">
<polygon fill="#ffffff" stroke="transparent" points="11.5,-226 11.5,-394 257.5,-394 257.5,-226 11.5,-226"/>
<polygon fill="#f5f5f5" stroke="transparent" points="11.5,-372 11.5,-394 257.5,-394 257.5,-372 11.5,-372"/>
<polygon fill="none" stroke="black" points="11.5,-372 11.5,-394 257.5,-394 257.5,-372 11.5,-372"/>
<text text-anchor="start" x="16.5" y="-381.2" font-family="Helvetica,sans-Serif" font-weight="bold" font-size="11.00">m_savings_account_transaction</text>
<text text-anchor="start" x="222.5" y="-380.2" font-family="Helvetica,sans-Serif" font-size="11.00">[table]</text>
<polygon fill="none" stroke="black" points="11.5,-350 11.5,-372 257.5,-372 257.5,-350 11.5,-350"/>
<image xlink:href="../../images/primaryKeys.png" width="11px" height="12px" preserveAspectRatio="xMinYMin meet" x="16.5" y="-367"/>
<text text-anchor="start" x="31.5" y="-358.2" font-family="Helvetica,sans-Serif" font-size="11.00">id</text>
<polygon fill="#ffffff" stroke="transparent" points="11.5,-328 11.5,-350 257.5,-350 257.5,-328 11.5,-328"/>
<polygon fill="none" stroke="black" points="11.5,-328 11.5,-350 257.5,-350 257.5,-328 11.5,-328"/>
<image xlink:href="../../images/foreignKeys.png" width="11px" height="12px" preserveAspectRatio="xMinYMin meet" x="16.5" y="-345"/>
<text text-anchor="start" x="31.5" y="-336.2" font-family="Helvetica,sans-Serif" font-size="11.00">savings_account_id</text>
<polygon fill="#ffffff" stroke="transparent" points="11.5,-306 11.5,-328 257.5,-328 257.5,-306 11.5,-306"/>
<polygon fill="none" stroke="black" points="11.5,-306 11.5,-328 257.5,-328 257.5,-306 11.5,-306"/>
<image xlink:href="../../images/foreignKeys.png" width="11px" height="12px" preserveAspectRatio="xMinYMin meet" x="16.5" y="-323"/>
<text text-anchor="start" x="31.5" y="-314.2" font-family="Helvetica,sans-Serif" font-size="11.00">office_id</text>
<polygon fill="#ffffff" stroke="transparent" points="11.5,-284 11.5,-306 257.5,-306 257.5,-284 11.5,-284"/>
<polygon fill="none" stroke="black" points="11.5,-284 11.5,-306 257.5,-306 257.5,-284 11.5,-284"/>
<image xlink:href="../../images/foreignKeys.png" width="11px" height="12px" preserveAspectRatio="xMinYMin meet" x="16.5" y="-301"/>
<text text-anchor="start" x="31.5" y="-292.2" font-family="Helvetica,sans-Serif" font-size="11.00">payment_detail_id</text>
<polygon fill="#ffffff" stroke="transparent" points="11.5,-262 11.5,-284 257.5,-284 257.5,-262 11.5,-262"/>
<polygon fill="none" stroke="black" points="11.5,-262 11.5,-284 257.5,-284 257.5,-262 11.5,-262"/>
<text text-anchor="start" x="31.5" y="-270.2" font-family="Helvetica,sans-Serif" font-size="11.00">ref_no</text>
<polygon fill="none" stroke="black" points="11.5,-244 11.5,-262 257.5,-262 257.5,-244 11.5,-244"/>
<text text-anchor="start" x="14.5" y="-250.2" font-family="Helvetica,sans-Serif" font-size="11.00">...</text>
<polygon fill="#ffffff" stroke="transparent" points="11.5,-226 11.5,-244 114.5,-244 114.5,-226 11.5,-226"/>
<polygon fill="none" stroke="black" points="11.5,-226 11.5,-244 114.5,-244 114.5,-226 11.5,-226"/>
<text text-anchor="start" x="14.5" y="-232.2" font-family="Helvetica,sans-Serif" font-size="11.00">&lt; 3</text>
<polygon fill="#ffffff" stroke="transparent" points="114.5,-226 114.5,-244 194.5,-244 194.5,-226 114.5,-226"/>
<polygon fill="none" stroke="black" points="114.5,-226 114.5,-244 194.5,-244 194.5,-226 114.5,-226"/>
<text text-anchor="start" x="158.5" y="-232.2" font-family="Helvetica,sans-Serif" font-size="11.00">0 rows</text>
<polygon fill="#ffffff" stroke="transparent" points="194.5,-226 194.5,-244 257.5,-244 257.5,-226 194.5,-226"/>
<polygon fill="none" stroke="black" points="194.5,-226 194.5,-244 257.5,-244 257.5,-226 194.5,-226"/>
<text text-anchor="start" x="238.5" y="-232.2" font-family="Helvetica,sans-Serif" font-size="11.00">5 &gt;</text>
</a>
</g>
</g>
<!-- m_account_transfer_transaction&#45;&gt;m_savings_account_transaction -->
<g id="edge3" class="edge">
<title>m_account_transfer_transaction:w&#45;&gt;m_savings_account_transaction:e</title>
<path fill="none" stroke="black" d="M296.23,-361C283.66,-361 276,-361 258.5,-361"/>
<polygon fill="black" stroke="black" points="303,-361 311,-364.6 307,-361 311,-361 311,-361 311,-361 307,-361 311,-357.4 303,-361 303,-361"/>
<ellipse fill="none" stroke="black" cx="299.8" cy="-361" rx="3.2" ry="3.2"/>
</g>
<!-- m_account_transfer_transaction&#45;&gt;m_savings_account_transaction -->
<g id="edge5" class="edge">
<title>m_account_transfer_transaction:w&#45;&gt;m_savings_account_transaction:e</title>
<path fill="none" stroke="black" d="M297.03,-321.38C282.35,-332.51 283,-361 258.5,-361"/>
<polygon fill="black" stroke="black" points="303.37,-319.39 312.08,-320.44 307.18,-318.2 311,-317 311,-317 311,-317 307.18,-318.2 309.92,-313.56 303.37,-319.39 303.37,-319.39"/>
<ellipse fill="none" stroke="black" cx="300.31" cy="-320.35" rx="3.2" ry="3.2"/>
</g>
</g>
</svg>
