<?xml version="1.0" encoding="UTF-8" standalone="no"?>
<!DOCTYPE svg PUBLIC "-//W3C//DTD SVG 1.1//EN"
 "http://www.w3.org/Graphics/SVG/1.1/DTD/svg11.dtd">
<!-- Generated by graphviz version 2.43.0 (0)
 -->
<!-- Title: oneDegreeRelationshipsDiagram Pages: 1 -->
<svg width="1065pt" height="443pt"
 viewBox="0.00 0.00 1065.00 443.00" xmlns="http://www.w3.org/2000/svg" xmlns:xlink="http://www.w3.org/1999/xlink">
<g id="graph0" class="graph" transform="scale(1 1) rotate(0) translate(4 439)">
<title>oneDegreeRelationshipsDiagram</title>
<polygon fill="#ffffff" stroke="transparent" points="-4,4 -4,-439 1061,-439 1061,4 -4,4"/>
<text text-anchor="middle" x="71.5" y="-7.2" font-family="Helvetica,sans-Serif" font-size="11.00">Generated by SchemaSpy</text>
<!-- m_account_transfer_standing_instructions -->
<g id="node1" class="node">
<title>m_account_transfer_standing_instructions</title>
<g id="a_node1"><a xlink:href="../../tables/m_account_transfer_standing_instructions.html" xlink:title="m_account_transfer_standing_instructions" target="_top">
<polygon fill="#ffffff" stroke="transparent" points="262,-37 262,-411 641,-411 641,-37 262,-37"/>
<polygon fill="#f5f5f5" stroke="transparent" points="264.5,-387 264.5,-409 639.5,-409 639.5,-387 264.5,-387"/>
<polygon fill="none" stroke="black" points="264.5,-387 264.5,-409 639.5,-409 639.5,-387 264.5,-387"/>
<text text-anchor="start" x="269.5" y="-396.2" font-family="Helvetica,sans-Serif" font-weight="bold" font-size="11.00">m_account_transfer_standing_instructions</text>
<text text-anchor="start" x="604.5" y="-395.2" font-family="Helvetica,sans-Serif" font-size="11.00">[table]</text>
<polygon fill="none" stroke="black" points="264.5,-365 264.5,-387 569.5,-387 569.5,-365 264.5,-365"/>
<image xlink:href="../../images/primaryKeys.png" width="11px" height="12px" preserveAspectRatio="xMinYMin meet" x="269.5" y="-382"/>
<text text-anchor="start" x="284.5" y="-373.2" font-family="Helvetica,sans-Serif" font-size="11.00">id</text>
<polygon fill="none" stroke="black" points="569.5,-365 569.5,-387 639.5,-387 639.5,-365 569.5,-365"/>
<text text-anchor="start" x="572.5" y="-373.2" font-family="Helvetica,sans-Serif" font-size="11.00">bigint[19]</text>
<polygon fill="#ffffff" stroke="transparent" points="264.5,-343 264.5,-365 569.5,-365 569.5,-343 264.5,-343"/>
<polygon fill="none" stroke="black" points="264.5,-343 264.5,-365 569.5,-365 569.5,-343 264.5,-343"/>
<text text-anchor="start" x="284.5" y="-351.2" font-family="Helvetica,sans-Serif" font-size="11.00">name</text>
<polygon fill="none" stroke="black" points="569.5,-343 569.5,-365 639.5,-365 639.5,-343 569.5,-343"/>
<text text-anchor="start" x="572.5" y="-351.2" font-family="Helvetica,sans-Serif" font-size="11.00">varchar[250]</text>
<polygon fill="#ffffff" stroke="transparent" points="264.5,-321 264.5,-343 569.5,-343 569.5,-321 264.5,-321"/>
<polygon fill="none" stroke="black" points="264.5,-321 264.5,-343 569.5,-343 569.5,-321 264.5,-321"/>
<image xlink:href="../../images/foreignKeys.png" width="11px" height="12px" preserveAspectRatio="xMinYMin meet" x="269.5" y="-338"/>
<text text-anchor="start" x="284.5" y="-329.2" font-family="Helvetica,sans-Serif" font-size="11.00">account_transfer_details_id</text>
<polygon fill="none" stroke="black" points="569.5,-321 569.5,-343 639.5,-343 639.5,-321 569.5,-321"/>
<text text-anchor="start" x="572.5" y="-329.2" font-family="Helvetica,sans-Serif" font-size="11.00">bigint[19]</text>
<polygon fill="none" stroke="black" points="264.5,-299 264.5,-321 569.5,-321 569.5,-299 264.5,-299"/>
<text text-anchor="start" x="284.5" y="-307.2" font-family="Helvetica,sans-Serif" font-size="11.00">priority</text>
<polygon fill="none" stroke="black" points="569.5,-299 569.5,-321 639.5,-321 639.5,-299 569.5,-299"/>
<text text-anchor="start" x="572.5" y="-307.2" font-family="Helvetica,sans-Serif" font-size="11.00">tinyint[3]</text>
<polygon fill="none" stroke="black" points="264.5,-277 264.5,-299 569.5,-299 569.5,-277 264.5,-277"/>
<text text-anchor="start" x="284.5" y="-285.2" font-family="Helvetica,sans-Serif" font-size="11.00">status</text>
<polygon fill="none" stroke="black" points="569.5,-277 569.5,-299 639.5,-299 639.5,-277 569.5,-277"/>
<text text-anchor="start" x="572.5" y="-285.2" font-family="Helvetica,sans-Serif" font-size="11.00">tinyint[3]</text>
<polygon fill="none" stroke="black" points="264.5,-255 264.5,-277 569.5,-277 569.5,-255 264.5,-255"/>
<text text-anchor="start" x="284.5" y="-263.2" font-family="Helvetica,sans-Serif" font-size="11.00">instruction_type</text>
<polygon fill="none" stroke="black" points="569.5,-255 569.5,-277 639.5,-277 639.5,-255 569.5,-255"/>
<text text-anchor="start" x="572.5" y="-263.2" font-family="Helvetica,sans-Serif" font-size="11.00">tinyint[3]</text>
<polygon fill="none" stroke="black" points="264.5,-233 264.5,-255 569.5,-255 569.5,-233 264.5,-233"/>
<text text-anchor="start" x="284.5" y="-241.2" font-family="Helvetica,sans-Serif" font-size="11.00">amount</text>
<polygon fill="none" stroke="black" points="569.5,-233 569.5,-255 639.5,-255 639.5,-233 569.5,-233"/>
<text text-anchor="start" x="572.5" y="-241.2" font-family="Helvetica,sans-Serif" font-size="11.00">decimal[19,6]</text>
<polygon fill="none" stroke="black" points="264.5,-211 264.5,-233 569.5,-233 569.5,-211 264.5,-211"/>
<text text-anchor="start" x="284.5" y="-219.2" font-family="Helvetica,sans-Serif" font-size="11.00">valid_from</text>
<polygon fill="none" stroke="black" points="569.5,-211 569.5,-233 639.5,-233 639.5,-211 569.5,-211"/>
<text text-anchor="start" x="572.5" y="-219.2" font-family="Helvetica,sans-Serif" font-size="11.00">date[10]</text>
<polygon fill="none" stroke="black" points="264.5,-189 264.5,-211 569.5,-211 569.5,-189 264.5,-189"/>
<text text-anchor="start" x="284.5" y="-197.2" font-family="Helvetica,sans-Serif" font-size="11.00">valid_till</text>
<polygon fill="none" stroke="black" points="569.5,-189 569.5,-211 639.5,-211 639.5,-189 569.5,-189"/>
<text text-anchor="start" x="572.5" y="-197.2" font-family="Helvetica,sans-Serif" font-size="11.00">date[10]</text>
<polygon fill="none" stroke="black" points="264.5,-167 264.5,-189 569.5,-189 569.5,-167 264.5,-167"/>
<text text-anchor="start" x="284.5" y="-175.2" font-family="Helvetica,sans-Serif" font-size="11.00">recurrence_type</text>
<polygon fill="none" stroke="black" points="569.5,-167 569.5,-189 639.5,-189 639.5,-167 569.5,-167"/>
<text text-anchor="start" x="572.5" y="-175.2" font-family="Helvetica,sans-Serif" font-size="11.00">tinyint[3]</text>
<polygon fill="none" stroke="black" points="264.5,-145 264.5,-167 569.5,-167 569.5,-145 264.5,-145"/>
<text text-anchor="start" x="284.5" y="-153.2" font-family="Helvetica,sans-Serif" font-size="11.00">recurrence_frequency</text>
<polygon fill="none" stroke="black" points="569.5,-145 569.5,-167 639.5,-167 639.5,-145 569.5,-145"/>
<text text-anchor="start" x="572.5" y="-153.2" font-family="Helvetica,sans-Serif" font-size="11.00">smallint[5]</text>
<polygon fill="none" stroke="black" points="264.5,-123 264.5,-145 569.5,-145 569.5,-123 264.5,-123"/>
<text text-anchor="start" x="284.5" y="-131.2" font-family="Helvetica,sans-Serif" font-size="11.00">recurrence_interval</text>
<polygon fill="none" stroke="black" points="569.5,-123 569.5,-145 639.5,-145 639.5,-123 569.5,-123"/>
<text text-anchor="start" x="572.5" y="-131.2" font-family="Helvetica,sans-Serif" font-size="11.00">smallint[5]</text>
<polygon fill="none" stroke="black" points="264.5,-101 264.5,-123 569.5,-123 569.5,-101 264.5,-101"/>
<text text-anchor="start" x="284.5" y="-109.2" font-family="Helvetica,sans-Serif" font-size="11.00">recurrence_on_day</text>
<polygon fill="none" stroke="black" points="569.5,-101 569.5,-123 639.5,-123 639.5,-101 569.5,-101"/>
<text text-anchor="start" x="572.5" y="-109.2" font-family="Helvetica,sans-Serif" font-size="11.00">smallint[5]</text>
<polygon fill="none" stroke="black" points="264.5,-79 264.5,-101 569.5,-101 569.5,-79 264.5,-79"/>
<text text-anchor="start" x="284.5" y="-87.2" font-family="Helvetica,sans-Serif" font-size="11.00">recurrence_on_month</text>
<polygon fill="none" stroke="black" points="569.5,-79 569.5,-101 639.5,-101 639.5,-79 569.5,-79"/>
<text text-anchor="start" x="572.5" y="-87.2" font-family="Helvetica,sans-Serif" font-size="11.00">smallint[5]</text>
<polygon fill="none" stroke="black" points="264.5,-57 264.5,-79 569.5,-79 569.5,-57 264.5,-57"/>
<text text-anchor="start" x="284.5" y="-65.2" font-family="Helvetica,sans-Serif" font-size="11.00">last_run_date</text>
<polygon fill="none" stroke="black" points="569.5,-57 569.5,-79 639.5,-79 639.5,-57 569.5,-57"/>
<text text-anchor="start" x="572.5" y="-65.2" font-family="Helvetica,sans-Serif" font-size="11.00">date[10]</text>
<polygon fill="#ffffff" stroke="transparent" points="264.5,-39 264.5,-57 408.5,-57 408.5,-39 264.5,-39"/>
<polygon fill="none" stroke="black" points="264.5,-39 264.5,-57 408.5,-57 408.5,-39 264.5,-39"/>
<text text-anchor="start" x="267.5" y="-45.2" font-family="Helvetica,sans-Serif" font-size="11.00">&lt; 1</text>
<polygon fill="#ffffff" stroke="transparent" points="408.5,-39 408.5,-57 569.5,-57 569.5,-39 408.5,-39"/>
<polygon fill="none" stroke="black" points="408.5,-39 408.5,-57 569.5,-57 569.5,-39 408.5,-39"/>
<text text-anchor="start" x="533.5" y="-45.2" font-family="Helvetica,sans-Serif" font-size="11.00">0 rows</text>
<polygon fill="#ffffff" stroke="transparent" points="569.5,-39 569.5,-57 639.5,-57 639.5,-39 569.5,-39"/>
<polygon fill="none" stroke="black" points="569.5,-39 569.5,-57 639.5,-57 639.5,-39 569.5,-39"/>
<text text-anchor="start" x="620.5" y="-45.2" font-family="Helvetica,sans-Serif" font-size="11.00">1 &gt;</text>
<polygon fill="none" stroke="black" stroke-width="2" points="263,-38 263,-410 640,-410 640,-38 263,-38"/>
</a>
</g>
</g>
<!-- m_account_transfer_details -->
<g id="node2" class="node">
<title>m_account_transfer_details</title>
<g id="a_node2"><a xlink:href="../../tables/m_account_transfer_details.html" xlink:title="m_account_transfer_details" target="_top">
<polygon fill="#ffffff" stroke="transparent" points="8,-109 8,-365 213,-365 213,-109 8,-109"/>
<polygon fill="#f5f5f5" stroke="transparent" points="8.5,-343 8.5,-365 213.5,-365 213.5,-343 8.5,-343"/>
<polygon fill="none" stroke="black" points="8.5,-343 8.5,-365 213.5,-365 213.5,-343 8.5,-343"/>
<text text-anchor="start" x="13.5" y="-352.2" font-family="Helvetica,sans-Serif" font-weight="bold" font-size="11.00">m_account_transfer_details</text>
<text text-anchor="start" x="178.5" y="-351.2" font-family="Helvetica,sans-Serif" font-size="11.00">[table]</text>
<polygon fill="none" stroke="black" points="8.5,-321 8.5,-343 213.5,-343 213.5,-321 8.5,-321"/>
<image xlink:href="../../images/primaryKeys.png" width="11px" height="12px" preserveAspectRatio="xMinYMin meet" x="13.5" y="-338"/>
<text text-anchor="start" x="28.5" y="-329.2" font-family="Helvetica,sans-Serif" font-size="11.00">id</text>
<polygon fill="#ffffff" stroke="transparent" points="8.5,-299 8.5,-321 213.5,-321 213.5,-299 8.5,-299"/>
<polygon fill="none" stroke="black" points="8.5,-299 8.5,-321 213.5,-321 213.5,-299 8.5,-299"/>
<image xlink:href="../../images/foreignKeys.png" width="11px" height="12px" preserveAspectRatio="xMinYMin meet" x="13.5" y="-316"/>
<text text-anchor="start" x="28.5" y="-307.2" font-family="Helvetica,sans-Serif" font-size="11.00">from_office_id</text>
<polygon fill="#ffffff" stroke="transparent" points="8.5,-277 8.5,-299 213.5,-299 213.5,-277 8.5,-277"/>
<polygon fill="none" stroke="black" points="8.5,-277 8.5,-299 213.5,-299 213.5,-277 8.5,-277"/>
<image xlink:href="../../images/foreignKeys.png" width="11px" height="12px" preserveAspectRatio="xMinYMin meet" x="13.5" y="-294"/>
<text text-anchor="start" x="28.5" y="-285.2" font-family="Helvetica,sans-Serif" font-size="11.00">to_office_id</text>
<polygon fill="#ffffff" stroke="transparent" points="8.5,-255 8.5,-277 213.5,-277 213.5,-255 8.5,-255"/>
<polygon fill="none" stroke="black" points="8.5,-255 8.5,-277 213.5,-277 213.5,-255 8.5,-255"/>
<image xlink:href="../../images/foreignKeys.png" width="11px" height="12px" preserveAspectRatio="xMinYMin meet" x="13.5" y="-272"/>
<text text-anchor="start" x="28.5" y="-263.2" font-family="Helvetica,sans-Serif" font-size="11.00">from_client_id</text>
<polygon fill="#ffffff" stroke="transparent" points="8.5,-233 8.5,-255 213.5,-255 213.5,-233 8.5,-233"/>
<polygon fill="none" stroke="black" points="8.5,-233 8.5,-255 213.5,-255 213.5,-233 8.5,-233"/>
<image xlink:href="../../images/foreignKeys.png" width="11px" height="12px" preserveAspectRatio="xMinYMin meet" x="13.5" y="-250"/>
<text text-anchor="start" x="28.5" y="-241.2" font-family="Helvetica,sans-Serif" font-size="11.00">to_client_id</text>
<polygon fill="#ffffff" stroke="transparent" points="8.5,-211 8.5,-233 213.5,-233 213.5,-211 8.5,-211"/>
<polygon fill="none" stroke="black" points="8.5,-211 8.5,-233 213.5,-233 213.5,-211 8.5,-211"/>
<image xlink:href="../../images/foreignKeys.png" width="11px" height="12px" preserveAspectRatio="xMinYMin meet" x="13.5" y="-228"/>
<text text-anchor="start" x="28.5" y="-219.2" font-family="Helvetica,sans-Serif" font-size="11.00">from_savings_account_id</text>
<polygon fill="#ffffff" stroke="transparent" points="8.5,-189 8.5,-211 213.5,-211 213.5,-189 8.5,-189"/>
<polygon fill="none" stroke="black" points="8.5,-189 8.5,-211 213.5,-211 213.5,-189 8.5,-189"/>
<image xlink:href="../../images/foreignKeys.png" width="11px" height="12px" preserveAspectRatio="xMinYMin meet" x="13.5" y="-206"/>
<text text-anchor="start" x="28.5" y="-197.2" font-family="Helvetica,sans-Serif" font-size="11.00">to_savings_account_id</text>
<polygon fill="#ffffff" stroke="transparent" points="8.5,-167 8.5,-189 213.5,-189 213.5,-167 8.5,-167"/>
<polygon fill="none" stroke="black" points="8.5,-167 8.5,-189 213.5,-189 213.5,-167 8.5,-167"/>
<image xlink:href="../../images/foreignKeys.png" width="11px" height="12px" preserveAspectRatio="xMinYMin meet" x="13.5" y="-184"/>
<text text-anchor="start" x="28.5" y="-175.2" font-family="Helvetica,sans-Serif" font-size="11.00">from_loan_account_id</text>
<polygon fill="#ffffff" stroke="transparent" points="8.5,-145 8.5,-167 213.5,-167 213.5,-145 8.5,-145"/>
<polygon fill="none" stroke="black" points="8.5,-145 8.5,-167 213.5,-167 213.5,-145 8.5,-145"/>
<image xlink:href="../../images/foreignKeys.png" width="11px" height="12px" preserveAspectRatio="xMinYMin meet" x="13.5" y="-162"/>
<text text-anchor="start" x="28.5" y="-153.2" font-family="Helvetica,sans-Serif" font-size="11.00">to_loan_account_id</text>
<polygon fill="none" stroke="black" points="8.5,-127 8.5,-145 213.5,-145 213.5,-127 8.5,-127"/>
<text text-anchor="start" x="11.5" y="-133.2" font-family="Helvetica,sans-Serif" font-size="11.00">...</text>
<polygon fill="#ffffff" stroke="transparent" points="8.5,-109 8.5,-127 91.5,-127 91.5,-109 8.5,-109"/>
<polygon fill="none" stroke="black" points="8.5,-109 8.5,-127 91.5,-127 91.5,-109 8.5,-109"/>
<text text-anchor="start" x="11.5" y="-115.2" font-family="Helvetica,sans-Serif" font-size="11.00">&lt; 8</text>
<polygon fill="#ffffff" stroke="transparent" points="91.5,-109 91.5,-127 160.5,-127 160.5,-109 91.5,-109"/>
<polygon fill="none" stroke="black" points="91.5,-109 91.5,-127 160.5,-127 160.5,-109 91.5,-109"/>
<text text-anchor="start" x="124.5" y="-115.2" font-family="Helvetica,sans-Serif" font-size="11.00">0 rows</text>
<polygon fill="#ffffff" stroke="transparent" points="160.5,-109 160.5,-127 213.5,-127 213.5,-109 160.5,-109"/>
<polygon fill="none" stroke="black" points="160.5,-109 160.5,-127 213.5,-127 213.5,-109 160.5,-109"/>
<text text-anchor="start" x="194.5" y="-115.2" font-family="Helvetica,sans-Serif" font-size="11.00">3 &gt;</text>
</a>
</g>
</g>
<!-- m_account_transfer_standing_instructions&#45;&gt;m_account_transfer_details -->
<g id="edge1" class="edge">
<title>m_account_transfer_standing_instructions:w&#45;&gt;m_account_transfer_details:e</title>
<path fill="none" stroke="black" d="M248.99,-332C237.68,-332 230.49,-332 214.5,-332"/>
<polygon fill="black" stroke="black" points="255.5,-332 263.5,-335.6 259.5,-332 263.5,-332 263.5,-332 263.5,-332 259.5,-332 263.5,-328.4 255.5,-332 255.5,-332"/>
<ellipse fill="none" stroke="black" cx="252.3" cy="-332" rx="3.2" ry="3.2"/>
</g>
<!-- m_account_transfer_standing_instructions_history -->
<g id="node3" class="node">
<title>m_account_transfer_standing_instructions_history</title>
<g id="a_node3"><a xlink:href="../../tables/m_account_transfer_standing_instructions_history.html" xlink:title="m_account_transfer_standing_instructions_history" target="_top">
<polygon fill="#ffffff" stroke="transparent" points="690,-329 690,-431 1049,-431 1049,-329 690,-329"/>
<polygon fill="#f5f5f5" stroke="transparent" points="690.5,-409 690.5,-431 1049.5,-431 1049.5,-409 690.5,-409"/>
<polygon fill="none" stroke="black" points="690.5,-409 690.5,-431 1049.5,-431 1049.5,-409 690.5,-409"/>
<text text-anchor="start" x="695.5" y="-418.2" font-family="Helvetica,sans-Serif" font-weight="bold" font-size="11.00">m_account_transfer_standing_instructions_history</text>
<text text-anchor="start" x="1014.5" y="-417.2" font-family="Helvetica,sans-Serif" font-size="11.00">[table]</text>
<polygon fill="none" stroke="black" points="690.5,-387 690.5,-409 1049.5,-409 1049.5,-387 690.5,-387"/>
<image xlink:href="../../images/primaryKeys.png" width="11px" height="12px" preserveAspectRatio="xMinYMin meet" x="695.5" y="-404"/>
<text text-anchor="start" x="710.5" y="-395.2" font-family="Helvetica,sans-Serif" font-size="11.00">id</text>
<polygon fill="#ffffff" stroke="transparent" points="690.5,-365 690.5,-387 1049.5,-387 1049.5,-365 690.5,-365"/>
<polygon fill="none" stroke="black" points="690.5,-365 690.5,-387 1049.5,-387 1049.5,-365 690.5,-365"/>
<image xlink:href="../../images/foreignKeys.png" width="11px" height="12px" preserveAspectRatio="xMinYMin meet" x="695.5" y="-382"/>
<text text-anchor="start" x="710.5" y="-373.2" font-family="Helvetica,sans-Serif" font-size="11.00">standing_instruction_id</text>
<polygon fill="none" stroke="black" points="690.5,-347 690.5,-365 1049.5,-365 1049.5,-347 690.5,-347"/>
<text text-anchor="start" x="693.5" y="-353.2" font-family="Helvetica,sans-Serif" font-size="11.00">...</text>
<polygon fill="#ffffff" stroke="transparent" points="690.5,-329 690.5,-347 854.5,-347 854.5,-329 690.5,-329"/>
<polygon fill="none" stroke="black" points="690.5,-329 690.5,-347 854.5,-347 854.5,-329 690.5,-329"/>
<text text-anchor="start" x="693.5" y="-335.2" font-family="Helvetica,sans-Serif" font-size="11.00">&lt; 1</text>
<polygon fill="#ffffff" stroke="transparent" points="854.5,-329 854.5,-347 964.5,-347 964.5,-329 854.5,-329"/>
<polygon fill="none" stroke="black" points="854.5,-329 854.5,-347 964.5,-347 964.5,-329 854.5,-329"/>
<text text-anchor="start" x="928.5" y="-335.2" font-family="Helvetica,sans-Serif" font-size="11.00">0 rows</text>
<polygon fill="#ffffff" stroke="transparent" points="964.5,-329 964.5,-347 1049.5,-347 1049.5,-329 964.5,-329"/>
<polygon fill="none" stroke="black" points="964.5,-329 964.5,-347 1049.5,-347 1049.5,-329 964.5,-329"/>
<text text-anchor="start" x="1039.5" y="-335.2" font-family="Helvetica,sans-Serif" font-size="11.00"> &#160;</text>
</a>
</g>
</g>
<!-- m_account_transfer_standing_instructions_history&#45;&gt;m_account_transfer_standing_instructions -->
<g id="edge2" class="edge">
<title>m_account_transfer_standing_instructions_history:w&#45;&gt;m_account_transfer_standing_instructions:e</title>
<path fill="none" stroke="black" d="M674.99,-376C663.68,-376 656.49,-376 640.5,-376"/>
<polygon fill="black" stroke="black" points="681.5,-376 689.5,-379.6 685.5,-376 689.5,-376 689.5,-376 689.5,-376 685.5,-376 689.5,-372.4 681.5,-376 681.5,-376"/>
<ellipse fill="none" stroke="black" cx="678.3" cy="-376" rx="3.2" ry="3.2"/>
</g>
</g>
</svg>
