<?xml version="1.0" encoding="UTF-8" standalone="no"?>
<!DOCTYPE svg PUBLIC "-//W3C//DTD SVG 1.1//EN"
 "http://www.w3.org/Graphics/SVG/1.1/DTD/svg11.dtd">
<!-- Generated by graphviz version 2.43.0 (0)
 -->
<!-- Title: twoDegreesRelationshipsDiagram Pages: 1 -->
<svg width="1050pt" height="225pt"
 viewBox="0.00 0.00 1050.00 225.00" xmlns="http://www.w3.org/2000/svg" xmlns:xlink="http://www.w3.org/1999/xlink">
<g id="graph0" class="graph" transform="scale(1 1) rotate(0) translate(4 221)">
<title>twoDegreesRelationshipsDiagram</title>
<polygon fill="#ffffff" stroke="transparent" points="-4,4 -4,-221 1046,-221 1046,4 -4,4"/>
<text text-anchor="middle" x="71.5" y="-7.2" font-family="Helvetica,sans-Serif" font-size="11.00">Generated by SchemaSpy</text>
<!-- m_account_transfer_standing_instructions -->
<g id="node1" class="node">
<title>m_account_transfer_standing_instructions</title>
<g id="a_node1"><a xlink:href="../../tables/m_account_transfer_standing_instructions.html" xlink:title="m_account_transfer_standing_instructions" target="_top">
<polygon fill="#ffffff" stroke="transparent" points="247,-65 247,-189 552,-189 552,-65 247,-65"/>
<polygon fill="#f5f5f5" stroke="transparent" points="247.5,-167 247.5,-189 552.5,-189 552.5,-167 247.5,-167"/>
<polygon fill="none" stroke="black" points="247.5,-167 247.5,-189 552.5,-189 552.5,-167 247.5,-167"/>
<text text-anchor="start" x="252.5" y="-176.2" font-family="Helvetica,sans-Serif" font-weight="bold" font-size="11.00">m_account_transfer_standing_instructions</text>
<text text-anchor="start" x="517.5" y="-175.2" font-family="Helvetica,sans-Serif" font-size="11.00">[table]</text>
<polygon fill="none" stroke="black" points="247.5,-145 247.5,-167 552.5,-167 552.5,-145 247.5,-145"/>
<image xlink:href="../../images/primaryKeys.png" width="11px" height="12px" preserveAspectRatio="xMinYMin meet" x="252.5" y="-162"/>
<text text-anchor="start" x="267.5" y="-153.2" font-family="Helvetica,sans-Serif" font-size="11.00">id</text>
<polygon fill="#ffffff" stroke="transparent" points="247.5,-123 247.5,-145 552.5,-145 552.5,-123 247.5,-123"/>
<polygon fill="none" stroke="black" points="247.5,-123 247.5,-145 552.5,-145 552.5,-123 247.5,-123"/>
<text text-anchor="start" x="267.5" y="-131.2" font-family="Helvetica,sans-Serif" font-size="11.00">name</text>
<polygon fill="#ffffff" stroke="transparent" points="247.5,-101 247.5,-123 552.5,-123 552.5,-101 247.5,-101"/>
<polygon fill="none" stroke="black" points="247.5,-101 247.5,-123 552.5,-123 552.5,-101 247.5,-101"/>
<image xlink:href="../../images/foreignKeys.png" width="11px" height="12px" preserveAspectRatio="xMinYMin meet" x="252.5" y="-118"/>
<text text-anchor="start" x="267.5" y="-109.2" font-family="Helvetica,sans-Serif" font-size="11.00">account_transfer_details_id</text>
<polygon fill="none" stroke="black" points="247.5,-83 247.5,-101 552.5,-101 552.5,-83 247.5,-83"/>
<text text-anchor="start" x="250.5" y="-89.2" font-family="Helvetica,sans-Serif" font-size="11.00">...</text>
<polygon fill="#ffffff" stroke="transparent" points="247.5,-65 247.5,-83 380.5,-83 380.5,-65 247.5,-65"/>
<polygon fill="none" stroke="black" points="247.5,-65 247.5,-83 380.5,-83 380.5,-65 247.5,-65"/>
<text text-anchor="start" x="250.5" y="-71.2" font-family="Helvetica,sans-Serif" font-size="11.00">&lt; 1</text>
<polygon fill="#ffffff" stroke="transparent" points="380.5,-65 380.5,-83 474.5,-83 474.5,-65 380.5,-65"/>
<polygon fill="none" stroke="black" points="380.5,-65 380.5,-83 474.5,-83 474.5,-65 380.5,-65"/>
<text text-anchor="start" x="438.5" y="-71.2" font-family="Helvetica,sans-Serif" font-size="11.00">0 rows</text>
<polygon fill="#ffffff" stroke="transparent" points="474.5,-65 474.5,-83 552.5,-83 552.5,-65 474.5,-65"/>
<polygon fill="none" stroke="black" points="474.5,-65 474.5,-83 552.5,-83 552.5,-65 474.5,-65"/>
<text text-anchor="start" x="533.5" y="-71.2" font-family="Helvetica,sans-Serif" font-size="11.00">1 &gt;</text>
</a>
</g>
</g>
<!-- m_account_transfer_details -->
<g id="node2" class="node">
<title>m_account_transfer_details</title>
<g id="a_node2"><a xlink:href="../../tables/m_account_transfer_details.html" xlink:title="m_account_transfer_details" target="_top">
<polygon fill="#ffffff" stroke="transparent" points="8,-85 8,-143 198,-143 198,-85 8,-85"/>
<polygon fill="#f5f5f5" stroke="transparent" points="8,-121 8,-143 198,-143 198,-121 8,-121"/>
<polygon fill="none" stroke="black" points="8,-121 8,-143 198,-143 198,-121 8,-121"/>
<text text-anchor="start" x="13" y="-130.2" font-family="Helvetica,sans-Serif" font-weight="bold" font-size="11.00">m_account_transfer_details</text>
<text text-anchor="start" x="163" y="-129.2" font-family="Helvetica,sans-Serif" font-size="11.00">[table]</text>
<polygon fill="none" stroke="black" points="8,-103 8,-121 198,-121 198,-103 8,-103"/>
<text text-anchor="start" x="11" y="-109.2" font-family="Helvetica,sans-Serif" font-size="11.00">...</text>
<polygon fill="#ffffff" stroke="transparent" points="8,-85 8,-103 83,-103 83,-85 8,-85"/>
<polygon fill="none" stroke="black" points="8,-85 8,-103 83,-103 83,-85 8,-85"/>
<text text-anchor="start" x="11" y="-91.2" font-family="Helvetica,sans-Serif" font-size="11.00">&lt; 8</text>
<polygon fill="#ffffff" stroke="transparent" points="83,-85 83,-103 149,-103 149,-85 83,-85"/>
<polygon fill="none" stroke="black" points="83,-85 83,-103 149,-103 149,-85 83,-85"/>
<text text-anchor="start" x="113" y="-91.2" font-family="Helvetica,sans-Serif" font-size="11.00">0 rows</text>
<polygon fill="#ffffff" stroke="transparent" points="149,-85 149,-103 198,-103 198,-85 149,-85"/>
<polygon fill="none" stroke="black" points="149,-85 149,-103 198,-103 198,-85 149,-85"/>
<text text-anchor="start" x="179" y="-91.2" font-family="Helvetica,sans-Serif" font-size="11.00">3 &gt;</text>
</a>
</g>
</g>
<!-- m_account_transfer_standing_instructions&#45;&gt;m_account_transfer_details -->
<g id="edge1" class="edge">
<title>m_account_transfer_standing_instructions:w&#45;&gt;m_account_transfer_details:e</title>
<path fill="none" stroke="black" d="M232.09,-112C221.32,-112 214.34,-112 199,-112"/>
<polygon fill="black" stroke="black" points="238.5,-112 246.5,-115.6 242.5,-112 246.5,-112 246.5,-112 246.5,-112 242.5,-112 246.5,-108.4 238.5,-112 238.5,-112"/>
<ellipse fill="none" stroke="black" cx="235.3" cy="-112" rx="3.2" ry="3.2"/>
</g>
<!-- m_account_transfer_standing_instructions_history -->
<g id="node3" class="node">
<title>m_account_transfer_standing_instructions_history</title>
<g id="a_node3"><a xlink:href="../../tables/m_account_transfer_standing_instructions_history.html" xlink:title="m_account_transfer_standing_instructions_history" target="_top">
<polygon fill="#ffffff" stroke="transparent" points="601,-37 601,-213 1034,-213 1034,-37 601,-37"/>
<polygon fill="#f5f5f5" stroke="transparent" points="603.5,-189 603.5,-211 1032.5,-211 1032.5,-189 603.5,-189"/>
<polygon fill="none" stroke="black" points="603.5,-189 603.5,-211 1032.5,-211 1032.5,-189 603.5,-189"/>
<text text-anchor="start" x="608.5" y="-198.2" font-family="Helvetica,sans-Serif" font-weight="bold" font-size="11.00">m_account_transfer_standing_instructions_history</text>
<text text-anchor="start" x="997.5" y="-197.2" font-family="Helvetica,sans-Serif" font-size="11.00">[table]</text>
<polygon fill="none" stroke="black" points="603.5,-167 603.5,-189 962.5,-189 962.5,-167 603.5,-167"/>
<image xlink:href="../../images/primaryKeys.png" width="11px" height="12px" preserveAspectRatio="xMinYMin meet" x="608.5" y="-184"/>
<text text-anchor="start" x="623.5" y="-175.2" font-family="Helvetica,sans-Serif" font-size="11.00">id</text>
<polygon fill="none" stroke="black" points="962.5,-167 962.5,-189 1032.5,-189 1032.5,-167 962.5,-167"/>
<text text-anchor="start" x="965.5" y="-175.2" font-family="Helvetica,sans-Serif" font-size="11.00">bigint[19]</text>
<polygon fill="#ffffff" stroke="transparent" points="603.5,-145 603.5,-167 962.5,-167 962.5,-145 603.5,-145"/>
<polygon fill="none" stroke="black" points="603.5,-145 603.5,-167 962.5,-167 962.5,-145 603.5,-145"/>
<image xlink:href="../../images/foreignKeys.png" width="11px" height="12px" preserveAspectRatio="xMinYMin meet" x="608.5" y="-162"/>
<text text-anchor="start" x="623.5" y="-153.2" font-family="Helvetica,sans-Serif" font-size="11.00">standing_instruction_id</text>
<polygon fill="none" stroke="black" points="962.5,-145 962.5,-167 1032.5,-167 1032.5,-145 962.5,-145"/>
<text text-anchor="start" x="965.5" y="-153.2" font-family="Helvetica,sans-Serif" font-size="11.00">bigint[19]</text>
<polygon fill="none" stroke="black" points="603.5,-123 603.5,-145 962.5,-145 962.5,-123 603.5,-123"/>
<text text-anchor="start" x="623.5" y="-131.2" font-family="Helvetica,sans-Serif" font-size="11.00">status</text>
<polygon fill="none" stroke="black" points="962.5,-123 962.5,-145 1032.5,-145 1032.5,-123 962.5,-123"/>
<text text-anchor="start" x="965.5" y="-131.2" font-family="Helvetica,sans-Serif" font-size="11.00">varchar[20]</text>
<polygon fill="none" stroke="black" points="603.5,-101 603.5,-123 962.5,-123 962.5,-101 603.5,-101"/>
<text text-anchor="start" x="623.5" y="-109.2" font-family="Helvetica,sans-Serif" font-size="11.00">execution_time</text>
<polygon fill="none" stroke="black" points="962.5,-101 962.5,-123 1032.5,-123 1032.5,-101 962.5,-101"/>
<text text-anchor="start" x="965.5" y="-109.2" font-family="Helvetica,sans-Serif" font-size="11.00">datetime[19]</text>
<polygon fill="none" stroke="black" points="603.5,-79 603.5,-101 962.5,-101 962.5,-79 603.5,-79"/>
<text text-anchor="start" x="623.5" y="-87.2" font-family="Helvetica,sans-Serif" font-size="11.00">amount</text>
<polygon fill="none" stroke="black" points="962.5,-79 962.5,-101 1032.5,-101 1032.5,-79 962.5,-79"/>
<text text-anchor="start" x="965.5" y="-87.2" font-family="Helvetica,sans-Serif" font-size="11.00">decimal[19,6]</text>
<polygon fill="none" stroke="black" points="603.5,-57 603.5,-79 962.5,-79 962.5,-57 603.5,-57"/>
<text text-anchor="start" x="623.5" y="-65.2" font-family="Helvetica,sans-Serif" font-size="11.00">error_log</text>
<polygon fill="none" stroke="black" points="962.5,-57 962.5,-79 1032.5,-79 1032.5,-57 962.5,-57"/>
<text text-anchor="start" x="965.5" y="-65.2" font-family="Helvetica,sans-Serif" font-size="11.00">varchar[500]</text>
<polygon fill="#ffffff" stroke="transparent" points="603.5,-39 603.5,-57 774.5,-57 774.5,-39 603.5,-39"/>
<polygon fill="none" stroke="black" points="603.5,-39 603.5,-57 774.5,-57 774.5,-39 603.5,-39"/>
<text text-anchor="start" x="606.5" y="-45.2" font-family="Helvetica,sans-Serif" font-size="11.00">&lt; 1</text>
<polygon fill="#ffffff" stroke="transparent" points="774.5,-39 774.5,-57 962.5,-57 962.5,-39 774.5,-39"/>
<polygon fill="none" stroke="black" points="774.5,-39 774.5,-57 962.5,-57 962.5,-39 774.5,-39"/>
<text text-anchor="start" x="926.5" y="-45.2" font-family="Helvetica,sans-Serif" font-size="11.00">0 rows</text>
<polygon fill="#ffffff" stroke="transparent" points="962.5,-39 962.5,-57 1032.5,-57 1032.5,-39 962.5,-39"/>
<polygon fill="none" stroke="black" points="962.5,-39 962.5,-57 1032.5,-57 1032.5,-39 962.5,-39"/>
<text text-anchor="start" x="1013.5" y="-45.2" font-family="Helvetica,sans-Serif" font-size="11.00">0 &gt;</text>
<polygon fill="none" stroke="black" stroke-width="2" points="602,-38 602,-212 1033,-212 1033,-38 602,-38"/>
</a>
</g>
</g>
<!-- m_account_transfer_standing_instructions_history&#45;&gt;m_account_transfer_standing_instructions -->
<g id="edge2" class="edge">
<title>m_account_transfer_standing_instructions_history:w&#45;&gt;m_account_transfer_standing_instructions:e</title>
<path fill="none" stroke="black" d="M587.99,-156C576.68,-156 569.49,-156 553.5,-156"/>
<polygon fill="black" stroke="black" points="594.5,-156 602.5,-159.6 598.5,-156 602.5,-156 602.5,-156 602.5,-156 598.5,-156 602.5,-152.4 594.5,-156 594.5,-156"/>
<ellipse fill="none" stroke="black" cx="591.3" cy="-156" rx="3.2" ry="3.2"/>
</g>
</g>
</svg>
