<?xml version="1.0" encoding="UTF-8" standalone="no"?>
<!DOCTYPE svg PUBLIC "-//W3C//DTD SVG 1.1//EN"
 "http://www.w3.org/Graphics/SVG/1.1/DTD/svg11.dtd">
<!-- Generated by graphviz version 2.43.0 (0)
 -->
<!-- Title: oneDegreeRelationshipsDiagram Pages: 1 -->
<svg width="868pt" height="604pt"
 viewBox="0.00 0.00 868.00 604.00" xmlns="http://www.w3.org/2000/svg" xmlns:xlink="http://www.w3.org/1999/xlink">
<g id="graph0" class="graph" transform="scale(1 1) rotate(0) translate(4 600)">
<title>oneDegreeRelationshipsDiagram</title>
<polygon fill="#ffffff" stroke="transparent" points="-4,4 -4,-600 864,-600 864,4 -4,4"/>
<text text-anchor="middle" x="71.5" y="-7.2" font-family="Helvetica,sans-Serif" font-size="11.00">Generated by SchemaSpy</text>
<!-- m_client_collateral_management -->
<g id="node1" class="node">
<title>m_client_collateral_management</title>
<g id="a_node1"><a xlink:href="../../tables/m_client_collateral_management.html" xlink:title="m_client_collateral_management" target="_top">
<polygon fill="#ffffff" stroke="transparent" points="255,-290 255,-422 570,-422 570,-290 255,-290"/>
<polygon fill="#f5f5f5" stroke="transparent" points="257.5,-398 257.5,-420 568.5,-420 568.5,-398 257.5,-398"/>
<polygon fill="none" stroke="black" points="257.5,-398 257.5,-420 568.5,-420 568.5,-398 257.5,-398"/>
<text text-anchor="start" x="262.5" y="-407.2" font-family="Helvetica,sans-Serif" font-weight="bold" font-size="11.00">m_client_collateral_management</text>
<text text-anchor="start" x="533.5" y="-406.2" font-family="Helvetica,sans-Serif" font-size="11.00">[table]</text>
<polygon fill="none" stroke="black" points="257.5,-376 257.5,-398 498.5,-398 498.5,-376 257.5,-376"/>
<image xlink:href="../../images/primaryKeys.png" width="11px" height="12px" preserveAspectRatio="xMinYMin meet" x="262.5" y="-393"/>
<text text-anchor="start" x="277.5" y="-384.2" font-family="Helvetica,sans-Serif" font-size="11.00">id</text>
<polygon fill="none" stroke="black" points="498.5,-376 498.5,-398 568.5,-398 568.5,-376 498.5,-376"/>
<text text-anchor="start" x="501.5" y="-384.2" font-family="Helvetica,sans-Serif" font-size="11.00">bigint[19]</text>
<polygon fill="none" stroke="black" points="257.5,-354 257.5,-376 498.5,-376 498.5,-354 257.5,-354"/>
<text text-anchor="start" x="277.5" y="-362.2" font-family="Helvetica,sans-Serif" font-size="11.00">quantity</text>
<polygon fill="none" stroke="black" points="498.5,-354 498.5,-376 568.5,-376 568.5,-354 498.5,-354"/>
<text text-anchor="start" x="501.5" y="-362.2" font-family="Helvetica,sans-Serif" font-size="11.00">decimal[20,5]</text>
<polygon fill="#ffffff" stroke="transparent" points="257.5,-332 257.5,-354 498.5,-354 498.5,-332 257.5,-332"/>
<polygon fill="none" stroke="black" points="257.5,-332 257.5,-354 498.5,-354 498.5,-332 257.5,-332"/>
<image xlink:href="../../images/foreignKeys.png" width="11px" height="12px" preserveAspectRatio="xMinYMin meet" x="262.5" y="-349"/>
<text text-anchor="start" x="277.5" y="-340.2" font-family="Helvetica,sans-Serif" font-size="11.00">client_id</text>
<polygon fill="none" stroke="black" points="498.5,-332 498.5,-354 568.5,-354 568.5,-332 498.5,-332"/>
<text text-anchor="start" x="501.5" y="-340.2" font-family="Helvetica,sans-Serif" font-size="11.00">bigint[19]</text>
<polygon fill="#ffffff" stroke="transparent" points="257.5,-310 257.5,-332 498.5,-332 498.5,-310 257.5,-310"/>
<polygon fill="none" stroke="black" points="257.5,-310 257.5,-332 498.5,-332 498.5,-310 257.5,-310"/>
<image xlink:href="../../images/foreignKeys.png" width="11px" height="12px" preserveAspectRatio="xMinYMin meet" x="262.5" y="-327"/>
<text text-anchor="start" x="277.5" y="-318.2" font-family="Helvetica,sans-Serif" font-size="11.00">collateral_id</text>
<polygon fill="none" stroke="black" points="498.5,-310 498.5,-332 568.5,-332 568.5,-310 498.5,-310"/>
<text text-anchor="start" x="501.5" y="-318.2" font-family="Helvetica,sans-Serif" font-size="11.00">bigint[19]</text>
<polygon fill="#ffffff" stroke="transparent" points="257.5,-292 257.5,-310 369.5,-310 369.5,-292 257.5,-292"/>
<polygon fill="none" stroke="black" points="257.5,-292 257.5,-310 369.5,-310 369.5,-292 257.5,-292"/>
<text text-anchor="start" x="260.5" y="-298.2" font-family="Helvetica,sans-Serif" font-size="11.00">&lt; 2</text>
<polygon fill="#ffffff" stroke="transparent" points="369.5,-292 369.5,-310 498.5,-310 498.5,-292 369.5,-292"/>
<polygon fill="none" stroke="black" points="369.5,-292 369.5,-310 498.5,-310 498.5,-292 369.5,-292"/>
<text text-anchor="start" x="462.5" y="-298.2" font-family="Helvetica,sans-Serif" font-size="11.00">0 rows</text>
<polygon fill="#ffffff" stroke="transparent" points="498.5,-292 498.5,-310 568.5,-310 568.5,-292 498.5,-292"/>
<polygon fill="none" stroke="black" points="498.5,-292 498.5,-310 568.5,-310 568.5,-292 498.5,-292"/>
<text text-anchor="start" x="549.5" y="-298.2" font-family="Helvetica,sans-Serif" font-size="11.00">1 &gt;</text>
<polygon fill="none" stroke="black" stroke-width="2" points="256,-291 256,-421 569,-421 569,-291 256,-291"/>
</a>
</g>
</g>
<!-- m_client -->
<g id="node2" class="node">
<title>m_client</title>
<g id="a_node2"><a xlink:href="../../tables/m_client.html" xlink:title="m_client" target="_top">
<polygon fill="#ffffff" stroke="transparent" points="10.5,-160 10.5,-592 203.5,-592 203.5,-160 10.5,-160"/>
<polygon fill="#f5f5f5" stroke="transparent" points="11,-570 11,-592 204,-592 204,-570 11,-570"/>
<polygon fill="none" stroke="black" points="11,-570 11,-592 204,-592 204,-570 11,-570"/>
<text text-anchor="start" x="16" y="-579.2" font-family="Helvetica,sans-Serif" font-weight="bold" font-size="11.00">m_client</text>
<text text-anchor="start" x="169" y="-578.2" font-family="Helvetica,sans-Serif" font-size="11.00">[table]</text>
<polygon fill="none" stroke="black" points="11,-548 11,-570 204,-570 204,-548 11,-548"/>
<image xlink:href="../../images/primaryKeys.png" width="11px" height="12px" preserveAspectRatio="xMinYMin meet" x="16" y="-565"/>
<text text-anchor="start" x="31" y="-556.2" font-family="Helvetica,sans-Serif" font-size="11.00">id</text>
<polygon fill="#ffffff" stroke="transparent" points="11,-526 11,-548 204,-548 204,-526 11,-526"/>
<polygon fill="none" stroke="black" points="11,-526 11,-548 204,-548 204,-526 11,-526"/>
<text text-anchor="start" x="31" y="-534.2" font-family="Helvetica,sans-Serif" font-size="11.00">account_no</text>
<polygon fill="#ffffff" stroke="transparent" points="11,-504 11,-526 204,-526 204,-504 11,-504"/>
<polygon fill="none" stroke="black" points="11,-504 11,-526 204,-526 204,-504 11,-504"/>
<text text-anchor="start" x="31" y="-512.2" font-family="Helvetica,sans-Serif" font-size="11.00">external_id</text>
<polygon fill="#ffffff" stroke="transparent" points="11,-482 11,-504 204,-504 204,-482 11,-482"/>
<polygon fill="none" stroke="black" points="11,-482 11,-504 204,-504 204,-482 11,-482"/>
<image xlink:href="../../images/foreignKeys.png" width="11px" height="12px" preserveAspectRatio="xMinYMin meet" x="16" y="-499"/>
<text text-anchor="start" x="31" y="-490.2" font-family="Helvetica,sans-Serif" font-size="11.00">sub_status</text>
<polygon fill="#ffffff" stroke="transparent" points="11,-460 11,-482 204,-482 204,-460 11,-460"/>
<polygon fill="none" stroke="black" points="11,-460 11,-482 204,-482 204,-460 11,-460"/>
<image xlink:href="../../images/foreignKeys.png" width="11px" height="12px" preserveAspectRatio="xMinYMin meet" x="16" y="-477"/>
<text text-anchor="start" x="31" y="-468.2" font-family="Helvetica,sans-Serif" font-size="11.00">office_id</text>
<polygon fill="#ffffff" stroke="transparent" points="11,-438 11,-460 204,-460 204,-438 11,-438"/>
<polygon fill="none" stroke="black" points="11,-438 11,-460 204,-460 204,-438 11,-438"/>
<image xlink:href="../../images/foreignKeys.png" width="11px" height="12px" preserveAspectRatio="xMinYMin meet" x="16" y="-455"/>
<text text-anchor="start" x="31" y="-446.2" font-family="Helvetica,sans-Serif" font-size="11.00">transfer_to_office_id</text>
<polygon fill="#ffffff" stroke="transparent" points="11,-416 11,-438 204,-438 204,-416 11,-416"/>
<polygon fill="none" stroke="black" points="11,-416 11,-438 204,-438 204,-416 11,-416"/>
<image xlink:href="../../images/foreignKeys.png" width="11px" height="12px" preserveAspectRatio="xMinYMin meet" x="16" y="-433"/>
<text text-anchor="start" x="31" y="-424.2" font-family="Helvetica,sans-Serif" font-size="11.00">staff_id</text>
<polygon fill="#ffffff" stroke="transparent" points="11,-394 11,-416 204,-416 204,-394 11,-394"/>
<polygon fill="none" stroke="black" points="11,-394 11,-416 204,-416 204,-394 11,-394"/>
<text text-anchor="start" x="31" y="-402.2" font-family="Helvetica,sans-Serif" font-size="11.00">mobile_no</text>
<polygon fill="#ffffff" stroke="transparent" points="11,-372 11,-394 204,-394 204,-372 11,-372"/>
<polygon fill="none" stroke="black" points="11,-372 11,-394 204,-394 204,-372 11,-372"/>
<image xlink:href="../../images/foreignKeys.png" width="11px" height="12px" preserveAspectRatio="xMinYMin meet" x="16" y="-389"/>
<text text-anchor="start" x="31" y="-380.2" font-family="Helvetica,sans-Serif" font-size="11.00">gender_cv_id</text>
<polygon fill="#ffffff" stroke="transparent" points="11,-350 11,-372 204,-372 204,-350 11,-350"/>
<polygon fill="none" stroke="black" points="11,-350 11,-372 204,-372 204,-350 11,-350"/>
<image xlink:href="../../images/foreignKeys.png" width="11px" height="12px" preserveAspectRatio="xMinYMin meet" x="16" y="-367"/>
<text text-anchor="start" x="31" y="-358.2" font-family="Helvetica,sans-Serif" font-size="11.00">image_id</text>
<polygon fill="#ffffff" stroke="transparent" points="11,-328 11,-350 204,-350 204,-328 11,-328"/>
<polygon fill="none" stroke="black" points="11,-328 11,-350 204,-350 204,-328 11,-328"/>
<image xlink:href="../../images/foreignKeys.png" width="11px" height="12px" preserveAspectRatio="xMinYMin meet" x="16" y="-345"/>
<text text-anchor="start" x="31" y="-336.2" font-family="Helvetica,sans-Serif" font-size="11.00">closure_reason_cv_id</text>
<polygon fill="#ffffff" stroke="transparent" points="11,-306 11,-328 204,-328 204,-306 11,-306"/>
<polygon fill="none" stroke="black" points="11,-306 11,-328 204,-328 204,-306 11,-306"/>
<image xlink:href="../../images/foreignKeys.png" width="11px" height="12px" preserveAspectRatio="xMinYMin meet" x="16" y="-323"/>
<text text-anchor="start" x="31" y="-314.2" font-family="Helvetica,sans-Serif" font-size="11.00">default_savings_product</text>
<polygon fill="#ffffff" stroke="transparent" points="11,-284 11,-306 204,-306 204,-284 11,-284"/>
<polygon fill="none" stroke="black" points="11,-284 11,-306 204,-306 204,-284 11,-284"/>
<image xlink:href="../../images/foreignKeys.png" width="11px" height="12px" preserveAspectRatio="xMinYMin meet" x="16" y="-301"/>
<text text-anchor="start" x="31" y="-292.2" font-family="Helvetica,sans-Serif" font-size="11.00">default_savings_account</text>
<polygon fill="#ffffff" stroke="transparent" points="11,-262 11,-284 204,-284 204,-262 11,-262"/>
<polygon fill="none" stroke="black" points="11,-262 11,-284 204,-284 204,-262 11,-262"/>
<image xlink:href="../../images/foreignKeys.png" width="11px" height="12px" preserveAspectRatio="xMinYMin meet" x="16" y="-279"/>
<text text-anchor="start" x="31" y="-270.2" font-family="Helvetica,sans-Serif" font-size="11.00">client_type_cv_id</text>
<polygon fill="#ffffff" stroke="transparent" points="11,-240 11,-262 204,-262 204,-240 11,-240"/>
<polygon fill="none" stroke="black" points="11,-240 11,-262 204,-262 204,-240 11,-240"/>
<image xlink:href="../../images/foreignKeys.png" width="11px" height="12px" preserveAspectRatio="xMinYMin meet" x="16" y="-257"/>
<text text-anchor="start" x="31" y="-248.2" font-family="Helvetica,sans-Serif" font-size="11.00">client_classification_cv_id</text>
<polygon fill="#ffffff" stroke="transparent" points="11,-218 11,-240 204,-240 204,-218 11,-218"/>
<polygon fill="none" stroke="black" points="11,-218 11,-240 204,-240 204,-218 11,-218"/>
<image xlink:href="../../images/foreignKeys.png" width="11px" height="12px" preserveAspectRatio="xMinYMin meet" x="16" y="-235"/>
<text text-anchor="start" x="31" y="-226.2" font-family="Helvetica,sans-Serif" font-size="11.00">reject_reason_cv_id</text>
<polygon fill="#ffffff" stroke="transparent" points="11,-196 11,-218 204,-218 204,-196 11,-196"/>
<polygon fill="none" stroke="black" points="11,-196 11,-218 204,-218 204,-196 11,-196"/>
<image xlink:href="../../images/foreignKeys.png" width="11px" height="12px" preserveAspectRatio="xMinYMin meet" x="16" y="-213"/>
<text text-anchor="start" x="31" y="-204.2" font-family="Helvetica,sans-Serif" font-size="11.00">withdraw_reason_cv_id</text>
<polygon fill="none" stroke="black" points="11,-178 11,-196 204,-196 204,-178 11,-178"/>
<text text-anchor="start" x="14" y="-184.2" font-family="Helvetica,sans-Serif" font-size="11.00">...</text>
<polygon fill="#ffffff" stroke="transparent" points="11,-160 11,-178 88,-178 88,-160 11,-160"/>
<polygon fill="none" stroke="black" points="11,-160 11,-178 88,-178 88,-160 11,-160"/>
<text text-anchor="start" x="14" y="-166.2" font-family="Helvetica,sans-Serif" font-size="11.00">&lt; 13</text>
<polygon fill="#ffffff" stroke="transparent" points="88,-160 88,-178 151,-178 151,-160 88,-160"/>
<polygon fill="none" stroke="black" points="88,-160 88,-178 151,-178 151,-160 88,-160"/>
<text text-anchor="start" x="115" y="-166.2" font-family="Helvetica,sans-Serif" font-size="11.00">0 rows</text>
<polygon fill="#ffffff" stroke="transparent" points="151,-160 151,-178 204,-178 204,-160 151,-160"/>
<polygon fill="none" stroke="black" points="151,-160 151,-178 204,-178 204,-160 151,-160"/>
<text text-anchor="start" x="179" y="-166.2" font-family="Helvetica,sans-Serif" font-size="11.00">23 &gt;</text>
</a>
</g>
</g>
<!-- m_client_collateral_management&#45;&gt;m_client -->
<g id="edge1" class="edge">
<title>m_client_collateral_management:w&#45;&gt;m_client:e</title>
<path fill="none" stroke="black" d="M242,-345C173.55,-366.78 298.1,-559 205,-559"/>
<polygon fill="black" stroke="black" points="248.58,-344.09 256.99,-346.57 252.54,-343.55 256.5,-343 256.5,-343 256.5,-343 252.54,-343.55 256.01,-339.43 248.58,-344.09 248.58,-344.09"/>
<ellipse fill="none" stroke="black" cx="245.41" cy="-344.53" rx="3.2" ry="3.2"/>
</g>
<!-- m_collateral_management -->
<g id="node3" class="node">
<title>m_collateral_management</title>
<g id="a_node3"><a xlink:href="../../tables/m_collateral_management.html" xlink:title="m_collateral_management" target="_top">
<polygon fill="#ffffff" stroke="transparent" points="8,-37 8,-139 206,-139 206,-37 8,-37"/>
<polygon fill="#f5f5f5" stroke="transparent" points="8,-117 8,-139 206,-139 206,-117 8,-117"/>
<polygon fill="none" stroke="black" points="8,-117 8,-139 206,-139 206,-117 8,-117"/>
<text text-anchor="start" x="13" y="-126.2" font-family="Helvetica,sans-Serif" font-weight="bold" font-size="11.00">m_collateral_management</text>
<text text-anchor="start" x="171" y="-125.2" font-family="Helvetica,sans-Serif" font-size="11.00">[table]</text>
<polygon fill="none" stroke="black" points="8,-95 8,-117 206,-117 206,-95 8,-95"/>
<image xlink:href="../../images/primaryKeys.png" width="11px" height="12px" preserveAspectRatio="xMinYMin meet" x="13" y="-112"/>
<text text-anchor="start" x="28" y="-103.2" font-family="Helvetica,sans-Serif" font-size="11.00">id</text>
<polygon fill="#ffffff" stroke="transparent" points="8,-73 8,-95 206,-95 206,-73 8,-73"/>
<polygon fill="none" stroke="black" points="8,-73 8,-95 206,-95 206,-73 8,-73"/>
<image xlink:href="../../images/foreignKeys.png" width="11px" height="12px" preserveAspectRatio="xMinYMin meet" x="13" y="-90"/>
<text text-anchor="start" x="28" y="-81.2" font-family="Helvetica,sans-Serif" font-size="11.00">currency</text>
<polygon fill="none" stroke="black" points="8,-55 8,-73 206,-73 206,-55 8,-55"/>
<text text-anchor="start" x="11" y="-61.2" font-family="Helvetica,sans-Serif" font-size="11.00">...</text>
<polygon fill="#ffffff" stroke="transparent" points="8,-37 8,-55 87,-55 87,-37 8,-37"/>
<polygon fill="none" stroke="black" points="8,-37 8,-55 87,-55 87,-37 8,-37"/>
<text text-anchor="start" x="11" y="-43.2" font-family="Helvetica,sans-Serif" font-size="11.00">&lt; 1</text>
<polygon fill="#ffffff" stroke="transparent" points="87,-37 87,-55 155,-55 155,-37 87,-37"/>
<polygon fill="none" stroke="black" points="87,-37 87,-55 155,-55 155,-37 87,-37"/>
<text text-anchor="start" x="119" y="-43.2" font-family="Helvetica,sans-Serif" font-size="11.00">0 rows</text>
<polygon fill="#ffffff" stroke="transparent" points="155,-37 155,-55 206,-55 206,-37 155,-37"/>
<polygon fill="none" stroke="black" points="155,-37 155,-55 206,-55 206,-37 155,-37"/>
<text text-anchor="start" x="187" y="-43.2" font-family="Helvetica,sans-Serif" font-size="11.00">1 &gt;</text>
</a>
</g>
</g>
<!-- m_client_collateral_management&#45;&gt;m_collateral_management -->
<g id="edge2" class="edge">
<title>m_client_collateral_management:w&#45;&gt;m_collateral_management:e</title>
<path fill="none" stroke="black" d="M242.1,-319.01C174.27,-297.33 299.5,-106 207,-106"/>
<polygon fill="black" stroke="black" points="248.58,-319.9 256.01,-324.57 252.54,-320.45 256.5,-321 256.5,-321 256.5,-321 252.54,-320.45 256.99,-317.43 248.58,-319.9 248.58,-319.9"/>
<ellipse fill="none" stroke="black" cx="245.41" cy="-319.47" rx="3.2" ry="3.2"/>
</g>
<!-- m_loan_collateral_management -->
<g id="node4" class="node">
<title>m_loan_collateral_management</title>
<g id="a_node4"><a xlink:href="../../tables/m_loan_collateral_management.html" xlink:title="m_loan_collateral_management" target="_top">
<polygon fill="#ffffff" stroke="transparent" points="619,-318 619,-464 852,-464 852,-318 619,-318"/>
<polygon fill="#f5f5f5" stroke="transparent" points="619.5,-442 619.5,-464 852.5,-464 852.5,-442 619.5,-442"/>
<polygon fill="none" stroke="black" points="619.5,-442 619.5,-464 852.5,-464 852.5,-442 619.5,-442"/>
<text text-anchor="start" x="624.5" y="-451.2" font-family="Helvetica,sans-Serif" font-weight="bold" font-size="11.00">m_loan_collateral_management</text>
<text text-anchor="start" x="817.5" y="-450.2" font-family="Helvetica,sans-Serif" font-size="11.00">[table]</text>
<polygon fill="none" stroke="black" points="619.5,-420 619.5,-442 852.5,-442 852.5,-420 619.5,-420"/>
<image xlink:href="../../images/primaryKeys.png" width="11px" height="12px" preserveAspectRatio="xMinYMin meet" x="624.5" y="-437"/>
<text text-anchor="start" x="639.5" y="-428.2" font-family="Helvetica,sans-Serif" font-size="11.00">id</text>
<polygon fill="#ffffff" stroke="transparent" points="619.5,-398 619.5,-420 852.5,-420 852.5,-398 619.5,-398"/>
<polygon fill="none" stroke="black" points="619.5,-398 619.5,-420 852.5,-420 852.5,-398 619.5,-398"/>
<image xlink:href="../../images/foreignKeys.png" width="11px" height="12px" preserveAspectRatio="xMinYMin meet" x="624.5" y="-415"/>
<text text-anchor="start" x="639.5" y="-406.2" font-family="Helvetica,sans-Serif" font-size="11.00">loan_id</text>
<polygon fill="#ffffff" stroke="transparent" points="619.5,-376 619.5,-398 852.5,-398 852.5,-376 619.5,-376"/>
<polygon fill="none" stroke="black" points="619.5,-376 619.5,-398 852.5,-398 852.5,-376 619.5,-376"/>
<image xlink:href="../../images/foreignKeys.png" width="11px" height="12px" preserveAspectRatio="xMinYMin meet" x="624.5" y="-393"/>
<text text-anchor="start" x="639.5" y="-384.2" font-family="Helvetica,sans-Serif" font-size="11.00">client_collateral_id</text>
<polygon fill="#ffffff" stroke="transparent" points="619.5,-354 619.5,-376 852.5,-376 852.5,-354 619.5,-354"/>
<polygon fill="none" stroke="black" points="619.5,-354 619.5,-376 852.5,-376 852.5,-354 619.5,-354"/>
<image xlink:href="../../images/foreignKeys.png" width="11px" height="12px" preserveAspectRatio="xMinYMin meet" x="624.5" y="-371"/>
<text text-anchor="start" x="639.5" y="-362.2" font-family="Helvetica,sans-Serif" font-size="11.00">transaction_id</text>
<polygon fill="none" stroke="black" points="619.5,-336 619.5,-354 852.5,-354 852.5,-336 619.5,-336"/>
<text text-anchor="start" x="622.5" y="-342.2" font-family="Helvetica,sans-Serif" font-size="11.00">...</text>
<polygon fill="#ffffff" stroke="transparent" points="619.5,-318 619.5,-336 720.5,-336 720.5,-318 619.5,-318"/>
<polygon fill="none" stroke="black" points="619.5,-318 619.5,-336 720.5,-336 720.5,-318 619.5,-318"/>
<text text-anchor="start" x="622.5" y="-324.2" font-family="Helvetica,sans-Serif" font-size="11.00">&lt; 3</text>
<polygon fill="#ffffff" stroke="transparent" points="720.5,-318 720.5,-336 799.5,-336 799.5,-318 720.5,-318"/>
<polygon fill="none" stroke="black" points="720.5,-318 720.5,-336 799.5,-336 799.5,-318 720.5,-318"/>
<text text-anchor="start" x="763.5" y="-324.2" font-family="Helvetica,sans-Serif" font-size="11.00">0 rows</text>
<polygon fill="#ffffff" stroke="transparent" points="799.5,-318 799.5,-336 852.5,-336 852.5,-318 799.5,-318"/>
<polygon fill="none" stroke="black" points="799.5,-318 799.5,-336 852.5,-336 852.5,-318 799.5,-318"/>
<text text-anchor="start" x="842.5" y="-324.2" font-family="Helvetica,sans-Serif" font-size="11.00"> &#160;</text>
</a>
</g>
</g>
<!-- m_loan_collateral_management&#45;&gt;m_client_collateral_management -->
<g id="edge3" class="edge">
<title>m_loan_collateral_management:w&#45;&gt;m_client_collateral_management:e</title>
<path fill="none" stroke="black" d="M603.99,-387C592.68,-387 585.49,-387 569.5,-387"/>
<polygon fill="black" stroke="black" points="610.5,-387 618.5,-390.6 614.5,-387 618.5,-387 618.5,-387 618.5,-387 614.5,-387 618.5,-383.4 610.5,-387 610.5,-387"/>
<ellipse fill="none" stroke="black" cx="607.3" cy="-387" rx="3.2" ry="3.2"/>
</g>
</g>
</svg>
