<?xml version="1.0" encoding="UTF-8" standalone="no"?>
<!DOCTYPE svg PUBLIC "-//W3C//DTD SVG 1.1//EN"
 "http://www.w3.org/Graphics/SVG/1.1/DTD/svg11.dtd">
<!-- Generated by graphviz version 2.43.0 (0)
 -->
<!-- Title: oneDegreeRelationshipsDiagram Pages: 1 -->
<svg width="666pt" height="529pt"
 viewBox="0.00 0.00 666.00 529.01" xmlns="http://www.w3.org/2000/svg" xmlns:xlink="http://www.w3.org/1999/xlink">
<g id="graph0" class="graph" transform="scale(1 1) rotate(0) translate(4 525.01)">
<title>oneDegreeRelationshipsDiagram</title>
<polygon fill="#ffffff" stroke="transparent" points="-4,4 -4,-525.01 662,-525.01 662,4 -4,4"/>
<text text-anchor="middle" x="71.5" y="-7.2" font-family="Helvetica,sans-Serif" font-size="11.00">Generated by SchemaSpy</text>
<!-- m_client -->
<g id="node1" class="node">
<title>m_client</title>
<g id="a_node1"><a xlink:href="../../tables/m_client.html" xlink:title="m_client" target="_top">
<polygon fill="#ffffff" stroke="transparent" points="192,-85.01 192,-517.01 385,-517.01 385,-85.01 192,-85.01"/>
<polygon fill="#f5f5f5" stroke="transparent" points="192.5,-495.01 192.5,-517.01 385.5,-517.01 385.5,-495.01 192.5,-495.01"/>
<polygon fill="none" stroke="black" points="192.5,-495.01 192.5,-517.01 385.5,-517.01 385.5,-495.01 192.5,-495.01"/>
<text text-anchor="start" x="197.5" y="-504.21" font-family="Helvetica,sans-Serif" font-weight="bold" font-size="11.00">m_client</text>
<text text-anchor="start" x="350.5" y="-503.21" font-family="Helvetica,sans-Serif" font-size="11.00">[table]</text>
<polygon fill="none" stroke="black" points="192.5,-473.01 192.5,-495.01 385.5,-495.01 385.5,-473.01 192.5,-473.01"/>
<image xlink:href="../../images/primaryKeys.png" width="11px" height="12px" preserveAspectRatio="xMinYMin meet" x="197.5" y="-490.008"/>
<text text-anchor="start" x="212.5" y="-481.21" font-family="Helvetica,sans-Serif" font-size="11.00">id</text>
<polygon fill="#ffffff" stroke="transparent" points="192.5,-451.01 192.5,-473.01 385.5,-473.01 385.5,-451.01 192.5,-451.01"/>
<polygon fill="none" stroke="black" points="192.5,-451.01 192.5,-473.01 385.5,-473.01 385.5,-451.01 192.5,-451.01"/>
<text text-anchor="start" x="212.5" y="-459.21" font-family="Helvetica,sans-Serif" font-size="11.00">account_no</text>
<polygon fill="#ffffff" stroke="transparent" points="192.5,-429.01 192.5,-451.01 385.5,-451.01 385.5,-429.01 192.5,-429.01"/>
<polygon fill="none" stroke="black" points="192.5,-429.01 192.5,-451.01 385.5,-451.01 385.5,-429.01 192.5,-429.01"/>
<text text-anchor="start" x="212.5" y="-437.21" font-family="Helvetica,sans-Serif" font-size="11.00">external_id</text>
<polygon fill="#ffffff" stroke="transparent" points="192.5,-407.01 192.5,-429.01 385.5,-429.01 385.5,-407.01 192.5,-407.01"/>
<polygon fill="none" stroke="black" points="192.5,-407.01 192.5,-429.01 385.5,-429.01 385.5,-407.01 192.5,-407.01"/>
<image xlink:href="../../images/foreignKeys.png" width="11px" height="12px" preserveAspectRatio="xMinYMin meet" x="197.5" y="-424.008"/>
<text text-anchor="start" x="212.5" y="-415.21" font-family="Helvetica,sans-Serif" font-size="11.00">sub_status</text>
<polygon fill="#ffffff" stroke="transparent" points="192.5,-385.01 192.5,-407.01 385.5,-407.01 385.5,-385.01 192.5,-385.01"/>
<polygon fill="none" stroke="black" points="192.5,-385.01 192.5,-407.01 385.5,-407.01 385.5,-385.01 192.5,-385.01"/>
<image xlink:href="../../images/foreignKeys.png" width="11px" height="12px" preserveAspectRatio="xMinYMin meet" x="197.5" y="-402.008"/>
<text text-anchor="start" x="212.5" y="-393.21" font-family="Helvetica,sans-Serif" font-size="11.00">office_id</text>
<polygon fill="#ffffff" stroke="transparent" points="192.5,-363.01 192.5,-385.01 385.5,-385.01 385.5,-363.01 192.5,-363.01"/>
<polygon fill="none" stroke="black" points="192.5,-363.01 192.5,-385.01 385.5,-385.01 385.5,-363.01 192.5,-363.01"/>
<image xlink:href="../../images/foreignKeys.png" width="11px" height="12px" preserveAspectRatio="xMinYMin meet" x="197.5" y="-380.008"/>
<text text-anchor="start" x="212.5" y="-371.21" font-family="Helvetica,sans-Serif" font-size="11.00">transfer_to_office_id</text>
<polygon fill="#ffffff" stroke="transparent" points="192.5,-341.01 192.5,-363.01 385.5,-363.01 385.5,-341.01 192.5,-341.01"/>
<polygon fill="none" stroke="black" points="192.5,-341.01 192.5,-363.01 385.5,-363.01 385.5,-341.01 192.5,-341.01"/>
<image xlink:href="../../images/foreignKeys.png" width="11px" height="12px" preserveAspectRatio="xMinYMin meet" x="197.5" y="-358.008"/>
<text text-anchor="start" x="212.5" y="-349.21" font-family="Helvetica,sans-Serif" font-size="11.00">staff_id</text>
<polygon fill="#ffffff" stroke="transparent" points="192.5,-319.01 192.5,-341.01 385.5,-341.01 385.5,-319.01 192.5,-319.01"/>
<polygon fill="none" stroke="black" points="192.5,-319.01 192.5,-341.01 385.5,-341.01 385.5,-319.01 192.5,-319.01"/>
<text text-anchor="start" x="212.5" y="-327.21" font-family="Helvetica,sans-Serif" font-size="11.00">mobile_no</text>
<polygon fill="#ffffff" stroke="transparent" points="192.5,-297.01 192.5,-319.01 385.5,-319.01 385.5,-297.01 192.5,-297.01"/>
<polygon fill="none" stroke="black" points="192.5,-297.01 192.5,-319.01 385.5,-319.01 385.5,-297.01 192.5,-297.01"/>
<image xlink:href="../../images/foreignKeys.png" width="11px" height="12px" preserveAspectRatio="xMinYMin meet" x="197.5" y="-314.008"/>
<text text-anchor="start" x="212.5" y="-305.21" font-family="Helvetica,sans-Serif" font-size="11.00">gender_cv_id</text>
<polygon fill="#ffffff" stroke="transparent" points="192.5,-275.01 192.5,-297.01 385.5,-297.01 385.5,-275.01 192.5,-275.01"/>
<polygon fill="none" stroke="black" points="192.5,-275.01 192.5,-297.01 385.5,-297.01 385.5,-275.01 192.5,-275.01"/>
<image xlink:href="../../images/foreignKeys.png" width="11px" height="12px" preserveAspectRatio="xMinYMin meet" x="197.5" y="-292.008"/>
<text text-anchor="start" x="212.5" y="-283.21" font-family="Helvetica,sans-Serif" font-size="11.00">image_id</text>
<polygon fill="#ffffff" stroke="transparent" points="192.5,-253.01 192.5,-275.01 385.5,-275.01 385.5,-253.01 192.5,-253.01"/>
<polygon fill="none" stroke="black" points="192.5,-253.01 192.5,-275.01 385.5,-275.01 385.5,-253.01 192.5,-253.01"/>
<image xlink:href="../../images/foreignKeys.png" width="11px" height="12px" preserveAspectRatio="xMinYMin meet" x="197.5" y="-270.008"/>
<text text-anchor="start" x="212.5" y="-261.21" font-family="Helvetica,sans-Serif" font-size="11.00">closure_reason_cv_id</text>
<polygon fill="#ffffff" stroke="transparent" points="192.5,-231.01 192.5,-253.01 385.5,-253.01 385.5,-231.01 192.5,-231.01"/>
<polygon fill="none" stroke="black" points="192.5,-231.01 192.5,-253.01 385.5,-253.01 385.5,-231.01 192.5,-231.01"/>
<image xlink:href="../../images/foreignKeys.png" width="11px" height="12px" preserveAspectRatio="xMinYMin meet" x="197.5" y="-248.008"/>
<text text-anchor="start" x="212.5" y="-239.21" font-family="Helvetica,sans-Serif" font-size="11.00">default_savings_product</text>
<polygon fill="#ffffff" stroke="transparent" points="192.5,-209.01 192.5,-231.01 385.5,-231.01 385.5,-209.01 192.5,-209.01"/>
<polygon fill="none" stroke="black" points="192.5,-209.01 192.5,-231.01 385.5,-231.01 385.5,-209.01 192.5,-209.01"/>
<image xlink:href="../../images/foreignKeys.png" width="11px" height="12px" preserveAspectRatio="xMinYMin meet" x="197.5" y="-226.008"/>
<text text-anchor="start" x="212.5" y="-217.21" font-family="Helvetica,sans-Serif" font-size="11.00">default_savings_account</text>
<polygon fill="#ffffff" stroke="transparent" points="192.5,-187.01 192.5,-209.01 385.5,-209.01 385.5,-187.01 192.5,-187.01"/>
<polygon fill="none" stroke="black" points="192.5,-187.01 192.5,-209.01 385.5,-209.01 385.5,-187.01 192.5,-187.01"/>
<image xlink:href="../../images/foreignKeys.png" width="11px" height="12px" preserveAspectRatio="xMinYMin meet" x="197.5" y="-204.008"/>
<text text-anchor="start" x="212.5" y="-195.21" font-family="Helvetica,sans-Serif" font-size="11.00">client_type_cv_id</text>
<polygon fill="#ffffff" stroke="transparent" points="192.5,-165.01 192.5,-187.01 385.5,-187.01 385.5,-165.01 192.5,-165.01"/>
<polygon fill="none" stroke="black" points="192.5,-165.01 192.5,-187.01 385.5,-187.01 385.5,-165.01 192.5,-165.01"/>
<image xlink:href="../../images/foreignKeys.png" width="11px" height="12px" preserveAspectRatio="xMinYMin meet" x="197.5" y="-182.008"/>
<text text-anchor="start" x="212.5" y="-173.21" font-family="Helvetica,sans-Serif" font-size="11.00">client_classification_cv_id</text>
<polygon fill="#ffffff" stroke="transparent" points="192.5,-143.01 192.5,-165.01 385.5,-165.01 385.5,-143.01 192.5,-143.01"/>
<polygon fill="none" stroke="black" points="192.5,-143.01 192.5,-165.01 385.5,-165.01 385.5,-143.01 192.5,-143.01"/>
<image xlink:href="../../images/foreignKeys.png" width="11px" height="12px" preserveAspectRatio="xMinYMin meet" x="197.5" y="-160.008"/>
<text text-anchor="start" x="212.5" y="-151.21" font-family="Helvetica,sans-Serif" font-size="11.00">reject_reason_cv_id</text>
<polygon fill="#ffffff" stroke="transparent" points="192.5,-121.01 192.5,-143.01 385.5,-143.01 385.5,-121.01 192.5,-121.01"/>
<polygon fill="none" stroke="black" points="192.5,-121.01 192.5,-143.01 385.5,-143.01 385.5,-121.01 192.5,-121.01"/>
<image xlink:href="../../images/foreignKeys.png" width="11px" height="12px" preserveAspectRatio="xMinYMin meet" x="197.5" y="-138.008"/>
<text text-anchor="start" x="212.5" y="-129.21" font-family="Helvetica,sans-Serif" font-size="11.00">withdraw_reason_cv_id</text>
<polygon fill="none" stroke="black" points="192.5,-103.01 192.5,-121.01 385.5,-121.01 385.5,-103.01 192.5,-103.01"/>
<text text-anchor="start" x="195.5" y="-109.21" font-family="Helvetica,sans-Serif" font-size="11.00">...</text>
<polygon fill="#ffffff" stroke="transparent" points="192.5,-85.01 192.5,-103.01 269.5,-103.01 269.5,-85.01 192.5,-85.01"/>
<polygon fill="none" stroke="black" points="192.5,-85.01 192.5,-103.01 269.5,-103.01 269.5,-85.01 192.5,-85.01"/>
<text text-anchor="start" x="195.5" y="-91.21" font-family="Helvetica,sans-Serif" font-size="11.00">&lt; 13</text>
<polygon fill="#ffffff" stroke="transparent" points="269.5,-85.01 269.5,-103.01 332.5,-103.01 332.5,-85.01 269.5,-85.01"/>
<polygon fill="none" stroke="black" points="269.5,-85.01 269.5,-103.01 332.5,-103.01 332.5,-85.01 269.5,-85.01"/>
<text text-anchor="start" x="296.5" y="-91.21" font-family="Helvetica,sans-Serif" font-size="11.00">0 rows</text>
<polygon fill="#ffffff" stroke="transparent" points="332.5,-85.01 332.5,-103.01 385.5,-103.01 385.5,-85.01 332.5,-85.01"/>
<polygon fill="none" stroke="black" points="332.5,-85.01 332.5,-103.01 385.5,-103.01 385.5,-85.01 332.5,-85.01"/>
<text text-anchor="start" x="360.5" y="-91.21" font-family="Helvetica,sans-Serif" font-size="11.00">23 &gt;</text>
</a>
</g>
</g>
<!-- m_code_value -->
<g id="node2" class="node">
<title>m_code_value</title>
<g id="a_node2"><a xlink:href="../../tables/m_code_value.html" xlink:title="m_code_value" target="_top">
<polygon fill="#ffffff" stroke="transparent" points="8,-96.01 8,-220.01 143,-220.01 143,-96.01 8,-96.01"/>
<polygon fill="#f5f5f5" stroke="transparent" points="8.5,-198.01 8.5,-220.01 143.5,-220.01 143.5,-198.01 8.5,-198.01"/>
<polygon fill="none" stroke="black" points="8.5,-198.01 8.5,-220.01 143.5,-220.01 143.5,-198.01 8.5,-198.01"/>
<text text-anchor="start" x="13.5" y="-207.21" font-family="Helvetica,sans-Serif" font-weight="bold" font-size="11.00">m_code_value</text>
<text text-anchor="start" x="108.5" y="-206.21" font-family="Helvetica,sans-Serif" font-size="11.00">[table]</text>
<polygon fill="none" stroke="black" points="8.5,-176.01 8.5,-198.01 143.5,-198.01 143.5,-176.01 8.5,-176.01"/>
<image xlink:href="../../images/primaryKeys.png" width="11px" height="12px" preserveAspectRatio="xMinYMin meet" x="13.5" y="-193.008"/>
<text text-anchor="start" x="28.5" y="-184.21" font-family="Helvetica,sans-Serif" font-size="11.00">id</text>
<polygon fill="#ffffff" stroke="transparent" points="8.5,-154.01 8.5,-176.01 143.5,-176.01 143.5,-154.01 8.5,-154.01"/>
<polygon fill="none" stroke="black" points="8.5,-154.01 8.5,-176.01 143.5,-176.01 143.5,-154.01 8.5,-154.01"/>
<image xlink:href="../../images/foreignKeys.png" width="11px" height="12px" preserveAspectRatio="xMinYMin meet" x="13.5" y="-171.008"/>
<text text-anchor="start" x="28.5" y="-162.21" font-family="Helvetica,sans-Serif" font-size="11.00">code_id</text>
<polygon fill="#ffffff" stroke="transparent" points="8.5,-132.01 8.5,-154.01 143.5,-154.01 143.5,-132.01 8.5,-132.01"/>
<polygon fill="none" stroke="black" points="8.5,-132.01 8.5,-154.01 143.5,-154.01 143.5,-132.01 8.5,-132.01"/>
<text text-anchor="start" x="28.5" y="-140.21" font-family="Helvetica,sans-Serif" font-size="11.00">code_value</text>
<polygon fill="none" stroke="black" points="8.5,-114.01 8.5,-132.01 143.5,-132.01 143.5,-114.01 8.5,-114.01"/>
<text text-anchor="start" x="11.5" y="-120.21" font-family="Helvetica,sans-Serif" font-size="11.00">...</text>
<polygon fill="#ffffff" stroke="transparent" points="8.5,-96.01 8.5,-114.01 53.5,-114.01 53.5,-96.01 8.5,-96.01"/>
<polygon fill="none" stroke="black" points="8.5,-96.01 8.5,-114.01 53.5,-114.01 53.5,-96.01 8.5,-96.01"/>
<text text-anchor="start" x="11.5" y="-102.21" font-family="Helvetica,sans-Serif" font-size="11.00">&lt; 1</text>
<polygon fill="#ffffff" stroke="transparent" points="53.5,-96.01 53.5,-114.01 103.5,-114.01 103.5,-96.01 53.5,-96.01"/>
<polygon fill="none" stroke="black" points="53.5,-96.01 53.5,-114.01 103.5,-114.01 103.5,-96.01 53.5,-96.01"/>
<text text-anchor="start" x="67.5" y="-102.21" font-family="Helvetica,sans-Serif" font-size="11.00">0 rows</text>
<polygon fill="#ffffff" stroke="transparent" points="103.5,-96.01 103.5,-114.01 143.5,-114.01 143.5,-96.01 103.5,-96.01"/>
<polygon fill="none" stroke="black" points="103.5,-96.01 103.5,-114.01 143.5,-114.01 143.5,-96.01 103.5,-96.01"/>
<text text-anchor="start" x="118.5" y="-102.21" font-family="Helvetica,sans-Serif" font-size="11.00">25 &gt;</text>
</a>
</g>
</g>
<!-- m_client&#45;&gt;m_code_value -->
<g id="edge1" class="edge">
<title>m_client:w&#45;&gt;m_code_value:e</title>
<path fill="none" stroke="black" d="M177.09,-178.03C166.51,-181.2 160.09,-187.01 144.5,-187.01"/>
<polygon fill="black" stroke="black" points="183.58,-177.12 192,-179.57 187.54,-176.56 191.5,-176.01 191.5,-176.01 191.5,-176.01 187.54,-176.56 191,-172.44 183.58,-177.12 183.58,-177.12"/>
<ellipse fill="none" stroke="black" cx="180.41" cy="-177.56" rx="3.2" ry="3.2"/>
</g>
<!-- m_client&#45;&gt;m_code_value -->
<g id="edge2" class="edge">
<title>m_client:w&#45;&gt;m_code_value:e</title>
<path fill="none" stroke="black" d="M177.09,-195.99C166.51,-192.81 160.09,-187.01 144.5,-187.01"/>
<polygon fill="black" stroke="black" points="183.58,-196.9 191,-201.57 187.54,-197.45 191.5,-198.01 191.5,-198.01 191.5,-198.01 187.54,-197.45 192,-194.44 183.58,-196.9 183.58,-196.9"/>
<ellipse fill="none" stroke="black" cx="180.41" cy="-196.45" rx="3.2" ry="3.2"/>
</g>
<!-- m_client&#45;&gt;m_code_value -->
<g id="edge3" class="edge">
<title>m_client:w&#45;&gt;m_code_value:e</title>
<path fill="none" stroke="black" d="M177.76,-259.19C159.82,-242.33 178.49,-187.01 144.5,-187.01"/>
<polygon fill="black" stroke="black" points="183.95,-261.36 190.31,-267.4 187.73,-262.68 191.5,-264.01 191.5,-264.01 191.5,-264.01 187.73,-262.68 192.69,-260.61 183.95,-261.36 183.95,-261.36"/>
<ellipse fill="none" stroke="black" cx="180.93" cy="-260.3" rx="3.2" ry="3.2"/>
</g>
<!-- m_client&#45;&gt;m_code_value -->
<g id="edge4" class="edge">
<title>m_client:w&#45;&gt;m_code_value:e</title>
<path fill="none" stroke="black" d="M177.16,-304.25C146.83,-283.83 196.11,-187.01 144.5,-187.01"/>
<polygon fill="black" stroke="black" points="183.76,-305.98 190.59,-311.49 187.63,-306.99 191.5,-308.01 191.5,-308.01 191.5,-308.01 187.63,-306.99 192.41,-304.52 183.76,-305.98 183.76,-305.98"/>
<ellipse fill="none" stroke="black" cx="180.66" cy="-305.17" rx="3.2" ry="3.2"/>
</g>
<!-- m_client&#45;&gt;m_code_value -->
<g id="edge5" class="edge">
<title>m_client:w&#45;&gt;m_code_value:e</title>
<path fill="none" stroke="black" d="M177.67,-158.6C166.25,-167.66 164.04,-187.01 144.5,-187.01"/>
<polygon fill="black" stroke="black" points="183.91,-156.53 192.63,-157.42 187.7,-155.27 191.5,-154.01 191.5,-154.01 191.5,-154.01 187.7,-155.27 190.37,-150.59 183.91,-156.53 183.91,-156.53"/>
<ellipse fill="none" stroke="black" cx="180.87" cy="-157.53" rx="3.2" ry="3.2"/>
</g>
<!-- m_client&#45;&gt;m_code_value -->
<g id="edge6" class="edge">
<title>m_client:w&#45;&gt;m_code_value:e</title>
<path fill="none" stroke="black" d="M177.08,-416.15C103.13,-394.29 243.75,-187.01 144.5,-187.01"/>
<polygon fill="black" stroke="black" points="183.57,-416.98 191.04,-421.58 187.53,-417.5 191.5,-418.01 191.5,-418.01 191.5,-418.01 187.53,-417.5 191.96,-414.44 183.57,-416.98 183.57,-416.98"/>
<ellipse fill="none" stroke="black" cx="180.39" cy="-416.58" rx="3.2" ry="3.2"/>
</g>
<!-- m_client&#45;&gt;m_code_value -->
<g id="edge7" class="edge">
<title>m_client:w&#45;&gt;m_code_value:e</title>
<path fill="none" stroke="black" d="M177.98,-137.08C164.1,-150.7 170.63,-187.01 144.5,-187.01"/>
<polygon fill="black" stroke="black" points="184.01,-134.82 192.77,-135.38 187.76,-133.41 191.5,-132.01 191.5,-132.01 191.5,-132.01 187.76,-133.41 190.23,-128.64 184.01,-134.82 184.01,-134.82"/>
<ellipse fill="none" stroke="black" cx="181.01" cy="-135.94" rx="3.2" ry="3.2"/>
</g>
<!-- m_client_identifier -->
<g id="node3" class="node">
<title>m_client_identifier</title>
<g id="a_node3"><a xlink:href="../../tables/m_client_identifier.html" xlink:title="m_client_identifier" target="_top">
<polygon fill="#ffffff" stroke="transparent" points="434,-54.01 434,-340.01 650,-340.01 650,-54.01 434,-54.01"/>
<polygon fill="#f5f5f5" stroke="transparent" points="436,-316.01 436,-338.01 648,-338.01 648,-316.01 436,-316.01"/>
<polygon fill="none" stroke="black" points="436,-316.01 436,-338.01 648,-338.01 648,-316.01 436,-316.01"/>
<text text-anchor="start" x="441" y="-325.21" font-family="Helvetica,sans-Serif" font-weight="bold" font-size="11.00">m_client_identifier</text>
<text text-anchor="start" x="613" y="-324.21" font-family="Helvetica,sans-Serif" font-size="11.00">[table]</text>
<polygon fill="none" stroke="black" points="436,-294.01 436,-316.01 581,-316.01 581,-294.01 436,-294.01"/>
<image xlink:href="../../images/primaryKeys.png" width="11px" height="12px" preserveAspectRatio="xMinYMin meet" x="441" y="-311.008"/>
<text text-anchor="start" x="456" y="-302.21" font-family="Helvetica,sans-Serif" font-size="11.00">id</text>
<polygon fill="none" stroke="black" points="581,-294.01 581,-316.01 648,-316.01 648,-294.01 581,-294.01"/>
<text text-anchor="start" x="584" y="-302.21" font-family="Helvetica,sans-Serif" font-size="11.00">bigint[19]</text>
<polygon fill="#ffffff" stroke="transparent" points="436,-272.01 436,-294.01 581,-294.01 581,-272.01 436,-272.01"/>
<polygon fill="none" stroke="black" points="436,-272.01 436,-294.01 581,-294.01 581,-272.01 436,-272.01"/>
<image xlink:href="../../images/foreignKeys.png" width="11px" height="12px" preserveAspectRatio="xMinYMin meet" x="441" y="-289.008"/>
<text text-anchor="start" x="456" y="-280.21" font-family="Helvetica,sans-Serif" font-size="11.00">client_id</text>
<polygon fill="none" stroke="black" points="581,-272.01 581,-294.01 648,-294.01 648,-272.01 581,-272.01"/>
<text text-anchor="start" x="584" y="-280.21" font-family="Helvetica,sans-Serif" font-size="11.00">bigint[19]</text>
<polygon fill="#ffffff" stroke="transparent" points="436,-250.01 436,-272.01 581,-272.01 581,-250.01 436,-250.01"/>
<polygon fill="none" stroke="black" points="436,-250.01 436,-272.01 581,-272.01 581,-250.01 436,-250.01"/>
<image xlink:href="../../images/foreignKeys.png" width="11px" height="12px" preserveAspectRatio="xMinYMin meet" x="441" y="-267.008"/>
<text text-anchor="start" x="456" y="-258.21" font-family="Helvetica,sans-Serif" font-size="11.00">document_type_id</text>
<polygon fill="none" stroke="black" points="581,-250.01 581,-272.01 648,-272.01 648,-250.01 581,-250.01"/>
<text text-anchor="start" x="584" y="-258.21" font-family="Helvetica,sans-Serif" font-size="11.00">int[10]</text>
<polygon fill="#ffffff" stroke="transparent" points="436,-228.01 436,-250.01 581,-250.01 581,-228.01 436,-228.01"/>
<polygon fill="none" stroke="black" points="436,-228.01 436,-250.01 581,-250.01 581,-228.01 436,-228.01"/>
<text text-anchor="start" x="456" y="-236.21" font-family="Helvetica,sans-Serif" font-size="11.00">document_key</text>
<polygon fill="none" stroke="black" points="581,-228.01 581,-250.01 648,-250.01 648,-228.01 581,-228.01"/>
<text text-anchor="start" x="584" y="-236.21" font-family="Helvetica,sans-Serif" font-size="11.00">varchar[50]</text>
<polygon fill="none" stroke="black" points="436,-206.01 436,-228.01 581,-228.01 581,-206.01 436,-206.01"/>
<text text-anchor="start" x="456" y="-214.21" font-family="Helvetica,sans-Serif" font-size="11.00">status</text>
<polygon fill="none" stroke="black" points="581,-206.01 581,-228.01 648,-228.01 648,-206.01 581,-206.01"/>
<text text-anchor="start" x="584" y="-214.21" font-family="Helvetica,sans-Serif" font-size="11.00">int[10]</text>
<polygon fill="#ffffff" stroke="transparent" points="436,-184.01 436,-206.01 581,-206.01 581,-184.01 436,-184.01"/>
<polygon fill="none" stroke="black" points="436,-184.01 436,-206.01 581,-206.01 581,-184.01 436,-184.01"/>
<text text-anchor="start" x="456" y="-192.21" font-family="Helvetica,sans-Serif" font-size="11.00">active</text>
<polygon fill="none" stroke="black" points="581,-184.01 581,-206.01 648,-206.01 648,-184.01 581,-184.01"/>
<text text-anchor="start" x="584" y="-192.21" font-family="Helvetica,sans-Serif" font-size="11.00">int[10]</text>
<polygon fill="none" stroke="black" points="436,-162.01 436,-184.01 581,-184.01 581,-162.01 436,-162.01"/>
<text text-anchor="start" x="456" y="-170.21" font-family="Helvetica,sans-Serif" font-size="11.00">description</text>
<polygon fill="none" stroke="black" points="581,-162.01 581,-184.01 648,-184.01 648,-162.01 581,-162.01"/>
<text text-anchor="start" x="584" y="-170.21" font-family="Helvetica,sans-Serif" font-size="11.00">varchar[500]</text>
<polygon fill="none" stroke="black" points="436,-140.01 436,-162.01 581,-162.01 581,-140.01 436,-140.01"/>
<text text-anchor="start" x="456" y="-148.21" font-family="Helvetica,sans-Serif" font-size="11.00">createdby_id</text>
<polygon fill="none" stroke="black" points="581,-140.01 581,-162.01 648,-162.01 648,-140.01 581,-140.01"/>
<text text-anchor="start" x="584" y="-148.21" font-family="Helvetica,sans-Serif" font-size="11.00">bigint[19]</text>
<polygon fill="none" stroke="black" points="436,-118.01 436,-140.01 581,-140.01 581,-118.01 436,-118.01"/>
<text text-anchor="start" x="456" y="-126.21" font-family="Helvetica,sans-Serif" font-size="11.00">lastmodifiedby_id</text>
<polygon fill="none" stroke="black" points="581,-118.01 581,-140.01 648,-140.01 648,-118.01 581,-118.01"/>
<text text-anchor="start" x="584" y="-126.21" font-family="Helvetica,sans-Serif" font-size="11.00">bigint[19]</text>
<polygon fill="none" stroke="black" points="436,-96.01 436,-118.01 581,-118.01 581,-96.01 436,-96.01"/>
<text text-anchor="start" x="456" y="-104.21" font-family="Helvetica,sans-Serif" font-size="11.00">created_date</text>
<polygon fill="none" stroke="black" points="581,-96.01 581,-118.01 648,-118.01 648,-96.01 581,-96.01"/>
<text text-anchor="start" x="584" y="-104.21" font-family="Helvetica,sans-Serif" font-size="11.00">datetime[19]</text>
<polygon fill="none" stroke="black" points="436,-74.01 436,-96.01 581,-96.01 581,-74.01 436,-74.01"/>
<text text-anchor="start" x="456" y="-82.21" font-family="Helvetica,sans-Serif" font-size="11.00">lastmodified_date</text>
<polygon fill="none" stroke="black" points="581,-74.01 581,-96.01 648,-96.01 648,-74.01 581,-74.01"/>
<text text-anchor="start" x="584" y="-82.21" font-family="Helvetica,sans-Serif" font-size="11.00">datetime[19]</text>
<polygon fill="#ffffff" stroke="transparent" points="436,-56.01 436,-74.01 500,-74.01 500,-56.01 436,-56.01"/>
<polygon fill="none" stroke="black" points="436,-56.01 436,-74.01 500,-74.01 500,-56.01 436,-56.01"/>
<text text-anchor="start" x="439" y="-62.21" font-family="Helvetica,sans-Serif" font-size="11.00">&lt; 2</text>
<polygon fill="#ffffff" stroke="transparent" points="500,-56.01 500,-74.01 581,-74.01 581,-56.01 500,-56.01"/>
<polygon fill="none" stroke="black" points="500,-56.01 500,-74.01 581,-74.01 581,-56.01 500,-56.01"/>
<text text-anchor="start" x="545" y="-62.21" font-family="Helvetica,sans-Serif" font-size="11.00">0 rows</text>
<polygon fill="#ffffff" stroke="transparent" points="581,-56.01 581,-74.01 648,-74.01 648,-56.01 581,-56.01"/>
<polygon fill="none" stroke="black" points="581,-56.01 581,-74.01 648,-74.01 648,-56.01 581,-56.01"/>
<text text-anchor="start" x="629" y="-62.21" font-family="Helvetica,sans-Serif" font-size="11.00">0 &gt;</text>
<polygon fill="none" stroke="black" stroke-width="2" points="435,-55.01 435,-339.01 649,-339.01 649,-55.01 435,-55.01"/>
</a>
</g>
</g>
<!-- m_client_identifier&#45;&gt;m_client -->
<g id="edge8" class="edge">
<title>m_client_identifier:w&#45;&gt;m_client:e</title>
<path fill="none" stroke="black" d="M420.71,-285.13C358.65,-306.61 472.83,-484.01 386.5,-484.01"/>
<polygon fill="black" stroke="black" points="427.09,-284.18 435.53,-286.57 431.04,-283.59 435,-283.01 435,-283.01 435,-283.01 431.04,-283.59 434.47,-279.45 427.09,-284.18 427.09,-284.18"/>
<ellipse fill="none" stroke="black" cx="423.92" cy="-284.65" rx="3.2" ry="3.2"/>
</g>
<!-- m_client_identifier&#45;&gt;m_code_value -->
<g id="edge9" class="edge">
<title>m_client_identifier:w&#45;&gt;m_code_value:e</title>
<path fill="none" stroke="black" d="M420.57,-259.31C363.95,-243.69 454.8,-124.41 393,-75.01 320.44,-17.01 259.82,-21.35 184,-75.01 140.91,-105.5 197.28,-187.01 144.5,-187.01"/>
<polygon fill="black" stroke="black" points="427.05,-260.07 434.58,-264.58 431.03,-260.54 435,-261.01 435,-261.01 435,-261.01 431.03,-260.54 435.42,-257.43 427.05,-260.07 427.05,-260.07"/>
<ellipse fill="none" stroke="black" cx="423.88" cy="-259.7" rx="3.2" ry="3.2"/>
</g>
</g>
</svg>
