<?xml version="1.0" encoding="UTF-8" standalone="no"?>
<!DOCTYPE svg PUBLIC "-//W3C//DTD SVG 1.1//EN"
 "http://www.w3.org/Graphics/SVG/1.1/DTD/svg11.dtd">
<!-- Generated by graphviz version 2.43.0 (0)
 -->
<!-- Title: oneDegreeRelationshipsDiagram Pages: 1 -->
<svg width="640pt" height="529pt"
 viewBox="0.00 0.00 640.00 528.81" xmlns="http://www.w3.org/2000/svg" xmlns:xlink="http://www.w3.org/1999/xlink">
<g id="graph0" class="graph" transform="scale(1 1) rotate(0) translate(4 524.81)">
<title>oneDegreeRelationshipsDiagram</title>
<polygon fill="#ffffff" stroke="transparent" points="-4,4 -4,-524.81 636,-524.81 636,4 -4,4"/>
<text text-anchor="middle" x="71.5" y="-7.2" font-family="Helvetica,sans-Serif" font-size="11.00">Generated by SchemaSpy</text>
<!-- m_client -->
<g id="node1" class="node">
<title>m_client</title>
<g id="a_node1"><a xlink:href="../../tables/m_client.html" xlink:title="m_client" target="_top">
<polygon fill="#ffffff" stroke="transparent" points="192,-84.81 192,-516.81 385,-516.81 385,-84.81 192,-84.81"/>
<polygon fill="#f5f5f5" stroke="transparent" points="192.5,-494.81 192.5,-516.81 385.5,-516.81 385.5,-494.81 192.5,-494.81"/>
<polygon fill="none" stroke="black" points="192.5,-494.81 192.5,-516.81 385.5,-516.81 385.5,-494.81 192.5,-494.81"/>
<text text-anchor="start" x="197.5" y="-504.01" font-family="Helvetica,sans-Serif" font-weight="bold" font-size="11.00">m_client</text>
<text text-anchor="start" x="350.5" y="-503.01" font-family="Helvetica,sans-Serif" font-size="11.00">[table]</text>
<polygon fill="none" stroke="black" points="192.5,-472.81 192.5,-494.81 385.5,-494.81 385.5,-472.81 192.5,-472.81"/>
<image xlink:href="../../images/primaryKeys.png" width="11px" height="12px" preserveAspectRatio="xMinYMin meet" x="197.5" y="-489.809"/>
<text text-anchor="start" x="212.5" y="-481.01" font-family="Helvetica,sans-Serif" font-size="11.00">id</text>
<polygon fill="#ffffff" stroke="transparent" points="192.5,-450.81 192.5,-472.81 385.5,-472.81 385.5,-450.81 192.5,-450.81"/>
<polygon fill="none" stroke="black" points="192.5,-450.81 192.5,-472.81 385.5,-472.81 385.5,-450.81 192.5,-450.81"/>
<text text-anchor="start" x="212.5" y="-459.01" font-family="Helvetica,sans-Serif" font-size="11.00">account_no</text>
<polygon fill="#ffffff" stroke="transparent" points="192.5,-428.81 192.5,-450.81 385.5,-450.81 385.5,-428.81 192.5,-428.81"/>
<polygon fill="none" stroke="black" points="192.5,-428.81 192.5,-450.81 385.5,-450.81 385.5,-428.81 192.5,-428.81"/>
<text text-anchor="start" x="212.5" y="-437.01" font-family="Helvetica,sans-Serif" font-size="11.00">external_id</text>
<polygon fill="#ffffff" stroke="transparent" points="192.5,-406.81 192.5,-428.81 385.5,-428.81 385.5,-406.81 192.5,-406.81"/>
<polygon fill="none" stroke="black" points="192.5,-406.81 192.5,-428.81 385.5,-428.81 385.5,-406.81 192.5,-406.81"/>
<image xlink:href="../../images/foreignKeys.png" width="11px" height="12px" preserveAspectRatio="xMinYMin meet" x="197.5" y="-423.809"/>
<text text-anchor="start" x="212.5" y="-415.01" font-family="Helvetica,sans-Serif" font-size="11.00">sub_status</text>
<polygon fill="#ffffff" stroke="transparent" points="192.5,-384.81 192.5,-406.81 385.5,-406.81 385.5,-384.81 192.5,-384.81"/>
<polygon fill="none" stroke="black" points="192.5,-384.81 192.5,-406.81 385.5,-406.81 385.5,-384.81 192.5,-384.81"/>
<image xlink:href="../../images/foreignKeys.png" width="11px" height="12px" preserveAspectRatio="xMinYMin meet" x="197.5" y="-401.809"/>
<text text-anchor="start" x="212.5" y="-393.01" font-family="Helvetica,sans-Serif" font-size="11.00">office_id</text>
<polygon fill="#ffffff" stroke="transparent" points="192.5,-362.81 192.5,-384.81 385.5,-384.81 385.5,-362.81 192.5,-362.81"/>
<polygon fill="none" stroke="black" points="192.5,-362.81 192.5,-384.81 385.5,-384.81 385.5,-362.81 192.5,-362.81"/>
<image xlink:href="../../images/foreignKeys.png" width="11px" height="12px" preserveAspectRatio="xMinYMin meet" x="197.5" y="-379.809"/>
<text text-anchor="start" x="212.5" y="-371.01" font-family="Helvetica,sans-Serif" font-size="11.00">transfer_to_office_id</text>
<polygon fill="#ffffff" stroke="transparent" points="192.5,-340.81 192.5,-362.81 385.5,-362.81 385.5,-340.81 192.5,-340.81"/>
<polygon fill="none" stroke="black" points="192.5,-340.81 192.5,-362.81 385.5,-362.81 385.5,-340.81 192.5,-340.81"/>
<image xlink:href="../../images/foreignKeys.png" width="11px" height="12px" preserveAspectRatio="xMinYMin meet" x="197.5" y="-357.809"/>
<text text-anchor="start" x="212.5" y="-349.01" font-family="Helvetica,sans-Serif" font-size="11.00">staff_id</text>
<polygon fill="#ffffff" stroke="transparent" points="192.5,-318.81 192.5,-340.81 385.5,-340.81 385.5,-318.81 192.5,-318.81"/>
<polygon fill="none" stroke="black" points="192.5,-318.81 192.5,-340.81 385.5,-340.81 385.5,-318.81 192.5,-318.81"/>
<text text-anchor="start" x="212.5" y="-327.01" font-family="Helvetica,sans-Serif" font-size="11.00">mobile_no</text>
<polygon fill="#ffffff" stroke="transparent" points="192.5,-296.81 192.5,-318.81 385.5,-318.81 385.5,-296.81 192.5,-296.81"/>
<polygon fill="none" stroke="black" points="192.5,-296.81 192.5,-318.81 385.5,-318.81 385.5,-296.81 192.5,-296.81"/>
<image xlink:href="../../images/foreignKeys.png" width="11px" height="12px" preserveAspectRatio="xMinYMin meet" x="197.5" y="-313.809"/>
<text text-anchor="start" x="212.5" y="-305.01" font-family="Helvetica,sans-Serif" font-size="11.00">gender_cv_id</text>
<polygon fill="#ffffff" stroke="transparent" points="192.5,-274.81 192.5,-296.81 385.5,-296.81 385.5,-274.81 192.5,-274.81"/>
<polygon fill="none" stroke="black" points="192.5,-274.81 192.5,-296.81 385.5,-296.81 385.5,-274.81 192.5,-274.81"/>
<image xlink:href="../../images/foreignKeys.png" width="11px" height="12px" preserveAspectRatio="xMinYMin meet" x="197.5" y="-291.809"/>
<text text-anchor="start" x="212.5" y="-283.01" font-family="Helvetica,sans-Serif" font-size="11.00">image_id</text>
<polygon fill="#ffffff" stroke="transparent" points="192.5,-252.81 192.5,-274.81 385.5,-274.81 385.5,-252.81 192.5,-252.81"/>
<polygon fill="none" stroke="black" points="192.5,-252.81 192.5,-274.81 385.5,-274.81 385.5,-252.81 192.5,-252.81"/>
<image xlink:href="../../images/foreignKeys.png" width="11px" height="12px" preserveAspectRatio="xMinYMin meet" x="197.5" y="-269.809"/>
<text text-anchor="start" x="212.5" y="-261.01" font-family="Helvetica,sans-Serif" font-size="11.00">closure_reason_cv_id</text>
<polygon fill="#ffffff" stroke="transparent" points="192.5,-230.81 192.5,-252.81 385.5,-252.81 385.5,-230.81 192.5,-230.81"/>
<polygon fill="none" stroke="black" points="192.5,-230.81 192.5,-252.81 385.5,-252.81 385.5,-230.81 192.5,-230.81"/>
<image xlink:href="../../images/foreignKeys.png" width="11px" height="12px" preserveAspectRatio="xMinYMin meet" x="197.5" y="-247.809"/>
<text text-anchor="start" x="212.5" y="-239.01" font-family="Helvetica,sans-Serif" font-size="11.00">default_savings_product</text>
<polygon fill="#ffffff" stroke="transparent" points="192.5,-208.81 192.5,-230.81 385.5,-230.81 385.5,-208.81 192.5,-208.81"/>
<polygon fill="none" stroke="black" points="192.5,-208.81 192.5,-230.81 385.5,-230.81 385.5,-208.81 192.5,-208.81"/>
<image xlink:href="../../images/foreignKeys.png" width="11px" height="12px" preserveAspectRatio="xMinYMin meet" x="197.5" y="-225.809"/>
<text text-anchor="start" x="212.5" y="-217.01" font-family="Helvetica,sans-Serif" font-size="11.00">default_savings_account</text>
<polygon fill="#ffffff" stroke="transparent" points="192.5,-186.81 192.5,-208.81 385.5,-208.81 385.5,-186.81 192.5,-186.81"/>
<polygon fill="none" stroke="black" points="192.5,-186.81 192.5,-208.81 385.5,-208.81 385.5,-186.81 192.5,-186.81"/>
<image xlink:href="../../images/foreignKeys.png" width="11px" height="12px" preserveAspectRatio="xMinYMin meet" x="197.5" y="-203.809"/>
<text text-anchor="start" x="212.5" y="-195.01" font-family="Helvetica,sans-Serif" font-size="11.00">client_type_cv_id</text>
<polygon fill="#ffffff" stroke="transparent" points="192.5,-164.81 192.5,-186.81 385.5,-186.81 385.5,-164.81 192.5,-164.81"/>
<polygon fill="none" stroke="black" points="192.5,-164.81 192.5,-186.81 385.5,-186.81 385.5,-164.81 192.5,-164.81"/>
<image xlink:href="../../images/foreignKeys.png" width="11px" height="12px" preserveAspectRatio="xMinYMin meet" x="197.5" y="-181.809"/>
<text text-anchor="start" x="212.5" y="-173.01" font-family="Helvetica,sans-Serif" font-size="11.00">client_classification_cv_id</text>
<polygon fill="#ffffff" stroke="transparent" points="192.5,-142.81 192.5,-164.81 385.5,-164.81 385.5,-142.81 192.5,-142.81"/>
<polygon fill="none" stroke="black" points="192.5,-142.81 192.5,-164.81 385.5,-164.81 385.5,-142.81 192.5,-142.81"/>
<image xlink:href="../../images/foreignKeys.png" width="11px" height="12px" preserveAspectRatio="xMinYMin meet" x="197.5" y="-159.809"/>
<text text-anchor="start" x="212.5" y="-151.01" font-family="Helvetica,sans-Serif" font-size="11.00">reject_reason_cv_id</text>
<polygon fill="#ffffff" stroke="transparent" points="192.5,-120.81 192.5,-142.81 385.5,-142.81 385.5,-120.81 192.5,-120.81"/>
<polygon fill="none" stroke="black" points="192.5,-120.81 192.5,-142.81 385.5,-142.81 385.5,-120.81 192.5,-120.81"/>
<image xlink:href="../../images/foreignKeys.png" width="11px" height="12px" preserveAspectRatio="xMinYMin meet" x="197.5" y="-137.809"/>
<text text-anchor="start" x="212.5" y="-129.01" font-family="Helvetica,sans-Serif" font-size="11.00">withdraw_reason_cv_id</text>
<polygon fill="none" stroke="black" points="192.5,-102.81 192.5,-120.81 385.5,-120.81 385.5,-102.81 192.5,-102.81"/>
<text text-anchor="start" x="195.5" y="-109.01" font-family="Helvetica,sans-Serif" font-size="11.00">...</text>
<polygon fill="#ffffff" stroke="transparent" points="192.5,-84.81 192.5,-102.81 269.5,-102.81 269.5,-84.81 192.5,-84.81"/>
<polygon fill="none" stroke="black" points="192.5,-84.81 192.5,-102.81 269.5,-102.81 269.5,-84.81 192.5,-84.81"/>
<text text-anchor="start" x="195.5" y="-91.01" font-family="Helvetica,sans-Serif" font-size="11.00">&lt; 13</text>
<polygon fill="#ffffff" stroke="transparent" points="269.5,-84.81 269.5,-102.81 332.5,-102.81 332.5,-84.81 269.5,-84.81"/>
<polygon fill="none" stroke="black" points="269.5,-84.81 269.5,-102.81 332.5,-102.81 332.5,-84.81 269.5,-84.81"/>
<text text-anchor="start" x="296.5" y="-91.01" font-family="Helvetica,sans-Serif" font-size="11.00">0 rows</text>
<polygon fill="#ffffff" stroke="transparent" points="332.5,-84.81 332.5,-102.81 385.5,-102.81 385.5,-84.81 332.5,-84.81"/>
<polygon fill="none" stroke="black" points="332.5,-84.81 332.5,-102.81 385.5,-102.81 385.5,-84.81 332.5,-84.81"/>
<text text-anchor="start" x="360.5" y="-91.01" font-family="Helvetica,sans-Serif" font-size="11.00">23 &gt;</text>
</a>
</g>
</g>
<!-- m_code_value -->
<g id="node2" class="node">
<title>m_code_value</title>
<g id="a_node2"><a xlink:href="../../tables/m_code_value.html" xlink:title="m_code_value" target="_top">
<polygon fill="#ffffff" stroke="transparent" points="8,-95.81 8,-219.81 143,-219.81 143,-95.81 8,-95.81"/>
<polygon fill="#f5f5f5" stroke="transparent" points="8.5,-197.81 8.5,-219.81 143.5,-219.81 143.5,-197.81 8.5,-197.81"/>
<polygon fill="none" stroke="black" points="8.5,-197.81 8.5,-219.81 143.5,-219.81 143.5,-197.81 8.5,-197.81"/>
<text text-anchor="start" x="13.5" y="-207.01" font-family="Helvetica,sans-Serif" font-weight="bold" font-size="11.00">m_code_value</text>
<text text-anchor="start" x="108.5" y="-206.01" font-family="Helvetica,sans-Serif" font-size="11.00">[table]</text>
<polygon fill="none" stroke="black" points="8.5,-175.81 8.5,-197.81 143.5,-197.81 143.5,-175.81 8.5,-175.81"/>
<image xlink:href="../../images/primaryKeys.png" width="11px" height="12px" preserveAspectRatio="xMinYMin meet" x="13.5" y="-192.809"/>
<text text-anchor="start" x="28.5" y="-184.01" font-family="Helvetica,sans-Serif" font-size="11.00">id</text>
<polygon fill="#ffffff" stroke="transparent" points="8.5,-153.81 8.5,-175.81 143.5,-175.81 143.5,-153.81 8.5,-153.81"/>
<polygon fill="none" stroke="black" points="8.5,-153.81 8.5,-175.81 143.5,-175.81 143.5,-153.81 8.5,-153.81"/>
<image xlink:href="../../images/foreignKeys.png" width="11px" height="12px" preserveAspectRatio="xMinYMin meet" x="13.5" y="-170.809"/>
<text text-anchor="start" x="28.5" y="-162.01" font-family="Helvetica,sans-Serif" font-size="11.00">code_id</text>
<polygon fill="#ffffff" stroke="transparent" points="8.5,-131.81 8.5,-153.81 143.5,-153.81 143.5,-131.81 8.5,-131.81"/>
<polygon fill="none" stroke="black" points="8.5,-131.81 8.5,-153.81 143.5,-153.81 143.5,-131.81 8.5,-131.81"/>
<text text-anchor="start" x="28.5" y="-140.01" font-family="Helvetica,sans-Serif" font-size="11.00">code_value</text>
<polygon fill="none" stroke="black" points="8.5,-113.81 8.5,-131.81 143.5,-131.81 143.5,-113.81 8.5,-113.81"/>
<text text-anchor="start" x="11.5" y="-120.01" font-family="Helvetica,sans-Serif" font-size="11.00">...</text>
<polygon fill="#ffffff" stroke="transparent" points="8.5,-95.81 8.5,-113.81 53.5,-113.81 53.5,-95.81 8.5,-95.81"/>
<polygon fill="none" stroke="black" points="8.5,-95.81 8.5,-113.81 53.5,-113.81 53.5,-95.81 8.5,-95.81"/>
<text text-anchor="start" x="11.5" y="-102.01" font-family="Helvetica,sans-Serif" font-size="11.00">&lt; 1</text>
<polygon fill="#ffffff" stroke="transparent" points="53.5,-95.81 53.5,-113.81 103.5,-113.81 103.5,-95.81 53.5,-95.81"/>
<polygon fill="none" stroke="black" points="53.5,-95.81 53.5,-113.81 103.5,-113.81 103.5,-95.81 53.5,-95.81"/>
<text text-anchor="start" x="67.5" y="-102.01" font-family="Helvetica,sans-Serif" font-size="11.00">0 rows</text>
<polygon fill="#ffffff" stroke="transparent" points="103.5,-95.81 103.5,-113.81 143.5,-113.81 143.5,-95.81 103.5,-95.81"/>
<polygon fill="none" stroke="black" points="103.5,-95.81 103.5,-113.81 143.5,-113.81 143.5,-95.81 103.5,-95.81"/>
<text text-anchor="start" x="118.5" y="-102.01" font-family="Helvetica,sans-Serif" font-size="11.00">25 &gt;</text>
</a>
</g>
</g>
<!-- m_client&#45;&gt;m_code_value -->
<g id="edge1" class="edge">
<title>m_client:w&#45;&gt;m_code_value:e</title>
<path fill="none" stroke="black" d="M177.09,-177.83C166.51,-181 160.09,-186.81 144.5,-186.81"/>
<polygon fill="black" stroke="black" points="183.58,-176.92 192,-179.37 187.54,-176.36 191.5,-175.81 191.5,-175.81 191.5,-175.81 187.54,-176.36 191,-172.24 183.58,-176.92 183.58,-176.92"/>
<ellipse fill="none" stroke="black" cx="180.41" cy="-177.36" rx="3.2" ry="3.2"/>
</g>
<!-- m_client&#45;&gt;m_code_value -->
<g id="edge2" class="edge">
<title>m_client:w&#45;&gt;m_code_value:e</title>
<path fill="none" stroke="black" d="M177.09,-195.79C166.51,-192.62 160.09,-186.81 144.5,-186.81"/>
<polygon fill="black" stroke="black" points="183.58,-196.7 191,-201.37 187.54,-197.25 191.5,-197.81 191.5,-197.81 191.5,-197.81 187.54,-197.25 192,-194.24 183.58,-196.7 183.58,-196.7"/>
<ellipse fill="none" stroke="black" cx="180.41" cy="-196.26" rx="3.2" ry="3.2"/>
</g>
<!-- m_client&#45;&gt;m_code_value -->
<g id="edge3" class="edge">
<title>m_client:w&#45;&gt;m_code_value:e</title>
<path fill="none" stroke="black" d="M177.76,-258.99C159.82,-242.13 178.49,-186.81 144.5,-186.81"/>
<polygon fill="black" stroke="black" points="183.95,-261.16 190.31,-267.21 187.73,-262.49 191.5,-263.81 191.5,-263.81 191.5,-263.81 187.73,-262.49 192.69,-260.41 183.95,-261.16 183.95,-261.16"/>
<ellipse fill="none" stroke="black" cx="180.93" cy="-260.1" rx="3.2" ry="3.2"/>
</g>
<!-- m_client&#45;&gt;m_code_value -->
<g id="edge4" class="edge">
<title>m_client:w&#45;&gt;m_code_value:e</title>
<path fill="none" stroke="black" d="M177.16,-304.05C146.83,-283.63 196.11,-186.81 144.5,-186.81"/>
<polygon fill="black" stroke="black" points="183.76,-305.78 190.59,-311.29 187.63,-306.8 191.5,-307.81 191.5,-307.81 191.5,-307.81 187.63,-306.8 192.41,-304.33 183.76,-305.78 183.76,-305.78"/>
<ellipse fill="none" stroke="black" cx="180.66" cy="-304.97" rx="3.2" ry="3.2"/>
</g>
<!-- m_client&#45;&gt;m_code_value -->
<g id="edge5" class="edge">
<title>m_client:w&#45;&gt;m_code_value:e</title>
<path fill="none" stroke="black" d="M177.67,-158.4C166.25,-167.46 164.04,-186.81 144.5,-186.81"/>
<polygon fill="black" stroke="black" points="183.91,-156.33 192.63,-157.23 187.7,-155.07 191.5,-153.81 191.5,-153.81 191.5,-153.81 187.7,-155.07 190.37,-150.39 183.91,-156.33 183.91,-156.33"/>
<ellipse fill="none" stroke="black" cx="180.87" cy="-157.33" rx="3.2" ry="3.2"/>
</g>
<!-- m_client&#45;&gt;m_code_value -->
<g id="edge6" class="edge">
<title>m_client:w&#45;&gt;m_code_value:e</title>
<path fill="none" stroke="black" d="M177.08,-415.95C103.13,-394.09 243.75,-186.81 144.5,-186.81"/>
<polygon fill="black" stroke="black" points="183.57,-416.79 191.04,-421.38 187.53,-417.3 191.5,-417.81 191.5,-417.81 191.5,-417.81 187.53,-417.3 191.96,-414.24 183.57,-416.79 183.57,-416.79"/>
<ellipse fill="none" stroke="black" cx="180.39" cy="-416.38" rx="3.2" ry="3.2"/>
</g>
<!-- m_client&#45;&gt;m_code_value -->
<g id="edge7" class="edge">
<title>m_client:w&#45;&gt;m_code_value:e</title>
<path fill="none" stroke="black" d="M177.98,-136.88C164.1,-150.5 170.63,-186.81 144.5,-186.81"/>
<polygon fill="black" stroke="black" points="184.01,-134.62 192.77,-135.18 187.76,-133.21 191.5,-131.81 191.5,-131.81 191.5,-131.81 187.76,-133.21 190.23,-128.44 184.01,-134.62 184.01,-134.62"/>
<ellipse fill="none" stroke="black" cx="181.01" cy="-135.74" rx="3.2" ry="3.2"/>
</g>
<!-- m_client_address -->
<g id="node3" class="node">
<title>m_client_address</title>
<g id="a_node3"><a xlink:href="../../tables/m_client_address.html" xlink:title="m_client_address" target="_top">
<polygon fill="#ffffff" stroke="transparent" points="434,-196.81 434,-350.81 624,-350.81 624,-196.81 434,-196.81"/>
<polygon fill="#f5f5f5" stroke="transparent" points="436,-326.81 436,-348.81 622,-348.81 622,-326.81 436,-326.81"/>
<polygon fill="none" stroke="black" points="436,-326.81 436,-348.81 622,-348.81 622,-326.81 436,-326.81"/>
<text text-anchor="start" x="441" y="-336.01" font-family="Helvetica,sans-Serif" font-weight="bold" font-size="11.00">m_client_address</text>
<text text-anchor="start" x="587" y="-335.01" font-family="Helvetica,sans-Serif" font-size="11.00">[table]</text>
<polygon fill="none" stroke="black" points="436,-304.81 436,-326.81 572,-326.81 572,-304.81 436,-304.81"/>
<image xlink:href="../../images/primaryKeys.png" width="11px" height="12px" preserveAspectRatio="xMinYMin meet" x="441" y="-321.809"/>
<text text-anchor="start" x="456" y="-313.01" font-family="Helvetica,sans-Serif" font-size="11.00">id</text>
<polygon fill="none" stroke="black" points="572,-304.81 572,-326.81 622,-326.81 622,-304.81 572,-304.81"/>
<text text-anchor="start" x="575" y="-313.01" font-family="Helvetica,sans-Serif" font-size="11.00">bigint[19]</text>
<polygon fill="#ffffff" stroke="transparent" points="436,-282.81 436,-304.81 572,-304.81 572,-282.81 436,-282.81"/>
<polygon fill="none" stroke="black" points="436,-282.81 436,-304.81 572,-304.81 572,-282.81 436,-282.81"/>
<image xlink:href="../../images/foreignKeys.png" width="11px" height="12px" preserveAspectRatio="xMinYMin meet" x="441" y="-299.809"/>
<text text-anchor="start" x="456" y="-291.01" font-family="Helvetica,sans-Serif" font-size="11.00">client_id</text>
<polygon fill="none" stroke="black" points="572,-282.81 572,-304.81 622,-304.81 622,-282.81 572,-282.81"/>
<text text-anchor="start" x="575" y="-291.01" font-family="Helvetica,sans-Serif" font-size="11.00">bigint[19]</text>
<polygon fill="#ffffff" stroke="transparent" points="436,-260.81 436,-282.81 572,-282.81 572,-260.81 436,-260.81"/>
<polygon fill="none" stroke="black" points="436,-260.81 436,-282.81 572,-282.81 572,-260.81 436,-260.81"/>
<text text-anchor="start" x="456" y="-269.01" font-family="Helvetica,sans-Serif" font-size="11.00">address_id</text>
<polygon fill="none" stroke="black" points="572,-260.81 572,-282.81 622,-282.81 622,-260.81 572,-260.81"/>
<text text-anchor="start" x="575" y="-269.01" font-family="Helvetica,sans-Serif" font-size="11.00">bigint[19]</text>
<polygon fill="#ffffff" stroke="transparent" points="436,-238.81 436,-260.81 572,-260.81 572,-238.81 436,-238.81"/>
<polygon fill="none" stroke="black" points="436,-238.81 436,-260.81 572,-260.81 572,-238.81 436,-238.81"/>
<image xlink:href="../../images/foreignKeys.png" width="11px" height="12px" preserveAspectRatio="xMinYMin meet" x="441" y="-255.809"/>
<text text-anchor="start" x="456" y="-247.01" font-family="Helvetica,sans-Serif" font-size="11.00">address_type_id</text>
<polygon fill="none" stroke="black" points="572,-238.81 572,-260.81 622,-260.81 622,-238.81 572,-238.81"/>
<text text-anchor="start" x="575" y="-247.01" font-family="Helvetica,sans-Serif" font-size="11.00">int[10]</text>
<polygon fill="none" stroke="black" points="436,-216.81 436,-238.81 572,-238.81 572,-216.81 436,-216.81"/>
<text text-anchor="start" x="456" y="-225.01" font-family="Helvetica,sans-Serif" font-size="11.00">is_active</text>
<polygon fill="none" stroke="black" points="572,-216.81 572,-238.81 622,-238.81 622,-216.81 572,-216.81"/>
<text text-anchor="start" x="575" y="-225.01" font-family="Helvetica,sans-Serif" font-size="11.00">bit[1]</text>
<polygon fill="#ffffff" stroke="transparent" points="436,-198.81 436,-216.81 495,-216.81 495,-198.81 436,-198.81"/>
<polygon fill="none" stroke="black" points="436,-198.81 436,-216.81 495,-216.81 495,-198.81 436,-198.81"/>
<text text-anchor="start" x="439" y="-205.01" font-family="Helvetica,sans-Serif" font-size="11.00">&lt; 2</text>
<polygon fill="#ffffff" stroke="transparent" points="495,-198.81 495,-216.81 572,-216.81 572,-198.81 495,-198.81"/>
<polygon fill="none" stroke="black" points="495,-198.81 495,-216.81 572,-216.81 572,-198.81 495,-198.81"/>
<text text-anchor="start" x="536" y="-205.01" font-family="Helvetica,sans-Serif" font-size="11.00">0 rows</text>
<polygon fill="#ffffff" stroke="transparent" points="572,-198.81 572,-216.81 622,-216.81 622,-198.81 572,-198.81"/>
<polygon fill="none" stroke="black" points="572,-198.81 572,-216.81 622,-216.81 622,-198.81 572,-198.81"/>
<text text-anchor="start" x="603" y="-205.01" font-family="Helvetica,sans-Serif" font-size="11.00">0 &gt;</text>
<polygon fill="none" stroke="black" stroke-width="2" points="435,-197.81 435,-349.81 623,-349.81 623,-197.81 435,-197.81"/>
</a>
</g>
</g>
<!-- m_client_address&#45;&gt;m_client -->
<g id="edge9" class="edge">
<title>m_client_address:w&#45;&gt;m_client:e</title>
<path fill="none" stroke="black" d="M420.69,-296.07C363.18,-317.51 468.03,-483.81 386.5,-483.81"/>
<polygon fill="black" stroke="black" points="427.1,-295.06 435.56,-297.36 431.05,-294.43 435,-293.81 435,-293.81 435,-293.81 431.05,-294.43 434.44,-290.25 427.1,-295.06 427.1,-295.06"/>
<ellipse fill="none" stroke="black" cx="423.94" cy="-295.56" rx="3.2" ry="3.2"/>
</g>
<!-- m_client_address&#45;&gt;m_code_value -->
<g id="edge8" class="edge">
<title>m_client_address:w&#45;&gt;m_code_value:e</title>
<path fill="none" stroke="black" d="M420.69,-248.02C368.38,-232.54 451.4,-120.85 393,-74.81 320.05,-17.3 259.82,-21.15 184,-74.81 140.91,-105.3 197.28,-186.81 144.5,-186.81"/>
<polygon fill="black" stroke="black" points="427.06,-248.82 434.55,-253.38 431.03,-249.31 435,-249.81 435,-249.81 435,-249.81 431.03,-249.31 435.45,-246.24 427.06,-248.82 427.06,-248.82"/>
<ellipse fill="none" stroke="black" cx="423.89" cy="-248.42" rx="3.2" ry="3.2"/>
</g>
</g>
</svg>
