<?xml version="1.0" encoding="UTF-8" standalone="no"?>
<!DOCTYPE svg PUBLIC "-//W3C//DTD SVG 1.1//EN"
 "http://www.w3.org/Graphics/SVG/1.1/DTD/svg11.dtd">
<!-- Generated by graphviz version 2.43.0 (0)
 -->
<!-- Title: twoDegreesRelationshipsDiagram Pages: 1 -->
<svg width="703pt" height="401pt"
 viewBox="0.00 0.00 703.00 401.00" xmlns="http://www.w3.org/2000/svg" xmlns:xlink="http://www.w3.org/1999/xlink">
<g id="graph0" class="graph" transform="scale(1 1) rotate(0) translate(4 397)">
<title>twoDegreesRelationshipsDiagram</title>
<polygon fill="#ffffff" stroke="transparent" points="-4,4 -4,-397 699,-397 699,4 -4,4"/>
<text text-anchor="middle" x="71.5" y="-7.2" font-family="Helvetica,sans-Serif" font-size="11.00">Generated by SchemaSpy</text>
<!-- acc_gl_journal_entry -->
<g id="node1" class="node">
<title>acc_gl_journal_entry</title>
<g id="a_node1"><a xlink:href="../../tables/acc_gl_journal_entry.html" xlink:title="acc_gl_journal_entry" target="_top">
<polygon fill="#ffffff" stroke="transparent" points="479.5,-331 479.5,-389 633.5,-389 633.5,-331 479.5,-331"/>
<polygon fill="#f5f5f5" stroke="transparent" points="479.5,-367 479.5,-389 633.5,-389 633.5,-367 479.5,-367"/>
<polygon fill="none" stroke="black" points="479.5,-367 479.5,-389 633.5,-389 633.5,-367 479.5,-367"/>
<text text-anchor="start" x="484.5" y="-376.2" font-family="Helvetica,sans-Serif" font-weight="bold" font-size="11.00">acc_gl_journal_entry</text>
<text text-anchor="start" x="598.5" y="-375.2" font-family="Helvetica,sans-Serif" font-size="11.00">[table]</text>
<polygon fill="none" stroke="black" points="479.5,-349 479.5,-367 633.5,-367 633.5,-349 479.5,-349"/>
<text text-anchor="start" x="482.5" y="-355.2" font-family="Helvetica,sans-Serif" font-size="11.00">...</text>
<polygon fill="#ffffff" stroke="transparent" points="479.5,-331 479.5,-349 539.5,-349 539.5,-331 479.5,-331"/>
<polygon fill="none" stroke="black" points="479.5,-331 479.5,-349 539.5,-349 539.5,-331 479.5,-331"/>
<text text-anchor="start" x="482.5" y="-337.2" font-family="Helvetica,sans-Serif" font-size="11.00">&lt; 10</text>
<polygon fill="#ffffff" stroke="transparent" points="539.5,-331 539.5,-349 594.5,-349 594.5,-331 539.5,-331"/>
<polygon fill="none" stroke="black" points="539.5,-331 539.5,-349 594.5,-349 594.5,-331 539.5,-331"/>
<text text-anchor="start" x="558.5" y="-337.2" font-family="Helvetica,sans-Serif" font-size="11.00">0 rows</text>
<polygon fill="#ffffff" stroke="transparent" points="594.5,-331 594.5,-349 633.5,-349 633.5,-331 594.5,-331"/>
<polygon fill="none" stroke="black" points="594.5,-331 594.5,-349 633.5,-349 633.5,-331 594.5,-331"/>
<text text-anchor="start" x="614.5" y="-337.2" font-family="Helvetica,sans-Serif" font-size="11.00">1 &gt;</text>
</a>
</g>
</g>
<!-- m_client_transaction -->
<g id="node2" class="node">
<title>m_client_transaction</title>
<g id="a_node2"><a xlink:href="../../tables/m_client_transaction.html" xlink:title="m_client_transaction" target="_top">
<polygon fill="#ffffff" stroke="transparent" points="179.5,-182 179.5,-328 357.5,-328 357.5,-182 179.5,-182"/>
<polygon fill="#f5f5f5" stroke="transparent" points="179.5,-306 179.5,-328 357.5,-328 357.5,-306 179.5,-306"/>
<polygon fill="none" stroke="black" points="179.5,-306 179.5,-328 357.5,-328 357.5,-306 179.5,-306"/>
<text text-anchor="start" x="184.5" y="-315.2" font-family="Helvetica,sans-Serif" font-weight="bold" font-size="11.00">m_client_transaction</text>
<text text-anchor="start" x="322.5" y="-314.2" font-family="Helvetica,sans-Serif" font-size="11.00">[table]</text>
<polygon fill="none" stroke="black" points="179.5,-284 179.5,-306 357.5,-306 357.5,-284 179.5,-284"/>
<image xlink:href="../../images/primaryKeys.png" width="11px" height="12px" preserveAspectRatio="xMinYMin meet" x="184.5" y="-301"/>
<text text-anchor="start" x="199.5" y="-292.2" font-family="Helvetica,sans-Serif" font-size="11.00">id</text>
<polygon fill="#ffffff" stroke="transparent" points="179.5,-262 179.5,-284 357.5,-284 357.5,-262 179.5,-262"/>
<polygon fill="none" stroke="black" points="179.5,-262 179.5,-284 357.5,-284 357.5,-262 179.5,-262"/>
<image xlink:href="../../images/foreignKeys.png" width="11px" height="12px" preserveAspectRatio="xMinYMin meet" x="184.5" y="-279"/>
<text text-anchor="start" x="199.5" y="-270.2" font-family="Helvetica,sans-Serif" font-size="11.00">client_id</text>
<polygon fill="#ffffff" stroke="transparent" points="179.5,-240 179.5,-262 357.5,-262 357.5,-240 179.5,-240"/>
<polygon fill="none" stroke="black" points="179.5,-240 179.5,-262 357.5,-262 357.5,-240 179.5,-240"/>
<text text-anchor="start" x="199.5" y="-248.2" font-family="Helvetica,sans-Serif" font-size="11.00">external_id</text>
<polygon fill="#ffffff" stroke="transparent" points="179.5,-218 179.5,-240 357.5,-240 357.5,-218 179.5,-218"/>
<polygon fill="none" stroke="black" points="179.5,-218 179.5,-240 357.5,-240 357.5,-218 179.5,-218"/>
<image xlink:href="../../images/foreignKeys.png" width="11px" height="12px" preserveAspectRatio="xMinYMin meet" x="184.5" y="-235"/>
<text text-anchor="start" x="199.5" y="-226.2" font-family="Helvetica,sans-Serif" font-size="11.00">appuser_id</text>
<polygon fill="none" stroke="black" points="179.5,-200 179.5,-218 357.5,-218 357.5,-200 179.5,-200"/>
<text text-anchor="start" x="182.5" y="-206.2" font-family="Helvetica,sans-Serif" font-size="11.00">...</text>
<polygon fill="#ffffff" stroke="transparent" points="179.5,-182 179.5,-200 248.5,-200 248.5,-182 179.5,-182"/>
<polygon fill="none" stroke="black" points="179.5,-182 179.5,-200 248.5,-200 248.5,-182 179.5,-182"/>
<text text-anchor="start" x="182.5" y="-188.2" font-family="Helvetica,sans-Serif" font-size="11.00">&lt; 2</text>
<polygon fill="#ffffff" stroke="transparent" points="248.5,-182 248.5,-200 311.5,-200 311.5,-182 248.5,-182"/>
<polygon fill="none" stroke="black" points="248.5,-182 248.5,-200 311.5,-200 311.5,-182 248.5,-182"/>
<text text-anchor="start" x="275.5" y="-188.2" font-family="Helvetica,sans-Serif" font-size="11.00">0 rows</text>
<polygon fill="#ffffff" stroke="transparent" points="311.5,-182 311.5,-200 357.5,-200 357.5,-182 311.5,-182"/>
<polygon fill="none" stroke="black" points="311.5,-182 311.5,-200 357.5,-200 357.5,-182 311.5,-182"/>
<text text-anchor="start" x="338.5" y="-188.2" font-family="Helvetica,sans-Serif" font-size="11.00">2 &gt;</text>
</a>
</g>
</g>
<!-- acc_gl_journal_entry&#45;&gt;m_client_transaction -->
<g id="edge1" class="edge">
<title>acc_gl_journal_entry:w&#45;&gt;m_client_transaction:e</title>
<path fill="none" stroke="black" d="M463.94,-356.63C417.88,-347.41 413.44,-295 358.5,-295"/>
<polygon fill="black" stroke="black" points="470.54,-357.25 478.16,-361.58 474.52,-357.62 478.5,-358 478.5,-358 478.5,-358 474.52,-357.62 478.84,-354.42 470.54,-357.25 470.54,-357.25"/>
<ellipse fill="none" stroke="black" cx="467.35" cy="-356.95" rx="3.2" ry="3.2"/>
</g>
<!-- m_appuser -->
<g id="node3" class="node">
<title>m_appuser</title>
<g id="a_node3"><a xlink:href="../../tables/m_appuser.html" xlink:title="m_appuser" target="_top">
<polygon fill="#ffffff" stroke="transparent" points="8,-331 8,-389 111,-389 111,-331 8,-331"/>
<polygon fill="#f5f5f5" stroke="transparent" points="8.5,-367 8.5,-389 111.5,-389 111.5,-367 8.5,-367"/>
<polygon fill="none" stroke="black" points="8.5,-367 8.5,-389 111.5,-389 111.5,-367 8.5,-367"/>
<text text-anchor="start" x="13.5" y="-376.2" font-family="Helvetica,sans-Serif" font-weight="bold" font-size="11.00">m_appuser</text>
<text text-anchor="start" x="76.5" y="-375.2" font-family="Helvetica,sans-Serif" font-size="11.00">[table]</text>
<polygon fill="none" stroke="black" points="8.5,-349 8.5,-367 111.5,-367 111.5,-349 8.5,-349"/>
<text text-anchor="start" x="11.5" y="-355.2" font-family="Helvetica,sans-Serif" font-size="11.00">...</text>
<polygon fill="#ffffff" stroke="transparent" points="8.5,-331 8.5,-349 37.5,-349 37.5,-331 8.5,-331"/>
<polygon fill="none" stroke="black" points="8.5,-331 8.5,-349 37.5,-349 37.5,-331 8.5,-331"/>
<text text-anchor="start" x="11.5" y="-337.2" font-family="Helvetica,sans-Serif" font-size="11.00">&lt; 2</text>
<polygon fill="#ffffff" stroke="transparent" points="37.5,-331 37.5,-349 79.5,-349 79.5,-331 37.5,-331"/>
<polygon fill="none" stroke="black" points="37.5,-331 37.5,-349 79.5,-349 79.5,-331 37.5,-331"/>
<text text-anchor="start" x="43.5" y="-337.2" font-family="Helvetica,sans-Serif" font-size="11.00">0 rows</text>
<polygon fill="#ffffff" stroke="transparent" points="79.5,-331 79.5,-349 111.5,-349 111.5,-331 79.5,-331"/>
<polygon fill="none" stroke="black" points="79.5,-331 79.5,-349 111.5,-349 111.5,-331 79.5,-331"/>
<text text-anchor="start" x="86.5" y="-337.2" font-family="Helvetica,sans-Serif" font-size="11.00">57 &gt;</text>
</a>
</g>
</g>
<!-- acc_gl_journal_entry&#45;&gt;m_appuser -->
<g id="edge2" class="edge">
<title>acc_gl_journal_entry:w&#45;&gt;m_appuser:e</title>
<path fill="none" stroke="black" d="M464.06,-358C313.26,-358 270.24,-358 112.5,-358"/>
<polygon fill="black" stroke="black" points="470.5,-358 478.5,-361.6 474.5,-358 478.5,-358 478.5,-358 478.5,-358 474.5,-358 478.5,-354.4 470.5,-358 470.5,-358"/>
<ellipse fill="none" stroke="black" cx="467.3" cy="-358" rx="3.2" ry="3.2"/>
</g>
<!-- acc_gl_journal_entry&#45;&gt;m_appuser -->
<g id="edge3" class="edge">
<title>acc_gl_journal_entry:w&#45;&gt;m_appuser:e</title>
<path fill="none" stroke="black" d="M464.06,-358C313.26,-358 270.24,-358 112.5,-358"/>
<polygon fill="black" stroke="black" points="470.5,-358 478.5,-361.6 474.5,-358 478.5,-358 478.5,-358 478.5,-358 474.5,-358 478.5,-354.4 470.5,-358 470.5,-358"/>
<ellipse fill="none" stroke="black" cx="467.3" cy="-358" rx="3.2" ry="3.2"/>
</g>
<!-- m_client_transaction&#45;&gt;m_appuser -->
<g id="edge8" class="edge">
<title>m_client_transaction:w&#45;&gt;m_appuser:e</title>
<path fill="none" stroke="black" d="M164.29,-231.81C124.16,-250.68 171.24,-358 112.5,-358"/>
<polygon fill="black" stroke="black" points="170.65,-230.55 179.2,-232.53 174.58,-229.78 178.5,-229 178.5,-229 178.5,-229 174.58,-229.78 177.8,-225.47 170.65,-230.55 170.65,-230.55"/>
<ellipse fill="none" stroke="black" cx="167.51" cy="-231.18" rx="3.2" ry="3.2"/>
</g>
<!-- m_client -->
<g id="node6" class="node">
<title>m_client</title>
<g id="a_node6"><a xlink:href="../../tables/m_client.html" xlink:title="m_client" target="_top">
<polygon fill="#ffffff" stroke="transparent" points="12,-191 12,-249 107,-249 107,-191 12,-191"/>
<polygon fill="#f5f5f5" stroke="transparent" points="12.5,-227 12.5,-249 107.5,-249 107.5,-227 12.5,-227"/>
<polygon fill="none" stroke="black" points="12.5,-227 12.5,-249 107.5,-249 107.5,-227 12.5,-227"/>
<text text-anchor="start" x="17.5" y="-236.2" font-family="Helvetica,sans-Serif" font-weight="bold" font-size="11.00">m_client</text>
<text text-anchor="start" x="72.5" y="-235.2" font-family="Helvetica,sans-Serif" font-size="11.00">[table]</text>
<polygon fill="none" stroke="black" points="12.5,-209 12.5,-227 107.5,-227 107.5,-209 12.5,-209"/>
<text text-anchor="start" x="15.5" y="-215.2" font-family="Helvetica,sans-Serif" font-size="11.00">...</text>
<polygon fill="#ffffff" stroke="transparent" points="12.5,-191 12.5,-209 40.5,-209 40.5,-191 12.5,-191"/>
<polygon fill="none" stroke="black" points="12.5,-191 12.5,-209 40.5,-209 40.5,-191 12.5,-191"/>
<text text-anchor="start" x="15.5" y="-197.2" font-family="Helvetica,sans-Serif" font-size="11.00">&lt; 13</text>
<polygon fill="#ffffff" stroke="transparent" points="40.5,-191 40.5,-209 79.5,-209 79.5,-191 40.5,-191"/>
<polygon fill="none" stroke="black" points="40.5,-191 40.5,-209 79.5,-209 79.5,-191 40.5,-191"/>
<text text-anchor="start" x="43.5" y="-197.2" font-family="Helvetica,sans-Serif" font-size="11.00">0 rows</text>
<polygon fill="#ffffff" stroke="transparent" points="79.5,-191 79.5,-209 107.5,-209 107.5,-191 79.5,-191"/>
<polygon fill="none" stroke="black" points="79.5,-191 79.5,-209 107.5,-209 107.5,-191 79.5,-191"/>
<text text-anchor="start" x="82.5" y="-197.2" font-family="Helvetica,sans-Serif" font-size="11.00">23 &gt;</text>
</a>
</g>
</g>
<!-- m_client_transaction&#45;&gt;m_client -->
<g id="edge9" class="edge">
<title>m_client_transaction:w&#45;&gt;m_client:e</title>
<path fill="none" stroke="black" d="M164.1,-269.89C140.56,-258.25 142.35,-218 108.5,-218"/>
<polygon fill="black" stroke="black" points="170.68,-271.31 177.74,-276.52 174.59,-272.15 178.5,-273 178.5,-273 178.5,-273 174.59,-272.15 179.26,-269.48 170.68,-271.31 170.68,-271.31"/>
<ellipse fill="none" stroke="black" cx="167.55" cy="-270.63" rx="3.2" ry="3.2"/>
</g>
<!-- m_client_charge -->
<g id="node4" class="node">
<title>m_client_charge</title>
<g id="a_node4"><a xlink:href="../../tables/m_client_charge.html" xlink:title="m_client_charge" target="_top">
<polygon fill="#ffffff" stroke="transparent" points="160,-37 160,-161 377,-161 377,-37 160,-37"/>
<polygon fill="#f5f5f5" stroke="transparent" points="160.5,-139 160.5,-161 377.5,-161 377.5,-139 160.5,-139"/>
<polygon fill="none" stroke="black" points="160.5,-139 160.5,-161 377.5,-161 377.5,-139 160.5,-139"/>
<text text-anchor="start" x="165.5" y="-148.2" font-family="Helvetica,sans-Serif" font-weight="bold" font-size="11.00">m_client_charge</text>
<text text-anchor="start" x="342.5" y="-147.2" font-family="Helvetica,sans-Serif" font-size="11.00">[table]</text>
<polygon fill="none" stroke="black" points="160.5,-117 160.5,-139 377.5,-139 377.5,-117 160.5,-117"/>
<image xlink:href="../../images/primaryKeys.png" width="11px" height="12px" preserveAspectRatio="xMinYMin meet" x="165.5" y="-134"/>
<text text-anchor="start" x="180.5" y="-125.2" font-family="Helvetica,sans-Serif" font-size="11.00">id</text>
<polygon fill="#ffffff" stroke="transparent" points="160.5,-95 160.5,-117 377.5,-117 377.5,-95 160.5,-95"/>
<polygon fill="none" stroke="black" points="160.5,-95 160.5,-117 377.5,-117 377.5,-95 160.5,-95"/>
<image xlink:href="../../images/foreignKeys.png" width="11px" height="12px" preserveAspectRatio="xMinYMin meet" x="165.5" y="-112"/>
<text text-anchor="start" x="180.5" y="-103.2" font-family="Helvetica,sans-Serif" font-size="11.00">client_id</text>
<polygon fill="#ffffff" stroke="transparent" points="160.5,-73 160.5,-95 377.5,-95 377.5,-73 160.5,-73"/>
<polygon fill="none" stroke="black" points="160.5,-73 160.5,-95 377.5,-95 377.5,-73 160.5,-73"/>
<image xlink:href="../../images/foreignKeys.png" width="11px" height="12px" preserveAspectRatio="xMinYMin meet" x="165.5" y="-90"/>
<text text-anchor="start" x="180.5" y="-81.2" font-family="Helvetica,sans-Serif" font-size="11.00">charge_id</text>
<polygon fill="none" stroke="black" points="160.5,-55 160.5,-73 377.5,-73 377.5,-55 160.5,-55"/>
<text text-anchor="start" x="163.5" y="-61.2" font-family="Helvetica,sans-Serif" font-size="11.00">...</text>
<polygon fill="#ffffff" stroke="transparent" points="160.5,-37 160.5,-55 249.5,-55 249.5,-37 160.5,-37"/>
<polygon fill="none" stroke="black" points="160.5,-37 160.5,-55 249.5,-55 249.5,-37 160.5,-37"/>
<text text-anchor="start" x="163.5" y="-43.2" font-family="Helvetica,sans-Serif" font-size="11.00">&lt; 2</text>
<polygon fill="#ffffff" stroke="transparent" points="249.5,-37 249.5,-55 321.5,-55 321.5,-37 249.5,-37"/>
<polygon fill="none" stroke="black" points="249.5,-37 249.5,-55 321.5,-55 321.5,-37 249.5,-37"/>
<text text-anchor="start" x="285.5" y="-43.2" font-family="Helvetica,sans-Serif" font-size="11.00">0 rows</text>
<polygon fill="#ffffff" stroke="transparent" points="321.5,-37 321.5,-55 377.5,-55 377.5,-37 321.5,-37"/>
<polygon fill="none" stroke="black" points="321.5,-37 321.5,-55 377.5,-55 377.5,-37 321.5,-37"/>
<text text-anchor="start" x="358.5" y="-43.2" font-family="Helvetica,sans-Serif" font-size="11.00">1 &gt;</text>
</a>
</g>
</g>
<!-- m_charge -->
<g id="node5" class="node">
<title>m_charge</title>
<g id="a_node5"><a xlink:href="../../tables/m_charge.html" xlink:title="m_charge" target="_top">
<polygon fill="#ffffff" stroke="transparent" points="11.5,-57 11.5,-115 107.5,-115 107.5,-57 11.5,-57"/>
<polygon fill="#f5f5f5" stroke="transparent" points="11.5,-93 11.5,-115 107.5,-115 107.5,-93 11.5,-93"/>
<polygon fill="none" stroke="black" points="11.5,-93 11.5,-115 107.5,-115 107.5,-93 11.5,-93"/>
<text text-anchor="start" x="16.5" y="-102.2" font-family="Helvetica,sans-Serif" font-weight="bold" font-size="11.00">m_charge</text>
<text text-anchor="start" x="72.5" y="-101.2" font-family="Helvetica,sans-Serif" font-size="11.00">[table]</text>
<polygon fill="none" stroke="black" points="11.5,-75 11.5,-93 107.5,-93 107.5,-75 11.5,-75"/>
<text text-anchor="start" x="14.5" y="-81.2" font-family="Helvetica,sans-Serif" font-size="11.00">...</text>
<polygon fill="#ffffff" stroke="transparent" points="11.5,-57 11.5,-75 39.5,-75 39.5,-57 11.5,-57"/>
<polygon fill="none" stroke="black" points="11.5,-57 11.5,-75 39.5,-75 39.5,-57 11.5,-57"/>
<text text-anchor="start" x="14.5" y="-63.2" font-family="Helvetica,sans-Serif" font-size="11.00">&lt; 3</text>
<polygon fill="#ffffff" stroke="transparent" points="39.5,-57 39.5,-75 81.5,-75 81.5,-57 39.5,-57"/>
<polygon fill="none" stroke="black" points="39.5,-57 39.5,-75 81.5,-75 81.5,-57 39.5,-57"/>
<text text-anchor="start" x="45.5" y="-63.2" font-family="Helvetica,sans-Serif" font-size="11.00">0 rows</text>
<polygon fill="#ffffff" stroke="transparent" points="81.5,-57 81.5,-75 107.5,-75 107.5,-57 81.5,-57"/>
<polygon fill="none" stroke="black" points="81.5,-57 81.5,-75 107.5,-75 107.5,-57 81.5,-57"/>
<text text-anchor="start" x="88.5" y="-63.2" font-family="Helvetica,sans-Serif" font-size="11.00">9 &gt;</text>
</a>
</g>
</g>
<!-- m_client_charge&#45;&gt;m_charge -->
<g id="edge4" class="edge">
<title>m_client_charge:w&#45;&gt;m_charge:e</title>
<path fill="none" stroke="black" d="M144.78,-84C132.78,-84 125.32,-84 108.5,-84"/>
<polygon fill="black" stroke="black" points="151.5,-84 159.5,-87.6 155.5,-84 159.5,-84 159.5,-84 159.5,-84 155.5,-84 159.5,-80.4 151.5,-84 151.5,-84"/>
<ellipse fill="none" stroke="black" cx="148.3" cy="-84" rx="3.2" ry="3.2"/>
</g>
<!-- m_client_charge&#45;&gt;m_client -->
<g id="edge5" class="edge">
<title>m_client_charge:w&#45;&gt;m_client:e</title>
<path fill="none" stroke="black" d="M145.32,-109.73C116.22,-129.16 157.21,-218 108.5,-218"/>
<polygon fill="black" stroke="black" points="151.76,-108.03 160.41,-109.48 155.63,-107.02 159.5,-106 159.5,-106 159.5,-106 155.63,-107.02 158.59,-102.52 151.76,-108.03 151.76,-108.03"/>
<ellipse fill="none" stroke="black" cx="148.67" cy="-108.85" rx="3.2" ry="3.2"/>
</g>
<!-- m_client_charge_paid_by -->
<g id="node7" class="node">
<title>m_client_charge_paid_by</title>
<g id="a_node7"><a xlink:href="../../tables/m_client_charge_paid_by.html" xlink:title="m_client_charge_paid_by" target="_top">
<polygon fill="#ffffff" stroke="transparent" points="426,-127 426,-259 687,-259 687,-127 426,-127"/>
<polygon fill="#f5f5f5" stroke="transparent" points="428.5,-235 428.5,-257 685.5,-257 685.5,-235 428.5,-235"/>
<polygon fill="none" stroke="black" points="428.5,-235 428.5,-257 685.5,-257 685.5,-235 428.5,-235"/>
<text text-anchor="start" x="433.5" y="-244.2" font-family="Helvetica,sans-Serif" font-weight="bold" font-size="11.00">m_client_charge_paid_by</text>
<text text-anchor="start" x="650.5" y="-243.2" font-family="Helvetica,sans-Serif" font-size="11.00">[table]</text>
<polygon fill="none" stroke="black" points="428.5,-213 428.5,-235 615.5,-235 615.5,-213 428.5,-213"/>
<image xlink:href="../../images/primaryKeys.png" width="11px" height="12px" preserveAspectRatio="xMinYMin meet" x="433.5" y="-230"/>
<text text-anchor="start" x="448.5" y="-221.2" font-family="Helvetica,sans-Serif" font-size="11.00">id</text>
<polygon fill="none" stroke="black" points="615.5,-213 615.5,-235 685.5,-235 685.5,-213 615.5,-213"/>
<text text-anchor="start" x="618.5" y="-221.2" font-family="Helvetica,sans-Serif" font-size="11.00">bigint[19]</text>
<polygon fill="#ffffff" stroke="transparent" points="428.5,-191 428.5,-213 615.5,-213 615.5,-191 428.5,-191"/>
<polygon fill="none" stroke="black" points="428.5,-191 428.5,-213 615.5,-213 615.5,-191 428.5,-191"/>
<image xlink:href="../../images/foreignKeys.png" width="11px" height="12px" preserveAspectRatio="xMinYMin meet" x="433.5" y="-208"/>
<text text-anchor="start" x="448.5" y="-199.2" font-family="Helvetica,sans-Serif" font-size="11.00">client_transaction_id</text>
<polygon fill="none" stroke="black" points="615.5,-191 615.5,-213 685.5,-213 685.5,-191 615.5,-191"/>
<text text-anchor="start" x="618.5" y="-199.2" font-family="Helvetica,sans-Serif" font-size="11.00">bigint[19]</text>
<polygon fill="#ffffff" stroke="transparent" points="428.5,-169 428.5,-191 615.5,-191 615.5,-169 428.5,-169"/>
<polygon fill="none" stroke="black" points="428.5,-169 428.5,-191 615.5,-191 615.5,-169 428.5,-169"/>
<image xlink:href="../../images/foreignKeys.png" width="11px" height="12px" preserveAspectRatio="xMinYMin meet" x="433.5" y="-186"/>
<text text-anchor="start" x="448.5" y="-177.2" font-family="Helvetica,sans-Serif" font-size="11.00">client_charge_id</text>
<polygon fill="none" stroke="black" points="615.5,-169 615.5,-191 685.5,-191 685.5,-169 615.5,-169"/>
<text text-anchor="start" x="618.5" y="-177.2" font-family="Helvetica,sans-Serif" font-size="11.00">bigint[19]</text>
<polygon fill="none" stroke="black" points="428.5,-147 428.5,-169 615.5,-169 615.5,-147 428.5,-147"/>
<text text-anchor="start" x="448.5" y="-155.2" font-family="Helvetica,sans-Serif" font-size="11.00">amount</text>
<polygon fill="none" stroke="black" points="615.5,-147 615.5,-169 685.5,-169 685.5,-147 615.5,-147"/>
<text text-anchor="start" x="618.5" y="-155.2" font-family="Helvetica,sans-Serif" font-size="11.00">decimal[19,6]</text>
<polygon fill="#ffffff" stroke="transparent" points="428.5,-129 428.5,-147 513.5,-147 513.5,-129 428.5,-129"/>
<polygon fill="none" stroke="black" points="428.5,-129 428.5,-147 513.5,-147 513.5,-129 428.5,-129"/>
<text text-anchor="start" x="431.5" y="-135.2" font-family="Helvetica,sans-Serif" font-size="11.00">&lt; 2</text>
<polygon fill="#ffffff" stroke="transparent" points="513.5,-129 513.5,-147 615.5,-147 615.5,-129 513.5,-129"/>
<polygon fill="none" stroke="black" points="513.5,-129 513.5,-147 615.5,-147 615.5,-129 513.5,-129"/>
<text text-anchor="start" x="579.5" y="-135.2" font-family="Helvetica,sans-Serif" font-size="11.00">0 rows</text>
<polygon fill="#ffffff" stroke="transparent" points="615.5,-129 615.5,-147 685.5,-147 685.5,-129 615.5,-129"/>
<polygon fill="none" stroke="black" points="615.5,-129 615.5,-147 685.5,-147 685.5,-129 615.5,-129"/>
<text text-anchor="start" x="666.5" y="-135.2" font-family="Helvetica,sans-Serif" font-size="11.00">0 &gt;</text>
<polygon fill="none" stroke="black" stroke-width="2" points="427,-128 427,-258 686,-258 686,-128 427,-128"/>
</a>
</g>
</g>
<!-- m_client_charge_paid_by&#45;&gt;m_client_transaction -->
<g id="edge7" class="edge">
<title>m_client_charge_paid_by:w&#45;&gt;m_client_transaction:e</title>
<path fill="none" stroke="black" d="M413.05,-205.31C382.63,-221.88 404.14,-295 358.5,-295"/>
<polygon fill="black" stroke="black" points="419.7,-203.79 428.3,-205.51 423.6,-202.89 427.5,-202 427.5,-202 427.5,-202 423.6,-202.89 426.7,-198.49 419.7,-203.79 419.7,-203.79"/>
<ellipse fill="none" stroke="black" cx="416.58" cy="-204.5" rx="3.2" ry="3.2"/>
</g>
<!-- m_client_charge_paid_by&#45;&gt;m_client_charge -->
<g id="edge6" class="edge">
<title>m_client_charge_paid_by:w&#45;&gt;m_client_charge:e</title>
<path fill="none" stroke="black" d="M413.91,-175.2C399.56,-162.33 404.3,-128 378.5,-128"/>
<polygon fill="black" stroke="black" points="419.96,-177.34 426.3,-183.39 423.73,-178.67 427.5,-180 427.5,-180 427.5,-180 423.73,-178.67 428.7,-176.61 419.96,-177.34 419.96,-177.34"/>
<ellipse fill="none" stroke="black" cx="416.94" cy="-176.27" rx="3.2" ry="3.2"/>
</g>
</g>
</svg>
