<?xml version="1.0" encoding="UTF-8" standalone="no"?>
<!DOCTYPE svg PUBLIC "-//W3C//DTD SVG 1.1//EN"
 "http://www.w3.org/Graphics/SVG/1.1/DTD/svg11.dtd">
<!-- Generated by graphviz version 2.43.0 (0)
 -->
<!-- Title: oneDegreeRelationshipsDiagram Pages: 1 -->
<svg width="856pt" height="670pt"
 viewBox="0.00 0.00 856.00 670.00" xmlns="http://www.w3.org/2000/svg" xmlns:xlink="http://www.w3.org/1999/xlink">
<g id="graph0" class="graph" transform="scale(1 1) rotate(0) translate(4 666)">
<title>oneDegreeRelationshipsDiagram</title>
<polygon fill="#ffffff" stroke="transparent" points="-4,4 -4,-666 852,-666 852,4 -4,4"/>
<text text-anchor="middle" x="71.5" y="-7.2" font-family="Helvetica,sans-Serif" font-size="11.00">Generated by SchemaSpy</text>
<!-- m_client_charge -->
<g id="node1" class="node">
<title>m_client_charge</title>
<g id="a_node1"><a xlink:href="../../tables/m_client_charge.html" xlink:title="m_client_charge" target="_top">
<polygon fill="#ffffff" stroke="transparent" points="313,-70 313,-466 604,-466 604,-70 313,-70"/>
<polygon fill="#f5f5f5" stroke="transparent" points="315.5,-442 315.5,-464 602.5,-464 602.5,-442 315.5,-442"/>
<polygon fill="none" stroke="black" points="315.5,-442 315.5,-464 602.5,-464 602.5,-442 315.5,-442"/>
<text text-anchor="start" x="320.5" y="-451.2" font-family="Helvetica,sans-Serif" font-weight="bold" font-size="11.00">m_client_charge</text>
<text text-anchor="start" x="567.5" y="-450.2" font-family="Helvetica,sans-Serif" font-size="11.00">[table]</text>
<polygon fill="none" stroke="black" points="315.5,-420 315.5,-442 532.5,-442 532.5,-420 315.5,-420"/>
<image xlink:href="../../images/primaryKeys.png" width="11px" height="12px" preserveAspectRatio="xMinYMin meet" x="320.5" y="-437"/>
<text text-anchor="start" x="335.5" y="-428.2" font-family="Helvetica,sans-Serif" font-size="11.00">id</text>
<polygon fill="none" stroke="black" points="532.5,-420 532.5,-442 602.5,-442 602.5,-420 532.5,-420"/>
<text text-anchor="start" x="535.5" y="-428.2" font-family="Helvetica,sans-Serif" font-size="11.00">bigint[19]</text>
<polygon fill="#ffffff" stroke="transparent" points="315.5,-398 315.5,-420 532.5,-420 532.5,-398 315.5,-398"/>
<polygon fill="none" stroke="black" points="315.5,-398 315.5,-420 532.5,-420 532.5,-398 315.5,-398"/>
<image xlink:href="../../images/foreignKeys.png" width="11px" height="12px" preserveAspectRatio="xMinYMin meet" x="320.5" y="-415"/>
<text text-anchor="start" x="335.5" y="-406.2" font-family="Helvetica,sans-Serif" font-size="11.00">client_id</text>
<polygon fill="none" stroke="black" points="532.5,-398 532.5,-420 602.5,-420 602.5,-398 532.5,-398"/>
<text text-anchor="start" x="535.5" y="-406.2" font-family="Helvetica,sans-Serif" font-size="11.00">bigint[19]</text>
<polygon fill="#ffffff" stroke="transparent" points="315.5,-376 315.5,-398 532.5,-398 532.5,-376 315.5,-376"/>
<polygon fill="none" stroke="black" points="315.5,-376 315.5,-398 532.5,-398 532.5,-376 315.5,-376"/>
<image xlink:href="../../images/foreignKeys.png" width="11px" height="12px" preserveAspectRatio="xMinYMin meet" x="320.5" y="-393"/>
<text text-anchor="start" x="335.5" y="-384.2" font-family="Helvetica,sans-Serif" font-size="11.00">charge_id</text>
<polygon fill="none" stroke="black" points="532.5,-376 532.5,-398 602.5,-398 602.5,-376 532.5,-376"/>
<text text-anchor="start" x="535.5" y="-384.2" font-family="Helvetica,sans-Serif" font-size="11.00">bigint[19]</text>
<polygon fill="none" stroke="black" points="315.5,-354 315.5,-376 532.5,-376 532.5,-354 315.5,-354"/>
<text text-anchor="start" x="335.5" y="-362.2" font-family="Helvetica,sans-Serif" font-size="11.00">is_penalty</text>
<polygon fill="none" stroke="black" points="532.5,-354 532.5,-376 602.5,-376 602.5,-354 532.5,-354"/>
<text text-anchor="start" x="535.5" y="-362.2" font-family="Helvetica,sans-Serif" font-size="11.00">bit[1]</text>
<polygon fill="none" stroke="black" points="315.5,-332 315.5,-354 532.5,-354 532.5,-332 315.5,-332"/>
<text text-anchor="start" x="335.5" y="-340.2" font-family="Helvetica,sans-Serif" font-size="11.00">charge_time_enum</text>
<polygon fill="none" stroke="black" points="532.5,-332 532.5,-354 602.5,-354 602.5,-332 532.5,-332"/>
<text text-anchor="start" x="535.5" y="-340.2" font-family="Helvetica,sans-Serif" font-size="11.00">smallint[5]</text>
<polygon fill="none" stroke="black" points="315.5,-310 315.5,-332 532.5,-332 532.5,-310 315.5,-310"/>
<text text-anchor="start" x="335.5" y="-318.2" font-family="Helvetica,sans-Serif" font-size="11.00">charge_due_date</text>
<polygon fill="none" stroke="black" points="532.5,-310 532.5,-332 602.5,-332 602.5,-310 532.5,-310"/>
<text text-anchor="start" x="535.5" y="-318.2" font-family="Helvetica,sans-Serif" font-size="11.00">date[10]</text>
<polygon fill="none" stroke="black" points="315.5,-288 315.5,-310 532.5,-310 532.5,-288 315.5,-288"/>
<text text-anchor="start" x="335.5" y="-296.2" font-family="Helvetica,sans-Serif" font-size="11.00">charge_calculation_enum</text>
<polygon fill="none" stroke="black" points="532.5,-288 532.5,-310 602.5,-310 602.5,-288 532.5,-288"/>
<text text-anchor="start" x="535.5" y="-296.2" font-family="Helvetica,sans-Serif" font-size="11.00">smallint[5]</text>
<polygon fill="none" stroke="black" points="315.5,-266 315.5,-288 532.5,-288 532.5,-266 315.5,-266"/>
<text text-anchor="start" x="335.5" y="-274.2" font-family="Helvetica,sans-Serif" font-size="11.00">amount</text>
<polygon fill="none" stroke="black" points="532.5,-266 532.5,-288 602.5,-288 602.5,-266 532.5,-266"/>
<text text-anchor="start" x="535.5" y="-274.2" font-family="Helvetica,sans-Serif" font-size="11.00">decimal[19,6]</text>
<polygon fill="none" stroke="black" points="315.5,-244 315.5,-266 532.5,-266 532.5,-244 315.5,-244"/>
<text text-anchor="start" x="335.5" y="-252.2" font-family="Helvetica,sans-Serif" font-size="11.00">amount_paid_derived</text>
<polygon fill="none" stroke="black" points="532.5,-244 532.5,-266 602.5,-266 602.5,-244 532.5,-244"/>
<text text-anchor="start" x="535.5" y="-252.2" font-family="Helvetica,sans-Serif" font-size="11.00">decimal[19,6]</text>
<polygon fill="none" stroke="black" points="315.5,-222 315.5,-244 532.5,-244 532.5,-222 315.5,-222"/>
<text text-anchor="start" x="335.5" y="-230.2" font-family="Helvetica,sans-Serif" font-size="11.00">amount_waived_derived</text>
<polygon fill="none" stroke="black" points="532.5,-222 532.5,-244 602.5,-244 602.5,-222 532.5,-222"/>
<text text-anchor="start" x="535.5" y="-230.2" font-family="Helvetica,sans-Serif" font-size="11.00">decimal[19,6]</text>
<polygon fill="none" stroke="black" points="315.5,-200 315.5,-222 532.5,-222 532.5,-200 315.5,-200"/>
<text text-anchor="start" x="335.5" y="-208.2" font-family="Helvetica,sans-Serif" font-size="11.00">amount_writtenoff_derived</text>
<polygon fill="none" stroke="black" points="532.5,-200 532.5,-222 602.5,-222 602.5,-200 532.5,-200"/>
<text text-anchor="start" x="535.5" y="-208.2" font-family="Helvetica,sans-Serif" font-size="11.00">decimal[19,6]</text>
<polygon fill="none" stroke="black" points="315.5,-178 315.5,-200 532.5,-200 532.5,-178 315.5,-178"/>
<text text-anchor="start" x="335.5" y="-186.2" font-family="Helvetica,sans-Serif" font-size="11.00">amount_outstanding_derived</text>
<polygon fill="none" stroke="black" points="532.5,-178 532.5,-200 602.5,-200 602.5,-178 532.5,-178"/>
<text text-anchor="start" x="535.5" y="-186.2" font-family="Helvetica,sans-Serif" font-size="11.00">decimal[19,6]</text>
<polygon fill="none" stroke="black" points="315.5,-156 315.5,-178 532.5,-178 532.5,-156 315.5,-156"/>
<text text-anchor="start" x="335.5" y="-164.2" font-family="Helvetica,sans-Serif" font-size="11.00">is_paid_derived</text>
<polygon fill="none" stroke="black" points="532.5,-156 532.5,-178 602.5,-178 602.5,-156 532.5,-156"/>
<text text-anchor="start" x="535.5" y="-164.2" font-family="Helvetica,sans-Serif" font-size="11.00">bit[1]</text>
<polygon fill="none" stroke="black" points="315.5,-134 315.5,-156 532.5,-156 532.5,-134 315.5,-134"/>
<text text-anchor="start" x="335.5" y="-142.2" font-family="Helvetica,sans-Serif" font-size="11.00">waived</text>
<polygon fill="none" stroke="black" points="532.5,-134 532.5,-156 602.5,-156 602.5,-134 532.5,-134"/>
<text text-anchor="start" x="535.5" y="-142.2" font-family="Helvetica,sans-Serif" font-size="11.00">bit[1]</text>
<polygon fill="none" stroke="black" points="315.5,-112 315.5,-134 532.5,-134 532.5,-112 315.5,-112"/>
<text text-anchor="start" x="335.5" y="-120.2" font-family="Helvetica,sans-Serif" font-size="11.00">is_active</text>
<polygon fill="none" stroke="black" points="532.5,-112 532.5,-134 602.5,-134 602.5,-112 532.5,-112"/>
<text text-anchor="start" x="535.5" y="-120.2" font-family="Helvetica,sans-Serif" font-size="11.00">bit[1]</text>
<polygon fill="none" stroke="black" points="315.5,-90 315.5,-112 532.5,-112 532.5,-90 315.5,-90"/>
<text text-anchor="start" x="335.5" y="-98.2" font-family="Helvetica,sans-Serif" font-size="11.00">inactivated_on_date</text>
<polygon fill="none" stroke="black" points="532.5,-90 532.5,-112 602.5,-112 602.5,-90 532.5,-90"/>
<text text-anchor="start" x="535.5" y="-98.2" font-family="Helvetica,sans-Serif" font-size="11.00">date[10]</text>
<polygon fill="#ffffff" stroke="transparent" points="315.5,-72 315.5,-90 415.5,-90 415.5,-72 315.5,-72"/>
<polygon fill="none" stroke="black" points="315.5,-72 315.5,-90 415.5,-90 415.5,-72 315.5,-72"/>
<text text-anchor="start" x="318.5" y="-78.2" font-family="Helvetica,sans-Serif" font-size="11.00">&lt; 2</text>
<polygon fill="#ffffff" stroke="transparent" points="415.5,-72 415.5,-90 532.5,-90 532.5,-72 415.5,-72"/>
<polygon fill="none" stroke="black" points="415.5,-72 415.5,-90 532.5,-90 532.5,-72 415.5,-72"/>
<text text-anchor="start" x="496.5" y="-78.2" font-family="Helvetica,sans-Serif" font-size="11.00">0 rows</text>
<polygon fill="#ffffff" stroke="transparent" points="532.5,-72 532.5,-90 602.5,-90 602.5,-72 532.5,-72"/>
<polygon fill="none" stroke="black" points="532.5,-72 532.5,-90 602.5,-90 602.5,-72 532.5,-72"/>
<text text-anchor="start" x="583.5" y="-78.2" font-family="Helvetica,sans-Serif" font-size="11.00">1 &gt;</text>
<polygon fill="none" stroke="black" stroke-width="2" points="314,-71 314,-465 603,-465 603,-71 314,-71"/>
</a>
</g>
</g>
<!-- m_charge -->
<g id="node2" class="node">
<title>m_charge</title>
<g id="a_node2"><a xlink:href="../../tables/m_charge.html" xlink:title="m_charge" target="_top">
<polygon fill="#ffffff" stroke="transparent" points="8,-37 8,-205 264,-205 264,-37 8,-37"/>
<polygon fill="#f5f5f5" stroke="transparent" points="8,-183 8,-205 264,-205 264,-183 8,-183"/>
<polygon fill="none" stroke="black" points="8,-183 8,-205 264,-205 264,-183 8,-183"/>
<text text-anchor="start" x="13" y="-192.2" font-family="Helvetica,sans-Serif" font-weight="bold" font-size="11.00">m_charge</text>
<text text-anchor="start" x="229" y="-191.2" font-family="Helvetica,sans-Serif" font-size="11.00">[table]</text>
<polygon fill="none" stroke="black" points="8,-161 8,-183 264,-183 264,-161 8,-161"/>
<image xlink:href="../../images/primaryKeys.png" width="11px" height="12px" preserveAspectRatio="xMinYMin meet" x="13" y="-178"/>
<text text-anchor="start" x="28" y="-169.2" font-family="Helvetica,sans-Serif" font-size="11.00">id</text>
<polygon fill="#ffffff" stroke="transparent" points="8,-139 8,-161 264,-161 264,-139 8,-139"/>
<polygon fill="none" stroke="black" points="8,-139 8,-161 264,-161 264,-139 8,-139"/>
<text text-anchor="start" x="28" y="-147.2" font-family="Helvetica,sans-Serif" font-size="11.00">name</text>
<polygon fill="#ffffff" stroke="transparent" points="8,-117 8,-139 264,-139 264,-117 8,-117"/>
<polygon fill="none" stroke="black" points="8,-117 8,-139 264,-139 264,-117 8,-117"/>
<image xlink:href="../../images/foreignKeys.png" width="11px" height="12px" preserveAspectRatio="xMinYMin meet" x="13" y="-134"/>
<text text-anchor="start" x="28" y="-125.2" font-family="Helvetica,sans-Serif" font-size="11.00">payment_type_id</text>
<polygon fill="#ffffff" stroke="transparent" points="8,-95 8,-117 264,-117 264,-95 8,-95"/>
<polygon fill="none" stroke="black" points="8,-95 8,-117 264,-117 264,-95 8,-95"/>
<image xlink:href="../../images/foreignKeys.png" width="11px" height="12px" preserveAspectRatio="xMinYMin meet" x="13" y="-112"/>
<text text-anchor="start" x="28" y="-103.2" font-family="Helvetica,sans-Serif" font-size="11.00">income_or_liability_account_id</text>
<polygon fill="#ffffff" stroke="transparent" points="8,-73 8,-95 264,-95 264,-73 8,-73"/>
<polygon fill="none" stroke="black" points="8,-73 8,-95 264,-95 264,-73 8,-73"/>
<image xlink:href="../../images/foreignKeys.png" width="11px" height="12px" preserveAspectRatio="xMinYMin meet" x="13" y="-90"/>
<text text-anchor="start" x="28" y="-81.2" font-family="Helvetica,sans-Serif" font-size="11.00">tax_group_id</text>
<polygon fill="none" stroke="black" points="8,-55 8,-73 264,-73 264,-55 8,-55"/>
<text text-anchor="start" x="11" y="-61.2" font-family="Helvetica,sans-Serif" font-size="11.00">...</text>
<polygon fill="#ffffff" stroke="transparent" points="8,-37 8,-55 116,-55 116,-37 8,-37"/>
<polygon fill="none" stroke="black" points="8,-37 8,-55 116,-55 116,-37 8,-37"/>
<text text-anchor="start" x="11" y="-43.2" font-family="Helvetica,sans-Serif" font-size="11.00">&lt; 3</text>
<polygon fill="#ffffff" stroke="transparent" points="116,-37 116,-55 198,-55 198,-37 116,-37"/>
<polygon fill="none" stroke="black" points="116,-37 116,-55 198,-55 198,-37 116,-37"/>
<text text-anchor="start" x="162" y="-43.2" font-family="Helvetica,sans-Serif" font-size="11.00">0 rows</text>
<polygon fill="#ffffff" stroke="transparent" points="198,-37 198,-55 264,-55 264,-37 198,-37"/>
<polygon fill="none" stroke="black" points="198,-37 198,-55 264,-55 264,-37 198,-37"/>
<text text-anchor="start" x="245" y="-43.2" font-family="Helvetica,sans-Serif" font-size="11.00">9 &gt;</text>
</a>
</g>
</g>
<!-- m_client_charge&#45;&gt;m_charge -->
<g id="edge1" class="edge">
<title>m_client_charge:w&#45;&gt;m_charge:e</title>
<path fill="none" stroke="black" d="M300.1,-385.01C232.27,-363.33 357.5,-172 265,-172"/>
<polygon fill="black" stroke="black" points="306.58,-385.9 314.01,-390.57 310.54,-386.45 314.5,-387 314.5,-387 314.5,-387 310.54,-386.45 314.99,-383.43 306.58,-385.9 306.58,-385.9"/>
<ellipse fill="none" stroke="black" cx="303.41" cy="-385.47" rx="3.2" ry="3.2"/>
</g>
<!-- m_client -->
<g id="node3" class="node">
<title>m_client</title>
<g id="a_node3"><a xlink:href="../../tables/m_client.html" xlink:title="m_client" target="_top">
<polygon fill="#ffffff" stroke="transparent" points="39.5,-226 39.5,-658 232.5,-658 232.5,-226 39.5,-226"/>
<polygon fill="#f5f5f5" stroke="transparent" points="40,-636 40,-658 233,-658 233,-636 40,-636"/>
<polygon fill="none" stroke="black" points="40,-636 40,-658 233,-658 233,-636 40,-636"/>
<text text-anchor="start" x="45" y="-645.2" font-family="Helvetica,sans-Serif" font-weight="bold" font-size="11.00">m_client</text>
<text text-anchor="start" x="198" y="-644.2" font-family="Helvetica,sans-Serif" font-size="11.00">[table]</text>
<polygon fill="none" stroke="black" points="40,-614 40,-636 233,-636 233,-614 40,-614"/>
<image xlink:href="../../images/primaryKeys.png" width="11px" height="12px" preserveAspectRatio="xMinYMin meet" x="45" y="-631"/>
<text text-anchor="start" x="60" y="-622.2" font-family="Helvetica,sans-Serif" font-size="11.00">id</text>
<polygon fill="#ffffff" stroke="transparent" points="40,-592 40,-614 233,-614 233,-592 40,-592"/>
<polygon fill="none" stroke="black" points="40,-592 40,-614 233,-614 233,-592 40,-592"/>
<text text-anchor="start" x="60" y="-600.2" font-family="Helvetica,sans-Serif" font-size="11.00">account_no</text>
<polygon fill="#ffffff" stroke="transparent" points="40,-570 40,-592 233,-592 233,-570 40,-570"/>
<polygon fill="none" stroke="black" points="40,-570 40,-592 233,-592 233,-570 40,-570"/>
<text text-anchor="start" x="60" y="-578.2" font-family="Helvetica,sans-Serif" font-size="11.00">external_id</text>
<polygon fill="#ffffff" stroke="transparent" points="40,-548 40,-570 233,-570 233,-548 40,-548"/>
<polygon fill="none" stroke="black" points="40,-548 40,-570 233,-570 233,-548 40,-548"/>
<image xlink:href="../../images/foreignKeys.png" width="11px" height="12px" preserveAspectRatio="xMinYMin meet" x="45" y="-565"/>
<text text-anchor="start" x="60" y="-556.2" font-family="Helvetica,sans-Serif" font-size="11.00">sub_status</text>
<polygon fill="#ffffff" stroke="transparent" points="40,-526 40,-548 233,-548 233,-526 40,-526"/>
<polygon fill="none" stroke="black" points="40,-526 40,-548 233,-548 233,-526 40,-526"/>
<image xlink:href="../../images/foreignKeys.png" width="11px" height="12px" preserveAspectRatio="xMinYMin meet" x="45" y="-543"/>
<text text-anchor="start" x="60" y="-534.2" font-family="Helvetica,sans-Serif" font-size="11.00">office_id</text>
<polygon fill="#ffffff" stroke="transparent" points="40,-504 40,-526 233,-526 233,-504 40,-504"/>
<polygon fill="none" stroke="black" points="40,-504 40,-526 233,-526 233,-504 40,-504"/>
<image xlink:href="../../images/foreignKeys.png" width="11px" height="12px" preserveAspectRatio="xMinYMin meet" x="45" y="-521"/>
<text text-anchor="start" x="60" y="-512.2" font-family="Helvetica,sans-Serif" font-size="11.00">transfer_to_office_id</text>
<polygon fill="#ffffff" stroke="transparent" points="40,-482 40,-504 233,-504 233,-482 40,-482"/>
<polygon fill="none" stroke="black" points="40,-482 40,-504 233,-504 233,-482 40,-482"/>
<image xlink:href="../../images/foreignKeys.png" width="11px" height="12px" preserveAspectRatio="xMinYMin meet" x="45" y="-499"/>
<text text-anchor="start" x="60" y="-490.2" font-family="Helvetica,sans-Serif" font-size="11.00">staff_id</text>
<polygon fill="#ffffff" stroke="transparent" points="40,-460 40,-482 233,-482 233,-460 40,-460"/>
<polygon fill="none" stroke="black" points="40,-460 40,-482 233,-482 233,-460 40,-460"/>
<text text-anchor="start" x="60" y="-468.2" font-family="Helvetica,sans-Serif" font-size="11.00">mobile_no</text>
<polygon fill="#ffffff" stroke="transparent" points="40,-438 40,-460 233,-460 233,-438 40,-438"/>
<polygon fill="none" stroke="black" points="40,-438 40,-460 233,-460 233,-438 40,-438"/>
<image xlink:href="../../images/foreignKeys.png" width="11px" height="12px" preserveAspectRatio="xMinYMin meet" x="45" y="-455"/>
<text text-anchor="start" x="60" y="-446.2" font-family="Helvetica,sans-Serif" font-size="11.00">gender_cv_id</text>
<polygon fill="#ffffff" stroke="transparent" points="40,-416 40,-438 233,-438 233,-416 40,-416"/>
<polygon fill="none" stroke="black" points="40,-416 40,-438 233,-438 233,-416 40,-416"/>
<image xlink:href="../../images/foreignKeys.png" width="11px" height="12px" preserveAspectRatio="xMinYMin meet" x="45" y="-433"/>
<text text-anchor="start" x="60" y="-424.2" font-family="Helvetica,sans-Serif" font-size="11.00">image_id</text>
<polygon fill="#ffffff" stroke="transparent" points="40,-394 40,-416 233,-416 233,-394 40,-394"/>
<polygon fill="none" stroke="black" points="40,-394 40,-416 233,-416 233,-394 40,-394"/>
<image xlink:href="../../images/foreignKeys.png" width="11px" height="12px" preserveAspectRatio="xMinYMin meet" x="45" y="-411"/>
<text text-anchor="start" x="60" y="-402.2" font-family="Helvetica,sans-Serif" font-size="11.00">closure_reason_cv_id</text>
<polygon fill="#ffffff" stroke="transparent" points="40,-372 40,-394 233,-394 233,-372 40,-372"/>
<polygon fill="none" stroke="black" points="40,-372 40,-394 233,-394 233,-372 40,-372"/>
<image xlink:href="../../images/foreignKeys.png" width="11px" height="12px" preserveAspectRatio="xMinYMin meet" x="45" y="-389"/>
<text text-anchor="start" x="60" y="-380.2" font-family="Helvetica,sans-Serif" font-size="11.00">default_savings_product</text>
<polygon fill="#ffffff" stroke="transparent" points="40,-350 40,-372 233,-372 233,-350 40,-350"/>
<polygon fill="none" stroke="black" points="40,-350 40,-372 233,-372 233,-350 40,-350"/>
<image xlink:href="../../images/foreignKeys.png" width="11px" height="12px" preserveAspectRatio="xMinYMin meet" x="45" y="-367"/>
<text text-anchor="start" x="60" y="-358.2" font-family="Helvetica,sans-Serif" font-size="11.00">default_savings_account</text>
<polygon fill="#ffffff" stroke="transparent" points="40,-328 40,-350 233,-350 233,-328 40,-328"/>
<polygon fill="none" stroke="black" points="40,-328 40,-350 233,-350 233,-328 40,-328"/>
<image xlink:href="../../images/foreignKeys.png" width="11px" height="12px" preserveAspectRatio="xMinYMin meet" x="45" y="-345"/>
<text text-anchor="start" x="60" y="-336.2" font-family="Helvetica,sans-Serif" font-size="11.00">client_type_cv_id</text>
<polygon fill="#ffffff" stroke="transparent" points="40,-306 40,-328 233,-328 233,-306 40,-306"/>
<polygon fill="none" stroke="black" points="40,-306 40,-328 233,-328 233,-306 40,-306"/>
<image xlink:href="../../images/foreignKeys.png" width="11px" height="12px" preserveAspectRatio="xMinYMin meet" x="45" y="-323"/>
<text text-anchor="start" x="60" y="-314.2" font-family="Helvetica,sans-Serif" font-size="11.00">client_classification_cv_id</text>
<polygon fill="#ffffff" stroke="transparent" points="40,-284 40,-306 233,-306 233,-284 40,-284"/>
<polygon fill="none" stroke="black" points="40,-284 40,-306 233,-306 233,-284 40,-284"/>
<image xlink:href="../../images/foreignKeys.png" width="11px" height="12px" preserveAspectRatio="xMinYMin meet" x="45" y="-301"/>
<text text-anchor="start" x="60" y="-292.2" font-family="Helvetica,sans-Serif" font-size="11.00">reject_reason_cv_id</text>
<polygon fill="#ffffff" stroke="transparent" points="40,-262 40,-284 233,-284 233,-262 40,-262"/>
<polygon fill="none" stroke="black" points="40,-262 40,-284 233,-284 233,-262 40,-262"/>
<image xlink:href="../../images/foreignKeys.png" width="11px" height="12px" preserveAspectRatio="xMinYMin meet" x="45" y="-279"/>
<text text-anchor="start" x="60" y="-270.2" font-family="Helvetica,sans-Serif" font-size="11.00">withdraw_reason_cv_id</text>
<polygon fill="none" stroke="black" points="40,-244 40,-262 233,-262 233,-244 40,-244"/>
<text text-anchor="start" x="43" y="-250.2" font-family="Helvetica,sans-Serif" font-size="11.00">...</text>
<polygon fill="#ffffff" stroke="transparent" points="40,-226 40,-244 117,-244 117,-226 40,-226"/>
<polygon fill="none" stroke="black" points="40,-226 40,-244 117,-244 117,-226 40,-226"/>
<text text-anchor="start" x="43" y="-232.2" font-family="Helvetica,sans-Serif" font-size="11.00">&lt; 13</text>
<polygon fill="#ffffff" stroke="transparent" points="117,-226 117,-244 180,-244 180,-226 117,-226"/>
<polygon fill="none" stroke="black" points="117,-226 117,-244 180,-244 180,-226 117,-226"/>
<text text-anchor="start" x="144" y="-232.2" font-family="Helvetica,sans-Serif" font-size="11.00">0 rows</text>
<polygon fill="#ffffff" stroke="transparent" points="180,-226 180,-244 233,-244 233,-226 180,-226"/>
<polygon fill="none" stroke="black" points="180,-226 180,-244 233,-244 233,-226 180,-226"/>
<text text-anchor="start" x="208" y="-232.2" font-family="Helvetica,sans-Serif" font-size="11.00">23 &gt;</text>
</a>
</g>
</g>
<!-- m_client_charge&#45;&gt;m_client -->
<g id="edge2" class="edge">
<title>m_client_charge:w&#45;&gt;m_client:e</title>
<path fill="none" stroke="black" d="M300.12,-410.74C224.54,-431.18 331.05,-625 234,-625"/>
<polygon fill="black" stroke="black" points="306.56,-409.96 314.93,-412.57 310.53,-409.48 314.5,-409 314.5,-409 314.5,-409 310.53,-409.48 314.07,-405.43 306.56,-409.96 306.56,-409.96"/>
<ellipse fill="none" stroke="black" cx="303.38" cy="-410.34" rx="3.2" ry="3.2"/>
</g>
<!-- m_client_charge_paid_by -->
<g id="node4" class="node">
<title>m_client_charge_paid_by</title>
<g id="a_node4"><a xlink:href="../../tables/m_client_charge_paid_by.html" xlink:title="m_client_charge_paid_by" target="_top">
<polygon fill="#ffffff" stroke="transparent" points="653,-384 653,-508 840,-508 840,-384 653,-384"/>
<polygon fill="#f5f5f5" stroke="transparent" points="653.5,-486 653.5,-508 840.5,-508 840.5,-486 653.5,-486"/>
<polygon fill="none" stroke="black" points="653.5,-486 653.5,-508 840.5,-508 840.5,-486 653.5,-486"/>
<text text-anchor="start" x="658.5" y="-495.2" font-family="Helvetica,sans-Serif" font-weight="bold" font-size="11.00">m_client_charge_paid_by</text>
<text text-anchor="start" x="805.5" y="-494.2" font-family="Helvetica,sans-Serif" font-size="11.00">[table]</text>
<polygon fill="none" stroke="black" points="653.5,-464 653.5,-486 840.5,-486 840.5,-464 653.5,-464"/>
<image xlink:href="../../images/primaryKeys.png" width="11px" height="12px" preserveAspectRatio="xMinYMin meet" x="658.5" y="-481"/>
<text text-anchor="start" x="673.5" y="-472.2" font-family="Helvetica,sans-Serif" font-size="11.00">id</text>
<polygon fill="#ffffff" stroke="transparent" points="653.5,-442 653.5,-464 840.5,-464 840.5,-442 653.5,-442"/>
<polygon fill="none" stroke="black" points="653.5,-442 653.5,-464 840.5,-464 840.5,-442 653.5,-442"/>
<image xlink:href="../../images/foreignKeys.png" width="11px" height="12px" preserveAspectRatio="xMinYMin meet" x="658.5" y="-459"/>
<text text-anchor="start" x="673.5" y="-450.2" font-family="Helvetica,sans-Serif" font-size="11.00">client_transaction_id</text>
<polygon fill="#ffffff" stroke="transparent" points="653.5,-420 653.5,-442 840.5,-442 840.5,-420 653.5,-420"/>
<polygon fill="none" stroke="black" points="653.5,-420 653.5,-442 840.5,-442 840.5,-420 653.5,-420"/>
<image xlink:href="../../images/foreignKeys.png" width="11px" height="12px" preserveAspectRatio="xMinYMin meet" x="658.5" y="-437"/>
<text text-anchor="start" x="673.5" y="-428.2" font-family="Helvetica,sans-Serif" font-size="11.00">client_charge_id</text>
<polygon fill="none" stroke="black" points="653.5,-402 653.5,-420 840.5,-420 840.5,-402 653.5,-402"/>
<text text-anchor="start" x="656.5" y="-408.2" font-family="Helvetica,sans-Serif" font-size="11.00">...</text>
<polygon fill="#ffffff" stroke="transparent" points="653.5,-384 653.5,-402 731.5,-402 731.5,-384 653.5,-384"/>
<polygon fill="none" stroke="black" points="653.5,-384 653.5,-402 731.5,-402 731.5,-384 653.5,-384"/>
<text text-anchor="start" x="656.5" y="-390.2" font-family="Helvetica,sans-Serif" font-size="11.00">&lt; 2</text>
<polygon fill="#ffffff" stroke="transparent" points="731.5,-384 731.5,-402 798.5,-402 798.5,-384 731.5,-384"/>
<polygon fill="none" stroke="black" points="731.5,-384 731.5,-402 798.5,-402 798.5,-384 731.5,-384"/>
<text text-anchor="start" x="762.5" y="-390.2" font-family="Helvetica,sans-Serif" font-size="11.00">0 rows</text>
<polygon fill="#ffffff" stroke="transparent" points="798.5,-384 798.5,-402 840.5,-402 840.5,-384 798.5,-384"/>
<polygon fill="none" stroke="black" points="798.5,-384 798.5,-402 840.5,-402 840.5,-384 798.5,-384"/>
<text text-anchor="start" x="830.5" y="-390.2" font-family="Helvetica,sans-Serif" font-size="11.00"> &#160;</text>
</a>
</g>
</g>
<!-- m_client_charge_paid_by&#45;&gt;m_client_charge -->
<g id="edge3" class="edge">
<title>m_client_charge_paid_by:w&#45;&gt;m_client_charge:e</title>
<path fill="none" stroke="black" d="M637.99,-431C626.68,-431 619.49,-431 603.5,-431"/>
<polygon fill="black" stroke="black" points="644.5,-431 652.5,-434.6 648.5,-431 652.5,-431 652.5,-431 652.5,-431 648.5,-431 652.5,-427.4 644.5,-431 644.5,-431"/>
<ellipse fill="none" stroke="black" cx="641.3" cy="-431" rx="3.2" ry="3.2"/>
</g>
</g>
</svg>
