<?xml version="1.0" encoding="UTF-8" standalone="no"?>
<!DOCTYPE svg PUBLIC "-//W3C//DTD SVG 1.1//EN"
 "http://www.w3.org/Graphics/SVG/1.1/DTD/svg11.dtd">
<!-- Generated by graphviz version 2.43.0 (0)
 -->
<!-- Title: oneDegreeRelationshipsDiagram Pages: 1 -->
<svg width="522pt" height="278pt"
 viewBox="0.00 0.00 522.00 278.00" xmlns="http://www.w3.org/2000/svg" xmlns:xlink="http://www.w3.org/1999/xlink">
<g id="graph0" class="graph" transform="scale(1 1) rotate(0) translate(4 274)">
<title>oneDegreeRelationshipsDiagram</title>
<polygon fill="#ffffff" stroke="transparent" points="-4,4 -4,-274 518,-274 518,4 -4,4"/>
<text text-anchor="middle" x="71.5" y="-7.2" font-family="Helvetica,sans-Serif" font-size="11.00">Generated by SchemaSpy</text>
<!-- m_code_value -->
<g id="node1" class="node">
<title>m_code_value</title>
<g id="a_node1"><a xlink:href="../../tables/m_code_value.html" xlink:title="m_code_value" target="_top">
<polygon fill="#ffffff" stroke="transparent" points="321.5,-142 321.5,-266 456.5,-266 456.5,-142 321.5,-142"/>
<polygon fill="#f5f5f5" stroke="transparent" points="322,-244 322,-266 457,-266 457,-244 322,-244"/>
<polygon fill="none" stroke="black" points="322,-244 322,-266 457,-266 457,-244 322,-244"/>
<text text-anchor="start" x="327" y="-253.2" font-family="Helvetica,sans-Serif" font-weight="bold" font-size="11.00">m_code_value</text>
<text text-anchor="start" x="422" y="-252.2" font-family="Helvetica,sans-Serif" font-size="11.00">[table]</text>
<polygon fill="none" stroke="black" points="322,-222 322,-244 457,-244 457,-222 322,-222"/>
<image xlink:href="../../images/primaryKeys.png" width="11px" height="12px" preserveAspectRatio="xMinYMin meet" x="327" y="-239"/>
<text text-anchor="start" x="342" y="-230.2" font-family="Helvetica,sans-Serif" font-size="11.00">id</text>
<polygon fill="#ffffff" stroke="transparent" points="322,-200 322,-222 457,-222 457,-200 322,-200"/>
<polygon fill="none" stroke="black" points="322,-200 322,-222 457,-222 457,-200 322,-200"/>
<image xlink:href="../../images/foreignKeys.png" width="11px" height="12px" preserveAspectRatio="xMinYMin meet" x="327" y="-217"/>
<text text-anchor="start" x="342" y="-208.2" font-family="Helvetica,sans-Serif" font-size="11.00">code_id</text>
<polygon fill="#ffffff" stroke="transparent" points="322,-178 322,-200 457,-200 457,-178 322,-178"/>
<polygon fill="none" stroke="black" points="322,-178 322,-200 457,-200 457,-178 322,-178"/>
<text text-anchor="start" x="342" y="-186.2" font-family="Helvetica,sans-Serif" font-size="11.00">code_value</text>
<polygon fill="none" stroke="black" points="322,-160 322,-178 457,-178 457,-160 322,-160"/>
<text text-anchor="start" x="325" y="-166.2" font-family="Helvetica,sans-Serif" font-size="11.00">...</text>
<polygon fill="#ffffff" stroke="transparent" points="322,-142 322,-160 367,-160 367,-142 322,-142"/>
<polygon fill="none" stroke="black" points="322,-142 322,-160 367,-160 367,-142 322,-142"/>
<text text-anchor="start" x="325" y="-148.2" font-family="Helvetica,sans-Serif" font-size="11.00">&lt; 1</text>
<polygon fill="#ffffff" stroke="transparent" points="367,-142 367,-160 417,-160 417,-142 367,-142"/>
<polygon fill="none" stroke="black" points="367,-142 367,-160 417,-160 417,-142 367,-142"/>
<text text-anchor="start" x="381" y="-148.2" font-family="Helvetica,sans-Serif" font-size="11.00">0 rows</text>
<polygon fill="#ffffff" stroke="transparent" points="417,-142 417,-160 457,-160 457,-142 417,-142"/>
<polygon fill="none" stroke="black" points="417,-142 417,-160 457,-160 457,-142 417,-142"/>
<text text-anchor="start" x="432" y="-148.2" font-family="Helvetica,sans-Serif" font-size="11.00">25 &gt;</text>
</a>
</g>
</g>
<!-- m_code -->
<g id="node2" class="node">
<title>m_code</title>
<g id="a_node2"><a xlink:href="../../tables/m_code.html" xlink:title="m_code" target="_top">
<polygon fill="#ffffff" stroke="transparent" points="8,-63 8,-173 223,-173 223,-63 8,-63"/>
<polygon fill="#f5f5f5" stroke="transparent" points="10.5,-149 10.5,-171 221.5,-171 221.5,-149 10.5,-149"/>
<polygon fill="none" stroke="black" points="10.5,-149 10.5,-171 221.5,-171 221.5,-149 10.5,-149"/>
<text text-anchor="start" x="15.5" y="-158.2" font-family="Helvetica,sans-Serif" font-weight="bold" font-size="11.00">m_code</text>
<text text-anchor="start" x="186.5" y="-157.2" font-family="Helvetica,sans-Serif" font-size="11.00">[table]</text>
<polygon fill="none" stroke="black" points="10.5,-127 10.5,-149 154.5,-149 154.5,-127 10.5,-127"/>
<image xlink:href="../../images/primaryKeys.png" width="11px" height="12px" preserveAspectRatio="xMinYMin meet" x="15.5" y="-144"/>
<text text-anchor="start" x="30.5" y="-135.2" font-family="Helvetica,sans-Serif" font-size="11.00">id</text>
<polygon fill="none" stroke="black" points="154.5,-127 154.5,-149 221.5,-149 221.5,-127 154.5,-127"/>
<text text-anchor="start" x="157.5" y="-135.2" font-family="Helvetica,sans-Serif" font-size="11.00">int[10]</text>
<polygon fill="#ffffff" stroke="transparent" points="10.5,-105 10.5,-127 154.5,-127 154.5,-105 10.5,-105"/>
<polygon fill="none" stroke="black" points="10.5,-105 10.5,-127 154.5,-127 154.5,-105 10.5,-105"/>
<text text-anchor="start" x="30.5" y="-113.2" font-family="Helvetica,sans-Serif" font-size="11.00">code_name</text>
<polygon fill="none" stroke="black" points="154.5,-105 154.5,-127 221.5,-127 221.5,-105 154.5,-105"/>
<text text-anchor="start" x="157.5" y="-113.2" font-family="Helvetica,sans-Serif" font-size="11.00">varchar[100]</text>
<polygon fill="none" stroke="black" points="10.5,-83 10.5,-105 154.5,-105 154.5,-83 10.5,-83"/>
<text text-anchor="start" x="30.5" y="-91.2" font-family="Helvetica,sans-Serif" font-size="11.00">is_system_defined</text>
<polygon fill="none" stroke="black" points="154.5,-83 154.5,-105 221.5,-105 221.5,-83 154.5,-83"/>
<text text-anchor="start" x="157.5" y="-91.2" font-family="Helvetica,sans-Serif" font-size="11.00">bit[1]</text>
<polygon fill="#ffffff" stroke="transparent" points="10.5,-65 10.5,-83 73.5,-83 73.5,-65 10.5,-65"/>
<polygon fill="none" stroke="black" points="10.5,-65 10.5,-83 73.5,-83 73.5,-65 10.5,-65"/>
<text text-anchor="start" x="13.5" y="-71.2" font-family="Helvetica,sans-Serif" font-size="11.00">&lt; 0</text>
<polygon fill="#ffffff" stroke="transparent" points="73.5,-65 73.5,-83 154.5,-83 154.5,-65 73.5,-65"/>
<polygon fill="none" stroke="black" points="73.5,-65 73.5,-83 154.5,-83 154.5,-65 73.5,-65"/>
<text text-anchor="start" x="118.5" y="-71.2" font-family="Helvetica,sans-Serif" font-size="11.00">0 rows</text>
<polygon fill="#ffffff" stroke="transparent" points="154.5,-65 154.5,-83 221.5,-83 221.5,-65 154.5,-65"/>
<polygon fill="none" stroke="black" points="154.5,-65 154.5,-83 221.5,-83 221.5,-65 154.5,-65"/>
<text text-anchor="start" x="202.5" y="-71.2" font-family="Helvetica,sans-Serif" font-size="11.00">2 &gt;</text>
<polygon fill="none" stroke="black" stroke-width="2" points="9,-64 9,-172 222,-172 222,-64 9,-64"/>
</a>
</g>
</g>
<!-- m_code_value&#45;&gt;m_code -->
<g id="edge1" class="edge">
<title>m_code_value:w&#45;&gt;m_code:e</title>
<path fill="none" stroke="black" d="M306.52,-208.97C267.95,-197.18 271.56,-138 222.5,-138"/>
<polygon fill="black" stroke="black" points="313.08,-209.89 320.5,-214.57 317.04,-210.44 321,-211 321,-211 321,-211 317.04,-210.44 321.5,-207.43 313.08,-209.89 313.08,-209.89"/>
<ellipse fill="none" stroke="black" cx="309.91" cy="-209.45" rx="3.2" ry="3.2"/>
</g>
<!-- x_table_column_code_mappings -->
<g id="node3" class="node">
<title>x_table_column_code_mappings</title>
<g id="a_node3"><a xlink:href="../../tables/x_table_column_code_mappings.html" xlink:title="x_table_column_code_mappings" target="_top">
<polygon fill="#ffffff" stroke="transparent" points="272,-37 272,-121 506,-121 506,-37 272,-37"/>
<polygon fill="#f5f5f5" stroke="transparent" points="272,-99 272,-121 506,-121 506,-99 272,-99"/>
<polygon fill="none" stroke="black" points="272,-99 272,-121 506,-121 506,-99 272,-99"/>
<text text-anchor="start" x="277" y="-108.2" font-family="Helvetica,sans-Serif" font-weight="bold" font-size="11.00">x_table_column_code_mappings</text>
<text text-anchor="start" x="471" y="-107.2" font-family="Helvetica,sans-Serif" font-size="11.00">[table]</text>
<polygon fill="none" stroke="black" points="272,-77 272,-99 506,-99 506,-77 272,-77"/>
<image xlink:href="../../images/primaryKeys.png" width="11px" height="12px" preserveAspectRatio="xMinYMin meet" x="277" y="-94"/>
<text text-anchor="start" x="292" y="-85.2" font-family="Helvetica,sans-Serif" font-size="11.00">column_alias_name</text>
<polygon fill="#ffffff" stroke="transparent" points="272,-55 272,-77 506,-77 506,-55 272,-55"/>
<polygon fill="none" stroke="black" points="272,-55 272,-77 506,-77 506,-55 272,-55"/>
<image xlink:href="../../images/foreignKeys.png" width="11px" height="12px" preserveAspectRatio="xMinYMin meet" x="277" y="-72"/>
<text text-anchor="start" x="292" y="-63.2" font-family="Helvetica,sans-Serif" font-size="11.00">code_id</text>
<polygon fill="#ffffff" stroke="transparent" points="272,-37 272,-55 374,-55 374,-37 272,-37"/>
<polygon fill="none" stroke="black" points="272,-37 272,-55 374,-55 374,-37 272,-37"/>
<text text-anchor="start" x="275" y="-43.2" font-family="Helvetica,sans-Serif" font-size="11.00">&lt; 1</text>
<polygon fill="#ffffff" stroke="transparent" points="374,-37 374,-55 453,-55 453,-37 374,-37"/>
<polygon fill="none" stroke="black" points="374,-37 374,-55 453,-55 453,-37 374,-37"/>
<text text-anchor="start" x="417" y="-43.2" font-family="Helvetica,sans-Serif" font-size="11.00">0 rows</text>
<polygon fill="#ffffff" stroke="transparent" points="453,-37 453,-55 506,-55 506,-37 453,-37"/>
<polygon fill="none" stroke="black" points="453,-37 453,-55 506,-55 506,-37 453,-37"/>
<text text-anchor="start" x="496" y="-43.2" font-family="Helvetica,sans-Serif" font-size="11.00"> &#160;</text>
</a>
</g>
</g>
<!-- x_table_column_code_mappings&#45;&gt;m_code -->
<g id="edge2" class="edge">
<title>x_table_column_code_mappings:w&#45;&gt;m_code:e</title>
<path fill="none" stroke="black" d="M257.33,-70.72C239.73,-86.74 255.05,-138 222.5,-138"/>
<polygon fill="black" stroke="black" points="263.44,-68.61 272.18,-69.4 267.22,-67.31 271,-66 271,-66 271,-66 267.22,-67.31 269.82,-62.6 263.44,-68.61 263.44,-68.61"/>
<ellipse fill="none" stroke="black" cx="260.41" cy="-69.66" rx="3.2" ry="3.2"/>
</g>
</g>
</svg>
