<?xml version="1.0" encoding="UTF-8" standalone="no"?>
<!DOCTYPE svg PUBLIC "-//W3C//DTD SVG 1.1//EN"
 "http://www.w3.org/Graphics/SVG/1.1/DTD/svg11.dtd">
<!-- Generated by graphviz version 2.43.0 (0)
 -->
<!-- Title: oneDegreeRelationshipsDiagram Pages: 1 -->
<svg width="568pt" height="267pt"
 viewBox="0.00 0.00 568.00 267.00" xmlns="http://www.w3.org/2000/svg" xmlns:xlink="http://www.w3.org/1999/xlink">
<g id="graph0" class="graph" transform="scale(1 1) rotate(0) translate(4 263)">
<title>oneDegreeRelationshipsDiagram</title>
<polygon fill="#ffffff" stroke="transparent" points="-4,4 -4,-263 564,-263 564,4 -4,4"/>
<text text-anchor="middle" x="71.5" y="-7.2" font-family="Helvetica,sans-Serif" font-size="11.00">Generated by SchemaSpy</text>
<!-- m_creditbureau_configuration -->
<g id="node1" class="node">
<title>m_creditbureau_configuration</title>
<g id="a_node1"><a xlink:href="../../tables/m_creditbureau_configuration.html" xlink:title="m_creditbureau_configuration" target="_top">
<polygon fill="#ffffff" stroke="transparent" points="215,-101 215,-255 552,-255 552,-101 215,-101"/>
<polygon fill="#f5f5f5" stroke="transparent" points="217.5,-231 217.5,-253 550.5,-253 550.5,-231 217.5,-231"/>
<polygon fill="none" stroke="black" points="217.5,-231 217.5,-253 550.5,-253 550.5,-231 217.5,-231"/>
<text text-anchor="start" x="222.5" y="-240.2" font-family="Helvetica,sans-Serif" font-weight="bold" font-size="11.00">m_creditbureau_configuration</text>
<text text-anchor="start" x="515.5" y="-239.2" font-family="Helvetica,sans-Serif" font-size="11.00">[table]</text>
<polygon fill="none" stroke="black" points="217.5,-209 217.5,-231 440.5,-231 440.5,-209 217.5,-209"/>
<image xlink:href="../../images/primaryKeys.png" width="11px" height="12px" preserveAspectRatio="xMinYMin meet" x="222.5" y="-226"/>
<text text-anchor="start" x="237.5" y="-217.2" font-family="Helvetica,sans-Serif" font-size="11.00">id</text>
<polygon fill="none" stroke="black" points="440.5,-209 440.5,-231 550.5,-231 550.5,-209 440.5,-209"/>
<text text-anchor="start" x="443.5" y="-217.2" font-family="Helvetica,sans-Serif" font-size="11.00">bigint[19]</text>
<polygon fill="#ffffff" stroke="transparent" points="217.5,-187 217.5,-209 440.5,-209 440.5,-187 217.5,-187"/>
<polygon fill="none" stroke="black" points="217.5,-187 217.5,-209 440.5,-209 440.5,-187 217.5,-187"/>
<text text-anchor="start" x="237.5" y="-195.2" font-family="Helvetica,sans-Serif" font-size="11.00">configkey</text>
<polygon fill="none" stroke="black" points="440.5,-187 440.5,-209 550.5,-209 550.5,-187 440.5,-187"/>
<text text-anchor="start" x="443.5" y="-195.2" font-family="Helvetica,sans-Serif" font-size="11.00">varchar[50]</text>
<polygon fill="none" stroke="black" points="217.5,-165 217.5,-187 440.5,-187 440.5,-165 217.5,-165"/>
<text text-anchor="start" x="237.5" y="-173.2" font-family="Helvetica,sans-Serif" font-size="11.00">value</text>
<polygon fill="none" stroke="black" points="440.5,-165 440.5,-187 550.5,-187 550.5,-165 440.5,-165"/>
<text text-anchor="start" x="443.5" y="-173.2" font-family="Helvetica,sans-Serif" font-size="11.00">longtext[2147483647]</text>
<polygon fill="#ffffff" stroke="transparent" points="217.5,-143 217.5,-165 440.5,-165 440.5,-143 217.5,-143"/>
<polygon fill="none" stroke="black" points="217.5,-143 217.5,-165 440.5,-165 440.5,-143 217.5,-143"/>
<image xlink:href="../../images/foreignKeys.png" width="11px" height="12px" preserveAspectRatio="xMinYMin meet" x="222.5" y="-160"/>
<text text-anchor="start" x="237.5" y="-151.2" font-family="Helvetica,sans-Serif" font-size="11.00">organisation_creditbureau_id</text>
<polygon fill="none" stroke="black" points="440.5,-143 440.5,-165 550.5,-165 550.5,-143 440.5,-143"/>
<text text-anchor="start" x="443.5" y="-151.2" font-family="Helvetica,sans-Serif" font-size="11.00">bigint[19]</text>
<polygon fill="none" stroke="black" points="217.5,-121 217.5,-143 440.5,-143 440.5,-121 217.5,-121"/>
<text text-anchor="start" x="237.5" y="-129.2" font-family="Helvetica,sans-Serif" font-size="11.00">description</text>
<polygon fill="none" stroke="black" points="440.5,-121 440.5,-143 550.5,-143 550.5,-121 440.5,-121"/>
<text text-anchor="start" x="443.5" y="-129.2" font-family="Helvetica,sans-Serif" font-size="11.00">varchar[50]</text>
<polygon fill="#ffffff" stroke="transparent" points="217.5,-103 217.5,-121 320.5,-121 320.5,-103 217.5,-103"/>
<polygon fill="none" stroke="black" points="217.5,-103 217.5,-121 320.5,-121 320.5,-103 217.5,-103"/>
<text text-anchor="start" x="220.5" y="-109.2" font-family="Helvetica,sans-Serif" font-size="11.00">&lt; 1</text>
<polygon fill="#ffffff" stroke="transparent" points="320.5,-103 320.5,-121 440.5,-121 440.5,-103 320.5,-103"/>
<polygon fill="none" stroke="black" points="320.5,-103 320.5,-121 440.5,-121 440.5,-103 320.5,-103"/>
<text text-anchor="start" x="404.5" y="-109.2" font-family="Helvetica,sans-Serif" font-size="11.00">0 rows</text>
<polygon fill="#ffffff" stroke="transparent" points="440.5,-103 440.5,-121 550.5,-121 550.5,-103 440.5,-103"/>
<polygon fill="none" stroke="black" points="440.5,-103 440.5,-121 550.5,-121 550.5,-103 440.5,-103"/>
<text text-anchor="start" x="531.5" y="-109.2" font-family="Helvetica,sans-Serif" font-size="11.00">0 &gt;</text>
<polygon fill="none" stroke="black" stroke-width="2" points="216,-102 216,-254 551,-254 551,-102 216,-102"/>
</a>
</g>
</g>
<!-- m_creditbureau -->
<g id="node2" class="node">
<title>m_creditbureau</title>
<g id="a_node2"><a xlink:href="../../tables/m_creditbureau.html" xlink:title="m_creditbureau" target="_top">
<polygon fill="#ffffff" stroke="transparent" points="8,-37 8,-187 166,-187 166,-37 8,-37"/>
<polygon fill="#f5f5f5" stroke="transparent" points="8,-165 8,-187 166,-187 166,-165 8,-165"/>
<polygon fill="none" stroke="black" points="8,-165 8,-187 166,-187 166,-165 8,-165"/>
<text text-anchor="start" x="13" y="-174.2" font-family="Helvetica,sans-Serif" font-weight="bold" font-size="11.00">m_creditbureau</text>
<text text-anchor="start" x="131" y="-173.2" font-family="Helvetica,sans-Serif" font-size="11.00">[table]</text>
<polygon fill="none" stroke="black" points="8,-143 8,-165 166,-165 166,-143 8,-143"/>
<image xlink:href="../../images/primaryKeys.png" width="11px" height="12px" preserveAspectRatio="xMinYMin meet" x="13" y="-160"/>
<text text-anchor="start" x="28" y="-151.2" font-family="Helvetica,sans-Serif" font-size="11.00">id</text>
<polygon fill="#ffffff" stroke="transparent" points="8,-121 8,-143 166,-143 166,-121 8,-121"/>
<polygon fill="none" stroke="black" points="8,-121 8,-143 166,-143 166,-121 8,-121"/>
<text text-anchor="start" x="28" y="-129.2" font-family="Helvetica,sans-Serif" font-size="11.00">name</text>
<polygon fill="#ffffff" stroke="transparent" points="8,-99 8,-121 166,-121 166,-99 8,-99"/>
<polygon fill="none" stroke="black" points="8,-99 8,-121 166,-121 166,-99 8,-99"/>
<text text-anchor="start" x="28" y="-107.2" font-family="Helvetica,sans-Serif" font-size="11.00">product</text>
<polygon fill="#ffffff" stroke="transparent" points="8,-77 8,-99 166,-99 166,-77 8,-77"/>
<polygon fill="none" stroke="black" points="8,-77 8,-99 166,-99 166,-77 8,-77"/>
<text text-anchor="start" x="28" y="-85.2" font-family="Helvetica,sans-Serif" font-size="11.00">country</text>
<polygon fill="#ffffff" stroke="transparent" points="8,-55 8,-77 166,-77 166,-55 8,-55"/>
<polygon fill="none" stroke="black" points="8,-55 8,-77 166,-77 166,-55 8,-55"/>
<text text-anchor="start" x="28" y="-63.2" font-family="Helvetica,sans-Serif" font-size="11.00">implementation_key</text>
<polygon fill="#ffffff" stroke="transparent" points="8,-37 8,-55 65,-55 65,-37 8,-37"/>
<polygon fill="none" stroke="black" points="8,-37 8,-55 65,-55 65,-37 8,-37"/>
<text text-anchor="start" x="11" y="-43.2" font-family="Helvetica,sans-Serif" font-size="11.00"> &#160;</text>
<polygon fill="#ffffff" stroke="transparent" points="65,-37 65,-55 121,-55 121,-37 65,-37"/>
<polygon fill="none" stroke="black" points="65,-37 65,-55 121,-55 121,-37 65,-37"/>
<text text-anchor="start" x="90" y="-43.2" font-family="Helvetica,sans-Serif" font-size="11.00">1 row</text>
<polygon fill="#ffffff" stroke="transparent" points="121,-37 121,-55 166,-55 166,-37 121,-37"/>
<polygon fill="none" stroke="black" points="121,-37 121,-55 166,-55 166,-37 121,-37"/>
<text text-anchor="start" x="147" y="-43.2" font-family="Helvetica,sans-Serif" font-size="11.00">3 &gt;</text>
</a>
</g>
</g>
<!-- m_creditbureau_configuration&#45;&gt;m_creditbureau -->
<g id="edge1" class="edge">
<title>m_creditbureau_configuration:w&#45;&gt;m_creditbureau:e</title>
<path fill="none" stroke="black" d="M201.84,-154C190.41,-154 183.16,-154 167,-154"/>
<polygon fill="black" stroke="black" points="208.5,-154 216.5,-157.6 212.5,-154 216.5,-154 216.5,-154 216.5,-154 212.5,-154 216.5,-150.4 208.5,-154 208.5,-154"/>
<ellipse fill="none" stroke="black" cx="205.3" cy="-154" rx="3.2" ry="3.2"/>
</g>
</g>
</svg>
