<?xml version="1.0" encoding="UTF-8" standalone="no"?>
<!DOCTYPE svg PUBLIC "-//W3C//DTD SVG 1.1//EN"
 "http://www.w3.org/Graphics/SVG/1.1/DTD/svg11.dtd">
<!-- Generated by graphviz version 2.43.0 (0)
 -->
<!-- Title: twoDegreesRelationshipsDiagram Pages: 1 -->
<svg width="568pt" height="372pt"
 viewBox="0.00 0.00 568.00 372.00" xmlns="http://www.w3.org/2000/svg" xmlns:xlink="http://www.w3.org/1999/xlink">
<g id="graph0" class="graph" transform="scale(1 1) rotate(0) translate(4 368)">
<title>twoDegreesRelationshipsDiagram</title>
<polygon fill="#ffffff" stroke="transparent" points="-4,4 -4,-368 564,-368 564,4 -4,4"/>
<text text-anchor="middle" x="71.5" y="-7.2" font-family="Helvetica,sans-Serif" font-size="11.00">Generated by SchemaSpy</text>
<!-- m_creditbureau_configuration -->
<g id="node1" class="node">
<title>m_creditbureau_configuration</title>
<g id="a_node1"><a xlink:href="../../tables/m_creditbureau_configuration.html" xlink:title="m_creditbureau_configuration" target="_top">
<polygon fill="#ffffff" stroke="transparent" points="215,-206 215,-360 552,-360 552,-206 215,-206"/>
<polygon fill="#f5f5f5" stroke="transparent" points="217.5,-336 217.5,-358 550.5,-358 550.5,-336 217.5,-336"/>
<polygon fill="none" stroke="black" points="217.5,-336 217.5,-358 550.5,-358 550.5,-336 217.5,-336"/>
<text text-anchor="start" x="222.5" y="-345.2" font-family="Helvetica,sans-Serif" font-weight="bold" font-size="11.00">m_creditbureau_configuration</text>
<text text-anchor="start" x="515.5" y="-344.2" font-family="Helvetica,sans-Serif" font-size="11.00">[table]</text>
<polygon fill="none" stroke="black" points="217.5,-314 217.5,-336 440.5,-336 440.5,-314 217.5,-314"/>
<image xlink:href="../../images/primaryKeys.png" width="11px" height="12px" preserveAspectRatio="xMinYMin meet" x="222.5" y="-331"/>
<text text-anchor="start" x="237.5" y="-322.2" font-family="Helvetica,sans-Serif" font-size="11.00">id</text>
<polygon fill="none" stroke="black" points="440.5,-314 440.5,-336 550.5,-336 550.5,-314 440.5,-314"/>
<text text-anchor="start" x="443.5" y="-322.2" font-family="Helvetica,sans-Serif" font-size="11.00">bigint[19]</text>
<polygon fill="#ffffff" stroke="transparent" points="217.5,-292 217.5,-314 440.5,-314 440.5,-292 217.5,-292"/>
<polygon fill="none" stroke="black" points="217.5,-292 217.5,-314 440.5,-314 440.5,-292 217.5,-292"/>
<text text-anchor="start" x="237.5" y="-300.2" font-family="Helvetica,sans-Serif" font-size="11.00">configkey</text>
<polygon fill="none" stroke="black" points="440.5,-292 440.5,-314 550.5,-314 550.5,-292 440.5,-292"/>
<text text-anchor="start" x="443.5" y="-300.2" font-family="Helvetica,sans-Serif" font-size="11.00">varchar[50]</text>
<polygon fill="none" stroke="black" points="217.5,-270 217.5,-292 440.5,-292 440.5,-270 217.5,-270"/>
<text text-anchor="start" x="237.5" y="-278.2" font-family="Helvetica,sans-Serif" font-size="11.00">value</text>
<polygon fill="none" stroke="black" points="440.5,-270 440.5,-292 550.5,-292 550.5,-270 440.5,-270"/>
<text text-anchor="start" x="443.5" y="-278.2" font-family="Helvetica,sans-Serif" font-size="11.00">longtext[2147483647]</text>
<polygon fill="#ffffff" stroke="transparent" points="217.5,-248 217.5,-270 440.5,-270 440.5,-248 217.5,-248"/>
<polygon fill="none" stroke="black" points="217.5,-248 217.5,-270 440.5,-270 440.5,-248 217.5,-248"/>
<image xlink:href="../../images/foreignKeys.png" width="11px" height="12px" preserveAspectRatio="xMinYMin meet" x="222.5" y="-265"/>
<text text-anchor="start" x="237.5" y="-256.2" font-family="Helvetica,sans-Serif" font-size="11.00">organisation_creditbureau_id</text>
<polygon fill="none" stroke="black" points="440.5,-248 440.5,-270 550.5,-270 550.5,-248 440.5,-248"/>
<text text-anchor="start" x="443.5" y="-256.2" font-family="Helvetica,sans-Serif" font-size="11.00">bigint[19]</text>
<polygon fill="none" stroke="black" points="217.5,-226 217.5,-248 440.5,-248 440.5,-226 217.5,-226"/>
<text text-anchor="start" x="237.5" y="-234.2" font-family="Helvetica,sans-Serif" font-size="11.00">description</text>
<polygon fill="none" stroke="black" points="440.5,-226 440.5,-248 550.5,-248 550.5,-226 440.5,-226"/>
<text text-anchor="start" x="443.5" y="-234.2" font-family="Helvetica,sans-Serif" font-size="11.00">varchar[50]</text>
<polygon fill="#ffffff" stroke="transparent" points="217.5,-208 217.5,-226 320.5,-226 320.5,-208 217.5,-208"/>
<polygon fill="none" stroke="black" points="217.5,-208 217.5,-226 320.5,-226 320.5,-208 217.5,-208"/>
<text text-anchor="start" x="220.5" y="-214.2" font-family="Helvetica,sans-Serif" font-size="11.00">&lt; 1</text>
<polygon fill="#ffffff" stroke="transparent" points="320.5,-208 320.5,-226 440.5,-226 440.5,-208 320.5,-208"/>
<polygon fill="none" stroke="black" points="320.5,-208 320.5,-226 440.5,-226 440.5,-208 320.5,-208"/>
<text text-anchor="start" x="404.5" y="-214.2" font-family="Helvetica,sans-Serif" font-size="11.00">0 rows</text>
<polygon fill="#ffffff" stroke="transparent" points="440.5,-208 440.5,-226 550.5,-226 550.5,-208 440.5,-208"/>
<polygon fill="none" stroke="black" points="440.5,-208 440.5,-226 550.5,-226 550.5,-208 440.5,-208"/>
<text text-anchor="start" x="531.5" y="-214.2" font-family="Helvetica,sans-Serif" font-size="11.00">0 &gt;</text>
<polygon fill="none" stroke="black" stroke-width="2" points="216,-207 216,-359 551,-359 551,-207 216,-207"/>
</a>
</g>
</g>
<!-- m_creditbureau -->
<g id="node2" class="node">
<title>m_creditbureau</title>
<g id="a_node2"><a xlink:href="../../tables/m_creditbureau.html" xlink:title="m_creditbureau" target="_top">
<polygon fill="#ffffff" stroke="transparent" points="8,-37 8,-187 166,-187 166,-37 8,-37"/>
<polygon fill="#f5f5f5" stroke="transparent" points="8,-165 8,-187 166,-187 166,-165 8,-165"/>
<polygon fill="none" stroke="black" points="8,-165 8,-187 166,-187 166,-165 8,-165"/>
<text text-anchor="start" x="13" y="-174.2" font-family="Helvetica,sans-Serif" font-weight="bold" font-size="11.00">m_creditbureau</text>
<text text-anchor="start" x="131" y="-173.2" font-family="Helvetica,sans-Serif" font-size="11.00">[table]</text>
<polygon fill="none" stroke="black" points="8,-143 8,-165 166,-165 166,-143 8,-143"/>
<image xlink:href="../../images/primaryKeys.png" width="11px" height="12px" preserveAspectRatio="xMinYMin meet" x="13" y="-160"/>
<text text-anchor="start" x="28" y="-151.2" font-family="Helvetica,sans-Serif" font-size="11.00">id</text>
<polygon fill="#ffffff" stroke="transparent" points="8,-121 8,-143 166,-143 166,-121 8,-121"/>
<polygon fill="none" stroke="black" points="8,-121 8,-143 166,-143 166,-121 8,-121"/>
<text text-anchor="start" x="28" y="-129.2" font-family="Helvetica,sans-Serif" font-size="11.00">name</text>
<polygon fill="#ffffff" stroke="transparent" points="8,-99 8,-121 166,-121 166,-99 8,-99"/>
<polygon fill="none" stroke="black" points="8,-99 8,-121 166,-121 166,-99 8,-99"/>
<text text-anchor="start" x="28" y="-107.2" font-family="Helvetica,sans-Serif" font-size="11.00">product</text>
<polygon fill="#ffffff" stroke="transparent" points="8,-77 8,-99 166,-99 166,-77 8,-77"/>
<polygon fill="none" stroke="black" points="8,-77 8,-99 166,-99 166,-77 8,-77"/>
<text text-anchor="start" x="28" y="-85.2" font-family="Helvetica,sans-Serif" font-size="11.00">country</text>
<polygon fill="#ffffff" stroke="transparent" points="8,-55 8,-77 166,-77 166,-55 8,-55"/>
<polygon fill="none" stroke="black" points="8,-55 8,-77 166,-77 166,-55 8,-55"/>
<text text-anchor="start" x="28" y="-63.2" font-family="Helvetica,sans-Serif" font-size="11.00">implementation_key</text>
<polygon fill="#ffffff" stroke="transparent" points="8,-37 8,-55 65,-55 65,-37 8,-37"/>
<polygon fill="none" stroke="black" points="8,-37 8,-55 65,-55 65,-37 8,-37"/>
<text text-anchor="start" x="11" y="-43.2" font-family="Helvetica,sans-Serif" font-size="11.00"> &#160;</text>
<polygon fill="#ffffff" stroke="transparent" points="65,-37 65,-55 121,-55 121,-37 65,-37"/>
<polygon fill="none" stroke="black" points="65,-37 65,-55 121,-55 121,-37 65,-37"/>
<text text-anchor="start" x="90" y="-43.2" font-family="Helvetica,sans-Serif" font-size="11.00">1 row</text>
<polygon fill="#ffffff" stroke="transparent" points="121,-37 121,-55 166,-55 166,-37 121,-37"/>
<polygon fill="none" stroke="black" points="121,-37 121,-55 166,-55 166,-37 121,-37"/>
<text text-anchor="start" x="147" y="-43.2" font-family="Helvetica,sans-Serif" font-size="11.00">3 &gt;</text>
</a>
</g>
</g>
<!-- m_creditbureau_configuration&#45;&gt;m_creditbureau -->
<g id="edge1" class="edge">
<title>m_creditbureau_configuration:w&#45;&gt;m_creditbureau:e</title>
<path fill="none" stroke="black" d="M202.36,-255.01C176.04,-235.83 212.55,-154 167,-154"/>
<polygon fill="black" stroke="black" points="208.8,-256.83 215.52,-262.46 212.65,-257.91 216.5,-259 216.5,-259 216.5,-259 212.65,-257.91 217.48,-255.54 208.8,-256.83 208.8,-256.83"/>
<ellipse fill="none" stroke="black" cx="205.72" cy="-255.96" rx="3.2" ry="3.2"/>
</g>
<!-- m_creditreport -->
<g id="node3" class="node">
<title>m_creditreport</title>
<g id="a_node3"><a xlink:href="../../tables/m_creditreport.html" xlink:title="m_creditreport" target="_top">
<polygon fill="#ffffff" stroke="transparent" points="322,-127 322,-185 445,-185 445,-127 322,-127"/>
<polygon fill="#f5f5f5" stroke="transparent" points="322.5,-163 322.5,-185 445.5,-185 445.5,-163 322.5,-163"/>
<polygon fill="none" stroke="black" points="322.5,-163 322.5,-185 445.5,-185 445.5,-163 322.5,-163"/>
<text text-anchor="start" x="327.5" y="-172.2" font-family="Helvetica,sans-Serif" font-weight="bold" font-size="11.00">m_creditreport</text>
<text text-anchor="start" x="410.5" y="-171.2" font-family="Helvetica,sans-Serif" font-size="11.00">[table]</text>
<polygon fill="none" stroke="black" points="322.5,-145 322.5,-163 445.5,-163 445.5,-145 322.5,-145"/>
<text text-anchor="start" x="325.5" y="-151.2" font-family="Helvetica,sans-Serif" font-size="11.00">...</text>
<polygon fill="#ffffff" stroke="transparent" points="322.5,-127 322.5,-145 368.5,-145 368.5,-127 322.5,-127"/>
<polygon fill="none" stroke="black" points="322.5,-127 322.5,-145 368.5,-145 368.5,-127 322.5,-127"/>
<text text-anchor="start" x="325.5" y="-133.2" font-family="Helvetica,sans-Serif" font-size="11.00">&lt; 1</text>
<polygon fill="#ffffff" stroke="transparent" points="368.5,-127 368.5,-145 419.5,-145 419.5,-127 368.5,-127"/>
<polygon fill="none" stroke="black" points="368.5,-127 368.5,-145 419.5,-145 419.5,-127 368.5,-127"/>
<text text-anchor="start" x="383.5" y="-133.2" font-family="Helvetica,sans-Serif" font-size="11.00">0 rows</text>
<polygon fill="#ffffff" stroke="transparent" points="419.5,-127 419.5,-145 445.5,-145 445.5,-127 419.5,-127"/>
<polygon fill="none" stroke="black" points="419.5,-127 419.5,-145 445.5,-145 445.5,-127 419.5,-127"/>
<text text-anchor="start" x="435.5" y="-133.2" font-family="Helvetica,sans-Serif" font-size="11.00"> &#160;</text>
</a>
</g>
</g>
<!-- m_creditreport&#45;&gt;m_creditbureau -->
<g id="edge2" class="edge">
<title>m_creditreport:w&#45;&gt;m_creditbureau:e</title>
<path fill="none" stroke="black" d="M307.02,-154C250,-154 230.57,-154 167,-154"/>
<polygon fill="black" stroke="black" points="313.5,-154 321.5,-157.6 317.5,-154 321.5,-154 321.5,-154 321.5,-154 317.5,-154 321.5,-150.4 313.5,-154 313.5,-154"/>
<ellipse fill="none" stroke="black" cx="310.3" cy="-154" rx="3.2" ry="3.2"/>
</g>
<!-- m_organisation_creditbureau -->
<g id="node4" class="node">
<title>m_organisation_creditbureau</title>
<g id="a_node4"><a xlink:href="../../tables/m_organisation_creditbureau.html" xlink:title="m_organisation_creditbureau" target="_top">
<polygon fill="#ffffff" stroke="transparent" points="284,-48 284,-106 483,-106 483,-48 284,-48"/>
<polygon fill="#f5f5f5" stroke="transparent" points="284.5,-84 284.5,-106 483.5,-106 483.5,-84 284.5,-84"/>
<polygon fill="none" stroke="black" points="284.5,-84 284.5,-106 483.5,-106 483.5,-84 284.5,-84"/>
<text text-anchor="start" x="289.5" y="-93.2" font-family="Helvetica,sans-Serif" font-weight="bold" font-size="11.00">m_organisation_creditbureau</text>
<text text-anchor="start" x="448.5" y="-92.2" font-family="Helvetica,sans-Serif" font-size="11.00">[table]</text>
<polygon fill="none" stroke="black" points="284.5,-66 284.5,-84 483.5,-84 483.5,-66 284.5,-66"/>
<text text-anchor="start" x="287.5" y="-72.2" font-family="Helvetica,sans-Serif" font-size="11.00">...</text>
<polygon fill="#ffffff" stroke="transparent" points="284.5,-48 284.5,-66 364.5,-66 364.5,-48 284.5,-48"/>
<polygon fill="none" stroke="black" points="284.5,-48 284.5,-66 364.5,-66 364.5,-48 284.5,-48"/>
<text text-anchor="start" x="287.5" y="-54.2" font-family="Helvetica,sans-Serif" font-size="11.00">&lt; 1</text>
<polygon fill="#ffffff" stroke="transparent" points="364.5,-48 364.5,-66 432.5,-66 432.5,-48 364.5,-48"/>
<polygon fill="none" stroke="black" points="364.5,-48 364.5,-66 432.5,-66 432.5,-48 364.5,-48"/>
<text text-anchor="start" x="396.5" y="-54.2" font-family="Helvetica,sans-Serif" font-size="11.00">0 rows</text>
<polygon fill="#ffffff" stroke="transparent" points="432.5,-48 432.5,-66 483.5,-66 483.5,-48 432.5,-48"/>
<polygon fill="none" stroke="black" points="432.5,-48 432.5,-66 483.5,-66 483.5,-48 432.5,-48"/>
<text text-anchor="start" x="464.5" y="-54.2" font-family="Helvetica,sans-Serif" font-size="11.00">1 &gt;</text>
</a>
</g>
</g>
<!-- m_organisation_creditbureau&#45;&gt;m_creditbureau -->
<g id="edge3" class="edge">
<title>m_organisation_creditbureau:w&#45;&gt;m_creditbureau:e</title>
<path fill="none" stroke="black" d="M268.91,-76.1C242.46,-80.5 234.05,-97.52 207,-117 187.35,-131.16 191.22,-154 167,-154"/>
<polygon fill="black" stroke="black" points="275.52,-75.6 283.77,-78.59 279.51,-75.3 283.5,-75 283.5,-75 283.5,-75 279.51,-75.3 283.23,-71.41 275.52,-75.6 275.52,-75.6"/>
<ellipse fill="none" stroke="black" cx="272.33" cy="-75.84" rx="3.2" ry="3.2"/>
</g>
</g>
</svg>
