<?xml version="1.0" encoding="UTF-8" standalone="no"?>
<!DOCTYPE svg PUBLIC "-//W3C//DTD SVG 1.1//EN"
 "http://www.w3.org/Graphics/SVG/1.1/DTD/svg11.dtd">
<!-- Generated by graphviz version 2.43.0 (0)
 -->
<!-- Title: oneDegreeRelationshipsDiagram Pages: 1 -->
<svg width="435pt" height="223pt"
 viewBox="0.00 0.00 435.00 223.00" xmlns="http://www.w3.org/2000/svg" xmlns:xlink="http://www.w3.org/1999/xlink">
<g id="graph0" class="graph" transform="scale(1 1) rotate(0) translate(4 219)">
<title>oneDegreeRelationshipsDiagram</title>
<polygon fill="#ffffff" stroke="transparent" points="-4,4 -4,-219 431,-219 431,4 -4,4"/>
<text text-anchor="middle" x="71.5" y="-7.2" font-family="Helvetica,sans-Serif" font-size="11.00">Generated by SchemaSpy</text>
<!-- m_creditreport -->
<g id="node1" class="node">
<title>m_creditreport</title>
<g id="a_node1"><a xlink:href="../../tables/m_creditreport.html" xlink:title="m_creditreport" target="_top">
<polygon fill="#ffffff" stroke="transparent" points="215,-79 215,-211 419,-211 419,-79 215,-79"/>
<polygon fill="#f5f5f5" stroke="transparent" points="217,-187 217,-209 417,-209 417,-187 217,-187"/>
<polygon fill="none" stroke="black" points="217,-187 217,-209 417,-209 417,-187 217,-187"/>
<text text-anchor="start" x="222" y="-196.2" font-family="Helvetica,sans-Serif" font-weight="bold" font-size="11.00">m_creditreport</text>
<text text-anchor="start" x="382" y="-195.2" font-family="Helvetica,sans-Serif" font-size="11.00">[table]</text>
<polygon fill="none" stroke="black" points="217,-165 217,-187 350,-187 350,-165 217,-165"/>
<image xlink:href="../../images/primaryKeys.png" width="11px" height="12px" preserveAspectRatio="xMinYMin meet" x="222" y="-182"/>
<text text-anchor="start" x="237" y="-173.2" font-family="Helvetica,sans-Serif" font-size="11.00">id</text>
<polygon fill="none" stroke="black" points="350,-165 350,-187 417,-187 417,-165 350,-165"/>
<text text-anchor="start" x="353" y="-173.2" font-family="Helvetica,sans-Serif" font-size="11.00">int[10]</text>
<polygon fill="#ffffff" stroke="transparent" points="217,-143 217,-165 350,-165 350,-143 217,-143"/>
<polygon fill="none" stroke="black" points="217,-143 217,-165 350,-165 350,-143 217,-143"/>
<image xlink:href="../../images/foreignKeys.png" width="11px" height="12px" preserveAspectRatio="xMinYMin meet" x="222" y="-160"/>
<text text-anchor="start" x="237" y="-151.2" font-family="Helvetica,sans-Serif" font-size="11.00">credit_bureau_id</text>
<polygon fill="none" stroke="black" points="350,-143 350,-165 417,-165 417,-143 350,-143"/>
<text text-anchor="start" x="353" y="-151.2" font-family="Helvetica,sans-Serif" font-size="11.00">bigint[19]</text>
<polygon fill="none" stroke="black" points="217,-121 217,-143 350,-143 350,-121 217,-121"/>
<text text-anchor="start" x="237" y="-129.2" font-family="Helvetica,sans-Serif" font-size="11.00">national_id</text>
<polygon fill="none" stroke="black" points="350,-121 350,-143 417,-143 417,-121 350,-121"/>
<text text-anchor="start" x="353" y="-129.2" font-family="Helvetica,sans-Serif" font-size="11.00">varchar[128]</text>
<polygon fill="none" stroke="black" points="217,-99 217,-121 350,-121 350,-99 217,-99"/>
<text text-anchor="start" x="237" y="-107.2" font-family="Helvetica,sans-Serif" font-size="11.00">credit_reports</text>
<polygon fill="none" stroke="black" points="350,-99 350,-121 417,-121 417,-99 350,-99"/>
<text text-anchor="start" x="353" y="-107.2" font-family="Helvetica,sans-Serif" font-size="11.00">blob[65535]</text>
<polygon fill="#ffffff" stroke="transparent" points="217,-81 217,-99 275,-99 275,-81 217,-81"/>
<polygon fill="none" stroke="black" points="217,-81 217,-99 275,-99 275,-81 217,-81"/>
<text text-anchor="start" x="220" y="-87.2" font-family="Helvetica,sans-Serif" font-size="11.00">&lt; 1</text>
<polygon fill="#ffffff" stroke="transparent" points="275,-81 275,-99 350,-99 350,-81 275,-81"/>
<polygon fill="none" stroke="black" points="275,-81 275,-99 350,-99 350,-81 275,-81"/>
<text text-anchor="start" x="314" y="-87.2" font-family="Helvetica,sans-Serif" font-size="11.00">0 rows</text>
<polygon fill="#ffffff" stroke="transparent" points="350,-81 350,-99 417,-99 417,-81 350,-81"/>
<polygon fill="none" stroke="black" points="350,-81 350,-99 417,-99 417,-81 350,-81"/>
<text text-anchor="start" x="398" y="-87.2" font-family="Helvetica,sans-Serif" font-size="11.00">0 &gt;</text>
<polygon fill="none" stroke="black" stroke-width="2" points="216,-80 216,-210 418,-210 418,-80 216,-80"/>
</a>
</g>
</g>
<!-- m_creditbureau -->
<g id="node2" class="node">
<title>m_creditbureau</title>
<g id="a_node2"><a xlink:href="../../tables/m_creditbureau.html" xlink:title="m_creditbureau" target="_top">
<polygon fill="#ffffff" stroke="transparent" points="8,-37 8,-187 166,-187 166,-37 8,-37"/>
<polygon fill="#f5f5f5" stroke="transparent" points="8,-165 8,-187 166,-187 166,-165 8,-165"/>
<polygon fill="none" stroke="black" points="8,-165 8,-187 166,-187 166,-165 8,-165"/>
<text text-anchor="start" x="13" y="-174.2" font-family="Helvetica,sans-Serif" font-weight="bold" font-size="11.00">m_creditbureau</text>
<text text-anchor="start" x="131" y="-173.2" font-family="Helvetica,sans-Serif" font-size="11.00">[table]</text>
<polygon fill="none" stroke="black" points="8,-143 8,-165 166,-165 166,-143 8,-143"/>
<image xlink:href="../../images/primaryKeys.png" width="11px" height="12px" preserveAspectRatio="xMinYMin meet" x="13" y="-160"/>
<text text-anchor="start" x="28" y="-151.2" font-family="Helvetica,sans-Serif" font-size="11.00">id</text>
<polygon fill="#ffffff" stroke="transparent" points="8,-121 8,-143 166,-143 166,-121 8,-121"/>
<polygon fill="none" stroke="black" points="8,-121 8,-143 166,-143 166,-121 8,-121"/>
<text text-anchor="start" x="28" y="-129.2" font-family="Helvetica,sans-Serif" font-size="11.00">name</text>
<polygon fill="#ffffff" stroke="transparent" points="8,-99 8,-121 166,-121 166,-99 8,-99"/>
<polygon fill="none" stroke="black" points="8,-99 8,-121 166,-121 166,-99 8,-99"/>
<text text-anchor="start" x="28" y="-107.2" font-family="Helvetica,sans-Serif" font-size="11.00">product</text>
<polygon fill="#ffffff" stroke="transparent" points="8,-77 8,-99 166,-99 166,-77 8,-77"/>
<polygon fill="none" stroke="black" points="8,-77 8,-99 166,-99 166,-77 8,-77"/>
<text text-anchor="start" x="28" y="-85.2" font-family="Helvetica,sans-Serif" font-size="11.00">country</text>
<polygon fill="#ffffff" stroke="transparent" points="8,-55 8,-77 166,-77 166,-55 8,-55"/>
<polygon fill="none" stroke="black" points="8,-55 8,-77 166,-77 166,-55 8,-55"/>
<text text-anchor="start" x="28" y="-63.2" font-family="Helvetica,sans-Serif" font-size="11.00">implementation_key</text>
<polygon fill="#ffffff" stroke="transparent" points="8,-37 8,-55 65,-55 65,-37 8,-37"/>
<polygon fill="none" stroke="black" points="8,-37 8,-55 65,-55 65,-37 8,-37"/>
<text text-anchor="start" x="11" y="-43.2" font-family="Helvetica,sans-Serif" font-size="11.00"> &#160;</text>
<polygon fill="#ffffff" stroke="transparent" points="65,-37 65,-55 121,-55 121,-37 65,-37"/>
<polygon fill="none" stroke="black" points="65,-37 65,-55 121,-55 121,-37 65,-37"/>
<text text-anchor="start" x="90" y="-43.2" font-family="Helvetica,sans-Serif" font-size="11.00">1 row</text>
<polygon fill="#ffffff" stroke="transparent" points="121,-37 121,-55 166,-55 166,-37 121,-37"/>
<polygon fill="none" stroke="black" points="121,-37 121,-55 166,-55 166,-37 121,-37"/>
<text text-anchor="start" x="147" y="-43.2" font-family="Helvetica,sans-Serif" font-size="11.00">3 &gt;</text>
</a>
</g>
</g>
<!-- m_creditreport&#45;&gt;m_creditbureau -->
<g id="edge1" class="edge">
<title>m_creditreport:w&#45;&gt;m_creditbureau:e</title>
<path fill="none" stroke="black" d="M201.49,-154C190.18,-154 182.99,-154 167,-154"/>
<polygon fill="black" stroke="black" points="208,-154 216,-157.6 212,-154 216,-154 216,-154 216,-154 212,-154 216,-150.4 208,-154 208,-154"/>
<ellipse fill="none" stroke="black" cx="204.8" cy="-154" rx="3.2" ry="3.2"/>
</g>
</g>
</svg>
