<?xml version="1.0" encoding="UTF-8" standalone="no"?>
<!DOCTYPE svg PUBLIC "-//W3C//DTD SVG 1.1//EN"
 "http://www.w3.org/Graphics/SVG/1.1/DTD/svg11.dtd">
<!-- Generated by graphviz version 2.43.0 (0)
 -->
<!-- Title: oneDegreeRelationshipsDiagram Pages: 1 -->
<svg width="525pt" height="441pt"
 viewBox="0.00 0.00 525.00 441.00" xmlns="http://www.w3.org/2000/svg" xmlns:xlink="http://www.w3.org/1999/xlink">
<g id="graph0" class="graph" transform="scale(1 1) rotate(0) translate(4 437)">
<title>oneDegreeRelationshipsDiagram</title>
<polygon fill="#ffffff" stroke="transparent" points="-4,4 -4,-437 521,-437 521,4 -4,4"/>
<text text-anchor="middle" x="71.5" y="-7.2" font-family="Helvetica,sans-Serif" font-size="11.00">Generated by SchemaSpy</text>
<!-- m_creditbureau_configuration -->
<g id="node1" class="node">
<title>m_creditbureau_configuration</title>
<g id="a_node1"><a xlink:href="../../tables/m_creditbureau_configuration.html" xlink:title="m_creditbureau_configuration" target="_top">
<polygon fill="#ffffff" stroke="transparent" points="286,-305 286,-429 509,-429 509,-305 286,-305"/>
<polygon fill="#f5f5f5" stroke="transparent" points="286.5,-407 286.5,-429 509.5,-429 509.5,-407 286.5,-407"/>
<polygon fill="none" stroke="black" points="286.5,-407 286.5,-429 509.5,-429 509.5,-407 286.5,-407"/>
<text text-anchor="start" x="291.5" y="-416.2" font-family="Helvetica,sans-Serif" font-weight="bold" font-size="11.00">m_creditbureau_configuration</text>
<text text-anchor="start" x="474.5" y="-415.2" font-family="Helvetica,sans-Serif" font-size="11.00">[table]</text>
<polygon fill="none" stroke="black" points="286.5,-385 286.5,-407 509.5,-407 509.5,-385 286.5,-385"/>
<image xlink:href="../../images/primaryKeys.png" width="11px" height="12px" preserveAspectRatio="xMinYMin meet" x="291.5" y="-402"/>
<text text-anchor="start" x="306.5" y="-393.2" font-family="Helvetica,sans-Serif" font-size="11.00">id</text>
<polygon fill="#ffffff" stroke="transparent" points="286.5,-363 286.5,-385 509.5,-385 509.5,-363 286.5,-363"/>
<polygon fill="none" stroke="black" points="286.5,-363 286.5,-385 509.5,-385 509.5,-363 286.5,-363"/>
<text text-anchor="start" x="306.5" y="-371.2" font-family="Helvetica,sans-Serif" font-size="11.00">configkey</text>
<polygon fill="#ffffff" stroke="transparent" points="286.5,-341 286.5,-363 509.5,-363 509.5,-341 286.5,-341"/>
<polygon fill="none" stroke="black" points="286.5,-341 286.5,-363 509.5,-363 509.5,-341 286.5,-341"/>
<image xlink:href="../../images/foreignKeys.png" width="11px" height="12px" preserveAspectRatio="xMinYMin meet" x="291.5" y="-358"/>
<text text-anchor="start" x="306.5" y="-349.2" font-family="Helvetica,sans-Serif" font-size="11.00">organisation_creditbureau_id</text>
<polygon fill="none" stroke="black" points="286.5,-323 286.5,-341 509.5,-341 509.5,-323 286.5,-323"/>
<text text-anchor="start" x="289.5" y="-329.2" font-family="Helvetica,sans-Serif" font-size="11.00">...</text>
<polygon fill="#ffffff" stroke="transparent" points="286.5,-305 286.5,-323 382.5,-323 382.5,-305 286.5,-305"/>
<polygon fill="none" stroke="black" points="286.5,-305 286.5,-323 382.5,-323 382.5,-305 286.5,-305"/>
<text text-anchor="start" x="289.5" y="-311.2" font-family="Helvetica,sans-Serif" font-size="11.00">&lt; 1</text>
<polygon fill="#ffffff" stroke="transparent" points="382.5,-305 382.5,-323 458.5,-323 458.5,-305 382.5,-305"/>
<polygon fill="none" stroke="black" points="382.5,-305 382.5,-323 458.5,-323 458.5,-305 382.5,-305"/>
<text text-anchor="start" x="422.5" y="-311.2" font-family="Helvetica,sans-Serif" font-size="11.00">0 rows</text>
<polygon fill="#ffffff" stroke="transparent" points="458.5,-305 458.5,-323 509.5,-323 509.5,-305 458.5,-305"/>
<polygon fill="none" stroke="black" points="458.5,-305 458.5,-323 509.5,-323 509.5,-305 458.5,-305"/>
<text text-anchor="start" x="499.5" y="-311.2" font-family="Helvetica,sans-Serif" font-size="11.00"> &#160;</text>
</a>
</g>
</g>
<!-- m_creditbureau -->
<g id="node2" class="node">
<title>m_creditbureau</title>
<g id="a_node2"><a xlink:href="../../tables/m_creditbureau.html" xlink:title="m_creditbureau" target="_top">
<polygon fill="#ffffff" stroke="transparent" points="8,-110 8,-264 237,-264 237,-110 8,-110"/>
<polygon fill="#f5f5f5" stroke="transparent" points="10.5,-240 10.5,-262 235.5,-262 235.5,-240 10.5,-240"/>
<polygon fill="none" stroke="black" points="10.5,-240 10.5,-262 235.5,-262 235.5,-240 10.5,-240"/>
<text text-anchor="start" x="15.5" y="-249.2" font-family="Helvetica,sans-Serif" font-weight="bold" font-size="11.00">m_creditbureau</text>
<text text-anchor="start" x="200.5" y="-248.2" font-family="Helvetica,sans-Serif" font-size="11.00">[table]</text>
<polygon fill="none" stroke="black" points="10.5,-218 10.5,-240 168.5,-240 168.5,-218 10.5,-218"/>
<image xlink:href="../../images/primaryKeys.png" width="11px" height="12px" preserveAspectRatio="xMinYMin meet" x="15.5" y="-235"/>
<text text-anchor="start" x="30.5" y="-226.2" font-family="Helvetica,sans-Serif" font-size="11.00">id</text>
<polygon fill="none" stroke="black" points="168.5,-218 168.5,-240 235.5,-240 235.5,-218 168.5,-218"/>
<text text-anchor="start" x="171.5" y="-226.2" font-family="Helvetica,sans-Serif" font-size="11.00">bigint[19]</text>
<polygon fill="#ffffff" stroke="transparent" points="10.5,-196 10.5,-218 168.5,-218 168.5,-196 10.5,-196"/>
<polygon fill="none" stroke="black" points="10.5,-196 10.5,-218 168.5,-218 168.5,-196 10.5,-196"/>
<text text-anchor="start" x="30.5" y="-204.2" font-family="Helvetica,sans-Serif" font-size="11.00">name</text>
<polygon fill="none" stroke="black" points="168.5,-196 168.5,-218 235.5,-218 235.5,-196 168.5,-196"/>
<text text-anchor="start" x="171.5" y="-204.2" font-family="Helvetica,sans-Serif" font-size="11.00">varchar[100]</text>
<polygon fill="#ffffff" stroke="transparent" points="10.5,-174 10.5,-196 168.5,-196 168.5,-174 10.5,-174"/>
<polygon fill="none" stroke="black" points="10.5,-174 10.5,-196 168.5,-196 168.5,-174 10.5,-174"/>
<text text-anchor="start" x="30.5" y="-182.2" font-family="Helvetica,sans-Serif" font-size="11.00">product</text>
<polygon fill="none" stroke="black" points="168.5,-174 168.5,-196 235.5,-196 235.5,-174 168.5,-174"/>
<text text-anchor="start" x="171.5" y="-182.2" font-family="Helvetica,sans-Serif" font-size="11.00">varchar[100]</text>
<polygon fill="#ffffff" stroke="transparent" points="10.5,-152 10.5,-174 168.5,-174 168.5,-152 10.5,-152"/>
<polygon fill="none" stroke="black" points="10.5,-152 10.5,-174 168.5,-174 168.5,-152 10.5,-152"/>
<text text-anchor="start" x="30.5" y="-160.2" font-family="Helvetica,sans-Serif" font-size="11.00">country</text>
<polygon fill="none" stroke="black" points="168.5,-152 168.5,-174 235.5,-174 235.5,-152 168.5,-152"/>
<text text-anchor="start" x="171.5" y="-160.2" font-family="Helvetica,sans-Serif" font-size="11.00">varchar[100]</text>
<polygon fill="#ffffff" stroke="transparent" points="10.5,-130 10.5,-152 168.5,-152 168.5,-130 10.5,-130"/>
<polygon fill="none" stroke="black" points="10.5,-130 10.5,-152 168.5,-152 168.5,-130 10.5,-130"/>
<text text-anchor="start" x="30.5" y="-138.2" font-family="Helvetica,sans-Serif" font-size="11.00">implementation_key</text>
<polygon fill="none" stroke="black" points="168.5,-130 168.5,-152 235.5,-152 235.5,-130 168.5,-130"/>
<text text-anchor="start" x="171.5" y="-138.2" font-family="Helvetica,sans-Serif" font-size="11.00">varchar[100]</text>
<polygon fill="#ffffff" stroke="transparent" points="10.5,-112 10.5,-130 83.5,-130 83.5,-112 10.5,-112"/>
<polygon fill="none" stroke="black" points="10.5,-112 10.5,-130 83.5,-130 83.5,-112 10.5,-112"/>
<text text-anchor="start" x="13.5" y="-118.2" font-family="Helvetica,sans-Serif" font-size="11.00">&lt; 0</text>
<polygon fill="#ffffff" stroke="transparent" points="83.5,-112 83.5,-130 168.5,-130 168.5,-112 83.5,-112"/>
<polygon fill="none" stroke="black" points="83.5,-112 83.5,-130 168.5,-130 168.5,-112 83.5,-112"/>
<text text-anchor="start" x="137.5" y="-118.2" font-family="Helvetica,sans-Serif" font-size="11.00">1 row</text>
<polygon fill="#ffffff" stroke="transparent" points="168.5,-112 168.5,-130 235.5,-130 235.5,-112 168.5,-112"/>
<polygon fill="none" stroke="black" points="168.5,-112 168.5,-130 235.5,-130 235.5,-112 168.5,-112"/>
<text text-anchor="start" x="216.5" y="-118.2" font-family="Helvetica,sans-Serif" font-size="11.00">3 &gt;</text>
<polygon fill="none" stroke="black" stroke-width="2" points="9,-111 9,-263 236,-263 236,-111 9,-111"/>
</a>
</g>
</g>
<!-- m_creditbureau_configuration&#45;&gt;m_creditbureau -->
<g id="edge1" class="edge">
<title>m_creditbureau_configuration:w&#45;&gt;m_creditbureau:e</title>
<path fill="none" stroke="black" d="M271.25,-348.45C239.29,-328.28 289.37,-229 236.5,-229"/>
<polygon fill="black" stroke="black" points="277.74,-350.07 284.63,-355.49 281.62,-351.03 285.5,-352 285.5,-352 285.5,-352 281.62,-351.03 286.37,-348.51 277.74,-350.07 277.74,-350.07"/>
<ellipse fill="none" stroke="black" cx="274.63" cy="-349.29" rx="3.2" ry="3.2"/>
</g>
<!-- m_creditreport -->
<g id="node3" class="node">
<title>m_creditreport</title>
<g id="a_node3"><a xlink:href="../../tables/m_creditreport.html" xlink:title="m_creditreport" target="_top">
<polygon fill="#ffffff" stroke="transparent" points="331,-182 331,-284 464,-284 464,-182 331,-182"/>
<polygon fill="#f5f5f5" stroke="transparent" points="331.5,-262 331.5,-284 464.5,-284 464.5,-262 331.5,-262"/>
<polygon fill="none" stroke="black" points="331.5,-262 331.5,-284 464.5,-284 464.5,-262 331.5,-262"/>
<text text-anchor="start" x="336.5" y="-271.2" font-family="Helvetica,sans-Serif" font-weight="bold" font-size="11.00">m_creditreport</text>
<text text-anchor="start" x="429.5" y="-270.2" font-family="Helvetica,sans-Serif" font-size="11.00">[table]</text>
<polygon fill="none" stroke="black" points="331.5,-240 331.5,-262 464.5,-262 464.5,-240 331.5,-240"/>
<image xlink:href="../../images/primaryKeys.png" width="11px" height="12px" preserveAspectRatio="xMinYMin meet" x="336.5" y="-257"/>
<text text-anchor="start" x="351.5" y="-248.2" font-family="Helvetica,sans-Serif" font-size="11.00">id</text>
<polygon fill="#ffffff" stroke="transparent" points="331.5,-218 331.5,-240 464.5,-240 464.5,-218 331.5,-218"/>
<polygon fill="none" stroke="black" points="331.5,-218 331.5,-240 464.5,-240 464.5,-218 331.5,-218"/>
<image xlink:href="../../images/foreignKeys.png" width="11px" height="12px" preserveAspectRatio="xMinYMin meet" x="336.5" y="-235"/>
<text text-anchor="start" x="351.5" y="-226.2" font-family="Helvetica,sans-Serif" font-size="11.00">credit_bureau_id</text>
<polygon fill="none" stroke="black" points="331.5,-200 331.5,-218 464.5,-218 464.5,-200 331.5,-200"/>
<text text-anchor="start" x="334.5" y="-206.2" font-family="Helvetica,sans-Serif" font-size="11.00">...</text>
<polygon fill="#ffffff" stroke="transparent" points="331.5,-182 331.5,-200 382.5,-200 382.5,-182 331.5,-182"/>
<polygon fill="none" stroke="black" points="331.5,-182 331.5,-200 382.5,-200 382.5,-182 331.5,-182"/>
<text text-anchor="start" x="334.5" y="-188.2" font-family="Helvetica,sans-Serif" font-size="11.00">&lt; 1</text>
<polygon fill="#ffffff" stroke="transparent" points="382.5,-182 382.5,-200 436.5,-200 436.5,-182 382.5,-182"/>
<polygon fill="none" stroke="black" points="382.5,-182 382.5,-200 436.5,-200 436.5,-182 382.5,-182"/>
<text text-anchor="start" x="400.5" y="-188.2" font-family="Helvetica,sans-Serif" font-size="11.00">0 rows</text>
<polygon fill="#ffffff" stroke="transparent" points="436.5,-182 436.5,-200 464.5,-200 464.5,-182 436.5,-182"/>
<polygon fill="none" stroke="black" points="436.5,-182 436.5,-200 464.5,-200 464.5,-182 436.5,-182"/>
<text text-anchor="start" x="454.5" y="-188.2" font-family="Helvetica,sans-Serif" font-size="11.00"> &#160;</text>
</a>
</g>
</g>
<!-- m_creditreport&#45;&gt;m_creditbureau -->
<g id="edge2" class="edge">
<title>m_creditreport:w&#45;&gt;m_creditbureau:e</title>
<path fill="none" stroke="black" d="M315.77,-229C285.51,-229 272.89,-229 236.5,-229"/>
<polygon fill="black" stroke="black" points="322.5,-229 330.5,-232.6 326.5,-229 330.5,-229 330.5,-229 330.5,-229 326.5,-229 330.5,-225.4 322.5,-229 322.5,-229"/>
<ellipse fill="none" stroke="black" cx="319.3" cy="-229" rx="3.2" ry="3.2"/>
</g>
<!-- m_organisation_creditbureau -->
<g id="node4" class="node">
<title>m_organisation_creditbureau</title>
<g id="a_node4"><a xlink:href="../../tables/m_organisation_creditbureau.html" xlink:title="m_organisation_creditbureau" target="_top">
<polygon fill="#ffffff" stroke="transparent" points="288.5,-37 288.5,-161 506.5,-161 506.5,-37 288.5,-37"/>
<polygon fill="#f5f5f5" stroke="transparent" points="288.5,-139 288.5,-161 506.5,-161 506.5,-139 288.5,-139"/>
<polygon fill="none" stroke="black" points="288.5,-139 288.5,-161 506.5,-161 506.5,-139 288.5,-139"/>
<text text-anchor="start" x="293.5" y="-148.2" font-family="Helvetica,sans-Serif" font-weight="bold" font-size="11.00">m_organisation_creditbureau</text>
<text text-anchor="start" x="471.5" y="-147.2" font-family="Helvetica,sans-Serif" font-size="11.00">[table]</text>
<polygon fill="none" stroke="black" points="288.5,-117 288.5,-139 506.5,-139 506.5,-117 288.5,-117"/>
<image xlink:href="../../images/primaryKeys.png" width="11px" height="12px" preserveAspectRatio="xMinYMin meet" x="293.5" y="-134"/>
<text text-anchor="start" x="308.5" y="-125.2" font-family="Helvetica,sans-Serif" font-size="11.00">id</text>
<polygon fill="#ffffff" stroke="transparent" points="288.5,-95 288.5,-117 506.5,-117 506.5,-95 288.5,-95"/>
<polygon fill="none" stroke="black" points="288.5,-95 288.5,-117 506.5,-117 506.5,-95 288.5,-95"/>
<text text-anchor="start" x="308.5" y="-103.2" font-family="Helvetica,sans-Serif" font-size="11.00">alias</text>
<polygon fill="#ffffff" stroke="transparent" points="288.5,-73 288.5,-95 506.5,-95 506.5,-73 288.5,-73"/>
<polygon fill="none" stroke="black" points="288.5,-73 288.5,-95 506.5,-95 506.5,-73 288.5,-73"/>
<image xlink:href="../../images/foreignKeys.png" width="11px" height="12px" preserveAspectRatio="xMinYMin meet" x="293.5" y="-90"/>
<text text-anchor="start" x="308.5" y="-81.2" font-family="Helvetica,sans-Serif" font-size="11.00">creditbureau_id</text>
<polygon fill="none" stroke="black" points="288.5,-55 288.5,-73 506.5,-73 506.5,-55 288.5,-55"/>
<text text-anchor="start" x="291.5" y="-61.2" font-family="Helvetica,sans-Serif" font-size="11.00">...</text>
<polygon fill="#ffffff" stroke="transparent" points="288.5,-37 288.5,-55 377.5,-55 377.5,-37 288.5,-37"/>
<polygon fill="none" stroke="black" points="288.5,-37 288.5,-55 377.5,-55 377.5,-37 288.5,-37"/>
<text text-anchor="start" x="291.5" y="-43.2" font-family="Helvetica,sans-Serif" font-size="11.00">&lt; 1</text>
<polygon fill="#ffffff" stroke="transparent" points="377.5,-37 377.5,-55 450.5,-55 450.5,-37 377.5,-37"/>
<polygon fill="none" stroke="black" points="377.5,-37 377.5,-55 450.5,-55 450.5,-37 377.5,-37"/>
<text text-anchor="start" x="414.5" y="-43.2" font-family="Helvetica,sans-Serif" font-size="11.00">0 rows</text>
<polygon fill="#ffffff" stroke="transparent" points="450.5,-37 450.5,-55 506.5,-55 506.5,-37 450.5,-37"/>
<polygon fill="none" stroke="black" points="450.5,-37 450.5,-55 506.5,-55 506.5,-37 450.5,-37"/>
<text text-anchor="start" x="487.5" y="-43.2" font-family="Helvetica,sans-Serif" font-size="11.00">1 &gt;</text>
</a>
</g>
</g>
<!-- m_organisation_creditbureau&#45;&gt;m_creditbureau -->
<g id="edge3" class="edge">
<title>m_organisation_creditbureau:w&#45;&gt;m_creditbureau:e</title>
<path fill="none" stroke="black" d="M273.36,-86.9C232.48,-107.33 299.08,-229 236.5,-229"/>
<polygon fill="black" stroke="black" points="279.66,-85.61 288.22,-87.53 283.58,-84.8 287.5,-84 287.5,-84 287.5,-84 283.58,-84.8 286.78,-80.47 279.66,-85.61 279.66,-85.61"/>
<ellipse fill="none" stroke="black" cx="276.53" cy="-86.25" rx="3.2" ry="3.2"/>
</g>
</g>
</svg>
