<?xml version="1.0" encoding="UTF-8" standalone="no"?>
<!DOCTYPE svg PUBLIC "-//W3C//DTD SVG 1.1//EN"
 "http://www.w3.org/Graphics/SVG/1.1/DTD/svg11.dtd">
<!-- Generated by graphviz version 2.43.0 (0)
 -->
<!-- Title: twoDegreesRelationshipsDiagram Pages: 1 -->
<svg width="819pt" height="267pt"
 viewBox="0.00 0.00 819.00 267.00" xmlns="http://www.w3.org/2000/svg" xmlns:xlink="http://www.w3.org/1999/xlink">
<g id="graph0" class="graph" transform="scale(1 1) rotate(0) translate(4 263)">
<title>twoDegreesRelationshipsDiagram</title>
<polygon fill="#ffffff" stroke="transparent" points="-4,4 -4,-263 815,-263 815,4 -4,4"/>
<text text-anchor="middle" x="71.5" y="-7.2" font-family="Helvetica,sans-Serif" font-size="11.00">Generated by SchemaSpy</text>
<!-- m_client_collateral_management -->
<g id="node1" class="node">
<title>m_client_collateral_management</title>
<g id="a_node1"><a xlink:href="../../tables/m_client_collateral_management.html" xlink:title="m_client_collateral_management" target="_top">
<polygon fill="#ffffff" stroke="transparent" points="587,-195 587,-253 803,-253 803,-195 587,-195"/>
<polygon fill="#f5f5f5" stroke="transparent" points="587,-231 587,-253 803,-253 803,-231 587,-231"/>
<polygon fill="none" stroke="black" points="587,-231 587,-253 803,-253 803,-231 587,-231"/>
<text text-anchor="start" x="592" y="-240.2" font-family="Helvetica,sans-Serif" font-weight="bold" font-size="11.00">m_client_collateral_management</text>
<text text-anchor="start" x="768" y="-239.2" font-family="Helvetica,sans-Serif" font-size="11.00">[table]</text>
<polygon fill="none" stroke="black" points="587,-213 587,-231 803,-231 803,-213 587,-213"/>
<text text-anchor="start" x="590" y="-219.2" font-family="Helvetica,sans-Serif" font-size="11.00">...</text>
<polygon fill="#ffffff" stroke="transparent" points="587,-195 587,-213 675,-213 675,-195 587,-195"/>
<polygon fill="none" stroke="black" points="587,-195 587,-213 675,-213 675,-195 587,-195"/>
<text text-anchor="start" x="590" y="-201.2" font-family="Helvetica,sans-Serif" font-size="11.00">&lt; 2</text>
<polygon fill="#ffffff" stroke="transparent" points="675,-195 675,-213 747,-213 747,-195 675,-195"/>
<polygon fill="none" stroke="black" points="675,-195 675,-213 747,-213 747,-195 675,-195"/>
<text text-anchor="start" x="711" y="-201.2" font-family="Helvetica,sans-Serif" font-size="11.00">0 rows</text>
<polygon fill="#ffffff" stroke="transparent" points="747,-195 747,-213 803,-213 803,-195 747,-195"/>
<polygon fill="none" stroke="black" points="747,-195 747,-213 803,-213 803,-195 747,-195"/>
<text text-anchor="start" x="784" y="-201.2" font-family="Helvetica,sans-Serif" font-size="11.00">1 &gt;</text>
</a>
</g>
</g>
<!-- m_collateral_management -->
<g id="node2" class="node">
<title>m_collateral_management</title>
<g id="a_node2"><a xlink:href="../../tables/m_collateral_management.html" xlink:title="m_collateral_management" target="_top">
<polygon fill="#ffffff" stroke="transparent" points="340,-153 340,-255 538,-255 538,-153 340,-153"/>
<polygon fill="#f5f5f5" stroke="transparent" points="340,-233 340,-255 538,-255 538,-233 340,-233"/>
<polygon fill="none" stroke="black" points="340,-233 340,-255 538,-255 538,-233 340,-233"/>
<text text-anchor="start" x="345" y="-242.2" font-family="Helvetica,sans-Serif" font-weight="bold" font-size="11.00">m_collateral_management</text>
<text text-anchor="start" x="503" y="-241.2" font-family="Helvetica,sans-Serif" font-size="11.00">[table]</text>
<polygon fill="none" stroke="black" points="340,-211 340,-233 538,-233 538,-211 340,-211"/>
<image xlink:href="../../images/primaryKeys.png" width="11px" height="12px" preserveAspectRatio="xMinYMin meet" x="345" y="-228"/>
<text text-anchor="start" x="360" y="-219.2" font-family="Helvetica,sans-Serif" font-size="11.00">id</text>
<polygon fill="#ffffff" stroke="transparent" points="340,-189 340,-211 538,-211 538,-189 340,-189"/>
<polygon fill="none" stroke="black" points="340,-189 340,-211 538,-211 538,-189 340,-189"/>
<image xlink:href="../../images/foreignKeys.png" width="11px" height="12px" preserveAspectRatio="xMinYMin meet" x="345" y="-206"/>
<text text-anchor="start" x="360" y="-197.2" font-family="Helvetica,sans-Serif" font-size="11.00">currency</text>
<polygon fill="none" stroke="black" points="340,-171 340,-189 538,-189 538,-171 340,-171"/>
<text text-anchor="start" x="343" y="-177.2" font-family="Helvetica,sans-Serif" font-size="11.00">...</text>
<polygon fill="#ffffff" stroke="transparent" points="340,-153 340,-171 419,-171 419,-153 340,-153"/>
<polygon fill="none" stroke="black" points="340,-153 340,-171 419,-171 419,-153 340,-153"/>
<text text-anchor="start" x="343" y="-159.2" font-family="Helvetica,sans-Serif" font-size="11.00">&lt; 1</text>
<polygon fill="#ffffff" stroke="transparent" points="419,-153 419,-171 487,-171 487,-153 419,-153"/>
<polygon fill="none" stroke="black" points="419,-153 419,-171 487,-171 487,-153 419,-153"/>
<text text-anchor="start" x="451" y="-159.2" font-family="Helvetica,sans-Serif" font-size="11.00">0 rows</text>
<polygon fill="#ffffff" stroke="transparent" points="487,-153 487,-171 538,-171 538,-153 487,-153"/>
<polygon fill="none" stroke="black" points="487,-153 487,-171 538,-171 538,-153 487,-153"/>
<text text-anchor="start" x="519" y="-159.2" font-family="Helvetica,sans-Serif" font-size="11.00">1 &gt;</text>
</a>
</g>
</g>
<!-- m_client_collateral_management&#45;&gt;m_collateral_management -->
<g id="edge1" class="edge">
<title>m_client_collateral_management:w&#45;&gt;m_collateral_management:e</title>
<path fill="none" stroke="black" d="M571.4,-222C560.93,-222 554.01,-222 539,-222"/>
<polygon fill="black" stroke="black" points="578,-222 586,-225.6 582,-222 586,-222 586,-222 586,-222 582,-222 586,-218.4 578,-222 578,-222"/>
<ellipse fill="none" stroke="black" cx="574.8" cy="-222" rx="3.2" ry="3.2"/>
</g>
<!-- m_currency -->
<g id="node3" class="node">
<title>m_currency</title>
<g id="a_node3"><a xlink:href="../../tables/m_currency.html" xlink:title="m_currency" target="_top">
<polygon fill="#ffffff" stroke="transparent" points="8,-37 8,-235 291,-235 291,-37 8,-37"/>
<polygon fill="#f5f5f5" stroke="transparent" points="10.5,-211 10.5,-233 289.5,-233 289.5,-211 10.5,-211"/>
<polygon fill="none" stroke="black" points="10.5,-211 10.5,-233 289.5,-233 289.5,-211 10.5,-211"/>
<text text-anchor="start" x="15.5" y="-220.2" font-family="Helvetica,sans-Serif" font-weight="bold" font-size="11.00">m_currency</text>
<text text-anchor="start" x="254.5" y="-219.2" font-family="Helvetica,sans-Serif" font-size="11.00">[table]</text>
<polygon fill="none" stroke="black" points="10.5,-189 10.5,-211 228.5,-211 228.5,-189 10.5,-189"/>
<image xlink:href="../../images/primaryKeys.png" width="11px" height="12px" preserveAspectRatio="xMinYMin meet" x="15.5" y="-206"/>
<text text-anchor="start" x="30.5" y="-197.2" font-family="Helvetica,sans-Serif" font-size="11.00">id</text>
<polygon fill="none" stroke="black" points="228.5,-189 228.5,-211 289.5,-211 289.5,-189 228.5,-189"/>
<text text-anchor="start" x="231.5" y="-197.2" font-family="Helvetica,sans-Serif" font-size="11.00">bigint[19]</text>
<polygon fill="#ffffff" stroke="transparent" points="10.5,-167 10.5,-189 228.5,-189 228.5,-167 10.5,-167"/>
<polygon fill="none" stroke="black" points="10.5,-167 10.5,-189 228.5,-189 228.5,-167 10.5,-167"/>
<text text-anchor="start" x="30.5" y="-175.2" font-family="Helvetica,sans-Serif" font-size="11.00">code</text>
<polygon fill="none" stroke="black" points="228.5,-167 228.5,-189 289.5,-189 289.5,-167 228.5,-167"/>
<text text-anchor="start" x="231.5" y="-175.2" font-family="Helvetica,sans-Serif" font-size="11.00">varchar[3]</text>
<polygon fill="none" stroke="black" points="10.5,-145 10.5,-167 228.5,-167 228.5,-145 10.5,-145"/>
<text text-anchor="start" x="30.5" y="-153.2" font-family="Helvetica,sans-Serif" font-size="11.00">decimal_places</text>
<polygon fill="none" stroke="black" points="228.5,-145 228.5,-167 289.5,-167 289.5,-145 228.5,-145"/>
<text text-anchor="start" x="231.5" y="-153.2" font-family="Helvetica,sans-Serif" font-size="11.00">smallint[5]</text>
<polygon fill="none" stroke="black" points="10.5,-123 10.5,-145 228.5,-145 228.5,-123 10.5,-123"/>
<text text-anchor="start" x="30.5" y="-131.2" font-family="Helvetica,sans-Serif" font-size="11.00">currency_multiplesof</text>
<polygon fill="none" stroke="black" points="228.5,-123 228.5,-145 289.5,-145 289.5,-123 228.5,-123"/>
<text text-anchor="start" x="231.5" y="-131.2" font-family="Helvetica,sans-Serif" font-size="11.00">smallint[5]</text>
<polygon fill="none" stroke="black" points="10.5,-101 10.5,-123 228.5,-123 228.5,-101 10.5,-101"/>
<text text-anchor="start" x="30.5" y="-109.2" font-family="Helvetica,sans-Serif" font-size="11.00">display_symbol</text>
<polygon fill="none" stroke="black" points="228.5,-101 228.5,-123 289.5,-123 289.5,-101 228.5,-101"/>
<text text-anchor="start" x="231.5" y="-109.2" font-family="Helvetica,sans-Serif" font-size="11.00">varchar[10]</text>
<polygon fill="none" stroke="black" points="10.5,-79 10.5,-101 228.5,-101 228.5,-79 10.5,-79"/>
<text text-anchor="start" x="30.5" y="-87.2" font-family="Helvetica,sans-Serif" font-size="11.00">name</text>
<polygon fill="none" stroke="black" points="228.5,-79 228.5,-101 289.5,-101 289.5,-79 228.5,-79"/>
<text text-anchor="start" x="231.5" y="-87.2" font-family="Helvetica,sans-Serif" font-size="11.00">varchar[50]</text>
<polygon fill="none" stroke="black" points="10.5,-57 10.5,-79 228.5,-79 228.5,-57 10.5,-57"/>
<text text-anchor="start" x="30.5" y="-65.2" font-family="Helvetica,sans-Serif" font-size="11.00">internationalized_name_code</text>
<polygon fill="none" stroke="black" points="228.5,-57 228.5,-79 289.5,-79 289.5,-57 228.5,-57"/>
<text text-anchor="start" x="231.5" y="-65.2" font-family="Helvetica,sans-Serif" font-size="11.00">varchar[50]</text>
<polygon fill="#ffffff" stroke="transparent" points="10.5,-39 10.5,-57 110.5,-57 110.5,-39 10.5,-39"/>
<polygon fill="none" stroke="black" points="10.5,-39 10.5,-57 110.5,-57 110.5,-39 10.5,-39"/>
<text text-anchor="start" x="13.5" y="-45.2" font-family="Helvetica,sans-Serif" font-size="11.00">&lt; 0</text>
<polygon fill="#ffffff" stroke="transparent" points="110.5,-39 110.5,-57 228.5,-57 228.5,-39 110.5,-39"/>
<polygon fill="none" stroke="black" points="110.5,-39 110.5,-57 228.5,-57 228.5,-39 110.5,-39"/>
<text text-anchor="start" x="192.5" y="-45.2" font-family="Helvetica,sans-Serif" font-size="11.00">0 rows</text>
<polygon fill="#ffffff" stroke="transparent" points="228.5,-39 228.5,-57 289.5,-57 289.5,-39 228.5,-39"/>
<polygon fill="none" stroke="black" points="228.5,-39 228.5,-57 289.5,-57 289.5,-39 228.5,-39"/>
<text text-anchor="start" x="270.5" y="-45.2" font-family="Helvetica,sans-Serif" font-size="11.00">1 &gt;</text>
<polygon fill="none" stroke="black" stroke-width="2" points="9,-38 9,-234 290,-234 290,-38 9,-38"/>
</a>
</g>
</g>
<!-- m_collateral_management&#45;&gt;m_currency -->
<g id="edge2" class="edge">
<title>m_collateral_management:w&#45;&gt;m_currency:e</title>
<path fill="none" stroke="black" d="M324.28,-200C313.29,-200 306.16,-200 290.5,-200"/>
<polygon fill="black" stroke="black" points="331,-200 339,-203.6 335,-200 339,-200 339,-200 339,-200 335,-200 339,-196.4 331,-200 331,-200"/>
<ellipse fill="none" stroke="black" cx="327.8" cy="-200" rx="3.2" ry="3.2"/>
</g>
</g>
</svg>
