<?xml version="1.0" encoding="UTF-8" standalone="no"?>
<!DOCTYPE svg PUBLIC "-//W3C//DTD SVG 1.1//EN"
 "http://www.w3.org/Graphics/SVG/1.1/DTD/svg11.dtd">
<!-- Generated by graphviz version 2.43.0 (0)
 -->
<!-- Title: oneDegreeRelationshipsDiagram Pages: 1 -->
<svg width="784pt" height="307pt"
 viewBox="0.00 0.00 784.00 307.00" xmlns="http://www.w3.org/2000/svg" xmlns:xlink="http://www.w3.org/1999/xlink">
<g id="graph0" class="graph" transform="scale(1 1) rotate(0) translate(4 303)">
<title>oneDegreeRelationshipsDiagram</title>
<polygon fill="#ffffff" stroke="transparent" points="-4,4 -4,-303 780,-303 780,4 -4,4"/>
<text text-anchor="middle" x="71.5" y="-7.2" font-family="Helvetica,sans-Serif" font-size="11.00">Generated by SchemaSpy</text>
<!-- m_deposit_account_recurring_detail -->
<g id="node1" class="node">
<title>m_deposit_account_recurring_detail</title>
<g id="a_node1"><a xlink:href="../../tables/m_deposit_account_recurring_detail.html" xlink:title="m_deposit_account_recurring_detail" target="_top">
<polygon fill="#ffffff" stroke="transparent" points="383,-53 383,-295 768,-295 768,-53 383,-53"/>
<polygon fill="#f5f5f5" stroke="transparent" points="385.5,-271 385.5,-293 766.5,-293 766.5,-271 385.5,-271"/>
<polygon fill="none" stroke="black" points="385.5,-271 385.5,-293 766.5,-293 766.5,-271 385.5,-271"/>
<text text-anchor="start" x="390.5" y="-280.2" font-family="Helvetica,sans-Serif" font-weight="bold" font-size="11.00">m_deposit_account_recurring_detail</text>
<text text-anchor="start" x="731.5" y="-279.2" font-family="Helvetica,sans-Serif" font-size="11.00">[table]</text>
<polygon fill="none" stroke="black" points="385.5,-249 385.5,-271 696.5,-271 696.5,-249 385.5,-249"/>
<image xlink:href="../../images/primaryKeys.png" width="11px" height="12px" preserveAspectRatio="xMinYMin meet" x="390.5" y="-266"/>
<text text-anchor="start" x="405.5" y="-257.2" font-family="Helvetica,sans-Serif" font-size="11.00">id</text>
<polygon fill="none" stroke="black" points="696.5,-249 696.5,-271 766.5,-271 766.5,-249 696.5,-249"/>
<text text-anchor="start" x="699.5" y="-257.2" font-family="Helvetica,sans-Serif" font-size="11.00">bigint[19]</text>
<polygon fill="#ffffff" stroke="transparent" points="385.5,-227 385.5,-249 696.5,-249 696.5,-227 385.5,-227"/>
<polygon fill="none" stroke="black" points="385.5,-227 385.5,-249 696.5,-249 696.5,-227 385.5,-227"/>
<image xlink:href="../../images/foreignKeys.png" width="11px" height="12px" preserveAspectRatio="xMinYMin meet" x="390.5" y="-244"/>
<text text-anchor="start" x="405.5" y="-235.2" font-family="Helvetica,sans-Serif" font-size="11.00">savings_account_id</text>
<polygon fill="none" stroke="black" points="696.5,-227 696.5,-249 766.5,-249 766.5,-227 696.5,-227"/>
<text text-anchor="start" x="699.5" y="-235.2" font-family="Helvetica,sans-Serif" font-size="11.00">bigint[19]</text>
<polygon fill="none" stroke="black" points="385.5,-205 385.5,-227 696.5,-227 696.5,-205 385.5,-205"/>
<text text-anchor="start" x="405.5" y="-213.2" font-family="Helvetica,sans-Serif" font-size="11.00">mandatory_recommended_deposit_amount</text>
<polygon fill="none" stroke="black" points="696.5,-205 696.5,-227 766.5,-227 766.5,-205 696.5,-205"/>
<text text-anchor="start" x="699.5" y="-213.2" font-family="Helvetica,sans-Serif" font-size="11.00">decimal[19,6]</text>
<polygon fill="none" stroke="black" points="385.5,-183 385.5,-205 696.5,-205 696.5,-183 385.5,-183"/>
<text text-anchor="start" x="405.5" y="-191.2" font-family="Helvetica,sans-Serif" font-size="11.00">is_mandatory</text>
<polygon fill="none" stroke="black" points="696.5,-183 696.5,-205 766.5,-205 766.5,-183 696.5,-183"/>
<text text-anchor="start" x="699.5" y="-191.2" font-family="Helvetica,sans-Serif" font-size="11.00">bit[1]</text>
<polygon fill="none" stroke="black" points="385.5,-161 385.5,-183 696.5,-183 696.5,-161 385.5,-161"/>
<text text-anchor="start" x="405.5" y="-169.2" font-family="Helvetica,sans-Serif" font-size="11.00">allow_withdrawal</text>
<polygon fill="none" stroke="black" points="696.5,-161 696.5,-183 766.5,-183 766.5,-161 696.5,-161"/>
<text text-anchor="start" x="699.5" y="-169.2" font-family="Helvetica,sans-Serif" font-size="11.00">bit[1]</text>
<polygon fill="none" stroke="black" points="385.5,-139 385.5,-161 696.5,-161 696.5,-139 385.5,-139"/>
<text text-anchor="start" x="405.5" y="-147.2" font-family="Helvetica,sans-Serif" font-size="11.00">adjust_advance_towards_future_payments</text>
<polygon fill="none" stroke="black" points="696.5,-139 696.5,-161 766.5,-161 766.5,-139 696.5,-139"/>
<text text-anchor="start" x="699.5" y="-147.2" font-family="Helvetica,sans-Serif" font-size="11.00">bit[1]</text>
<polygon fill="none" stroke="black" points="385.5,-117 385.5,-139 696.5,-139 696.5,-117 385.5,-117"/>
<text text-anchor="start" x="405.5" y="-125.2" font-family="Helvetica,sans-Serif" font-size="11.00">is_calendar_inherited</text>
<polygon fill="none" stroke="black" points="696.5,-117 696.5,-139 766.5,-139 766.5,-117 696.5,-117"/>
<text text-anchor="start" x="699.5" y="-125.2" font-family="Helvetica,sans-Serif" font-size="11.00">bit[1]</text>
<polygon fill="none" stroke="black" points="385.5,-95 385.5,-117 696.5,-117 696.5,-95 385.5,-95"/>
<text text-anchor="start" x="405.5" y="-103.2" font-family="Helvetica,sans-Serif" font-size="11.00">total_overdue_amount</text>
<polygon fill="none" stroke="black" points="696.5,-95 696.5,-117 766.5,-117 766.5,-95 696.5,-95"/>
<text text-anchor="start" x="699.5" y="-103.2" font-family="Helvetica,sans-Serif" font-size="11.00">decimal[19,6]</text>
<polygon fill="none" stroke="black" points="385.5,-73 385.5,-95 696.5,-95 696.5,-73 385.5,-73"/>
<text text-anchor="start" x="405.5" y="-81.2" font-family="Helvetica,sans-Serif" font-size="11.00">no_of_overdue_installments</text>
<polygon fill="none" stroke="black" points="696.5,-73 696.5,-95 766.5,-95 766.5,-73 696.5,-73"/>
<text text-anchor="start" x="699.5" y="-81.2" font-family="Helvetica,sans-Serif" font-size="11.00">int[10]</text>
<polygon fill="#ffffff" stroke="transparent" points="385.5,-55 385.5,-73 532.5,-73 532.5,-55 385.5,-55"/>
<polygon fill="none" stroke="black" points="385.5,-55 385.5,-73 532.5,-73 532.5,-55 385.5,-55"/>
<text text-anchor="start" x="388.5" y="-61.2" font-family="Helvetica,sans-Serif" font-size="11.00">&lt; 1</text>
<polygon fill="#ffffff" stroke="transparent" points="532.5,-55 532.5,-73 696.5,-73 696.5,-55 532.5,-55"/>
<polygon fill="none" stroke="black" points="532.5,-55 532.5,-73 696.5,-73 696.5,-55 532.5,-55"/>
<text text-anchor="start" x="660.5" y="-61.2" font-family="Helvetica,sans-Serif" font-size="11.00">0 rows</text>
<polygon fill="#ffffff" stroke="transparent" points="696.5,-55 696.5,-73 766.5,-73 766.5,-55 696.5,-55"/>
<polygon fill="none" stroke="black" points="696.5,-55 696.5,-73 766.5,-73 766.5,-55 696.5,-55"/>
<text text-anchor="start" x="747.5" y="-61.2" font-family="Helvetica,sans-Serif" font-size="11.00">0 &gt;</text>
<polygon fill="none" stroke="black" stroke-width="2" points="384,-54 384,-294 767,-294 767,-54 384,-54"/>
</a>
</g>
</g>
<!-- m_savings_account -->
<g id="node2" class="node">
<title>m_savings_account</title>
<g id="a_node2"><a xlink:href="../../tables/m_savings_account.html" xlink:title="m_savings_account" target="_top">
<polygon fill="#ffffff" stroke="transparent" points="8,-37 8,-271 334,-271 334,-37 8,-37"/>
<polygon fill="#f5f5f5" stroke="transparent" points="8,-249 8,-271 334,-271 334,-249 8,-249"/>
<polygon fill="none" stroke="black" points="8,-249 8,-271 334,-271 334,-249 8,-249"/>
<text text-anchor="start" x="13" y="-258.2" font-family="Helvetica,sans-Serif" font-weight="bold" font-size="11.00">m_savings_account</text>
<text text-anchor="start" x="299" y="-257.2" font-family="Helvetica,sans-Serif" font-size="11.00">[table]</text>
<polygon fill="none" stroke="black" points="8,-227 8,-249 334,-249 334,-227 8,-227"/>
<image xlink:href="../../images/primaryKeys.png" width="11px" height="12px" preserveAspectRatio="xMinYMin meet" x="13" y="-244"/>
<text text-anchor="start" x="28" y="-235.2" font-family="Helvetica,sans-Serif" font-size="11.00">id</text>
<polygon fill="#ffffff" stroke="transparent" points="8,-205 8,-227 334,-227 334,-205 8,-205"/>
<polygon fill="none" stroke="black" points="8,-205 8,-227 334,-227 334,-205 8,-205"/>
<text text-anchor="start" x="28" y="-213.2" font-family="Helvetica,sans-Serif" font-size="11.00">account_no</text>
<polygon fill="#ffffff" stroke="transparent" points="8,-183 8,-205 334,-205 334,-183 8,-183"/>
<polygon fill="none" stroke="black" points="8,-183 8,-205 334,-205 334,-183 8,-183"/>
<text text-anchor="start" x="28" y="-191.2" font-family="Helvetica,sans-Serif" font-size="11.00">external_id</text>
<polygon fill="#ffffff" stroke="transparent" points="8,-161 8,-183 334,-183 334,-161 8,-161"/>
<polygon fill="none" stroke="black" points="8,-161 8,-183 334,-183 334,-161 8,-161"/>
<image xlink:href="../../images/foreignKeys.png" width="11px" height="12px" preserveAspectRatio="xMinYMin meet" x="13" y="-178"/>
<text text-anchor="start" x="28" y="-169.2" font-family="Helvetica,sans-Serif" font-size="11.00">client_id</text>
<polygon fill="#ffffff" stroke="transparent" points="8,-139 8,-161 334,-161 334,-139 8,-139"/>
<polygon fill="none" stroke="black" points="8,-139 8,-161 334,-161 334,-139 8,-139"/>
<image xlink:href="../../images/foreignKeys.png" width="11px" height="12px" preserveAspectRatio="xMinYMin meet" x="13" y="-156"/>
<text text-anchor="start" x="28" y="-147.2" font-family="Helvetica,sans-Serif" font-size="11.00">group_id</text>
<polygon fill="#ffffff" stroke="transparent" points="8,-117 8,-139 334,-139 334,-117 8,-117"/>
<polygon fill="none" stroke="black" points="8,-117 8,-139 334,-139 334,-117 8,-117"/>
<image xlink:href="../../images/foreignKeys.png" width="11px" height="12px" preserveAspectRatio="xMinYMin meet" x="13" y="-134"/>
<text text-anchor="start" x="28" y="-125.2" font-family="Helvetica,sans-Serif" font-size="11.00">gsim_id</text>
<polygon fill="#ffffff" stroke="transparent" points="8,-95 8,-117 334,-117 334,-95 8,-95"/>
<polygon fill="none" stroke="black" points="8,-95 8,-117 334,-117 334,-95 8,-95"/>
<image xlink:href="../../images/foreignKeys.png" width="11px" height="12px" preserveAspectRatio="xMinYMin meet" x="13" y="-112"/>
<text text-anchor="start" x="28" y="-103.2" font-family="Helvetica,sans-Serif" font-size="11.00">product_id</text>
<polygon fill="#ffffff" stroke="transparent" points="8,-73 8,-95 334,-95 334,-73 8,-73"/>
<polygon fill="none" stroke="black" points="8,-73 8,-95 334,-95 334,-73 8,-73"/>
<image xlink:href="../../images/foreignKeys.png" width="11px" height="12px" preserveAspectRatio="xMinYMin meet" x="13" y="-90"/>
<text text-anchor="start" x="28" y="-81.2" font-family="Helvetica,sans-Serif" font-size="11.00">tax_group_id</text>
<polygon fill="none" stroke="black" points="8,-55 8,-73 334,-73 334,-55 8,-55"/>
<text text-anchor="start" x="11" y="-61.2" font-family="Helvetica,sans-Serif" font-size="11.00">...</text>
<polygon fill="#ffffff" stroke="transparent" points="8,-37 8,-55 148,-55 148,-37 8,-37"/>
<polygon fill="none" stroke="black" points="8,-37 8,-55 148,-55 148,-37 8,-37"/>
<text text-anchor="start" x="11" y="-43.2" font-family="Helvetica,sans-Serif" font-size="11.00">&lt; 5</text>
<polygon fill="#ffffff" stroke="transparent" points="148,-37 148,-55 246,-55 246,-37 148,-37"/>
<polygon fill="none" stroke="black" points="148,-37 148,-55 246,-55 246,-37 148,-37"/>
<text text-anchor="start" x="210" y="-43.2" font-family="Helvetica,sans-Serif" font-size="11.00">0 rows</text>
<polygon fill="#ffffff" stroke="transparent" points="246,-37 246,-55 334,-55 334,-37 246,-37"/>
<polygon fill="none" stroke="black" points="246,-37 246,-55 334,-55 334,-37 246,-37"/>
<text text-anchor="start" x="309" y="-43.2" font-family="Helvetica,sans-Serif" font-size="11.00">17 &gt;</text>
</a>
</g>
</g>
<!-- m_deposit_account_recurring_detail&#45;&gt;m_savings_account -->
<g id="edge1" class="edge">
<title>m_deposit_account_recurring_detail:w&#45;&gt;m_savings_account:e</title>
<path fill="none" stroke="black" d="M369.84,-238C358.41,-238 351.16,-238 335,-238"/>
<polygon fill="black" stroke="black" points="376.5,-238 384.5,-241.6 380.5,-238 384.5,-238 384.5,-238 384.5,-238 380.5,-238 384.5,-234.4 376.5,-238 376.5,-238"/>
<ellipse fill="none" stroke="black" cx="373.3" cy="-238" rx="3.2" ry="3.2"/>
</g>
</g>
</svg>
