<?xml version="1.0" encoding="UTF-8" standalone="no"?>
<!DOCTYPE svg PUBLIC "-//W3C//DTD SVG 1.1//EN"
 "http://www.w3.org/Graphics/SVG/1.1/DTD/svg11.dtd">
<!-- Generated by graphviz version 2.43.0 (0)
 -->
<!-- Title: twoDegreesRelationshipsDiagram Pages: 1 -->
<svg width="1045pt" height="559pt"
 viewBox="0.00 0.00 1045.25 559.00" xmlns="http://www.w3.org/2000/svg" xmlns:xlink="http://www.w3.org/1999/xlink">
<g id="graph0" class="graph" transform="scale(1 1) rotate(0) translate(4 555)">
<title>twoDegreesRelationshipsDiagram</title>
<polygon fill="#ffffff" stroke="transparent" points="-4,4 -4,-555 1041.25,-555 1041.25,4 -4,4"/>
<text text-anchor="middle" x="71.5" y="-7.2" font-family="Helvetica,sans-Serif" font-size="11.00">Generated by SchemaSpy</text>
<!-- m_client -->
<g id="node1" class="node">
<title>m_client</title>
<g id="a_node1"><a xlink:href="../../tables/m_client.html" xlink:title="m_client" target="_top">
<polygon fill="#ffffff" stroke="transparent" points="932,-489 932,-547 1027,-547 1027,-489 932,-489"/>
<polygon fill="#f5f5f5" stroke="transparent" points="932.5,-525 932.5,-547 1027.5,-547 1027.5,-525 932.5,-525"/>
<polygon fill="none" stroke="black" points="932.5,-525 932.5,-547 1027.5,-547 1027.5,-525 932.5,-525"/>
<text text-anchor="start" x="937.5" y="-534.2" font-family="Helvetica,sans-Serif" font-weight="bold" font-size="11.00">m_client</text>
<text text-anchor="start" x="992.5" y="-533.2" font-family="Helvetica,sans-Serif" font-size="11.00">[table]</text>
<polygon fill="none" stroke="black" points="932.5,-507 932.5,-525 1027.5,-525 1027.5,-507 932.5,-507"/>
<text text-anchor="start" x="935.5" y="-513.2" font-family="Helvetica,sans-Serif" font-size="11.00">...</text>
<polygon fill="#ffffff" stroke="transparent" points="932.5,-489 932.5,-507 960.5,-507 960.5,-489 932.5,-489"/>
<polygon fill="none" stroke="black" points="932.5,-489 932.5,-507 960.5,-507 960.5,-489 932.5,-489"/>
<text text-anchor="start" x="935.5" y="-495.2" font-family="Helvetica,sans-Serif" font-size="11.00">&lt; 13</text>
<polygon fill="#ffffff" stroke="transparent" points="960.5,-489 960.5,-507 999.5,-507 999.5,-489 960.5,-489"/>
<polygon fill="none" stroke="black" points="960.5,-489 960.5,-507 999.5,-507 999.5,-489 960.5,-489"/>
<text text-anchor="start" x="963.5" y="-495.2" font-family="Helvetica,sans-Serif" font-size="11.00">0 rows</text>
<polygon fill="#ffffff" stroke="transparent" points="999.5,-489 999.5,-507 1027.5,-507 1027.5,-489 999.5,-489"/>
<polygon fill="none" stroke="black" points="999.5,-489 999.5,-507 1027.5,-507 1027.5,-489 999.5,-489"/>
<text text-anchor="start" x="1002.5" y="-495.2" font-family="Helvetica,sans-Serif" font-size="11.00">23 &gt;</text>
</a>
</g>
</g>
<!-- m_savings_account -->
<g id="node2" class="node">
<title>m_savings_account</title>
<g id="a_node2"><a xlink:href="../../tables/m_savings_account.html" xlink:title="m_savings_account" target="_top">
<polygon fill="#ffffff" stroke="transparent" points="640,-489 640,-547 789,-547 789,-489 640,-489"/>
<polygon fill="#f5f5f5" stroke="transparent" points="640.5,-525 640.5,-547 789.5,-547 789.5,-525 640.5,-525"/>
<polygon fill="none" stroke="black" points="640.5,-525 640.5,-547 789.5,-547 789.5,-525 640.5,-525"/>
<text text-anchor="start" x="645.5" y="-534.2" font-family="Helvetica,sans-Serif" font-weight="bold" font-size="11.00">m_savings_account</text>
<text text-anchor="start" x="754.5" y="-533.2" font-family="Helvetica,sans-Serif" font-size="11.00">[table]</text>
<polygon fill="none" stroke="black" points="640.5,-507 640.5,-525 789.5,-525 789.5,-507 640.5,-507"/>
<text text-anchor="start" x="643.5" y="-513.2" font-family="Helvetica,sans-Serif" font-size="11.00">...</text>
<polygon fill="#ffffff" stroke="transparent" points="640.5,-489 640.5,-507 692.5,-507 692.5,-489 640.5,-489"/>
<polygon fill="none" stroke="black" points="640.5,-489 640.5,-507 692.5,-507 692.5,-489 640.5,-489"/>
<text text-anchor="start" x="643.5" y="-495.2" font-family="Helvetica,sans-Serif" font-size="11.00">&lt; 5</text>
<polygon fill="#ffffff" stroke="transparent" points="692.5,-489 692.5,-507 746.5,-507 746.5,-489 692.5,-489"/>
<polygon fill="none" stroke="black" points="692.5,-489 692.5,-507 746.5,-507 746.5,-489 692.5,-489"/>
<text text-anchor="start" x="710.5" y="-495.2" font-family="Helvetica,sans-Serif" font-size="11.00">0 rows</text>
<polygon fill="#ffffff" stroke="transparent" points="746.5,-489 746.5,-507 789.5,-507 789.5,-489 746.5,-489"/>
<polygon fill="none" stroke="black" points="746.5,-489 746.5,-507 789.5,-507 789.5,-489 746.5,-489"/>
<text text-anchor="start" x="764.5" y="-495.2" font-family="Helvetica,sans-Serif" font-size="11.00">17 &gt;</text>
</a>
</g>
</g>
<!-- m_client&#45;&gt;m_savings_account -->
<g id="edge1" class="edge">
<title>m_client:w&#45;&gt;m_savings_account:e</title>
<path fill="none" stroke="black" d="M916.98,-516C865.95,-516 848.03,-516 790.5,-516"/>
<polygon fill="black" stroke="black" points="923.5,-516 931.5,-519.6 927.5,-516 931.5,-516 931.5,-516 931.5,-516 927.5,-516 931.5,-512.4 923.5,-516 923.5,-516"/>
<ellipse fill="none" stroke="black" cx="920.3" cy="-516" rx="3.2" ry="3.2"/>
</g>
<!-- m_savings_product -->
<g id="node3" class="node">
<title>m_savings_product</title>
<g id="a_node3"><a xlink:href="../../tables/m_savings_product.html" xlink:title="m_savings_product" target="_top">
<polygon fill="#ffffff" stroke="transparent" points="171,-297 171,-443 497,-443 497,-297 171,-297"/>
<polygon fill="#f5f5f5" stroke="transparent" points="171,-421 171,-443 497,-443 497,-421 171,-421"/>
<polygon fill="none" stroke="black" points="171,-421 171,-443 497,-443 497,-421 171,-421"/>
<text text-anchor="start" x="176" y="-430.2" font-family="Helvetica,sans-Serif" font-weight="bold" font-size="11.00">m_savings_product</text>
<text text-anchor="start" x="462" y="-429.2" font-family="Helvetica,sans-Serif" font-size="11.00">[table]</text>
<polygon fill="none" stroke="black" points="171,-399 171,-421 497,-421 497,-399 171,-399"/>
<image xlink:href="../../images/primaryKeys.png" width="11px" height="12px" preserveAspectRatio="xMinYMin meet" x="176" y="-416"/>
<text text-anchor="start" x="191" y="-407.2" font-family="Helvetica,sans-Serif" font-size="11.00">id</text>
<polygon fill="#ffffff" stroke="transparent" points="171,-377 171,-399 497,-399 497,-377 171,-377"/>
<polygon fill="none" stroke="black" points="171,-377 171,-399 497,-399 497,-377 171,-377"/>
<text text-anchor="start" x="191" y="-385.2" font-family="Helvetica,sans-Serif" font-size="11.00">name</text>
<polygon fill="#ffffff" stroke="transparent" points="171,-355 171,-377 497,-377 497,-355 171,-355"/>
<polygon fill="none" stroke="black" points="171,-355 171,-377 497,-377 497,-355 171,-355"/>
<text text-anchor="start" x="191" y="-363.2" font-family="Helvetica,sans-Serif" font-size="11.00">short_name</text>
<polygon fill="#ffffff" stroke="transparent" points="171,-333 171,-355 497,-355 497,-333 171,-333"/>
<polygon fill="none" stroke="black" points="171,-333 171,-355 497,-355 497,-333 171,-333"/>
<image xlink:href="../../images/foreignKeys.png" width="11px" height="12px" preserveAspectRatio="xMinYMin meet" x="176" y="-350"/>
<text text-anchor="start" x="191" y="-341.2" font-family="Helvetica,sans-Serif" font-size="11.00">tax_group_id</text>
<polygon fill="none" stroke="black" points="171,-315 171,-333 497,-333 497,-315 171,-315"/>
<text text-anchor="start" x="174" y="-321.2" font-family="Helvetica,sans-Serif" font-size="11.00">...</text>
<polygon fill="#ffffff" stroke="transparent" points="171,-297 171,-315 314,-315 314,-297 171,-297"/>
<polygon fill="none" stroke="black" points="171,-297 171,-315 314,-315 314,-297 171,-297"/>
<text text-anchor="start" x="174" y="-303.2" font-family="Helvetica,sans-Serif" font-size="11.00">&lt; 1</text>
<polygon fill="#ffffff" stroke="transparent" points="314,-297 314,-315 414,-315 414,-297 314,-297"/>
<polygon fill="none" stroke="black" points="314,-297 314,-315 414,-315 414,-297 314,-297"/>
<text text-anchor="start" x="378" y="-303.2" font-family="Helvetica,sans-Serif" font-size="11.00">0 rows</text>
<polygon fill="#ffffff" stroke="transparent" points="414,-297 414,-315 497,-315 497,-297 414,-297"/>
<polygon fill="none" stroke="black" points="414,-297 414,-315 497,-315 497,-297 414,-297"/>
<text text-anchor="start" x="478" y="-303.2" font-family="Helvetica,sans-Serif" font-size="11.00">6 &gt;</text>
</a>
</g>
</g>
<!-- m_client&#45;&gt;m_savings_product -->
<g id="edge2" class="edge">
<title>m_client:w&#45;&gt;m_savings_product:e</title>
<path fill="none" stroke="black" d="M917.74,-511.32C908.44,-503.09 907.61,-486.18 891,-479 746.59,-416.52 680.15,-519.46 538,-452 514.71,-440.95 523.78,-410 498,-410"/>
<polygon fill="black" stroke="black" points="923.93,-513.43 930.34,-519.41 927.71,-514.71 931.5,-516 931.5,-516 931.5,-516 927.71,-514.71 932.66,-512.59 923.93,-513.43 923.93,-513.43"/>
<ellipse fill="none" stroke="black" cx="920.9" cy="-512.4" rx="3.2" ry="3.2"/>
</g>
<!-- m_savings_account&#45;&gt;m_client -->
<g id="edge8" class="edge">
<title>m_savings_account:w&#45;&gt;m_client:e</title>
<path fill="none" stroke="black" d="M631.12,-504.1C631.85,-497.54 635.55,-489.79 640.5,-485 648.22,-477.52 1019.78,-477.52 1027.5,-485 1037.4,-494.59 1042.28,-516 1028.5,-516"/>
<polygon fill="black" stroke="black" points="634.89,-509.46 636.56,-518.07 637.2,-512.73 639.5,-516 639.5,-516 639.5,-516 637.2,-512.73 642.44,-513.93 634.89,-509.46 634.89,-509.46"/>
<ellipse fill="none" stroke="black" cx="633.05" cy="-506.84" rx="3.2" ry="3.2"/>
</g>
<!-- m_savings_account&#45;&gt;m_savings_product -->
<g id="edge9" class="edge">
<title>m_savings_account:w&#45;&gt;m_savings_product:e</title>
<path fill="none" stroke="black" d="M624.65,-515.64C587.16,-513.64 571.1,-502.97 538,-475 512.09,-453.11 531.92,-410 498,-410"/>
<polygon fill="black" stroke="black" points="631.5,-515.81 639.41,-519.6 635.5,-515.9 639.5,-516 639.5,-516 639.5,-516 635.5,-515.9 639.59,-512.4 631.5,-515.81 631.5,-515.81"/>
<ellipse fill="none" stroke="black" cx="628.3" cy="-515.73" rx="3.2" ry="3.2"/>
</g>
<!-- m_tax_group -->
<g id="node9" class="node">
<title>m_tax_group</title>
<g id="a_node9"><a xlink:href="../../tables/m_tax_group.html" xlink:title="m_tax_group" target="_top">
<polygon fill="#ffffff" stroke="transparent" points="8,-390 8,-448 122,-448 122,-390 8,-390"/>
<polygon fill="#f5f5f5" stroke="transparent" points="8,-426 8,-448 122,-448 122,-426 8,-426"/>
<polygon fill="none" stroke="black" points="8,-426 8,-448 122,-448 122,-426 8,-426"/>
<text text-anchor="start" x="13" y="-435.2" font-family="Helvetica,sans-Serif" font-weight="bold" font-size="11.00">m_tax_group</text>
<text text-anchor="start" x="87" y="-434.2" font-family="Helvetica,sans-Serif" font-size="11.00">[table]</text>
<polygon fill="none" stroke="black" points="8,-408 8,-426 122,-426 122,-408 8,-408"/>
<text text-anchor="start" x="11" y="-414.2" font-family="Helvetica,sans-Serif" font-size="11.00">...</text>
<polygon fill="#ffffff" stroke="transparent" points="8,-390 8,-408 45,-408 45,-390 8,-390"/>
<polygon fill="none" stroke="black" points="8,-390 8,-408 45,-408 45,-390 8,-390"/>
<text text-anchor="start" x="11" y="-396.2" font-family="Helvetica,sans-Serif" font-size="11.00">&lt; 2</text>
<polygon fill="#ffffff" stroke="transparent" points="45,-390 45,-408 92,-408 92,-390 45,-390"/>
<polygon fill="none" stroke="black" points="45,-390 45,-408 92,-408 92,-390 45,-390"/>
<text text-anchor="start" x="56" y="-396.2" font-family="Helvetica,sans-Serif" font-size="11.00">0 rows</text>
<polygon fill="#ffffff" stroke="transparent" points="92,-390 92,-408 122,-408 122,-390 92,-390"/>
<polygon fill="none" stroke="black" points="92,-390 92,-408 122,-408 122,-390 92,-390"/>
<text text-anchor="start" x="103" y="-396.2" font-family="Helvetica,sans-Serif" font-size="11.00">4 &gt;</text>
</a>
</g>
</g>
<!-- m_savings_account&#45;&gt;m_tax_group -->
<g id="edge10" class="edge">
<title>m_savings_account:w&#45;&gt;m_tax_group:e</title>
<path fill="none" stroke="black" d="M625.02,-516.04C422.68,-517.25 351.97,-542.48 163,-454 141.07,-443.73 147.22,-417 123,-417"/>
<polygon fill="black" stroke="black" points="631.5,-516.02 639.51,-519.6 635.5,-516.01 639.5,-516 639.5,-516 639.5,-516 635.5,-516.01 639.49,-512.4 631.5,-516.02 631.5,-516.02"/>
<ellipse fill="none" stroke="black" cx="628.3" cy="-516.03" rx="3.2" ry="3.2"/>
</g>
<!-- m_savings_product&#45;&gt;m_tax_group -->
<g id="edge11" class="edge">
<title>m_savings_product:w&#45;&gt;m_tax_group:e</title>
<path fill="none" stroke="black" d="M155.95,-349.25C139.46,-365.99 155.26,-417 123,-417"/>
<polygon fill="black" stroke="black" points="162.51,-346.8 171.26,-347.37 166.25,-345.4 170,-344 170,-344 170,-344 166.25,-345.4 168.74,-340.63 162.51,-346.8 162.51,-346.8"/>
<ellipse fill="none" stroke="black" cx="159.51" cy="-347.92" rx="3.2" ry="3.2"/>
</g>
<!-- m_deposit_product_interest_rate_chart -->
<g id="node4" class="node">
<title>m_deposit_product_interest_rate_chart</title>
<g id="a_node4"><a xlink:href="../../tables/m_deposit_product_interest_rate_chart.html" xlink:title="m_deposit_product_interest_rate_chart" target="_top">
<polygon fill="#ffffff" stroke="transparent" points="546,-116 546,-204 883,-204 883,-116 546,-116"/>
<polygon fill="#f5f5f5" stroke="transparent" points="548.5,-180 548.5,-202 881.5,-202 881.5,-180 548.5,-180"/>
<polygon fill="none" stroke="black" points="548.5,-180 548.5,-202 881.5,-202 881.5,-180 548.5,-180"/>
<text text-anchor="start" x="553.5" y="-189.2" font-family="Helvetica,sans-Serif" font-weight="bold" font-size="11.00">m_deposit_product_interest_rate_chart</text>
<text text-anchor="start" x="846.5" y="-188.2" font-family="Helvetica,sans-Serif" font-size="11.00">[table]</text>
<polygon fill="#ffffff" stroke="transparent" points="548.5,-158 548.5,-180 831.5,-180 831.5,-158 548.5,-158"/>
<polygon fill="none" stroke="black" points="548.5,-158 548.5,-180 831.5,-180 831.5,-158 548.5,-158"/>
<image xlink:href="../../images/foreignKeys.png" width="11px" height="12px" preserveAspectRatio="xMinYMin meet" x="553.5" y="-175"/>
<text text-anchor="start" x="568.5" y="-166.2" font-family="Helvetica,sans-Serif" font-size="11.00">deposit_product_id</text>
<polygon fill="none" stroke="black" points="831.5,-158 831.5,-180 881.5,-180 881.5,-158 831.5,-158"/>
<text text-anchor="start" x="834.5" y="-166.2" font-family="Helvetica,sans-Serif" font-size="11.00">bigint[19]</text>
<polygon fill="#ffffff" stroke="transparent" points="548.5,-136 548.5,-158 831.5,-158 831.5,-136 548.5,-136"/>
<polygon fill="none" stroke="black" points="548.5,-136 548.5,-158 831.5,-158 831.5,-136 548.5,-136"/>
<image xlink:href="../../images/foreignKeys.png" width="11px" height="12px" preserveAspectRatio="xMinYMin meet" x="553.5" y="-153"/>
<text text-anchor="start" x="568.5" y="-144.2" font-family="Helvetica,sans-Serif" font-size="11.00">interest_rate_chart_id</text>
<polygon fill="none" stroke="black" points="831.5,-136 831.5,-158 881.5,-158 881.5,-136 831.5,-136"/>
<text text-anchor="start" x="834.5" y="-144.2" font-family="Helvetica,sans-Serif" font-size="11.00">bigint[19]</text>
<polygon fill="#ffffff" stroke="transparent" points="548.5,-118 548.5,-136 681.5,-136 681.5,-118 548.5,-118"/>
<polygon fill="none" stroke="black" points="548.5,-118 548.5,-136 681.5,-136 681.5,-118 548.5,-118"/>
<text text-anchor="start" x="551.5" y="-124.2" font-family="Helvetica,sans-Serif" font-size="11.00">&lt; 2</text>
<polygon fill="#ffffff" stroke="transparent" points="681.5,-118 681.5,-136 831.5,-136 831.5,-118 681.5,-118"/>
<polygon fill="none" stroke="black" points="681.5,-118 681.5,-136 831.5,-136 831.5,-118 681.5,-118"/>
<text text-anchor="start" x="795.5" y="-124.2" font-family="Helvetica,sans-Serif" font-size="11.00">0 rows</text>
<polygon fill="#ffffff" stroke="transparent" points="831.5,-118 831.5,-136 881.5,-136 881.5,-118 831.5,-118"/>
<polygon fill="none" stroke="black" points="831.5,-118 831.5,-136 881.5,-136 881.5,-118 831.5,-118"/>
<text text-anchor="start" x="862.5" y="-124.2" font-family="Helvetica,sans-Serif" font-size="11.00">0 &gt;</text>
<polygon fill="none" stroke="black" stroke-width="2" points="547,-117 547,-203 882,-203 882,-117 547,-117"/>
</a>
</g>
</g>
<!-- m_deposit_product_interest_rate_chart&#45;&gt;m_savings_product -->
<g id="edge3" class="edge">
<title>m_deposit_product_interest_rate_chart:w&#45;&gt;m_savings_product:e</title>
<path fill="none" stroke="black" d="M532.92,-170.8C454.62,-192.86 601.79,-410 498,-410"/>
<polygon fill="black" stroke="black" points="539.56,-169.98 547.94,-172.57 543.53,-169.49 547.5,-169 547.5,-169 547.5,-169 543.53,-169.49 547.06,-165.43 539.56,-169.98 539.56,-169.98"/>
<ellipse fill="none" stroke="black" cx="536.38" cy="-170.37" rx="3.2" ry="3.2"/>
</g>
<!-- m_interest_rate_chart -->
<g id="node5" class="node">
<title>m_interest_rate_chart</title>
<g id="a_node5"><a xlink:href="../../tables/m_interest_rate_chart.html" xlink:title="m_interest_rate_chart" target="_top">
<polygon fill="#ffffff" stroke="transparent" points="215,-58 215,-138 453,-138 453,-58 215,-58"/>
<polygon fill="#f5f5f5" stroke="transparent" points="215,-116 215,-138 453,-138 453,-116 215,-116"/>
<polygon fill="none" stroke="black" points="215,-116 215,-138 453,-138 453,-116 215,-116"/>
<text text-anchor="start" x="220" y="-125.2" font-family="Helvetica,sans-Serif" font-weight="bold" font-size="11.00">m_interest_rate_chart</text>
<text text-anchor="start" x="418" y="-124.2" font-family="Helvetica,sans-Serif" font-size="11.00">[table]</text>
<polygon fill="none" stroke="black" points="215,-94 215,-116 453,-116 453,-94 215,-94"/>
<image xlink:href="../../images/primaryKeys.png" width="11px" height="12px" preserveAspectRatio="xMinYMin meet" x="220" y="-111"/>
<text text-anchor="start" x="235" y="-102.2" font-family="Helvetica,sans-Serif" font-size="11.00">id</text>
<polygon fill="none" stroke="black" points="215,-76 215,-94 453,-94 453,-76 215,-76"/>
<text text-anchor="start" x="218" y="-82.2" font-family="Helvetica,sans-Serif" font-size="11.00">...</text>
<polygon fill="#ffffff" stroke="transparent" points="215,-58 215,-76 310,-76 310,-58 215,-58"/>
<polygon fill="none" stroke="black" points="215,-58 215,-76 310,-76 310,-58 215,-58"/>
<text text-anchor="start" x="218" y="-64.2" font-family="Helvetica,sans-Serif" font-size="11.00"> &#160;</text>
<polygon fill="#ffffff" stroke="transparent" points="310,-58 310,-76 390,-76 390,-58 310,-58"/>
<polygon fill="none" stroke="black" points="310,-58 310,-76 390,-76 390,-58 310,-58"/>
<text text-anchor="start" x="354" y="-64.2" font-family="Helvetica,sans-Serif" font-size="11.00">0 rows</text>
<polygon fill="#ffffff" stroke="transparent" points="390,-58 390,-76 453,-76 453,-58 390,-58"/>
<polygon fill="none" stroke="black" points="390,-58 390,-76 453,-76 453,-58 390,-58"/>
<text text-anchor="start" x="434" y="-64.2" font-family="Helvetica,sans-Serif" font-size="11.00">2 &gt;</text>
</a>
</g>
</g>
<!-- m_deposit_product_interest_rate_chart&#45;&gt;m_interest_rate_chart -->
<g id="edge4" class="edge">
<title>m_deposit_product_interest_rate_chart:w&#45;&gt;m_interest_rate_chart:e</title>
<path fill="none" stroke="black" d="M533.12,-145.4C500.79,-137.73 494.22,-105 454,-105"/>
<polygon fill="black" stroke="black" points="539.55,-146.12 547.1,-150.58 543.52,-146.56 547.5,-147 547.5,-147 547.5,-147 543.52,-146.56 547.9,-143.42 539.55,-146.12 539.55,-146.12"/>
<ellipse fill="none" stroke="black" cx="536.37" cy="-145.76" rx="3.2" ry="3.2"/>
</g>
<!-- m_deposit_product_recurring_detail -->
<g id="node6" class="node">
<title>m_deposit_product_recurring_detail</title>
<g id="a_node6"><a xlink:href="../../tables/m_deposit_product_recurring_detail.html" xlink:title="m_deposit_product_recurring_detail" target="_top">
<polygon fill="#ffffff" stroke="transparent" points="596.5,-383 596.5,-441 832.5,-441 832.5,-383 596.5,-383"/>
<polygon fill="#f5f5f5" stroke="transparent" points="596.5,-419 596.5,-441 832.5,-441 832.5,-419 596.5,-419"/>
<polygon fill="none" stroke="black" points="596.5,-419 596.5,-441 832.5,-441 832.5,-419 596.5,-419"/>
<text text-anchor="start" x="601.5" y="-428.2" font-family="Helvetica,sans-Serif" font-weight="bold" font-size="11.00">m_deposit_product_recurring_detail</text>
<text text-anchor="start" x="797.5" y="-427.2" font-family="Helvetica,sans-Serif" font-size="11.00">[table]</text>
<polygon fill="none" stroke="black" points="596.5,-401 596.5,-419 832.5,-419 832.5,-401 596.5,-401"/>
<text text-anchor="start" x="599.5" y="-407.2" font-family="Helvetica,sans-Serif" font-size="11.00">...</text>
<polygon fill="#ffffff" stroke="transparent" points="596.5,-383 596.5,-401 699.5,-401 699.5,-383 596.5,-383"/>
<polygon fill="none" stroke="black" points="596.5,-383 596.5,-401 699.5,-401 699.5,-383 596.5,-383"/>
<text text-anchor="start" x="599.5" y="-389.2" font-family="Helvetica,sans-Serif" font-size="11.00">&lt; 1</text>
<polygon fill="#ffffff" stroke="transparent" points="699.5,-383 699.5,-401 778.5,-401 778.5,-383 699.5,-383"/>
<polygon fill="none" stroke="black" points="699.5,-383 699.5,-401 778.5,-401 778.5,-383 699.5,-383"/>
<text text-anchor="start" x="742.5" y="-389.2" font-family="Helvetica,sans-Serif" font-size="11.00">0 rows</text>
<polygon fill="#ffffff" stroke="transparent" points="778.5,-383 778.5,-401 832.5,-401 832.5,-383 778.5,-383"/>
<polygon fill="none" stroke="black" points="778.5,-383 778.5,-401 832.5,-401 832.5,-383 778.5,-383"/>
<text text-anchor="start" x="822.5" y="-389.2" font-family="Helvetica,sans-Serif" font-size="11.00"> &#160;</text>
</a>
</g>
</g>
<!-- m_deposit_product_recurring_detail&#45;&gt;m_savings_product -->
<g id="edge5" class="edge">
<title>m_deposit_product_recurring_detail:w&#45;&gt;m_savings_product:e</title>
<path fill="none" stroke="black" d="M581.07,-410C549.07,-410 536.09,-410 498,-410"/>
<polygon fill="black" stroke="black" points="587.5,-410 595.5,-413.6 591.5,-410 595.5,-410 595.5,-410 595.5,-410 591.5,-410 595.5,-406.4 587.5,-410 587.5,-410"/>
<ellipse fill="none" stroke="black" cx="584.3" cy="-410" rx="3.2" ry="3.2"/>
</g>
<!-- m_deposit_product_term_and_preclosure -->
<g id="node7" class="node">
<title>m_deposit_product_term_and_preclosure</title>
<g id="a_node7"><a xlink:href="../../tables/m_deposit_product_term_and_preclosure.html" xlink:title="m_deposit_product_term_and_preclosure" target="_top">
<polygon fill="#ffffff" stroke="transparent" points="582.5,-304 582.5,-362 846.5,-362 846.5,-304 582.5,-304"/>
<polygon fill="#f5f5f5" stroke="transparent" points="582.5,-340 582.5,-362 846.5,-362 846.5,-340 582.5,-340"/>
<polygon fill="none" stroke="black" points="582.5,-340 582.5,-362 846.5,-362 846.5,-340 582.5,-340"/>
<text text-anchor="start" x="587.5" y="-349.2" font-family="Helvetica,sans-Serif" font-weight="bold" font-size="11.00">m_deposit_product_term_and_preclosure</text>
<text text-anchor="start" x="811.5" y="-348.2" font-family="Helvetica,sans-Serif" font-size="11.00">[table]</text>
<polygon fill="none" stroke="black" points="582.5,-322 582.5,-340 846.5,-340 846.5,-322 582.5,-322"/>
<text text-anchor="start" x="585.5" y="-328.2" font-family="Helvetica,sans-Serif" font-size="11.00">...</text>
<polygon fill="#ffffff" stroke="transparent" points="582.5,-304 582.5,-322 699.5,-322 699.5,-304 582.5,-304"/>
<polygon fill="none" stroke="black" points="582.5,-304 582.5,-322 699.5,-322 699.5,-304 582.5,-304"/>
<text text-anchor="start" x="585.5" y="-310.2" font-family="Helvetica,sans-Serif" font-size="11.00">&lt; 1</text>
<polygon fill="#ffffff" stroke="transparent" points="699.5,-304 699.5,-322 785.5,-322 785.5,-304 699.5,-304"/>
<polygon fill="none" stroke="black" points="699.5,-304 699.5,-322 785.5,-322 785.5,-304 699.5,-304"/>
<text text-anchor="start" x="749.5" y="-310.2" font-family="Helvetica,sans-Serif" font-size="11.00">0 rows</text>
<polygon fill="#ffffff" stroke="transparent" points="785.5,-304 785.5,-322 846.5,-322 846.5,-304 785.5,-304"/>
<polygon fill="none" stroke="black" points="785.5,-304 785.5,-322 846.5,-322 846.5,-304 785.5,-304"/>
<text text-anchor="start" x="836.5" y="-310.2" font-family="Helvetica,sans-Serif" font-size="11.00"> &#160;</text>
</a>
</g>
</g>
<!-- m_deposit_product_term_and_preclosure&#45;&gt;m_savings_product -->
<g id="edge6" class="edge">
<title>m_deposit_product_term_and_preclosure:w&#45;&gt;m_savings_product:e</title>
<path fill="none" stroke="black" d="M568.11,-336.94C545.26,-355.31 519.25,-410 498,-410"/>
<polygon fill="black" stroke="black" points="574.19,-334.24 582.96,-334.29 577.84,-332.62 581.5,-331 581.5,-331 581.5,-331 577.84,-332.62 580.04,-327.71 574.19,-334.24 574.19,-334.24"/>
<ellipse fill="none" stroke="black" cx="571.26" cy="-335.54" rx="3.2" ry="3.2"/>
</g>
<!-- m_interest_rate_slab -->
<g id="node8" class="node">
<title>m_interest_rate_slab</title>
<g id="a_node8"><a xlink:href="../../tables/m_interest_rate_slab.html" xlink:title="m_interest_rate_slab" target="_top">
<polygon fill="#ffffff" stroke="transparent" points="637.5,-37 637.5,-95 791.5,-95 791.5,-37 637.5,-37"/>
<polygon fill="#f5f5f5" stroke="transparent" points="637.5,-73 637.5,-95 791.5,-95 791.5,-73 637.5,-73"/>
<polygon fill="none" stroke="black" points="637.5,-73 637.5,-95 791.5,-95 791.5,-73 637.5,-73"/>
<text text-anchor="start" x="642.5" y="-82.2" font-family="Helvetica,sans-Serif" font-weight="bold" font-size="11.00">m_interest_rate_slab</text>
<text text-anchor="start" x="756.5" y="-81.2" font-family="Helvetica,sans-Serif" font-size="11.00">[table]</text>
<polygon fill="none" stroke="black" points="637.5,-55 637.5,-73 791.5,-73 791.5,-55 637.5,-55"/>
<text text-anchor="start" x="640.5" y="-61.2" font-family="Helvetica,sans-Serif" font-size="11.00">...</text>
<polygon fill="#ffffff" stroke="transparent" points="637.5,-37 637.5,-55 694.5,-55 694.5,-37 637.5,-37"/>
<polygon fill="none" stroke="black" points="637.5,-37 637.5,-55 694.5,-55 694.5,-37 637.5,-37"/>
<text text-anchor="start" x="640.5" y="-43.2" font-family="Helvetica,sans-Serif" font-size="11.00">&lt; 1</text>
<polygon fill="#ffffff" stroke="transparent" points="694.5,-37 694.5,-55 751.5,-55 751.5,-37 694.5,-37"/>
<polygon fill="none" stroke="black" points="694.5,-37 694.5,-55 751.5,-55 751.5,-37 694.5,-37"/>
<text text-anchor="start" x="715.5" y="-43.2" font-family="Helvetica,sans-Serif" font-size="11.00">0 rows</text>
<polygon fill="#ffffff" stroke="transparent" points="751.5,-37 751.5,-55 791.5,-55 791.5,-37 751.5,-37"/>
<polygon fill="none" stroke="black" points="751.5,-37 751.5,-55 791.5,-55 791.5,-37 751.5,-37"/>
<text text-anchor="start" x="772.5" y="-43.2" font-family="Helvetica,sans-Serif" font-size="11.00">1 &gt;</text>
</a>
</g>
</g>
<!-- m_interest_rate_slab&#45;&gt;m_interest_rate_chart -->
<g id="edge7" class="edge">
<title>m_interest_rate_slab:w&#45;&gt;m_interest_rate_chart:e</title>
<path fill="none" stroke="black" d="M622.11,-64.43C551.16,-68.81 532.1,-105 454,-105"/>
<polygon fill="black" stroke="black" points="628.5,-64.24 636.61,-67.6 632.5,-64.12 636.5,-64 636.5,-64 636.5,-64 632.5,-64.12 636.39,-60.4 628.5,-64.24 628.5,-64.24"/>
<ellipse fill="none" stroke="black" cx="625.31" cy="-64.34" rx="3.2" ry="3.2"/>
</g>
<!-- m_savings_product_charge -->
<g id="node10" class="node">
<title>m_savings_product_charge</title>
<g id="a_node10"><a xlink:href="../../tables/m_savings_product_charge.html" xlink:title="m_savings_product_charge" target="_top">
<polygon fill="#ffffff" stroke="transparent" points="619.5,-225 619.5,-283 809.5,-283 809.5,-225 619.5,-225"/>
<polygon fill="#f5f5f5" stroke="transparent" points="619.5,-261 619.5,-283 809.5,-283 809.5,-261 619.5,-261"/>
<polygon fill="none" stroke="black" points="619.5,-261 619.5,-283 809.5,-283 809.5,-261 619.5,-261"/>
<text text-anchor="start" x="624.5" y="-270.2" font-family="Helvetica,sans-Serif" font-weight="bold" font-size="11.00">m_savings_product_charge</text>
<text text-anchor="start" x="774.5" y="-269.2" font-family="Helvetica,sans-Serif" font-size="11.00">[table]</text>
<polygon fill="none" stroke="black" points="619.5,-243 619.5,-261 809.5,-261 809.5,-243 619.5,-243"/>
<text text-anchor="start" x="622.5" y="-249.2" font-family="Helvetica,sans-Serif" font-size="11.00">...</text>
<polygon fill="#ffffff" stroke="transparent" points="619.5,-225 619.5,-243 699.5,-243 699.5,-225 619.5,-225"/>
<polygon fill="none" stroke="black" points="619.5,-225 619.5,-243 699.5,-243 699.5,-225 619.5,-225"/>
<text text-anchor="start" x="622.5" y="-231.2" font-family="Helvetica,sans-Serif" font-size="11.00">&lt; 2</text>
<polygon fill="#ffffff" stroke="transparent" points="699.5,-225 699.5,-243 767.5,-243 767.5,-225 699.5,-225"/>
<polygon fill="none" stroke="black" points="699.5,-225 699.5,-243 767.5,-243 767.5,-225 699.5,-225"/>
<text text-anchor="start" x="731.5" y="-231.2" font-family="Helvetica,sans-Serif" font-size="11.00">0 rows</text>
<polygon fill="#ffffff" stroke="transparent" points="767.5,-225 767.5,-243 809.5,-243 809.5,-225 767.5,-225"/>
<polygon fill="none" stroke="black" points="767.5,-225 767.5,-243 809.5,-243 809.5,-225 767.5,-225"/>
<text text-anchor="start" x="799.5" y="-231.2" font-family="Helvetica,sans-Serif" font-size="11.00"> &#160;</text>
</a>
</g>
</g>
<!-- m_savings_product_charge&#45;&gt;m_savings_product -->
<g id="edge12" class="edge">
<title>m_savings_product_charge:w&#45;&gt;m_savings_product:e</title>
<path fill="none" stroke="black" d="M603.73,-252.62C574.26,-255.37 560.84,-267.48 538,-294 502.41,-335.32 552.53,-410 498,-410"/>
<polygon fill="black" stroke="black" points="610.51,-252.34 618.65,-255.6 614.5,-252.17 618.5,-252 618.5,-252 618.5,-252 614.5,-252.17 618.35,-248.4 610.51,-252.34 610.51,-252.34"/>
<ellipse fill="none" stroke="black" cx="607.31" cy="-252.47" rx="3.2" ry="3.2"/>
</g>
</g>
</svg>
