<?xml version="1.0" encoding="UTF-8" standalone="no"?>
<!DOCTYPE svg PUBLIC "-//W3C//DTD SVG 1.1//EN"
 "http://www.w3.org/Graphics/SVG/1.1/DTD/svg11.dtd">
<!-- Generated by graphviz version 2.43.0 (0)
 -->
<!-- Title: oneDegreeRelationshipsDiagram Pages: 1 -->
<svg width="769pt" height="401pt"
 viewBox="0.00 0.00 769.00 401.00" xmlns="http://www.w3.org/2000/svg" xmlns:xlink="http://www.w3.org/1999/xlink">
<g id="graph0" class="graph" transform="scale(1 1) rotate(0) translate(4 397)">
<title>oneDegreeRelationshipsDiagram</title>
<polygon fill="#ffffff" stroke="transparent" points="-4,4 -4,-397 765,-397 765,4 -4,4"/>
<text text-anchor="middle" x="71.5" y="-7.2" font-family="Helvetica,sans-Serif" font-size="11.00">Generated by SchemaSpy</text>
<!-- m_deposit_product_term_and_preclosure -->
<g id="node1" class="node">
<title>m_deposit_product_term_and_preclosure</title>
<g id="a_node1"><a xlink:href="../../tables/m_deposit_product_term_and_preclosure.html" xlink:title="m_deposit_product_term_and_preclosure" target="_top">
<polygon fill="#ffffff" stroke="transparent" points="383,-37 383,-389 753,-389 753,-37 383,-37"/>
<polygon fill="#f5f5f5" stroke="transparent" points="385,-365 385,-387 751,-387 751,-365 385,-365"/>
<polygon fill="none" stroke="black" points="385,-365 385,-387 751,-387 751,-365 385,-365"/>
<text text-anchor="start" x="390" y="-374.2" font-family="Helvetica,sans-Serif" font-weight="bold" font-size="11.00">m_deposit_product_term_and_preclosure</text>
<text text-anchor="start" x="716" y="-373.2" font-family="Helvetica,sans-Serif" font-size="11.00">[table]</text>
<polygon fill="none" stroke="black" points="385,-343 385,-365 681,-365 681,-343 385,-343"/>
<image xlink:href="../../images/primaryKeys.png" width="11px" height="12px" preserveAspectRatio="xMinYMin meet" x="390" y="-360"/>
<text text-anchor="start" x="405" y="-351.2" font-family="Helvetica,sans-Serif" font-size="11.00">id</text>
<polygon fill="none" stroke="black" points="681,-343 681,-365 751,-365 751,-343 681,-343"/>
<text text-anchor="start" x="684" y="-351.2" font-family="Helvetica,sans-Serif" font-size="11.00">bigint[19]</text>
<polygon fill="#ffffff" stroke="transparent" points="385,-321 385,-343 681,-343 681,-321 385,-321"/>
<polygon fill="none" stroke="black" points="385,-321 385,-343 681,-343 681,-321 385,-321"/>
<image xlink:href="../../images/foreignKeys.png" width="11px" height="12px" preserveAspectRatio="xMinYMin meet" x="390" y="-338"/>
<text text-anchor="start" x="405" y="-329.2" font-family="Helvetica,sans-Serif" font-size="11.00">savings_product_id</text>
<polygon fill="none" stroke="black" points="681,-321 681,-343 751,-343 751,-321 681,-321"/>
<text text-anchor="start" x="684" y="-329.2" font-family="Helvetica,sans-Serif" font-size="11.00">bigint[19]</text>
<polygon fill="none" stroke="black" points="385,-299 385,-321 681,-321 681,-299 385,-299"/>
<text text-anchor="start" x="405" y="-307.2" font-family="Helvetica,sans-Serif" font-size="11.00">min_deposit_term</text>
<polygon fill="none" stroke="black" points="681,-299 681,-321 751,-321 751,-299 681,-299"/>
<text text-anchor="start" x="684" y="-307.2" font-family="Helvetica,sans-Serif" font-size="11.00">int[10]</text>
<polygon fill="none" stroke="black" points="385,-277 385,-299 681,-299 681,-277 385,-277"/>
<text text-anchor="start" x="405" y="-285.2" font-family="Helvetica,sans-Serif" font-size="11.00">max_deposit_term</text>
<polygon fill="none" stroke="black" points="681,-277 681,-299 751,-299 751,-277 681,-277"/>
<text text-anchor="start" x="684" y="-285.2" font-family="Helvetica,sans-Serif" font-size="11.00">int[10]</text>
<polygon fill="none" stroke="black" points="385,-255 385,-277 681,-277 681,-255 385,-255"/>
<text text-anchor="start" x="405" y="-263.2" font-family="Helvetica,sans-Serif" font-size="11.00">min_deposit_term_type_enum</text>
<polygon fill="none" stroke="black" points="681,-255 681,-277 751,-277 751,-255 681,-255"/>
<text text-anchor="start" x="684" y="-263.2" font-family="Helvetica,sans-Serif" font-size="11.00">smallint[5]</text>
<polygon fill="none" stroke="black" points="385,-233 385,-255 681,-255 681,-233 385,-233"/>
<text text-anchor="start" x="405" y="-241.2" font-family="Helvetica,sans-Serif" font-size="11.00">max_deposit_term_type_enum</text>
<polygon fill="none" stroke="black" points="681,-233 681,-255 751,-255 751,-233 681,-233"/>
<text text-anchor="start" x="684" y="-241.2" font-family="Helvetica,sans-Serif" font-size="11.00">smallint[5]</text>
<polygon fill="none" stroke="black" points="385,-211 385,-233 681,-233 681,-211 385,-211"/>
<text text-anchor="start" x="405" y="-219.2" font-family="Helvetica,sans-Serif" font-size="11.00">in_multiples_of_deposit_term</text>
<polygon fill="none" stroke="black" points="681,-211 681,-233 751,-233 751,-211 681,-211"/>
<text text-anchor="start" x="684" y="-219.2" font-family="Helvetica,sans-Serif" font-size="11.00">int[10]</text>
<polygon fill="none" stroke="black" points="385,-189 385,-211 681,-211 681,-189 385,-189"/>
<text text-anchor="start" x="405" y="-197.2" font-family="Helvetica,sans-Serif" font-size="11.00">in_multiples_of_deposit_term_type_enum</text>
<polygon fill="none" stroke="black" points="681,-189 681,-211 751,-211 751,-189 681,-189"/>
<text text-anchor="start" x="684" y="-197.2" font-family="Helvetica,sans-Serif" font-size="11.00">smallint[5]</text>
<polygon fill="none" stroke="black" points="385,-167 385,-189 681,-189 681,-167 385,-167"/>
<text text-anchor="start" x="405" y="-175.2" font-family="Helvetica,sans-Serif" font-size="11.00">pre_closure_penal_applicable</text>
<polygon fill="none" stroke="black" points="681,-167 681,-189 751,-189 751,-167 681,-167"/>
<text text-anchor="start" x="684" y="-175.2" font-family="Helvetica,sans-Serif" font-size="11.00">bit[1]</text>
<polygon fill="none" stroke="black" points="385,-145 385,-167 681,-167 681,-145 385,-145"/>
<text text-anchor="start" x="405" y="-153.2" font-family="Helvetica,sans-Serif" font-size="11.00">pre_closure_penal_interest</text>
<polygon fill="none" stroke="black" points="681,-145 681,-167 751,-167 751,-145 681,-145"/>
<text text-anchor="start" x="684" y="-153.2" font-family="Helvetica,sans-Serif" font-size="11.00">decimal[19,6]</text>
<polygon fill="none" stroke="black" points="385,-123 385,-145 681,-145 681,-123 385,-123"/>
<text text-anchor="start" x="405" y="-131.2" font-family="Helvetica,sans-Serif" font-size="11.00">pre_closure_penal_interest_on_enum</text>
<polygon fill="none" stroke="black" points="681,-123 681,-145 751,-145 751,-123 681,-123"/>
<text text-anchor="start" x="684" y="-131.2" font-family="Helvetica,sans-Serif" font-size="11.00">smallint[5]</text>
<polygon fill="none" stroke="black" points="385,-101 385,-123 681,-123 681,-101 385,-101"/>
<text text-anchor="start" x="405" y="-109.2" font-family="Helvetica,sans-Serif" font-size="11.00">min_deposit_amount</text>
<polygon fill="none" stroke="black" points="681,-101 681,-123 751,-123 751,-101 681,-101"/>
<text text-anchor="start" x="684" y="-109.2" font-family="Helvetica,sans-Serif" font-size="11.00">decimal[19,6]</text>
<polygon fill="none" stroke="black" points="385,-79 385,-101 681,-101 681,-79 385,-79"/>
<text text-anchor="start" x="405" y="-87.2" font-family="Helvetica,sans-Serif" font-size="11.00">max_deposit_amount</text>
<polygon fill="none" stroke="black" points="681,-79 681,-101 751,-101 751,-79 681,-79"/>
<text text-anchor="start" x="684" y="-87.2" font-family="Helvetica,sans-Serif" font-size="11.00">decimal[19,6]</text>
<polygon fill="none" stroke="black" points="385,-57 385,-79 681,-79 681,-57 385,-57"/>
<text text-anchor="start" x="405" y="-65.2" font-family="Helvetica,sans-Serif" font-size="11.00">deposit_amount</text>
<polygon fill="none" stroke="black" points="681,-57 681,-79 751,-79 751,-57 681,-57"/>
<text text-anchor="start" x="684" y="-65.2" font-family="Helvetica,sans-Serif" font-size="11.00">decimal[19,6]</text>
<polygon fill="#ffffff" stroke="transparent" points="385,-39 385,-57 524,-57 524,-39 385,-39"/>
<polygon fill="none" stroke="black" points="385,-39 385,-57 524,-57 524,-39 385,-39"/>
<text text-anchor="start" x="388" y="-45.2" font-family="Helvetica,sans-Serif" font-size="11.00">&lt; 1</text>
<polygon fill="#ffffff" stroke="transparent" points="524,-39 524,-57 681,-57 681,-39 524,-39"/>
<polygon fill="none" stroke="black" points="524,-39 524,-57 681,-57 681,-39 524,-39"/>
<text text-anchor="start" x="645" y="-45.2" font-family="Helvetica,sans-Serif" font-size="11.00">0 rows</text>
<polygon fill="#ffffff" stroke="transparent" points="681,-39 681,-57 751,-57 751,-39 681,-39"/>
<polygon fill="none" stroke="black" points="681,-39 681,-57 751,-57 751,-39 681,-39"/>
<text text-anchor="start" x="732" y="-45.2" font-family="Helvetica,sans-Serif" font-size="11.00">0 &gt;</text>
<polygon fill="none" stroke="black" stroke-width="2" points="384,-38 384,-388 752,-388 752,-38 384,-38"/>
</a>
</g>
</g>
<!-- m_savings_product -->
<g id="node2" class="node">
<title>m_savings_product</title>
<g id="a_node2"><a xlink:href="../../tables/m_savings_product.html" xlink:title="m_savings_product" target="_top">
<polygon fill="#ffffff" stroke="transparent" points="8,-219 8,-365 334,-365 334,-219 8,-219"/>
<polygon fill="#f5f5f5" stroke="transparent" points="8,-343 8,-365 334,-365 334,-343 8,-343"/>
<polygon fill="none" stroke="black" points="8,-343 8,-365 334,-365 334,-343 8,-343"/>
<text text-anchor="start" x="13" y="-352.2" font-family="Helvetica,sans-Serif" font-weight="bold" font-size="11.00">m_savings_product</text>
<text text-anchor="start" x="299" y="-351.2" font-family="Helvetica,sans-Serif" font-size="11.00">[table]</text>
<polygon fill="none" stroke="black" points="8,-321 8,-343 334,-343 334,-321 8,-321"/>
<image xlink:href="../../images/primaryKeys.png" width="11px" height="12px" preserveAspectRatio="xMinYMin meet" x="13" y="-338"/>
<text text-anchor="start" x="28" y="-329.2" font-family="Helvetica,sans-Serif" font-size="11.00">id</text>
<polygon fill="#ffffff" stroke="transparent" points="8,-299 8,-321 334,-321 334,-299 8,-299"/>
<polygon fill="none" stroke="black" points="8,-299 8,-321 334,-321 334,-299 8,-299"/>
<text text-anchor="start" x="28" y="-307.2" font-family="Helvetica,sans-Serif" font-size="11.00">name</text>
<polygon fill="#ffffff" stroke="transparent" points="8,-277 8,-299 334,-299 334,-277 8,-277"/>
<polygon fill="none" stroke="black" points="8,-277 8,-299 334,-299 334,-277 8,-277"/>
<text text-anchor="start" x="28" y="-285.2" font-family="Helvetica,sans-Serif" font-size="11.00">short_name</text>
<polygon fill="#ffffff" stroke="transparent" points="8,-255 8,-277 334,-277 334,-255 8,-255"/>
<polygon fill="none" stroke="black" points="8,-255 8,-277 334,-277 334,-255 8,-255"/>
<image xlink:href="../../images/foreignKeys.png" width="11px" height="12px" preserveAspectRatio="xMinYMin meet" x="13" y="-272"/>
<text text-anchor="start" x="28" y="-263.2" font-family="Helvetica,sans-Serif" font-size="11.00">tax_group_id</text>
<polygon fill="none" stroke="black" points="8,-237 8,-255 334,-255 334,-237 8,-237"/>
<text text-anchor="start" x="11" y="-243.2" font-family="Helvetica,sans-Serif" font-size="11.00">...</text>
<polygon fill="#ffffff" stroke="transparent" points="8,-219 8,-237 151,-237 151,-219 8,-219"/>
<polygon fill="none" stroke="black" points="8,-219 8,-237 151,-237 151,-219 8,-219"/>
<text text-anchor="start" x="11" y="-225.2" font-family="Helvetica,sans-Serif" font-size="11.00">&lt; 1</text>
<polygon fill="#ffffff" stroke="transparent" points="151,-219 151,-237 251,-237 251,-219 151,-219"/>
<polygon fill="none" stroke="black" points="151,-219 151,-237 251,-237 251,-219 151,-219"/>
<text text-anchor="start" x="215" y="-225.2" font-family="Helvetica,sans-Serif" font-size="11.00">0 rows</text>
<polygon fill="#ffffff" stroke="transparent" points="251,-219 251,-237 334,-237 334,-219 251,-219"/>
<polygon fill="none" stroke="black" points="251,-219 251,-237 334,-237 334,-219 251,-219"/>
<text text-anchor="start" x="315" y="-225.2" font-family="Helvetica,sans-Serif" font-size="11.00">6 &gt;</text>
</a>
</g>
</g>
<!-- m_deposit_product_term_and_preclosure&#45;&gt;m_savings_product -->
<g id="edge1" class="edge">
<title>m_deposit_product_term_and_preclosure:w&#45;&gt;m_savings_product:e</title>
<path fill="none" stroke="black" d="M369.49,-332C358.18,-332 350.99,-332 335,-332"/>
<polygon fill="black" stroke="black" points="376,-332 384,-335.6 380,-332 384,-332 384,-332 384,-332 380,-332 384,-328.4 376,-332 376,-332"/>
<ellipse fill="none" stroke="black" cx="372.8" cy="-332" rx="3.2" ry="3.2"/>
</g>
</g>
</svg>
