<?xml version="1.0" encoding="UTF-8" standalone="no"?>
<!DOCTYPE svg PUBLIC "-//W3C//DTD SVG 1.1//EN"
 "http://www.w3.org/Graphics/SVG/1.1/DTD/svg11.dtd">
<!-- Generated by graphviz version 2.43.0 (0)
 -->
<!-- Title: twoDegreesRelationshipsDiagram Pages: 1 -->
<svg width="1069pt" height="546pt"
 viewBox="0.00 0.00 1069.25 546.00" xmlns="http://www.w3.org/2000/svg" xmlns:xlink="http://www.w3.org/1999/xlink">
<g id="graph0" class="graph" transform="scale(1 1) rotate(0) translate(4 542)">
<title>twoDegreesRelationshipsDiagram</title>
<polygon fill="#ffffff" stroke="transparent" points="-4,4 -4,-542 1065.25,-542 1065.25,4 -4,4"/>
<text text-anchor="middle" x="71.5" y="-7.2" font-family="Helvetica,sans-Serif" font-size="11.00">Generated by SchemaSpy</text>
<!-- m_client -->
<g id="node1" class="node">
<title>m_client</title>
<g id="a_node1"><a xlink:href="../../tables/m_client.html" xlink:title="m_client" target="_top">
<polygon fill="#ffffff" stroke="transparent" points="956,-476 956,-534 1051,-534 1051,-476 956,-476"/>
<polygon fill="#f5f5f5" stroke="transparent" points="956.5,-512 956.5,-534 1051.5,-534 1051.5,-512 956.5,-512"/>
<polygon fill="none" stroke="black" points="956.5,-512 956.5,-534 1051.5,-534 1051.5,-512 956.5,-512"/>
<text text-anchor="start" x="961.5" y="-521.2" font-family="Helvetica,sans-Serif" font-weight="bold" font-size="11.00">m_client</text>
<text text-anchor="start" x="1016.5" y="-520.2" font-family="Helvetica,sans-Serif" font-size="11.00">[table]</text>
<polygon fill="none" stroke="black" points="956.5,-494 956.5,-512 1051.5,-512 1051.5,-494 956.5,-494"/>
<text text-anchor="start" x="959.5" y="-500.2" font-family="Helvetica,sans-Serif" font-size="11.00">...</text>
<polygon fill="#ffffff" stroke="transparent" points="956.5,-476 956.5,-494 984.5,-494 984.5,-476 956.5,-476"/>
<polygon fill="none" stroke="black" points="956.5,-476 956.5,-494 984.5,-494 984.5,-476 956.5,-476"/>
<text text-anchor="start" x="959.5" y="-482.2" font-family="Helvetica,sans-Serif" font-size="11.00">&lt; 13</text>
<polygon fill="#ffffff" stroke="transparent" points="984.5,-476 984.5,-494 1023.5,-494 1023.5,-476 984.5,-476"/>
<polygon fill="none" stroke="black" points="984.5,-476 984.5,-494 1023.5,-494 1023.5,-476 984.5,-476"/>
<text text-anchor="start" x="987.5" y="-482.2" font-family="Helvetica,sans-Serif" font-size="11.00">0 rows</text>
<polygon fill="#ffffff" stroke="transparent" points="1023.5,-476 1023.5,-494 1051.5,-494 1051.5,-476 1023.5,-476"/>
<polygon fill="none" stroke="black" points="1023.5,-476 1023.5,-494 1051.5,-494 1051.5,-476 1023.5,-476"/>
<text text-anchor="start" x="1026.5" y="-482.2" font-family="Helvetica,sans-Serif" font-size="11.00">23 &gt;</text>
</a>
</g>
</g>
<!-- m_savings_account -->
<g id="node2" class="node">
<title>m_savings_account</title>
<g id="a_node2"><a xlink:href="../../tables/m_savings_account.html" xlink:title="m_savings_account" target="_top">
<polygon fill="#ffffff" stroke="transparent" points="652,-476 652,-534 801,-534 801,-476 652,-476"/>
<polygon fill="#f5f5f5" stroke="transparent" points="652.5,-512 652.5,-534 801.5,-534 801.5,-512 652.5,-512"/>
<polygon fill="none" stroke="black" points="652.5,-512 652.5,-534 801.5,-534 801.5,-512 652.5,-512"/>
<text text-anchor="start" x="657.5" y="-521.2" font-family="Helvetica,sans-Serif" font-weight="bold" font-size="11.00">m_savings_account</text>
<text text-anchor="start" x="766.5" y="-520.2" font-family="Helvetica,sans-Serif" font-size="11.00">[table]</text>
<polygon fill="none" stroke="black" points="652.5,-494 652.5,-512 801.5,-512 801.5,-494 652.5,-494"/>
<text text-anchor="start" x="655.5" y="-500.2" font-family="Helvetica,sans-Serif" font-size="11.00">...</text>
<polygon fill="#ffffff" stroke="transparent" points="652.5,-476 652.5,-494 704.5,-494 704.5,-476 652.5,-476"/>
<polygon fill="none" stroke="black" points="652.5,-476 652.5,-494 704.5,-494 704.5,-476 652.5,-476"/>
<text text-anchor="start" x="655.5" y="-482.2" font-family="Helvetica,sans-Serif" font-size="11.00">&lt; 5</text>
<polygon fill="#ffffff" stroke="transparent" points="704.5,-476 704.5,-494 758.5,-494 758.5,-476 704.5,-476"/>
<polygon fill="none" stroke="black" points="704.5,-476 704.5,-494 758.5,-494 758.5,-476 704.5,-476"/>
<text text-anchor="start" x="722.5" y="-482.2" font-family="Helvetica,sans-Serif" font-size="11.00">0 rows</text>
<polygon fill="#ffffff" stroke="transparent" points="758.5,-476 758.5,-494 801.5,-494 801.5,-476 758.5,-476"/>
<polygon fill="none" stroke="black" points="758.5,-476 758.5,-494 801.5,-494 801.5,-476 758.5,-476"/>
<text text-anchor="start" x="776.5" y="-482.2" font-family="Helvetica,sans-Serif" font-size="11.00">17 &gt;</text>
</a>
</g>
</g>
<!-- m_client&#45;&gt;m_savings_account -->
<g id="edge1" class="edge">
<title>m_client:w&#45;&gt;m_savings_account:e</title>
<path fill="none" stroke="black" d="M940.8,-503C884.61,-503 865.32,-503 802.5,-503"/>
<polygon fill="black" stroke="black" points="947.5,-503 955.5,-506.6 951.5,-503 955.5,-503 955.5,-503 955.5,-503 951.5,-503 955.5,-499.4 947.5,-503 947.5,-503"/>
<ellipse fill="none" stroke="black" cx="944.3" cy="-503" rx="3.2" ry="3.2"/>
</g>
<!-- m_savings_product -->
<g id="node3" class="node">
<title>m_savings_product</title>
<g id="a_node3"><a xlink:href="../../tables/m_savings_product.html" xlink:title="m_savings_product" target="_top">
<polygon fill="#ffffff" stroke="transparent" points="171,-284 171,-430 497,-430 497,-284 171,-284"/>
<polygon fill="#f5f5f5" stroke="transparent" points="171,-408 171,-430 497,-430 497,-408 171,-408"/>
<polygon fill="none" stroke="black" points="171,-408 171,-430 497,-430 497,-408 171,-408"/>
<text text-anchor="start" x="176" y="-417.2" font-family="Helvetica,sans-Serif" font-weight="bold" font-size="11.00">m_savings_product</text>
<text text-anchor="start" x="462" y="-416.2" font-family="Helvetica,sans-Serif" font-size="11.00">[table]</text>
<polygon fill="none" stroke="black" points="171,-386 171,-408 497,-408 497,-386 171,-386"/>
<image xlink:href="../../images/primaryKeys.png" width="11px" height="12px" preserveAspectRatio="xMinYMin meet" x="176" y="-403"/>
<text text-anchor="start" x="191" y="-394.2" font-family="Helvetica,sans-Serif" font-size="11.00">id</text>
<polygon fill="#ffffff" stroke="transparent" points="171,-364 171,-386 497,-386 497,-364 171,-364"/>
<polygon fill="none" stroke="black" points="171,-364 171,-386 497,-386 497,-364 171,-364"/>
<text text-anchor="start" x="191" y="-372.2" font-family="Helvetica,sans-Serif" font-size="11.00">name</text>
<polygon fill="#ffffff" stroke="transparent" points="171,-342 171,-364 497,-364 497,-342 171,-342"/>
<polygon fill="none" stroke="black" points="171,-342 171,-364 497,-364 497,-342 171,-342"/>
<text text-anchor="start" x="191" y="-350.2" font-family="Helvetica,sans-Serif" font-size="11.00">short_name</text>
<polygon fill="#ffffff" stroke="transparent" points="171,-320 171,-342 497,-342 497,-320 171,-320"/>
<polygon fill="none" stroke="black" points="171,-320 171,-342 497,-342 497,-320 171,-320"/>
<image xlink:href="../../images/foreignKeys.png" width="11px" height="12px" preserveAspectRatio="xMinYMin meet" x="176" y="-337"/>
<text text-anchor="start" x="191" y="-328.2" font-family="Helvetica,sans-Serif" font-size="11.00">tax_group_id</text>
<polygon fill="none" stroke="black" points="171,-302 171,-320 497,-320 497,-302 171,-302"/>
<text text-anchor="start" x="174" y="-308.2" font-family="Helvetica,sans-Serif" font-size="11.00">...</text>
<polygon fill="#ffffff" stroke="transparent" points="171,-284 171,-302 314,-302 314,-284 171,-284"/>
<polygon fill="none" stroke="black" points="171,-284 171,-302 314,-302 314,-284 171,-284"/>
<text text-anchor="start" x="174" y="-290.2" font-family="Helvetica,sans-Serif" font-size="11.00">&lt; 1</text>
<polygon fill="#ffffff" stroke="transparent" points="314,-284 314,-302 414,-302 414,-284 314,-284"/>
<polygon fill="none" stroke="black" points="314,-284 314,-302 414,-302 414,-284 314,-284"/>
<text text-anchor="start" x="378" y="-290.2" font-family="Helvetica,sans-Serif" font-size="11.00">0 rows</text>
<polygon fill="#ffffff" stroke="transparent" points="414,-284 414,-302 497,-302 497,-284 414,-284"/>
<polygon fill="none" stroke="black" points="414,-284 414,-302 497,-302 497,-284 414,-284"/>
<text text-anchor="start" x="478" y="-290.2" font-family="Helvetica,sans-Serif" font-size="11.00">6 &gt;</text>
</a>
</g>
</g>
<!-- m_client&#45;&gt;m_savings_product -->
<g id="edge2" class="edge">
<title>m_client:w&#45;&gt;m_savings_product:e</title>
<path fill="none" stroke="black" d="M941.74,-498.31C932.45,-490.07 931.62,-473.14 915,-466 760.66,-399.67 689.94,-510.65 538,-439 514.68,-428.01 523.78,-397 498,-397"/>
<polygon fill="black" stroke="black" points="947.93,-500.42 954.34,-506.41 951.71,-501.71 955.5,-503 955.5,-503 955.5,-503 951.71,-501.71 956.66,-499.59 947.93,-500.42 947.93,-500.42"/>
<ellipse fill="none" stroke="black" cx="944.9" cy="-499.39" rx="3.2" ry="3.2"/>
</g>
<!-- m_savings_account&#45;&gt;m_client -->
<g id="edge6" class="edge">
<title>m_savings_account:w&#45;&gt;m_client:e</title>
<path fill="none" stroke="black" d="M643.12,-491.1C643.85,-484.54 647.55,-476.79 652.5,-472 660.46,-464.29 1043.54,-464.29 1051.5,-472 1061.4,-481.59 1066.28,-503 1052.5,-503"/>
<polygon fill="black" stroke="black" points="646.89,-496.46 648.56,-505.07 649.2,-499.73 651.5,-503 651.5,-503 651.5,-503 649.2,-499.73 654.44,-500.93 646.89,-496.46 646.89,-496.46"/>
<ellipse fill="none" stroke="black" cx="645.05" cy="-493.84" rx="3.2" ry="3.2"/>
</g>
<!-- m_savings_account&#45;&gt;m_savings_product -->
<g id="edge7" class="edge">
<title>m_savings_account:w&#45;&gt;m_savings_product:e</title>
<path fill="none" stroke="black" d="M637.02,-502.79C594.16,-501.39 575.63,-492.61 538,-462 511.69,-440.59 531.92,-397 498,-397"/>
<polygon fill="black" stroke="black" points="643.5,-502.88 651.45,-506.6 647.5,-502.94 651.5,-503 651.5,-503 651.5,-503 647.5,-502.94 651.55,-499.4 643.5,-502.88 643.5,-502.88"/>
<ellipse fill="none" stroke="black" cx="640.3" cy="-502.83" rx="3.2" ry="3.2"/>
</g>
<!-- m_tax_group -->
<g id="node7" class="node">
<title>m_tax_group</title>
<g id="a_node7"><a xlink:href="../../tables/m_tax_group.html" xlink:title="m_tax_group" target="_top">
<polygon fill="#ffffff" stroke="transparent" points="8,-377 8,-435 122,-435 122,-377 8,-377"/>
<polygon fill="#f5f5f5" stroke="transparent" points="8,-413 8,-435 122,-435 122,-413 8,-413"/>
<polygon fill="none" stroke="black" points="8,-413 8,-435 122,-435 122,-413 8,-413"/>
<text text-anchor="start" x="13" y="-422.2" font-family="Helvetica,sans-Serif" font-weight="bold" font-size="11.00">m_tax_group</text>
<text text-anchor="start" x="87" y="-421.2" font-family="Helvetica,sans-Serif" font-size="11.00">[table]</text>
<polygon fill="none" stroke="black" points="8,-395 8,-413 122,-413 122,-395 8,-395"/>
<text text-anchor="start" x="11" y="-401.2" font-family="Helvetica,sans-Serif" font-size="11.00">...</text>
<polygon fill="#ffffff" stroke="transparent" points="8,-377 8,-395 45,-395 45,-377 8,-377"/>
<polygon fill="none" stroke="black" points="8,-377 8,-395 45,-395 45,-377 8,-377"/>
<text text-anchor="start" x="11" y="-383.2" font-family="Helvetica,sans-Serif" font-size="11.00">&lt; 2</text>
<polygon fill="#ffffff" stroke="transparent" points="45,-377 45,-395 92,-395 92,-377 45,-377"/>
<polygon fill="none" stroke="black" points="45,-377 45,-395 92,-395 92,-377 45,-377"/>
<text text-anchor="start" x="56" y="-383.2" font-family="Helvetica,sans-Serif" font-size="11.00">0 rows</text>
<polygon fill="#ffffff" stroke="transparent" points="92,-377 92,-395 122,-395 122,-377 92,-377"/>
<polygon fill="none" stroke="black" points="92,-377 92,-395 122,-395 122,-377 92,-377"/>
<text text-anchor="start" x="103" y="-383.2" font-family="Helvetica,sans-Serif" font-size="11.00">4 &gt;</text>
</a>
</g>
</g>
<!-- m_savings_account&#45;&gt;m_tax_group -->
<g id="edge8" class="edge">
<title>m_savings_account:w&#45;&gt;m_tax_group:e</title>
<path fill="none" stroke="black" d="M636.97,-503.04C429.38,-504.31 356.89,-531.42 163,-441 141.05,-430.77 147.22,-404 123,-404"/>
<polygon fill="black" stroke="black" points="643.5,-503.02 651.51,-506.6 647.5,-503.01 651.5,-503 651.5,-503 651.5,-503 647.5,-503.01 651.49,-499.4 643.5,-503.02 643.5,-503.02"/>
<ellipse fill="none" stroke="black" cx="640.3" cy="-503.03" rx="3.2" ry="3.2"/>
</g>
<!-- m_savings_product&#45;&gt;m_tax_group -->
<g id="edge9" class="edge">
<title>m_savings_product:w&#45;&gt;m_tax_group:e</title>
<path fill="none" stroke="black" d="M155.95,-336.25C139.46,-352.99 155.26,-404 123,-404"/>
<polygon fill="black" stroke="black" points="162.51,-333.8 171.26,-334.37 166.25,-332.4 170,-331 170,-331 170,-331 166.25,-332.4 168.74,-327.63 162.51,-333.8 162.51,-333.8"/>
<ellipse fill="none" stroke="black" cx="159.51" cy="-334.92" rx="3.2" ry="3.2"/>
</g>
<!-- m_deposit_product_interest_rate_chart -->
<g id="node4" class="node">
<title>m_deposit_product_interest_rate_chart</title>
<g id="a_node4"><a xlink:href="../../tables/m_deposit_product_interest_rate_chart.html" xlink:title="m_deposit_product_interest_rate_chart" target="_top">
<polygon fill="#ffffff" stroke="transparent" points="600.5,-370 600.5,-428 852.5,-428 852.5,-370 600.5,-370"/>
<polygon fill="#f5f5f5" stroke="transparent" points="600.5,-406 600.5,-428 852.5,-428 852.5,-406 600.5,-406"/>
<polygon fill="none" stroke="black" points="600.5,-406 600.5,-428 852.5,-428 852.5,-406 600.5,-406"/>
<text text-anchor="start" x="605.5" y="-415.2" font-family="Helvetica,sans-Serif" font-weight="bold" font-size="11.00">m_deposit_product_interest_rate_chart</text>
<text text-anchor="start" x="817.5" y="-414.2" font-family="Helvetica,sans-Serif" font-size="11.00">[table]</text>
<polygon fill="none" stroke="black" points="600.5,-388 600.5,-406 852.5,-406 852.5,-388 600.5,-388"/>
<text text-anchor="start" x="603.5" y="-394.2" font-family="Helvetica,sans-Serif" font-size="11.00">...</text>
<polygon fill="#ffffff" stroke="transparent" points="600.5,-370 600.5,-388 711.5,-388 711.5,-370 600.5,-370"/>
<polygon fill="none" stroke="black" points="600.5,-370 600.5,-388 711.5,-388 711.5,-370 600.5,-370"/>
<text text-anchor="start" x="603.5" y="-376.2" font-family="Helvetica,sans-Serif" font-size="11.00">&lt; 2</text>
<polygon fill="#ffffff" stroke="transparent" points="711.5,-370 711.5,-388 794.5,-388 794.5,-370 711.5,-370"/>
<polygon fill="none" stroke="black" points="711.5,-370 711.5,-388 794.5,-388 794.5,-370 711.5,-370"/>
<text text-anchor="start" x="758.5" y="-376.2" font-family="Helvetica,sans-Serif" font-size="11.00">0 rows</text>
<polygon fill="#ffffff" stroke="transparent" points="794.5,-370 794.5,-388 852.5,-388 852.5,-370 794.5,-370"/>
<polygon fill="none" stroke="black" points="794.5,-370 794.5,-388 852.5,-388 852.5,-370 794.5,-370"/>
<text text-anchor="start" x="842.5" y="-376.2" font-family="Helvetica,sans-Serif" font-size="11.00"> &#160;</text>
</a>
</g>
</g>
<!-- m_deposit_product_interest_rate_chart&#45;&gt;m_savings_product -->
<g id="edge3" class="edge">
<title>m_deposit_product_interest_rate_chart:w&#45;&gt;m_savings_product:e</title>
<path fill="none" stroke="black" d="M584.93,-397C551.28,-397 537.82,-397 498,-397"/>
<polygon fill="black" stroke="black" points="591.5,-397 599.5,-400.6 595.5,-397 599.5,-397 599.5,-397 599.5,-397 595.5,-397 599.5,-393.4 591.5,-397 591.5,-397"/>
<ellipse fill="none" stroke="black" cx="588.3" cy="-397" rx="3.2" ry="3.2"/>
</g>
<!-- m_deposit_product_recurring_detail -->
<g id="node5" class="node">
<title>m_deposit_product_recurring_detail</title>
<g id="a_node5"><a xlink:href="../../tables/m_deposit_product_recurring_detail.html" xlink:title="m_deposit_product_recurring_detail" target="_top">
<polygon fill="#ffffff" stroke="transparent" points="546,-195 546,-349 907,-349 907,-195 546,-195"/>
<polygon fill="#f5f5f5" stroke="transparent" points="548.5,-325 548.5,-347 905.5,-347 905.5,-325 548.5,-325"/>
<polygon fill="none" stroke="black" points="548.5,-325 548.5,-347 905.5,-347 905.5,-325 548.5,-325"/>
<text text-anchor="start" x="553.5" y="-334.2" font-family="Helvetica,sans-Serif" font-weight="bold" font-size="11.00">m_deposit_product_recurring_detail</text>
<text text-anchor="start" x="870.5" y="-333.2" font-family="Helvetica,sans-Serif" font-size="11.00">[table]</text>
<polygon fill="none" stroke="black" points="548.5,-303 548.5,-325 855.5,-325 855.5,-303 548.5,-303"/>
<image xlink:href="../../images/primaryKeys.png" width="11px" height="12px" preserveAspectRatio="xMinYMin meet" x="553.5" y="-320"/>
<text text-anchor="start" x="568.5" y="-311.2" font-family="Helvetica,sans-Serif" font-size="11.00">id</text>
<polygon fill="none" stroke="black" points="855.5,-303 855.5,-325 905.5,-325 905.5,-303 855.5,-303"/>
<text text-anchor="start" x="858.5" y="-311.2" font-family="Helvetica,sans-Serif" font-size="11.00">bigint[19]</text>
<polygon fill="#ffffff" stroke="transparent" points="548.5,-281 548.5,-303 855.5,-303 855.5,-281 548.5,-281"/>
<polygon fill="none" stroke="black" points="548.5,-281 548.5,-303 855.5,-303 855.5,-281 548.5,-281"/>
<image xlink:href="../../images/foreignKeys.png" width="11px" height="12px" preserveAspectRatio="xMinYMin meet" x="553.5" y="-298"/>
<text text-anchor="start" x="568.5" y="-289.2" font-family="Helvetica,sans-Serif" font-size="11.00">savings_product_id</text>
<polygon fill="none" stroke="black" points="855.5,-281 855.5,-303 905.5,-303 905.5,-281 855.5,-281"/>
<text text-anchor="start" x="858.5" y="-289.2" font-family="Helvetica,sans-Serif" font-size="11.00">bigint[19]</text>
<polygon fill="none" stroke="black" points="548.5,-259 548.5,-281 855.5,-281 855.5,-259 548.5,-259"/>
<text text-anchor="start" x="568.5" y="-267.2" font-family="Helvetica,sans-Serif" font-size="11.00">is_mandatory</text>
<polygon fill="none" stroke="black" points="855.5,-259 855.5,-281 905.5,-281 905.5,-259 855.5,-259"/>
<text text-anchor="start" x="858.5" y="-267.2" font-family="Helvetica,sans-Serif" font-size="11.00">bit[1]</text>
<polygon fill="none" stroke="black" points="548.5,-237 548.5,-259 855.5,-259 855.5,-237 548.5,-237"/>
<text text-anchor="start" x="568.5" y="-245.2" font-family="Helvetica,sans-Serif" font-size="11.00">allow_withdrawal</text>
<polygon fill="none" stroke="black" points="855.5,-237 855.5,-259 905.5,-259 905.5,-237 855.5,-237"/>
<text text-anchor="start" x="858.5" y="-245.2" font-family="Helvetica,sans-Serif" font-size="11.00">bit[1]</text>
<polygon fill="none" stroke="black" points="548.5,-215 548.5,-237 855.5,-237 855.5,-215 548.5,-215"/>
<text text-anchor="start" x="568.5" y="-223.2" font-family="Helvetica,sans-Serif" font-size="11.00">adjust_advance_towards_future_payments</text>
<polygon fill="none" stroke="black" points="855.5,-215 855.5,-237 905.5,-237 905.5,-215 855.5,-215"/>
<text text-anchor="start" x="858.5" y="-223.2" font-family="Helvetica,sans-Serif" font-size="11.00">bit[1]</text>
<polygon fill="#ffffff" stroke="transparent" points="548.5,-197 548.5,-215 693.5,-215 693.5,-197 548.5,-197"/>
<polygon fill="none" stroke="black" points="548.5,-197 548.5,-215 693.5,-215 693.5,-197 548.5,-197"/>
<text text-anchor="start" x="551.5" y="-203.2" font-family="Helvetica,sans-Serif" font-size="11.00">&lt; 1</text>
<polygon fill="#ffffff" stroke="transparent" points="693.5,-197 693.5,-215 855.5,-215 855.5,-197 693.5,-197"/>
<polygon fill="none" stroke="black" points="693.5,-197 693.5,-215 855.5,-215 855.5,-197 693.5,-197"/>
<text text-anchor="start" x="819.5" y="-203.2" font-family="Helvetica,sans-Serif" font-size="11.00">0 rows</text>
<polygon fill="#ffffff" stroke="transparent" points="855.5,-197 855.5,-215 905.5,-215 905.5,-197 855.5,-197"/>
<polygon fill="none" stroke="black" points="855.5,-197 855.5,-215 905.5,-215 905.5,-197 855.5,-197"/>
<text text-anchor="start" x="886.5" y="-203.2" font-family="Helvetica,sans-Serif" font-size="11.00">0 &gt;</text>
<polygon fill="none" stroke="black" stroke-width="2" points="547,-196 547,-348 906,-348 906,-196 547,-196"/>
</a>
</g>
</g>
<!-- m_deposit_product_recurring_detail&#45;&gt;m_savings_product -->
<g id="edge4" class="edge">
<title>m_deposit_product_recurring_detail:w&#45;&gt;m_savings_product:e</title>
<path fill="none" stroke="black" d="M533.36,-295.99C507.04,-315.17 543.55,-397 498,-397"/>
<polygon fill="black" stroke="black" points="539.8,-294.17 548.48,-295.46 543.65,-293.09 547.5,-292 547.5,-292 547.5,-292 543.65,-293.09 546.52,-288.54 539.8,-294.17 539.8,-294.17"/>
<ellipse fill="none" stroke="black" cx="536.72" cy="-295.04" rx="3.2" ry="3.2"/>
</g>
<!-- m_deposit_product_term_and_preclosure -->
<g id="node6" class="node">
<title>m_deposit_product_term_and_preclosure</title>
<g id="a_node6"><a xlink:href="../../tables/m_deposit_product_term_and_preclosure.html" xlink:title="m_deposit_product_term_and_preclosure" target="_top">
<polygon fill="#ffffff" stroke="transparent" points="594.5,-116 594.5,-174 858.5,-174 858.5,-116 594.5,-116"/>
<polygon fill="#f5f5f5" stroke="transparent" points="594.5,-152 594.5,-174 858.5,-174 858.5,-152 594.5,-152"/>
<polygon fill="none" stroke="black" points="594.5,-152 594.5,-174 858.5,-174 858.5,-152 594.5,-152"/>
<text text-anchor="start" x="599.5" y="-161.2" font-family="Helvetica,sans-Serif" font-weight="bold" font-size="11.00">m_deposit_product_term_and_preclosure</text>
<text text-anchor="start" x="823.5" y="-160.2" font-family="Helvetica,sans-Serif" font-size="11.00">[table]</text>
<polygon fill="none" stroke="black" points="594.5,-134 594.5,-152 858.5,-152 858.5,-134 594.5,-134"/>
<text text-anchor="start" x="597.5" y="-140.2" font-family="Helvetica,sans-Serif" font-size="11.00">...</text>
<polygon fill="#ffffff" stroke="transparent" points="594.5,-116 594.5,-134 711.5,-134 711.5,-116 594.5,-116"/>
<polygon fill="none" stroke="black" points="594.5,-116 594.5,-134 711.5,-134 711.5,-116 594.5,-116"/>
<text text-anchor="start" x="597.5" y="-122.2" font-family="Helvetica,sans-Serif" font-size="11.00">&lt; 1</text>
<polygon fill="#ffffff" stroke="transparent" points="711.5,-116 711.5,-134 797.5,-134 797.5,-116 711.5,-116"/>
<polygon fill="none" stroke="black" points="711.5,-116 711.5,-134 797.5,-134 797.5,-116 711.5,-116"/>
<text text-anchor="start" x="761.5" y="-122.2" font-family="Helvetica,sans-Serif" font-size="11.00">0 rows</text>
<polygon fill="#ffffff" stroke="transparent" points="797.5,-116 797.5,-134 858.5,-134 858.5,-116 797.5,-116"/>
<polygon fill="none" stroke="black" points="797.5,-116 797.5,-134 858.5,-134 858.5,-116 797.5,-116"/>
<text text-anchor="start" x="848.5" y="-122.2" font-family="Helvetica,sans-Serif" font-size="11.00"> &#160;</text>
</a>
</g>
</g>
<!-- m_deposit_product_term_and_preclosure&#45;&gt;m_savings_product -->
<g id="edge5" class="edge">
<title>m_deposit_product_term_and_preclosure:w&#45;&gt;m_savings_product:e</title>
<path fill="none" stroke="black" d="M579.12,-144.43C559.41,-148.85 551.43,-163.33 538,-185 512.75,-225.75 545.94,-397 498,-397"/>
<polygon fill="black" stroke="black" points="585.54,-143.79 593.86,-146.58 589.52,-143.4 593.5,-143 593.5,-143 593.5,-143 589.52,-143.4 593.14,-139.42 585.54,-143.79 585.54,-143.79"/>
<ellipse fill="none" stroke="black" cx="582.35" cy="-144.11" rx="3.2" ry="3.2"/>
</g>
<!-- m_savings_product_charge -->
<g id="node8" class="node">
<title>m_savings_product_charge</title>
<g id="a_node8"><a xlink:href="../../tables/m_savings_product_charge.html" xlink:title="m_savings_product_charge" target="_top">
<polygon fill="#ffffff" stroke="transparent" points="631.5,-37 631.5,-95 821.5,-95 821.5,-37 631.5,-37"/>
<polygon fill="#f5f5f5" stroke="transparent" points="631.5,-73 631.5,-95 821.5,-95 821.5,-73 631.5,-73"/>
<polygon fill="none" stroke="black" points="631.5,-73 631.5,-95 821.5,-95 821.5,-73 631.5,-73"/>
<text text-anchor="start" x="636.5" y="-82.2" font-family="Helvetica,sans-Serif" font-weight="bold" font-size="11.00">m_savings_product_charge</text>
<text text-anchor="start" x="786.5" y="-81.2" font-family="Helvetica,sans-Serif" font-size="11.00">[table]</text>
<polygon fill="none" stroke="black" points="631.5,-55 631.5,-73 821.5,-73 821.5,-55 631.5,-55"/>
<text text-anchor="start" x="634.5" y="-61.2" font-family="Helvetica,sans-Serif" font-size="11.00">...</text>
<polygon fill="#ffffff" stroke="transparent" points="631.5,-37 631.5,-55 711.5,-55 711.5,-37 631.5,-37"/>
<polygon fill="none" stroke="black" points="631.5,-37 631.5,-55 711.5,-55 711.5,-37 631.5,-37"/>
<text text-anchor="start" x="634.5" y="-43.2" font-family="Helvetica,sans-Serif" font-size="11.00">&lt; 2</text>
<polygon fill="#ffffff" stroke="transparent" points="711.5,-37 711.5,-55 779.5,-55 779.5,-37 711.5,-37"/>
<polygon fill="none" stroke="black" points="711.5,-37 711.5,-55 779.5,-55 779.5,-37 711.5,-37"/>
<text text-anchor="start" x="743.5" y="-43.2" font-family="Helvetica,sans-Serif" font-size="11.00">0 rows</text>
<polygon fill="#ffffff" stroke="transparent" points="779.5,-37 779.5,-55 821.5,-55 821.5,-37 779.5,-37"/>
<polygon fill="none" stroke="black" points="779.5,-37 779.5,-55 821.5,-55 821.5,-37 779.5,-37"/>
<text text-anchor="start" x="811.5" y="-43.2" font-family="Helvetica,sans-Serif" font-size="11.00"> &#160;</text>
</a>
</g>
</g>
<!-- m_savings_product_charge&#45;&gt;m_savings_product -->
<g id="edge10" class="edge">
<title>m_savings_product_charge:w&#45;&gt;m_savings_product:e</title>
<path fill="none" stroke="black" d="M616.06,-64.26C580.65,-65.7 561.93,-73.9 538,-106 498.99,-158.33 563.27,-397 498,-397"/>
<polygon fill="black" stroke="black" points="622.5,-64.14 630.56,-67.6 626.5,-64.07 630.5,-64 630.5,-64 630.5,-64 626.5,-64.07 630.44,-60.4 622.5,-64.14 622.5,-64.14"/>
<ellipse fill="none" stroke="black" cx="619.3" cy="-64.2" rx="3.2" ry="3.2"/>
</g>
</g>
</svg>
