<?xml version="1.0" encoding="UTF-8" standalone="no"?>
<!DOCTYPE svg PUBLIC "-//W3C//DTD SVG 1.1//EN"
 "http://www.w3.org/Graphics/SVG/1.1/DTD/svg11.dtd">
<!-- Generated by graphviz version 2.43.0 (0)
 -->
<!-- Title: oneDegreeRelationshipsDiagram Pages: 1 -->
<svg width="736pt" height="296pt"
 viewBox="0.00 0.00 736.00 296.00" xmlns="http://www.w3.org/2000/svg" xmlns:xlink="http://www.w3.org/1999/xlink">
<g id="graph0" class="graph" transform="scale(1 1) rotate(0) translate(4 292)">
<title>oneDegreeRelationshipsDiagram</title>
<polygon fill="#ffffff" stroke="transparent" points="-4,4 -4,-292 732,-292 732,4 -4,4"/>
<text text-anchor="middle" x="71.5" y="-7.2" font-family="Helvetica,sans-Serif" font-size="11.00">Generated by SchemaSpy</text>
<!-- m_deposit_product_interest_rate_chart -->
<g id="node1" class="node">
<title>m_deposit_product_interest_rate_chart</title>
<g id="a_node1"><a xlink:href="../../tables/m_deposit_product_interest_rate_chart.html" xlink:title="m_deposit_product_interest_rate_chart" target="_top">
<polygon fill="#ffffff" stroke="transparent" points="383,-125 383,-213 720,-213 720,-125 383,-125"/>
<polygon fill="#f5f5f5" stroke="transparent" points="385.5,-189 385.5,-211 718.5,-211 718.5,-189 385.5,-189"/>
<polygon fill="none" stroke="black" points="385.5,-189 385.5,-211 718.5,-211 718.5,-189 385.5,-189"/>
<text text-anchor="start" x="390.5" y="-198.2" font-family="Helvetica,sans-Serif" font-weight="bold" font-size="11.00">m_deposit_product_interest_rate_chart</text>
<text text-anchor="start" x="683.5" y="-197.2" font-family="Helvetica,sans-Serif" font-size="11.00">[table]</text>
<polygon fill="#ffffff" stroke="transparent" points="385.5,-167 385.5,-189 668.5,-189 668.5,-167 385.5,-167"/>
<polygon fill="none" stroke="black" points="385.5,-167 385.5,-189 668.5,-189 668.5,-167 385.5,-167"/>
<image xlink:href="../../images/foreignKeys.png" width="11px" height="12px" preserveAspectRatio="xMinYMin meet" x="390.5" y="-184"/>
<text text-anchor="start" x="405.5" y="-175.2" font-family="Helvetica,sans-Serif" font-size="11.00">deposit_product_id</text>
<polygon fill="none" stroke="black" points="668.5,-167 668.5,-189 718.5,-189 718.5,-167 668.5,-167"/>
<text text-anchor="start" x="671.5" y="-175.2" font-family="Helvetica,sans-Serif" font-size="11.00">bigint[19]</text>
<polygon fill="#ffffff" stroke="transparent" points="385.5,-145 385.5,-167 668.5,-167 668.5,-145 385.5,-145"/>
<polygon fill="none" stroke="black" points="385.5,-145 385.5,-167 668.5,-167 668.5,-145 385.5,-145"/>
<image xlink:href="../../images/foreignKeys.png" width="11px" height="12px" preserveAspectRatio="xMinYMin meet" x="390.5" y="-162"/>
<text text-anchor="start" x="405.5" y="-153.2" font-family="Helvetica,sans-Serif" font-size="11.00">interest_rate_chart_id</text>
<polygon fill="none" stroke="black" points="668.5,-145 668.5,-167 718.5,-167 718.5,-145 668.5,-145"/>
<text text-anchor="start" x="671.5" y="-153.2" font-family="Helvetica,sans-Serif" font-size="11.00">bigint[19]</text>
<polygon fill="#ffffff" stroke="transparent" points="385.5,-127 385.5,-145 518.5,-145 518.5,-127 385.5,-127"/>
<polygon fill="none" stroke="black" points="385.5,-127 385.5,-145 518.5,-145 518.5,-127 385.5,-127"/>
<text text-anchor="start" x="388.5" y="-133.2" font-family="Helvetica,sans-Serif" font-size="11.00">&lt; 2</text>
<polygon fill="#ffffff" stroke="transparent" points="518.5,-127 518.5,-145 668.5,-145 668.5,-127 518.5,-127"/>
<polygon fill="none" stroke="black" points="518.5,-127 518.5,-145 668.5,-145 668.5,-127 518.5,-127"/>
<text text-anchor="start" x="632.5" y="-133.2" font-family="Helvetica,sans-Serif" font-size="11.00">0 rows</text>
<polygon fill="#ffffff" stroke="transparent" points="668.5,-127 668.5,-145 718.5,-145 718.5,-127 668.5,-127"/>
<polygon fill="none" stroke="black" points="668.5,-127 668.5,-145 718.5,-145 718.5,-127 668.5,-127"/>
<text text-anchor="start" x="699.5" y="-133.2" font-family="Helvetica,sans-Serif" font-size="11.00">0 &gt;</text>
<polygon fill="none" stroke="black" stroke-width="2" points="384,-126 384,-212 719,-212 719,-126 384,-126"/>
</a>
</g>
</g>
<!-- m_savings_product -->
<g id="node2" class="node">
<title>m_savings_product</title>
<g id="a_node2"><a xlink:href="../../tables/m_savings_product.html" xlink:title="m_savings_product" target="_top">
<polygon fill="#ffffff" stroke="transparent" points="8,-138 8,-284 334,-284 334,-138 8,-138"/>
<polygon fill="#f5f5f5" stroke="transparent" points="8,-262 8,-284 334,-284 334,-262 8,-262"/>
<polygon fill="none" stroke="black" points="8,-262 8,-284 334,-284 334,-262 8,-262"/>
<text text-anchor="start" x="13" y="-271.2" font-family="Helvetica,sans-Serif" font-weight="bold" font-size="11.00">m_savings_product</text>
<text text-anchor="start" x="299" y="-270.2" font-family="Helvetica,sans-Serif" font-size="11.00">[table]</text>
<polygon fill="none" stroke="black" points="8,-240 8,-262 334,-262 334,-240 8,-240"/>
<image xlink:href="../../images/primaryKeys.png" width="11px" height="12px" preserveAspectRatio="xMinYMin meet" x="13" y="-257"/>
<text text-anchor="start" x="28" y="-248.2" font-family="Helvetica,sans-Serif" font-size="11.00">id</text>
<polygon fill="#ffffff" stroke="transparent" points="8,-218 8,-240 334,-240 334,-218 8,-218"/>
<polygon fill="none" stroke="black" points="8,-218 8,-240 334,-240 334,-218 8,-218"/>
<text text-anchor="start" x="28" y="-226.2" font-family="Helvetica,sans-Serif" font-size="11.00">name</text>
<polygon fill="#ffffff" stroke="transparent" points="8,-196 8,-218 334,-218 334,-196 8,-196"/>
<polygon fill="none" stroke="black" points="8,-196 8,-218 334,-218 334,-196 8,-196"/>
<text text-anchor="start" x="28" y="-204.2" font-family="Helvetica,sans-Serif" font-size="11.00">short_name</text>
<polygon fill="#ffffff" stroke="transparent" points="8,-174 8,-196 334,-196 334,-174 8,-174"/>
<polygon fill="none" stroke="black" points="8,-174 8,-196 334,-196 334,-174 8,-174"/>
<image xlink:href="../../images/foreignKeys.png" width="11px" height="12px" preserveAspectRatio="xMinYMin meet" x="13" y="-191"/>
<text text-anchor="start" x="28" y="-182.2" font-family="Helvetica,sans-Serif" font-size="11.00">tax_group_id</text>
<polygon fill="none" stroke="black" points="8,-156 8,-174 334,-174 334,-156 8,-156"/>
<text text-anchor="start" x="11" y="-162.2" font-family="Helvetica,sans-Serif" font-size="11.00">...</text>
<polygon fill="#ffffff" stroke="transparent" points="8,-138 8,-156 151,-156 151,-138 8,-138"/>
<polygon fill="none" stroke="black" points="8,-138 8,-156 151,-156 151,-138 8,-138"/>
<text text-anchor="start" x="11" y="-144.2" font-family="Helvetica,sans-Serif" font-size="11.00">&lt; 1</text>
<polygon fill="#ffffff" stroke="transparent" points="151,-138 151,-156 251,-156 251,-138 151,-138"/>
<polygon fill="none" stroke="black" points="151,-138 151,-156 251,-156 251,-138 151,-138"/>
<text text-anchor="start" x="215" y="-144.2" font-family="Helvetica,sans-Serif" font-size="11.00">0 rows</text>
<polygon fill="#ffffff" stroke="transparent" points="251,-138 251,-156 334,-156 334,-138 251,-138"/>
<polygon fill="none" stroke="black" points="251,-138 251,-156 334,-156 334,-138 251,-138"/>
<text text-anchor="start" x="315" y="-144.2" font-family="Helvetica,sans-Serif" font-size="11.00">6 &gt;</text>
</a>
</g>
</g>
<!-- m_deposit_product_interest_rate_chart&#45;&gt;m_savings_product -->
<g id="edge1" class="edge">
<title>m_deposit_product_interest_rate_chart:w&#45;&gt;m_savings_product:e</title>
<path fill="none" stroke="black" d="M370.59,-182.79C352.67,-199.03 368.08,-251 335,-251"/>
<polygon fill="black" stroke="black" points="376.94,-180.61 385.67,-181.4 380.72,-179.3 384.5,-178 384.5,-178 384.5,-178 380.72,-179.3 383.33,-174.6 376.94,-180.61 376.94,-180.61"/>
<ellipse fill="none" stroke="black" cx="373.91" cy="-181.65" rx="3.2" ry="3.2"/>
</g>
<!-- m_interest_rate_chart -->
<g id="node3" class="node">
<title>m_interest_rate_chart</title>
<g id="a_node3"><a xlink:href="../../tables/m_interest_rate_chart.html" xlink:title="m_interest_rate_chart" target="_top">
<polygon fill="#ffffff" stroke="transparent" points="52,-37 52,-117 290,-117 290,-37 52,-37"/>
<polygon fill="#f5f5f5" stroke="transparent" points="52,-95 52,-117 290,-117 290,-95 52,-95"/>
<polygon fill="none" stroke="black" points="52,-95 52,-117 290,-117 290,-95 52,-95"/>
<text text-anchor="start" x="57" y="-104.2" font-family="Helvetica,sans-Serif" font-weight="bold" font-size="11.00">m_interest_rate_chart</text>
<text text-anchor="start" x="255" y="-103.2" font-family="Helvetica,sans-Serif" font-size="11.00">[table]</text>
<polygon fill="none" stroke="black" points="52,-73 52,-95 290,-95 290,-73 52,-73"/>
<image xlink:href="../../images/primaryKeys.png" width="11px" height="12px" preserveAspectRatio="xMinYMin meet" x="57" y="-90"/>
<text text-anchor="start" x="72" y="-81.2" font-family="Helvetica,sans-Serif" font-size="11.00">id</text>
<polygon fill="none" stroke="black" points="52,-55 52,-73 290,-73 290,-55 52,-55"/>
<text text-anchor="start" x="55" y="-61.2" font-family="Helvetica,sans-Serif" font-size="11.00">...</text>
<polygon fill="#ffffff" stroke="transparent" points="52,-37 52,-55 147,-55 147,-37 52,-37"/>
<polygon fill="none" stroke="black" points="52,-37 52,-55 147,-55 147,-37 52,-37"/>
<text text-anchor="start" x="55" y="-43.2" font-family="Helvetica,sans-Serif" font-size="11.00"> &#160;</text>
<polygon fill="#ffffff" stroke="transparent" points="147,-37 147,-55 227,-55 227,-37 147,-37"/>
<polygon fill="none" stroke="black" points="147,-37 147,-55 227,-55 227,-37 147,-37"/>
<text text-anchor="start" x="191" y="-43.2" font-family="Helvetica,sans-Serif" font-size="11.00">0 rows</text>
<polygon fill="#ffffff" stroke="transparent" points="227,-37 227,-55 290,-55 290,-37 227,-37"/>
<polygon fill="none" stroke="black" points="227,-37 227,-55 290,-55 290,-37 227,-37"/>
<text text-anchor="start" x="271" y="-43.2" font-family="Helvetica,sans-Serif" font-size="11.00">2 &gt;</text>
</a>
</g>
</g>
<!-- m_deposit_product_interest_rate_chart&#45;&gt;m_interest_rate_chart -->
<g id="edge2" class="edge">
<title>m_deposit_product_interest_rate_chart:w&#45;&gt;m_interest_rate_chart:e</title>
<path fill="none" stroke="black" d="M369.89,-153.77C333.75,-141.61 337.92,-84 291,-84"/>
<polygon fill="black" stroke="black" points="376.59,-154.79 383.96,-159.56 380.55,-155.4 384.5,-156 384.5,-156 384.5,-156 380.55,-155.4 385.04,-152.44 376.59,-154.79 376.59,-154.79"/>
<ellipse fill="none" stroke="black" cx="373.43" cy="-154.31" rx="3.2" ry="3.2"/>
</g>
</g>
</svg>
