<?xml version="1.0" encoding="UTF-8" standalone="no"?>
<!DOCTYPE svg PUBLIC "-//W3C//DTD SVG 1.1//EN"
 "http://www.w3.org/Graphics/SVG/1.1/DTD/svg11.dtd">
<!-- Generated by graphviz version 2.43.0 (0)
 -->
<!-- Title: twoDegreesRelationshipsDiagram Pages: 1 -->
<svg width="1078pt" height="744pt"
 viewBox="0.00 0.00 1078.25 744.00" xmlns="http://www.w3.org/2000/svg" xmlns:xlink="http://www.w3.org/1999/xlink">
<g id="graph0" class="graph" transform="scale(1 1) rotate(0) translate(4 740)">
<title>twoDegreesRelationshipsDiagram</title>
<polygon fill="#ffffff" stroke="transparent" points="-4,4 -4,-740 1074.25,-740 1074.25,4 -4,4"/>
<text text-anchor="middle" x="71.5" y="-7.2" font-family="Helvetica,sans-Serif" font-size="11.00">Generated by SchemaSpy</text>
<!-- m_client -->
<g id="node1" class="node">
<title>m_client</title>
<g id="a_node1"><a xlink:href="../../tables/m_client.html" xlink:title="m_client" target="_top">
<polygon fill="#ffffff" stroke="transparent" points="965,-674 965,-732 1060,-732 1060,-674 965,-674"/>
<polygon fill="#f5f5f5" stroke="transparent" points="965.5,-710 965.5,-732 1060.5,-732 1060.5,-710 965.5,-710"/>
<polygon fill="none" stroke="black" points="965.5,-710 965.5,-732 1060.5,-732 1060.5,-710 965.5,-710"/>
<text text-anchor="start" x="970.5" y="-719.2" font-family="Helvetica,sans-Serif" font-weight="bold" font-size="11.00">m_client</text>
<text text-anchor="start" x="1025.5" y="-718.2" font-family="Helvetica,sans-Serif" font-size="11.00">[table]</text>
<polygon fill="none" stroke="black" points="965.5,-692 965.5,-710 1060.5,-710 1060.5,-692 965.5,-692"/>
<text text-anchor="start" x="968.5" y="-698.2" font-family="Helvetica,sans-Serif" font-size="11.00">...</text>
<polygon fill="#ffffff" stroke="transparent" points="965.5,-674 965.5,-692 993.5,-692 993.5,-674 965.5,-674"/>
<polygon fill="none" stroke="black" points="965.5,-674 965.5,-692 993.5,-692 993.5,-674 965.5,-674"/>
<text text-anchor="start" x="968.5" y="-680.2" font-family="Helvetica,sans-Serif" font-size="11.00">&lt; 13</text>
<polygon fill="#ffffff" stroke="transparent" points="993.5,-674 993.5,-692 1032.5,-692 1032.5,-674 993.5,-674"/>
<polygon fill="none" stroke="black" points="993.5,-674 993.5,-692 1032.5,-692 1032.5,-674 993.5,-674"/>
<text text-anchor="start" x="996.5" y="-680.2" font-family="Helvetica,sans-Serif" font-size="11.00">0 rows</text>
<polygon fill="#ffffff" stroke="transparent" points="1032.5,-674 1032.5,-692 1060.5,-692 1060.5,-674 1032.5,-674"/>
<polygon fill="none" stroke="black" points="1032.5,-674 1032.5,-692 1060.5,-692 1060.5,-674 1032.5,-674"/>
<text text-anchor="start" x="1035.5" y="-680.2" font-family="Helvetica,sans-Serif" font-size="11.00">23 &gt;</text>
</a>
</g>
</g>
<!-- m_savings_account -->
<g id="node2" class="node">
<title>m_savings_account</title>
<g id="a_node2"><a xlink:href="../../tables/m_savings_account.html" xlink:title="m_savings_account" target="_top">
<polygon fill="#ffffff" stroke="transparent" points="656.5,-674 656.5,-732 805.5,-732 805.5,-674 656.5,-674"/>
<polygon fill="#f5f5f5" stroke="transparent" points="657,-710 657,-732 806,-732 806,-710 657,-710"/>
<polygon fill="none" stroke="black" points="657,-710 657,-732 806,-732 806,-710 657,-710"/>
<text text-anchor="start" x="662" y="-719.2" font-family="Helvetica,sans-Serif" font-weight="bold" font-size="11.00">m_savings_account</text>
<text text-anchor="start" x="771" y="-718.2" font-family="Helvetica,sans-Serif" font-size="11.00">[table]</text>
<polygon fill="none" stroke="black" points="657,-692 657,-710 806,-710 806,-692 657,-692"/>
<text text-anchor="start" x="660" y="-698.2" font-family="Helvetica,sans-Serif" font-size="11.00">...</text>
<polygon fill="#ffffff" stroke="transparent" points="657,-674 657,-692 709,-692 709,-674 657,-674"/>
<polygon fill="none" stroke="black" points="657,-674 657,-692 709,-692 709,-674 657,-674"/>
<text text-anchor="start" x="660" y="-680.2" font-family="Helvetica,sans-Serif" font-size="11.00">&lt; 5</text>
<polygon fill="#ffffff" stroke="transparent" points="709,-674 709,-692 763,-692 763,-674 709,-674"/>
<polygon fill="none" stroke="black" points="709,-674 709,-692 763,-692 763,-674 709,-674"/>
<text text-anchor="start" x="727" y="-680.2" font-family="Helvetica,sans-Serif" font-size="11.00">0 rows</text>
<polygon fill="#ffffff" stroke="transparent" points="763,-674 763,-692 806,-692 806,-674 763,-674"/>
<polygon fill="none" stroke="black" points="763,-674 763,-692 806,-692 806,-674 763,-674"/>
<text text-anchor="start" x="781" y="-680.2" font-family="Helvetica,sans-Serif" font-size="11.00">17 &gt;</text>
</a>
</g>
</g>
<!-- m_client&#45;&gt;m_savings_account -->
<g id="edge1" class="edge">
<title>m_client:w&#45;&gt;m_savings_account:e</title>
<path fill="none" stroke="black" d="M949.74,-701C891.61,-701 871.8,-701 807,-701"/>
<polygon fill="black" stroke="black" points="956.5,-701 964.5,-704.6 960.5,-701 964.5,-701 964.5,-701 964.5,-701 960.5,-701 964.5,-697.4 956.5,-701 956.5,-701"/>
<ellipse fill="none" stroke="black" cx="953.3" cy="-701" rx="3.2" ry="3.2"/>
</g>
<!-- m_savings_product -->
<g id="node3" class="node">
<title>m_savings_product</title>
<g id="a_node3"><a xlink:href="../../tables/m_savings_product.html" xlink:title="m_savings_product" target="_top">
<polygon fill="#ffffff" stroke="transparent" points="171,-482 171,-628 497,-628 497,-482 171,-482"/>
<polygon fill="#f5f5f5" stroke="transparent" points="171,-606 171,-628 497,-628 497,-606 171,-606"/>
<polygon fill="none" stroke="black" points="171,-606 171,-628 497,-628 497,-606 171,-606"/>
<text text-anchor="start" x="176" y="-615.2" font-family="Helvetica,sans-Serif" font-weight="bold" font-size="11.00">m_savings_product</text>
<text text-anchor="start" x="462" y="-614.2" font-family="Helvetica,sans-Serif" font-size="11.00">[table]</text>
<polygon fill="none" stroke="black" points="171,-584 171,-606 497,-606 497,-584 171,-584"/>
<image xlink:href="../../images/primaryKeys.png" width="11px" height="12px" preserveAspectRatio="xMinYMin meet" x="176" y="-601"/>
<text text-anchor="start" x="191" y="-592.2" font-family="Helvetica,sans-Serif" font-size="11.00">id</text>
<polygon fill="#ffffff" stroke="transparent" points="171,-562 171,-584 497,-584 497,-562 171,-562"/>
<polygon fill="none" stroke="black" points="171,-562 171,-584 497,-584 497,-562 171,-562"/>
<text text-anchor="start" x="191" y="-570.2" font-family="Helvetica,sans-Serif" font-size="11.00">name</text>
<polygon fill="#ffffff" stroke="transparent" points="171,-540 171,-562 497,-562 497,-540 171,-540"/>
<polygon fill="none" stroke="black" points="171,-540 171,-562 497,-562 497,-540 171,-540"/>
<text text-anchor="start" x="191" y="-548.2" font-family="Helvetica,sans-Serif" font-size="11.00">short_name</text>
<polygon fill="#ffffff" stroke="transparent" points="171,-518 171,-540 497,-540 497,-518 171,-518"/>
<polygon fill="none" stroke="black" points="171,-518 171,-540 497,-540 497,-518 171,-518"/>
<image xlink:href="../../images/foreignKeys.png" width="11px" height="12px" preserveAspectRatio="xMinYMin meet" x="176" y="-535"/>
<text text-anchor="start" x="191" y="-526.2" font-family="Helvetica,sans-Serif" font-size="11.00">tax_group_id</text>
<polygon fill="none" stroke="black" points="171,-500 171,-518 497,-518 497,-500 171,-500"/>
<text text-anchor="start" x="174" y="-506.2" font-family="Helvetica,sans-Serif" font-size="11.00">...</text>
<polygon fill="#ffffff" stroke="transparent" points="171,-482 171,-500 314,-500 314,-482 171,-482"/>
<polygon fill="none" stroke="black" points="171,-482 171,-500 314,-500 314,-482 171,-482"/>
<text text-anchor="start" x="174" y="-488.2" font-family="Helvetica,sans-Serif" font-size="11.00">&lt; 1</text>
<polygon fill="#ffffff" stroke="transparent" points="314,-482 314,-500 414,-500 414,-482 314,-482"/>
<polygon fill="none" stroke="black" points="314,-482 314,-500 414,-500 414,-482 314,-482"/>
<text text-anchor="start" x="378" y="-488.2" font-family="Helvetica,sans-Serif" font-size="11.00">0 rows</text>
<polygon fill="#ffffff" stroke="transparent" points="414,-482 414,-500 497,-500 497,-482 414,-482"/>
<polygon fill="none" stroke="black" points="414,-482 414,-500 497,-500 497,-482 414,-482"/>
<text text-anchor="start" x="478" y="-488.2" font-family="Helvetica,sans-Serif" font-size="11.00">6 &gt;</text>
</a>
</g>
</g>
<!-- m_client&#45;&gt;m_savings_product -->
<g id="edge2" class="edge">
<title>m_client:w&#45;&gt;m_savings_product:e</title>
<path fill="none" stroke="black" d="M950.74,-696.31C941.45,-688.06 940.63,-671.13 924,-664 765.94,-596.23 693.61,-710.22 538,-637 514.68,-626.02 523.78,-595 498,-595"/>
<polygon fill="black" stroke="black" points="956.93,-698.42 963.34,-704.41 960.71,-699.71 964.5,-701 964.5,-701 964.5,-701 960.71,-699.71 965.66,-697.59 956.93,-698.42 956.93,-698.42"/>
<ellipse fill="none" stroke="black" cx="953.9" cy="-697.39" rx="3.2" ry="3.2"/>
</g>
<!-- m_savings_account&#45;&gt;m_client -->
<g id="edge6" class="edge">
<title>m_savings_account:w&#45;&gt;m_client:e</title>
<path fill="none" stroke="black" d="M647.62,-689.1C648.35,-682.54 652.05,-674.79 657,-670 665.05,-662.2 1052.45,-662.2 1060.5,-670 1070.4,-679.59 1075.28,-701 1061.5,-701"/>
<polygon fill="black" stroke="black" points="651.39,-694.46 653.06,-703.07 653.7,-697.73 656,-701 656,-701 656,-701 653.7,-697.73 658.94,-698.93 651.39,-694.46 651.39,-694.46"/>
<ellipse fill="none" stroke="black" cx="649.55" cy="-691.84" rx="3.2" ry="3.2"/>
</g>
<!-- m_savings_account&#45;&gt;m_savings_product -->
<g id="edge7" class="edge">
<title>m_savings_account:w&#45;&gt;m_savings_product:e</title>
<path fill="none" stroke="black" d="M641.58,-700.83C596.75,-699.62 577.31,-691.58 538,-660 511.56,-638.76 531.92,-595 498,-595"/>
<polygon fill="black" stroke="black" points="648,-700.9 655.96,-704.6 652,-700.95 656,-701 656,-701 656,-701 652,-700.95 656.04,-697.4 648,-700.9 648,-700.9"/>
<ellipse fill="none" stroke="black" cx="644.8" cy="-700.86" rx="3.2" ry="3.2"/>
</g>
<!-- m_tax_group -->
<g id="node7" class="node">
<title>m_tax_group</title>
<g id="a_node7"><a xlink:href="../../tables/m_tax_group.html" xlink:title="m_tax_group" target="_top">
<polygon fill="#ffffff" stroke="transparent" points="8,-575 8,-633 122,-633 122,-575 8,-575"/>
<polygon fill="#f5f5f5" stroke="transparent" points="8,-611 8,-633 122,-633 122,-611 8,-611"/>
<polygon fill="none" stroke="black" points="8,-611 8,-633 122,-633 122,-611 8,-611"/>
<text text-anchor="start" x="13" y="-620.2" font-family="Helvetica,sans-Serif" font-weight="bold" font-size="11.00">m_tax_group</text>
<text text-anchor="start" x="87" y="-619.2" font-family="Helvetica,sans-Serif" font-size="11.00">[table]</text>
<polygon fill="none" stroke="black" points="8,-593 8,-611 122,-611 122,-593 8,-593"/>
<text text-anchor="start" x="11" y="-599.2" font-family="Helvetica,sans-Serif" font-size="11.00">...</text>
<polygon fill="#ffffff" stroke="transparent" points="8,-575 8,-593 45,-593 45,-575 8,-575"/>
<polygon fill="none" stroke="black" points="8,-575 8,-593 45,-593 45,-575 8,-575"/>
<text text-anchor="start" x="11" y="-581.2" font-family="Helvetica,sans-Serif" font-size="11.00">&lt; 2</text>
<polygon fill="#ffffff" stroke="transparent" points="45,-575 45,-593 92,-593 92,-575 45,-575"/>
<polygon fill="none" stroke="black" points="45,-575 45,-593 92,-593 92,-575 45,-575"/>
<text text-anchor="start" x="56" y="-581.2" font-family="Helvetica,sans-Serif" font-size="11.00">0 rows</text>
<polygon fill="#ffffff" stroke="transparent" points="92,-575 92,-593 122,-593 122,-575 92,-575"/>
<polygon fill="none" stroke="black" points="92,-575 92,-593 122,-593 122,-575 92,-575"/>
<text text-anchor="start" x="103" y="-581.2" font-family="Helvetica,sans-Serif" font-size="11.00">4 &gt;</text>
</a>
</g>
</g>
<!-- m_savings_account&#45;&gt;m_tax_group -->
<g id="edge8" class="edge">
<title>m_savings_account:w&#45;&gt;m_tax_group:e</title>
<path fill="none" stroke="black" d="M641.34,-701.05C431.87,-702.34 358.7,-730.13 163,-639 141.05,-628.78 147.22,-602 123,-602"/>
<polygon fill="black" stroke="black" points="648,-701.02 656.01,-704.6 652,-701.01 656,-701 656,-701 656,-701 652,-701.01 655.99,-697.4 648,-701.02 648,-701.02"/>
<ellipse fill="none" stroke="black" cx="644.8" cy="-701.03" rx="3.2" ry="3.2"/>
</g>
<!-- m_savings_product&#45;&gt;m_tax_group -->
<g id="edge9" class="edge">
<title>m_savings_product:w&#45;&gt;m_tax_group:e</title>
<path fill="none" stroke="black" d="M155.95,-534.25C139.46,-550.99 155.26,-602 123,-602"/>
<polygon fill="black" stroke="black" points="162.51,-531.8 171.26,-532.37 166.25,-530.4 170,-529 170,-529 170,-529 166.25,-530.4 168.74,-525.63 162.51,-531.8 162.51,-531.8"/>
<ellipse fill="none" stroke="black" cx="159.51" cy="-532.92" rx="3.2" ry="3.2"/>
</g>
<!-- m_deposit_product_interest_rate_chart -->
<g id="node4" class="node">
<title>m_deposit_product_interest_rate_chart</title>
<g id="a_node4"><a xlink:href="../../tables/m_deposit_product_interest_rate_chart.html" xlink:title="m_deposit_product_interest_rate_chart" target="_top">
<polygon fill="#ffffff" stroke="transparent" points="605,-568 605,-626 857,-626 857,-568 605,-568"/>
<polygon fill="#f5f5f5" stroke="transparent" points="605,-604 605,-626 857,-626 857,-604 605,-604"/>
<polygon fill="none" stroke="black" points="605,-604 605,-626 857,-626 857,-604 605,-604"/>
<text text-anchor="start" x="610" y="-613.2" font-family="Helvetica,sans-Serif" font-weight="bold" font-size="11.00">m_deposit_product_interest_rate_chart</text>
<text text-anchor="start" x="822" y="-612.2" font-family="Helvetica,sans-Serif" font-size="11.00">[table]</text>
<polygon fill="none" stroke="black" points="605,-586 605,-604 857,-604 857,-586 605,-586"/>
<text text-anchor="start" x="608" y="-592.2" font-family="Helvetica,sans-Serif" font-size="11.00">...</text>
<polygon fill="#ffffff" stroke="transparent" points="605,-568 605,-586 716,-586 716,-568 605,-568"/>
<polygon fill="none" stroke="black" points="605,-568 605,-586 716,-586 716,-568 605,-568"/>
<text text-anchor="start" x="608" y="-574.2" font-family="Helvetica,sans-Serif" font-size="11.00">&lt; 2</text>
<polygon fill="#ffffff" stroke="transparent" points="716,-568 716,-586 799,-586 799,-568 716,-568"/>
<polygon fill="none" stroke="black" points="716,-568 716,-586 799,-586 799,-568 716,-568"/>
<text text-anchor="start" x="763" y="-574.2" font-family="Helvetica,sans-Serif" font-size="11.00">0 rows</text>
<polygon fill="#ffffff" stroke="transparent" points="799,-568 799,-586 857,-586 857,-568 799,-568"/>
<polygon fill="none" stroke="black" points="799,-568 799,-586 857,-586 857,-568 799,-568"/>
<text text-anchor="start" x="847" y="-574.2" font-family="Helvetica,sans-Serif" font-size="11.00"> &#160;</text>
</a>
</g>
</g>
<!-- m_deposit_product_interest_rate_chart&#45;&gt;m_savings_product -->
<g id="edge3" class="edge">
<title>m_deposit_product_interest_rate_chart:w&#45;&gt;m_savings_product:e</title>
<path fill="none" stroke="black" d="M589.25,-595C553.77,-595 539.77,-595 498,-595"/>
<polygon fill="black" stroke="black" points="596,-595 604,-598.6 600,-595 604,-595 604,-595 604,-595 600,-595 604,-591.4 596,-595 596,-595"/>
<ellipse fill="none" stroke="black" cx="592.8" cy="-595" rx="3.2" ry="3.2"/>
</g>
<!-- m_deposit_product_recurring_detail -->
<g id="node5" class="node">
<title>m_deposit_product_recurring_detail</title>
<g id="a_node5"><a xlink:href="../../tables/m_deposit_product_recurring_detail.html" xlink:title="m_deposit_product_recurring_detail" target="_top">
<polygon fill="#ffffff" stroke="transparent" points="613,-489 613,-547 849,-547 849,-489 613,-489"/>
<polygon fill="#f5f5f5" stroke="transparent" points="613,-525 613,-547 849,-547 849,-525 613,-525"/>
<polygon fill="none" stroke="black" points="613,-525 613,-547 849,-547 849,-525 613,-525"/>
<text text-anchor="start" x="618" y="-534.2" font-family="Helvetica,sans-Serif" font-weight="bold" font-size="11.00">m_deposit_product_recurring_detail</text>
<text text-anchor="start" x="814" y="-533.2" font-family="Helvetica,sans-Serif" font-size="11.00">[table]</text>
<polygon fill="none" stroke="black" points="613,-507 613,-525 849,-525 849,-507 613,-507"/>
<text text-anchor="start" x="616" y="-513.2" font-family="Helvetica,sans-Serif" font-size="11.00">...</text>
<polygon fill="#ffffff" stroke="transparent" points="613,-489 613,-507 716,-507 716,-489 613,-489"/>
<polygon fill="none" stroke="black" points="613,-489 613,-507 716,-507 716,-489 613,-489"/>
<text text-anchor="start" x="616" y="-495.2" font-family="Helvetica,sans-Serif" font-size="11.00">&lt; 1</text>
<polygon fill="#ffffff" stroke="transparent" points="716,-489 716,-507 795,-507 795,-489 716,-489"/>
<polygon fill="none" stroke="black" points="716,-489 716,-507 795,-507 795,-489 716,-489"/>
<text text-anchor="start" x="759" y="-495.2" font-family="Helvetica,sans-Serif" font-size="11.00">0 rows</text>
<polygon fill="#ffffff" stroke="transparent" points="795,-489 795,-507 849,-507 849,-489 795,-489"/>
<polygon fill="none" stroke="black" points="795,-489 795,-507 849,-507 849,-489 795,-489"/>
<text text-anchor="start" x="839" y="-495.2" font-family="Helvetica,sans-Serif" font-size="11.00"> &#160;</text>
</a>
</g>
</g>
<!-- m_deposit_product_recurring_detail&#45;&gt;m_savings_product -->
<g id="edge4" class="edge">
<title>m_deposit_product_recurring_detail:w&#45;&gt;m_savings_product:e</title>
<path fill="none" stroke="black" d="M597.45,-517.18C572.03,-521.74 564.12,-538.91 538,-558 518.45,-572.29 522.22,-595 498,-595"/>
<polygon fill="black" stroke="black" points="604.03,-516.65 612.29,-519.59 608.01,-516.32 612,-516 612,-516 612,-516 608.01,-516.32 611.71,-512.41 604.03,-516.65 604.03,-516.65"/>
<ellipse fill="none" stroke="black" cx="600.84" cy="-516.91" rx="3.2" ry="3.2"/>
</g>
<!-- m_deposit_product_term_and_preclosure -->
<g id="node6" class="node">
<title>m_deposit_product_term_and_preclosure</title>
<g id="a_node6"><a xlink:href="../../tables/m_deposit_product_term_and_preclosure.html" xlink:title="m_deposit_product_term_and_preclosure" target="_top">
<polygon fill="#ffffff" stroke="transparent" points="546,-116 546,-468 916,-468 916,-116 546,-116"/>
<polygon fill="#f5f5f5" stroke="transparent" points="548,-444 548,-466 914,-466 914,-444 548,-444"/>
<polygon fill="none" stroke="black" points="548,-444 548,-466 914,-466 914,-444 548,-444"/>
<text text-anchor="start" x="553" y="-453.2" font-family="Helvetica,sans-Serif" font-weight="bold" font-size="11.00">m_deposit_product_term_and_preclosure</text>
<text text-anchor="start" x="879" y="-452.2" font-family="Helvetica,sans-Serif" font-size="11.00">[table]</text>
<polygon fill="none" stroke="black" points="548,-422 548,-444 844,-444 844,-422 548,-422"/>
<image xlink:href="../../images/primaryKeys.png" width="11px" height="12px" preserveAspectRatio="xMinYMin meet" x="553" y="-439"/>
<text text-anchor="start" x="568" y="-430.2" font-family="Helvetica,sans-Serif" font-size="11.00">id</text>
<polygon fill="none" stroke="black" points="844,-422 844,-444 914,-444 914,-422 844,-422"/>
<text text-anchor="start" x="847" y="-430.2" font-family="Helvetica,sans-Serif" font-size="11.00">bigint[19]</text>
<polygon fill="#ffffff" stroke="transparent" points="548,-400 548,-422 844,-422 844,-400 548,-400"/>
<polygon fill="none" stroke="black" points="548,-400 548,-422 844,-422 844,-400 548,-400"/>
<image xlink:href="../../images/foreignKeys.png" width="11px" height="12px" preserveAspectRatio="xMinYMin meet" x="553" y="-417"/>
<text text-anchor="start" x="568" y="-408.2" font-family="Helvetica,sans-Serif" font-size="11.00">savings_product_id</text>
<polygon fill="none" stroke="black" points="844,-400 844,-422 914,-422 914,-400 844,-400"/>
<text text-anchor="start" x="847" y="-408.2" font-family="Helvetica,sans-Serif" font-size="11.00">bigint[19]</text>
<polygon fill="none" stroke="black" points="548,-378 548,-400 844,-400 844,-378 548,-378"/>
<text text-anchor="start" x="568" y="-386.2" font-family="Helvetica,sans-Serif" font-size="11.00">min_deposit_term</text>
<polygon fill="none" stroke="black" points="844,-378 844,-400 914,-400 914,-378 844,-378"/>
<text text-anchor="start" x="847" y="-386.2" font-family="Helvetica,sans-Serif" font-size="11.00">int[10]</text>
<polygon fill="none" stroke="black" points="548,-356 548,-378 844,-378 844,-356 548,-356"/>
<text text-anchor="start" x="568" y="-364.2" font-family="Helvetica,sans-Serif" font-size="11.00">max_deposit_term</text>
<polygon fill="none" stroke="black" points="844,-356 844,-378 914,-378 914,-356 844,-356"/>
<text text-anchor="start" x="847" y="-364.2" font-family="Helvetica,sans-Serif" font-size="11.00">int[10]</text>
<polygon fill="none" stroke="black" points="548,-334 548,-356 844,-356 844,-334 548,-334"/>
<text text-anchor="start" x="568" y="-342.2" font-family="Helvetica,sans-Serif" font-size="11.00">min_deposit_term_type_enum</text>
<polygon fill="none" stroke="black" points="844,-334 844,-356 914,-356 914,-334 844,-334"/>
<text text-anchor="start" x="847" y="-342.2" font-family="Helvetica,sans-Serif" font-size="11.00">smallint[5]</text>
<polygon fill="none" stroke="black" points="548,-312 548,-334 844,-334 844,-312 548,-312"/>
<text text-anchor="start" x="568" y="-320.2" font-family="Helvetica,sans-Serif" font-size="11.00">max_deposit_term_type_enum</text>
<polygon fill="none" stroke="black" points="844,-312 844,-334 914,-334 914,-312 844,-312"/>
<text text-anchor="start" x="847" y="-320.2" font-family="Helvetica,sans-Serif" font-size="11.00">smallint[5]</text>
<polygon fill="none" stroke="black" points="548,-290 548,-312 844,-312 844,-290 548,-290"/>
<text text-anchor="start" x="568" y="-298.2" font-family="Helvetica,sans-Serif" font-size="11.00">in_multiples_of_deposit_term</text>
<polygon fill="none" stroke="black" points="844,-290 844,-312 914,-312 914,-290 844,-290"/>
<text text-anchor="start" x="847" y="-298.2" font-family="Helvetica,sans-Serif" font-size="11.00">int[10]</text>
<polygon fill="none" stroke="black" points="548,-268 548,-290 844,-290 844,-268 548,-268"/>
<text text-anchor="start" x="568" y="-276.2" font-family="Helvetica,sans-Serif" font-size="11.00">in_multiples_of_deposit_term_type_enum</text>
<polygon fill="none" stroke="black" points="844,-268 844,-290 914,-290 914,-268 844,-268"/>
<text text-anchor="start" x="847" y="-276.2" font-family="Helvetica,sans-Serif" font-size="11.00">smallint[5]</text>
<polygon fill="none" stroke="black" points="548,-246 548,-268 844,-268 844,-246 548,-246"/>
<text text-anchor="start" x="568" y="-254.2" font-family="Helvetica,sans-Serif" font-size="11.00">pre_closure_penal_applicable</text>
<polygon fill="none" stroke="black" points="844,-246 844,-268 914,-268 914,-246 844,-246"/>
<text text-anchor="start" x="847" y="-254.2" font-family="Helvetica,sans-Serif" font-size="11.00">bit[1]</text>
<polygon fill="none" stroke="black" points="548,-224 548,-246 844,-246 844,-224 548,-224"/>
<text text-anchor="start" x="568" y="-232.2" font-family="Helvetica,sans-Serif" font-size="11.00">pre_closure_penal_interest</text>
<polygon fill="none" stroke="black" points="844,-224 844,-246 914,-246 914,-224 844,-224"/>
<text text-anchor="start" x="847" y="-232.2" font-family="Helvetica,sans-Serif" font-size="11.00">decimal[19,6]</text>
<polygon fill="none" stroke="black" points="548,-202 548,-224 844,-224 844,-202 548,-202"/>
<text text-anchor="start" x="568" y="-210.2" font-family="Helvetica,sans-Serif" font-size="11.00">pre_closure_penal_interest_on_enum</text>
<polygon fill="none" stroke="black" points="844,-202 844,-224 914,-224 914,-202 844,-202"/>
<text text-anchor="start" x="847" y="-210.2" font-family="Helvetica,sans-Serif" font-size="11.00">smallint[5]</text>
<polygon fill="none" stroke="black" points="548,-180 548,-202 844,-202 844,-180 548,-180"/>
<text text-anchor="start" x="568" y="-188.2" font-family="Helvetica,sans-Serif" font-size="11.00">min_deposit_amount</text>
<polygon fill="none" stroke="black" points="844,-180 844,-202 914,-202 914,-180 844,-180"/>
<text text-anchor="start" x="847" y="-188.2" font-family="Helvetica,sans-Serif" font-size="11.00">decimal[19,6]</text>
<polygon fill="none" stroke="black" points="548,-158 548,-180 844,-180 844,-158 548,-158"/>
<text text-anchor="start" x="568" y="-166.2" font-family="Helvetica,sans-Serif" font-size="11.00">max_deposit_amount</text>
<polygon fill="none" stroke="black" points="844,-158 844,-180 914,-180 914,-158 844,-158"/>
<text text-anchor="start" x="847" y="-166.2" font-family="Helvetica,sans-Serif" font-size="11.00">decimal[19,6]</text>
<polygon fill="none" stroke="black" points="548,-136 548,-158 844,-158 844,-136 548,-136"/>
<text text-anchor="start" x="568" y="-144.2" font-family="Helvetica,sans-Serif" font-size="11.00">deposit_amount</text>
<polygon fill="none" stroke="black" points="844,-136 844,-158 914,-158 914,-136 844,-136"/>
<text text-anchor="start" x="847" y="-144.2" font-family="Helvetica,sans-Serif" font-size="11.00">decimal[19,6]</text>
<polygon fill="#ffffff" stroke="transparent" points="548,-118 548,-136 687,-136 687,-118 548,-118"/>
<polygon fill="none" stroke="black" points="548,-118 548,-136 687,-136 687,-118 548,-118"/>
<text text-anchor="start" x="551" y="-124.2" font-family="Helvetica,sans-Serif" font-size="11.00">&lt; 1</text>
<polygon fill="#ffffff" stroke="transparent" points="687,-118 687,-136 844,-136 844,-118 687,-118"/>
<polygon fill="none" stroke="black" points="687,-118 687,-136 844,-136 844,-118 687,-118"/>
<text text-anchor="start" x="808" y="-124.2" font-family="Helvetica,sans-Serif" font-size="11.00">0 rows</text>
<polygon fill="#ffffff" stroke="transparent" points="844,-118 844,-136 914,-136 914,-118 844,-118"/>
<polygon fill="none" stroke="black" points="844,-118 844,-136 914,-136 914,-118 844,-118"/>
<text text-anchor="start" x="895" y="-124.2" font-family="Helvetica,sans-Serif" font-size="11.00">0 &gt;</text>
<polygon fill="none" stroke="black" stroke-width="2" points="547,-117 547,-467 915,-467 915,-117 547,-117"/>
</a>
</g>
</g>
<!-- m_deposit_product_term_and_preclosure&#45;&gt;m_savings_product -->
<g id="edge5" class="edge">
<title>m_deposit_product_term_and_preclosure:w&#45;&gt;m_savings_product:e</title>
<path fill="none" stroke="black" d="M532.73,-413.33C477.44,-434.63 577.01,-595 498,-595"/>
<polygon fill="black" stroke="black" points="539.1,-412.29 547.58,-414.55 543.05,-411.64 547,-411 547,-411 547,-411 543.05,-411.64 546.42,-407.45 539.1,-412.29 539.1,-412.29"/>
<ellipse fill="none" stroke="black" cx="535.95" cy="-412.8" rx="3.2" ry="3.2"/>
</g>
<!-- m_savings_product_charge -->
<g id="node8" class="node">
<title>m_savings_product_charge</title>
<g id="a_node8"><a xlink:href="../../tables/m_savings_product_charge.html" xlink:title="m_savings_product_charge" target="_top">
<polygon fill="#ffffff" stroke="transparent" points="636,-37 636,-95 826,-95 826,-37 636,-37"/>
<polygon fill="#f5f5f5" stroke="transparent" points="636,-73 636,-95 826,-95 826,-73 636,-73"/>
<polygon fill="none" stroke="black" points="636,-73 636,-95 826,-95 826,-73 636,-73"/>
<text text-anchor="start" x="641" y="-82.2" font-family="Helvetica,sans-Serif" font-weight="bold" font-size="11.00">m_savings_product_charge</text>
<text text-anchor="start" x="791" y="-81.2" font-family="Helvetica,sans-Serif" font-size="11.00">[table]</text>
<polygon fill="none" stroke="black" points="636,-55 636,-73 826,-73 826,-55 636,-55"/>
<text text-anchor="start" x="639" y="-61.2" font-family="Helvetica,sans-Serif" font-size="11.00">...</text>
<polygon fill="#ffffff" stroke="transparent" points="636,-37 636,-55 716,-55 716,-37 636,-37"/>
<polygon fill="none" stroke="black" points="636,-37 636,-55 716,-55 716,-37 636,-37"/>
<text text-anchor="start" x="639" y="-43.2" font-family="Helvetica,sans-Serif" font-size="11.00">&lt; 2</text>
<polygon fill="#ffffff" stroke="transparent" points="716,-37 716,-55 784,-55 784,-37 716,-37"/>
<polygon fill="none" stroke="black" points="716,-37 716,-55 784,-55 784,-37 716,-37"/>
<text text-anchor="start" x="748" y="-43.2" font-family="Helvetica,sans-Serif" font-size="11.00">0 rows</text>
<polygon fill="#ffffff" stroke="transparent" points="784,-37 784,-55 826,-55 826,-37 784,-37"/>
<polygon fill="none" stroke="black" points="784,-37 784,-55 826,-55 826,-37 784,-37"/>
<text text-anchor="start" x="816" y="-43.2" font-family="Helvetica,sans-Serif" font-size="11.00"> &#160;</text>
</a>
</g>
</g>
<!-- m_savings_product_charge&#45;&gt;m_savings_product -->
<g id="edge10" class="edge">
<title>m_savings_product_charge:w&#45;&gt;m_savings_product:e</title>
<path fill="none" stroke="black" d="M620.42,-64.18C583.01,-65.25 562.38,-71.99 538,-106 506.24,-150.31 552.51,-595 498,-595"/>
<polygon fill="black" stroke="black" points="627,-64.1 635.04,-67.6 631,-64.05 635,-64 635,-64 635,-64 631,-64.05 634.96,-60.4 627,-64.1 627,-64.1"/>
<ellipse fill="none" stroke="black" cx="623.8" cy="-64.14" rx="3.2" ry="3.2"/>
</g>
</g>
</svg>
