<?xml version="1.0" encoding="UTF-8" standalone="no"?>
<!DOCTYPE svg PUBLIC "-//W3C//DTD SVG 1.1//EN"
 "http://www.w3.org/Graphics/SVG/1.1/DTD/svg11.dtd">
<!-- Generated by graphviz version 2.43.0 (0)
 -->
<!-- Title: oneDegreeRelationshipsDiagram Pages: 1 -->
<svg width="460pt" height="333pt"
 viewBox="0.00 0.00 460.00 333.00" xmlns="http://www.w3.org/2000/svg" xmlns:xlink="http://www.w3.org/1999/xlink">
<g id="graph0" class="graph" transform="scale(1 1) rotate(0) translate(4 329)">
<title>oneDegreeRelationshipsDiagram</title>
<polygon fill="#ffffff" stroke="transparent" points="-4,4 -4,-329 456,-329 456,4 -4,4"/>
<text text-anchor="middle" x="71.5" y="-7.2" font-family="Helvetica,sans-Serif" font-size="11.00">Generated by SchemaSpy</text>
<!-- m_import_document -->
<g id="node1" class="node">
<title>m_import_document</title>
<g id="a_node1"><a xlink:href="../../tables/m_import_document.html" xlink:title="m_import_document" target="_top">
<polygon fill="#ffffff" stroke="transparent" points="286,-197 286,-321 444,-321 444,-197 286,-197"/>
<polygon fill="#f5f5f5" stroke="transparent" points="286,-299 286,-321 444,-321 444,-299 286,-299"/>
<polygon fill="none" stroke="black" points="286,-299 286,-321 444,-321 444,-299 286,-299"/>
<text text-anchor="start" x="291" y="-308.2" font-family="Helvetica,sans-Serif" font-weight="bold" font-size="11.00">m_import_document</text>
<text text-anchor="start" x="409" y="-307.2" font-family="Helvetica,sans-Serif" font-size="11.00">[table]</text>
<polygon fill="none" stroke="black" points="286,-277 286,-299 444,-299 444,-277 286,-277"/>
<image xlink:href="../../images/primaryKeys.png" width="11px" height="12px" preserveAspectRatio="xMinYMin meet" x="291" y="-294"/>
<text text-anchor="start" x="306" y="-285.2" font-family="Helvetica,sans-Serif" font-size="11.00">id</text>
<polygon fill="#ffffff" stroke="transparent" points="286,-255 286,-277 444,-277 444,-255 286,-255"/>
<polygon fill="none" stroke="black" points="286,-255 286,-277 444,-277 444,-255 286,-255"/>
<image xlink:href="../../images/foreignKeys.png" width="11px" height="12px" preserveAspectRatio="xMinYMin meet" x="291" y="-272"/>
<text text-anchor="start" x="306" y="-263.2" font-family="Helvetica,sans-Serif" font-size="11.00">document_id</text>
<polygon fill="#ffffff" stroke="transparent" points="286,-233 286,-255 444,-255 444,-233 286,-233"/>
<polygon fill="none" stroke="black" points="286,-233 286,-255 444,-255 444,-233 286,-233"/>
<image xlink:href="../../images/foreignKeys.png" width="11px" height="12px" preserveAspectRatio="xMinYMin meet" x="291" y="-250"/>
<text text-anchor="start" x="306" y="-241.2" font-family="Helvetica,sans-Serif" font-size="11.00">createdby_id</text>
<polygon fill="none" stroke="black" points="286,-215 286,-233 444,-233 444,-215 286,-215"/>
<text text-anchor="start" x="289" y="-221.2" font-family="Helvetica,sans-Serif" font-size="11.00">...</text>
<polygon fill="#ffffff" stroke="transparent" points="286,-197 286,-215 350,-215 350,-197 286,-197"/>
<polygon fill="none" stroke="black" points="286,-197 286,-215 350,-215 350,-197 286,-197"/>
<text text-anchor="start" x="289" y="-203.2" font-family="Helvetica,sans-Serif" font-size="11.00">&lt; 2</text>
<polygon fill="#ffffff" stroke="transparent" points="350,-197 350,-215 410,-215 410,-197 350,-197"/>
<polygon fill="none" stroke="black" points="350,-197 350,-215 410,-215 410,-197 350,-197"/>
<text text-anchor="start" x="374" y="-203.2" font-family="Helvetica,sans-Serif" font-size="11.00">0 rows</text>
<polygon fill="#ffffff" stroke="transparent" points="410,-197 410,-215 444,-215 444,-197 410,-197"/>
<polygon fill="none" stroke="black" points="410,-197 410,-215 444,-215 444,-197 410,-197"/>
<text text-anchor="start" x="434" y="-203.2" font-family="Helvetica,sans-Serif" font-size="11.00"> &#160;</text>
</a>
</g>
</g>
<!-- m_document -->
<g id="node2" class="node">
<title>m_document</title>
<g id="a_node2"><a xlink:href="../../tables/m_document.html" xlink:title="m_document" target="_top">
<polygon fill="#ffffff" stroke="transparent" points="8,-37 8,-301 237,-301 237,-37 8,-37"/>
<polygon fill="#f5f5f5" stroke="transparent" points="10.5,-277 10.5,-299 235.5,-299 235.5,-277 10.5,-277"/>
<polygon fill="none" stroke="black" points="10.5,-277 10.5,-299 235.5,-299 235.5,-277 10.5,-277"/>
<text text-anchor="start" x="15.5" y="-286.2" font-family="Helvetica,sans-Serif" font-weight="bold" font-size="11.00">m_document</text>
<text text-anchor="start" x="200.5" y="-285.2" font-family="Helvetica,sans-Serif" font-size="11.00">[table]</text>
<polygon fill="none" stroke="black" points="10.5,-255 10.5,-277 162.5,-277 162.5,-255 10.5,-255"/>
<image xlink:href="../../images/primaryKeys.png" width="11px" height="12px" preserveAspectRatio="xMinYMin meet" x="15.5" y="-272"/>
<text text-anchor="start" x="30.5" y="-263.2" font-family="Helvetica,sans-Serif" font-size="11.00">id</text>
<polygon fill="none" stroke="black" points="162.5,-255 162.5,-277 235.5,-277 235.5,-255 162.5,-255"/>
<text text-anchor="start" x="165.5" y="-263.2" font-family="Helvetica,sans-Serif" font-size="11.00">int[10]</text>
<polygon fill="none" stroke="black" points="10.5,-233 10.5,-255 162.5,-255 162.5,-233 10.5,-233"/>
<text text-anchor="start" x="30.5" y="-241.2" font-family="Helvetica,sans-Serif" font-size="11.00">parent_entity_type</text>
<polygon fill="none" stroke="black" points="162.5,-233 162.5,-255 235.5,-255 235.5,-233 162.5,-233"/>
<text text-anchor="start" x="165.5" y="-241.2" font-family="Helvetica,sans-Serif" font-size="11.00">varchar[50]</text>
<polygon fill="none" stroke="black" points="10.5,-211 10.5,-233 162.5,-233 162.5,-211 10.5,-211"/>
<text text-anchor="start" x="30.5" y="-219.2" font-family="Helvetica,sans-Serif" font-size="11.00">parent_entity_id</text>
<polygon fill="none" stroke="black" points="162.5,-211 162.5,-233 235.5,-233 235.5,-211 162.5,-211"/>
<text text-anchor="start" x="165.5" y="-219.2" font-family="Helvetica,sans-Serif" font-size="11.00">int[10]</text>
<polygon fill="none" stroke="black" points="10.5,-189 10.5,-211 162.5,-211 162.5,-189 10.5,-189"/>
<text text-anchor="start" x="30.5" y="-197.2" font-family="Helvetica,sans-Serif" font-size="11.00">name</text>
<polygon fill="none" stroke="black" points="162.5,-189 162.5,-211 235.5,-211 235.5,-189 162.5,-189"/>
<text text-anchor="start" x="165.5" y="-197.2" font-family="Helvetica,sans-Serif" font-size="11.00">varchar[250]</text>
<polygon fill="none" stroke="black" points="10.5,-167 10.5,-189 162.5,-189 162.5,-167 10.5,-167"/>
<text text-anchor="start" x="30.5" y="-175.2" font-family="Helvetica,sans-Serif" font-size="11.00">file_name</text>
<polygon fill="none" stroke="black" points="162.5,-167 162.5,-189 235.5,-189 235.5,-167 162.5,-167"/>
<text text-anchor="start" x="165.5" y="-175.2" font-family="Helvetica,sans-Serif" font-size="11.00">varchar[250]</text>
<polygon fill="none" stroke="black" points="10.5,-145 10.5,-167 162.5,-167 162.5,-145 10.5,-145"/>
<text text-anchor="start" x="30.5" y="-153.2" font-family="Helvetica,sans-Serif" font-size="11.00">size</text>
<polygon fill="none" stroke="black" points="162.5,-145 162.5,-167 235.5,-167 235.5,-145 162.5,-145"/>
<text text-anchor="start" x="165.5" y="-153.2" font-family="Helvetica,sans-Serif" font-size="11.00">int[10]</text>
<polygon fill="none" stroke="black" points="10.5,-123 10.5,-145 162.5,-145 162.5,-123 10.5,-123"/>
<text text-anchor="start" x="30.5" y="-131.2" font-family="Helvetica,sans-Serif" font-size="11.00">type</text>
<polygon fill="none" stroke="black" points="162.5,-123 162.5,-145 235.5,-145 235.5,-123 162.5,-123"/>
<text text-anchor="start" x="165.5" y="-131.2" font-family="Helvetica,sans-Serif" font-size="11.00">varchar[500]</text>
<polygon fill="none" stroke="black" points="10.5,-101 10.5,-123 162.5,-123 162.5,-101 10.5,-101"/>
<text text-anchor="start" x="30.5" y="-109.2" font-family="Helvetica,sans-Serif" font-size="11.00">description</text>
<polygon fill="none" stroke="black" points="162.5,-101 162.5,-123 235.5,-123 235.5,-101 162.5,-101"/>
<text text-anchor="start" x="165.5" y="-109.2" font-family="Helvetica,sans-Serif" font-size="11.00">varchar[1000]</text>
<polygon fill="none" stroke="black" points="10.5,-79 10.5,-101 162.5,-101 162.5,-79 10.5,-79"/>
<text text-anchor="start" x="30.5" y="-87.2" font-family="Helvetica,sans-Serif" font-size="11.00">location</text>
<polygon fill="none" stroke="black" points="162.5,-79 162.5,-101 235.5,-101 235.5,-79 162.5,-79"/>
<text text-anchor="start" x="165.5" y="-87.2" font-family="Helvetica,sans-Serif" font-size="11.00">varchar[500]</text>
<polygon fill="none" stroke="black" points="10.5,-57 10.5,-79 162.5,-79 162.5,-57 10.5,-57"/>
<text text-anchor="start" x="30.5" y="-65.2" font-family="Helvetica,sans-Serif" font-size="11.00">storage_type_enum</text>
<polygon fill="none" stroke="black" points="162.5,-57 162.5,-79 235.5,-79 235.5,-57 162.5,-57"/>
<text text-anchor="start" x="165.5" y="-65.2" font-family="Helvetica,sans-Serif" font-size="11.00">smallint[5]</text>
<polygon fill="#ffffff" stroke="transparent" points="10.5,-39 10.5,-57 77.5,-57 77.5,-39 10.5,-39"/>
<polygon fill="none" stroke="black" points="10.5,-39 10.5,-57 77.5,-57 77.5,-39 10.5,-39"/>
<text text-anchor="start" x="13.5" y="-45.2" font-family="Helvetica,sans-Serif" font-size="11.00">&lt; 0</text>
<polygon fill="#ffffff" stroke="transparent" points="77.5,-39 77.5,-57 162.5,-57 162.5,-39 77.5,-39"/>
<polygon fill="none" stroke="black" points="77.5,-39 77.5,-57 162.5,-57 162.5,-39 77.5,-39"/>
<text text-anchor="start" x="126.5" y="-45.2" font-family="Helvetica,sans-Serif" font-size="11.00">0 rows</text>
<polygon fill="#ffffff" stroke="transparent" points="162.5,-39 162.5,-57 235.5,-57 235.5,-39 162.5,-39"/>
<polygon fill="none" stroke="black" points="162.5,-39 162.5,-57 235.5,-57 235.5,-39 162.5,-39"/>
<text text-anchor="start" x="216.5" y="-45.2" font-family="Helvetica,sans-Serif" font-size="11.00">1 &gt;</text>
<polygon fill="none" stroke="black" stroke-width="2" points="9,-38 9,-300 236,-300 236,-38 9,-38"/>
</a>
</g>
</g>
<!-- m_import_document&#45;&gt;m_document -->
<g id="edge1" class="edge">
<title>m_import_document:w&#45;&gt;m_document:e</title>
<path fill="none" stroke="black" d="M270.28,-266C259.29,-266 252.16,-266 236.5,-266"/>
<polygon fill="black" stroke="black" points="277,-266 285,-269.6 281,-266 285,-266 285,-266 285,-266 281,-266 285,-262.4 277,-266 277,-266"/>
<ellipse fill="none" stroke="black" cx="273.8" cy="-266" rx="3.2" ry="3.2"/>
</g>
</g>
</svg>
