<?xml version="1.0" encoding="UTF-8" standalone="no"?>
<!DOCTYPE svg PUBLIC "-//W3C//DTD SVG 1.1//EN"
 "http://www.w3.org/Graphics/SVG/1.1/DTD/svg11.dtd">
<!-- Generated by graphviz version 2.43.0 (0)
 -->
<!-- Title: oneDegreeRelationshipsDiagram Pages: 1 -->
<svg width="486pt" height="201pt"
 viewBox="0.00 0.00 486.00 201.00" xmlns="http://www.w3.org/2000/svg" xmlns:xlink="http://www.w3.org/1999/xlink">
<g id="graph0" class="graph" transform="scale(1 1) rotate(0) translate(4 197)">
<title>oneDegreeRelationshipsDiagram</title>
<polygon fill="#ffffff" stroke="transparent" points="-4,4 -4,-197 482,-197 482,4 -4,4"/>
<text text-anchor="middle" x="71.5" y="-7.2" font-family="Helvetica,sans-Serif" font-size="11.00">Generated by SchemaSpy</text>
<!-- m_entity_to_entity_mapping -->
<g id="node1" class="node">
<title>m_entity_to_entity_mapping</title>
<g id="a_node1"><a xlink:href="../../tables/m_entity_to_entity_mapping.html" xlink:title="m_entity_to_entity_mapping" target="_top">
<polygon fill="#ffffff" stroke="transparent" points="260,-43 260,-189 470,-189 470,-43 260,-43"/>
<polygon fill="#f5f5f5" stroke="transparent" points="260,-167 260,-189 470,-189 470,-167 260,-167"/>
<polygon fill="none" stroke="black" points="260,-167 260,-189 470,-189 470,-167 260,-167"/>
<text text-anchor="start" x="265" y="-176.2" font-family="Helvetica,sans-Serif" font-weight="bold" font-size="11.00">m_entity_to_entity_mapping</text>
<text text-anchor="start" x="435" y="-175.2" font-family="Helvetica,sans-Serif" font-size="11.00">[table]</text>
<polygon fill="none" stroke="black" points="260,-145 260,-167 470,-167 470,-145 260,-145"/>
<image xlink:href="../../images/primaryKeys.png" width="11px" height="12px" preserveAspectRatio="xMinYMin meet" x="265" y="-162"/>
<text text-anchor="start" x="280" y="-153.2" font-family="Helvetica,sans-Serif" font-size="11.00">id</text>
<polygon fill="#ffffff" stroke="transparent" points="260,-123 260,-145 470,-145 470,-123 260,-123"/>
<polygon fill="none" stroke="black" points="260,-123 260,-145 470,-145 470,-123 260,-123"/>
<image xlink:href="../../images/foreignKeys.png" width="11px" height="12px" preserveAspectRatio="xMinYMin meet" x="265" y="-140"/>
<text text-anchor="start" x="280" y="-131.2" font-family="Helvetica,sans-Serif" font-size="11.00">rel_id</text>
<polygon fill="#ffffff" stroke="transparent" points="260,-101 260,-123 470,-123 470,-101 260,-101"/>
<polygon fill="none" stroke="black" points="260,-101 260,-123 470,-123 470,-101 260,-101"/>
<text text-anchor="start" x="280" y="-109.2" font-family="Helvetica,sans-Serif" font-size="11.00">from_id</text>
<polygon fill="#ffffff" stroke="transparent" points="260,-79 260,-101 470,-101 470,-79 260,-79"/>
<polygon fill="none" stroke="black" points="260,-79 260,-101 470,-101 470,-79 260,-79"/>
<text text-anchor="start" x="280" y="-87.2" font-family="Helvetica,sans-Serif" font-size="11.00">to_id</text>
<polygon fill="none" stroke="black" points="260,-61 260,-79 470,-79 470,-61 260,-61"/>
<text text-anchor="start" x="263" y="-67.2" font-family="Helvetica,sans-Serif" font-size="11.00">...</text>
<polygon fill="#ffffff" stroke="transparent" points="260,-43 260,-61 350,-61 350,-43 260,-43"/>
<polygon fill="none" stroke="black" points="260,-43 260,-61 350,-61 350,-43 260,-43"/>
<text text-anchor="start" x="263" y="-49.2" font-family="Helvetica,sans-Serif" font-size="11.00">&lt; 1</text>
<polygon fill="#ffffff" stroke="transparent" points="350,-43 350,-61 423,-61 423,-43 350,-43"/>
<polygon fill="none" stroke="black" points="350,-43 350,-61 423,-61 423,-43 350,-43"/>
<text text-anchor="start" x="387" y="-49.2" font-family="Helvetica,sans-Serif" font-size="11.00">0 rows</text>
<polygon fill="#ffffff" stroke="transparent" points="423,-43 423,-61 470,-61 470,-43 423,-43"/>
<polygon fill="none" stroke="black" points="423,-43 423,-61 470,-61 470,-43 423,-43"/>
<text text-anchor="start" x="460" y="-49.2" font-family="Helvetica,sans-Serif" font-size="11.00"> &#160;</text>
</a>
</g>
</g>
<!-- m_entity_relation -->
<g id="node2" class="node">
<title>m_entity_relation</title>
<g id="a_node2"><a xlink:href="../../tables/m_entity_relation.html" xlink:title="m_entity_relation" target="_top">
<polygon fill="#ffffff" stroke="transparent" points="8,-37 8,-169 211,-169 211,-37 8,-37"/>
<polygon fill="#f5f5f5" stroke="transparent" points="10.5,-145 10.5,-167 209.5,-167 209.5,-145 10.5,-145"/>
<polygon fill="none" stroke="black" points="10.5,-145 10.5,-167 209.5,-167 209.5,-145 10.5,-145"/>
<text text-anchor="start" x="15.5" y="-154.2" font-family="Helvetica,sans-Serif" font-weight="bold" font-size="11.00">m_entity_relation</text>
<text text-anchor="start" x="174.5" y="-153.2" font-family="Helvetica,sans-Serif" font-size="11.00">[table]</text>
<polygon fill="none" stroke="black" points="10.5,-123 10.5,-145 148.5,-145 148.5,-123 10.5,-123"/>
<image xlink:href="../../images/primaryKeys.png" width="11px" height="12px" preserveAspectRatio="xMinYMin meet" x="15.5" y="-140"/>
<text text-anchor="start" x="30.5" y="-131.2" font-family="Helvetica,sans-Serif" font-size="11.00">id</text>
<polygon fill="none" stroke="black" points="148.5,-123 148.5,-145 209.5,-145 209.5,-123 148.5,-123"/>
<text text-anchor="start" x="151.5" y="-131.2" font-family="Helvetica,sans-Serif" font-size="11.00">bigint[19]</text>
<polygon fill="#ffffff" stroke="transparent" points="10.5,-101 10.5,-123 148.5,-123 148.5,-101 10.5,-101"/>
<polygon fill="none" stroke="black" points="10.5,-101 10.5,-123 148.5,-123 148.5,-101 10.5,-101"/>
<text text-anchor="start" x="30.5" y="-109.2" font-family="Helvetica,sans-Serif" font-size="11.00">from_entity_type</text>
<polygon fill="none" stroke="black" points="148.5,-101 148.5,-123 209.5,-123 209.5,-101 148.5,-101"/>
<text text-anchor="start" x="151.5" y="-109.2" font-family="Helvetica,sans-Serif" font-size="11.00">int[10]</text>
<polygon fill="#ffffff" stroke="transparent" points="10.5,-79 10.5,-101 148.5,-101 148.5,-79 10.5,-79"/>
<polygon fill="none" stroke="black" points="10.5,-79 10.5,-101 148.5,-101 148.5,-79 10.5,-79"/>
<text text-anchor="start" x="30.5" y="-87.2" font-family="Helvetica,sans-Serif" font-size="11.00">to_entity_type</text>
<polygon fill="none" stroke="black" points="148.5,-79 148.5,-101 209.5,-101 209.5,-79 148.5,-79"/>
<text text-anchor="start" x="151.5" y="-87.2" font-family="Helvetica,sans-Serif" font-size="11.00">int[10]</text>
<polygon fill="#ffffff" stroke="transparent" points="10.5,-57 10.5,-79 148.5,-79 148.5,-57 10.5,-57"/>
<polygon fill="none" stroke="black" points="10.5,-57 10.5,-79 148.5,-79 148.5,-57 10.5,-57"/>
<text text-anchor="start" x="30.5" y="-65.2" font-family="Helvetica,sans-Serif" font-size="11.00">code_name</text>
<polygon fill="none" stroke="black" points="148.5,-57 148.5,-79 209.5,-79 209.5,-57 148.5,-57"/>
<text text-anchor="start" x="151.5" y="-65.2" font-family="Helvetica,sans-Serif" font-size="11.00">varchar[50]</text>
<polygon fill="#ffffff" stroke="transparent" points="10.5,-39 10.5,-57 70.5,-57 70.5,-39 10.5,-39"/>
<polygon fill="none" stroke="black" points="10.5,-39 10.5,-57 70.5,-57 70.5,-39 10.5,-39"/>
<text text-anchor="start" x="13.5" y="-45.2" font-family="Helvetica,sans-Serif" font-size="11.00">&lt; 0</text>
<polygon fill="#ffffff" stroke="transparent" points="70.5,-39 70.5,-57 148.5,-57 148.5,-39 70.5,-39"/>
<polygon fill="none" stroke="black" points="70.5,-39 70.5,-57 148.5,-57 148.5,-39 70.5,-39"/>
<text text-anchor="start" x="112.5" y="-45.2" font-family="Helvetica,sans-Serif" font-size="11.00">0 rows</text>
<polygon fill="#ffffff" stroke="transparent" points="148.5,-39 148.5,-57 209.5,-57 209.5,-39 148.5,-39"/>
<polygon fill="none" stroke="black" points="148.5,-39 148.5,-57 209.5,-57 209.5,-39 148.5,-39"/>
<text text-anchor="start" x="190.5" y="-45.2" font-family="Helvetica,sans-Serif" font-size="11.00">1 &gt;</text>
<polygon fill="none" stroke="black" stroke-width="2" points="9,-38 9,-168 210,-168 210,-38 9,-38"/>
</a>
</g>
</g>
<!-- m_entity_to_entity_mapping&#45;&gt;m_entity_relation -->
<g id="edge1" class="edge">
<title>m_entity_to_entity_mapping:w&#45;&gt;m_entity_relation:e</title>
<path fill="none" stroke="black" d="M244.28,-134C233.29,-134 226.16,-134 210.5,-134"/>
<polygon fill="black" stroke="black" points="251,-134 259,-137.6 255,-134 259,-134 259,-134 259,-134 255,-134 259,-130.4 251,-134 251,-134"/>
<ellipse fill="none" stroke="black" cx="247.8" cy="-134" rx="3.2" ry="3.2"/>
</g>
</g>
</svg>
