<?xml version="1.0" encoding="UTF-8" standalone="no"?>
<!DOCTYPE svg PUBLIC "-//W3C//DTD SVG 1.1//EN"
 "http://www.w3.org/Graphics/SVG/1.1/DTD/svg11.dtd">
<!-- Generated by graphviz version 2.43.0 (0)
 -->
<!-- Title: oneDegreeRelationshipsDiagram Pages: 1 -->
<svg width="519pt" height="225pt"
 viewBox="0.00 0.00 519.00 225.00" xmlns="http://www.w3.org/2000/svg" xmlns:xlink="http://www.w3.org/1999/xlink">
<g id="graph0" class="graph" transform="scale(1 1) rotate(0) translate(4 221)">
<title>oneDegreeRelationshipsDiagram</title>
<polygon fill="#ffffff" stroke="transparent" points="-4,4 -4,-221 515,-221 515,4 -4,4"/>
<text text-anchor="middle" x="71.5" y="-7.2" font-family="Helvetica,sans-Serif" font-size="11.00">Generated by SchemaSpy</text>
<!-- m_entity_datatable_check -->
<g id="node1" class="node">
<title>m_entity_datatable_check</title>
<g id="a_node1"><a xlink:href="../../tables/m_entity_datatable_check.html" xlink:title="m_entity_datatable_check" target="_top">
<polygon fill="#ffffff" stroke="transparent" points="237,-37 237,-213 503,-213 503,-37 237,-37"/>
<polygon fill="#f5f5f5" stroke="transparent" points="239,-189 239,-211 501,-211 501,-189 239,-189"/>
<polygon fill="none" stroke="black" points="239,-189 239,-211 501,-211 501,-189 239,-189"/>
<text text-anchor="start" x="244" y="-198.2" font-family="Helvetica,sans-Serif" font-weight="bold" font-size="11.00">m_entity_datatable_check</text>
<text text-anchor="start" x="466" y="-197.2" font-family="Helvetica,sans-Serif" font-size="11.00">[table]</text>
<polygon fill="none" stroke="black" points="239,-167 239,-189 434,-189 434,-167 239,-167"/>
<image xlink:href="../../images/primaryKeys.png" width="11px" height="12px" preserveAspectRatio="xMinYMin meet" x="244" y="-184"/>
<text text-anchor="start" x="259" y="-175.2" font-family="Helvetica,sans-Serif" font-size="11.00">id</text>
<polygon fill="none" stroke="black" points="434,-167 434,-189 501,-189 501,-167 434,-167"/>
<text text-anchor="start" x="437" y="-175.2" font-family="Helvetica,sans-Serif" font-size="11.00">int[10]</text>
<polygon fill="#ffffff" stroke="transparent" points="239,-145 239,-167 434,-167 434,-145 239,-145"/>
<polygon fill="none" stroke="black" points="239,-145 239,-167 434,-167 434,-145 239,-145"/>
<text text-anchor="start" x="259" y="-153.2" font-family="Helvetica,sans-Serif" font-size="11.00">application_table_name</text>
<polygon fill="none" stroke="black" points="434,-145 434,-167 501,-167 501,-145 434,-145"/>
<text text-anchor="start" x="437" y="-153.2" font-family="Helvetica,sans-Serif" font-size="11.00">varchar[200]</text>
<polygon fill="#ffffff" stroke="transparent" points="239,-123 239,-145 434,-145 434,-123 239,-123"/>
<polygon fill="none" stroke="black" points="239,-123 239,-145 434,-145 434,-123 239,-123"/>
<image xlink:href="../../images/foreignKeys.png" width="11px" height="12px" preserveAspectRatio="xMinYMin meet" x="244" y="-140"/>
<text text-anchor="start" x="259" y="-131.2" font-family="Helvetica,sans-Serif" font-size="11.00">x_registered_table_name</text>
<polygon fill="none" stroke="black" points="434,-123 434,-145 501,-145 501,-123 434,-123"/>
<text text-anchor="start" x="437" y="-131.2" font-family="Helvetica,sans-Serif" font-size="11.00">varchar[50]</text>
<polygon fill="#ffffff" stroke="transparent" points="239,-101 239,-123 434,-123 434,-101 239,-101"/>
<polygon fill="none" stroke="black" points="239,-101 239,-123 434,-123 434,-101 239,-101"/>
<text text-anchor="start" x="259" y="-109.2" font-family="Helvetica,sans-Serif" font-size="11.00">status_enum</text>
<polygon fill="none" stroke="black" points="434,-101 434,-123 501,-123 501,-101 434,-101"/>
<text text-anchor="start" x="437" y="-109.2" font-family="Helvetica,sans-Serif" font-size="11.00">int[10]</text>
<polygon fill="none" stroke="black" points="239,-79 239,-101 434,-101 434,-79 239,-79"/>
<text text-anchor="start" x="259" y="-87.2" font-family="Helvetica,sans-Serif" font-size="11.00">system_defined</text>
<polygon fill="none" stroke="black" points="434,-79 434,-101 501,-101 501,-79 434,-79"/>
<text text-anchor="start" x="437" y="-87.2" font-family="Helvetica,sans-Serif" font-size="11.00">bit[1]</text>
<polygon fill="#ffffff" stroke="transparent" points="239,-57 239,-79 434,-79 434,-57 239,-57"/>
<polygon fill="none" stroke="black" points="239,-57 239,-79 434,-79 434,-57 239,-57"/>
<text text-anchor="start" x="259" y="-65.2" font-family="Helvetica,sans-Serif" font-size="11.00">product_id</text>
<polygon fill="none" stroke="black" points="434,-57 434,-79 501,-79 501,-57 434,-57"/>
<text text-anchor="start" x="437" y="-65.2" font-family="Helvetica,sans-Serif" font-size="11.00">bigint[19]</text>
<polygon fill="#ffffff" stroke="transparent" points="239,-39 239,-57 328,-57 328,-39 239,-39"/>
<polygon fill="none" stroke="black" points="239,-39 239,-57 328,-57 328,-39 239,-39"/>
<text text-anchor="start" x="242" y="-45.2" font-family="Helvetica,sans-Serif" font-size="11.00">&lt; 1</text>
<polygon fill="#ffffff" stroke="transparent" points="328,-39 328,-57 434,-57 434,-39 328,-39"/>
<polygon fill="none" stroke="black" points="328,-39 328,-57 434,-57 434,-39 328,-39"/>
<text text-anchor="start" x="398" y="-45.2" font-family="Helvetica,sans-Serif" font-size="11.00">0 rows</text>
<polygon fill="#ffffff" stroke="transparent" points="434,-39 434,-57 501,-57 501,-39 434,-39"/>
<polygon fill="none" stroke="black" points="434,-39 434,-57 501,-57 501,-39 434,-39"/>
<text text-anchor="start" x="482" y="-45.2" font-family="Helvetica,sans-Serif" font-size="11.00">0 &gt;</text>
<polygon fill="none" stroke="black" stroke-width="2" points="238,-38 238,-212 502,-212 502,-38 238,-38"/>
</a>
</g>
</g>
<!-- x_registered_table -->
<g id="node2" class="node">
<title>x_registered_table</title>
<g id="a_node2"><a xlink:href="../../tables/x_registered_table.html" xlink:title="x_registered_table" target="_top">
<polygon fill="#ffffff" stroke="transparent" points="8,-87 8,-167 188,-167 188,-87 8,-87"/>
<polygon fill="#f5f5f5" stroke="transparent" points="8,-145 8,-167 188,-167 188,-145 8,-145"/>
<polygon fill="none" stroke="black" points="8,-145 8,-167 188,-167 188,-145 8,-145"/>
<text text-anchor="start" x="13" y="-154.2" font-family="Helvetica,sans-Serif" font-weight="bold" font-size="11.00">x_registered_table</text>
<text text-anchor="start" x="153" y="-153.2" font-family="Helvetica,sans-Serif" font-size="11.00">[table]</text>
<polygon fill="none" stroke="black" points="8,-123 8,-145 188,-145 188,-123 8,-123"/>
<image xlink:href="../../images/primaryKeys.png" width="11px" height="12px" preserveAspectRatio="xMinYMin meet" x="13" y="-140"/>
<text text-anchor="start" x="28" y="-131.2" font-family="Helvetica,sans-Serif" font-size="11.00">registered_table_name</text>
<polygon fill="none" stroke="black" points="8,-105 8,-123 188,-123 188,-105 8,-105"/>
<text text-anchor="start" x="11" y="-111.2" font-family="Helvetica,sans-Serif" font-size="11.00">...</text>
<polygon fill="#ffffff" stroke="transparent" points="8,-87 8,-105 74,-105 74,-87 8,-87"/>
<polygon fill="none" stroke="black" points="8,-87 8,-105 74,-105 74,-87 8,-87"/>
<text text-anchor="start" x="11" y="-93.2" font-family="Helvetica,sans-Serif" font-size="11.00"> &#160;</text>
<polygon fill="#ffffff" stroke="transparent" points="74,-87 74,-105 139,-105 139,-87 74,-87"/>
<polygon fill="none" stroke="black" points="74,-87 74,-105 139,-105 139,-87 74,-87"/>
<text text-anchor="start" x="103" y="-93.2" font-family="Helvetica,sans-Serif" font-size="11.00">0 rows</text>
<polygon fill="#ffffff" stroke="transparent" points="139,-87 139,-105 188,-105 188,-87 139,-87"/>
<polygon fill="none" stroke="black" points="139,-87 139,-105 188,-105 188,-87 139,-87"/>
<text text-anchor="start" x="169" y="-93.2" font-family="Helvetica,sans-Serif" font-size="11.00">1 &gt;</text>
</a>
</g>
</g>
<!-- m_entity_datatable_check&#45;&gt;x_registered_table -->
<g id="edge1" class="edge">
<title>m_entity_datatable_check:w&#45;&gt;x_registered_table:e</title>
<path fill="none" stroke="black" d="M223.49,-134C212.18,-134 204.99,-134 189,-134"/>
<polygon fill="black" stroke="black" points="230,-134 238,-137.6 234,-134 238,-134 238,-134 238,-134 234,-134 238,-130.4 230,-134 230,-134"/>
<ellipse fill="none" stroke="black" cx="226.8" cy="-134" rx="3.2" ry="3.2"/>
</g>
</g>
</svg>
