<?xml version="1.0" encoding="UTF-8" standalone="no"?>
<!DOCTYPE svg PUBLIC "-//W3C//DTD SVG 1.1//EN"
 "http://www.w3.org/Graphics/SVG/1.1/DTD/svg11.dtd">
<!-- Generated by graphviz version 2.43.0 (0)
 -->
<!-- Title: oneDegreeRelationshipsDiagram Pages: 1 -->
<svg width="474pt" height="241pt"
 viewBox="0.00 0.00 474.00 241.00" xmlns="http://www.w3.org/2000/svg" xmlns:xlink="http://www.w3.org/1999/xlink">
<g id="graph0" class="graph" transform="scale(1 1) rotate(0) translate(4 237)">
<title>oneDegreeRelationshipsDiagram</title>
<polygon fill="#ffffff" stroke="transparent" points="-4,4 -4,-237 470,-237 470,4 -4,4"/>
<text text-anchor="middle" x="71.5" y="-7.2" font-family="Helvetica,sans-Serif" font-size="11.00">Generated by SchemaSpy</text>
<!-- m_entity_to_entity_access -->
<g id="node1" class="node">
<title>m_entity_to_entity_access</title>
<g id="a_node1"><a xlink:href="../../tables/m_entity_to_entity_access.html" xlink:title="m_entity_to_entity_access" target="_top">
<polygon fill="#ffffff" stroke="transparent" points="192,-53 192,-229 458,-229 458,-53 192,-53"/>
<polygon fill="#f5f5f5" stroke="transparent" points="194,-205 194,-227 456,-227 456,-205 194,-205"/>
<polygon fill="none" stroke="black" points="194,-205 194,-227 456,-227 456,-205 194,-205"/>
<text text-anchor="start" x="199" y="-214.2" font-family="Helvetica,sans-Serif" font-weight="bold" font-size="11.00">m_entity_to_entity_access</text>
<text text-anchor="start" x="421" y="-213.2" font-family="Helvetica,sans-Serif" font-size="11.00">[table]</text>
<polygon fill="none" stroke="black" points="194,-183 194,-205 395,-205 395,-183 194,-183"/>
<image xlink:href="../../images/primaryKeys.png" width="11px" height="12px" preserveAspectRatio="xMinYMin meet" x="199" y="-200"/>
<text text-anchor="start" x="214" y="-191.2" font-family="Helvetica,sans-Serif" font-size="11.00">id</text>
<polygon fill="none" stroke="black" points="395,-183 395,-205 456,-205 456,-183 395,-183"/>
<text text-anchor="start" x="398" y="-191.2" font-family="Helvetica,sans-Serif" font-size="11.00">bigint[19]</text>
<polygon fill="#ffffff" stroke="transparent" points="194,-161 194,-183 395,-183 395,-161 194,-161"/>
<polygon fill="none" stroke="black" points="194,-161 194,-183 395,-183 395,-161 194,-161"/>
<text text-anchor="start" x="214" y="-169.2" font-family="Helvetica,sans-Serif" font-size="11.00">entity_type</text>
<polygon fill="none" stroke="black" points="395,-161 395,-183 456,-183 456,-161 395,-161"/>
<text text-anchor="start" x="398" y="-169.2" font-family="Helvetica,sans-Serif" font-size="11.00">varchar[50]</text>
<polygon fill="#ffffff" stroke="transparent" points="194,-139 194,-161 395,-161 395,-139 194,-139"/>
<polygon fill="none" stroke="black" points="194,-139 194,-161 395,-161 395,-139 194,-139"/>
<text text-anchor="start" x="214" y="-147.2" font-family="Helvetica,sans-Serif" font-size="11.00">entity_id</text>
<polygon fill="none" stroke="black" points="395,-139 395,-161 456,-161 456,-139 395,-139"/>
<text text-anchor="start" x="398" y="-147.2" font-family="Helvetica,sans-Serif" font-size="11.00">bigint[19]</text>
<polygon fill="#ffffff" stroke="transparent" points="194,-117 194,-139 395,-139 395,-117 194,-117"/>
<polygon fill="none" stroke="black" points="194,-117 194,-139 395,-139 395,-117 194,-117"/>
<image xlink:href="../../images/foreignKeys.png" width="11px" height="12px" preserveAspectRatio="xMinYMin meet" x="199" y="-134"/>
<text text-anchor="start" x="214" y="-125.2" font-family="Helvetica,sans-Serif" font-size="11.00">access_type_code_value_id</text>
<polygon fill="none" stroke="black" points="395,-117 395,-139 456,-139 456,-117 395,-117"/>
<text text-anchor="start" x="398" y="-125.2" font-family="Helvetica,sans-Serif" font-size="11.00">int[10]</text>
<polygon fill="#ffffff" stroke="transparent" points="194,-95 194,-117 395,-117 395,-95 194,-95"/>
<polygon fill="none" stroke="black" points="194,-95 194,-117 395,-117 395,-95 194,-95"/>
<text text-anchor="start" x="214" y="-103.2" font-family="Helvetica,sans-Serif" font-size="11.00">second_entity_type</text>
<polygon fill="none" stroke="black" points="395,-95 395,-117 456,-117 456,-95 395,-95"/>
<text text-anchor="start" x="398" y="-103.2" font-family="Helvetica,sans-Serif" font-size="11.00">varchar[50]</text>
<polygon fill="#ffffff" stroke="transparent" points="194,-73 194,-95 395,-95 395,-73 194,-73"/>
<polygon fill="none" stroke="black" points="194,-73 194,-95 395,-95 395,-73 194,-73"/>
<text text-anchor="start" x="214" y="-81.2" font-family="Helvetica,sans-Serif" font-size="11.00">second_entity_id</text>
<polygon fill="none" stroke="black" points="395,-73 395,-95 456,-95 456,-73 395,-73"/>
<text text-anchor="start" x="398" y="-81.2" font-family="Helvetica,sans-Serif" font-size="11.00">bigint[19]</text>
<polygon fill="#ffffff" stroke="transparent" points="194,-55 194,-73 286,-73 286,-55 194,-55"/>
<polygon fill="none" stroke="black" points="194,-55 194,-73 286,-73 286,-55 194,-55"/>
<text text-anchor="start" x="197" y="-61.2" font-family="Helvetica,sans-Serif" font-size="11.00">&lt; 1</text>
<polygon fill="#ffffff" stroke="transparent" points="286,-55 286,-73 395,-73 395,-55 286,-55"/>
<polygon fill="none" stroke="black" points="286,-55 286,-73 395,-73 395,-55 286,-55"/>
<text text-anchor="start" x="359" y="-61.2" font-family="Helvetica,sans-Serif" font-size="11.00">0 rows</text>
<polygon fill="#ffffff" stroke="transparent" points="395,-55 395,-73 456,-73 456,-55 395,-55"/>
<polygon fill="none" stroke="black" points="395,-55 395,-73 456,-73 456,-55 395,-55"/>
<text text-anchor="start" x="437" y="-61.2" font-family="Helvetica,sans-Serif" font-size="11.00">0 &gt;</text>
<polygon fill="none" stroke="black" stroke-width="2" points="193,-54 193,-228 457,-228 457,-54 193,-54"/>
</a>
</g>
</g>
<!-- m_code_value -->
<g id="node2" class="node">
<title>m_code_value</title>
<g id="a_node2"><a xlink:href="../../tables/m_code_value.html" xlink:title="m_code_value" target="_top">
<polygon fill="#ffffff" stroke="transparent" points="8,-37 8,-161 143,-161 143,-37 8,-37"/>
<polygon fill="#f5f5f5" stroke="transparent" points="8.5,-139 8.5,-161 143.5,-161 143.5,-139 8.5,-139"/>
<polygon fill="none" stroke="black" points="8.5,-139 8.5,-161 143.5,-161 143.5,-139 8.5,-139"/>
<text text-anchor="start" x="13.5" y="-148.2" font-family="Helvetica,sans-Serif" font-weight="bold" font-size="11.00">m_code_value</text>
<text text-anchor="start" x="108.5" y="-147.2" font-family="Helvetica,sans-Serif" font-size="11.00">[table]</text>
<polygon fill="none" stroke="black" points="8.5,-117 8.5,-139 143.5,-139 143.5,-117 8.5,-117"/>
<image xlink:href="../../images/primaryKeys.png" width="11px" height="12px" preserveAspectRatio="xMinYMin meet" x="13.5" y="-134"/>
<text text-anchor="start" x="28.5" y="-125.2" font-family="Helvetica,sans-Serif" font-size="11.00">id</text>
<polygon fill="#ffffff" stroke="transparent" points="8.5,-95 8.5,-117 143.5,-117 143.5,-95 8.5,-95"/>
<polygon fill="none" stroke="black" points="8.5,-95 8.5,-117 143.5,-117 143.5,-95 8.5,-95"/>
<image xlink:href="../../images/foreignKeys.png" width="11px" height="12px" preserveAspectRatio="xMinYMin meet" x="13.5" y="-112"/>
<text text-anchor="start" x="28.5" y="-103.2" font-family="Helvetica,sans-Serif" font-size="11.00">code_id</text>
<polygon fill="#ffffff" stroke="transparent" points="8.5,-73 8.5,-95 143.5,-95 143.5,-73 8.5,-73"/>
<polygon fill="none" stroke="black" points="8.5,-73 8.5,-95 143.5,-95 143.5,-73 8.5,-73"/>
<text text-anchor="start" x="28.5" y="-81.2" font-family="Helvetica,sans-Serif" font-size="11.00">code_value</text>
<polygon fill="none" stroke="black" points="8.5,-55 8.5,-73 143.5,-73 143.5,-55 8.5,-55"/>
<text text-anchor="start" x="11.5" y="-61.2" font-family="Helvetica,sans-Serif" font-size="11.00">...</text>
<polygon fill="#ffffff" stroke="transparent" points="8.5,-37 8.5,-55 53.5,-55 53.5,-37 8.5,-37"/>
<polygon fill="none" stroke="black" points="8.5,-37 8.5,-55 53.5,-55 53.5,-37 8.5,-37"/>
<text text-anchor="start" x="11.5" y="-43.2" font-family="Helvetica,sans-Serif" font-size="11.00">&lt; 1</text>
<polygon fill="#ffffff" stroke="transparent" points="53.5,-37 53.5,-55 103.5,-55 103.5,-37 53.5,-37"/>
<polygon fill="none" stroke="black" points="53.5,-37 53.5,-55 103.5,-55 103.5,-37 53.5,-37"/>
<text text-anchor="start" x="67.5" y="-43.2" font-family="Helvetica,sans-Serif" font-size="11.00">0 rows</text>
<polygon fill="#ffffff" stroke="transparent" points="103.5,-37 103.5,-55 143.5,-55 143.5,-37 103.5,-37"/>
<polygon fill="none" stroke="black" points="103.5,-37 103.5,-55 143.5,-55 143.5,-37 103.5,-37"/>
<text text-anchor="start" x="118.5" y="-43.2" font-family="Helvetica,sans-Serif" font-size="11.00">25 &gt;</text>
</a>
</g>
</g>
<!-- m_entity_to_entity_access&#45;&gt;m_code_value -->
<g id="edge1" class="edge">
<title>m_entity_to_entity_access:w&#45;&gt;m_code_value:e</title>
<path fill="none" stroke="black" d="M178.28,-128C167.29,-128 160.16,-128 144.5,-128"/>
<polygon fill="black" stroke="black" points="185,-128 193,-131.6 189,-128 193,-128 193,-128 193,-128 189,-128 193,-124.4 185,-128 185,-128"/>
<ellipse fill="none" stroke="black" cx="181.8" cy="-128" rx="3.2" ry="3.2"/>
</g>
</g>
</svg>
