<?xml version="1.0" encoding="UTF-8" standalone="no"?>
<!DOCTYPE svg PUBLIC "-//W3C//DTD SVG 1.1//EN"
 "http://www.w3.org/Graphics/SVG/1.1/DTD/svg11.dtd">
<!-- Generated by graphviz version 2.43.0 (0)
 -->
<!-- Title: oneDegreeRelationshipsDiagram Pages: 1 -->
<svg width="672pt" height="690pt"
 viewBox="0.00 0.00 672.00 690.00" xmlns="http://www.w3.org/2000/svg" xmlns:xlink="http://www.w3.org/1999/xlink">
<g id="graph0" class="graph" transform="scale(1 1) rotate(0) translate(4 686)">
<title>oneDegreeRelationshipsDiagram</title>
<polygon fill="#ffffff" stroke="transparent" points="-4,4 -4,-686 668,-686 668,4 -4,4"/>
<text text-anchor="middle" x="71.5" y="-7.2" font-family="Helvetica,sans-Serif" font-size="11.00">Generated by SchemaSpy</text>
<!-- m_client -->
<g id="node1" class="node">
<title>m_client</title>
<g id="a_node1"><a xlink:href="../../tables/m_client.html" xlink:title="m_client" target="_top">
<polygon fill="#ffffff" stroke="transparent" points="192,-246 192,-678 385,-678 385,-246 192,-246"/>
<polygon fill="#f5f5f5" stroke="transparent" points="192.5,-656 192.5,-678 385.5,-678 385.5,-656 192.5,-656"/>
<polygon fill="none" stroke="black" points="192.5,-656 192.5,-678 385.5,-678 385.5,-656 192.5,-656"/>
<text text-anchor="start" x="197.5" y="-665.2" font-family="Helvetica,sans-Serif" font-weight="bold" font-size="11.00">m_client</text>
<text text-anchor="start" x="350.5" y="-664.2" font-family="Helvetica,sans-Serif" font-size="11.00">[table]</text>
<polygon fill="none" stroke="black" points="192.5,-634 192.5,-656 385.5,-656 385.5,-634 192.5,-634"/>
<image xlink:href="../../images/primaryKeys.png" width="11px" height="12px" preserveAspectRatio="xMinYMin meet" x="197.5" y="-651"/>
<text text-anchor="start" x="212.5" y="-642.2" font-family="Helvetica,sans-Serif" font-size="11.00">id</text>
<polygon fill="#ffffff" stroke="transparent" points="192.5,-612 192.5,-634 385.5,-634 385.5,-612 192.5,-612"/>
<polygon fill="none" stroke="black" points="192.5,-612 192.5,-634 385.5,-634 385.5,-612 192.5,-612"/>
<text text-anchor="start" x="212.5" y="-620.2" font-family="Helvetica,sans-Serif" font-size="11.00">account_no</text>
<polygon fill="#ffffff" stroke="transparent" points="192.5,-590 192.5,-612 385.5,-612 385.5,-590 192.5,-590"/>
<polygon fill="none" stroke="black" points="192.5,-590 192.5,-612 385.5,-612 385.5,-590 192.5,-590"/>
<text text-anchor="start" x="212.5" y="-598.2" font-family="Helvetica,sans-Serif" font-size="11.00">external_id</text>
<polygon fill="#ffffff" stroke="transparent" points="192.5,-568 192.5,-590 385.5,-590 385.5,-568 192.5,-568"/>
<polygon fill="none" stroke="black" points="192.5,-568 192.5,-590 385.5,-590 385.5,-568 192.5,-568"/>
<image xlink:href="../../images/foreignKeys.png" width="11px" height="12px" preserveAspectRatio="xMinYMin meet" x="197.5" y="-585"/>
<text text-anchor="start" x="212.5" y="-576.2" font-family="Helvetica,sans-Serif" font-size="11.00">sub_status</text>
<polygon fill="#ffffff" stroke="transparent" points="192.5,-546 192.5,-568 385.5,-568 385.5,-546 192.5,-546"/>
<polygon fill="none" stroke="black" points="192.5,-546 192.5,-568 385.5,-568 385.5,-546 192.5,-546"/>
<image xlink:href="../../images/foreignKeys.png" width="11px" height="12px" preserveAspectRatio="xMinYMin meet" x="197.5" y="-563"/>
<text text-anchor="start" x="212.5" y="-554.2" font-family="Helvetica,sans-Serif" font-size="11.00">office_id</text>
<polygon fill="#ffffff" stroke="transparent" points="192.5,-524 192.5,-546 385.5,-546 385.5,-524 192.5,-524"/>
<polygon fill="none" stroke="black" points="192.5,-524 192.5,-546 385.5,-546 385.5,-524 192.5,-524"/>
<image xlink:href="../../images/foreignKeys.png" width="11px" height="12px" preserveAspectRatio="xMinYMin meet" x="197.5" y="-541"/>
<text text-anchor="start" x="212.5" y="-532.2" font-family="Helvetica,sans-Serif" font-size="11.00">transfer_to_office_id</text>
<polygon fill="#ffffff" stroke="transparent" points="192.5,-502 192.5,-524 385.5,-524 385.5,-502 192.5,-502"/>
<polygon fill="none" stroke="black" points="192.5,-502 192.5,-524 385.5,-524 385.5,-502 192.5,-502"/>
<image xlink:href="../../images/foreignKeys.png" width="11px" height="12px" preserveAspectRatio="xMinYMin meet" x="197.5" y="-519"/>
<text text-anchor="start" x="212.5" y="-510.2" font-family="Helvetica,sans-Serif" font-size="11.00">staff_id</text>
<polygon fill="#ffffff" stroke="transparent" points="192.5,-480 192.5,-502 385.5,-502 385.5,-480 192.5,-480"/>
<polygon fill="none" stroke="black" points="192.5,-480 192.5,-502 385.5,-502 385.5,-480 192.5,-480"/>
<text text-anchor="start" x="212.5" y="-488.2" font-family="Helvetica,sans-Serif" font-size="11.00">mobile_no</text>
<polygon fill="#ffffff" stroke="transparent" points="192.5,-458 192.5,-480 385.5,-480 385.5,-458 192.5,-458"/>
<polygon fill="none" stroke="black" points="192.5,-458 192.5,-480 385.5,-480 385.5,-458 192.5,-458"/>
<image xlink:href="../../images/foreignKeys.png" width="11px" height="12px" preserveAspectRatio="xMinYMin meet" x="197.5" y="-475"/>
<text text-anchor="start" x="212.5" y="-466.2" font-family="Helvetica,sans-Serif" font-size="11.00">gender_cv_id</text>
<polygon fill="#ffffff" stroke="transparent" points="192.5,-436 192.5,-458 385.5,-458 385.5,-436 192.5,-436"/>
<polygon fill="none" stroke="black" points="192.5,-436 192.5,-458 385.5,-458 385.5,-436 192.5,-436"/>
<image xlink:href="../../images/foreignKeys.png" width="11px" height="12px" preserveAspectRatio="xMinYMin meet" x="197.5" y="-453"/>
<text text-anchor="start" x="212.5" y="-444.2" font-family="Helvetica,sans-Serif" font-size="11.00">image_id</text>
<polygon fill="#ffffff" stroke="transparent" points="192.5,-414 192.5,-436 385.5,-436 385.5,-414 192.5,-414"/>
<polygon fill="none" stroke="black" points="192.5,-414 192.5,-436 385.5,-436 385.5,-414 192.5,-414"/>
<image xlink:href="../../images/foreignKeys.png" width="11px" height="12px" preserveAspectRatio="xMinYMin meet" x="197.5" y="-431"/>
<text text-anchor="start" x="212.5" y="-422.2" font-family="Helvetica,sans-Serif" font-size="11.00">closure_reason_cv_id</text>
<polygon fill="#ffffff" stroke="transparent" points="192.5,-392 192.5,-414 385.5,-414 385.5,-392 192.5,-392"/>
<polygon fill="none" stroke="black" points="192.5,-392 192.5,-414 385.5,-414 385.5,-392 192.5,-392"/>
<image xlink:href="../../images/foreignKeys.png" width="11px" height="12px" preserveAspectRatio="xMinYMin meet" x="197.5" y="-409"/>
<text text-anchor="start" x="212.5" y="-400.2" font-family="Helvetica,sans-Serif" font-size="11.00">default_savings_product</text>
<polygon fill="#ffffff" stroke="transparent" points="192.5,-370 192.5,-392 385.5,-392 385.5,-370 192.5,-370"/>
<polygon fill="none" stroke="black" points="192.5,-370 192.5,-392 385.5,-392 385.5,-370 192.5,-370"/>
<image xlink:href="../../images/foreignKeys.png" width="11px" height="12px" preserveAspectRatio="xMinYMin meet" x="197.5" y="-387"/>
<text text-anchor="start" x="212.5" y="-378.2" font-family="Helvetica,sans-Serif" font-size="11.00">default_savings_account</text>
<polygon fill="#ffffff" stroke="transparent" points="192.5,-348 192.5,-370 385.5,-370 385.5,-348 192.5,-348"/>
<polygon fill="none" stroke="black" points="192.5,-348 192.5,-370 385.5,-370 385.5,-348 192.5,-348"/>
<image xlink:href="../../images/foreignKeys.png" width="11px" height="12px" preserveAspectRatio="xMinYMin meet" x="197.5" y="-365"/>
<text text-anchor="start" x="212.5" y="-356.2" font-family="Helvetica,sans-Serif" font-size="11.00">client_type_cv_id</text>
<polygon fill="#ffffff" stroke="transparent" points="192.5,-326 192.5,-348 385.5,-348 385.5,-326 192.5,-326"/>
<polygon fill="none" stroke="black" points="192.5,-326 192.5,-348 385.5,-348 385.5,-326 192.5,-326"/>
<image xlink:href="../../images/foreignKeys.png" width="11px" height="12px" preserveAspectRatio="xMinYMin meet" x="197.5" y="-343"/>
<text text-anchor="start" x="212.5" y="-334.2" font-family="Helvetica,sans-Serif" font-size="11.00">client_classification_cv_id</text>
<polygon fill="#ffffff" stroke="transparent" points="192.5,-304 192.5,-326 385.5,-326 385.5,-304 192.5,-304"/>
<polygon fill="none" stroke="black" points="192.5,-304 192.5,-326 385.5,-326 385.5,-304 192.5,-304"/>
<image xlink:href="../../images/foreignKeys.png" width="11px" height="12px" preserveAspectRatio="xMinYMin meet" x="197.5" y="-321"/>
<text text-anchor="start" x="212.5" y="-312.2" font-family="Helvetica,sans-Serif" font-size="11.00">reject_reason_cv_id</text>
<polygon fill="#ffffff" stroke="transparent" points="192.5,-282 192.5,-304 385.5,-304 385.5,-282 192.5,-282"/>
<polygon fill="none" stroke="black" points="192.5,-282 192.5,-304 385.5,-304 385.5,-282 192.5,-282"/>
<image xlink:href="../../images/foreignKeys.png" width="11px" height="12px" preserveAspectRatio="xMinYMin meet" x="197.5" y="-299"/>
<text text-anchor="start" x="212.5" y="-290.2" font-family="Helvetica,sans-Serif" font-size="11.00">withdraw_reason_cv_id</text>
<polygon fill="none" stroke="black" points="192.5,-264 192.5,-282 385.5,-282 385.5,-264 192.5,-264"/>
<text text-anchor="start" x="195.5" y="-270.2" font-family="Helvetica,sans-Serif" font-size="11.00">...</text>
<polygon fill="#ffffff" stroke="transparent" points="192.5,-246 192.5,-264 269.5,-264 269.5,-246 192.5,-246"/>
<polygon fill="none" stroke="black" points="192.5,-246 192.5,-264 269.5,-264 269.5,-246 192.5,-246"/>
<text text-anchor="start" x="195.5" y="-252.2" font-family="Helvetica,sans-Serif" font-size="11.00">&lt; 13</text>
<polygon fill="#ffffff" stroke="transparent" points="269.5,-246 269.5,-264 332.5,-264 332.5,-246 269.5,-246"/>
<polygon fill="none" stroke="black" points="269.5,-246 269.5,-264 332.5,-264 332.5,-246 269.5,-246"/>
<text text-anchor="start" x="296.5" y="-252.2" font-family="Helvetica,sans-Serif" font-size="11.00">0 rows</text>
<polygon fill="#ffffff" stroke="transparent" points="332.5,-246 332.5,-264 385.5,-264 385.5,-246 332.5,-246"/>
<polygon fill="none" stroke="black" points="332.5,-246 332.5,-264 385.5,-264 385.5,-246 332.5,-246"/>
<text text-anchor="start" x="360.5" y="-252.2" font-family="Helvetica,sans-Serif" font-size="11.00">23 &gt;</text>
</a>
</g>
</g>
<!-- m_code_value -->
<g id="node2" class="node">
<title>m_code_value</title>
<g id="a_node2"><a xlink:href="../../tables/m_code_value.html" xlink:title="m_code_value" target="_top">
<polygon fill="#ffffff" stroke="transparent" points="8,-224 8,-348 143,-348 143,-224 8,-224"/>
<polygon fill="#f5f5f5" stroke="transparent" points="8.5,-326 8.5,-348 143.5,-348 143.5,-326 8.5,-326"/>
<polygon fill="none" stroke="black" points="8.5,-326 8.5,-348 143.5,-348 143.5,-326 8.5,-326"/>
<text text-anchor="start" x="13.5" y="-335.2" font-family="Helvetica,sans-Serif" font-weight="bold" font-size="11.00">m_code_value</text>
<text text-anchor="start" x="108.5" y="-334.2" font-family="Helvetica,sans-Serif" font-size="11.00">[table]</text>
<polygon fill="none" stroke="black" points="8.5,-304 8.5,-326 143.5,-326 143.5,-304 8.5,-304"/>
<image xlink:href="../../images/primaryKeys.png" width="11px" height="12px" preserveAspectRatio="xMinYMin meet" x="13.5" y="-321"/>
<text text-anchor="start" x="28.5" y="-312.2" font-family="Helvetica,sans-Serif" font-size="11.00">id</text>
<polygon fill="#ffffff" stroke="transparent" points="8.5,-282 8.5,-304 143.5,-304 143.5,-282 8.5,-282"/>
<polygon fill="none" stroke="black" points="8.5,-282 8.5,-304 143.5,-304 143.5,-282 8.5,-282"/>
<image xlink:href="../../images/foreignKeys.png" width="11px" height="12px" preserveAspectRatio="xMinYMin meet" x="13.5" y="-299"/>
<text text-anchor="start" x="28.5" y="-290.2" font-family="Helvetica,sans-Serif" font-size="11.00">code_id</text>
<polygon fill="#ffffff" stroke="transparent" points="8.5,-260 8.5,-282 143.5,-282 143.5,-260 8.5,-260"/>
<polygon fill="none" stroke="black" points="8.5,-260 8.5,-282 143.5,-282 143.5,-260 8.5,-260"/>
<text text-anchor="start" x="28.5" y="-268.2" font-family="Helvetica,sans-Serif" font-size="11.00">code_value</text>
<polygon fill="none" stroke="black" points="8.5,-242 8.5,-260 143.5,-260 143.5,-242 8.5,-242"/>
<text text-anchor="start" x="11.5" y="-248.2" font-family="Helvetica,sans-Serif" font-size="11.00">...</text>
<polygon fill="#ffffff" stroke="transparent" points="8.5,-224 8.5,-242 53.5,-242 53.5,-224 8.5,-224"/>
<polygon fill="none" stroke="black" points="8.5,-224 8.5,-242 53.5,-242 53.5,-224 8.5,-224"/>
<text text-anchor="start" x="11.5" y="-230.2" font-family="Helvetica,sans-Serif" font-size="11.00">&lt; 1</text>
<polygon fill="#ffffff" stroke="transparent" points="53.5,-224 53.5,-242 103.5,-242 103.5,-224 53.5,-224"/>
<polygon fill="none" stroke="black" points="53.5,-224 53.5,-242 103.5,-242 103.5,-224 53.5,-224"/>
<text text-anchor="start" x="67.5" y="-230.2" font-family="Helvetica,sans-Serif" font-size="11.00">0 rows</text>
<polygon fill="#ffffff" stroke="transparent" points="103.5,-224 103.5,-242 143.5,-242 143.5,-224 103.5,-224"/>
<polygon fill="none" stroke="black" points="103.5,-224 103.5,-242 143.5,-242 143.5,-224 103.5,-224"/>
<text text-anchor="start" x="118.5" y="-230.2" font-family="Helvetica,sans-Serif" font-size="11.00">25 &gt;</text>
</a>
</g>
</g>
<!-- m_client&#45;&gt;m_code_value -->
<g id="edge1" class="edge">
<title>m_client:w&#45;&gt;m_code_value:e</title>
<path fill="none" stroke="black" d="M177.33,-333.37C166.51,-327.12 161.62,-315 144.5,-315"/>
<polygon fill="black" stroke="black" points="183.75,-335.01 190.61,-340.49 187.63,-336.01 191.5,-337 191.5,-337 191.5,-337 187.63,-336.01 192.39,-333.51 183.75,-335.01 183.75,-335.01"/>
<ellipse fill="none" stroke="black" cx="180.65" cy="-334.22" rx="3.2" ry="3.2"/>
</g>
<!-- m_client&#45;&gt;m_code_value -->
<g id="edge2" class="edge">
<title>m_client:w&#45;&gt;m_code_value:e</title>
<path fill="none" stroke="black" d="M177.85,-353.95C165.47,-342.4 167.08,-315 144.5,-315"/>
<polygon fill="black" stroke="black" points="184,-356.23 190.25,-362.38 187.75,-357.61 191.5,-359 191.5,-359 191.5,-359 187.75,-357.61 192.75,-355.62 184,-356.23 184,-356.23"/>
<ellipse fill="none" stroke="black" cx="181" cy="-355.12" rx="3.2" ry="3.2"/>
</g>
<!-- m_client&#45;&gt;m_code_value -->
<g id="edge3" class="edge">
<title>m_client:w&#45;&gt;m_code_value:e</title>
<path fill="none" stroke="black" d="M177.44,-421.09C150.33,-401.49 191.64,-315 144.5,-315"/>
<polygon fill="black" stroke="black" points="183.79,-422.85 190.53,-428.47 187.65,-423.93 191.5,-425 191.5,-425 191.5,-425 187.65,-423.93 192.47,-421.53 183.79,-422.85 183.79,-422.85"/>
<ellipse fill="none" stroke="black" cx="180.71" cy="-422" rx="3.2" ry="3.2"/>
</g>
<!-- m_client&#45;&gt;m_code_value -->
<g id="edge4" class="edge">
<title>m_client:w&#45;&gt;m_code_value:e</title>
<path fill="none" stroke="black" d="M177.36,-466.2C134.26,-445.32 210.33,-315 144.5,-315"/>
<polygon fill="black" stroke="black" points="183.65,-467.44 190.8,-472.53 187.58,-468.22 191.5,-469 191.5,-469 191.5,-469 187.58,-468.22 192.2,-465.47 183.65,-467.44 183.65,-467.44"/>
<ellipse fill="none" stroke="black" cx="180.51" cy="-466.82" rx="3.2" ry="3.2"/>
</g>
<!-- m_client&#45;&gt;m_code_value -->
<g id="edge5" class="edge">
<title>m_client:w&#45;&gt;m_code_value:e</title>
<path fill="none" stroke="black" d="M176.9,-315C166.43,-315 159.51,-315 144.5,-315"/>
<polygon fill="black" stroke="black" points="183.5,-315 191.5,-318.6 187.5,-315 191.5,-315 191.5,-315 191.5,-315 187.5,-315 191.5,-311.4 183.5,-315 183.5,-315"/>
<ellipse fill="none" stroke="black" cx="180.3" cy="-315" rx="3.2" ry="3.2"/>
</g>
<!-- m_client&#45;&gt;m_code_value -->
<g id="edge6" class="edge">
<title>m_client:w&#45;&gt;m_code_value:e</title>
<path fill="none" stroke="black" d="M176.99,-577.38C89.23,-555.32 258.21,-315 144.5,-315"/>
<polygon fill="black" stroke="black" points="183.55,-578.11 191.1,-582.58 187.52,-578.56 191.5,-579 191.5,-579 191.5,-579 187.52,-578.56 191.9,-575.42 183.55,-578.11 183.55,-578.11"/>
<ellipse fill="none" stroke="black" cx="180.37" cy="-577.76" rx="3.2" ry="3.2"/>
</g>
<!-- m_client&#45;&gt;m_code_value -->
<g id="edge7" class="edge">
<title>m_client:w&#45;&gt;m_code_value:e</title>
<path fill="none" stroke="black" d="M177.33,-296.63C166.51,-302.88 161.62,-315 144.5,-315"/>
<polygon fill="black" stroke="black" points="183.75,-294.99 192.39,-296.49 187.63,-293.99 191.5,-293 191.5,-293 191.5,-293 187.63,-293.99 190.61,-289.51 183.75,-294.99 183.75,-294.99"/>
<ellipse fill="none" stroke="black" cx="180.65" cy="-295.78" rx="3.2" ry="3.2"/>
</g>
<!-- m_family_members -->
<g id="node3" class="node">
<title>m_family_members</title>
<g id="a_node3"><a xlink:href="../../tables/m_family_members.html" xlink:title="m_family_members" target="_top">
<polygon fill="#ffffff" stroke="transparent" points="434,-37 434,-389 656,-389 656,-37 434,-37"/>
<polygon fill="#f5f5f5" stroke="transparent" points="436,-365 436,-387 654,-387 654,-365 436,-365"/>
<polygon fill="none" stroke="black" points="436,-365 436,-387 654,-387 654,-365 436,-365"/>
<text text-anchor="start" x="441" y="-374.2" font-family="Helvetica,sans-Serif" font-weight="bold" font-size="11.00">m_family_members</text>
<text text-anchor="start" x="619" y="-373.2" font-family="Helvetica,sans-Serif" font-size="11.00">[table]</text>
<polygon fill="none" stroke="black" points="436,-343 436,-365 593,-365 593,-343 436,-343"/>
<image xlink:href="../../images/primaryKeys.png" width="11px" height="12px" preserveAspectRatio="xMinYMin meet" x="441" y="-360"/>
<text text-anchor="start" x="456" y="-351.2" font-family="Helvetica,sans-Serif" font-size="11.00">id</text>
<polygon fill="none" stroke="black" points="593,-343 593,-365 654,-365 654,-343 593,-343"/>
<text text-anchor="start" x="596" y="-351.2" font-family="Helvetica,sans-Serif" font-size="11.00">bigint[19]</text>
<polygon fill="#ffffff" stroke="transparent" points="436,-321 436,-343 593,-343 593,-321 436,-321"/>
<polygon fill="none" stroke="black" points="436,-321 436,-343 593,-343 593,-321 436,-321"/>
<image xlink:href="../../images/foreignKeys.png" width="11px" height="12px" preserveAspectRatio="xMinYMin meet" x="441" y="-338"/>
<text text-anchor="start" x="456" y="-329.2" font-family="Helvetica,sans-Serif" font-size="11.00">client_id</text>
<polygon fill="none" stroke="black" points="593,-321 593,-343 654,-343 654,-321 593,-321"/>
<text text-anchor="start" x="596" y="-329.2" font-family="Helvetica,sans-Serif" font-size="11.00">bigint[19]</text>
<polygon fill="none" stroke="black" points="436,-299 436,-321 593,-321 593,-299 436,-299"/>
<text text-anchor="start" x="456" y="-307.2" font-family="Helvetica,sans-Serif" font-size="11.00">firstname</text>
<polygon fill="none" stroke="black" points="593,-299 593,-321 654,-321 654,-299 593,-299"/>
<text text-anchor="start" x="596" y="-307.2" font-family="Helvetica,sans-Serif" font-size="11.00">varchar[50]</text>
<polygon fill="none" stroke="black" points="436,-277 436,-299 593,-299 593,-277 436,-277"/>
<text text-anchor="start" x="456" y="-285.2" font-family="Helvetica,sans-Serif" font-size="11.00">middlename</text>
<polygon fill="none" stroke="black" points="593,-277 593,-299 654,-299 654,-277 593,-277"/>
<text text-anchor="start" x="596" y="-285.2" font-family="Helvetica,sans-Serif" font-size="11.00">varchar[50]</text>
<polygon fill="none" stroke="black" points="436,-255 436,-277 593,-277 593,-255 436,-255"/>
<text text-anchor="start" x="456" y="-263.2" font-family="Helvetica,sans-Serif" font-size="11.00">lastname</text>
<polygon fill="none" stroke="black" points="593,-255 593,-277 654,-277 654,-255 593,-255"/>
<text text-anchor="start" x="596" y="-263.2" font-family="Helvetica,sans-Serif" font-size="11.00">varchar[50]</text>
<polygon fill="none" stroke="black" points="436,-233 436,-255 593,-255 593,-233 436,-233"/>
<text text-anchor="start" x="456" y="-241.2" font-family="Helvetica,sans-Serif" font-size="11.00">qualification</text>
<polygon fill="none" stroke="black" points="593,-233 593,-255 654,-255 654,-233 593,-233"/>
<text text-anchor="start" x="596" y="-241.2" font-family="Helvetica,sans-Serif" font-size="11.00">varchar[50]</text>
<polygon fill="#ffffff" stroke="transparent" points="436,-211 436,-233 593,-233 593,-211 436,-211"/>
<polygon fill="none" stroke="black" points="436,-211 436,-233 593,-233 593,-211 436,-211"/>
<image xlink:href="../../images/foreignKeys.png" width="11px" height="12px" preserveAspectRatio="xMinYMin meet" x="441" y="-228"/>
<text text-anchor="start" x="456" y="-219.2" font-family="Helvetica,sans-Serif" font-size="11.00">relationship_cv_id</text>
<polygon fill="none" stroke="black" points="593,-211 593,-233 654,-233 654,-211 593,-211"/>
<text text-anchor="start" x="596" y="-219.2" font-family="Helvetica,sans-Serif" font-size="11.00">int[10]</text>
<polygon fill="#ffffff" stroke="transparent" points="436,-189 436,-211 593,-211 593,-189 436,-189"/>
<polygon fill="none" stroke="black" points="436,-189 436,-211 593,-211 593,-189 436,-189"/>
<image xlink:href="../../images/foreignKeys.png" width="11px" height="12px" preserveAspectRatio="xMinYMin meet" x="441" y="-206"/>
<text text-anchor="start" x="456" y="-197.2" font-family="Helvetica,sans-Serif" font-size="11.00">marital_status_cv_id</text>
<polygon fill="none" stroke="black" points="593,-189 593,-211 654,-211 654,-189 593,-189"/>
<text text-anchor="start" x="596" y="-197.2" font-family="Helvetica,sans-Serif" font-size="11.00">int[10]</text>
<polygon fill="#ffffff" stroke="transparent" points="436,-167 436,-189 593,-189 593,-167 436,-167"/>
<polygon fill="none" stroke="black" points="436,-167 436,-189 593,-189 593,-167 436,-167"/>
<image xlink:href="../../images/foreignKeys.png" width="11px" height="12px" preserveAspectRatio="xMinYMin meet" x="441" y="-184"/>
<text text-anchor="start" x="456" y="-175.2" font-family="Helvetica,sans-Serif" font-size="11.00">gender_cv_id</text>
<polygon fill="none" stroke="black" points="593,-167 593,-189 654,-189 654,-167 593,-167"/>
<text text-anchor="start" x="596" y="-175.2" font-family="Helvetica,sans-Serif" font-size="11.00">int[10]</text>
<polygon fill="none" stroke="black" points="436,-145 436,-167 593,-167 593,-145 436,-145"/>
<text text-anchor="start" x="456" y="-153.2" font-family="Helvetica,sans-Serif" font-size="11.00">date_of_birth</text>
<polygon fill="none" stroke="black" points="593,-145 593,-167 654,-167 654,-145 593,-145"/>
<text text-anchor="start" x="596" y="-153.2" font-family="Helvetica,sans-Serif" font-size="11.00">date[10]</text>
<polygon fill="none" stroke="black" points="436,-123 436,-145 593,-145 593,-123 436,-123"/>
<text text-anchor="start" x="456" y="-131.2" font-family="Helvetica,sans-Serif" font-size="11.00">age</text>
<polygon fill="none" stroke="black" points="593,-123 593,-145 654,-145 654,-123 593,-123"/>
<text text-anchor="start" x="596" y="-131.2" font-family="Helvetica,sans-Serif" font-size="11.00">int[10]</text>
<polygon fill="#ffffff" stroke="transparent" points="436,-101 436,-123 593,-123 593,-101 436,-101"/>
<polygon fill="none" stroke="black" points="436,-101 436,-123 593,-123 593,-101 436,-101"/>
<image xlink:href="../../images/foreignKeys.png" width="11px" height="12px" preserveAspectRatio="xMinYMin meet" x="441" y="-118"/>
<text text-anchor="start" x="456" y="-109.2" font-family="Helvetica,sans-Serif" font-size="11.00">profession_cv_id</text>
<polygon fill="none" stroke="black" points="593,-101 593,-123 654,-123 654,-101 593,-101"/>
<text text-anchor="start" x="596" y="-109.2" font-family="Helvetica,sans-Serif" font-size="11.00">int[10]</text>
<polygon fill="none" stroke="black" points="436,-79 436,-101 593,-101 593,-79 436,-79"/>
<text text-anchor="start" x="456" y="-87.2" font-family="Helvetica,sans-Serif" font-size="11.00">mobile_number</text>
<polygon fill="none" stroke="black" points="593,-79 593,-101 654,-101 654,-79 593,-79"/>
<text text-anchor="start" x="596" y="-87.2" font-family="Helvetica,sans-Serif" font-size="11.00">varchar[50]</text>
<polygon fill="none" stroke="black" points="436,-57 436,-79 593,-79 593,-57 436,-57"/>
<text text-anchor="start" x="456" y="-65.2" font-family="Helvetica,sans-Serif" font-size="11.00">is_dependent</text>
<polygon fill="none" stroke="black" points="593,-57 593,-79 654,-79 654,-57 593,-57"/>
<text text-anchor="start" x="596" y="-65.2" font-family="Helvetica,sans-Serif" font-size="11.00">bit[1]</text>
<polygon fill="#ffffff" stroke="transparent" points="436,-39 436,-57 506,-57 506,-39 436,-39"/>
<polygon fill="none" stroke="black" points="436,-39 436,-57 506,-57 506,-39 436,-39"/>
<text text-anchor="start" x="439" y="-45.2" font-family="Helvetica,sans-Serif" font-size="11.00">&lt; 5</text>
<polygon fill="#ffffff" stroke="transparent" points="506,-39 506,-57 593,-57 593,-39 506,-39"/>
<polygon fill="none" stroke="black" points="506,-39 506,-57 593,-57 593,-39 506,-39"/>
<text text-anchor="start" x="557" y="-45.2" font-family="Helvetica,sans-Serif" font-size="11.00">0 rows</text>
<polygon fill="#ffffff" stroke="transparent" points="593,-39 593,-57 654,-57 654,-39 593,-39"/>
<polygon fill="none" stroke="black" points="593,-39 593,-57 654,-57 654,-39 593,-39"/>
<text text-anchor="start" x="635" y="-45.2" font-family="Helvetica,sans-Serif" font-size="11.00">0 &gt;</text>
<polygon fill="none" stroke="black" stroke-width="2" points="435,-38 435,-388 655,-388 655,-38 435,-38"/>
</a>
</g>
</g>
<!-- m_family_members&#45;&gt;m_client -->
<g id="edge8" class="edge">
<title>m_family_members:w&#45;&gt;m_client:e</title>
<path fill="none" stroke="black" d="M420.5,-333.33C311.44,-355.39 521.91,-645 386.5,-645"/>
<polygon fill="black" stroke="black" points="427.03,-332.73 435.33,-335.59 431.02,-332.36 435,-332 435,-332 435,-332 431.02,-332.36 434.67,-328.41 427.03,-332.73 427.03,-332.73"/>
<ellipse fill="none" stroke="black" cx="423.85" cy="-333.02" rx="3.2" ry="3.2"/>
</g>
<!-- m_family_members&#45;&gt;m_code_value -->
<g id="edge9" class="edge">
<title>m_family_members:w&#45;&gt;m_code_value:e</title>
<path fill="none" stroke="black" d="M420.32,-177.65C318.77,-172.81 268.73,-120.34 184,-185 136,-221.63 204.89,-315 144.5,-315"/>
<polygon fill="black" stroke="black" points="427,-177.81 434.91,-181.6 431,-177.9 435,-178 435,-178 435,-178 431,-177.9 435.09,-174.4 427,-177.81 427,-177.81"/>
<ellipse fill="none" stroke="black" cx="423.8" cy="-177.73" rx="3.2" ry="3.2"/>
</g>
<!-- m_family_members&#45;&gt;m_code_value -->
<g id="edge10" class="edge">
<title>m_family_members:w&#45;&gt;m_code_value:e</title>
<path fill="none" stroke="black" d="M420.32,-199.69C318.85,-195.44 270.43,-149.49 184,-212 144.27,-240.73 193.53,-315 144.5,-315"/>
<polygon fill="black" stroke="black" points="427,-199.83 434.92,-203.6 431,-199.92 435,-200 435,-200 435,-200 431,-199.92 435.08,-196.4 427,-199.83 427,-199.83"/>
<ellipse fill="none" stroke="black" cx="423.8" cy="-199.77" rx="3.2" ry="3.2"/>
</g>
<!-- m_family_members&#45;&gt;m_code_value -->
<g id="edge11" class="edge">
<title>m_family_members:w&#45;&gt;m_code_value:e</title>
<path fill="none" stroke="black" d="M420.45,-111.79C317.28,-108.85 263.44,-77.02 184,-150 128.47,-201.01 219.91,-315 144.5,-315"/>
<polygon fill="black" stroke="black" points="427,-111.88 434.95,-115.6 431,-111.94 435,-112 435,-112 435,-112 431,-111.94 435.05,-108.4 427,-111.88 427,-111.88"/>
<ellipse fill="none" stroke="black" cx="423.8" cy="-111.84" rx="3.2" ry="3.2"/>
</g>
<!-- m_family_members&#45;&gt;m_code_value -->
<g id="edge12" class="edge">
<title>m_family_members:w&#45;&gt;m_code_value:e</title>
<path fill="none" stroke="black" d="M420.3,-221.73C356.56,-219.68 227.04,-207.71 184,-236 151.2,-257.56 183.76,-315 144.5,-315"/>
<polygon fill="black" stroke="black" points="427,-221.85 434.93,-225.6 431,-221.93 435,-222 435,-222 435,-222 431,-221.93 435.07,-218.4 427,-221.85 427,-221.85"/>
<ellipse fill="none" stroke="black" cx="423.8" cy="-221.79" rx="3.2" ry="3.2"/>
</g>
</g>
</svg>
