<?xml version="1.0" encoding="UTF-8" standalone="no"?>
<!DOCTYPE svg PUBLIC "-//W3C//DTD SVG 1.1//EN"
 "http://www.w3.org/Graphics/SVG/1.1/DTD/svg11.dtd">
<!-- Generated by graphviz version 2.43.0 (0)
 -->
<!-- Title: oneDegreeRelationshipsDiagram Pages: 1 -->
<svg width="569pt" height="313pt"
 viewBox="0.00 0.00 569.00 313.00" xmlns="http://www.w3.org/2000/svg" xmlns:xlink="http://www.w3.org/1999/xlink">
<g id="graph0" class="graph" transform="scale(1 1) rotate(0) translate(4 309)">
<title>oneDegreeRelationshipsDiagram</title>
<polygon fill="#ffffff" stroke="transparent" points="-4,4 -4,-309 565,-309 565,4 -4,4"/>
<text text-anchor="middle" x="71.5" y="-7.2" font-family="Helvetica,sans-Serif" font-size="11.00">Generated by SchemaSpy</text>
<!-- m_floating_rates_periods -->
<g id="node1" class="node">
<title>m_floating_rates_periods</title>
<g id="a_node1"><a xlink:href="../../tables/m_floating_rates_periods.html" xlink:title="m_floating_rates_periods" target="_top">
<polygon fill="#ffffff" stroke="transparent" points="217,-37 217,-301 553,-301 553,-37 217,-37"/>
<polygon fill="#f5f5f5" stroke="transparent" points="219,-277 219,-299 551,-299 551,-277 219,-277"/>
<polygon fill="none" stroke="black" points="219,-277 219,-299 551,-299 551,-277 219,-277"/>
<text text-anchor="start" x="224" y="-286.2" font-family="Helvetica,sans-Serif" font-weight="bold" font-size="11.00">m_floating_rates_periods</text>
<text text-anchor="start" x="516" y="-285.2" font-family="Helvetica,sans-Serif" font-size="11.00">[table]</text>
<polygon fill="none" stroke="black" points="219,-255 219,-277 481,-277 481,-255 219,-255"/>
<image xlink:href="../../images/primaryKeys.png" width="11px" height="12px" preserveAspectRatio="xMinYMin meet" x="224" y="-272"/>
<text text-anchor="start" x="239" y="-263.2" font-family="Helvetica,sans-Serif" font-size="11.00">id</text>
<polygon fill="none" stroke="black" points="481,-255 481,-277 551,-277 551,-255 481,-255"/>
<text text-anchor="start" x="484" y="-263.2" font-family="Helvetica,sans-Serif" font-size="11.00">bigint[19]</text>
<polygon fill="#ffffff" stroke="transparent" points="219,-233 219,-255 481,-255 481,-233 219,-233"/>
<polygon fill="none" stroke="black" points="219,-233 219,-255 481,-255 481,-233 219,-233"/>
<image xlink:href="../../images/foreignKeys.png" width="11px" height="12px" preserveAspectRatio="xMinYMin meet" x="224" y="-250"/>
<text text-anchor="start" x="239" y="-241.2" font-family="Helvetica,sans-Serif" font-size="11.00">floating_rates_id</text>
<polygon fill="none" stroke="black" points="481,-233 481,-255 551,-255 551,-233 481,-233"/>
<text text-anchor="start" x="484" y="-241.2" font-family="Helvetica,sans-Serif" font-size="11.00">bigint[19]</text>
<polygon fill="none" stroke="black" points="219,-211 219,-233 481,-233 481,-211 219,-211"/>
<text text-anchor="start" x="239" y="-219.2" font-family="Helvetica,sans-Serif" font-size="11.00">from_date</text>
<polygon fill="none" stroke="black" points="481,-211 481,-233 551,-233 551,-211 481,-211"/>
<text text-anchor="start" x="484" y="-219.2" font-family="Helvetica,sans-Serif" font-size="11.00">datetime[19]</text>
<polygon fill="none" stroke="black" points="219,-189 219,-211 481,-211 481,-189 219,-189"/>
<text text-anchor="start" x="239" y="-197.2" font-family="Helvetica,sans-Serif" font-size="11.00">interest_rate</text>
<polygon fill="none" stroke="black" points="481,-189 481,-211 551,-211 551,-189 481,-189"/>
<text text-anchor="start" x="484" y="-197.2" font-family="Helvetica,sans-Serif" font-size="11.00">decimal[19,6]</text>
<polygon fill="none" stroke="black" points="219,-167 219,-189 481,-189 481,-167 219,-167"/>
<text text-anchor="start" x="239" y="-175.2" font-family="Helvetica,sans-Serif" font-size="11.00">is_differential_to_base_lending_rate</text>
<polygon fill="none" stroke="black" points="481,-167 481,-189 551,-189 551,-167 481,-167"/>
<text text-anchor="start" x="484" y="-175.2" font-family="Helvetica,sans-Serif" font-size="11.00">bit[1]</text>
<polygon fill="none" stroke="black" points="219,-145 219,-167 481,-167 481,-145 219,-145"/>
<text text-anchor="start" x="239" y="-153.2" font-family="Helvetica,sans-Serif" font-size="11.00">is_active</text>
<polygon fill="none" stroke="black" points="481,-145 481,-167 551,-167 551,-145 481,-145"/>
<text text-anchor="start" x="484" y="-153.2" font-family="Helvetica,sans-Serif" font-size="11.00">bit[1]</text>
<polygon fill="none" stroke="black" points="219,-123 219,-145 481,-145 481,-123 219,-123"/>
<text text-anchor="start" x="239" y="-131.2" font-family="Helvetica,sans-Serif" font-size="11.00">createdby_id</text>
<polygon fill="none" stroke="black" points="481,-123 481,-145 551,-145 551,-123 481,-123"/>
<text text-anchor="start" x="484" y="-131.2" font-family="Helvetica,sans-Serif" font-size="11.00">bigint[19]</text>
<polygon fill="none" stroke="black" points="219,-101 219,-123 481,-123 481,-101 219,-101"/>
<text text-anchor="start" x="239" y="-109.2" font-family="Helvetica,sans-Serif" font-size="11.00">created_date</text>
<polygon fill="none" stroke="black" points="481,-101 481,-123 551,-123 551,-101 481,-101"/>
<text text-anchor="start" x="484" y="-109.2" font-family="Helvetica,sans-Serif" font-size="11.00">datetime[19]</text>
<polygon fill="none" stroke="black" points="219,-79 219,-101 481,-101 481,-79 219,-79"/>
<text text-anchor="start" x="239" y="-87.2" font-family="Helvetica,sans-Serif" font-size="11.00">lastmodifiedby_id</text>
<polygon fill="none" stroke="black" points="481,-79 481,-101 551,-101 551,-79 481,-79"/>
<text text-anchor="start" x="484" y="-87.2" font-family="Helvetica,sans-Serif" font-size="11.00">bigint[19]</text>
<polygon fill="none" stroke="black" points="219,-57 219,-79 481,-79 481,-57 219,-57"/>
<text text-anchor="start" x="239" y="-65.2" font-family="Helvetica,sans-Serif" font-size="11.00">lastmodified_date</text>
<polygon fill="none" stroke="black" points="481,-57 481,-79 551,-79 551,-57 481,-57"/>
<text text-anchor="start" x="484" y="-65.2" font-family="Helvetica,sans-Serif" font-size="11.00">datetime[19]</text>
<polygon fill="#ffffff" stroke="transparent" points="219,-39 219,-57 341,-57 341,-39 219,-39"/>
<polygon fill="none" stroke="black" points="219,-39 219,-57 341,-57 341,-39 219,-39"/>
<text text-anchor="start" x="222" y="-45.2" font-family="Helvetica,sans-Serif" font-size="11.00">&lt; 1</text>
<polygon fill="#ffffff" stroke="transparent" points="341,-39 341,-57 481,-57 481,-39 341,-39"/>
<polygon fill="none" stroke="black" points="341,-39 341,-57 481,-57 481,-39 341,-39"/>
<text text-anchor="start" x="445" y="-45.2" font-family="Helvetica,sans-Serif" font-size="11.00">0 rows</text>
<polygon fill="#ffffff" stroke="transparent" points="481,-39 481,-57 551,-57 551,-39 481,-39"/>
<polygon fill="none" stroke="black" points="481,-39 481,-57 551,-57 551,-39 481,-39"/>
<text text-anchor="start" x="532" y="-45.2" font-family="Helvetica,sans-Serif" font-size="11.00">0 &gt;</text>
<polygon fill="none" stroke="black" stroke-width="2" points="218,-38 218,-300 552,-300 552,-38 218,-38"/>
</a>
</g>
</g>
<!-- m_floating_rates -->
<g id="node2" class="node">
<title>m_floating_rates</title>
<g id="a_node2"><a xlink:href="../../tables/m_floating_rates.html" xlink:title="m_floating_rates" target="_top">
<polygon fill="#ffffff" stroke="transparent" points="8,-175 8,-277 168,-277 168,-175 8,-175"/>
<polygon fill="#f5f5f5" stroke="transparent" points="8,-255 8,-277 168,-277 168,-255 8,-255"/>
<polygon fill="none" stroke="black" points="8,-255 8,-277 168,-277 168,-255 8,-255"/>
<text text-anchor="start" x="13" y="-264.2" font-family="Helvetica,sans-Serif" font-weight="bold" font-size="11.00">m_floating_rates</text>
<text text-anchor="start" x="133" y="-263.2" font-family="Helvetica,sans-Serif" font-size="11.00">[table]</text>
<polygon fill="none" stroke="black" points="8,-233 8,-255 168,-255 168,-233 8,-233"/>
<image xlink:href="../../images/primaryKeys.png" width="11px" height="12px" preserveAspectRatio="xMinYMin meet" x="13" y="-250"/>
<text text-anchor="start" x="28" y="-241.2" font-family="Helvetica,sans-Serif" font-size="11.00">id</text>
<polygon fill="#ffffff" stroke="transparent" points="8,-211 8,-233 168,-233 168,-211 8,-211"/>
<polygon fill="none" stroke="black" points="8,-211 8,-233 168,-233 168,-211 8,-211"/>
<text text-anchor="start" x="28" y="-219.2" font-family="Helvetica,sans-Serif" font-size="11.00">name</text>
<polygon fill="none" stroke="black" points="8,-193 8,-211 168,-211 168,-193 8,-193"/>
<text text-anchor="start" x="11" y="-199.2" font-family="Helvetica,sans-Serif" font-size="11.00">...</text>
<polygon fill="#ffffff" stroke="transparent" points="8,-175 8,-193 64,-193 64,-175 8,-175"/>
<polygon fill="none" stroke="black" points="8,-175 8,-193 64,-193 64,-175 8,-175"/>
<text text-anchor="start" x="11" y="-181.2" font-family="Helvetica,sans-Serif" font-size="11.00"> &#160;</text>
<polygon fill="#ffffff" stroke="transparent" points="64,-175 64,-193 124,-193 124,-175 64,-175"/>
<polygon fill="none" stroke="black" points="64,-175 64,-193 124,-193 124,-175 64,-175"/>
<text text-anchor="start" x="88" y="-181.2" font-family="Helvetica,sans-Serif" font-size="11.00">0 rows</text>
<polygon fill="#ffffff" stroke="transparent" points="124,-175 124,-193 168,-193 168,-175 124,-175"/>
<polygon fill="none" stroke="black" points="124,-175 124,-193 168,-193 168,-175 124,-175"/>
<text text-anchor="start" x="149" y="-181.2" font-family="Helvetica,sans-Serif" font-size="11.00">2 &gt;</text>
</a>
</g>
</g>
<!-- m_floating_rates_periods&#45;&gt;m_floating_rates -->
<g id="edge1" class="edge">
<title>m_floating_rates_periods:w&#45;&gt;m_floating_rates:e</title>
<path fill="none" stroke="black" d="M203.49,-244C192.18,-244 184.99,-244 169,-244"/>
<polygon fill="black" stroke="black" points="210,-244 218,-247.6 214,-244 218,-244 218,-244 218,-244 214,-244 218,-240.4 210,-244 210,-244"/>
<ellipse fill="none" stroke="black" cx="206.8" cy="-244" rx="3.2" ry="3.2"/>
</g>
</g>
</svg>
