<?xml version="1.0" encoding="UTF-8" standalone="no"?>
<!DOCTYPE svg PUBLIC "-//W3C//DTD SVG 1.1//EN"
 "http://www.w3.org/Graphics/SVG/1.1/DTD/svg11.dtd">
<!-- Generated by graphviz version 2.43.0 (0)
 -->
<!-- Title: oneDegreeRelationshipsDiagram Pages: 1 -->
<svg width="464pt" height="333pt"
 viewBox="0.00 0.00 464.05 333.00" xmlns="http://www.w3.org/2000/svg" xmlns:xlink="http://www.w3.org/1999/xlink">
<g id="graph0" class="graph" transform="scale(1 1) rotate(0) translate(4 329)">
<title>oneDegreeRelationshipsDiagram</title>
<polygon fill="#ffffff" stroke="transparent" points="-4,4 -4,-329 460.05,-329 460.05,4 -4,4"/>
<text text-anchor="middle" x="71.5" y="-7.2" font-family="Helvetica,sans-Serif" font-size="11.00">Generated by SchemaSpy</text>
<!-- m_group -->
<g id="node1" class="node">
<title>m_group</title>
<g id="a_node1"><a xlink:href="../../tables/m_group.html" xlink:title="m_group" target="_top">
<polygon fill="#ffffff" stroke="transparent" points="287.05,-87 287.05,-321 448.05,-321 448.05,-87 287.05,-87"/>
<polygon fill="#f5f5f5" stroke="transparent" points="287.55,-299 287.55,-321 448.55,-321 448.55,-299 287.55,-299"/>
<polygon fill="none" stroke="black" points="287.55,-299 287.55,-321 448.55,-321 448.55,-299 287.55,-299"/>
<text text-anchor="start" x="292.55" y="-308.2" font-family="Helvetica,sans-Serif" font-weight="bold" font-size="11.00">m_group</text>
<text text-anchor="start" x="413.55" y="-307.2" font-family="Helvetica,sans-Serif" font-size="11.00">[table]</text>
<polygon fill="none" stroke="black" points="287.55,-277 287.55,-299 448.55,-299 448.55,-277 287.55,-277"/>
<image xlink:href="../../images/primaryKeys.png" width="11px" height="12px" preserveAspectRatio="xMinYMin meet" x="292.551" y="-294"/>
<text text-anchor="start" x="307.55" y="-285.2" font-family="Helvetica,sans-Serif" font-size="11.00">id</text>
<polygon fill="#ffffff" stroke="transparent" points="287.55,-255 287.55,-277 448.55,-277 448.55,-255 287.55,-255"/>
<polygon fill="none" stroke="black" points="287.55,-255 287.55,-277 448.55,-277 448.55,-255 287.55,-255"/>
<text text-anchor="start" x="307.55" y="-263.2" font-family="Helvetica,sans-Serif" font-size="11.00">external_id</text>
<polygon fill="#ffffff" stroke="transparent" points="287.55,-233 287.55,-255 448.55,-255 448.55,-233 287.55,-233"/>
<polygon fill="none" stroke="black" points="287.55,-233 287.55,-255 448.55,-255 448.55,-233 287.55,-233"/>
<image xlink:href="../../images/foreignKeys.png" width="11px" height="12px" preserveAspectRatio="xMinYMin meet" x="292.551" y="-250"/>
<text text-anchor="start" x="307.55" y="-241.2" font-family="Helvetica,sans-Serif" font-size="11.00">office_id</text>
<polygon fill="#ffffff" stroke="transparent" points="287.55,-211 287.55,-233 448.55,-233 448.55,-211 287.55,-211"/>
<polygon fill="none" stroke="black" points="287.55,-211 287.55,-233 448.55,-233 448.55,-211 287.55,-211"/>
<image xlink:href="../../images/foreignKeys.png" width="11px" height="12px" preserveAspectRatio="xMinYMin meet" x="292.551" y="-228"/>
<text text-anchor="start" x="307.55" y="-219.2" font-family="Helvetica,sans-Serif" font-size="11.00">staff_id</text>
<polygon fill="#ffffff" stroke="transparent" points="287.55,-189 287.55,-211 448.55,-211 448.55,-189 287.55,-189"/>
<polygon fill="none" stroke="black" points="287.55,-189 287.55,-211 448.55,-211 448.55,-189 287.55,-189"/>
<image xlink:href="../../images/foreignKeys.png" width="11px" height="12px" preserveAspectRatio="xMinYMin meet" x="292.551" y="-206"/>
<text text-anchor="start" x="307.55" y="-197.2" font-family="Helvetica,sans-Serif" font-size="11.00">parent_id</text>
<polygon fill="#ffffff" stroke="transparent" points="287.55,-167 287.55,-189 448.55,-189 448.55,-167 287.55,-167"/>
<polygon fill="none" stroke="black" points="287.55,-167 287.55,-189 448.55,-189 448.55,-167 287.55,-167"/>
<image xlink:href="../../images/foreignKeys.png" width="11px" height="12px" preserveAspectRatio="xMinYMin meet" x="292.551" y="-184"/>
<text text-anchor="start" x="307.55" y="-175.2" font-family="Helvetica,sans-Serif" font-size="11.00">level_id</text>
<polygon fill="#ffffff" stroke="transparent" points="287.55,-145 287.55,-167 448.55,-167 448.55,-145 287.55,-145"/>
<polygon fill="none" stroke="black" points="287.55,-145 287.55,-167 448.55,-167 448.55,-145 287.55,-145"/>
<text text-anchor="start" x="307.55" y="-153.2" font-family="Helvetica,sans-Serif" font-size="11.00">display_name</text>
<polygon fill="#ffffff" stroke="transparent" points="287.55,-123 287.55,-145 448.55,-145 448.55,-123 287.55,-123"/>
<polygon fill="none" stroke="black" points="287.55,-123 287.55,-145 448.55,-145 448.55,-123 287.55,-123"/>
<image xlink:href="../../images/foreignKeys.png" width="11px" height="12px" preserveAspectRatio="xMinYMin meet" x="292.551" y="-140"/>
<text text-anchor="start" x="307.55" y="-131.2" font-family="Helvetica,sans-Serif" font-size="11.00">closure_reason_cv_id</text>
<polygon fill="none" stroke="black" points="287.55,-105 287.55,-123 448.55,-123 448.55,-105 287.55,-105"/>
<text text-anchor="start" x="290.55" y="-111.2" font-family="Helvetica,sans-Serif" font-size="11.00">...</text>
<polygon fill="#ffffff" stroke="transparent" points="287.55,-87 287.55,-105 345.55,-105 345.55,-87 287.55,-87"/>
<polygon fill="none" stroke="black" points="287.55,-87 287.55,-105 345.55,-105 345.55,-87 287.55,-87"/>
<text text-anchor="start" x="290.55" y="-93.2" font-family="Helvetica,sans-Serif" font-size="11.00">&lt; 5</text>
<polygon fill="#ffffff" stroke="transparent" points="345.55,-87 345.55,-105 402.55,-105 402.55,-87 345.55,-87"/>
<polygon fill="none" stroke="black" points="345.55,-87 345.55,-105 402.55,-105 402.55,-87 345.55,-87"/>
<text text-anchor="start" x="366.55" y="-93.2" font-family="Helvetica,sans-Serif" font-size="11.00">0 rows</text>
<polygon fill="#ffffff" stroke="transparent" points="402.55,-87 402.55,-105 448.55,-105 448.55,-87 402.55,-87"/>
<polygon fill="none" stroke="black" points="402.55,-87 402.55,-105 448.55,-105 448.55,-87 402.55,-87"/>
<text text-anchor="start" x="423.55" y="-93.2" font-family="Helvetica,sans-Serif" font-size="11.00">11 &gt;</text>
</a>
</g>
</g>
<!-- m_group_level -->
<g id="node2" class="node">
<title>m_group_level</title>
<g id="a_node2"><a xlink:href="../../tables/m_group_level.html" xlink:title="m_group_level" target="_top">
<polygon fill="#ffffff" stroke="transparent" points="33.05,-37 33.05,-213 238.05,-213 238.05,-37 33.05,-37"/>
<polygon fill="#f5f5f5" stroke="transparent" points="35.55,-189 35.55,-211 236.55,-211 236.55,-189 35.55,-189"/>
<polygon fill="none" stroke="black" points="35.55,-189 35.55,-211 236.55,-211 236.55,-189 35.55,-189"/>
<text text-anchor="start" x="40.55" y="-198.2" font-family="Helvetica,sans-Serif" font-weight="bold" font-size="11.00">m_group_level</text>
<text text-anchor="start" x="201.55" y="-197.2" font-family="Helvetica,sans-Serif" font-size="11.00">[table]</text>
<polygon fill="none" stroke="black" points="35.55,-167 35.55,-189 169.55,-189 169.55,-167 35.55,-167"/>
<image xlink:href="../../images/primaryKeys.png" width="11px" height="12px" preserveAspectRatio="xMinYMin meet" x="40.5514" y="-184"/>
<text text-anchor="start" x="55.55" y="-175.2" font-family="Helvetica,sans-Serif" font-size="11.00">id</text>
<polygon fill="none" stroke="black" points="169.55,-167 169.55,-189 236.55,-189 236.55,-167 169.55,-167"/>
<text text-anchor="start" x="172.55" y="-175.2" font-family="Helvetica,sans-Serif" font-size="11.00">int[10]</text>
<polygon fill="#ffffff" stroke="transparent" points="35.55,-145 35.55,-167 169.55,-167 169.55,-145 35.55,-145"/>
<polygon fill="none" stroke="black" points="35.55,-145 35.55,-167 169.55,-167 169.55,-145 35.55,-145"/>
<image xlink:href="../../images/foreignKeys.png" width="11px" height="12px" preserveAspectRatio="xMinYMin meet" x="40.5514" y="-162"/>
<text text-anchor="start" x="55.55" y="-153.2" font-family="Helvetica,sans-Serif" font-size="11.00">parent_id</text>
<polygon fill="none" stroke="black" points="169.55,-145 169.55,-167 236.55,-167 236.55,-145 169.55,-145"/>
<text text-anchor="start" x="172.55" y="-153.2" font-family="Helvetica,sans-Serif" font-size="11.00">int[10]</text>
<polygon fill="none" stroke="black" points="35.55,-123 35.55,-145 169.55,-145 169.55,-123 35.55,-123"/>
<text text-anchor="start" x="55.55" y="-131.2" font-family="Helvetica,sans-Serif" font-size="11.00">super_parent</text>
<polygon fill="none" stroke="black" points="169.55,-123 169.55,-145 236.55,-145 236.55,-123 169.55,-123"/>
<text text-anchor="start" x="172.55" y="-131.2" font-family="Helvetica,sans-Serif" font-size="11.00">bit[1]</text>
<polygon fill="none" stroke="black" points="35.55,-101 35.55,-123 169.55,-123 169.55,-101 35.55,-101"/>
<text text-anchor="start" x="55.55" y="-109.2" font-family="Helvetica,sans-Serif" font-size="11.00">level_name</text>
<polygon fill="none" stroke="black" points="169.55,-101 169.55,-123 236.55,-123 236.55,-101 169.55,-101"/>
<text text-anchor="start" x="172.55" y="-109.2" font-family="Helvetica,sans-Serif" font-size="11.00">varchar[100]</text>
<polygon fill="none" stroke="black" points="35.55,-79 35.55,-101 169.55,-101 169.55,-79 35.55,-79"/>
<text text-anchor="start" x="55.55" y="-87.2" font-family="Helvetica,sans-Serif" font-size="11.00">recursable</text>
<polygon fill="none" stroke="black" points="169.55,-79 169.55,-101 236.55,-101 236.55,-79 169.55,-79"/>
<text text-anchor="start" x="172.55" y="-87.2" font-family="Helvetica,sans-Serif" font-size="11.00">bit[1]</text>
<polygon fill="none" stroke="black" points="35.55,-57 35.55,-79 169.55,-79 169.55,-57 35.55,-57"/>
<text text-anchor="start" x="55.55" y="-65.2" font-family="Helvetica,sans-Serif" font-size="11.00">can_have_clients</text>
<polygon fill="none" stroke="black" points="169.55,-57 169.55,-79 236.55,-79 236.55,-57 169.55,-57"/>
<text text-anchor="start" x="172.55" y="-65.2" font-family="Helvetica,sans-Serif" font-size="11.00">bit[1]</text>
<polygon fill="#ffffff" stroke="transparent" points="35.55,-39 35.55,-57 93.55,-57 93.55,-39 35.55,-39"/>
<polygon fill="none" stroke="black" points="35.55,-39 35.55,-57 93.55,-57 93.55,-39 35.55,-39"/>
<text text-anchor="start" x="38.55" y="-45.2" font-family="Helvetica,sans-Serif" font-size="11.00">&lt; 1</text>
<polygon fill="#ffffff" stroke="transparent" points="93.55,-39 93.55,-57 169.55,-57 169.55,-39 93.55,-39"/>
<polygon fill="none" stroke="black" points="93.55,-39 93.55,-57 169.55,-57 169.55,-39 93.55,-39"/>
<text text-anchor="start" x="133.55" y="-45.2" font-family="Helvetica,sans-Serif" font-size="11.00">0 rows</text>
<polygon fill="#ffffff" stroke="transparent" points="169.55,-39 169.55,-57 236.55,-57 236.55,-39 169.55,-39"/>
<polygon fill="none" stroke="black" points="169.55,-39 169.55,-57 236.55,-57 236.55,-39 169.55,-39"/>
<text text-anchor="start" x="217.55" y="-45.2" font-family="Helvetica,sans-Serif" font-size="11.00">2 &gt;</text>
<polygon fill="none" stroke="black" stroke-width="2" points="34.05,-38 34.05,-212 237.05,-212 237.05,-38 34.05,-38"/>
</a>
</g>
</g>
<!-- m_group&#45;&gt;m_group_level -->
<g id="edge1" class="edge">
<title>m_group:w&#45;&gt;m_group_level:e</title>
<path fill="none" stroke="black" d="M272.04,-178C260.73,-178 253.54,-178 237.55,-178"/>
<polygon fill="black" stroke="black" points="278.55,-178 286.55,-181.6 282.55,-178 286.55,-178 286.55,-178 286.55,-178 282.55,-178 286.55,-174.4 278.55,-178 278.55,-178"/>
<ellipse fill="none" stroke="black" cx="275.35" cy="-178" rx="3.2" ry="3.2"/>
</g>
<!-- m_group_level&#45;&gt;m_group_level -->
<g id="edge2" class="edge">
<title>m_group_level:w&#45;&gt;m_group_level:e</title>
<path fill="none" stroke="black" d="M23.46,-164.05C-21.03,-196.72 -9.91,-230 136.05,-230 294.05,-230 294.05,-213 236.55,-178"/>
<polygon fill="black" stroke="black" points="28.89,-160.43 37.55,-159 32.22,-158.22 35.55,-156 35.55,-156 35.55,-156 32.22,-158.22 33.56,-153 28.89,-160.43 28.89,-160.43"/>
<ellipse fill="none" stroke="black" cx="26.23" cy="-162.21" rx="3.2" ry="3.2"/>
</g>
</g>
</svg>
