<?xml version="1.0" encoding="UTF-8" standalone="no"?>
<!DOCTYPE svg PUBLIC "-//W3C//DTD SVG 1.1//EN"
 "http://www.w3.org/Graphics/SVG/1.1/DTD/svg11.dtd">
<!-- Generated by graphviz version 2.43.0 (0)
 -->
<!-- Title: oneDegreeRelationshipsDiagram Pages: 1 -->
<svg width="1089pt" height="677pt"
 viewBox="0.00 0.00 1089.00 677.00" xmlns="http://www.w3.org/2000/svg" xmlns:xlink="http://www.w3.org/1999/xlink">
<g id="graph0" class="graph" transform="scale(1 1) rotate(0) translate(4 673)">
<title>oneDegreeRelationshipsDiagram</title>
<polygon fill="#ffffff" stroke="transparent" points="-4,4 -4,-673 1085,-673 1085,4 -4,4"/>
<text text-anchor="middle" x="71.5" y="-7.2" font-family="Helvetica,sans-Serif" font-size="11.00">Generated by SchemaSpy</text>
<!-- m_guarantor -->
<g id="node1" class="node">
<title>m_guarantor</title>
<g id="a_node1"><a xlink:href="../../tables/m_guarantor.html" xlink:title="m_guarantor" target="_top">
<polygon fill="#ffffff" stroke="transparent" points="569,-37 569,-477 807,-477 807,-37 569,-37"/>
<polygon fill="#f5f5f5" stroke="transparent" points="571,-453 571,-475 805,-475 805,-453 571,-453"/>
<polygon fill="none" stroke="black" points="571,-453 571,-475 805,-475 805,-453 571,-453"/>
<text text-anchor="start" x="576" y="-462.2" font-family="Helvetica,sans-Serif" font-weight="bold" font-size="11.00">m_guarantor</text>
<text text-anchor="start" x="770" y="-461.2" font-family="Helvetica,sans-Serif" font-size="11.00">[table]</text>
<polygon fill="none" stroke="black" points="571,-431 571,-453 738,-453 738,-431 571,-431"/>
<image xlink:href="../../images/primaryKeys.png" width="11px" height="12px" preserveAspectRatio="xMinYMin meet" x="576" y="-448"/>
<text text-anchor="start" x="591" y="-439.2" font-family="Helvetica,sans-Serif" font-size="11.00">id</text>
<polygon fill="none" stroke="black" points="738,-431 738,-453 805,-453 805,-431 738,-431"/>
<text text-anchor="start" x="741" y="-439.2" font-family="Helvetica,sans-Serif" font-size="11.00">bigint[19]</text>
<polygon fill="#ffffff" stroke="transparent" points="571,-409 571,-431 738,-431 738,-409 571,-409"/>
<polygon fill="none" stroke="black" points="571,-409 571,-431 738,-431 738,-409 571,-409"/>
<image xlink:href="../../images/foreignKeys.png" width="11px" height="12px" preserveAspectRatio="xMinYMin meet" x="576" y="-426"/>
<text text-anchor="start" x="591" y="-417.2" font-family="Helvetica,sans-Serif" font-size="11.00">loan_id</text>
<polygon fill="none" stroke="black" points="738,-409 738,-431 805,-431 805,-409 738,-409"/>
<text text-anchor="start" x="741" y="-417.2" font-family="Helvetica,sans-Serif" font-size="11.00">bigint[19]</text>
<polygon fill="#ffffff" stroke="transparent" points="571,-387 571,-409 738,-409 738,-387 571,-387"/>
<polygon fill="none" stroke="black" points="571,-387 571,-409 738,-409 738,-387 571,-387"/>
<image xlink:href="../../images/foreignKeys.png" width="11px" height="12px" preserveAspectRatio="xMinYMin meet" x="576" y="-404"/>
<text text-anchor="start" x="591" y="-395.2" font-family="Helvetica,sans-Serif" font-size="11.00">client_reln_cv_id</text>
<polygon fill="none" stroke="black" points="738,-387 738,-409 805,-409 805,-387 738,-387"/>
<text text-anchor="start" x="741" y="-395.2" font-family="Helvetica,sans-Serif" font-size="11.00">int[10]</text>
<polygon fill="none" stroke="black" points="571,-365 571,-387 738,-387 738,-365 571,-365"/>
<text text-anchor="start" x="591" y="-373.2" font-family="Helvetica,sans-Serif" font-size="11.00">type_enum</text>
<polygon fill="none" stroke="black" points="738,-365 738,-387 805,-387 805,-365 738,-365"/>
<text text-anchor="start" x="741" y="-373.2" font-family="Helvetica,sans-Serif" font-size="11.00">smallint[5]</text>
<polygon fill="none" stroke="black" points="571,-343 571,-365 738,-365 738,-343 571,-343"/>
<text text-anchor="start" x="591" y="-351.2" font-family="Helvetica,sans-Serif" font-size="11.00">entity_id</text>
<polygon fill="none" stroke="black" points="738,-343 738,-365 805,-365 805,-343 738,-343"/>
<text text-anchor="start" x="741" y="-351.2" font-family="Helvetica,sans-Serif" font-size="11.00">bigint[19]</text>
<polygon fill="none" stroke="black" points="571,-321 571,-343 738,-343 738,-321 571,-321"/>
<text text-anchor="start" x="591" y="-329.2" font-family="Helvetica,sans-Serif" font-size="11.00">firstname</text>
<polygon fill="none" stroke="black" points="738,-321 738,-343 805,-343 805,-321 738,-321"/>
<text text-anchor="start" x="741" y="-329.2" font-family="Helvetica,sans-Serif" font-size="11.00">varchar[50]</text>
<polygon fill="none" stroke="black" points="571,-299 571,-321 738,-321 738,-299 571,-299"/>
<text text-anchor="start" x="591" y="-307.2" font-family="Helvetica,sans-Serif" font-size="11.00">lastname</text>
<polygon fill="none" stroke="black" points="738,-299 738,-321 805,-321 805,-299 738,-299"/>
<text text-anchor="start" x="741" y="-307.2" font-family="Helvetica,sans-Serif" font-size="11.00">varchar[50]</text>
<polygon fill="none" stroke="black" points="571,-277 571,-299 738,-299 738,-277 571,-277"/>
<text text-anchor="start" x="591" y="-285.2" font-family="Helvetica,sans-Serif" font-size="11.00">dob</text>
<polygon fill="none" stroke="black" points="738,-277 738,-299 805,-299 805,-277 738,-277"/>
<text text-anchor="start" x="741" y="-285.2" font-family="Helvetica,sans-Serif" font-size="11.00">date[10]</text>
<polygon fill="none" stroke="black" points="571,-255 571,-277 738,-277 738,-255 571,-255"/>
<text text-anchor="start" x="591" y="-263.2" font-family="Helvetica,sans-Serif" font-size="11.00">address_line_1</text>
<polygon fill="none" stroke="black" points="738,-255 738,-277 805,-277 805,-255 738,-255"/>
<text text-anchor="start" x="741" y="-263.2" font-family="Helvetica,sans-Serif" font-size="11.00">varchar[500]</text>
<polygon fill="none" stroke="black" points="571,-233 571,-255 738,-255 738,-233 571,-233"/>
<text text-anchor="start" x="591" y="-241.2" font-family="Helvetica,sans-Serif" font-size="11.00">address_line_2</text>
<polygon fill="none" stroke="black" points="738,-233 738,-255 805,-255 805,-233 738,-233"/>
<text text-anchor="start" x="741" y="-241.2" font-family="Helvetica,sans-Serif" font-size="11.00">varchar[500]</text>
<polygon fill="none" stroke="black" points="571,-211 571,-233 738,-233 738,-211 571,-211"/>
<text text-anchor="start" x="591" y="-219.2" font-family="Helvetica,sans-Serif" font-size="11.00">city</text>
<polygon fill="none" stroke="black" points="738,-211 738,-233 805,-233 805,-211 738,-211"/>
<text text-anchor="start" x="741" y="-219.2" font-family="Helvetica,sans-Serif" font-size="11.00">varchar[50]</text>
<polygon fill="none" stroke="black" points="571,-189 571,-211 738,-211 738,-189 571,-189"/>
<text text-anchor="start" x="591" y="-197.2" font-family="Helvetica,sans-Serif" font-size="11.00">state</text>
<polygon fill="none" stroke="black" points="738,-189 738,-211 805,-211 805,-189 738,-189"/>
<text text-anchor="start" x="741" y="-197.2" font-family="Helvetica,sans-Serif" font-size="11.00">varchar[50]</text>
<polygon fill="none" stroke="black" points="571,-167 571,-189 738,-189 738,-167 571,-167"/>
<text text-anchor="start" x="591" y="-175.2" font-family="Helvetica,sans-Serif" font-size="11.00">country</text>
<polygon fill="none" stroke="black" points="738,-167 738,-189 805,-189 805,-167 738,-167"/>
<text text-anchor="start" x="741" y="-175.2" font-family="Helvetica,sans-Serif" font-size="11.00">varchar[50]</text>
<polygon fill="none" stroke="black" points="571,-145 571,-167 738,-167 738,-145 571,-145"/>
<text text-anchor="start" x="591" y="-153.2" font-family="Helvetica,sans-Serif" font-size="11.00">zip</text>
<polygon fill="none" stroke="black" points="738,-145 738,-167 805,-167 805,-145 738,-145"/>
<text text-anchor="start" x="741" y="-153.2" font-family="Helvetica,sans-Serif" font-size="11.00">varchar[20]</text>
<polygon fill="none" stroke="black" points="571,-123 571,-145 738,-145 738,-123 571,-123"/>
<text text-anchor="start" x="591" y="-131.2" font-family="Helvetica,sans-Serif" font-size="11.00">house_phone_number</text>
<polygon fill="none" stroke="black" points="738,-123 738,-145 805,-145 805,-123 738,-123"/>
<text text-anchor="start" x="741" y="-131.2" font-family="Helvetica,sans-Serif" font-size="11.00">varchar[20]</text>
<polygon fill="none" stroke="black" points="571,-101 571,-123 738,-123 738,-101 571,-101"/>
<text text-anchor="start" x="591" y="-109.2" font-family="Helvetica,sans-Serif" font-size="11.00">mobile_number</text>
<polygon fill="none" stroke="black" points="738,-101 738,-123 805,-123 805,-101 738,-101"/>
<text text-anchor="start" x="741" y="-109.2" font-family="Helvetica,sans-Serif" font-size="11.00">varchar[20]</text>
<polygon fill="none" stroke="black" points="571,-79 571,-101 738,-101 738,-79 571,-79"/>
<text text-anchor="start" x="591" y="-87.2" font-family="Helvetica,sans-Serif" font-size="11.00">comment</text>
<polygon fill="none" stroke="black" points="738,-79 738,-101 805,-101 805,-79 738,-79"/>
<text text-anchor="start" x="741" y="-87.2" font-family="Helvetica,sans-Serif" font-size="11.00">varchar[500]</text>
<polygon fill="none" stroke="black" points="571,-57 571,-79 738,-79 738,-57 571,-57"/>
<text text-anchor="start" x="591" y="-65.2" font-family="Helvetica,sans-Serif" font-size="11.00">is_active</text>
<polygon fill="none" stroke="black" points="738,-57 738,-79 805,-79 805,-57 738,-57"/>
<text text-anchor="start" x="741" y="-65.2" font-family="Helvetica,sans-Serif" font-size="11.00">bit[1]</text>
<polygon fill="#ffffff" stroke="transparent" points="571,-39 571,-57 646,-57 646,-39 571,-39"/>
<polygon fill="none" stroke="black" points="571,-39 571,-57 646,-57 646,-39 571,-39"/>
<text text-anchor="start" x="574" y="-45.2" font-family="Helvetica,sans-Serif" font-size="11.00">&lt; 2</text>
<polygon fill="#ffffff" stroke="transparent" points="646,-39 646,-57 738,-57 738,-39 646,-39"/>
<polygon fill="none" stroke="black" points="646,-39 646,-57 738,-57 738,-39 646,-39"/>
<text text-anchor="start" x="702" y="-45.2" font-family="Helvetica,sans-Serif" font-size="11.00">0 rows</text>
<polygon fill="#ffffff" stroke="transparent" points="738,-39 738,-57 805,-57 805,-39 738,-39"/>
<polygon fill="none" stroke="black" points="738,-39 738,-57 805,-57 805,-39 738,-39"/>
<text text-anchor="start" x="786" y="-45.2" font-family="Helvetica,sans-Serif" font-size="11.00">1 &gt;</text>
<polygon fill="none" stroke="black" stroke-width="2" points="570,-38 570,-476 806,-476 806,-38 570,-38"/>
</a>
</g>
</g>
<!-- m_code_value -->
<g id="node2" class="node">
<title>m_code_value</title>
<g id="a_node2"><a xlink:href="../../tables/m_code_value.html" xlink:title="m_code_value" target="_top">
<polygon fill="#ffffff" stroke="transparent" points="8,-167 8,-291 143,-291 143,-167 8,-167"/>
<polygon fill="#f5f5f5" stroke="transparent" points="8.5,-269 8.5,-291 143.5,-291 143.5,-269 8.5,-269"/>
<polygon fill="none" stroke="black" points="8.5,-269 8.5,-291 143.5,-291 143.5,-269 8.5,-269"/>
<text text-anchor="start" x="13.5" y="-278.2" font-family="Helvetica,sans-Serif" font-weight="bold" font-size="11.00">m_code_value</text>
<text text-anchor="start" x="108.5" y="-277.2" font-family="Helvetica,sans-Serif" font-size="11.00">[table]</text>
<polygon fill="none" stroke="black" points="8.5,-247 8.5,-269 143.5,-269 143.5,-247 8.5,-247"/>
<image xlink:href="../../images/primaryKeys.png" width="11px" height="12px" preserveAspectRatio="xMinYMin meet" x="13.5" y="-264"/>
<text text-anchor="start" x="28.5" y="-255.2" font-family="Helvetica,sans-Serif" font-size="11.00">id</text>
<polygon fill="#ffffff" stroke="transparent" points="8.5,-225 8.5,-247 143.5,-247 143.5,-225 8.5,-225"/>
<polygon fill="none" stroke="black" points="8.5,-225 8.5,-247 143.5,-247 143.5,-225 8.5,-225"/>
<image xlink:href="../../images/foreignKeys.png" width="11px" height="12px" preserveAspectRatio="xMinYMin meet" x="13.5" y="-242"/>
<text text-anchor="start" x="28.5" y="-233.2" font-family="Helvetica,sans-Serif" font-size="11.00">code_id</text>
<polygon fill="#ffffff" stroke="transparent" points="8.5,-203 8.5,-225 143.5,-225 143.5,-203 8.5,-203"/>
<polygon fill="none" stroke="black" points="8.5,-203 8.5,-225 143.5,-225 143.5,-203 8.5,-203"/>
<text text-anchor="start" x="28.5" y="-211.2" font-family="Helvetica,sans-Serif" font-size="11.00">code_value</text>
<polygon fill="none" stroke="black" points="8.5,-185 8.5,-203 143.5,-203 143.5,-185 8.5,-185"/>
<text text-anchor="start" x="11.5" y="-191.2" font-family="Helvetica,sans-Serif" font-size="11.00">...</text>
<polygon fill="#ffffff" stroke="transparent" points="8.5,-167 8.5,-185 53.5,-185 53.5,-167 8.5,-167"/>
<polygon fill="none" stroke="black" points="8.5,-167 8.5,-185 53.5,-185 53.5,-167 8.5,-167"/>
<text text-anchor="start" x="11.5" y="-173.2" font-family="Helvetica,sans-Serif" font-size="11.00">&lt; 1</text>
<polygon fill="#ffffff" stroke="transparent" points="53.5,-167 53.5,-185 103.5,-185 103.5,-167 53.5,-167"/>
<polygon fill="none" stroke="black" points="53.5,-167 53.5,-185 103.5,-185 103.5,-167 53.5,-167"/>
<text text-anchor="start" x="67.5" y="-173.2" font-family="Helvetica,sans-Serif" font-size="11.00">0 rows</text>
<polygon fill="#ffffff" stroke="transparent" points="103.5,-167 103.5,-185 143.5,-185 143.5,-167 103.5,-167"/>
<polygon fill="none" stroke="black" points="103.5,-167 103.5,-185 143.5,-185 143.5,-167 103.5,-167"/>
<text text-anchor="start" x="118.5" y="-173.2" font-family="Helvetica,sans-Serif" font-size="11.00">25 &gt;</text>
</a>
</g>
</g>
<!-- m_guarantor&#45;&gt;m_code_value -->
<g id="edge1" class="edge">
<title>m_guarantor:w&#45;&gt;m_code_value:e</title>
<path fill="none" stroke="black" d="M555.54,-396.41C494.39,-380.74 593.24,-253.8 528,-201 409.15,-104.82 319.44,-130.07 184,-201 156.7,-215.3 175.32,-258 144.5,-258"/>
<polygon fill="black" stroke="black" points="562.05,-397.12 569.61,-401.58 566.02,-397.56 570,-398 570,-398 570,-398 566.02,-397.56 570.39,-394.42 562.05,-397.12 562.05,-397.12"/>
<ellipse fill="none" stroke="black" cx="558.87" cy="-396.77" rx="3.2" ry="3.2"/>
</g>
<!-- m_loan -->
<g id="node3" class="node">
<title>m_loan</title>
<g id="a_node3"><a xlink:href="../../tables/m_loan.html" xlink:title="m_loan" target="_top">
<polygon fill="#ffffff" stroke="transparent" points="192,-211 192,-665 520,-665 520,-211 192,-211"/>
<polygon fill="#f5f5f5" stroke="transparent" points="192,-643 192,-665 520,-665 520,-643 192,-643"/>
<polygon fill="none" stroke="black" points="192,-643 192,-665 520,-665 520,-643 192,-643"/>
<text text-anchor="start" x="197" y="-652.2" font-family="Helvetica,sans-Serif" font-weight="bold" font-size="11.00">m_loan</text>
<text text-anchor="start" x="485" y="-651.2" font-family="Helvetica,sans-Serif" font-size="11.00">[table]</text>
<polygon fill="none" stroke="black" points="192,-621 192,-643 520,-643 520,-621 192,-621"/>
<image xlink:href="../../images/primaryKeys.png" width="11px" height="12px" preserveAspectRatio="xMinYMin meet" x="197" y="-638"/>
<text text-anchor="start" x="212" y="-629.2" font-family="Helvetica,sans-Serif" font-size="11.00">id</text>
<polygon fill="#ffffff" stroke="transparent" points="192,-599 192,-621 520,-621 520,-599 192,-599"/>
<polygon fill="none" stroke="black" points="192,-599 192,-621 520,-621 520,-599 192,-599"/>
<text text-anchor="start" x="212" y="-607.2" font-family="Helvetica,sans-Serif" font-size="11.00">account_no</text>
<polygon fill="#ffffff" stroke="transparent" points="192,-577 192,-599 520,-599 520,-577 192,-577"/>
<polygon fill="none" stroke="black" points="192,-577 192,-599 520,-599 520,-577 192,-577"/>
<text text-anchor="start" x="212" y="-585.2" font-family="Helvetica,sans-Serif" font-size="11.00">external_id</text>
<polygon fill="#ffffff" stroke="transparent" points="192,-555 192,-577 520,-577 520,-555 192,-555"/>
<polygon fill="none" stroke="black" points="192,-555 192,-577 520,-577 520,-555 192,-555"/>
<image xlink:href="../../images/foreignKeys.png" width="11px" height="12px" preserveAspectRatio="xMinYMin meet" x="197" y="-572"/>
<text text-anchor="start" x="212" y="-563.2" font-family="Helvetica,sans-Serif" font-size="11.00">client_id</text>
<polygon fill="#ffffff" stroke="transparent" points="192,-533 192,-555 520,-555 520,-533 192,-533"/>
<polygon fill="none" stroke="black" points="192,-533 192,-555 520,-555 520,-533 192,-533"/>
<image xlink:href="../../images/foreignKeys.png" width="11px" height="12px" preserveAspectRatio="xMinYMin meet" x="197" y="-550"/>
<text text-anchor="start" x="212" y="-541.2" font-family="Helvetica,sans-Serif" font-size="11.00">group_id</text>
<polygon fill="#ffffff" stroke="transparent" points="192,-511 192,-533 520,-533 520,-511 192,-511"/>
<polygon fill="none" stroke="black" points="192,-511 192,-533 520,-533 520,-511 192,-511"/>
<image xlink:href="../../images/foreignKeys.png" width="11px" height="12px" preserveAspectRatio="xMinYMin meet" x="197" y="-528"/>
<text text-anchor="start" x="212" y="-519.2" font-family="Helvetica,sans-Serif" font-size="11.00">glim_id</text>
<polygon fill="#ffffff" stroke="transparent" points="192,-489 192,-511 520,-511 520,-489 192,-489"/>
<polygon fill="none" stroke="black" points="192,-489 192,-511 520,-511 520,-489 192,-489"/>
<image xlink:href="../../images/foreignKeys.png" width="11px" height="12px" preserveAspectRatio="xMinYMin meet" x="197" y="-506"/>
<text text-anchor="start" x="212" y="-497.2" font-family="Helvetica,sans-Serif" font-size="11.00">product_id</text>
<polygon fill="#ffffff" stroke="transparent" points="192,-467 192,-489 520,-489 520,-467 192,-467"/>
<polygon fill="none" stroke="black" points="192,-467 192,-489 520,-489 520,-467 192,-467"/>
<image xlink:href="../../images/foreignKeys.png" width="11px" height="12px" preserveAspectRatio="xMinYMin meet" x="197" y="-484"/>
<text text-anchor="start" x="212" y="-475.2" font-family="Helvetica,sans-Serif" font-size="11.00">fund_id</text>
<polygon fill="#ffffff" stroke="transparent" points="192,-445 192,-467 520,-467 520,-445 192,-445"/>
<polygon fill="none" stroke="black" points="192,-445 192,-467 520,-467 520,-445 192,-445"/>
<image xlink:href="../../images/foreignKeys.png" width="11px" height="12px" preserveAspectRatio="xMinYMin meet" x="197" y="-462"/>
<text text-anchor="start" x="212" y="-453.2" font-family="Helvetica,sans-Serif" font-size="11.00">loan_officer_id</text>
<polygon fill="#ffffff" stroke="transparent" points="192,-423 192,-445 520,-445 520,-423 192,-423"/>
<polygon fill="none" stroke="black" points="192,-423 192,-445 520,-445 520,-423 192,-423"/>
<image xlink:href="../../images/foreignKeys.png" width="11px" height="12px" preserveAspectRatio="xMinYMin meet" x="197" y="-440"/>
<text text-anchor="start" x="212" y="-431.2" font-family="Helvetica,sans-Serif" font-size="11.00">loanpurpose_cv_id</text>
<polygon fill="#ffffff" stroke="transparent" points="192,-401 192,-423 520,-423 520,-401 192,-401"/>
<polygon fill="none" stroke="black" points="192,-401 192,-423 520,-423 520,-401 192,-401"/>
<image xlink:href="../../images/foreignKeys.png" width="11px" height="12px" preserveAspectRatio="xMinYMin meet" x="197" y="-418"/>
<text text-anchor="start" x="212" y="-409.2" font-family="Helvetica,sans-Serif" font-size="11.00">submittedon_userid</text>
<polygon fill="#ffffff" stroke="transparent" points="192,-379 192,-401 520,-401 520,-379 192,-379"/>
<polygon fill="none" stroke="black" points="192,-379 192,-401 520,-401 520,-379 192,-379"/>
<image xlink:href="../../images/foreignKeys.png" width="11px" height="12px" preserveAspectRatio="xMinYMin meet" x="197" y="-396"/>
<text text-anchor="start" x="212" y="-387.2" font-family="Helvetica,sans-Serif" font-size="11.00">approvedon_userid</text>
<polygon fill="#ffffff" stroke="transparent" points="192,-357 192,-379 520,-379 520,-357 192,-357"/>
<polygon fill="none" stroke="black" points="192,-357 192,-379 520,-379 520,-357 192,-357"/>
<image xlink:href="../../images/foreignKeys.png" width="11px" height="12px" preserveAspectRatio="xMinYMin meet" x="197" y="-374"/>
<text text-anchor="start" x="212" y="-365.2" font-family="Helvetica,sans-Serif" font-size="11.00">disbursedon_userid</text>
<polygon fill="#ffffff" stroke="transparent" points="192,-335 192,-357 520,-357 520,-335 192,-335"/>
<polygon fill="none" stroke="black" points="192,-335 192,-357 520,-357 520,-335 192,-335"/>
<image xlink:href="../../images/foreignKeys.png" width="11px" height="12px" preserveAspectRatio="xMinYMin meet" x="197" y="-352"/>
<text text-anchor="start" x="212" y="-343.2" font-family="Helvetica,sans-Serif" font-size="11.00">closedon_userid</text>
<polygon fill="#ffffff" stroke="transparent" points="192,-313 192,-335 520,-335 520,-313 192,-313"/>
<polygon fill="none" stroke="black" points="192,-313 192,-335 520,-335 520,-313 192,-313"/>
<image xlink:href="../../images/foreignKeys.png" width="11px" height="12px" preserveAspectRatio="xMinYMin meet" x="197" y="-330"/>
<text text-anchor="start" x="212" y="-321.2" font-family="Helvetica,sans-Serif" font-size="11.00">rejectedon_userid</text>
<polygon fill="#ffffff" stroke="transparent" points="192,-291 192,-313 520,-313 520,-291 192,-291"/>
<polygon fill="none" stroke="black" points="192,-291 192,-313 520,-313 520,-291 192,-291"/>
<image xlink:href="../../images/foreignKeys.png" width="11px" height="12px" preserveAspectRatio="xMinYMin meet" x="197" y="-308"/>
<text text-anchor="start" x="212" y="-299.2" font-family="Helvetica,sans-Serif" font-size="11.00">withdrawnon_userid</text>
<polygon fill="#ffffff" stroke="transparent" points="192,-269 192,-291 520,-291 520,-269 192,-269"/>
<polygon fill="none" stroke="black" points="192,-269 192,-291 520,-291 520,-269 192,-269"/>
<image xlink:href="../../images/foreignKeys.png" width="11px" height="12px" preserveAspectRatio="xMinYMin meet" x="197" y="-286"/>
<text text-anchor="start" x="212" y="-277.2" font-family="Helvetica,sans-Serif" font-size="11.00">loan_transaction_strategy_id</text>
<polygon fill="#ffffff" stroke="transparent" points="192,-247 192,-269 520,-269 520,-247 192,-247"/>
<polygon fill="none" stroke="black" points="192,-247 192,-269 520,-269 520,-247 192,-247"/>
<image xlink:href="../../images/foreignKeys.png" width="11px" height="12px" preserveAspectRatio="xMinYMin meet" x="197" y="-264"/>
<text text-anchor="start" x="212" y="-255.2" font-family="Helvetica,sans-Serif" font-size="11.00">writeoff_reason_cv_id</text>
<polygon fill="none" stroke="black" points="192,-229 192,-247 520,-247 520,-229 192,-229"/>
<text text-anchor="start" x="195" y="-235.2" font-family="Helvetica,sans-Serif" font-size="11.00">...</text>
<polygon fill="#ffffff" stroke="transparent" points="192,-211 192,-229 336,-229 336,-211 192,-211"/>
<polygon fill="none" stroke="black" points="192,-211 192,-229 336,-229 336,-211 192,-211"/>
<text text-anchor="start" x="195" y="-217.2" font-family="Helvetica,sans-Serif" font-size="11.00">&lt; 15</text>
<polygon fill="#ffffff" stroke="transparent" points="336,-211 336,-229 433,-229 433,-211 336,-211"/>
<polygon fill="none" stroke="black" points="336,-211 336,-229 433,-229 433,-211 336,-211"/>
<text text-anchor="start" x="397" y="-217.2" font-family="Helvetica,sans-Serif" font-size="11.00">0 rows</text>
<polygon fill="#ffffff" stroke="transparent" points="433,-211 433,-229 520,-229 520,-211 433,-211"/>
<polygon fill="none" stroke="black" points="433,-211 433,-229 520,-229 520,-211 433,-211"/>
<text text-anchor="start" x="495" y="-217.2" font-family="Helvetica,sans-Serif" font-size="11.00">24 &gt;</text>
</a>
</g>
</g>
<!-- m_guarantor&#45;&gt;m_loan -->
<g id="edge2" class="edge">
<title>m_guarantor:w&#45;&gt;m_loan:e</title>
<path fill="none" stroke="black" d="M555.39,-422.1C489.39,-444.12 612.04,-632 521,-632"/>
<polygon fill="black" stroke="black" points="562.08,-421.14 570.51,-423.56 566.04,-420.57 570,-420 570,-420 570,-420 566.04,-420.57 569.49,-416.44 562.08,-421.14 562.08,-421.14"/>
<ellipse fill="none" stroke="black" cx="558.91" cy="-421.59" rx="3.2" ry="3.2"/>
</g>
<!-- m_loan&#45;&gt;m_code_value -->
<g id="edge4" class="edge">
<title>m_loan:w&#45;&gt;m_code_value:e</title>
<path fill="none" stroke="black" d="M176.71,-431.51C125.34,-410.12 219.72,-258 144.5,-258"/>
<polygon fill="black" stroke="black" points="183.12,-432.63 190.38,-437.55 187.06,-433.31 191,-434 191,-434 191,-434 187.06,-433.31 191.62,-430.45 183.12,-432.63 183.12,-432.63"/>
<ellipse fill="none" stroke="black" cx="179.97" cy="-432.08" rx="3.2" ry="3.2"/>
</g>
<!-- m_loan&#45;&gt;m_code_value -->
<g id="edge5" class="edge">
<title>m_loan:w&#45;&gt;m_code_value:e</title>
<path fill="none" stroke="black" d="M176.55,-258C166.2,-258 159.35,-258 144.5,-258"/>
<polygon fill="black" stroke="black" points="183,-258 191,-261.6 187,-258 191,-258 191,-258 191,-258 187,-258 191,-254.4 183,-258 183,-258"/>
<ellipse fill="none" stroke="black" cx="179.8" cy="-258" rx="3.2" ry="3.2"/>
</g>
<!-- m_guarantor_funding_details -->
<g id="node4" class="node">
<title>m_guarantor_funding_details</title>
<g id="a_node4"><a xlink:href="../../tables/m_guarantor_funding_details.html" xlink:title="m_guarantor_funding_details" target="_top">
<polygon fill="#ffffff" stroke="transparent" points="856,-373 856,-497 1073,-497 1073,-373 856,-373"/>
<polygon fill="#f5f5f5" stroke="transparent" points="856.5,-475 856.5,-497 1073.5,-497 1073.5,-475 856.5,-475"/>
<polygon fill="none" stroke="black" points="856.5,-475 856.5,-497 1073.5,-497 1073.5,-475 856.5,-475"/>
<text text-anchor="start" x="861.5" y="-484.2" font-family="Helvetica,sans-Serif" font-weight="bold" font-size="11.00">m_guarantor_funding_details</text>
<text text-anchor="start" x="1038.5" y="-483.2" font-family="Helvetica,sans-Serif" font-size="11.00">[table]</text>
<polygon fill="none" stroke="black" points="856.5,-453 856.5,-475 1073.5,-475 1073.5,-453 856.5,-453"/>
<image xlink:href="../../images/primaryKeys.png" width="11px" height="12px" preserveAspectRatio="xMinYMin meet" x="861.5" y="-470"/>
<text text-anchor="start" x="876.5" y="-461.2" font-family="Helvetica,sans-Serif" font-size="11.00">id</text>
<polygon fill="#ffffff" stroke="transparent" points="856.5,-431 856.5,-453 1073.5,-453 1073.5,-431 856.5,-431"/>
<polygon fill="none" stroke="black" points="856.5,-431 856.5,-453 1073.5,-453 1073.5,-431 856.5,-431"/>
<image xlink:href="../../images/foreignKeys.png" width="11px" height="12px" preserveAspectRatio="xMinYMin meet" x="861.5" y="-448"/>
<text text-anchor="start" x="876.5" y="-439.2" font-family="Helvetica,sans-Serif" font-size="11.00">guarantor_id</text>
<polygon fill="#ffffff" stroke="transparent" points="856.5,-409 856.5,-431 1073.5,-431 1073.5,-409 856.5,-409"/>
<polygon fill="none" stroke="black" points="856.5,-409 856.5,-431 1073.5,-431 1073.5,-409 856.5,-409"/>
<image xlink:href="../../images/foreignKeys.png" width="11px" height="12px" preserveAspectRatio="xMinYMin meet" x="861.5" y="-426"/>
<text text-anchor="start" x="876.5" y="-417.2" font-family="Helvetica,sans-Serif" font-size="11.00">account_associations_id</text>
<polygon fill="none" stroke="black" points="856.5,-391 856.5,-409 1073.5,-409 1073.5,-391 856.5,-391"/>
<text text-anchor="start" x="859.5" y="-397.2" font-family="Helvetica,sans-Serif" font-size="11.00">...</text>
<polygon fill="#ffffff" stroke="transparent" points="856.5,-373 856.5,-391 945.5,-391 945.5,-373 856.5,-373"/>
<polygon fill="none" stroke="black" points="856.5,-373 856.5,-391 945.5,-391 945.5,-373 856.5,-373"/>
<text text-anchor="start" x="859.5" y="-379.2" font-family="Helvetica,sans-Serif" font-size="11.00">&lt; 2</text>
<polygon fill="#ffffff" stroke="transparent" points="945.5,-373 945.5,-391 1017.5,-391 1017.5,-373 945.5,-373"/>
<polygon fill="none" stroke="black" points="945.5,-373 945.5,-391 1017.5,-391 1017.5,-373 945.5,-373"/>
<text text-anchor="start" x="981.5" y="-379.2" font-family="Helvetica,sans-Serif" font-size="11.00">0 rows</text>
<polygon fill="#ffffff" stroke="transparent" points="1017.5,-373 1017.5,-391 1073.5,-391 1073.5,-373 1017.5,-373"/>
<polygon fill="none" stroke="black" points="1017.5,-373 1017.5,-391 1073.5,-391 1073.5,-373 1017.5,-373"/>
<text text-anchor="start" x="1054.5" y="-379.2" font-family="Helvetica,sans-Serif" font-size="11.00">1 &gt;</text>
</a>
</g>
</g>
<!-- m_guarantor_funding_details&#45;&gt;m_guarantor -->
<g id="edge3" class="edge">
<title>m_guarantor_funding_details:w&#45;&gt;m_guarantor:e</title>
<path fill="none" stroke="black" d="M840.84,-442C829.41,-442 822.16,-442 806,-442"/>
<polygon fill="black" stroke="black" points="847.5,-442 855.5,-445.6 851.5,-442 855.5,-442 855.5,-442 855.5,-442 851.5,-442 855.5,-438.4 847.5,-442 847.5,-442"/>
<ellipse fill="none" stroke="black" cx="844.3" cy="-442" rx="3.2" ry="3.2"/>
</g>
</g>
</svg>
