<?xml version="1.0" encoding="UTF-8" standalone="no"?>
<!DOCTYPE svg PUBLIC "-//W3C//DTD SVG 1.1//EN"
 "http://www.w3.org/Graphics/SVG/1.1/DTD/svg11.dtd">
<!-- Generated by graphviz version 2.43.0 (0)
 -->
<!-- Title: twoDegreesRelationshipsDiagram Pages: 1 -->
<svg width="1272pt" height="468pt"
 viewBox="0.00 0.00 1272.00 468.00" xmlns="http://www.w3.org/2000/svg" xmlns:xlink="http://www.w3.org/1999/xlink">
<g id="graph0" class="graph" transform="scale(1 1) rotate(0) translate(4 464)">
<title>twoDegreesRelationshipsDiagram</title>
<polygon fill="#ffffff" stroke="transparent" points="-4,4 -4,-464 1268,-464 1268,4 -4,4"/>
<text text-anchor="middle" x="71.5" y="-7.2" font-family="Helvetica,sans-Serif" font-size="11.00">Generated by SchemaSpy</text>
<!-- m_deposit_account_on_hold_transaction -->
<g id="node1" class="node">
<title>m_deposit_account_on_hold_transaction</title>
<g id="a_node1"><a xlink:href="../../tables/m_deposit_account_on_hold_transaction.html" xlink:title="m_deposit_account_on_hold_transaction" target="_top">
<polygon fill="#ffffff" stroke="transparent" points="375,-37 375,-95 636,-95 636,-37 375,-37"/>
<polygon fill="#f5f5f5" stroke="transparent" points="375.5,-73 375.5,-95 636.5,-95 636.5,-73 375.5,-73"/>
<polygon fill="none" stroke="black" points="375.5,-73 375.5,-95 636.5,-95 636.5,-73 375.5,-73"/>
<text text-anchor="start" x="380.5" y="-82.2" font-family="Helvetica,sans-Serif" font-weight="bold" font-size="11.00">m_deposit_account_on_hold_transaction</text>
<text text-anchor="start" x="601.5" y="-81.2" font-family="Helvetica,sans-Serif" font-size="11.00">[table]</text>
<polygon fill="none" stroke="black" points="375.5,-55 375.5,-73 636.5,-73 636.5,-55 375.5,-55"/>
<text text-anchor="start" x="378.5" y="-61.2" font-family="Helvetica,sans-Serif" font-size="11.00">...</text>
<polygon fill="#ffffff" stroke="transparent" points="375.5,-37 375.5,-55 486.5,-55 486.5,-37 375.5,-37"/>
<polygon fill="none" stroke="black" points="375.5,-37 375.5,-55 486.5,-55 486.5,-37 375.5,-37"/>
<text text-anchor="start" x="378.5" y="-43.2" font-family="Helvetica,sans-Serif" font-size="11.00">&lt; 1</text>
<polygon fill="#ffffff" stroke="transparent" points="486.5,-37 486.5,-55 569.5,-55 569.5,-37 486.5,-37"/>
<polygon fill="none" stroke="black" points="486.5,-37 486.5,-55 569.5,-55 569.5,-37 486.5,-37"/>
<text text-anchor="start" x="533.5" y="-43.2" font-family="Helvetica,sans-Serif" font-size="11.00">0 rows</text>
<polygon fill="#ffffff" stroke="transparent" points="569.5,-37 569.5,-55 636.5,-55 636.5,-37 569.5,-37"/>
<polygon fill="none" stroke="black" points="569.5,-37 569.5,-55 636.5,-55 636.5,-37 569.5,-37"/>
<text text-anchor="start" x="617.5" y="-43.2" font-family="Helvetica,sans-Serif" font-size="11.00">1 &gt;</text>
</a>
</g>
</g>
<!-- m_savings_account -->
<g id="node2" class="node">
<title>m_savings_account</title>
<g id="a_node2"><a xlink:href="../../tables/m_savings_account.html" xlink:title="m_savings_account" target="_top">
<polygon fill="#ffffff" stroke="transparent" points="177,-136 177,-194 326,-194 326,-136 177,-136"/>
<polygon fill="#f5f5f5" stroke="transparent" points="177.5,-172 177.5,-194 326.5,-194 326.5,-172 177.5,-172"/>
<polygon fill="none" stroke="black" points="177.5,-172 177.5,-194 326.5,-194 326.5,-172 177.5,-172"/>
<text text-anchor="start" x="182.5" y="-181.2" font-family="Helvetica,sans-Serif" font-weight="bold" font-size="11.00">m_savings_account</text>
<text text-anchor="start" x="291.5" y="-180.2" font-family="Helvetica,sans-Serif" font-size="11.00">[table]</text>
<polygon fill="none" stroke="black" points="177.5,-154 177.5,-172 326.5,-172 326.5,-154 177.5,-154"/>
<text text-anchor="start" x="180.5" y="-160.2" font-family="Helvetica,sans-Serif" font-size="11.00">...</text>
<polygon fill="#ffffff" stroke="transparent" points="177.5,-136 177.5,-154 229.5,-154 229.5,-136 177.5,-136"/>
<polygon fill="none" stroke="black" points="177.5,-136 177.5,-154 229.5,-154 229.5,-136 177.5,-136"/>
<text text-anchor="start" x="180.5" y="-142.2" font-family="Helvetica,sans-Serif" font-size="11.00">&lt; 5</text>
<polygon fill="#ffffff" stroke="transparent" points="229.5,-136 229.5,-154 283.5,-154 283.5,-136 229.5,-136"/>
<polygon fill="none" stroke="black" points="229.5,-136 229.5,-154 283.5,-154 283.5,-136 229.5,-136"/>
<text text-anchor="start" x="247.5" y="-142.2" font-family="Helvetica,sans-Serif" font-size="11.00">0 rows</text>
<polygon fill="#ffffff" stroke="transparent" points="283.5,-136 283.5,-154 326.5,-154 326.5,-136 283.5,-136"/>
<polygon fill="none" stroke="black" points="283.5,-136 283.5,-154 326.5,-154 326.5,-136 283.5,-136"/>
<text text-anchor="start" x="301.5" y="-142.2" font-family="Helvetica,sans-Serif" font-size="11.00">17 &gt;</text>
</a>
</g>
</g>
<!-- m_deposit_account_on_hold_transaction&#45;&gt;m_savings_account -->
<g id="edge1" class="edge">
<title>m_deposit_account_on_hold_transaction:w&#45;&gt;m_savings_account:e</title>
<path fill="none" stroke="black" d="M360.49,-68.25C336.85,-87.2 370.12,-163 327.5,-163"/>
<polygon fill="black" stroke="black" points="366.85,-66.32 375.55,-67.44 370.67,-65.16 374.5,-64 374.5,-64 374.5,-64 370.67,-65.16 373.45,-60.56 366.85,-66.32 366.85,-66.32"/>
<ellipse fill="none" stroke="black" cx="363.78" cy="-67.25" rx="3.2" ry="3.2"/>
</g>
<!-- m_guarantor -->
<g id="node3" class="node">
<title>m_guarantor</title>
<g id="a_node3"><a xlink:href="../../tables/m_guarantor.html" xlink:title="m_guarantor" target="_top">
<polygon fill="#ffffff" stroke="transparent" points="422,-332 422,-456 589,-456 589,-332 422,-332"/>
<polygon fill="#f5f5f5" stroke="transparent" points="422.5,-434 422.5,-456 589.5,-456 589.5,-434 422.5,-434"/>
<polygon fill="none" stroke="black" points="422.5,-434 422.5,-456 589.5,-456 589.5,-434 422.5,-434"/>
<text text-anchor="start" x="427.5" y="-443.2" font-family="Helvetica,sans-Serif" font-weight="bold" font-size="11.00">m_guarantor</text>
<text text-anchor="start" x="554.5" y="-442.2" font-family="Helvetica,sans-Serif" font-size="11.00">[table]</text>
<polygon fill="none" stroke="black" points="422.5,-412 422.5,-434 589.5,-434 589.5,-412 422.5,-412"/>
<image xlink:href="../../images/primaryKeys.png" width="11px" height="12px" preserveAspectRatio="xMinYMin meet" x="427.5" y="-429"/>
<text text-anchor="start" x="442.5" y="-420.2" font-family="Helvetica,sans-Serif" font-size="11.00">id</text>
<polygon fill="#ffffff" stroke="transparent" points="422.5,-390 422.5,-412 589.5,-412 589.5,-390 422.5,-390"/>
<polygon fill="none" stroke="black" points="422.5,-390 422.5,-412 589.5,-412 589.5,-390 422.5,-390"/>
<image xlink:href="../../images/foreignKeys.png" width="11px" height="12px" preserveAspectRatio="xMinYMin meet" x="427.5" y="-407"/>
<text text-anchor="start" x="442.5" y="-398.2" font-family="Helvetica,sans-Serif" font-size="11.00">loan_id</text>
<polygon fill="#ffffff" stroke="transparent" points="422.5,-368 422.5,-390 589.5,-390 589.5,-368 422.5,-368"/>
<polygon fill="none" stroke="black" points="422.5,-368 422.5,-390 589.5,-390 589.5,-368 422.5,-368"/>
<image xlink:href="../../images/foreignKeys.png" width="11px" height="12px" preserveAspectRatio="xMinYMin meet" x="427.5" y="-385"/>
<text text-anchor="start" x="442.5" y="-376.2" font-family="Helvetica,sans-Serif" font-size="11.00">client_reln_cv_id</text>
<polygon fill="none" stroke="black" points="422.5,-350 422.5,-368 589.5,-368 589.5,-350 422.5,-350"/>
<text text-anchor="start" x="425.5" y="-356.2" font-family="Helvetica,sans-Serif" font-size="11.00">...</text>
<polygon fill="#ffffff" stroke="transparent" points="422.5,-332 422.5,-350 486.5,-350 486.5,-332 422.5,-332"/>
<polygon fill="none" stroke="black" points="422.5,-332 422.5,-350 486.5,-350 486.5,-332 422.5,-332"/>
<text text-anchor="start" x="425.5" y="-338.2" font-family="Helvetica,sans-Serif" font-size="11.00">&lt; 2</text>
<polygon fill="#ffffff" stroke="transparent" points="486.5,-332 486.5,-350 546.5,-350 546.5,-332 486.5,-332"/>
<polygon fill="none" stroke="black" points="486.5,-332 486.5,-350 546.5,-350 546.5,-332 486.5,-332"/>
<text text-anchor="start" x="510.5" y="-338.2" font-family="Helvetica,sans-Serif" font-size="11.00">0 rows</text>
<polygon fill="#ffffff" stroke="transparent" points="546.5,-332 546.5,-350 589.5,-350 589.5,-332 546.5,-332"/>
<polygon fill="none" stroke="black" points="546.5,-332 546.5,-350 589.5,-350 589.5,-332 546.5,-332"/>
<text text-anchor="start" x="570.5" y="-338.2" font-family="Helvetica,sans-Serif" font-size="11.00">1 &gt;</text>
</a>
</g>
</g>
<!-- m_code_value -->
<g id="node4" class="node">
<title>m_code_value</title>
<g id="a_node4"><a xlink:href="../../tables/m_code_value.html" xlink:title="m_code_value" target="_top">
<polygon fill="#ffffff" stroke="transparent" points="8,-281 8,-339 128,-339 128,-281 8,-281"/>
<polygon fill="#f5f5f5" stroke="transparent" points="8,-317 8,-339 128,-339 128,-317 8,-317"/>
<polygon fill="none" stroke="black" points="8,-317 8,-339 128,-339 128,-317 8,-317"/>
<text text-anchor="start" x="13" y="-326.2" font-family="Helvetica,sans-Serif" font-weight="bold" font-size="11.00">m_code_value</text>
<text text-anchor="start" x="93" y="-325.2" font-family="Helvetica,sans-Serif" font-size="11.00">[table]</text>
<polygon fill="none" stroke="black" points="8,-299 8,-317 128,-317 128,-299 8,-299"/>
<text text-anchor="start" x="11" y="-305.2" font-family="Helvetica,sans-Serif" font-size="11.00">...</text>
<polygon fill="#ffffff" stroke="transparent" points="8,-281 8,-299 45,-299 45,-281 8,-281"/>
<polygon fill="none" stroke="black" points="8,-281 8,-299 45,-299 45,-281 8,-281"/>
<text text-anchor="start" x="11" y="-287.2" font-family="Helvetica,sans-Serif" font-size="11.00">&lt; 1</text>
<polygon fill="#ffffff" stroke="transparent" points="45,-281 45,-299 92,-299 92,-281 45,-281"/>
<polygon fill="none" stroke="black" points="45,-281 45,-299 92,-299 92,-281 45,-281"/>
<text text-anchor="start" x="56" y="-287.2" font-family="Helvetica,sans-Serif" font-size="11.00">0 rows</text>
<polygon fill="#ffffff" stroke="transparent" points="92,-281 92,-299 128,-299 128,-281 92,-281"/>
<polygon fill="none" stroke="black" points="92,-281 92,-299 128,-299 128,-281 92,-281"/>
<text text-anchor="start" x="103" y="-287.2" font-family="Helvetica,sans-Serif" font-size="11.00">25 &gt;</text>
</a>
</g>
</g>
<!-- m_guarantor&#45;&gt;m_code_value -->
<g id="edge2" class="edge">
<title>m_guarantor:w&#45;&gt;m_code_value:e</title>
<path fill="none" stroke="black" d="M407.03,-379.12C305.04,-380.74 265.67,-398.14 169,-350 145.93,-338.51 154.78,-308 129,-308"/>
<polygon fill="black" stroke="black" points="413.5,-379.06 421.53,-382.6 417.5,-379.03 421.5,-379 421.5,-379 421.5,-379 417.5,-379.03 421.47,-375.4 413.5,-379.06 413.5,-379.06"/>
<ellipse fill="none" stroke="black" cx="410.3" cy="-379.09" rx="3.2" ry="3.2"/>
</g>
<!-- m_loan -->
<g id="node5" class="node">
<title>m_loan</title>
<g id="a_node5"><a xlink:href="../../tables/m_loan.html" xlink:title="m_loan" target="_top">
<polygon fill="#ffffff" stroke="transparent" points="204,-281 204,-339 299,-339 299,-281 204,-281"/>
<polygon fill="#f5f5f5" stroke="transparent" points="204.5,-317 204.5,-339 299.5,-339 299.5,-317 204.5,-317"/>
<polygon fill="none" stroke="black" points="204.5,-317 204.5,-339 299.5,-339 299.5,-317 204.5,-317"/>
<text text-anchor="start" x="209.5" y="-326.2" font-family="Helvetica,sans-Serif" font-weight="bold" font-size="11.00">m_loan</text>
<text text-anchor="start" x="264.5" y="-325.2" font-family="Helvetica,sans-Serif" font-size="11.00">[table]</text>
<polygon fill="none" stroke="black" points="204.5,-299 204.5,-317 299.5,-317 299.5,-299 204.5,-299"/>
<text text-anchor="start" x="207.5" y="-305.2" font-family="Helvetica,sans-Serif" font-size="11.00">...</text>
<polygon fill="#ffffff" stroke="transparent" points="204.5,-281 204.5,-299 232.5,-299 232.5,-281 204.5,-281"/>
<polygon fill="none" stroke="black" points="204.5,-281 204.5,-299 232.5,-299 232.5,-281 204.5,-281"/>
<text text-anchor="start" x="207.5" y="-287.2" font-family="Helvetica,sans-Serif" font-size="11.00">&lt; 15</text>
<polygon fill="#ffffff" stroke="transparent" points="232.5,-281 232.5,-299 271.5,-299 271.5,-281 232.5,-281"/>
<polygon fill="none" stroke="black" points="232.5,-281 232.5,-299 271.5,-299 271.5,-281 232.5,-281"/>
<text text-anchor="start" x="235.5" y="-287.2" font-family="Helvetica,sans-Serif" font-size="11.00">0 rows</text>
<polygon fill="#ffffff" stroke="transparent" points="271.5,-281 271.5,-299 299.5,-299 299.5,-281 271.5,-281"/>
<polygon fill="none" stroke="black" points="271.5,-281 271.5,-299 299.5,-299 299.5,-281 271.5,-281"/>
<text text-anchor="start" x="274.5" y="-287.2" font-family="Helvetica,sans-Serif" font-size="11.00">24 &gt;</text>
</a>
</g>
</g>
<!-- m_guarantor&#45;&gt;m_loan -->
<g id="edge3" class="edge">
<title>m_guarantor:w&#45;&gt;m_loan:e</title>
<path fill="none" stroke="black" d="M407.03,-399.39C355.46,-387.04 363.03,-308 300.5,-308"/>
<polygon fill="black" stroke="black" points="413.55,-400.11 421.1,-404.58 417.52,-400.56 421.5,-401 421.5,-401 421.5,-401 417.52,-400.56 421.9,-397.42 413.55,-400.11 413.55,-400.11"/>
<ellipse fill="none" stroke="black" cx="410.37" cy="-399.76" rx="3.2" ry="3.2"/>
</g>
<!-- m_loan&#45;&gt;m_code_value -->
<g id="edge9" class="edge">
<title>m_loan:w&#45;&gt;m_code_value:e</title>
<path fill="none" stroke="black" d="M189.3,-305.58C167.1,-302.15 156.81,-302.96 129,-308"/>
<polygon fill="black" stroke="black" points="195.61,-306.66 202.89,-311.55 199.56,-307.33 203.5,-308 203.5,-308 203.5,-308 199.56,-307.33 204.11,-304.45 195.61,-306.66 195.61,-306.66"/>
<ellipse fill="none" stroke="black" cx="192.46" cy="-306.12" rx="3.2" ry="3.2"/>
</g>
<!-- m_loan&#45;&gt;m_code_value -->
<g id="edge10" class="edge">
<title>m_loan:w&#45;&gt;m_code_value:e</title>
<path fill="none" stroke="black" d="M189.3,-310.82C167.1,-314.82 156.81,-313.88 129,-308"/>
<polygon fill="black" stroke="black" points="195.65,-309.56 204.2,-311.53 199.58,-308.78 203.5,-308 203.5,-308 203.5,-308 199.58,-308.78 202.8,-304.47 195.65,-309.56 195.65,-309.56"/>
<ellipse fill="none" stroke="black" cx="192.52" cy="-310.18" rx="3.2" ry="3.2"/>
</g>
<!-- m_guarantor_funding_details -->
<g id="node6" class="node">
<title>m_guarantor_funding_details</title>
<g id="a_node6"><a xlink:href="../../tables/m_guarantor_funding_details.html" xlink:title="m_guarantor_funding_details" target="_top">
<polygon fill="#ffffff" stroke="transparent" points="685,-236 685,-456 976,-456 976,-236 685,-236"/>
<polygon fill="#f5f5f5" stroke="transparent" points="687.5,-432 687.5,-454 974.5,-454 974.5,-432 687.5,-432"/>
<polygon fill="none" stroke="black" points="687.5,-432 687.5,-454 974.5,-454 974.5,-432 687.5,-432"/>
<text text-anchor="start" x="692.5" y="-441.2" font-family="Helvetica,sans-Serif" font-weight="bold" font-size="11.00">m_guarantor_funding_details</text>
<text text-anchor="start" x="939.5" y="-440.2" font-family="Helvetica,sans-Serif" font-size="11.00">[table]</text>
<polygon fill="none" stroke="black" points="687.5,-410 687.5,-432 904.5,-432 904.5,-410 687.5,-410"/>
<image xlink:href="../../images/primaryKeys.png" width="11px" height="12px" preserveAspectRatio="xMinYMin meet" x="692.5" y="-427"/>
<text text-anchor="start" x="707.5" y="-418.2" font-family="Helvetica,sans-Serif" font-size="11.00">id</text>
<polygon fill="none" stroke="black" points="904.5,-410 904.5,-432 974.5,-432 974.5,-410 904.5,-410"/>
<text text-anchor="start" x="907.5" y="-418.2" font-family="Helvetica,sans-Serif" font-size="11.00">bigint[19]</text>
<polygon fill="#ffffff" stroke="transparent" points="687.5,-388 687.5,-410 904.5,-410 904.5,-388 687.5,-388"/>
<polygon fill="none" stroke="black" points="687.5,-388 687.5,-410 904.5,-410 904.5,-388 687.5,-388"/>
<image xlink:href="../../images/foreignKeys.png" width="11px" height="12px" preserveAspectRatio="xMinYMin meet" x="692.5" y="-405"/>
<text text-anchor="start" x="707.5" y="-396.2" font-family="Helvetica,sans-Serif" font-size="11.00">guarantor_id</text>
<polygon fill="none" stroke="black" points="904.5,-388 904.5,-410 974.5,-410 974.5,-388 904.5,-388"/>
<text text-anchor="start" x="907.5" y="-396.2" font-family="Helvetica,sans-Serif" font-size="11.00">bigint[19]</text>
<polygon fill="#ffffff" stroke="transparent" points="687.5,-366 687.5,-388 904.5,-388 904.5,-366 687.5,-366"/>
<polygon fill="none" stroke="black" points="687.5,-366 687.5,-388 904.5,-388 904.5,-366 687.5,-366"/>
<image xlink:href="../../images/foreignKeys.png" width="11px" height="12px" preserveAspectRatio="xMinYMin meet" x="692.5" y="-383"/>
<text text-anchor="start" x="707.5" y="-374.2" font-family="Helvetica,sans-Serif" font-size="11.00">account_associations_id</text>
<polygon fill="none" stroke="black" points="904.5,-366 904.5,-388 974.5,-388 974.5,-366 904.5,-366"/>
<text text-anchor="start" x="907.5" y="-374.2" font-family="Helvetica,sans-Serif" font-size="11.00">bigint[19]</text>
<polygon fill="none" stroke="black" points="687.5,-344 687.5,-366 904.5,-366 904.5,-344 687.5,-344"/>
<text text-anchor="start" x="707.5" y="-352.2" font-family="Helvetica,sans-Serif" font-size="11.00">amount</text>
<polygon fill="none" stroke="black" points="904.5,-344 904.5,-366 974.5,-366 974.5,-344 904.5,-344"/>
<text text-anchor="start" x="907.5" y="-352.2" font-family="Helvetica,sans-Serif" font-size="11.00">decimal[19,6]</text>
<polygon fill="none" stroke="black" points="687.5,-322 687.5,-344 904.5,-344 904.5,-322 687.5,-322"/>
<text text-anchor="start" x="707.5" y="-330.2" font-family="Helvetica,sans-Serif" font-size="11.00">amount_released_derived</text>
<polygon fill="none" stroke="black" points="904.5,-322 904.5,-344 974.5,-344 974.5,-322 904.5,-322"/>
<text text-anchor="start" x="907.5" y="-330.2" font-family="Helvetica,sans-Serif" font-size="11.00">decimal[19,6]</text>
<polygon fill="none" stroke="black" points="687.5,-300 687.5,-322 904.5,-322 904.5,-300 687.5,-300"/>
<text text-anchor="start" x="707.5" y="-308.2" font-family="Helvetica,sans-Serif" font-size="11.00">amount_remaining_derived</text>
<polygon fill="none" stroke="black" points="904.5,-300 904.5,-322 974.5,-322 974.5,-300 904.5,-300"/>
<text text-anchor="start" x="907.5" y="-308.2" font-family="Helvetica,sans-Serif" font-size="11.00">decimal[19,6]</text>
<polygon fill="none" stroke="black" points="687.5,-278 687.5,-300 904.5,-300 904.5,-278 687.5,-278"/>
<text text-anchor="start" x="707.5" y="-286.2" font-family="Helvetica,sans-Serif" font-size="11.00">amount_transfered_derived</text>
<polygon fill="none" stroke="black" points="904.5,-278 904.5,-300 974.5,-300 974.5,-278 904.5,-278"/>
<text text-anchor="start" x="907.5" y="-286.2" font-family="Helvetica,sans-Serif" font-size="11.00">decimal[19,6]</text>
<polygon fill="none" stroke="black" points="687.5,-256 687.5,-278 904.5,-278 904.5,-256 687.5,-256"/>
<text text-anchor="start" x="707.5" y="-264.2" font-family="Helvetica,sans-Serif" font-size="11.00">status_enum</text>
<polygon fill="none" stroke="black" points="904.5,-256 904.5,-278 974.5,-278 974.5,-256 904.5,-256"/>
<text text-anchor="start" x="907.5" y="-264.2" font-family="Helvetica,sans-Serif" font-size="11.00">smallint[5]</text>
<polygon fill="#ffffff" stroke="transparent" points="687.5,-238 687.5,-256 787.5,-256 787.5,-238 687.5,-238"/>
<polygon fill="none" stroke="black" points="687.5,-238 687.5,-256 787.5,-256 787.5,-238 687.5,-238"/>
<text text-anchor="start" x="690.5" y="-244.2" font-family="Helvetica,sans-Serif" font-size="11.00">&lt; 2</text>
<polygon fill="#ffffff" stroke="transparent" points="787.5,-238 787.5,-256 904.5,-256 904.5,-238 787.5,-238"/>
<polygon fill="none" stroke="black" points="787.5,-238 787.5,-256 904.5,-256 904.5,-238 787.5,-238"/>
<text text-anchor="start" x="868.5" y="-244.2" font-family="Helvetica,sans-Serif" font-size="11.00">0 rows</text>
<polygon fill="#ffffff" stroke="transparent" points="904.5,-238 904.5,-256 974.5,-256 974.5,-238 904.5,-238"/>
<polygon fill="none" stroke="black" points="904.5,-238 904.5,-256 974.5,-256 974.5,-238 904.5,-238"/>
<text text-anchor="start" x="955.5" y="-244.2" font-family="Helvetica,sans-Serif" font-size="11.00">1 &gt;</text>
<polygon fill="none" stroke="black" stroke-width="2" points="686,-237 686,-455 975,-455 975,-237 686,-237"/>
</a>
</g>
</g>
<!-- m_guarantor_funding_details&#45;&gt;m_guarantor -->
<g id="edge5" class="edge">
<title>m_guarantor_funding_details:w&#45;&gt;m_guarantor:e</title>
<path fill="none" stroke="black" d="M671.98,-399.97C640.05,-404.46 629.15,-423 590.5,-423"/>
<polygon fill="black" stroke="black" points="678.52,-399.53 686.74,-402.59 682.51,-399.27 686.5,-399 686.5,-399 686.5,-399 682.51,-399.27 686.26,-395.41 678.52,-399.53 678.52,-399.53"/>
<ellipse fill="none" stroke="black" cx="675.32" cy="-399.75" rx="3.2" ry="3.2"/>
</g>
<!-- m_portfolio_account_associations -->
<g id="node7" class="node">
<title>m_portfolio_account_associations</title>
<g id="a_node7"><a xlink:href="../../tables/m_portfolio_account_associations.html" xlink:title="m_portfolio_account_associations" target="_top">
<polygon fill="#ffffff" stroke="transparent" points="382,-116 382,-284 629,-284 629,-116 382,-116"/>
<polygon fill="#f5f5f5" stroke="transparent" points="382.5,-262 382.5,-284 629.5,-284 629.5,-262 382.5,-262"/>
<polygon fill="none" stroke="black" points="382.5,-262 382.5,-284 629.5,-284 629.5,-262 382.5,-262"/>
<text text-anchor="start" x="387.5" y="-271.2" font-family="Helvetica,sans-Serif" font-weight="bold" font-size="11.00">m_portfolio_account_associations</text>
<text text-anchor="start" x="594.5" y="-270.2" font-family="Helvetica,sans-Serif" font-size="11.00">[table]</text>
<polygon fill="none" stroke="black" points="382.5,-240 382.5,-262 629.5,-262 629.5,-240 382.5,-240"/>
<image xlink:href="../../images/primaryKeys.png" width="11px" height="12px" preserveAspectRatio="xMinYMin meet" x="387.5" y="-257"/>
<text text-anchor="start" x="402.5" y="-248.2" font-family="Helvetica,sans-Serif" font-size="11.00">id</text>
<polygon fill="#ffffff" stroke="transparent" points="382.5,-218 382.5,-240 629.5,-240 629.5,-218 382.5,-218"/>
<polygon fill="none" stroke="black" points="382.5,-218 382.5,-240 629.5,-240 629.5,-218 382.5,-218"/>
<image xlink:href="../../images/foreignKeys.png" width="11px" height="12px" preserveAspectRatio="xMinYMin meet" x="387.5" y="-235"/>
<text text-anchor="start" x="402.5" y="-226.2" font-family="Helvetica,sans-Serif" font-size="11.00">loan_account_id</text>
<polygon fill="#ffffff" stroke="transparent" points="382.5,-196 382.5,-218 629.5,-218 629.5,-196 382.5,-196"/>
<polygon fill="none" stroke="black" points="382.5,-196 382.5,-218 629.5,-218 629.5,-196 382.5,-196"/>
<image xlink:href="../../images/foreignKeys.png" width="11px" height="12px" preserveAspectRatio="xMinYMin meet" x="387.5" y="-213"/>
<text text-anchor="start" x="402.5" y="-204.2" font-family="Helvetica,sans-Serif" font-size="11.00">savings_account_id</text>
<polygon fill="#ffffff" stroke="transparent" points="382.5,-174 382.5,-196 629.5,-196 629.5,-174 382.5,-174"/>
<polygon fill="none" stroke="black" points="382.5,-174 382.5,-196 629.5,-196 629.5,-174 382.5,-174"/>
<image xlink:href="../../images/foreignKeys.png" width="11px" height="12px" preserveAspectRatio="xMinYMin meet" x="387.5" y="-191"/>
<text text-anchor="start" x="402.5" y="-182.2" font-family="Helvetica,sans-Serif" font-size="11.00">linked_loan_account_id</text>
<polygon fill="#ffffff" stroke="transparent" points="382.5,-152 382.5,-174 629.5,-174 629.5,-152 382.5,-152"/>
<polygon fill="none" stroke="black" points="382.5,-152 382.5,-174 629.5,-174 629.5,-152 382.5,-152"/>
<image xlink:href="../../images/foreignKeys.png" width="11px" height="12px" preserveAspectRatio="xMinYMin meet" x="387.5" y="-169"/>
<text text-anchor="start" x="402.5" y="-160.2" font-family="Helvetica,sans-Serif" font-size="11.00">linked_savings_account_id</text>
<polygon fill="none" stroke="black" points="382.5,-134 382.5,-152 629.5,-152 629.5,-134 382.5,-134"/>
<text text-anchor="start" x="385.5" y="-140.2" font-family="Helvetica,sans-Serif" font-size="11.00">...</text>
<polygon fill="#ffffff" stroke="transparent" points="382.5,-116 382.5,-134 486.5,-134 486.5,-116 382.5,-116"/>
<polygon fill="none" stroke="black" points="382.5,-116 382.5,-134 486.5,-134 486.5,-116 382.5,-116"/>
<text text-anchor="start" x="385.5" y="-122.2" font-family="Helvetica,sans-Serif" font-size="11.00">&lt; 4</text>
<polygon fill="#ffffff" stroke="transparent" points="486.5,-116 486.5,-134 566.5,-134 566.5,-116 486.5,-116"/>
<polygon fill="none" stroke="black" points="486.5,-116 486.5,-134 566.5,-134 566.5,-116 486.5,-116"/>
<text text-anchor="start" x="530.5" y="-122.2" font-family="Helvetica,sans-Serif" font-size="11.00">0 rows</text>
<polygon fill="#ffffff" stroke="transparent" points="566.5,-116 566.5,-134 629.5,-134 629.5,-116 566.5,-116"/>
<polygon fill="none" stroke="black" points="566.5,-116 566.5,-134 629.5,-134 629.5,-116 566.5,-116"/>
<text text-anchor="start" x="610.5" y="-122.2" font-family="Helvetica,sans-Serif" font-size="11.00">1 &gt;</text>
</a>
</g>
</g>
<!-- m_guarantor_funding_details&#45;&gt;m_portfolio_account_associations -->
<g id="edge4" class="edge">
<title>m_guarantor_funding_details:w&#45;&gt;m_portfolio_account_associations:e</title>
<path fill="none" stroke="black" d="M672.42,-373.89C636.58,-354.48 686.04,-251 630.5,-251"/>
<polygon fill="black" stroke="black" points="678.69,-375.27 685.72,-380.51 682.59,-376.14 686.5,-377 686.5,-377 686.5,-377 682.59,-376.14 687.28,-373.49 678.69,-375.27 678.69,-375.27"/>
<ellipse fill="none" stroke="black" cx="675.56" cy="-374.58" rx="3.2" ry="3.2"/>
</g>
<!-- m_portfolio_account_associations&#45;&gt;m_savings_account -->
<g id="edge13" class="edge">
<title>m_portfolio_account_associations:w&#45;&gt;m_savings_account:e</title>
<path fill="none" stroke="black" d="M366.72,-163C353.54,-163 345.69,-163 327.5,-163"/>
<polygon fill="black" stroke="black" points="373.5,-163 381.5,-166.6 377.5,-163 381.5,-163 381.5,-163 381.5,-163 377.5,-163 381.5,-159.4 373.5,-163 373.5,-163"/>
<ellipse fill="none" stroke="black" cx="370.3" cy="-163" rx="3.2" ry="3.2"/>
</g>
<!-- m_portfolio_account_associations&#45;&gt;m_savings_account -->
<g id="edge15" class="edge">
<title>m_portfolio_account_associations:w&#45;&gt;m_savings_account:e</title>
<path fill="none" stroke="black" d="M367.67,-202.94C352.14,-192.05 352.65,-163 327.5,-163"/>
<polygon fill="black" stroke="black" points="373.82,-204.75 380.49,-210.45 377.66,-205.87 381.5,-207 381.5,-207 381.5,-207 377.66,-205.87 382.51,-203.55 373.82,-204.75 373.82,-204.75"/>
<ellipse fill="none" stroke="black" cx="370.75" cy="-203.84" rx="3.2" ry="3.2"/>
</g>
<!-- m_portfolio_account_associations&#45;&gt;m_loan -->
<g id="edge12" class="edge">
<title>m_portfolio_account_associations:w&#45;&gt;m_loan:e</title>
<path fill="none" stroke="black" d="M367.03,-187.57C323.77,-205.23 360.33,-308 300.5,-308"/>
<polygon fill="black" stroke="black" points="373.62,-186.4 382.13,-188.54 377.56,-185.7 381.5,-185 381.5,-185 381.5,-185 377.56,-185.7 380.87,-181.46 373.62,-186.4 373.62,-186.4"/>
<ellipse fill="none" stroke="black" cx="370.47" cy="-186.96" rx="3.2" ry="3.2"/>
</g>
<!-- m_portfolio_account_associations&#45;&gt;m_loan -->
<g id="edge14" class="edge">
<title>m_portfolio_account_associations:w&#45;&gt;m_loan:e</title>
<path fill="none" stroke="black" d="M367.32,-231.63C334.66,-245.34 345.29,-308 300.5,-308"/>
<polygon fill="black" stroke="black" points="373.63,-230.46 382.16,-232.54 377.57,-229.73 381.5,-229 381.5,-229 381.5,-229 377.57,-229.73 380.84,-225.46 373.63,-230.46 373.63,-230.46"/>
<ellipse fill="none" stroke="black" cx="370.49" cy="-231.04" rx="3.2" ry="3.2"/>
</g>
<!-- m_guarantor_transaction -->
<g id="node8" class="node">
<title>m_guarantor_transaction</title>
<g id="a_node8"><a xlink:href="../../tables/m_guarantor_transaction.html" xlink:title="m_guarantor_transaction" target="_top">
<polygon fill="#ffffff" stroke="transparent" points="1025,-115 1025,-261 1256,-261 1256,-115 1025,-115"/>
<polygon fill="#f5f5f5" stroke="transparent" points="1025.5,-239 1025.5,-261 1256.5,-261 1256.5,-239 1025.5,-239"/>
<polygon fill="none" stroke="black" points="1025.5,-239 1025.5,-261 1256.5,-261 1256.5,-239 1025.5,-239"/>
<text text-anchor="start" x="1030.5" y="-248.2" font-family="Helvetica,sans-Serif" font-weight="bold" font-size="11.00">m_guarantor_transaction</text>
<text text-anchor="start" x="1221.5" y="-247.2" font-family="Helvetica,sans-Serif" font-size="11.00">[table]</text>
<polygon fill="none" stroke="black" points="1025.5,-217 1025.5,-239 1256.5,-239 1256.5,-217 1025.5,-217"/>
<image xlink:href="../../images/primaryKeys.png" width="11px" height="12px" preserveAspectRatio="xMinYMin meet" x="1030.5" y="-234"/>
<text text-anchor="start" x="1045.5" y="-225.2" font-family="Helvetica,sans-Serif" font-size="11.00">id</text>
<polygon fill="#ffffff" stroke="transparent" points="1025.5,-195 1025.5,-217 1256.5,-217 1256.5,-195 1025.5,-195"/>
<polygon fill="none" stroke="black" points="1025.5,-195 1025.5,-217 1256.5,-217 1256.5,-195 1025.5,-195"/>
<image xlink:href="../../images/foreignKeys.png" width="11px" height="12px" preserveAspectRatio="xMinYMin meet" x="1030.5" y="-212"/>
<text text-anchor="start" x="1045.5" y="-203.2" font-family="Helvetica,sans-Serif" font-size="11.00">guarantor_fund_detail_id</text>
<polygon fill="#ffffff" stroke="transparent" points="1025.5,-173 1025.5,-195 1256.5,-195 1256.5,-173 1025.5,-173"/>
<polygon fill="none" stroke="black" points="1025.5,-173 1025.5,-195 1256.5,-195 1256.5,-173 1025.5,-173"/>
<image xlink:href="../../images/foreignKeys.png" width="11px" height="12px" preserveAspectRatio="xMinYMin meet" x="1030.5" y="-190"/>
<text text-anchor="start" x="1045.5" y="-181.2" font-family="Helvetica,sans-Serif" font-size="11.00">loan_transaction_id</text>
<polygon fill="#ffffff" stroke="transparent" points="1025.5,-151 1025.5,-173 1256.5,-173 1256.5,-151 1025.5,-151"/>
<polygon fill="none" stroke="black" points="1025.5,-151 1025.5,-173 1256.5,-173 1256.5,-151 1025.5,-151"/>
<image xlink:href="../../images/foreignKeys.png" width="11px" height="12px" preserveAspectRatio="xMinYMin meet" x="1030.5" y="-168"/>
<text text-anchor="start" x="1045.5" y="-159.2" font-family="Helvetica,sans-Serif" font-size="11.00">deposit_on_hold_transaction_id</text>
<polygon fill="none" stroke="black" points="1025.5,-133 1025.5,-151 1256.5,-151 1256.5,-133 1025.5,-133"/>
<text text-anchor="start" x="1028.5" y="-139.2" font-family="Helvetica,sans-Serif" font-size="11.00">...</text>
<polygon fill="#ffffff" stroke="transparent" points="1025.5,-115 1025.5,-133 1125.5,-133 1125.5,-115 1025.5,-115"/>
<polygon fill="none" stroke="black" points="1025.5,-115 1025.5,-133 1125.5,-133 1125.5,-115 1025.5,-115"/>
<text text-anchor="start" x="1028.5" y="-121.2" font-family="Helvetica,sans-Serif" font-size="11.00">&lt; 3</text>
<polygon fill="#ffffff" stroke="transparent" points="1125.5,-115 1125.5,-133 1203.5,-133 1203.5,-115 1125.5,-115"/>
<polygon fill="none" stroke="black" points="1125.5,-115 1125.5,-133 1203.5,-133 1203.5,-115 1125.5,-115"/>
<text text-anchor="start" x="1167.5" y="-121.2" font-family="Helvetica,sans-Serif" font-size="11.00">0 rows</text>
<polygon fill="#ffffff" stroke="transparent" points="1203.5,-115 1203.5,-133 1256.5,-133 1256.5,-115 1203.5,-115"/>
<polygon fill="none" stroke="black" points="1203.5,-115 1203.5,-133 1256.5,-133 1256.5,-115 1203.5,-115"/>
<text text-anchor="start" x="1246.5" y="-121.2" font-family="Helvetica,sans-Serif" font-size="11.00"> &#160;</text>
</a>
</g>
</g>
<!-- m_guarantor_transaction&#45;&gt;m_deposit_account_on_hold_transaction -->
<g id="edge6" class="edge">
<title>m_guarantor_transaction:w&#45;&gt;m_deposit_account_on_hold_transaction:e</title>
<path fill="none" stroke="black" d="M1010.25,-159.46C1001.93,-156.05 996.69,-149.99 984,-146 833.02,-98.58 795.75,-64 637.5,-64"/>
<polygon fill="black" stroke="black" points="1016.62,-160.59 1023.87,-165.54 1020.56,-161.3 1024.5,-162 1024.5,-162 1024.5,-162 1020.56,-161.3 1025.13,-158.46 1016.62,-160.59 1016.62,-160.59"/>
<ellipse fill="none" stroke="black" cx="1013.47" cy="-160.03" rx="3.2" ry="3.2"/>
</g>
<!-- m_guarantor_transaction&#45;&gt;m_guarantor_funding_details -->
<g id="edge7" class="edge">
<title>m_guarantor_transaction:w&#45;&gt;m_guarantor_funding_details:e</title>
<path fill="none" stroke="black" d="M1010.12,-207.99C942.36,-229.67 1067.95,-421 975.5,-421"/>
<polygon fill="black" stroke="black" points="1016.58,-207.1 1024.99,-209.57 1020.54,-206.55 1024.5,-206 1024.5,-206 1024.5,-206 1020.54,-206.55 1024.01,-202.43 1016.58,-207.1 1016.58,-207.1"/>
<ellipse fill="none" stroke="black" cx="1013.41" cy="-207.54" rx="3.2" ry="3.2"/>
</g>
<!-- m_loan_transaction -->
<g id="node9" class="node">
<title>m_loan_transaction</title>
<g id="a_node9"><a xlink:href="../../tables/m_loan_transaction.html" xlink:title="m_loan_transaction" target="_top">
<polygon fill="#ffffff" stroke="transparent" points="756.5,-157 756.5,-215 904.5,-215 904.5,-157 756.5,-157"/>
<polygon fill="#f5f5f5" stroke="transparent" points="756.5,-193 756.5,-215 904.5,-215 904.5,-193 756.5,-193"/>
<polygon fill="none" stroke="black" points="756.5,-193 756.5,-215 904.5,-215 904.5,-193 756.5,-193"/>
<text text-anchor="start" x="761.5" y="-202.2" font-family="Helvetica,sans-Serif" font-weight="bold" font-size="11.00">m_loan_transaction</text>
<text text-anchor="start" x="869.5" y="-201.2" font-family="Helvetica,sans-Serif" font-size="11.00">[table]</text>
<polygon fill="none" stroke="black" points="756.5,-175 756.5,-193 904.5,-193 904.5,-175 756.5,-175"/>
<text text-anchor="start" x="759.5" y="-181.2" font-family="Helvetica,sans-Serif" font-size="11.00">...</text>
<polygon fill="#ffffff" stroke="transparent" points="756.5,-157 756.5,-175 810.5,-175 810.5,-157 756.5,-157"/>
<polygon fill="none" stroke="black" points="756.5,-157 756.5,-175 810.5,-175 810.5,-157 756.5,-157"/>
<text text-anchor="start" x="759.5" y="-163.2" font-family="Helvetica,sans-Serif" font-size="11.00">&lt; 3</text>
<polygon fill="#ffffff" stroke="transparent" points="810.5,-157 810.5,-175 865.5,-175 865.5,-157 810.5,-157"/>
<polygon fill="none" stroke="black" points="810.5,-157 810.5,-175 865.5,-175 865.5,-157 810.5,-157"/>
<text text-anchor="start" x="829.5" y="-163.2" font-family="Helvetica,sans-Serif" font-size="11.00">0 rows</text>
<polygon fill="#ffffff" stroke="transparent" points="865.5,-157 865.5,-175 904.5,-175 904.5,-157 865.5,-157"/>
<polygon fill="none" stroke="black" points="865.5,-157 865.5,-175 904.5,-175 904.5,-157 865.5,-157"/>
<text text-anchor="start" x="885.5" y="-163.2" font-family="Helvetica,sans-Serif" font-size="11.00">8 &gt;</text>
</a>
</g>
</g>
<!-- m_guarantor_transaction&#45;&gt;m_loan_transaction -->
<g id="edge8" class="edge">
<title>m_guarantor_transaction:w&#45;&gt;m_loan_transaction:e</title>
<path fill="none" stroke="black" d="M1010.07,-184C968.65,-184 953.22,-184 905.5,-184"/>
<polygon fill="black" stroke="black" points="1016.5,-184 1024.5,-187.6 1020.5,-184 1024.5,-184 1024.5,-184 1024.5,-184 1020.5,-184 1024.5,-180.4 1016.5,-184 1016.5,-184"/>
<ellipse fill="none" stroke="black" cx="1013.3" cy="-184" rx="3.2" ry="3.2"/>
</g>
<!-- m_loan_transaction&#45;&gt;m_loan -->
<g id="edge11" class="edge">
<title>m_loan_transaction:w&#45;&gt;m_loan:e</title>
<path fill="none" stroke="black" d="M740.79,-184.72C712.62,-187.76 700.6,-200.55 677,-225 653.39,-249.46 672.38,-275.29 644,-294 580.21,-336.04 376.9,-308 300.5,-308"/>
<polygon fill="black" stroke="black" points="747.51,-184.39 755.68,-187.6 751.5,-184.2 755.5,-184 755.5,-184 755.5,-184 751.5,-184.2 755.32,-180.4 747.51,-184.39 747.51,-184.39"/>
<ellipse fill="none" stroke="black" cx="744.31" cy="-184.55" rx="3.2" ry="3.2"/>
</g>
</g>
</svg>
