<?xml version="1.0" encoding="UTF-8" standalone="no"?>
<!DOCTYPE svg PUBLIC "-//W3C//DTD SVG 1.1//EN"
 "http://www.w3.org/Graphics/SVG/1.1/DTD/svg11.dtd">
<!-- Generated by graphviz version 2.43.0 (0)
 -->
<!-- Title: oneDegreeRelationshipsDiagram Pages: 1 -->
<svg width="480pt" height="197pt"
 viewBox="0.00 0.00 480.00 197.00" xmlns="http://www.w3.org/2000/svg" xmlns:xlink="http://www.w3.org/1999/xlink">
<g id="graph0" class="graph" transform="scale(1 1) rotate(0) translate(4 193)">
<title>oneDegreeRelationshipsDiagram</title>
<polygon fill="#ffffff" stroke="transparent" points="-4,4 -4,-193 476,-193 476,4 -4,4"/>
<text text-anchor="middle" x="71.5" y="-7.2" font-family="Helvetica,sans-Serif" font-size="11.00">Generated by SchemaSpy</text>
<!-- m_hook_registered_events -->
<g id="node1" class="node">
<title>m_hook_registered_events</title>
<g id="a_node1"><a xlink:href="../../tables/m_hook_registered_events.html" xlink:title="m_hook_registered_events" target="_top">
<polygon fill="#ffffff" stroke="transparent" points="199,-53 199,-185 464,-185 464,-53 199,-53"/>
<polygon fill="#f5f5f5" stroke="transparent" points="201.5,-161 201.5,-183 462.5,-183 462.5,-161 201.5,-161"/>
<polygon fill="none" stroke="black" points="201.5,-161 201.5,-183 462.5,-183 462.5,-161 201.5,-161"/>
<text text-anchor="start" x="206.5" y="-170.2" font-family="Helvetica,sans-Serif" font-weight="bold" font-size="11.00">m_hook_registered_events</text>
<text text-anchor="start" x="427.5" y="-169.2" font-family="Helvetica,sans-Serif" font-size="11.00">[table]</text>
<polygon fill="none" stroke="black" points="201.5,-139 201.5,-161 401.5,-161 401.5,-139 201.5,-139"/>
<image xlink:href="../../images/primaryKeys.png" width="11px" height="12px" preserveAspectRatio="xMinYMin meet" x="206.5" y="-156"/>
<text text-anchor="start" x="221.5" y="-147.2" font-family="Helvetica,sans-Serif" font-size="11.00">id</text>
<polygon fill="none" stroke="black" points="401.5,-139 401.5,-161 462.5,-161 462.5,-139 401.5,-139"/>
<text text-anchor="start" x="404.5" y="-147.2" font-family="Helvetica,sans-Serif" font-size="11.00">bigint[19]</text>
<polygon fill="#ffffff" stroke="transparent" points="201.5,-117 201.5,-139 401.5,-139 401.5,-117 201.5,-117"/>
<polygon fill="none" stroke="black" points="201.5,-117 201.5,-139 401.5,-139 401.5,-117 201.5,-117"/>
<image xlink:href="../../images/foreignKeys.png" width="11px" height="12px" preserveAspectRatio="xMinYMin meet" x="206.5" y="-134"/>
<text text-anchor="start" x="221.5" y="-125.2" font-family="Helvetica,sans-Serif" font-size="11.00">hook_id</text>
<polygon fill="none" stroke="black" points="401.5,-117 401.5,-139 462.5,-139 462.5,-117 401.5,-117"/>
<text text-anchor="start" x="404.5" y="-125.2" font-family="Helvetica,sans-Serif" font-size="11.00">bigint[19]</text>
<polygon fill="none" stroke="black" points="201.5,-95 201.5,-117 401.5,-117 401.5,-95 201.5,-95"/>
<text text-anchor="start" x="221.5" y="-103.2" font-family="Helvetica,sans-Serif" font-size="11.00">entity_name</text>
<polygon fill="none" stroke="black" points="401.5,-95 401.5,-117 462.5,-117 462.5,-95 401.5,-95"/>
<text text-anchor="start" x="404.5" y="-103.2" font-family="Helvetica,sans-Serif" font-size="11.00">varchar[45]</text>
<polygon fill="none" stroke="black" points="201.5,-73 201.5,-95 401.5,-95 401.5,-73 201.5,-73"/>
<text text-anchor="start" x="221.5" y="-81.2" font-family="Helvetica,sans-Serif" font-size="11.00">action_name</text>
<polygon fill="none" stroke="black" points="401.5,-73 401.5,-95 462.5,-95 462.5,-73 401.5,-73"/>
<text text-anchor="start" x="404.5" y="-81.2" font-family="Helvetica,sans-Serif" font-size="11.00">varchar[45]</text>
<polygon fill="#ffffff" stroke="transparent" points="201.5,-55 201.5,-73 292.5,-73 292.5,-55 201.5,-55"/>
<polygon fill="none" stroke="black" points="201.5,-55 201.5,-73 292.5,-73 292.5,-55 201.5,-55"/>
<text text-anchor="start" x="204.5" y="-61.2" font-family="Helvetica,sans-Serif" font-size="11.00">&lt; 1</text>
<polygon fill="#ffffff" stroke="transparent" points="292.5,-55 292.5,-73 401.5,-73 401.5,-55 292.5,-55"/>
<polygon fill="none" stroke="black" points="292.5,-55 292.5,-73 401.5,-73 401.5,-55 292.5,-55"/>
<text text-anchor="start" x="365.5" y="-61.2" font-family="Helvetica,sans-Serif" font-size="11.00">0 rows</text>
<polygon fill="#ffffff" stroke="transparent" points="401.5,-55 401.5,-73 462.5,-73 462.5,-55 401.5,-55"/>
<polygon fill="none" stroke="black" points="401.5,-55 401.5,-73 462.5,-73 462.5,-55 401.5,-55"/>
<text text-anchor="start" x="443.5" y="-61.2" font-family="Helvetica,sans-Serif" font-size="11.00">0 &gt;</text>
<polygon fill="none" stroke="black" stroke-width="2" points="200,-54 200,-184 463,-184 463,-54 200,-54"/>
</a>
</g>
</g>
<!-- m_hook -->
<g id="node2" class="node">
<title>m_hook</title>
<g id="a_node2"><a xlink:href="../../tables/m_hook.html" xlink:title="m_hook" target="_top">
<polygon fill="#ffffff" stroke="transparent" points="8,-37 8,-161 150,-161 150,-37 8,-37"/>
<polygon fill="#f5f5f5" stroke="transparent" points="8,-139 8,-161 150,-161 150,-139 8,-139"/>
<polygon fill="none" stroke="black" points="8,-139 8,-161 150,-161 150,-139 8,-139"/>
<text text-anchor="start" x="13" y="-148.2" font-family="Helvetica,sans-Serif" font-weight="bold" font-size="11.00">m_hook</text>
<text text-anchor="start" x="115" y="-147.2" font-family="Helvetica,sans-Serif" font-size="11.00">[table]</text>
<polygon fill="none" stroke="black" points="8,-117 8,-139 150,-139 150,-117 8,-117"/>
<image xlink:href="../../images/primaryKeys.png" width="11px" height="12px" preserveAspectRatio="xMinYMin meet" x="13" y="-134"/>
<text text-anchor="start" x="28" y="-125.2" font-family="Helvetica,sans-Serif" font-size="11.00">id</text>
<polygon fill="#ffffff" stroke="transparent" points="8,-95 8,-117 150,-117 150,-95 8,-95"/>
<polygon fill="none" stroke="black" points="8,-95 8,-117 150,-117 150,-95 8,-95"/>
<image xlink:href="../../images/foreignKeys.png" width="11px" height="12px" preserveAspectRatio="xMinYMin meet" x="13" y="-112"/>
<text text-anchor="start" x="28" y="-103.2" font-family="Helvetica,sans-Serif" font-size="11.00">template_id</text>
<polygon fill="#ffffff" stroke="transparent" points="8,-73 8,-95 150,-95 150,-73 8,-73"/>
<polygon fill="none" stroke="black" points="8,-73 8,-95 150,-95 150,-73 8,-73"/>
<image xlink:href="../../images/foreignKeys.png" width="11px" height="12px" preserveAspectRatio="xMinYMin meet" x="13" y="-90"/>
<text text-anchor="start" x="28" y="-81.2" font-family="Helvetica,sans-Serif" font-size="11.00">ugd_template_id</text>
<polygon fill="none" stroke="black" points="8,-55 8,-73 150,-73 150,-55 8,-55"/>
<text text-anchor="start" x="11" y="-61.2" font-family="Helvetica,sans-Serif" font-size="11.00">...</text>
<polygon fill="#ffffff" stroke="transparent" points="8,-37 8,-55 59,-55 59,-37 8,-37"/>
<polygon fill="none" stroke="black" points="8,-37 8,-55 59,-55 59,-37 8,-37"/>
<text text-anchor="start" x="11" y="-43.2" font-family="Helvetica,sans-Serif" font-size="11.00">&lt; 2</text>
<polygon fill="#ffffff" stroke="transparent" points="59,-37 59,-55 113,-55 113,-37 59,-37"/>
<polygon fill="none" stroke="black" points="59,-37 59,-55 113,-55 113,-37 59,-37"/>
<text text-anchor="start" x="77" y="-43.2" font-family="Helvetica,sans-Serif" font-size="11.00">0 rows</text>
<polygon fill="#ffffff" stroke="transparent" points="113,-37 113,-55 150,-55 150,-37 113,-37"/>
<polygon fill="none" stroke="black" points="113,-37 113,-55 150,-55 150,-37 113,-37"/>
<text text-anchor="start" x="131" y="-43.2" font-family="Helvetica,sans-Serif" font-size="11.00">2 &gt;</text>
</a>
</g>
</g>
<!-- m_hook_registered_events&#45;&gt;m_hook -->
<g id="edge1" class="edge">
<title>m_hook_registered_events:w&#45;&gt;m_hook:e</title>
<path fill="none" stroke="black" d="M185.84,-128C174.41,-128 167.16,-128 151,-128"/>
<polygon fill="black" stroke="black" points="192.5,-128 200.5,-131.6 196.5,-128 200.5,-128 200.5,-128 200.5,-128 196.5,-128 200.5,-124.4 192.5,-128 192.5,-128"/>
<ellipse fill="none" stroke="black" cx="189.3" cy="-128" rx="3.2" ry="3.2"/>
</g>
</g>
</svg>
