<?xml version="1.0" encoding="UTF-8" standalone="no"?>
<!DOCTYPE svg PUBLIC "-//W3C//DTD SVG 1.1//EN"
 "http://www.w3.org/Graphics/SVG/1.1/DTD/svg11.dtd">
<!-- Generated by graphviz version 2.43.0 (0)
 -->
<!-- Title: oneDegreeRelationshipsDiagram Pages: 1 -->
<svg width="455pt" height="203pt"
 viewBox="0.00 0.00 455.00 203.00" xmlns="http://www.w3.org/2000/svg" xmlns:xlink="http://www.w3.org/1999/xlink">
<g id="graph0" class="graph" transform="scale(1 1) rotate(0) translate(4 199)">
<title>oneDegreeRelationshipsDiagram</title>
<polygon fill="#ffffff" stroke="transparent" points="-4,4 -4,-199 451,-199 451,4 -4,4"/>
<text text-anchor="middle" x="71.5" y="-7.2" font-family="Helvetica,sans-Serif" font-size="11.00">Generated by SchemaSpy</text>
<!-- m_hook_configuration -->
<g id="node1" class="node">
<title>m_hook_configuration</title>
<g id="a_node1"><a xlink:href="../../tables/m_hook_configuration.html" xlink:title="m_hook_configuration" target="_top">
<polygon fill="#ffffff" stroke="transparent" points="199,-37 199,-191 439,-191 439,-37 199,-37"/>
<polygon fill="#f5f5f5" stroke="transparent" points="201,-167 201,-189 437,-189 437,-167 201,-167"/>
<polygon fill="none" stroke="black" points="201,-167 201,-189 437,-189 437,-167 201,-167"/>
<text text-anchor="start" x="206" y="-176.2" font-family="Helvetica,sans-Serif" font-weight="bold" font-size="11.00">m_hook_configuration</text>
<text text-anchor="start" x="402" y="-175.2" font-family="Helvetica,sans-Serif" font-size="11.00">[table]</text>
<polygon fill="none" stroke="black" points="201,-145 201,-167 370,-167 370,-145 201,-145"/>
<image xlink:href="../../images/primaryKeys.png" width="11px" height="12px" preserveAspectRatio="xMinYMin meet" x="206" y="-162"/>
<text text-anchor="start" x="221" y="-153.2" font-family="Helvetica,sans-Serif" font-size="11.00">id</text>
<polygon fill="none" stroke="black" points="370,-145 370,-167 437,-167 437,-145 370,-145"/>
<text text-anchor="start" x="373" y="-153.2" font-family="Helvetica,sans-Serif" font-size="11.00">bigint[19]</text>
<polygon fill="#ffffff" stroke="transparent" points="201,-123 201,-145 370,-145 370,-123 201,-123"/>
<polygon fill="none" stroke="black" points="201,-123 201,-145 370,-145 370,-123 201,-123"/>
<image xlink:href="../../images/foreignKeys.png" width="11px" height="12px" preserveAspectRatio="xMinYMin meet" x="206" y="-140"/>
<text text-anchor="start" x="221" y="-131.2" font-family="Helvetica,sans-Serif" font-size="11.00">hook_id</text>
<polygon fill="none" stroke="black" points="370,-123 370,-145 437,-145 437,-123 370,-123"/>
<text text-anchor="start" x="373" y="-131.2" font-family="Helvetica,sans-Serif" font-size="11.00">bigint[19]</text>
<polygon fill="none" stroke="black" points="201,-101 201,-123 370,-123 370,-101 201,-101"/>
<text text-anchor="start" x="221" y="-109.2" font-family="Helvetica,sans-Serif" font-size="11.00">field_type</text>
<polygon fill="none" stroke="black" points="370,-101 370,-123 437,-123 437,-101 370,-101"/>
<text text-anchor="start" x="373" y="-109.2" font-family="Helvetica,sans-Serif" font-size="11.00">varchar[45]</text>
<polygon fill="none" stroke="black" points="201,-79 201,-101 370,-101 370,-79 201,-79"/>
<text text-anchor="start" x="221" y="-87.2" font-family="Helvetica,sans-Serif" font-size="11.00">field_name</text>
<polygon fill="none" stroke="black" points="370,-79 370,-101 437,-101 437,-79 370,-79"/>
<text text-anchor="start" x="373" y="-87.2" font-family="Helvetica,sans-Serif" font-size="11.00">varchar[100]</text>
<polygon fill="none" stroke="black" points="201,-57 201,-79 370,-79 370,-57 201,-57"/>
<text text-anchor="start" x="221" y="-65.2" font-family="Helvetica,sans-Serif" font-size="11.00">field_value</text>
<polygon fill="none" stroke="black" points="370,-57 370,-79 437,-79 437,-57 370,-57"/>
<text text-anchor="start" x="373" y="-65.2" font-family="Helvetica,sans-Serif" font-size="11.00">varchar[100]</text>
<polygon fill="#ffffff" stroke="transparent" points="201,-39 201,-57 277,-57 277,-39 201,-39"/>
<polygon fill="none" stroke="black" points="201,-39 201,-57 277,-57 277,-39 201,-39"/>
<text text-anchor="start" x="204" y="-45.2" font-family="Helvetica,sans-Serif" font-size="11.00">&lt; 1</text>
<polygon fill="#ffffff" stroke="transparent" points="277,-39 277,-57 370,-57 370,-39 277,-39"/>
<polygon fill="none" stroke="black" points="277,-39 277,-57 370,-57 370,-39 277,-39"/>
<text text-anchor="start" x="334" y="-45.2" font-family="Helvetica,sans-Serif" font-size="11.00">0 rows</text>
<polygon fill="#ffffff" stroke="transparent" points="370,-39 370,-57 437,-57 437,-39 370,-39"/>
<polygon fill="none" stroke="black" points="370,-39 370,-57 437,-57 437,-39 370,-39"/>
<text text-anchor="start" x="418" y="-45.2" font-family="Helvetica,sans-Serif" font-size="11.00">0 &gt;</text>
<polygon fill="none" stroke="black" stroke-width="2" points="200,-38 200,-190 438,-190 438,-38 200,-38"/>
</a>
</g>
</g>
<!-- m_hook -->
<g id="node2" class="node">
<title>m_hook</title>
<g id="a_node2"><a xlink:href="../../tables/m_hook.html" xlink:title="m_hook" target="_top">
<polygon fill="#ffffff" stroke="transparent" points="8,-43 8,-167 150,-167 150,-43 8,-43"/>
<polygon fill="#f5f5f5" stroke="transparent" points="8,-145 8,-167 150,-167 150,-145 8,-145"/>
<polygon fill="none" stroke="black" points="8,-145 8,-167 150,-167 150,-145 8,-145"/>
<text text-anchor="start" x="13" y="-154.2" font-family="Helvetica,sans-Serif" font-weight="bold" font-size="11.00">m_hook</text>
<text text-anchor="start" x="115" y="-153.2" font-family="Helvetica,sans-Serif" font-size="11.00">[table]</text>
<polygon fill="none" stroke="black" points="8,-123 8,-145 150,-145 150,-123 8,-123"/>
<image xlink:href="../../images/primaryKeys.png" width="11px" height="12px" preserveAspectRatio="xMinYMin meet" x="13" y="-140"/>
<text text-anchor="start" x="28" y="-131.2" font-family="Helvetica,sans-Serif" font-size="11.00">id</text>
<polygon fill="#ffffff" stroke="transparent" points="8,-101 8,-123 150,-123 150,-101 8,-101"/>
<polygon fill="none" stroke="black" points="8,-101 8,-123 150,-123 150,-101 8,-101"/>
<image xlink:href="../../images/foreignKeys.png" width="11px" height="12px" preserveAspectRatio="xMinYMin meet" x="13" y="-118"/>
<text text-anchor="start" x="28" y="-109.2" font-family="Helvetica,sans-Serif" font-size="11.00">template_id</text>
<polygon fill="#ffffff" stroke="transparent" points="8,-79 8,-101 150,-101 150,-79 8,-79"/>
<polygon fill="none" stroke="black" points="8,-79 8,-101 150,-101 150,-79 8,-79"/>
<image xlink:href="../../images/foreignKeys.png" width="11px" height="12px" preserveAspectRatio="xMinYMin meet" x="13" y="-96"/>
<text text-anchor="start" x="28" y="-87.2" font-family="Helvetica,sans-Serif" font-size="11.00">ugd_template_id</text>
<polygon fill="none" stroke="black" points="8,-61 8,-79 150,-79 150,-61 8,-61"/>
<text text-anchor="start" x="11" y="-67.2" font-family="Helvetica,sans-Serif" font-size="11.00">...</text>
<polygon fill="#ffffff" stroke="transparent" points="8,-43 8,-61 59,-61 59,-43 8,-43"/>
<polygon fill="none" stroke="black" points="8,-43 8,-61 59,-61 59,-43 8,-43"/>
<text text-anchor="start" x="11" y="-49.2" font-family="Helvetica,sans-Serif" font-size="11.00">&lt; 2</text>
<polygon fill="#ffffff" stroke="transparent" points="59,-43 59,-61 113,-61 113,-43 59,-43"/>
<polygon fill="none" stroke="black" points="59,-43 59,-61 113,-61 113,-43 59,-43"/>
<text text-anchor="start" x="77" y="-49.2" font-family="Helvetica,sans-Serif" font-size="11.00">0 rows</text>
<polygon fill="#ffffff" stroke="transparent" points="113,-43 113,-61 150,-61 150,-43 113,-43"/>
<polygon fill="none" stroke="black" points="113,-43 113,-61 150,-61 150,-43 113,-43"/>
<text text-anchor="start" x="131" y="-49.2" font-family="Helvetica,sans-Serif" font-size="11.00">2 &gt;</text>
</a>
</g>
</g>
<!-- m_hook_configuration&#45;&gt;m_hook -->
<g id="edge1" class="edge">
<title>m_hook_configuration:w&#45;&gt;m_hook:e</title>
<path fill="none" stroke="black" d="M185.49,-134C174.18,-134 166.99,-134 151,-134"/>
<polygon fill="black" stroke="black" points="192,-134 200,-137.6 196,-134 200,-134 200,-134 200,-134 196,-134 200,-130.4 192,-134 192,-134"/>
<ellipse fill="none" stroke="black" cx="188.8" cy="-134" rx="3.2" ry="3.2"/>
</g>
</g>
</svg>
