<?xml version="1.0" encoding="UTF-8" standalone="no"?>
<!DOCTYPE svg PUBLIC "-//W3C//DTD SVG 1.1//EN"
 "http://www.w3.org/Graphics/SVG/1.1/DTD/svg11.dtd">
<!-- Generated by graphviz version 2.43.0 (0)
 -->
<!-- Title: twoDegreesRelationshipsDiagram Pages: 1 -->
<svg width="648pt" height="282pt"
 viewBox="0.00 0.00 648.00 282.00" xmlns="http://www.w3.org/2000/svg" xmlns:xlink="http://www.w3.org/1999/xlink">
<g id="graph0" class="graph" transform="scale(1 1) rotate(0) translate(4 278)">
<title>twoDegreesRelationshipsDiagram</title>
<polygon fill="#ffffff" stroke="transparent" points="-4,4 -4,-278 644,-278 644,4 -4,4"/>
<text text-anchor="middle" x="71.5" y="-7.2" font-family="Helvetica,sans-Serif" font-size="11.00">Generated by SchemaSpy</text>
<!-- m_hook -->
<g id="node1" class="node">
<title>m_hook</title>
<g id="a_node1"><a xlink:href="../../tables/m_hook.html" xlink:title="m_hook" target="_top">
<polygon fill="#ffffff" stroke="transparent" points="201,-47 201,-171 343,-171 343,-47 201,-47"/>
<polygon fill="#f5f5f5" stroke="transparent" points="201,-149 201,-171 343,-171 343,-149 201,-149"/>
<polygon fill="none" stroke="black" points="201,-149 201,-171 343,-171 343,-149 201,-149"/>
<text text-anchor="start" x="206" y="-158.2" font-family="Helvetica,sans-Serif" font-weight="bold" font-size="11.00">m_hook</text>
<text text-anchor="start" x="308" y="-157.2" font-family="Helvetica,sans-Serif" font-size="11.00">[table]</text>
<polygon fill="none" stroke="black" points="201,-127 201,-149 343,-149 343,-127 201,-127"/>
<image xlink:href="../../images/primaryKeys.png" width="11px" height="12px" preserveAspectRatio="xMinYMin meet" x="206" y="-144"/>
<text text-anchor="start" x="221" y="-135.2" font-family="Helvetica,sans-Serif" font-size="11.00">id</text>
<polygon fill="#ffffff" stroke="transparent" points="201,-105 201,-127 343,-127 343,-105 201,-105"/>
<polygon fill="none" stroke="black" points="201,-105 201,-127 343,-127 343,-105 201,-105"/>
<image xlink:href="../../images/foreignKeys.png" width="11px" height="12px" preserveAspectRatio="xMinYMin meet" x="206" y="-122"/>
<text text-anchor="start" x="221" y="-113.2" font-family="Helvetica,sans-Serif" font-size="11.00">template_id</text>
<polygon fill="#ffffff" stroke="transparent" points="201,-83 201,-105 343,-105 343,-83 201,-83"/>
<polygon fill="none" stroke="black" points="201,-83 201,-105 343,-105 343,-83 201,-83"/>
<image xlink:href="../../images/foreignKeys.png" width="11px" height="12px" preserveAspectRatio="xMinYMin meet" x="206" y="-100"/>
<text text-anchor="start" x="221" y="-91.2" font-family="Helvetica,sans-Serif" font-size="11.00">ugd_template_id</text>
<polygon fill="none" stroke="black" points="201,-65 201,-83 343,-83 343,-65 201,-65"/>
<text text-anchor="start" x="204" y="-71.2" font-family="Helvetica,sans-Serif" font-size="11.00">...</text>
<polygon fill="#ffffff" stroke="transparent" points="201,-47 201,-65 252,-65 252,-47 201,-47"/>
<polygon fill="none" stroke="black" points="201,-47 201,-65 252,-65 252,-47 201,-47"/>
<text text-anchor="start" x="204" y="-53.2" font-family="Helvetica,sans-Serif" font-size="11.00">&lt; 2</text>
<polygon fill="#ffffff" stroke="transparent" points="252,-47 252,-65 306,-65 306,-47 252,-47"/>
<polygon fill="none" stroke="black" points="252,-47 252,-65 306,-65 306,-47 252,-47"/>
<text text-anchor="start" x="270" y="-53.2" font-family="Helvetica,sans-Serif" font-size="11.00">0 rows</text>
<polygon fill="#ffffff" stroke="transparent" points="306,-47 306,-65 343,-65 343,-47 306,-47"/>
<polygon fill="none" stroke="black" points="306,-47 306,-65 343,-65 343,-47 306,-47"/>
<text text-anchor="start" x="324" y="-53.2" font-family="Helvetica,sans-Serif" font-size="11.00">2 &gt;</text>
</a>
</g>
</g>
<!-- m_hook_templates -->
<g id="node2" class="node">
<title>m_hook_templates</title>
<g id="a_node2"><a xlink:href="../../tables/m_hook_templates.html" xlink:title="m_hook_templates" target="_top">
<polygon fill="#ffffff" stroke="transparent" points="8,-118 8,-176 152,-176 152,-118 8,-118"/>
<polygon fill="#f5f5f5" stroke="transparent" points="8,-154 8,-176 152,-176 152,-154 8,-154"/>
<polygon fill="none" stroke="black" points="8,-154 8,-176 152,-176 152,-154 8,-154"/>
<text text-anchor="start" x="13" y="-163.2" font-family="Helvetica,sans-Serif" font-weight="bold" font-size="11.00">m_hook_templates</text>
<text text-anchor="start" x="117" y="-162.2" font-family="Helvetica,sans-Serif" font-size="11.00">[table]</text>
<polygon fill="none" stroke="black" points="8,-136 8,-154 152,-154 152,-136 8,-136"/>
<text text-anchor="start" x="11" y="-142.2" font-family="Helvetica,sans-Serif" font-size="11.00">...</text>
<polygon fill="#ffffff" stroke="transparent" points="8,-118 8,-136 56,-136 56,-118 8,-118"/>
<polygon fill="none" stroke="black" points="8,-118 8,-136 56,-136 56,-118 8,-118"/>
<text text-anchor="start" x="11" y="-124.2" font-family="Helvetica,sans-Serif" font-size="11.00"> &#160;</text>
<polygon fill="#ffffff" stroke="transparent" points="56,-118 56,-136 112,-136 112,-118 56,-118"/>
<polygon fill="none" stroke="black" points="56,-118 56,-136 112,-136 112,-118 56,-118"/>
<text text-anchor="start" x="76" y="-124.2" font-family="Helvetica,sans-Serif" font-size="11.00">0 rows</text>
<polygon fill="#ffffff" stroke="transparent" points="112,-118 112,-136 152,-136 152,-118 112,-118"/>
<polygon fill="none" stroke="black" points="112,-118 112,-136 152,-136 152,-118 112,-118"/>
<text text-anchor="start" x="133" y="-124.2" font-family="Helvetica,sans-Serif" font-size="11.00">2 &gt;</text>
</a>
</g>
</g>
<!-- m_hook&#45;&gt;m_hook_templates -->
<g id="edge1" class="edge">
<title>m_hook:w&#45;&gt;m_hook_templates:e</title>
<path fill="none" stroke="black" d="M186.1,-120.28C174.91,-128.35 171.6,-145 153,-145"/>
<polygon fill="black" stroke="black" points="192.35,-118.35 201.06,-119.44 196.18,-117.18 200,-116 200,-116 200,-116 196.18,-117.18 198.94,-112.56 192.35,-118.35 192.35,-118.35"/>
<ellipse fill="none" stroke="black" cx="189.3" cy="-119.29" rx="3.2" ry="3.2"/>
</g>
<!-- m_template -->
<g id="node3" class="node">
<title>m_template</title>
<g id="a_node3"><a xlink:href="../../tables/m_template.html" xlink:title="m_template" target="_top">
<polygon fill="#ffffff" stroke="transparent" points="27.5,-39 27.5,-97 132.5,-97 132.5,-39 27.5,-39"/>
<polygon fill="#f5f5f5" stroke="transparent" points="28,-75 28,-97 133,-97 133,-75 28,-75"/>
<polygon fill="none" stroke="black" points="28,-75 28,-97 133,-97 133,-75 28,-75"/>
<text text-anchor="start" x="33" y="-84.2" font-family="Helvetica,sans-Serif" font-weight="bold" font-size="11.00">m_template</text>
<text text-anchor="start" x="98" y="-83.2" font-family="Helvetica,sans-Serif" font-size="11.00">[table]</text>
<polygon fill="none" stroke="black" points="28,-57 28,-75 133,-75 133,-57 28,-57"/>
<text text-anchor="start" x="31" y="-63.2" font-family="Helvetica,sans-Serif" font-size="11.00">...</text>
<polygon fill="#ffffff" stroke="transparent" points="28,-39 28,-57 56,-57 56,-39 28,-39"/>
<polygon fill="none" stroke="black" points="28,-39 28,-57 56,-57 56,-39 28,-39"/>
<text text-anchor="start" x="31" y="-45.2" font-family="Helvetica,sans-Serif" font-size="11.00"> &#160;</text>
<polygon fill="#ffffff" stroke="transparent" points="56,-39 56,-57 103,-57 103,-39 56,-39"/>
<polygon fill="none" stroke="black" points="56,-39 56,-57 103,-57 103,-39 56,-39"/>
<text text-anchor="start" x="67" y="-45.2" font-family="Helvetica,sans-Serif" font-size="11.00">0 rows</text>
<polygon fill="#ffffff" stroke="transparent" points="103,-39 103,-57 133,-57 133,-39 103,-39"/>
<polygon fill="none" stroke="black" points="103,-39 103,-57 133,-57 133,-39 103,-39"/>
<text text-anchor="start" x="114" y="-45.2" font-family="Helvetica,sans-Serif" font-size="11.00">1 &gt;</text>
</a>
</g>
</g>
<!-- m_hook&#45;&gt;m_template -->
<g id="edge2" class="edge">
<title>m_hook:w&#45;&gt;m_template:e</title>
<path fill="none" stroke="black" d="M185.62,-91.71C166.42,-85.02 160.26,-66 134,-66"/>
<polygon fill="black" stroke="black" points="192.1,-92.74 199.43,-97.56 196.05,-93.37 200,-94 200,-94 200,-94 196.05,-93.37 200.57,-90.44 192.1,-92.74 192.1,-92.74"/>
<ellipse fill="none" stroke="black" cx="188.94" cy="-92.24" rx="3.2" ry="3.2"/>
</g>
<!-- m_hook_configuration -->
<g id="node4" class="node">
<title>m_hook_configuration</title>
<g id="a_node4"><a xlink:href="../../tables/m_hook_configuration.html" xlink:title="m_hook_configuration" target="_top">
<polygon fill="#ffffff" stroke="transparent" points="392,-116 392,-270 632,-270 632,-116 392,-116"/>
<polygon fill="#f5f5f5" stroke="transparent" points="394,-246 394,-268 630,-268 630,-246 394,-246"/>
<polygon fill="none" stroke="black" points="394,-246 394,-268 630,-268 630,-246 394,-246"/>
<text text-anchor="start" x="399" y="-255.2" font-family="Helvetica,sans-Serif" font-weight="bold" font-size="11.00">m_hook_configuration</text>
<text text-anchor="start" x="595" y="-254.2" font-family="Helvetica,sans-Serif" font-size="11.00">[table]</text>
<polygon fill="none" stroke="black" points="394,-224 394,-246 563,-246 563,-224 394,-224"/>
<image xlink:href="../../images/primaryKeys.png" width="11px" height="12px" preserveAspectRatio="xMinYMin meet" x="399" y="-241"/>
<text text-anchor="start" x="414" y="-232.2" font-family="Helvetica,sans-Serif" font-size="11.00">id</text>
<polygon fill="none" stroke="black" points="563,-224 563,-246 630,-246 630,-224 563,-224"/>
<text text-anchor="start" x="566" y="-232.2" font-family="Helvetica,sans-Serif" font-size="11.00">bigint[19]</text>
<polygon fill="#ffffff" stroke="transparent" points="394,-202 394,-224 563,-224 563,-202 394,-202"/>
<polygon fill="none" stroke="black" points="394,-202 394,-224 563,-224 563,-202 394,-202"/>
<image xlink:href="../../images/foreignKeys.png" width="11px" height="12px" preserveAspectRatio="xMinYMin meet" x="399" y="-219"/>
<text text-anchor="start" x="414" y="-210.2" font-family="Helvetica,sans-Serif" font-size="11.00">hook_id</text>
<polygon fill="none" stroke="black" points="563,-202 563,-224 630,-224 630,-202 563,-202"/>
<text text-anchor="start" x="566" y="-210.2" font-family="Helvetica,sans-Serif" font-size="11.00">bigint[19]</text>
<polygon fill="none" stroke="black" points="394,-180 394,-202 563,-202 563,-180 394,-180"/>
<text text-anchor="start" x="414" y="-188.2" font-family="Helvetica,sans-Serif" font-size="11.00">field_type</text>
<polygon fill="none" stroke="black" points="563,-180 563,-202 630,-202 630,-180 563,-180"/>
<text text-anchor="start" x="566" y="-188.2" font-family="Helvetica,sans-Serif" font-size="11.00">varchar[45]</text>
<polygon fill="none" stroke="black" points="394,-158 394,-180 563,-180 563,-158 394,-158"/>
<text text-anchor="start" x="414" y="-166.2" font-family="Helvetica,sans-Serif" font-size="11.00">field_name</text>
<polygon fill="none" stroke="black" points="563,-158 563,-180 630,-180 630,-158 563,-158"/>
<text text-anchor="start" x="566" y="-166.2" font-family="Helvetica,sans-Serif" font-size="11.00">varchar[100]</text>
<polygon fill="none" stroke="black" points="394,-136 394,-158 563,-158 563,-136 394,-136"/>
<text text-anchor="start" x="414" y="-144.2" font-family="Helvetica,sans-Serif" font-size="11.00">field_value</text>
<polygon fill="none" stroke="black" points="563,-136 563,-158 630,-158 630,-136 563,-136"/>
<text text-anchor="start" x="566" y="-144.2" font-family="Helvetica,sans-Serif" font-size="11.00">varchar[100]</text>
<polygon fill="#ffffff" stroke="transparent" points="394,-118 394,-136 470,-136 470,-118 394,-118"/>
<polygon fill="none" stroke="black" points="394,-118 394,-136 470,-136 470,-118 394,-118"/>
<text text-anchor="start" x="397" y="-124.2" font-family="Helvetica,sans-Serif" font-size="11.00">&lt; 1</text>
<polygon fill="#ffffff" stroke="transparent" points="470,-118 470,-136 563,-136 563,-118 470,-118"/>
<polygon fill="none" stroke="black" points="470,-118 470,-136 563,-136 563,-118 470,-118"/>
<text text-anchor="start" x="527" y="-124.2" font-family="Helvetica,sans-Serif" font-size="11.00">0 rows</text>
<polygon fill="#ffffff" stroke="transparent" points="563,-118 563,-136 630,-136 630,-118 563,-118"/>
<polygon fill="none" stroke="black" points="563,-118 563,-136 630,-136 630,-118 563,-118"/>
<text text-anchor="start" x="611" y="-124.2" font-family="Helvetica,sans-Serif" font-size="11.00">0 &gt;</text>
<polygon fill="none" stroke="black" stroke-width="2" points="393,-117 393,-269 631,-269 631,-117 393,-117"/>
</a>
</g>
</g>
<!-- m_hook_configuration&#45;&gt;m_hook -->
<g id="edge3" class="edge">
<title>m_hook_configuration:w&#45;&gt;m_hook:e</title>
<path fill="none" stroke="black" d="M379.21,-208.31C360.88,-191.89 377.75,-138 344,-138"/>
<polygon fill="black" stroke="black" points="385.43,-210.42 391.84,-216.41 389.21,-211.71 393,-213 393,-213 393,-213 389.21,-211.71 394.16,-209.59 385.43,-210.42 385.43,-210.42"/>
<ellipse fill="none" stroke="black" cx="382.4" cy="-209.39" rx="3.2" ry="3.2"/>
</g>
<!-- m_hook_registered_events -->
<g id="node5" class="node">
<title>m_hook_registered_events</title>
<g id="a_node5"><a xlink:href="../../tables/m_hook_registered_events.html" xlink:title="m_hook_registered_events" target="_top">
<polygon fill="#ffffff" stroke="transparent" points="419,-37 419,-95 605,-95 605,-37 419,-37"/>
<polygon fill="#f5f5f5" stroke="transparent" points="419,-73 419,-95 605,-95 605,-73 419,-73"/>
<polygon fill="none" stroke="black" points="419,-73 419,-95 605,-95 605,-73 419,-73"/>
<text text-anchor="start" x="424" y="-82.2" font-family="Helvetica,sans-Serif" font-weight="bold" font-size="11.00">m_hook_registered_events</text>
<text text-anchor="start" x="570" y="-81.2" font-family="Helvetica,sans-Serif" font-size="11.00">[table]</text>
<polygon fill="none" stroke="black" points="419,-55 419,-73 605,-73 605,-55 419,-55"/>
<text text-anchor="start" x="422" y="-61.2" font-family="Helvetica,sans-Serif" font-size="11.00">...</text>
<polygon fill="#ffffff" stroke="transparent" points="419,-37 419,-55 497,-55 497,-37 419,-37"/>
<polygon fill="none" stroke="black" points="419,-37 419,-55 497,-55 497,-37 419,-37"/>
<text text-anchor="start" x="422" y="-43.2" font-family="Helvetica,sans-Serif" font-size="11.00">&lt; 1</text>
<polygon fill="#ffffff" stroke="transparent" points="497,-37 497,-55 564,-55 564,-37 497,-37"/>
<polygon fill="none" stroke="black" points="497,-37 497,-55 564,-55 564,-37 497,-37"/>
<text text-anchor="start" x="528" y="-43.2" font-family="Helvetica,sans-Serif" font-size="11.00">0 rows</text>
<polygon fill="#ffffff" stroke="transparent" points="564,-37 564,-55 605,-55 605,-37 564,-37"/>
<polygon fill="none" stroke="black" points="564,-37 564,-55 605,-55 605,-37 564,-37"/>
<text text-anchor="start" x="595" y="-43.2" font-family="Helvetica,sans-Serif" font-size="11.00"> &#160;</text>
</a>
</g>
</g>
<!-- m_hook_registered_events&#45;&gt;m_hook -->
<g id="edge4" class="edge">
<title>m_hook_registered_events:w&#45;&gt;m_hook:e</title>
<path fill="none" stroke="black" d="M403.75,-66.99C375.13,-80.84 384.88,-138 344,-138"/>
<polygon fill="black" stroke="black" points="410.17,-65.64 418.74,-67.52 414.09,-64.82 418,-64 418,-64 418,-64 414.09,-64.82 417.26,-60.48 410.17,-65.64 410.17,-65.64"/>
<ellipse fill="none" stroke="black" cx="407.04" cy="-66.3" rx="3.2" ry="3.2"/>
</g>
</g>
</svg>
