<?xml version="1.0" encoding="UTF-8" standalone="no"?>
<!DOCTYPE svg PUBLIC "-//W3C//DTD SVG 1.1//EN"
 "http://www.w3.org/Graphics/SVG/1.1/DTD/svg11.dtd">
<!-- Generated by graphviz version 2.43.0 (0)
 -->
<!-- Title: twoDegreesRelationshipsDiagram Pages: 1 -->
<svg width="661pt" height="296pt"
 viewBox="0.00 0.00 661.00 296.00" xmlns="http://www.w3.org/2000/svg" xmlns:xlink="http://www.w3.org/1999/xlink">
<g id="graph0" class="graph" transform="scale(1 1) rotate(0) translate(4 292)">
<title>twoDegreesRelationshipsDiagram</title>
<polygon fill="#ffffff" stroke="transparent" points="-4,4 -4,-292 657,-292 657,4 -4,4"/>
<text text-anchor="middle" x="71.5" y="-7.2" font-family="Helvetica,sans-Serif" font-size="11.00">Generated by SchemaSpy</text>
<!-- m_hook -->
<g id="node1" class="node">
<title>m_hook</title>
<g id="a_node1"><a xlink:href="../../tables/m_hook.html" xlink:title="m_hook" target="_top">
<polygon fill="#ffffff" stroke="transparent" points="268,-37 268,-161 410,-161 410,-37 268,-37"/>
<polygon fill="#f5f5f5" stroke="transparent" points="268,-139 268,-161 410,-161 410,-139 268,-139"/>
<polygon fill="none" stroke="black" points="268,-139 268,-161 410,-161 410,-139 268,-139"/>
<text text-anchor="start" x="273" y="-148.2" font-family="Helvetica,sans-Serif" font-weight="bold" font-size="11.00">m_hook</text>
<text text-anchor="start" x="375" y="-147.2" font-family="Helvetica,sans-Serif" font-size="11.00">[table]</text>
<polygon fill="none" stroke="black" points="268,-117 268,-139 410,-139 410,-117 268,-117"/>
<image xlink:href="../../images/primaryKeys.png" width="11px" height="12px" preserveAspectRatio="xMinYMin meet" x="273" y="-134"/>
<text text-anchor="start" x="288" y="-125.2" font-family="Helvetica,sans-Serif" font-size="11.00">id</text>
<polygon fill="#ffffff" stroke="transparent" points="268,-95 268,-117 410,-117 410,-95 268,-95"/>
<polygon fill="none" stroke="black" points="268,-95 268,-117 410,-117 410,-95 268,-95"/>
<image xlink:href="../../images/foreignKeys.png" width="11px" height="12px" preserveAspectRatio="xMinYMin meet" x="273" y="-112"/>
<text text-anchor="start" x="288" y="-103.2" font-family="Helvetica,sans-Serif" font-size="11.00">template_id</text>
<polygon fill="#ffffff" stroke="transparent" points="268,-73 268,-95 410,-95 410,-73 268,-73"/>
<polygon fill="none" stroke="black" points="268,-73 268,-95 410,-95 410,-73 268,-73"/>
<image xlink:href="../../images/foreignKeys.png" width="11px" height="12px" preserveAspectRatio="xMinYMin meet" x="273" y="-90"/>
<text text-anchor="start" x="288" y="-81.2" font-family="Helvetica,sans-Serif" font-size="11.00">ugd_template_id</text>
<polygon fill="none" stroke="black" points="268,-55 268,-73 410,-73 410,-55 268,-55"/>
<text text-anchor="start" x="271" y="-61.2" font-family="Helvetica,sans-Serif" font-size="11.00">...</text>
<polygon fill="#ffffff" stroke="transparent" points="268,-37 268,-55 319,-55 319,-37 268,-37"/>
<polygon fill="none" stroke="black" points="268,-37 268,-55 319,-55 319,-37 268,-37"/>
<text text-anchor="start" x="271" y="-43.2" font-family="Helvetica,sans-Serif" font-size="11.00">&lt; 2</text>
<polygon fill="#ffffff" stroke="transparent" points="319,-37 319,-55 373,-55 373,-37 319,-37"/>
<polygon fill="none" stroke="black" points="319,-37 319,-55 373,-55 373,-37 319,-37"/>
<text text-anchor="start" x="337" y="-43.2" font-family="Helvetica,sans-Serif" font-size="11.00">0 rows</text>
<polygon fill="#ffffff" stroke="transparent" points="373,-37 373,-55 410,-55 410,-37 373,-37"/>
<polygon fill="none" stroke="black" points="373,-37 373,-55 410,-55 410,-37 373,-37"/>
<text text-anchor="start" x="391" y="-43.2" font-family="Helvetica,sans-Serif" font-size="11.00">2 &gt;</text>
</a>
</g>
</g>
<!-- m_hook_templates -->
<g id="node2" class="node">
<title>m_hook_templates</title>
<g id="a_node2"><a xlink:href="../../tables/m_hook_templates.html" xlink:title="m_hook_templates" target="_top">
<polygon fill="#ffffff" stroke="transparent" points="8,-156 8,-244 219,-244 219,-156 8,-156"/>
<polygon fill="#f5f5f5" stroke="transparent" points="10.5,-220 10.5,-242 217.5,-242 217.5,-220 10.5,-220"/>
<polygon fill="none" stroke="black" points="10.5,-220 10.5,-242 217.5,-242 217.5,-220 10.5,-220"/>
<text text-anchor="start" x="15.5" y="-229.2" font-family="Helvetica,sans-Serif" font-weight="bold" font-size="11.00">m_hook_templates</text>
<text text-anchor="start" x="182.5" y="-228.2" font-family="Helvetica,sans-Serif" font-size="11.00">[table]</text>
<polygon fill="none" stroke="black" points="10.5,-198 10.5,-220 156.5,-220 156.5,-198 10.5,-198"/>
<image xlink:href="../../images/primaryKeys.png" width="11px" height="12px" preserveAspectRatio="xMinYMin meet" x="15.5" y="-215"/>
<text text-anchor="start" x="30.5" y="-206.2" font-family="Helvetica,sans-Serif" font-size="11.00">id</text>
<polygon fill="none" stroke="black" points="156.5,-198 156.5,-220 217.5,-220 217.5,-198 156.5,-198"/>
<text text-anchor="start" x="159.5" y="-206.2" font-family="Helvetica,sans-Serif" font-size="11.00">smallint[5]</text>
<polygon fill="none" stroke="black" points="10.5,-176 10.5,-198 156.5,-198 156.5,-176 10.5,-176"/>
<text text-anchor="start" x="30.5" y="-184.2" font-family="Helvetica,sans-Serif" font-size="11.00">name</text>
<polygon fill="none" stroke="black" points="156.5,-176 156.5,-198 217.5,-198 217.5,-176 156.5,-176"/>
<text text-anchor="start" x="159.5" y="-184.2" font-family="Helvetica,sans-Serif" font-size="11.00">varchar[45]</text>
<polygon fill="#ffffff" stroke="transparent" points="10.5,-158 10.5,-176 74.5,-176 74.5,-158 10.5,-158"/>
<polygon fill="none" stroke="black" points="10.5,-158 10.5,-176 74.5,-176 74.5,-158 10.5,-158"/>
<text text-anchor="start" x="13.5" y="-164.2" font-family="Helvetica,sans-Serif" font-size="11.00">&lt; 0</text>
<polygon fill="#ffffff" stroke="transparent" points="74.5,-158 74.5,-176 156.5,-176 156.5,-158 74.5,-158"/>
<polygon fill="none" stroke="black" points="74.5,-158 74.5,-176 156.5,-176 156.5,-158 74.5,-158"/>
<text text-anchor="start" x="120.5" y="-164.2" font-family="Helvetica,sans-Serif" font-size="11.00">0 rows</text>
<polygon fill="#ffffff" stroke="transparent" points="156.5,-158 156.5,-176 217.5,-176 217.5,-158 156.5,-158"/>
<polygon fill="none" stroke="black" points="156.5,-158 156.5,-176 217.5,-176 217.5,-158 156.5,-158"/>
<text text-anchor="start" x="198.5" y="-164.2" font-family="Helvetica,sans-Serif" font-size="11.00">2 &gt;</text>
<polygon fill="none" stroke="black" stroke-width="2" points="9,-157 9,-243 218,-243 218,-157 9,-157"/>
</a>
</g>
</g>
<!-- m_hook&#45;&gt;m_hook_templates -->
<g id="edge1" class="edge">
<title>m_hook:w&#45;&gt;m_hook_templates:e</title>
<path fill="none" stroke="black" d="M253.13,-109.91C227.33,-128.73 263.17,-209 218.5,-209"/>
<polygon fill="black" stroke="black" points="259.3,-108.17 267.98,-109.46 263.15,-107.09 267,-106 267,-106 267,-106 263.15,-107.09 266.02,-102.54 259.3,-108.17 259.3,-108.17"/>
<ellipse fill="none" stroke="black" cx="256.22" cy="-109.04" rx="3.2" ry="3.2"/>
</g>
<!-- m_template -->
<g id="node3" class="node">
<title>m_template</title>
<g id="a_node3"><a xlink:href="../../tables/m_template.html" xlink:title="m_template" target="_top">
<polygon fill="#ffffff" stroke="transparent" points="61,-57 61,-115 166,-115 166,-57 61,-57"/>
<polygon fill="#f5f5f5" stroke="transparent" points="61.5,-93 61.5,-115 166.5,-115 166.5,-93 61.5,-93"/>
<polygon fill="none" stroke="black" points="61.5,-93 61.5,-115 166.5,-115 166.5,-93 61.5,-93"/>
<text text-anchor="start" x="66.5" y="-102.2" font-family="Helvetica,sans-Serif" font-weight="bold" font-size="11.00">m_template</text>
<text text-anchor="start" x="131.5" y="-101.2" font-family="Helvetica,sans-Serif" font-size="11.00">[table]</text>
<polygon fill="none" stroke="black" points="61.5,-75 61.5,-93 166.5,-93 166.5,-75 61.5,-75"/>
<text text-anchor="start" x="64.5" y="-81.2" font-family="Helvetica,sans-Serif" font-size="11.00">...</text>
<polygon fill="#ffffff" stroke="transparent" points="61.5,-57 61.5,-75 89.5,-75 89.5,-57 61.5,-57"/>
<polygon fill="none" stroke="black" points="61.5,-57 61.5,-75 89.5,-75 89.5,-57 61.5,-57"/>
<text text-anchor="start" x="64.5" y="-63.2" font-family="Helvetica,sans-Serif" font-size="11.00"> &#160;</text>
<polygon fill="#ffffff" stroke="transparent" points="89.5,-57 89.5,-75 136.5,-75 136.5,-57 89.5,-57"/>
<polygon fill="none" stroke="black" points="89.5,-57 89.5,-75 136.5,-75 136.5,-57 89.5,-57"/>
<text text-anchor="start" x="100.5" y="-63.2" font-family="Helvetica,sans-Serif" font-size="11.00">0 rows</text>
<polygon fill="#ffffff" stroke="transparent" points="136.5,-57 136.5,-75 166.5,-75 166.5,-57 136.5,-57"/>
<polygon fill="none" stroke="black" points="136.5,-57 136.5,-75 166.5,-75 166.5,-57 136.5,-57"/>
<text text-anchor="start" x="147.5" y="-63.2" font-family="Helvetica,sans-Serif" font-size="11.00">1 &gt;</text>
</a>
</g>
</g>
<!-- m_hook&#45;&gt;m_template -->
<g id="edge2" class="edge">
<title>m_hook:w&#45;&gt;m_template:e</title>
<path fill="none" stroke="black" d="M252.28,-84C219.61,-84 206.37,-84 167.5,-84"/>
<polygon fill="black" stroke="black" points="259,-84 267,-87.6 263,-84 267,-84 267,-84 267,-84 263,-84 267,-80.4 259,-84 259,-84"/>
<ellipse fill="none" stroke="black" cx="255.8" cy="-84" rx="3.2" ry="3.2"/>
</g>
<!-- m_hook_configuration -->
<g id="node4" class="node">
<title>m_hook_configuration</title>
<g id="a_node4"><a xlink:href="../../tables/m_hook_configuration.html" xlink:title="m_hook_configuration" target="_top">
<polygon fill="#ffffff" stroke="transparent" points="470.5,-141 470.5,-199 633.5,-199 633.5,-141 470.5,-141"/>
<polygon fill="#f5f5f5" stroke="transparent" points="471,-177 471,-199 634,-199 634,-177 471,-177"/>
<polygon fill="none" stroke="black" points="471,-177 471,-199 634,-199 634,-177 471,-177"/>
<text text-anchor="start" x="476" y="-186.2" font-family="Helvetica,sans-Serif" font-weight="bold" font-size="11.00">m_hook_configuration</text>
<text text-anchor="start" x="599" y="-185.2" font-family="Helvetica,sans-Serif" font-size="11.00">[table]</text>
<polygon fill="none" stroke="black" points="471,-159 471,-177 634,-177 634,-159 471,-159"/>
<text text-anchor="start" x="474" y="-165.2" font-family="Helvetica,sans-Serif" font-size="11.00">...</text>
<polygon fill="#ffffff" stroke="transparent" points="471,-141 471,-159 537,-159 537,-141 471,-141"/>
<polygon fill="none" stroke="black" points="471,-141 471,-159 537,-159 537,-141 471,-141"/>
<text text-anchor="start" x="474" y="-147.2" font-family="Helvetica,sans-Serif" font-size="11.00">&lt; 1</text>
<polygon fill="#ffffff" stroke="transparent" points="537,-141 537,-159 598,-159 598,-141 537,-141"/>
<polygon fill="none" stroke="black" points="537,-141 537,-159 598,-159 598,-141 537,-141"/>
<text text-anchor="start" x="562" y="-147.2" font-family="Helvetica,sans-Serif" font-size="11.00">0 rows</text>
<polygon fill="#ffffff" stroke="transparent" points="598,-141 598,-159 634,-159 634,-141 598,-141"/>
<polygon fill="none" stroke="black" points="598,-141 598,-159 634,-159 634,-141 598,-141"/>
<text text-anchor="start" x="624" y="-147.2" font-family="Helvetica,sans-Serif" font-size="11.00"> &#160;</text>
</a>
</g>
</g>
<!-- m_hook_configuration&#45;&gt;m_hook -->
<g id="edge3" class="edge">
<title>m_hook_configuration:w&#45;&gt;m_hook:e</title>
<path fill="none" stroke="black" d="M456,-164.59C438.72,-154.92 436.99,-128 411,-128"/>
<polygon fill="black" stroke="black" points="462.23,-166.11 469.15,-171.5 466.11,-167.05 470,-168 470,-168 470,-168 466.11,-167.05 470.85,-164.5 462.23,-166.11 462.23,-166.11"/>
<ellipse fill="none" stroke="black" cx="459.12" cy="-165.35" rx="3.2" ry="3.2"/>
</g>
<!-- m_hook_registered_events -->
<g id="node5" class="node">
<title>m_hook_registered_events</title>
<g id="a_node5"><a xlink:href="../../tables/m_hook_registered_events.html" xlink:title="m_hook_registered_events" target="_top">
<polygon fill="#ffffff" stroke="transparent" points="459,-62 459,-120 645,-120 645,-62 459,-62"/>
<polygon fill="#f5f5f5" stroke="transparent" points="459,-98 459,-120 645,-120 645,-98 459,-98"/>
<polygon fill="none" stroke="black" points="459,-98 459,-120 645,-120 645,-98 459,-98"/>
<text text-anchor="start" x="464" y="-107.2" font-family="Helvetica,sans-Serif" font-weight="bold" font-size="11.00">m_hook_registered_events</text>
<text text-anchor="start" x="610" y="-106.2" font-family="Helvetica,sans-Serif" font-size="11.00">[table]</text>
<polygon fill="none" stroke="black" points="459,-80 459,-98 645,-98 645,-80 459,-80"/>
<text text-anchor="start" x="462" y="-86.2" font-family="Helvetica,sans-Serif" font-size="11.00">...</text>
<polygon fill="#ffffff" stroke="transparent" points="459,-62 459,-80 537,-80 537,-62 459,-62"/>
<polygon fill="none" stroke="black" points="459,-62 459,-80 537,-80 537,-62 459,-62"/>
<text text-anchor="start" x="462" y="-68.2" font-family="Helvetica,sans-Serif" font-size="11.00">&lt; 1</text>
<polygon fill="#ffffff" stroke="transparent" points="537,-62 537,-80 604,-80 604,-62 537,-62"/>
<polygon fill="none" stroke="black" points="537,-62 537,-80 604,-80 604,-62 537,-62"/>
<text text-anchor="start" x="568" y="-68.2" font-family="Helvetica,sans-Serif" font-size="11.00">0 rows</text>
<polygon fill="#ffffff" stroke="transparent" points="604,-62 604,-80 645,-80 645,-62 604,-62"/>
<polygon fill="none" stroke="black" points="604,-62 604,-80 645,-80 645,-62 604,-62"/>
<text text-anchor="start" x="635" y="-68.2" font-family="Helvetica,sans-Serif" font-size="11.00"> &#160;</text>
</a>
</g>
</g>
<!-- m_hook_registered_events&#45;&gt;m_hook -->
<g id="edge4" class="edge">
<title>m_hook_registered_events:w&#45;&gt;m_hook:e</title>
<path fill="none" stroke="black" d="M444.41,-93.78C432.4,-104.2 432.21,-128 411,-128"/>
<polygon fill="black" stroke="black" points="450.45,-91.66 459.19,-92.4 454.23,-90.33 458,-89 458,-89 458,-89 454.23,-90.33 456.81,-85.6 450.45,-91.66 450.45,-91.66"/>
<ellipse fill="none" stroke="black" cx="447.43" cy="-92.72" rx="3.2" ry="3.2"/>
</g>
<!-- m_hook_schema -->
<g id="node6" class="node">
<title>m_hook_schema</title>
<g id="a_node6"><a xlink:href="../../tables/m_hook_schema.html" xlink:title="m_hook_schema" target="_top">
<polygon fill="#ffffff" stroke="transparent" points="269.5,-182 269.5,-284 408.5,-284 408.5,-182 269.5,-182"/>
<polygon fill="#f5f5f5" stroke="transparent" points="270,-262 270,-284 409,-284 409,-262 270,-262"/>
<polygon fill="none" stroke="black" points="270,-262 270,-284 409,-284 409,-262 270,-262"/>
<text text-anchor="start" x="275" y="-271.2" font-family="Helvetica,sans-Serif" font-weight="bold" font-size="11.00">m_hook_schema</text>
<text text-anchor="start" x="374" y="-270.2" font-family="Helvetica,sans-Serif" font-size="11.00">[table]</text>
<polygon fill="none" stroke="black" points="270,-240 270,-262 409,-262 409,-240 270,-240"/>
<image xlink:href="../../images/primaryKeys.png" width="11px" height="12px" preserveAspectRatio="xMinYMin meet" x="275" y="-257"/>
<text text-anchor="start" x="290" y="-248.2" font-family="Helvetica,sans-Serif" font-size="11.00">id</text>
<polygon fill="#ffffff" stroke="transparent" points="270,-218 270,-240 409,-240 409,-218 270,-218"/>
<polygon fill="none" stroke="black" points="270,-218 270,-240 409,-240 409,-218 270,-218"/>
<image xlink:href="../../images/foreignKeys.png" width="11px" height="12px" preserveAspectRatio="xMinYMin meet" x="275" y="-235"/>
<text text-anchor="start" x="290" y="-226.2" font-family="Helvetica,sans-Serif" font-size="11.00">hook_template_id</text>
<polygon fill="none" stroke="black" points="270,-200 270,-218 409,-218 409,-200 270,-200"/>
<text text-anchor="start" x="273" y="-206.2" font-family="Helvetica,sans-Serif" font-size="11.00">...</text>
<polygon fill="#ffffff" stroke="transparent" points="270,-182 270,-200 324,-200 324,-182 270,-182"/>
<polygon fill="none" stroke="black" points="270,-182 270,-200 324,-200 324,-182 270,-182"/>
<text text-anchor="start" x="273" y="-188.2" font-family="Helvetica,sans-Serif" font-size="11.00">&lt; 1</text>
<polygon fill="#ffffff" stroke="transparent" points="324,-182 324,-200 379,-200 379,-182 324,-182"/>
<polygon fill="none" stroke="black" points="324,-182 324,-200 379,-200 379,-182 324,-182"/>
<text text-anchor="start" x="343" y="-188.2" font-family="Helvetica,sans-Serif" font-size="11.00">0 rows</text>
<polygon fill="#ffffff" stroke="transparent" points="379,-182 379,-200 409,-200 409,-182 379,-182"/>
<polygon fill="none" stroke="black" points="379,-182 379,-200 409,-200 409,-182 379,-182"/>
<text text-anchor="start" x="399" y="-188.2" font-family="Helvetica,sans-Serif" font-size="11.00"> &#160;</text>
</a>
</g>
</g>
<!-- m_hook_schema&#45;&gt;m_hook_templates -->
<g id="edge5" class="edge">
<title>m_hook_schema:w&#45;&gt;m_hook_templates:e</title>
<path fill="none" stroke="black" d="M254.7,-226.05C242.5,-220.49 236.79,-209 218.5,-209"/>
<polygon fill="black" stroke="black" points="261.16,-227.38 268.27,-232.53 265.08,-228.19 269,-229 269,-229 269,-229 265.08,-228.19 269.73,-225.47 261.16,-227.38 261.16,-227.38"/>
<ellipse fill="none" stroke="black" cx="258.03" cy="-226.74" rx="3.2" ry="3.2"/>
</g>
</g>
</svg>
