<?xml version="1.0" encoding="UTF-8" standalone="no"?>
<!DOCTYPE svg PUBLIC "-//W3C//DTD SVG 1.1//EN"
 "http://www.w3.org/Graphics/SVG/1.1/DTD/svg11.dtd">
<!-- Generated by graphviz version 2.43.0 (0)
 -->
<!-- Title: twoDegreesRelationshipsDiagram Pages: 1 -->
<svg width="429pt" height="304pt"
 viewBox="0.00 0.00 429.00 304.00" xmlns="http://www.w3.org/2000/svg" xmlns:xlink="http://www.w3.org/1999/xlink">
<g id="graph0" class="graph" transform="scale(1 1) rotate(0) translate(4 300)">
<title>twoDegreesRelationshipsDiagram</title>
<polygon fill="#ffffff" stroke="transparent" points="-4,4 -4,-300 425,-300 425,4 -4,4"/>
<text text-anchor="middle" x="71.5" y="-7.2" font-family="Helvetica,sans-Serif" font-size="11.00">Generated by SchemaSpy</text>
<!-- m_hook -->
<g id="node1" class="node">
<title>m_hook</title>
<g id="a_node1"><a xlink:href="../../tables/m_hook.html" xlink:title="m_hook" target="_top">
<polygon fill="#ffffff" stroke="transparent" points="264.5,-234 264.5,-292 351.5,-292 351.5,-234 264.5,-234"/>
<polygon fill="#f5f5f5" stroke="transparent" points="265,-270 265,-292 352,-292 352,-270 265,-270"/>
<polygon fill="none" stroke="black" points="265,-270 265,-292 352,-292 352,-270 265,-270"/>
<text text-anchor="start" x="270" y="-279.2" font-family="Helvetica,sans-Serif" font-weight="bold" font-size="11.00">m_hook</text>
<text text-anchor="start" x="317" y="-278.2" font-family="Helvetica,sans-Serif" font-size="11.00">[table]</text>
<polygon fill="none" stroke="black" points="265,-252 265,-270 352,-270 352,-252 265,-252"/>
<text text-anchor="start" x="268" y="-258.2" font-family="Helvetica,sans-Serif" font-size="11.00">...</text>
<polygon fill="#ffffff" stroke="transparent" points="265,-234 265,-252 289,-252 289,-234 265,-234"/>
<polygon fill="none" stroke="black" points="265,-234 265,-252 289,-252 289,-234 265,-234"/>
<text text-anchor="start" x="268" y="-240.2" font-family="Helvetica,sans-Serif" font-size="11.00">&lt; 2</text>
<polygon fill="#ffffff" stroke="transparent" points="289,-234 289,-252 329,-252 329,-234 289,-234"/>
<polygon fill="none" stroke="black" points="289,-234 289,-252 329,-252 329,-234 289,-234"/>
<text text-anchor="start" x="293" y="-240.2" font-family="Helvetica,sans-Serif" font-size="11.00">0 rows</text>
<polygon fill="#ffffff" stroke="transparent" points="329,-234 329,-252 352,-252 352,-234 329,-234"/>
<polygon fill="none" stroke="black" points="329,-234 329,-252 352,-252 352,-234 329,-234"/>
<text text-anchor="start" x="333" y="-240.2" font-family="Helvetica,sans-Serif" font-size="11.00">2 &gt;</text>
</a>
</g>
</g>
<!-- m_hook_templates -->
<g id="node2" class="node">
<title>m_hook_templates</title>
<g id="a_node2"><a xlink:href="../../tables/m_hook_templates.html" xlink:title="m_hook_templates" target="_top">
<polygon fill="#ffffff" stroke="transparent" points="8,-161 8,-241 154,-241 154,-161 8,-161"/>
<polygon fill="#f5f5f5" stroke="transparent" points="8,-219 8,-241 154,-241 154,-219 8,-219"/>
<polygon fill="none" stroke="black" points="8,-219 8,-241 154,-241 154,-219 8,-219"/>
<text text-anchor="start" x="13" y="-228.2" font-family="Helvetica,sans-Serif" font-weight="bold" font-size="11.00">m_hook_templates</text>
<text text-anchor="start" x="119" y="-227.2" font-family="Helvetica,sans-Serif" font-size="11.00">[table]</text>
<polygon fill="none" stroke="black" points="8,-197 8,-219 154,-219 154,-197 8,-197"/>
<image xlink:href="../../images/primaryKeys.png" width="11px" height="12px" preserveAspectRatio="xMinYMin meet" x="13" y="-214"/>
<text text-anchor="start" x="28" y="-205.2" font-family="Helvetica,sans-Serif" font-size="11.00">id</text>
<polygon fill="none" stroke="black" points="8,-179 8,-197 154,-197 154,-179 8,-179"/>
<text text-anchor="start" x="11" y="-185.2" font-family="Helvetica,sans-Serif" font-size="11.00">...</text>
<polygon fill="#ffffff" stroke="transparent" points="8,-161 8,-179 57,-179 57,-161 8,-161"/>
<polygon fill="none" stroke="black" points="8,-161 8,-179 57,-179 57,-161 8,-161"/>
<text text-anchor="start" x="11" y="-167.2" font-family="Helvetica,sans-Serif" font-size="11.00"> &#160;</text>
<polygon fill="#ffffff" stroke="transparent" points="57,-161 57,-179 114,-179 114,-161 57,-161"/>
<polygon fill="none" stroke="black" points="57,-161 57,-179 114,-179 114,-161 57,-161"/>
<text text-anchor="start" x="78" y="-167.2" font-family="Helvetica,sans-Serif" font-size="11.00">0 rows</text>
<polygon fill="#ffffff" stroke="transparent" points="114,-161 114,-179 154,-179 154,-161 114,-161"/>
<polygon fill="none" stroke="black" points="114,-161 114,-179 154,-179 154,-161 114,-161"/>
<text text-anchor="start" x="135" y="-167.2" font-family="Helvetica,sans-Serif" font-size="11.00">2 &gt;</text>
</a>
</g>
</g>
<!-- m_hook&#45;&gt;m_hook_templates -->
<g id="edge1" class="edge">
<title>m_hook:w&#45;&gt;m_hook_templates:e</title>
<path fill="none" stroke="black" d="M249.93,-257.68C220.92,-246.08 177.83,-208 155,-208"/>
<polygon fill="black" stroke="black" points="256.21,-259.17 263.17,-264.5 260.11,-260.08 264,-261 264,-261 264,-261 260.11,-260.08 264.83,-257.5 256.21,-259.17 256.21,-259.17"/>
<ellipse fill="none" stroke="black" cx="253.1" cy="-258.43" rx="3.2" ry="3.2"/>
</g>
<!-- m_hook_schema -->
<g id="node3" class="node">
<title>m_hook_schema</title>
<g id="a_node3"><a xlink:href="../../tables/m_hook_schema.html" xlink:title="m_hook_schema" target="_top">
<polygon fill="#ffffff" stroke="transparent" points="203,-37 203,-213 413,-213 413,-37 203,-37"/>
<polygon fill="#f5f5f5" stroke="transparent" points="205,-189 205,-211 411,-211 411,-189 205,-189"/>
<polygon fill="none" stroke="black" points="205,-189 205,-211 411,-211 411,-189 205,-189"/>
<text text-anchor="start" x="210" y="-198.2" font-family="Helvetica,sans-Serif" font-weight="bold" font-size="11.00">m_hook_schema</text>
<text text-anchor="start" x="376" y="-197.2" font-family="Helvetica,sans-Serif" font-size="11.00">[table]</text>
<polygon fill="none" stroke="black" points="205,-167 205,-189 344,-189 344,-167 205,-167"/>
<image xlink:href="../../images/primaryKeys.png" width="11px" height="12px" preserveAspectRatio="xMinYMin meet" x="210" y="-184"/>
<text text-anchor="start" x="225" y="-175.2" font-family="Helvetica,sans-Serif" font-size="11.00">id</text>
<polygon fill="none" stroke="black" points="344,-167 344,-189 411,-189 411,-167 344,-167"/>
<text text-anchor="start" x="347" y="-175.2" font-family="Helvetica,sans-Serif" font-size="11.00">smallint[5]</text>
<polygon fill="#ffffff" stroke="transparent" points="205,-145 205,-167 344,-167 344,-145 205,-145"/>
<polygon fill="none" stroke="black" points="205,-145 205,-167 344,-167 344,-145 205,-145"/>
<image xlink:href="../../images/foreignKeys.png" width="11px" height="12px" preserveAspectRatio="xMinYMin meet" x="210" y="-162"/>
<text text-anchor="start" x="225" y="-153.2" font-family="Helvetica,sans-Serif" font-size="11.00">hook_template_id</text>
<polygon fill="none" stroke="black" points="344,-145 344,-167 411,-167 411,-145 344,-145"/>
<text text-anchor="start" x="347" y="-153.2" font-family="Helvetica,sans-Serif" font-size="11.00">smallint[5]</text>
<polygon fill="none" stroke="black" points="205,-123 205,-145 344,-145 344,-123 205,-123"/>
<text text-anchor="start" x="225" y="-131.2" font-family="Helvetica,sans-Serif" font-size="11.00">field_type</text>
<polygon fill="none" stroke="black" points="344,-123 344,-145 411,-145 411,-123 344,-123"/>
<text text-anchor="start" x="347" y="-131.2" font-family="Helvetica,sans-Serif" font-size="11.00">varchar[45]</text>
<polygon fill="none" stroke="black" points="205,-101 205,-123 344,-123 344,-101 205,-101"/>
<text text-anchor="start" x="225" y="-109.2" font-family="Helvetica,sans-Serif" font-size="11.00">field_name</text>
<polygon fill="none" stroke="black" points="344,-101 344,-123 411,-123 411,-101 344,-101"/>
<text text-anchor="start" x="347" y="-109.2" font-family="Helvetica,sans-Serif" font-size="11.00">varchar[100]</text>
<polygon fill="none" stroke="black" points="205,-79 205,-101 344,-101 344,-79 205,-79"/>
<text text-anchor="start" x="225" y="-87.2" font-family="Helvetica,sans-Serif" font-size="11.00">placeholder</text>
<polygon fill="none" stroke="black" points="344,-79 344,-101 411,-101 411,-79 344,-79"/>
<text text-anchor="start" x="347" y="-87.2" font-family="Helvetica,sans-Serif" font-size="11.00">varchar[100]</text>
<polygon fill="none" stroke="black" points="205,-57 205,-79 344,-79 344,-57 205,-57"/>
<text text-anchor="start" x="225" y="-65.2" font-family="Helvetica,sans-Serif" font-size="11.00">optional</text>
<polygon fill="none" stroke="black" points="344,-57 344,-79 411,-79 411,-57 344,-57"/>
<text text-anchor="start" x="347" y="-65.2" font-family="Helvetica,sans-Serif" font-size="11.00">bit[1]</text>
<polygon fill="#ffffff" stroke="transparent" points="205,-39 205,-57 266,-57 266,-39 205,-39"/>
<polygon fill="none" stroke="black" points="205,-39 205,-57 266,-57 266,-39 205,-39"/>
<text text-anchor="start" x="208" y="-45.2" font-family="Helvetica,sans-Serif" font-size="11.00">&lt; 1</text>
<polygon fill="#ffffff" stroke="transparent" points="266,-39 266,-57 344,-57 344,-39 266,-39"/>
<polygon fill="none" stroke="black" points="266,-39 266,-57 344,-57 344,-39 266,-39"/>
<text text-anchor="start" x="308" y="-45.2" font-family="Helvetica,sans-Serif" font-size="11.00">0 rows</text>
<polygon fill="#ffffff" stroke="transparent" points="344,-39 344,-57 411,-57 411,-39 344,-39"/>
<polygon fill="none" stroke="black" points="344,-39 344,-57 411,-57 411,-39 344,-39"/>
<text text-anchor="start" x="392" y="-45.2" font-family="Helvetica,sans-Serif" font-size="11.00">0 &gt;</text>
<polygon fill="none" stroke="black" stroke-width="2" points="204,-38 204,-212 412,-212 412,-38 204,-38"/>
</a>
</g>
</g>
<!-- m_hook_schema&#45;&gt;m_hook_templates -->
<g id="edge2" class="edge">
<title>m_hook_schema:w&#45;&gt;m_hook_templates:e</title>
<path fill="none" stroke="black" d="M190.41,-160.8C176.06,-173.67 180.8,-208 155,-208"/>
<polygon fill="black" stroke="black" points="196.46,-158.66 205.2,-159.39 200.23,-157.33 204,-156 204,-156 204,-156 200.23,-157.33 202.8,-152.61 196.46,-158.66 196.46,-158.66"/>
<ellipse fill="none" stroke="black" cx="193.44" cy="-159.73" rx="3.2" ry="3.2"/>
</g>
</g>
</svg>
