<?xml version="1.0" encoding="UTF-8" standalone="no"?>
<!DOCTYPE svg PUBLIC "-//W3C//DTD SVG 1.1//EN"
 "http://www.w3.org/Graphics/SVG/1.1/DTD/svg11.dtd">
<!-- Generated by graphviz version 2.43.0 (0)
 -->
<!-- Title: oneDegreeRelationshipsDiagram Pages: 1 -->
<svg width="429pt" height="225pt"
 viewBox="0.00 0.00 429.00 225.00" xmlns="http://www.w3.org/2000/svg" xmlns:xlink="http://www.w3.org/1999/xlink">
<g id="graph0" class="graph" transform="scale(1 1) rotate(0) translate(4 221)">
<title>oneDegreeRelationshipsDiagram</title>
<polygon fill="#ffffff" stroke="transparent" points="-4,4 -4,-221 425,-221 425,4 -4,4"/>
<text text-anchor="middle" x="71.5" y="-7.2" font-family="Helvetica,sans-Serif" font-size="11.00">Generated by SchemaSpy</text>
<!-- m_hook_schema -->
<g id="node1" class="node">
<title>m_hook_schema</title>
<g id="a_node1"><a xlink:href="../../tables/m_hook_schema.html" xlink:title="m_hook_schema" target="_top">
<polygon fill="#ffffff" stroke="transparent" points="203,-37 203,-213 413,-213 413,-37 203,-37"/>
<polygon fill="#f5f5f5" stroke="transparent" points="205,-189 205,-211 411,-211 411,-189 205,-189"/>
<polygon fill="none" stroke="black" points="205,-189 205,-211 411,-211 411,-189 205,-189"/>
<text text-anchor="start" x="210" y="-198.2" font-family="Helvetica,sans-Serif" font-weight="bold" font-size="11.00">m_hook_schema</text>
<text text-anchor="start" x="376" y="-197.2" font-family="Helvetica,sans-Serif" font-size="11.00">[table]</text>
<polygon fill="none" stroke="black" points="205,-167 205,-189 344,-189 344,-167 205,-167"/>
<image xlink:href="../../images/primaryKeys.png" width="11px" height="12px" preserveAspectRatio="xMinYMin meet" x="210" y="-184"/>
<text text-anchor="start" x="225" y="-175.2" font-family="Helvetica,sans-Serif" font-size="11.00">id</text>
<polygon fill="none" stroke="black" points="344,-167 344,-189 411,-189 411,-167 344,-167"/>
<text text-anchor="start" x="347" y="-175.2" font-family="Helvetica,sans-Serif" font-size="11.00">smallint[5]</text>
<polygon fill="#ffffff" stroke="transparent" points="205,-145 205,-167 344,-167 344,-145 205,-145"/>
<polygon fill="none" stroke="black" points="205,-145 205,-167 344,-167 344,-145 205,-145"/>
<image xlink:href="../../images/foreignKeys.png" width="11px" height="12px" preserveAspectRatio="xMinYMin meet" x="210" y="-162"/>
<text text-anchor="start" x="225" y="-153.2" font-family="Helvetica,sans-Serif" font-size="11.00">hook_template_id</text>
<polygon fill="none" stroke="black" points="344,-145 344,-167 411,-167 411,-145 344,-145"/>
<text text-anchor="start" x="347" y="-153.2" font-family="Helvetica,sans-Serif" font-size="11.00">smallint[5]</text>
<polygon fill="none" stroke="black" points="205,-123 205,-145 344,-145 344,-123 205,-123"/>
<text text-anchor="start" x="225" y="-131.2" font-family="Helvetica,sans-Serif" font-size="11.00">field_type</text>
<polygon fill="none" stroke="black" points="344,-123 344,-145 411,-145 411,-123 344,-123"/>
<text text-anchor="start" x="347" y="-131.2" font-family="Helvetica,sans-Serif" font-size="11.00">varchar[45]</text>
<polygon fill="none" stroke="black" points="205,-101 205,-123 344,-123 344,-101 205,-101"/>
<text text-anchor="start" x="225" y="-109.2" font-family="Helvetica,sans-Serif" font-size="11.00">field_name</text>
<polygon fill="none" stroke="black" points="344,-101 344,-123 411,-123 411,-101 344,-101"/>
<text text-anchor="start" x="347" y="-109.2" font-family="Helvetica,sans-Serif" font-size="11.00">varchar[100]</text>
<polygon fill="none" stroke="black" points="205,-79 205,-101 344,-101 344,-79 205,-79"/>
<text text-anchor="start" x="225" y="-87.2" font-family="Helvetica,sans-Serif" font-size="11.00">placeholder</text>
<polygon fill="none" stroke="black" points="344,-79 344,-101 411,-101 411,-79 344,-79"/>
<text text-anchor="start" x="347" y="-87.2" font-family="Helvetica,sans-Serif" font-size="11.00">varchar[100]</text>
<polygon fill="none" stroke="black" points="205,-57 205,-79 344,-79 344,-57 205,-57"/>
<text text-anchor="start" x="225" y="-65.2" font-family="Helvetica,sans-Serif" font-size="11.00">optional</text>
<polygon fill="none" stroke="black" points="344,-57 344,-79 411,-79 411,-57 344,-57"/>
<text text-anchor="start" x="347" y="-65.2" font-family="Helvetica,sans-Serif" font-size="11.00">bit[1]</text>
<polygon fill="#ffffff" stroke="transparent" points="205,-39 205,-57 266,-57 266,-39 205,-39"/>
<polygon fill="none" stroke="black" points="205,-39 205,-57 266,-57 266,-39 205,-39"/>
<text text-anchor="start" x="208" y="-45.2" font-family="Helvetica,sans-Serif" font-size="11.00">&lt; 1</text>
<polygon fill="#ffffff" stroke="transparent" points="266,-39 266,-57 344,-57 344,-39 266,-39"/>
<polygon fill="none" stroke="black" points="266,-39 266,-57 344,-57 344,-39 266,-39"/>
<text text-anchor="start" x="308" y="-45.2" font-family="Helvetica,sans-Serif" font-size="11.00">0 rows</text>
<polygon fill="#ffffff" stroke="transparent" points="344,-39 344,-57 411,-57 411,-39 344,-39"/>
<polygon fill="none" stroke="black" points="344,-39 344,-57 411,-57 411,-39 344,-39"/>
<text text-anchor="start" x="392" y="-45.2" font-family="Helvetica,sans-Serif" font-size="11.00">0 &gt;</text>
<polygon fill="none" stroke="black" stroke-width="2" points="204,-38 204,-212 412,-212 412,-38 204,-38"/>
</a>
</g>
</g>
<!-- m_hook_templates -->
<g id="node2" class="node">
<title>m_hook_templates</title>
<g id="a_node2"><a xlink:href="../../tables/m_hook_templates.html" xlink:title="m_hook_templates" target="_top">
<polygon fill="#ffffff" stroke="transparent" points="8,-109 8,-189 154,-189 154,-109 8,-109"/>
<polygon fill="#f5f5f5" stroke="transparent" points="8,-167 8,-189 154,-189 154,-167 8,-167"/>
<polygon fill="none" stroke="black" points="8,-167 8,-189 154,-189 154,-167 8,-167"/>
<text text-anchor="start" x="13" y="-176.2" font-family="Helvetica,sans-Serif" font-weight="bold" font-size="11.00">m_hook_templates</text>
<text text-anchor="start" x="119" y="-175.2" font-family="Helvetica,sans-Serif" font-size="11.00">[table]</text>
<polygon fill="none" stroke="black" points="8,-145 8,-167 154,-167 154,-145 8,-145"/>
<image xlink:href="../../images/primaryKeys.png" width="11px" height="12px" preserveAspectRatio="xMinYMin meet" x="13" y="-162"/>
<text text-anchor="start" x="28" y="-153.2" font-family="Helvetica,sans-Serif" font-size="11.00">id</text>
<polygon fill="none" stroke="black" points="8,-127 8,-145 154,-145 154,-127 8,-127"/>
<text text-anchor="start" x="11" y="-133.2" font-family="Helvetica,sans-Serif" font-size="11.00">...</text>
<polygon fill="#ffffff" stroke="transparent" points="8,-109 8,-127 57,-127 57,-109 8,-109"/>
<polygon fill="none" stroke="black" points="8,-109 8,-127 57,-127 57,-109 8,-109"/>
<text text-anchor="start" x="11" y="-115.2" font-family="Helvetica,sans-Serif" font-size="11.00"> &#160;</text>
<polygon fill="#ffffff" stroke="transparent" points="57,-109 57,-127 114,-127 114,-109 57,-109"/>
<polygon fill="none" stroke="black" points="57,-109 57,-127 114,-127 114,-109 57,-109"/>
<text text-anchor="start" x="78" y="-115.2" font-family="Helvetica,sans-Serif" font-size="11.00">0 rows</text>
<polygon fill="#ffffff" stroke="transparent" points="114,-109 114,-127 154,-127 154,-109 114,-109"/>
<polygon fill="none" stroke="black" points="114,-109 114,-127 154,-127 154,-109 114,-109"/>
<text text-anchor="start" x="135" y="-115.2" font-family="Helvetica,sans-Serif" font-size="11.00">2 &gt;</text>
</a>
</g>
</g>
<!-- m_hook_schema&#45;&gt;m_hook_templates -->
<g id="edge1" class="edge">
<title>m_hook_schema:w&#45;&gt;m_hook_templates:e</title>
<path fill="none" stroke="black" d="M189.49,-156C178.18,-156 170.99,-156 155,-156"/>
<polygon fill="black" stroke="black" points="196,-156 204,-159.6 200,-156 204,-156 204,-156 204,-156 200,-156 204,-152.4 196,-156 196,-156"/>
<ellipse fill="none" stroke="black" cx="192.8" cy="-156" rx="3.2" ry="3.2"/>
</g>
</g>
</svg>
