<?xml version="1.0" encoding="UTF-8" standalone="no"?>
<!DOCTYPE svg PUBLIC "-//W3C//DTD SVG 1.1//EN"
 "http://www.w3.org/Graphics/SVG/1.1/DTD/svg11.dtd">
<!-- Generated by graphviz version 2.43.0 (0)
 -->
<!-- Title: oneDegreeRelationshipsDiagram Pages: 1 -->
<svg width="426pt" height="296pt"
 viewBox="0.00 0.00 426.00 296.00" xmlns="http://www.w3.org/2000/svg" xmlns:xlink="http://www.w3.org/1999/xlink">
<g id="graph0" class="graph" transform="scale(1 1) rotate(0) translate(4 292)">
<title>oneDegreeRelationshipsDiagram</title>
<polygon fill="#ffffff" stroke="transparent" points="-4,4 -4,-292 422,-292 422,4 -4,4"/>
<text text-anchor="middle" x="71.5" y="-7.2" font-family="Helvetica,sans-Serif" font-size="11.00">Generated by SchemaSpy</text>
<!-- m_hook -->
<g id="node1" class="node">
<title>m_hook</title>
<g id="a_node1"><a xlink:href="../../tables/m_hook.html" xlink:title="m_hook" target="_top">
<polygon fill="#ffffff" stroke="transparent" points="268,-160 268,-284 410,-284 410,-160 268,-160"/>
<polygon fill="#f5f5f5" stroke="transparent" points="268,-262 268,-284 410,-284 410,-262 268,-262"/>
<polygon fill="none" stroke="black" points="268,-262 268,-284 410,-284 410,-262 268,-262"/>
<text text-anchor="start" x="273" y="-271.2" font-family="Helvetica,sans-Serif" font-weight="bold" font-size="11.00">m_hook</text>
<text text-anchor="start" x="375" y="-270.2" font-family="Helvetica,sans-Serif" font-size="11.00">[table]</text>
<polygon fill="none" stroke="black" points="268,-240 268,-262 410,-262 410,-240 268,-240"/>
<image xlink:href="../../images/primaryKeys.png" width="11px" height="12px" preserveAspectRatio="xMinYMin meet" x="273" y="-257"/>
<text text-anchor="start" x="288" y="-248.2" font-family="Helvetica,sans-Serif" font-size="11.00">id</text>
<polygon fill="#ffffff" stroke="transparent" points="268,-218 268,-240 410,-240 410,-218 268,-218"/>
<polygon fill="none" stroke="black" points="268,-218 268,-240 410,-240 410,-218 268,-218"/>
<image xlink:href="../../images/foreignKeys.png" width="11px" height="12px" preserveAspectRatio="xMinYMin meet" x="273" y="-235"/>
<text text-anchor="start" x="288" y="-226.2" font-family="Helvetica,sans-Serif" font-size="11.00">template_id</text>
<polygon fill="#ffffff" stroke="transparent" points="268,-196 268,-218 410,-218 410,-196 268,-196"/>
<polygon fill="none" stroke="black" points="268,-196 268,-218 410,-218 410,-196 268,-196"/>
<image xlink:href="../../images/foreignKeys.png" width="11px" height="12px" preserveAspectRatio="xMinYMin meet" x="273" y="-213"/>
<text text-anchor="start" x="288" y="-204.2" font-family="Helvetica,sans-Serif" font-size="11.00">ugd_template_id</text>
<polygon fill="none" stroke="black" points="268,-178 268,-196 410,-196 410,-178 268,-178"/>
<text text-anchor="start" x="271" y="-184.2" font-family="Helvetica,sans-Serif" font-size="11.00">...</text>
<polygon fill="#ffffff" stroke="transparent" points="268,-160 268,-178 319,-178 319,-160 268,-160"/>
<polygon fill="none" stroke="black" points="268,-160 268,-178 319,-178 319,-160 268,-160"/>
<text text-anchor="start" x="271" y="-166.2" font-family="Helvetica,sans-Serif" font-size="11.00">&lt; 2</text>
<polygon fill="#ffffff" stroke="transparent" points="319,-160 319,-178 373,-178 373,-160 319,-160"/>
<polygon fill="none" stroke="black" points="319,-160 319,-178 373,-178 373,-160 319,-160"/>
<text text-anchor="start" x="337" y="-166.2" font-family="Helvetica,sans-Serif" font-size="11.00">0 rows</text>
<polygon fill="#ffffff" stroke="transparent" points="373,-160 373,-178 410,-178 410,-160 373,-160"/>
<polygon fill="none" stroke="black" points="373,-160 373,-178 410,-178 410,-160 373,-160"/>
<text text-anchor="start" x="391" y="-166.2" font-family="Helvetica,sans-Serif" font-size="11.00">2 &gt;</text>
</a>
</g>
</g>
<!-- m_hook_templates -->
<g id="node2" class="node">
<title>m_hook_templates</title>
<g id="a_node2"><a xlink:href="../../tables/m_hook_templates.html" xlink:title="m_hook_templates" target="_top">
<polygon fill="#ffffff" stroke="transparent" points="8,-103 8,-191 219,-191 219,-103 8,-103"/>
<polygon fill="#f5f5f5" stroke="transparent" points="10.5,-167 10.5,-189 217.5,-189 217.5,-167 10.5,-167"/>
<polygon fill="none" stroke="black" points="10.5,-167 10.5,-189 217.5,-189 217.5,-167 10.5,-167"/>
<text text-anchor="start" x="15.5" y="-176.2" font-family="Helvetica,sans-Serif" font-weight="bold" font-size="11.00">m_hook_templates</text>
<text text-anchor="start" x="182.5" y="-175.2" font-family="Helvetica,sans-Serif" font-size="11.00">[table]</text>
<polygon fill="none" stroke="black" points="10.5,-145 10.5,-167 156.5,-167 156.5,-145 10.5,-145"/>
<image xlink:href="../../images/primaryKeys.png" width="11px" height="12px" preserveAspectRatio="xMinYMin meet" x="15.5" y="-162"/>
<text text-anchor="start" x="30.5" y="-153.2" font-family="Helvetica,sans-Serif" font-size="11.00">id</text>
<polygon fill="none" stroke="black" points="156.5,-145 156.5,-167 217.5,-167 217.5,-145 156.5,-145"/>
<text text-anchor="start" x="159.5" y="-153.2" font-family="Helvetica,sans-Serif" font-size="11.00">smallint[5]</text>
<polygon fill="none" stroke="black" points="10.5,-123 10.5,-145 156.5,-145 156.5,-123 10.5,-123"/>
<text text-anchor="start" x="30.5" y="-131.2" font-family="Helvetica,sans-Serif" font-size="11.00">name</text>
<polygon fill="none" stroke="black" points="156.5,-123 156.5,-145 217.5,-145 217.5,-123 156.5,-123"/>
<text text-anchor="start" x="159.5" y="-131.2" font-family="Helvetica,sans-Serif" font-size="11.00">varchar[45]</text>
<polygon fill="#ffffff" stroke="transparent" points="10.5,-105 10.5,-123 74.5,-123 74.5,-105 10.5,-105"/>
<polygon fill="none" stroke="black" points="10.5,-105 10.5,-123 74.5,-123 74.5,-105 10.5,-105"/>
<text text-anchor="start" x="13.5" y="-111.2" font-family="Helvetica,sans-Serif" font-size="11.00">&lt; 0</text>
<polygon fill="#ffffff" stroke="transparent" points="74.5,-105 74.5,-123 156.5,-123 156.5,-105 74.5,-105"/>
<polygon fill="none" stroke="black" points="74.5,-105 74.5,-123 156.5,-123 156.5,-105 74.5,-105"/>
<text text-anchor="start" x="120.5" y="-111.2" font-family="Helvetica,sans-Serif" font-size="11.00">0 rows</text>
<polygon fill="#ffffff" stroke="transparent" points="156.5,-105 156.5,-123 217.5,-123 217.5,-105 156.5,-105"/>
<polygon fill="none" stroke="black" points="156.5,-105 156.5,-123 217.5,-123 217.5,-105 156.5,-105"/>
<text text-anchor="start" x="198.5" y="-111.2" font-family="Helvetica,sans-Serif" font-size="11.00">2 &gt;</text>
<polygon fill="none" stroke="black" stroke-width="2" points="9,-104 9,-190 218,-190 218,-104 9,-104"/>
</a>
</g>
</g>
<!-- m_hook&#45;&gt;m_hook_templates -->
<g id="edge1" class="edge">
<title>m_hook:w&#45;&gt;m_hook_templates:e</title>
<path fill="none" stroke="black" d="M253.23,-224.21C235.57,-207.97 251.37,-156 218.5,-156"/>
<polygon fill="black" stroke="black" points="259.44,-226.37 265.82,-232.4 263.22,-227.69 267,-229 267,-229 267,-229 263.22,-227.69 268.18,-225.6 259.44,-226.37 259.44,-226.37"/>
<ellipse fill="none" stroke="black" cx="256.42" cy="-225.32" rx="3.2" ry="3.2"/>
</g>
<!-- m_hook_schema -->
<g id="node3" class="node">
<title>m_hook_schema</title>
<g id="a_node3"><a xlink:href="../../tables/m_hook_schema.html" xlink:title="m_hook_schema" target="_top">
<polygon fill="#ffffff" stroke="transparent" points="269.5,-37 269.5,-139 408.5,-139 408.5,-37 269.5,-37"/>
<polygon fill="#f5f5f5" stroke="transparent" points="270,-117 270,-139 409,-139 409,-117 270,-117"/>
<polygon fill="none" stroke="black" points="270,-117 270,-139 409,-139 409,-117 270,-117"/>
<text text-anchor="start" x="275" y="-126.2" font-family="Helvetica,sans-Serif" font-weight="bold" font-size="11.00">m_hook_schema</text>
<text text-anchor="start" x="374" y="-125.2" font-family="Helvetica,sans-Serif" font-size="11.00">[table]</text>
<polygon fill="none" stroke="black" points="270,-95 270,-117 409,-117 409,-95 270,-95"/>
<image xlink:href="../../images/primaryKeys.png" width="11px" height="12px" preserveAspectRatio="xMinYMin meet" x="275" y="-112"/>
<text text-anchor="start" x="290" y="-103.2" font-family="Helvetica,sans-Serif" font-size="11.00">id</text>
<polygon fill="#ffffff" stroke="transparent" points="270,-73 270,-95 409,-95 409,-73 270,-73"/>
<polygon fill="none" stroke="black" points="270,-73 270,-95 409,-95 409,-73 270,-73"/>
<image xlink:href="../../images/foreignKeys.png" width="11px" height="12px" preserveAspectRatio="xMinYMin meet" x="275" y="-90"/>
<text text-anchor="start" x="290" y="-81.2" font-family="Helvetica,sans-Serif" font-size="11.00">hook_template_id</text>
<polygon fill="none" stroke="black" points="270,-55 270,-73 409,-73 409,-55 270,-55"/>
<text text-anchor="start" x="273" y="-61.2" font-family="Helvetica,sans-Serif" font-size="11.00">...</text>
<polygon fill="#ffffff" stroke="transparent" points="270,-37 270,-55 324,-55 324,-37 270,-37"/>
<polygon fill="none" stroke="black" points="270,-37 270,-55 324,-55 324,-37 270,-37"/>
<text text-anchor="start" x="273" y="-43.2" font-family="Helvetica,sans-Serif" font-size="11.00">&lt; 1</text>
<polygon fill="#ffffff" stroke="transparent" points="324,-37 324,-55 379,-55 379,-37 324,-37"/>
<polygon fill="none" stroke="black" points="324,-37 324,-55 379,-55 379,-37 324,-37"/>
<text text-anchor="start" x="343" y="-43.2" font-family="Helvetica,sans-Serif" font-size="11.00">0 rows</text>
<polygon fill="#ffffff" stroke="transparent" points="379,-37 379,-55 409,-55 409,-37 379,-37"/>
<polygon fill="none" stroke="black" points="379,-37 379,-55 409,-55 409,-37 379,-37"/>
<text text-anchor="start" x="399" y="-43.2" font-family="Helvetica,sans-Serif" font-size="11.00"> &#160;</text>
</a>
</g>
</g>
<!-- m_hook_schema&#45;&gt;m_hook_templates -->
<g id="edge2" class="edge">
<title>m_hook_schema:w&#45;&gt;m_hook_templates:e</title>
<path fill="none" stroke="black" d="M255.31,-88.5C236.8,-104.27 251.63,-156 218.5,-156"/>
<polygon fill="black" stroke="black" points="261.4,-86.5 270.13,-87.42 265.2,-85.25 269,-84 269,-84 269,-84 265.2,-85.25 267.87,-80.58 261.4,-86.5 261.4,-86.5"/>
<ellipse fill="none" stroke="black" cx="258.36" cy="-87.5" rx="3.2" ry="3.2"/>
</g>
</g>
</svg>
