<?xml version="1.0" encoding="UTF-8" standalone="no"?>
<!DOCTYPE svg PUBLIC "-//W3C//DTD SVG 1.1//EN"
 "http://www.w3.org/Graphics/SVG/1.1/DTD/svg11.dtd">
<!-- Generated by graphviz version 2.43.0 (0)
 -->
<!-- Title: oneDegreeRelationshipsDiagram Pages: 1 -->
<svg width="488pt" height="291pt"
 viewBox="0.00 0.00 488.00 291.00" xmlns="http://www.w3.org/2000/svg" xmlns:xlink="http://www.w3.org/1999/xlink">
<g id="graph0" class="graph" transform="scale(1 1) rotate(0) translate(4 287)">
<title>oneDegreeRelationshipsDiagram</title>
<polygon fill="#ffffff" stroke="transparent" points="-4,4 -4,-287 484,-287 484,4 -4,4"/>
<text text-anchor="middle" x="71.5" y="-7.2" font-family="Helvetica,sans-Serif" font-size="11.00">Generated by SchemaSpy</text>
<!-- m_holiday_office -->
<g id="node1" class="node">
<title>m_holiday_office</title>
<g id="a_node1"><a xlink:href="../../tables/m_holiday_office.html" xlink:title="m_holiday_office" target="_top">
<polygon fill="#ffffff" stroke="transparent" points="338,-193 338,-277 472,-277 472,-193 338,-193"/>
<polygon fill="#f5f5f5" stroke="transparent" points="338,-255 338,-277 472,-277 472,-255 338,-255"/>
<polygon fill="none" stroke="black" points="338,-255 338,-277 472,-277 472,-255 338,-255"/>
<text text-anchor="start" x="343" y="-264.2" font-family="Helvetica,sans-Serif" font-weight="bold" font-size="11.00">m_holiday_office</text>
<text text-anchor="start" x="437" y="-263.2" font-family="Helvetica,sans-Serif" font-size="11.00">[table]</text>
<polygon fill="none" stroke="black" points="338,-233 338,-255 472,-255 472,-233 338,-233"/>
<image xlink:href="../../images/primaryKeys.png" width="11px" height="12px" preserveAspectRatio="xMinYMin meet" x="343" y="-250"/>
<text text-anchor="start" x="359" y="-241.2" font-family="Helvetica,sans-Serif" font-size="11.00">holiday_id</text>
<polygon fill="none" stroke="black" points="338,-211 338,-233 472,-233 472,-211 338,-211"/>
<image xlink:href="../../images/primaryKeys.png" width="11px" height="12px" preserveAspectRatio="xMinYMin meet" x="343" y="-228"/>
<text text-anchor="start" x="359" y="-219.2" font-family="Helvetica,sans-Serif" font-size="11.00">office_id</text>
<polygon fill="#ffffff" stroke="transparent" points="338,-193 338,-211 390,-211 390,-193 338,-193"/>
<polygon fill="none" stroke="black" points="338,-193 338,-211 390,-211 390,-193 338,-193"/>
<text text-anchor="start" x="341" y="-199.2" font-family="Helvetica,sans-Serif" font-size="11.00">&lt; 2</text>
<polygon fill="#ffffff" stroke="transparent" points="390,-193 390,-211 444,-211 444,-193 390,-193"/>
<polygon fill="none" stroke="black" points="390,-193 390,-211 444,-211 444,-193 390,-193"/>
<text text-anchor="start" x="408" y="-199.2" font-family="Helvetica,sans-Serif" font-size="11.00">0 rows</text>
<polygon fill="#ffffff" stroke="transparent" points="444,-193 444,-211 472,-211 472,-193 444,-193"/>
<polygon fill="none" stroke="black" points="444,-193 444,-211 472,-211 472,-193 444,-193"/>
<text text-anchor="start" x="462" y="-199.2" font-family="Helvetica,sans-Serif" font-size="11.00"> &#160;</text>
</a>
</g>
</g>
<!-- m_holiday -->
<g id="node2" class="node">
<title>m_holiday</title>
<g id="a_node2"><a xlink:href="../../tables/m_holiday.html" xlink:title="m_holiday" target="_top">
<polygon fill="#ffffff" stroke="transparent" points="8,-37 8,-279 289,-279 289,-37 8,-37"/>
<polygon fill="#f5f5f5" stroke="transparent" points="10.5,-255 10.5,-277 287.5,-277 287.5,-255 10.5,-255"/>
<polygon fill="none" stroke="black" points="10.5,-255 10.5,-277 287.5,-277 287.5,-255 10.5,-255"/>
<text text-anchor="start" x="15.5" y="-264.2" font-family="Helvetica,sans-Serif" font-weight="bold" font-size="11.00">m_holiday</text>
<text text-anchor="start" x="252.5" y="-263.2" font-family="Helvetica,sans-Serif" font-size="11.00">[table]</text>
<polygon fill="none" stroke="black" points="10.5,-233 10.5,-255 220.5,-255 220.5,-233 10.5,-233"/>
<image xlink:href="../../images/primaryKeys.png" width="11px" height="12px" preserveAspectRatio="xMinYMin meet" x="15.5" y="-250"/>
<text text-anchor="start" x="30.5" y="-241.2" font-family="Helvetica,sans-Serif" font-size="11.00">id</text>
<polygon fill="none" stroke="black" points="220.5,-233 220.5,-255 287.5,-255 287.5,-233 220.5,-233"/>
<text text-anchor="start" x="223.5" y="-241.2" font-family="Helvetica,sans-Serif" font-size="11.00">bigint[19]</text>
<polygon fill="#ffffff" stroke="transparent" points="10.5,-211 10.5,-233 220.5,-233 220.5,-211 10.5,-211"/>
<polygon fill="none" stroke="black" points="10.5,-211 10.5,-233 220.5,-233 220.5,-211 10.5,-211"/>
<text text-anchor="start" x="30.5" y="-219.2" font-family="Helvetica,sans-Serif" font-size="11.00">name</text>
<polygon fill="none" stroke="black" points="220.5,-211 220.5,-233 287.5,-233 287.5,-211 220.5,-211"/>
<text text-anchor="start" x="223.5" y="-219.2" font-family="Helvetica,sans-Serif" font-size="11.00">varchar[100]</text>
<polygon fill="#ffffff" stroke="transparent" points="10.5,-189 10.5,-211 220.5,-211 220.5,-189 10.5,-189"/>
<polygon fill="none" stroke="black" points="10.5,-189 10.5,-211 220.5,-211 220.5,-189 10.5,-189"/>
<text text-anchor="start" x="30.5" y="-197.2" font-family="Helvetica,sans-Serif" font-size="11.00">from_date</text>
<polygon fill="none" stroke="black" points="220.5,-189 220.5,-211 287.5,-211 287.5,-189 220.5,-189"/>
<text text-anchor="start" x="223.5" y="-197.2" font-family="Helvetica,sans-Serif" font-size="11.00">datetime[19]</text>
<polygon fill="none" stroke="black" points="10.5,-167 10.5,-189 220.5,-189 220.5,-167 10.5,-167"/>
<text text-anchor="start" x="30.5" y="-175.2" font-family="Helvetica,sans-Serif" font-size="11.00">to_date</text>
<polygon fill="none" stroke="black" points="220.5,-167 220.5,-189 287.5,-189 287.5,-167 220.5,-167"/>
<text text-anchor="start" x="223.5" y="-175.2" font-family="Helvetica,sans-Serif" font-size="11.00">datetime[19]</text>
<polygon fill="none" stroke="black" points="10.5,-145 10.5,-167 220.5,-167 220.5,-145 10.5,-145"/>
<text text-anchor="start" x="30.5" y="-153.2" font-family="Helvetica,sans-Serif" font-size="11.00">repayments_rescheduled_to</text>
<polygon fill="none" stroke="black" points="220.5,-145 220.5,-167 287.5,-167 287.5,-145 220.5,-145"/>
<text text-anchor="start" x="223.5" y="-153.2" font-family="Helvetica,sans-Serif" font-size="11.00">datetime[19]</text>
<polygon fill="none" stroke="black" points="10.5,-123 10.5,-145 220.5,-145 220.5,-123 10.5,-123"/>
<text text-anchor="start" x="30.5" y="-131.2" font-family="Helvetica,sans-Serif" font-size="11.00">status_enum</text>
<polygon fill="none" stroke="black" points="220.5,-123 220.5,-145 287.5,-145 287.5,-123 220.5,-123"/>
<text text-anchor="start" x="223.5" y="-131.2" font-family="Helvetica,sans-Serif" font-size="11.00">int[10]</text>
<polygon fill="none" stroke="black" points="10.5,-101 10.5,-123 220.5,-123 220.5,-101 10.5,-101"/>
<text text-anchor="start" x="30.5" y="-109.2" font-family="Helvetica,sans-Serif" font-size="11.00">processed</text>
<polygon fill="none" stroke="black" points="220.5,-101 220.5,-123 287.5,-123 287.5,-101 220.5,-101"/>
<text text-anchor="start" x="223.5" y="-109.2" font-family="Helvetica,sans-Serif" font-size="11.00">bit[1]</text>
<polygon fill="none" stroke="black" points="10.5,-79 10.5,-101 220.5,-101 220.5,-79 10.5,-79"/>
<text text-anchor="start" x="30.5" y="-87.2" font-family="Helvetica,sans-Serif" font-size="11.00">description</text>
<polygon fill="none" stroke="black" points="220.5,-79 220.5,-101 287.5,-101 287.5,-79 220.5,-79"/>
<text text-anchor="start" x="223.5" y="-87.2" font-family="Helvetica,sans-Serif" font-size="11.00">varchar[100]</text>
<polygon fill="none" stroke="black" points="10.5,-57 10.5,-79 220.5,-79 220.5,-57 10.5,-57"/>
<text text-anchor="start" x="30.5" y="-65.2" font-family="Helvetica,sans-Serif" font-size="11.00">rescheduling_type</text>
<polygon fill="none" stroke="black" points="220.5,-57 220.5,-79 287.5,-79 287.5,-57 220.5,-57"/>
<text text-anchor="start" x="223.5" y="-65.2" font-family="Helvetica,sans-Serif" font-size="11.00">int[10]</text>
<polygon fill="#ffffff" stroke="transparent" points="10.5,-39 10.5,-57 106.5,-57 106.5,-39 10.5,-39"/>
<polygon fill="none" stroke="black" points="10.5,-39 10.5,-57 106.5,-57 106.5,-39 10.5,-39"/>
<text text-anchor="start" x="13.5" y="-45.2" font-family="Helvetica,sans-Serif" font-size="11.00">&lt; 0</text>
<polygon fill="#ffffff" stroke="transparent" points="106.5,-39 106.5,-57 220.5,-57 220.5,-39 106.5,-39"/>
<polygon fill="none" stroke="black" points="106.5,-39 106.5,-57 220.5,-57 220.5,-39 106.5,-39"/>
<text text-anchor="start" x="184.5" y="-45.2" font-family="Helvetica,sans-Serif" font-size="11.00">0 rows</text>
<polygon fill="#ffffff" stroke="transparent" points="220.5,-39 220.5,-57 287.5,-57 287.5,-39 220.5,-39"/>
<polygon fill="none" stroke="black" points="220.5,-39 220.5,-57 287.5,-57 287.5,-39 220.5,-39"/>
<text text-anchor="start" x="268.5" y="-45.2" font-family="Helvetica,sans-Serif" font-size="11.00">1 &gt;</text>
<polygon fill="none" stroke="black" stroke-width="2" points="9,-38 9,-278 288,-278 288,-38 9,-38"/>
</a>
</g>
</g>
<!-- m_holiday_office&#45;&gt;m_holiday -->
<g id="edge1" class="edge">
<title>m_holiday_office:w&#45;&gt;m_holiday:e</title>
<path fill="none" stroke="black" d="M322.28,-244C311.29,-244 304.16,-244 288.5,-244"/>
<polygon fill="black" stroke="black" points="329,-244 337,-247.6 333,-244 337,-244 337,-244 337,-244 333,-244 337,-240.4 329,-244 329,-244"/>
<ellipse fill="none" stroke="black" cx="325.8" cy="-244" rx="3.2" ry="3.2"/>
</g>
</g>
</svg>
