<?xml version="1.0" encoding="UTF-8" standalone="no"?>
<!DOCTYPE svg PUBLIC "-//W3C//DTD SVG 1.1//EN"
 "http://www.w3.org/Graphics/SVG/1.1/DTD/svg11.dtd">
<!-- Generated by graphviz version 2.43.0 (0)
 -->
<!-- Title: twoDegreesRelationshipsDiagram Pages: 1 -->
<svg width="680pt" height="410pt"
 viewBox="0.00 0.00 680.00 410.00" xmlns="http://www.w3.org/2000/svg" xmlns:xlink="http://www.w3.org/1999/xlink">
<g id="graph0" class="graph" transform="scale(1 1) rotate(0) translate(4 406)">
<title>twoDegreesRelationshipsDiagram</title>
<polygon fill="#ffffff" stroke="transparent" points="-4,4 -4,-406 676,-406 676,4 -4,4"/>
<text text-anchor="middle" x="71.5" y="-7.2" font-family="Helvetica,sans-Serif" font-size="11.00">Generated by SchemaSpy</text>
<!-- m_hook -->
<g id="node1" class="node">
<title>m_hook</title>
<g id="a_node1"><a xlink:href="../../tables/m_hook.html" xlink:title="m_hook" target="_top">
<polygon fill="#ffffff" stroke="transparent" points="203,-75 203,-317 415,-317 415,-75 203,-75"/>
<polygon fill="#f5f5f5" stroke="transparent" points="205,-293 205,-315 413,-315 413,-293 205,-293"/>
<polygon fill="none" stroke="black" points="205,-293 205,-315 413,-315 413,-293 205,-293"/>
<text text-anchor="start" x="210" y="-302.2" font-family="Helvetica,sans-Serif" font-weight="bold" font-size="11.00">m_hook</text>
<text text-anchor="start" x="378" y="-301.2" font-family="Helvetica,sans-Serif" font-size="11.00">[table]</text>
<polygon fill="none" stroke="black" points="205,-271 205,-293 347,-293 347,-271 205,-271"/>
<image xlink:href="../../images/primaryKeys.png" width="11px" height="12px" preserveAspectRatio="xMinYMin meet" x="210" y="-288"/>
<text text-anchor="start" x="225" y="-279.2" font-family="Helvetica,sans-Serif" font-size="11.00">id</text>
<polygon fill="none" stroke="black" points="347,-271 347,-293 413,-293 413,-271 347,-271"/>
<text text-anchor="start" x="350" y="-279.2" font-family="Helvetica,sans-Serif" font-size="11.00">bigint[19]</text>
<polygon fill="#ffffff" stroke="transparent" points="205,-249 205,-271 347,-271 347,-249 205,-249"/>
<polygon fill="none" stroke="black" points="205,-249 205,-271 347,-271 347,-249 205,-249"/>
<image xlink:href="../../images/foreignKeys.png" width="11px" height="12px" preserveAspectRatio="xMinYMin meet" x="210" y="-266"/>
<text text-anchor="start" x="225" y="-257.2" font-family="Helvetica,sans-Serif" font-size="11.00">template_id</text>
<polygon fill="none" stroke="black" points="347,-249 347,-271 413,-271 413,-249 347,-249"/>
<text text-anchor="start" x="350" y="-257.2" font-family="Helvetica,sans-Serif" font-size="11.00">smallint[5]</text>
<polygon fill="none" stroke="black" points="205,-227 205,-249 347,-249 347,-227 205,-227"/>
<text text-anchor="start" x="225" y="-235.2" font-family="Helvetica,sans-Serif" font-size="11.00">is_active</text>
<polygon fill="none" stroke="black" points="347,-227 347,-249 413,-249 413,-227 347,-227"/>
<text text-anchor="start" x="350" y="-235.2" font-family="Helvetica,sans-Serif" font-size="11.00">bit[1]</text>
<polygon fill="none" stroke="black" points="205,-205 205,-227 347,-227 347,-205 205,-205"/>
<text text-anchor="start" x="225" y="-213.2" font-family="Helvetica,sans-Serif" font-size="11.00">name</text>
<polygon fill="none" stroke="black" points="347,-205 347,-227 413,-227 413,-205 347,-205"/>
<text text-anchor="start" x="350" y="-213.2" font-family="Helvetica,sans-Serif" font-size="11.00">varchar[45]</text>
<polygon fill="none" stroke="black" points="205,-183 205,-205 347,-205 347,-183 205,-183"/>
<text text-anchor="start" x="225" y="-191.2" font-family="Helvetica,sans-Serif" font-size="11.00">createdby_id</text>
<polygon fill="none" stroke="black" points="347,-183 347,-205 413,-205 413,-183 347,-183"/>
<text text-anchor="start" x="350" y="-191.2" font-family="Helvetica,sans-Serif" font-size="11.00">bigint[19]</text>
<polygon fill="none" stroke="black" points="205,-161 205,-183 347,-183 347,-161 205,-161"/>
<text text-anchor="start" x="225" y="-169.2" font-family="Helvetica,sans-Serif" font-size="11.00">created_date</text>
<polygon fill="none" stroke="black" points="347,-161 347,-183 413,-183 413,-161 347,-161"/>
<text text-anchor="start" x="350" y="-169.2" font-family="Helvetica,sans-Serif" font-size="11.00">datetime[19]</text>
<polygon fill="none" stroke="black" points="205,-139 205,-161 347,-161 347,-139 205,-139"/>
<text text-anchor="start" x="225" y="-147.2" font-family="Helvetica,sans-Serif" font-size="11.00">lastmodifiedby_id</text>
<polygon fill="none" stroke="black" points="347,-139 347,-161 413,-161 413,-139 347,-139"/>
<text text-anchor="start" x="350" y="-147.2" font-family="Helvetica,sans-Serif" font-size="11.00">bigint[19]</text>
<polygon fill="none" stroke="black" points="205,-117 205,-139 347,-139 347,-117 205,-117"/>
<text text-anchor="start" x="225" y="-125.2" font-family="Helvetica,sans-Serif" font-size="11.00">lastmodified_date</text>
<polygon fill="none" stroke="black" points="347,-117 347,-139 413,-139 413,-117 347,-117"/>
<text text-anchor="start" x="350" y="-125.2" font-family="Helvetica,sans-Serif" font-size="11.00">datetime[19]</text>
<polygon fill="#ffffff" stroke="transparent" points="205,-95 205,-117 347,-117 347,-95 205,-95"/>
<polygon fill="none" stroke="black" points="205,-95 205,-117 347,-117 347,-95 205,-95"/>
<image xlink:href="../../images/foreignKeys.png" width="11px" height="12px" preserveAspectRatio="xMinYMin meet" x="210" y="-112"/>
<text text-anchor="start" x="225" y="-103.2" font-family="Helvetica,sans-Serif" font-size="11.00">ugd_template_id</text>
<polygon fill="none" stroke="black" points="347,-95 347,-117 413,-117 413,-95 347,-95"/>
<text text-anchor="start" x="350" y="-103.2" font-family="Helvetica,sans-Serif" font-size="11.00">bigint[19]</text>
<polygon fill="#ffffff" stroke="transparent" points="205,-77 205,-95 267,-95 267,-77 205,-77"/>
<polygon fill="none" stroke="black" points="205,-77 205,-95 267,-95 267,-77 205,-77"/>
<text text-anchor="start" x="208" y="-83.2" font-family="Helvetica,sans-Serif" font-size="11.00">&lt; 2</text>
<polygon fill="#ffffff" stroke="transparent" points="267,-77 267,-95 347,-95 347,-77 267,-77"/>
<polygon fill="none" stroke="black" points="267,-77 267,-95 347,-95 347,-77 267,-77"/>
<text text-anchor="start" x="311" y="-83.2" font-family="Helvetica,sans-Serif" font-size="11.00">0 rows</text>
<polygon fill="#ffffff" stroke="transparent" points="347,-77 347,-95 413,-95 413,-77 347,-77"/>
<polygon fill="none" stroke="black" points="347,-77 347,-95 413,-95 413,-77 347,-77"/>
<text text-anchor="start" x="394" y="-83.2" font-family="Helvetica,sans-Serif" font-size="11.00">2 &gt;</text>
<polygon fill="none" stroke="black" stroke-width="2" points="204,-76 204,-316 414,-316 414,-76 204,-76"/>
</a>
</g>
</g>
<!-- m_hook_templates -->
<g id="node2" class="node">
<title>m_hook_templates</title>
<g id="a_node2"><a xlink:href="../../tables/m_hook_templates.html" xlink:title="m_hook_templates" target="_top">
<polygon fill="#ffffff" stroke="transparent" points="8,-266 8,-346 154,-346 154,-266 8,-266"/>
<polygon fill="#f5f5f5" stroke="transparent" points="8,-324 8,-346 154,-346 154,-324 8,-324"/>
<polygon fill="none" stroke="black" points="8,-324 8,-346 154,-346 154,-324 8,-324"/>
<text text-anchor="start" x="13" y="-333.2" font-family="Helvetica,sans-Serif" font-weight="bold" font-size="11.00">m_hook_templates</text>
<text text-anchor="start" x="119" y="-332.2" font-family="Helvetica,sans-Serif" font-size="11.00">[table]</text>
<polygon fill="none" stroke="black" points="8,-302 8,-324 154,-324 154,-302 8,-302"/>
<image xlink:href="../../images/primaryKeys.png" width="11px" height="12px" preserveAspectRatio="xMinYMin meet" x="13" y="-319"/>
<text text-anchor="start" x="28" y="-310.2" font-family="Helvetica,sans-Serif" font-size="11.00">id</text>
<polygon fill="none" stroke="black" points="8,-284 8,-302 154,-302 154,-284 8,-284"/>
<text text-anchor="start" x="11" y="-290.2" font-family="Helvetica,sans-Serif" font-size="11.00">...</text>
<polygon fill="#ffffff" stroke="transparent" points="8,-266 8,-284 57,-284 57,-266 8,-266"/>
<polygon fill="none" stroke="black" points="8,-266 8,-284 57,-284 57,-266 8,-266"/>
<text text-anchor="start" x="11" y="-272.2" font-family="Helvetica,sans-Serif" font-size="11.00"> &#160;</text>
<polygon fill="#ffffff" stroke="transparent" points="57,-266 57,-284 114,-284 114,-266 57,-266"/>
<polygon fill="none" stroke="black" points="57,-266 57,-284 114,-284 114,-266 57,-266"/>
<text text-anchor="start" x="78" y="-272.2" font-family="Helvetica,sans-Serif" font-size="11.00">0 rows</text>
<polygon fill="#ffffff" stroke="transparent" points="114,-266 114,-284 154,-284 154,-266 114,-266"/>
<polygon fill="none" stroke="black" points="114,-266 114,-284 154,-284 154,-266 114,-266"/>
<text text-anchor="start" x="135" y="-272.2" font-family="Helvetica,sans-Serif" font-size="11.00">2 &gt;</text>
</a>
</g>
</g>
<!-- m_hook&#45;&gt;m_hook_templates -->
<g id="edge1" class="edge">
<title>m_hook:w&#45;&gt;m_hook_templates:e</title>
<path fill="none" stroke="black" d="M190.31,-264.89C175.94,-278.01 181.07,-313 155,-313"/>
<polygon fill="black" stroke="black" points="196.47,-262.69 205.21,-263.39 200.23,-261.35 204,-260 204,-260 204,-260 200.23,-261.35 202.79,-256.61 196.47,-262.69 196.47,-262.69"/>
<ellipse fill="none" stroke="black" cx="193.45" cy="-263.77" rx="3.2" ry="3.2"/>
</g>
<!-- m_template -->
<g id="node3" class="node">
<title>m_template</title>
<g id="a_node3"><a xlink:href="../../tables/m_template.html" xlink:title="m_template" target="_top">
<polygon fill="#ffffff" stroke="transparent" points="28.5,-37 28.5,-139 133.5,-139 133.5,-37 28.5,-37"/>
<polygon fill="#f5f5f5" stroke="transparent" points="29,-117 29,-139 134,-139 134,-117 29,-117"/>
<polygon fill="none" stroke="black" points="29,-117 29,-139 134,-139 134,-117 29,-117"/>
<text text-anchor="start" x="34" y="-126.2" font-family="Helvetica,sans-Serif" font-weight="bold" font-size="11.00">m_template</text>
<text text-anchor="start" x="99" y="-125.2" font-family="Helvetica,sans-Serif" font-size="11.00">[table]</text>
<polygon fill="none" stroke="black" points="29,-95 29,-117 134,-117 134,-95 29,-95"/>
<image xlink:href="../../images/primaryKeys.png" width="11px" height="12px" preserveAspectRatio="xMinYMin meet" x="34" y="-112"/>
<text text-anchor="start" x="52" y="-103.2" font-family="Helvetica,sans-Serif" font-size="11.00">id</text>
<polygon fill="#ffffff" stroke="transparent" points="29,-73 29,-95 134,-95 134,-73 29,-73"/>
<polygon fill="none" stroke="black" points="29,-73 29,-95 134,-95 134,-73 29,-73"/>
<text text-anchor="start" x="52" y="-81.2" font-family="Helvetica,sans-Serif" font-size="11.00">name</text>
<polygon fill="none" stroke="black" points="29,-55 29,-73 134,-73 134,-55 29,-55"/>
<text text-anchor="start" x="32" y="-61.2" font-family="Helvetica,sans-Serif" font-size="11.00">...</text>
<polygon fill="#ffffff" stroke="transparent" points="29,-37 29,-55 57,-55 57,-37 29,-37"/>
<polygon fill="none" stroke="black" points="29,-37 29,-55 57,-55 57,-37 29,-37"/>
<text text-anchor="start" x="32" y="-43.2" font-family="Helvetica,sans-Serif" font-size="11.00"> &#160;</text>
<polygon fill="#ffffff" stroke="transparent" points="57,-37 57,-55 104,-55 104,-37 57,-37"/>
<polygon fill="none" stroke="black" points="57,-37 57,-55 104,-55 104,-37 57,-37"/>
<text text-anchor="start" x="68" y="-43.2" font-family="Helvetica,sans-Serif" font-size="11.00">0 rows</text>
<polygon fill="#ffffff" stroke="transparent" points="104,-37 104,-55 134,-55 134,-37 104,-37"/>
<polygon fill="none" stroke="black" points="104,-37 104,-55 134,-55 134,-37 104,-37"/>
<text text-anchor="start" x="115" y="-43.2" font-family="Helvetica,sans-Serif" font-size="11.00">1 &gt;</text>
</a>
</g>
</g>
<!-- m_hook&#45;&gt;m_template -->
<g id="edge2" class="edge">
<title>m_hook:w&#45;&gt;m_template:e</title>
<path fill="none" stroke="black" d="M189.43,-106C169.84,-106 160.16,-106 135,-106"/>
<polygon fill="black" stroke="black" points="196,-106 204,-109.6 200,-106 204,-106 204,-106 204,-106 200,-106 204,-102.4 196,-106 196,-106"/>
<ellipse fill="none" stroke="black" cx="192.8" cy="-106" rx="3.2" ry="3.2"/>
</g>
<!-- m_hook_configuration -->
<g id="node4" class="node">
<title>m_hook_configuration</title>
<g id="a_node4"><a xlink:href="../../tables/m_hook_configuration.html" xlink:title="m_hook_configuration" target="_top">
<polygon fill="#ffffff" stroke="transparent" points="479.5,-296 479.5,-398 648.5,-398 648.5,-296 479.5,-296"/>
<polygon fill="#f5f5f5" stroke="transparent" points="480,-376 480,-398 649,-398 649,-376 480,-376"/>
<polygon fill="none" stroke="black" points="480,-376 480,-398 649,-398 649,-376 480,-376"/>
<text text-anchor="start" x="485" y="-385.2" font-family="Helvetica,sans-Serif" font-weight="bold" font-size="11.00">m_hook_configuration</text>
<text text-anchor="start" x="614" y="-384.2" font-family="Helvetica,sans-Serif" font-size="11.00">[table]</text>
<polygon fill="none" stroke="black" points="480,-354 480,-376 649,-376 649,-354 480,-354"/>
<image xlink:href="../../images/primaryKeys.png" width="11px" height="12px" preserveAspectRatio="xMinYMin meet" x="485" y="-371"/>
<text text-anchor="start" x="500" y="-362.2" font-family="Helvetica,sans-Serif" font-size="11.00">id</text>
<polygon fill="#ffffff" stroke="transparent" points="480,-332 480,-354 649,-354 649,-332 480,-332"/>
<polygon fill="none" stroke="black" points="480,-332 480,-354 649,-354 649,-332 480,-332"/>
<image xlink:href="../../images/foreignKeys.png" width="11px" height="12px" preserveAspectRatio="xMinYMin meet" x="485" y="-349"/>
<text text-anchor="start" x="500" y="-340.2" font-family="Helvetica,sans-Serif" font-size="11.00">hook_id</text>
<polygon fill="none" stroke="black" points="480,-314 480,-332 649,-332 649,-314 480,-314"/>
<text text-anchor="start" x="483" y="-320.2" font-family="Helvetica,sans-Serif" font-size="11.00">...</text>
<polygon fill="#ffffff" stroke="transparent" points="480,-296 480,-314 549,-314 549,-296 480,-296"/>
<polygon fill="none" stroke="black" points="480,-296 480,-314 549,-314 549,-296 480,-296"/>
<text text-anchor="start" x="483" y="-302.2" font-family="Helvetica,sans-Serif" font-size="11.00">&lt; 1</text>
<polygon fill="#ffffff" stroke="transparent" points="549,-296 549,-314 612,-314 612,-296 549,-296"/>
<polygon fill="none" stroke="black" points="549,-296 549,-314 612,-314 612,-296 549,-296"/>
<text text-anchor="start" x="576" y="-302.2" font-family="Helvetica,sans-Serif" font-size="11.00">0 rows</text>
<polygon fill="#ffffff" stroke="transparent" points="612,-296 612,-314 649,-314 649,-296 612,-296"/>
<polygon fill="none" stroke="black" points="612,-296 612,-314 649,-314 649,-296 612,-296"/>
<text text-anchor="start" x="639" y="-302.2" font-family="Helvetica,sans-Serif" font-size="11.00"> &#160;</text>
</a>
</g>
</g>
<!-- m_hook_configuration&#45;&gt;m_hook -->
<g id="edge3" class="edge">
<title>m_hook_configuration:w&#45;&gt;m_hook:e</title>
<path fill="none" stroke="black" d="M464.87,-339.55C442.37,-326.64 447.89,-282 414,-282"/>
<polygon fill="black" stroke="black" points="471.23,-341.1 478.14,-346.5 475.11,-342.05 479,-343 479,-343 479,-343 475.11,-342.05 479.86,-339.5 471.23,-341.1 471.23,-341.1"/>
<ellipse fill="none" stroke="black" cx="468.12" cy="-340.34" rx="3.2" ry="3.2"/>
</g>
<!-- m_hook_registered_events -->
<g id="node5" class="node">
<title>m_hook_registered_events</title>
<g id="a_node5"><a xlink:href="../../tables/m_hook_registered_events.html" xlink:title="m_hook_registered_events" target="_top">
<polygon fill="#ffffff" stroke="transparent" points="464,-173 464,-275 664,-275 664,-173 464,-173"/>
<polygon fill="#f5f5f5" stroke="transparent" points="464,-253 464,-275 664,-275 664,-253 464,-253"/>
<polygon fill="none" stroke="black" points="464,-253 464,-275 664,-275 664,-253 464,-253"/>
<text text-anchor="start" x="469" y="-262.2" font-family="Helvetica,sans-Serif" font-weight="bold" font-size="11.00">m_hook_registered_events</text>
<text text-anchor="start" x="629" y="-261.2" font-family="Helvetica,sans-Serif" font-size="11.00">[table]</text>
<polygon fill="none" stroke="black" points="464,-231 464,-253 664,-253 664,-231 464,-231"/>
<image xlink:href="../../images/primaryKeys.png" width="11px" height="12px" preserveAspectRatio="xMinYMin meet" x="469" y="-248"/>
<text text-anchor="start" x="484" y="-239.2" font-family="Helvetica,sans-Serif" font-size="11.00">id</text>
<polygon fill="#ffffff" stroke="transparent" points="464,-209 464,-231 664,-231 664,-209 464,-209"/>
<polygon fill="none" stroke="black" points="464,-209 464,-231 664,-231 664,-209 464,-209"/>
<image xlink:href="../../images/foreignKeys.png" width="11px" height="12px" preserveAspectRatio="xMinYMin meet" x="469" y="-226"/>
<text text-anchor="start" x="484" y="-217.2" font-family="Helvetica,sans-Serif" font-size="11.00">hook_id</text>
<polygon fill="none" stroke="black" points="464,-191 464,-209 664,-209 664,-191 464,-191"/>
<text text-anchor="start" x="467" y="-197.2" font-family="Helvetica,sans-Serif" font-size="11.00">...</text>
<polygon fill="#ffffff" stroke="transparent" points="464,-173 464,-191 549,-191 549,-173 464,-173"/>
<polygon fill="none" stroke="black" points="464,-173 464,-191 549,-191 549,-173 464,-173"/>
<text text-anchor="start" x="467" y="-179.2" font-family="Helvetica,sans-Serif" font-size="11.00">&lt; 1</text>
<polygon fill="#ffffff" stroke="transparent" points="549,-173 549,-191 619,-191 619,-173 549,-173"/>
<polygon fill="none" stroke="black" points="549,-173 549,-191 619,-191 619,-173 549,-173"/>
<text text-anchor="start" x="583" y="-179.2" font-family="Helvetica,sans-Serif" font-size="11.00">0 rows</text>
<polygon fill="#ffffff" stroke="transparent" points="619,-173 619,-191 664,-191 664,-173 619,-173"/>
<polygon fill="none" stroke="black" points="619,-173 619,-191 664,-191 664,-173 619,-173"/>
<text text-anchor="start" x="654" y="-179.2" font-family="Helvetica,sans-Serif" font-size="11.00"> &#160;</text>
</a>
</g>
</g>
<!-- m_hook_registered_events&#45;&gt;m_hook -->
<g id="edge4" class="edge">
<title>m_hook_registered_events:w&#45;&gt;m_hook:e</title>
<path fill="none" stroke="black" d="M449.31,-224.87C433.52,-239.48 443.09,-282 414,-282"/>
<polygon fill="black" stroke="black" points="455.46,-222.68 464.21,-223.39 459.23,-221.34 463,-220 463,-220 463,-220 459.23,-221.34 461.79,-216.61 455.46,-222.68 455.46,-222.68"/>
<ellipse fill="none" stroke="black" cx="452.45" cy="-223.75" rx="3.2" ry="3.2"/>
</g>
<!-- m_hook_schema -->
<g id="node6" class="node">
<title>m_hook_schema</title>
<g id="a_node6"><a xlink:href="../../tables/m_hook_schema.html" xlink:title="m_hook_schema" target="_top">
<polygon fill="#ffffff" stroke="transparent" points="242.5,-338 242.5,-396 375.5,-396 375.5,-338 242.5,-338"/>
<polygon fill="#f5f5f5" stroke="transparent" points="243,-374 243,-396 376,-396 376,-374 243,-374"/>
<polygon fill="none" stroke="black" points="243,-374 243,-396 376,-396 376,-374 243,-374"/>
<text text-anchor="start" x="248" y="-383.2" font-family="Helvetica,sans-Serif" font-weight="bold" font-size="11.00">m_hook_schema</text>
<text text-anchor="start" x="341" y="-382.2" font-family="Helvetica,sans-Serif" font-size="11.00">[table]</text>
<polygon fill="none" stroke="black" points="243,-356 243,-374 376,-374 376,-356 243,-356"/>
<text text-anchor="start" x="246" y="-362.2" font-family="Helvetica,sans-Serif" font-size="11.00">...</text>
<polygon fill="#ffffff" stroke="transparent" points="243,-338 243,-356 294,-356 294,-338 243,-338"/>
<polygon fill="none" stroke="black" points="243,-338 243,-356 294,-356 294,-338 243,-338"/>
<text text-anchor="start" x="246" y="-344.2" font-family="Helvetica,sans-Serif" font-size="11.00">&lt; 1</text>
<polygon fill="#ffffff" stroke="transparent" points="294,-338 294,-356 348,-356 348,-338 294,-338"/>
<polygon fill="none" stroke="black" points="294,-338 294,-356 348,-356 348,-338 294,-338"/>
<text text-anchor="start" x="312" y="-344.2" font-family="Helvetica,sans-Serif" font-size="11.00">0 rows</text>
<polygon fill="#ffffff" stroke="transparent" points="348,-338 348,-356 376,-356 376,-338 348,-338"/>
<polygon fill="none" stroke="black" points="348,-338 348,-356 376,-356 376,-338 348,-338"/>
<text text-anchor="start" x="366" y="-344.2" font-family="Helvetica,sans-Serif" font-size="11.00"> &#160;</text>
</a>
</g>
</g>
<!-- m_hook_schema&#45;&gt;m_hook_templates -->
<g id="edge5" class="edge">
<title>m_hook_schema:w&#45;&gt;m_hook_templates:e</title>
<path fill="none" stroke="black" d="M227.58,-362.9C197,-353.17 194.59,-313 155,-313"/>
<polygon fill="black" stroke="black" points="234.08,-363.85 241.48,-368.56 238.04,-364.42 242,-365 242,-365 242,-365 238.04,-364.42 242.52,-361.44 234.08,-363.85 234.08,-363.85"/>
<ellipse fill="none" stroke="black" cx="230.92" cy="-363.38" rx="3.2" ry="3.2"/>
</g>
</g>
</svg>
