<?xml version="1.0" encoding="UTF-8" standalone="no"?>
<!DOCTYPE svg PUBLIC "-//W3C//DTD SVG 1.1//EN"
 "http://www.w3.org/Graphics/SVG/1.1/DTD/svg11.dtd">
<!-- Generated by graphviz version 2.43.0 (0)
 -->
<!-- Title: twoDegreesRelationshipsDiagram Pages: 1 -->
<svg width="673pt" height="260pt"
 viewBox="0.00 0.00 673.00 260.00" xmlns="http://www.w3.org/2000/svg" xmlns:xlink="http://www.w3.org/1999/xlink">
<g id="graph0" class="graph" transform="scale(1 1) rotate(0) translate(4 256)">
<title>twoDegreesRelationshipsDiagram</title>
<polygon fill="#ffffff" stroke="transparent" points="-4,4 -4,-256 669,-256 669,4 -4,4"/>
<text text-anchor="middle" x="71.5" y="-7.2" font-family="Helvetica,sans-Serif" font-size="11.00">Generated by SchemaSpy</text>
<!-- m_hook -->
<g id="node1" class="node">
<title>m_hook</title>
<g id="a_node1"><a xlink:href="../../tables/m_hook.html" xlink:title="m_hook" target="_top">
<polygon fill="#ffffff" stroke="transparent" points="201,-73 201,-197 343,-197 343,-73 201,-73"/>
<polygon fill="#f5f5f5" stroke="transparent" points="201,-175 201,-197 343,-197 343,-175 201,-175"/>
<polygon fill="none" stroke="black" points="201,-175 201,-197 343,-197 343,-175 201,-175"/>
<text text-anchor="start" x="206" y="-184.2" font-family="Helvetica,sans-Serif" font-weight="bold" font-size="11.00">m_hook</text>
<text text-anchor="start" x="308" y="-183.2" font-family="Helvetica,sans-Serif" font-size="11.00">[table]</text>
<polygon fill="none" stroke="black" points="201,-153 201,-175 343,-175 343,-153 201,-153"/>
<image xlink:href="../../images/primaryKeys.png" width="11px" height="12px" preserveAspectRatio="xMinYMin meet" x="206" y="-170"/>
<text text-anchor="start" x="221" y="-161.2" font-family="Helvetica,sans-Serif" font-size="11.00">id</text>
<polygon fill="#ffffff" stroke="transparent" points="201,-131 201,-153 343,-153 343,-131 201,-131"/>
<polygon fill="none" stroke="black" points="201,-131 201,-153 343,-153 343,-131 201,-131"/>
<image xlink:href="../../images/foreignKeys.png" width="11px" height="12px" preserveAspectRatio="xMinYMin meet" x="206" y="-148"/>
<text text-anchor="start" x="221" y="-139.2" font-family="Helvetica,sans-Serif" font-size="11.00">template_id</text>
<polygon fill="#ffffff" stroke="transparent" points="201,-109 201,-131 343,-131 343,-109 201,-109"/>
<polygon fill="none" stroke="black" points="201,-109 201,-131 343,-131 343,-109 201,-109"/>
<image xlink:href="../../images/foreignKeys.png" width="11px" height="12px" preserveAspectRatio="xMinYMin meet" x="206" y="-126"/>
<text text-anchor="start" x="221" y="-117.2" font-family="Helvetica,sans-Serif" font-size="11.00">ugd_template_id</text>
<polygon fill="none" stroke="black" points="201,-91 201,-109 343,-109 343,-91 201,-91"/>
<text text-anchor="start" x="204" y="-97.2" font-family="Helvetica,sans-Serif" font-size="11.00">...</text>
<polygon fill="#ffffff" stroke="transparent" points="201,-73 201,-91 252,-91 252,-73 201,-73"/>
<polygon fill="none" stroke="black" points="201,-73 201,-91 252,-91 252,-73 201,-73"/>
<text text-anchor="start" x="204" y="-79.2" font-family="Helvetica,sans-Serif" font-size="11.00">&lt; 2</text>
<polygon fill="#ffffff" stroke="transparent" points="252,-73 252,-91 306,-91 306,-73 252,-73"/>
<polygon fill="none" stroke="black" points="252,-73 252,-91 306,-91 306,-73 252,-73"/>
<text text-anchor="start" x="270" y="-79.2" font-family="Helvetica,sans-Serif" font-size="11.00">0 rows</text>
<polygon fill="#ffffff" stroke="transparent" points="306,-73 306,-91 343,-91 343,-73 306,-73"/>
<polygon fill="none" stroke="black" points="306,-73 306,-91 343,-91 343,-73 306,-73"/>
<text text-anchor="start" x="324" y="-79.2" font-family="Helvetica,sans-Serif" font-size="11.00">2 &gt;</text>
</a>
</g>
</g>
<!-- m_hook_templates -->
<g id="node2" class="node">
<title>m_hook_templates</title>
<g id="a_node2"><a xlink:href="../../tables/m_hook_templates.html" xlink:title="m_hook_templates" target="_top">
<polygon fill="#ffffff" stroke="transparent" points="8,-144 8,-202 152,-202 152,-144 8,-144"/>
<polygon fill="#f5f5f5" stroke="transparent" points="8,-180 8,-202 152,-202 152,-180 8,-180"/>
<polygon fill="none" stroke="black" points="8,-180 8,-202 152,-202 152,-180 8,-180"/>
<text text-anchor="start" x="13" y="-189.2" font-family="Helvetica,sans-Serif" font-weight="bold" font-size="11.00">m_hook_templates</text>
<text text-anchor="start" x="117" y="-188.2" font-family="Helvetica,sans-Serif" font-size="11.00">[table]</text>
<polygon fill="none" stroke="black" points="8,-162 8,-180 152,-180 152,-162 8,-162"/>
<text text-anchor="start" x="11" y="-168.2" font-family="Helvetica,sans-Serif" font-size="11.00">...</text>
<polygon fill="#ffffff" stroke="transparent" points="8,-144 8,-162 56,-162 56,-144 8,-144"/>
<polygon fill="none" stroke="black" points="8,-144 8,-162 56,-162 56,-144 8,-144"/>
<text text-anchor="start" x="11" y="-150.2" font-family="Helvetica,sans-Serif" font-size="11.00"> &#160;</text>
<polygon fill="#ffffff" stroke="transparent" points="56,-144 56,-162 112,-162 112,-144 56,-144"/>
<polygon fill="none" stroke="black" points="56,-144 56,-162 112,-162 112,-144 56,-144"/>
<text text-anchor="start" x="76" y="-150.2" font-family="Helvetica,sans-Serif" font-size="11.00">0 rows</text>
<polygon fill="#ffffff" stroke="transparent" points="112,-144 112,-162 152,-162 152,-144 112,-144"/>
<polygon fill="none" stroke="black" points="112,-144 112,-162 152,-162 152,-144 112,-144"/>
<text text-anchor="start" x="133" y="-150.2" font-family="Helvetica,sans-Serif" font-size="11.00">2 &gt;</text>
</a>
</g>
</g>
<!-- m_hook&#45;&gt;m_hook_templates -->
<g id="edge1" class="edge">
<title>m_hook:w&#45;&gt;m_hook_templates:e</title>
<path fill="none" stroke="black" d="M186.1,-146.28C174.91,-154.35 171.6,-171 153,-171"/>
<polygon fill="black" stroke="black" points="192.35,-144.35 201.06,-145.44 196.18,-143.18 200,-142 200,-142 200,-142 196.18,-143.18 198.94,-138.56 192.35,-144.35 192.35,-144.35"/>
<ellipse fill="none" stroke="black" cx="189.3" cy="-145.29" rx="3.2" ry="3.2"/>
</g>
<!-- m_template -->
<g id="node3" class="node">
<title>m_template</title>
<g id="a_node3"><a xlink:href="../../tables/m_template.html" xlink:title="m_template" target="_top">
<polygon fill="#ffffff" stroke="transparent" points="27.5,-65 27.5,-123 132.5,-123 132.5,-65 27.5,-65"/>
<polygon fill="#f5f5f5" stroke="transparent" points="28,-101 28,-123 133,-123 133,-101 28,-101"/>
<polygon fill="none" stroke="black" points="28,-101 28,-123 133,-123 133,-101 28,-101"/>
<text text-anchor="start" x="33" y="-110.2" font-family="Helvetica,sans-Serif" font-weight="bold" font-size="11.00">m_template</text>
<text text-anchor="start" x="98" y="-109.2" font-family="Helvetica,sans-Serif" font-size="11.00">[table]</text>
<polygon fill="none" stroke="black" points="28,-83 28,-101 133,-101 133,-83 28,-83"/>
<text text-anchor="start" x="31" y="-89.2" font-family="Helvetica,sans-Serif" font-size="11.00">...</text>
<polygon fill="#ffffff" stroke="transparent" points="28,-65 28,-83 56,-83 56,-65 28,-65"/>
<polygon fill="none" stroke="black" points="28,-65 28,-83 56,-83 56,-65 28,-65"/>
<text text-anchor="start" x="31" y="-71.2" font-family="Helvetica,sans-Serif" font-size="11.00"> &#160;</text>
<polygon fill="#ffffff" stroke="transparent" points="56,-65 56,-83 103,-83 103,-65 56,-65"/>
<polygon fill="none" stroke="black" points="56,-65 56,-83 103,-83 103,-65 56,-65"/>
<text text-anchor="start" x="67" y="-71.2" font-family="Helvetica,sans-Serif" font-size="11.00">0 rows</text>
<polygon fill="#ffffff" stroke="transparent" points="103,-65 103,-83 133,-83 133,-65 103,-65"/>
<polygon fill="none" stroke="black" points="103,-65 103,-83 133,-83 133,-65 103,-65"/>
<text text-anchor="start" x="114" y="-71.2" font-family="Helvetica,sans-Serif" font-size="11.00">1 &gt;</text>
</a>
</g>
</g>
<!-- m_hook&#45;&gt;m_template -->
<g id="edge2" class="edge">
<title>m_hook:w&#45;&gt;m_template:e</title>
<path fill="none" stroke="black" d="M185.62,-117.71C166.42,-111.02 160.26,-92 134,-92"/>
<polygon fill="black" stroke="black" points="192.1,-118.74 199.43,-123.56 196.05,-119.37 200,-120 200,-120 200,-120 196.05,-119.37 200.57,-116.44 192.1,-118.74 192.1,-118.74"/>
<ellipse fill="none" stroke="black" cx="188.94" cy="-118.24" rx="3.2" ry="3.2"/>
</g>
<!-- m_hook_configuration -->
<g id="node4" class="node">
<title>m_hook_configuration</title>
<g id="a_node4"><a xlink:href="../../tables/m_hook_configuration.html" xlink:title="m_hook_configuration" target="_top">
<polygon fill="#ffffff" stroke="transparent" points="443,-190 443,-248 606,-248 606,-190 443,-190"/>
<polygon fill="#f5f5f5" stroke="transparent" points="443.5,-226 443.5,-248 606.5,-248 606.5,-226 443.5,-226"/>
<polygon fill="none" stroke="black" points="443.5,-226 443.5,-248 606.5,-248 606.5,-226 443.5,-226"/>
<text text-anchor="start" x="448.5" y="-235.2" font-family="Helvetica,sans-Serif" font-weight="bold" font-size="11.00">m_hook_configuration</text>
<text text-anchor="start" x="571.5" y="-234.2" font-family="Helvetica,sans-Serif" font-size="11.00">[table]</text>
<polygon fill="none" stroke="black" points="443.5,-208 443.5,-226 606.5,-226 606.5,-208 443.5,-208"/>
<text text-anchor="start" x="446.5" y="-214.2" font-family="Helvetica,sans-Serif" font-size="11.00">...</text>
<polygon fill="#ffffff" stroke="transparent" points="443.5,-190 443.5,-208 509.5,-208 509.5,-190 443.5,-190"/>
<polygon fill="none" stroke="black" points="443.5,-190 443.5,-208 509.5,-208 509.5,-190 443.5,-190"/>
<text text-anchor="start" x="446.5" y="-196.2" font-family="Helvetica,sans-Serif" font-size="11.00">&lt; 1</text>
<polygon fill="#ffffff" stroke="transparent" points="509.5,-190 509.5,-208 570.5,-208 570.5,-190 509.5,-190"/>
<polygon fill="none" stroke="black" points="509.5,-190 509.5,-208 570.5,-208 570.5,-190 509.5,-190"/>
<text text-anchor="start" x="534.5" y="-196.2" font-family="Helvetica,sans-Serif" font-size="11.00">0 rows</text>
<polygon fill="#ffffff" stroke="transparent" points="570.5,-190 570.5,-208 606.5,-208 606.5,-190 570.5,-190"/>
<polygon fill="none" stroke="black" points="570.5,-190 570.5,-208 606.5,-208 606.5,-190 570.5,-190"/>
<text text-anchor="start" x="596.5" y="-196.2" font-family="Helvetica,sans-Serif" font-size="11.00"> &#160;</text>
</a>
</g>
</g>
<!-- m_hook_configuration&#45;&gt;m_hook -->
<g id="edge3" class="edge">
<title>m_hook_configuration:w&#45;&gt;m_hook:e</title>
<path fill="none" stroke="black" d="M427.87,-215.24C392.38,-206.04 388.28,-164 344,-164"/>
<polygon fill="black" stroke="black" points="434.56,-216.04 442.07,-220.57 438.53,-216.52 442.5,-217 442.5,-217 442.5,-217 438.53,-216.52 442.93,-213.43 434.56,-216.04 434.56,-216.04"/>
<ellipse fill="none" stroke="black" cx="431.38" cy="-215.66" rx="3.2" ry="3.2"/>
</g>
<!-- m_hook_registered_events -->
<g id="node5" class="node">
<title>m_hook_registered_events</title>
<g id="a_node5"><a xlink:href="../../tables/m_hook_registered_events.html" xlink:title="m_hook_registered_events" target="_top">
<polygon fill="#ffffff" stroke="transparent" points="392,-37 392,-169 657,-169 657,-37 392,-37"/>
<polygon fill="#f5f5f5" stroke="transparent" points="394.5,-145 394.5,-167 655.5,-167 655.5,-145 394.5,-145"/>
<polygon fill="none" stroke="black" points="394.5,-145 394.5,-167 655.5,-167 655.5,-145 394.5,-145"/>
<text text-anchor="start" x="399.5" y="-154.2" font-family="Helvetica,sans-Serif" font-weight="bold" font-size="11.00">m_hook_registered_events</text>
<text text-anchor="start" x="620.5" y="-153.2" font-family="Helvetica,sans-Serif" font-size="11.00">[table]</text>
<polygon fill="none" stroke="black" points="394.5,-123 394.5,-145 594.5,-145 594.5,-123 394.5,-123"/>
<image xlink:href="../../images/primaryKeys.png" width="11px" height="12px" preserveAspectRatio="xMinYMin meet" x="399.5" y="-140"/>
<text text-anchor="start" x="414.5" y="-131.2" font-family="Helvetica,sans-Serif" font-size="11.00">id</text>
<polygon fill="none" stroke="black" points="594.5,-123 594.5,-145 655.5,-145 655.5,-123 594.5,-123"/>
<text text-anchor="start" x="597.5" y="-131.2" font-family="Helvetica,sans-Serif" font-size="11.00">bigint[19]</text>
<polygon fill="#ffffff" stroke="transparent" points="394.5,-101 394.5,-123 594.5,-123 594.5,-101 394.5,-101"/>
<polygon fill="none" stroke="black" points="394.5,-101 394.5,-123 594.5,-123 594.5,-101 394.5,-101"/>
<image xlink:href="../../images/foreignKeys.png" width="11px" height="12px" preserveAspectRatio="xMinYMin meet" x="399.5" y="-118"/>
<text text-anchor="start" x="414.5" y="-109.2" font-family="Helvetica,sans-Serif" font-size="11.00">hook_id</text>
<polygon fill="none" stroke="black" points="594.5,-101 594.5,-123 655.5,-123 655.5,-101 594.5,-101"/>
<text text-anchor="start" x="597.5" y="-109.2" font-family="Helvetica,sans-Serif" font-size="11.00">bigint[19]</text>
<polygon fill="none" stroke="black" points="394.5,-79 394.5,-101 594.5,-101 594.5,-79 394.5,-79"/>
<text text-anchor="start" x="414.5" y="-87.2" font-family="Helvetica,sans-Serif" font-size="11.00">entity_name</text>
<polygon fill="none" stroke="black" points="594.5,-79 594.5,-101 655.5,-101 655.5,-79 594.5,-79"/>
<text text-anchor="start" x="597.5" y="-87.2" font-family="Helvetica,sans-Serif" font-size="11.00">varchar[45]</text>
<polygon fill="none" stroke="black" points="394.5,-57 394.5,-79 594.5,-79 594.5,-57 394.5,-57"/>
<text text-anchor="start" x="414.5" y="-65.2" font-family="Helvetica,sans-Serif" font-size="11.00">action_name</text>
<polygon fill="none" stroke="black" points="594.5,-57 594.5,-79 655.5,-79 655.5,-57 594.5,-57"/>
<text text-anchor="start" x="597.5" y="-65.2" font-family="Helvetica,sans-Serif" font-size="11.00">varchar[45]</text>
<polygon fill="#ffffff" stroke="transparent" points="394.5,-39 394.5,-57 485.5,-57 485.5,-39 394.5,-39"/>
<polygon fill="none" stroke="black" points="394.5,-39 394.5,-57 485.5,-57 485.5,-39 394.5,-39"/>
<text text-anchor="start" x="397.5" y="-45.2" font-family="Helvetica,sans-Serif" font-size="11.00">&lt; 1</text>
<polygon fill="#ffffff" stroke="transparent" points="485.5,-39 485.5,-57 594.5,-57 594.5,-39 485.5,-39"/>
<polygon fill="none" stroke="black" points="485.5,-39 485.5,-57 594.5,-57 594.5,-39 485.5,-39"/>
<text text-anchor="start" x="558.5" y="-45.2" font-family="Helvetica,sans-Serif" font-size="11.00">0 rows</text>
<polygon fill="#ffffff" stroke="transparent" points="594.5,-39 594.5,-57 655.5,-57 655.5,-39 594.5,-39"/>
<polygon fill="none" stroke="black" points="594.5,-39 594.5,-57 655.5,-57 655.5,-39 594.5,-39"/>
<text text-anchor="start" x="636.5" y="-45.2" font-family="Helvetica,sans-Serif" font-size="11.00">0 &gt;</text>
<polygon fill="none" stroke="black" stroke-width="2" points="393,-38 393,-168 656,-168 656,-38 393,-38"/>
</a>
</g>
</g>
<!-- m_hook_registered_events&#45;&gt;m_hook -->
<g id="edge4" class="edge">
<title>m_hook_registered_events:w&#45;&gt;m_hook:e</title>
<path fill="none" stroke="black" d="M379.82,-116.8C365.34,-129.67 369.93,-164 344,-164"/>
<polygon fill="black" stroke="black" points="385.95,-114.65 394.69,-115.4 389.73,-113.32 393.5,-112 393.5,-112 393.5,-112 389.73,-113.32 392.31,-108.6 385.95,-114.65 385.95,-114.65"/>
<ellipse fill="none" stroke="black" cx="382.93" cy="-115.71" rx="3.2" ry="3.2"/>
</g>
</g>
</svg>
