<?xml version="1.0" encoding="UTF-8" standalone="no"?>
<!DOCTYPE svg PUBLIC "-//W3C//DTD SVG 1.1//EN"
 "http://www.w3.org/Graphics/SVG/1.1/DTD/svg11.dtd">
<!-- Generated by graphviz version 2.43.0 (0)
 -->
<!-- Title: oneDegreeRelationshipsDiagram Pages: 1 -->
<svg width="796pt" height="481pt"
 viewBox="0.00 0.00 796.00 481.00" xmlns="http://www.w3.org/2000/svg" xmlns:xlink="http://www.w3.org/1999/xlink">
<g id="graph0" class="graph" transform="scale(1 1) rotate(0) translate(4 477)">
<title>oneDegreeRelationshipsDiagram</title>
<polygon fill="#ffffff" stroke="transparent" points="-4,4 -4,-477 792,-477 792,4 -4,4"/>
<text text-anchor="middle" x="71.5" y="-7.2" font-family="Helvetica,sans-Serif" font-size="11.00">Generated by SchemaSpy</text>
<!-- m_client -->
<g id="node1" class="node">
<title>m_client</title>
<g id="a_node1"><a xlink:href="../../tables/m_client.html" xlink:title="m_client" target="_top">
<polygon fill="#ffffff" stroke="transparent" points="587,-37 587,-469 780,-469 780,-37 587,-37"/>
<polygon fill="#f5f5f5" stroke="transparent" points="587.5,-447 587.5,-469 780.5,-469 780.5,-447 587.5,-447"/>
<polygon fill="none" stroke="black" points="587.5,-447 587.5,-469 780.5,-469 780.5,-447 587.5,-447"/>
<text text-anchor="start" x="592.5" y="-456.2" font-family="Helvetica,sans-Serif" font-weight="bold" font-size="11.00">m_client</text>
<text text-anchor="start" x="745.5" y="-455.2" font-family="Helvetica,sans-Serif" font-size="11.00">[table]</text>
<polygon fill="none" stroke="black" points="587.5,-425 587.5,-447 780.5,-447 780.5,-425 587.5,-425"/>
<image xlink:href="../../images/primaryKeys.png" width="11px" height="12px" preserveAspectRatio="xMinYMin meet" x="592.5" y="-442"/>
<text text-anchor="start" x="607.5" y="-433.2" font-family="Helvetica,sans-Serif" font-size="11.00">id</text>
<polygon fill="#ffffff" stroke="transparent" points="587.5,-403 587.5,-425 780.5,-425 780.5,-403 587.5,-403"/>
<polygon fill="none" stroke="black" points="587.5,-403 587.5,-425 780.5,-425 780.5,-403 587.5,-403"/>
<text text-anchor="start" x="607.5" y="-411.2" font-family="Helvetica,sans-Serif" font-size="11.00">account_no</text>
<polygon fill="#ffffff" stroke="transparent" points="587.5,-381 587.5,-403 780.5,-403 780.5,-381 587.5,-381"/>
<polygon fill="none" stroke="black" points="587.5,-381 587.5,-403 780.5,-403 780.5,-381 587.5,-381"/>
<text text-anchor="start" x="607.5" y="-389.2" font-family="Helvetica,sans-Serif" font-size="11.00">external_id</text>
<polygon fill="#ffffff" stroke="transparent" points="587.5,-359 587.5,-381 780.5,-381 780.5,-359 587.5,-359"/>
<polygon fill="none" stroke="black" points="587.5,-359 587.5,-381 780.5,-381 780.5,-359 587.5,-359"/>
<image xlink:href="../../images/foreignKeys.png" width="11px" height="12px" preserveAspectRatio="xMinYMin meet" x="592.5" y="-376"/>
<text text-anchor="start" x="607.5" y="-367.2" font-family="Helvetica,sans-Serif" font-size="11.00">sub_status</text>
<polygon fill="#ffffff" stroke="transparent" points="587.5,-337 587.5,-359 780.5,-359 780.5,-337 587.5,-337"/>
<polygon fill="none" stroke="black" points="587.5,-337 587.5,-359 780.5,-359 780.5,-337 587.5,-337"/>
<image xlink:href="../../images/foreignKeys.png" width="11px" height="12px" preserveAspectRatio="xMinYMin meet" x="592.5" y="-354"/>
<text text-anchor="start" x="607.5" y="-345.2" font-family="Helvetica,sans-Serif" font-size="11.00">office_id</text>
<polygon fill="#ffffff" stroke="transparent" points="587.5,-315 587.5,-337 780.5,-337 780.5,-315 587.5,-315"/>
<polygon fill="none" stroke="black" points="587.5,-315 587.5,-337 780.5,-337 780.5,-315 587.5,-315"/>
<image xlink:href="../../images/foreignKeys.png" width="11px" height="12px" preserveAspectRatio="xMinYMin meet" x="592.5" y="-332"/>
<text text-anchor="start" x="607.5" y="-323.2" font-family="Helvetica,sans-Serif" font-size="11.00">transfer_to_office_id</text>
<polygon fill="#ffffff" stroke="transparent" points="587.5,-293 587.5,-315 780.5,-315 780.5,-293 587.5,-293"/>
<polygon fill="none" stroke="black" points="587.5,-293 587.5,-315 780.5,-315 780.5,-293 587.5,-293"/>
<image xlink:href="../../images/foreignKeys.png" width="11px" height="12px" preserveAspectRatio="xMinYMin meet" x="592.5" y="-310"/>
<text text-anchor="start" x="607.5" y="-301.2" font-family="Helvetica,sans-Serif" font-size="11.00">staff_id</text>
<polygon fill="#ffffff" stroke="transparent" points="587.5,-271 587.5,-293 780.5,-293 780.5,-271 587.5,-271"/>
<polygon fill="none" stroke="black" points="587.5,-271 587.5,-293 780.5,-293 780.5,-271 587.5,-271"/>
<text text-anchor="start" x="607.5" y="-279.2" font-family="Helvetica,sans-Serif" font-size="11.00">mobile_no</text>
<polygon fill="#ffffff" stroke="transparent" points="587.5,-249 587.5,-271 780.5,-271 780.5,-249 587.5,-249"/>
<polygon fill="none" stroke="black" points="587.5,-249 587.5,-271 780.5,-271 780.5,-249 587.5,-249"/>
<image xlink:href="../../images/foreignKeys.png" width="11px" height="12px" preserveAspectRatio="xMinYMin meet" x="592.5" y="-266"/>
<text text-anchor="start" x="607.5" y="-257.2" font-family="Helvetica,sans-Serif" font-size="11.00">gender_cv_id</text>
<polygon fill="#ffffff" stroke="transparent" points="587.5,-227 587.5,-249 780.5,-249 780.5,-227 587.5,-227"/>
<polygon fill="none" stroke="black" points="587.5,-227 587.5,-249 780.5,-249 780.5,-227 587.5,-227"/>
<image xlink:href="../../images/foreignKeys.png" width="11px" height="12px" preserveAspectRatio="xMinYMin meet" x="592.5" y="-244"/>
<text text-anchor="start" x="607.5" y="-235.2" font-family="Helvetica,sans-Serif" font-size="11.00">image_id</text>
<polygon fill="#ffffff" stroke="transparent" points="587.5,-205 587.5,-227 780.5,-227 780.5,-205 587.5,-205"/>
<polygon fill="none" stroke="black" points="587.5,-205 587.5,-227 780.5,-227 780.5,-205 587.5,-205"/>
<image xlink:href="../../images/foreignKeys.png" width="11px" height="12px" preserveAspectRatio="xMinYMin meet" x="592.5" y="-222"/>
<text text-anchor="start" x="607.5" y="-213.2" font-family="Helvetica,sans-Serif" font-size="11.00">closure_reason_cv_id</text>
<polygon fill="#ffffff" stroke="transparent" points="587.5,-183 587.5,-205 780.5,-205 780.5,-183 587.5,-183"/>
<polygon fill="none" stroke="black" points="587.5,-183 587.5,-205 780.5,-205 780.5,-183 587.5,-183"/>
<image xlink:href="../../images/foreignKeys.png" width="11px" height="12px" preserveAspectRatio="xMinYMin meet" x="592.5" y="-200"/>
<text text-anchor="start" x="607.5" y="-191.2" font-family="Helvetica,sans-Serif" font-size="11.00">default_savings_product</text>
<polygon fill="#ffffff" stroke="transparent" points="587.5,-161 587.5,-183 780.5,-183 780.5,-161 587.5,-161"/>
<polygon fill="none" stroke="black" points="587.5,-161 587.5,-183 780.5,-183 780.5,-161 587.5,-161"/>
<image xlink:href="../../images/foreignKeys.png" width="11px" height="12px" preserveAspectRatio="xMinYMin meet" x="592.5" y="-178"/>
<text text-anchor="start" x="607.5" y="-169.2" font-family="Helvetica,sans-Serif" font-size="11.00">default_savings_account</text>
<polygon fill="#ffffff" stroke="transparent" points="587.5,-139 587.5,-161 780.5,-161 780.5,-139 587.5,-139"/>
<polygon fill="none" stroke="black" points="587.5,-139 587.5,-161 780.5,-161 780.5,-139 587.5,-139"/>
<image xlink:href="../../images/foreignKeys.png" width="11px" height="12px" preserveAspectRatio="xMinYMin meet" x="592.5" y="-156"/>
<text text-anchor="start" x="607.5" y="-147.2" font-family="Helvetica,sans-Serif" font-size="11.00">client_type_cv_id</text>
<polygon fill="#ffffff" stroke="transparent" points="587.5,-117 587.5,-139 780.5,-139 780.5,-117 587.5,-117"/>
<polygon fill="none" stroke="black" points="587.5,-117 587.5,-139 780.5,-139 780.5,-117 587.5,-117"/>
<image xlink:href="../../images/foreignKeys.png" width="11px" height="12px" preserveAspectRatio="xMinYMin meet" x="592.5" y="-134"/>
<text text-anchor="start" x="607.5" y="-125.2" font-family="Helvetica,sans-Serif" font-size="11.00">client_classification_cv_id</text>
<polygon fill="#ffffff" stroke="transparent" points="587.5,-95 587.5,-117 780.5,-117 780.5,-95 587.5,-95"/>
<polygon fill="none" stroke="black" points="587.5,-95 587.5,-117 780.5,-117 780.5,-95 587.5,-95"/>
<image xlink:href="../../images/foreignKeys.png" width="11px" height="12px" preserveAspectRatio="xMinYMin meet" x="592.5" y="-112"/>
<text text-anchor="start" x="607.5" y="-103.2" font-family="Helvetica,sans-Serif" font-size="11.00">reject_reason_cv_id</text>
<polygon fill="#ffffff" stroke="transparent" points="587.5,-73 587.5,-95 780.5,-95 780.5,-73 587.5,-73"/>
<polygon fill="none" stroke="black" points="587.5,-73 587.5,-95 780.5,-95 780.5,-73 587.5,-73"/>
<image xlink:href="../../images/foreignKeys.png" width="11px" height="12px" preserveAspectRatio="xMinYMin meet" x="592.5" y="-90"/>
<text text-anchor="start" x="607.5" y="-81.2" font-family="Helvetica,sans-Serif" font-size="11.00">withdraw_reason_cv_id</text>
<polygon fill="none" stroke="black" points="587.5,-55 587.5,-73 780.5,-73 780.5,-55 587.5,-55"/>
<text text-anchor="start" x="590.5" y="-61.2" font-family="Helvetica,sans-Serif" font-size="11.00">...</text>
<polygon fill="#ffffff" stroke="transparent" points="587.5,-37 587.5,-55 664.5,-55 664.5,-37 587.5,-37"/>
<polygon fill="none" stroke="black" points="587.5,-37 587.5,-55 664.5,-55 664.5,-37 587.5,-37"/>
<text text-anchor="start" x="590.5" y="-43.2" font-family="Helvetica,sans-Serif" font-size="11.00">&lt; 13</text>
<polygon fill="#ffffff" stroke="transparent" points="664.5,-37 664.5,-55 727.5,-55 727.5,-37 664.5,-37"/>
<polygon fill="none" stroke="black" points="664.5,-37 664.5,-55 727.5,-55 727.5,-37 664.5,-37"/>
<text text-anchor="start" x="691.5" y="-43.2" font-family="Helvetica,sans-Serif" font-size="11.00">0 rows</text>
<polygon fill="#ffffff" stroke="transparent" points="727.5,-37 727.5,-55 780.5,-55 780.5,-37 727.5,-37"/>
<polygon fill="none" stroke="black" points="727.5,-37 727.5,-55 780.5,-55 780.5,-37 727.5,-37"/>
<text text-anchor="start" x="755.5" y="-43.2" font-family="Helvetica,sans-Serif" font-size="11.00">23 &gt;</text>
</a>
</g>
</g>
<!-- m_image -->
<g id="node2" class="node">
<title>m_image</title>
<g id="a_node2"><a xlink:href="../../tables/m_image.html" xlink:title="m_image" target="_top">
<polygon fill="#ffffff" stroke="transparent" points="8,-141 8,-251 231,-251 231,-141 8,-141"/>
<polygon fill="#f5f5f5" stroke="transparent" points="10.5,-227 10.5,-249 229.5,-249 229.5,-227 10.5,-227"/>
<polygon fill="none" stroke="black" points="10.5,-227 10.5,-249 229.5,-249 229.5,-227 10.5,-227"/>
<text text-anchor="start" x="15.5" y="-236.2" font-family="Helvetica,sans-Serif" font-weight="bold" font-size="11.00">m_image</text>
<text text-anchor="start" x="194.5" y="-235.2" font-family="Helvetica,sans-Serif" font-size="11.00">[table]</text>
<polygon fill="none" stroke="black" points="10.5,-205 10.5,-227 162.5,-227 162.5,-205 10.5,-205"/>
<image xlink:href="../../images/primaryKeys.png" width="11px" height="12px" preserveAspectRatio="xMinYMin meet" x="15.5" y="-222"/>
<text text-anchor="start" x="30.5" y="-213.2" font-family="Helvetica,sans-Serif" font-size="11.00">id</text>
<polygon fill="none" stroke="black" points="162.5,-205 162.5,-227 229.5,-227 229.5,-205 162.5,-205"/>
<text text-anchor="start" x="165.5" y="-213.2" font-family="Helvetica,sans-Serif" font-size="11.00">bigint[19]</text>
<polygon fill="none" stroke="black" points="10.5,-183 10.5,-205 162.5,-205 162.5,-183 10.5,-183"/>
<text text-anchor="start" x="30.5" y="-191.2" font-family="Helvetica,sans-Serif" font-size="11.00">location</text>
<polygon fill="none" stroke="black" points="162.5,-183 162.5,-205 229.5,-205 229.5,-183 162.5,-183"/>
<text text-anchor="start" x="165.5" y="-191.2" font-family="Helvetica,sans-Serif" font-size="11.00">varchar[500]</text>
<polygon fill="none" stroke="black" points="10.5,-161 10.5,-183 162.5,-183 162.5,-161 10.5,-161"/>
<text text-anchor="start" x="30.5" y="-169.2" font-family="Helvetica,sans-Serif" font-size="11.00">storage_type_enum</text>
<polygon fill="none" stroke="black" points="162.5,-161 162.5,-183 229.5,-183 229.5,-161 162.5,-161"/>
<text text-anchor="start" x="165.5" y="-169.2" font-family="Helvetica,sans-Serif" font-size="11.00">smallint[5]</text>
<polygon fill="#ffffff" stroke="transparent" points="10.5,-143 10.5,-161 77.5,-161 77.5,-143 10.5,-143"/>
<polygon fill="none" stroke="black" points="10.5,-143 10.5,-161 77.5,-161 77.5,-143 10.5,-143"/>
<text text-anchor="start" x="13.5" y="-149.2" font-family="Helvetica,sans-Serif" font-size="11.00">&lt; 0</text>
<polygon fill="#ffffff" stroke="transparent" points="77.5,-143 77.5,-161 162.5,-161 162.5,-143 77.5,-143"/>
<polygon fill="none" stroke="black" points="77.5,-143 77.5,-161 162.5,-161 162.5,-143 77.5,-143"/>
<text text-anchor="start" x="126.5" y="-149.2" font-family="Helvetica,sans-Serif" font-size="11.00">0 rows</text>
<polygon fill="#ffffff" stroke="transparent" points="162.5,-143 162.5,-161 229.5,-161 229.5,-143 162.5,-143"/>
<polygon fill="none" stroke="black" points="162.5,-143 162.5,-161 229.5,-161 229.5,-143 162.5,-143"/>
<text text-anchor="start" x="210.5" y="-149.2" font-family="Helvetica,sans-Serif" font-size="11.00">2 &gt;</text>
<polygon fill="none" stroke="black" stroke-width="2" points="9,-142 9,-250 230,-250 230,-142 9,-142"/>
</a>
</g>
</g>
<!-- m_client&#45;&gt;m_image -->
<g id="edge1" class="edge">
<title>m_client:w&#45;&gt;m_image:e</title>
<path fill="none" stroke="black" d="M572.68,-232.93C562.93,-223.19 564.44,-202.09 546,-194 434.48,-145.08 390.18,-164.61 272,-194 251.74,-199.04 251.38,-216 230.5,-216"/>
<polygon fill="black" stroke="black" points="578.99,-235.25 585.26,-241.38 582.74,-236.62 586.5,-238 586.5,-238 586.5,-238 582.74,-236.62 587.74,-234.62 578.99,-235.25 578.99,-235.25"/>
<ellipse fill="none" stroke="black" cx="575.98" cy="-234.14" rx="3.2" ry="3.2"/>
</g>
<!-- m_staff -->
<g id="node3" class="node">
<title>m_staff</title>
<g id="a_node3"><a xlink:href="../../tables/m_staff.html" xlink:title="m_staff" target="_top">
<polygon fill="#ffffff" stroke="transparent" points="280,-205 280,-395 538,-395 538,-205 280,-205"/>
<polygon fill="#f5f5f5" stroke="transparent" points="280,-373 280,-395 538,-395 538,-373 280,-373"/>
<polygon fill="none" stroke="black" points="280,-373 280,-395 538,-395 538,-373 280,-373"/>
<text text-anchor="start" x="285" y="-382.2" font-family="Helvetica,sans-Serif" font-weight="bold" font-size="11.00">m_staff</text>
<text text-anchor="start" x="503" y="-381.2" font-family="Helvetica,sans-Serif" font-size="11.00">[table]</text>
<polygon fill="none" stroke="black" points="280,-351 280,-373 538,-373 538,-351 280,-351"/>
<image xlink:href="../../images/primaryKeys.png" width="11px" height="12px" preserveAspectRatio="xMinYMin meet" x="285" y="-368"/>
<text text-anchor="start" x="300" y="-359.2" font-family="Helvetica,sans-Serif" font-size="11.00">id</text>
<polygon fill="#ffffff" stroke="transparent" points="280,-329 280,-351 538,-351 538,-329 280,-329"/>
<polygon fill="none" stroke="black" points="280,-329 280,-351 538,-351 538,-329 280,-329"/>
<image xlink:href="../../images/foreignKeys.png" width="11px" height="12px" preserveAspectRatio="xMinYMin meet" x="285" y="-346"/>
<text text-anchor="start" x="300" y="-337.2" font-family="Helvetica,sans-Serif" font-size="11.00">office_id</text>
<polygon fill="#ffffff" stroke="transparent" points="280,-307 280,-329 538,-329 538,-307 280,-307"/>
<polygon fill="none" stroke="black" points="280,-307 280,-329 538,-329 538,-307 280,-307"/>
<text text-anchor="start" x="300" y="-315.2" font-family="Helvetica,sans-Serif" font-size="11.00">display_name</text>
<polygon fill="#ffffff" stroke="transparent" points="280,-285 280,-307 538,-307 538,-285 280,-285"/>
<polygon fill="none" stroke="black" points="280,-285 280,-307 538,-307 538,-285 280,-285"/>
<text text-anchor="start" x="300" y="-293.2" font-family="Helvetica,sans-Serif" font-size="11.00">mobile_no</text>
<polygon fill="#ffffff" stroke="transparent" points="280,-263 280,-285 538,-285 538,-263 280,-263"/>
<polygon fill="none" stroke="black" points="280,-263 280,-285 538,-285 538,-263 280,-263"/>
<text text-anchor="start" x="300" y="-271.2" font-family="Helvetica,sans-Serif" font-size="11.00">external_id</text>
<polygon fill="#ffffff" stroke="transparent" points="280,-241 280,-263 538,-263 538,-241 280,-241"/>
<polygon fill="none" stroke="black" points="280,-241 280,-263 538,-263 538,-241 280,-241"/>
<image xlink:href="../../images/foreignKeys.png" width="11px" height="12px" preserveAspectRatio="xMinYMin meet" x="285" y="-258"/>
<text text-anchor="start" x="300" y="-249.2" font-family="Helvetica,sans-Serif" font-size="11.00">image_id</text>
<polygon fill="none" stroke="black" points="280,-223 280,-241 538,-241 538,-223 280,-223"/>
<text text-anchor="start" x="283" y="-229.2" font-family="Helvetica,sans-Serif" font-size="11.00">...</text>
<polygon fill="#ffffff" stroke="transparent" points="280,-205 280,-223 386,-223 386,-205 280,-205"/>
<polygon fill="none" stroke="black" points="280,-205 280,-223 386,-223 386,-205 280,-205"/>
<text text-anchor="start" x="283" y="-211.2" font-family="Helvetica,sans-Serif" font-size="11.00">&lt; 2</text>
<polygon fill="#ffffff" stroke="transparent" points="386,-205 386,-223 467,-223 467,-205 386,-205"/>
<polygon fill="none" stroke="black" points="386,-205 386,-223 467,-223 467,-205 386,-205"/>
<text text-anchor="start" x="431" y="-211.2" font-family="Helvetica,sans-Serif" font-size="11.00">0 rows</text>
<polygon fill="#ffffff" stroke="transparent" points="467,-205 467,-223 538,-223 538,-205 467,-205"/>
<polygon fill="none" stroke="black" points="467,-205 467,-223 538,-223 538,-205 467,-205"/>
<text text-anchor="start" x="513" y="-211.2" font-family="Helvetica,sans-Serif" font-size="11.00">10 &gt;</text>
</a>
</g>
</g>
<!-- m_client&#45;&gt;m_staff -->
<g id="edge2" class="edge">
<title>m_client:w&#45;&gt;m_staff:e</title>
<path fill="none" stroke="black" d="M572.6,-309.35C558.51,-323.71 566.07,-362 539,-362"/>
<polygon fill="black" stroke="black" points="579.03,-306.87 587.79,-307.36 582.77,-305.44 586.5,-304 586.5,-304 586.5,-304 582.77,-305.44 585.21,-300.64 579.03,-306.87 579.03,-306.87"/>
<ellipse fill="none" stroke="black" cx="576.05" cy="-308.02" rx="3.2" ry="3.2"/>
</g>
<!-- m_staff&#45;&gt;m_image -->
<g id="edge3" class="edge">
<title>m_staff:w&#45;&gt;m_image:e</title>
<path fill="none" stroke="black" d="M264.94,-247.29C252.86,-237.54 251.26,-216 230.5,-216"/>
<polygon fill="black" stroke="black" points="271.41,-249.46 277.86,-255.41 275.21,-250.73 279,-252 279,-252 279,-252 275.21,-250.73 280.14,-248.59 271.41,-249.46 271.41,-249.46"/>
<ellipse fill="none" stroke="black" cx="268.38" cy="-248.44" rx="3.2" ry="3.2"/>
</g>
</g>
</svg>
