<?xml version="1.0" encoding="UTF-8" standalone="no"?>
<!DOCTYPE svg PUBLIC "-//W3C//DTD SVG 1.1//EN"
 "http://www.w3.org/Graphics/SVG/1.1/DTD/svg11.dtd">
<!-- Generated by graphviz version 2.43.0 (0)
 -->
<!-- Title: twoDegreesRelationshipsDiagram Pages: 1 -->
<svg width="691pt" height="269pt"
 viewBox="0.00 0.00 691.00 269.00" xmlns="http://www.w3.org/2000/svg" xmlns:xlink="http://www.w3.org/1999/xlink">
<g id="graph0" class="graph" transform="scale(1 1) rotate(0) translate(4 265)">
<title>twoDegreesRelationshipsDiagram</title>
<polygon fill="#ffffff" stroke="transparent" points="-4,4 -4,-265 687,-265 687,4 -4,4"/>
<text text-anchor="middle" x="71.5" y="-7.2" font-family="Helvetica,sans-Serif" font-size="11.00">Generated by SchemaSpy</text>
<!-- m_interest_incentives -->
<g id="node1" class="node">
<title>m_interest_incentives</title>
<g id="a_node1"><a xlink:href="../../tables/m_interest_incentives.html" xlink:title="m_interest_incentives" target="_top">
<polygon fill="#ffffff" stroke="transparent" points="433,-37 433,-257 675,-257 675,-37 433,-37"/>
<polygon fill="#f5f5f5" stroke="transparent" points="435,-233 435,-255 673,-255 673,-233 435,-233"/>
<polygon fill="none" stroke="black" points="435,-233 435,-255 673,-255 673,-233 435,-233"/>
<text text-anchor="start" x="440" y="-242.2" font-family="Helvetica,sans-Serif" font-weight="bold" font-size="11.00">m_interest_incentives</text>
<text text-anchor="start" x="638" y="-241.2" font-family="Helvetica,sans-Serif" font-size="11.00">[table]</text>
<polygon fill="none" stroke="black" points="435,-211 435,-233 603,-233 603,-211 435,-211"/>
<image xlink:href="../../images/primaryKeys.png" width="11px" height="12px" preserveAspectRatio="xMinYMin meet" x="440" y="-228"/>
<text text-anchor="start" x="455" y="-219.2" font-family="Helvetica,sans-Serif" font-size="11.00">id</text>
<polygon fill="none" stroke="black" points="603,-211 603,-233 673,-233 673,-211 603,-211"/>
<text text-anchor="start" x="606" y="-219.2" font-family="Helvetica,sans-Serif" font-size="11.00">bigint[19]</text>
<polygon fill="#ffffff" stroke="transparent" points="435,-189 435,-211 603,-211 603,-189 435,-189"/>
<polygon fill="none" stroke="black" points="435,-189 435,-211 603,-211 603,-189 435,-189"/>
<image xlink:href="../../images/foreignKeys.png" width="11px" height="12px" preserveAspectRatio="xMinYMin meet" x="440" y="-206"/>
<text text-anchor="start" x="455" y="-197.2" font-family="Helvetica,sans-Serif" font-size="11.00">interest_rate_slab_id</text>
<polygon fill="none" stroke="black" points="603,-189 603,-211 673,-211 673,-189 603,-189"/>
<text text-anchor="start" x="606" y="-197.2" font-family="Helvetica,sans-Serif" font-size="11.00">bigint[19]</text>
<polygon fill="none" stroke="black" points="435,-167 435,-189 603,-189 603,-167 435,-167"/>
<text text-anchor="start" x="455" y="-175.2" font-family="Helvetica,sans-Serif" font-size="11.00">entiry_type</text>
<polygon fill="none" stroke="black" points="603,-167 603,-189 673,-189 673,-167 603,-167"/>
<text text-anchor="start" x="606" y="-175.2" font-family="Helvetica,sans-Serif" font-size="11.00">smallint[5]</text>
<polygon fill="none" stroke="black" points="435,-145 435,-167 603,-167 603,-145 435,-145"/>
<text text-anchor="start" x="455" y="-153.2" font-family="Helvetica,sans-Serif" font-size="11.00">attribute_name</text>
<polygon fill="none" stroke="black" points="603,-145 603,-167 673,-167 673,-145 603,-145"/>
<text text-anchor="start" x="606" y="-153.2" font-family="Helvetica,sans-Serif" font-size="11.00">smallint[5]</text>
<polygon fill="none" stroke="black" points="435,-123 435,-145 603,-145 603,-123 435,-123"/>
<text text-anchor="start" x="455" y="-131.2" font-family="Helvetica,sans-Serif" font-size="11.00">condition_type</text>
<polygon fill="none" stroke="black" points="603,-123 603,-145 673,-145 673,-123 603,-123"/>
<text text-anchor="start" x="606" y="-131.2" font-family="Helvetica,sans-Serif" font-size="11.00">smallint[5]</text>
<polygon fill="none" stroke="black" points="435,-101 435,-123 603,-123 603,-101 435,-101"/>
<text text-anchor="start" x="455" y="-109.2" font-family="Helvetica,sans-Serif" font-size="11.00">attribute_value</text>
<polygon fill="none" stroke="black" points="603,-101 603,-123 673,-123 673,-101 603,-101"/>
<text text-anchor="start" x="606" y="-109.2" font-family="Helvetica,sans-Serif" font-size="11.00">varchar[50]</text>
<polygon fill="none" stroke="black" points="435,-79 435,-101 603,-101 603,-79 435,-79"/>
<text text-anchor="start" x="455" y="-87.2" font-family="Helvetica,sans-Serif" font-size="11.00">incentive_type</text>
<polygon fill="none" stroke="black" points="603,-79 603,-101 673,-101 673,-79 603,-79"/>
<text text-anchor="start" x="606" y="-87.2" font-family="Helvetica,sans-Serif" font-size="11.00">smallint[5]</text>
<polygon fill="none" stroke="black" points="435,-57 435,-79 603,-79 603,-57 435,-57"/>
<text text-anchor="start" x="455" y="-65.2" font-family="Helvetica,sans-Serif" font-size="11.00">amount</text>
<polygon fill="none" stroke="black" points="603,-57 603,-79 673,-79 673,-57 603,-57"/>
<text text-anchor="start" x="606" y="-65.2" font-family="Helvetica,sans-Serif" font-size="11.00">decimal[19,6]</text>
<polygon fill="#ffffff" stroke="transparent" points="435,-39 435,-57 510,-57 510,-39 435,-39"/>
<polygon fill="none" stroke="black" points="435,-39 435,-57 510,-57 510,-39 435,-39"/>
<text text-anchor="start" x="438" y="-45.2" font-family="Helvetica,sans-Serif" font-size="11.00">&lt; 1</text>
<polygon fill="#ffffff" stroke="transparent" points="510,-39 510,-57 603,-57 603,-39 510,-39"/>
<polygon fill="none" stroke="black" points="510,-39 510,-57 603,-57 603,-39 510,-39"/>
<text text-anchor="start" x="567" y="-45.2" font-family="Helvetica,sans-Serif" font-size="11.00">0 rows</text>
<polygon fill="#ffffff" stroke="transparent" points="603,-39 603,-57 673,-57 673,-39 603,-39"/>
<polygon fill="none" stroke="black" points="603,-39 603,-57 673,-57 673,-39 603,-39"/>
<text text-anchor="start" x="654" y="-45.2" font-family="Helvetica,sans-Serif" font-size="11.00">0 &gt;</text>
<polygon fill="none" stroke="black" stroke-width="2" points="434,-38 434,-256 674,-256 674,-38 434,-38"/>
</a>
</g>
</g>
<!-- m_interest_rate_slab -->
<g id="node2" class="node">
<title>m_interest_rate_slab</title>
<g id="a_node2"><a xlink:href="../../tables/m_interest_rate_slab.html" xlink:title="m_interest_rate_slab" target="_top">
<polygon fill="#ffffff" stroke="transparent" points="216,-131 216,-233 384,-233 384,-131 216,-131"/>
<polygon fill="#f5f5f5" stroke="transparent" points="216,-211 216,-233 384,-233 384,-211 216,-211"/>
<polygon fill="none" stroke="black" points="216,-211 216,-233 384,-233 384,-211 216,-211"/>
<text text-anchor="start" x="221" y="-220.2" font-family="Helvetica,sans-Serif" font-weight="bold" font-size="11.00">m_interest_rate_slab</text>
<text text-anchor="start" x="349" y="-219.2" font-family="Helvetica,sans-Serif" font-size="11.00">[table]</text>
<polygon fill="none" stroke="black" points="216,-189 216,-211 384,-211 384,-189 216,-189"/>
<image xlink:href="../../images/primaryKeys.png" width="11px" height="12px" preserveAspectRatio="xMinYMin meet" x="221" y="-206"/>
<text text-anchor="start" x="236" y="-197.2" font-family="Helvetica,sans-Serif" font-size="11.00">id</text>
<polygon fill="#ffffff" stroke="transparent" points="216,-167 216,-189 384,-189 384,-167 216,-167"/>
<polygon fill="none" stroke="black" points="216,-167 216,-189 384,-189 384,-167 216,-167"/>
<image xlink:href="../../images/foreignKeys.png" width="11px" height="12px" preserveAspectRatio="xMinYMin meet" x="221" y="-184"/>
<text text-anchor="start" x="236" y="-175.2" font-family="Helvetica,sans-Serif" font-size="11.00">interest_rate_chart_id</text>
<polygon fill="none" stroke="black" points="216,-149 216,-167 384,-167 384,-149 216,-149"/>
<text text-anchor="start" x="219" y="-155.2" font-family="Helvetica,sans-Serif" font-size="11.00">...</text>
<polygon fill="#ffffff" stroke="transparent" points="216,-131 216,-149 280,-149 280,-131 216,-131"/>
<polygon fill="none" stroke="black" points="216,-131 216,-149 280,-149 280,-131 216,-131"/>
<text text-anchor="start" x="219" y="-137.2" font-family="Helvetica,sans-Serif" font-size="11.00">&lt; 1</text>
<polygon fill="#ffffff" stroke="transparent" points="280,-131 280,-149 340,-149 340,-131 280,-131"/>
<polygon fill="none" stroke="black" points="280,-131 280,-149 340,-149 340,-131 280,-131"/>
<text text-anchor="start" x="304" y="-137.2" font-family="Helvetica,sans-Serif" font-size="11.00">0 rows</text>
<polygon fill="#ffffff" stroke="transparent" points="340,-131 340,-149 384,-149 384,-131 340,-131"/>
<polygon fill="none" stroke="black" points="340,-131 340,-149 384,-149 384,-131 340,-131"/>
<text text-anchor="start" x="365" y="-137.2" font-family="Helvetica,sans-Serif" font-size="11.00">1 &gt;</text>
</a>
</g>
</g>
<!-- m_interest_incentives&#45;&gt;m_interest_rate_slab -->
<g id="edge1" class="edge">
<title>m_interest_incentives:w&#45;&gt;m_interest_rate_slab:e</title>
<path fill="none" stroke="black" d="M419.49,-200C408.18,-200 400.99,-200 385,-200"/>
<polygon fill="black" stroke="black" points="426,-200 434,-203.6 430,-200 434,-200 434,-200 434,-200 430,-200 434,-196.4 426,-200 426,-200"/>
<ellipse fill="none" stroke="black" cx="422.8" cy="-200" rx="3.2" ry="3.2"/>
</g>
<!-- m_interest_rate_chart -->
<g id="node3" class="node">
<title>m_interest_rate_chart</title>
<g id="a_node3"><a xlink:href="../../tables/m_interest_rate_chart.html" xlink:title="m_interest_rate_chart" target="_top">
<polygon fill="#ffffff" stroke="transparent" points="8,-151 8,-209 167,-209 167,-151 8,-151"/>
<polygon fill="#f5f5f5" stroke="transparent" points="8.5,-187 8.5,-209 167.5,-209 167.5,-187 8.5,-187"/>
<polygon fill="none" stroke="black" points="8.5,-187 8.5,-209 167.5,-209 167.5,-187 8.5,-187"/>
<text text-anchor="start" x="13.5" y="-196.2" font-family="Helvetica,sans-Serif" font-weight="bold" font-size="11.00">m_interest_rate_chart</text>
<text text-anchor="start" x="132.5" y="-195.2" font-family="Helvetica,sans-Serif" font-size="11.00">[table]</text>
<polygon fill="none" stroke="black" points="8.5,-169 8.5,-187 167.5,-187 167.5,-169 8.5,-169"/>
<text text-anchor="start" x="11.5" y="-175.2" font-family="Helvetica,sans-Serif" font-size="11.00">...</text>
<polygon fill="#ffffff" stroke="transparent" points="8.5,-151 8.5,-169 63.5,-169 63.5,-151 8.5,-151"/>
<polygon fill="none" stroke="black" points="8.5,-151 8.5,-169 63.5,-169 63.5,-151 8.5,-151"/>
<text text-anchor="start" x="11.5" y="-157.2" font-family="Helvetica,sans-Serif" font-size="11.00"> &#160;</text>
<polygon fill="#ffffff" stroke="transparent" points="63.5,-151 63.5,-169 123.5,-169 123.5,-151 63.5,-151"/>
<polygon fill="none" stroke="black" points="63.5,-151 63.5,-169 123.5,-169 123.5,-151 63.5,-151"/>
<text text-anchor="start" x="87.5" y="-157.2" font-family="Helvetica,sans-Serif" font-size="11.00">0 rows</text>
<polygon fill="#ffffff" stroke="transparent" points="123.5,-151 123.5,-169 167.5,-169 167.5,-151 123.5,-151"/>
<polygon fill="none" stroke="black" points="123.5,-151 123.5,-169 167.5,-169 167.5,-151 123.5,-151"/>
<text text-anchor="start" x="148.5" y="-157.2" font-family="Helvetica,sans-Serif" font-size="11.00">2 &gt;</text>
</a>
</g>
</g>
<!-- m_interest_rate_slab&#45;&gt;m_interest_rate_chart -->
<g id="edge2" class="edge">
<title>m_interest_rate_slab:w&#45;&gt;m_interest_rate_chart:e</title>
<path fill="none" stroke="black" d="M200.55,-178C190.2,-178 183.35,-178 168.5,-178"/>
<polygon fill="black" stroke="black" points="207,-178 215,-181.6 211,-178 215,-178 215,-178 215,-178 211,-178 215,-174.4 207,-178 207,-178"/>
<ellipse fill="none" stroke="black" cx="203.8" cy="-178" rx="3.2" ry="3.2"/>
</g>
</g>
</svg>
