<?xml version="1.0" encoding="UTF-8" standalone="no"?>
<!DOCTYPE svg PUBLIC "-//W3C//DTD SVG 1.1//EN"
 "http://www.w3.org/Graphics/SVG/1.1/DTD/svg11.dtd">
<!-- Generated by graphviz version 2.43.0 (0)
 -->
<!-- Title: oneDegreeRelationshipsDiagram Pages: 1 -->
<svg width="665pt" height="297pt"
 viewBox="0.00 0.00 665.00 297.00" xmlns="http://www.w3.org/2000/svg" xmlns:xlink="http://www.w3.org/1999/xlink">
<g id="graph0" class="graph" transform="scale(1 1) rotate(0) translate(4 293)">
<title>oneDegreeRelationshipsDiagram</title>
<polygon fill="#ffffff" stroke="transparent" points="-4,4 -4,-293 661,-293 661,4 -4,4"/>
<text text-anchor="middle" x="71.5" y="-7.2" font-family="Helvetica,sans-Serif" font-size="11.00">Generated by SchemaSpy</text>
<!-- m_deposit_product_interest_rate_chart -->
<g id="node1" class="node">
<title>m_deposit_product_interest_rate_chart</title>
<g id="a_node1"><a xlink:href="../../tables/m_deposit_product_interest_rate_chart.html" xlink:title="m_deposit_product_interest_rate_chart" target="_top">
<polygon fill="#ffffff" stroke="transparent" points="366,-201 366,-285 649,-285 649,-201 366,-201"/>
<polygon fill="#f5f5f5" stroke="transparent" points="366.5,-263 366.5,-285 649.5,-285 649.5,-263 366.5,-263"/>
<polygon fill="none" stroke="black" points="366.5,-263 366.5,-285 649.5,-285 649.5,-263 366.5,-263"/>
<text text-anchor="start" x="371.5" y="-272.2" font-family="Helvetica,sans-Serif" font-weight="bold" font-size="11.00">m_deposit_product_interest_rate_chart</text>
<text text-anchor="start" x="614.5" y="-271.2" font-family="Helvetica,sans-Serif" font-size="11.00">[table]</text>
<polygon fill="#ffffff" stroke="transparent" points="366.5,-241 366.5,-263 649.5,-263 649.5,-241 366.5,-241"/>
<polygon fill="none" stroke="black" points="366.5,-241 366.5,-263 649.5,-263 649.5,-241 366.5,-241"/>
<image xlink:href="../../images/foreignKeys.png" width="11px" height="12px" preserveAspectRatio="xMinYMin meet" x="371.5" y="-258"/>
<text text-anchor="start" x="386.5" y="-249.2" font-family="Helvetica,sans-Serif" font-size="11.00">deposit_product_id</text>
<polygon fill="#ffffff" stroke="transparent" points="366.5,-219 366.5,-241 649.5,-241 649.5,-219 366.5,-219"/>
<polygon fill="none" stroke="black" points="366.5,-219 366.5,-241 649.5,-241 649.5,-219 366.5,-219"/>
<image xlink:href="../../images/foreignKeys.png" width="11px" height="12px" preserveAspectRatio="xMinYMin meet" x="371.5" y="-236"/>
<text text-anchor="start" x="386.5" y="-227.2" font-family="Helvetica,sans-Serif" font-size="11.00">interest_rate_chart_id</text>
<polygon fill="#ffffff" stroke="transparent" points="366.5,-201 366.5,-219 492.5,-219 492.5,-201 366.5,-201"/>
<polygon fill="none" stroke="black" points="366.5,-201 366.5,-219 492.5,-219 492.5,-201 366.5,-201"/>
<text text-anchor="start" x="369.5" y="-207.2" font-family="Helvetica,sans-Serif" font-size="11.00">&lt; 2</text>
<polygon fill="#ffffff" stroke="transparent" points="492.5,-201 492.5,-219 583.5,-219 583.5,-201 492.5,-201"/>
<polygon fill="none" stroke="black" points="492.5,-201 492.5,-219 583.5,-219 583.5,-201 492.5,-201"/>
<text text-anchor="start" x="547.5" y="-207.2" font-family="Helvetica,sans-Serif" font-size="11.00">0 rows</text>
<polygon fill="#ffffff" stroke="transparent" points="583.5,-201 583.5,-219 649.5,-219 649.5,-201 583.5,-201"/>
<polygon fill="none" stroke="black" points="583.5,-201 583.5,-219 649.5,-219 649.5,-201 583.5,-201"/>
<text text-anchor="start" x="639.5" y="-207.2" font-family="Helvetica,sans-Serif" font-size="11.00"> &#160;</text>
</a>
</g>
</g>
<!-- m_interest_rate_chart -->
<g id="node2" class="node">
<title>m_interest_rate_chart</title>
<g id="a_node2"><a xlink:href="../../tables/m_interest_rate_chart.html" xlink:title="m_interest_rate_chart" target="_top">
<polygon fill="#ffffff" stroke="transparent" points="8,-37 8,-213 317,-213 317,-37 8,-37"/>
<polygon fill="#f5f5f5" stroke="transparent" points="10.5,-189 10.5,-211 315.5,-211 315.5,-189 10.5,-189"/>
<polygon fill="none" stroke="black" points="10.5,-189 10.5,-211 315.5,-211 315.5,-189 10.5,-189"/>
<text text-anchor="start" x="15.5" y="-198.2" font-family="Helvetica,sans-Serif" font-weight="bold" font-size="11.00">m_interest_rate_chart</text>
<text text-anchor="start" x="280.5" y="-197.2" font-family="Helvetica,sans-Serif" font-size="11.00">[table]</text>
<polygon fill="none" stroke="black" points="10.5,-167 10.5,-189 248.5,-189 248.5,-167 10.5,-167"/>
<image xlink:href="../../images/primaryKeys.png" width="11px" height="12px" preserveAspectRatio="xMinYMin meet" x="15.5" y="-184"/>
<text text-anchor="start" x="30.5" y="-175.2" font-family="Helvetica,sans-Serif" font-size="11.00">id</text>
<polygon fill="none" stroke="black" points="248.5,-167 248.5,-189 315.5,-189 315.5,-167 248.5,-167"/>
<text text-anchor="start" x="251.5" y="-175.2" font-family="Helvetica,sans-Serif" font-size="11.00">bigint[19]</text>
<polygon fill="none" stroke="black" points="10.5,-145 10.5,-167 248.5,-167 248.5,-145 10.5,-145"/>
<text text-anchor="start" x="30.5" y="-153.2" font-family="Helvetica,sans-Serif" font-size="11.00">name</text>
<polygon fill="none" stroke="black" points="248.5,-145 248.5,-167 315.5,-167 315.5,-145 248.5,-145"/>
<text text-anchor="start" x="251.5" y="-153.2" font-family="Helvetica,sans-Serif" font-size="11.00">varchar[100]</text>
<polygon fill="none" stroke="black" points="10.5,-123 10.5,-145 248.5,-145 248.5,-123 10.5,-123"/>
<text text-anchor="start" x="30.5" y="-131.2" font-family="Helvetica,sans-Serif" font-size="11.00">description</text>
<polygon fill="none" stroke="black" points="248.5,-123 248.5,-145 315.5,-145 315.5,-123 248.5,-123"/>
<text text-anchor="start" x="251.5" y="-131.2" font-family="Helvetica,sans-Serif" font-size="11.00">varchar[200]</text>
<polygon fill="none" stroke="black" points="10.5,-101 10.5,-123 248.5,-123 248.5,-101 10.5,-101"/>
<text text-anchor="start" x="30.5" y="-109.2" font-family="Helvetica,sans-Serif" font-size="11.00">from_date</text>
<polygon fill="none" stroke="black" points="248.5,-101 248.5,-123 315.5,-123 315.5,-101 248.5,-101"/>
<text text-anchor="start" x="251.5" y="-109.2" font-family="Helvetica,sans-Serif" font-size="11.00">date[10]</text>
<polygon fill="none" stroke="black" points="10.5,-79 10.5,-101 248.5,-101 248.5,-79 10.5,-79"/>
<text text-anchor="start" x="30.5" y="-87.2" font-family="Helvetica,sans-Serif" font-size="11.00">end_date</text>
<polygon fill="none" stroke="black" points="248.5,-79 248.5,-101 315.5,-101 315.5,-79 248.5,-79"/>
<text text-anchor="start" x="251.5" y="-87.2" font-family="Helvetica,sans-Serif" font-size="11.00">date[10]</text>
<polygon fill="none" stroke="black" points="10.5,-57 10.5,-79 248.5,-79 248.5,-57 10.5,-57"/>
<text text-anchor="start" x="30.5" y="-65.2" font-family="Helvetica,sans-Serif" font-size="11.00">is_primary_grouping_by_amount</text>
<polygon fill="none" stroke="black" points="248.5,-57 248.5,-79 315.5,-79 315.5,-57 248.5,-57"/>
<text text-anchor="start" x="251.5" y="-65.2" font-family="Helvetica,sans-Serif" font-size="11.00">bit[1]</text>
<polygon fill="#ffffff" stroke="transparent" points="10.5,-39 10.5,-57 120.5,-57 120.5,-39 10.5,-39"/>
<polygon fill="none" stroke="black" points="10.5,-39 10.5,-57 120.5,-57 120.5,-39 10.5,-39"/>
<text text-anchor="start" x="13.5" y="-45.2" font-family="Helvetica,sans-Serif" font-size="11.00">&lt; 0</text>
<polygon fill="#ffffff" stroke="transparent" points="120.5,-39 120.5,-57 248.5,-57 248.5,-39 120.5,-39"/>
<polygon fill="none" stroke="black" points="120.5,-39 120.5,-57 248.5,-57 248.5,-39 120.5,-39"/>
<text text-anchor="start" x="212.5" y="-45.2" font-family="Helvetica,sans-Serif" font-size="11.00">0 rows</text>
<polygon fill="#ffffff" stroke="transparent" points="248.5,-39 248.5,-57 315.5,-57 315.5,-39 248.5,-39"/>
<polygon fill="none" stroke="black" points="248.5,-39 248.5,-57 315.5,-57 315.5,-39 248.5,-39"/>
<text text-anchor="start" x="296.5" y="-45.2" font-family="Helvetica,sans-Serif" font-size="11.00">2 &gt;</text>
<polygon fill="none" stroke="black" stroke-width="2" points="9,-38 9,-212 316,-212 316,-38 9,-38"/>
</a>
</g>
</g>
<!-- m_deposit_product_interest_rate_chart&#45;&gt;m_interest_rate_chart -->
<g id="edge1" class="edge">
<title>m_deposit_product_interest_rate_chart:w&#45;&gt;m_interest_rate_chart:e</title>
<path fill="none" stroke="black" d="M351.91,-225.2C337.56,-212.33 342.3,-178 316.5,-178"/>
<polygon fill="black" stroke="black" points="357.96,-227.34 364.3,-233.39 361.73,-228.67 365.5,-230 365.5,-230 365.5,-230 361.73,-228.67 366.7,-226.61 357.96,-227.34 357.96,-227.34"/>
<ellipse fill="none" stroke="black" cx="354.94" cy="-226.27" rx="3.2" ry="3.2"/>
</g>
<!-- m_interest_rate_slab -->
<g id="node3" class="node">
<title>m_interest_rate_slab</title>
<g id="a_node3"><a xlink:href="../../tables/m_interest_rate_slab.html" xlink:title="m_interest_rate_slab" target="_top">
<polygon fill="#ffffff" stroke="transparent" points="423.5,-78 423.5,-180 591.5,-180 591.5,-78 423.5,-78"/>
<polygon fill="#f5f5f5" stroke="transparent" points="423.5,-158 423.5,-180 591.5,-180 591.5,-158 423.5,-158"/>
<polygon fill="none" stroke="black" points="423.5,-158 423.5,-180 591.5,-180 591.5,-158 423.5,-158"/>
<text text-anchor="start" x="428.5" y="-167.2" font-family="Helvetica,sans-Serif" font-weight="bold" font-size="11.00">m_interest_rate_slab</text>
<text text-anchor="start" x="556.5" y="-166.2" font-family="Helvetica,sans-Serif" font-size="11.00">[table]</text>
<polygon fill="none" stroke="black" points="423.5,-136 423.5,-158 591.5,-158 591.5,-136 423.5,-136"/>
<image xlink:href="../../images/primaryKeys.png" width="11px" height="12px" preserveAspectRatio="xMinYMin meet" x="428.5" y="-153"/>
<text text-anchor="start" x="443.5" y="-144.2" font-family="Helvetica,sans-Serif" font-size="11.00">id</text>
<polygon fill="#ffffff" stroke="transparent" points="423.5,-114 423.5,-136 591.5,-136 591.5,-114 423.5,-114"/>
<polygon fill="none" stroke="black" points="423.5,-114 423.5,-136 591.5,-136 591.5,-114 423.5,-114"/>
<image xlink:href="../../images/foreignKeys.png" width="11px" height="12px" preserveAspectRatio="xMinYMin meet" x="428.5" y="-131"/>
<text text-anchor="start" x="443.5" y="-122.2" font-family="Helvetica,sans-Serif" font-size="11.00">interest_rate_chart_id</text>
<polygon fill="none" stroke="black" points="423.5,-96 423.5,-114 591.5,-114 591.5,-96 423.5,-96"/>
<text text-anchor="start" x="426.5" y="-102.2" font-family="Helvetica,sans-Serif" font-size="11.00">...</text>
<polygon fill="#ffffff" stroke="transparent" points="423.5,-78 423.5,-96 487.5,-96 487.5,-78 423.5,-78"/>
<polygon fill="none" stroke="black" points="423.5,-78 423.5,-96 487.5,-96 487.5,-78 423.5,-78"/>
<text text-anchor="start" x="426.5" y="-84.2" font-family="Helvetica,sans-Serif" font-size="11.00">&lt; 1</text>
<polygon fill="#ffffff" stroke="transparent" points="487.5,-78 487.5,-96 547.5,-96 547.5,-78 487.5,-78"/>
<polygon fill="none" stroke="black" points="487.5,-78 487.5,-96 547.5,-96 547.5,-78 487.5,-78"/>
<text text-anchor="start" x="511.5" y="-84.2" font-family="Helvetica,sans-Serif" font-size="11.00">0 rows</text>
<polygon fill="#ffffff" stroke="transparent" points="547.5,-78 547.5,-96 591.5,-96 591.5,-78 547.5,-78"/>
<polygon fill="none" stroke="black" points="547.5,-78 547.5,-96 591.5,-96 591.5,-78 547.5,-78"/>
<text text-anchor="start" x="572.5" y="-84.2" font-family="Helvetica,sans-Serif" font-size="11.00">1 &gt;</text>
</a>
</g>
</g>
<!-- m_interest_rate_slab&#45;&gt;m_interest_rate_chart -->
<g id="edge2" class="edge">
<title>m_interest_rate_slab:w&#45;&gt;m_interest_rate_chart:e</title>
<path fill="none" stroke="black" d="M407.95,-126.53C369.16,-135.22 363.82,-178 316.5,-178"/>
<polygon fill="black" stroke="black" points="414.54,-125.84 422.88,-128.58 418.52,-125.42 422.5,-125 422.5,-125 422.5,-125 418.52,-125.42 422.12,-121.42 414.54,-125.84 414.54,-125.84"/>
<ellipse fill="none" stroke="black" cx="411.36" cy="-126.17" rx="3.2" ry="3.2"/>
</g>
</g>
</svg>
