<?xml version="1.0" encoding="UTF-8" standalone="no"?>
<!DOCTYPE svg PUBLIC "-//W3C//DTD SVG 1.1//EN"
 "http://www.w3.org/Graphics/SVG/1.1/DTD/svg11.dtd">
<!-- Generated by graphviz version 2.43.0 (0)
 -->
<!-- Title: oneDegreeRelationshipsDiagram Pages: 1 -->
<svg width="770pt" height="333pt"
 viewBox="0.00 0.00 770.00 333.00" xmlns="http://www.w3.org/2000/svg" xmlns:xlink="http://www.w3.org/1999/xlink">
<g id="graph0" class="graph" transform="scale(1 1) rotate(0) translate(4 329)">
<title>oneDegreeRelationshipsDiagram</title>
<polygon fill="#ffffff" stroke="transparent" points="-4,4 -4,-329 766,-329 766,4 -4,4"/>
<text text-anchor="middle" x="71.5" y="-7.2" font-family="Helvetica,sans-Serif" font-size="11.00">Generated by SchemaSpy</text>
<!-- m_interest_incentives -->
<g id="node1" class="node">
<title>m_interest_incentives</title>
<g id="a_node1"><a xlink:href="../../tables/m_interest_incentives.html" xlink:title="m_interest_incentives" target="_top">
<polygon fill="#ffffff" stroke="transparent" points="586,-219 586,-321 754,-321 754,-219 586,-219"/>
<polygon fill="#f5f5f5" stroke="transparent" points="586,-299 586,-321 754,-321 754,-299 586,-299"/>
<polygon fill="none" stroke="black" points="586,-299 586,-321 754,-321 754,-299 586,-299"/>
<text text-anchor="start" x="591" y="-308.2" font-family="Helvetica,sans-Serif" font-weight="bold" font-size="11.00">m_interest_incentives</text>
<text text-anchor="start" x="719" y="-307.2" font-family="Helvetica,sans-Serif" font-size="11.00">[table]</text>
<polygon fill="none" stroke="black" points="586,-277 586,-299 754,-299 754,-277 586,-277"/>
<image xlink:href="../../images/primaryKeys.png" width="11px" height="12px" preserveAspectRatio="xMinYMin meet" x="591" y="-294"/>
<text text-anchor="start" x="606" y="-285.2" font-family="Helvetica,sans-Serif" font-size="11.00">id</text>
<polygon fill="#ffffff" stroke="transparent" points="586,-255 586,-277 754,-277 754,-255 586,-255"/>
<polygon fill="none" stroke="black" points="586,-255 586,-277 754,-277 754,-255 586,-255"/>
<image xlink:href="../../images/foreignKeys.png" width="11px" height="12px" preserveAspectRatio="xMinYMin meet" x="591" y="-272"/>
<text text-anchor="start" x="606" y="-263.2" font-family="Helvetica,sans-Serif" font-size="11.00">interest_rate_slab_id</text>
<polygon fill="none" stroke="black" points="586,-237 586,-255 754,-255 754,-237 586,-237"/>
<text text-anchor="start" x="589" y="-243.2" font-family="Helvetica,sans-Serif" font-size="11.00">...</text>
<polygon fill="#ffffff" stroke="transparent" points="586,-219 586,-237 655,-237 655,-219 586,-219"/>
<polygon fill="none" stroke="black" points="586,-219 586,-237 655,-237 655,-219 586,-219"/>
<text text-anchor="start" x="589" y="-225.2" font-family="Helvetica,sans-Serif" font-size="11.00">&lt; 1</text>
<polygon fill="#ffffff" stroke="transparent" points="655,-219 655,-237 717,-237 717,-219 655,-219"/>
<polygon fill="none" stroke="black" points="655,-219 655,-237 717,-237 717,-219 655,-219"/>
<text text-anchor="start" x="681" y="-225.2" font-family="Helvetica,sans-Serif" font-size="11.00">0 rows</text>
<polygon fill="#ffffff" stroke="transparent" points="717,-219 717,-237 754,-237 754,-219 717,-219"/>
<polygon fill="none" stroke="black" points="717,-219 717,-237 754,-237 754,-219 717,-219"/>
<text text-anchor="start" x="744" y="-225.2" font-family="Helvetica,sans-Serif" font-size="11.00"> &#160;</text>
</a>
</g>
</g>
<!-- m_interest_rate_slab -->
<g id="node2" class="node">
<title>m_interest_rate_slab</title>
<g id="a_node2"><a xlink:href="../../tables/m_interest_rate_slab.html" xlink:title="m_interest_rate_slab" target="_top">
<polygon fill="#ffffff" stroke="transparent" points="295,-37 295,-301 537,-301 537,-37 295,-37"/>
<polygon fill="#f5f5f5" stroke="transparent" points="297,-277 297,-299 535,-299 535,-277 297,-277"/>
<polygon fill="none" stroke="black" points="297,-277 297,-299 535,-299 535,-277 297,-277"/>
<text text-anchor="start" x="302" y="-286.2" font-family="Helvetica,sans-Serif" font-weight="bold" font-size="11.00">m_interest_rate_slab</text>
<text text-anchor="start" x="500" y="-285.2" font-family="Helvetica,sans-Serif" font-size="11.00">[table]</text>
<polygon fill="none" stroke="black" points="297,-255 297,-277 465,-277 465,-255 297,-255"/>
<image xlink:href="../../images/primaryKeys.png" width="11px" height="12px" preserveAspectRatio="xMinYMin meet" x="302" y="-272"/>
<text text-anchor="start" x="317" y="-263.2" font-family="Helvetica,sans-Serif" font-size="11.00">id</text>
<polygon fill="none" stroke="black" points="465,-255 465,-277 535,-277 535,-255 465,-255"/>
<text text-anchor="start" x="468" y="-263.2" font-family="Helvetica,sans-Serif" font-size="11.00">bigint[19]</text>
<polygon fill="#ffffff" stroke="transparent" points="297,-233 297,-255 465,-255 465,-233 297,-233"/>
<polygon fill="none" stroke="black" points="297,-233 297,-255 465,-255 465,-233 297,-233"/>
<image xlink:href="../../images/foreignKeys.png" width="11px" height="12px" preserveAspectRatio="xMinYMin meet" x="302" y="-250"/>
<text text-anchor="start" x="317" y="-241.2" font-family="Helvetica,sans-Serif" font-size="11.00">interest_rate_chart_id</text>
<polygon fill="none" stroke="black" points="465,-233 465,-255 535,-255 535,-233 465,-233"/>
<text text-anchor="start" x="468" y="-241.2" font-family="Helvetica,sans-Serif" font-size="11.00">bigint[19]</text>
<polygon fill="none" stroke="black" points="297,-211 297,-233 465,-233 465,-211 297,-211"/>
<text text-anchor="start" x="317" y="-219.2" font-family="Helvetica,sans-Serif" font-size="11.00">description</text>
<polygon fill="none" stroke="black" points="465,-211 465,-233 535,-233 535,-211 465,-211"/>
<text text-anchor="start" x="468" y="-219.2" font-family="Helvetica,sans-Serif" font-size="11.00">varchar[200]</text>
<polygon fill="none" stroke="black" points="297,-189 297,-211 465,-211 465,-189 297,-189"/>
<text text-anchor="start" x="317" y="-197.2" font-family="Helvetica,sans-Serif" font-size="11.00">period_type_enum</text>
<polygon fill="none" stroke="black" points="465,-189 465,-211 535,-211 535,-189 465,-189"/>
<text text-anchor="start" x="468" y="-197.2" font-family="Helvetica,sans-Serif" font-size="11.00">smallint[5]</text>
<polygon fill="none" stroke="black" points="297,-167 297,-189 465,-189 465,-167 297,-167"/>
<text text-anchor="start" x="317" y="-175.2" font-family="Helvetica,sans-Serif" font-size="11.00">from_period</text>
<polygon fill="none" stroke="black" points="465,-167 465,-189 535,-189 535,-167 465,-167"/>
<text text-anchor="start" x="468" y="-175.2" font-family="Helvetica,sans-Serif" font-size="11.00">int[10]</text>
<polygon fill="none" stroke="black" points="297,-145 297,-167 465,-167 465,-145 297,-145"/>
<text text-anchor="start" x="317" y="-153.2" font-family="Helvetica,sans-Serif" font-size="11.00">to_period</text>
<polygon fill="none" stroke="black" points="465,-145 465,-167 535,-167 535,-145 465,-145"/>
<text text-anchor="start" x="468" y="-153.2" font-family="Helvetica,sans-Serif" font-size="11.00">int[10]</text>
<polygon fill="none" stroke="black" points="297,-123 297,-145 465,-145 465,-123 297,-123"/>
<text text-anchor="start" x="317" y="-131.2" font-family="Helvetica,sans-Serif" font-size="11.00">amount_range_from</text>
<polygon fill="none" stroke="black" points="465,-123 465,-145 535,-145 535,-123 465,-123"/>
<text text-anchor="start" x="468" y="-131.2" font-family="Helvetica,sans-Serif" font-size="11.00">decimal[19,6]</text>
<polygon fill="none" stroke="black" points="297,-101 297,-123 465,-123 465,-101 297,-101"/>
<text text-anchor="start" x="317" y="-109.2" font-family="Helvetica,sans-Serif" font-size="11.00">amount_range_to</text>
<polygon fill="none" stroke="black" points="465,-101 465,-123 535,-123 535,-101 465,-101"/>
<text text-anchor="start" x="468" y="-109.2" font-family="Helvetica,sans-Serif" font-size="11.00">decimal[19,6]</text>
<polygon fill="none" stroke="black" points="297,-79 297,-101 465,-101 465,-79 297,-79"/>
<text text-anchor="start" x="317" y="-87.2" font-family="Helvetica,sans-Serif" font-size="11.00">annual_interest_rate</text>
<polygon fill="none" stroke="black" points="465,-79 465,-101 535,-101 535,-79 465,-79"/>
<text text-anchor="start" x="468" y="-87.2" font-family="Helvetica,sans-Serif" font-size="11.00">decimal[19,6]</text>
<polygon fill="none" stroke="black" points="297,-57 297,-79 465,-79 465,-57 297,-57"/>
<text text-anchor="start" x="317" y="-65.2" font-family="Helvetica,sans-Serif" font-size="11.00">currency_code</text>
<polygon fill="none" stroke="black" points="465,-57 465,-79 535,-79 535,-57 465,-57"/>
<text text-anchor="start" x="468" y="-65.2" font-family="Helvetica,sans-Serif" font-size="11.00">varchar[3]</text>
<polygon fill="#ffffff" stroke="transparent" points="297,-39 297,-57 372,-57 372,-39 297,-39"/>
<polygon fill="none" stroke="black" points="297,-39 297,-57 372,-57 372,-39 297,-39"/>
<text text-anchor="start" x="300" y="-45.2" font-family="Helvetica,sans-Serif" font-size="11.00">&lt; 1</text>
<polygon fill="#ffffff" stroke="transparent" points="372,-39 372,-57 465,-57 465,-39 372,-39"/>
<polygon fill="none" stroke="black" points="372,-39 372,-57 465,-57 465,-39 372,-39"/>
<text text-anchor="start" x="429" y="-45.2" font-family="Helvetica,sans-Serif" font-size="11.00">0 rows</text>
<polygon fill="#ffffff" stroke="transparent" points="465,-39 465,-57 535,-57 535,-39 465,-39"/>
<polygon fill="none" stroke="black" points="465,-39 465,-57 535,-57 535,-39 465,-39"/>
<text text-anchor="start" x="516" y="-45.2" font-family="Helvetica,sans-Serif" font-size="11.00">1 &gt;</text>
<polygon fill="none" stroke="black" stroke-width="2" points="296,-38 296,-300 536,-300 536,-38 296,-38"/>
</a>
</g>
</g>
<!-- m_interest_incentives&#45;&gt;m_interest_rate_slab -->
<g id="edge1" class="edge">
<title>m_interest_incentives:w&#45;&gt;m_interest_rate_slab:e</title>
<path fill="none" stroke="black" d="M570.49,-266C559.18,-266 551.99,-266 536,-266"/>
<polygon fill="black" stroke="black" points="577,-266 585,-269.6 581,-266 585,-266 585,-266 585,-266 581,-266 585,-262.4 577,-266 577,-266"/>
<ellipse fill="none" stroke="black" cx="573.8" cy="-266" rx="3.2" ry="3.2"/>
</g>
<!-- m_interest_rate_chart -->
<g id="node3" class="node">
<title>m_interest_rate_chart</title>
<g id="a_node3"><a xlink:href="../../tables/m_interest_rate_chart.html" xlink:title="m_interest_rate_chart" target="_top">
<polygon fill="#ffffff" stroke="transparent" points="8,-197 8,-277 246,-277 246,-197 8,-197"/>
<polygon fill="#f5f5f5" stroke="transparent" points="8,-255 8,-277 246,-277 246,-255 8,-255"/>
<polygon fill="none" stroke="black" points="8,-255 8,-277 246,-277 246,-255 8,-255"/>
<text text-anchor="start" x="13" y="-264.2" font-family="Helvetica,sans-Serif" font-weight="bold" font-size="11.00">m_interest_rate_chart</text>
<text text-anchor="start" x="211" y="-263.2" font-family="Helvetica,sans-Serif" font-size="11.00">[table]</text>
<polygon fill="none" stroke="black" points="8,-233 8,-255 246,-255 246,-233 8,-233"/>
<image xlink:href="../../images/primaryKeys.png" width="11px" height="12px" preserveAspectRatio="xMinYMin meet" x="13" y="-250"/>
<text text-anchor="start" x="28" y="-241.2" font-family="Helvetica,sans-Serif" font-size="11.00">id</text>
<polygon fill="none" stroke="black" points="8,-215 8,-233 246,-233 246,-215 8,-215"/>
<text text-anchor="start" x="11" y="-221.2" font-family="Helvetica,sans-Serif" font-size="11.00">...</text>
<polygon fill="#ffffff" stroke="transparent" points="8,-197 8,-215 103,-215 103,-197 8,-197"/>
<polygon fill="none" stroke="black" points="8,-197 8,-215 103,-215 103,-197 8,-197"/>
<text text-anchor="start" x="11" y="-203.2" font-family="Helvetica,sans-Serif" font-size="11.00"> &#160;</text>
<polygon fill="#ffffff" stroke="transparent" points="103,-197 103,-215 183,-215 183,-197 103,-197"/>
<polygon fill="none" stroke="black" points="103,-197 103,-215 183,-215 183,-197 103,-197"/>
<text text-anchor="start" x="147" y="-203.2" font-family="Helvetica,sans-Serif" font-size="11.00">0 rows</text>
<polygon fill="#ffffff" stroke="transparent" points="183,-197 183,-215 246,-215 246,-197 183,-197"/>
<polygon fill="none" stroke="black" points="183,-197 183,-215 246,-215 246,-197 183,-197"/>
<text text-anchor="start" x="227" y="-203.2" font-family="Helvetica,sans-Serif" font-size="11.00">2 &gt;</text>
</a>
</g>
</g>
<!-- m_interest_rate_slab&#45;&gt;m_interest_rate_chart -->
<g id="edge2" class="edge">
<title>m_interest_rate_slab:w&#45;&gt;m_interest_rate_chart:e</title>
<path fill="none" stroke="black" d="M281.49,-244C270.18,-244 262.99,-244 247,-244"/>
<polygon fill="black" stroke="black" points="288,-244 296,-247.6 292,-244 296,-244 296,-244 296,-244 292,-244 296,-240.4 288,-244 288,-244"/>
<ellipse fill="none" stroke="black" cx="284.8" cy="-244" rx="3.2" ry="3.2"/>
</g>
</g>
</svg>
