<?xml version="1.0" encoding="UTF-8" standalone="no"?>
<!DOCTYPE svg PUBLIC "-//W3C//DTD SVG 1.1//EN"
 "http://www.w3.org/Graphics/SVG/1.1/DTD/svg11.dtd">
<!-- Generated by graphviz version 2.43.0 (0)
 -->
<!-- Title: oneDegreeRelationshipsDiagram Pages: 1 -->
<svg width="483pt" height="269pt"
 viewBox="0.00 0.00 483.00 269.00" xmlns="http://www.w3.org/2000/svg" xmlns:xlink="http://www.w3.org/1999/xlink">
<g id="graph0" class="graph" transform="scale(1 1) rotate(0) translate(4 265)">
<title>oneDegreeRelationshipsDiagram</title>
<polygon fill="#ffffff" stroke="transparent" points="-4,4 -4,-265 479,-265 479,4 -4,4"/>
<text text-anchor="middle" x="71.5" y="-7.2" font-family="Helvetica,sans-Serif" font-size="11.00">Generated by SchemaSpy</text>
<!-- m_interest_incentives -->
<g id="node1" class="node">
<title>m_interest_incentives</title>
<g id="a_node1"><a xlink:href="../../tables/m_interest_incentives.html" xlink:title="m_interest_incentives" target="_top">
<polygon fill="#ffffff" stroke="transparent" points="225,-37 225,-257 467,-257 467,-37 225,-37"/>
<polygon fill="#f5f5f5" stroke="transparent" points="227,-233 227,-255 465,-255 465,-233 227,-233"/>
<polygon fill="none" stroke="black" points="227,-233 227,-255 465,-255 465,-233 227,-233"/>
<text text-anchor="start" x="232" y="-242.2" font-family="Helvetica,sans-Serif" font-weight="bold" font-size="11.00">m_interest_incentives</text>
<text text-anchor="start" x="430" y="-241.2" font-family="Helvetica,sans-Serif" font-size="11.00">[table]</text>
<polygon fill="none" stroke="black" points="227,-211 227,-233 395,-233 395,-211 227,-211"/>
<image xlink:href="../../images/primaryKeys.png" width="11px" height="12px" preserveAspectRatio="xMinYMin meet" x="232" y="-228"/>
<text text-anchor="start" x="247" y="-219.2" font-family="Helvetica,sans-Serif" font-size="11.00">id</text>
<polygon fill="none" stroke="black" points="395,-211 395,-233 465,-233 465,-211 395,-211"/>
<text text-anchor="start" x="398" y="-219.2" font-family="Helvetica,sans-Serif" font-size="11.00">bigint[19]</text>
<polygon fill="#ffffff" stroke="transparent" points="227,-189 227,-211 395,-211 395,-189 227,-189"/>
<polygon fill="none" stroke="black" points="227,-189 227,-211 395,-211 395,-189 227,-189"/>
<image xlink:href="../../images/foreignKeys.png" width="11px" height="12px" preserveAspectRatio="xMinYMin meet" x="232" y="-206"/>
<text text-anchor="start" x="247" y="-197.2" font-family="Helvetica,sans-Serif" font-size="11.00">interest_rate_slab_id</text>
<polygon fill="none" stroke="black" points="395,-189 395,-211 465,-211 465,-189 395,-189"/>
<text text-anchor="start" x="398" y="-197.2" font-family="Helvetica,sans-Serif" font-size="11.00">bigint[19]</text>
<polygon fill="none" stroke="black" points="227,-167 227,-189 395,-189 395,-167 227,-167"/>
<text text-anchor="start" x="247" y="-175.2" font-family="Helvetica,sans-Serif" font-size="11.00">entiry_type</text>
<polygon fill="none" stroke="black" points="395,-167 395,-189 465,-189 465,-167 395,-167"/>
<text text-anchor="start" x="398" y="-175.2" font-family="Helvetica,sans-Serif" font-size="11.00">smallint[5]</text>
<polygon fill="none" stroke="black" points="227,-145 227,-167 395,-167 395,-145 227,-145"/>
<text text-anchor="start" x="247" y="-153.2" font-family="Helvetica,sans-Serif" font-size="11.00">attribute_name</text>
<polygon fill="none" stroke="black" points="395,-145 395,-167 465,-167 465,-145 395,-145"/>
<text text-anchor="start" x="398" y="-153.2" font-family="Helvetica,sans-Serif" font-size="11.00">smallint[5]</text>
<polygon fill="none" stroke="black" points="227,-123 227,-145 395,-145 395,-123 227,-123"/>
<text text-anchor="start" x="247" y="-131.2" font-family="Helvetica,sans-Serif" font-size="11.00">condition_type</text>
<polygon fill="none" stroke="black" points="395,-123 395,-145 465,-145 465,-123 395,-123"/>
<text text-anchor="start" x="398" y="-131.2" font-family="Helvetica,sans-Serif" font-size="11.00">smallint[5]</text>
<polygon fill="none" stroke="black" points="227,-101 227,-123 395,-123 395,-101 227,-101"/>
<text text-anchor="start" x="247" y="-109.2" font-family="Helvetica,sans-Serif" font-size="11.00">attribute_value</text>
<polygon fill="none" stroke="black" points="395,-101 395,-123 465,-123 465,-101 395,-101"/>
<text text-anchor="start" x="398" y="-109.2" font-family="Helvetica,sans-Serif" font-size="11.00">varchar[50]</text>
<polygon fill="none" stroke="black" points="227,-79 227,-101 395,-101 395,-79 227,-79"/>
<text text-anchor="start" x="247" y="-87.2" font-family="Helvetica,sans-Serif" font-size="11.00">incentive_type</text>
<polygon fill="none" stroke="black" points="395,-79 395,-101 465,-101 465,-79 395,-79"/>
<text text-anchor="start" x="398" y="-87.2" font-family="Helvetica,sans-Serif" font-size="11.00">smallint[5]</text>
<polygon fill="none" stroke="black" points="227,-57 227,-79 395,-79 395,-57 227,-57"/>
<text text-anchor="start" x="247" y="-65.2" font-family="Helvetica,sans-Serif" font-size="11.00">amount</text>
<polygon fill="none" stroke="black" points="395,-57 395,-79 465,-79 465,-57 395,-57"/>
<text text-anchor="start" x="398" y="-65.2" font-family="Helvetica,sans-Serif" font-size="11.00">decimal[19,6]</text>
<polygon fill="#ffffff" stroke="transparent" points="227,-39 227,-57 302,-57 302,-39 227,-39"/>
<polygon fill="none" stroke="black" points="227,-39 227,-57 302,-57 302,-39 227,-39"/>
<text text-anchor="start" x="230" y="-45.2" font-family="Helvetica,sans-Serif" font-size="11.00">&lt; 1</text>
<polygon fill="#ffffff" stroke="transparent" points="302,-39 302,-57 395,-57 395,-39 302,-39"/>
<polygon fill="none" stroke="black" points="302,-39 302,-57 395,-57 395,-39 302,-39"/>
<text text-anchor="start" x="359" y="-45.2" font-family="Helvetica,sans-Serif" font-size="11.00">0 rows</text>
<polygon fill="#ffffff" stroke="transparent" points="395,-39 395,-57 465,-57 465,-39 395,-39"/>
<polygon fill="none" stroke="black" points="395,-39 395,-57 465,-57 465,-39 395,-39"/>
<text text-anchor="start" x="446" y="-45.2" font-family="Helvetica,sans-Serif" font-size="11.00">0 &gt;</text>
<polygon fill="none" stroke="black" stroke-width="2" points="226,-38 226,-256 466,-256 466,-38 226,-38"/>
</a>
</g>
</g>
<!-- m_interest_rate_slab -->
<g id="node2" class="node">
<title>m_interest_rate_slab</title>
<g id="a_node2"><a xlink:href="../../tables/m_interest_rate_slab.html" xlink:title="m_interest_rate_slab" target="_top">
<polygon fill="#ffffff" stroke="transparent" points="8,-131 8,-233 176,-233 176,-131 8,-131"/>
<polygon fill="#f5f5f5" stroke="transparent" points="8,-211 8,-233 176,-233 176,-211 8,-211"/>
<polygon fill="none" stroke="black" points="8,-211 8,-233 176,-233 176,-211 8,-211"/>
<text text-anchor="start" x="13" y="-220.2" font-family="Helvetica,sans-Serif" font-weight="bold" font-size="11.00">m_interest_rate_slab</text>
<text text-anchor="start" x="141" y="-219.2" font-family="Helvetica,sans-Serif" font-size="11.00">[table]</text>
<polygon fill="none" stroke="black" points="8,-189 8,-211 176,-211 176,-189 8,-189"/>
<image xlink:href="../../images/primaryKeys.png" width="11px" height="12px" preserveAspectRatio="xMinYMin meet" x="13" y="-206"/>
<text text-anchor="start" x="28" y="-197.2" font-family="Helvetica,sans-Serif" font-size="11.00">id</text>
<polygon fill="#ffffff" stroke="transparent" points="8,-167 8,-189 176,-189 176,-167 8,-167"/>
<polygon fill="none" stroke="black" points="8,-167 8,-189 176,-189 176,-167 8,-167"/>
<image xlink:href="../../images/foreignKeys.png" width="11px" height="12px" preserveAspectRatio="xMinYMin meet" x="13" y="-184"/>
<text text-anchor="start" x="28" y="-175.2" font-family="Helvetica,sans-Serif" font-size="11.00">interest_rate_chart_id</text>
<polygon fill="none" stroke="black" points="8,-149 8,-167 176,-167 176,-149 8,-149"/>
<text text-anchor="start" x="11" y="-155.2" font-family="Helvetica,sans-Serif" font-size="11.00">...</text>
<polygon fill="#ffffff" stroke="transparent" points="8,-131 8,-149 72,-149 72,-131 8,-131"/>
<polygon fill="none" stroke="black" points="8,-131 8,-149 72,-149 72,-131 8,-131"/>
<text text-anchor="start" x="11" y="-137.2" font-family="Helvetica,sans-Serif" font-size="11.00">&lt; 1</text>
<polygon fill="#ffffff" stroke="transparent" points="72,-131 72,-149 132,-149 132,-131 72,-131"/>
<polygon fill="none" stroke="black" points="72,-131 72,-149 132,-149 132,-131 72,-131"/>
<text text-anchor="start" x="96" y="-137.2" font-family="Helvetica,sans-Serif" font-size="11.00">0 rows</text>
<polygon fill="#ffffff" stroke="transparent" points="132,-131 132,-149 176,-149 176,-131 132,-131"/>
<polygon fill="none" stroke="black" points="132,-131 132,-149 176,-149 176,-131 132,-131"/>
<text text-anchor="start" x="157" y="-137.2" font-family="Helvetica,sans-Serif" font-size="11.00">1 &gt;</text>
</a>
</g>
</g>
<!-- m_interest_incentives&#45;&gt;m_interest_rate_slab -->
<g id="edge1" class="edge">
<title>m_interest_incentives:w&#45;&gt;m_interest_rate_slab:e</title>
<path fill="none" stroke="black" d="M211.49,-200C200.18,-200 192.99,-200 177,-200"/>
<polygon fill="black" stroke="black" points="218,-200 226,-203.6 222,-200 226,-200 226,-200 226,-200 222,-200 226,-196.4 218,-200 218,-200"/>
<ellipse fill="none" stroke="black" cx="214.8" cy="-200" rx="3.2" ry="3.2"/>
</g>
</g>
</svg>
