<?xml version="1.0" encoding="UTF-8" standalone="no"?>
<!DOCTYPE svg PUBLIC "-//W3C//DTD SVG 1.1//EN"
 "http://www.w3.org/Graphics/SVG/1.1/DTD/svg11.dtd">
<!-- Generated by graphviz version 2.43.0 (0)
 -->
<!-- Title: oneDegreeRelationshipsDiagram Pages: 1 -->
<svg width="727pt" height="362pt"
 viewBox="0.00 0.00 727.00 362.00" xmlns="http://www.w3.org/2000/svg" xmlns:xlink="http://www.w3.org/1999/xlink">
<g id="graph0" class="graph" transform="scale(1 1) rotate(0) translate(4 358)">
<title>oneDegreeRelationshipsDiagram</title>
<polygon fill="#ffffff" stroke="transparent" points="-4,4 -4,-358 723,-358 723,4 -4,4"/>
<text text-anchor="middle" x="71.5" y="-7.2" font-family="Helvetica,sans-Serif" font-size="11.00">Generated by SchemaSpy</text>
<!-- m_loan_reschedule_request_term_variations_mapping -->
<g id="node1" class="node">
<title>m_loan_reschedule_request_term_variations_mapping</title>
<g id="a_node1"><a xlink:href="../../tables/m_loan_reschedule_request_term_variations_mapping.html" xlink:title="m_loan_reschedule_request_term_variations_mapping" target="_top">
<polygon fill="#ffffff" stroke="transparent" points="273,-169 273,-279 711,-279 711,-169 273,-169"/>
<polygon fill="#f5f5f5" stroke="transparent" points="275,-255 275,-277 709,-277 709,-255 275,-255"/>
<polygon fill="none" stroke="black" points="275,-255 275,-277 709,-277 709,-255 275,-255"/>
<text text-anchor="start" x="280" y="-264.2" font-family="Helvetica,sans-Serif" font-weight="bold" font-size="11.00">m_loan_reschedule_request_term_variations_mapping</text>
<text text-anchor="start" x="674" y="-263.2" font-family="Helvetica,sans-Serif" font-size="11.00">[table]</text>
<polygon fill="none" stroke="black" points="275,-233 275,-255 659,-255 659,-233 275,-233"/>
<image xlink:href="../../images/primaryKeys.png" width="11px" height="12px" preserveAspectRatio="xMinYMin meet" x="280" y="-250"/>
<text text-anchor="start" x="295" y="-241.2" font-family="Helvetica,sans-Serif" font-size="11.00">id</text>
<polygon fill="none" stroke="black" points="659,-233 659,-255 709,-255 709,-233 659,-233"/>
<text text-anchor="start" x="662" y="-241.2" font-family="Helvetica,sans-Serif" font-size="11.00">bigint[19]</text>
<polygon fill="#ffffff" stroke="transparent" points="275,-211 275,-233 659,-233 659,-211 275,-211"/>
<polygon fill="none" stroke="black" points="275,-211 275,-233 659,-233 659,-211 275,-211"/>
<image xlink:href="../../images/foreignKeys.png" width="11px" height="12px" preserveAspectRatio="xMinYMin meet" x="280" y="-228"/>
<text text-anchor="start" x="295" y="-219.2" font-family="Helvetica,sans-Serif" font-size="11.00">loan_reschedule_request_id</text>
<polygon fill="none" stroke="black" points="659,-211 659,-233 709,-233 709,-211 659,-211"/>
<text text-anchor="start" x="662" y="-219.2" font-family="Helvetica,sans-Serif" font-size="11.00">bigint[19]</text>
<polygon fill="#ffffff" stroke="transparent" points="275,-189 275,-211 659,-211 659,-189 275,-189"/>
<polygon fill="none" stroke="black" points="275,-189 275,-211 659,-211 659,-189 275,-189"/>
<image xlink:href="../../images/foreignKeys.png" width="11px" height="12px" preserveAspectRatio="xMinYMin meet" x="280" y="-206"/>
<text text-anchor="start" x="295" y="-197.2" font-family="Helvetica,sans-Serif" font-size="11.00">loan_term_variations_id</text>
<polygon fill="none" stroke="black" points="659,-189 659,-211 709,-211 709,-189 659,-189"/>
<text text-anchor="start" x="662" y="-197.2" font-family="Helvetica,sans-Serif" font-size="11.00">bigint[19]</text>
<polygon fill="#ffffff" stroke="transparent" points="275,-171 275,-189 458,-189 458,-171 275,-171"/>
<polygon fill="none" stroke="black" points="275,-171 275,-189 458,-189 458,-171 275,-171"/>
<text text-anchor="start" x="278" y="-177.2" font-family="Helvetica,sans-Serif" font-size="11.00">&lt; 2</text>
<polygon fill="#ffffff" stroke="transparent" points="458,-171 458,-189 659,-189 659,-171 458,-171"/>
<polygon fill="none" stroke="black" points="458,-171 458,-189 659,-189 659,-171 458,-171"/>
<text text-anchor="start" x="623" y="-177.2" font-family="Helvetica,sans-Serif" font-size="11.00">0 rows</text>
<polygon fill="#ffffff" stroke="transparent" points="659,-171 659,-189 709,-189 709,-171 659,-171"/>
<polygon fill="none" stroke="black" points="659,-171 659,-189 709,-189 709,-171 659,-171"/>
<text text-anchor="start" x="690" y="-177.2" font-family="Helvetica,sans-Serif" font-size="11.00">0 &gt;</text>
<polygon fill="none" stroke="black" stroke-width="2" points="274,-170 274,-278 710,-278 710,-170 274,-170"/>
</a>
</g>
</g>
<!-- m_loan_reschedule_request -->
<g id="node2" class="node">
<title>m_loan_reschedule_request</title>
<g id="a_node2"><a xlink:href="../../tables/m_loan_reschedule_request.html" xlink:title="m_loan_reschedule_request" target="_top">
<polygon fill="#ffffff" stroke="transparent" points="8,-160 8,-350 224,-350 224,-160 8,-160"/>
<polygon fill="#f5f5f5" stroke="transparent" points="8,-328 8,-350 224,-350 224,-328 8,-328"/>
<polygon fill="none" stroke="black" points="8,-328 8,-350 224,-350 224,-328 8,-328"/>
<text text-anchor="start" x="13" y="-337.2" font-family="Helvetica,sans-Serif" font-weight="bold" font-size="11.00">m_loan_reschedule_request</text>
<text text-anchor="start" x="189" y="-336.2" font-family="Helvetica,sans-Serif" font-size="11.00">[table]</text>
<polygon fill="none" stroke="black" points="8,-306 8,-328 224,-328 224,-306 8,-306"/>
<image xlink:href="../../images/primaryKeys.png" width="11px" height="12px" preserveAspectRatio="xMinYMin meet" x="13" y="-323"/>
<text text-anchor="start" x="28" y="-314.2" font-family="Helvetica,sans-Serif" font-size="11.00">id</text>
<polygon fill="#ffffff" stroke="transparent" points="8,-284 8,-306 224,-306 224,-284 8,-284"/>
<polygon fill="none" stroke="black" points="8,-284 8,-306 224,-306 224,-284 8,-284"/>
<image xlink:href="../../images/foreignKeys.png" width="11px" height="12px" preserveAspectRatio="xMinYMin meet" x="13" y="-301"/>
<text text-anchor="start" x="28" y="-292.2" font-family="Helvetica,sans-Serif" font-size="11.00">loan_id</text>
<polygon fill="#ffffff" stroke="transparent" points="8,-262 8,-284 224,-284 224,-262 8,-262"/>
<polygon fill="none" stroke="black" points="8,-262 8,-284 224,-284 224,-262 8,-262"/>
<image xlink:href="../../images/foreignKeys.png" width="11px" height="12px" preserveAspectRatio="xMinYMin meet" x="13" y="-279"/>
<text text-anchor="start" x="28" y="-270.2" font-family="Helvetica,sans-Serif" font-size="11.00">reschedule_reason_cv_id</text>
<polygon fill="#ffffff" stroke="transparent" points="8,-240 8,-262 224,-262 224,-240 8,-240"/>
<polygon fill="none" stroke="black" points="8,-240 8,-262 224,-262 224,-240 8,-240"/>
<image xlink:href="../../images/foreignKeys.png" width="11px" height="12px" preserveAspectRatio="xMinYMin meet" x="13" y="-257"/>
<text text-anchor="start" x="28" y="-248.2" font-family="Helvetica,sans-Serif" font-size="11.00">submitted_by_user_id</text>
<polygon fill="#ffffff" stroke="transparent" points="8,-218 8,-240 224,-240 224,-218 8,-218"/>
<polygon fill="none" stroke="black" points="8,-218 8,-240 224,-240 224,-218 8,-218"/>
<image xlink:href="../../images/foreignKeys.png" width="11px" height="12px" preserveAspectRatio="xMinYMin meet" x="13" y="-235"/>
<text text-anchor="start" x="28" y="-226.2" font-family="Helvetica,sans-Serif" font-size="11.00">approved_by_user_id</text>
<polygon fill="#ffffff" stroke="transparent" points="8,-196 8,-218 224,-218 224,-196 8,-196"/>
<polygon fill="none" stroke="black" points="8,-196 8,-218 224,-218 224,-196 8,-196"/>
<image xlink:href="../../images/foreignKeys.png" width="11px" height="12px" preserveAspectRatio="xMinYMin meet" x="13" y="-213"/>
<text text-anchor="start" x="28" y="-204.2" font-family="Helvetica,sans-Serif" font-size="11.00">rejected_by_user_id</text>
<polygon fill="none" stroke="black" points="8,-178 8,-196 224,-196 224,-178 8,-178"/>
<text text-anchor="start" x="11" y="-184.2" font-family="Helvetica,sans-Serif" font-size="11.00">...</text>
<polygon fill="#ffffff" stroke="transparent" points="8,-160 8,-178 96,-178 96,-160 8,-160"/>
<polygon fill="none" stroke="black" points="8,-160 8,-178 96,-178 96,-160 8,-160"/>
<text text-anchor="start" x="11" y="-166.2" font-family="Helvetica,sans-Serif" font-size="11.00">&lt; 5</text>
<polygon fill="#ffffff" stroke="transparent" points="96,-160 96,-178 168,-178 168,-160 96,-160"/>
<polygon fill="none" stroke="black" points="96,-160 96,-178 168,-178 168,-160 96,-160"/>
<text text-anchor="start" x="132" y="-166.2" font-family="Helvetica,sans-Serif" font-size="11.00">0 rows</text>
<polygon fill="#ffffff" stroke="transparent" points="168,-160 168,-178 224,-178 224,-160 168,-160"/>
<polygon fill="none" stroke="black" points="168,-160 168,-178 224,-178 224,-160 168,-160"/>
<text text-anchor="start" x="205" y="-166.2" font-family="Helvetica,sans-Serif" font-size="11.00">2 &gt;</text>
</a>
</g>
</g>
<!-- m_loan_reschedule_request_term_variations_mapping&#45;&gt;m_loan_reschedule_request -->
<g id="edge1" class="edge">
<title>m_loan_reschedule_request_term_variations_mapping:w&#45;&gt;m_loan_reschedule_request:e</title>
<path fill="none" stroke="black" d="M259.89,-226.33C236.8,-244.91 266.38,-317 225,-317"/>
<polygon fill="black" stroke="black" points="266.35,-224.35 275.06,-225.44 270.18,-223.17 274,-222 274,-222 274,-222 270.18,-223.17 272.94,-218.56 266.35,-224.35 266.35,-224.35"/>
<ellipse fill="none" stroke="black" cx="263.29" cy="-225.28" rx="3.2" ry="3.2"/>
</g>
<!-- m_loan_term_variations -->
<g id="node3" class="node">
<title>m_loan_term_variations</title>
<g id="a_node3"><a xlink:href="../../tables/m_loan_term_variations.html" xlink:title="m_loan_term_variations" target="_top">
<polygon fill="#ffffff" stroke="transparent" points="20,-37 20,-139 212,-139 212,-37 20,-37"/>
<polygon fill="#f5f5f5" stroke="transparent" points="20,-117 20,-139 212,-139 212,-117 20,-117"/>
<polygon fill="none" stroke="black" points="20,-117 20,-139 212,-139 212,-117 20,-117"/>
<text text-anchor="start" x="25" y="-126.2" font-family="Helvetica,sans-Serif" font-weight="bold" font-size="11.00">m_loan_term_variations</text>
<text text-anchor="start" x="177" y="-125.2" font-family="Helvetica,sans-Serif" font-size="11.00">[table]</text>
<polygon fill="none" stroke="black" points="20,-95 20,-117 212,-117 212,-95 20,-95"/>
<image xlink:href="../../images/primaryKeys.png" width="11px" height="12px" preserveAspectRatio="xMinYMin meet" x="25" y="-112"/>
<text text-anchor="start" x="40" y="-103.2" font-family="Helvetica,sans-Serif" font-size="11.00">id</text>
<polygon fill="#ffffff" stroke="transparent" points="20,-73 20,-95 212,-95 212,-73 20,-73"/>
<polygon fill="none" stroke="black" points="20,-73 20,-95 212,-95 212,-73 20,-73"/>
<image xlink:href="../../images/foreignKeys.png" width="11px" height="12px" preserveAspectRatio="xMinYMin meet" x="25" y="-90"/>
<text text-anchor="start" x="40" y="-81.2" font-family="Helvetica,sans-Serif" font-size="11.00">loan_id</text>
<polygon fill="none" stroke="black" points="20,-55 20,-73 212,-73 212,-55 20,-55"/>
<text text-anchor="start" x="23" y="-61.2" font-family="Helvetica,sans-Serif" font-size="11.00">...</text>
<polygon fill="#ffffff" stroke="transparent" points="20,-37 20,-55 96,-55 96,-37 20,-37"/>
<polygon fill="none" stroke="black" points="20,-37 20,-55 96,-55 96,-37 20,-37"/>
<text text-anchor="start" x="23" y="-43.2" font-family="Helvetica,sans-Serif" font-size="11.00">&lt; 1</text>
<polygon fill="#ffffff" stroke="transparent" points="96,-37 96,-55 162,-55 162,-37 96,-37"/>
<polygon fill="none" stroke="black" points="96,-37 96,-55 162,-55 162,-37 96,-37"/>
<text text-anchor="start" x="126" y="-43.2" font-family="Helvetica,sans-Serif" font-size="11.00">0 rows</text>
<polygon fill="#ffffff" stroke="transparent" points="162,-37 162,-55 212,-55 212,-37 162,-37"/>
<polygon fill="none" stroke="black" points="162,-37 162,-55 212,-55 212,-37 162,-37"/>
<text text-anchor="start" x="193" y="-43.2" font-family="Helvetica,sans-Serif" font-size="11.00">1 &gt;</text>
</a>
</g>
</g>
<!-- m_loan_reschedule_request_term_variations_mapping&#45;&gt;m_loan_term_variations -->
<g id="edge2" class="edge">
<title>m_loan_reschedule_request_term_variations_mapping:w&#45;&gt;m_loan_term_variations:e</title>
<path fill="none" stroke="black" d="M259.85,-196.43C232.03,-179.26 256.97,-106 213,-106"/>
<polygon fill="black" stroke="black" points="266.24,-198.04 273.12,-203.49 270.12,-199.02 274,-200 274,-200 274,-200 270.12,-199.02 274.88,-196.51 266.24,-198.04 266.24,-198.04"/>
<ellipse fill="none" stroke="black" cx="263.14" cy="-197.26" rx="3.2" ry="3.2"/>
</g>
</g>
</svg>
