<?xml version="1.0" encoding="UTF-8" standalone="no"?>
<!DOCTYPE svg PUBLIC "-//W3C//DTD SVG 1.1//EN"
 "http://www.w3.org/Graphics/SVG/1.1/DTD/svg11.dtd">
<!-- Generated by graphviz version 2.43.0 (0)
 -->
<!-- Title: twoDegreesRelationshipsDiagram Pages: 1 -->
<svg width="830pt" height="914pt"
 viewBox="0.00 0.00 830.00 914.00" xmlns="http://www.w3.org/2000/svg" xmlns:xlink="http://www.w3.org/1999/xlink">
<g id="graph0" class="graph" transform="scale(1 1) rotate(0) translate(4 910)">
<title>twoDegreesRelationshipsDiagram</title>
<polygon fill="#ffffff" stroke="transparent" points="-4,4 -4,-910 826,-910 826,4 -4,4"/>
<text text-anchor="middle" x="71.5" y="-7.2" font-family="Helvetica,sans-Serif" font-size="11.00">Generated by SchemaSpy</text>
<!-- acc_gl_journal_entry -->
<g id="node1" class="node">
<title>acc_gl_journal_entry</title>
<g id="a_node1"><a xlink:href="../../tables/acc_gl_journal_entry.html" xlink:title="acc_gl_journal_entry" target="_top">
<polygon fill="#ffffff" stroke="transparent" points="579.5,-844 579.5,-902 733.5,-902 733.5,-844 579.5,-844"/>
<polygon fill="#f5f5f5" stroke="transparent" points="579.5,-880 579.5,-902 733.5,-902 733.5,-880 579.5,-880"/>
<polygon fill="none" stroke="black" points="579.5,-880 579.5,-902 733.5,-902 733.5,-880 579.5,-880"/>
<text text-anchor="start" x="584.5" y="-889.2" font-family="Helvetica,sans-Serif" font-weight="bold" font-size="11.00">acc_gl_journal_entry</text>
<text text-anchor="start" x="698.5" y="-888.2" font-family="Helvetica,sans-Serif" font-size="11.00">[table]</text>
<polygon fill="none" stroke="black" points="579.5,-862 579.5,-880 733.5,-880 733.5,-862 579.5,-862"/>
<text text-anchor="start" x="582.5" y="-868.2" font-family="Helvetica,sans-Serif" font-size="11.00">...</text>
<polygon fill="#ffffff" stroke="transparent" points="579.5,-844 579.5,-862 639.5,-862 639.5,-844 579.5,-844"/>
<polygon fill="none" stroke="black" points="579.5,-844 579.5,-862 639.5,-862 639.5,-844 579.5,-844"/>
<text text-anchor="start" x="582.5" y="-850.2" font-family="Helvetica,sans-Serif" font-size="11.00">&lt; 10</text>
<polygon fill="#ffffff" stroke="transparent" points="639.5,-844 639.5,-862 694.5,-862 694.5,-844 639.5,-844"/>
<polygon fill="none" stroke="black" points="639.5,-844 639.5,-862 694.5,-862 694.5,-844 639.5,-844"/>
<text text-anchor="start" x="658.5" y="-850.2" font-family="Helvetica,sans-Serif" font-size="11.00">0 rows</text>
<polygon fill="#ffffff" stroke="transparent" points="694.5,-844 694.5,-862 733.5,-862 733.5,-844 694.5,-844"/>
<polygon fill="none" stroke="black" points="694.5,-844 694.5,-862 733.5,-862 733.5,-844 694.5,-844"/>
<text text-anchor="start" x="714.5" y="-850.2" font-family="Helvetica,sans-Serif" font-size="11.00">1 &gt;</text>
</a>
</g>
</g>
<!-- m_loan_transaction -->
<g id="node2" class="node">
<title>m_loan_transaction</title>
<g id="a_node2"><a xlink:href="../../tables/m_loan_transaction.html" xlink:title="m_loan_transaction" target="_top">
<polygon fill="#ffffff" stroke="transparent" points="197,-578 197,-746 450,-746 450,-578 197,-578"/>
<polygon fill="#f5f5f5" stroke="transparent" points="197.5,-724 197.5,-746 450.5,-746 450.5,-724 197.5,-724"/>
<polygon fill="none" stroke="black" points="197.5,-724 197.5,-746 450.5,-746 450.5,-724 197.5,-724"/>
<text text-anchor="start" x="202.5" y="-733.2" font-family="Helvetica,sans-Serif" font-weight="bold" font-size="11.00">m_loan_transaction</text>
<text text-anchor="start" x="415.5" y="-732.2" font-family="Helvetica,sans-Serif" font-size="11.00">[table]</text>
<polygon fill="none" stroke="black" points="197.5,-702 197.5,-724 450.5,-724 450.5,-702 197.5,-702"/>
<image xlink:href="../../images/primaryKeys.png" width="11px" height="12px" preserveAspectRatio="xMinYMin meet" x="202.5" y="-719"/>
<text text-anchor="start" x="217.5" y="-710.2" font-family="Helvetica,sans-Serif" font-size="11.00">id</text>
<polygon fill="#ffffff" stroke="transparent" points="197.5,-680 197.5,-702 450.5,-702 450.5,-680 197.5,-680"/>
<polygon fill="none" stroke="black" points="197.5,-680 197.5,-702 450.5,-702 450.5,-680 197.5,-680"/>
<image xlink:href="../../images/foreignKeys.png" width="11px" height="12px" preserveAspectRatio="xMinYMin meet" x="202.5" y="-697"/>
<text text-anchor="start" x="217.5" y="-688.2" font-family="Helvetica,sans-Serif" font-size="11.00">loan_id</text>
<polygon fill="#ffffff" stroke="transparent" points="197.5,-658 197.5,-680 450.5,-680 450.5,-658 197.5,-658"/>
<polygon fill="none" stroke="black" points="197.5,-658 197.5,-680 450.5,-680 450.5,-658 197.5,-658"/>
<image xlink:href="../../images/foreignKeys.png" width="11px" height="12px" preserveAspectRatio="xMinYMin meet" x="202.5" y="-675"/>
<text text-anchor="start" x="217.5" y="-666.2" font-family="Helvetica,sans-Serif" font-size="11.00">office_id</text>
<polygon fill="#ffffff" stroke="transparent" points="197.5,-636 197.5,-658 450.5,-658 450.5,-636 197.5,-636"/>
<polygon fill="none" stroke="black" points="197.5,-636 197.5,-658 450.5,-658 450.5,-636 197.5,-636"/>
<image xlink:href="../../images/foreignKeys.png" width="11px" height="12px" preserveAspectRatio="xMinYMin meet" x="202.5" y="-653"/>
<text text-anchor="start" x="217.5" y="-644.2" font-family="Helvetica,sans-Serif" font-size="11.00">payment_detail_id</text>
<polygon fill="#ffffff" stroke="transparent" points="197.5,-614 197.5,-636 450.5,-636 450.5,-614 197.5,-614"/>
<polygon fill="none" stroke="black" points="197.5,-614 197.5,-636 450.5,-636 450.5,-614 197.5,-614"/>
<text text-anchor="start" x="217.5" y="-622.2" font-family="Helvetica,sans-Serif" font-size="11.00">external_id</text>
<polygon fill="none" stroke="black" points="197.5,-596 197.5,-614 450.5,-614 450.5,-596 197.5,-596"/>
<text text-anchor="start" x="200.5" y="-602.2" font-family="Helvetica,sans-Serif" font-size="11.00">...</text>
<polygon fill="#ffffff" stroke="transparent" points="197.5,-578 197.5,-596 304.5,-596 304.5,-578 197.5,-578"/>
<polygon fill="none" stroke="black" points="197.5,-578 197.5,-596 304.5,-596 304.5,-578 197.5,-578"/>
<text text-anchor="start" x="200.5" y="-584.2" font-family="Helvetica,sans-Serif" font-size="11.00">&lt; 3</text>
<polygon fill="#ffffff" stroke="transparent" points="304.5,-578 304.5,-596 385.5,-596 385.5,-578 304.5,-578"/>
<polygon fill="none" stroke="black" points="304.5,-578 304.5,-596 385.5,-596 385.5,-578 304.5,-578"/>
<text text-anchor="start" x="349.5" y="-584.2" font-family="Helvetica,sans-Serif" font-size="11.00">0 rows</text>
<polygon fill="#ffffff" stroke="transparent" points="385.5,-578 385.5,-596 450.5,-596 450.5,-578 385.5,-578"/>
<polygon fill="none" stroke="black" points="385.5,-578 385.5,-596 450.5,-596 450.5,-578 385.5,-578"/>
<text text-anchor="start" x="431.5" y="-584.2" font-family="Helvetica,sans-Serif" font-size="11.00">8 &gt;</text>
</a>
</g>
</g>
<!-- acc_gl_journal_entry&#45;&gt;m_loan_transaction -->
<g id="edge1" class="edge">
<title>acc_gl_journal_entry:w&#45;&gt;m_loan_transaction:e</title>
<path fill="none" stroke="black" d="M563.79,-870.69C531.91,-869.13 516,-861.2 491,-834 452.72,-792.34 508.07,-713 451.5,-713"/>
<polygon fill="black" stroke="black" points="570.5,-870.83 578.42,-874.6 574.5,-870.91 578.5,-871 578.5,-871 578.5,-871 574.5,-870.91 578.58,-867.4 570.5,-870.83 570.5,-870.83"/>
<ellipse fill="none" stroke="black" cx="567.3" cy="-870.76" rx="3.2" ry="3.2"/>
</g>
<!-- m_office -->
<g id="node3" class="node">
<title>m_office</title>
<g id="a_node3"><a xlink:href="../../tables/m_office.html" xlink:title="m_office" target="_top">
<polygon fill="#ffffff" stroke="transparent" points="33,-793 33,-851 123,-851 123,-793 33,-793"/>
<polygon fill="#f5f5f5" stroke="transparent" points="33,-829 33,-851 123,-851 123,-829 33,-829"/>
<polygon fill="none" stroke="black" points="33,-829 33,-851 123,-851 123,-829 33,-829"/>
<text text-anchor="start" x="38" y="-838.2" font-family="Helvetica,sans-Serif" font-weight="bold" font-size="11.00">m_office</text>
<text text-anchor="start" x="88" y="-837.2" font-family="Helvetica,sans-Serif" font-size="11.00">[table]</text>
<polygon fill="none" stroke="black" points="33,-811 33,-829 123,-829 123,-811 33,-811"/>
<text text-anchor="start" x="36" y="-817.2" font-family="Helvetica,sans-Serif" font-size="11.00">...</text>
<polygon fill="#ffffff" stroke="transparent" points="33,-793 33,-811 55,-811 55,-793 33,-793"/>
<polygon fill="none" stroke="black" points="33,-793 33,-811 55,-811 55,-793 33,-793"/>
<text text-anchor="start" x="36" y="-799.2" font-family="Helvetica,sans-Serif" font-size="11.00">&lt; 1</text>
<polygon fill="#ffffff" stroke="transparent" points="55,-793 55,-811 94,-811 94,-793 55,-793"/>
<polygon fill="none" stroke="black" points="55,-793 55,-811 94,-811 94,-793 55,-793"/>
<text text-anchor="start" x="58" y="-799.2" font-family="Helvetica,sans-Serif" font-size="11.00">0 rows</text>
<polygon fill="#ffffff" stroke="transparent" points="94,-793 94,-811 123,-811 123,-793 94,-793"/>
<polygon fill="none" stroke="black" points="94,-793 94,-811 123,-811 123,-793 94,-793"/>
<text text-anchor="start" x="98" y="-799.2" font-family="Helvetica,sans-Serif" font-size="11.00">20 &gt;</text>
</a>
</g>
</g>
<!-- acc_gl_journal_entry&#45;&gt;m_office -->
<g id="edge2" class="edge">
<title>acc_gl_journal_entry:w&#45;&gt;m_office:e</title>
<path fill="none" stroke="black" d="M563.89,-870.91C372.8,-868.54 322.31,-820 124,-820"/>
<polygon fill="black" stroke="black" points="570.5,-870.95 578.48,-874.6 574.5,-870.98 578.5,-871 578.5,-871 578.5,-871 574.5,-870.98 578.52,-867.4 570.5,-870.95 570.5,-870.95"/>
<ellipse fill="none" stroke="black" cx="567.3" cy="-870.93" rx="3.2" ry="3.2"/>
</g>
<!-- m_payment_detail -->
<g id="node4" class="node">
<title>m_payment_detail</title>
<g id="a_node4"><a xlink:href="../../tables/m_payment_detail.html" xlink:title="m_payment_detail" target="_top">
<polygon fill="#ffffff" stroke="transparent" points="8,-683 8,-741 148,-741 148,-683 8,-683"/>
<polygon fill="#f5f5f5" stroke="transparent" points="8,-719 8,-741 148,-741 148,-719 8,-719"/>
<polygon fill="none" stroke="black" points="8,-719 8,-741 148,-741 148,-719 8,-719"/>
<text text-anchor="start" x="13" y="-728.2" font-family="Helvetica,sans-Serif" font-weight="bold" font-size="11.00">m_payment_detail</text>
<text text-anchor="start" x="113" y="-727.2" font-family="Helvetica,sans-Serif" font-size="11.00">[table]</text>
<polygon fill="none" stroke="black" points="8,-701 8,-719 148,-719 148,-701 8,-701"/>
<text text-anchor="start" x="11" y="-707.2" font-family="Helvetica,sans-Serif" font-size="11.00">...</text>
<polygon fill="#ffffff" stroke="transparent" points="8,-683 8,-701 58,-701 58,-683 8,-683"/>
<polygon fill="none" stroke="black" points="8,-683 8,-701 58,-701 58,-683 8,-683"/>
<text text-anchor="start" x="11" y="-689.2" font-family="Helvetica,sans-Serif" font-size="11.00">&lt; 1</text>
<polygon fill="#ffffff" stroke="transparent" points="58,-683 58,-701 111,-701 111,-683 58,-683"/>
<polygon fill="none" stroke="black" points="58,-683 58,-701 111,-701 111,-683 58,-683"/>
<text text-anchor="start" x="75" y="-689.2" font-family="Helvetica,sans-Serif" font-size="11.00">0 rows</text>
<polygon fill="#ffffff" stroke="transparent" points="111,-683 111,-701 148,-701 148,-683 111,-683"/>
<polygon fill="none" stroke="black" points="111,-683 111,-701 148,-701 148,-683 111,-683"/>
<text text-anchor="start" x="129" y="-689.2" font-family="Helvetica,sans-Serif" font-size="11.00">3 &gt;</text>
</a>
</g>
</g>
<!-- acc_gl_journal_entry&#45;&gt;m_payment_detail -->
<g id="edge3" class="edge">
<title>acc_gl_journal_entry:w&#45;&gt;m_payment_detail:e</title>
<path fill="none" stroke="black" d="M563.95,-870.23C518.54,-865.14 508.28,-836.03 458,-819 341.79,-779.64 293.85,-820.72 189,-757 165.56,-742.75 176.43,-710 149,-710"/>
<polygon fill="black" stroke="black" points="570.51,-870.58 578.31,-874.59 574.51,-870.79 578.5,-871 578.5,-871 578.5,-871 574.51,-870.79 578.69,-867.41 570.51,-870.58 570.51,-870.58"/>
<ellipse fill="none" stroke="black" cx="567.32" cy="-870.41" rx="3.2" ry="3.2"/>
</g>
<!-- m_loan_transaction&#45;&gt;m_office -->
<g id="edge17" class="edge">
<title>m_loan_transaction:w&#45;&gt;m_office:e</title>
<path fill="none" stroke="black" d="M182.29,-671.37C132.56,-690.58 192.92,-820 124,-820"/>
<polygon fill="black" stroke="black" points="188.61,-670.32 197.09,-672.55 192.55,-669.66 196.5,-669 196.5,-669 196.5,-669 192.55,-669.66 195.91,-665.45 188.61,-670.32 188.61,-670.32"/>
<ellipse fill="none" stroke="black" cx="185.45" cy="-670.84" rx="3.2" ry="3.2"/>
</g>
<!-- m_loan_transaction&#45;&gt;m_payment_detail -->
<g id="edge18" class="edge">
<title>m_loan_transaction:w&#45;&gt;m_payment_detail:e</title>
<path fill="none" stroke="black" d="M182.95,-651.94C167.51,-666.8 178.04,-710 149,-710"/>
<polygon fill="black" stroke="black" points="188.98,-649.74 197.73,-650.38 192.74,-648.37 196.5,-647 196.5,-647 196.5,-647 192.74,-648.37 195.27,-643.62 188.98,-649.74 188.98,-649.74"/>
<ellipse fill="none" stroke="black" cx="185.98" cy="-650.84" rx="3.2" ry="3.2"/>
</g>
<!-- m_loan -->
<g id="node9" class="node">
<title>m_loan</title>
<g id="a_node9"><a xlink:href="../../tables/m_loan.html" xlink:title="m_loan" target="_top">
<polygon fill="#ffffff" stroke="transparent" points="30.5,-488 30.5,-546 125.5,-546 125.5,-488 30.5,-488"/>
<polygon fill="#f5f5f5" stroke="transparent" points="31,-524 31,-546 126,-546 126,-524 31,-524"/>
<polygon fill="none" stroke="black" points="31,-524 31,-546 126,-546 126,-524 31,-524"/>
<text text-anchor="start" x="36" y="-533.2" font-family="Helvetica,sans-Serif" font-weight="bold" font-size="11.00">m_loan</text>
<text text-anchor="start" x="91" y="-532.2" font-family="Helvetica,sans-Serif" font-size="11.00">[table]</text>
<polygon fill="none" stroke="black" points="31,-506 31,-524 126,-524 126,-506 31,-506"/>
<text text-anchor="start" x="34" y="-512.2" font-family="Helvetica,sans-Serif" font-size="11.00">...</text>
<polygon fill="#ffffff" stroke="transparent" points="31,-488 31,-506 59,-506 59,-488 31,-488"/>
<polygon fill="none" stroke="black" points="31,-488 31,-506 59,-506 59,-488 31,-488"/>
<text text-anchor="start" x="34" y="-494.2" font-family="Helvetica,sans-Serif" font-size="11.00">&lt; 15</text>
<polygon fill="#ffffff" stroke="transparent" points="59,-488 59,-506 98,-506 98,-488 59,-488"/>
<polygon fill="none" stroke="black" points="59,-488 59,-506 98,-506 98,-488 59,-488"/>
<text text-anchor="start" x="62" y="-494.2" font-family="Helvetica,sans-Serif" font-size="11.00">0 rows</text>
<polygon fill="#ffffff" stroke="transparent" points="98,-488 98,-506 126,-506 126,-488 98,-488"/>
<polygon fill="none" stroke="black" points="98,-488 98,-506 126,-506 126,-488 98,-488"/>
<text text-anchor="start" x="101" y="-494.2" font-family="Helvetica,sans-Serif" font-size="11.00">24 &gt;</text>
</a>
</g>
</g>
<!-- m_loan_transaction&#45;&gt;m_loan -->
<g id="edge16" class="edge">
<title>m_loan_transaction:w&#45;&gt;m_loan:e</title>
<path fill="none" stroke="black" d="M182.06,-688.77C124.7,-668.4 205.52,-515 127,-515"/>
<polygon fill="black" stroke="black" points="188.59,-689.78 195.95,-694.56 192.55,-690.39 196.5,-691 196.5,-691 196.5,-691 192.55,-690.39 197.05,-687.44 188.59,-689.78 188.59,-689.78"/>
<ellipse fill="none" stroke="black" cx="185.43" cy="-689.29" rx="3.2" ry="3.2"/>
</g>
<!-- m_account_transfer_transaction -->
<g id="node5" class="node">
<title>m_account_transfer_transaction</title>
<g id="a_node5"><a xlink:href="../../tables/m_account_transfer_transaction.html" xlink:title="m_account_transfer_transaction" target="_top">
<polygon fill="#ffffff" stroke="transparent" points="549,-765 549,-823 764,-823 764,-765 549,-765"/>
<polygon fill="#f5f5f5" stroke="transparent" points="549.5,-801 549.5,-823 764.5,-823 764.5,-801 549.5,-801"/>
<polygon fill="none" stroke="black" points="549.5,-801 549.5,-823 764.5,-823 764.5,-801 549.5,-801"/>
<text text-anchor="start" x="554.5" y="-810.2" font-family="Helvetica,sans-Serif" font-weight="bold" font-size="11.00">m_account_transfer_transaction</text>
<text text-anchor="start" x="729.5" y="-809.2" font-family="Helvetica,sans-Serif" font-size="11.00">[table]</text>
<polygon fill="none" stroke="black" points="549.5,-783 549.5,-801 764.5,-801 764.5,-783 549.5,-783"/>
<text text-anchor="start" x="552.5" y="-789.2" font-family="Helvetica,sans-Serif" font-size="11.00">...</text>
<polygon fill="#ffffff" stroke="transparent" points="549.5,-765 549.5,-783 641.5,-783 641.5,-765 549.5,-765"/>
<polygon fill="none" stroke="black" points="549.5,-765 549.5,-783 641.5,-783 641.5,-765 549.5,-765"/>
<text text-anchor="start" x="552.5" y="-771.2" font-family="Helvetica,sans-Serif" font-size="11.00">&lt; 5</text>
<polygon fill="#ffffff" stroke="transparent" points="641.5,-765 641.5,-783 715.5,-783 715.5,-765 641.5,-765"/>
<polygon fill="none" stroke="black" points="641.5,-765 641.5,-783 715.5,-783 715.5,-765 641.5,-765"/>
<text text-anchor="start" x="679.5" y="-771.2" font-family="Helvetica,sans-Serif" font-size="11.00">0 rows</text>
<polygon fill="#ffffff" stroke="transparent" points="715.5,-765 715.5,-783 764.5,-783 764.5,-765 715.5,-765"/>
<polygon fill="none" stroke="black" points="715.5,-765 715.5,-783 764.5,-783 764.5,-765 715.5,-765"/>
<text text-anchor="start" x="754.5" y="-771.2" font-family="Helvetica,sans-Serif" font-size="11.00"> &#160;</text>
</a>
</g>
</g>
<!-- m_account_transfer_transaction&#45;&gt;m_loan_transaction -->
<g id="edge4" class="edge">
<title>m_account_transfer_transaction:w&#45;&gt;m_loan_transaction:e</title>
<path fill="none" stroke="black" d="M534.69,-787.82C516.19,-779.77 510.26,-765.02 491,-749 471.3,-732.61 477.13,-707 451.5,-713"/>
<polygon fill="black" stroke="black" points="540.84,-789.68 547.46,-795.45 544.67,-790.84 548.5,-792 548.5,-792 548.5,-792 544.67,-790.84 549.54,-788.55 540.84,-789.68 540.84,-789.68"/>
<ellipse fill="none" stroke="black" cx="537.78" cy="-788.75" rx="3.2" ry="3.2"/>
</g>
<!-- m_account_transfer_transaction&#45;&gt;m_loan_transaction -->
<g id="edge5" class="edge">
<title>m_account_transfer_transaction:w&#45;&gt;m_loan_transaction:e</title>
<path fill="none" stroke="black" d="M534.17,-793.51C516.07,-792.49 510.07,-777.87 491,-762 471.3,-745.61 477.13,-720 451.5,-713"/>
<polygon fill="black" stroke="black" points="540.54,-792.84 548.88,-795.58 544.52,-792.42 548.5,-792 548.5,-792 548.5,-792 544.52,-792.42 548.12,-788.42 540.54,-792.84 540.54,-792.84"/>
<ellipse fill="none" stroke="black" cx="537.36" cy="-793.18" rx="3.2" ry="3.2"/>
</g>
<!-- m_guarantor_transaction -->
<g id="node6" class="node">
<title>m_guarantor_transaction</title>
<g id="a_node6"><a xlink:href="../../tables/m_guarantor_transaction.html" xlink:title="m_guarantor_transaction" target="_top">
<polygon fill="#ffffff" stroke="transparent" points="568,-686 568,-744 745,-744 745,-686 568,-686"/>
<polygon fill="#f5f5f5" stroke="transparent" points="568.5,-722 568.5,-744 745.5,-744 745.5,-722 568.5,-722"/>
<polygon fill="none" stroke="black" points="568.5,-722 568.5,-744 745.5,-744 745.5,-722 568.5,-722"/>
<text text-anchor="start" x="573.5" y="-731.2" font-family="Helvetica,sans-Serif" font-weight="bold" font-size="11.00">m_guarantor_transaction</text>
<text text-anchor="start" x="710.5" y="-730.2" font-family="Helvetica,sans-Serif" font-size="11.00">[table]</text>
<polygon fill="none" stroke="black" points="568.5,-704 568.5,-722 745.5,-722 745.5,-704 568.5,-704"/>
<text text-anchor="start" x="571.5" y="-710.2" font-family="Helvetica,sans-Serif" font-size="11.00">...</text>
<polygon fill="#ffffff" stroke="transparent" points="568.5,-686 568.5,-704 641.5,-704 641.5,-686 568.5,-686"/>
<polygon fill="none" stroke="black" points="568.5,-686 568.5,-704 641.5,-704 641.5,-686 568.5,-686"/>
<text text-anchor="start" x="571.5" y="-692.2" font-family="Helvetica,sans-Serif" font-size="11.00">&lt; 3</text>
<polygon fill="#ffffff" stroke="transparent" points="641.5,-686 641.5,-704 706.5,-704 706.5,-686 641.5,-686"/>
<polygon fill="none" stroke="black" points="641.5,-686 641.5,-704 706.5,-704 706.5,-686 641.5,-686"/>
<text text-anchor="start" x="670.5" y="-692.2" font-family="Helvetica,sans-Serif" font-size="11.00">0 rows</text>
<polygon fill="#ffffff" stroke="transparent" points="706.5,-686 706.5,-704 745.5,-704 745.5,-686 706.5,-686"/>
<polygon fill="none" stroke="black" points="706.5,-686 706.5,-704 745.5,-704 745.5,-686 706.5,-686"/>
<text text-anchor="start" x="735.5" y="-692.2" font-family="Helvetica,sans-Serif" font-size="11.00"> &#160;</text>
</a>
</g>
</g>
<!-- m_guarantor_transaction&#45;&gt;m_loan_transaction -->
<g id="edge6" class="edge">
<title>m_guarantor_transaction:w&#45;&gt;m_loan_transaction:e</title>
<path fill="none" stroke="black" d="M552.91,-713C512.93,-713 497.82,-713 451.5,-713"/>
<polygon fill="black" stroke="black" points="559.5,-713 567.5,-716.6 563.5,-713 567.5,-713 567.5,-713 567.5,-713 563.5,-713 567.5,-709.4 559.5,-713 559.5,-713"/>
<ellipse fill="none" stroke="black" cx="556.3" cy="-713" rx="3.2" ry="3.2"/>
</g>
<!-- m_loan_charge -->
<g id="node7" class="node">
<title>m_loan_charge</title>
<g id="a_node7"><a xlink:href="../../tables/m_loan_charge.html" xlink:title="m_loan_charge" target="_top">
<polygon fill="#ffffff" stroke="transparent" points="209.5,-109 209.5,-255 437.5,-255 437.5,-109 209.5,-109"/>
<polygon fill="#f5f5f5" stroke="transparent" points="209.5,-233 209.5,-255 437.5,-255 437.5,-233 209.5,-233"/>
<polygon fill="none" stroke="black" points="209.5,-233 209.5,-255 437.5,-255 437.5,-233 209.5,-233"/>
<text text-anchor="start" x="214.5" y="-242.2" font-family="Helvetica,sans-Serif" font-weight="bold" font-size="11.00">m_loan_charge</text>
<text text-anchor="start" x="402.5" y="-241.2" font-family="Helvetica,sans-Serif" font-size="11.00">[table]</text>
<polygon fill="none" stroke="black" points="209.5,-211 209.5,-233 437.5,-233 437.5,-211 209.5,-211"/>
<image xlink:href="../../images/primaryKeys.png" width="11px" height="12px" preserveAspectRatio="xMinYMin meet" x="214.5" y="-228"/>
<text text-anchor="start" x="229.5" y="-219.2" font-family="Helvetica,sans-Serif" font-size="11.00">id</text>
<polygon fill="#ffffff" stroke="transparent" points="209.5,-189 209.5,-211 437.5,-211 437.5,-189 209.5,-189"/>
<polygon fill="none" stroke="black" points="209.5,-189 209.5,-211 437.5,-211 437.5,-189 209.5,-189"/>
<image xlink:href="../../images/foreignKeys.png" width="11px" height="12px" preserveAspectRatio="xMinYMin meet" x="214.5" y="-206"/>
<text text-anchor="start" x="229.5" y="-197.2" font-family="Helvetica,sans-Serif" font-size="11.00">loan_id</text>
<polygon fill="#ffffff" stroke="transparent" points="209.5,-167 209.5,-189 437.5,-189 437.5,-167 209.5,-167"/>
<polygon fill="none" stroke="black" points="209.5,-167 209.5,-189 437.5,-189 437.5,-167 209.5,-167"/>
<image xlink:href="../../images/foreignKeys.png" width="11px" height="12px" preserveAspectRatio="xMinYMin meet" x="214.5" y="-184"/>
<text text-anchor="start" x="229.5" y="-175.2" font-family="Helvetica,sans-Serif" font-size="11.00">charge_id</text>
<polygon fill="#ffffff" stroke="transparent" points="209.5,-145 209.5,-167 437.5,-167 437.5,-145 209.5,-145"/>
<polygon fill="none" stroke="black" points="209.5,-145 209.5,-167 437.5,-167 437.5,-145 209.5,-145"/>
<text text-anchor="start" x="229.5" y="-153.2" font-family="Helvetica,sans-Serif" font-size="11.00">external_id</text>
<polygon fill="none" stroke="black" points="209.5,-127 209.5,-145 437.5,-145 437.5,-127 209.5,-127"/>
<text text-anchor="start" x="212.5" y="-133.2" font-family="Helvetica,sans-Serif" font-size="11.00">...</text>
<polygon fill="#ffffff" stroke="transparent" points="209.5,-109 209.5,-127 303.5,-127 303.5,-109 209.5,-109"/>
<polygon fill="none" stroke="black" points="209.5,-109 209.5,-127 303.5,-127 303.5,-109 209.5,-109"/>
<text text-anchor="start" x="212.5" y="-115.2" font-family="Helvetica,sans-Serif" font-size="11.00">&lt; 2</text>
<polygon fill="#ffffff" stroke="transparent" points="303.5,-109 303.5,-127 378.5,-127 378.5,-109 303.5,-109"/>
<polygon fill="none" stroke="black" points="303.5,-109 303.5,-127 378.5,-127 378.5,-109 303.5,-109"/>
<text text-anchor="start" x="342.5" y="-115.2" font-family="Helvetica,sans-Serif" font-size="11.00">0 rows</text>
<polygon fill="#ffffff" stroke="transparent" points="378.5,-109 378.5,-127 437.5,-127 437.5,-109 378.5,-109"/>
<polygon fill="none" stroke="black" points="378.5,-109 378.5,-127 437.5,-127 437.5,-109 378.5,-109"/>
<text text-anchor="start" x="418.5" y="-115.2" font-family="Helvetica,sans-Serif" font-size="11.00">4 &gt;</text>
</a>
</g>
</g>
<!-- m_charge -->
<g id="node8" class="node">
<title>m_charge</title>
<g id="a_node8"><a xlink:href="../../tables/m_charge.html" xlink:title="m_charge" target="_top">
<polygon fill="#ffffff" stroke="transparent" points="30,-151 30,-209 126,-209 126,-151 30,-151"/>
<polygon fill="#f5f5f5" stroke="transparent" points="30,-187 30,-209 126,-209 126,-187 30,-187"/>
<polygon fill="none" stroke="black" points="30,-187 30,-209 126,-209 126,-187 30,-187"/>
<text text-anchor="start" x="35" y="-196.2" font-family="Helvetica,sans-Serif" font-weight="bold" font-size="11.00">m_charge</text>
<text text-anchor="start" x="91" y="-195.2" font-family="Helvetica,sans-Serif" font-size="11.00">[table]</text>
<polygon fill="none" stroke="black" points="30,-169 30,-187 126,-187 126,-169 30,-169"/>
<text text-anchor="start" x="33" y="-175.2" font-family="Helvetica,sans-Serif" font-size="11.00">...</text>
<polygon fill="#ffffff" stroke="transparent" points="30,-151 30,-169 58,-169 58,-151 30,-151"/>
<polygon fill="none" stroke="black" points="30,-151 30,-169 58,-169 58,-151 30,-151"/>
<text text-anchor="start" x="33" y="-157.2" font-family="Helvetica,sans-Serif" font-size="11.00">&lt; 3</text>
<polygon fill="#ffffff" stroke="transparent" points="58,-151 58,-169 100,-169 100,-151 58,-151"/>
<polygon fill="none" stroke="black" points="58,-151 58,-169 100,-169 100,-151 58,-151"/>
<text text-anchor="start" x="64" y="-157.2" font-family="Helvetica,sans-Serif" font-size="11.00">0 rows</text>
<polygon fill="#ffffff" stroke="transparent" points="100,-151 100,-169 126,-169 126,-151 100,-151"/>
<polygon fill="none" stroke="black" points="100,-151 100,-169 126,-169 126,-151 100,-151"/>
<text text-anchor="start" x="107" y="-157.2" font-family="Helvetica,sans-Serif" font-size="11.00">9 &gt;</text>
</a>
</g>
</g>
<!-- m_loan_charge&#45;&gt;m_charge -->
<g id="edge7" class="edge">
<title>m_loan_charge:w&#45;&gt;m_charge:e</title>
<path fill="none" stroke="black" d="M193.99,-178C168.99,-178 157.85,-178 127,-178"/>
<polygon fill="black" stroke="black" points="200.5,-178 208.5,-181.6 204.5,-178 208.5,-178 208.5,-178 208.5,-178 204.5,-178 208.5,-174.4 200.5,-178 200.5,-178"/>
<ellipse fill="none" stroke="black" cx="197.3" cy="-178" rx="3.2" ry="3.2"/>
</g>
<!-- m_loan_charge&#45;&gt;m_loan -->
<g id="edge8" class="edge">
<title>m_loan_charge:w&#45;&gt;m_loan:e</title>
<path fill="none" stroke="black" d="M193.82,-201.27C78.82,-222.95 266.24,-515 127,-515"/>
<polygon fill="black" stroke="black" points="200.53,-200.69 208.81,-203.59 204.51,-200.34 208.5,-200 208.5,-200 208.5,-200 204.51,-200.34 208.19,-196.41 200.53,-200.69 200.53,-200.69"/>
<ellipse fill="none" stroke="black" cx="197.34" cy="-200.96" rx="3.2" ry="3.2"/>
</g>
<!-- m_loan_charge_paid_by -->
<g id="node10" class="node">
<title>m_loan_charge_paid_by</title>
<g id="a_node10"><a xlink:href="../../tables/m_loan_charge_paid_by.html" xlink:title="m_loan_charge_paid_by" target="_top">
<polygon fill="#ffffff" stroke="transparent" points="530.5,-274 530.5,-428 782.5,-428 782.5,-274 530.5,-274"/>
<polygon fill="#f5f5f5" stroke="transparent" points="532.5,-404 532.5,-426 780.5,-426 780.5,-404 532.5,-404"/>
<polygon fill="none" stroke="black" points="532.5,-404 532.5,-426 780.5,-426 780.5,-404 532.5,-404"/>
<text text-anchor="start" x="537.5" y="-413.2" font-family="Helvetica,sans-Serif" font-weight="bold" font-size="11.00">m_loan_charge_paid_by</text>
<text text-anchor="start" x="745.5" y="-412.2" font-family="Helvetica,sans-Serif" font-size="11.00">[table]</text>
<polygon fill="none" stroke="black" points="532.5,-382 532.5,-404 710.5,-404 710.5,-382 532.5,-382"/>
<image xlink:href="../../images/primaryKeys.png" width="11px" height="12px" preserveAspectRatio="xMinYMin meet" x="537.5" y="-399"/>
<text text-anchor="start" x="552.5" y="-390.2" font-family="Helvetica,sans-Serif" font-size="11.00">id</text>
<polygon fill="none" stroke="black" points="710.5,-382 710.5,-404 780.5,-404 780.5,-382 710.5,-382"/>
<text text-anchor="start" x="713.5" y="-390.2" font-family="Helvetica,sans-Serif" font-size="11.00">bigint[19]</text>
<polygon fill="#ffffff" stroke="transparent" points="532.5,-360 532.5,-382 710.5,-382 710.5,-360 532.5,-360"/>
<polygon fill="none" stroke="black" points="532.5,-360 532.5,-382 710.5,-382 710.5,-360 532.5,-360"/>
<image xlink:href="../../images/foreignKeys.png" width="11px" height="12px" preserveAspectRatio="xMinYMin meet" x="537.5" y="-377"/>
<text text-anchor="start" x="552.5" y="-368.2" font-family="Helvetica,sans-Serif" font-size="11.00">loan_transaction_id</text>
<polygon fill="none" stroke="black" points="710.5,-360 710.5,-382 780.5,-382 780.5,-360 710.5,-360"/>
<text text-anchor="start" x="713.5" y="-368.2" font-family="Helvetica,sans-Serif" font-size="11.00">bigint[19]</text>
<polygon fill="#ffffff" stroke="transparent" points="532.5,-338 532.5,-360 710.5,-360 710.5,-338 532.5,-338"/>
<polygon fill="none" stroke="black" points="532.5,-338 532.5,-360 710.5,-360 710.5,-338 532.5,-338"/>
<image xlink:href="../../images/foreignKeys.png" width="11px" height="12px" preserveAspectRatio="xMinYMin meet" x="537.5" y="-355"/>
<text text-anchor="start" x="552.5" y="-346.2" font-family="Helvetica,sans-Serif" font-size="11.00">loan_charge_id</text>
<polygon fill="none" stroke="black" points="710.5,-338 710.5,-360 780.5,-360 780.5,-338 710.5,-338"/>
<text text-anchor="start" x="713.5" y="-346.2" font-family="Helvetica,sans-Serif" font-size="11.00">bigint[19]</text>
<polygon fill="none" stroke="black" points="532.5,-316 532.5,-338 710.5,-338 710.5,-316 532.5,-316"/>
<text text-anchor="start" x="552.5" y="-324.2" font-family="Helvetica,sans-Serif" font-size="11.00">amount</text>
<polygon fill="none" stroke="black" points="710.5,-316 710.5,-338 780.5,-338 780.5,-316 710.5,-316"/>
<text text-anchor="start" x="713.5" y="-324.2" font-family="Helvetica,sans-Serif" font-size="11.00">decimal[19,6]</text>
<polygon fill="none" stroke="black" points="532.5,-294 532.5,-316 710.5,-316 710.5,-294 532.5,-294"/>
<text text-anchor="start" x="552.5" y="-302.2" font-family="Helvetica,sans-Serif" font-size="11.00">installment_number</text>
<polygon fill="none" stroke="black" points="710.5,-294 710.5,-316 780.5,-316 780.5,-294 710.5,-294"/>
<text text-anchor="start" x="713.5" y="-302.2" font-family="Helvetica,sans-Serif" font-size="11.00">smallint[5]</text>
<polygon fill="#ffffff" stroke="transparent" points="532.5,-276 532.5,-294 612.5,-294 612.5,-276 532.5,-276"/>
<polygon fill="none" stroke="black" points="532.5,-276 532.5,-294 612.5,-294 612.5,-276 532.5,-276"/>
<text text-anchor="start" x="535.5" y="-282.2" font-family="Helvetica,sans-Serif" font-size="11.00">&lt; 2</text>
<polygon fill="#ffffff" stroke="transparent" points="612.5,-276 612.5,-294 710.5,-294 710.5,-276 612.5,-276"/>
<polygon fill="none" stroke="black" points="612.5,-276 612.5,-294 710.5,-294 710.5,-276 612.5,-276"/>
<text text-anchor="start" x="674.5" y="-282.2" font-family="Helvetica,sans-Serif" font-size="11.00">0 rows</text>
<polygon fill="#ffffff" stroke="transparent" points="710.5,-276 710.5,-294 780.5,-294 780.5,-276 710.5,-276"/>
<polygon fill="none" stroke="black" points="710.5,-276 710.5,-294 780.5,-294 780.5,-276 710.5,-276"/>
<text text-anchor="start" x="761.5" y="-282.2" font-family="Helvetica,sans-Serif" font-size="11.00">0 &gt;</text>
<polygon fill="none" stroke="black" stroke-width="2" points="531.5,-275 531.5,-427 781.5,-427 781.5,-275 531.5,-275"/>
</a>
</g>
</g>
<!-- m_loan_charge_paid_by&#45;&gt;m_loan_transaction -->
<g id="edge10" class="edge">
<title>m_loan_charge_paid_by:w&#45;&gt;m_loan_transaction:e</title>
<path fill="none" stroke="black" d="M517.28,-373.65C497.94,-382.39 500.81,-411.28 491,-439 470.47,-496.99 513.02,-713 451.5,-713"/>
<polygon fill="black" stroke="black" points="523.64,-372.47 532.16,-374.54 527.57,-371.73 531.5,-371 531.5,-371 531.5,-371 527.57,-371.73 530.84,-367.46 523.64,-372.47 523.64,-372.47"/>
<ellipse fill="none" stroke="black" cx="520.49" cy="-373.05" rx="3.2" ry="3.2"/>
</g>
<!-- m_loan_charge_paid_by&#45;&gt;m_loan_charge -->
<g id="edge9" class="edge">
<title>m_loan_charge_paid_by:w&#45;&gt;m_loan_charge:e</title>
<path fill="none" stroke="black" d="M517.13,-346.8C468.16,-329.93 502.99,-222 438.5,-222"/>
<polygon fill="black" stroke="black" points="523.59,-347.79 530.95,-352.56 527.55,-348.39 531.5,-349 531.5,-349 531.5,-349 527.55,-348.39 532.05,-345.44 523.59,-347.79 523.59,-347.79"/>
<ellipse fill="none" stroke="black" cx="520.43" cy="-347.3" rx="3.2" ry="3.2"/>
</g>
<!-- m_loan_collateral_management -->
<g id="node11" class="node">
<title>m_loan_collateral_management</title>
<g id="a_node11"><a xlink:href="../../tables/m_loan_collateral_management.html" xlink:title="m_loan_collateral_management" target="_top">
<polygon fill="#ffffff" stroke="transparent" points="551.5,-528 551.5,-586 761.5,-586 761.5,-528 551.5,-528"/>
<polygon fill="#f5f5f5" stroke="transparent" points="551.5,-564 551.5,-586 761.5,-586 761.5,-564 551.5,-564"/>
<polygon fill="none" stroke="black" points="551.5,-564 551.5,-586 761.5,-586 761.5,-564 551.5,-564"/>
<text text-anchor="start" x="556.5" y="-573.2" font-family="Helvetica,sans-Serif" font-weight="bold" font-size="11.00">m_loan_collateral_management</text>
<text text-anchor="start" x="726.5" y="-572.2" font-family="Helvetica,sans-Serif" font-size="11.00">[table]</text>
<polygon fill="none" stroke="black" points="551.5,-546 551.5,-564 761.5,-564 761.5,-546 551.5,-546"/>
<text text-anchor="start" x="554.5" y="-552.2" font-family="Helvetica,sans-Serif" font-size="11.00">...</text>
<polygon fill="#ffffff" stroke="transparent" points="551.5,-528 551.5,-546 641.5,-546 641.5,-528 551.5,-528"/>
<polygon fill="none" stroke="black" points="551.5,-528 551.5,-546 641.5,-546 641.5,-528 551.5,-528"/>
<text text-anchor="start" x="554.5" y="-534.2" font-family="Helvetica,sans-Serif" font-size="11.00">&lt; 3</text>
<polygon fill="#ffffff" stroke="transparent" points="641.5,-528 641.5,-546 714.5,-546 714.5,-528 641.5,-528"/>
<polygon fill="none" stroke="black" points="641.5,-528 641.5,-546 714.5,-546 714.5,-528 641.5,-528"/>
<text text-anchor="start" x="678.5" y="-534.2" font-family="Helvetica,sans-Serif" font-size="11.00">0 rows</text>
<polygon fill="#ffffff" stroke="transparent" points="714.5,-528 714.5,-546 761.5,-546 761.5,-528 714.5,-528"/>
<polygon fill="none" stroke="black" points="714.5,-528 714.5,-546 761.5,-546 761.5,-528 714.5,-528"/>
<text text-anchor="start" x="751.5" y="-534.2" font-family="Helvetica,sans-Serif" font-size="11.00"> &#160;</text>
</a>
</g>
</g>
<!-- m_loan_collateral_management&#45;&gt;m_loan_transaction -->
<g id="edge12" class="edge">
<title>m_loan_collateral_management:w&#45;&gt;m_loan_transaction:e</title>
<path fill="none" stroke="black" d="M536.1,-556.33C515.2,-560.68 507.13,-575.43 491,-597 458.38,-640.61 505.96,-713 451.5,-713"/>
<polygon fill="black" stroke="black" points="542.53,-555.74 550.83,-558.58 546.52,-555.37 550.5,-555 550.5,-555 550.5,-555 546.52,-555.37 550.17,-551.42 542.53,-555.74 542.53,-555.74"/>
<ellipse fill="none" stroke="black" cx="539.35" cy="-556.03" rx="3.2" ry="3.2"/>
</g>
<!-- m_loan_collateral_management&#45;&gt;m_loan -->
<g id="edge11" class="edge">
<title>m_loan_collateral_management:w&#45;&gt;m_loan:e</title>
<path fill="none" stroke="black" d="M535.84,-554.92C358.95,-552.92 311.07,-515 127,-515"/>
<polygon fill="black" stroke="black" points="542.5,-554.96 550.48,-558.6 546.5,-554.98 550.5,-555 550.5,-555 550.5,-555 546.5,-554.98 550.52,-551.4 542.5,-554.96 542.5,-554.96"/>
<ellipse fill="none" stroke="black" cx="539.3" cy="-554.94" rx="3.2" ry="3.2"/>
</g>
<!-- m_loan_installment_charge -->
<g id="node12" class="node">
<title>m_loan_installment_charge</title>
<g id="a_node12"><a xlink:href="../../tables/m_loan_installment_charge.html" xlink:title="m_loan_installment_charge" target="_top">
<polygon fill="#ffffff" stroke="transparent" points="562,-195 562,-253 751,-253 751,-195 562,-195"/>
<polygon fill="#f5f5f5" stroke="transparent" points="562.5,-231 562.5,-253 751.5,-253 751.5,-231 562.5,-231"/>
<polygon fill="none" stroke="black" points="562.5,-231 562.5,-253 751.5,-253 751.5,-231 562.5,-231"/>
<text text-anchor="start" x="567.5" y="-240.2" font-family="Helvetica,sans-Serif" font-weight="bold" font-size="11.00">m_loan_installment_charge</text>
<text text-anchor="start" x="716.5" y="-239.2" font-family="Helvetica,sans-Serif" font-size="11.00">[table]</text>
<polygon fill="none" stroke="black" points="562.5,-213 562.5,-231 751.5,-231 751.5,-213 562.5,-213"/>
<text text-anchor="start" x="565.5" y="-219.2" font-family="Helvetica,sans-Serif" font-size="11.00">...</text>
<polygon fill="#ffffff" stroke="transparent" points="562.5,-195 562.5,-213 641.5,-213 641.5,-195 562.5,-195"/>
<polygon fill="none" stroke="black" points="562.5,-195 562.5,-213 641.5,-213 641.5,-195 562.5,-195"/>
<text text-anchor="start" x="565.5" y="-201.2" font-family="Helvetica,sans-Serif" font-size="11.00">&lt; 2</text>
<polygon fill="#ffffff" stroke="transparent" points="641.5,-195 641.5,-213 709.5,-213 709.5,-195 641.5,-195"/>
<polygon fill="none" stroke="black" points="641.5,-195 641.5,-213 709.5,-213 709.5,-195 641.5,-195"/>
<text text-anchor="start" x="673.5" y="-201.2" font-family="Helvetica,sans-Serif" font-size="11.00">0 rows</text>
<polygon fill="#ffffff" stroke="transparent" points="709.5,-195 709.5,-213 751.5,-213 751.5,-195 709.5,-195"/>
<polygon fill="none" stroke="black" points="709.5,-195 709.5,-213 751.5,-213 751.5,-195 709.5,-195"/>
<text text-anchor="start" x="741.5" y="-201.2" font-family="Helvetica,sans-Serif" font-size="11.00"> &#160;</text>
</a>
</g>
</g>
<!-- m_loan_installment_charge&#45;&gt;m_loan_charge -->
<g id="edge13" class="edge">
<title>m_loan_installment_charge:w&#45;&gt;m_loan_charge:e</title>
<path fill="none" stroke="black" d="M546.86,-222C503.84,-222 487.93,-222 438.5,-222"/>
<polygon fill="black" stroke="black" points="553.5,-222 561.5,-225.6 557.5,-222 561.5,-222 561.5,-222 561.5,-222 557.5,-222 561.5,-218.4 553.5,-222 553.5,-222"/>
<ellipse fill="none" stroke="black" cx="550.3" cy="-222" rx="3.2" ry="3.2"/>
</g>
<!-- m_loan_overdue_installment_charge -->
<g id="node13" class="node">
<title>m_loan_overdue_installment_charge</title>
<g id="a_node13"><a xlink:href="../../tables/m_loan_overdue_installment_charge.html" xlink:title="m_loan_overdue_installment_charge" target="_top">
<polygon fill="#ffffff" stroke="transparent" points="538,-116 538,-174 775,-174 775,-116 538,-116"/>
<polygon fill="#f5f5f5" stroke="transparent" points="538.5,-152 538.5,-174 775.5,-174 775.5,-152 538.5,-152"/>
<polygon fill="none" stroke="black" points="538.5,-152 538.5,-174 775.5,-174 775.5,-152 538.5,-152"/>
<text text-anchor="start" x="543.5" y="-161.2" font-family="Helvetica,sans-Serif" font-weight="bold" font-size="11.00">m_loan_overdue_installment_charge</text>
<text text-anchor="start" x="740.5" y="-160.2" font-family="Helvetica,sans-Serif" font-size="11.00">[table]</text>
<polygon fill="none" stroke="black" points="538.5,-134 538.5,-152 775.5,-152 775.5,-134 538.5,-134"/>
<text text-anchor="start" x="541.5" y="-140.2" font-family="Helvetica,sans-Serif" font-size="11.00">...</text>
<polygon fill="#ffffff" stroke="transparent" points="538.5,-116 538.5,-134 641.5,-134 641.5,-116 538.5,-116"/>
<polygon fill="none" stroke="black" points="538.5,-116 538.5,-134 641.5,-134 641.5,-116 538.5,-116"/>
<text text-anchor="start" x="541.5" y="-122.2" font-family="Helvetica,sans-Serif" font-size="11.00">&lt; 2</text>
<polygon fill="#ffffff" stroke="transparent" points="641.5,-116 641.5,-134 721.5,-134 721.5,-116 641.5,-116"/>
<polygon fill="none" stroke="black" points="641.5,-116 641.5,-134 721.5,-134 721.5,-116 641.5,-116"/>
<text text-anchor="start" x="685.5" y="-122.2" font-family="Helvetica,sans-Serif" font-size="11.00">0 rows</text>
<polygon fill="#ffffff" stroke="transparent" points="721.5,-116 721.5,-134 775.5,-134 775.5,-116 721.5,-116"/>
<polygon fill="none" stroke="black" points="721.5,-116 721.5,-134 775.5,-134 775.5,-116 721.5,-116"/>
<text text-anchor="start" x="765.5" y="-122.2" font-family="Helvetica,sans-Serif" font-size="11.00"> &#160;</text>
</a>
</g>
</g>
<!-- m_loan_overdue_installment_charge&#45;&gt;m_loan_charge -->
<g id="edge14" class="edge">
<title>m_loan_overdue_installment_charge:w&#45;&gt;m_loan_charge:e</title>
<path fill="none" stroke="black" d="M523.14,-145.03C483.17,-157.4 489.4,-222 438.5,-222"/>
<polygon fill="black" stroke="black" points="529.58,-144.12 538,-146.56 533.54,-143.56 537.5,-143 537.5,-143 537.5,-143 533.54,-143.56 537,-139.44 529.58,-144.12 529.58,-144.12"/>
<ellipse fill="none" stroke="black" cx="526.41" cy="-144.57" rx="3.2" ry="3.2"/>
</g>
<!-- m_loan_tranche_disbursement_charge -->
<g id="node14" class="node">
<title>m_loan_tranche_disbursement_charge</title>
<g id="a_node14"><a xlink:href="../../tables/m_loan_tranche_disbursement_charge.html" xlink:title="m_loan_tranche_disbursement_charge" target="_top">
<polygon fill="#ffffff" stroke="transparent" points="532,-37 532,-95 781,-95 781,-37 532,-37"/>
<polygon fill="#f5f5f5" stroke="transparent" points="532.5,-73 532.5,-95 781.5,-95 781.5,-73 532.5,-73"/>
<polygon fill="none" stroke="black" points="532.5,-73 532.5,-95 781.5,-95 781.5,-73 532.5,-73"/>
<text text-anchor="start" x="537.5" y="-82.2" font-family="Helvetica,sans-Serif" font-weight="bold" font-size="11.00">m_loan_tranche_disbursement_charge</text>
<text text-anchor="start" x="746.5" y="-81.2" font-family="Helvetica,sans-Serif" font-size="11.00">[table]</text>
<polygon fill="none" stroke="black" points="532.5,-55 532.5,-73 781.5,-73 781.5,-55 532.5,-55"/>
<text text-anchor="start" x="535.5" y="-61.2" font-family="Helvetica,sans-Serif" font-size="11.00">...</text>
<polygon fill="#ffffff" stroke="transparent" points="532.5,-37 532.5,-55 641.5,-55 641.5,-37 532.5,-37"/>
<polygon fill="none" stroke="black" points="532.5,-37 532.5,-55 641.5,-55 641.5,-37 532.5,-37"/>
<text text-anchor="start" x="535.5" y="-43.2" font-family="Helvetica,sans-Serif" font-size="11.00">&lt; 2</text>
<polygon fill="#ffffff" stroke="transparent" points="641.5,-37 641.5,-55 724.5,-55 724.5,-37 641.5,-37"/>
<polygon fill="none" stroke="black" points="641.5,-37 641.5,-55 724.5,-55 724.5,-37 641.5,-37"/>
<text text-anchor="start" x="688.5" y="-43.2" font-family="Helvetica,sans-Serif" font-size="11.00">0 rows</text>
<polygon fill="#ffffff" stroke="transparent" points="724.5,-37 724.5,-55 781.5,-55 781.5,-37 724.5,-37"/>
<polygon fill="none" stroke="black" points="724.5,-37 724.5,-55 781.5,-55 781.5,-37 724.5,-37"/>
<text text-anchor="start" x="771.5" y="-43.2" font-family="Helvetica,sans-Serif" font-size="11.00"> &#160;</text>
</a>
</g>
</g>
<!-- m_loan_tranche_disbursement_charge&#45;&gt;m_loan_charge -->
<g id="edge15" class="edge">
<title>m_loan_tranche_disbursement_charge:w&#45;&gt;m_loan_charge:e</title>
<path fill="none" stroke="black" d="M517.18,-66C458.64,-84.29 514.57,-222 438.5,-222"/>
<polygon fill="black" stroke="black" points="523.58,-65.11 532,-67.57 527.54,-64.55 531.5,-64 531.5,-64 531.5,-64 527.54,-64.55 531,-60.43 523.58,-65.11 523.58,-65.11"/>
<ellipse fill="none" stroke="black" cx="520.41" cy="-65.55" rx="3.2" ry="3.2"/>
</g>
<!-- m_loan_transaction_repayment_schedule_mapping -->
<g id="node15" class="node">
<title>m_loan_transaction_repayment_schedule_mapping</title>
<g id="a_node15"><a xlink:href="../../tables/m_loan_transaction_repayment_schedule_mapping.html" xlink:title="m_loan_transaction_repayment_schedule_mapping" target="_top">
<polygon fill="#ffffff" stroke="transparent" points="499,-607 499,-665 814,-665 814,-607 499,-607"/>
<polygon fill="#f5f5f5" stroke="transparent" points="499.5,-643 499.5,-665 814.5,-665 814.5,-643 499.5,-643"/>
<polygon fill="none" stroke="black" points="499.5,-643 499.5,-665 814.5,-665 814.5,-643 499.5,-643"/>
<text text-anchor="start" x="504.5" y="-652.2" font-family="Helvetica,sans-Serif" font-weight="bold" font-size="11.00">m_loan_transaction_repayment_schedule_mapping</text>
<text text-anchor="start" x="779.5" y="-651.2" font-family="Helvetica,sans-Serif" font-size="11.00">[table]</text>
<polygon fill="none" stroke="black" points="499.5,-625 499.5,-643 814.5,-643 814.5,-625 499.5,-625"/>
<text text-anchor="start" x="502.5" y="-631.2" font-family="Helvetica,sans-Serif" font-size="11.00">...</text>
<polygon fill="#ffffff" stroke="transparent" points="499.5,-607 499.5,-625 641.5,-625 641.5,-607 499.5,-607"/>
<polygon fill="none" stroke="black" points="499.5,-607 499.5,-625 641.5,-625 641.5,-607 499.5,-607"/>
<text text-anchor="start" x="502.5" y="-613.2" font-family="Helvetica,sans-Serif" font-size="11.00">&lt; 2</text>
<polygon fill="#ffffff" stroke="transparent" points="641.5,-607 641.5,-625 740.5,-625 740.5,-607 641.5,-607"/>
<polygon fill="none" stroke="black" points="641.5,-607 641.5,-625 740.5,-625 740.5,-607 641.5,-607"/>
<text text-anchor="start" x="704.5" y="-613.2" font-family="Helvetica,sans-Serif" font-size="11.00">0 rows</text>
<polygon fill="#ffffff" stroke="transparent" points="740.5,-607 740.5,-625 814.5,-625 814.5,-607 740.5,-607"/>
<polygon fill="none" stroke="black" points="740.5,-607 740.5,-625 814.5,-625 814.5,-607 740.5,-607"/>
<text text-anchor="start" x="804.5" y="-613.2" font-family="Helvetica,sans-Serif" font-size="11.00"> &#160;</text>
</a>
</g>
</g>
<!-- m_loan_transaction_repayment_schedule_mapping&#45;&gt;m_loan_transaction -->
<g id="edge19" class="edge">
<title>m_loan_transaction_repayment_schedule_mapping:w&#45;&gt;m_loan_transaction:e</title>
<path fill="none" stroke="black" d="M484.81,-638.71C466.28,-655.71 486.29,-713 451.5,-713"/>
<polygon fill="black" stroke="black" points="490.93,-636.6 499.67,-637.4 494.72,-635.3 498.5,-634 498.5,-634 498.5,-634 494.72,-635.3 497.33,-630.6 490.93,-636.6 490.93,-636.6"/>
<ellipse fill="none" stroke="black" cx="487.91" cy="-637.64" rx="3.2" ry="3.2"/>
</g>
<!-- m_note -->
<g id="node16" class="node">
<title>m_note</title>
<g id="a_node16"><a xlink:href="../../tables/m_note.html" xlink:title="m_note" target="_top">
<polygon fill="#ffffff" stroke="transparent" points="614.5,-449 614.5,-507 698.5,-507 698.5,-449 614.5,-449"/>
<polygon fill="#f5f5f5" stroke="transparent" points="614.5,-485 614.5,-507 698.5,-507 698.5,-485 614.5,-485"/>
<polygon fill="none" stroke="black" points="614.5,-485 614.5,-507 698.5,-507 698.5,-485 614.5,-485"/>
<text text-anchor="start" x="619.5" y="-494.2" font-family="Helvetica,sans-Serif" font-weight="bold" font-size="11.00">m_note</text>
<text text-anchor="start" x="663.5" y="-493.2" font-family="Helvetica,sans-Serif" font-size="11.00">[table]</text>
<polygon fill="none" stroke="black" points="614.5,-467 614.5,-485 698.5,-485 698.5,-467 614.5,-467"/>
<text text-anchor="start" x="617.5" y="-473.2" font-family="Helvetica,sans-Serif" font-size="11.00">...</text>
<polygon fill="#ffffff" stroke="transparent" points="614.5,-449 614.5,-467 641.5,-467 641.5,-449 614.5,-449"/>
<polygon fill="none" stroke="black" points="614.5,-449 614.5,-467 641.5,-467 641.5,-449 614.5,-449"/>
<text text-anchor="start" x="617.5" y="-455.2" font-family="Helvetica,sans-Serif" font-size="11.00">&lt; 7</text>
<polygon fill="#ffffff" stroke="transparent" points="641.5,-449 641.5,-467 682.5,-467 682.5,-449 641.5,-449"/>
<polygon fill="none" stroke="black" points="641.5,-449 641.5,-467 682.5,-467 682.5,-449 641.5,-449"/>
<text text-anchor="start" x="646.5" y="-455.2" font-family="Helvetica,sans-Serif" font-size="11.00">0 rows</text>
<polygon fill="#ffffff" stroke="transparent" points="682.5,-449 682.5,-467 698.5,-467 698.5,-449 682.5,-449"/>
<polygon fill="none" stroke="black" points="682.5,-449 682.5,-467 698.5,-467 698.5,-449 682.5,-449"/>
<text text-anchor="start" x="688.5" y="-455.2" font-family="Helvetica,sans-Serif" font-size="11.00"> &#160;</text>
</a>
</g>
</g>
<!-- m_note&#45;&gt;m_loan_transaction -->
<g id="edge21" class="edge">
<title>m_note:w&#45;&gt;m_loan_transaction:e</title>
<path fill="none" stroke="black" d="M599,-476C551.12,-476.12 525.62,-478.54 491,-518 432.68,-584.47 539.93,-713 451.5,-713"/>
<polygon fill="black" stroke="black" points="605.5,-476 613.5,-479.6 609.5,-476 613.5,-476 613.5,-476 613.5,-476 609.5,-476 613.5,-472.4 605.5,-476 605.5,-476"/>
<ellipse fill="none" stroke="black" cx="602.3" cy="-476" rx="3.2" ry="3.2"/>
</g>
<!-- m_note&#45;&gt;m_loan -->
<g id="edge20" class="edge">
<title>m_note:w&#45;&gt;m_loan:e</title>
<path fill="none" stroke="black" d="M598.82,-476.06C394.08,-477.77 338.94,-515 127,-515"/>
<polygon fill="black" stroke="black" points="605.5,-476.03 613.51,-479.6 609.5,-476.02 613.5,-476 613.5,-476 613.5,-476 609.5,-476.02 613.49,-472.4 605.5,-476.03 605.5,-476.03"/>
<ellipse fill="none" stroke="black" cx="602.3" cy="-476.05" rx="3.2" ry="3.2"/>
</g>
</g>
</svg>
