<?xml version="1.0" encoding="UTF-8" standalone="no"?>
<!DOCTYPE svg PUBLIC "-//W3C//DTD SVG 1.1//EN"
 "http://www.w3.org/Graphics/SVG/1.1/DTD/svg11.dtd">
<!-- Generated by graphviz version 2.43.0 (0)
 -->
<!-- Title: twoDegreesRelationshipsDiagram Pages: 1 -->
<svg width="1040pt" height="418pt"
 viewBox="0.00 0.00 1040.00 418.00" xmlns="http://www.w3.org/2000/svg" xmlns:xlink="http://www.w3.org/1999/xlink">
<g id="graph0" class="graph" transform="scale(1 1) rotate(0) translate(4 414)">
<title>twoDegreesRelationshipsDiagram</title>
<polygon fill="#ffffff" stroke="transparent" points="-4,4 -4,-414 1036,-414 1036,4 -4,4"/>
<text text-anchor="middle" x="71.5" y="-7.2" font-family="Helvetica,sans-Serif" font-size="11.00">Generated by SchemaSpy</text>
<!-- m_loan -->
<g id="node1" class="node">
<title>m_loan</title>
<g id="a_node1"><a xlink:href="../../tables/m_loan.html" xlink:title="m_loan" target="_top">
<polygon fill="#ffffff" stroke="transparent" points="177,-157 177,-215 272,-215 272,-157 177,-157"/>
<polygon fill="#f5f5f5" stroke="transparent" points="177.5,-193 177.5,-215 272.5,-215 272.5,-193 177.5,-193"/>
<polygon fill="none" stroke="black" points="177.5,-193 177.5,-215 272.5,-215 272.5,-193 177.5,-193"/>
<text text-anchor="start" x="182.5" y="-202.2" font-family="Helvetica,sans-Serif" font-weight="bold" font-size="11.00">m_loan</text>
<text text-anchor="start" x="237.5" y="-201.2" font-family="Helvetica,sans-Serif" font-size="11.00">[table]</text>
<polygon fill="none" stroke="black" points="177.5,-175 177.5,-193 272.5,-193 272.5,-175 177.5,-175"/>
<text text-anchor="start" x="180.5" y="-181.2" font-family="Helvetica,sans-Serif" font-size="11.00">...</text>
<polygon fill="#ffffff" stroke="transparent" points="177.5,-157 177.5,-175 205.5,-175 205.5,-157 177.5,-157"/>
<polygon fill="none" stroke="black" points="177.5,-157 177.5,-175 205.5,-175 205.5,-157 177.5,-157"/>
<text text-anchor="start" x="180.5" y="-163.2" font-family="Helvetica,sans-Serif" font-size="11.00">&lt; 15</text>
<polygon fill="#ffffff" stroke="transparent" points="205.5,-157 205.5,-175 244.5,-175 244.5,-157 205.5,-157"/>
<polygon fill="none" stroke="black" points="205.5,-157 205.5,-175 244.5,-175 244.5,-157 205.5,-157"/>
<text text-anchor="start" x="208.5" y="-163.2" font-family="Helvetica,sans-Serif" font-size="11.00">0 rows</text>
<polygon fill="#ffffff" stroke="transparent" points="244.5,-157 244.5,-175 272.5,-175 272.5,-157 244.5,-157"/>
<polygon fill="none" stroke="black" points="244.5,-157 244.5,-175 272.5,-175 272.5,-157 244.5,-157"/>
<text text-anchor="start" x="247.5" y="-163.2" font-family="Helvetica,sans-Serif" font-size="11.00">24 &gt;</text>
</a>
</g>
</g>
<!-- m_appuser -->
<g id="node2" class="node">
<title>m_appuser</title>
<g id="a_node2"><a xlink:href="../../tables/m_appuser.html" xlink:title="m_appuser" target="_top">
<polygon fill="#ffffff" stroke="transparent" points="16.5,-151 16.5,-209 119.5,-209 119.5,-151 16.5,-151"/>
<polygon fill="#f5f5f5" stroke="transparent" points="17,-187 17,-209 120,-209 120,-187 17,-187"/>
<polygon fill="none" stroke="black" points="17,-187 17,-209 120,-209 120,-187 17,-187"/>
<text text-anchor="start" x="22" y="-196.2" font-family="Helvetica,sans-Serif" font-weight="bold" font-size="11.00">m_appuser</text>
<text text-anchor="start" x="85" y="-195.2" font-family="Helvetica,sans-Serif" font-size="11.00">[table]</text>
<polygon fill="none" stroke="black" points="17,-169 17,-187 120,-187 120,-169 17,-169"/>
<text text-anchor="start" x="20" y="-175.2" font-family="Helvetica,sans-Serif" font-size="11.00">...</text>
<polygon fill="#ffffff" stroke="transparent" points="17,-151 17,-169 46,-169 46,-151 17,-151"/>
<polygon fill="none" stroke="black" points="17,-151 17,-169 46,-169 46,-151 17,-151"/>
<text text-anchor="start" x="20" y="-157.2" font-family="Helvetica,sans-Serif" font-size="11.00">&lt; 2</text>
<polygon fill="#ffffff" stroke="transparent" points="46,-151 46,-169 88,-169 88,-151 46,-151"/>
<polygon fill="none" stroke="black" points="46,-151 46,-169 88,-169 88,-151 46,-151"/>
<text text-anchor="start" x="52" y="-157.2" font-family="Helvetica,sans-Serif" font-size="11.00">0 rows</text>
<polygon fill="#ffffff" stroke="transparent" points="88,-151 88,-169 120,-169 120,-151 88,-151"/>
<polygon fill="none" stroke="black" points="88,-151 88,-169 120,-169 120,-151 88,-151"/>
<text text-anchor="start" x="95" y="-157.2" font-family="Helvetica,sans-Serif" font-size="11.00">57 &gt;</text>
</a>
</g>
</g>
<!-- m_loan&#45;&gt;m_appuser -->
<g id="edge1" class="edge">
<title>m_loan:w&#45;&gt;m_appuser:e</title>
<path fill="none" stroke="black" d="M167.53,-172.65C149.79,-151.08 142.52,-150.25 121,-178"/>
<polygon fill="black" stroke="black" points="171.54,-177.72 173.68,-186.23 174.02,-180.86 176.5,-184 176.5,-184 176.5,-184 174.02,-180.86 179.32,-181.77 171.54,-177.72 171.54,-177.72"/>
<ellipse fill="none" stroke="black" cx="169.55" cy="-175.21" rx="3.2" ry="3.2"/>
</g>
<!-- m_loan&#45;&gt;m_appuser -->
<g id="edge2" class="edge">
<title>m_loan:w&#45;&gt;m_appuser:e</title>
<path fill="none" stroke="black" d="M164.74,-175.09C148.97,-163.65 141.35,-162.41 121,-178"/>
<polygon fill="black" stroke="black" points="170.12,-179.17 174.33,-186.87 173.31,-181.58 176.5,-184 176.5,-184 176.5,-184 173.31,-181.58 178.67,-181.13 170.12,-179.17 170.12,-179.17"/>
<ellipse fill="none" stroke="black" cx="167.57" cy="-177.23" rx="3.2" ry="3.2"/>
</g>
<!-- m_loan&#45;&gt;m_appuser -->
<g id="edge3" class="edge">
<title>m_loan:w&#45;&gt;m_appuser:e</title>
<path fill="none" stroke="black" d="M162.54,-180.19C148.21,-175.95 140.38,-173.31 121,-178"/>
<polygon fill="black" stroke="black" points="168.78,-181.89 175.55,-187.47 172.64,-182.95 176.5,-184 176.5,-184 176.5,-184 172.64,-182.95 177.45,-180.53 168.78,-181.89 168.78,-181.89"/>
<ellipse fill="none" stroke="black" cx="165.7" cy="-181.05" rx="3.2" ry="3.2"/>
</g>
<!-- m_loan&#45;&gt;m_appuser -->
<g id="edge5" class="edge">
<title>m_loan:w&#45;&gt;m_appuser:e</title>
<path fill="none" stroke="black" d="M162.11,-186.9C148.05,-188.23 140.19,-183.41 121,-178"/>
<polygon fill="black" stroke="black" points="168.66,-185.58 177.21,-187.53 172.58,-184.79 176.5,-184 176.5,-184 176.5,-184 172.58,-184.79 175.79,-180.47 168.66,-185.58 168.66,-185.58"/>
<ellipse fill="none" stroke="black" cx="165.52" cy="-186.21" rx="3.2" ry="3.2"/>
</g>
<!-- m_loan&#45;&gt;m_appuser -->
<g id="edge6" class="edge">
<title>m_loan:w&#45;&gt;m_appuser:e</title>
<path fill="none" stroke="black" d="M164.74,-192.33C148.97,-201.39 141.35,-194.41 121,-178"/>
<polygon fill="black" stroke="black" points="169.97,-188.62 178.58,-186.94 173.24,-186.31 176.5,-184 176.5,-184 176.5,-184 173.24,-186.31 174.42,-181.06 169.97,-188.62 169.97,-188.62"/>
<ellipse fill="none" stroke="black" cx="167.36" cy="-190.47" rx="3.2" ry="3.2"/>
</g>
<!-- m_loan&#45;&gt;m_appuser -->
<g id="edge7" class="edge">
<title>m_loan:w&#45;&gt;m_appuser:e</title>
<path fill="none" stroke="black" d="M167.29,-195.38C149.73,-214.85 142.42,-206.49 121,-178"/>
<polygon fill="black" stroke="black" points="171.47,-190.22 179.3,-186.27 173.98,-187.11 176.5,-184 176.5,-184 176.5,-184 173.98,-187.11 173.7,-181.73 171.47,-190.22 171.47,-190.22"/>
<ellipse fill="none" stroke="black" cx="169.45" cy="-192.71" rx="3.2" ry="3.2"/>
</g>
<!-- m_code_value -->
<g id="node3" class="node">
<title>m_code_value</title>
<g id="a_node3"><a xlink:href="../../tables/m_code_value.html" xlink:title="m_code_value" target="_top">
<polygon fill="#ffffff" stroke="transparent" points="8,-230 8,-288 128,-288 128,-230 8,-230"/>
<polygon fill="#f5f5f5" stroke="transparent" points="8,-266 8,-288 128,-288 128,-266 8,-266"/>
<polygon fill="none" stroke="black" points="8,-266 8,-288 128,-288 128,-266 8,-266"/>
<text text-anchor="start" x="13" y="-275.2" font-family="Helvetica,sans-Serif" font-weight="bold" font-size="11.00">m_code_value</text>
<text text-anchor="start" x="93" y="-274.2" font-family="Helvetica,sans-Serif" font-size="11.00">[table]</text>
<polygon fill="none" stroke="black" points="8,-248 8,-266 128,-266 128,-248 8,-248"/>
<text text-anchor="start" x="11" y="-254.2" font-family="Helvetica,sans-Serif" font-size="11.00">...</text>
<polygon fill="#ffffff" stroke="transparent" points="8,-230 8,-248 45,-248 45,-230 8,-230"/>
<polygon fill="none" stroke="black" points="8,-230 8,-248 45,-248 45,-230 8,-230"/>
<text text-anchor="start" x="11" y="-236.2" font-family="Helvetica,sans-Serif" font-size="11.00">&lt; 1</text>
<polygon fill="#ffffff" stroke="transparent" points="45,-230 45,-248 92,-248 92,-230 45,-230"/>
<polygon fill="none" stroke="black" points="45,-230 45,-248 92,-248 92,-230 45,-230"/>
<text text-anchor="start" x="56" y="-236.2" font-family="Helvetica,sans-Serif" font-size="11.00">0 rows</text>
<polygon fill="#ffffff" stroke="transparent" points="92,-230 92,-248 128,-248 128,-230 92,-230"/>
<polygon fill="none" stroke="black" points="92,-230 92,-248 128,-248 128,-230 92,-230"/>
<text text-anchor="start" x="103" y="-236.2" font-family="Helvetica,sans-Serif" font-size="11.00">25 &gt;</text>
</a>
</g>
</g>
<!-- m_loan&#45;&gt;m_code_value -->
<g id="edge4" class="edge">
<title>m_loan:w&#45;&gt;m_code_value:e</title>
<path fill="none" stroke="black" d="M161.93,-187.17C146.05,-201.11 161.06,-252.03 129,-257"/>
<polygon fill="black" stroke="black" points="168.68,-185.7 177.26,-187.52 172.59,-184.85 176.5,-184 176.5,-184 176.5,-184 172.59,-184.85 175.74,-180.48 168.68,-185.7 168.68,-185.7"/>
<ellipse fill="none" stroke="black" cx="165.56" cy="-186.38" rx="3.2" ry="3.2"/>
</g>
<!-- m_loan&#45;&gt;m_code_value -->
<g id="edge8" class="edge">
<title>m_loan:w&#45;&gt;m_code_value:e</title>
<path fill="none" stroke="black" d="M163.6,-190.73C145.01,-210.43 162.11,-262.99 129,-257"/>
<polygon fill="black" stroke="black" points="169.41,-187.7 178.17,-187.19 172.95,-185.85 176.5,-184 176.5,-184 176.5,-184 172.95,-185.85 174.83,-180.81 169.41,-187.7 169.41,-187.7"/>
<ellipse fill="none" stroke="black" cx="166.57" cy="-189.18" rx="3.2" ry="3.2"/>
</g>
<!-- m_loan_repayment_schedule_history -->
<g id="node4" class="node">
<title>m_loan_repayment_schedule_history</title>
<g id="a_node4"><a xlink:href="../../tables/m_loan_repayment_schedule_history.html" xlink:title="m_loan_repayment_schedule_history" target="_top">
<polygon fill="#ffffff" stroke="transparent" points="685,-184 685,-242 925,-242 925,-184 685,-184"/>
<polygon fill="#f5f5f5" stroke="transparent" points="685,-220 685,-242 925,-242 925,-220 685,-220"/>
<polygon fill="none" stroke="black" points="685,-220 685,-242 925,-242 925,-220 685,-220"/>
<text text-anchor="start" x="690" y="-229.2" font-family="Helvetica,sans-Serif" font-weight="bold" font-size="11.00">m_loan_repayment_schedule_history</text>
<text text-anchor="start" x="890" y="-228.2" font-family="Helvetica,sans-Serif" font-size="11.00">[table]</text>
<polygon fill="none" stroke="black" points="685,-202 685,-220 925,-220 925,-202 685,-202"/>
<text text-anchor="start" x="688" y="-208.2" font-family="Helvetica,sans-Serif" font-size="11.00">...</text>
<polygon fill="#ffffff" stroke="transparent" points="685,-184 685,-202 790,-202 790,-184 685,-184"/>
<polygon fill="none" stroke="black" points="685,-184 685,-202 790,-202 790,-184 685,-184"/>
<text text-anchor="start" x="688" y="-190.2" font-family="Helvetica,sans-Serif" font-size="11.00">&lt; 2</text>
<polygon fill="#ffffff" stroke="transparent" points="790,-184 790,-202 870,-202 870,-184 790,-184"/>
<polygon fill="none" stroke="black" points="790,-184 790,-202 870,-202 870,-184 790,-184"/>
<text text-anchor="start" x="834" y="-190.2" font-family="Helvetica,sans-Serif" font-size="11.00">0 rows</text>
<polygon fill="#ffffff" stroke="transparent" points="870,-184 870,-202 925,-202 925,-184 870,-184"/>
<polygon fill="none" stroke="black" points="870,-184 870,-202 925,-202 925,-184 870,-184"/>
<text text-anchor="start" x="915" y="-190.2" font-family="Helvetica,sans-Serif" font-size="11.00"> &#160;</text>
</a>
</g>
</g>
<!-- m_loan_repayment_schedule_history&#45;&gt;m_loan -->
<g id="edge9" class="edge">
<title>m_loan_repayment_schedule_history:w&#45;&gt;m_loan:e</title>
<path fill="none" stroke="black" d="M669.46,-211.4C618.53,-214.34 602.5,-232.47 545,-238 442.36,-247.88 404.95,-284.66 313,-238 286.48,-224.54 303.24,-184 273.5,-184"/>
<polygon fill="black" stroke="black" points="676,-211.22 684.1,-214.6 680,-211.11 684,-211 684,-211 684,-211 680,-211.11 683.9,-207.4 676,-211.22 676,-211.22"/>
<ellipse fill="none" stroke="black" cx="672.8" cy="-211.31" rx="3.2" ry="3.2"/>
</g>
<!-- m_loan_reschedule_request -->
<g id="node5" class="node">
<title>m_loan_reschedule_request</title>
<g id="a_node5"><a xlink:href="../../tables/m_loan_reschedule_request.html" xlink:title="m_loan_reschedule_request" target="_top">
<polygon fill="#ffffff" stroke="transparent" points="321,-37 321,-227 537,-227 537,-37 321,-37"/>
<polygon fill="#f5f5f5" stroke="transparent" points="321,-205 321,-227 537,-227 537,-205 321,-205"/>
<polygon fill="none" stroke="black" points="321,-205 321,-227 537,-227 537,-205 321,-205"/>
<text text-anchor="start" x="326" y="-214.2" font-family="Helvetica,sans-Serif" font-weight="bold" font-size="11.00">m_loan_reschedule_request</text>
<text text-anchor="start" x="502" y="-213.2" font-family="Helvetica,sans-Serif" font-size="11.00">[table]</text>
<polygon fill="none" stroke="black" points="321,-183 321,-205 537,-205 537,-183 321,-183"/>
<image xlink:href="../../images/primaryKeys.png" width="11px" height="12px" preserveAspectRatio="xMinYMin meet" x="326" y="-200"/>
<text text-anchor="start" x="341" y="-191.2" font-family="Helvetica,sans-Serif" font-size="11.00">id</text>
<polygon fill="#ffffff" stroke="transparent" points="321,-161 321,-183 537,-183 537,-161 321,-161"/>
<polygon fill="none" stroke="black" points="321,-161 321,-183 537,-183 537,-161 321,-161"/>
<image xlink:href="../../images/foreignKeys.png" width="11px" height="12px" preserveAspectRatio="xMinYMin meet" x="326" y="-178"/>
<text text-anchor="start" x="341" y="-169.2" font-family="Helvetica,sans-Serif" font-size="11.00">loan_id</text>
<polygon fill="#ffffff" stroke="transparent" points="321,-139 321,-161 537,-161 537,-139 321,-139"/>
<polygon fill="none" stroke="black" points="321,-139 321,-161 537,-161 537,-139 321,-139"/>
<image xlink:href="../../images/foreignKeys.png" width="11px" height="12px" preserveAspectRatio="xMinYMin meet" x="326" y="-156"/>
<text text-anchor="start" x="341" y="-147.2" font-family="Helvetica,sans-Serif" font-size="11.00">reschedule_reason_cv_id</text>
<polygon fill="#ffffff" stroke="transparent" points="321,-117 321,-139 537,-139 537,-117 321,-117"/>
<polygon fill="none" stroke="black" points="321,-117 321,-139 537,-139 537,-117 321,-117"/>
<image xlink:href="../../images/foreignKeys.png" width="11px" height="12px" preserveAspectRatio="xMinYMin meet" x="326" y="-134"/>
<text text-anchor="start" x="341" y="-125.2" font-family="Helvetica,sans-Serif" font-size="11.00">submitted_by_user_id</text>
<polygon fill="#ffffff" stroke="transparent" points="321,-95 321,-117 537,-117 537,-95 321,-95"/>
<polygon fill="none" stroke="black" points="321,-95 321,-117 537,-117 537,-95 321,-95"/>
<image xlink:href="../../images/foreignKeys.png" width="11px" height="12px" preserveAspectRatio="xMinYMin meet" x="326" y="-112"/>
<text text-anchor="start" x="341" y="-103.2" font-family="Helvetica,sans-Serif" font-size="11.00">approved_by_user_id</text>
<polygon fill="#ffffff" stroke="transparent" points="321,-73 321,-95 537,-95 537,-73 321,-73"/>
<polygon fill="none" stroke="black" points="321,-73 321,-95 537,-95 537,-73 321,-73"/>
<image xlink:href="../../images/foreignKeys.png" width="11px" height="12px" preserveAspectRatio="xMinYMin meet" x="326" y="-90"/>
<text text-anchor="start" x="341" y="-81.2" font-family="Helvetica,sans-Serif" font-size="11.00">rejected_by_user_id</text>
<polygon fill="none" stroke="black" points="321,-55 321,-73 537,-73 537,-55 321,-55"/>
<text text-anchor="start" x="324" y="-61.2" font-family="Helvetica,sans-Serif" font-size="11.00">...</text>
<polygon fill="#ffffff" stroke="transparent" points="321,-37 321,-55 409,-55 409,-37 321,-37"/>
<polygon fill="none" stroke="black" points="321,-37 321,-55 409,-55 409,-37 321,-37"/>
<text text-anchor="start" x="324" y="-43.2" font-family="Helvetica,sans-Serif" font-size="11.00">&lt; 5</text>
<polygon fill="#ffffff" stroke="transparent" points="409,-37 409,-55 481,-55 481,-37 409,-37"/>
<polygon fill="none" stroke="black" points="409,-37 409,-55 481,-55 481,-37 409,-37"/>
<text text-anchor="start" x="445" y="-43.2" font-family="Helvetica,sans-Serif" font-size="11.00">0 rows</text>
<polygon fill="#ffffff" stroke="transparent" points="481,-37 481,-55 537,-55 537,-37 481,-37"/>
<polygon fill="none" stroke="black" points="481,-37 481,-55 537,-55 537,-37 481,-37"/>
<text text-anchor="start" x="518" y="-43.2" font-family="Helvetica,sans-Serif" font-size="11.00">2 &gt;</text>
</a>
</g>
</g>
<!-- m_loan_repayment_schedule_history&#45;&gt;m_loan_reschedule_request -->
<g id="edge10" class="edge">
<title>m_loan_repayment_schedule_history:w&#45;&gt;m_loan_reschedule_request:e</title>
<path fill="none" stroke="black" d="M669.56,-210.7C615.97,-208.45 598.22,-194 538,-194"/>
<polygon fill="black" stroke="black" points="676,-210.84 683.93,-214.6 680,-210.92 684,-211 684,-211 684,-211 680,-210.92 684.07,-207.4 676,-210.84 676,-210.84"/>
<ellipse fill="none" stroke="black" cx="672.8" cy="-210.77" rx="3.2" ry="3.2"/>
</g>
<!-- m_loan_reschedule_request&#45;&gt;m_loan -->
<g id="edge12" class="edge">
<title>m_loan_reschedule_request:w&#45;&gt;m_loan:e</title>
<path fill="none" stroke="black" d="M305.71,-174.2C295.26,-177.67 289.01,-184 273.5,-184"/>
<polygon fill="black" stroke="black" points="312.09,-173.22 320.55,-175.56 316.05,-172.61 320,-172 320,-172 320,-172 316.05,-172.61 319.45,-168.44 312.09,-173.22 312.09,-173.22"/>
<ellipse fill="none" stroke="black" cx="308.93" cy="-173.7" rx="3.2" ry="3.2"/>
</g>
<!-- m_loan_reschedule_request&#45;&gt;m_appuser -->
<g id="edge11" class="edge">
<title>m_loan_reschedule_request:w&#45;&gt;m_appuser:e</title>
<path fill="none" stroke="black" d="M305.3,-105.78C248.65,-104.08 224.26,-94.04 169,-123 140.26,-138.06 153.44,-178 121,-178"/>
<polygon fill="black" stroke="black" points="312,-105.88 319.95,-109.6 316,-105.94 320,-106 320,-106 320,-106 316,-105.94 320.05,-102.4 312,-105.88 312,-105.88"/>
<ellipse fill="none" stroke="black" cx="308.8" cy="-105.83" rx="3.2" ry="3.2"/>
</g>
<!-- m_loan_reschedule_request&#45;&gt;m_appuser -->
<g id="edge13" class="edge">
<title>m_loan_reschedule_request:w&#45;&gt;m_appuser:e</title>
<path fill="none" stroke="black" d="M305.27,-83.67C248.35,-81.14 221.72,-65.8 169,-99 134.23,-120.89 162.08,-178 121,-178"/>
<polygon fill="black" stroke="black" points="312,-83.82 319.92,-87.6 316,-83.91 320,-84 320,-84 320,-84 316,-83.91 320.08,-80.4 312,-83.82 312,-83.82"/>
<ellipse fill="none" stroke="black" cx="308.8" cy="-83.75" rx="3.2" ry="3.2"/>
</g>
<!-- m_loan_reschedule_request&#45;&gt;m_appuser -->
<g id="edge15" class="edge">
<title>m_loan_reschedule_request:w&#45;&gt;m_appuser:e</title>
<path fill="none" stroke="black" d="M305.34,-127.94C249.09,-127.53 227.71,-125.61 169,-147 145.14,-155.69 146.4,-178 121,-178"/>
<polygon fill="black" stroke="black" points="312,-127.97 319.99,-131.6 316,-127.98 320,-128 320,-128 320,-128 316,-127.98 320.01,-124.4 312,-127.97 312,-127.97"/>
<ellipse fill="none" stroke="black" cx="308.8" cy="-127.96" rx="3.2" ry="3.2"/>
</g>
<!-- m_loan_reschedule_request&#45;&gt;m_code_value -->
<g id="edge14" class="edge">
<title>m_loan_reschedule_request:w&#45;&gt;m_code_value:e</title>
<path fill="none" stroke="black" d="M306.05,-153.92C289.65,-166.6 305.51,-206.83 280,-226 225.23,-267.16 197.51,-257 129,-257"/>
<polygon fill="black" stroke="black" points="312.3,-152.16 320.97,-153.47 316.15,-151.08 320,-150 320,-150 320,-150 316.15,-151.08 319.03,-146.53 312.3,-152.16 312.3,-152.16"/>
<ellipse fill="none" stroke="black" cx="309.22" cy="-153.03" rx="3.2" ry="3.2"/>
</g>
<!-- m_loan_reschedule_request_term_variations_mapping -->
<g id="node6" class="node">
<title>m_loan_reschedule_request_term_variations_mapping</title>
<g id="a_node6"><a xlink:href="../../tables/m_loan_reschedule_request_term_variations_mapping.html" xlink:title="m_loan_reschedule_request_term_variations_mapping" target="_top">
<polygon fill="#ffffff" stroke="transparent" points="586,-296 586,-406 1024,-406 1024,-296 586,-296"/>
<polygon fill="#f5f5f5" stroke="transparent" points="588,-382 588,-404 1022,-404 1022,-382 588,-382"/>
<polygon fill="none" stroke="black" points="588,-382 588,-404 1022,-404 1022,-382 588,-382"/>
<text text-anchor="start" x="593" y="-391.2" font-family="Helvetica,sans-Serif" font-weight="bold" font-size="11.00">m_loan_reschedule_request_term_variations_mapping</text>
<text text-anchor="start" x="987" y="-390.2" font-family="Helvetica,sans-Serif" font-size="11.00">[table]</text>
<polygon fill="none" stroke="black" points="588,-360 588,-382 972,-382 972,-360 588,-360"/>
<image xlink:href="../../images/primaryKeys.png" width="11px" height="12px" preserveAspectRatio="xMinYMin meet" x="593" y="-377"/>
<text text-anchor="start" x="608" y="-368.2" font-family="Helvetica,sans-Serif" font-size="11.00">id</text>
<polygon fill="none" stroke="black" points="972,-360 972,-382 1022,-382 1022,-360 972,-360"/>
<text text-anchor="start" x="975" y="-368.2" font-family="Helvetica,sans-Serif" font-size="11.00">bigint[19]</text>
<polygon fill="#ffffff" stroke="transparent" points="588,-338 588,-360 972,-360 972,-338 588,-338"/>
<polygon fill="none" stroke="black" points="588,-338 588,-360 972,-360 972,-338 588,-338"/>
<image xlink:href="../../images/foreignKeys.png" width="11px" height="12px" preserveAspectRatio="xMinYMin meet" x="593" y="-355"/>
<text text-anchor="start" x="608" y="-346.2" font-family="Helvetica,sans-Serif" font-size="11.00">loan_reschedule_request_id</text>
<polygon fill="none" stroke="black" points="972,-338 972,-360 1022,-360 1022,-338 972,-338"/>
<text text-anchor="start" x="975" y="-346.2" font-family="Helvetica,sans-Serif" font-size="11.00">bigint[19]</text>
<polygon fill="#ffffff" stroke="transparent" points="588,-316 588,-338 972,-338 972,-316 588,-316"/>
<polygon fill="none" stroke="black" points="588,-316 588,-338 972,-338 972,-316 588,-316"/>
<image xlink:href="../../images/foreignKeys.png" width="11px" height="12px" preserveAspectRatio="xMinYMin meet" x="593" y="-333"/>
<text text-anchor="start" x="608" y="-324.2" font-family="Helvetica,sans-Serif" font-size="11.00">loan_term_variations_id</text>
<polygon fill="none" stroke="black" points="972,-316 972,-338 1022,-338 1022,-316 972,-316"/>
<text text-anchor="start" x="975" y="-324.2" font-family="Helvetica,sans-Serif" font-size="11.00">bigint[19]</text>
<polygon fill="#ffffff" stroke="transparent" points="588,-298 588,-316 771,-316 771,-298 588,-298"/>
<polygon fill="none" stroke="black" points="588,-298 588,-316 771,-316 771,-298 588,-298"/>
<text text-anchor="start" x="591" y="-304.2" font-family="Helvetica,sans-Serif" font-size="11.00">&lt; 2</text>
<polygon fill="#ffffff" stroke="transparent" points="771,-298 771,-316 972,-316 972,-298 771,-298"/>
<polygon fill="none" stroke="black" points="771,-298 771,-316 972,-316 972,-298 771,-298"/>
<text text-anchor="start" x="936" y="-304.2" font-family="Helvetica,sans-Serif" font-size="11.00">0 rows</text>
<polygon fill="#ffffff" stroke="transparent" points="972,-298 972,-316 1022,-316 1022,-298 972,-298"/>
<polygon fill="none" stroke="black" points="972,-298 972,-316 1022,-316 1022,-298 972,-298"/>
<text text-anchor="start" x="1003" y="-304.2" font-family="Helvetica,sans-Serif" font-size="11.00">0 &gt;</text>
<polygon fill="none" stroke="black" stroke-width="2" points="587,-297 587,-405 1023,-405 1023,-297 587,-297"/>
</a>
</g>
</g>
<!-- m_loan_reschedule_request_term_variations_mapping&#45;&gt;m_loan_reschedule_request -->
<g id="edge16" class="edge">
<title>m_loan_reschedule_request_term_variations_mapping:w&#45;&gt;m_loan_reschedule_request:e</title>
<path fill="none" stroke="black" d="M572.7,-346.18C528.97,-325.17 604.46,-194 538,-194"/>
<polygon fill="black" stroke="black" points="579.15,-347.45 586.3,-352.53 583.08,-348.23 587,-349 587,-349 587,-349 583.08,-348.23 587.7,-345.47 579.15,-347.45 579.15,-347.45"/>
<ellipse fill="none" stroke="black" cx="576.01" cy="-346.83" rx="3.2" ry="3.2"/>
</g>
<!-- m_loan_term_variations -->
<g id="node7" class="node">
<title>m_loan_term_variations</title>
<g id="a_node7"><a xlink:href="../../tables/m_loan_term_variations.html" xlink:title="m_loan_term_variations" target="_top">
<polygon fill="#ffffff" stroke="transparent" points="333,-275 333,-377 525,-377 525,-275 333,-275"/>
<polygon fill="#f5f5f5" stroke="transparent" points="333,-355 333,-377 525,-377 525,-355 333,-355"/>
<polygon fill="none" stroke="black" points="333,-355 333,-377 525,-377 525,-355 333,-355"/>
<text text-anchor="start" x="338" y="-364.2" font-family="Helvetica,sans-Serif" font-weight="bold" font-size="11.00">m_loan_term_variations</text>
<text text-anchor="start" x="490" y="-363.2" font-family="Helvetica,sans-Serif" font-size="11.00">[table]</text>
<polygon fill="none" stroke="black" points="333,-333 333,-355 525,-355 525,-333 333,-333"/>
<image xlink:href="../../images/primaryKeys.png" width="11px" height="12px" preserveAspectRatio="xMinYMin meet" x="338" y="-350"/>
<text text-anchor="start" x="353" y="-341.2" font-family="Helvetica,sans-Serif" font-size="11.00">id</text>
<polygon fill="#ffffff" stroke="transparent" points="333,-311 333,-333 525,-333 525,-311 333,-311"/>
<polygon fill="none" stroke="black" points="333,-311 333,-333 525,-333 525,-311 333,-311"/>
<image xlink:href="../../images/foreignKeys.png" width="11px" height="12px" preserveAspectRatio="xMinYMin meet" x="338" y="-328"/>
<text text-anchor="start" x="353" y="-319.2" font-family="Helvetica,sans-Serif" font-size="11.00">loan_id</text>
<polygon fill="none" stroke="black" points="333,-293 333,-311 525,-311 525,-293 333,-293"/>
<text text-anchor="start" x="336" y="-299.2" font-family="Helvetica,sans-Serif" font-size="11.00">...</text>
<polygon fill="#ffffff" stroke="transparent" points="333,-275 333,-293 409,-293 409,-275 333,-275"/>
<polygon fill="none" stroke="black" points="333,-275 333,-293 409,-293 409,-275 333,-275"/>
<text text-anchor="start" x="336" y="-281.2" font-family="Helvetica,sans-Serif" font-size="11.00">&lt; 1</text>
<polygon fill="#ffffff" stroke="transparent" points="409,-275 409,-293 475,-293 475,-275 409,-275"/>
<polygon fill="none" stroke="black" points="409,-275 409,-293 475,-293 475,-275 409,-275"/>
<text text-anchor="start" x="439" y="-281.2" font-family="Helvetica,sans-Serif" font-size="11.00">0 rows</text>
<polygon fill="#ffffff" stroke="transparent" points="475,-275 475,-293 525,-293 525,-275 475,-275"/>
<polygon fill="none" stroke="black" points="475,-275 475,-293 525,-293 525,-275 475,-275"/>
<text text-anchor="start" x="506" y="-281.2" font-family="Helvetica,sans-Serif" font-size="11.00">1 &gt;</text>
</a>
</g>
</g>
<!-- m_loan_reschedule_request_term_variations_mapping&#45;&gt;m_loan_term_variations -->
<g id="edge17" class="edge">
<title>m_loan_reschedule_request_term_variations_mapping:w&#45;&gt;m_loan_term_variations:e</title>
<path fill="none" stroke="black" d="M572.36,-328.82C555.97,-333.2 548.43,-344 526,-344"/>
<polygon fill="black" stroke="black" points="579.06,-327.99 587.44,-330.57 583.03,-327.49 587,-327 587,-327 587,-327 583.03,-327.49 586.56,-323.43 579.06,-327.99 579.06,-327.99"/>
<ellipse fill="none" stroke="black" cx="575.89" cy="-328.38" rx="3.2" ry="3.2"/>
</g>
<!-- m_loan_term_variations&#45;&gt;m_loan -->
<g id="edge18" class="edge">
<title>m_loan_term_variations:w&#45;&gt;m_loan:e</title>
<path fill="none" stroke="black" d="M317.78,-319.12C277.18,-299.3 334.39,-184 273.5,-184"/>
<polygon fill="black" stroke="black" points="324.16,-320.41 331.28,-325.53 328.08,-321.21 332,-322 332,-322 332,-322 328.08,-321.21 332.72,-318.47 324.16,-320.41 324.16,-320.41"/>
<ellipse fill="none" stroke="black" cx="321.02" cy="-319.78" rx="3.2" ry="3.2"/>
</g>
</g>
</svg>
