<?xml version="1.0" encoding="UTF-8" standalone="no"?>
<!DOCTYPE svg PUBLIC "-//W3C//DTD SVG 1.1//EN"
 "http://www.w3.org/Graphics/SVG/1.1/DTD/svg11.dtd">
<!-- Generated by graphviz version 2.43.0 (0)
 -->
<!-- Title: oneDegreeRelationshipsDiagram Pages: 1 -->
<svg width="934pt" height="654pt"
 viewBox="0.00 0.00 934.00 654.00" xmlns="http://www.w3.org/2000/svg" xmlns:xlink="http://www.w3.org/1999/xlink">
<g id="graph0" class="graph" transform="scale(1 1) rotate(0) translate(4 650)">
<title>oneDegreeRelationshipsDiagram</title>
<polygon fill="#ffffff" stroke="transparent" points="-4,4 -4,-650 930,-650 930,4 -4,4"/>
<text text-anchor="middle" x="71.5" y="-7.2" font-family="Helvetica,sans-Serif" font-size="11.00">Generated by SchemaSpy</text>
<!-- m_account_transfer_details -->
<g id="node1" class="node">
<title>m_account_transfer_details</title>
<g id="a_node1"><a xlink:href="../../tables/m_account_transfer_details.html" xlink:title="m_account_transfer_details" target="_top">
<polygon fill="#ffffff" stroke="transparent" points="385,-283 385,-539 590,-539 590,-283 385,-283"/>
<polygon fill="#f5f5f5" stroke="transparent" points="385.5,-517 385.5,-539 590.5,-539 590.5,-517 385.5,-517"/>
<polygon fill="none" stroke="black" points="385.5,-517 385.5,-539 590.5,-539 590.5,-517 385.5,-517"/>
<text text-anchor="start" x="390.5" y="-526.2" font-family="Helvetica,sans-Serif" font-weight="bold" font-size="11.00">m_account_transfer_details</text>
<text text-anchor="start" x="555.5" y="-525.2" font-family="Helvetica,sans-Serif" font-size="11.00">[table]</text>
<polygon fill="none" stroke="black" points="385.5,-495 385.5,-517 590.5,-517 590.5,-495 385.5,-495"/>
<image xlink:href="../../images/primaryKeys.png" width="11px" height="12px" preserveAspectRatio="xMinYMin meet" x="390.5" y="-512"/>
<text text-anchor="start" x="405.5" y="-503.2" font-family="Helvetica,sans-Serif" font-size="11.00">id</text>
<polygon fill="#ffffff" stroke="transparent" points="385.5,-473 385.5,-495 590.5,-495 590.5,-473 385.5,-473"/>
<polygon fill="none" stroke="black" points="385.5,-473 385.5,-495 590.5,-495 590.5,-473 385.5,-473"/>
<image xlink:href="../../images/foreignKeys.png" width="11px" height="12px" preserveAspectRatio="xMinYMin meet" x="390.5" y="-490"/>
<text text-anchor="start" x="405.5" y="-481.2" font-family="Helvetica,sans-Serif" font-size="11.00">from_office_id</text>
<polygon fill="#ffffff" stroke="transparent" points="385.5,-451 385.5,-473 590.5,-473 590.5,-451 385.5,-451"/>
<polygon fill="none" stroke="black" points="385.5,-451 385.5,-473 590.5,-473 590.5,-451 385.5,-451"/>
<image xlink:href="../../images/foreignKeys.png" width="11px" height="12px" preserveAspectRatio="xMinYMin meet" x="390.5" y="-468"/>
<text text-anchor="start" x="405.5" y="-459.2" font-family="Helvetica,sans-Serif" font-size="11.00">to_office_id</text>
<polygon fill="#ffffff" stroke="transparent" points="385.5,-429 385.5,-451 590.5,-451 590.5,-429 385.5,-429"/>
<polygon fill="none" stroke="black" points="385.5,-429 385.5,-451 590.5,-451 590.5,-429 385.5,-429"/>
<image xlink:href="../../images/foreignKeys.png" width="11px" height="12px" preserveAspectRatio="xMinYMin meet" x="390.5" y="-446"/>
<text text-anchor="start" x="405.5" y="-437.2" font-family="Helvetica,sans-Serif" font-size="11.00">from_client_id</text>
<polygon fill="#ffffff" stroke="transparent" points="385.5,-407 385.5,-429 590.5,-429 590.5,-407 385.5,-407"/>
<polygon fill="none" stroke="black" points="385.5,-407 385.5,-429 590.5,-429 590.5,-407 385.5,-407"/>
<image xlink:href="../../images/foreignKeys.png" width="11px" height="12px" preserveAspectRatio="xMinYMin meet" x="390.5" y="-424"/>
<text text-anchor="start" x="405.5" y="-415.2" font-family="Helvetica,sans-Serif" font-size="11.00">to_client_id</text>
<polygon fill="#ffffff" stroke="transparent" points="385.5,-385 385.5,-407 590.5,-407 590.5,-385 385.5,-385"/>
<polygon fill="none" stroke="black" points="385.5,-385 385.5,-407 590.5,-407 590.5,-385 385.5,-385"/>
<image xlink:href="../../images/foreignKeys.png" width="11px" height="12px" preserveAspectRatio="xMinYMin meet" x="390.5" y="-402"/>
<text text-anchor="start" x="405.5" y="-393.2" font-family="Helvetica,sans-Serif" font-size="11.00">from_savings_account_id</text>
<polygon fill="#ffffff" stroke="transparent" points="385.5,-363 385.5,-385 590.5,-385 590.5,-363 385.5,-363"/>
<polygon fill="none" stroke="black" points="385.5,-363 385.5,-385 590.5,-385 590.5,-363 385.5,-363"/>
<image xlink:href="../../images/foreignKeys.png" width="11px" height="12px" preserveAspectRatio="xMinYMin meet" x="390.5" y="-380"/>
<text text-anchor="start" x="405.5" y="-371.2" font-family="Helvetica,sans-Serif" font-size="11.00">to_savings_account_id</text>
<polygon fill="#ffffff" stroke="transparent" points="385.5,-341 385.5,-363 590.5,-363 590.5,-341 385.5,-341"/>
<polygon fill="none" stroke="black" points="385.5,-341 385.5,-363 590.5,-363 590.5,-341 385.5,-341"/>
<image xlink:href="../../images/foreignKeys.png" width="11px" height="12px" preserveAspectRatio="xMinYMin meet" x="390.5" y="-358"/>
<text text-anchor="start" x="405.5" y="-349.2" font-family="Helvetica,sans-Serif" font-size="11.00">from_loan_account_id</text>
<polygon fill="#ffffff" stroke="transparent" points="385.5,-319 385.5,-341 590.5,-341 590.5,-319 385.5,-319"/>
<polygon fill="none" stroke="black" points="385.5,-319 385.5,-341 590.5,-341 590.5,-319 385.5,-319"/>
<image xlink:href="../../images/foreignKeys.png" width="11px" height="12px" preserveAspectRatio="xMinYMin meet" x="390.5" y="-336"/>
<text text-anchor="start" x="405.5" y="-327.2" font-family="Helvetica,sans-Serif" font-size="11.00">to_loan_account_id</text>
<polygon fill="none" stroke="black" points="385.5,-301 385.5,-319 590.5,-319 590.5,-301 385.5,-301"/>
<text text-anchor="start" x="388.5" y="-307.2" font-family="Helvetica,sans-Serif" font-size="11.00">...</text>
<polygon fill="#ffffff" stroke="transparent" points="385.5,-283 385.5,-301 468.5,-301 468.5,-283 385.5,-283"/>
<polygon fill="none" stroke="black" points="385.5,-283 385.5,-301 468.5,-301 468.5,-283 385.5,-283"/>
<text text-anchor="start" x="388.5" y="-289.2" font-family="Helvetica,sans-Serif" font-size="11.00">&lt; 8</text>
<polygon fill="#ffffff" stroke="transparent" points="468.5,-283 468.5,-301 537.5,-301 537.5,-283 468.5,-283"/>
<polygon fill="none" stroke="black" points="468.5,-283 468.5,-301 537.5,-301 537.5,-283 468.5,-283"/>
<text text-anchor="start" x="501.5" y="-289.2" font-family="Helvetica,sans-Serif" font-size="11.00">0 rows</text>
<polygon fill="#ffffff" stroke="transparent" points="537.5,-283 537.5,-301 590.5,-301 590.5,-283 537.5,-283"/>
<polygon fill="none" stroke="black" points="537.5,-283 537.5,-301 590.5,-301 590.5,-283 537.5,-283"/>
<text text-anchor="start" x="571.5" y="-289.2" font-family="Helvetica,sans-Serif" font-size="11.00">3 &gt;</text>
</a>
</g>
</g>
<!-- m_loan -->
<g id="node2" class="node">
<title>m_loan</title>
<g id="a_node2"><a xlink:href="../../tables/m_loan.html" xlink:title="m_loan" target="_top">
<polygon fill="#ffffff" stroke="transparent" points="8,-37 8,-491 336,-491 336,-37 8,-37"/>
<polygon fill="#f5f5f5" stroke="transparent" points="8,-469 8,-491 336,-491 336,-469 8,-469"/>
<polygon fill="none" stroke="black" points="8,-469 8,-491 336,-491 336,-469 8,-469"/>
<text text-anchor="start" x="13" y="-478.2" font-family="Helvetica,sans-Serif" font-weight="bold" font-size="11.00">m_loan</text>
<text text-anchor="start" x="301" y="-477.2" font-family="Helvetica,sans-Serif" font-size="11.00">[table]</text>
<polygon fill="none" stroke="black" points="8,-447 8,-469 336,-469 336,-447 8,-447"/>
<image xlink:href="../../images/primaryKeys.png" width="11px" height="12px" preserveAspectRatio="xMinYMin meet" x="13" y="-464"/>
<text text-anchor="start" x="28" y="-455.2" font-family="Helvetica,sans-Serif" font-size="11.00">id</text>
<polygon fill="#ffffff" stroke="transparent" points="8,-425 8,-447 336,-447 336,-425 8,-425"/>
<polygon fill="none" stroke="black" points="8,-425 8,-447 336,-447 336,-425 8,-425"/>
<text text-anchor="start" x="28" y="-433.2" font-family="Helvetica,sans-Serif" font-size="11.00">account_no</text>
<polygon fill="#ffffff" stroke="transparent" points="8,-403 8,-425 336,-425 336,-403 8,-403"/>
<polygon fill="none" stroke="black" points="8,-403 8,-425 336,-425 336,-403 8,-403"/>
<text text-anchor="start" x="28" y="-411.2" font-family="Helvetica,sans-Serif" font-size="11.00">external_id</text>
<polygon fill="#ffffff" stroke="transparent" points="8,-381 8,-403 336,-403 336,-381 8,-381"/>
<polygon fill="none" stroke="black" points="8,-381 8,-403 336,-403 336,-381 8,-381"/>
<image xlink:href="../../images/foreignKeys.png" width="11px" height="12px" preserveAspectRatio="xMinYMin meet" x="13" y="-398"/>
<text text-anchor="start" x="28" y="-389.2" font-family="Helvetica,sans-Serif" font-size="11.00">client_id</text>
<polygon fill="#ffffff" stroke="transparent" points="8,-359 8,-381 336,-381 336,-359 8,-359"/>
<polygon fill="none" stroke="black" points="8,-359 8,-381 336,-381 336,-359 8,-359"/>
<image xlink:href="../../images/foreignKeys.png" width="11px" height="12px" preserveAspectRatio="xMinYMin meet" x="13" y="-376"/>
<text text-anchor="start" x="28" y="-367.2" font-family="Helvetica,sans-Serif" font-size="11.00">group_id</text>
<polygon fill="#ffffff" stroke="transparent" points="8,-337 8,-359 336,-359 336,-337 8,-337"/>
<polygon fill="none" stroke="black" points="8,-337 8,-359 336,-359 336,-337 8,-337"/>
<image xlink:href="../../images/foreignKeys.png" width="11px" height="12px" preserveAspectRatio="xMinYMin meet" x="13" y="-354"/>
<text text-anchor="start" x="28" y="-345.2" font-family="Helvetica,sans-Serif" font-size="11.00">glim_id</text>
<polygon fill="#ffffff" stroke="transparent" points="8,-315 8,-337 336,-337 336,-315 8,-315"/>
<polygon fill="none" stroke="black" points="8,-315 8,-337 336,-337 336,-315 8,-315"/>
<image xlink:href="../../images/foreignKeys.png" width="11px" height="12px" preserveAspectRatio="xMinYMin meet" x="13" y="-332"/>
<text text-anchor="start" x="28" y="-323.2" font-family="Helvetica,sans-Serif" font-size="11.00">product_id</text>
<polygon fill="#ffffff" stroke="transparent" points="8,-293 8,-315 336,-315 336,-293 8,-293"/>
<polygon fill="none" stroke="black" points="8,-293 8,-315 336,-315 336,-293 8,-293"/>
<image xlink:href="../../images/foreignKeys.png" width="11px" height="12px" preserveAspectRatio="xMinYMin meet" x="13" y="-310"/>
<text text-anchor="start" x="28" y="-301.2" font-family="Helvetica,sans-Serif" font-size="11.00">fund_id</text>
<polygon fill="#ffffff" stroke="transparent" points="8,-271 8,-293 336,-293 336,-271 8,-271"/>
<polygon fill="none" stroke="black" points="8,-271 8,-293 336,-293 336,-271 8,-271"/>
<image xlink:href="../../images/foreignKeys.png" width="11px" height="12px" preserveAspectRatio="xMinYMin meet" x="13" y="-288"/>
<text text-anchor="start" x="28" y="-279.2" font-family="Helvetica,sans-Serif" font-size="11.00">loan_officer_id</text>
<polygon fill="#ffffff" stroke="transparent" points="8,-249 8,-271 336,-271 336,-249 8,-249"/>
<polygon fill="none" stroke="black" points="8,-249 8,-271 336,-271 336,-249 8,-249"/>
<image xlink:href="../../images/foreignKeys.png" width="11px" height="12px" preserveAspectRatio="xMinYMin meet" x="13" y="-266"/>
<text text-anchor="start" x="28" y="-257.2" font-family="Helvetica,sans-Serif" font-size="11.00">loanpurpose_cv_id</text>
<polygon fill="#ffffff" stroke="transparent" points="8,-227 8,-249 336,-249 336,-227 8,-227"/>
<polygon fill="none" stroke="black" points="8,-227 8,-249 336,-249 336,-227 8,-227"/>
<image xlink:href="../../images/foreignKeys.png" width="11px" height="12px" preserveAspectRatio="xMinYMin meet" x="13" y="-244"/>
<text text-anchor="start" x="28" y="-235.2" font-family="Helvetica,sans-Serif" font-size="11.00">submittedon_userid</text>
<polygon fill="#ffffff" stroke="transparent" points="8,-205 8,-227 336,-227 336,-205 8,-205"/>
<polygon fill="none" stroke="black" points="8,-205 8,-227 336,-227 336,-205 8,-205"/>
<image xlink:href="../../images/foreignKeys.png" width="11px" height="12px" preserveAspectRatio="xMinYMin meet" x="13" y="-222"/>
<text text-anchor="start" x="28" y="-213.2" font-family="Helvetica,sans-Serif" font-size="11.00">approvedon_userid</text>
<polygon fill="#ffffff" stroke="transparent" points="8,-183 8,-205 336,-205 336,-183 8,-183"/>
<polygon fill="none" stroke="black" points="8,-183 8,-205 336,-205 336,-183 8,-183"/>
<image xlink:href="../../images/foreignKeys.png" width="11px" height="12px" preserveAspectRatio="xMinYMin meet" x="13" y="-200"/>
<text text-anchor="start" x="28" y="-191.2" font-family="Helvetica,sans-Serif" font-size="11.00">disbursedon_userid</text>
<polygon fill="#ffffff" stroke="transparent" points="8,-161 8,-183 336,-183 336,-161 8,-161"/>
<polygon fill="none" stroke="black" points="8,-161 8,-183 336,-183 336,-161 8,-161"/>
<image xlink:href="../../images/foreignKeys.png" width="11px" height="12px" preserveAspectRatio="xMinYMin meet" x="13" y="-178"/>
<text text-anchor="start" x="28" y="-169.2" font-family="Helvetica,sans-Serif" font-size="11.00">closedon_userid</text>
<polygon fill="#ffffff" stroke="transparent" points="8,-139 8,-161 336,-161 336,-139 8,-139"/>
<polygon fill="none" stroke="black" points="8,-139 8,-161 336,-161 336,-139 8,-139"/>
<image xlink:href="../../images/foreignKeys.png" width="11px" height="12px" preserveAspectRatio="xMinYMin meet" x="13" y="-156"/>
<text text-anchor="start" x="28" y="-147.2" font-family="Helvetica,sans-Serif" font-size="11.00">rejectedon_userid</text>
<polygon fill="#ffffff" stroke="transparent" points="8,-117 8,-139 336,-139 336,-117 8,-117"/>
<polygon fill="none" stroke="black" points="8,-117 8,-139 336,-139 336,-117 8,-117"/>
<image xlink:href="../../images/foreignKeys.png" width="11px" height="12px" preserveAspectRatio="xMinYMin meet" x="13" y="-134"/>
<text text-anchor="start" x="28" y="-125.2" font-family="Helvetica,sans-Serif" font-size="11.00">withdrawnon_userid</text>
<polygon fill="#ffffff" stroke="transparent" points="8,-95 8,-117 336,-117 336,-95 8,-95"/>
<polygon fill="none" stroke="black" points="8,-95 8,-117 336,-117 336,-95 8,-95"/>
<image xlink:href="../../images/foreignKeys.png" width="11px" height="12px" preserveAspectRatio="xMinYMin meet" x="13" y="-112"/>
<text text-anchor="start" x="28" y="-103.2" font-family="Helvetica,sans-Serif" font-size="11.00">loan_transaction_strategy_id</text>
<polygon fill="#ffffff" stroke="transparent" points="8,-73 8,-95 336,-95 336,-73 8,-73"/>
<polygon fill="none" stroke="black" points="8,-73 8,-95 336,-95 336,-73 8,-73"/>
<image xlink:href="../../images/foreignKeys.png" width="11px" height="12px" preserveAspectRatio="xMinYMin meet" x="13" y="-90"/>
<text text-anchor="start" x="28" y="-81.2" font-family="Helvetica,sans-Serif" font-size="11.00">writeoff_reason_cv_id</text>
<polygon fill="none" stroke="black" points="8,-55 8,-73 336,-73 336,-55 8,-55"/>
<text text-anchor="start" x="11" y="-61.2" font-family="Helvetica,sans-Serif" font-size="11.00">...</text>
<polygon fill="#ffffff" stroke="transparent" points="8,-37 8,-55 152,-55 152,-37 8,-37"/>
<polygon fill="none" stroke="black" points="8,-37 8,-55 152,-55 152,-37 8,-37"/>
<text text-anchor="start" x="11" y="-43.2" font-family="Helvetica,sans-Serif" font-size="11.00">&lt; 15</text>
<polygon fill="#ffffff" stroke="transparent" points="152,-37 152,-55 249,-55 249,-37 152,-37"/>
<polygon fill="none" stroke="black" points="152,-37 152,-55 249,-55 249,-37 152,-37"/>
<text text-anchor="start" x="213" y="-43.2" font-family="Helvetica,sans-Serif" font-size="11.00">0 rows</text>
<polygon fill="#ffffff" stroke="transparent" points="249,-37 249,-55 336,-55 336,-37 249,-37"/>
<polygon fill="none" stroke="black" points="249,-37 249,-55 336,-55 336,-37 249,-37"/>
<text text-anchor="start" x="311" y="-43.2" font-family="Helvetica,sans-Serif" font-size="11.00">24 &gt;</text>
</a>
</g>
</g>
<!-- m_account_transfer_details&#45;&gt;m_loan -->
<g id="edge1" class="edge">
<title>m_account_transfer_details:w&#45;&gt;m_loan:e</title>
<path fill="none" stroke="black" d="M370.43,-356.03C344.47,-375.39 382.58,-458 337,-458"/>
<polygon fill="black" stroke="black" points="376.81,-354.2 385.49,-355.46 380.65,-353.1 384.5,-352 384.5,-352 384.5,-352 380.65,-353.1 383.51,-348.54 376.81,-354.2 376.81,-354.2"/>
<ellipse fill="none" stroke="black" cx="373.73" cy="-355.08" rx="3.2" ry="3.2"/>
</g>
<!-- m_account_transfer_details&#45;&gt;m_loan -->
<g id="edge2" class="edge">
<title>m_account_transfer_details:w&#45;&gt;m_loan:e</title>
<path fill="none" stroke="black" d="M370.32,-333.42C336.96,-353.78 391.75,-458 337,-458"/>
<polygon fill="black" stroke="black" points="376.72,-331.88 385.35,-333.5 380.61,-330.94 384.5,-330 384.5,-330 384.5,-330 380.61,-330.94 383.65,-326.5 376.72,-331.88 376.72,-331.88"/>
<ellipse fill="none" stroke="black" cx="373.61" cy="-332.63" rx="3.2" ry="3.2"/>
</g>
<!-- m_loan_topup -->
<g id="node3" class="node">
<title>m_loan_topup</title>
<g id="a_node3"><a xlink:href="../../tables/m_loan_topup.html" xlink:title="m_loan_topup" target="_top">
<polygon fill="#ffffff" stroke="transparent" points="639,-488 639,-642 918,-642 918,-488 639,-488"/>
<polygon fill="#f5f5f5" stroke="transparent" points="641.5,-618 641.5,-640 916.5,-640 916.5,-618 641.5,-618"/>
<polygon fill="none" stroke="black" points="641.5,-618 641.5,-640 916.5,-640 916.5,-618 641.5,-618"/>
<text text-anchor="start" x="646.5" y="-627.2" font-family="Helvetica,sans-Serif" font-weight="bold" font-size="11.00">m_loan_topup</text>
<text text-anchor="start" x="881.5" y="-626.2" font-family="Helvetica,sans-Serif" font-size="11.00">[table]</text>
<polygon fill="none" stroke="black" points="641.5,-596 641.5,-618 846.5,-618 846.5,-596 641.5,-596"/>
<image xlink:href="../../images/primaryKeys.png" width="11px" height="12px" preserveAspectRatio="xMinYMin meet" x="646.5" y="-613"/>
<text text-anchor="start" x="661.5" y="-604.2" font-family="Helvetica,sans-Serif" font-size="11.00">id</text>
<polygon fill="none" stroke="black" points="846.5,-596 846.5,-618 916.5,-618 916.5,-596 846.5,-596"/>
<text text-anchor="start" x="849.5" y="-604.2" font-family="Helvetica,sans-Serif" font-size="11.00">bigint[19]</text>
<polygon fill="#ffffff" stroke="transparent" points="641.5,-574 641.5,-596 846.5,-596 846.5,-574 641.5,-574"/>
<polygon fill="none" stroke="black" points="641.5,-574 641.5,-596 846.5,-596 846.5,-574 641.5,-574"/>
<image xlink:href="../../images/foreignKeys.png" width="11px" height="12px" preserveAspectRatio="xMinYMin meet" x="646.5" y="-591"/>
<text text-anchor="start" x="661.5" y="-582.2" font-family="Helvetica,sans-Serif" font-size="11.00">loan_id</text>
<polygon fill="none" stroke="black" points="846.5,-574 846.5,-596 916.5,-596 916.5,-574 846.5,-574"/>
<text text-anchor="start" x="849.5" y="-582.2" font-family="Helvetica,sans-Serif" font-size="11.00">bigint[19]</text>
<polygon fill="#ffffff" stroke="transparent" points="641.5,-552 641.5,-574 846.5,-574 846.5,-552 641.5,-552"/>
<polygon fill="none" stroke="black" points="641.5,-552 641.5,-574 846.5,-574 846.5,-552 641.5,-552"/>
<image xlink:href="../../images/foreignKeys.png" width="11px" height="12px" preserveAspectRatio="xMinYMin meet" x="646.5" y="-569"/>
<text text-anchor="start" x="661.5" y="-560.2" font-family="Helvetica,sans-Serif" font-size="11.00">closure_loan_id</text>
<polygon fill="none" stroke="black" points="846.5,-552 846.5,-574 916.5,-574 916.5,-552 846.5,-552"/>
<text text-anchor="start" x="849.5" y="-560.2" font-family="Helvetica,sans-Serif" font-size="11.00">bigint[19]</text>
<polygon fill="#ffffff" stroke="transparent" points="641.5,-530 641.5,-552 846.5,-552 846.5,-530 641.5,-530"/>
<polygon fill="none" stroke="black" points="641.5,-530 641.5,-552 846.5,-552 846.5,-530 641.5,-530"/>
<image xlink:href="../../images/foreignKeys.png" width="11px" height="12px" preserveAspectRatio="xMinYMin meet" x="646.5" y="-547"/>
<text text-anchor="start" x="661.5" y="-538.2" font-family="Helvetica,sans-Serif" font-size="11.00">account_transfer_details_id</text>
<polygon fill="none" stroke="black" points="846.5,-530 846.5,-552 916.5,-552 916.5,-530 846.5,-530"/>
<text text-anchor="start" x="849.5" y="-538.2" font-family="Helvetica,sans-Serif" font-size="11.00">bigint[19]</text>
<polygon fill="none" stroke="black" points="641.5,-508 641.5,-530 846.5,-530 846.5,-508 641.5,-508"/>
<text text-anchor="start" x="661.5" y="-516.2" font-family="Helvetica,sans-Serif" font-size="11.00">topup_amount</text>
<polygon fill="none" stroke="black" points="846.5,-508 846.5,-530 916.5,-530 916.5,-508 846.5,-508"/>
<text text-anchor="start" x="849.5" y="-516.2" font-family="Helvetica,sans-Serif" font-size="11.00">decimal[19,6]</text>
<polygon fill="#ffffff" stroke="transparent" points="641.5,-490 641.5,-508 735.5,-508 735.5,-490 641.5,-490"/>
<polygon fill="none" stroke="black" points="641.5,-490 641.5,-508 735.5,-508 735.5,-490 641.5,-490"/>
<text text-anchor="start" x="644.5" y="-496.2" font-family="Helvetica,sans-Serif" font-size="11.00">&lt; 3</text>
<polygon fill="#ffffff" stroke="transparent" points="735.5,-490 735.5,-508 846.5,-508 846.5,-490 735.5,-490"/>
<polygon fill="none" stroke="black" points="735.5,-490 735.5,-508 846.5,-508 846.5,-490 735.5,-490"/>
<text text-anchor="start" x="810.5" y="-496.2" font-family="Helvetica,sans-Serif" font-size="11.00">0 rows</text>
<polygon fill="#ffffff" stroke="transparent" points="846.5,-490 846.5,-508 916.5,-508 916.5,-490 846.5,-490"/>
<polygon fill="none" stroke="black" points="846.5,-490 846.5,-508 916.5,-508 916.5,-490 846.5,-490"/>
<text text-anchor="start" x="897.5" y="-496.2" font-family="Helvetica,sans-Serif" font-size="11.00">0 &gt;</text>
<polygon fill="none" stroke="black" stroke-width="2" points="640,-489 640,-641 917,-641 917,-489 640,-489"/>
</a>
</g>
</g>
<!-- m_loan_topup&#45;&gt;m_account_transfer_details -->
<g id="edge3" class="edge">
<title>m_loan_topup:w&#45;&gt;m_account_transfer_details:e</title>
<path fill="none" stroke="black" d="M626.4,-536.42C614.18,-526.94 612.2,-506 591.5,-506"/>
<polygon fill="black" stroke="black" points="632.89,-538.53 639.39,-544.42 636.7,-539.77 640.5,-541 640.5,-541 640.5,-541 636.7,-539.77 641.61,-537.58 632.89,-538.53 632.89,-538.53"/>
<ellipse fill="none" stroke="black" cx="629.85" cy="-537.54" rx="3.2" ry="3.2"/>
</g>
<!-- m_loan_topup&#45;&gt;m_loan -->
<g id="edge4" class="edge">
<title>m_loan_topup:w&#45;&gt;m_loan:e</title>
<path fill="none" stroke="black" d="M625.91,-563.31C559.22,-565.72 421.64,-580.87 377,-550 340.33,-524.64 381.59,-458 337,-458"/>
<polygon fill="black" stroke="black" points="632.5,-563.17 640.58,-566.6 636.5,-563.08 640.5,-563 640.5,-563 640.5,-563 636.5,-563.08 640.42,-559.4 632.5,-563.17 632.5,-563.17"/>
<ellipse fill="none" stroke="black" cx="629.3" cy="-563.23" rx="3.2" ry="3.2"/>
</g>
<!-- m_loan_topup&#45;&gt;m_loan -->
<g id="edge5" class="edge">
<title>m_loan_topup:w&#45;&gt;m_loan:e</title>
<path fill="none" stroke="black" d="M626.06,-585.27C518.71,-589.34 466.97,-636.38 377,-569 335.03,-537.57 389.44,-458 337,-458"/>
<polygon fill="black" stroke="black" points="632.5,-585.15 640.57,-588.6 636.5,-585.08 640.5,-585 640.5,-585 640.5,-585 636.5,-585.08 640.43,-581.4 632.5,-585.15 632.5,-585.15"/>
<ellipse fill="none" stroke="black" cx="629.3" cy="-585.21" rx="3.2" ry="3.2"/>
</g>
</g>
</svg>
