<?xml version="1.0" encoding="UTF-8" standalone="no"?>
<!DOCTYPE svg PUBLIC "-//W3C//DTD SVG 1.1//EN"
 "http://www.w3.org/Graphics/SVG/1.1/DTD/svg11.dtd">
<!-- Generated by graphviz version 2.43.0 (0)
 -->
<!-- Title: oneDegreeRelationshipsDiagram Pages: 1 -->
<svg width="797pt" height="1008pt"
 viewBox="0.00 0.00 797.00 1008.00" xmlns="http://www.w3.org/2000/svg" xmlns:xlink="http://www.w3.org/1999/xlink">
<g id="graph0" class="graph" transform="scale(1 1) rotate(0) translate(4 1004)">
<title>oneDegreeRelationshipsDiagram</title>
<polygon fill="#ffffff" stroke="transparent" points="-4,4 -4,-1004 793,-1004 793,4 -4,4"/>
<text text-anchor="middle" x="71.5" y="-7.2" font-family="Helvetica,sans-Serif" font-size="11.00">Generated by SchemaSpy</text>
<!-- m_loanproduct_provisioning_entry -->
<g id="node1" class="node">
<title>m_loanproduct_provisioning_entry</title>
<g id="a_node1"><a xlink:href="../../tables/m_loanproduct_provisioning_entry.html" xlink:title="m_loanproduct_provisioning_entry" target="_top">
<polygon fill="#ffffff" stroke="transparent" points="454,-343 454,-629 781,-629 781,-343 454,-343"/>
<polygon fill="#f5f5f5" stroke="transparent" points="456.5,-605 456.5,-627 779.5,-627 779.5,-605 456.5,-605"/>
<polygon fill="none" stroke="black" points="456.5,-605 456.5,-627 779.5,-627 779.5,-605 456.5,-605"/>
<text text-anchor="start" x="461.5" y="-614.2" font-family="Helvetica,sans-Serif" font-weight="bold" font-size="11.00">m_loanproduct_provisioning_entry</text>
<text text-anchor="start" x="744.5" y="-613.2" font-family="Helvetica,sans-Serif" font-size="11.00">[table]</text>
<polygon fill="none" stroke="black" points="456.5,-583 456.5,-605 709.5,-605 709.5,-583 456.5,-583"/>
<image xlink:href="../../images/primaryKeys.png" width="11px" height="12px" preserveAspectRatio="xMinYMin meet" x="461.5" y="-600"/>
<text text-anchor="start" x="476.5" y="-591.2" font-family="Helvetica,sans-Serif" font-size="11.00">id</text>
<polygon fill="none" stroke="black" points="709.5,-583 709.5,-605 779.5,-605 779.5,-583 709.5,-583"/>
<text text-anchor="start" x="712.5" y="-591.2" font-family="Helvetica,sans-Serif" font-size="11.00">bigint[19]</text>
<polygon fill="#ffffff" stroke="transparent" points="456.5,-561 456.5,-583 709.5,-583 709.5,-561 456.5,-561"/>
<polygon fill="none" stroke="black" points="456.5,-561 456.5,-583 709.5,-583 709.5,-561 456.5,-561"/>
<image xlink:href="../../images/foreignKeys.png" width="11px" height="12px" preserveAspectRatio="xMinYMin meet" x="461.5" y="-578"/>
<text text-anchor="start" x="476.5" y="-569.2" font-family="Helvetica,sans-Serif" font-size="11.00">history_id</text>
<polygon fill="none" stroke="black" points="709.5,-561 709.5,-583 779.5,-583 779.5,-561 709.5,-561"/>
<text text-anchor="start" x="712.5" y="-569.2" font-family="Helvetica,sans-Serif" font-size="11.00">bigint[19]</text>
<polygon fill="#ffffff" stroke="transparent" points="456.5,-539 456.5,-561 709.5,-561 709.5,-539 456.5,-539"/>
<polygon fill="none" stroke="black" points="456.5,-539 456.5,-561 709.5,-561 709.5,-539 456.5,-539"/>
<image xlink:href="../../images/foreignKeys.png" width="11px" height="12px" preserveAspectRatio="xMinYMin meet" x="461.5" y="-556"/>
<text text-anchor="start" x="476.5" y="-547.2" font-family="Helvetica,sans-Serif" font-size="11.00">criteria_id</text>
<polygon fill="none" stroke="black" points="709.5,-539 709.5,-561 779.5,-561 779.5,-539 709.5,-539"/>
<text text-anchor="start" x="712.5" y="-547.2" font-family="Helvetica,sans-Serif" font-size="11.00">bigint[19]</text>
<polygon fill="none" stroke="black" points="456.5,-517 456.5,-539 709.5,-539 709.5,-517 456.5,-517"/>
<text text-anchor="start" x="476.5" y="-525.2" font-family="Helvetica,sans-Serif" font-size="11.00">currency_code</text>
<polygon fill="none" stroke="black" points="709.5,-517 709.5,-539 779.5,-539 779.5,-517 709.5,-517"/>
<text text-anchor="start" x="712.5" y="-525.2" font-family="Helvetica,sans-Serif" font-size="11.00">varchar[3]</text>
<polygon fill="#ffffff" stroke="transparent" points="456.5,-495 456.5,-517 709.5,-517 709.5,-495 456.5,-495"/>
<polygon fill="none" stroke="black" points="456.5,-495 456.5,-517 709.5,-517 709.5,-495 456.5,-495"/>
<image xlink:href="../../images/foreignKeys.png" width="11px" height="12px" preserveAspectRatio="xMinYMin meet" x="461.5" y="-512"/>
<text text-anchor="start" x="476.5" y="-503.2" font-family="Helvetica,sans-Serif" font-size="11.00">office_id</text>
<polygon fill="none" stroke="black" points="709.5,-495 709.5,-517 779.5,-517 779.5,-495 709.5,-495"/>
<text text-anchor="start" x="712.5" y="-503.2" font-family="Helvetica,sans-Serif" font-size="11.00">bigint[19]</text>
<polygon fill="#ffffff" stroke="transparent" points="456.5,-473 456.5,-495 709.5,-495 709.5,-473 456.5,-473"/>
<polygon fill="none" stroke="black" points="456.5,-473 456.5,-495 709.5,-495 709.5,-473 456.5,-473"/>
<image xlink:href="../../images/foreignKeys.png" width="11px" height="12px" preserveAspectRatio="xMinYMin meet" x="461.5" y="-490"/>
<text text-anchor="start" x="476.5" y="-481.2" font-family="Helvetica,sans-Serif" font-size="11.00">product_id</text>
<polygon fill="none" stroke="black" points="709.5,-473 709.5,-495 779.5,-495 779.5,-473 709.5,-473"/>
<text text-anchor="start" x="712.5" y="-481.2" font-family="Helvetica,sans-Serif" font-size="11.00">bigint[19]</text>
<polygon fill="#ffffff" stroke="transparent" points="456.5,-451 456.5,-473 709.5,-473 709.5,-451 456.5,-451"/>
<polygon fill="none" stroke="black" points="456.5,-451 456.5,-473 709.5,-473 709.5,-451 456.5,-451"/>
<image xlink:href="../../images/foreignKeys.png" width="11px" height="12px" preserveAspectRatio="xMinYMin meet" x="461.5" y="-468"/>
<text text-anchor="start" x="476.5" y="-459.2" font-family="Helvetica,sans-Serif" font-size="11.00">category_id</text>
<polygon fill="none" stroke="black" points="709.5,-451 709.5,-473 779.5,-473 779.5,-451 709.5,-451"/>
<text text-anchor="start" x="712.5" y="-459.2" font-family="Helvetica,sans-Serif" font-size="11.00">bigint[19]</text>
<polygon fill="none" stroke="black" points="456.5,-429 456.5,-451 709.5,-451 709.5,-429 456.5,-429"/>
<text text-anchor="start" x="476.5" y="-437.2" font-family="Helvetica,sans-Serif" font-size="11.00">overdue_in_days</text>
<polygon fill="none" stroke="black" points="709.5,-429 709.5,-451 779.5,-451 779.5,-429 709.5,-429"/>
<text text-anchor="start" x="712.5" y="-437.2" font-family="Helvetica,sans-Serif" font-size="11.00">bigint[19]</text>
<polygon fill="none" stroke="black" points="456.5,-407 456.5,-429 709.5,-429 709.5,-407 456.5,-407"/>
<text text-anchor="start" x="476.5" y="-415.2" font-family="Helvetica,sans-Serif" font-size="11.00">reseve_amount</text>
<polygon fill="none" stroke="black" points="709.5,-407 709.5,-429 779.5,-429 779.5,-407 709.5,-407"/>
<text text-anchor="start" x="712.5" y="-415.2" font-family="Helvetica,sans-Serif" font-size="11.00">decimal[20,6]</text>
<polygon fill="#ffffff" stroke="transparent" points="456.5,-385 456.5,-407 709.5,-407 709.5,-385 456.5,-385"/>
<polygon fill="none" stroke="black" points="456.5,-385 456.5,-407 709.5,-407 709.5,-385 456.5,-385"/>
<image xlink:href="../../images/foreignKeys.png" width="11px" height="12px" preserveAspectRatio="xMinYMin meet" x="461.5" y="-402"/>
<text text-anchor="start" x="476.5" y="-393.2" font-family="Helvetica,sans-Serif" font-size="11.00">liability_account</text>
<polygon fill="none" stroke="black" points="709.5,-385 709.5,-407 779.5,-407 779.5,-385 709.5,-385"/>
<text text-anchor="start" x="712.5" y="-393.2" font-family="Helvetica,sans-Serif" font-size="11.00">bigint[19]</text>
<polygon fill="#ffffff" stroke="transparent" points="456.5,-363 456.5,-385 709.5,-385 709.5,-363 456.5,-363"/>
<polygon fill="none" stroke="black" points="456.5,-363 456.5,-385 709.5,-385 709.5,-363 456.5,-363"/>
<image xlink:href="../../images/foreignKeys.png" width="11px" height="12px" preserveAspectRatio="xMinYMin meet" x="461.5" y="-380"/>
<text text-anchor="start" x="476.5" y="-371.2" font-family="Helvetica,sans-Serif" font-size="11.00">expense_account</text>
<polygon fill="none" stroke="black" points="709.5,-363 709.5,-385 779.5,-385 779.5,-363 709.5,-363"/>
<text text-anchor="start" x="712.5" y="-371.2" font-family="Helvetica,sans-Serif" font-size="11.00">bigint[19]</text>
<polygon fill="#ffffff" stroke="transparent" points="456.5,-345 456.5,-363 574.5,-363 574.5,-345 456.5,-345"/>
<polygon fill="none" stroke="black" points="456.5,-345 456.5,-363 574.5,-363 574.5,-345 456.5,-345"/>
<text text-anchor="start" x="459.5" y="-351.2" font-family="Helvetica,sans-Serif" font-size="11.00">&lt; 7</text>
<polygon fill="#ffffff" stroke="transparent" points="574.5,-345 574.5,-363 709.5,-363 709.5,-345 574.5,-345"/>
<polygon fill="none" stroke="black" points="574.5,-345 574.5,-363 709.5,-363 709.5,-345 574.5,-345"/>
<text text-anchor="start" x="673.5" y="-351.2" font-family="Helvetica,sans-Serif" font-size="11.00">0 rows</text>
<polygon fill="#ffffff" stroke="transparent" points="709.5,-345 709.5,-363 779.5,-363 779.5,-345 709.5,-345"/>
<polygon fill="none" stroke="black" points="709.5,-345 709.5,-363 779.5,-363 779.5,-345 709.5,-345"/>
<text text-anchor="start" x="760.5" y="-351.2" font-family="Helvetica,sans-Serif" font-size="11.00">0 &gt;</text>
<polygon fill="none" stroke="black" stroke-width="2" points="455,-344 455,-628 780,-628 780,-344 455,-344"/>
</a>
</g>
</g>
<!-- m_provision_category -->
<g id="node2" class="node">
<title>m_provision_category</title>
<g id="a_node2"><a xlink:href="../../tables/m_provision_category.html" xlink:title="m_provision_category" target="_top">
<polygon fill="#ffffff" stroke="transparent" points="123,-204 123,-306 290,-306 290,-204 123,-204"/>
<polygon fill="#f5f5f5" stroke="transparent" points="123.5,-284 123.5,-306 290.5,-306 290.5,-284 123.5,-284"/>
<polygon fill="none" stroke="black" points="123.5,-284 123.5,-306 290.5,-306 290.5,-284 123.5,-284"/>
<text text-anchor="start" x="128.5" y="-293.2" font-family="Helvetica,sans-Serif" font-weight="bold" font-size="11.00">m_provision_category</text>
<text text-anchor="start" x="255.5" y="-292.2" font-family="Helvetica,sans-Serif" font-size="11.00">[table]</text>
<polygon fill="none" stroke="black" points="123.5,-262 123.5,-284 290.5,-284 290.5,-262 123.5,-262"/>
<image xlink:href="../../images/primaryKeys.png" width="11px" height="12px" preserveAspectRatio="xMinYMin meet" x="128.5" y="-279"/>
<text text-anchor="start" x="143.5" y="-270.2" font-family="Helvetica,sans-Serif" font-size="11.00">id</text>
<polygon fill="#ffffff" stroke="transparent" points="123.5,-240 123.5,-262 290.5,-262 290.5,-240 123.5,-240"/>
<polygon fill="none" stroke="black" points="123.5,-240 123.5,-262 290.5,-262 290.5,-240 123.5,-240"/>
<text text-anchor="start" x="143.5" y="-248.2" font-family="Helvetica,sans-Serif" font-size="11.00">category_name</text>
<polygon fill="none" stroke="black" points="123.5,-222 123.5,-240 290.5,-240 290.5,-222 123.5,-222"/>
<text text-anchor="start" x="126.5" y="-228.2" font-family="Helvetica,sans-Serif" font-size="11.00">...</text>
<polygon fill="#ffffff" stroke="transparent" points="123.5,-204 123.5,-222 182.5,-222 182.5,-204 123.5,-204"/>
<polygon fill="none" stroke="black" points="123.5,-204 123.5,-222 182.5,-222 182.5,-204 123.5,-204"/>
<text text-anchor="start" x="126.5" y="-210.2" font-family="Helvetica,sans-Serif" font-size="11.00"> &#160;</text>
<polygon fill="#ffffff" stroke="transparent" points="182.5,-204 182.5,-222 244.5,-222 244.5,-204 182.5,-204"/>
<polygon fill="none" stroke="black" points="182.5,-204 182.5,-222 244.5,-222 244.5,-204 182.5,-204"/>
<text text-anchor="start" x="208.5" y="-210.2" font-family="Helvetica,sans-Serif" font-size="11.00">0 rows</text>
<polygon fill="#ffffff" stroke="transparent" points="244.5,-204 244.5,-222 290.5,-222 290.5,-204 244.5,-204"/>
<polygon fill="none" stroke="black" points="244.5,-204 244.5,-222 290.5,-222 290.5,-204 244.5,-204"/>
<text text-anchor="start" x="271.5" y="-210.2" font-family="Helvetica,sans-Serif" font-size="11.00">2 &gt;</text>
</a>
</g>
</g>
<!-- m_loanproduct_provisioning_entry&#45;&gt;m_provision_category -->
<g id="edge1" class="edge">
<title>m_loanproduct_provisioning_entry:w&#45;&gt;m_provision_category:e</title>
<path fill="none" stroke="black" d="M440.99,-459.95C399.33,-445.7 455.42,-360.91 413,-316 373.66,-274.36 348.78,-273 291.5,-273"/>
<polygon fill="black" stroke="black" points="447.58,-460.88 455,-465.56 451.54,-461.44 455.5,-462 455.5,-462 455.5,-462 451.54,-461.44 456,-458.44 447.58,-460.88 447.58,-460.88"/>
<ellipse fill="none" stroke="black" cx="444.41" cy="-460.43" rx="3.2" ry="3.2"/>
</g>
<!-- m_provisioning_criteria -->
<g id="node3" class="node">
<title>m_provisioning_criteria</title>
<g id="a_node3"><a xlink:href="../../tables/m_provisioning_criteria.html" xlink:title="m_provisioning_criteria" target="_top">
<polygon fill="#ffffff" stroke="transparent" points="117.5,-705 117.5,-851 295.5,-851 295.5,-705 117.5,-705"/>
<polygon fill="#f5f5f5" stroke="transparent" points="117.5,-829 117.5,-851 295.5,-851 295.5,-829 117.5,-829"/>
<polygon fill="none" stroke="black" points="117.5,-829 117.5,-851 295.5,-851 295.5,-829 117.5,-829"/>
<text text-anchor="start" x="122.5" y="-838.2" font-family="Helvetica,sans-Serif" font-weight="bold" font-size="11.00">m_provisioning_criteria</text>
<text text-anchor="start" x="260.5" y="-837.2" font-family="Helvetica,sans-Serif" font-size="11.00">[table]</text>
<polygon fill="none" stroke="black" points="117.5,-807 117.5,-829 295.5,-829 295.5,-807 117.5,-807"/>
<image xlink:href="../../images/primaryKeys.png" width="11px" height="12px" preserveAspectRatio="xMinYMin meet" x="122.5" y="-824"/>
<text text-anchor="start" x="137.5" y="-815.2" font-family="Helvetica,sans-Serif" font-size="11.00">id</text>
<polygon fill="#ffffff" stroke="transparent" points="117.5,-785 117.5,-807 295.5,-807 295.5,-785 117.5,-785"/>
<polygon fill="none" stroke="black" points="117.5,-785 117.5,-807 295.5,-807 295.5,-785 117.5,-785"/>
<text text-anchor="start" x="137.5" y="-793.2" font-family="Helvetica,sans-Serif" font-size="11.00">criteria_name</text>
<polygon fill="#ffffff" stroke="transparent" points="117.5,-763 117.5,-785 295.5,-785 295.5,-763 117.5,-763"/>
<polygon fill="none" stroke="black" points="117.5,-763 117.5,-785 295.5,-785 295.5,-763 117.5,-763"/>
<image xlink:href="../../images/foreignKeys.png" width="11px" height="12px" preserveAspectRatio="xMinYMin meet" x="122.5" y="-780"/>
<text text-anchor="start" x="137.5" y="-771.2" font-family="Helvetica,sans-Serif" font-size="11.00">createdby_id</text>
<polygon fill="#ffffff" stroke="transparent" points="117.5,-741 117.5,-763 295.5,-763 295.5,-741 117.5,-741"/>
<polygon fill="none" stroke="black" points="117.5,-741 117.5,-763 295.5,-763 295.5,-741 117.5,-741"/>
<image xlink:href="../../images/foreignKeys.png" width="11px" height="12px" preserveAspectRatio="xMinYMin meet" x="122.5" y="-758"/>
<text text-anchor="start" x="137.5" y="-749.2" font-family="Helvetica,sans-Serif" font-size="11.00">lastmodifiedby_id</text>
<polygon fill="none" stroke="black" points="117.5,-723 117.5,-741 295.5,-741 295.5,-723 117.5,-723"/>
<text text-anchor="start" x="120.5" y="-729.2" font-family="Helvetica,sans-Serif" font-size="11.00">...</text>
<polygon fill="#ffffff" stroke="transparent" points="117.5,-705 117.5,-723 186.5,-723 186.5,-705 117.5,-705"/>
<polygon fill="none" stroke="black" points="117.5,-705 117.5,-723 186.5,-723 186.5,-705 117.5,-705"/>
<text text-anchor="start" x="120.5" y="-711.2" font-family="Helvetica,sans-Serif" font-size="11.00">&lt; 2</text>
<polygon fill="#ffffff" stroke="transparent" points="186.5,-705 186.5,-723 249.5,-723 249.5,-705 186.5,-705"/>
<polygon fill="none" stroke="black" points="186.5,-705 186.5,-723 249.5,-723 249.5,-705 186.5,-705"/>
<text text-anchor="start" x="213.5" y="-711.2" font-family="Helvetica,sans-Serif" font-size="11.00">0 rows</text>
<polygon fill="#ffffff" stroke="transparent" points="249.5,-705 249.5,-723 295.5,-723 295.5,-705 249.5,-705"/>
<polygon fill="none" stroke="black" points="249.5,-705 249.5,-723 295.5,-723 295.5,-705 249.5,-705"/>
<text text-anchor="start" x="276.5" y="-711.2" font-family="Helvetica,sans-Serif" font-size="11.00">3 &gt;</text>
</a>
</g>
</g>
<!-- m_loanproduct_provisioning_entry&#45;&gt;m_provisioning_criteria -->
<g id="edge2" class="edge">
<title>m_loanproduct_provisioning_entry:w&#45;&gt;m_provisioning_criteria:e</title>
<path fill="none" stroke="black" d="M441.1,-551.77C397.46,-564.37 443.66,-641.67 413,-695 375.48,-760.28 371.8,-818 296.5,-818"/>
<polygon fill="black" stroke="black" points="447.56,-550.98 455.94,-553.57 451.53,-550.49 455.5,-550 455.5,-550 455.5,-550 451.53,-550.49 455.06,-546.43 447.56,-550.98 447.56,-550.98"/>
<ellipse fill="none" stroke="black" cx="444.38" cy="-551.37" rx="3.2" ry="3.2"/>
</g>
<!-- acc_gl_account -->
<g id="node4" class="node">
<title>acc_gl_account</title>
<g id="a_node4"><a xlink:href="../../tables/acc_gl_account.html" xlink:title="acc_gl_account" target="_top">
<polygon fill="#ffffff" stroke="transparent" points="88.5,-37 88.5,-183 324.5,-183 324.5,-37 88.5,-37"/>
<polygon fill="#f5f5f5" stroke="transparent" points="88.5,-161 88.5,-183 324.5,-183 324.5,-161 88.5,-161"/>
<polygon fill="none" stroke="black" points="88.5,-161 88.5,-183 324.5,-183 324.5,-161 88.5,-161"/>
<text text-anchor="start" x="93.5" y="-170.2" font-family="Helvetica,sans-Serif" font-weight="bold" font-size="11.00">acc_gl_account</text>
<text text-anchor="start" x="289.5" y="-169.2" font-family="Helvetica,sans-Serif" font-size="11.00">[table]</text>
<polygon fill="none" stroke="black" points="88.5,-139 88.5,-161 324.5,-161 324.5,-139 88.5,-139"/>
<image xlink:href="../../images/primaryKeys.png" width="11px" height="12px" preserveAspectRatio="xMinYMin meet" x="93.5" y="-156"/>
<text text-anchor="start" x="108.5" y="-147.2" font-family="Helvetica,sans-Serif" font-size="11.00">id</text>
<polygon fill="#ffffff" stroke="transparent" points="88.5,-117 88.5,-139 324.5,-139 324.5,-117 88.5,-117"/>
<polygon fill="none" stroke="black" points="88.5,-117 88.5,-139 324.5,-139 324.5,-117 88.5,-117"/>
<image xlink:href="../../images/foreignKeys.png" width="11px" height="12px" preserveAspectRatio="xMinYMin meet" x="93.5" y="-134"/>
<text text-anchor="start" x="108.5" y="-125.2" font-family="Helvetica,sans-Serif" font-size="11.00">parent_id</text>
<polygon fill="#ffffff" stroke="transparent" points="88.5,-95 88.5,-117 324.5,-117 324.5,-95 88.5,-95"/>
<polygon fill="none" stroke="black" points="88.5,-95 88.5,-117 324.5,-117 324.5,-95 88.5,-95"/>
<text text-anchor="start" x="108.5" y="-103.2" font-family="Helvetica,sans-Serif" font-size="11.00">gl_code</text>
<polygon fill="#ffffff" stroke="transparent" points="88.5,-73 88.5,-95 324.5,-95 324.5,-73 88.5,-73"/>
<polygon fill="none" stroke="black" points="88.5,-73 88.5,-95 324.5,-95 324.5,-73 88.5,-73"/>
<image xlink:href="../../images/foreignKeys.png" width="11px" height="12px" preserveAspectRatio="xMinYMin meet" x="93.5" y="-90"/>
<text text-anchor="start" x="108.5" y="-81.2" font-family="Helvetica,sans-Serif" font-size="11.00">tag_id</text>
<polygon fill="none" stroke="black" points="88.5,-55 88.5,-73 324.5,-73 324.5,-55 88.5,-55"/>
<text text-anchor="start" x="91.5" y="-61.2" font-family="Helvetica,sans-Serif" font-size="11.00">...</text>
<polygon fill="#ffffff" stroke="transparent" points="88.5,-37 88.5,-55 183.5,-55 183.5,-37 88.5,-37"/>
<polygon fill="none" stroke="black" points="88.5,-37 88.5,-55 183.5,-55 183.5,-37 88.5,-37"/>
<text text-anchor="start" x="91.5" y="-43.2" font-family="Helvetica,sans-Serif" font-size="11.00">&lt; 2</text>
<polygon fill="#ffffff" stroke="transparent" points="183.5,-37 183.5,-55 259.5,-55 259.5,-37 183.5,-37"/>
<polygon fill="none" stroke="black" points="183.5,-37 183.5,-55 259.5,-55 259.5,-37 183.5,-37"/>
<text text-anchor="start" x="223.5" y="-43.2" font-family="Helvetica,sans-Serif" font-size="11.00">0 rows</text>
<polygon fill="#ffffff" stroke="transparent" points="259.5,-37 259.5,-55 324.5,-55 324.5,-37 259.5,-37"/>
<polygon fill="none" stroke="black" points="259.5,-37 259.5,-55 324.5,-55 324.5,-37 259.5,-37"/>
<text text-anchor="start" x="299.5" y="-43.2" font-family="Helvetica,sans-Serif" font-size="11.00">14 &gt;</text>
</a>
</g>
</g>
<!-- m_loanproduct_provisioning_entry&#45;&gt;acc_gl_account -->
<g id="edge3" class="edge">
<title>m_loanproduct_provisioning_entry:w&#45;&gt;acc_gl_account:e</title>
<path fill="none" stroke="black" d="M440.9,-372.42C384.72,-358.33 460.95,-253.23 413,-193 386.01,-159.1 368.83,-150 325.5,-150"/>
<polygon fill="black" stroke="black" points="447.55,-373.14 455.11,-377.58 451.52,-373.57 455.5,-374 455.5,-374 455.5,-374 451.52,-373.57 455.89,-370.42 447.55,-373.14 447.55,-373.14"/>
<ellipse fill="none" stroke="black" cx="444.36" cy="-372.8" rx="3.2" ry="3.2"/>
</g>
<!-- m_loanproduct_provisioning_entry&#45;&gt;acc_gl_account -->
<g id="edge5" class="edge">
<title>m_loanproduct_provisioning_entry:w&#45;&gt;acc_gl_account:e</title>
<path fill="none" stroke="black" d="M440.86,-394.61C375.59,-380.44 466.11,-261.4 413,-193 386.43,-158.77 368.83,-150 325.5,-150"/>
<polygon fill="black" stroke="black" points="447.54,-395.24 455.16,-399.58 451.52,-395.62 455.5,-396 455.5,-396 455.5,-396 451.52,-395.62 455.84,-392.42 447.54,-395.24 447.54,-395.24"/>
<ellipse fill="none" stroke="black" cx="444.35" cy="-394.94" rx="3.2" ry="3.2"/>
</g>
<!-- m_provisioning_history -->
<g id="node5" class="node">
<title>m_provisioning_history</title>
<g id="a_node5"><a xlink:href="../../tables/m_provisioning_history.html" xlink:title="m_provisioning_history" target="_top">
<polygon fill="#ffffff" stroke="transparent" points="118,-872 118,-996 295,-996 295,-872 118,-872"/>
<polygon fill="#f5f5f5" stroke="transparent" points="118.5,-974 118.5,-996 295.5,-996 295.5,-974 118.5,-974"/>
<polygon fill="none" stroke="black" points="118.5,-974 118.5,-996 295.5,-996 295.5,-974 118.5,-974"/>
<text text-anchor="start" x="123.5" y="-983.2" font-family="Helvetica,sans-Serif" font-weight="bold" font-size="11.00">m_provisioning_history</text>
<text text-anchor="start" x="260.5" y="-982.2" font-family="Helvetica,sans-Serif" font-size="11.00">[table]</text>
<polygon fill="none" stroke="black" points="118.5,-952 118.5,-974 295.5,-974 295.5,-952 118.5,-952"/>
<image xlink:href="../../images/primaryKeys.png" width="11px" height="12px" preserveAspectRatio="xMinYMin meet" x="123.5" y="-969"/>
<text text-anchor="start" x="138.5" y="-960.2" font-family="Helvetica,sans-Serif" font-size="11.00">id</text>
<polygon fill="#ffffff" stroke="transparent" points="118.5,-930 118.5,-952 295.5,-952 295.5,-930 118.5,-930"/>
<polygon fill="none" stroke="black" points="118.5,-930 118.5,-952 295.5,-952 295.5,-930 118.5,-930"/>
<image xlink:href="../../images/foreignKeys.png" width="11px" height="12px" preserveAspectRatio="xMinYMin meet" x="123.5" y="-947"/>
<text text-anchor="start" x="138.5" y="-938.2" font-family="Helvetica,sans-Serif" font-size="11.00">createdby_id</text>
<polygon fill="#ffffff" stroke="transparent" points="118.5,-908 118.5,-930 295.5,-930 295.5,-908 118.5,-908"/>
<polygon fill="none" stroke="black" points="118.5,-908 118.5,-930 295.5,-930 295.5,-908 118.5,-908"/>
<image xlink:href="../../images/foreignKeys.png" width="11px" height="12px" preserveAspectRatio="xMinYMin meet" x="123.5" y="-925"/>
<text text-anchor="start" x="138.5" y="-916.2" font-family="Helvetica,sans-Serif" font-size="11.00">lastmodifiedby_id</text>
<polygon fill="none" stroke="black" points="118.5,-890 118.5,-908 295.5,-908 295.5,-890 118.5,-890"/>
<text text-anchor="start" x="121.5" y="-896.2" font-family="Helvetica,sans-Serif" font-size="11.00">...</text>
<polygon fill="#ffffff" stroke="transparent" points="118.5,-872 118.5,-890 187.5,-890 187.5,-872 118.5,-872"/>
<polygon fill="none" stroke="black" points="118.5,-872 118.5,-890 187.5,-890 187.5,-872 118.5,-872"/>
<text text-anchor="start" x="121.5" y="-878.2" font-family="Helvetica,sans-Serif" font-size="11.00">&lt; 2</text>
<polygon fill="#ffffff" stroke="transparent" points="187.5,-872 187.5,-890 249.5,-890 249.5,-872 187.5,-872"/>
<polygon fill="none" stroke="black" points="187.5,-872 187.5,-890 249.5,-890 249.5,-872 187.5,-872"/>
<text text-anchor="start" x="213.5" y="-878.2" font-family="Helvetica,sans-Serif" font-size="11.00">0 rows</text>
<polygon fill="#ffffff" stroke="transparent" points="249.5,-872 249.5,-890 295.5,-890 295.5,-872 249.5,-872"/>
<polygon fill="none" stroke="black" points="249.5,-872 249.5,-890 295.5,-890 295.5,-872 249.5,-872"/>
<text text-anchor="start" x="276.5" y="-878.2" font-family="Helvetica,sans-Serif" font-size="11.00">1 &gt;</text>
</a>
</g>
</g>
<!-- m_loanproduct_provisioning_entry&#45;&gt;m_provisioning_history -->
<g id="edge4" class="edge">
<title>m_loanproduct_provisioning_entry:w&#45;&gt;m_provisioning_history:e</title>
<path fill="none" stroke="black" d="M441.76,-576.48C398.64,-609.02 441.72,-809.56 413,-862 380.08,-922.1 365.03,-963 296.5,-963"/>
<polygon fill="black" stroke="black" points="447.89,-574.48 456.62,-575.42 451.7,-573.24 455.5,-572 455.5,-572 455.5,-572 451.7,-573.24 454.38,-568.58 447.89,-574.48 447.89,-574.48"/>
<ellipse fill="none" stroke="black" cx="444.85" cy="-575.47" rx="3.2" ry="3.2"/>
</g>
<!-- m_office -->
<g id="node6" class="node">
<title>m_office</title>
<g id="a_node6"><a xlink:href="../../tables/m_office.html" xlink:title="m_office" target="_top">
<polygon fill="#ffffff" stroke="transparent" points="150.5,-538 150.5,-684 262.5,-684 262.5,-538 150.5,-538"/>
<polygon fill="#f5f5f5" stroke="transparent" points="150.5,-662 150.5,-684 262.5,-684 262.5,-662 150.5,-662"/>
<polygon fill="none" stroke="black" points="150.5,-662 150.5,-684 262.5,-684 262.5,-662 150.5,-662"/>
<text text-anchor="start" x="155.5" y="-671.2" font-family="Helvetica,sans-Serif" font-weight="bold" font-size="11.00">m_office</text>
<text text-anchor="start" x="227.5" y="-670.2" font-family="Helvetica,sans-Serif" font-size="11.00">[table]</text>
<polygon fill="none" stroke="black" points="150.5,-640 150.5,-662 262.5,-662 262.5,-640 150.5,-640"/>
<image xlink:href="../../images/primaryKeys.png" width="11px" height="12px" preserveAspectRatio="xMinYMin meet" x="155.5" y="-657"/>
<text text-anchor="start" x="170.5" y="-648.2" font-family="Helvetica,sans-Serif" font-size="11.00">id</text>
<polygon fill="#ffffff" stroke="transparent" points="150.5,-618 150.5,-640 262.5,-640 262.5,-618 150.5,-618"/>
<polygon fill="none" stroke="black" points="150.5,-618 150.5,-640 262.5,-640 262.5,-618 150.5,-618"/>
<image xlink:href="../../images/foreignKeys.png" width="11px" height="12px" preserveAspectRatio="xMinYMin meet" x="155.5" y="-635"/>
<text text-anchor="start" x="170.5" y="-626.2" font-family="Helvetica,sans-Serif" font-size="11.00">parent_id</text>
<polygon fill="#ffffff" stroke="transparent" points="150.5,-596 150.5,-618 262.5,-618 262.5,-596 150.5,-596"/>
<polygon fill="none" stroke="black" points="150.5,-596 150.5,-618 262.5,-618 262.5,-596 150.5,-596"/>
<text text-anchor="start" x="170.5" y="-604.2" font-family="Helvetica,sans-Serif" font-size="11.00">external_id</text>
<polygon fill="#ffffff" stroke="transparent" points="150.5,-574 150.5,-596 262.5,-596 262.5,-574 150.5,-574"/>
<polygon fill="none" stroke="black" points="150.5,-574 150.5,-596 262.5,-596 262.5,-574 150.5,-574"/>
<text text-anchor="start" x="170.5" y="-582.2" font-family="Helvetica,sans-Serif" font-size="11.00">name</text>
<polygon fill="none" stroke="black" points="150.5,-556 150.5,-574 262.5,-574 262.5,-556 150.5,-556"/>
<text text-anchor="start" x="153.5" y="-562.2" font-family="Helvetica,sans-Serif" font-size="11.00">...</text>
<polygon fill="#ffffff" stroke="transparent" points="150.5,-538 150.5,-556 183.5,-556 183.5,-538 150.5,-538"/>
<polygon fill="none" stroke="black" points="150.5,-538 150.5,-556 183.5,-556 183.5,-538 150.5,-538"/>
<text text-anchor="start" x="153.5" y="-544.2" font-family="Helvetica,sans-Serif" font-size="11.00">&lt; 1</text>
<polygon fill="#ffffff" stroke="transparent" points="183.5,-538 183.5,-556 228.5,-556 228.5,-538 183.5,-538"/>
<polygon fill="none" stroke="black" points="183.5,-538 183.5,-556 228.5,-556 228.5,-538 183.5,-538"/>
<text text-anchor="start" x="192.5" y="-544.2" font-family="Helvetica,sans-Serif" font-size="11.00">0 rows</text>
<polygon fill="#ffffff" stroke="transparent" points="228.5,-538 228.5,-556 262.5,-556 262.5,-538 228.5,-538"/>
<polygon fill="none" stroke="black" points="228.5,-538 228.5,-556 262.5,-556 262.5,-538 228.5,-538"/>
<text text-anchor="start" x="237.5" y="-544.2" font-family="Helvetica,sans-Serif" font-size="11.00">20 &gt;</text>
</a>
</g>
</g>
<!-- m_loanproduct_provisioning_entry&#45;&gt;m_office -->
<g id="edge6" class="edge">
<title>m_loanproduct_provisioning_entry:w&#45;&gt;m_office:e</title>
<path fill="none" stroke="black" d="M441.86,-511.51C397.83,-537.99 287.1,-651 263.5,-651"/>
<polygon fill="black" stroke="black" points="448.08,-508.99 456.85,-509.34 451.79,-507.5 455.5,-506 455.5,-506 455.5,-506 451.79,-507.5 454.15,-502.66 448.08,-508.99 448.08,-508.99"/>
<ellipse fill="none" stroke="black" cx="445.11" cy="-510.19" rx="3.2" ry="3.2"/>
</g>
<!-- m_product_loan -->
<g id="node7" class="node">
<title>m_product_loan</title>
<g id="a_node7"><a xlink:href="../../tables/m_product_loan.html" xlink:title="m_product_loan" target="_top">
<polygon fill="#ffffff" stroke="transparent" points="8,-327 8,-517 405,-517 405,-327 8,-327"/>
<polygon fill="#f5f5f5" stroke="transparent" points="8.5,-495 8.5,-517 405.5,-517 405.5,-495 8.5,-495"/>
<polygon fill="none" stroke="black" points="8.5,-495 8.5,-517 405.5,-517 405.5,-495 8.5,-495"/>
<text text-anchor="start" x="13.5" y="-504.2" font-family="Helvetica,sans-Serif" font-weight="bold" font-size="11.00">m_product_loan</text>
<text text-anchor="start" x="370.5" y="-503.2" font-family="Helvetica,sans-Serif" font-size="11.00">[table]</text>
<polygon fill="none" stroke="black" points="8.5,-473 8.5,-495 405.5,-495 405.5,-473 8.5,-473"/>
<image xlink:href="../../images/primaryKeys.png" width="11px" height="12px" preserveAspectRatio="xMinYMin meet" x="13.5" y="-490"/>
<text text-anchor="start" x="28.5" y="-481.2" font-family="Helvetica,sans-Serif" font-size="11.00">id</text>
<polygon fill="#ffffff" stroke="transparent" points="8.5,-451 8.5,-473 405.5,-473 405.5,-451 8.5,-451"/>
<polygon fill="none" stroke="black" points="8.5,-451 8.5,-473 405.5,-473 405.5,-451 8.5,-451"/>
<text text-anchor="start" x="28.5" y="-459.2" font-family="Helvetica,sans-Serif" font-size="11.00">short_name</text>
<polygon fill="#ffffff" stroke="transparent" points="8.5,-429 8.5,-451 405.5,-451 405.5,-429 8.5,-429"/>
<polygon fill="none" stroke="black" points="8.5,-429 8.5,-451 405.5,-451 405.5,-429 8.5,-429"/>
<text text-anchor="start" x="28.5" y="-437.2" font-family="Helvetica,sans-Serif" font-size="11.00">name</text>
<polygon fill="#ffffff" stroke="transparent" points="8.5,-407 8.5,-429 405.5,-429 405.5,-407 8.5,-407"/>
<polygon fill="none" stroke="black" points="8.5,-407 8.5,-429 405.5,-429 405.5,-407 8.5,-407"/>
<image xlink:href="../../images/foreignKeys.png" width="11px" height="12px" preserveAspectRatio="xMinYMin meet" x="13.5" y="-424"/>
<text text-anchor="start" x="28.5" y="-415.2" font-family="Helvetica,sans-Serif" font-size="11.00">fund_id</text>
<polygon fill="#ffffff" stroke="transparent" points="8.5,-385 8.5,-407 405.5,-407 405.5,-385 8.5,-385"/>
<polygon fill="none" stroke="black" points="8.5,-385 8.5,-407 405.5,-407 405.5,-385 8.5,-385"/>
<image xlink:href="../../images/foreignKeys.png" width="11px" height="12px" preserveAspectRatio="xMinYMin meet" x="13.5" y="-402"/>
<text text-anchor="start" x="28.5" y="-393.2" font-family="Helvetica,sans-Serif" font-size="11.00">loan_transaction_strategy_id</text>
<polygon fill="#ffffff" stroke="transparent" points="8.5,-363 8.5,-385 405.5,-385 405.5,-363 8.5,-363"/>
<polygon fill="none" stroke="black" points="8.5,-363 8.5,-385 405.5,-385 405.5,-363 8.5,-363"/>
<text text-anchor="start" x="28.5" y="-371.2" font-family="Helvetica,sans-Serif" font-size="11.00">external_id</text>
<polygon fill="none" stroke="black" points="8.5,-345 8.5,-363 405.5,-363 405.5,-345 8.5,-345"/>
<text text-anchor="start" x="11.5" y="-351.2" font-family="Helvetica,sans-Serif" font-size="11.00">...</text>
<polygon fill="#ffffff" stroke="transparent" points="8.5,-327 8.5,-345 184.5,-345 184.5,-327 8.5,-327"/>
<polygon fill="none" stroke="black" points="8.5,-327 8.5,-345 184.5,-345 184.5,-327 8.5,-327"/>
<text text-anchor="start" x="11.5" y="-333.2" font-family="Helvetica,sans-Serif" font-size="11.00">&lt; 2</text>
<polygon fill="#ffffff" stroke="transparent" points="184.5,-327 184.5,-345 300.5,-345 300.5,-327 184.5,-327"/>
<polygon fill="none" stroke="black" points="184.5,-327 184.5,-345 300.5,-345 300.5,-327 184.5,-327"/>
<text text-anchor="start" x="264.5" y="-333.2" font-family="Helvetica,sans-Serif" font-size="11.00">0 rows</text>
<polygon fill="#ffffff" stroke="transparent" points="300.5,-327 300.5,-345 405.5,-345 405.5,-327 300.5,-327"/>
<polygon fill="none" stroke="black" points="300.5,-327 300.5,-345 405.5,-345 405.5,-327 300.5,-327"/>
<text text-anchor="start" x="380.5" y="-333.2" font-family="Helvetica,sans-Serif" font-size="11.00">14 &gt;</text>
</a>
</g>
</g>
<!-- m_loanproduct_provisioning_entry&#45;&gt;m_product_loan -->
<g id="edge7" class="edge">
<title>m_loanproduct_provisioning_entry:w&#45;&gt;m_product_loan:e</title>
<path fill="none" stroke="black" d="M440.99,-484C429.68,-484 422.49,-484 406.5,-484"/>
<polygon fill="black" stroke="black" points="447.5,-484 455.5,-487.6 451.5,-484 455.5,-484 455.5,-484 455.5,-484 451.5,-484 455.5,-480.4 447.5,-484 447.5,-484"/>
<ellipse fill="none" stroke="black" cx="444.3" cy="-484" rx="3.2" ry="3.2"/>
</g>
</g>
</svg>
