<?xml version="1.0" encoding="UTF-8" standalone="no"?>
<!DOCTYPE svg PUBLIC "-//W3C//DTD SVG 1.1//EN"
 "http://www.w3.org/Graphics/SVG/1.1/DTD/svg11.dtd">
<!-- Generated by graphviz version 2.43.0 (0)
 -->
<!-- Title: oneDegreeRelationshipsDiagram Pages: 1 -->
<svg width="1034pt" height="579pt"
 viewBox="0.00 0.00 1034.00 578.80" xmlns="http://www.w3.org/2000/svg" xmlns:xlink="http://www.w3.org/1999/xlink">
<g id="graph0" class="graph" transform="scale(1 1) rotate(0) translate(4 574.8)">
<title>oneDegreeRelationshipsDiagram</title>
<polygon fill="#ffffff" stroke="transparent" points="-4,4 -4,-574.8 1030,-574.8 1030,4 -4,4"/>
<text text-anchor="middle" x="71.5" y="-7.2" font-family="Helvetica,sans-Serif" font-size="11.00">Generated by SchemaSpy</text>
<!-- m_loan -->
<g id="node1" class="node">
<title>m_loan</title>
<g id="a_node1"><a xlink:href="../../tables/m_loan.html" xlink:title="m_loan" target="_top">
<polygon fill="#ffffff" stroke="transparent" points="315,-112.8 315,-566.8 643,-566.8 643,-112.8 315,-112.8"/>
<polygon fill="#f5f5f5" stroke="transparent" points="315,-544.8 315,-566.8 643,-566.8 643,-544.8 315,-544.8"/>
<polygon fill="none" stroke="black" points="315,-544.8 315,-566.8 643,-566.8 643,-544.8 315,-544.8"/>
<text text-anchor="start" x="320" y="-554" font-family="Helvetica,sans-Serif" font-weight="bold" font-size="11.00">m_loan</text>
<text text-anchor="start" x="608" y="-553" font-family="Helvetica,sans-Serif" font-size="11.00">[table]</text>
<polygon fill="none" stroke="black" points="315,-522.8 315,-544.8 643,-544.8 643,-522.8 315,-522.8"/>
<image xlink:href="../../images/primaryKeys.png" width="11px" height="12px" preserveAspectRatio="xMinYMin meet" x="320" y="-539.803"/>
<text text-anchor="start" x="335" y="-531" font-family="Helvetica,sans-Serif" font-size="11.00">id</text>
<polygon fill="#ffffff" stroke="transparent" points="315,-500.8 315,-522.8 643,-522.8 643,-500.8 315,-500.8"/>
<polygon fill="none" stroke="black" points="315,-500.8 315,-522.8 643,-522.8 643,-500.8 315,-500.8"/>
<text text-anchor="start" x="335" y="-509" font-family="Helvetica,sans-Serif" font-size="11.00">account_no</text>
<polygon fill="#ffffff" stroke="transparent" points="315,-478.8 315,-500.8 643,-500.8 643,-478.8 315,-478.8"/>
<polygon fill="none" stroke="black" points="315,-478.8 315,-500.8 643,-500.8 643,-478.8 315,-478.8"/>
<text text-anchor="start" x="335" y="-487" font-family="Helvetica,sans-Serif" font-size="11.00">external_id</text>
<polygon fill="#ffffff" stroke="transparent" points="315,-456.8 315,-478.8 643,-478.8 643,-456.8 315,-456.8"/>
<polygon fill="none" stroke="black" points="315,-456.8 315,-478.8 643,-478.8 643,-456.8 315,-456.8"/>
<image xlink:href="../../images/foreignKeys.png" width="11px" height="12px" preserveAspectRatio="xMinYMin meet" x="320" y="-473.803"/>
<text text-anchor="start" x="335" y="-465" font-family="Helvetica,sans-Serif" font-size="11.00">client_id</text>
<polygon fill="#ffffff" stroke="transparent" points="315,-434.8 315,-456.8 643,-456.8 643,-434.8 315,-434.8"/>
<polygon fill="none" stroke="black" points="315,-434.8 315,-456.8 643,-456.8 643,-434.8 315,-434.8"/>
<image xlink:href="../../images/foreignKeys.png" width="11px" height="12px" preserveAspectRatio="xMinYMin meet" x="320" y="-451.803"/>
<text text-anchor="start" x="335" y="-443" font-family="Helvetica,sans-Serif" font-size="11.00">group_id</text>
<polygon fill="#ffffff" stroke="transparent" points="315,-412.8 315,-434.8 643,-434.8 643,-412.8 315,-412.8"/>
<polygon fill="none" stroke="black" points="315,-412.8 315,-434.8 643,-434.8 643,-412.8 315,-412.8"/>
<image xlink:href="../../images/foreignKeys.png" width="11px" height="12px" preserveAspectRatio="xMinYMin meet" x="320" y="-429.803"/>
<text text-anchor="start" x="335" y="-421" font-family="Helvetica,sans-Serif" font-size="11.00">glim_id</text>
<polygon fill="#ffffff" stroke="transparent" points="315,-390.8 315,-412.8 643,-412.8 643,-390.8 315,-390.8"/>
<polygon fill="none" stroke="black" points="315,-390.8 315,-412.8 643,-412.8 643,-390.8 315,-390.8"/>
<image xlink:href="../../images/foreignKeys.png" width="11px" height="12px" preserveAspectRatio="xMinYMin meet" x="320" y="-407.803"/>
<text text-anchor="start" x="335" y="-399" font-family="Helvetica,sans-Serif" font-size="11.00">product_id</text>
<polygon fill="#ffffff" stroke="transparent" points="315,-368.8 315,-390.8 643,-390.8 643,-368.8 315,-368.8"/>
<polygon fill="none" stroke="black" points="315,-368.8 315,-390.8 643,-390.8 643,-368.8 315,-368.8"/>
<image xlink:href="../../images/foreignKeys.png" width="11px" height="12px" preserveAspectRatio="xMinYMin meet" x="320" y="-385.803"/>
<text text-anchor="start" x="335" y="-377" font-family="Helvetica,sans-Serif" font-size="11.00">fund_id</text>
<polygon fill="#ffffff" stroke="transparent" points="315,-346.8 315,-368.8 643,-368.8 643,-346.8 315,-346.8"/>
<polygon fill="none" stroke="black" points="315,-346.8 315,-368.8 643,-368.8 643,-346.8 315,-346.8"/>
<image xlink:href="../../images/foreignKeys.png" width="11px" height="12px" preserveAspectRatio="xMinYMin meet" x="320" y="-363.803"/>
<text text-anchor="start" x="335" y="-355" font-family="Helvetica,sans-Serif" font-size="11.00">loan_officer_id</text>
<polygon fill="#ffffff" stroke="transparent" points="315,-324.8 315,-346.8 643,-346.8 643,-324.8 315,-324.8"/>
<polygon fill="none" stroke="black" points="315,-324.8 315,-346.8 643,-346.8 643,-324.8 315,-324.8"/>
<image xlink:href="../../images/foreignKeys.png" width="11px" height="12px" preserveAspectRatio="xMinYMin meet" x="320" y="-341.803"/>
<text text-anchor="start" x="335" y="-333" font-family="Helvetica,sans-Serif" font-size="11.00">loanpurpose_cv_id</text>
<polygon fill="#ffffff" stroke="transparent" points="315,-302.8 315,-324.8 643,-324.8 643,-302.8 315,-302.8"/>
<polygon fill="none" stroke="black" points="315,-302.8 315,-324.8 643,-324.8 643,-302.8 315,-302.8"/>
<image xlink:href="../../images/foreignKeys.png" width="11px" height="12px" preserveAspectRatio="xMinYMin meet" x="320" y="-319.803"/>
<text text-anchor="start" x="335" y="-311" font-family="Helvetica,sans-Serif" font-size="11.00">submittedon_userid</text>
<polygon fill="#ffffff" stroke="transparent" points="315,-280.8 315,-302.8 643,-302.8 643,-280.8 315,-280.8"/>
<polygon fill="none" stroke="black" points="315,-280.8 315,-302.8 643,-302.8 643,-280.8 315,-280.8"/>
<image xlink:href="../../images/foreignKeys.png" width="11px" height="12px" preserveAspectRatio="xMinYMin meet" x="320" y="-297.803"/>
<text text-anchor="start" x="335" y="-289" font-family="Helvetica,sans-Serif" font-size="11.00">approvedon_userid</text>
<polygon fill="#ffffff" stroke="transparent" points="315,-258.8 315,-280.8 643,-280.8 643,-258.8 315,-258.8"/>
<polygon fill="none" stroke="black" points="315,-258.8 315,-280.8 643,-280.8 643,-258.8 315,-258.8"/>
<image xlink:href="../../images/foreignKeys.png" width="11px" height="12px" preserveAspectRatio="xMinYMin meet" x="320" y="-275.803"/>
<text text-anchor="start" x="335" y="-267" font-family="Helvetica,sans-Serif" font-size="11.00">disbursedon_userid</text>
<polygon fill="#ffffff" stroke="transparent" points="315,-236.8 315,-258.8 643,-258.8 643,-236.8 315,-236.8"/>
<polygon fill="none" stroke="black" points="315,-236.8 315,-258.8 643,-258.8 643,-236.8 315,-236.8"/>
<image xlink:href="../../images/foreignKeys.png" width="11px" height="12px" preserveAspectRatio="xMinYMin meet" x="320" y="-253.803"/>
<text text-anchor="start" x="335" y="-245" font-family="Helvetica,sans-Serif" font-size="11.00">closedon_userid</text>
<polygon fill="#ffffff" stroke="transparent" points="315,-214.8 315,-236.8 643,-236.8 643,-214.8 315,-214.8"/>
<polygon fill="none" stroke="black" points="315,-214.8 315,-236.8 643,-236.8 643,-214.8 315,-214.8"/>
<image xlink:href="../../images/foreignKeys.png" width="11px" height="12px" preserveAspectRatio="xMinYMin meet" x="320" y="-231.803"/>
<text text-anchor="start" x="335" y="-223" font-family="Helvetica,sans-Serif" font-size="11.00">rejectedon_userid</text>
<polygon fill="#ffffff" stroke="transparent" points="315,-192.8 315,-214.8 643,-214.8 643,-192.8 315,-192.8"/>
<polygon fill="none" stroke="black" points="315,-192.8 315,-214.8 643,-214.8 643,-192.8 315,-192.8"/>
<image xlink:href="../../images/foreignKeys.png" width="11px" height="12px" preserveAspectRatio="xMinYMin meet" x="320" y="-209.803"/>
<text text-anchor="start" x="335" y="-201" font-family="Helvetica,sans-Serif" font-size="11.00">withdrawnon_userid</text>
<polygon fill="#ffffff" stroke="transparent" points="315,-170.8 315,-192.8 643,-192.8 643,-170.8 315,-170.8"/>
<polygon fill="none" stroke="black" points="315,-170.8 315,-192.8 643,-192.8 643,-170.8 315,-170.8"/>
<image xlink:href="../../images/foreignKeys.png" width="11px" height="12px" preserveAspectRatio="xMinYMin meet" x="320" y="-187.803"/>
<text text-anchor="start" x="335" y="-179" font-family="Helvetica,sans-Serif" font-size="11.00">loan_transaction_strategy_id</text>
<polygon fill="#ffffff" stroke="transparent" points="315,-148.8 315,-170.8 643,-170.8 643,-148.8 315,-148.8"/>
<polygon fill="none" stroke="black" points="315,-148.8 315,-170.8 643,-170.8 643,-148.8 315,-148.8"/>
<image xlink:href="../../images/foreignKeys.png" width="11px" height="12px" preserveAspectRatio="xMinYMin meet" x="320" y="-165.803"/>
<text text-anchor="start" x="335" y="-157" font-family="Helvetica,sans-Serif" font-size="11.00">writeoff_reason_cv_id</text>
<polygon fill="none" stroke="black" points="315,-130.8 315,-148.8 643,-148.8 643,-130.8 315,-130.8"/>
<text text-anchor="start" x="318" y="-137" font-family="Helvetica,sans-Serif" font-size="11.00">...</text>
<polygon fill="#ffffff" stroke="transparent" points="315,-112.8 315,-130.8 459,-130.8 459,-112.8 315,-112.8"/>
<polygon fill="none" stroke="black" points="315,-112.8 315,-130.8 459,-130.8 459,-112.8 315,-112.8"/>
<text text-anchor="start" x="318" y="-119" font-family="Helvetica,sans-Serif" font-size="11.00">&lt; 15</text>
<polygon fill="#ffffff" stroke="transparent" points="459,-112.8 459,-130.8 556,-130.8 556,-112.8 459,-112.8"/>
<polygon fill="none" stroke="black" points="459,-112.8 459,-130.8 556,-130.8 556,-112.8 459,-112.8"/>
<text text-anchor="start" x="520" y="-119" font-family="Helvetica,sans-Serif" font-size="11.00">0 rows</text>
<polygon fill="#ffffff" stroke="transparent" points="556,-112.8 556,-130.8 643,-130.8 643,-112.8 556,-112.8"/>
<polygon fill="none" stroke="black" points="556,-112.8 556,-130.8 643,-130.8 643,-112.8 556,-112.8"/>
<text text-anchor="start" x="618" y="-119" font-family="Helvetica,sans-Serif" font-size="11.00">24 &gt;</text>
</a>
</g>
</g>
<!-- m_staff -->
<g id="node2" class="node">
<title>m_staff</title>
<g id="a_node2"><a xlink:href="../../tables/m_staff.html" xlink:title="m_staff" target="_top">
<polygon fill="#ffffff" stroke="transparent" points="8,-65.8 8,-255.8 266,-255.8 266,-65.8 8,-65.8"/>
<polygon fill="#f5f5f5" stroke="transparent" points="8,-233.8 8,-255.8 266,-255.8 266,-233.8 8,-233.8"/>
<polygon fill="none" stroke="black" points="8,-233.8 8,-255.8 266,-255.8 266,-233.8 8,-233.8"/>
<text text-anchor="start" x="13" y="-243" font-family="Helvetica,sans-Serif" font-weight="bold" font-size="11.00">m_staff</text>
<text text-anchor="start" x="231" y="-242" font-family="Helvetica,sans-Serif" font-size="11.00">[table]</text>
<polygon fill="none" stroke="black" points="8,-211.8 8,-233.8 266,-233.8 266,-211.8 8,-211.8"/>
<image xlink:href="../../images/primaryKeys.png" width="11px" height="12px" preserveAspectRatio="xMinYMin meet" x="13" y="-228.803"/>
<text text-anchor="start" x="28" y="-220" font-family="Helvetica,sans-Serif" font-size="11.00">id</text>
<polygon fill="#ffffff" stroke="transparent" points="8,-189.8 8,-211.8 266,-211.8 266,-189.8 8,-189.8"/>
<polygon fill="none" stroke="black" points="8,-189.8 8,-211.8 266,-211.8 266,-189.8 8,-189.8"/>
<image xlink:href="../../images/foreignKeys.png" width="11px" height="12px" preserveAspectRatio="xMinYMin meet" x="13" y="-206.803"/>
<text text-anchor="start" x="28" y="-198" font-family="Helvetica,sans-Serif" font-size="11.00">office_id</text>
<polygon fill="#ffffff" stroke="transparent" points="8,-167.8 8,-189.8 266,-189.8 266,-167.8 8,-167.8"/>
<polygon fill="none" stroke="black" points="8,-167.8 8,-189.8 266,-189.8 266,-167.8 8,-167.8"/>
<text text-anchor="start" x="28" y="-176" font-family="Helvetica,sans-Serif" font-size="11.00">display_name</text>
<polygon fill="#ffffff" stroke="transparent" points="8,-145.8 8,-167.8 266,-167.8 266,-145.8 8,-145.8"/>
<polygon fill="none" stroke="black" points="8,-145.8 8,-167.8 266,-167.8 266,-145.8 8,-145.8"/>
<text text-anchor="start" x="28" y="-154" font-family="Helvetica,sans-Serif" font-size="11.00">mobile_no</text>
<polygon fill="#ffffff" stroke="transparent" points="8,-123.8 8,-145.8 266,-145.8 266,-123.8 8,-123.8"/>
<polygon fill="none" stroke="black" points="8,-123.8 8,-145.8 266,-145.8 266,-123.8 8,-123.8"/>
<text text-anchor="start" x="28" y="-132" font-family="Helvetica,sans-Serif" font-size="11.00">external_id</text>
<polygon fill="#ffffff" stroke="transparent" points="8,-101.8 8,-123.8 266,-123.8 266,-101.8 8,-101.8"/>
<polygon fill="none" stroke="black" points="8,-101.8 8,-123.8 266,-123.8 266,-101.8 8,-101.8"/>
<image xlink:href="../../images/foreignKeys.png" width="11px" height="12px" preserveAspectRatio="xMinYMin meet" x="13" y="-118.803"/>
<text text-anchor="start" x="28" y="-110" font-family="Helvetica,sans-Serif" font-size="11.00">image_id</text>
<polygon fill="none" stroke="black" points="8,-83.8 8,-101.8 266,-101.8 266,-83.8 8,-83.8"/>
<text text-anchor="start" x="11" y="-90" font-family="Helvetica,sans-Serif" font-size="11.00">...</text>
<polygon fill="#ffffff" stroke="transparent" points="8,-65.8 8,-83.8 114,-83.8 114,-65.8 8,-65.8"/>
<polygon fill="none" stroke="black" points="8,-65.8 8,-83.8 114,-83.8 114,-65.8 8,-65.8"/>
<text text-anchor="start" x="11" y="-72" font-family="Helvetica,sans-Serif" font-size="11.00">&lt; 2</text>
<polygon fill="#ffffff" stroke="transparent" points="114,-65.8 114,-83.8 195,-83.8 195,-65.8 114,-65.8"/>
<polygon fill="none" stroke="black" points="114,-65.8 114,-83.8 195,-83.8 195,-65.8 114,-65.8"/>
<text text-anchor="start" x="159" y="-72" font-family="Helvetica,sans-Serif" font-size="11.00">0 rows</text>
<polygon fill="#ffffff" stroke="transparent" points="195,-65.8 195,-83.8 266,-83.8 266,-65.8 195,-65.8"/>
<polygon fill="none" stroke="black" points="195,-65.8 195,-83.8 266,-83.8 266,-65.8 195,-65.8"/>
<text text-anchor="start" x="241" y="-72" font-family="Helvetica,sans-Serif" font-size="11.00">10 &gt;</text>
</a>
</g>
</g>
<!-- m_loan&#45;&gt;m_staff -->
<g id="edge1" class="edge">
<title>m_loan:w&#45;&gt;m_staff:e</title>
<path fill="none" stroke="black" d="M299.68,-354.47C264.22,-333.68 324.58,-222.8 267,-222.8"/>
<polygon fill="black" stroke="black" points="306.21,-355.99 313.18,-361.31 310.1,-356.89 314,-357.8 314,-357.8 314,-357.8 310.1,-356.89 314.82,-354.3 306.21,-355.99 306.21,-355.99"/>
<ellipse fill="none" stroke="black" cx="303.09" cy="-355.26" rx="3.2" ry="3.2"/>
</g>
<!-- m_loan_officer_assignment_history -->
<g id="node3" class="node">
<title>m_loan_officer_assignment_history</title>
<g id="a_node3"><a xlink:href="../../tables/m_loan_officer_assignment_history.html" xlink:title="m_loan_officer_assignment_history" target="_top">
<polygon fill="#ffffff" stroke="transparent" points="692,-136.8 692,-378.8 1018,-378.8 1018,-136.8 692,-136.8"/>
<polygon fill="#f5f5f5" stroke="transparent" points="694,-354.8 694,-376.8 1016,-376.8 1016,-354.8 694,-354.8"/>
<polygon fill="none" stroke="black" points="694,-354.8 694,-376.8 1016,-376.8 1016,-354.8 694,-354.8"/>
<text text-anchor="start" x="699" y="-364" font-family="Helvetica,sans-Serif" font-weight="bold" font-size="11.00">m_loan_officer_assignment_history</text>
<text text-anchor="start" x="981" y="-363" font-family="Helvetica,sans-Serif" font-size="11.00">[table]</text>
<polygon fill="none" stroke="black" points="694,-332.8 694,-354.8 950,-354.8 950,-332.8 694,-332.8"/>
<image xlink:href="../../images/primaryKeys.png" width="11px" height="12px" preserveAspectRatio="xMinYMin meet" x="699" y="-349.803"/>
<text text-anchor="start" x="714" y="-341" font-family="Helvetica,sans-Serif" font-size="11.00">id</text>
<polygon fill="none" stroke="black" points="950,-332.8 950,-354.8 1016,-354.8 1016,-332.8 950,-332.8"/>
<text text-anchor="start" x="953" y="-341" font-family="Helvetica,sans-Serif" font-size="11.00">bigint[19]</text>
<polygon fill="#ffffff" stroke="transparent" points="694,-310.8 694,-332.8 950,-332.8 950,-310.8 694,-310.8"/>
<polygon fill="none" stroke="black" points="694,-310.8 694,-332.8 950,-332.8 950,-310.8 694,-310.8"/>
<image xlink:href="../../images/foreignKeys.png" width="11px" height="12px" preserveAspectRatio="xMinYMin meet" x="699" y="-327.803"/>
<text text-anchor="start" x="714" y="-319" font-family="Helvetica,sans-Serif" font-size="11.00">loan_id</text>
<polygon fill="none" stroke="black" points="950,-310.8 950,-332.8 1016,-332.8 1016,-310.8 950,-310.8"/>
<text text-anchor="start" x="953" y="-319" font-family="Helvetica,sans-Serif" font-size="11.00">bigint[19]</text>
<polygon fill="#ffffff" stroke="transparent" points="694,-288.8 694,-310.8 950,-310.8 950,-288.8 694,-288.8"/>
<polygon fill="none" stroke="black" points="694,-288.8 694,-310.8 950,-310.8 950,-288.8 694,-288.8"/>
<image xlink:href="../../images/foreignKeys.png" width="11px" height="12px" preserveAspectRatio="xMinYMin meet" x="699" y="-305.803"/>
<text text-anchor="start" x="714" y="-297" font-family="Helvetica,sans-Serif" font-size="11.00">loan_officer_id</text>
<polygon fill="none" stroke="black" points="950,-288.8 950,-310.8 1016,-310.8 1016,-288.8 950,-288.8"/>
<text text-anchor="start" x="953" y="-297" font-family="Helvetica,sans-Serif" font-size="11.00">bigint[19]</text>
<polygon fill="none" stroke="black" points="694,-266.8 694,-288.8 950,-288.8 950,-266.8 694,-266.8"/>
<text text-anchor="start" x="714" y="-275" font-family="Helvetica,sans-Serif" font-size="11.00">start_date</text>
<polygon fill="none" stroke="black" points="950,-266.8 950,-288.8 1016,-288.8 1016,-266.8 950,-266.8"/>
<text text-anchor="start" x="953" y="-275" font-family="Helvetica,sans-Serif" font-size="11.00">date[10]</text>
<polygon fill="none" stroke="black" points="694,-244.8 694,-266.8 950,-266.8 950,-244.8 694,-244.8"/>
<text text-anchor="start" x="714" y="-253" font-family="Helvetica,sans-Serif" font-size="11.00">end_date</text>
<polygon fill="none" stroke="black" points="950,-244.8 950,-266.8 1016,-266.8 1016,-244.8 950,-244.8"/>
<text text-anchor="start" x="953" y="-253" font-family="Helvetica,sans-Serif" font-size="11.00">date[10]</text>
<polygon fill="none" stroke="black" points="694,-222.8 694,-244.8 950,-244.8 950,-222.8 694,-222.8"/>
<text text-anchor="start" x="714" y="-231" font-family="Helvetica,sans-Serif" font-size="11.00">createdby_id</text>
<polygon fill="none" stroke="black" points="950,-222.8 950,-244.8 1016,-244.8 1016,-222.8 950,-222.8"/>
<text text-anchor="start" x="953" y="-231" font-family="Helvetica,sans-Serif" font-size="11.00">bigint[19]</text>
<polygon fill="none" stroke="black" points="694,-200.8 694,-222.8 950,-222.8 950,-200.8 694,-200.8"/>
<text text-anchor="start" x="714" y="-209" font-family="Helvetica,sans-Serif" font-size="11.00">created_date</text>
<polygon fill="none" stroke="black" points="950,-200.8 950,-222.8 1016,-222.8 1016,-200.8 950,-200.8"/>
<text text-anchor="start" x="953" y="-209" font-family="Helvetica,sans-Serif" font-size="11.00">datetime[19]</text>
<polygon fill="none" stroke="black" points="694,-178.8 694,-200.8 950,-200.8 950,-178.8 694,-178.8"/>
<text text-anchor="start" x="714" y="-187" font-family="Helvetica,sans-Serif" font-size="11.00">lastmodified_date</text>
<polygon fill="none" stroke="black" points="950,-178.8 950,-200.8 1016,-200.8 1016,-178.8 950,-178.8"/>
<text text-anchor="start" x="953" y="-187" font-family="Helvetica,sans-Serif" font-size="11.00">datetime[19]</text>
<polygon fill="none" stroke="black" points="694,-156.8 694,-178.8 950,-178.8 950,-156.8 694,-156.8"/>
<text text-anchor="start" x="714" y="-165" font-family="Helvetica,sans-Serif" font-size="11.00">lastmodifiedby_id</text>
<polygon fill="none" stroke="black" points="950,-156.8 950,-178.8 1016,-178.8 1016,-156.8 950,-156.8"/>
<text text-anchor="start" x="953" y="-165" font-family="Helvetica,sans-Serif" font-size="11.00">bigint[19]</text>
<polygon fill="#ffffff" stroke="transparent" points="694,-138.8 694,-156.8 813,-156.8 813,-138.8 694,-138.8"/>
<polygon fill="none" stroke="black" points="694,-138.8 694,-156.8 813,-156.8 813,-138.8 694,-138.8"/>
<text text-anchor="start" x="697" y="-145" font-family="Helvetica,sans-Serif" font-size="11.00">&lt; 2</text>
<polygon fill="#ffffff" stroke="transparent" points="813,-138.8 813,-156.8 950,-156.8 950,-138.8 813,-138.8"/>
<polygon fill="none" stroke="black" points="813,-138.8 813,-156.8 950,-156.8 950,-138.8 813,-138.8"/>
<text text-anchor="start" x="914" y="-145" font-family="Helvetica,sans-Serif" font-size="11.00">0 rows</text>
<polygon fill="#ffffff" stroke="transparent" points="950,-138.8 950,-156.8 1016,-156.8 1016,-138.8 950,-138.8"/>
<polygon fill="none" stroke="black" points="950,-138.8 950,-156.8 1016,-156.8 1016,-138.8 950,-138.8"/>
<text text-anchor="start" x="997" y="-145" font-family="Helvetica,sans-Serif" font-size="11.00">0 &gt;</text>
<polygon fill="none" stroke="black" stroke-width="2" points="693,-137.8 693,-377.8 1017,-377.8 1017,-137.8 693,-137.8"/>
</a>
</g>
</g>
<!-- m_loan_officer_assignment_history&#45;&gt;m_loan -->
<g id="edge2" class="edge">
<title>m_loan_officer_assignment_history:w&#45;&gt;m_loan:e</title>
<path fill="none" stroke="black" d="M678.39,-323.9C612.39,-345.92 735.04,-533.8 644,-533.8"/>
<polygon fill="black" stroke="black" points="685.08,-322.94 693.51,-325.37 689.04,-322.37 693,-321.8 693,-321.8 693,-321.8 689.04,-322.37 692.49,-318.24 685.08,-322.94 685.08,-322.94"/>
<ellipse fill="none" stroke="black" cx="681.91" cy="-323.39" rx="3.2" ry="3.2"/>
</g>
<!-- m_loan_officer_assignment_history&#45;&gt;m_staff -->
<g id="edge3" class="edge">
<title>m_loan_officer_assignment_history:w&#45;&gt;m_staff:e</title>
<path fill="none" stroke="black" d="M678.54,-298.21C617.39,-282.55 716.24,-155.6 651,-102.8 532.15,-6.62 431.03,-13.41 307,-102.8 261.39,-135.67 323.22,-222.8 267,-222.8"/>
<polygon fill="black" stroke="black" points="685.05,-298.93 692.61,-303.38 689.02,-299.36 693,-299.8 693,-299.8 693,-299.8 689.02,-299.36 693.39,-296.22 685.05,-298.93 685.05,-298.93"/>
<ellipse fill="none" stroke="black" cx="681.87" cy="-298.58" rx="3.2" ry="3.2"/>
</g>
</g>
</svg>
