<?xml version="1.0" encoding="UTF-8" standalone="no"?>
<!DOCTYPE svg PUBLIC "-//W3C//DTD SVG 1.1//EN"
 "http://www.w3.org/Graphics/SVG/1.1/DTD/svg11.dtd">
<!-- Generated by graphviz version 2.43.0 (0)
 -->
<!-- Title: oneDegreeRelationshipsDiagram Pages: 1 -->
<svg width="1152pt" height="1089pt"
 viewBox="0.00 0.00 1152.00 1089.00" xmlns="http://www.w3.org/2000/svg" xmlns:xlink="http://www.w3.org/1999/xlink">
<g id="graph0" class="graph" transform="scale(1 1) rotate(0) translate(4 1085)">
<title>oneDegreeRelationshipsDiagram</title>
<polygon fill="#ffffff" stroke="transparent" points="-4,4 -4,-1085 1148,-1085 1148,4 -4,4"/>
<text text-anchor="middle" x="71.5" y="-7.2" font-family="Helvetica,sans-Serif" font-size="11.00">Generated by SchemaSpy</text>
<!-- m_loan_installment_charge -->
<g id="node1" class="node">
<title>m_loan_installment_charge</title>
<g id="a_node1"><a xlink:href="../../tables/m_loan_installment_charge.html" xlink:title="m_loan_installment_charge" target="_top">
<polygon fill="#ffffff" stroke="transparent" points="830,-786 830,-910 1080,-910 1080,-786 830,-786"/>
<polygon fill="#f5f5f5" stroke="transparent" points="830,-888 830,-910 1080,-910 1080,-888 830,-888"/>
<polygon fill="none" stroke="black" points="830,-888 830,-910 1080,-910 1080,-888 830,-888"/>
<text text-anchor="start" x="835" y="-897.2" font-family="Helvetica,sans-Serif" font-weight="bold" font-size="11.00">m_loan_installment_charge</text>
<text text-anchor="start" x="1045" y="-896.2" font-family="Helvetica,sans-Serif" font-size="11.00">[table]</text>
<polygon fill="none" stroke="black" points="830,-866 830,-888 1080,-888 1080,-866 830,-866"/>
<image xlink:href="../../images/primaryKeys.png" width="11px" height="12px" preserveAspectRatio="xMinYMin meet" x="835" y="-883"/>
<text text-anchor="start" x="850" y="-874.2" font-family="Helvetica,sans-Serif" font-size="11.00">id</text>
<polygon fill="#ffffff" stroke="transparent" points="830,-844 830,-866 1080,-866 1080,-844 830,-844"/>
<polygon fill="none" stroke="black" points="830,-844 830,-866 1080,-866 1080,-844 830,-844"/>
<image xlink:href="../../images/foreignKeys.png" width="11px" height="12px" preserveAspectRatio="xMinYMin meet" x="835" y="-861"/>
<text text-anchor="start" x="850" y="-852.2" font-family="Helvetica,sans-Serif" font-size="11.00">loan_charge_id</text>
<polygon fill="#ffffff" stroke="transparent" points="830,-822 830,-844 1080,-844 1080,-822 830,-822"/>
<polygon fill="none" stroke="black" points="830,-822 830,-844 1080,-844 1080,-822 830,-822"/>
<image xlink:href="../../images/foreignKeys.png" width="11px" height="12px" preserveAspectRatio="xMinYMin meet" x="835" y="-839"/>
<text text-anchor="start" x="850" y="-830.2" font-family="Helvetica,sans-Serif" font-size="11.00">loan_schedule_id</text>
<polygon fill="none" stroke="black" points="830,-804 830,-822 1080,-822 1080,-804 830,-804"/>
<text text-anchor="start" x="833" y="-810.2" font-family="Helvetica,sans-Serif" font-size="11.00">...</text>
<polygon fill="#ffffff" stroke="transparent" points="830,-786 830,-804 940,-804 940,-786 830,-786"/>
<polygon fill="none" stroke="black" points="830,-786 830,-804 940,-804 940,-786 830,-786"/>
<text text-anchor="start" x="833" y="-792.2" font-family="Helvetica,sans-Serif" font-size="11.00">&lt; 2</text>
<polygon fill="#ffffff" stroke="transparent" points="940,-786 940,-804 1023,-804 1023,-786 940,-786"/>
<polygon fill="none" stroke="black" points="940,-786 940,-804 1023,-804 1023,-786 940,-786"/>
<text text-anchor="start" x="987" y="-792.2" font-family="Helvetica,sans-Serif" font-size="11.00">0 rows</text>
<polygon fill="#ffffff" stroke="transparent" points="1023,-786 1023,-804 1080,-804 1080,-786 1023,-786"/>
<polygon fill="none" stroke="black" points="1023,-786 1023,-804 1080,-804 1080,-786 1023,-786"/>
<text text-anchor="start" x="1070" y="-792.2" font-family="Helvetica,sans-Serif" font-size="11.00"> &#160;</text>
</a>
</g>
</g>
<!-- m_loan_repayment_schedule -->
<g id="node2" class="node">
<title>m_loan_repayment_schedule</title>
<g id="a_node2"><a xlink:href="../../tables/m_loan_repayment_schedule.html" xlink:title="m_loan_repayment_schedule" target="_top">
<polygon fill="#ffffff" stroke="transparent" points="385,-37 385,-807 725,-807 725,-37 385,-37"/>
<polygon fill="#f5f5f5" stroke="transparent" points="387,-783 387,-805 723,-805 723,-783 387,-783"/>
<polygon fill="none" stroke="black" points="387,-783 387,-805 723,-805 723,-783 387,-783"/>
<text text-anchor="start" x="392" y="-792.2" font-family="Helvetica,sans-Serif" font-weight="bold" font-size="11.00">m_loan_repayment_schedule</text>
<text text-anchor="start" x="688" y="-791.2" font-family="Helvetica,sans-Serif" font-size="11.00">[table]</text>
<polygon fill="none" stroke="black" points="387,-761 387,-783 653,-783 653,-761 387,-761"/>
<image xlink:href="../../images/primaryKeys.png" width="11px" height="12px" preserveAspectRatio="xMinYMin meet" x="392" y="-778"/>
<text text-anchor="start" x="407" y="-769.2" font-family="Helvetica,sans-Serif" font-size="11.00">id</text>
<polygon fill="none" stroke="black" points="653,-761 653,-783 723,-783 723,-761 653,-761"/>
<text text-anchor="start" x="656" y="-769.2" font-family="Helvetica,sans-Serif" font-size="11.00">bigint[19]</text>
<polygon fill="#ffffff" stroke="transparent" points="387,-739 387,-761 653,-761 653,-739 387,-739"/>
<polygon fill="none" stroke="black" points="387,-739 387,-761 653,-761 653,-739 387,-739"/>
<image xlink:href="../../images/foreignKeys.png" width="11px" height="12px" preserveAspectRatio="xMinYMin meet" x="392" y="-756"/>
<text text-anchor="start" x="407" y="-747.2" font-family="Helvetica,sans-Serif" font-size="11.00">loan_id</text>
<polygon fill="none" stroke="black" points="653,-739 653,-761 723,-761 723,-739 653,-739"/>
<text text-anchor="start" x="656" y="-747.2" font-family="Helvetica,sans-Serif" font-size="11.00">bigint[19]</text>
<polygon fill="none" stroke="black" points="387,-717 387,-739 653,-739 653,-717 387,-717"/>
<text text-anchor="start" x="407" y="-725.2" font-family="Helvetica,sans-Serif" font-size="11.00">fromdate</text>
<polygon fill="none" stroke="black" points="653,-717 653,-739 723,-739 723,-717 653,-717"/>
<text text-anchor="start" x="656" y="-725.2" font-family="Helvetica,sans-Serif" font-size="11.00">date[10]</text>
<polygon fill="none" stroke="black" points="387,-695 387,-717 653,-717 653,-695 387,-695"/>
<text text-anchor="start" x="407" y="-703.2" font-family="Helvetica,sans-Serif" font-size="11.00">duedate</text>
<polygon fill="none" stroke="black" points="653,-695 653,-717 723,-717 723,-695 653,-695"/>
<text text-anchor="start" x="656" y="-703.2" font-family="Helvetica,sans-Serif" font-size="11.00">date[10]</text>
<polygon fill="none" stroke="black" points="387,-673 387,-695 653,-695 653,-673 387,-673"/>
<text text-anchor="start" x="407" y="-681.2" font-family="Helvetica,sans-Serif" font-size="11.00">installment</text>
<polygon fill="none" stroke="black" points="653,-673 653,-695 723,-695 723,-673 653,-673"/>
<text text-anchor="start" x="656" y="-681.2" font-family="Helvetica,sans-Serif" font-size="11.00">smallint[5]</text>
<polygon fill="none" stroke="black" points="387,-651 387,-673 653,-673 653,-651 387,-651"/>
<text text-anchor="start" x="407" y="-659.2" font-family="Helvetica,sans-Serif" font-size="11.00">principal_amount</text>
<polygon fill="none" stroke="black" points="653,-651 653,-673 723,-673 723,-651 653,-651"/>
<text text-anchor="start" x="656" y="-659.2" font-family="Helvetica,sans-Serif" font-size="11.00">decimal[19,6]</text>
<polygon fill="none" stroke="black" points="387,-629 387,-651 653,-651 653,-629 387,-629"/>
<text text-anchor="start" x="407" y="-637.2" font-family="Helvetica,sans-Serif" font-size="11.00">principal_completed_derived</text>
<polygon fill="none" stroke="black" points="653,-629 653,-651 723,-651 723,-629 653,-629"/>
<text text-anchor="start" x="656" y="-637.2" font-family="Helvetica,sans-Serif" font-size="11.00">decimal[19,6]</text>
<polygon fill="none" stroke="black" points="387,-607 387,-629 653,-629 653,-607 387,-607"/>
<text text-anchor="start" x="407" y="-615.2" font-family="Helvetica,sans-Serif" font-size="11.00">principal_writtenoff_derived</text>
<polygon fill="none" stroke="black" points="653,-607 653,-629 723,-629 723,-607 653,-607"/>
<text text-anchor="start" x="656" y="-615.2" font-family="Helvetica,sans-Serif" font-size="11.00">decimal[19,6]</text>
<polygon fill="none" stroke="black" points="387,-585 387,-607 653,-607 653,-585 387,-585"/>
<text text-anchor="start" x="407" y="-593.2" font-family="Helvetica,sans-Serif" font-size="11.00">interest_amount</text>
<polygon fill="none" stroke="black" points="653,-585 653,-607 723,-607 723,-585 653,-585"/>
<text text-anchor="start" x="656" y="-593.2" font-family="Helvetica,sans-Serif" font-size="11.00">decimal[19,6]</text>
<polygon fill="none" stroke="black" points="387,-563 387,-585 653,-585 653,-563 387,-563"/>
<text text-anchor="start" x="407" y="-571.2" font-family="Helvetica,sans-Serif" font-size="11.00">interest_completed_derived</text>
<polygon fill="none" stroke="black" points="653,-563 653,-585 723,-585 723,-563 653,-563"/>
<text text-anchor="start" x="656" y="-571.2" font-family="Helvetica,sans-Serif" font-size="11.00">decimal[19,6]</text>
<polygon fill="none" stroke="black" points="387,-541 387,-563 653,-563 653,-541 387,-541"/>
<text text-anchor="start" x="407" y="-549.2" font-family="Helvetica,sans-Serif" font-size="11.00">interest_writtenoff_derived</text>
<polygon fill="none" stroke="black" points="653,-541 653,-563 723,-563 723,-541 653,-541"/>
<text text-anchor="start" x="656" y="-549.2" font-family="Helvetica,sans-Serif" font-size="11.00">decimal[19,6]</text>
<polygon fill="none" stroke="black" points="387,-519 387,-541 653,-541 653,-519 387,-519"/>
<text text-anchor="start" x="407" y="-527.2" font-family="Helvetica,sans-Serif" font-size="11.00">interest_waived_derived</text>
<polygon fill="none" stroke="black" points="653,-519 653,-541 723,-541 723,-519 653,-519"/>
<text text-anchor="start" x="656" y="-527.2" font-family="Helvetica,sans-Serif" font-size="11.00">decimal[19,6]</text>
<polygon fill="none" stroke="black" points="387,-497 387,-519 653,-519 653,-497 387,-497"/>
<text text-anchor="start" x="407" y="-505.2" font-family="Helvetica,sans-Serif" font-size="11.00">accrual_interest_derived</text>
<polygon fill="none" stroke="black" points="653,-497 653,-519 723,-519 723,-497 653,-497"/>
<text text-anchor="start" x="656" y="-505.2" font-family="Helvetica,sans-Serif" font-size="11.00">decimal[19,6]</text>
<polygon fill="none" stroke="black" points="387,-475 387,-497 653,-497 653,-475 387,-475"/>
<text text-anchor="start" x="407" y="-483.2" font-family="Helvetica,sans-Serif" font-size="11.00">reschedule_interest_portion</text>
<polygon fill="none" stroke="black" points="653,-475 653,-497 723,-497 723,-475 653,-475"/>
<text text-anchor="start" x="656" y="-483.2" font-family="Helvetica,sans-Serif" font-size="11.00">decimal[19,6]</text>
<polygon fill="none" stroke="black" points="387,-453 387,-475 653,-475 653,-453 387,-453"/>
<text text-anchor="start" x="407" y="-461.2" font-family="Helvetica,sans-Serif" font-size="11.00">fee_charges_amount</text>
<polygon fill="none" stroke="black" points="653,-453 653,-475 723,-475 723,-453 653,-453"/>
<text text-anchor="start" x="656" y="-461.2" font-family="Helvetica,sans-Serif" font-size="11.00">decimal[19,6]</text>
<polygon fill="none" stroke="black" points="387,-431 387,-453 653,-453 653,-431 387,-431"/>
<text text-anchor="start" x="407" y="-439.2" font-family="Helvetica,sans-Serif" font-size="11.00">fee_charges_completed_derived</text>
<polygon fill="none" stroke="black" points="653,-431 653,-453 723,-453 723,-431 653,-431"/>
<text text-anchor="start" x="656" y="-439.2" font-family="Helvetica,sans-Serif" font-size="11.00">decimal[19,6]</text>
<polygon fill="none" stroke="black" points="387,-409 387,-431 653,-431 653,-409 387,-409"/>
<text text-anchor="start" x="407" y="-417.2" font-family="Helvetica,sans-Serif" font-size="11.00">fee_charges_writtenoff_derived</text>
<polygon fill="none" stroke="black" points="653,-409 653,-431 723,-431 723,-409 653,-409"/>
<text text-anchor="start" x="656" y="-417.2" font-family="Helvetica,sans-Serif" font-size="11.00">decimal[19,6]</text>
<polygon fill="none" stroke="black" points="387,-387 387,-409 653,-409 653,-387 387,-387"/>
<text text-anchor="start" x="407" y="-395.2" font-family="Helvetica,sans-Serif" font-size="11.00">fee_charges_waived_derived</text>
<polygon fill="none" stroke="black" points="653,-387 653,-409 723,-409 723,-387 653,-387"/>
<text text-anchor="start" x="656" y="-395.2" font-family="Helvetica,sans-Serif" font-size="11.00">decimal[19,6]</text>
<polygon fill="none" stroke="black" points="387,-365 387,-387 653,-387 653,-365 387,-365"/>
<text text-anchor="start" x="407" y="-373.2" font-family="Helvetica,sans-Serif" font-size="11.00">accrual_fee_charges_derived</text>
<polygon fill="none" stroke="black" points="653,-365 653,-387 723,-387 723,-365 653,-365"/>
<text text-anchor="start" x="656" y="-373.2" font-family="Helvetica,sans-Serif" font-size="11.00">decimal[19,6]</text>
<polygon fill="none" stroke="black" points="387,-343 387,-365 653,-365 653,-343 387,-343"/>
<text text-anchor="start" x="407" y="-351.2" font-family="Helvetica,sans-Serif" font-size="11.00">penalty_charges_amount</text>
<polygon fill="none" stroke="black" points="653,-343 653,-365 723,-365 723,-343 653,-343"/>
<text text-anchor="start" x="656" y="-351.2" font-family="Helvetica,sans-Serif" font-size="11.00">decimal[19,6]</text>
<polygon fill="none" stroke="black" points="387,-321 387,-343 653,-343 653,-321 387,-321"/>
<text text-anchor="start" x="407" y="-329.2" font-family="Helvetica,sans-Serif" font-size="11.00">penalty_charges_completed_derived</text>
<polygon fill="none" stroke="black" points="653,-321 653,-343 723,-343 723,-321 653,-321"/>
<text text-anchor="start" x="656" y="-329.2" font-family="Helvetica,sans-Serif" font-size="11.00">decimal[19,6]</text>
<polygon fill="none" stroke="black" points="387,-299 387,-321 653,-321 653,-299 387,-299"/>
<text text-anchor="start" x="407" y="-307.2" font-family="Helvetica,sans-Serif" font-size="11.00">penalty_charges_writtenoff_derived</text>
<polygon fill="none" stroke="black" points="653,-299 653,-321 723,-321 723,-299 653,-299"/>
<text text-anchor="start" x="656" y="-307.2" font-family="Helvetica,sans-Serif" font-size="11.00">decimal[19,6]</text>
<polygon fill="none" stroke="black" points="387,-277 387,-299 653,-299 653,-277 387,-277"/>
<text text-anchor="start" x="407" y="-285.2" font-family="Helvetica,sans-Serif" font-size="11.00">penalty_charges_waived_derived</text>
<polygon fill="none" stroke="black" points="653,-277 653,-299 723,-299 723,-277 653,-277"/>
<text text-anchor="start" x="656" y="-285.2" font-family="Helvetica,sans-Serif" font-size="11.00">decimal[19,6]</text>
<polygon fill="none" stroke="black" points="387,-255 387,-277 653,-277 653,-255 387,-255"/>
<text text-anchor="start" x="407" y="-263.2" font-family="Helvetica,sans-Serif" font-size="11.00">accrual_penalty_charges_derived</text>
<polygon fill="none" stroke="black" points="653,-255 653,-277 723,-277 723,-255 653,-255"/>
<text text-anchor="start" x="656" y="-263.2" font-family="Helvetica,sans-Serif" font-size="11.00">decimal[19,6]</text>
<polygon fill="none" stroke="black" points="387,-233 387,-255 653,-255 653,-233 387,-233"/>
<text text-anchor="start" x="407" y="-241.2" font-family="Helvetica,sans-Serif" font-size="11.00">total_paid_in_advance_derived</text>
<polygon fill="none" stroke="black" points="653,-233 653,-255 723,-255 723,-233 653,-233"/>
<text text-anchor="start" x="656" y="-241.2" font-family="Helvetica,sans-Serif" font-size="11.00">decimal[19,6]</text>
<polygon fill="none" stroke="black" points="387,-211 387,-233 653,-233 653,-211 387,-211"/>
<text text-anchor="start" x="407" y="-219.2" font-family="Helvetica,sans-Serif" font-size="11.00">total_paid_late_derived</text>
<polygon fill="none" stroke="black" points="653,-211 653,-233 723,-233 723,-211 653,-211"/>
<text text-anchor="start" x="656" y="-219.2" font-family="Helvetica,sans-Serif" font-size="11.00">decimal[19,6]</text>
<polygon fill="none" stroke="black" points="387,-189 387,-211 653,-211 653,-189 387,-189"/>
<text text-anchor="start" x="407" y="-197.2" font-family="Helvetica,sans-Serif" font-size="11.00">completed_derived</text>
<polygon fill="none" stroke="black" points="653,-189 653,-211 723,-211 723,-189 653,-189"/>
<text text-anchor="start" x="656" y="-197.2" font-family="Helvetica,sans-Serif" font-size="11.00">bit[1]</text>
<polygon fill="none" stroke="black" points="387,-167 387,-189 653,-189 653,-167 387,-167"/>
<text text-anchor="start" x="407" y="-175.2" font-family="Helvetica,sans-Serif" font-size="11.00">obligations_met_on_date</text>
<polygon fill="none" stroke="black" points="653,-167 653,-189 723,-189 723,-167 653,-167"/>
<text text-anchor="start" x="656" y="-175.2" font-family="Helvetica,sans-Serif" font-size="11.00">date[10]</text>
<polygon fill="none" stroke="black" points="387,-145 387,-167 653,-167 653,-145 387,-145"/>
<text text-anchor="start" x="407" y="-153.2" font-family="Helvetica,sans-Serif" font-size="11.00">createdby_id</text>
<polygon fill="none" stroke="black" points="653,-145 653,-167 723,-167 723,-145 653,-145"/>
<text text-anchor="start" x="656" y="-153.2" font-family="Helvetica,sans-Serif" font-size="11.00">bigint[19]</text>
<polygon fill="none" stroke="black" points="387,-123 387,-145 653,-145 653,-123 387,-123"/>
<text text-anchor="start" x="407" y="-131.2" font-family="Helvetica,sans-Serif" font-size="11.00">created_date</text>
<polygon fill="none" stroke="black" points="653,-123 653,-145 723,-145 723,-123 653,-123"/>
<text text-anchor="start" x="656" y="-131.2" font-family="Helvetica,sans-Serif" font-size="11.00">datetime[19]</text>
<polygon fill="none" stroke="black" points="387,-101 387,-123 653,-123 653,-101 387,-101"/>
<text text-anchor="start" x="407" y="-109.2" font-family="Helvetica,sans-Serif" font-size="11.00">lastmodified_date</text>
<polygon fill="none" stroke="black" points="653,-101 653,-123 723,-123 723,-101 653,-101"/>
<text text-anchor="start" x="656" y="-109.2" font-family="Helvetica,sans-Serif" font-size="11.00">datetime[19]</text>
<polygon fill="none" stroke="black" points="387,-79 387,-101 653,-101 653,-79 387,-79"/>
<text text-anchor="start" x="407" y="-87.2" font-family="Helvetica,sans-Serif" font-size="11.00">lastmodifiedby_id</text>
<polygon fill="none" stroke="black" points="653,-79 653,-101 723,-101 723,-79 653,-79"/>
<text text-anchor="start" x="656" y="-87.2" font-family="Helvetica,sans-Serif" font-size="11.00">bigint[19]</text>
<polygon fill="none" stroke="black" points="387,-57 387,-79 653,-79 653,-57 387,-57"/>
<text text-anchor="start" x="407" y="-65.2" font-family="Helvetica,sans-Serif" font-size="11.00">recalculated_interest_component</text>
<polygon fill="none" stroke="black" points="653,-57 653,-79 723,-79 723,-57 653,-57"/>
<text text-anchor="start" x="656" y="-65.2" font-family="Helvetica,sans-Serif" font-size="11.00">bit[1]</text>
<polygon fill="#ffffff" stroke="transparent" points="387,-39 387,-57 511,-57 511,-39 387,-39"/>
<polygon fill="none" stroke="black" points="387,-39 387,-57 511,-57 511,-39 387,-39"/>
<text text-anchor="start" x="390" y="-45.2" font-family="Helvetica,sans-Serif" font-size="11.00">&lt; 1</text>
<polygon fill="#ffffff" stroke="transparent" points="511,-39 511,-57 653,-57 653,-39 511,-39"/>
<polygon fill="none" stroke="black" points="511,-39 511,-57 653,-57 653,-39 511,-39"/>
<text text-anchor="start" x="617" y="-45.2" font-family="Helvetica,sans-Serif" font-size="11.00">0 rows</text>
<polygon fill="#ffffff" stroke="transparent" points="653,-39 653,-57 723,-57 723,-39 653,-39"/>
<polygon fill="none" stroke="black" points="653,-39 653,-57 723,-57 723,-39 653,-39"/>
<text text-anchor="start" x="704" y="-45.2" font-family="Helvetica,sans-Serif" font-size="11.00">5 &gt;</text>
<polygon fill="none" stroke="black" stroke-width="2" points="386,-38 386,-806 724,-806 724,-38 386,-38"/>
</a>
</g>
</g>
<!-- m_loan_installment_charge&#45;&gt;m_loan_repayment_schedule -->
<g id="edge1" class="edge">
<title>m_loan_installment_charge:w&#45;&gt;m_loan_repayment_schedule:e</title>
<path fill="none" stroke="black" d="M814.45,-831.3C775.05,-821.45 772.59,-772 724,-772"/>
<polygon fill="black" stroke="black" points="821.05,-832.07 828.58,-836.58 825.03,-832.54 829,-833 829,-833 829,-833 825.03,-832.54 829.42,-829.42 821.05,-832.07 821.05,-832.07"/>
<ellipse fill="none" stroke="black" cx="817.88" cy="-831.7" rx="3.2" ry="3.2"/>
</g>
<!-- m_loan -->
<g id="node5" class="node">
<title>m_loan</title>
<g id="a_node5"><a xlink:href="../../tables/m_loan.html" xlink:title="m_loan" target="_top">
<polygon fill="#ffffff" stroke="transparent" points="8,-396 8,-850 336,-850 336,-396 8,-396"/>
<polygon fill="#f5f5f5" stroke="transparent" points="8,-828 8,-850 336,-850 336,-828 8,-828"/>
<polygon fill="none" stroke="black" points="8,-828 8,-850 336,-850 336,-828 8,-828"/>
<text text-anchor="start" x="13" y="-837.2" font-family="Helvetica,sans-Serif" font-weight="bold" font-size="11.00">m_loan</text>
<text text-anchor="start" x="301" y="-836.2" font-family="Helvetica,sans-Serif" font-size="11.00">[table]</text>
<polygon fill="none" stroke="black" points="8,-806 8,-828 336,-828 336,-806 8,-806"/>
<image xlink:href="../../images/primaryKeys.png" width="11px" height="12px" preserveAspectRatio="xMinYMin meet" x="13" y="-823"/>
<text text-anchor="start" x="28" y="-814.2" font-family="Helvetica,sans-Serif" font-size="11.00">id</text>
<polygon fill="#ffffff" stroke="transparent" points="8,-784 8,-806 336,-806 336,-784 8,-784"/>
<polygon fill="none" stroke="black" points="8,-784 8,-806 336,-806 336,-784 8,-784"/>
<text text-anchor="start" x="28" y="-792.2" font-family="Helvetica,sans-Serif" font-size="11.00">account_no</text>
<polygon fill="#ffffff" stroke="transparent" points="8,-762 8,-784 336,-784 336,-762 8,-762"/>
<polygon fill="none" stroke="black" points="8,-762 8,-784 336,-784 336,-762 8,-762"/>
<text text-anchor="start" x="28" y="-770.2" font-family="Helvetica,sans-Serif" font-size="11.00">external_id</text>
<polygon fill="#ffffff" stroke="transparent" points="8,-740 8,-762 336,-762 336,-740 8,-740"/>
<polygon fill="none" stroke="black" points="8,-740 8,-762 336,-762 336,-740 8,-740"/>
<image xlink:href="../../images/foreignKeys.png" width="11px" height="12px" preserveAspectRatio="xMinYMin meet" x="13" y="-757"/>
<text text-anchor="start" x="28" y="-748.2" font-family="Helvetica,sans-Serif" font-size="11.00">client_id</text>
<polygon fill="#ffffff" stroke="transparent" points="8,-718 8,-740 336,-740 336,-718 8,-718"/>
<polygon fill="none" stroke="black" points="8,-718 8,-740 336,-740 336,-718 8,-718"/>
<image xlink:href="../../images/foreignKeys.png" width="11px" height="12px" preserveAspectRatio="xMinYMin meet" x="13" y="-735"/>
<text text-anchor="start" x="28" y="-726.2" font-family="Helvetica,sans-Serif" font-size="11.00">group_id</text>
<polygon fill="#ffffff" stroke="transparent" points="8,-696 8,-718 336,-718 336,-696 8,-696"/>
<polygon fill="none" stroke="black" points="8,-696 8,-718 336,-718 336,-696 8,-696"/>
<image xlink:href="../../images/foreignKeys.png" width="11px" height="12px" preserveAspectRatio="xMinYMin meet" x="13" y="-713"/>
<text text-anchor="start" x="28" y="-704.2" font-family="Helvetica,sans-Serif" font-size="11.00">glim_id</text>
<polygon fill="#ffffff" stroke="transparent" points="8,-674 8,-696 336,-696 336,-674 8,-674"/>
<polygon fill="none" stroke="black" points="8,-674 8,-696 336,-696 336,-674 8,-674"/>
<image xlink:href="../../images/foreignKeys.png" width="11px" height="12px" preserveAspectRatio="xMinYMin meet" x="13" y="-691"/>
<text text-anchor="start" x="28" y="-682.2" font-family="Helvetica,sans-Serif" font-size="11.00">product_id</text>
<polygon fill="#ffffff" stroke="transparent" points="8,-652 8,-674 336,-674 336,-652 8,-652"/>
<polygon fill="none" stroke="black" points="8,-652 8,-674 336,-674 336,-652 8,-652"/>
<image xlink:href="../../images/foreignKeys.png" width="11px" height="12px" preserveAspectRatio="xMinYMin meet" x="13" y="-669"/>
<text text-anchor="start" x="28" y="-660.2" font-family="Helvetica,sans-Serif" font-size="11.00">fund_id</text>
<polygon fill="#ffffff" stroke="transparent" points="8,-630 8,-652 336,-652 336,-630 8,-630"/>
<polygon fill="none" stroke="black" points="8,-630 8,-652 336,-652 336,-630 8,-630"/>
<image xlink:href="../../images/foreignKeys.png" width="11px" height="12px" preserveAspectRatio="xMinYMin meet" x="13" y="-647"/>
<text text-anchor="start" x="28" y="-638.2" font-family="Helvetica,sans-Serif" font-size="11.00">loan_officer_id</text>
<polygon fill="#ffffff" stroke="transparent" points="8,-608 8,-630 336,-630 336,-608 8,-608"/>
<polygon fill="none" stroke="black" points="8,-608 8,-630 336,-630 336,-608 8,-608"/>
<image xlink:href="../../images/foreignKeys.png" width="11px" height="12px" preserveAspectRatio="xMinYMin meet" x="13" y="-625"/>
<text text-anchor="start" x="28" y="-616.2" font-family="Helvetica,sans-Serif" font-size="11.00">loanpurpose_cv_id</text>
<polygon fill="#ffffff" stroke="transparent" points="8,-586 8,-608 336,-608 336,-586 8,-586"/>
<polygon fill="none" stroke="black" points="8,-586 8,-608 336,-608 336,-586 8,-586"/>
<image xlink:href="../../images/foreignKeys.png" width="11px" height="12px" preserveAspectRatio="xMinYMin meet" x="13" y="-603"/>
<text text-anchor="start" x="28" y="-594.2" font-family="Helvetica,sans-Serif" font-size="11.00">submittedon_userid</text>
<polygon fill="#ffffff" stroke="transparent" points="8,-564 8,-586 336,-586 336,-564 8,-564"/>
<polygon fill="none" stroke="black" points="8,-564 8,-586 336,-586 336,-564 8,-564"/>
<image xlink:href="../../images/foreignKeys.png" width="11px" height="12px" preserveAspectRatio="xMinYMin meet" x="13" y="-581"/>
<text text-anchor="start" x="28" y="-572.2" font-family="Helvetica,sans-Serif" font-size="11.00">approvedon_userid</text>
<polygon fill="#ffffff" stroke="transparent" points="8,-542 8,-564 336,-564 336,-542 8,-542"/>
<polygon fill="none" stroke="black" points="8,-542 8,-564 336,-564 336,-542 8,-542"/>
<image xlink:href="../../images/foreignKeys.png" width="11px" height="12px" preserveAspectRatio="xMinYMin meet" x="13" y="-559"/>
<text text-anchor="start" x="28" y="-550.2" font-family="Helvetica,sans-Serif" font-size="11.00">disbursedon_userid</text>
<polygon fill="#ffffff" stroke="transparent" points="8,-520 8,-542 336,-542 336,-520 8,-520"/>
<polygon fill="none" stroke="black" points="8,-520 8,-542 336,-542 336,-520 8,-520"/>
<image xlink:href="../../images/foreignKeys.png" width="11px" height="12px" preserveAspectRatio="xMinYMin meet" x="13" y="-537"/>
<text text-anchor="start" x="28" y="-528.2" font-family="Helvetica,sans-Serif" font-size="11.00">closedon_userid</text>
<polygon fill="#ffffff" stroke="transparent" points="8,-498 8,-520 336,-520 336,-498 8,-498"/>
<polygon fill="none" stroke="black" points="8,-498 8,-520 336,-520 336,-498 8,-498"/>
<image xlink:href="../../images/foreignKeys.png" width="11px" height="12px" preserveAspectRatio="xMinYMin meet" x="13" y="-515"/>
<text text-anchor="start" x="28" y="-506.2" font-family="Helvetica,sans-Serif" font-size="11.00">rejectedon_userid</text>
<polygon fill="#ffffff" stroke="transparent" points="8,-476 8,-498 336,-498 336,-476 8,-476"/>
<polygon fill="none" stroke="black" points="8,-476 8,-498 336,-498 336,-476 8,-476"/>
<image xlink:href="../../images/foreignKeys.png" width="11px" height="12px" preserveAspectRatio="xMinYMin meet" x="13" y="-493"/>
<text text-anchor="start" x="28" y="-484.2" font-family="Helvetica,sans-Serif" font-size="11.00">withdrawnon_userid</text>
<polygon fill="#ffffff" stroke="transparent" points="8,-454 8,-476 336,-476 336,-454 8,-454"/>
<polygon fill="none" stroke="black" points="8,-454 8,-476 336,-476 336,-454 8,-454"/>
<image xlink:href="../../images/foreignKeys.png" width="11px" height="12px" preserveAspectRatio="xMinYMin meet" x="13" y="-471"/>
<text text-anchor="start" x="28" y="-462.2" font-family="Helvetica,sans-Serif" font-size="11.00">loan_transaction_strategy_id</text>
<polygon fill="#ffffff" stroke="transparent" points="8,-432 8,-454 336,-454 336,-432 8,-432"/>
<polygon fill="none" stroke="black" points="8,-432 8,-454 336,-454 336,-432 8,-432"/>
<image xlink:href="../../images/foreignKeys.png" width="11px" height="12px" preserveAspectRatio="xMinYMin meet" x="13" y="-449"/>
<text text-anchor="start" x="28" y="-440.2" font-family="Helvetica,sans-Serif" font-size="11.00">writeoff_reason_cv_id</text>
<polygon fill="none" stroke="black" points="8,-414 8,-432 336,-432 336,-414 8,-414"/>
<text text-anchor="start" x="11" y="-420.2" font-family="Helvetica,sans-Serif" font-size="11.00">...</text>
<polygon fill="#ffffff" stroke="transparent" points="8,-396 8,-414 152,-414 152,-396 8,-396"/>
<polygon fill="none" stroke="black" points="8,-396 8,-414 152,-414 152,-396 8,-396"/>
<text text-anchor="start" x="11" y="-402.2" font-family="Helvetica,sans-Serif" font-size="11.00">&lt; 15</text>
<polygon fill="#ffffff" stroke="transparent" points="152,-396 152,-414 249,-414 249,-396 152,-396"/>
<polygon fill="none" stroke="black" points="152,-396 152,-414 249,-414 249,-396 152,-396"/>
<text text-anchor="start" x="213" y="-402.2" font-family="Helvetica,sans-Serif" font-size="11.00">0 rows</text>
<polygon fill="#ffffff" stroke="transparent" points="249,-396 249,-414 336,-414 336,-396 249,-396"/>
<polygon fill="none" stroke="black" points="249,-396 249,-414 336,-414 336,-396 249,-396"/>
<text text-anchor="start" x="311" y="-402.2" font-family="Helvetica,sans-Serif" font-size="11.00">24 &gt;</text>
</a>
</g>
</g>
<!-- m_loan_repayment_schedule&#45;&gt;m_loan -->
<g id="edge4" class="edge">
<title>m_loan_repayment_schedule:w&#45;&gt;m_loan:e</title>
<path fill="none" stroke="black" d="M372.28,-754.82C355.58,-770.18 367.84,-817 337,-817"/>
<polygon fill="black" stroke="black" points="378.45,-752.65 387.19,-753.4 382.23,-751.33 386,-750 386,-750 386,-750 382.23,-751.33 384.81,-746.6 378.45,-752.65 378.45,-752.65"/>
<ellipse fill="none" stroke="black" cx="375.43" cy="-753.71" rx="3.2" ry="3.2"/>
</g>
<!-- m_loan_interest_recalculation_additional_details -->
<g id="node3" class="node">
<title>m_loan_interest_recalculation_additional_details</title>
<g id="a_node3"><a xlink:href="../../tables/m_loan_interest_recalculation_additional_details.html" xlink:title="m_loan_interest_recalculation_additional_details" target="_top">
<polygon fill="#ffffff" stroke="transparent" points="781,-663 781,-765 1129,-765 1129,-663 781,-663"/>
<polygon fill="#f5f5f5" stroke="transparent" points="781,-743 781,-765 1129,-765 1129,-743 781,-743"/>
<polygon fill="none" stroke="black" points="781,-743 781,-765 1129,-765 1129,-743 781,-743"/>
<text text-anchor="start" x="786" y="-752.2" font-family="Helvetica,sans-Serif" font-weight="bold" font-size="11.00">m_loan_interest_recalculation_additional_details</text>
<text text-anchor="start" x="1094" y="-751.2" font-family="Helvetica,sans-Serif" font-size="11.00">[table]</text>
<polygon fill="none" stroke="black" points="781,-721 781,-743 1129,-743 1129,-721 781,-721"/>
<image xlink:href="../../images/primaryKeys.png" width="11px" height="12px" preserveAspectRatio="xMinYMin meet" x="786" y="-738"/>
<text text-anchor="start" x="801" y="-729.2" font-family="Helvetica,sans-Serif" font-size="11.00">id</text>
<polygon fill="#ffffff" stroke="transparent" points="781,-699 781,-721 1129,-721 1129,-699 781,-699"/>
<polygon fill="none" stroke="black" points="781,-699 781,-721 1129,-721 1129,-699 781,-699"/>
<image xlink:href="../../images/foreignKeys.png" width="11px" height="12px" preserveAspectRatio="xMinYMin meet" x="786" y="-716"/>
<text text-anchor="start" x="801" y="-707.2" font-family="Helvetica,sans-Serif" font-size="11.00">loan_repayment_schedule_id</text>
<polygon fill="none" stroke="black" points="781,-681 781,-699 1129,-699 1129,-681 781,-681"/>
<text text-anchor="start" x="784" y="-687.2" font-family="Helvetica,sans-Serif" font-size="11.00">...</text>
<polygon fill="#ffffff" stroke="transparent" points="781,-663 781,-681 940,-681 940,-663 781,-663"/>
<polygon fill="none" stroke="black" points="781,-663 781,-681 940,-681 940,-663 781,-663"/>
<text text-anchor="start" x="784" y="-669.2" font-family="Helvetica,sans-Serif" font-size="11.00">&lt; 1</text>
<polygon fill="#ffffff" stroke="transparent" points="940,-663 940,-681 1047,-681 1047,-663 940,-663"/>
<polygon fill="none" stroke="black" points="940,-663 940,-681 1047,-681 1047,-663 940,-663"/>
<text text-anchor="start" x="1011" y="-669.2" font-family="Helvetica,sans-Serif" font-size="11.00">0 rows</text>
<polygon fill="#ffffff" stroke="transparent" points="1047,-663 1047,-681 1129,-681 1129,-663 1047,-663"/>
<polygon fill="none" stroke="black" points="1047,-663 1047,-681 1129,-681 1129,-663 1047,-663"/>
<text text-anchor="start" x="1119" y="-669.2" font-family="Helvetica,sans-Serif" font-size="11.00"> &#160;</text>
</a>
</g>
</g>
<!-- m_loan_interest_recalculation_additional_details&#45;&gt;m_loan_repayment_schedule -->
<g id="edge2" class="edge">
<title>m_loan_interest_recalculation_additional_details:w&#45;&gt;m_loan_repayment_schedule:e</title>
<path fill="none" stroke="black" d="M765.97,-714.26C747.3,-728.27 755.18,-772 724,-772"/>
<polygon fill="black" stroke="black" points="772.35,-712.32 781.05,-713.44 776.17,-711.16 780,-710 780,-710 780,-710 776.17,-711.16 778.95,-706.56 772.35,-712.32 772.35,-712.32"/>
<ellipse fill="none" stroke="black" cx="769.28" cy="-713.25" rx="3.2" ry="3.2"/>
</g>
<!-- m_loan_overdue_installment_charge -->
<g id="node4" class="node">
<title>m_loan_overdue_installment_charge</title>
<g id="a_node4"><a xlink:href="../../tables/m_loan_overdue_installment_charge.html" xlink:title="m_loan_overdue_installment_charge" target="_top">
<polygon fill="#ffffff" stroke="transparent" points="822.5,-518 822.5,-642 1087.5,-642 1087.5,-518 822.5,-518"/>
<polygon fill="#f5f5f5" stroke="transparent" points="823,-620 823,-642 1088,-642 1088,-620 823,-620"/>
<polygon fill="none" stroke="black" points="823,-620 823,-642 1088,-642 1088,-620 823,-620"/>
<text text-anchor="start" x="828" y="-629.2" font-family="Helvetica,sans-Serif" font-weight="bold" font-size="11.00">m_loan_overdue_installment_charge</text>
<text text-anchor="start" x="1053" y="-628.2" font-family="Helvetica,sans-Serif" font-size="11.00">[table]</text>
<polygon fill="none" stroke="black" points="823,-598 823,-620 1088,-620 1088,-598 823,-598"/>
<image xlink:href="../../images/primaryKeys.png" width="11px" height="12px" preserveAspectRatio="xMinYMin meet" x="828" y="-615"/>
<text text-anchor="start" x="843" y="-606.2" font-family="Helvetica,sans-Serif" font-size="11.00">id</text>
<polygon fill="#ffffff" stroke="transparent" points="823,-576 823,-598 1088,-598 1088,-576 823,-576"/>
<polygon fill="none" stroke="black" points="823,-576 823,-598 1088,-598 1088,-576 823,-576"/>
<image xlink:href="../../images/foreignKeys.png" width="11px" height="12px" preserveAspectRatio="xMinYMin meet" x="828" y="-593"/>
<text text-anchor="start" x="843" y="-584.2" font-family="Helvetica,sans-Serif" font-size="11.00">loan_charge_id</text>
<polygon fill="#ffffff" stroke="transparent" points="823,-554 823,-576 1088,-576 1088,-554 823,-554"/>
<polygon fill="none" stroke="black" points="823,-554 823,-576 1088,-576 1088,-554 823,-554"/>
<image xlink:href="../../images/foreignKeys.png" width="11px" height="12px" preserveAspectRatio="xMinYMin meet" x="828" y="-571"/>
<text text-anchor="start" x="843" y="-562.2" font-family="Helvetica,sans-Serif" font-size="11.00">loan_schedule_id</text>
<polygon fill="none" stroke="black" points="823,-536 823,-554 1088,-554 1088,-536 823,-536"/>
<text text-anchor="start" x="826" y="-542.2" font-family="Helvetica,sans-Serif" font-size="11.00">...</text>
<polygon fill="#ffffff" stroke="transparent" points="823,-518 823,-536 940,-536 940,-518 823,-518"/>
<polygon fill="none" stroke="black" points="823,-518 823,-536 940,-536 940,-518 823,-518"/>
<text text-anchor="start" x="826" y="-524.2" font-family="Helvetica,sans-Serif" font-size="11.00">&lt; 2</text>
<polygon fill="#ffffff" stroke="transparent" points="940,-518 940,-536 1027,-536 1027,-518 940,-518"/>
<polygon fill="none" stroke="black" points="940,-518 940,-536 1027,-536 1027,-518 940,-518"/>
<text text-anchor="start" x="991" y="-524.2" font-family="Helvetica,sans-Serif" font-size="11.00">0 rows</text>
<polygon fill="#ffffff" stroke="transparent" points="1027,-518 1027,-536 1088,-536 1088,-518 1027,-518"/>
<polygon fill="none" stroke="black" points="1027,-518 1027,-536 1088,-536 1088,-518 1027,-518"/>
<text text-anchor="start" x="1078" y="-524.2" font-family="Helvetica,sans-Serif" font-size="11.00"> &#160;</text>
</a>
</g>
</g>
<!-- m_loan_overdue_installment_charge&#45;&gt;m_loan_repayment_schedule -->
<g id="edge3" class="edge">
<title>m_loan_overdue_installment_charge:w&#45;&gt;m_loan_repayment_schedule:e</title>
<path fill="none" stroke="black" d="M807.51,-566.95C777.77,-576.15 783.83,-616.36 766,-653 741.45,-703.43 780.09,-772 724,-772"/>
<polygon fill="black" stroke="black" points="814.07,-566.07 822.48,-568.57 818.04,-565.53 822,-565 822,-565 822,-565 818.04,-565.53 821.52,-561.43 814.07,-566.07 814.07,-566.07"/>
<ellipse fill="none" stroke="black" cx="810.9" cy="-566.49" rx="3.2" ry="3.2"/>
</g>
<!-- m_loan_transaction_repayment_schedule_mapping -->
<g id="node6" class="node">
<title>m_loan_transaction_repayment_schedule_mapping</title>
<g id="a_node6"><a xlink:href="../../tables/m_loan_transaction_repayment_schedule_mapping.html" xlink:title="m_loan_transaction_repayment_schedule_mapping" target="_top">
<polygon fill="#ffffff" stroke="transparent" points="774,-373 774,-497 1136,-497 1136,-373 774,-373"/>
<polygon fill="#f5f5f5" stroke="transparent" points="774,-475 774,-497 1136,-497 1136,-475 774,-475"/>
<polygon fill="none" stroke="black" points="774,-475 774,-497 1136,-497 1136,-475 774,-475"/>
<text text-anchor="start" x="779" y="-484.2" font-family="Helvetica,sans-Serif" font-weight="bold" font-size="11.00">m_loan_transaction_repayment_schedule_mapping</text>
<text text-anchor="start" x="1101" y="-483.2" font-family="Helvetica,sans-Serif" font-size="11.00">[table]</text>
<polygon fill="none" stroke="black" points="774,-453 774,-475 1136,-475 1136,-453 774,-453"/>
<image xlink:href="../../images/primaryKeys.png" width="11px" height="12px" preserveAspectRatio="xMinYMin meet" x="779" y="-470"/>
<text text-anchor="start" x="794" y="-461.2" font-family="Helvetica,sans-Serif" font-size="11.00">id</text>
<polygon fill="#ffffff" stroke="transparent" points="774,-431 774,-453 1136,-453 1136,-431 774,-431"/>
<polygon fill="none" stroke="black" points="774,-431 774,-453 1136,-453 1136,-431 774,-431"/>
<image xlink:href="../../images/foreignKeys.png" width="11px" height="12px" preserveAspectRatio="xMinYMin meet" x="779" y="-448"/>
<text text-anchor="start" x="794" y="-439.2" font-family="Helvetica,sans-Serif" font-size="11.00">loan_transaction_id</text>
<polygon fill="#ffffff" stroke="transparent" points="774,-409 774,-431 1136,-431 1136,-409 774,-409"/>
<polygon fill="none" stroke="black" points="774,-409 774,-431 1136,-431 1136,-409 774,-409"/>
<image xlink:href="../../images/foreignKeys.png" width="11px" height="12px" preserveAspectRatio="xMinYMin meet" x="779" y="-426"/>
<text text-anchor="start" x="794" y="-417.2" font-family="Helvetica,sans-Serif" font-size="11.00">loan_repayment_schedule_id</text>
<polygon fill="none" stroke="black" points="774,-391 774,-409 1136,-409 1136,-391 774,-391"/>
<text text-anchor="start" x="777" y="-397.2" font-family="Helvetica,sans-Serif" font-size="11.00">...</text>
<polygon fill="#ffffff" stroke="transparent" points="774,-373 774,-391 940,-391 940,-373 774,-373"/>
<polygon fill="none" stroke="black" points="774,-373 774,-391 940,-391 940,-373 774,-373"/>
<text text-anchor="start" x="777" y="-379.2" font-family="Helvetica,sans-Serif" font-size="11.00">&lt; 2</text>
<polygon fill="#ffffff" stroke="transparent" points="940,-373 940,-391 1051,-391 1051,-373 940,-373"/>
<polygon fill="none" stroke="black" points="940,-373 940,-391 1051,-391 1051,-373 940,-373"/>
<text text-anchor="start" x="1015" y="-379.2" font-family="Helvetica,sans-Serif" font-size="11.00">0 rows</text>
<polygon fill="#ffffff" stroke="transparent" points="1051,-373 1051,-391 1136,-391 1136,-373 1051,-373"/>
<polygon fill="none" stroke="black" points="1051,-373 1051,-391 1136,-391 1136,-373 1051,-373"/>
<text text-anchor="start" x="1126" y="-379.2" font-family="Helvetica,sans-Serif" font-size="11.00"> &#160;</text>
</a>
</g>
</g>
<!-- m_loan_transaction_repayment_schedule_mapping&#45;&gt;m_loan_repayment_schedule -->
<g id="edge5" class="edge">
<title>m_loan_transaction_repayment_schedule_mapping:w&#45;&gt;m_loan_repayment_schedule:e</title>
<path fill="none" stroke="black" d="M759.32,-424.71C708.04,-466.48 797.58,-772 724,-772"/>
<polygon fill="black" stroke="black" points="765.44,-422.6 774.17,-423.4 769.22,-421.3 773,-420 773,-420 773,-420 769.22,-421.3 771.83,-416.6 765.44,-422.6 765.44,-422.6"/>
<ellipse fill="none" stroke="black" cx="762.41" cy="-423.65" rx="3.2" ry="3.2"/>
</g>
<!-- m_repayment_with_post_dated_checks -->
<g id="node7" class="node">
<title>m_repayment_with_post_dated_checks</title>
<g id="a_node7"><a xlink:href="../../tables/m_repayment_with_post_dated_checks.html" xlink:title="m_repayment_with_post_dated_checks" target="_top">
<polygon fill="#ffffff" stroke="transparent" points="814.5,-931 814.5,-1077 1095.5,-1077 1095.5,-931 814.5,-931"/>
<polygon fill="#f5f5f5" stroke="transparent" points="815,-1055 815,-1077 1096,-1077 1096,-1055 815,-1055"/>
<polygon fill="none" stroke="black" points="815,-1055 815,-1077 1096,-1077 1096,-1055 815,-1055"/>
<text text-anchor="start" x="820" y="-1064.2" font-family="Helvetica,sans-Serif" font-weight="bold" font-size="11.00">m_repayment_with_post_dated_checks</text>
<text text-anchor="start" x="1061" y="-1063.2" font-family="Helvetica,sans-Serif" font-size="11.00">[table]</text>
<polygon fill="none" stroke="black" points="815,-1033 815,-1055 1096,-1055 1096,-1033 815,-1033"/>
<image xlink:href="../../images/primaryKeys.png" width="11px" height="12px" preserveAspectRatio="xMinYMin meet" x="820" y="-1050"/>
<text text-anchor="start" x="835" y="-1041.2" font-family="Helvetica,sans-Serif" font-size="11.00">id</text>
<polygon fill="#ffffff" stroke="transparent" points="815,-1011 815,-1033 1096,-1033 1096,-1011 815,-1011"/>
<polygon fill="none" stroke="black" points="815,-1011 815,-1033 1096,-1033 1096,-1011 815,-1011"/>
<text text-anchor="start" x="835" y="-1019.2" font-family="Helvetica,sans-Serif" font-size="11.00">check_no</text>
<polygon fill="#ffffff" stroke="transparent" points="815,-989 815,-1011 1096,-1011 1096,-989 815,-989"/>
<polygon fill="none" stroke="black" points="815,-989 815,-1011 1096,-1011 1096,-989 815,-989"/>
<image xlink:href="../../images/foreignKeys.png" width="11px" height="12px" preserveAspectRatio="xMinYMin meet" x="820" y="-1006"/>
<text text-anchor="start" x="835" y="-997.2" font-family="Helvetica,sans-Serif" font-size="11.00">loan_id</text>
<polygon fill="#ffffff" stroke="transparent" points="815,-967 815,-989 1096,-989 1096,-967 815,-967"/>
<polygon fill="none" stroke="black" points="815,-967 815,-989 1096,-989 1096,-967 815,-967"/>
<image xlink:href="../../images/foreignKeys.png" width="11px" height="12px" preserveAspectRatio="xMinYMin meet" x="820" y="-984"/>
<text text-anchor="start" x="835" y="-975.2" font-family="Helvetica,sans-Serif" font-size="11.00">repayment_id</text>
<polygon fill="none" stroke="black" points="815,-949 815,-967 1096,-967 1096,-949 815,-949"/>
<text text-anchor="start" x="818" y="-955.2" font-family="Helvetica,sans-Serif" font-size="11.00">...</text>
<polygon fill="#ffffff" stroke="transparent" points="815,-931 815,-949 940,-949 940,-931 815,-931"/>
<polygon fill="none" stroke="black" points="815,-931 815,-949 940,-949 940,-931 815,-931"/>
<text text-anchor="start" x="818" y="-937.2" font-family="Helvetica,sans-Serif" font-size="11.00">&lt; 2</text>
<polygon fill="#ffffff" stroke="transparent" points="940,-931 940,-949 1031,-949 1031,-931 940,-931"/>
<polygon fill="none" stroke="black" points="940,-931 940,-949 1031,-949 1031,-931 940,-931"/>
<text text-anchor="start" x="995" y="-937.2" font-family="Helvetica,sans-Serif" font-size="11.00">0 rows</text>
<polygon fill="#ffffff" stroke="transparent" points="1031,-931 1031,-949 1096,-949 1096,-931 1031,-931"/>
<polygon fill="none" stroke="black" points="1031,-931 1031,-949 1096,-949 1096,-931 1031,-931"/>
<text text-anchor="start" x="1086" y="-937.2" font-family="Helvetica,sans-Serif" font-size="11.00"> &#160;</text>
</a>
</g>
</g>
<!-- m_repayment_with_post_dated_checks&#45;&gt;m_loan_repayment_schedule -->
<g id="edge7" class="edge">
<title>m_repayment_with_post_dated_checks:w&#45;&gt;m_loan_repayment_schedule:e</title>
<path fill="none" stroke="black" d="M799.66,-975.68C780.62,-968.42 778.84,-945.23 766,-921 733.78,-860.21 792.8,-772 724,-772"/>
<polygon fill="black" stroke="black" points="806.1,-976.72 813.42,-981.55 810.05,-977.36 814,-978 814,-978 814,-978 810.05,-977.36 814.58,-974.45 806.1,-976.72 806.1,-976.72"/>
<ellipse fill="none" stroke="black" cx="802.94" cy="-976.21" rx="3.2" ry="3.2"/>
</g>
<!-- m_repayment_with_post_dated_checks&#45;&gt;m_loan -->
<g id="edge6" class="edge">
<title>m_repayment_with_post_dated_checks:w&#45;&gt;m_loan:e</title>
<path fill="none" stroke="black" d="M799.32,-999.74C585.83,-992.05 559.08,-817 337,-817"/>
<polygon fill="black" stroke="black" points="806,-999.86 813.94,-1003.6 810,-999.93 814,-1000 814,-1000 814,-1000 810,-999.93 814.06,-996.4 806,-999.86 806,-999.86"/>
<ellipse fill="none" stroke="black" cx="802.8" cy="-999.8" rx="3.2" ry="3.2"/>
</g>
</g>
</svg>
