<?xml version="1.0" encoding="UTF-8" standalone="no"?>
<!DOCTYPE svg PUBLIC "-//W3C//DTD SVG 1.1//EN"
 "http://www.w3.org/Graphics/SVG/1.1/DTD/svg11.dtd">
<!-- Generated by graphviz version 2.43.0 (0)
 -->
<!-- Title: twoDegreesRelationshipsDiagram Pages: 1 -->
<svg width="778pt" height="396pt"
 viewBox="0.00 0.00 778.00 396.00" xmlns="http://www.w3.org/2000/svg" xmlns:xlink="http://www.w3.org/1999/xlink">
<g id="graph0" class="graph" transform="scale(1 1) rotate(0) translate(4 392)">
<title>twoDegreesRelationshipsDiagram</title>
<polygon fill="#ffffff" stroke="transparent" points="-4,4 -4,-392 774,-392 774,4 -4,4"/>
<text text-anchor="middle" x="71.5" y="-7.2" font-family="Helvetica,sans-Serif" font-size="11.00">Generated by SchemaSpy</text>
<!-- m_loan_charge -->
<g id="node1" class="node">
<title>m_loan_charge</title>
<g id="a_node1"><a xlink:href="../../tables/m_loan_charge.html" xlink:title="m_loan_charge" target="_top">
<polygon fill="#ffffff" stroke="transparent" points="153,-69 153,-215 381,-215 381,-69 153,-69"/>
<polygon fill="#f5f5f5" stroke="transparent" points="153,-193 153,-215 381,-215 381,-193 153,-193"/>
<polygon fill="none" stroke="black" points="153,-193 153,-215 381,-215 381,-193 153,-193"/>
<text text-anchor="start" x="158" y="-202.2" font-family="Helvetica,sans-Serif" font-weight="bold" font-size="11.00">m_loan_charge</text>
<text text-anchor="start" x="346" y="-201.2" font-family="Helvetica,sans-Serif" font-size="11.00">[table]</text>
<polygon fill="none" stroke="black" points="153,-171 153,-193 381,-193 381,-171 153,-171"/>
<image xlink:href="../../images/primaryKeys.png" width="11px" height="12px" preserveAspectRatio="xMinYMin meet" x="158" y="-188"/>
<text text-anchor="start" x="173" y="-179.2" font-family="Helvetica,sans-Serif" font-size="11.00">id</text>
<polygon fill="#ffffff" stroke="transparent" points="153,-149 153,-171 381,-171 381,-149 153,-149"/>
<polygon fill="none" stroke="black" points="153,-149 153,-171 381,-171 381,-149 153,-149"/>
<image xlink:href="../../images/foreignKeys.png" width="11px" height="12px" preserveAspectRatio="xMinYMin meet" x="158" y="-166"/>
<text text-anchor="start" x="173" y="-157.2" font-family="Helvetica,sans-Serif" font-size="11.00">loan_id</text>
<polygon fill="#ffffff" stroke="transparent" points="153,-127 153,-149 381,-149 381,-127 153,-127"/>
<polygon fill="none" stroke="black" points="153,-127 153,-149 381,-149 381,-127 153,-127"/>
<image xlink:href="../../images/foreignKeys.png" width="11px" height="12px" preserveAspectRatio="xMinYMin meet" x="158" y="-144"/>
<text text-anchor="start" x="173" y="-135.2" font-family="Helvetica,sans-Serif" font-size="11.00">charge_id</text>
<polygon fill="#ffffff" stroke="transparent" points="153,-105 153,-127 381,-127 381,-105 153,-105"/>
<polygon fill="none" stroke="black" points="153,-105 153,-127 381,-127 381,-105 153,-105"/>
<text text-anchor="start" x="173" y="-113.2" font-family="Helvetica,sans-Serif" font-size="11.00">external_id</text>
<polygon fill="none" stroke="black" points="153,-87 153,-105 381,-105 381,-87 153,-87"/>
<text text-anchor="start" x="156" y="-93.2" font-family="Helvetica,sans-Serif" font-size="11.00">...</text>
<polygon fill="#ffffff" stroke="transparent" points="153,-69 153,-87 247,-87 247,-69 153,-69"/>
<polygon fill="none" stroke="black" points="153,-69 153,-87 247,-87 247,-69 153,-69"/>
<text text-anchor="start" x="156" y="-75.2" font-family="Helvetica,sans-Serif" font-size="11.00">&lt; 2</text>
<polygon fill="#ffffff" stroke="transparent" points="247,-69 247,-87 322,-87 322,-69 247,-69"/>
<polygon fill="none" stroke="black" points="247,-69 247,-87 322,-87 322,-69 247,-69"/>
<text text-anchor="start" x="286" y="-75.2" font-family="Helvetica,sans-Serif" font-size="11.00">0 rows</text>
<polygon fill="#ffffff" stroke="transparent" points="322,-69 322,-87 381,-87 381,-69 322,-69"/>
<polygon fill="none" stroke="black" points="322,-69 322,-87 381,-87 381,-69 322,-69"/>
<text text-anchor="start" x="362" y="-75.2" font-family="Helvetica,sans-Serif" font-size="11.00">4 &gt;</text>
</a>
</g>
</g>
<!-- m_charge -->
<g id="node2" class="node">
<title>m_charge</title>
<g id="a_node2"><a xlink:href="../../tables/m_charge.html" xlink:title="m_charge" target="_top">
<polygon fill="#ffffff" stroke="transparent" points="8,-111 8,-169 104,-169 104,-111 8,-111"/>
<polygon fill="#f5f5f5" stroke="transparent" points="8,-147 8,-169 104,-169 104,-147 8,-147"/>
<polygon fill="none" stroke="black" points="8,-147 8,-169 104,-169 104,-147 8,-147"/>
<text text-anchor="start" x="13" y="-156.2" font-family="Helvetica,sans-Serif" font-weight="bold" font-size="11.00">m_charge</text>
<text text-anchor="start" x="69" y="-155.2" font-family="Helvetica,sans-Serif" font-size="11.00">[table]</text>
<polygon fill="none" stroke="black" points="8,-129 8,-147 104,-147 104,-129 8,-129"/>
<text text-anchor="start" x="11" y="-135.2" font-family="Helvetica,sans-Serif" font-size="11.00">...</text>
<polygon fill="#ffffff" stroke="transparent" points="8,-111 8,-129 36,-129 36,-111 8,-111"/>
<polygon fill="none" stroke="black" points="8,-111 8,-129 36,-129 36,-111 8,-111"/>
<text text-anchor="start" x="11" y="-117.2" font-family="Helvetica,sans-Serif" font-size="11.00">&lt; 3</text>
<polygon fill="#ffffff" stroke="transparent" points="36,-111 36,-129 78,-129 78,-111 36,-111"/>
<polygon fill="none" stroke="black" points="36,-111 36,-129 78,-129 78,-111 36,-111"/>
<text text-anchor="start" x="42" y="-117.2" font-family="Helvetica,sans-Serif" font-size="11.00">0 rows</text>
<polygon fill="#ffffff" stroke="transparent" points="78,-111 78,-129 104,-129 104,-111 78,-111"/>
<polygon fill="none" stroke="black" points="78,-111 78,-129 104,-129 104,-111 78,-111"/>
<text text-anchor="start" x="85" y="-117.2" font-family="Helvetica,sans-Serif" font-size="11.00">9 &gt;</text>
</a>
</g>
</g>
<!-- m_loan_charge&#45;&gt;m_charge -->
<g id="edge1" class="edge">
<title>m_loan_charge:w&#45;&gt;m_charge:e</title>
<path fill="none" stroke="black" d="M137.4,-138C126.93,-138 120.01,-138 105,-138"/>
<polygon fill="black" stroke="black" points="144,-138 152,-141.6 148,-138 152,-138 152,-138 152,-138 148,-138 152,-134.4 144,-138 144,-138"/>
<ellipse fill="none" stroke="black" cx="140.8" cy="-138" rx="3.2" ry="3.2"/>
</g>
<!-- m_loan -->
<g id="node3" class="node">
<title>m_loan</title>
<g id="a_node3"><a xlink:href="../../tables/m_loan.html" xlink:title="m_loan" target="_top">
<polygon fill="#ffffff" stroke="transparent" points="8.5,-223 8.5,-281 103.5,-281 103.5,-223 8.5,-223"/>
<polygon fill="#f5f5f5" stroke="transparent" points="9,-259 9,-281 104,-281 104,-259 9,-259"/>
<polygon fill="none" stroke="black" points="9,-259 9,-281 104,-281 104,-259 9,-259"/>
<text text-anchor="start" x="14" y="-268.2" font-family="Helvetica,sans-Serif" font-weight="bold" font-size="11.00">m_loan</text>
<text text-anchor="start" x="69" y="-267.2" font-family="Helvetica,sans-Serif" font-size="11.00">[table]</text>
<polygon fill="none" stroke="black" points="9,-241 9,-259 104,-259 104,-241 9,-241"/>
<text text-anchor="start" x="12" y="-247.2" font-family="Helvetica,sans-Serif" font-size="11.00">...</text>
<polygon fill="#ffffff" stroke="transparent" points="9,-223 9,-241 37,-241 37,-223 9,-223"/>
<polygon fill="none" stroke="black" points="9,-223 9,-241 37,-241 37,-223 9,-223"/>
<text text-anchor="start" x="12" y="-229.2" font-family="Helvetica,sans-Serif" font-size="11.00">&lt; 15</text>
<polygon fill="#ffffff" stroke="transparent" points="37,-223 37,-241 76,-241 76,-223 37,-223"/>
<polygon fill="none" stroke="black" points="37,-223 37,-241 76,-241 76,-223 37,-223"/>
<text text-anchor="start" x="40" y="-229.2" font-family="Helvetica,sans-Serif" font-size="11.00">0 rows</text>
<polygon fill="#ffffff" stroke="transparent" points="76,-223 76,-241 104,-241 104,-223 76,-223"/>
<polygon fill="none" stroke="black" points="76,-223 76,-241 104,-241 104,-223 76,-223"/>
<text text-anchor="start" x="79" y="-229.2" font-family="Helvetica,sans-Serif" font-size="11.00">24 &gt;</text>
</a>
</g>
</g>
<!-- m_loan_charge&#45;&gt;m_loan -->
<g id="edge2" class="edge">
<title>m_loan_charge:w&#45;&gt;m_loan:e</title>
<path fill="none" stroke="black" d="M138,-164.59C117.05,-182.93 143.96,-250 105,-250"/>
<polygon fill="black" stroke="black" points="144.4,-162.49 153.12,-163.42 148.2,-161.25 152,-160 152,-160 152,-160 148.2,-161.25 150.88,-156.58 144.4,-162.49 144.4,-162.49"/>
<ellipse fill="none" stroke="black" cx="141.36" cy="-163.49" rx="3.2" ry="3.2"/>
</g>
<!-- m_loan_charge_paid_by -->
<g id="node4" class="node">
<title>m_loan_charge_paid_by</title>
<g id="a_node4"><a xlink:href="../../tables/m_loan_charge_paid_by.html" xlink:title="m_loan_charge_paid_by" target="_top">
<polygon fill="#ffffff" stroke="transparent" points="510,-195 510,-253 682,-253 682,-195 510,-195"/>
<polygon fill="#f5f5f5" stroke="transparent" points="510,-231 510,-253 682,-253 682,-231 510,-231"/>
<polygon fill="none" stroke="black" points="510,-231 510,-253 682,-253 682,-231 510,-231"/>
<text text-anchor="start" x="515" y="-240.2" font-family="Helvetica,sans-Serif" font-weight="bold" font-size="11.00">m_loan_charge_paid_by</text>
<text text-anchor="start" x="647" y="-239.2" font-family="Helvetica,sans-Serif" font-size="11.00">[table]</text>
<polygon fill="none" stroke="black" points="510,-213 510,-231 682,-231 682,-213 510,-213"/>
<text text-anchor="start" x="513" y="-219.2" font-family="Helvetica,sans-Serif" font-size="11.00">...</text>
<polygon fill="#ffffff" stroke="transparent" points="510,-195 510,-213 581,-213 581,-195 510,-195"/>
<polygon fill="none" stroke="black" points="510,-195 510,-213 581,-213 581,-195 510,-195"/>
<text text-anchor="start" x="513" y="-201.2" font-family="Helvetica,sans-Serif" font-size="11.00">&lt; 2</text>
<polygon fill="#ffffff" stroke="transparent" points="581,-195 581,-213 644,-213 644,-195 581,-195"/>
<polygon fill="none" stroke="black" points="581,-195 581,-213 644,-213 644,-195 581,-195"/>
<text text-anchor="start" x="608" y="-201.2" font-family="Helvetica,sans-Serif" font-size="11.00">0 rows</text>
<polygon fill="#ffffff" stroke="transparent" points="644,-195 644,-213 682,-213 682,-195 644,-195"/>
<polygon fill="none" stroke="black" points="644,-195 644,-213 682,-213 682,-195 644,-195"/>
<text text-anchor="start" x="672" y="-201.2" font-family="Helvetica,sans-Serif" font-size="11.00"> &#160;</text>
</a>
</g>
</g>
<!-- m_loan_charge_paid_by&#45;&gt;m_loan_charge -->
<g id="edge3" class="edge">
<title>m_loan_charge_paid_by:w&#45;&gt;m_loan_charge:e</title>
<path fill="none" stroke="black" d="M494.5,-221.13C447.91,-215.28 435.98,-182 382,-182"/>
<polygon fill="black" stroke="black" points="501.01,-221.52 508.78,-225.59 505.01,-221.76 509,-222 509,-222 509,-222 505.01,-221.76 509.22,-218.41 501.01,-221.52 501.01,-221.52"/>
<ellipse fill="none" stroke="black" cx="497.82" cy="-221.33" rx="3.2" ry="3.2"/>
</g>
<!-- m_loan_disbursement_detail -->
<g id="node5" class="node">
<title>m_loan_disbursement_detail</title>
<g id="a_node5"><a xlink:href="../../tables/m_loan_disbursement_detail.html" xlink:title="m_loan_disbursement_detail" target="_top">
<polygon fill="#ffffff" stroke="transparent" points="161,-236 161,-338 373,-338 373,-236 161,-236"/>
<polygon fill="#f5f5f5" stroke="transparent" points="161,-316 161,-338 373,-338 373,-316 161,-316"/>
<polygon fill="none" stroke="black" points="161,-316 161,-338 373,-338 373,-316 161,-316"/>
<text text-anchor="start" x="166" y="-325.2" font-family="Helvetica,sans-Serif" font-weight="bold" font-size="11.00">m_loan_disbursement_detail</text>
<text text-anchor="start" x="338" y="-324.2" font-family="Helvetica,sans-Serif" font-size="11.00">[table]</text>
<polygon fill="none" stroke="black" points="161,-294 161,-316 373,-316 373,-294 161,-294"/>
<image xlink:href="../../images/primaryKeys.png" width="11px" height="12px" preserveAspectRatio="xMinYMin meet" x="166" y="-311"/>
<text text-anchor="start" x="181" y="-302.2" font-family="Helvetica,sans-Serif" font-size="11.00">id</text>
<polygon fill="#ffffff" stroke="transparent" points="161,-272 161,-294 373,-294 373,-272 161,-272"/>
<polygon fill="none" stroke="black" points="161,-272 161,-294 373,-294 373,-272 161,-272"/>
<image xlink:href="../../images/foreignKeys.png" width="11px" height="12px" preserveAspectRatio="xMinYMin meet" x="166" y="-289"/>
<text text-anchor="start" x="181" y="-280.2" font-family="Helvetica,sans-Serif" font-size="11.00">loan_id</text>
<polygon fill="none" stroke="black" points="161,-254 161,-272 373,-272 373,-254 161,-254"/>
<text text-anchor="start" x="164" y="-260.2" font-family="Helvetica,sans-Serif" font-size="11.00">...</text>
<polygon fill="#ffffff" stroke="transparent" points="161,-236 161,-254 247,-254 247,-236 161,-236"/>
<polygon fill="none" stroke="black" points="161,-236 161,-254 247,-254 247,-236 161,-236"/>
<text text-anchor="start" x="164" y="-242.2" font-family="Helvetica,sans-Serif" font-size="11.00">&lt; 1</text>
<polygon fill="#ffffff" stroke="transparent" points="247,-236 247,-254 318,-254 318,-236 247,-236"/>
<polygon fill="none" stroke="black" points="247,-236 247,-254 318,-254 318,-236 247,-236"/>
<text text-anchor="start" x="282" y="-242.2" font-family="Helvetica,sans-Serif" font-size="11.00">0 rows</text>
<polygon fill="#ffffff" stroke="transparent" points="318,-236 318,-254 373,-254 373,-236 318,-236"/>
<polygon fill="none" stroke="black" points="318,-236 318,-254 373,-254 373,-236 318,-236"/>
<text text-anchor="start" x="354" y="-242.2" font-family="Helvetica,sans-Serif" font-size="11.00">1 &gt;</text>
</a>
</g>
</g>
<!-- m_loan_disbursement_detail&#45;&gt;m_loan -->
<g id="edge4" class="edge">
<title>m_loan_disbursement_detail:w&#45;&gt;m_loan:e</title>
<path fill="none" stroke="black" d="M145.89,-279.47C131.05,-270.96 127.72,-250 105,-250"/>
<polygon fill="black" stroke="black" points="152.24,-281.06 159.13,-286.49 156.12,-282.03 160,-283 160,-283 160,-283 156.12,-282.03 160.87,-279.51 152.24,-281.06 152.24,-281.06"/>
<ellipse fill="none" stroke="black" cx="149.14" cy="-280.28" rx="3.2" ry="3.2"/>
</g>
<!-- m_loan_installment_charge -->
<g id="node6" class="node">
<title>m_loan_installment_charge</title>
<g id="a_node6"><a xlink:href="../../tables/m_loan_installment_charge.html" xlink:title="m_loan_installment_charge" target="_top">
<polygon fill="#ffffff" stroke="transparent" points="501.5,-116 501.5,-174 690.5,-174 690.5,-116 501.5,-116"/>
<polygon fill="#f5f5f5" stroke="transparent" points="502,-152 502,-174 691,-174 691,-152 502,-152"/>
<polygon fill="none" stroke="black" points="502,-152 502,-174 691,-174 691,-152 502,-152"/>
<text text-anchor="start" x="507" y="-161.2" font-family="Helvetica,sans-Serif" font-weight="bold" font-size="11.00">m_loan_installment_charge</text>
<text text-anchor="start" x="656" y="-160.2" font-family="Helvetica,sans-Serif" font-size="11.00">[table]</text>
<polygon fill="none" stroke="black" points="502,-134 502,-152 691,-152 691,-134 502,-134"/>
<text text-anchor="start" x="505" y="-140.2" font-family="Helvetica,sans-Serif" font-size="11.00">...</text>
<polygon fill="#ffffff" stroke="transparent" points="502,-116 502,-134 581,-134 581,-116 502,-116"/>
<polygon fill="none" stroke="black" points="502,-116 502,-134 581,-134 581,-116 502,-116"/>
<text text-anchor="start" x="505" y="-122.2" font-family="Helvetica,sans-Serif" font-size="11.00">&lt; 2</text>
<polygon fill="#ffffff" stroke="transparent" points="581,-116 581,-134 649,-134 649,-116 581,-116"/>
<polygon fill="none" stroke="black" points="581,-116 581,-134 649,-134 649,-116 581,-116"/>
<text text-anchor="start" x="613" y="-122.2" font-family="Helvetica,sans-Serif" font-size="11.00">0 rows</text>
<polygon fill="#ffffff" stroke="transparent" points="649,-116 649,-134 691,-134 691,-116 649,-116"/>
<polygon fill="none" stroke="black" points="649,-116 649,-134 691,-134 691,-116 649,-116"/>
<text text-anchor="start" x="681" y="-122.2" font-family="Helvetica,sans-Serif" font-size="11.00"> &#160;</text>
</a>
</g>
</g>
<!-- m_loan_installment_charge&#45;&gt;m_loan_charge -->
<g id="edge5" class="edge">
<title>m_loan_installment_charge:w&#45;&gt;m_loan_charge:e</title>
<path fill="none" stroke="black" d="M486.53,-143.96C443.48,-149.97 432.44,-182 382,-182"/>
<polygon fill="black" stroke="black" points="493.02,-143.53 501.24,-146.59 497.01,-143.27 501,-143 501,-143 501,-143 497.01,-143.27 500.76,-139.41 493.02,-143.53 493.02,-143.53"/>
<ellipse fill="none" stroke="black" cx="489.82" cy="-143.74" rx="3.2" ry="3.2"/>
</g>
<!-- m_loan_overdue_installment_charge -->
<g id="node7" class="node">
<title>m_loan_overdue_installment_charge</title>
<g id="a_node7"><a xlink:href="../../tables/m_loan_overdue_installment_charge.html" xlink:title="m_loan_overdue_installment_charge" target="_top">
<polygon fill="#ffffff" stroke="transparent" points="477.5,-37 477.5,-95 714.5,-95 714.5,-37 477.5,-37"/>
<polygon fill="#f5f5f5" stroke="transparent" points="478,-73 478,-95 715,-95 715,-73 478,-73"/>
<polygon fill="none" stroke="black" points="478,-73 478,-95 715,-95 715,-73 478,-73"/>
<text text-anchor="start" x="483" y="-82.2" font-family="Helvetica,sans-Serif" font-weight="bold" font-size="11.00">m_loan_overdue_installment_charge</text>
<text text-anchor="start" x="680" y="-81.2" font-family="Helvetica,sans-Serif" font-size="11.00">[table]</text>
<polygon fill="none" stroke="black" points="478,-55 478,-73 715,-73 715,-55 478,-55"/>
<text text-anchor="start" x="481" y="-61.2" font-family="Helvetica,sans-Serif" font-size="11.00">...</text>
<polygon fill="#ffffff" stroke="transparent" points="478,-37 478,-55 581,-55 581,-37 478,-37"/>
<polygon fill="none" stroke="black" points="478,-37 478,-55 581,-55 581,-37 478,-37"/>
<text text-anchor="start" x="481" y="-43.2" font-family="Helvetica,sans-Serif" font-size="11.00">&lt; 2</text>
<polygon fill="#ffffff" stroke="transparent" points="581,-37 581,-55 661,-55 661,-37 581,-37"/>
<polygon fill="none" stroke="black" points="581,-37 581,-55 661,-55 661,-37 581,-37"/>
<text text-anchor="start" x="625" y="-43.2" font-family="Helvetica,sans-Serif" font-size="11.00">0 rows</text>
<polygon fill="#ffffff" stroke="transparent" points="661,-37 661,-55 715,-55 715,-37 661,-37"/>
<polygon fill="none" stroke="black" points="661,-37 661,-55 715,-55 715,-37 661,-37"/>
<text text-anchor="start" x="705" y="-43.2" font-family="Helvetica,sans-Serif" font-size="11.00"> &#160;</text>
</a>
</g>
</g>
<!-- m_loan_overdue_installment_charge&#45;&gt;m_loan_charge -->
<g id="edge6" class="edge">
<title>m_loan_overdue_installment_charge:w&#45;&gt;m_loan_charge:e</title>
<path fill="none" stroke="black" d="M462.47,-65.79C444.11,-70.96 438.21,-86.82 422,-106 397.36,-135.16 420.17,-182 382,-182"/>
<polygon fill="black" stroke="black" points="469.06,-64.98 477.44,-67.57 473.03,-64.49 477,-64 477,-64 477,-64 473.03,-64.49 476.56,-60.43 469.06,-64.98 469.06,-64.98"/>
<ellipse fill="none" stroke="black" cx="465.88" cy="-65.37" rx="3.2" ry="3.2"/>
</g>
<!-- m_loan_tranche_disbursement_charge -->
<g id="node8" class="node">
<title>m_loan_tranche_disbursement_charge</title>
<g id="a_node8"><a xlink:href="../../tables/m_loan_tranche_disbursement_charge.html" xlink:title="m_loan_tranche_disbursement_charge" target="_top">
<polygon fill="#ffffff" stroke="transparent" points="430,-274 430,-384 762,-384 762,-274 430,-274"/>
<polygon fill="#f5f5f5" stroke="transparent" points="432,-360 432,-382 760,-382 760,-360 432,-360"/>
<polygon fill="none" stroke="black" points="432,-360 432,-382 760,-382 760,-360 432,-360"/>
<text text-anchor="start" x="437" y="-369.2" font-family="Helvetica,sans-Serif" font-weight="bold" font-size="11.00">m_loan_tranche_disbursement_charge</text>
<text text-anchor="start" x="725" y="-368.2" font-family="Helvetica,sans-Serif" font-size="11.00">[table]</text>
<polygon fill="none" stroke="black" points="432,-338 432,-360 710,-360 710,-338 432,-338"/>
<image xlink:href="../../images/primaryKeys.png" width="11px" height="12px" preserveAspectRatio="xMinYMin meet" x="437" y="-355"/>
<text text-anchor="start" x="452" y="-346.2" font-family="Helvetica,sans-Serif" font-size="11.00">id</text>
<polygon fill="none" stroke="black" points="710,-338 710,-360 760,-360 760,-338 710,-338"/>
<text text-anchor="start" x="713" y="-346.2" font-family="Helvetica,sans-Serif" font-size="11.00">bigint[19]</text>
<polygon fill="#ffffff" stroke="transparent" points="432,-316 432,-338 710,-338 710,-316 432,-316"/>
<polygon fill="none" stroke="black" points="432,-316 432,-338 710,-338 710,-316 432,-316"/>
<image xlink:href="../../images/foreignKeys.png" width="11px" height="12px" preserveAspectRatio="xMinYMin meet" x="437" y="-333"/>
<text text-anchor="start" x="452" y="-324.2" font-family="Helvetica,sans-Serif" font-size="11.00">loan_charge_id</text>
<polygon fill="none" stroke="black" points="710,-316 710,-338 760,-338 760,-316 710,-316"/>
<text text-anchor="start" x="713" y="-324.2" font-family="Helvetica,sans-Serif" font-size="11.00">bigint[19]</text>
<polygon fill="#ffffff" stroke="transparent" points="432,-294 432,-316 710,-316 710,-294 432,-294"/>
<polygon fill="none" stroke="black" points="432,-294 432,-316 710,-316 710,-294 432,-294"/>
<image xlink:href="../../images/foreignKeys.png" width="11px" height="12px" preserveAspectRatio="xMinYMin meet" x="437" y="-311"/>
<text text-anchor="start" x="452" y="-302.2" font-family="Helvetica,sans-Serif" font-size="11.00">disbursement_detail_id</text>
<polygon fill="none" stroke="black" points="710,-294 710,-316 760,-316 760,-294 710,-294"/>
<text text-anchor="start" x="713" y="-302.2" font-family="Helvetica,sans-Serif" font-size="11.00">bigint[19]</text>
<polygon fill="#ffffff" stroke="transparent" points="432,-276 432,-294 562,-294 562,-276 432,-276"/>
<polygon fill="none" stroke="black" points="432,-276 432,-294 562,-294 562,-276 432,-276"/>
<text text-anchor="start" x="435" y="-282.2" font-family="Helvetica,sans-Serif" font-size="11.00">&lt; 2</text>
<polygon fill="#ffffff" stroke="transparent" points="562,-276 562,-294 710,-294 710,-276 562,-276"/>
<polygon fill="none" stroke="black" points="562,-276 562,-294 710,-294 710,-276 562,-276"/>
<text text-anchor="start" x="674" y="-282.2" font-family="Helvetica,sans-Serif" font-size="11.00">0 rows</text>
<polygon fill="#ffffff" stroke="transparent" points="710,-276 710,-294 760,-294 760,-276 710,-276"/>
<polygon fill="none" stroke="black" points="710,-276 710,-294 760,-294 760,-276 710,-276"/>
<text text-anchor="start" x="741" y="-282.2" font-family="Helvetica,sans-Serif" font-size="11.00">0 &gt;</text>
<polygon fill="none" stroke="black" stroke-width="2" points="431,-275 431,-383 761,-383 761,-275 431,-275"/>
</a>
</g>
</g>
<!-- m_loan_tranche_disbursement_charge&#45;&gt;m_loan_charge -->
<g id="edge8" class="edge">
<title>m_loan_tranche_disbursement_charge:w&#45;&gt;m_loan_charge:e</title>
<path fill="none" stroke="black" d="M416.7,-323.97C376.79,-303.15 444.18,-182 382,-182"/>
<polygon fill="black" stroke="black" points="423.17,-325.34 430.25,-330.52 427.09,-326.17 431,-327 431,-327 431,-327 427.09,-326.17 431.75,-323.48 423.17,-325.34 423.17,-325.34"/>
<ellipse fill="none" stroke="black" cx="420.04" cy="-324.68" rx="3.2" ry="3.2"/>
</g>
<!-- m_loan_tranche_disbursement_charge&#45;&gt;m_loan_disbursement_detail -->
<g id="edge7" class="edge">
<title>m_loan_tranche_disbursement_charge:w&#45;&gt;m_loan_disbursement_detail:e</title>
<path fill="none" stroke="black" d="M416.27,-305C401.82,-305 393.59,-305 374,-305"/>
<polygon fill="black" stroke="black" points="423,-305 431,-308.6 427,-305 431,-305 431,-305 431,-305 427,-305 431,-301.4 423,-305 423,-305"/>
<ellipse fill="none" stroke="black" cx="419.8" cy="-305" rx="3.2" ry="3.2"/>
</g>
</g>
</svg>
