<?xml version="1.0" encoding="UTF-8" standalone="no"?>
<!DOCTYPE svg PUBLIC "-//W3C//DTD SVG 1.1//EN"
 "http://www.w3.org/Graphics/SVG/1.1/DTD/svg11.dtd">
<!-- Generated by graphviz version 2.43.0 (0)
 -->
<!-- Title: oneDegreeRelationshipsDiagram Pages: 1 -->
<svg width="797pt" height="572pt"
 viewBox="0.00 0.00 797.00 572.45" xmlns="http://www.w3.org/2000/svg" xmlns:xlink="http://www.w3.org/1999/xlink">
<g id="graph0" class="graph" transform="scale(1 1) rotate(0) translate(4 568.45)">
<title>oneDegreeRelationshipsDiagram</title>
<polygon fill="#ffffff" stroke="transparent" points="-4,4 -4,-568.45 793,-568.45 793,4 -4,4"/>
<text text-anchor="middle" x="71.5" y="-7.2" font-family="Helvetica,sans-Serif" font-size="11.00">Generated by SchemaSpy</text>
<!-- m_loan -->
<g id="node1" class="node">
<title>m_loan</title>
<g id="a_node1"><a xlink:href="../../tables/m_loan.html" xlink:title="m_loan" target="_top">
<polygon fill="#ffffff" stroke="transparent" points="192,-106.45 192,-560.45 520,-560.45 520,-106.45 192,-106.45"/>
<polygon fill="#f5f5f5" stroke="transparent" points="192,-538.45 192,-560.45 520,-560.45 520,-538.45 192,-538.45"/>
<polygon fill="none" stroke="black" points="192,-538.45 192,-560.45 520,-560.45 520,-538.45 192,-538.45"/>
<text text-anchor="start" x="197" y="-547.65" font-family="Helvetica,sans-Serif" font-weight="bold" font-size="11.00">m_loan</text>
<text text-anchor="start" x="485" y="-546.65" font-family="Helvetica,sans-Serif" font-size="11.00">[table]</text>
<polygon fill="none" stroke="black" points="192,-516.45 192,-538.45 520,-538.45 520,-516.45 192,-516.45"/>
<image xlink:href="../../images/primaryKeys.png" width="11px" height="12px" preserveAspectRatio="xMinYMin meet" x="197" y="-533.454"/>
<text text-anchor="start" x="212" y="-524.65" font-family="Helvetica,sans-Serif" font-size="11.00">id</text>
<polygon fill="#ffffff" stroke="transparent" points="192,-494.45 192,-516.45 520,-516.45 520,-494.45 192,-494.45"/>
<polygon fill="none" stroke="black" points="192,-494.45 192,-516.45 520,-516.45 520,-494.45 192,-494.45"/>
<text text-anchor="start" x="212" y="-502.65" font-family="Helvetica,sans-Serif" font-size="11.00">account_no</text>
<polygon fill="#ffffff" stroke="transparent" points="192,-472.45 192,-494.45 520,-494.45 520,-472.45 192,-472.45"/>
<polygon fill="none" stroke="black" points="192,-472.45 192,-494.45 520,-494.45 520,-472.45 192,-472.45"/>
<text text-anchor="start" x="212" y="-480.65" font-family="Helvetica,sans-Serif" font-size="11.00">external_id</text>
<polygon fill="#ffffff" stroke="transparent" points="192,-450.45 192,-472.45 520,-472.45 520,-450.45 192,-450.45"/>
<polygon fill="none" stroke="black" points="192,-450.45 192,-472.45 520,-472.45 520,-450.45 192,-450.45"/>
<image xlink:href="../../images/foreignKeys.png" width="11px" height="12px" preserveAspectRatio="xMinYMin meet" x="197" y="-467.454"/>
<text text-anchor="start" x="212" y="-458.65" font-family="Helvetica,sans-Serif" font-size="11.00">client_id</text>
<polygon fill="#ffffff" stroke="transparent" points="192,-428.45 192,-450.45 520,-450.45 520,-428.45 192,-428.45"/>
<polygon fill="none" stroke="black" points="192,-428.45 192,-450.45 520,-450.45 520,-428.45 192,-428.45"/>
<image xlink:href="../../images/foreignKeys.png" width="11px" height="12px" preserveAspectRatio="xMinYMin meet" x="197" y="-445.454"/>
<text text-anchor="start" x="212" y="-436.65" font-family="Helvetica,sans-Serif" font-size="11.00">group_id</text>
<polygon fill="#ffffff" stroke="transparent" points="192,-406.45 192,-428.45 520,-428.45 520,-406.45 192,-406.45"/>
<polygon fill="none" stroke="black" points="192,-406.45 192,-428.45 520,-428.45 520,-406.45 192,-406.45"/>
<image xlink:href="../../images/foreignKeys.png" width="11px" height="12px" preserveAspectRatio="xMinYMin meet" x="197" y="-423.454"/>
<text text-anchor="start" x="212" y="-414.65" font-family="Helvetica,sans-Serif" font-size="11.00">glim_id</text>
<polygon fill="#ffffff" stroke="transparent" points="192,-384.45 192,-406.45 520,-406.45 520,-384.45 192,-384.45"/>
<polygon fill="none" stroke="black" points="192,-384.45 192,-406.45 520,-406.45 520,-384.45 192,-384.45"/>
<image xlink:href="../../images/foreignKeys.png" width="11px" height="12px" preserveAspectRatio="xMinYMin meet" x="197" y="-401.454"/>
<text text-anchor="start" x="212" y="-392.65" font-family="Helvetica,sans-Serif" font-size="11.00">product_id</text>
<polygon fill="#ffffff" stroke="transparent" points="192,-362.45 192,-384.45 520,-384.45 520,-362.45 192,-362.45"/>
<polygon fill="none" stroke="black" points="192,-362.45 192,-384.45 520,-384.45 520,-362.45 192,-362.45"/>
<image xlink:href="../../images/foreignKeys.png" width="11px" height="12px" preserveAspectRatio="xMinYMin meet" x="197" y="-379.454"/>
<text text-anchor="start" x="212" y="-370.65" font-family="Helvetica,sans-Serif" font-size="11.00">fund_id</text>
<polygon fill="#ffffff" stroke="transparent" points="192,-340.45 192,-362.45 520,-362.45 520,-340.45 192,-340.45"/>
<polygon fill="none" stroke="black" points="192,-340.45 192,-362.45 520,-362.45 520,-340.45 192,-340.45"/>
<image xlink:href="../../images/foreignKeys.png" width="11px" height="12px" preserveAspectRatio="xMinYMin meet" x="197" y="-357.454"/>
<text text-anchor="start" x="212" y="-348.65" font-family="Helvetica,sans-Serif" font-size="11.00">loan_officer_id</text>
<polygon fill="#ffffff" stroke="transparent" points="192,-318.45 192,-340.45 520,-340.45 520,-318.45 192,-318.45"/>
<polygon fill="none" stroke="black" points="192,-318.45 192,-340.45 520,-340.45 520,-318.45 192,-318.45"/>
<image xlink:href="../../images/foreignKeys.png" width="11px" height="12px" preserveAspectRatio="xMinYMin meet" x="197" y="-335.454"/>
<text text-anchor="start" x="212" y="-326.65" font-family="Helvetica,sans-Serif" font-size="11.00">loanpurpose_cv_id</text>
<polygon fill="#ffffff" stroke="transparent" points="192,-296.45 192,-318.45 520,-318.45 520,-296.45 192,-296.45"/>
<polygon fill="none" stroke="black" points="192,-296.45 192,-318.45 520,-318.45 520,-296.45 192,-296.45"/>
<image xlink:href="../../images/foreignKeys.png" width="11px" height="12px" preserveAspectRatio="xMinYMin meet" x="197" y="-313.454"/>
<text text-anchor="start" x="212" y="-304.65" font-family="Helvetica,sans-Serif" font-size="11.00">submittedon_userid</text>
<polygon fill="#ffffff" stroke="transparent" points="192,-274.45 192,-296.45 520,-296.45 520,-274.45 192,-274.45"/>
<polygon fill="none" stroke="black" points="192,-274.45 192,-296.45 520,-296.45 520,-274.45 192,-274.45"/>
<image xlink:href="../../images/foreignKeys.png" width="11px" height="12px" preserveAspectRatio="xMinYMin meet" x="197" y="-291.454"/>
<text text-anchor="start" x="212" y="-282.65" font-family="Helvetica,sans-Serif" font-size="11.00">approvedon_userid</text>
<polygon fill="#ffffff" stroke="transparent" points="192,-252.45 192,-274.45 520,-274.45 520,-252.45 192,-252.45"/>
<polygon fill="none" stroke="black" points="192,-252.45 192,-274.45 520,-274.45 520,-252.45 192,-252.45"/>
<image xlink:href="../../images/foreignKeys.png" width="11px" height="12px" preserveAspectRatio="xMinYMin meet" x="197" y="-269.454"/>
<text text-anchor="start" x="212" y="-260.65" font-family="Helvetica,sans-Serif" font-size="11.00">disbursedon_userid</text>
<polygon fill="#ffffff" stroke="transparent" points="192,-230.45 192,-252.45 520,-252.45 520,-230.45 192,-230.45"/>
<polygon fill="none" stroke="black" points="192,-230.45 192,-252.45 520,-252.45 520,-230.45 192,-230.45"/>
<image xlink:href="../../images/foreignKeys.png" width="11px" height="12px" preserveAspectRatio="xMinYMin meet" x="197" y="-247.454"/>
<text text-anchor="start" x="212" y="-238.65" font-family="Helvetica,sans-Serif" font-size="11.00">closedon_userid</text>
<polygon fill="#ffffff" stroke="transparent" points="192,-208.45 192,-230.45 520,-230.45 520,-208.45 192,-208.45"/>
<polygon fill="none" stroke="black" points="192,-208.45 192,-230.45 520,-230.45 520,-208.45 192,-208.45"/>
<image xlink:href="../../images/foreignKeys.png" width="11px" height="12px" preserveAspectRatio="xMinYMin meet" x="197" y="-225.454"/>
<text text-anchor="start" x="212" y="-216.65" font-family="Helvetica,sans-Serif" font-size="11.00">rejectedon_userid</text>
<polygon fill="#ffffff" stroke="transparent" points="192,-186.45 192,-208.45 520,-208.45 520,-186.45 192,-186.45"/>
<polygon fill="none" stroke="black" points="192,-186.45 192,-208.45 520,-208.45 520,-186.45 192,-186.45"/>
<image xlink:href="../../images/foreignKeys.png" width="11px" height="12px" preserveAspectRatio="xMinYMin meet" x="197" y="-203.454"/>
<text text-anchor="start" x="212" y="-194.65" font-family="Helvetica,sans-Serif" font-size="11.00">withdrawnon_userid</text>
<polygon fill="#ffffff" stroke="transparent" points="192,-164.45 192,-186.45 520,-186.45 520,-164.45 192,-164.45"/>
<polygon fill="none" stroke="black" points="192,-164.45 192,-186.45 520,-186.45 520,-164.45 192,-164.45"/>
<image xlink:href="../../images/foreignKeys.png" width="11px" height="12px" preserveAspectRatio="xMinYMin meet" x="197" y="-181.454"/>
<text text-anchor="start" x="212" y="-172.65" font-family="Helvetica,sans-Serif" font-size="11.00">loan_transaction_strategy_id</text>
<polygon fill="#ffffff" stroke="transparent" points="192,-142.45 192,-164.45 520,-164.45 520,-142.45 192,-142.45"/>
<polygon fill="none" stroke="black" points="192,-142.45 192,-164.45 520,-164.45 520,-142.45 192,-142.45"/>
<image xlink:href="../../images/foreignKeys.png" width="11px" height="12px" preserveAspectRatio="xMinYMin meet" x="197" y="-159.454"/>
<text text-anchor="start" x="212" y="-150.65" font-family="Helvetica,sans-Serif" font-size="11.00">writeoff_reason_cv_id</text>
<polygon fill="none" stroke="black" points="192,-124.45 192,-142.45 520,-142.45 520,-124.45 192,-124.45"/>
<text text-anchor="start" x="195" y="-130.65" font-family="Helvetica,sans-Serif" font-size="11.00">...</text>
<polygon fill="#ffffff" stroke="transparent" points="192,-106.45 192,-124.45 336,-124.45 336,-106.45 192,-106.45"/>
<polygon fill="none" stroke="black" points="192,-106.45 192,-124.45 336,-124.45 336,-106.45 192,-106.45"/>
<text text-anchor="start" x="195" y="-112.65" font-family="Helvetica,sans-Serif" font-size="11.00">&lt; 15</text>
<polygon fill="#ffffff" stroke="transparent" points="336,-106.45 336,-124.45 433,-124.45 433,-106.45 336,-106.45"/>
<polygon fill="none" stroke="black" points="336,-106.45 336,-124.45 433,-124.45 433,-106.45 336,-106.45"/>
<text text-anchor="start" x="397" y="-112.65" font-family="Helvetica,sans-Serif" font-size="11.00">0 rows</text>
<polygon fill="#ffffff" stroke="transparent" points="433,-106.45 433,-124.45 520,-124.45 520,-106.45 433,-106.45"/>
<polygon fill="none" stroke="black" points="433,-106.45 433,-124.45 520,-124.45 520,-106.45 433,-106.45"/>
<text text-anchor="start" x="495" y="-112.65" font-family="Helvetica,sans-Serif" font-size="11.00">24 &gt;</text>
</a>
</g>
</g>
<!-- m_code_value -->
<g id="node2" class="node">
<title>m_code_value</title>
<g id="a_node2"><a xlink:href="../../tables/m_code_value.html" xlink:title="m_code_value" target="_top">
<polygon fill="#ffffff" stroke="transparent" points="8,-62.45 8,-186.45 143,-186.45 143,-62.45 8,-62.45"/>
<polygon fill="#f5f5f5" stroke="transparent" points="8.5,-164.45 8.5,-186.45 143.5,-186.45 143.5,-164.45 8.5,-164.45"/>
<polygon fill="none" stroke="black" points="8.5,-164.45 8.5,-186.45 143.5,-186.45 143.5,-164.45 8.5,-164.45"/>
<text text-anchor="start" x="13.5" y="-173.65" font-family="Helvetica,sans-Serif" font-weight="bold" font-size="11.00">m_code_value</text>
<text text-anchor="start" x="108.5" y="-172.65" font-family="Helvetica,sans-Serif" font-size="11.00">[table]</text>
<polygon fill="none" stroke="black" points="8.5,-142.45 8.5,-164.45 143.5,-164.45 143.5,-142.45 8.5,-142.45"/>
<image xlink:href="../../images/primaryKeys.png" width="11px" height="12px" preserveAspectRatio="xMinYMin meet" x="13.5" y="-159.454"/>
<text text-anchor="start" x="28.5" y="-150.65" font-family="Helvetica,sans-Serif" font-size="11.00">id</text>
<polygon fill="#ffffff" stroke="transparent" points="8.5,-120.45 8.5,-142.45 143.5,-142.45 143.5,-120.45 8.5,-120.45"/>
<polygon fill="none" stroke="black" points="8.5,-120.45 8.5,-142.45 143.5,-142.45 143.5,-120.45 8.5,-120.45"/>
<image xlink:href="../../images/foreignKeys.png" width="11px" height="12px" preserveAspectRatio="xMinYMin meet" x="13.5" y="-137.454"/>
<text text-anchor="start" x="28.5" y="-128.65" font-family="Helvetica,sans-Serif" font-size="11.00">code_id</text>
<polygon fill="#ffffff" stroke="transparent" points="8.5,-98.45 8.5,-120.45 143.5,-120.45 143.5,-98.45 8.5,-98.45"/>
<polygon fill="none" stroke="black" points="8.5,-98.45 8.5,-120.45 143.5,-120.45 143.5,-98.45 8.5,-98.45"/>
<text text-anchor="start" x="28.5" y="-106.65" font-family="Helvetica,sans-Serif" font-size="11.00">code_value</text>
<polygon fill="none" stroke="black" points="8.5,-80.45 8.5,-98.45 143.5,-98.45 143.5,-80.45 8.5,-80.45"/>
<text text-anchor="start" x="11.5" y="-86.65" font-family="Helvetica,sans-Serif" font-size="11.00">...</text>
<polygon fill="#ffffff" stroke="transparent" points="8.5,-62.45 8.5,-80.45 53.5,-80.45 53.5,-62.45 8.5,-62.45"/>
<polygon fill="none" stroke="black" points="8.5,-62.45 8.5,-80.45 53.5,-80.45 53.5,-62.45 8.5,-62.45"/>
<text text-anchor="start" x="11.5" y="-68.65" font-family="Helvetica,sans-Serif" font-size="11.00">&lt; 1</text>
<polygon fill="#ffffff" stroke="transparent" points="53.5,-62.45 53.5,-80.45 103.5,-80.45 103.5,-62.45 53.5,-62.45"/>
<polygon fill="none" stroke="black" points="53.5,-62.45 53.5,-80.45 103.5,-80.45 103.5,-62.45 53.5,-62.45"/>
<text text-anchor="start" x="67.5" y="-68.65" font-family="Helvetica,sans-Serif" font-size="11.00">0 rows</text>
<polygon fill="#ffffff" stroke="transparent" points="103.5,-62.45 103.5,-80.45 143.5,-80.45 143.5,-62.45 103.5,-62.45"/>
<polygon fill="none" stroke="black" points="103.5,-62.45 103.5,-80.45 143.5,-80.45 143.5,-62.45 103.5,-62.45"/>
<text text-anchor="start" x="118.5" y="-68.65" font-family="Helvetica,sans-Serif" font-size="11.00">25 &gt;</text>
</a>
</g>
</g>
<!-- m_loan&#45;&gt;m_code_value -->
<g id="edge1" class="edge">
<title>m_loan:w&#45;&gt;m_code_value:e</title>
<path fill="none" stroke="black" d="M176.71,-326.97C125.34,-305.57 219.72,-153.45 144.5,-153.45"/>
<polygon fill="black" stroke="black" points="183.12,-328.08 190.38,-333 187.06,-328.77 191,-329.45 191,-329.45 191,-329.45 187.06,-328.77 191.62,-325.91 183.12,-328.08 183.12,-328.08"/>
<ellipse fill="none" stroke="black" cx="179.97" cy="-327.53" rx="3.2" ry="3.2"/>
</g>
<!-- m_loan&#45;&gt;m_code_value -->
<g id="edge2" class="edge">
<title>m_loan:w&#45;&gt;m_code_value:e</title>
<path fill="none" stroke="black" d="M176.55,-153.45C166.2,-153.45 159.35,-153.45 144.5,-153.45"/>
<polygon fill="black" stroke="black" points="183,-153.45 191,-157.05 187,-153.45 191,-153.45 191,-153.45 191,-153.45 187,-153.45 191,-149.85 183,-153.45 183,-153.45"/>
<ellipse fill="none" stroke="black" cx="179.8" cy="-153.45" rx="3.2" ry="3.2"/>
</g>
<!-- m_loan_collateral -->
<g id="node3" class="node">
<title>m_loan_collateral</title>
<g id="a_node3"><a xlink:href="../../tables/m_loan_collateral.html" xlink:title="m_loan_collateral" target="_top">
<polygon fill="#ffffff" stroke="transparent" points="569,-218.45 569,-372.45 781,-372.45 781,-218.45 569,-218.45"/>
<polygon fill="#f5f5f5" stroke="transparent" points="571,-348.45 571,-370.45 779,-370.45 779,-348.45 571,-348.45"/>
<polygon fill="none" stroke="black" points="571,-348.45 571,-370.45 779,-370.45 779,-348.45 571,-348.45"/>
<text text-anchor="start" x="576" y="-357.65" font-family="Helvetica,sans-Serif" font-weight="bold" font-size="11.00">m_loan_collateral</text>
<text text-anchor="start" x="744" y="-356.65" font-family="Helvetica,sans-Serif" font-size="11.00">[table]</text>
<polygon fill="none" stroke="black" points="571,-326.45 571,-348.45 709,-348.45 709,-326.45 571,-326.45"/>
<image xlink:href="../../images/primaryKeys.png" width="11px" height="12px" preserveAspectRatio="xMinYMin meet" x="576" y="-343.454"/>
<text text-anchor="start" x="591" y="-334.65" font-family="Helvetica,sans-Serif" font-size="11.00">id</text>
<polygon fill="none" stroke="black" points="709,-326.45 709,-348.45 779,-348.45 779,-326.45 709,-326.45"/>
<text text-anchor="start" x="712" y="-334.65" font-family="Helvetica,sans-Serif" font-size="11.00">bigint[19]</text>
<polygon fill="#ffffff" stroke="transparent" points="571,-304.45 571,-326.45 709,-326.45 709,-304.45 571,-304.45"/>
<polygon fill="none" stroke="black" points="571,-304.45 571,-326.45 709,-326.45 709,-304.45 571,-304.45"/>
<image xlink:href="../../images/foreignKeys.png" width="11px" height="12px" preserveAspectRatio="xMinYMin meet" x="576" y="-321.454"/>
<text text-anchor="start" x="591" y="-312.65" font-family="Helvetica,sans-Serif" font-size="11.00">loan_id</text>
<polygon fill="none" stroke="black" points="709,-304.45 709,-326.45 779,-326.45 779,-304.45 709,-304.45"/>
<text text-anchor="start" x="712" y="-312.65" font-family="Helvetica,sans-Serif" font-size="11.00">bigint[19]</text>
<polygon fill="#ffffff" stroke="transparent" points="571,-282.45 571,-304.45 709,-304.45 709,-282.45 571,-282.45"/>
<polygon fill="none" stroke="black" points="571,-282.45 571,-304.45 709,-304.45 709,-282.45 571,-282.45"/>
<image xlink:href="../../images/foreignKeys.png" width="11px" height="12px" preserveAspectRatio="xMinYMin meet" x="576" y="-299.454"/>
<text text-anchor="start" x="591" y="-290.65" font-family="Helvetica,sans-Serif" font-size="11.00">type_cv_id</text>
<polygon fill="none" stroke="black" points="709,-282.45 709,-304.45 779,-304.45 779,-282.45 709,-282.45"/>
<text text-anchor="start" x="712" y="-290.65" font-family="Helvetica,sans-Serif" font-size="11.00">int[10]</text>
<polygon fill="none" stroke="black" points="571,-260.45 571,-282.45 709,-282.45 709,-260.45 571,-260.45"/>
<text text-anchor="start" x="591" y="-268.65" font-family="Helvetica,sans-Serif" font-size="11.00">value</text>
<polygon fill="none" stroke="black" points="709,-260.45 709,-282.45 779,-282.45 779,-260.45 709,-260.45"/>
<text text-anchor="start" x="712" y="-268.65" font-family="Helvetica,sans-Serif" font-size="11.00">decimal[19,6]</text>
<polygon fill="none" stroke="black" points="571,-238.45 571,-260.45 709,-260.45 709,-238.45 571,-238.45"/>
<text text-anchor="start" x="591" y="-246.65" font-family="Helvetica,sans-Serif" font-size="11.00">description</text>
<polygon fill="none" stroke="black" points="709,-238.45 709,-260.45 779,-260.45 779,-238.45 709,-238.45"/>
<text text-anchor="start" x="712" y="-246.65" font-family="Helvetica,sans-Serif" font-size="11.00">varchar[500]</text>
<polygon fill="#ffffff" stroke="transparent" points="571,-220.45 571,-238.45 631,-238.45 631,-220.45 571,-220.45"/>
<polygon fill="none" stroke="black" points="571,-220.45 571,-238.45 631,-238.45 631,-220.45 571,-220.45"/>
<text text-anchor="start" x="574" y="-226.65" font-family="Helvetica,sans-Serif" font-size="11.00">&lt; 2</text>
<polygon fill="#ffffff" stroke="transparent" points="631,-220.45 631,-238.45 709,-238.45 709,-220.45 631,-220.45"/>
<polygon fill="none" stroke="black" points="631,-220.45 631,-238.45 709,-238.45 709,-220.45 631,-220.45"/>
<text text-anchor="start" x="673" y="-226.65" font-family="Helvetica,sans-Serif" font-size="11.00">0 rows</text>
<polygon fill="#ffffff" stroke="transparent" points="709,-220.45 709,-238.45 779,-238.45 779,-220.45 709,-220.45"/>
<polygon fill="none" stroke="black" points="709,-220.45 709,-238.45 779,-238.45 779,-220.45 709,-220.45"/>
<text text-anchor="start" x="760" y="-226.65" font-family="Helvetica,sans-Serif" font-size="11.00">0 &gt;</text>
<polygon fill="none" stroke="black" stroke-width="2" points="570,-219.45 570,-371.45 780,-371.45 780,-219.45 570,-219.45"/>
</a>
</g>
</g>
<!-- m_loan_collateral&#45;&gt;m_loan -->
<g id="edge3" class="edge">
<title>m_loan_collateral:w&#45;&gt;m_loan:e</title>
<path fill="none" stroke="black" d="M555.39,-317.55C489.39,-339.57 612.04,-527.45 521,-527.45"/>
<polygon fill="black" stroke="black" points="562.08,-316.59 570.51,-319.02 566.04,-316.02 570,-315.45 570,-315.45 570,-315.45 566.04,-316.02 569.49,-311.89 562.08,-316.59 562.08,-316.59"/>
<ellipse fill="none" stroke="black" cx="558.91" cy="-317.05" rx="3.2" ry="3.2"/>
</g>
<!-- m_loan_collateral&#45;&gt;m_code_value -->
<g id="edge4" class="edge">
<title>m_loan_collateral:w&#45;&gt;m_code_value:e</title>
<path fill="none" stroke="black" d="M555.54,-291.86C494.39,-276.2 593.24,-149.25 528,-96.45 409.15,-0.27 319.44,-25.53 184,-96.45 156.7,-110.75 175.32,-153.45 144.5,-153.45"/>
<polygon fill="black" stroke="black" points="562.05,-292.58 569.61,-297.03 566.02,-293.02 570,-293.45 570,-293.45 570,-293.45 566.02,-293.02 570.39,-289.88 562.05,-292.58 562.05,-292.58"/>
<ellipse fill="none" stroke="black" cx="558.87" cy="-292.23" rx="3.2" ry="3.2"/>
</g>
</g>
</svg>
