<?xml version="1.0" encoding="UTF-8" standalone="no"?>
<!DOCTYPE svg PUBLIC "-//W3C//DTD SVG 1.1//EN"
 "http://www.w3.org/Graphics/SVG/1.1/DTD/svg11.dtd">
<!-- Generated by graphviz version 2.43.0 (0)
 -->
<!-- Title: oneDegreeRelationshipsDiagram Pages: 1 -->
<svg width="1007pt" height="549pt"
 viewBox="0.00 0.00 1007.00 549.00" xmlns="http://www.w3.org/2000/svg" xmlns:xlink="http://www.w3.org/1999/xlink">
<g id="graph0" class="graph" transform="scale(1 1) rotate(0) translate(4 545)">
<title>oneDegreeRelationshipsDiagram</title>
<polygon fill="#ffffff" stroke="transparent" points="-4,4 -4,-545 1003,-545 1003,4 -4,4"/>
<text text-anchor="middle" x="71.5" y="-7.2" font-family="Helvetica,sans-Serif" font-size="11.00">Generated by SchemaSpy</text>
<!-- m_loan_repayment_schedule_history -->
<g id="node1" class="node">
<title>m_loan_repayment_schedule_history</title>
<g id="a_node1"><a xlink:href="../../tables/m_loan_repayment_schedule_history.html" xlink:title="m_loan_repayment_schedule_history" target="_top">
<polygon fill="#ffffff" stroke="transparent" points="650,-163 650,-537 991,-537 991,-163 650,-163"/>
<polygon fill="#f5f5f5" stroke="transparent" points="652.5,-513 652.5,-535 989.5,-535 989.5,-513 652.5,-513"/>
<polygon fill="none" stroke="black" points="652.5,-513 652.5,-535 989.5,-535 989.5,-513 652.5,-513"/>
<text text-anchor="start" x="657.5" y="-522.2" font-family="Helvetica,sans-Serif" font-weight="bold" font-size="11.00">m_loan_repayment_schedule_history</text>
<text text-anchor="start" x="954.5" y="-521.2" font-family="Helvetica,sans-Serif" font-size="11.00">[table]</text>
<polygon fill="none" stroke="black" points="652.5,-491 652.5,-513 919.5,-513 919.5,-491 652.5,-491"/>
<image xlink:href="../../images/primaryKeys.png" width="11px" height="12px" preserveAspectRatio="xMinYMin meet" x="657.5" y="-508"/>
<text text-anchor="start" x="672.5" y="-499.2" font-family="Helvetica,sans-Serif" font-size="11.00">id</text>
<polygon fill="none" stroke="black" points="919.5,-491 919.5,-513 989.5,-513 989.5,-491 919.5,-491"/>
<text text-anchor="start" x="922.5" y="-499.2" font-family="Helvetica,sans-Serif" font-size="11.00">bigint[19]</text>
<polygon fill="#ffffff" stroke="transparent" points="652.5,-469 652.5,-491 919.5,-491 919.5,-469 652.5,-469"/>
<polygon fill="none" stroke="black" points="652.5,-469 652.5,-491 919.5,-491 919.5,-469 652.5,-469"/>
<image xlink:href="../../images/foreignKeys.png" width="11px" height="12px" preserveAspectRatio="xMinYMin meet" x="657.5" y="-486"/>
<text text-anchor="start" x="672.5" y="-477.2" font-family="Helvetica,sans-Serif" font-size="11.00">loan_id</text>
<polygon fill="none" stroke="black" points="919.5,-469 919.5,-491 989.5,-491 989.5,-469 919.5,-469"/>
<text text-anchor="start" x="922.5" y="-477.2" font-family="Helvetica,sans-Serif" font-size="11.00">bigint[19]</text>
<polygon fill="#ffffff" stroke="transparent" points="652.5,-447 652.5,-469 919.5,-469 919.5,-447 652.5,-447"/>
<polygon fill="none" stroke="black" points="652.5,-447 652.5,-469 919.5,-469 919.5,-447 652.5,-447"/>
<image xlink:href="../../images/foreignKeys.png" width="11px" height="12px" preserveAspectRatio="xMinYMin meet" x="657.5" y="-464"/>
<text text-anchor="start" x="672.5" y="-455.2" font-family="Helvetica,sans-Serif" font-size="11.00">loan_reschedule_request_id</text>
<polygon fill="none" stroke="black" points="919.5,-447 919.5,-469 989.5,-469 989.5,-447 919.5,-447"/>
<text text-anchor="start" x="922.5" y="-455.2" font-family="Helvetica,sans-Serif" font-size="11.00">bigint[19]</text>
<polygon fill="none" stroke="black" points="652.5,-425 652.5,-447 919.5,-447 919.5,-425 652.5,-425"/>
<text text-anchor="start" x="672.5" y="-433.2" font-family="Helvetica,sans-Serif" font-size="11.00">fromdate</text>
<polygon fill="none" stroke="black" points="919.5,-425 919.5,-447 989.5,-447 989.5,-425 919.5,-425"/>
<text text-anchor="start" x="922.5" y="-433.2" font-family="Helvetica,sans-Serif" font-size="11.00">date[10]</text>
<polygon fill="none" stroke="black" points="652.5,-403 652.5,-425 919.5,-425 919.5,-403 652.5,-403"/>
<text text-anchor="start" x="672.5" y="-411.2" font-family="Helvetica,sans-Serif" font-size="11.00">duedate</text>
<polygon fill="none" stroke="black" points="919.5,-403 919.5,-425 989.5,-425 989.5,-403 919.5,-403"/>
<text text-anchor="start" x="922.5" y="-411.2" font-family="Helvetica,sans-Serif" font-size="11.00">date[10]</text>
<polygon fill="none" stroke="black" points="652.5,-381 652.5,-403 919.5,-403 919.5,-381 652.5,-381"/>
<text text-anchor="start" x="672.5" y="-389.2" font-family="Helvetica,sans-Serif" font-size="11.00">installment</text>
<polygon fill="none" stroke="black" points="919.5,-381 919.5,-403 989.5,-403 989.5,-381 919.5,-381"/>
<text text-anchor="start" x="922.5" y="-389.2" font-family="Helvetica,sans-Serif" font-size="11.00">smallint[5]</text>
<polygon fill="none" stroke="black" points="652.5,-359 652.5,-381 919.5,-381 919.5,-359 652.5,-359"/>
<text text-anchor="start" x="672.5" y="-367.2" font-family="Helvetica,sans-Serif" font-size="11.00">principal_amount</text>
<polygon fill="none" stroke="black" points="919.5,-359 919.5,-381 989.5,-381 989.5,-359 919.5,-359"/>
<text text-anchor="start" x="922.5" y="-367.2" font-family="Helvetica,sans-Serif" font-size="11.00">decimal[19,6]</text>
<polygon fill="none" stroke="black" points="652.5,-337 652.5,-359 919.5,-359 919.5,-337 652.5,-337"/>
<text text-anchor="start" x="672.5" y="-345.2" font-family="Helvetica,sans-Serif" font-size="11.00">interest_amount</text>
<polygon fill="none" stroke="black" points="919.5,-337 919.5,-359 989.5,-359 989.5,-337 919.5,-337"/>
<text text-anchor="start" x="922.5" y="-345.2" font-family="Helvetica,sans-Serif" font-size="11.00">decimal[19,6]</text>
<polygon fill="none" stroke="black" points="652.5,-315 652.5,-337 919.5,-337 919.5,-315 652.5,-315"/>
<text text-anchor="start" x="672.5" y="-323.2" font-family="Helvetica,sans-Serif" font-size="11.00">fee_charges_amount</text>
<polygon fill="none" stroke="black" points="919.5,-315 919.5,-337 989.5,-337 989.5,-315 919.5,-315"/>
<text text-anchor="start" x="922.5" y="-323.2" font-family="Helvetica,sans-Serif" font-size="11.00">decimal[19,6]</text>
<polygon fill="none" stroke="black" points="652.5,-293 652.5,-315 919.5,-315 919.5,-293 652.5,-293"/>
<text text-anchor="start" x="672.5" y="-301.2" font-family="Helvetica,sans-Serif" font-size="11.00">penalty_charges_amount</text>
<polygon fill="none" stroke="black" points="919.5,-293 919.5,-315 989.5,-315 989.5,-293 919.5,-293"/>
<text text-anchor="start" x="922.5" y="-301.2" font-family="Helvetica,sans-Serif" font-size="11.00">decimal[19,6]</text>
<polygon fill="none" stroke="black" points="652.5,-271 652.5,-293 919.5,-293 919.5,-271 652.5,-271"/>
<text text-anchor="start" x="672.5" y="-279.2" font-family="Helvetica,sans-Serif" font-size="11.00">createdby_id</text>
<polygon fill="none" stroke="black" points="919.5,-271 919.5,-293 989.5,-293 989.5,-271 919.5,-271"/>
<text text-anchor="start" x="922.5" y="-279.2" font-family="Helvetica,sans-Serif" font-size="11.00">bigint[19]</text>
<polygon fill="none" stroke="black" points="652.5,-249 652.5,-271 919.5,-271 919.5,-249 652.5,-249"/>
<text text-anchor="start" x="672.5" y="-257.2" font-family="Helvetica,sans-Serif" font-size="11.00">created_date</text>
<polygon fill="none" stroke="black" points="919.5,-249 919.5,-271 989.5,-271 989.5,-249 919.5,-249"/>
<text text-anchor="start" x="922.5" y="-257.2" font-family="Helvetica,sans-Serif" font-size="11.00">datetime[19]</text>
<polygon fill="none" stroke="black" points="652.5,-227 652.5,-249 919.5,-249 919.5,-227 652.5,-227"/>
<text text-anchor="start" x="672.5" y="-235.2" font-family="Helvetica,sans-Serif" font-size="11.00">lastmodified_date</text>
<polygon fill="none" stroke="black" points="919.5,-227 919.5,-249 989.5,-249 989.5,-227 919.5,-227"/>
<text text-anchor="start" x="922.5" y="-235.2" font-family="Helvetica,sans-Serif" font-size="11.00">datetime[19]</text>
<polygon fill="none" stroke="black" points="652.5,-205 652.5,-227 919.5,-227 919.5,-205 652.5,-205"/>
<text text-anchor="start" x="672.5" y="-213.2" font-family="Helvetica,sans-Serif" font-size="11.00">lastmodifiedby_id</text>
<polygon fill="none" stroke="black" points="919.5,-205 919.5,-227 989.5,-227 989.5,-205 919.5,-205"/>
<text text-anchor="start" x="922.5" y="-213.2" font-family="Helvetica,sans-Serif" font-size="11.00">bigint[19]</text>
<polygon fill="none" stroke="black" points="652.5,-183 652.5,-205 919.5,-205 919.5,-183 652.5,-183"/>
<text text-anchor="start" x="672.5" y="-191.2" font-family="Helvetica,sans-Serif" font-size="11.00">version</text>
<polygon fill="none" stroke="black" points="919.5,-183 919.5,-205 989.5,-205 989.5,-183 919.5,-183"/>
<text text-anchor="start" x="922.5" y="-191.2" font-family="Helvetica,sans-Serif" font-size="11.00">int[10]</text>
<polygon fill="#ffffff" stroke="transparent" points="652.5,-165 652.5,-183 777.5,-183 777.5,-165 652.5,-165"/>
<polygon fill="none" stroke="black" points="652.5,-165 652.5,-183 777.5,-183 777.5,-165 652.5,-165"/>
<text text-anchor="start" x="655.5" y="-171.2" font-family="Helvetica,sans-Serif" font-size="11.00">&lt; 2</text>
<polygon fill="#ffffff" stroke="transparent" points="777.5,-165 777.5,-183 919.5,-183 919.5,-165 777.5,-165"/>
<polygon fill="none" stroke="black" points="777.5,-165 777.5,-183 919.5,-183 919.5,-165 777.5,-165"/>
<text text-anchor="start" x="883.5" y="-171.2" font-family="Helvetica,sans-Serif" font-size="11.00">0 rows</text>
<polygon fill="#ffffff" stroke="transparent" points="919.5,-165 919.5,-183 989.5,-183 989.5,-165 919.5,-165"/>
<polygon fill="none" stroke="black" points="919.5,-165 919.5,-183 989.5,-183 989.5,-165 919.5,-165"/>
<text text-anchor="start" x="970.5" y="-171.2" font-family="Helvetica,sans-Serif" font-size="11.00">0 &gt;</text>
<polygon fill="none" stroke="black" stroke-width="2" points="651,-164 651,-536 990,-536 990,-164 651,-164"/>
</a>
</g>
</g>
<!-- m_loan -->
<g id="node2" class="node">
<title>m_loan</title>
<g id="a_node2"><a xlink:href="../../tables/m_loan.html" xlink:title="m_loan" target="_top">
<polygon fill="#ffffff" stroke="transparent" points="8,-37 8,-491 336,-491 336,-37 8,-37"/>
<polygon fill="#f5f5f5" stroke="transparent" points="8,-469 8,-491 336,-491 336,-469 8,-469"/>
<polygon fill="none" stroke="black" points="8,-469 8,-491 336,-491 336,-469 8,-469"/>
<text text-anchor="start" x="13" y="-478.2" font-family="Helvetica,sans-Serif" font-weight="bold" font-size="11.00">m_loan</text>
<text text-anchor="start" x="301" y="-477.2" font-family="Helvetica,sans-Serif" font-size="11.00">[table]</text>
<polygon fill="none" stroke="black" points="8,-447 8,-469 336,-469 336,-447 8,-447"/>
<image xlink:href="../../images/primaryKeys.png" width="11px" height="12px" preserveAspectRatio="xMinYMin meet" x="13" y="-464"/>
<text text-anchor="start" x="28" y="-455.2" font-family="Helvetica,sans-Serif" font-size="11.00">id</text>
<polygon fill="#ffffff" stroke="transparent" points="8,-425 8,-447 336,-447 336,-425 8,-425"/>
<polygon fill="none" stroke="black" points="8,-425 8,-447 336,-447 336,-425 8,-425"/>
<text text-anchor="start" x="28" y="-433.2" font-family="Helvetica,sans-Serif" font-size="11.00">account_no</text>
<polygon fill="#ffffff" stroke="transparent" points="8,-403 8,-425 336,-425 336,-403 8,-403"/>
<polygon fill="none" stroke="black" points="8,-403 8,-425 336,-425 336,-403 8,-403"/>
<text text-anchor="start" x="28" y="-411.2" font-family="Helvetica,sans-Serif" font-size="11.00">external_id</text>
<polygon fill="#ffffff" stroke="transparent" points="8,-381 8,-403 336,-403 336,-381 8,-381"/>
<polygon fill="none" stroke="black" points="8,-381 8,-403 336,-403 336,-381 8,-381"/>
<image xlink:href="../../images/foreignKeys.png" width="11px" height="12px" preserveAspectRatio="xMinYMin meet" x="13" y="-398"/>
<text text-anchor="start" x="28" y="-389.2" font-family="Helvetica,sans-Serif" font-size="11.00">client_id</text>
<polygon fill="#ffffff" stroke="transparent" points="8,-359 8,-381 336,-381 336,-359 8,-359"/>
<polygon fill="none" stroke="black" points="8,-359 8,-381 336,-381 336,-359 8,-359"/>
<image xlink:href="../../images/foreignKeys.png" width="11px" height="12px" preserveAspectRatio="xMinYMin meet" x="13" y="-376"/>
<text text-anchor="start" x="28" y="-367.2" font-family="Helvetica,sans-Serif" font-size="11.00">group_id</text>
<polygon fill="#ffffff" stroke="transparent" points="8,-337 8,-359 336,-359 336,-337 8,-337"/>
<polygon fill="none" stroke="black" points="8,-337 8,-359 336,-359 336,-337 8,-337"/>
<image xlink:href="../../images/foreignKeys.png" width="11px" height="12px" preserveAspectRatio="xMinYMin meet" x="13" y="-354"/>
<text text-anchor="start" x="28" y="-345.2" font-family="Helvetica,sans-Serif" font-size="11.00">glim_id</text>
<polygon fill="#ffffff" stroke="transparent" points="8,-315 8,-337 336,-337 336,-315 8,-315"/>
<polygon fill="none" stroke="black" points="8,-315 8,-337 336,-337 336,-315 8,-315"/>
<image xlink:href="../../images/foreignKeys.png" width="11px" height="12px" preserveAspectRatio="xMinYMin meet" x="13" y="-332"/>
<text text-anchor="start" x="28" y="-323.2" font-family="Helvetica,sans-Serif" font-size="11.00">product_id</text>
<polygon fill="#ffffff" stroke="transparent" points="8,-293 8,-315 336,-315 336,-293 8,-293"/>
<polygon fill="none" stroke="black" points="8,-293 8,-315 336,-315 336,-293 8,-293"/>
<image xlink:href="../../images/foreignKeys.png" width="11px" height="12px" preserveAspectRatio="xMinYMin meet" x="13" y="-310"/>
<text text-anchor="start" x="28" y="-301.2" font-family="Helvetica,sans-Serif" font-size="11.00">fund_id</text>
<polygon fill="#ffffff" stroke="transparent" points="8,-271 8,-293 336,-293 336,-271 8,-271"/>
<polygon fill="none" stroke="black" points="8,-271 8,-293 336,-293 336,-271 8,-271"/>
<image xlink:href="../../images/foreignKeys.png" width="11px" height="12px" preserveAspectRatio="xMinYMin meet" x="13" y="-288"/>
<text text-anchor="start" x="28" y="-279.2" font-family="Helvetica,sans-Serif" font-size="11.00">loan_officer_id</text>
<polygon fill="#ffffff" stroke="transparent" points="8,-249 8,-271 336,-271 336,-249 8,-249"/>
<polygon fill="none" stroke="black" points="8,-249 8,-271 336,-271 336,-249 8,-249"/>
<image xlink:href="../../images/foreignKeys.png" width="11px" height="12px" preserveAspectRatio="xMinYMin meet" x="13" y="-266"/>
<text text-anchor="start" x="28" y="-257.2" font-family="Helvetica,sans-Serif" font-size="11.00">loanpurpose_cv_id</text>
<polygon fill="#ffffff" stroke="transparent" points="8,-227 8,-249 336,-249 336,-227 8,-227"/>
<polygon fill="none" stroke="black" points="8,-227 8,-249 336,-249 336,-227 8,-227"/>
<image xlink:href="../../images/foreignKeys.png" width="11px" height="12px" preserveAspectRatio="xMinYMin meet" x="13" y="-244"/>
<text text-anchor="start" x="28" y="-235.2" font-family="Helvetica,sans-Serif" font-size="11.00">submittedon_userid</text>
<polygon fill="#ffffff" stroke="transparent" points="8,-205 8,-227 336,-227 336,-205 8,-205"/>
<polygon fill="none" stroke="black" points="8,-205 8,-227 336,-227 336,-205 8,-205"/>
<image xlink:href="../../images/foreignKeys.png" width="11px" height="12px" preserveAspectRatio="xMinYMin meet" x="13" y="-222"/>
<text text-anchor="start" x="28" y="-213.2" font-family="Helvetica,sans-Serif" font-size="11.00">approvedon_userid</text>
<polygon fill="#ffffff" stroke="transparent" points="8,-183 8,-205 336,-205 336,-183 8,-183"/>
<polygon fill="none" stroke="black" points="8,-183 8,-205 336,-205 336,-183 8,-183"/>
<image xlink:href="../../images/foreignKeys.png" width="11px" height="12px" preserveAspectRatio="xMinYMin meet" x="13" y="-200"/>
<text text-anchor="start" x="28" y="-191.2" font-family="Helvetica,sans-Serif" font-size="11.00">disbursedon_userid</text>
<polygon fill="#ffffff" stroke="transparent" points="8,-161 8,-183 336,-183 336,-161 8,-161"/>
<polygon fill="none" stroke="black" points="8,-161 8,-183 336,-183 336,-161 8,-161"/>
<image xlink:href="../../images/foreignKeys.png" width="11px" height="12px" preserveAspectRatio="xMinYMin meet" x="13" y="-178"/>
<text text-anchor="start" x="28" y="-169.2" font-family="Helvetica,sans-Serif" font-size="11.00">closedon_userid</text>
<polygon fill="#ffffff" stroke="transparent" points="8,-139 8,-161 336,-161 336,-139 8,-139"/>
<polygon fill="none" stroke="black" points="8,-139 8,-161 336,-161 336,-139 8,-139"/>
<image xlink:href="../../images/foreignKeys.png" width="11px" height="12px" preserveAspectRatio="xMinYMin meet" x="13" y="-156"/>
<text text-anchor="start" x="28" y="-147.2" font-family="Helvetica,sans-Serif" font-size="11.00">rejectedon_userid</text>
<polygon fill="#ffffff" stroke="transparent" points="8,-117 8,-139 336,-139 336,-117 8,-117"/>
<polygon fill="none" stroke="black" points="8,-117 8,-139 336,-139 336,-117 8,-117"/>
<image xlink:href="../../images/foreignKeys.png" width="11px" height="12px" preserveAspectRatio="xMinYMin meet" x="13" y="-134"/>
<text text-anchor="start" x="28" y="-125.2" font-family="Helvetica,sans-Serif" font-size="11.00">withdrawnon_userid</text>
<polygon fill="#ffffff" stroke="transparent" points="8,-95 8,-117 336,-117 336,-95 8,-95"/>
<polygon fill="none" stroke="black" points="8,-95 8,-117 336,-117 336,-95 8,-95"/>
<image xlink:href="../../images/foreignKeys.png" width="11px" height="12px" preserveAspectRatio="xMinYMin meet" x="13" y="-112"/>
<text text-anchor="start" x="28" y="-103.2" font-family="Helvetica,sans-Serif" font-size="11.00">loan_transaction_strategy_id</text>
<polygon fill="#ffffff" stroke="transparent" points="8,-73 8,-95 336,-95 336,-73 8,-73"/>
<polygon fill="none" stroke="black" points="8,-73 8,-95 336,-95 336,-73 8,-73"/>
<image xlink:href="../../images/foreignKeys.png" width="11px" height="12px" preserveAspectRatio="xMinYMin meet" x="13" y="-90"/>
<text text-anchor="start" x="28" y="-81.2" font-family="Helvetica,sans-Serif" font-size="11.00">writeoff_reason_cv_id</text>
<polygon fill="none" stroke="black" points="8,-55 8,-73 336,-73 336,-55 8,-55"/>
<text text-anchor="start" x="11" y="-61.2" font-family="Helvetica,sans-Serif" font-size="11.00">...</text>
<polygon fill="#ffffff" stroke="transparent" points="8,-37 8,-55 152,-55 152,-37 8,-37"/>
<polygon fill="none" stroke="black" points="8,-37 8,-55 152,-55 152,-37 8,-37"/>
<text text-anchor="start" x="11" y="-43.2" font-family="Helvetica,sans-Serif" font-size="11.00">&lt; 15</text>
<polygon fill="#ffffff" stroke="transparent" points="152,-37 152,-55 249,-55 249,-37 152,-37"/>
<polygon fill="none" stroke="black" points="152,-37 152,-55 249,-55 249,-37 152,-37"/>
<text text-anchor="start" x="213" y="-43.2" font-family="Helvetica,sans-Serif" font-size="11.00">0 rows</text>
<polygon fill="#ffffff" stroke="transparent" points="249,-37 249,-55 336,-55 336,-37 249,-37"/>
<polygon fill="none" stroke="black" points="249,-37 249,-55 336,-55 336,-37 249,-37"/>
<text text-anchor="start" x="311" y="-43.2" font-family="Helvetica,sans-Serif" font-size="11.00">24 &gt;</text>
</a>
</g>
</g>
<!-- m_loan_repayment_schedule_history&#45;&gt;m_loan -->
<g id="edge1" class="edge">
<title>m_loan_repayment_schedule_history:w&#45;&gt;m_loan:e</title>
<path fill="none" stroke="black" d="M637.05,-480.75C628.26,-481.73 622.03,-483.39 609,-484 506,-488.84 475.86,-513.31 377,-484 356.67,-477.97 358.2,-458 337,-458"/>
<polygon fill="black" stroke="black" points="643.51,-480.41 651.69,-483.6 647.51,-480.21 651.5,-480 651.5,-480 651.5,-480 647.51,-480.21 651.31,-476.4 643.51,-480.41 643.51,-480.41"/>
<ellipse fill="none" stroke="black" cx="640.32" cy="-480.58" rx="3.2" ry="3.2"/>
</g>
<!-- m_loan_reschedule_request -->
<g id="node3" class="node">
<title>m_loan_reschedule_request</title>
<g id="a_node3"><a xlink:href="../../tables/m_loan_reschedule_request.html" xlink:title="m_loan_reschedule_request" target="_top">
<polygon fill="#ffffff" stroke="transparent" points="385,-283 385,-473 601,-473 601,-283 385,-283"/>
<polygon fill="#f5f5f5" stroke="transparent" points="385,-451 385,-473 601,-473 601,-451 385,-451"/>
<polygon fill="none" stroke="black" points="385,-451 385,-473 601,-473 601,-451 385,-451"/>
<text text-anchor="start" x="390" y="-460.2" font-family="Helvetica,sans-Serif" font-weight="bold" font-size="11.00">m_loan_reschedule_request</text>
<text text-anchor="start" x="566" y="-459.2" font-family="Helvetica,sans-Serif" font-size="11.00">[table]</text>
<polygon fill="none" stroke="black" points="385,-429 385,-451 601,-451 601,-429 385,-429"/>
<image xlink:href="../../images/primaryKeys.png" width="11px" height="12px" preserveAspectRatio="xMinYMin meet" x="390" y="-446"/>
<text text-anchor="start" x="405" y="-437.2" font-family="Helvetica,sans-Serif" font-size="11.00">id</text>
<polygon fill="#ffffff" stroke="transparent" points="385,-407 385,-429 601,-429 601,-407 385,-407"/>
<polygon fill="none" stroke="black" points="385,-407 385,-429 601,-429 601,-407 385,-407"/>
<image xlink:href="../../images/foreignKeys.png" width="11px" height="12px" preserveAspectRatio="xMinYMin meet" x="390" y="-424"/>
<text text-anchor="start" x="405" y="-415.2" font-family="Helvetica,sans-Serif" font-size="11.00">loan_id</text>
<polygon fill="#ffffff" stroke="transparent" points="385,-385 385,-407 601,-407 601,-385 385,-385"/>
<polygon fill="none" stroke="black" points="385,-385 385,-407 601,-407 601,-385 385,-385"/>
<image xlink:href="../../images/foreignKeys.png" width="11px" height="12px" preserveAspectRatio="xMinYMin meet" x="390" y="-402"/>
<text text-anchor="start" x="405" y="-393.2" font-family="Helvetica,sans-Serif" font-size="11.00">reschedule_reason_cv_id</text>
<polygon fill="#ffffff" stroke="transparent" points="385,-363 385,-385 601,-385 601,-363 385,-363"/>
<polygon fill="none" stroke="black" points="385,-363 385,-385 601,-385 601,-363 385,-363"/>
<image xlink:href="../../images/foreignKeys.png" width="11px" height="12px" preserveAspectRatio="xMinYMin meet" x="390" y="-380"/>
<text text-anchor="start" x="405" y="-371.2" font-family="Helvetica,sans-Serif" font-size="11.00">submitted_by_user_id</text>
<polygon fill="#ffffff" stroke="transparent" points="385,-341 385,-363 601,-363 601,-341 385,-341"/>
<polygon fill="none" stroke="black" points="385,-341 385,-363 601,-363 601,-341 385,-341"/>
<image xlink:href="../../images/foreignKeys.png" width="11px" height="12px" preserveAspectRatio="xMinYMin meet" x="390" y="-358"/>
<text text-anchor="start" x="405" y="-349.2" font-family="Helvetica,sans-Serif" font-size="11.00">approved_by_user_id</text>
<polygon fill="#ffffff" stroke="transparent" points="385,-319 385,-341 601,-341 601,-319 385,-319"/>
<polygon fill="none" stroke="black" points="385,-319 385,-341 601,-341 601,-319 385,-319"/>
<image xlink:href="../../images/foreignKeys.png" width="11px" height="12px" preserveAspectRatio="xMinYMin meet" x="390" y="-336"/>
<text text-anchor="start" x="405" y="-327.2" font-family="Helvetica,sans-Serif" font-size="11.00">rejected_by_user_id</text>
<polygon fill="none" stroke="black" points="385,-301 385,-319 601,-319 601,-301 385,-301"/>
<text text-anchor="start" x="388" y="-307.2" font-family="Helvetica,sans-Serif" font-size="11.00">...</text>
<polygon fill="#ffffff" stroke="transparent" points="385,-283 385,-301 473,-301 473,-283 385,-283"/>
<polygon fill="none" stroke="black" points="385,-283 385,-301 473,-301 473,-283 385,-283"/>
<text text-anchor="start" x="388" y="-289.2" font-family="Helvetica,sans-Serif" font-size="11.00">&lt; 5</text>
<polygon fill="#ffffff" stroke="transparent" points="473,-283 473,-301 545,-301 545,-283 473,-283"/>
<polygon fill="none" stroke="black" points="473,-283 473,-301 545,-301 545,-283 473,-283"/>
<text text-anchor="start" x="509" y="-289.2" font-family="Helvetica,sans-Serif" font-size="11.00">0 rows</text>
<polygon fill="#ffffff" stroke="transparent" points="545,-283 545,-301 601,-301 601,-283 545,-283"/>
<polygon fill="none" stroke="black" points="545,-283 545,-301 601,-301 601,-283 545,-283"/>
<text text-anchor="start" x="582" y="-289.2" font-family="Helvetica,sans-Serif" font-size="11.00">2 &gt;</text>
</a>
</g>
</g>
<!-- m_loan_repayment_schedule_history&#45;&gt;m_loan_reschedule_request -->
<g id="edge2" class="edge">
<title>m_loan_repayment_schedule_history:w&#45;&gt;m_loan_reschedule_request:e</title>
<path fill="none" stroke="black" d="M637.18,-455.19C625.45,-450.12 619.56,-440 602,-440"/>
<polygon fill="black" stroke="black" points="643.65,-456.46 650.81,-461.53 647.58,-457.23 651.5,-458 651.5,-458 651.5,-458 647.58,-457.23 652.19,-454.47 643.65,-456.46 643.65,-456.46"/>
<ellipse fill="none" stroke="black" cx="640.51" cy="-455.84" rx="3.2" ry="3.2"/>
</g>
<!-- m_loan_reschedule_request&#45;&gt;m_loan -->
<g id="edge3" class="edge">
<title>m_loan_reschedule_request:w&#45;&gt;m_loan:e</title>
<path fill="none" stroke="black" d="M370.33,-422.9C358.32,-433.59 358.43,-458 337,-458"/>
<polygon fill="black" stroke="black" points="376.47,-420.7 385.22,-421.39 380.23,-419.35 384,-418 384,-418 384,-418 380.23,-419.35 382.78,-414.61 376.47,-420.7 376.47,-420.7"/>
<ellipse fill="none" stroke="black" cx="373.46" cy="-421.78" rx="3.2" ry="3.2"/>
</g>
</g>
</svg>
