<?xml version="1.0" encoding="UTF-8" standalone="no"?>
<!DOCTYPE svg PUBLIC "-//W3C//DTD SVG 1.1//EN"
 "http://www.w3.org/Graphics/SVG/1.1/DTD/svg11.dtd">
<!-- Generated by graphviz version 2.43.0 (0)
 -->
<!-- Title: twoDegreesRelationshipsDiagram Pages: 1 -->
<svg width="905pt" height="497pt"
 viewBox="0.00 0.00 905.00 497.00" xmlns="http://www.w3.org/2000/svg" xmlns:xlink="http://www.w3.org/1999/xlink">
<g id="graph0" class="graph" transform="scale(1 1) rotate(0) translate(4 493)">
<title>twoDegreesRelationshipsDiagram</title>
<polygon fill="#ffffff" stroke="transparent" points="-4,4 -4,-493 901,-493 901,4 -4,4"/>
<text text-anchor="middle" x="71.5" y="-7.2" font-family="Helvetica,sans-Serif" font-size="11.00">Generated by SchemaSpy</text>
<!-- m_loan_installment_charge -->
<g id="node1" class="node">
<title>m_loan_installment_charge</title>
<g id="a_node1"><a xlink:href="../../tables/m_loan_installment_charge.html" xlink:title="m_loan_installment_charge" target="_top">
<polygon fill="#ffffff" stroke="transparent" points="583.5,-427 583.5,-485 772.5,-485 772.5,-427 583.5,-427"/>
<polygon fill="#f5f5f5" stroke="transparent" points="584,-463 584,-485 773,-485 773,-463 584,-463"/>
<polygon fill="none" stroke="black" points="584,-463 584,-485 773,-485 773,-463 584,-463"/>
<text text-anchor="start" x="589" y="-472.2" font-family="Helvetica,sans-Serif" font-weight="bold" font-size="11.00">m_loan_installment_charge</text>
<text text-anchor="start" x="738" y="-471.2" font-family="Helvetica,sans-Serif" font-size="11.00">[table]</text>
<polygon fill="none" stroke="black" points="584,-445 584,-463 773,-463 773,-445 584,-445"/>
<text text-anchor="start" x="587" y="-451.2" font-family="Helvetica,sans-Serif" font-size="11.00">...</text>
<polygon fill="#ffffff" stroke="transparent" points="584,-427 584,-445 663,-445 663,-427 584,-427"/>
<polygon fill="none" stroke="black" points="584,-427 584,-445 663,-445 663,-427 584,-427"/>
<text text-anchor="start" x="587" y="-433.2" font-family="Helvetica,sans-Serif" font-size="11.00">&lt; 2</text>
<polygon fill="#ffffff" stroke="transparent" points="663,-427 663,-445 731,-445 731,-427 663,-427"/>
<polygon fill="none" stroke="black" points="663,-427 663,-445 731,-445 731,-427 663,-427"/>
<text text-anchor="start" x="695" y="-433.2" font-family="Helvetica,sans-Serif" font-size="11.00">0 rows</text>
<polygon fill="#ffffff" stroke="transparent" points="731,-427 731,-445 773,-445 773,-427 731,-427"/>
<polygon fill="none" stroke="black" points="731,-427 731,-445 773,-445 773,-427 731,-427"/>
<text text-anchor="start" x="763" y="-433.2" font-family="Helvetica,sans-Serif" font-size="11.00"> &#160;</text>
</a>
</g>
</g>
<!-- m_loan_repayment_schedule -->
<g id="node2" class="node">
<title>m_loan_repayment_schedule</title>
<g id="a_node2"><a xlink:href="../../tables/m_loan_repayment_schedule.html" xlink:title="m_loan_repayment_schedule" target="_top">
<polygon fill="#ffffff" stroke="transparent" points="152,-136 152,-238 418,-238 418,-136 152,-136"/>
<polygon fill="#f5f5f5" stroke="transparent" points="152,-216 152,-238 418,-238 418,-216 152,-216"/>
<polygon fill="none" stroke="black" points="152,-216 152,-238 418,-238 418,-216 152,-216"/>
<text text-anchor="start" x="157" y="-225.2" font-family="Helvetica,sans-Serif" font-weight="bold" font-size="11.00">m_loan_repayment_schedule</text>
<text text-anchor="start" x="383" y="-224.2" font-family="Helvetica,sans-Serif" font-size="11.00">[table]</text>
<polygon fill="none" stroke="black" points="152,-194 152,-216 418,-216 418,-194 152,-194"/>
<image xlink:href="../../images/primaryKeys.png" width="11px" height="12px" preserveAspectRatio="xMinYMin meet" x="157" y="-211"/>
<text text-anchor="start" x="172" y="-202.2" font-family="Helvetica,sans-Serif" font-size="11.00">id</text>
<polygon fill="#ffffff" stroke="transparent" points="152,-172 152,-194 418,-194 418,-172 152,-172"/>
<polygon fill="none" stroke="black" points="152,-172 152,-194 418,-194 418,-172 152,-172"/>
<image xlink:href="../../images/foreignKeys.png" width="11px" height="12px" preserveAspectRatio="xMinYMin meet" x="157" y="-189"/>
<text text-anchor="start" x="172" y="-180.2" font-family="Helvetica,sans-Serif" font-size="11.00">loan_id</text>
<polygon fill="none" stroke="black" points="152,-154 152,-172 418,-172 418,-154 152,-154"/>
<text text-anchor="start" x="155" y="-160.2" font-family="Helvetica,sans-Serif" font-size="11.00">...</text>
<polygon fill="#ffffff" stroke="transparent" points="152,-136 152,-154 265,-154 265,-136 152,-136"/>
<polygon fill="none" stroke="black" points="152,-136 152,-154 265,-154 265,-136 152,-136"/>
<text text-anchor="start" x="155" y="-142.2" font-family="Helvetica,sans-Serif" font-size="11.00">&lt; 1</text>
<polygon fill="#ffffff" stroke="transparent" points="265,-136 265,-154 350,-154 350,-136 265,-136"/>
<polygon fill="none" stroke="black" points="265,-136 265,-154 350,-154 350,-136 265,-136"/>
<text text-anchor="start" x="314" y="-142.2" font-family="Helvetica,sans-Serif" font-size="11.00">0 rows</text>
<polygon fill="#ffffff" stroke="transparent" points="350,-136 350,-154 418,-154 418,-136 350,-136"/>
<polygon fill="none" stroke="black" points="350,-136 350,-154 418,-154 418,-136 350,-136"/>
<text text-anchor="start" x="399" y="-142.2" font-family="Helvetica,sans-Serif" font-size="11.00">5 &gt;</text>
</a>
</g>
</g>
<!-- m_loan_installment_charge&#45;&gt;m_loan_repayment_schedule -->
<g id="edge1" class="edge">
<title>m_loan_installment_charge:w&#45;&gt;m_loan_repayment_schedule:e</title>
<path fill="none" stroke="black" d="M568.49,-454.1C520.49,-454.63 494.12,-455.96 459,-417 394.8,-345.78 514.88,-205 419,-205"/>
<polygon fill="black" stroke="black" points="575,-454.05 583.02,-457.6 579,-454.03 583,-454 583,-454 583,-454 579,-454.03 582.98,-450.4 575,-454.05 575,-454.05"/>
<ellipse fill="none" stroke="black" cx="571.8" cy="-454.07" rx="3.2" ry="3.2"/>
</g>
<!-- m_loan -->
<g id="node5" class="node">
<title>m_loan</title>
<g id="a_node5"><a xlink:href="../../tables/m_loan.html" xlink:title="m_loan" target="_top">
<polygon fill="#ffffff" stroke="transparent" points="8,-104 8,-162 103,-162 103,-104 8,-104"/>
<polygon fill="#f5f5f5" stroke="transparent" points="8.5,-140 8.5,-162 103.5,-162 103.5,-140 8.5,-140"/>
<polygon fill="none" stroke="black" points="8.5,-140 8.5,-162 103.5,-162 103.5,-140 8.5,-140"/>
<text text-anchor="start" x="13.5" y="-149.2" font-family="Helvetica,sans-Serif" font-weight="bold" font-size="11.00">m_loan</text>
<text text-anchor="start" x="68.5" y="-148.2" font-family="Helvetica,sans-Serif" font-size="11.00">[table]</text>
<polygon fill="none" stroke="black" points="8.5,-122 8.5,-140 103.5,-140 103.5,-122 8.5,-122"/>
<text text-anchor="start" x="11.5" y="-128.2" font-family="Helvetica,sans-Serif" font-size="11.00">...</text>
<polygon fill="#ffffff" stroke="transparent" points="8.5,-104 8.5,-122 36.5,-122 36.5,-104 8.5,-104"/>
<polygon fill="none" stroke="black" points="8.5,-104 8.5,-122 36.5,-122 36.5,-104 8.5,-104"/>
<text text-anchor="start" x="11.5" y="-110.2" font-family="Helvetica,sans-Serif" font-size="11.00">&lt; 15</text>
<polygon fill="#ffffff" stroke="transparent" points="36.5,-104 36.5,-122 75.5,-122 75.5,-104 36.5,-104"/>
<polygon fill="none" stroke="black" points="36.5,-104 36.5,-122 75.5,-122 75.5,-104 36.5,-104"/>
<text text-anchor="start" x="39.5" y="-110.2" font-family="Helvetica,sans-Serif" font-size="11.00">0 rows</text>
<polygon fill="#ffffff" stroke="transparent" points="75.5,-104 75.5,-122 103.5,-122 103.5,-104 75.5,-104"/>
<polygon fill="none" stroke="black" points="75.5,-104 75.5,-122 103.5,-122 103.5,-104 75.5,-104"/>
<text text-anchor="start" x="78.5" y="-110.2" font-family="Helvetica,sans-Serif" font-size="11.00">24 &gt;</text>
</a>
</g>
</g>
<!-- m_loan_repayment_schedule&#45;&gt;m_loan -->
<g id="edge4" class="edge">
<title>m_loan_repayment_schedule:w&#45;&gt;m_loan:e</title>
<path fill="none" stroke="black" d="M137.46,-177.82C124.28,-164.67 129.45,-131 104.5,-131"/>
<polygon fill="black" stroke="black" points="143.53,-180.14 149.71,-186.36 147.26,-181.57 151,-183 151,-183 151,-183 147.26,-181.57 152.29,-179.64 143.53,-180.14 143.53,-180.14"/>
<ellipse fill="none" stroke="black" cx="140.54" cy="-179" rx="3.2" ry="3.2"/>
</g>
<!-- m_loan_interest_recalculation_additional_details -->
<g id="node3" class="node">
<title>m_loan_interest_recalculation_additional_details</title>
<g id="a_node3"><a xlink:href="../../tables/m_loan_interest_recalculation_additional_details.html" xlink:title="m_loan_interest_recalculation_additional_details" target="_top">
<polygon fill="#ffffff" stroke="transparent" points="467,-274 467,-406 889,-406 889,-274 467,-274"/>
<polygon fill="#f5f5f5" stroke="transparent" points="469,-382 469,-404 887,-404 887,-382 469,-382"/>
<polygon fill="none" stroke="black" points="469,-382 469,-404 887,-404 887,-382 469,-382"/>
<text text-anchor="start" x="474" y="-391.2" font-family="Helvetica,sans-Serif" font-weight="bold" font-size="11.00">m_loan_interest_recalculation_additional_details</text>
<text text-anchor="start" x="852" y="-390.2" font-family="Helvetica,sans-Serif" font-size="11.00">[table]</text>
<polygon fill="none" stroke="black" points="469,-360 469,-382 817,-382 817,-360 469,-360"/>
<image xlink:href="../../images/primaryKeys.png" width="11px" height="12px" preserveAspectRatio="xMinYMin meet" x="474" y="-377"/>
<text text-anchor="start" x="489" y="-368.2" font-family="Helvetica,sans-Serif" font-size="11.00">id</text>
<polygon fill="none" stroke="black" points="817,-360 817,-382 887,-382 887,-360 817,-360"/>
<text text-anchor="start" x="820" y="-368.2" font-family="Helvetica,sans-Serif" font-size="11.00">bigint[19]</text>
<polygon fill="#ffffff" stroke="transparent" points="469,-338 469,-360 817,-360 817,-338 469,-338"/>
<polygon fill="none" stroke="black" points="469,-338 469,-360 817,-360 817,-338 469,-338"/>
<image xlink:href="../../images/foreignKeys.png" width="11px" height="12px" preserveAspectRatio="xMinYMin meet" x="474" y="-355"/>
<text text-anchor="start" x="489" y="-346.2" font-family="Helvetica,sans-Serif" font-size="11.00">loan_repayment_schedule_id</text>
<polygon fill="none" stroke="black" points="817,-338 817,-360 887,-360 887,-338 817,-338"/>
<text text-anchor="start" x="820" y="-346.2" font-family="Helvetica,sans-Serif" font-size="11.00">bigint[19]</text>
<polygon fill="none" stroke="black" points="469,-316 469,-338 817,-338 817,-316 469,-316"/>
<text text-anchor="start" x="489" y="-324.2" font-family="Helvetica,sans-Serif" font-size="11.00">effective_date</text>
<polygon fill="none" stroke="black" points="817,-316 817,-338 887,-338 887,-316 817,-316"/>
<text text-anchor="start" x="820" y="-324.2" font-family="Helvetica,sans-Serif" font-size="11.00">date[10]</text>
<polygon fill="none" stroke="black" points="469,-294 469,-316 817,-316 817,-294 469,-294"/>
<text text-anchor="start" x="489" y="-302.2" font-family="Helvetica,sans-Serif" font-size="11.00">amount</text>
<polygon fill="none" stroke="black" points="817,-294 817,-316 887,-316 887,-294 817,-294"/>
<text text-anchor="start" x="820" y="-302.2" font-family="Helvetica,sans-Serif" font-size="11.00">decimal[19,6]</text>
<polygon fill="#ffffff" stroke="transparent" points="469,-276 469,-294 634,-294 634,-276 469,-276"/>
<polygon fill="none" stroke="black" points="469,-276 469,-294 634,-294 634,-276 469,-276"/>
<text text-anchor="start" x="472" y="-282.2" font-family="Helvetica,sans-Serif" font-size="11.00">&lt; 1</text>
<polygon fill="#ffffff" stroke="transparent" points="634,-276 634,-294 817,-294 817,-276 634,-276"/>
<polygon fill="none" stroke="black" points="634,-276 634,-294 817,-294 817,-276 634,-276"/>
<text text-anchor="start" x="781" y="-282.2" font-family="Helvetica,sans-Serif" font-size="11.00">0 rows</text>
<polygon fill="#ffffff" stroke="transparent" points="817,-276 817,-294 887,-294 887,-276 817,-276"/>
<polygon fill="none" stroke="black" points="817,-276 817,-294 887,-294 887,-276 817,-276"/>
<text text-anchor="start" x="868" y="-282.2" font-family="Helvetica,sans-Serif" font-size="11.00">0 &gt;</text>
<polygon fill="none" stroke="black" stroke-width="2" points="468,-275 468,-405 888,-405 888,-275 468,-275"/>
</a>
</g>
</g>
<!-- m_loan_interest_recalculation_additional_details&#45;&gt;m_loan_repayment_schedule -->
<g id="edge2" class="edge">
<title>m_loan_interest_recalculation_additional_details:w&#45;&gt;m_loan_repayment_schedule:e</title>
<path fill="none" stroke="black" d="M453.78,-345.99C414.08,-325.31 480.79,-205 419,-205"/>
<polygon fill="black" stroke="black" points="460.17,-347.34 467.25,-352.52 464.09,-348.17 468,-349 468,-349 468,-349 464.09,-348.17 468.75,-345.48 460.17,-347.34 460.17,-347.34"/>
<ellipse fill="none" stroke="black" cx="457.04" cy="-346.68" rx="3.2" ry="3.2"/>
</g>
<!-- m_loan_overdue_installment_charge -->
<g id="node4" class="node">
<title>m_loan_overdue_installment_charge</title>
<g id="a_node4"><a xlink:href="../../tables/m_loan_overdue_installment_charge.html" xlink:title="m_loan_overdue_installment_charge" target="_top">
<polygon fill="#ffffff" stroke="transparent" points="559.5,-195 559.5,-253 796.5,-253 796.5,-195 559.5,-195"/>
<polygon fill="#f5f5f5" stroke="transparent" points="560,-231 560,-253 797,-253 797,-231 560,-231"/>
<polygon fill="none" stroke="black" points="560,-231 560,-253 797,-253 797,-231 560,-231"/>
<text text-anchor="start" x="565" y="-240.2" font-family="Helvetica,sans-Serif" font-weight="bold" font-size="11.00">m_loan_overdue_installment_charge</text>
<text text-anchor="start" x="762" y="-239.2" font-family="Helvetica,sans-Serif" font-size="11.00">[table]</text>
<polygon fill="none" stroke="black" points="560,-213 560,-231 797,-231 797,-213 560,-213"/>
<text text-anchor="start" x="563" y="-219.2" font-family="Helvetica,sans-Serif" font-size="11.00">...</text>
<polygon fill="#ffffff" stroke="transparent" points="560,-195 560,-213 663,-213 663,-195 560,-195"/>
<polygon fill="none" stroke="black" points="560,-195 560,-213 663,-213 663,-195 560,-195"/>
<text text-anchor="start" x="563" y="-201.2" font-family="Helvetica,sans-Serif" font-size="11.00">&lt; 2</text>
<polygon fill="#ffffff" stroke="transparent" points="663,-195 663,-213 743,-213 743,-195 663,-195"/>
<polygon fill="none" stroke="black" points="663,-195 663,-213 743,-213 743,-195 663,-195"/>
<text text-anchor="start" x="707" y="-201.2" font-family="Helvetica,sans-Serif" font-size="11.00">0 rows</text>
<polygon fill="#ffffff" stroke="transparent" points="743,-195 743,-213 797,-213 797,-195 743,-195"/>
<polygon fill="none" stroke="black" points="743,-195 743,-213 797,-213 797,-195 743,-195"/>
<text text-anchor="start" x="787" y="-201.2" font-family="Helvetica,sans-Serif" font-size="11.00"> &#160;</text>
</a>
</g>
</g>
<!-- m_loan_overdue_installment_charge&#45;&gt;m_loan_repayment_schedule -->
<g id="edge3" class="edge">
<title>m_loan_overdue_installment_charge:w&#45;&gt;m_loan_repayment_schedule:e</title>
<path fill="none" stroke="black" d="M544.49,-221.68C493.6,-219.33 476.54,-205 419,-205"/>
<polygon fill="black" stroke="black" points="551,-221.82 558.92,-225.6 555,-221.91 559,-222 559,-222 559,-222 555,-221.91 559.08,-218.4 551,-221.82 551,-221.82"/>
<ellipse fill="none" stroke="black" cx="547.8" cy="-221.75" rx="3.2" ry="3.2"/>
</g>
<!-- m_loan_transaction_repayment_schedule_mapping -->
<g id="node6" class="node">
<title>m_loan_transaction_repayment_schedule_mapping</title>
<g id="a_node6"><a xlink:href="../../tables/m_loan_transaction_repayment_schedule_mapping.html" xlink:title="m_loan_transaction_repayment_schedule_mapping" target="_top">
<polygon fill="#ffffff" stroke="transparent" points="520.5,-116 520.5,-174 835.5,-174 835.5,-116 520.5,-116"/>
<polygon fill="#f5f5f5" stroke="transparent" points="521,-152 521,-174 836,-174 836,-152 521,-152"/>
<polygon fill="none" stroke="black" points="521,-152 521,-174 836,-174 836,-152 521,-152"/>
<text text-anchor="start" x="526" y="-161.2" font-family="Helvetica,sans-Serif" font-weight="bold" font-size="11.00">m_loan_transaction_repayment_schedule_mapping</text>
<text text-anchor="start" x="801" y="-160.2" font-family="Helvetica,sans-Serif" font-size="11.00">[table]</text>
<polygon fill="none" stroke="black" points="521,-134 521,-152 836,-152 836,-134 521,-134"/>
<text text-anchor="start" x="524" y="-140.2" font-family="Helvetica,sans-Serif" font-size="11.00">...</text>
<polygon fill="#ffffff" stroke="transparent" points="521,-116 521,-134 663,-134 663,-116 521,-116"/>
<polygon fill="none" stroke="black" points="521,-116 521,-134 663,-134 663,-116 521,-116"/>
<text text-anchor="start" x="524" y="-122.2" font-family="Helvetica,sans-Serif" font-size="11.00">&lt; 2</text>
<polygon fill="#ffffff" stroke="transparent" points="663,-116 663,-134 762,-134 762,-116 663,-116"/>
<polygon fill="none" stroke="black" points="663,-116 663,-134 762,-134 762,-116 663,-116"/>
<text text-anchor="start" x="726" y="-122.2" font-family="Helvetica,sans-Serif" font-size="11.00">0 rows</text>
<polygon fill="#ffffff" stroke="transparent" points="762,-116 762,-134 836,-134 836,-116 762,-116"/>
<polygon fill="none" stroke="black" points="762,-116 762,-134 836,-134 836,-116 762,-116"/>
<text text-anchor="start" x="826" y="-122.2" font-family="Helvetica,sans-Serif" font-size="11.00"> &#160;</text>
</a>
</g>
</g>
<!-- m_loan_transaction_repayment_schedule_mapping&#45;&gt;m_loan_repayment_schedule -->
<g id="edge5" class="edge">
<title>m_loan_transaction_repayment_schedule_mapping:w&#45;&gt;m_loan_repayment_schedule:e</title>
<path fill="none" stroke="black" d="M505.83,-147.26C478.75,-161.27 441.12,-205 419,-205"/>
<polygon fill="black" stroke="black" points="512.34,-145.3 521.04,-146.45 516.17,-144.15 520,-143 520,-143 520,-143 516.17,-144.15 518.96,-139.55 512.34,-145.3 512.34,-145.3"/>
<ellipse fill="none" stroke="black" cx="509.27" cy="-146.23" rx="3.2" ry="3.2"/>
</g>
<!-- m_repayment_with_post_dated_checks -->
<g id="node7" class="node">
<title>m_repayment_with_post_dated_checks</title>
<g id="a_node7"><a xlink:href="../../tables/m_repayment_with_post_dated_checks.html" xlink:title="m_repayment_with_post_dated_checks" target="_top">
<polygon fill="#ffffff" stroke="transparent" points="552.5,-37 552.5,-95 803.5,-95 803.5,-37 552.5,-37"/>
<polygon fill="#f5f5f5" stroke="transparent" points="553,-73 553,-95 804,-95 804,-73 553,-73"/>
<polygon fill="none" stroke="black" points="553,-73 553,-95 804,-95 804,-73 553,-73"/>
<text text-anchor="start" x="558" y="-82.2" font-family="Helvetica,sans-Serif" font-weight="bold" font-size="11.00">m_repayment_with_post_dated_checks</text>
<text text-anchor="start" x="769" y="-81.2" font-family="Helvetica,sans-Serif" font-size="11.00">[table]</text>
<polygon fill="none" stroke="black" points="553,-55 553,-73 804,-73 804,-55 553,-55"/>
<text text-anchor="start" x="556" y="-61.2" font-family="Helvetica,sans-Serif" font-size="11.00">...</text>
<polygon fill="#ffffff" stroke="transparent" points="553,-37 553,-55 663,-55 663,-37 553,-37"/>
<polygon fill="none" stroke="black" points="553,-37 553,-55 663,-55 663,-37 553,-37"/>
<text text-anchor="start" x="556" y="-43.2" font-family="Helvetica,sans-Serif" font-size="11.00">&lt; 2</text>
<polygon fill="#ffffff" stroke="transparent" points="663,-37 663,-55 746,-55 746,-37 663,-37"/>
<polygon fill="none" stroke="black" points="663,-37 663,-55 746,-55 746,-37 663,-37"/>
<text text-anchor="start" x="710" y="-43.2" font-family="Helvetica,sans-Serif" font-size="11.00">0 rows</text>
<polygon fill="#ffffff" stroke="transparent" points="746,-37 746,-55 804,-55 804,-37 746,-37"/>
<polygon fill="none" stroke="black" points="746,-37 746,-55 804,-55 804,-37 746,-37"/>
<text text-anchor="start" x="794" y="-43.2" font-family="Helvetica,sans-Serif" font-size="11.00"> &#160;</text>
</a>
</g>
</g>
<!-- m_repayment_with_post_dated_checks&#45;&gt;m_loan_repayment_schedule -->
<g id="edge7" class="edge">
<title>m_repayment_with_post_dated_checks:w&#45;&gt;m_loan_repayment_schedule:e</title>
<path fill="none" stroke="black" d="M537.18,-64.41C502.63,-66.5 486.74,-77.13 459,-106 426.13,-140.22 466.46,-205 419,-205"/>
<polygon fill="black" stroke="black" points="544,-64.22 552.1,-67.6 548,-64.11 552,-64 552,-64 552,-64 548,-64.11 551.9,-60.4 544,-64.22 544,-64.22"/>
<ellipse fill="none" stroke="black" cx="540.8" cy="-64.31" rx="3.2" ry="3.2"/>
</g>
<!-- m_repayment_with_post_dated_checks&#45;&gt;m_loan -->
<g id="edge6" class="edge">
<title>m_repayment_with_post_dated_checks:w&#45;&gt;m_loan:e</title>
<path fill="none" stroke="black" d="M537.36,-65.79C460.85,-76.45 115.84,-131 104.5,-131"/>
<polygon fill="black" stroke="black" points="544.06,-64.97 552.44,-67.57 548.03,-64.49 552,-64 552,-64 552,-64 548.03,-64.49 551.56,-60.43 544.06,-64.97 544.06,-64.97"/>
<ellipse fill="none" stroke="black" cx="540.88" cy="-65.36" rx="3.2" ry="3.2"/>
</g>
</g>
</svg>
