<?xml version="1.0" encoding="UTF-8" standalone="no"?>
<!DOCTYPE svg PUBLIC "-//W3C//DTD SVG 1.1//EN"
 "http://www.w3.org/Graphics/SVG/1.1/DTD/svg11.dtd">
<!-- Generated by graphviz version 2.43.0 (0)
 -->
<!-- Title: oneDegreeRelationshipsDiagram Pages: 1 -->
<svg width="761pt" height="181pt"
 viewBox="0.00 0.00 761.00 181.00" xmlns="http://www.w3.org/2000/svg" xmlns:xlink="http://www.w3.org/1999/xlink">
<g id="graph0" class="graph" transform="scale(1 1) rotate(0) translate(4 177)">
<title>oneDegreeRelationshipsDiagram</title>
<polygon fill="#ffffff" stroke="transparent" points="-4,4 -4,-177 757,-177 757,4 -4,4"/>
<text text-anchor="middle" x="71.5" y="-7.2" font-family="Helvetica,sans-Serif" font-size="11.00">Generated by SchemaSpy</text>
<!-- m_loan_interest_recalculation_additional_details -->
<g id="node1" class="node">
<title>m_loan_interest_recalculation_additional_details</title>
<g id="a_node1"><a xlink:href="../../tables/m_loan_interest_recalculation_additional_details.html" xlink:title="m_loan_interest_recalculation_additional_details" target="_top">
<polygon fill="#ffffff" stroke="transparent" points="323,-37 323,-169 745,-169 745,-37 323,-37"/>
<polygon fill="#f5f5f5" stroke="transparent" points="325,-145 325,-167 743,-167 743,-145 325,-145"/>
<polygon fill="none" stroke="black" points="325,-145 325,-167 743,-167 743,-145 325,-145"/>
<text text-anchor="start" x="330" y="-154.2" font-family="Helvetica,sans-Serif" font-weight="bold" font-size="11.00">m_loan_interest_recalculation_additional_details</text>
<text text-anchor="start" x="708" y="-153.2" font-family="Helvetica,sans-Serif" font-size="11.00">[table]</text>
<polygon fill="none" stroke="black" points="325,-123 325,-145 673,-145 673,-123 325,-123"/>
<image xlink:href="../../images/primaryKeys.png" width="11px" height="12px" preserveAspectRatio="xMinYMin meet" x="330" y="-140"/>
<text text-anchor="start" x="345" y="-131.2" font-family="Helvetica,sans-Serif" font-size="11.00">id</text>
<polygon fill="none" stroke="black" points="673,-123 673,-145 743,-145 743,-123 673,-123"/>
<text text-anchor="start" x="676" y="-131.2" font-family="Helvetica,sans-Serif" font-size="11.00">bigint[19]</text>
<polygon fill="#ffffff" stroke="transparent" points="325,-101 325,-123 673,-123 673,-101 325,-101"/>
<polygon fill="none" stroke="black" points="325,-101 325,-123 673,-123 673,-101 325,-101"/>
<image xlink:href="../../images/foreignKeys.png" width="11px" height="12px" preserveAspectRatio="xMinYMin meet" x="330" y="-118"/>
<text text-anchor="start" x="345" y="-109.2" font-family="Helvetica,sans-Serif" font-size="11.00">loan_repayment_schedule_id</text>
<polygon fill="none" stroke="black" points="673,-101 673,-123 743,-123 743,-101 673,-101"/>
<text text-anchor="start" x="676" y="-109.2" font-family="Helvetica,sans-Serif" font-size="11.00">bigint[19]</text>
<polygon fill="none" stroke="black" points="325,-79 325,-101 673,-101 673,-79 325,-79"/>
<text text-anchor="start" x="345" y="-87.2" font-family="Helvetica,sans-Serif" font-size="11.00">effective_date</text>
<polygon fill="none" stroke="black" points="673,-79 673,-101 743,-101 743,-79 673,-79"/>
<text text-anchor="start" x="676" y="-87.2" font-family="Helvetica,sans-Serif" font-size="11.00">date[10]</text>
<polygon fill="none" stroke="black" points="325,-57 325,-79 673,-79 673,-57 325,-57"/>
<text text-anchor="start" x="345" y="-65.2" font-family="Helvetica,sans-Serif" font-size="11.00">amount</text>
<polygon fill="none" stroke="black" points="673,-57 673,-79 743,-79 743,-57 673,-57"/>
<text text-anchor="start" x="676" y="-65.2" font-family="Helvetica,sans-Serif" font-size="11.00">decimal[19,6]</text>
<polygon fill="#ffffff" stroke="transparent" points="325,-39 325,-57 490,-57 490,-39 325,-39"/>
<polygon fill="none" stroke="black" points="325,-39 325,-57 490,-57 490,-39 325,-39"/>
<text text-anchor="start" x="328" y="-45.2" font-family="Helvetica,sans-Serif" font-size="11.00">&lt; 1</text>
<polygon fill="#ffffff" stroke="transparent" points="490,-39 490,-57 673,-57 673,-39 490,-39"/>
<polygon fill="none" stroke="black" points="490,-39 490,-57 673,-57 673,-39 490,-39"/>
<text text-anchor="start" x="637" y="-45.2" font-family="Helvetica,sans-Serif" font-size="11.00">0 rows</text>
<polygon fill="#ffffff" stroke="transparent" points="673,-39 673,-57 743,-57 743,-39 673,-39"/>
<polygon fill="none" stroke="black" points="673,-39 673,-57 743,-57 743,-39 673,-39"/>
<text text-anchor="start" x="724" y="-45.2" font-family="Helvetica,sans-Serif" font-size="11.00">0 &gt;</text>
<polygon fill="none" stroke="black" stroke-width="2" points="324,-38 324,-168 744,-168 744,-38 324,-38"/>
</a>
</g>
</g>
<!-- m_loan_repayment_schedule -->
<g id="node2" class="node">
<title>m_loan_repayment_schedule</title>
<g id="a_node2"><a xlink:href="../../tables/m_loan_repayment_schedule.html" xlink:title="m_loan_repayment_schedule" target="_top">
<polygon fill="#ffffff" stroke="transparent" points="8,-43 8,-145 274,-145 274,-43 8,-43"/>
<polygon fill="#f5f5f5" stroke="transparent" points="8,-123 8,-145 274,-145 274,-123 8,-123"/>
<polygon fill="none" stroke="black" points="8,-123 8,-145 274,-145 274,-123 8,-123"/>
<text text-anchor="start" x="13" y="-132.2" font-family="Helvetica,sans-Serif" font-weight="bold" font-size="11.00">m_loan_repayment_schedule</text>
<text text-anchor="start" x="239" y="-131.2" font-family="Helvetica,sans-Serif" font-size="11.00">[table]</text>
<polygon fill="none" stroke="black" points="8,-101 8,-123 274,-123 274,-101 8,-101"/>
<image xlink:href="../../images/primaryKeys.png" width="11px" height="12px" preserveAspectRatio="xMinYMin meet" x="13" y="-118"/>
<text text-anchor="start" x="28" y="-109.2" font-family="Helvetica,sans-Serif" font-size="11.00">id</text>
<polygon fill="#ffffff" stroke="transparent" points="8,-79 8,-101 274,-101 274,-79 8,-79"/>
<polygon fill="none" stroke="black" points="8,-79 8,-101 274,-101 274,-79 8,-79"/>
<image xlink:href="../../images/foreignKeys.png" width="11px" height="12px" preserveAspectRatio="xMinYMin meet" x="13" y="-96"/>
<text text-anchor="start" x="28" y="-87.2" font-family="Helvetica,sans-Serif" font-size="11.00">loan_id</text>
<polygon fill="none" stroke="black" points="8,-61 8,-79 274,-79 274,-61 8,-61"/>
<text text-anchor="start" x="11" y="-67.2" font-family="Helvetica,sans-Serif" font-size="11.00">...</text>
<polygon fill="#ffffff" stroke="transparent" points="8,-43 8,-61 121,-61 121,-43 8,-43"/>
<polygon fill="none" stroke="black" points="8,-43 8,-61 121,-61 121,-43 8,-43"/>
<text text-anchor="start" x="11" y="-49.2" font-family="Helvetica,sans-Serif" font-size="11.00">&lt; 1</text>
<polygon fill="#ffffff" stroke="transparent" points="121,-43 121,-61 206,-61 206,-43 121,-43"/>
<polygon fill="none" stroke="black" points="121,-43 121,-61 206,-61 206,-43 121,-43"/>
<text text-anchor="start" x="170" y="-49.2" font-family="Helvetica,sans-Serif" font-size="11.00">0 rows</text>
<polygon fill="#ffffff" stroke="transparent" points="206,-43 206,-61 274,-61 274,-43 206,-43"/>
<polygon fill="none" stroke="black" points="206,-43 206,-61 274,-61 274,-43 206,-43"/>
<text text-anchor="start" x="255" y="-49.2" font-family="Helvetica,sans-Serif" font-size="11.00">5 &gt;</text>
</a>
</g>
</g>
<!-- m_loan_interest_recalculation_additional_details&#45;&gt;m_loan_repayment_schedule -->
<g id="edge1" class="edge">
<title>m_loan_interest_recalculation_additional_details:w&#45;&gt;m_loan_repayment_schedule:e</title>
<path fill="none" stroke="black" d="M309.49,-112C298.18,-112 290.99,-112 275,-112"/>
<polygon fill="black" stroke="black" points="316,-112 324,-115.6 320,-112 324,-112 324,-112 324,-112 320,-112 324,-108.4 316,-112 316,-112"/>
<ellipse fill="none" stroke="black" cx="312.8" cy="-112" rx="3.2" ry="3.2"/>
</g>
</g>
</svg>
