<?xml version="1.0" encoding="UTF-8" standalone="no"?>
<!DOCTYPE svg PUBLIC "-//W3C//DTD SVG 1.1//EN"
 "http://www.w3.org/Graphics/SVG/1.1/DTD/svg11.dtd">
<!-- Generated by graphviz version 2.43.0 (0)
 -->
<!-- Title: oneDegreeRelationshipsDiagram Pages: 1 -->
<svg width="1385pt" height="652pt"
 viewBox="0.00 0.00 1385.00 651.92" xmlns="http://www.w3.org/2000/svg" xmlns:xlink="http://www.w3.org/1999/xlink">
<g id="graph0" class="graph" transform="scale(1 1) rotate(0) translate(4 647.92)">
<title>oneDegreeRelationshipsDiagram</title>
<polygon fill="#ffffff" stroke="transparent" points="-4,4 -4,-647.92 1381,-647.92 1381,4 -4,4"/>
<text text-anchor="middle" x="71.5" y="-7.2" font-family="Helvetica,sans-Serif" font-size="11.00">Generated by SchemaSpy</text>
<!-- m_loan -->
<g id="node1" class="node">
<title>m_loan</title>
<g id="a_node1"><a xlink:href="../../tables/m_loan.html" xlink:title="m_loan" target="_top">
<polygon fill="#ffffff" stroke="transparent" points="272,-143.15 272,-597.15 600,-597.15 600,-143.15 272,-143.15"/>
<polygon fill="#f5f5f5" stroke="transparent" points="272,-575.15 272,-597.15 600,-597.15 600,-575.15 272,-575.15"/>
<polygon fill="none" stroke="black" points="272,-575.15 272,-597.15 600,-597.15 600,-575.15 272,-575.15"/>
<text text-anchor="start" x="277" y="-584.35" font-family="Helvetica,sans-Serif" font-weight="bold" font-size="11.00">m_loan</text>
<text text-anchor="start" x="565" y="-583.35" font-family="Helvetica,sans-Serif" font-size="11.00">[table]</text>
<polygon fill="none" stroke="black" points="272,-553.15 272,-575.15 600,-575.15 600,-553.15 272,-553.15"/>
<image xlink:href="../../images/primaryKeys.png" width="11px" height="12px" preserveAspectRatio="xMinYMin meet" x="277" y="-570.15"/>
<text text-anchor="start" x="292" y="-561.35" font-family="Helvetica,sans-Serif" font-size="11.00">id</text>
<polygon fill="#ffffff" stroke="transparent" points="272,-531.15 272,-553.15 600,-553.15 600,-531.15 272,-531.15"/>
<polygon fill="none" stroke="black" points="272,-531.15 272,-553.15 600,-553.15 600,-531.15 272,-531.15"/>
<text text-anchor="start" x="292" y="-539.35" font-family="Helvetica,sans-Serif" font-size="11.00">account_no</text>
<polygon fill="#ffffff" stroke="transparent" points="272,-509.15 272,-531.15 600,-531.15 600,-509.15 272,-509.15"/>
<polygon fill="none" stroke="black" points="272,-509.15 272,-531.15 600,-531.15 600,-509.15 272,-509.15"/>
<text text-anchor="start" x="292" y="-517.35" font-family="Helvetica,sans-Serif" font-size="11.00">external_id</text>
<polygon fill="#ffffff" stroke="transparent" points="272,-487.15 272,-509.15 600,-509.15 600,-487.15 272,-487.15"/>
<polygon fill="none" stroke="black" points="272,-487.15 272,-509.15 600,-509.15 600,-487.15 272,-487.15"/>
<image xlink:href="../../images/foreignKeys.png" width="11px" height="12px" preserveAspectRatio="xMinYMin meet" x="277" y="-504.15"/>
<text text-anchor="start" x="292" y="-495.35" font-family="Helvetica,sans-Serif" font-size="11.00">client_id</text>
<polygon fill="#ffffff" stroke="transparent" points="272,-465.15 272,-487.15 600,-487.15 600,-465.15 272,-465.15"/>
<polygon fill="none" stroke="black" points="272,-465.15 272,-487.15 600,-487.15 600,-465.15 272,-465.15"/>
<image xlink:href="../../images/foreignKeys.png" width="11px" height="12px" preserveAspectRatio="xMinYMin meet" x="277" y="-482.15"/>
<text text-anchor="start" x="292" y="-473.35" font-family="Helvetica,sans-Serif" font-size="11.00">group_id</text>
<polygon fill="#ffffff" stroke="transparent" points="272,-443.15 272,-465.15 600,-465.15 600,-443.15 272,-443.15"/>
<polygon fill="none" stroke="black" points="272,-443.15 272,-465.15 600,-465.15 600,-443.15 272,-443.15"/>
<image xlink:href="../../images/foreignKeys.png" width="11px" height="12px" preserveAspectRatio="xMinYMin meet" x="277" y="-460.15"/>
<text text-anchor="start" x="292" y="-451.35" font-family="Helvetica,sans-Serif" font-size="11.00">glim_id</text>
<polygon fill="#ffffff" stroke="transparent" points="272,-421.15 272,-443.15 600,-443.15 600,-421.15 272,-421.15"/>
<polygon fill="none" stroke="black" points="272,-421.15 272,-443.15 600,-443.15 600,-421.15 272,-421.15"/>
<image xlink:href="../../images/foreignKeys.png" width="11px" height="12px" preserveAspectRatio="xMinYMin meet" x="277" y="-438.15"/>
<text text-anchor="start" x="292" y="-429.35" font-family="Helvetica,sans-Serif" font-size="11.00">product_id</text>
<polygon fill="#ffffff" stroke="transparent" points="272,-399.15 272,-421.15 600,-421.15 600,-399.15 272,-399.15"/>
<polygon fill="none" stroke="black" points="272,-399.15 272,-421.15 600,-421.15 600,-399.15 272,-399.15"/>
<image xlink:href="../../images/foreignKeys.png" width="11px" height="12px" preserveAspectRatio="xMinYMin meet" x="277" y="-416.15"/>
<text text-anchor="start" x="292" y="-407.35" font-family="Helvetica,sans-Serif" font-size="11.00">fund_id</text>
<polygon fill="#ffffff" stroke="transparent" points="272,-377.15 272,-399.15 600,-399.15 600,-377.15 272,-377.15"/>
<polygon fill="none" stroke="black" points="272,-377.15 272,-399.15 600,-399.15 600,-377.15 272,-377.15"/>
<image xlink:href="../../images/foreignKeys.png" width="11px" height="12px" preserveAspectRatio="xMinYMin meet" x="277" y="-394.15"/>
<text text-anchor="start" x="292" y="-385.35" font-family="Helvetica,sans-Serif" font-size="11.00">loan_officer_id</text>
<polygon fill="#ffffff" stroke="transparent" points="272,-355.15 272,-377.15 600,-377.15 600,-355.15 272,-355.15"/>
<polygon fill="none" stroke="black" points="272,-355.15 272,-377.15 600,-377.15 600,-355.15 272,-355.15"/>
<image xlink:href="../../images/foreignKeys.png" width="11px" height="12px" preserveAspectRatio="xMinYMin meet" x="277" y="-372.15"/>
<text text-anchor="start" x="292" y="-363.35" font-family="Helvetica,sans-Serif" font-size="11.00">loanpurpose_cv_id</text>
<polygon fill="#ffffff" stroke="transparent" points="272,-333.15 272,-355.15 600,-355.15 600,-333.15 272,-333.15"/>
<polygon fill="none" stroke="black" points="272,-333.15 272,-355.15 600,-355.15 600,-333.15 272,-333.15"/>
<image xlink:href="../../images/foreignKeys.png" width="11px" height="12px" preserveAspectRatio="xMinYMin meet" x="277" y="-350.15"/>
<text text-anchor="start" x="292" y="-341.35" font-family="Helvetica,sans-Serif" font-size="11.00">submittedon_userid</text>
<polygon fill="#ffffff" stroke="transparent" points="272,-311.15 272,-333.15 600,-333.15 600,-311.15 272,-311.15"/>
<polygon fill="none" stroke="black" points="272,-311.15 272,-333.15 600,-333.15 600,-311.15 272,-311.15"/>
<image xlink:href="../../images/foreignKeys.png" width="11px" height="12px" preserveAspectRatio="xMinYMin meet" x="277" y="-328.15"/>
<text text-anchor="start" x="292" y="-319.35" font-family="Helvetica,sans-Serif" font-size="11.00">approvedon_userid</text>
<polygon fill="#ffffff" stroke="transparent" points="272,-289.15 272,-311.15 600,-311.15 600,-289.15 272,-289.15"/>
<polygon fill="none" stroke="black" points="272,-289.15 272,-311.15 600,-311.15 600,-289.15 272,-289.15"/>
<image xlink:href="../../images/foreignKeys.png" width="11px" height="12px" preserveAspectRatio="xMinYMin meet" x="277" y="-306.15"/>
<text text-anchor="start" x="292" y="-297.35" font-family="Helvetica,sans-Serif" font-size="11.00">disbursedon_userid</text>
<polygon fill="#ffffff" stroke="transparent" points="272,-267.15 272,-289.15 600,-289.15 600,-267.15 272,-267.15"/>
<polygon fill="none" stroke="black" points="272,-267.15 272,-289.15 600,-289.15 600,-267.15 272,-267.15"/>
<image xlink:href="../../images/foreignKeys.png" width="11px" height="12px" preserveAspectRatio="xMinYMin meet" x="277" y="-284.15"/>
<text text-anchor="start" x="292" y="-275.35" font-family="Helvetica,sans-Serif" font-size="11.00">closedon_userid</text>
<polygon fill="#ffffff" stroke="transparent" points="272,-245.15 272,-267.15 600,-267.15 600,-245.15 272,-245.15"/>
<polygon fill="none" stroke="black" points="272,-245.15 272,-267.15 600,-267.15 600,-245.15 272,-245.15"/>
<image xlink:href="../../images/foreignKeys.png" width="11px" height="12px" preserveAspectRatio="xMinYMin meet" x="277" y="-262.15"/>
<text text-anchor="start" x="292" y="-253.35" font-family="Helvetica,sans-Serif" font-size="11.00">rejectedon_userid</text>
<polygon fill="#ffffff" stroke="transparent" points="272,-223.15 272,-245.15 600,-245.15 600,-223.15 272,-223.15"/>
<polygon fill="none" stroke="black" points="272,-223.15 272,-245.15 600,-245.15 600,-223.15 272,-223.15"/>
<image xlink:href="../../images/foreignKeys.png" width="11px" height="12px" preserveAspectRatio="xMinYMin meet" x="277" y="-240.15"/>
<text text-anchor="start" x="292" y="-231.35" font-family="Helvetica,sans-Serif" font-size="11.00">withdrawnon_userid</text>
<polygon fill="#ffffff" stroke="transparent" points="272,-201.15 272,-223.15 600,-223.15 600,-201.15 272,-201.15"/>
<polygon fill="none" stroke="black" points="272,-201.15 272,-223.15 600,-223.15 600,-201.15 272,-201.15"/>
<image xlink:href="../../images/foreignKeys.png" width="11px" height="12px" preserveAspectRatio="xMinYMin meet" x="277" y="-218.15"/>
<text text-anchor="start" x="292" y="-209.35" font-family="Helvetica,sans-Serif" font-size="11.00">loan_transaction_strategy_id</text>
<polygon fill="#ffffff" stroke="transparent" points="272,-179.15 272,-201.15 600,-201.15 600,-179.15 272,-179.15"/>
<polygon fill="none" stroke="black" points="272,-179.15 272,-201.15 600,-201.15 600,-179.15 272,-179.15"/>
<image xlink:href="../../images/foreignKeys.png" width="11px" height="12px" preserveAspectRatio="xMinYMin meet" x="277" y="-196.15"/>
<text text-anchor="start" x="292" y="-187.35" font-family="Helvetica,sans-Serif" font-size="11.00">writeoff_reason_cv_id</text>
<polygon fill="none" stroke="black" points="272,-161.15 272,-179.15 600,-179.15 600,-161.15 272,-161.15"/>
<text text-anchor="start" x="275" y="-167.35" font-family="Helvetica,sans-Serif" font-size="11.00">...</text>
<polygon fill="#ffffff" stroke="transparent" points="272,-143.15 272,-161.15 416,-161.15 416,-143.15 272,-143.15"/>
<polygon fill="none" stroke="black" points="272,-143.15 272,-161.15 416,-161.15 416,-143.15 272,-143.15"/>
<text text-anchor="start" x="275" y="-149.35" font-family="Helvetica,sans-Serif" font-size="11.00">&lt; 15</text>
<polygon fill="#ffffff" stroke="transparent" points="416,-143.15 416,-161.15 513,-161.15 513,-143.15 416,-143.15"/>
<polygon fill="none" stroke="black" points="416,-143.15 416,-161.15 513,-161.15 513,-143.15 416,-143.15"/>
<text text-anchor="start" x="477" y="-149.35" font-family="Helvetica,sans-Serif" font-size="11.00">0 rows</text>
<polygon fill="#ffffff" stroke="transparent" points="513,-143.15 513,-161.15 600,-161.15 600,-143.15 513,-143.15"/>
<polygon fill="none" stroke="black" points="513,-143.15 513,-161.15 600,-161.15 600,-143.15 513,-143.15"/>
<text text-anchor="start" x="575" y="-149.35" font-family="Helvetica,sans-Serif" font-size="11.00">24 &gt;</text>
</a>
</g>
</g>
<!-- m_appuser -->
<g id="node2" class="node">
<title>m_appuser</title>
<g id="a_node2"><a xlink:href="../../tables/m_appuser.html" xlink:title="m_appuser" target="_top">
<polygon fill="#ffffff" stroke="transparent" points="8,-110.15 8,-278.15 223,-278.15 223,-110.15 8,-110.15"/>
<polygon fill="#f5f5f5" stroke="transparent" points="8.5,-256.15 8.5,-278.15 223.5,-278.15 223.5,-256.15 8.5,-256.15"/>
<polygon fill="none" stroke="black" points="8.5,-256.15 8.5,-278.15 223.5,-278.15 223.5,-256.15 8.5,-256.15"/>
<text text-anchor="start" x="13.5" y="-265.35" font-family="Helvetica,sans-Serif" font-weight="bold" font-size="11.00">m_appuser</text>
<text text-anchor="start" x="188.5" y="-264.35" font-family="Helvetica,sans-Serif" font-size="11.00">[table]</text>
<polygon fill="none" stroke="black" points="8.5,-234.15 8.5,-256.15 223.5,-256.15 223.5,-234.15 8.5,-234.15"/>
<image xlink:href="../../images/primaryKeys.png" width="11px" height="12px" preserveAspectRatio="xMinYMin meet" x="13.5" y="-251.15"/>
<text text-anchor="start" x="28.5" y="-242.35" font-family="Helvetica,sans-Serif" font-size="11.00">id</text>
<polygon fill="#ffffff" stroke="transparent" points="8.5,-212.15 8.5,-234.15 223.5,-234.15 223.5,-212.15 8.5,-212.15"/>
<polygon fill="none" stroke="black" points="8.5,-212.15 8.5,-234.15 223.5,-234.15 223.5,-212.15 8.5,-212.15"/>
<image xlink:href="../../images/foreignKeys.png" width="11px" height="12px" preserveAspectRatio="xMinYMin meet" x="13.5" y="-229.15"/>
<text text-anchor="start" x="28.5" y="-220.35" font-family="Helvetica,sans-Serif" font-size="11.00">office_id</text>
<polygon fill="#ffffff" stroke="transparent" points="8.5,-190.15 8.5,-212.15 223.5,-212.15 223.5,-190.15 8.5,-190.15"/>
<polygon fill="none" stroke="black" points="8.5,-190.15 8.5,-212.15 223.5,-212.15 223.5,-190.15 8.5,-190.15"/>
<image xlink:href="../../images/foreignKeys.png" width="11px" height="12px" preserveAspectRatio="xMinYMin meet" x="13.5" y="-207.15"/>
<text text-anchor="start" x="28.5" y="-198.35" font-family="Helvetica,sans-Serif" font-size="11.00">staff_id</text>
<polygon fill="#ffffff" stroke="transparent" points="8.5,-168.15 8.5,-190.15 223.5,-190.15 223.5,-168.15 8.5,-168.15"/>
<polygon fill="none" stroke="black" points="8.5,-168.15 8.5,-190.15 223.5,-190.15 223.5,-168.15 8.5,-168.15"/>
<text text-anchor="start" x="28.5" y="-176.35" font-family="Helvetica,sans-Serif" font-size="11.00">username</text>
<polygon fill="#ffffff" stroke="transparent" points="8.5,-146.15 8.5,-168.15 223.5,-168.15 223.5,-146.15 8.5,-146.15"/>
<polygon fill="none" stroke="black" points="8.5,-146.15 8.5,-168.15 223.5,-168.15 223.5,-146.15 8.5,-146.15"/>
<text text-anchor="start" x="28.5" y="-154.35" font-family="Helvetica,sans-Serif" font-size="11.00">last_time_password_updated</text>
<polygon fill="none" stroke="black" points="8.5,-128.15 8.5,-146.15 223.5,-146.15 223.5,-128.15 8.5,-128.15"/>
<text text-anchor="start" x="11.5" y="-134.35" font-family="Helvetica,sans-Serif" font-size="11.00">...</text>
<polygon fill="#ffffff" stroke="transparent" points="8.5,-110.15 8.5,-128.15 93.5,-128.15 93.5,-110.15 8.5,-110.15"/>
<polygon fill="none" stroke="black" points="8.5,-110.15 8.5,-128.15 93.5,-128.15 93.5,-110.15 8.5,-110.15"/>
<text text-anchor="start" x="11.5" y="-116.35" font-family="Helvetica,sans-Serif" font-size="11.00">&lt; 2</text>
<polygon fill="#ffffff" stroke="transparent" points="93.5,-110.15 93.5,-128.15 163.5,-128.15 163.5,-110.15 93.5,-110.15"/>
<polygon fill="none" stroke="black" points="93.5,-110.15 93.5,-128.15 163.5,-128.15 163.5,-110.15 93.5,-110.15"/>
<text text-anchor="start" x="127.5" y="-116.35" font-family="Helvetica,sans-Serif" font-size="11.00">0 rows</text>
<polygon fill="#ffffff" stroke="transparent" points="163.5,-110.15 163.5,-128.15 223.5,-128.15 223.5,-110.15 163.5,-110.15"/>
<polygon fill="none" stroke="black" points="163.5,-110.15 163.5,-128.15 223.5,-128.15 223.5,-110.15 163.5,-110.15"/>
<text text-anchor="start" x="198.5" y="-116.35" font-family="Helvetica,sans-Serif" font-size="11.00">57 &gt;</text>
</a>
</g>
</g>
<!-- m_loan&#45;&gt;m_appuser -->
<g id="edge1" class="edge">
<title>m_loan:w&#45;&gt;m_appuser:e</title>
<path fill="none" stroke="black" d="M257.32,-317.33C239.51,-300.48 258.39,-245.15 224.5,-245.15"/>
<polygon fill="black" stroke="black" points="263.45,-319.49 269.8,-325.55 267.23,-320.82 271,-322.15 271,-322.15 271,-322.15 267.23,-320.82 272.2,-318.75 263.45,-319.49 263.45,-319.49"/>
<ellipse fill="none" stroke="black" cx="260.44" cy="-318.43" rx="3.2" ry="3.2"/>
</g>
<!-- m_loan&#45;&gt;m_appuser -->
<g id="edge2" class="edge">
<title>m_loan:w&#45;&gt;m_appuser:e</title>
<path fill="none" stroke="black" d="M257.29,-273.56C246,-264.49 243.9,-245.15 224.5,-245.15"/>
<polygon fill="black" stroke="black" points="263.41,-275.61 269.86,-281.56 267.21,-276.88 271,-278.15 271,-278.15 271,-278.15 267.21,-276.88 272.14,-274.74 263.41,-275.61 263.41,-275.61"/>
<ellipse fill="none" stroke="black" cx="260.38" cy="-274.6" rx="3.2" ry="3.2"/>
</g>
<!-- m_loan&#45;&gt;m_appuser -->
<g id="edge3" class="edge">
<title>m_loan:w&#45;&gt;m_appuser:e</title>
<path fill="none" stroke="black" d="M257.17,-294.68C243.94,-280.76 250.26,-245.15 224.5,-245.15"/>
<polygon fill="black" stroke="black" points="263.56,-297.2 269.67,-303.5 267.28,-298.68 271,-300.15 271,-300.15 271,-300.15 267.28,-298.68 272.33,-296.8 263.56,-297.2 263.56,-297.2"/>
<ellipse fill="none" stroke="black" cx="260.59" cy="-296.03" rx="3.2" ry="3.2"/>
</g>
<!-- m_loan&#45;&gt;m_appuser -->
<g id="edge5" class="edge">
<title>m_loan:w&#45;&gt;m_appuser:e</title>
<path fill="none" stroke="black" d="M256.74,-254.13C246.27,-250.96 239.93,-245.15 224.5,-245.15"/>
<polygon fill="black" stroke="black" points="263.08,-255.03 270.5,-259.71 267.04,-255.59 271,-256.15 271,-256.15 271,-256.15 267.04,-255.59 271.5,-252.59 263.08,-255.03 263.08,-255.03"/>
<ellipse fill="none" stroke="black" cx="259.91" cy="-254.58" rx="3.2" ry="3.2"/>
</g>
<!-- m_loan&#45;&gt;m_appuser -->
<g id="edge6" class="edge">
<title>m_loan:w&#45;&gt;m_appuser:e</title>
<path fill="none" stroke="black" d="M257.04,-339.9C233.52,-320.95 267.04,-245.15 224.5,-245.15"/>
<polygon fill="black" stroke="black" points="263.35,-341.82 269.95,-347.59 267.17,-342.98 271,-344.15 271,-344.15 271,-344.15 267.17,-342.98 272.05,-340.71 263.35,-341.82 263.35,-341.82"/>
<ellipse fill="none" stroke="black" cx="260.29" cy="-340.89" rx="3.2" ry="3.2"/>
</g>
<!-- m_loan&#45;&gt;m_appuser -->
<g id="edge7" class="edge">
<title>m_loan:w&#45;&gt;m_appuser:e</title>
<path fill="none" stroke="black" d="M256.74,-236.17C246.27,-239.34 239.93,-245.15 224.5,-245.15"/>
<polygon fill="black" stroke="black" points="263.08,-235.27 271.5,-237.71 267.04,-234.71 271,-234.15 271,-234.15 271,-234.15 267.04,-234.71 270.5,-230.59 263.08,-235.27 263.08,-235.27"/>
<ellipse fill="none" stroke="black" cx="259.91" cy="-235.72" rx="3.2" ry="3.2"/>
</g>
<!-- m_code_value -->
<g id="node3" class="node">
<title>m_code_value</title>
<g id="a_node3"><a xlink:href="../../tables/m_code_value.html" xlink:title="m_code_value" target="_top">
<polygon fill="#ffffff" stroke="transparent" points="48,-299.15 48,-423.15 183,-423.15 183,-299.15 48,-299.15"/>
<polygon fill="#f5f5f5" stroke="transparent" points="48.5,-401.15 48.5,-423.15 183.5,-423.15 183.5,-401.15 48.5,-401.15"/>
<polygon fill="none" stroke="black" points="48.5,-401.15 48.5,-423.15 183.5,-423.15 183.5,-401.15 48.5,-401.15"/>
<text text-anchor="start" x="53.5" y="-410.35" font-family="Helvetica,sans-Serif" font-weight="bold" font-size="11.00">m_code_value</text>
<text text-anchor="start" x="148.5" y="-409.35" font-family="Helvetica,sans-Serif" font-size="11.00">[table]</text>
<polygon fill="none" stroke="black" points="48.5,-379.15 48.5,-401.15 183.5,-401.15 183.5,-379.15 48.5,-379.15"/>
<image xlink:href="../../images/primaryKeys.png" width="11px" height="12px" preserveAspectRatio="xMinYMin meet" x="53.5" y="-396.15"/>
<text text-anchor="start" x="68.5" y="-387.35" font-family="Helvetica,sans-Serif" font-size="11.00">id</text>
<polygon fill="#ffffff" stroke="transparent" points="48.5,-357.15 48.5,-379.15 183.5,-379.15 183.5,-357.15 48.5,-357.15"/>
<polygon fill="none" stroke="black" points="48.5,-357.15 48.5,-379.15 183.5,-379.15 183.5,-357.15 48.5,-357.15"/>
<image xlink:href="../../images/foreignKeys.png" width="11px" height="12px" preserveAspectRatio="xMinYMin meet" x="53.5" y="-374.15"/>
<text text-anchor="start" x="68.5" y="-365.35" font-family="Helvetica,sans-Serif" font-size="11.00">code_id</text>
<polygon fill="#ffffff" stroke="transparent" points="48.5,-335.15 48.5,-357.15 183.5,-357.15 183.5,-335.15 48.5,-335.15"/>
<polygon fill="none" stroke="black" points="48.5,-335.15 48.5,-357.15 183.5,-357.15 183.5,-335.15 48.5,-335.15"/>
<text text-anchor="start" x="68.5" y="-343.35" font-family="Helvetica,sans-Serif" font-size="11.00">code_value</text>
<polygon fill="none" stroke="black" points="48.5,-317.15 48.5,-335.15 183.5,-335.15 183.5,-317.15 48.5,-317.15"/>
<text text-anchor="start" x="51.5" y="-323.35" font-family="Helvetica,sans-Serif" font-size="11.00">...</text>
<polygon fill="#ffffff" stroke="transparent" points="48.5,-299.15 48.5,-317.15 93.5,-317.15 93.5,-299.15 48.5,-299.15"/>
<polygon fill="none" stroke="black" points="48.5,-299.15 48.5,-317.15 93.5,-317.15 93.5,-299.15 48.5,-299.15"/>
<text text-anchor="start" x="51.5" y="-305.35" font-family="Helvetica,sans-Serif" font-size="11.00">&lt; 1</text>
<polygon fill="#ffffff" stroke="transparent" points="93.5,-299.15 93.5,-317.15 143.5,-317.15 143.5,-299.15 93.5,-299.15"/>
<polygon fill="none" stroke="black" points="93.5,-299.15 93.5,-317.15 143.5,-317.15 143.5,-299.15 93.5,-299.15"/>
<text text-anchor="start" x="107.5" y="-305.35" font-family="Helvetica,sans-Serif" font-size="11.00">0 rows</text>
<polygon fill="#ffffff" stroke="transparent" points="143.5,-299.15 143.5,-317.15 183.5,-317.15 183.5,-299.15 143.5,-299.15"/>
<polygon fill="none" stroke="black" points="143.5,-299.15 143.5,-317.15 183.5,-317.15 183.5,-299.15 143.5,-299.15"/>
<text text-anchor="start" x="158.5" y="-305.35" font-family="Helvetica,sans-Serif" font-size="11.00">25 &gt;</text>
</a>
</g>
</g>
<!-- m_loan&#45;&gt;m_code_value -->
<g id="edge4" class="edge">
<title>m_loan:w&#45;&gt;m_code_value:e</title>
<path fill="none" stroke="black" d="M256.33,-367.37C228.65,-372.26 218.94,-390.15 184.5,-390.15"/>
<polygon fill="black" stroke="black" points="263.03,-366.81 271.3,-369.74 267.01,-366.48 271,-366.15 271,-366.15 271,-366.15 267.01,-366.48 270.7,-362.56 263.03,-366.81 263.03,-366.81"/>
<ellipse fill="none" stroke="black" cx="259.84" cy="-367.08" rx="3.2" ry="3.2"/>
</g>
<!-- m_loan&#45;&gt;m_code_value -->
<g id="edge8" class="edge">
<title>m_loan:w&#45;&gt;m_code_value:e</title>
<path fill="none" stroke="black" d="M256.54,-192.59C229.69,-203.67 247.32,-250.36 231,-288.15 211.25,-333.89 234.32,-390.15 184.5,-390.15"/>
<polygon fill="black" stroke="black" points="263.11,-191.48 271.6,-193.7 267.06,-190.82 271,-190.15 271,-190.15 271,-190.15 267.06,-190.82 270.4,-186.6 263.11,-191.48 263.11,-191.48"/>
<ellipse fill="none" stroke="black" cx="259.96" cy="-192.01" rx="3.2" ry="3.2"/>
</g>
<!-- m_loan_repayment_schedule_history -->
<g id="node4" class="node">
<title>m_loan_repayment_schedule_history</title>
<g id="a_node4"><a xlink:href="../../tables/m_loan_repayment_schedule_history.html" xlink:title="m_loan_repayment_schedule_history" target="_top">
<polygon fill="#ffffff" stroke="transparent" points="1043.5,-469.15 1043.5,-593.15 1310.5,-593.15 1310.5,-469.15 1043.5,-469.15"/>
<polygon fill="#f5f5f5" stroke="transparent" points="1044,-571.15 1044,-593.15 1311,-593.15 1311,-571.15 1044,-571.15"/>
<polygon fill="none" stroke="black" points="1044,-571.15 1044,-593.15 1311,-593.15 1311,-571.15 1044,-571.15"/>
<text text-anchor="start" x="1049" y="-580.35" font-family="Helvetica,sans-Serif" font-weight="bold" font-size="11.00">m_loan_repayment_schedule_history</text>
<text text-anchor="start" x="1276" y="-579.35" font-family="Helvetica,sans-Serif" font-size="11.00">[table]</text>
<polygon fill="none" stroke="black" points="1044,-549.15 1044,-571.15 1311,-571.15 1311,-549.15 1044,-549.15"/>
<image xlink:href="../../images/primaryKeys.png" width="11px" height="12px" preserveAspectRatio="xMinYMin meet" x="1049" y="-566.15"/>
<text text-anchor="start" x="1064" y="-557.35" font-family="Helvetica,sans-Serif" font-size="11.00">id</text>
<polygon fill="#ffffff" stroke="transparent" points="1044,-527.15 1044,-549.15 1311,-549.15 1311,-527.15 1044,-527.15"/>
<polygon fill="none" stroke="black" points="1044,-527.15 1044,-549.15 1311,-549.15 1311,-527.15 1044,-527.15"/>
<image xlink:href="../../images/foreignKeys.png" width="11px" height="12px" preserveAspectRatio="xMinYMin meet" x="1049" y="-544.15"/>
<text text-anchor="start" x="1064" y="-535.35" font-family="Helvetica,sans-Serif" font-size="11.00">loan_id</text>
<polygon fill="#ffffff" stroke="transparent" points="1044,-505.15 1044,-527.15 1311,-527.15 1311,-505.15 1044,-505.15"/>
<polygon fill="none" stroke="black" points="1044,-505.15 1044,-527.15 1311,-527.15 1311,-505.15 1044,-505.15"/>
<image xlink:href="../../images/foreignKeys.png" width="11px" height="12px" preserveAspectRatio="xMinYMin meet" x="1049" y="-522.15"/>
<text text-anchor="start" x="1064" y="-513.35" font-family="Helvetica,sans-Serif" font-size="11.00">loan_reschedule_request_id</text>
<polygon fill="none" stroke="black" points="1044,-487.15 1044,-505.15 1311,-505.15 1311,-487.15 1044,-487.15"/>
<text text-anchor="start" x="1047" y="-493.35" font-family="Helvetica,sans-Serif" font-size="11.00">...</text>
<polygon fill="#ffffff" stroke="transparent" points="1044,-469.15 1044,-487.15 1162,-487.15 1162,-469.15 1044,-469.15"/>
<polygon fill="none" stroke="black" points="1044,-469.15 1044,-487.15 1162,-487.15 1162,-469.15 1044,-469.15"/>
<text text-anchor="start" x="1047" y="-475.35" font-family="Helvetica,sans-Serif" font-size="11.00">&lt; 2</text>
<polygon fill="#ffffff" stroke="transparent" points="1162,-469.15 1162,-487.15 1249,-487.15 1249,-469.15 1162,-469.15"/>
<polygon fill="none" stroke="black" points="1162,-469.15 1162,-487.15 1249,-487.15 1249,-469.15 1162,-469.15"/>
<text text-anchor="start" x="1213" y="-475.35" font-family="Helvetica,sans-Serif" font-size="11.00">0 rows</text>
<polygon fill="#ffffff" stroke="transparent" points="1249,-469.15 1249,-487.15 1311,-487.15 1311,-469.15 1249,-469.15"/>
<polygon fill="none" stroke="black" points="1249,-469.15 1249,-487.15 1311,-487.15 1311,-469.15 1249,-469.15"/>
<text text-anchor="start" x="1301" y="-475.35" font-family="Helvetica,sans-Serif" font-size="11.00"> &#160;</text>
</a>
</g>
</g>
<!-- m_loan_repayment_schedule_history&#45;&gt;m_loan -->
<g id="edge9" class="edge">
<title>m_loan_repayment_schedule_history:w&#45;&gt;m_loan:e</title>
<path fill="none" stroke="black" d="M1028.57,-538.2C843.71,-539.43 792.88,-564.15 601,-564.15"/>
<polygon fill="black" stroke="black" points="1035,-538.18 1043.01,-541.75 1039,-538.16 1043,-538.15 1043,-538.15 1043,-538.15 1039,-538.16 1042.99,-534.55 1035,-538.18 1035,-538.18"/>
<ellipse fill="none" stroke="black" cx="1031.8" cy="-538.19" rx="3.2" ry="3.2"/>
</g>
<!-- m_loan_reschedule_request -->
<g id="node5" class="node">
<title>m_loan_reschedule_request</title>
<g id="a_node5"><a xlink:href="../../tables/m_loan_reschedule_request.html" xlink:title="m_loan_reschedule_request" target="_top">
<polygon fill="#ffffff" stroke="transparent" points="649,-42.15 649,-394.15 936,-394.15 936,-42.15 649,-42.15"/>
<polygon fill="#f5f5f5" stroke="transparent" points="651.5,-370.15 651.5,-392.15 934.5,-392.15 934.5,-370.15 651.5,-370.15"/>
<polygon fill="none" stroke="black" points="651.5,-370.15 651.5,-392.15 934.5,-392.15 934.5,-370.15 651.5,-370.15"/>
<text text-anchor="start" x="656.5" y="-379.35" font-family="Helvetica,sans-Serif" font-weight="bold" font-size="11.00">m_loan_reschedule_request</text>
<text text-anchor="start" x="899.5" y="-378.35" font-family="Helvetica,sans-Serif" font-size="11.00">[table]</text>
<polygon fill="none" stroke="black" points="651.5,-348.15 651.5,-370.15 867.5,-370.15 867.5,-348.15 651.5,-348.15"/>
<image xlink:href="../../images/primaryKeys.png" width="11px" height="12px" preserveAspectRatio="xMinYMin meet" x="656.5" y="-365.15"/>
<text text-anchor="start" x="671.5" y="-356.35" font-family="Helvetica,sans-Serif" font-size="11.00">id</text>
<polygon fill="none" stroke="black" points="867.5,-348.15 867.5,-370.15 934.5,-370.15 934.5,-348.15 867.5,-348.15"/>
<text text-anchor="start" x="870.5" y="-356.35" font-family="Helvetica,sans-Serif" font-size="11.00">bigint[19]</text>
<polygon fill="#ffffff" stroke="transparent" points="651.5,-326.15 651.5,-348.15 867.5,-348.15 867.5,-326.15 651.5,-326.15"/>
<polygon fill="none" stroke="black" points="651.5,-326.15 651.5,-348.15 867.5,-348.15 867.5,-326.15 651.5,-326.15"/>
<image xlink:href="../../images/foreignKeys.png" width="11px" height="12px" preserveAspectRatio="xMinYMin meet" x="656.5" y="-343.15"/>
<text text-anchor="start" x="671.5" y="-334.35" font-family="Helvetica,sans-Serif" font-size="11.00">loan_id</text>
<polygon fill="none" stroke="black" points="867.5,-326.15 867.5,-348.15 934.5,-348.15 934.5,-326.15 867.5,-326.15"/>
<text text-anchor="start" x="870.5" y="-334.35" font-family="Helvetica,sans-Serif" font-size="11.00">bigint[19]</text>
<polygon fill="none" stroke="black" points="651.5,-304.15 651.5,-326.15 867.5,-326.15 867.5,-304.15 651.5,-304.15"/>
<text text-anchor="start" x="671.5" y="-312.35" font-family="Helvetica,sans-Serif" font-size="11.00">status_enum</text>
<polygon fill="none" stroke="black" points="867.5,-304.15 867.5,-326.15 934.5,-326.15 934.5,-304.15 867.5,-304.15"/>
<text text-anchor="start" x="870.5" y="-312.35" font-family="Helvetica,sans-Serif" font-size="11.00">smallint[5]</text>
<polygon fill="none" stroke="black" points="651.5,-282.15 651.5,-304.15 867.5,-304.15 867.5,-282.15 651.5,-282.15"/>
<text text-anchor="start" x="671.5" y="-290.35" font-family="Helvetica,sans-Serif" font-size="11.00">reschedule_from_installment</text>
<polygon fill="none" stroke="black" points="867.5,-282.15 867.5,-304.15 934.5,-304.15 934.5,-282.15 867.5,-282.15"/>
<text text-anchor="start" x="870.5" y="-290.35" font-family="Helvetica,sans-Serif" font-size="11.00">smallint[5]</text>
<polygon fill="none" stroke="black" points="651.5,-260.15 651.5,-282.15 867.5,-282.15 867.5,-260.15 651.5,-260.15"/>
<text text-anchor="start" x="671.5" y="-268.35" font-family="Helvetica,sans-Serif" font-size="11.00">reschedule_from_date</text>
<polygon fill="none" stroke="black" points="867.5,-260.15 867.5,-282.15 934.5,-282.15 934.5,-260.15 867.5,-260.15"/>
<text text-anchor="start" x="870.5" y="-268.35" font-family="Helvetica,sans-Serif" font-size="11.00">date[10]</text>
<polygon fill="none" stroke="black" points="651.5,-238.15 651.5,-260.15 867.5,-260.15 867.5,-238.15 651.5,-238.15"/>
<text text-anchor="start" x="671.5" y="-246.35" font-family="Helvetica,sans-Serif" font-size="11.00">recalculate_interest</text>
<polygon fill="none" stroke="black" points="867.5,-238.15 867.5,-260.15 934.5,-260.15 934.5,-238.15 867.5,-238.15"/>
<text text-anchor="start" x="870.5" y="-246.35" font-family="Helvetica,sans-Serif" font-size="11.00">bit[1]</text>
<polygon fill="#ffffff" stroke="transparent" points="651.5,-216.15 651.5,-238.15 867.5,-238.15 867.5,-216.15 651.5,-216.15"/>
<polygon fill="none" stroke="black" points="651.5,-216.15 651.5,-238.15 867.5,-238.15 867.5,-216.15 651.5,-216.15"/>
<image xlink:href="../../images/foreignKeys.png" width="11px" height="12px" preserveAspectRatio="xMinYMin meet" x="656.5" y="-233.15"/>
<text text-anchor="start" x="671.5" y="-224.35" font-family="Helvetica,sans-Serif" font-size="11.00">reschedule_reason_cv_id</text>
<polygon fill="none" stroke="black" points="867.5,-216.15 867.5,-238.15 934.5,-238.15 934.5,-216.15 867.5,-216.15"/>
<text text-anchor="start" x="870.5" y="-224.35" font-family="Helvetica,sans-Serif" font-size="11.00">int[10]</text>
<polygon fill="none" stroke="black" points="651.5,-194.15 651.5,-216.15 867.5,-216.15 867.5,-194.15 651.5,-194.15"/>
<text text-anchor="start" x="671.5" y="-202.35" font-family="Helvetica,sans-Serif" font-size="11.00">reschedule_reason_comment</text>
<polygon fill="none" stroke="black" points="867.5,-194.15 867.5,-216.15 934.5,-216.15 934.5,-194.15 867.5,-194.15"/>
<text text-anchor="start" x="870.5" y="-202.35" font-family="Helvetica,sans-Serif" font-size="11.00">varchar[500]</text>
<polygon fill="none" stroke="black" points="651.5,-172.15 651.5,-194.15 867.5,-194.15 867.5,-172.15 651.5,-172.15"/>
<text text-anchor="start" x="671.5" y="-180.35" font-family="Helvetica,sans-Serif" font-size="11.00">submitted_on_date</text>
<polygon fill="none" stroke="black" points="867.5,-172.15 867.5,-194.15 934.5,-194.15 934.5,-172.15 867.5,-172.15"/>
<text text-anchor="start" x="870.5" y="-180.35" font-family="Helvetica,sans-Serif" font-size="11.00">date[10]</text>
<polygon fill="#ffffff" stroke="transparent" points="651.5,-150.15 651.5,-172.15 867.5,-172.15 867.5,-150.15 651.5,-150.15"/>
<polygon fill="none" stroke="black" points="651.5,-150.15 651.5,-172.15 867.5,-172.15 867.5,-150.15 651.5,-150.15"/>
<image xlink:href="../../images/foreignKeys.png" width="11px" height="12px" preserveAspectRatio="xMinYMin meet" x="656.5" y="-167.15"/>
<text text-anchor="start" x="671.5" y="-158.35" font-family="Helvetica,sans-Serif" font-size="11.00">submitted_by_user_id</text>
<polygon fill="none" stroke="black" points="867.5,-150.15 867.5,-172.15 934.5,-172.15 934.5,-150.15 867.5,-150.15"/>
<text text-anchor="start" x="870.5" y="-158.35" font-family="Helvetica,sans-Serif" font-size="11.00">bigint[19]</text>
<polygon fill="none" stroke="black" points="651.5,-128.15 651.5,-150.15 867.5,-150.15 867.5,-128.15 651.5,-128.15"/>
<text text-anchor="start" x="671.5" y="-136.35" font-family="Helvetica,sans-Serif" font-size="11.00">approved_on_date</text>
<polygon fill="none" stroke="black" points="867.5,-128.15 867.5,-150.15 934.5,-150.15 934.5,-128.15 867.5,-128.15"/>
<text text-anchor="start" x="870.5" y="-136.35" font-family="Helvetica,sans-Serif" font-size="11.00">date[10]</text>
<polygon fill="#ffffff" stroke="transparent" points="651.5,-106.15 651.5,-128.15 867.5,-128.15 867.5,-106.15 651.5,-106.15"/>
<polygon fill="none" stroke="black" points="651.5,-106.15 651.5,-128.15 867.5,-128.15 867.5,-106.15 651.5,-106.15"/>
<image xlink:href="../../images/foreignKeys.png" width="11px" height="12px" preserveAspectRatio="xMinYMin meet" x="656.5" y="-123.15"/>
<text text-anchor="start" x="671.5" y="-114.35" font-family="Helvetica,sans-Serif" font-size="11.00">approved_by_user_id</text>
<polygon fill="none" stroke="black" points="867.5,-106.15 867.5,-128.15 934.5,-128.15 934.5,-106.15 867.5,-106.15"/>
<text text-anchor="start" x="870.5" y="-114.35" font-family="Helvetica,sans-Serif" font-size="11.00">bigint[19]</text>
<polygon fill="none" stroke="black" points="651.5,-84.15 651.5,-106.15 867.5,-106.15 867.5,-84.15 651.5,-84.15"/>
<text text-anchor="start" x="671.5" y="-92.35" font-family="Helvetica,sans-Serif" font-size="11.00">rejected_on_date</text>
<polygon fill="none" stroke="black" points="867.5,-84.15 867.5,-106.15 934.5,-106.15 934.5,-84.15 867.5,-84.15"/>
<text text-anchor="start" x="870.5" y="-92.35" font-family="Helvetica,sans-Serif" font-size="11.00">date[10]</text>
<polygon fill="#ffffff" stroke="transparent" points="651.5,-62.15 651.5,-84.15 867.5,-84.15 867.5,-62.15 651.5,-62.15"/>
<polygon fill="none" stroke="black" points="651.5,-62.15 651.5,-84.15 867.5,-84.15 867.5,-62.15 651.5,-62.15"/>
<image xlink:href="../../images/foreignKeys.png" width="11px" height="12px" preserveAspectRatio="xMinYMin meet" x="656.5" y="-79.1501"/>
<text text-anchor="start" x="671.5" y="-70.35" font-family="Helvetica,sans-Serif" font-size="11.00">rejected_by_user_id</text>
<polygon fill="none" stroke="black" points="867.5,-62.15 867.5,-84.15 934.5,-84.15 934.5,-62.15 867.5,-62.15"/>
<text text-anchor="start" x="870.5" y="-70.35" font-family="Helvetica,sans-Serif" font-size="11.00">bigint[19]</text>
<polygon fill="#ffffff" stroke="transparent" points="651.5,-44.15 651.5,-62.15 750.5,-62.15 750.5,-44.15 651.5,-44.15"/>
<polygon fill="none" stroke="black" points="651.5,-44.15 651.5,-62.15 750.5,-62.15 750.5,-44.15 651.5,-44.15"/>
<text text-anchor="start" x="654.5" y="-50.35" font-family="Helvetica,sans-Serif" font-size="11.00">&lt; 5</text>
<polygon fill="#ffffff" stroke="transparent" points="750.5,-44.15 750.5,-62.15 867.5,-62.15 867.5,-44.15 750.5,-44.15"/>
<polygon fill="none" stroke="black" points="750.5,-44.15 750.5,-62.15 867.5,-62.15 867.5,-44.15 750.5,-44.15"/>
<text text-anchor="start" x="831.5" y="-50.35" font-family="Helvetica,sans-Serif" font-size="11.00">0 rows</text>
<polygon fill="#ffffff" stroke="transparent" points="867.5,-44.15 867.5,-62.15 934.5,-62.15 934.5,-44.15 867.5,-44.15"/>
<polygon fill="none" stroke="black" points="867.5,-44.15 867.5,-62.15 934.5,-62.15 934.5,-44.15 867.5,-44.15"/>
<text text-anchor="start" x="915.5" y="-50.35" font-family="Helvetica,sans-Serif" font-size="11.00">2 &gt;</text>
<polygon fill="none" stroke="black" stroke-width="2" points="650,-43.15 650,-393.15 935,-393.15 935,-43.15 650,-43.15"/>
</a>
</g>
</g>
<!-- m_loan_repayment_schedule_history&#45;&gt;m_loan_reschedule_request -->
<g id="edge10" class="edge">
<title>m_loan_repayment_schedule_history:w&#45;&gt;m_loan_reschedule_request:e</title>
<path fill="none" stroke="black" d="M1028.69,-514.45C995.17,-505.4 1001.92,-462.02 977,-425.15 957.6,-396.44 970.15,-359.15 935.5,-359.15"/>
<polygon fill="black" stroke="black" points="1035.06,-515.2 1042.57,-519.72 1039.03,-515.68 1043,-516.15 1043,-516.15 1043,-516.15 1039.03,-515.68 1043.43,-512.58 1035.06,-515.2 1035.06,-515.2"/>
<ellipse fill="none" stroke="black" cx="1031.88" cy="-514.82" rx="3.2" ry="3.2"/>
</g>
<!-- m_loan_reschedule_request&#45;&gt;m_loan -->
<g id="edge12" class="edge">
<title>m_loan_reschedule_request:w&#45;&gt;m_loan:e</title>
<path fill="none" stroke="black" d="M635.81,-339.11C563.64,-361.3 698.61,-564.15 601,-564.15"/>
<polygon fill="black" stroke="black" points="642.57,-338.21 650.98,-340.72 646.54,-337.68 650.5,-337.15 650.5,-337.15 650.5,-337.15 646.54,-337.68 650.02,-333.58 642.57,-338.21 642.57,-338.21"/>
<ellipse fill="none" stroke="black" cx="639.4" cy="-338.63" rx="3.2" ry="3.2"/>
</g>
<!-- m_loan_reschedule_request&#45;&gt;m_appuser -->
<g id="edge11" class="edge">
<title>m_loan_reschedule_request:w&#45;&gt;m_appuser:e</title>
<path fill="none" stroke="black" d="M635.98,-115.65C627.23,-113.7 621.16,-110.38 608,-109.15 531.89,-102.05 325.13,-63.25 264,-109.15 213.67,-146.94 287.44,-245.15 224.5,-245.15"/>
<polygon fill="black" stroke="black" points="642.54,-116.33 650.13,-120.73 646.52,-116.74 650.5,-117.15 650.5,-117.15 650.5,-117.15 646.52,-116.74 650.87,-113.57 642.54,-116.33 642.54,-116.33"/>
<ellipse fill="none" stroke="black" cx="639.36" cy="-116" rx="3.2" ry="3.2"/>
</g>
<!-- m_loan_reschedule_request&#45;&gt;m_appuser -->
<g id="edge13" class="edge">
<title>m_loan_reschedule_request:w&#45;&gt;m_appuser:e</title>
<path fill="none" stroke="black" d="M635.63,-72.91C473.86,-67.64 393.78,20.65 264,-84.15 206.68,-130.44 298.18,-245.15 224.5,-245.15"/>
<polygon fill="black" stroke="black" points="642.5,-73.02 650.44,-76.75 646.5,-73.09 650.5,-73.15 650.5,-73.15 650.5,-73.15 646.5,-73.09 650.56,-69.55 642.5,-73.02 642.5,-73.02"/>
<ellipse fill="none" stroke="black" cx="639.3" cy="-72.97" rx="3.2" ry="3.2"/>
</g>
<!-- m_loan_reschedule_request&#45;&gt;m_appuser -->
<g id="edge15" class="edge">
<title>m_loan_reschedule_request:w&#45;&gt;m_appuser:e</title>
<path fill="none" stroke="black" d="M636.44,-157.07C627.1,-150.51 623.74,-137.87 608,-133.15 571.39,-122.17 295.2,-111.07 264,-133.15 220.91,-163.64 277.28,-245.15 224.5,-245.15"/>
<polygon fill="black" stroke="black" points="642.82,-158.92 649.5,-164.61 646.66,-160.04 650.5,-161.15 650.5,-161.15 650.5,-161.15 646.66,-160.04 651.5,-157.69 642.82,-158.92 642.82,-158.92"/>
<ellipse fill="none" stroke="black" cx="639.74" cy="-158.03" rx="3.2" ry="3.2"/>
</g>
<!-- m_loan_reschedule_request&#45;&gt;m_code_value -->
<g id="edge14" class="edge">
<title>m_loan_reschedule_request:w&#45;&gt;m_code_value:e</title>
<path fill="none" stroke="black" d="M636.32,-231.03C578.29,-267.83 667.4,-555.01 608,-608.15 551.03,-659.12 326.63,-651.98 264,-608.15 179.5,-549.02 287.63,-390.15 184.5,-390.15"/>
<polygon fill="black" stroke="black" points="642.78,-229.26 651.45,-230.62 646.64,-228.21 650.5,-227.15 650.5,-227.15 650.5,-227.15 646.64,-228.21 649.55,-223.68 642.78,-229.26 642.78,-229.26"/>
<ellipse fill="none" stroke="black" cx="639.7" cy="-230.11" rx="3.2" ry="3.2"/>
</g>
<!-- m_loan_reschedule_request_term_variations_mapping -->
<g id="node6" class="node">
<title>m_loan_reschedule_request_term_variations_mapping</title>
<g id="a_node6"><a xlink:href="../../tables/m_loan_reschedule_request_term_variations_mapping.html" xlink:title="m_loan_reschedule_request_term_variations_mapping" target="_top">
<polygon fill="#ffffff" stroke="transparent" points="985,-308.15 985,-414.15 1369,-414.15 1369,-308.15 985,-308.15"/>
<polygon fill="#f5f5f5" stroke="transparent" points="985,-392.15 985,-414.15 1369,-414.15 1369,-392.15 985,-392.15"/>
<polygon fill="none" stroke="black" points="985,-392.15 985,-414.15 1369,-414.15 1369,-392.15 985,-392.15"/>
<text text-anchor="start" x="990" y="-401.35" font-family="Helvetica,sans-Serif" font-weight="bold" font-size="11.00">m_loan_reschedule_request_term_variations_mapping</text>
<text text-anchor="start" x="1334" y="-400.35" font-family="Helvetica,sans-Serif" font-size="11.00">[table]</text>
<polygon fill="none" stroke="black" points="985,-370.15 985,-392.15 1369,-392.15 1369,-370.15 985,-370.15"/>
<image xlink:href="../../images/primaryKeys.png" width="11px" height="12px" preserveAspectRatio="xMinYMin meet" x="990" y="-387.15"/>
<text text-anchor="start" x="1005" y="-378.35" font-family="Helvetica,sans-Serif" font-size="11.00">id</text>
<polygon fill="#ffffff" stroke="transparent" points="985,-348.15 985,-370.15 1369,-370.15 1369,-348.15 985,-348.15"/>
<polygon fill="none" stroke="black" points="985,-348.15 985,-370.15 1369,-370.15 1369,-348.15 985,-348.15"/>
<image xlink:href="../../images/foreignKeys.png" width="11px" height="12px" preserveAspectRatio="xMinYMin meet" x="990" y="-365.15"/>
<text text-anchor="start" x="1005" y="-356.35" font-family="Helvetica,sans-Serif" font-size="11.00">loan_reschedule_request_id</text>
<polygon fill="#ffffff" stroke="transparent" points="985,-326.15 985,-348.15 1369,-348.15 1369,-326.15 985,-326.15"/>
<polygon fill="none" stroke="black" points="985,-326.15 985,-348.15 1369,-348.15 1369,-326.15 985,-326.15"/>
<image xlink:href="../../images/foreignKeys.png" width="11px" height="12px" preserveAspectRatio="xMinYMin meet" x="990" y="-343.15"/>
<text text-anchor="start" x="1005" y="-334.35" font-family="Helvetica,sans-Serif" font-size="11.00">loan_term_variations_id</text>
<polygon fill="#ffffff" stroke="transparent" points="985,-308.15 985,-326.15 1162,-326.15 1162,-308.15 985,-308.15"/>
<polygon fill="none" stroke="black" points="985,-308.15 985,-326.15 1162,-326.15 1162,-308.15 985,-308.15"/>
<text text-anchor="start" x="988" y="-314.35" font-family="Helvetica,sans-Serif" font-size="11.00">&lt; 2</text>
<polygon fill="#ffffff" stroke="transparent" points="1162,-308.15 1162,-326.15 1278,-326.15 1278,-308.15 1162,-308.15"/>
<polygon fill="none" stroke="black" points="1162,-308.15 1162,-326.15 1278,-326.15 1278,-308.15 1162,-308.15"/>
<text text-anchor="start" x="1242" y="-314.35" font-family="Helvetica,sans-Serif" font-size="11.00">0 rows</text>
<polygon fill="#ffffff" stroke="transparent" points="1278,-308.15 1278,-326.15 1369,-326.15 1369,-308.15 1278,-308.15"/>
<polygon fill="none" stroke="black" points="1278,-308.15 1278,-326.15 1369,-326.15 1369,-308.15 1278,-308.15"/>
<text text-anchor="start" x="1359" y="-314.35" font-family="Helvetica,sans-Serif" font-size="11.00"> &#160;</text>
</a>
</g>
</g>
<!-- m_loan_reschedule_request_term_variations_mapping&#45;&gt;m_loan_reschedule_request -->
<g id="edge16" class="edge">
<title>m_loan_reschedule_request_term_variations_mapping:w&#45;&gt;m_loan_reschedule_request:e</title>
<path fill="none" stroke="black" d="M969.28,-359.15C958.29,-359.15 951.16,-359.15 935.5,-359.15"/>
<polygon fill="black" stroke="black" points="976,-359.15 984,-362.75 980,-359.15 984,-359.15 984,-359.15 984,-359.15 980,-359.15 984,-355.55 976,-359.15 976,-359.15"/>
<ellipse fill="none" stroke="black" cx="972.8" cy="-359.15" rx="3.2" ry="3.2"/>
</g>
</g>
</svg>
