<?xml version="1.0" encoding="UTF-8" standalone="no"?>
<!DOCTYPE svg PUBLIC "-//W3C//DTD SVG 1.1//EN"
 "http://www.w3.org/Graphics/SVG/1.1/DTD/svg11.dtd">
<!-- Generated by graphviz version 2.43.0 (0)
 -->
<!-- Title: oneDegreeRelationshipsDiagram Pages: 1 -->
<svg width="800pt" height="406pt"
 viewBox="0.00 0.00 800.00 406.00" xmlns="http://www.w3.org/2000/svg" xmlns:xlink="http://www.w3.org/1999/xlink">
<g id="graph0" class="graph" transform="scale(1 1) rotate(0) translate(4 402)">
<title>oneDegreeRelationshipsDiagram</title>
<polygon fill="#ffffff" stroke="transparent" points="-4,4 -4,-402 796,-402 796,4 -4,4"/>
<text text-anchor="middle" x="71.5" y="-7.2" font-family="Helvetica,sans-Serif" font-size="11.00">Generated by SchemaSpy</text>
<!-- m_loanproduct_provisioning_mapping -->
<g id="node1" class="node">
<title>m_loanproduct_provisioning_mapping</title>
<g id="a_node1"><a xlink:href="../../tables/m_loanproduct_provisioning_mapping.html" xlink:title="m_loanproduct_provisioning_mapping" target="_top">
<polygon fill="#ffffff" stroke="transparent" points="454,-213 454,-323 784,-323 784,-213 454,-213"/>
<polygon fill="#f5f5f5" stroke="transparent" points="456,-299 456,-321 782,-321 782,-299 456,-299"/>
<polygon fill="none" stroke="black" points="456,-299 456,-321 782,-321 782,-299 456,-299"/>
<text text-anchor="start" x="461" y="-308.2" font-family="Helvetica,sans-Serif" font-weight="bold" font-size="11.00">m_loanproduct_provisioning_mapping</text>
<text text-anchor="start" x="747" y="-307.2" font-family="Helvetica,sans-Serif" font-size="11.00">[table]</text>
<polygon fill="none" stroke="black" points="456,-277 456,-299 732,-299 732,-277 456,-277"/>
<image xlink:href="../../images/primaryKeys.png" width="11px" height="12px" preserveAspectRatio="xMinYMin meet" x="461" y="-294"/>
<text text-anchor="start" x="476" y="-285.2" font-family="Helvetica,sans-Serif" font-size="11.00">id</text>
<polygon fill="none" stroke="black" points="732,-277 732,-299 782,-299 782,-277 732,-277"/>
<text text-anchor="start" x="735" y="-285.2" font-family="Helvetica,sans-Serif" font-size="11.00">bigint[19]</text>
<polygon fill="#ffffff" stroke="transparent" points="456,-255 456,-277 732,-277 732,-255 456,-255"/>
<polygon fill="none" stroke="black" points="456,-255 456,-277 732,-277 732,-255 456,-255"/>
<image xlink:href="../../images/foreignKeys.png" width="11px" height="12px" preserveAspectRatio="xMinYMin meet" x="461" y="-272"/>
<text text-anchor="start" x="476" y="-263.2" font-family="Helvetica,sans-Serif" font-size="11.00">product_id</text>
<polygon fill="none" stroke="black" points="732,-255 732,-277 782,-277 782,-255 732,-255"/>
<text text-anchor="start" x="735" y="-263.2" font-family="Helvetica,sans-Serif" font-size="11.00">bigint[19]</text>
<polygon fill="#ffffff" stroke="transparent" points="456,-233 456,-255 732,-255 732,-233 456,-233"/>
<polygon fill="none" stroke="black" points="456,-233 456,-255 732,-255 732,-233 456,-233"/>
<image xlink:href="../../images/foreignKeys.png" width="11px" height="12px" preserveAspectRatio="xMinYMin meet" x="461" y="-250"/>
<text text-anchor="start" x="476" y="-241.2" font-family="Helvetica,sans-Serif" font-size="11.00">criteria_id</text>
<polygon fill="none" stroke="black" points="732,-233 732,-255 782,-255 782,-233 732,-233"/>
<text text-anchor="start" x="735" y="-241.2" font-family="Helvetica,sans-Serif" font-size="11.00">bigint[19]</text>
<polygon fill="#ffffff" stroke="transparent" points="456,-215 456,-233 585,-233 585,-215 456,-215"/>
<polygon fill="none" stroke="black" points="456,-215 456,-233 585,-233 585,-215 456,-215"/>
<text text-anchor="start" x="459" y="-221.2" font-family="Helvetica,sans-Serif" font-size="11.00">&lt; 2</text>
<polygon fill="#ffffff" stroke="transparent" points="585,-215 585,-233 732,-233 732,-215 585,-215"/>
<polygon fill="none" stroke="black" points="585,-215 585,-233 732,-233 732,-215 585,-215"/>
<text text-anchor="start" x="696" y="-221.2" font-family="Helvetica,sans-Serif" font-size="11.00">0 rows</text>
<polygon fill="#ffffff" stroke="transparent" points="732,-215 732,-233 782,-233 782,-215 732,-215"/>
<polygon fill="none" stroke="black" points="732,-215 732,-233 782,-233 782,-215 732,-215"/>
<text text-anchor="start" x="763" y="-221.2" font-family="Helvetica,sans-Serif" font-size="11.00">0 &gt;</text>
<polygon fill="none" stroke="black" stroke-width="2" points="455,-214 455,-322 783,-322 783,-214 455,-214"/>
</a>
</g>
</g>
<!-- m_provisioning_criteria -->
<g id="node2" class="node">
<title>m_provisioning_criteria</title>
<g id="a_node2"><a xlink:href="../../tables/m_provisioning_criteria.html" xlink:title="m_provisioning_criteria" target="_top">
<polygon fill="#ffffff" stroke="transparent" points="117.5,-37 117.5,-183 295.5,-183 295.5,-37 117.5,-37"/>
<polygon fill="#f5f5f5" stroke="transparent" points="117.5,-161 117.5,-183 295.5,-183 295.5,-161 117.5,-161"/>
<polygon fill="none" stroke="black" points="117.5,-161 117.5,-183 295.5,-183 295.5,-161 117.5,-161"/>
<text text-anchor="start" x="122.5" y="-170.2" font-family="Helvetica,sans-Serif" font-weight="bold" font-size="11.00">m_provisioning_criteria</text>
<text text-anchor="start" x="260.5" y="-169.2" font-family="Helvetica,sans-Serif" font-size="11.00">[table]</text>
<polygon fill="none" stroke="black" points="117.5,-139 117.5,-161 295.5,-161 295.5,-139 117.5,-139"/>
<image xlink:href="../../images/primaryKeys.png" width="11px" height="12px" preserveAspectRatio="xMinYMin meet" x="122.5" y="-156"/>
<text text-anchor="start" x="137.5" y="-147.2" font-family="Helvetica,sans-Serif" font-size="11.00">id</text>
<polygon fill="#ffffff" stroke="transparent" points="117.5,-117 117.5,-139 295.5,-139 295.5,-117 117.5,-117"/>
<polygon fill="none" stroke="black" points="117.5,-117 117.5,-139 295.5,-139 295.5,-117 117.5,-117"/>
<text text-anchor="start" x="137.5" y="-125.2" font-family="Helvetica,sans-Serif" font-size="11.00">criteria_name</text>
<polygon fill="#ffffff" stroke="transparent" points="117.5,-95 117.5,-117 295.5,-117 295.5,-95 117.5,-95"/>
<polygon fill="none" stroke="black" points="117.5,-95 117.5,-117 295.5,-117 295.5,-95 117.5,-95"/>
<image xlink:href="../../images/foreignKeys.png" width="11px" height="12px" preserveAspectRatio="xMinYMin meet" x="122.5" y="-112"/>
<text text-anchor="start" x="137.5" y="-103.2" font-family="Helvetica,sans-Serif" font-size="11.00">createdby_id</text>
<polygon fill="#ffffff" stroke="transparent" points="117.5,-73 117.5,-95 295.5,-95 295.5,-73 117.5,-73"/>
<polygon fill="none" stroke="black" points="117.5,-73 117.5,-95 295.5,-95 295.5,-73 117.5,-73"/>
<image xlink:href="../../images/foreignKeys.png" width="11px" height="12px" preserveAspectRatio="xMinYMin meet" x="122.5" y="-90"/>
<text text-anchor="start" x="137.5" y="-81.2" font-family="Helvetica,sans-Serif" font-size="11.00">lastmodifiedby_id</text>
<polygon fill="none" stroke="black" points="117.5,-55 117.5,-73 295.5,-73 295.5,-55 117.5,-55"/>
<text text-anchor="start" x="120.5" y="-61.2" font-family="Helvetica,sans-Serif" font-size="11.00">...</text>
<polygon fill="#ffffff" stroke="transparent" points="117.5,-37 117.5,-55 186.5,-55 186.5,-37 117.5,-37"/>
<polygon fill="none" stroke="black" points="117.5,-37 117.5,-55 186.5,-55 186.5,-37 117.5,-37"/>
<text text-anchor="start" x="120.5" y="-43.2" font-family="Helvetica,sans-Serif" font-size="11.00">&lt; 2</text>
<polygon fill="#ffffff" stroke="transparent" points="186.5,-37 186.5,-55 249.5,-55 249.5,-37 186.5,-37"/>
<polygon fill="none" stroke="black" points="186.5,-37 186.5,-55 249.5,-55 249.5,-37 186.5,-37"/>
<text text-anchor="start" x="213.5" y="-43.2" font-family="Helvetica,sans-Serif" font-size="11.00">0 rows</text>
<polygon fill="#ffffff" stroke="transparent" points="249.5,-37 249.5,-55 295.5,-55 295.5,-37 249.5,-37"/>
<polygon fill="none" stroke="black" points="249.5,-37 249.5,-55 295.5,-55 295.5,-37 249.5,-37"/>
<text text-anchor="start" x="276.5" y="-43.2" font-family="Helvetica,sans-Serif" font-size="11.00">3 &gt;</text>
</a>
</g>
</g>
<!-- m_loanproduct_provisioning_mapping&#45;&gt;m_provisioning_criteria -->
<g id="edge1" class="edge">
<title>m_loanproduct_provisioning_mapping:w&#45;&gt;m_provisioning_criteria:e</title>
<path fill="none" stroke="black" d="M441.13,-239.94C428.84,-230.41 431.89,-206.42 413,-193 368.01,-161.03 351.69,-150 296.5,-150"/>
<polygon fill="black" stroke="black" points="447.32,-241.75 453.99,-247.46 451.16,-242.88 455,-244 455,-244 455,-244 451.16,-242.88 456.01,-240.54 447.32,-241.75 447.32,-241.75"/>
<ellipse fill="none" stroke="black" cx="444.25" cy="-240.85" rx="3.2" ry="3.2"/>
</g>
<!-- m_product_loan -->
<g id="node3" class="node">
<title>m_product_loan</title>
<g id="a_node3"><a xlink:href="../../tables/m_product_loan.html" xlink:title="m_product_loan" target="_top">
<polygon fill="#ffffff" stroke="transparent" points="8,-204 8,-394 405,-394 405,-204 8,-204"/>
<polygon fill="#f5f5f5" stroke="transparent" points="8.5,-372 8.5,-394 405.5,-394 405.5,-372 8.5,-372"/>
<polygon fill="none" stroke="black" points="8.5,-372 8.5,-394 405.5,-394 405.5,-372 8.5,-372"/>
<text text-anchor="start" x="13.5" y="-381.2" font-family="Helvetica,sans-Serif" font-weight="bold" font-size="11.00">m_product_loan</text>
<text text-anchor="start" x="370.5" y="-380.2" font-family="Helvetica,sans-Serif" font-size="11.00">[table]</text>
<polygon fill="none" stroke="black" points="8.5,-350 8.5,-372 405.5,-372 405.5,-350 8.5,-350"/>
<image xlink:href="../../images/primaryKeys.png" width="11px" height="12px" preserveAspectRatio="xMinYMin meet" x="13.5" y="-367"/>
<text text-anchor="start" x="28.5" y="-358.2" font-family="Helvetica,sans-Serif" font-size="11.00">id</text>
<polygon fill="#ffffff" stroke="transparent" points="8.5,-328 8.5,-350 405.5,-350 405.5,-328 8.5,-328"/>
<polygon fill="none" stroke="black" points="8.5,-328 8.5,-350 405.5,-350 405.5,-328 8.5,-328"/>
<text text-anchor="start" x="28.5" y="-336.2" font-family="Helvetica,sans-Serif" font-size="11.00">short_name</text>
<polygon fill="#ffffff" stroke="transparent" points="8.5,-306 8.5,-328 405.5,-328 405.5,-306 8.5,-306"/>
<polygon fill="none" stroke="black" points="8.5,-306 8.5,-328 405.5,-328 405.5,-306 8.5,-306"/>
<text text-anchor="start" x="28.5" y="-314.2" font-family="Helvetica,sans-Serif" font-size="11.00">name</text>
<polygon fill="#ffffff" stroke="transparent" points="8.5,-284 8.5,-306 405.5,-306 405.5,-284 8.5,-284"/>
<polygon fill="none" stroke="black" points="8.5,-284 8.5,-306 405.5,-306 405.5,-284 8.5,-284"/>
<image xlink:href="../../images/foreignKeys.png" width="11px" height="12px" preserveAspectRatio="xMinYMin meet" x="13.5" y="-301"/>
<text text-anchor="start" x="28.5" y="-292.2" font-family="Helvetica,sans-Serif" font-size="11.00">fund_id</text>
<polygon fill="#ffffff" stroke="transparent" points="8.5,-262 8.5,-284 405.5,-284 405.5,-262 8.5,-262"/>
<polygon fill="none" stroke="black" points="8.5,-262 8.5,-284 405.5,-284 405.5,-262 8.5,-262"/>
<image xlink:href="../../images/foreignKeys.png" width="11px" height="12px" preserveAspectRatio="xMinYMin meet" x="13.5" y="-279"/>
<text text-anchor="start" x="28.5" y="-270.2" font-family="Helvetica,sans-Serif" font-size="11.00">loan_transaction_strategy_id</text>
<polygon fill="#ffffff" stroke="transparent" points="8.5,-240 8.5,-262 405.5,-262 405.5,-240 8.5,-240"/>
<polygon fill="none" stroke="black" points="8.5,-240 8.5,-262 405.5,-262 405.5,-240 8.5,-240"/>
<text text-anchor="start" x="28.5" y="-248.2" font-family="Helvetica,sans-Serif" font-size="11.00">external_id</text>
<polygon fill="none" stroke="black" points="8.5,-222 8.5,-240 405.5,-240 405.5,-222 8.5,-222"/>
<text text-anchor="start" x="11.5" y="-228.2" font-family="Helvetica,sans-Serif" font-size="11.00">...</text>
<polygon fill="#ffffff" stroke="transparent" points="8.5,-204 8.5,-222 184.5,-222 184.5,-204 8.5,-204"/>
<polygon fill="none" stroke="black" points="8.5,-204 8.5,-222 184.5,-222 184.5,-204 8.5,-204"/>
<text text-anchor="start" x="11.5" y="-210.2" font-family="Helvetica,sans-Serif" font-size="11.00">&lt; 2</text>
<polygon fill="#ffffff" stroke="transparent" points="184.5,-204 184.5,-222 300.5,-222 300.5,-204 184.5,-204"/>
<polygon fill="none" stroke="black" points="184.5,-204 184.5,-222 300.5,-222 300.5,-204 184.5,-204"/>
<text text-anchor="start" x="264.5" y="-210.2" font-family="Helvetica,sans-Serif" font-size="11.00">0 rows</text>
<polygon fill="#ffffff" stroke="transparent" points="300.5,-204 300.5,-222 405.5,-222 405.5,-204 300.5,-204"/>
<polygon fill="none" stroke="black" points="300.5,-204 300.5,-222 405.5,-222 405.5,-204 300.5,-204"/>
<text text-anchor="start" x="380.5" y="-210.2" font-family="Helvetica,sans-Serif" font-size="11.00">14 &gt;</text>
</a>
</g>
</g>
<!-- m_loanproduct_provisioning_mapping&#45;&gt;m_product_loan -->
<g id="edge2" class="edge">
<title>m_loanproduct_provisioning_mapping:w&#45;&gt;m_product_loan:e</title>
<path fill="none" stroke="black" d="M444.74,-267.98C414.86,-281.63 449.83,-361 406.5,-361"/>
<polygon fill="black" stroke="black" points="453.46,-262.22 454.97,-270.08 453.4,-270.38 451.88,-262.53 453.46,-262.22"/>
<polyline fill="none" stroke="black" points="455,-266 451.07,-266.76 "/>
<ellipse fill="none" stroke="black" cx="447.93" cy="-267.37" rx="3.2" ry="3.2"/>
</g>
</g>
</svg>
