<?xml version="1.0" encoding="UTF-8" standalone="no"?>
<!DOCTYPE svg PUBLIC "-//W3C//DTD SVG 1.1//EN"
 "http://www.w3.org/Graphics/SVG/1.1/DTD/svg11.dtd">
<!-- Generated by graphviz version 2.43.0 (0)
 -->
<!-- Title: twoDegreesRelationshipsDiagram Pages: 1 -->
<svg width="964pt" height="1059pt"
 viewBox="0.00 0.00 964.00 1059.00" xmlns="http://www.w3.org/2000/svg" xmlns:xlink="http://www.w3.org/1999/xlink">
<g id="graph0" class="graph" transform="scale(1 1) rotate(0) translate(4 1055)">
<title>twoDegreesRelationshipsDiagram</title>
<polygon fill="#ffffff" stroke="transparent" points="-4,4 -4,-1055 960,-1055 960,4 -4,4"/>
<text text-anchor="middle" x="71.5" y="-7.2" font-family="Helvetica,sans-Serif" font-size="11.00">Generated by SchemaSpy</text>
<!-- acc_gl_journal_entry -->
<g id="node1" class="node">
<title>acc_gl_journal_entry</title>
<g id="a_node1"><a xlink:href="../../tables/acc_gl_journal_entry.html" xlink:title="acc_gl_journal_entry" target="_top">
<polygon fill="#ffffff" stroke="transparent" points="653,-989 653,-1047 807,-1047 807,-989 653,-989"/>
<polygon fill="#f5f5f5" stroke="transparent" points="653,-1025 653,-1047 807,-1047 807,-1025 653,-1025"/>
<polygon fill="none" stroke="black" points="653,-1025 653,-1047 807,-1047 807,-1025 653,-1025"/>
<text text-anchor="start" x="658" y="-1034.2" font-family="Helvetica,sans-Serif" font-weight="bold" font-size="11.00">acc_gl_journal_entry</text>
<text text-anchor="start" x="772" y="-1033.2" font-family="Helvetica,sans-Serif" font-size="11.00">[table]</text>
<polygon fill="none" stroke="black" points="653,-1007 653,-1025 807,-1025 807,-1007 653,-1007"/>
<text text-anchor="start" x="656" y="-1013.2" font-family="Helvetica,sans-Serif" font-size="11.00">...</text>
<polygon fill="#ffffff" stroke="transparent" points="653,-989 653,-1007 713,-1007 713,-989 653,-989"/>
<polygon fill="none" stroke="black" points="653,-989 653,-1007 713,-1007 713,-989 653,-989"/>
<text text-anchor="start" x="656" y="-995.2" font-family="Helvetica,sans-Serif" font-size="11.00">&lt; 10</text>
<polygon fill="#ffffff" stroke="transparent" points="713,-989 713,-1007 768,-1007 768,-989 713,-989"/>
<polygon fill="none" stroke="black" points="713,-989 713,-1007 768,-1007 768,-989 713,-989"/>
<text text-anchor="start" x="732" y="-995.2" font-family="Helvetica,sans-Serif" font-size="11.00">0 rows</text>
<polygon fill="#ffffff" stroke="transparent" points="768,-989 768,-1007 807,-1007 807,-989 768,-989"/>
<polygon fill="none" stroke="black" points="768,-989 768,-1007 807,-1007 807,-989 768,-989"/>
<text text-anchor="start" x="788" y="-995.2" font-family="Helvetica,sans-Serif" font-size="11.00">1 &gt;</text>
</a>
</g>
</g>
<!-- m_loan_transaction -->
<g id="node2" class="node">
<title>m_loan_transaction</title>
<g id="a_node2"><a xlink:href="../../tables/m_loan_transaction.html" xlink:title="m_loan_transaction" target="_top">
<polygon fill="#ffffff" stroke="transparent" points="203.5,-723 203.5,-891 456.5,-891 456.5,-723 203.5,-723"/>
<polygon fill="#f5f5f5" stroke="transparent" points="204,-869 204,-891 457,-891 457,-869 204,-869"/>
<polygon fill="none" stroke="black" points="204,-869 204,-891 457,-891 457,-869 204,-869"/>
<text text-anchor="start" x="209" y="-878.2" font-family="Helvetica,sans-Serif" font-weight="bold" font-size="11.00">m_loan_transaction</text>
<text text-anchor="start" x="422" y="-877.2" font-family="Helvetica,sans-Serif" font-size="11.00">[table]</text>
<polygon fill="none" stroke="black" points="204,-847 204,-869 457,-869 457,-847 204,-847"/>
<image xlink:href="../../images/primaryKeys.png" width="11px" height="12px" preserveAspectRatio="xMinYMin meet" x="209" y="-864"/>
<text text-anchor="start" x="224" y="-855.2" font-family="Helvetica,sans-Serif" font-size="11.00">id</text>
<polygon fill="#ffffff" stroke="transparent" points="204,-825 204,-847 457,-847 457,-825 204,-825"/>
<polygon fill="none" stroke="black" points="204,-825 204,-847 457,-847 457,-825 204,-825"/>
<image xlink:href="../../images/foreignKeys.png" width="11px" height="12px" preserveAspectRatio="xMinYMin meet" x="209" y="-842"/>
<text text-anchor="start" x="224" y="-833.2" font-family="Helvetica,sans-Serif" font-size="11.00">loan_id</text>
<polygon fill="#ffffff" stroke="transparent" points="204,-803 204,-825 457,-825 457,-803 204,-803"/>
<polygon fill="none" stroke="black" points="204,-803 204,-825 457,-825 457,-803 204,-803"/>
<image xlink:href="../../images/foreignKeys.png" width="11px" height="12px" preserveAspectRatio="xMinYMin meet" x="209" y="-820"/>
<text text-anchor="start" x="224" y="-811.2" font-family="Helvetica,sans-Serif" font-size="11.00">office_id</text>
<polygon fill="#ffffff" stroke="transparent" points="204,-781 204,-803 457,-803 457,-781 204,-781"/>
<polygon fill="none" stroke="black" points="204,-781 204,-803 457,-803 457,-781 204,-781"/>
<image xlink:href="../../images/foreignKeys.png" width="11px" height="12px" preserveAspectRatio="xMinYMin meet" x="209" y="-798"/>
<text text-anchor="start" x="224" y="-789.2" font-family="Helvetica,sans-Serif" font-size="11.00">payment_detail_id</text>
<polygon fill="#ffffff" stroke="transparent" points="204,-759 204,-781 457,-781 457,-759 204,-759"/>
<polygon fill="none" stroke="black" points="204,-759 204,-781 457,-781 457,-759 204,-759"/>
<text text-anchor="start" x="224" y="-767.2" font-family="Helvetica,sans-Serif" font-size="11.00">external_id</text>
<polygon fill="none" stroke="black" points="204,-741 204,-759 457,-759 457,-741 204,-741"/>
<text text-anchor="start" x="207" y="-747.2" font-family="Helvetica,sans-Serif" font-size="11.00">...</text>
<polygon fill="#ffffff" stroke="transparent" points="204,-723 204,-741 311,-741 311,-723 204,-723"/>
<polygon fill="none" stroke="black" points="204,-723 204,-741 311,-741 311,-723 204,-723"/>
<text text-anchor="start" x="207" y="-729.2" font-family="Helvetica,sans-Serif" font-size="11.00">&lt; 3</text>
<polygon fill="#ffffff" stroke="transparent" points="311,-723 311,-741 392,-741 392,-723 311,-723"/>
<polygon fill="none" stroke="black" points="311,-723 311,-741 392,-741 392,-723 311,-723"/>
<text text-anchor="start" x="356" y="-729.2" font-family="Helvetica,sans-Serif" font-size="11.00">0 rows</text>
<polygon fill="#ffffff" stroke="transparent" points="392,-723 392,-741 457,-741 457,-723 392,-723"/>
<polygon fill="none" stroke="black" points="392,-723 392,-741 457,-741 457,-723 392,-723"/>
<text text-anchor="start" x="438" y="-729.2" font-family="Helvetica,sans-Serif" font-size="11.00">8 &gt;</text>
</a>
</g>
</g>
<!-- acc_gl_journal_entry&#45;&gt;m_loan_transaction -->
<g id="edge1" class="edge">
<title>acc_gl_journal_entry:w&#45;&gt;m_loan_transaction:e</title>
<path fill="none" stroke="black" d="M637.51,-1016.11C579.7,-1016.9 550.93,-1020.68 504,-979 460.98,-940.79 515.53,-858 458,-858"/>
<polygon fill="black" stroke="black" points="644,-1016.06 652.03,-1019.6 648,-1016.03 652,-1016 652,-1016 652,-1016 648,-1016.03 651.97,-1012.4 644,-1016.06 644,-1016.06"/>
<ellipse fill="none" stroke="black" cx="640.8" cy="-1016.08" rx="3.2" ry="3.2"/>
</g>
<!-- m_office -->
<g id="node3" class="node">
<title>m_office</title>
<g id="a_node3"><a xlink:href="../../tables/m_office.html" xlink:title="m_office" target="_top">
<polygon fill="#ffffff" stroke="transparent" points="33,-938 33,-996 123,-996 123,-938 33,-938"/>
<polygon fill="#f5f5f5" stroke="transparent" points="33,-974 33,-996 123,-996 123,-974 33,-974"/>
<polygon fill="none" stroke="black" points="33,-974 33,-996 123,-996 123,-974 33,-974"/>
<text text-anchor="start" x="38" y="-983.2" font-family="Helvetica,sans-Serif" font-weight="bold" font-size="11.00">m_office</text>
<text text-anchor="start" x="88" y="-982.2" font-family="Helvetica,sans-Serif" font-size="11.00">[table]</text>
<polygon fill="none" stroke="black" points="33,-956 33,-974 123,-974 123,-956 33,-956"/>
<text text-anchor="start" x="36" y="-962.2" font-family="Helvetica,sans-Serif" font-size="11.00">...</text>
<polygon fill="#ffffff" stroke="transparent" points="33,-938 33,-956 55,-956 55,-938 33,-938"/>
<polygon fill="none" stroke="black" points="33,-938 33,-956 55,-956 55,-938 33,-938"/>
<text text-anchor="start" x="36" y="-944.2" font-family="Helvetica,sans-Serif" font-size="11.00">&lt; 1</text>
<polygon fill="#ffffff" stroke="transparent" points="55,-938 55,-956 94,-956 94,-938 55,-938"/>
<polygon fill="none" stroke="black" points="55,-938 55,-956 94,-956 94,-938 55,-938"/>
<text text-anchor="start" x="58" y="-944.2" font-family="Helvetica,sans-Serif" font-size="11.00">0 rows</text>
<polygon fill="#ffffff" stroke="transparent" points="94,-938 94,-956 123,-956 123,-938 94,-938"/>
<polygon fill="none" stroke="black" points="94,-938 94,-956 123,-956 123,-938 94,-938"/>
<text text-anchor="start" x="98" y="-944.2" font-family="Helvetica,sans-Serif" font-size="11.00">20 &gt;</text>
</a>
</g>
</g>
<!-- acc_gl_journal_entry&#45;&gt;m_office -->
<g id="edge2" class="edge">
<title>acc_gl_journal_entry:w&#45;&gt;m_office:e</title>
<path fill="none" stroke="black" d="M637.38,-1015.93C413.79,-1013.88 354.81,-965 124,-965"/>
<polygon fill="black" stroke="black" points="644,-1015.96 651.98,-1019.6 648,-1015.98 652,-1016 652,-1016 652,-1016 648,-1015.98 652.02,-1012.4 644,-1015.96 644,-1015.96"/>
<ellipse fill="none" stroke="black" cx="640.8" cy="-1015.95" rx="3.2" ry="3.2"/>
</g>
<!-- m_payment_detail -->
<g id="node4" class="node">
<title>m_payment_detail</title>
<g id="a_node4"><a xlink:href="../../tables/m_payment_detail.html" xlink:title="m_payment_detail" target="_top">
<polygon fill="#ffffff" stroke="transparent" points="8,-828 8,-886 148,-886 148,-828 8,-828"/>
<polygon fill="#f5f5f5" stroke="transparent" points="8,-864 8,-886 148,-886 148,-864 8,-864"/>
<polygon fill="none" stroke="black" points="8,-864 8,-886 148,-886 148,-864 8,-864"/>
<text text-anchor="start" x="13" y="-873.2" font-family="Helvetica,sans-Serif" font-weight="bold" font-size="11.00">m_payment_detail</text>
<text text-anchor="start" x="113" y="-872.2" font-family="Helvetica,sans-Serif" font-size="11.00">[table]</text>
<polygon fill="none" stroke="black" points="8,-846 8,-864 148,-864 148,-846 8,-846"/>
<text text-anchor="start" x="11" y="-852.2" font-family="Helvetica,sans-Serif" font-size="11.00">...</text>
<polygon fill="#ffffff" stroke="transparent" points="8,-828 8,-846 58,-846 58,-828 8,-828"/>
<polygon fill="none" stroke="black" points="8,-828 8,-846 58,-846 58,-828 8,-828"/>
<text text-anchor="start" x="11" y="-834.2" font-family="Helvetica,sans-Serif" font-size="11.00">&lt; 1</text>
<polygon fill="#ffffff" stroke="transparent" points="58,-828 58,-846 111,-846 111,-828 58,-828"/>
<polygon fill="none" stroke="black" points="58,-828 58,-846 111,-846 111,-828 58,-828"/>
<text text-anchor="start" x="75" y="-834.2" font-family="Helvetica,sans-Serif" font-size="11.00">0 rows</text>
<polygon fill="#ffffff" stroke="transparent" points="111,-828 111,-846 148,-846 148,-828 111,-828"/>
<polygon fill="none" stroke="black" points="111,-828 111,-846 148,-846 148,-828 111,-828"/>
<text text-anchor="start" x="129" y="-834.2" font-family="Helvetica,sans-Serif" font-size="11.00">3 &gt;</text>
</a>
</g>
</g>
<!-- acc_gl_journal_entry&#45;&gt;m_payment_detail -->
<g id="edge3" class="edge">
<title>acc_gl_journal_entry:w&#45;&gt;m_payment_detail:e</title>
<path fill="none" stroke="black" d="M637.36,-1015.76C581.42,-1013.83 562.88,-1000.37 504,-979 488.68,-973.44 486.41,-968.32 471,-963 349.78,-921.18 299.03,-967.86 189,-902 165.46,-887.91 176.43,-855 149,-855"/>
<polygon fill="black" stroke="black" points="644,-1015.87 651.94,-1019.6 648,-1015.93 652,-1016 652,-1016 652,-1016 648,-1015.93 652.06,-1012.4 644,-1015.87 644,-1015.87"/>
<ellipse fill="none" stroke="black" cx="640.8" cy="-1015.82" rx="3.2" ry="3.2"/>
</g>
<!-- m_loan_transaction&#45;&gt;m_office -->
<g id="edge15" class="edge">
<title>m_loan_transaction:w&#45;&gt;m_office:e</title>
<path fill="none" stroke="black" d="M188.46,-816.37C137.2,-835.58 194.12,-965 124,-965"/>
<polygon fill="black" stroke="black" points="195.1,-815.29 203.58,-817.55 199.05,-814.64 203,-814 203,-814 203,-814 199.05,-814.64 202.42,-810.45 195.1,-815.29 195.1,-815.29"/>
<ellipse fill="none" stroke="black" cx="191.95" cy="-815.8" rx="3.2" ry="3.2"/>
</g>
<!-- m_loan_transaction&#45;&gt;m_payment_detail -->
<g id="edge16" class="edge">
<title>m_loan_transaction:w&#45;&gt;m_payment_detail:e</title>
<path fill="none" stroke="black" d="M188.92,-796.53C171.08,-810.98 179.83,-855 149,-855"/>
<polygon fill="black" stroke="black" points="195.38,-794.45 204.1,-795.43 199.19,-793.23 203,-792 203,-792 203,-792 199.19,-793.23 201.9,-788.57 195.38,-794.45 195.38,-794.45"/>
<ellipse fill="none" stroke="black" cx="192.34" cy="-795.43" rx="3.2" ry="3.2"/>
</g>
<!-- m_loan -->
<g id="node9" class="node">
<title>m_loan</title>
<g id="a_node9"><a xlink:href="../../tables/m_loan.html" xlink:title="m_loan" target="_top">
<polygon fill="#ffffff" stroke="transparent" points="30.5,-594 30.5,-652 125.5,-652 125.5,-594 30.5,-594"/>
<polygon fill="#f5f5f5" stroke="transparent" points="31,-630 31,-652 126,-652 126,-630 31,-630"/>
<polygon fill="none" stroke="black" points="31,-630 31,-652 126,-652 126,-630 31,-630"/>
<text text-anchor="start" x="36" y="-639.2" font-family="Helvetica,sans-Serif" font-weight="bold" font-size="11.00">m_loan</text>
<text text-anchor="start" x="91" y="-638.2" font-family="Helvetica,sans-Serif" font-size="11.00">[table]</text>
<polygon fill="none" stroke="black" points="31,-612 31,-630 126,-630 126,-612 31,-612"/>
<text text-anchor="start" x="34" y="-618.2" font-family="Helvetica,sans-Serif" font-size="11.00">...</text>
<polygon fill="#ffffff" stroke="transparent" points="31,-594 31,-612 59,-612 59,-594 31,-594"/>
<polygon fill="none" stroke="black" points="31,-594 31,-612 59,-612 59,-594 31,-594"/>
<text text-anchor="start" x="34" y="-600.2" font-family="Helvetica,sans-Serif" font-size="11.00">&lt; 15</text>
<polygon fill="#ffffff" stroke="transparent" points="59,-594 59,-612 98,-612 98,-594 59,-594"/>
<polygon fill="none" stroke="black" points="59,-594 59,-612 98,-612 98,-594 59,-594"/>
<text text-anchor="start" x="62" y="-600.2" font-family="Helvetica,sans-Serif" font-size="11.00">0 rows</text>
<polygon fill="#ffffff" stroke="transparent" points="98,-594 98,-612 126,-612 126,-594 98,-594"/>
<polygon fill="none" stroke="black" points="98,-594 98,-612 126,-612 126,-594 98,-594"/>
<text text-anchor="start" x="101" y="-600.2" font-family="Helvetica,sans-Serif" font-size="11.00">24 &gt;</text>
</a>
</g>
</g>
<!-- m_loan_transaction&#45;&gt;m_loan -->
<g id="edge14" class="edge">
<title>m_loan_transaction:w&#45;&gt;m_loan:e</title>
<path fill="none" stroke="black" d="M188.34,-834.14C114.83,-813.13 222.81,-621 127,-621"/>
<polygon fill="black" stroke="black" points="195.06,-834.99 202.55,-839.57 199.03,-835.5 203,-836 203,-836 203,-836 199.03,-835.5 203.45,-832.43 195.06,-834.99 195.06,-834.99"/>
<ellipse fill="none" stroke="black" cx="191.89" cy="-834.59" rx="3.2" ry="3.2"/>
</g>
<!-- m_account_transfer_transaction -->
<g id="node5" class="node">
<title>m_account_transfer_transaction</title>
<g id="a_node5"><a xlink:href="../../tables/m_account_transfer_transaction.html" xlink:title="m_account_transfer_transaction" target="_top">
<polygon fill="#ffffff" stroke="transparent" points="622.5,-910 622.5,-968 837.5,-968 837.5,-910 622.5,-910"/>
<polygon fill="#f5f5f5" stroke="transparent" points="623,-946 623,-968 838,-968 838,-946 623,-946"/>
<polygon fill="none" stroke="black" points="623,-946 623,-968 838,-968 838,-946 623,-946"/>
<text text-anchor="start" x="628" y="-955.2" font-family="Helvetica,sans-Serif" font-weight="bold" font-size="11.00">m_account_transfer_transaction</text>
<text text-anchor="start" x="803" y="-954.2" font-family="Helvetica,sans-Serif" font-size="11.00">[table]</text>
<polygon fill="none" stroke="black" points="623,-928 623,-946 838,-946 838,-928 623,-928"/>
<text text-anchor="start" x="626" y="-934.2" font-family="Helvetica,sans-Serif" font-size="11.00">...</text>
<polygon fill="#ffffff" stroke="transparent" points="623,-910 623,-928 715,-928 715,-910 623,-910"/>
<polygon fill="none" stroke="black" points="623,-910 623,-928 715,-928 715,-910 623,-910"/>
<text text-anchor="start" x="626" y="-916.2" font-family="Helvetica,sans-Serif" font-size="11.00">&lt; 5</text>
<polygon fill="#ffffff" stroke="transparent" points="715,-910 715,-928 789,-928 789,-910 715,-910"/>
<polygon fill="none" stroke="black" points="715,-910 715,-928 789,-928 789,-910 715,-910"/>
<text text-anchor="start" x="753" y="-916.2" font-family="Helvetica,sans-Serif" font-size="11.00">0 rows</text>
<polygon fill="#ffffff" stroke="transparent" points="789,-910 789,-928 838,-928 838,-910 789,-910"/>
<polygon fill="none" stroke="black" points="789,-910 789,-928 838,-928 838,-910 789,-910"/>
<text text-anchor="start" x="828" y="-916.2" font-family="Helvetica,sans-Serif" font-size="11.00"> &#160;</text>
</a>
</g>
</g>
<!-- m_account_transfer_transaction&#45;&gt;m_loan_transaction -->
<g id="edge4" class="edge">
<title>m_account_transfer_transaction:w&#45;&gt;m_loan_transaction:e</title>
<path fill="none" stroke="black" d="M607.53,-935.21C563.87,-929.04 547.18,-918.83 504,-894 480,-880.2 485.68,-852 458,-858"/>
<polygon fill="black" stroke="black" points="614.06,-936.02 621.56,-940.57 618.03,-936.51 622,-937 622,-937 622,-937 618.03,-936.51 622.44,-933.43 614.06,-936.02 614.06,-936.02"/>
<ellipse fill="none" stroke="black" cx="610.89" cy="-935.62" rx="3.2" ry="3.2"/>
</g>
<!-- m_account_transfer_transaction&#45;&gt;m_loan_transaction -->
<g id="edge5" class="edge">
<title>m_account_transfer_transaction:w&#45;&gt;m_loan_transaction:e</title>
<path fill="none" stroke="black" d="M607.53,-938.53C563.87,-942.04 547.18,-931.83 504,-907 480,-893.2 485.68,-865 458,-858"/>
<polygon fill="black" stroke="black" points="614.04,-937.84 622.38,-940.58 618.02,-937.42 622,-937 622,-937 622,-937 618.02,-937.42 621.62,-933.42 614.04,-937.84 614.04,-937.84"/>
<ellipse fill="none" stroke="black" cx="610.86" cy="-938.18" rx="3.2" ry="3.2"/>
</g>
<!-- m_guarantor_transaction -->
<g id="node6" class="node">
<title>m_guarantor_transaction</title>
<g id="a_node6"><a xlink:href="../../tables/m_guarantor_transaction.html" xlink:title="m_guarantor_transaction" target="_top">
<polygon fill="#ffffff" stroke="transparent" points="641.5,-831 641.5,-889 818.5,-889 818.5,-831 641.5,-831"/>
<polygon fill="#f5f5f5" stroke="transparent" points="642,-867 642,-889 819,-889 819,-867 642,-867"/>
<polygon fill="none" stroke="black" points="642,-867 642,-889 819,-889 819,-867 642,-867"/>
<text text-anchor="start" x="647" y="-876.2" font-family="Helvetica,sans-Serif" font-weight="bold" font-size="11.00">m_guarantor_transaction</text>
<text text-anchor="start" x="784" y="-875.2" font-family="Helvetica,sans-Serif" font-size="11.00">[table]</text>
<polygon fill="none" stroke="black" points="642,-849 642,-867 819,-867 819,-849 642,-849"/>
<text text-anchor="start" x="645" y="-855.2" font-family="Helvetica,sans-Serif" font-size="11.00">...</text>
<polygon fill="#ffffff" stroke="transparent" points="642,-831 642,-849 715,-849 715,-831 642,-831"/>
<polygon fill="none" stroke="black" points="642,-831 642,-849 715,-849 715,-831 642,-831"/>
<text text-anchor="start" x="645" y="-837.2" font-family="Helvetica,sans-Serif" font-size="11.00">&lt; 3</text>
<polygon fill="#ffffff" stroke="transparent" points="715,-831 715,-849 780,-849 780,-831 715,-831"/>
<polygon fill="none" stroke="black" points="715,-831 715,-849 780,-849 780,-831 715,-831"/>
<text text-anchor="start" x="744" y="-837.2" font-family="Helvetica,sans-Serif" font-size="11.00">0 rows</text>
<polygon fill="#ffffff" stroke="transparent" points="780,-831 780,-849 819,-849 819,-831 780,-831"/>
<polygon fill="none" stroke="black" points="780,-831 780,-849 819,-849 819,-831 780,-831"/>
<text text-anchor="start" x="809" y="-837.2" font-family="Helvetica,sans-Serif" font-size="11.00"> &#160;</text>
</a>
</g>
</g>
<!-- m_guarantor_transaction&#45;&gt;m_loan_transaction -->
<g id="edge6" class="edge">
<title>m_guarantor_transaction:w&#45;&gt;m_loan_transaction:e</title>
<path fill="none" stroke="black" d="M626.44,-858C556.89,-858 534.25,-858 458,-858"/>
<polygon fill="black" stroke="black" points="633,-858 641,-861.6 637,-858 641,-858 641,-858 641,-858 637,-858 641,-854.4 633,-858 633,-858"/>
<ellipse fill="none" stroke="black" cx="629.8" cy="-858" rx="3.2" ry="3.2"/>
</g>
<!-- m_loan_charge_paid_by -->
<g id="node7" class="node">
<title>m_loan_charge_paid_by</title>
<g id="a_node7"><a xlink:href="../../tables/m_loan_charge_paid_by.html" xlink:title="m_loan_charge_paid_by" target="_top">
<polygon fill="#ffffff" stroke="transparent" points="644,-752 644,-810 816,-810 816,-752 644,-752"/>
<polygon fill="#f5f5f5" stroke="transparent" points="644,-788 644,-810 816,-810 816,-788 644,-788"/>
<polygon fill="none" stroke="black" points="644,-788 644,-810 816,-810 816,-788 644,-788"/>
<text text-anchor="start" x="649" y="-797.2" font-family="Helvetica,sans-Serif" font-weight="bold" font-size="11.00">m_loan_charge_paid_by</text>
<text text-anchor="start" x="781" y="-796.2" font-family="Helvetica,sans-Serif" font-size="11.00">[table]</text>
<polygon fill="none" stroke="black" points="644,-770 644,-788 816,-788 816,-770 644,-770"/>
<text text-anchor="start" x="647" y="-776.2" font-family="Helvetica,sans-Serif" font-size="11.00">...</text>
<polygon fill="#ffffff" stroke="transparent" points="644,-752 644,-770 715,-770 715,-752 644,-752"/>
<polygon fill="none" stroke="black" points="644,-752 644,-770 715,-770 715,-752 644,-752"/>
<text text-anchor="start" x="647" y="-758.2" font-family="Helvetica,sans-Serif" font-size="11.00">&lt; 2</text>
<polygon fill="#ffffff" stroke="transparent" points="715,-752 715,-770 778,-770 778,-752 715,-752"/>
<polygon fill="none" stroke="black" points="715,-752 715,-770 778,-770 778,-752 715,-752"/>
<text text-anchor="start" x="742" y="-758.2" font-family="Helvetica,sans-Serif" font-size="11.00">0 rows</text>
<polygon fill="#ffffff" stroke="transparent" points="778,-752 778,-770 816,-770 816,-752 778,-752"/>
<polygon fill="none" stroke="black" points="778,-752 778,-770 816,-770 816,-752 778,-752"/>
<text text-anchor="start" x="806" y="-758.2" font-family="Helvetica,sans-Serif" font-size="11.00"> &#160;</text>
</a>
</g>
</g>
<!-- m_loan_charge_paid_by&#45;&gt;m_loan_transaction -->
<g id="edge7" class="edge">
<title>m_loan_charge_paid_by:w&#45;&gt;m_loan_transaction:e</title>
<path fill="none" stroke="black" d="M628.36,-779.23C575.43,-781.02 556.51,-793.3 504,-821 480.79,-833.24 484.24,-858 458,-858"/>
<polygon fill="black" stroke="black" points="635,-779.13 643.06,-782.6 639,-779.06 643,-779 643,-779 643,-779 639,-779.06 642.94,-775.4 635,-779.13 635,-779.13"/>
<ellipse fill="none" stroke="black" cx="631.8" cy="-779.18" rx="3.2" ry="3.2"/>
</g>
<!-- m_loan_collateral_management -->
<g id="node8" class="node">
<title>m_loan_collateral_management</title>
<g id="a_node8"><a xlink:href="../../tables/m_loan_collateral_management.html" xlink:title="m_loan_collateral_management" target="_top">
<polygon fill="#ffffff" stroke="transparent" points="625,-594 625,-652 835,-652 835,-594 625,-594"/>
<polygon fill="#f5f5f5" stroke="transparent" points="625,-630 625,-652 835,-652 835,-630 625,-630"/>
<polygon fill="none" stroke="black" points="625,-630 625,-652 835,-652 835,-630 625,-630"/>
<text text-anchor="start" x="630" y="-639.2" font-family="Helvetica,sans-Serif" font-weight="bold" font-size="11.00">m_loan_collateral_management</text>
<text text-anchor="start" x="800" y="-638.2" font-family="Helvetica,sans-Serif" font-size="11.00">[table]</text>
<polygon fill="none" stroke="black" points="625,-612 625,-630 835,-630 835,-612 625,-612"/>
<text text-anchor="start" x="628" y="-618.2" font-family="Helvetica,sans-Serif" font-size="11.00">...</text>
<polygon fill="#ffffff" stroke="transparent" points="625,-594 625,-612 715,-612 715,-594 625,-594"/>
<polygon fill="none" stroke="black" points="625,-594 625,-612 715,-612 715,-594 625,-594"/>
<text text-anchor="start" x="628" y="-600.2" font-family="Helvetica,sans-Serif" font-size="11.00">&lt; 3</text>
<polygon fill="#ffffff" stroke="transparent" points="715,-594 715,-612 788,-612 788,-594 715,-594"/>
<polygon fill="none" stroke="black" points="715,-594 715,-612 788,-612 788,-594 715,-594"/>
<text text-anchor="start" x="752" y="-600.2" font-family="Helvetica,sans-Serif" font-size="11.00">0 rows</text>
<polygon fill="#ffffff" stroke="transparent" points="788,-594 788,-612 835,-612 835,-594 788,-594"/>
<polygon fill="none" stroke="black" points="788,-594 788,-612 835,-612 835,-594 788,-594"/>
<text text-anchor="start" x="825" y="-600.2" font-family="Helvetica,sans-Serif" font-size="11.00"> &#160;</text>
</a>
</g>
</g>
<!-- m_loan_collateral_management&#45;&gt;m_loan_transaction -->
<g id="edge9" class="edge">
<title>m_loan_collateral_management:w&#45;&gt;m_loan_transaction:e</title>
<path fill="none" stroke="black" d="M609.49,-621.03C562.78,-621.34 538.41,-624.78 504,-663 444.43,-729.18 547.05,-858 458,-858"/>
<polygon fill="black" stroke="black" points="616,-621.02 624.01,-624.6 620,-621.01 624,-621 624,-621 624,-621 620,-621.01 623.99,-617.4 616,-621.02 616,-621.02"/>
<ellipse fill="none" stroke="black" cx="612.8" cy="-621.02" rx="3.2" ry="3.2"/>
</g>
<!-- m_loan_collateral_management&#45;&gt;m_loan -->
<g id="edge8" class="edge">
<title>m_loan_collateral_management:w&#45;&gt;m_loan:e</title>
<path fill="none" stroke="black" d="M609.36,-621C400.55,-621 342.93,-621 127,-621"/>
<polygon fill="black" stroke="black" points="616,-621 624,-624.6 620,-621 624,-621 624,-621 624,-621 620,-621 624,-617.4 616,-621 616,-621"/>
<ellipse fill="none" stroke="black" cx="612.8" cy="-621" rx="3.2" ry="3.2"/>
</g>
<!-- m_loan_installment_charge -->
<g id="node10" class="node">
<title>m_loan_installment_charge</title>
<g id="a_node10"><a xlink:href="../../tables/m_loan_installment_charge.html" xlink:title="m_loan_installment_charge" target="_top">
<polygon fill="#ffffff" stroke="transparent" points="635.5,-274 635.5,-332 824.5,-332 824.5,-274 635.5,-274"/>
<polygon fill="#f5f5f5" stroke="transparent" points="636,-310 636,-332 825,-332 825,-310 636,-310"/>
<polygon fill="none" stroke="black" points="636,-310 636,-332 825,-332 825,-310 636,-310"/>
<text text-anchor="start" x="641" y="-319.2" font-family="Helvetica,sans-Serif" font-weight="bold" font-size="11.00">m_loan_installment_charge</text>
<text text-anchor="start" x="790" y="-318.2" font-family="Helvetica,sans-Serif" font-size="11.00">[table]</text>
<polygon fill="none" stroke="black" points="636,-292 636,-310 825,-310 825,-292 636,-292"/>
<text text-anchor="start" x="639" y="-298.2" font-family="Helvetica,sans-Serif" font-size="11.00">...</text>
<polygon fill="#ffffff" stroke="transparent" points="636,-274 636,-292 715,-292 715,-274 636,-274"/>
<polygon fill="none" stroke="black" points="636,-274 636,-292 715,-292 715,-274 636,-274"/>
<text text-anchor="start" x="639" y="-280.2" font-family="Helvetica,sans-Serif" font-size="11.00">&lt; 2</text>
<polygon fill="#ffffff" stroke="transparent" points="715,-274 715,-292 783,-292 783,-274 715,-274"/>
<polygon fill="none" stroke="black" points="715,-274 715,-292 783,-292 783,-274 715,-274"/>
<text text-anchor="start" x="747" y="-280.2" font-family="Helvetica,sans-Serif" font-size="11.00">0 rows</text>
<polygon fill="#ffffff" stroke="transparent" points="783,-274 783,-292 825,-292 825,-274 783,-274"/>
<polygon fill="none" stroke="black" points="783,-274 783,-292 825,-292 825,-274 783,-274"/>
<text text-anchor="start" x="815" y="-280.2" font-family="Helvetica,sans-Serif" font-size="11.00"> &#160;</text>
</a>
</g>
</g>
<!-- m_loan_repayment_schedule -->
<g id="node11" class="node">
<title>m_loan_repayment_schedule</title>
<g id="a_node11"><a xlink:href="../../tables/m_loan_repayment_schedule.html" xlink:title="m_loan_repayment_schedule" target="_top">
<polygon fill="#ffffff" stroke="transparent" points="197,-196 197,-298 463,-298 463,-196 197,-196"/>
<polygon fill="#f5f5f5" stroke="transparent" points="197,-276 197,-298 463,-298 463,-276 197,-276"/>
<polygon fill="none" stroke="black" points="197,-276 197,-298 463,-298 463,-276 197,-276"/>
<text text-anchor="start" x="202" y="-285.2" font-family="Helvetica,sans-Serif" font-weight="bold" font-size="11.00">m_loan_repayment_schedule</text>
<text text-anchor="start" x="428" y="-284.2" font-family="Helvetica,sans-Serif" font-size="11.00">[table]</text>
<polygon fill="none" stroke="black" points="197,-254 197,-276 463,-276 463,-254 197,-254"/>
<image xlink:href="../../images/primaryKeys.png" width="11px" height="12px" preserveAspectRatio="xMinYMin meet" x="202" y="-271"/>
<text text-anchor="start" x="217" y="-262.2" font-family="Helvetica,sans-Serif" font-size="11.00">id</text>
<polygon fill="#ffffff" stroke="transparent" points="197,-232 197,-254 463,-254 463,-232 197,-232"/>
<polygon fill="none" stroke="black" points="197,-232 197,-254 463,-254 463,-232 197,-232"/>
<image xlink:href="../../images/foreignKeys.png" width="11px" height="12px" preserveAspectRatio="xMinYMin meet" x="202" y="-249"/>
<text text-anchor="start" x="217" y="-240.2" font-family="Helvetica,sans-Serif" font-size="11.00">loan_id</text>
<polygon fill="none" stroke="black" points="197,-214 197,-232 463,-232 463,-214 197,-214"/>
<text text-anchor="start" x="200" y="-220.2" font-family="Helvetica,sans-Serif" font-size="11.00">...</text>
<polygon fill="#ffffff" stroke="transparent" points="197,-196 197,-214 310,-214 310,-196 197,-196"/>
<polygon fill="none" stroke="black" points="197,-196 197,-214 310,-214 310,-196 197,-196"/>
<text text-anchor="start" x="200" y="-202.2" font-family="Helvetica,sans-Serif" font-size="11.00">&lt; 1</text>
<polygon fill="#ffffff" stroke="transparent" points="310,-196 310,-214 395,-214 395,-196 310,-196"/>
<polygon fill="none" stroke="black" points="310,-196 310,-214 395,-214 395,-196 310,-196"/>
<text text-anchor="start" x="359" y="-202.2" font-family="Helvetica,sans-Serif" font-size="11.00">0 rows</text>
<polygon fill="#ffffff" stroke="transparent" points="395,-196 395,-214 463,-214 463,-196 395,-196"/>
<polygon fill="none" stroke="black" points="395,-196 395,-214 463,-214 463,-196 395,-196"/>
<text text-anchor="start" x="444" y="-202.2" font-family="Helvetica,sans-Serif" font-size="11.00">5 &gt;</text>
</a>
</g>
</g>
<!-- m_loan_installment_charge&#45;&gt;m_loan_repayment_schedule -->
<g id="edge10" class="edge">
<title>m_loan_installment_charge:w&#45;&gt;m_loan_repayment_schedule:e</title>
<path fill="none" stroke="black" d="M620.31,-300.54C554.98,-296.38 536.51,-265 464,-265"/>
<polygon fill="black" stroke="black" points="627,-300.75 634.89,-304.6 631,-300.88 635,-301 635,-301 635,-301 631,-300.88 635.11,-297.4 627,-300.75 627,-300.75"/>
<ellipse fill="none" stroke="black" cx="623.81" cy="-300.65" rx="3.2" ry="3.2"/>
</g>
<!-- m_loan_repayment_schedule&#45;&gt;m_loan -->
<g id="edge13" class="edge">
<title>m_loan_repayment_schedule:w&#45;&gt;m_loan:e</title>
<path fill="none" stroke="black" d="M181.26,-244.08C41.83,-266.26 292.44,-621 127,-621"/>
<polygon fill="black" stroke="black" points="188.02,-243.59 196.26,-246.59 192.01,-243.29 196,-243 196,-243 196,-243 192.01,-243.29 195.74,-239.41 188.02,-243.59 188.02,-243.59"/>
<ellipse fill="none" stroke="black" cx="184.83" cy="-243.82" rx="3.2" ry="3.2"/>
</g>
<!-- m_loan_interest_recalculation_additional_details -->
<g id="node12" class="node">
<title>m_loan_interest_recalculation_additional_details</title>
<g id="a_node12"><a xlink:href="../../tables/m_loan_interest_recalculation_additional_details.html" xlink:title="m_loan_interest_recalculation_additional_details" target="_top">
<polygon fill="#ffffff" stroke="transparent" points="580,-195 580,-253 880,-253 880,-195 580,-195"/>
<polygon fill="#f5f5f5" stroke="transparent" points="580,-231 580,-253 880,-253 880,-231 580,-231"/>
<polygon fill="none" stroke="black" points="580,-231 580,-253 880,-253 880,-231 580,-231"/>
<text text-anchor="start" x="585" y="-240.2" font-family="Helvetica,sans-Serif" font-weight="bold" font-size="11.00">m_loan_interest_recalculation_additional_details</text>
<text text-anchor="start" x="845" y="-239.2" font-family="Helvetica,sans-Serif" font-size="11.00">[table]</text>
<polygon fill="none" stroke="black" points="580,-213 580,-231 880,-231 880,-213 580,-213"/>
<text text-anchor="start" x="583" y="-219.2" font-family="Helvetica,sans-Serif" font-size="11.00">...</text>
<polygon fill="#ffffff" stroke="transparent" points="580,-195 580,-213 715,-213 715,-195 580,-195"/>
<polygon fill="none" stroke="black" points="580,-195 580,-213 715,-213 715,-195 580,-195"/>
<text text-anchor="start" x="583" y="-201.2" font-family="Helvetica,sans-Serif" font-size="11.00">&lt; 1</text>
<polygon fill="#ffffff" stroke="transparent" points="715,-195 715,-213 810,-213 810,-195 715,-195"/>
<polygon fill="none" stroke="black" points="715,-195 715,-213 810,-213 810,-195 715,-195"/>
<text text-anchor="start" x="774" y="-201.2" font-family="Helvetica,sans-Serif" font-size="11.00">0 rows</text>
<polygon fill="#ffffff" stroke="transparent" points="810,-195 810,-213 880,-213 880,-195 810,-195"/>
<polygon fill="none" stroke="black" points="810,-195 810,-213 880,-213 880,-195 810,-195"/>
<text text-anchor="start" x="870" y="-201.2" font-family="Helvetica,sans-Serif" font-size="11.00"> &#160;</text>
</a>
</g>
</g>
<!-- m_loan_interest_recalculation_additional_details&#45;&gt;m_loan_repayment_schedule -->
<g id="edge11" class="edge">
<title>m_loan_interest_recalculation_additional_details:w&#45;&gt;m_loan_repayment_schedule:e</title>
<path fill="none" stroke="black" d="M564.59,-223.11C522.86,-229.84 513.34,-265 464,-265"/>
<polygon fill="black" stroke="black" points="571.02,-222.61 579.28,-225.59 575.01,-222.31 579,-222 579,-222 579,-222 575.01,-222.31 578.72,-218.41 571.02,-222.61 571.02,-222.61"/>
<ellipse fill="none" stroke="black" cx="567.83" cy="-222.86" rx="3.2" ry="3.2"/>
</g>
<!-- m_loan_overdue_installment_charge -->
<g id="node13" class="node">
<title>m_loan_overdue_installment_charge</title>
<g id="a_node13"><a xlink:href="../../tables/m_loan_overdue_installment_charge.html" xlink:title="m_loan_overdue_installment_charge" target="_top">
<polygon fill="#ffffff" stroke="transparent" points="611.5,-116 611.5,-174 848.5,-174 848.5,-116 611.5,-116"/>
<polygon fill="#f5f5f5" stroke="transparent" points="612,-152 612,-174 849,-174 849,-152 612,-152"/>
<polygon fill="none" stroke="black" points="612,-152 612,-174 849,-174 849,-152 612,-152"/>
<text text-anchor="start" x="617" y="-161.2" font-family="Helvetica,sans-Serif" font-weight="bold" font-size="11.00">m_loan_overdue_installment_charge</text>
<text text-anchor="start" x="814" y="-160.2" font-family="Helvetica,sans-Serif" font-size="11.00">[table]</text>
<polygon fill="none" stroke="black" points="612,-134 612,-152 849,-152 849,-134 612,-134"/>
<text text-anchor="start" x="615" y="-140.2" font-family="Helvetica,sans-Serif" font-size="11.00">...</text>
<polygon fill="#ffffff" stroke="transparent" points="612,-116 612,-134 715,-134 715,-116 612,-116"/>
<polygon fill="none" stroke="black" points="612,-116 612,-134 715,-134 715,-116 612,-116"/>
<text text-anchor="start" x="615" y="-122.2" font-family="Helvetica,sans-Serif" font-size="11.00">&lt; 2</text>
<polygon fill="#ffffff" stroke="transparent" points="715,-116 715,-134 795,-134 795,-116 715,-116"/>
<polygon fill="none" stroke="black" points="715,-116 715,-134 795,-134 795,-116 715,-116"/>
<text text-anchor="start" x="759" y="-122.2" font-family="Helvetica,sans-Serif" font-size="11.00">0 rows</text>
<polygon fill="#ffffff" stroke="transparent" points="795,-116 795,-134 849,-134 849,-116 795,-116"/>
<polygon fill="none" stroke="black" points="795,-116 795,-134 849,-134 849,-116 795,-116"/>
<text text-anchor="start" x="839" y="-122.2" font-family="Helvetica,sans-Serif" font-size="11.00"> &#160;</text>
</a>
</g>
</g>
<!-- m_loan_overdue_installment_charge&#45;&gt;m_loan_repayment_schedule -->
<g id="edge12" class="edge">
<title>m_loan_overdue_installment_charge:w&#45;&gt;m_loan_repayment_schedule:e</title>
<path fill="none" stroke="black" d="M596.43,-143.23C556.13,-144.65 537.82,-153.18 504,-184 474.32,-211.04 504.15,-265 464,-265"/>
<polygon fill="black" stroke="black" points="603,-143.13 611.06,-146.6 607,-143.06 611,-143 611,-143 611,-143 607,-143.06 610.94,-139.4 603,-143.13 603,-143.13"/>
<ellipse fill="none" stroke="black" cx="599.8" cy="-143.18" rx="3.2" ry="3.2"/>
</g>
<!-- m_loan_transaction_repayment_schedule_mapping -->
<g id="node14" class="node">
<title>m_loan_transaction_repayment_schedule_mapping</title>
<g id="a_node14"><a xlink:href="../../tables/m_loan_transaction_repayment_schedule_mapping.html" xlink:title="m_loan_transaction_repayment_schedule_mapping" target="_top">
<polygon fill="#ffffff" stroke="transparent" points="512,-353 512,-573 948,-573 948,-353 512,-353"/>
<polygon fill="#f5f5f5" stroke="transparent" points="514,-549 514,-571 946,-571 946,-549 514,-549"/>
<polygon fill="none" stroke="black" points="514,-549 514,-571 946,-571 946,-549 514,-549"/>
<text text-anchor="start" x="519" y="-558.2" font-family="Helvetica,sans-Serif" font-weight="bold" font-size="11.00">m_loan_transaction_repayment_schedule_mapping</text>
<text text-anchor="start" x="911" y="-557.2" font-family="Helvetica,sans-Serif" font-size="11.00">[table]</text>
<polygon fill="none" stroke="black" points="514,-527 514,-549 876,-549 876,-527 514,-527"/>
<image xlink:href="../../images/primaryKeys.png" width="11px" height="12px" preserveAspectRatio="xMinYMin meet" x="519" y="-544"/>
<text text-anchor="start" x="534" y="-535.2" font-family="Helvetica,sans-Serif" font-size="11.00">id</text>
<polygon fill="none" stroke="black" points="876,-527 876,-549 946,-549 946,-527 876,-527"/>
<text text-anchor="start" x="879" y="-535.2" font-family="Helvetica,sans-Serif" font-size="11.00">bigint[19]</text>
<polygon fill="#ffffff" stroke="transparent" points="514,-505 514,-527 876,-527 876,-505 514,-505"/>
<polygon fill="none" stroke="black" points="514,-505 514,-527 876,-527 876,-505 514,-505"/>
<image xlink:href="../../images/foreignKeys.png" width="11px" height="12px" preserveAspectRatio="xMinYMin meet" x="519" y="-522"/>
<text text-anchor="start" x="534" y="-513.2" font-family="Helvetica,sans-Serif" font-size="11.00">loan_transaction_id</text>
<polygon fill="none" stroke="black" points="876,-505 876,-527 946,-527 946,-505 876,-505"/>
<text text-anchor="start" x="879" y="-513.2" font-family="Helvetica,sans-Serif" font-size="11.00">bigint[19]</text>
<polygon fill="#ffffff" stroke="transparent" points="514,-483 514,-505 876,-505 876,-483 514,-483"/>
<polygon fill="none" stroke="black" points="514,-483 514,-505 876,-505 876,-483 514,-483"/>
<image xlink:href="../../images/foreignKeys.png" width="11px" height="12px" preserveAspectRatio="xMinYMin meet" x="519" y="-500"/>
<text text-anchor="start" x="534" y="-491.2" font-family="Helvetica,sans-Serif" font-size="11.00">loan_repayment_schedule_id</text>
<polygon fill="none" stroke="black" points="876,-483 876,-505 946,-505 946,-483 876,-483"/>
<text text-anchor="start" x="879" y="-491.2" font-family="Helvetica,sans-Serif" font-size="11.00">bigint[19]</text>
<polygon fill="none" stroke="black" points="514,-461 514,-483 876,-483 876,-461 514,-461"/>
<text text-anchor="start" x="534" y="-469.2" font-family="Helvetica,sans-Serif" font-size="11.00">amount</text>
<polygon fill="none" stroke="black" points="876,-461 876,-483 946,-483 946,-461 876,-461"/>
<text text-anchor="start" x="879" y="-469.2" font-family="Helvetica,sans-Serif" font-size="11.00">decimal[19,6]</text>
<polygon fill="none" stroke="black" points="514,-439 514,-461 876,-461 876,-439 514,-439"/>
<text text-anchor="start" x="534" y="-447.2" font-family="Helvetica,sans-Serif" font-size="11.00">principal_portion_derived</text>
<polygon fill="none" stroke="black" points="876,-439 876,-461 946,-461 946,-439 876,-439"/>
<text text-anchor="start" x="879" y="-447.2" font-family="Helvetica,sans-Serif" font-size="11.00">decimal[19,6]</text>
<polygon fill="none" stroke="black" points="514,-417 514,-439 876,-439 876,-417 514,-417"/>
<text text-anchor="start" x="534" y="-425.2" font-family="Helvetica,sans-Serif" font-size="11.00">interest_portion_derived</text>
<polygon fill="none" stroke="black" points="876,-417 876,-439 946,-439 946,-417 876,-417"/>
<text text-anchor="start" x="879" y="-425.2" font-family="Helvetica,sans-Serif" font-size="11.00">decimal[19,6]</text>
<polygon fill="none" stroke="black" points="514,-395 514,-417 876,-417 876,-395 514,-395"/>
<text text-anchor="start" x="534" y="-403.2" font-family="Helvetica,sans-Serif" font-size="11.00">fee_charges_portion_derived</text>
<polygon fill="none" stroke="black" points="876,-395 876,-417 946,-417 946,-395 876,-395"/>
<text text-anchor="start" x="879" y="-403.2" font-family="Helvetica,sans-Serif" font-size="11.00">decimal[19,6]</text>
<polygon fill="none" stroke="black" points="514,-373 514,-395 876,-395 876,-373 514,-373"/>
<text text-anchor="start" x="534" y="-381.2" font-family="Helvetica,sans-Serif" font-size="11.00">penalty_charges_portion_derived</text>
<polygon fill="none" stroke="black" points="876,-373 876,-395 946,-395 946,-373 876,-373"/>
<text text-anchor="start" x="879" y="-381.2" font-family="Helvetica,sans-Serif" font-size="11.00">decimal[19,6]</text>
<polygon fill="#ffffff" stroke="transparent" points="514,-355 514,-373 686,-373 686,-355 514,-355"/>
<polygon fill="none" stroke="black" points="514,-355 514,-373 686,-373 686,-355 514,-355"/>
<text text-anchor="start" x="517" y="-361.2" font-family="Helvetica,sans-Serif" font-size="11.00">&lt; 2</text>
<polygon fill="#ffffff" stroke="transparent" points="686,-355 686,-373 876,-373 876,-355 686,-355"/>
<polygon fill="none" stroke="black" points="686,-355 686,-373 876,-373 876,-355 686,-355"/>
<text text-anchor="start" x="840" y="-361.2" font-family="Helvetica,sans-Serif" font-size="11.00">0 rows</text>
<polygon fill="#ffffff" stroke="transparent" points="876,-355 876,-373 946,-373 946,-355 876,-355"/>
<polygon fill="none" stroke="black" points="876,-355 876,-373 946,-373 946,-355 876,-355"/>
<text text-anchor="start" x="927" y="-361.2" font-family="Helvetica,sans-Serif" font-size="11.00">0 &gt;</text>
<polygon fill="none" stroke="black" stroke-width="2" points="513,-354 513,-572 947,-572 947,-354 513,-354"/>
</a>
</g>
</g>
<!-- m_loan_transaction_repayment_schedule_mapping&#45;&gt;m_loan_transaction -->
<g id="edge18" class="edge">
<title>m_loan_transaction_repayment_schedule_mapping:w&#45;&gt;m_loan_transaction:e</title>
<path fill="none" stroke="black" d="M499.25,-520.83C449.07,-562.4 529.56,-858 458,-858"/>
<polygon fill="black" stroke="black" points="505.45,-518.65 514.19,-519.4 509.23,-517.33 513,-516 513,-516 513,-516 509.23,-517.33 511.81,-512.6 505.45,-518.65 505.45,-518.65"/>
<ellipse fill="none" stroke="black" cx="502.43" cy="-519.72" rx="3.2" ry="3.2"/>
</g>
<!-- m_loan_transaction_repayment_schedule_mapping&#45;&gt;m_loan_repayment_schedule -->
<g id="edge17" class="edge">
<title>m_loan_transaction_repayment_schedule_mapping:w&#45;&gt;m_loan_repayment_schedule:e</title>
<path fill="none" stroke="black" d="M498.65,-492.16C424.97,-470.48 562.59,-265 464,-265"/>
<polygon fill="black" stroke="black" points="505.07,-492.98 512.54,-497.57 509.03,-493.49 513,-494 513,-494 513,-494 509.03,-493.49 513.46,-490.43 505.07,-492.98 505.07,-492.98"/>
<ellipse fill="none" stroke="black" cx="501.89" cy="-492.57" rx="3.2" ry="3.2"/>
</g>
<!-- m_note -->
<g id="node15" class="node">
<title>m_note</title>
<g id="a_node15"><a xlink:href="../../tables/m_note.html" xlink:title="m_note" target="_top">
<polygon fill="#ffffff" stroke="transparent" points="688,-673 688,-731 772,-731 772,-673 688,-673"/>
<polygon fill="#f5f5f5" stroke="transparent" points="688,-709 688,-731 772,-731 772,-709 688,-709"/>
<polygon fill="none" stroke="black" points="688,-709 688,-731 772,-731 772,-709 688,-709"/>
<text text-anchor="start" x="693" y="-718.2" font-family="Helvetica,sans-Serif" font-weight="bold" font-size="11.00">m_note</text>
<text text-anchor="start" x="737" y="-717.2" font-family="Helvetica,sans-Serif" font-size="11.00">[table]</text>
<polygon fill="none" stroke="black" points="688,-691 688,-709 772,-709 772,-691 688,-691"/>
<text text-anchor="start" x="691" y="-697.2" font-family="Helvetica,sans-Serif" font-size="11.00">...</text>
<polygon fill="#ffffff" stroke="transparent" points="688,-673 688,-691 715,-691 715,-673 688,-673"/>
<polygon fill="none" stroke="black" points="688,-673 688,-691 715,-691 715,-673 688,-673"/>
<text text-anchor="start" x="691" y="-679.2" font-family="Helvetica,sans-Serif" font-size="11.00">&lt; 7</text>
<polygon fill="#ffffff" stroke="transparent" points="715,-673 715,-691 756,-691 756,-673 715,-673"/>
<polygon fill="none" stroke="black" points="715,-673 715,-691 756,-691 756,-673 715,-673"/>
<text text-anchor="start" x="720" y="-679.2" font-family="Helvetica,sans-Serif" font-size="11.00">0 rows</text>
<polygon fill="#ffffff" stroke="transparent" points="756,-673 756,-691 772,-691 772,-673 756,-673"/>
<polygon fill="none" stroke="black" points="756,-673 756,-691 772,-691 772,-673 756,-673"/>
<text text-anchor="start" x="762" y="-679.2" font-family="Helvetica,sans-Serif" font-size="11.00"> &#160;</text>
</a>
</g>
</g>
<!-- m_note&#45;&gt;m_loan_transaction -->
<g id="edge20" class="edge">
<title>m_note:w&#45;&gt;m_loan_transaction:e</title>
<path fill="none" stroke="black" d="M672.35,-699.88C599.06,-698.75 563.48,-690.93 504,-742 461.92,-778.13 513.46,-858 458,-858"/>
<polygon fill="black" stroke="black" points="679,-699.94 686.97,-703.6 683,-699.97 687,-700 687,-700 687,-700 683,-699.97 687.03,-696.4 679,-699.94 679,-699.94"/>
<ellipse fill="none" stroke="black" cx="675.8" cy="-699.91" rx="3.2" ry="3.2"/>
</g>
<!-- m_note&#45;&gt;m_loan -->
<g id="edge19" class="edge">
<title>m_note:w&#45;&gt;m_loan:e</title>
<path fill="none" stroke="black" d="M672.51,-699.95C461.12,-698.42 405.12,-663.4 189,-631 161.4,-626.86 154.91,-621 127,-621"/>
<polygon fill="black" stroke="black" points="679,-699.97 686.99,-703.6 683,-699.99 687,-700 687,-700 687,-700 683,-699.99 687.01,-696.4 679,-699.97 679,-699.97"/>
<ellipse fill="none" stroke="black" cx="675.8" cy="-699.96" rx="3.2" ry="3.2"/>
</g>
<!-- m_repayment_with_post_dated_checks -->
<g id="node16" class="node">
<title>m_repayment_with_post_dated_checks</title>
<g id="a_node16"><a xlink:href="../../tables/m_repayment_with_post_dated_checks.html" xlink:title="m_repayment_with_post_dated_checks" target="_top">
<polygon fill="#ffffff" stroke="transparent" points="604.5,-37 604.5,-95 855.5,-95 855.5,-37 604.5,-37"/>
<polygon fill="#f5f5f5" stroke="transparent" points="605,-73 605,-95 856,-95 856,-73 605,-73"/>
<polygon fill="none" stroke="black" points="605,-73 605,-95 856,-95 856,-73 605,-73"/>
<text text-anchor="start" x="610" y="-82.2" font-family="Helvetica,sans-Serif" font-weight="bold" font-size="11.00">m_repayment_with_post_dated_checks</text>
<text text-anchor="start" x="821" y="-81.2" font-family="Helvetica,sans-Serif" font-size="11.00">[table]</text>
<polygon fill="none" stroke="black" points="605,-55 605,-73 856,-73 856,-55 605,-55"/>
<text text-anchor="start" x="608" y="-61.2" font-family="Helvetica,sans-Serif" font-size="11.00">...</text>
<polygon fill="#ffffff" stroke="transparent" points="605,-37 605,-55 715,-55 715,-37 605,-37"/>
<polygon fill="none" stroke="black" points="605,-37 605,-55 715,-55 715,-37 605,-37"/>
<text text-anchor="start" x="608" y="-43.2" font-family="Helvetica,sans-Serif" font-size="11.00">&lt; 2</text>
<polygon fill="#ffffff" stroke="transparent" points="715,-37 715,-55 798,-55 798,-37 715,-37"/>
<polygon fill="none" stroke="black" points="715,-37 715,-55 798,-55 798,-37 715,-37"/>
<text text-anchor="start" x="762" y="-43.2" font-family="Helvetica,sans-Serif" font-size="11.00">0 rows</text>
<polygon fill="#ffffff" stroke="transparent" points="798,-37 798,-55 856,-55 856,-37 798,-37"/>
<polygon fill="none" stroke="black" points="798,-37 798,-55 856,-55 856,-37 798,-37"/>
<text text-anchor="start" x="846" y="-43.2" font-family="Helvetica,sans-Serif" font-size="11.00"> &#160;</text>
</a>
</g>
</g>
<!-- m_repayment_with_post_dated_checks&#45;&gt;m_loan -->
<g id="edge21" class="edge">
<title>m_repayment_with_post_dated_checks:w&#45;&gt;m_loan:e</title>
<path fill="none" stroke="black" d="M589.55,-63.96C406.93,-62.88 311.65,-43.51 189,-185 124.9,-258.95 224.86,-621 127,-621"/>
<polygon fill="black" stroke="black" points="596,-63.98 603.99,-67.6 600,-63.99 604,-64 604,-64 604,-64 600,-63.99 604.01,-60.4 596,-63.98 596,-63.98"/>
<ellipse fill="none" stroke="black" cx="592.8" cy="-63.97" rx="3.2" ry="3.2"/>
</g>
<!-- m_repayment_with_post_dated_checks&#45;&gt;m_loan_repayment_schedule -->
<g id="edge22" class="edge">
<title>m_repayment_with_post_dated_checks:w&#45;&gt;m_loan_repayment_schedule:e</title>
<path fill="none" stroke="black" d="M589.42,-64.2C551.43,-65.37 532.06,-72.58 504,-105 456.04,-160.43 537.3,-265 464,-265"/>
<polygon fill="black" stroke="black" points="596,-64.11 604.05,-67.6 600,-64.05 604,-64 604,-64 604,-64 600,-64.05 603.95,-60.4 596,-64.11 596,-64.11"/>
<ellipse fill="none" stroke="black" cx="592.8" cy="-64.15" rx="3.2" ry="3.2"/>
</g>
</g>
</svg>
