<?xml version="1.0" encoding="UTF-8" standalone="no"?>
<!DOCTYPE svg PUBLIC "-//W3C//DTD SVG 1.1//EN"
 "http://www.w3.org/Graphics/SVG/1.1/DTD/svg11.dtd">
<!-- Generated by graphviz version 2.43.0 (0)
 -->
<!-- Title: oneDegreeRelationshipsDiagram Pages: 1 -->
<svg width="1014pt" height="569pt"
 viewBox="0.00 0.00 1014.00 569.00" xmlns="http://www.w3.org/2000/svg" xmlns:xlink="http://www.w3.org/1999/xlink">
<g id="graph0" class="graph" transform="scale(1 1) rotate(0) translate(4 565)">
<title>oneDegreeRelationshipsDiagram</title>
<polygon fill="#ffffff" stroke="transparent" points="-4,4 -4,-565 1010,-565 1010,4 -4,4"/>
<text text-anchor="middle" x="71.5" y="-7.2" font-family="Helvetica,sans-Serif" font-size="11.00">Generated by SchemaSpy</text>
<!-- m_loan_disbursement_detail -->
<g id="node1" class="node">
<title>m_loan_disbursement_detail</title>
<g id="a_node1"><a xlink:href="../../tables/m_loan_disbursement_detail.html" xlink:title="m_loan_disbursement_detail" target="_top">
<polygon fill="#ffffff" stroke="transparent" points="385,-339 385,-515 671,-515 671,-339 385,-339"/>
<polygon fill="#f5f5f5" stroke="transparent" points="387,-491 387,-513 669,-513 669,-491 387,-491"/>
<polygon fill="none" stroke="black" points="387,-491 387,-513 669,-513 669,-491 387,-491"/>
<text text-anchor="start" x="392" y="-500.2" font-family="Helvetica,sans-Serif" font-weight="bold" font-size="11.00">m_loan_disbursement_detail</text>
<text text-anchor="start" x="634" y="-499.2" font-family="Helvetica,sans-Serif" font-size="11.00">[table]</text>
<polygon fill="none" stroke="black" points="387,-469 387,-491 599,-491 599,-469 387,-469"/>
<image xlink:href="../../images/primaryKeys.png" width="11px" height="12px" preserveAspectRatio="xMinYMin meet" x="392" y="-486"/>
<text text-anchor="start" x="407" y="-477.2" font-family="Helvetica,sans-Serif" font-size="11.00">id</text>
<polygon fill="none" stroke="black" points="599,-469 599,-491 669,-491 669,-469 599,-469"/>
<text text-anchor="start" x="602" y="-477.2" font-family="Helvetica,sans-Serif" font-size="11.00">bigint[19]</text>
<polygon fill="#ffffff" stroke="transparent" points="387,-447 387,-469 599,-469 599,-447 387,-447"/>
<polygon fill="none" stroke="black" points="387,-447 387,-469 599,-469 599,-447 387,-447"/>
<image xlink:href="../../images/foreignKeys.png" width="11px" height="12px" preserveAspectRatio="xMinYMin meet" x="392" y="-464"/>
<text text-anchor="start" x="407" y="-455.2" font-family="Helvetica,sans-Serif" font-size="11.00">loan_id</text>
<polygon fill="none" stroke="black" points="599,-447 599,-469 669,-469 669,-447 599,-447"/>
<text text-anchor="start" x="602" y="-455.2" font-family="Helvetica,sans-Serif" font-size="11.00">bigint[19]</text>
<polygon fill="none" stroke="black" points="387,-425 387,-447 599,-447 599,-425 387,-425"/>
<text text-anchor="start" x="407" y="-433.2" font-family="Helvetica,sans-Serif" font-size="11.00">expected_disburse_date</text>
<polygon fill="none" stroke="black" points="599,-425 599,-447 669,-447 669,-425 599,-425"/>
<text text-anchor="start" x="602" y="-433.2" font-family="Helvetica,sans-Serif" font-size="11.00">datetime[19]</text>
<polygon fill="none" stroke="black" points="387,-403 387,-425 599,-425 599,-403 387,-403"/>
<text text-anchor="start" x="407" y="-411.2" font-family="Helvetica,sans-Serif" font-size="11.00">disbursedon_date</text>
<polygon fill="none" stroke="black" points="599,-403 599,-425 669,-425 669,-403 599,-403"/>
<text text-anchor="start" x="602" y="-411.2" font-family="Helvetica,sans-Serif" font-size="11.00">datetime[19]</text>
<polygon fill="none" stroke="black" points="387,-381 387,-403 599,-403 599,-381 387,-381"/>
<text text-anchor="start" x="407" y="-389.2" font-family="Helvetica,sans-Serif" font-size="11.00">principal</text>
<polygon fill="none" stroke="black" points="599,-381 599,-403 669,-403 669,-381 599,-381"/>
<text text-anchor="start" x="602" y="-389.2" font-family="Helvetica,sans-Serif" font-size="11.00">decimal[19,6]</text>
<polygon fill="none" stroke="black" points="387,-359 387,-381 599,-381 599,-359 387,-359"/>
<text text-anchor="start" x="407" y="-367.2" font-family="Helvetica,sans-Serif" font-size="11.00">net_disbursal_amount</text>
<polygon fill="none" stroke="black" points="599,-359 599,-381 669,-381 669,-359 599,-359"/>
<text text-anchor="start" x="602" y="-367.2" font-family="Helvetica,sans-Serif" font-size="11.00">decimal[19,6]</text>
<polygon fill="#ffffff" stroke="transparent" points="387,-341 387,-359 484,-359 484,-341 387,-341"/>
<polygon fill="none" stroke="black" points="387,-341 387,-359 484,-359 484,-341 387,-341"/>
<text text-anchor="start" x="390" y="-347.2" font-family="Helvetica,sans-Serif" font-size="11.00">&lt; 1</text>
<polygon fill="#ffffff" stroke="transparent" points="484,-341 484,-359 599,-359 599,-341 484,-341"/>
<polygon fill="none" stroke="black" points="484,-341 484,-359 599,-359 599,-341 484,-341"/>
<text text-anchor="start" x="563" y="-347.2" font-family="Helvetica,sans-Serif" font-size="11.00">0 rows</text>
<polygon fill="#ffffff" stroke="transparent" points="599,-341 599,-359 669,-359 669,-341 599,-341"/>
<polygon fill="none" stroke="black" points="599,-341 599,-359 669,-359 669,-341 599,-341"/>
<text text-anchor="start" x="650" y="-347.2" font-family="Helvetica,sans-Serif" font-size="11.00">1 &gt;</text>
<polygon fill="none" stroke="black" stroke-width="2" points="386,-340 386,-514 670,-514 670,-340 386,-340"/>
</a>
</g>
</g>
<!-- m_loan -->
<g id="node2" class="node">
<title>m_loan</title>
<g id="a_node2"><a xlink:href="../../tables/m_loan.html" xlink:title="m_loan" target="_top">
<polygon fill="#ffffff" stroke="transparent" points="8,-37 8,-491 336,-491 336,-37 8,-37"/>
<polygon fill="#f5f5f5" stroke="transparent" points="8,-469 8,-491 336,-491 336,-469 8,-469"/>
<polygon fill="none" stroke="black" points="8,-469 8,-491 336,-491 336,-469 8,-469"/>
<text text-anchor="start" x="13" y="-478.2" font-family="Helvetica,sans-Serif" font-weight="bold" font-size="11.00">m_loan</text>
<text text-anchor="start" x="301" y="-477.2" font-family="Helvetica,sans-Serif" font-size="11.00">[table]</text>
<polygon fill="none" stroke="black" points="8,-447 8,-469 336,-469 336,-447 8,-447"/>
<image xlink:href="../../images/primaryKeys.png" width="11px" height="12px" preserveAspectRatio="xMinYMin meet" x="13" y="-464"/>
<text text-anchor="start" x="28" y="-455.2" font-family="Helvetica,sans-Serif" font-size="11.00">id</text>
<polygon fill="#ffffff" stroke="transparent" points="8,-425 8,-447 336,-447 336,-425 8,-425"/>
<polygon fill="none" stroke="black" points="8,-425 8,-447 336,-447 336,-425 8,-425"/>
<text text-anchor="start" x="28" y="-433.2" font-family="Helvetica,sans-Serif" font-size="11.00">account_no</text>
<polygon fill="#ffffff" stroke="transparent" points="8,-403 8,-425 336,-425 336,-403 8,-403"/>
<polygon fill="none" stroke="black" points="8,-403 8,-425 336,-425 336,-403 8,-403"/>
<text text-anchor="start" x="28" y="-411.2" font-family="Helvetica,sans-Serif" font-size="11.00">external_id</text>
<polygon fill="#ffffff" stroke="transparent" points="8,-381 8,-403 336,-403 336,-381 8,-381"/>
<polygon fill="none" stroke="black" points="8,-381 8,-403 336,-403 336,-381 8,-381"/>
<image xlink:href="../../images/foreignKeys.png" width="11px" height="12px" preserveAspectRatio="xMinYMin meet" x="13" y="-398"/>
<text text-anchor="start" x="28" y="-389.2" font-family="Helvetica,sans-Serif" font-size="11.00">client_id</text>
<polygon fill="#ffffff" stroke="transparent" points="8,-359 8,-381 336,-381 336,-359 8,-359"/>
<polygon fill="none" stroke="black" points="8,-359 8,-381 336,-381 336,-359 8,-359"/>
<image xlink:href="../../images/foreignKeys.png" width="11px" height="12px" preserveAspectRatio="xMinYMin meet" x="13" y="-376"/>
<text text-anchor="start" x="28" y="-367.2" font-family="Helvetica,sans-Serif" font-size="11.00">group_id</text>
<polygon fill="#ffffff" stroke="transparent" points="8,-337 8,-359 336,-359 336,-337 8,-337"/>
<polygon fill="none" stroke="black" points="8,-337 8,-359 336,-359 336,-337 8,-337"/>
<image xlink:href="../../images/foreignKeys.png" width="11px" height="12px" preserveAspectRatio="xMinYMin meet" x="13" y="-354"/>
<text text-anchor="start" x="28" y="-345.2" font-family="Helvetica,sans-Serif" font-size="11.00">glim_id</text>
<polygon fill="#ffffff" stroke="transparent" points="8,-315 8,-337 336,-337 336,-315 8,-315"/>
<polygon fill="none" stroke="black" points="8,-315 8,-337 336,-337 336,-315 8,-315"/>
<image xlink:href="../../images/foreignKeys.png" width="11px" height="12px" preserveAspectRatio="xMinYMin meet" x="13" y="-332"/>
<text text-anchor="start" x="28" y="-323.2" font-family="Helvetica,sans-Serif" font-size="11.00">product_id</text>
<polygon fill="#ffffff" stroke="transparent" points="8,-293 8,-315 336,-315 336,-293 8,-293"/>
<polygon fill="none" stroke="black" points="8,-293 8,-315 336,-315 336,-293 8,-293"/>
<image xlink:href="../../images/foreignKeys.png" width="11px" height="12px" preserveAspectRatio="xMinYMin meet" x="13" y="-310"/>
<text text-anchor="start" x="28" y="-301.2" font-family="Helvetica,sans-Serif" font-size="11.00">fund_id</text>
<polygon fill="#ffffff" stroke="transparent" points="8,-271 8,-293 336,-293 336,-271 8,-271"/>
<polygon fill="none" stroke="black" points="8,-271 8,-293 336,-293 336,-271 8,-271"/>
<image xlink:href="../../images/foreignKeys.png" width="11px" height="12px" preserveAspectRatio="xMinYMin meet" x="13" y="-288"/>
<text text-anchor="start" x="28" y="-279.2" font-family="Helvetica,sans-Serif" font-size="11.00">loan_officer_id</text>
<polygon fill="#ffffff" stroke="transparent" points="8,-249 8,-271 336,-271 336,-249 8,-249"/>
<polygon fill="none" stroke="black" points="8,-249 8,-271 336,-271 336,-249 8,-249"/>
<image xlink:href="../../images/foreignKeys.png" width="11px" height="12px" preserveAspectRatio="xMinYMin meet" x="13" y="-266"/>
<text text-anchor="start" x="28" y="-257.2" font-family="Helvetica,sans-Serif" font-size="11.00">loanpurpose_cv_id</text>
<polygon fill="#ffffff" stroke="transparent" points="8,-227 8,-249 336,-249 336,-227 8,-227"/>
<polygon fill="none" stroke="black" points="8,-227 8,-249 336,-249 336,-227 8,-227"/>
<image xlink:href="../../images/foreignKeys.png" width="11px" height="12px" preserveAspectRatio="xMinYMin meet" x="13" y="-244"/>
<text text-anchor="start" x="28" y="-235.2" font-family="Helvetica,sans-Serif" font-size="11.00">submittedon_userid</text>
<polygon fill="#ffffff" stroke="transparent" points="8,-205 8,-227 336,-227 336,-205 8,-205"/>
<polygon fill="none" stroke="black" points="8,-205 8,-227 336,-227 336,-205 8,-205"/>
<image xlink:href="../../images/foreignKeys.png" width="11px" height="12px" preserveAspectRatio="xMinYMin meet" x="13" y="-222"/>
<text text-anchor="start" x="28" y="-213.2" font-family="Helvetica,sans-Serif" font-size="11.00">approvedon_userid</text>
<polygon fill="#ffffff" stroke="transparent" points="8,-183 8,-205 336,-205 336,-183 8,-183"/>
<polygon fill="none" stroke="black" points="8,-183 8,-205 336,-205 336,-183 8,-183"/>
<image xlink:href="../../images/foreignKeys.png" width="11px" height="12px" preserveAspectRatio="xMinYMin meet" x="13" y="-200"/>
<text text-anchor="start" x="28" y="-191.2" font-family="Helvetica,sans-Serif" font-size="11.00">disbursedon_userid</text>
<polygon fill="#ffffff" stroke="transparent" points="8,-161 8,-183 336,-183 336,-161 8,-161"/>
<polygon fill="none" stroke="black" points="8,-161 8,-183 336,-183 336,-161 8,-161"/>
<image xlink:href="../../images/foreignKeys.png" width="11px" height="12px" preserveAspectRatio="xMinYMin meet" x="13" y="-178"/>
<text text-anchor="start" x="28" y="-169.2" font-family="Helvetica,sans-Serif" font-size="11.00">closedon_userid</text>
<polygon fill="#ffffff" stroke="transparent" points="8,-139 8,-161 336,-161 336,-139 8,-139"/>
<polygon fill="none" stroke="black" points="8,-139 8,-161 336,-161 336,-139 8,-139"/>
<image xlink:href="../../images/foreignKeys.png" width="11px" height="12px" preserveAspectRatio="xMinYMin meet" x="13" y="-156"/>
<text text-anchor="start" x="28" y="-147.2" font-family="Helvetica,sans-Serif" font-size="11.00">rejectedon_userid</text>
<polygon fill="#ffffff" stroke="transparent" points="8,-117 8,-139 336,-139 336,-117 8,-117"/>
<polygon fill="none" stroke="black" points="8,-117 8,-139 336,-139 336,-117 8,-117"/>
<image xlink:href="../../images/foreignKeys.png" width="11px" height="12px" preserveAspectRatio="xMinYMin meet" x="13" y="-134"/>
<text text-anchor="start" x="28" y="-125.2" font-family="Helvetica,sans-Serif" font-size="11.00">withdrawnon_userid</text>
<polygon fill="#ffffff" stroke="transparent" points="8,-95 8,-117 336,-117 336,-95 8,-95"/>
<polygon fill="none" stroke="black" points="8,-95 8,-117 336,-117 336,-95 8,-95"/>
<image xlink:href="../../images/foreignKeys.png" width="11px" height="12px" preserveAspectRatio="xMinYMin meet" x="13" y="-112"/>
<text text-anchor="start" x="28" y="-103.2" font-family="Helvetica,sans-Serif" font-size="11.00">loan_transaction_strategy_id</text>
<polygon fill="#ffffff" stroke="transparent" points="8,-73 8,-95 336,-95 336,-73 8,-73"/>
<polygon fill="none" stroke="black" points="8,-73 8,-95 336,-95 336,-73 8,-73"/>
<image xlink:href="../../images/foreignKeys.png" width="11px" height="12px" preserveAspectRatio="xMinYMin meet" x="13" y="-90"/>
<text text-anchor="start" x="28" y="-81.2" font-family="Helvetica,sans-Serif" font-size="11.00">writeoff_reason_cv_id</text>
<polygon fill="none" stroke="black" points="8,-55 8,-73 336,-73 336,-55 8,-55"/>
<text text-anchor="start" x="11" y="-61.2" font-family="Helvetica,sans-Serif" font-size="11.00">...</text>
<polygon fill="#ffffff" stroke="transparent" points="8,-37 8,-55 152,-55 152,-37 8,-37"/>
<polygon fill="none" stroke="black" points="8,-37 8,-55 152,-55 152,-37 8,-37"/>
<text text-anchor="start" x="11" y="-43.2" font-family="Helvetica,sans-Serif" font-size="11.00">&lt; 15</text>
<polygon fill="#ffffff" stroke="transparent" points="152,-37 152,-55 249,-55 249,-37 152,-37"/>
<polygon fill="none" stroke="black" points="152,-37 152,-55 249,-55 249,-37 152,-37"/>
<text text-anchor="start" x="213" y="-43.2" font-family="Helvetica,sans-Serif" font-size="11.00">0 rows</text>
<polygon fill="#ffffff" stroke="transparent" points="249,-37 249,-55 336,-55 336,-37 249,-37"/>
<polygon fill="none" stroke="black" points="249,-37 249,-55 336,-55 336,-37 249,-37"/>
<text text-anchor="start" x="311" y="-43.2" font-family="Helvetica,sans-Serif" font-size="11.00">24 &gt;</text>
</a>
</g>
</g>
<!-- m_loan_disbursement_detail&#45;&gt;m_loan -->
<g id="edge1" class="edge">
<title>m_loan_disbursement_detail:w&#45;&gt;m_loan:e</title>
<path fill="none" stroke="black" d="M371.49,-458C360.18,-458 352.99,-458 337,-458"/>
<polygon fill="black" stroke="black" points="378,-458 386,-461.6 382,-458 386,-458 386,-458 386,-458 382,-458 386,-454.4 378,-458 378,-458"/>
<ellipse fill="none" stroke="black" cx="374.8" cy="-458" rx="3.2" ry="3.2"/>
</g>
<!-- m_loan_tranche_disbursement_charge -->
<g id="node3" class="node">
<title>m_loan_tranche_disbursement_charge</title>
<g id="a_node3"><a xlink:href="../../tables/m_loan_tranche_disbursement_charge.html" xlink:title="m_loan_tranche_disbursement_charge" target="_top">
<polygon fill="#ffffff" stroke="transparent" points="720,-451 720,-557 998,-557 998,-451 720,-451"/>
<polygon fill="#f5f5f5" stroke="transparent" points="720,-535 720,-557 998,-557 998,-535 720,-535"/>
<polygon fill="none" stroke="black" points="720,-535 720,-557 998,-557 998,-535 720,-535"/>
<text text-anchor="start" x="725" y="-544.2" font-family="Helvetica,sans-Serif" font-weight="bold" font-size="11.00">m_loan_tranche_disbursement_charge</text>
<text text-anchor="start" x="963" y="-543.2" font-family="Helvetica,sans-Serif" font-size="11.00">[table]</text>
<polygon fill="none" stroke="black" points="720,-513 720,-535 998,-535 998,-513 720,-513"/>
<image xlink:href="../../images/primaryKeys.png" width="11px" height="12px" preserveAspectRatio="xMinYMin meet" x="725" y="-530"/>
<text text-anchor="start" x="740" y="-521.2" font-family="Helvetica,sans-Serif" font-size="11.00">id</text>
<polygon fill="#ffffff" stroke="transparent" points="720,-491 720,-513 998,-513 998,-491 720,-491"/>
<polygon fill="none" stroke="black" points="720,-491 720,-513 998,-513 998,-491 720,-491"/>
<image xlink:href="../../images/foreignKeys.png" width="11px" height="12px" preserveAspectRatio="xMinYMin meet" x="725" y="-508"/>
<text text-anchor="start" x="740" y="-499.2" font-family="Helvetica,sans-Serif" font-size="11.00">loan_charge_id</text>
<polygon fill="#ffffff" stroke="transparent" points="720,-469 720,-491 998,-491 998,-469 720,-469"/>
<polygon fill="none" stroke="black" points="720,-469 720,-491 998,-491 998,-469 720,-469"/>
<image xlink:href="../../images/foreignKeys.png" width="11px" height="12px" preserveAspectRatio="xMinYMin meet" x="725" y="-486"/>
<text text-anchor="start" x="740" y="-477.2" font-family="Helvetica,sans-Serif" font-size="11.00">disbursement_detail_id</text>
<polygon fill="#ffffff" stroke="transparent" points="720,-451 720,-469 844,-469 844,-451 720,-451"/>
<polygon fill="none" stroke="black" points="720,-451 720,-469 844,-469 844,-451 720,-451"/>
<text text-anchor="start" x="723" y="-457.2" font-family="Helvetica,sans-Serif" font-size="11.00">&lt; 2</text>
<polygon fill="#ffffff" stroke="transparent" points="844,-451 844,-469 934,-469 934,-451 844,-451"/>
<polygon fill="none" stroke="black" points="844,-451 844,-469 934,-469 934,-451 844,-451"/>
<text text-anchor="start" x="898" y="-457.2" font-family="Helvetica,sans-Serif" font-size="11.00">0 rows</text>
<polygon fill="#ffffff" stroke="transparent" points="934,-451 934,-469 998,-469 998,-451 934,-451"/>
<polygon fill="none" stroke="black" points="934,-451 934,-469 998,-469 998,-451 934,-451"/>
<text text-anchor="start" x="988" y="-457.2" font-family="Helvetica,sans-Serif" font-size="11.00"> &#160;</text>
</a>
</g>
</g>
<!-- m_loan_tranche_disbursement_charge&#45;&gt;m_loan_disbursement_detail -->
<g id="edge2" class="edge">
<title>m_loan_tranche_disbursement_charge:w&#45;&gt;m_loan_disbursement_detail:e</title>
<path fill="none" stroke="black" d="M704.49,-480C693.18,-480 685.99,-480 670,-480"/>
<polygon fill="black" stroke="black" points="711,-480 719,-483.6 715,-480 719,-480 719,-480 719,-480 715,-480 719,-476.4 711,-480 711,-480"/>
<ellipse fill="none" stroke="black" cx="707.8" cy="-480" rx="3.2" ry="3.2"/>
</g>
</g>
</svg>
