<?xml version="1.0" encoding="UTF-8" standalone="no"?>
<!DOCTYPE svg PUBLIC "-//W3C//DTD SVG 1.1//EN"
 "http://www.w3.org/Graphics/SVG/1.1/DTD/svg11.dtd">
<!-- Generated by graphviz version 2.43.0 (0)
 -->
<!-- Title: oneDegreeRelationshipsDiagram Pages: 1 -->
<svg width="675pt" height="217pt"
 viewBox="0.00 0.00 675.00 217.00" xmlns="http://www.w3.org/2000/svg" xmlns:xlink="http://www.w3.org/1999/xlink">
<g id="graph0" class="graph" transform="scale(1 1) rotate(0) translate(4 213)">
<title>oneDegreeRelationshipsDiagram</title>
<polygon fill="#ffffff" stroke="transparent" points="-4,4 -4,-213 671,-213 671,4 -4,4"/>
<text text-anchor="middle" x="71.5" y="-7.2" font-family="Helvetica,sans-Serif" font-size="11.00">Generated by SchemaSpy</text>
<!-- m_client_attendance -->
<g id="node1" class="node">
<title>m_client_attendance</title>
<g id="a_node1"><a xlink:href="../../tables/m_client_attendance.html" xlink:title="m_client_attendance" target="_top">
<polygon fill="#ffffff" stroke="transparent" points="482,-81 482,-205 659,-205 659,-81 482,-81"/>
<polygon fill="#f5f5f5" stroke="transparent" points="482.5,-183 482.5,-205 659.5,-205 659.5,-183 482.5,-183"/>
<polygon fill="none" stroke="black" points="482.5,-183 482.5,-205 659.5,-205 659.5,-183 482.5,-183"/>
<text text-anchor="start" x="487.5" y="-192.2" font-family="Helvetica,sans-Serif" font-weight="bold" font-size="11.00">m_client_attendance</text>
<text text-anchor="start" x="624.5" y="-191.2" font-family="Helvetica,sans-Serif" font-size="11.00">[table]</text>
<polygon fill="none" stroke="black" points="482.5,-161 482.5,-183 659.5,-183 659.5,-161 482.5,-161"/>
<image xlink:href="../../images/primaryKeys.png" width="11px" height="12px" preserveAspectRatio="xMinYMin meet" x="487.5" y="-178"/>
<text text-anchor="start" x="502.5" y="-169.2" font-family="Helvetica,sans-Serif" font-size="11.00">id</text>
<polygon fill="#ffffff" stroke="transparent" points="482.5,-139 482.5,-161 659.5,-161 659.5,-139 482.5,-139"/>
<polygon fill="none" stroke="black" points="482.5,-139 482.5,-161 659.5,-161 659.5,-139 482.5,-139"/>
<image xlink:href="../../images/foreignKeys.png" width="11px" height="12px" preserveAspectRatio="xMinYMin meet" x="487.5" y="-156"/>
<text text-anchor="start" x="502.5" y="-147.2" font-family="Helvetica,sans-Serif" font-size="11.00">client_id</text>
<polygon fill="#ffffff" stroke="transparent" points="482.5,-117 482.5,-139 659.5,-139 659.5,-117 482.5,-117"/>
<polygon fill="none" stroke="black" points="482.5,-117 482.5,-139 659.5,-139 659.5,-117 482.5,-117"/>
<image xlink:href="../../images/foreignKeys.png" width="11px" height="12px" preserveAspectRatio="xMinYMin meet" x="487.5" y="-134"/>
<text text-anchor="start" x="502.5" y="-125.2" font-family="Helvetica,sans-Serif" font-size="11.00">meeting_id</text>
<polygon fill="none" stroke="black" points="482.5,-99 482.5,-117 659.5,-117 659.5,-99 482.5,-99"/>
<text text-anchor="start" x="485.5" y="-105.2" font-family="Helvetica,sans-Serif" font-size="11.00">...</text>
<polygon fill="#ffffff" stroke="transparent" points="482.5,-81 482.5,-99 555.5,-99 555.5,-81 482.5,-81"/>
<polygon fill="none" stroke="black" points="482.5,-81 482.5,-99 555.5,-99 555.5,-81 482.5,-81"/>
<text text-anchor="start" x="485.5" y="-87.2" font-family="Helvetica,sans-Serif" font-size="11.00">&lt; 2</text>
<polygon fill="#ffffff" stroke="transparent" points="555.5,-81 555.5,-99 620.5,-99 620.5,-81 555.5,-81"/>
<polygon fill="none" stroke="black" points="555.5,-81 555.5,-99 620.5,-99 620.5,-81 555.5,-81"/>
<text text-anchor="start" x="584.5" y="-87.2" font-family="Helvetica,sans-Serif" font-size="11.00">0 rows</text>
<polygon fill="#ffffff" stroke="transparent" points="620.5,-81 620.5,-99 659.5,-99 659.5,-81 620.5,-81"/>
<polygon fill="none" stroke="black" points="620.5,-81 620.5,-99 659.5,-99 659.5,-81 620.5,-81"/>
<text text-anchor="start" x="649.5" y="-87.2" font-family="Helvetica,sans-Serif" font-size="11.00"> &#160;</text>
</a>
</g>
</g>
<!-- m_meeting -->
<g id="node2" class="node">
<title>m_meeting</title>
<g id="a_node2"><a xlink:href="../../tables/m_meeting.html" xlink:title="m_meeting" target="_top">
<polygon fill="#ffffff" stroke="transparent" points="218,-53 218,-163 433,-163 433,-53 218,-53"/>
<polygon fill="#f5f5f5" stroke="transparent" points="220.5,-139 220.5,-161 431.5,-161 431.5,-139 220.5,-139"/>
<polygon fill="none" stroke="black" points="220.5,-139 220.5,-161 431.5,-161 431.5,-139 220.5,-139"/>
<text text-anchor="start" x="225.5" y="-148.2" font-family="Helvetica,sans-Serif" font-weight="bold" font-size="11.00">m_meeting</text>
<text text-anchor="start" x="396.5" y="-147.2" font-family="Helvetica,sans-Serif" font-size="11.00">[table]</text>
<polygon fill="none" stroke="black" points="220.5,-117 220.5,-139 381.5,-139 381.5,-117 220.5,-117"/>
<image xlink:href="../../images/primaryKeys.png" width="11px" height="12px" preserveAspectRatio="xMinYMin meet" x="225.5" y="-134"/>
<text text-anchor="start" x="240.5" y="-125.2" font-family="Helvetica,sans-Serif" font-size="11.00">id</text>
<polygon fill="none" stroke="black" points="381.5,-117 381.5,-139 431.5,-139 431.5,-117 381.5,-117"/>
<text text-anchor="start" x="384.5" y="-125.2" font-family="Helvetica,sans-Serif" font-size="11.00">bigint[19]</text>
<polygon fill="#ffffff" stroke="transparent" points="220.5,-95 220.5,-117 381.5,-117 381.5,-95 220.5,-95"/>
<polygon fill="none" stroke="black" points="220.5,-95 220.5,-117 381.5,-117 381.5,-95 220.5,-95"/>
<image xlink:href="../../images/foreignKeys.png" width="11px" height="12px" preserveAspectRatio="xMinYMin meet" x="225.5" y="-112"/>
<text text-anchor="start" x="240.5" y="-103.2" font-family="Helvetica,sans-Serif" font-size="11.00">calendar_instance_id</text>
<polygon fill="none" stroke="black" points="381.5,-95 381.5,-117 431.5,-117 431.5,-95 381.5,-95"/>
<text text-anchor="start" x="384.5" y="-103.2" font-family="Helvetica,sans-Serif" font-size="11.00">bigint[19]</text>
<polygon fill="#ffffff" stroke="transparent" points="220.5,-73 220.5,-95 381.5,-95 381.5,-73 220.5,-73"/>
<polygon fill="none" stroke="black" points="220.5,-73 220.5,-95 381.5,-95 381.5,-73 220.5,-73"/>
<text text-anchor="start" x="240.5" y="-81.2" font-family="Helvetica,sans-Serif" font-size="11.00">meeting_date</text>
<polygon fill="none" stroke="black" points="381.5,-73 381.5,-95 431.5,-95 431.5,-73 381.5,-73"/>
<text text-anchor="start" x="384.5" y="-81.2" font-family="Helvetica,sans-Serif" font-size="11.00">date[10]</text>
<polygon fill="#ffffff" stroke="transparent" points="220.5,-55 220.5,-73 292.5,-73 292.5,-55 220.5,-55"/>
<polygon fill="none" stroke="black" points="220.5,-55 220.5,-73 292.5,-73 292.5,-55 220.5,-55"/>
<text text-anchor="start" x="223.5" y="-61.2" font-family="Helvetica,sans-Serif" font-size="11.00">&lt; 1</text>
<polygon fill="#ffffff" stroke="transparent" points="292.5,-55 292.5,-73 381.5,-73 381.5,-55 292.5,-55"/>
<polygon fill="none" stroke="black" points="292.5,-55 292.5,-73 381.5,-73 381.5,-55 292.5,-55"/>
<text text-anchor="start" x="345.5" y="-61.2" font-family="Helvetica,sans-Serif" font-size="11.00">0 rows</text>
<polygon fill="#ffffff" stroke="transparent" points="381.5,-55 381.5,-73 431.5,-73 431.5,-55 381.5,-55"/>
<polygon fill="none" stroke="black" points="381.5,-55 381.5,-73 431.5,-73 431.5,-55 381.5,-55"/>
<text text-anchor="start" x="412.5" y="-61.2" font-family="Helvetica,sans-Serif" font-size="11.00">1 &gt;</text>
<polygon fill="none" stroke="black" stroke-width="2" points="219,-54 219,-162 432,-162 432,-54 219,-54"/>
</a>
</g>
</g>
<!-- m_client_attendance&#45;&gt;m_meeting -->
<g id="edge1" class="edge">
<title>m_client_attendance:w&#45;&gt;m_meeting:e</title>
<path fill="none" stroke="black" d="M466.99,-128C455.68,-128 448.49,-128 432.5,-128"/>
<polygon fill="black" stroke="black" points="473.5,-128 481.5,-131.6 477.5,-128 481.5,-128 481.5,-128 481.5,-128 477.5,-128 481.5,-124.4 473.5,-128 473.5,-128"/>
<ellipse fill="none" stroke="black" cx="470.3" cy="-128" rx="3.2" ry="3.2"/>
</g>
<!-- m_calendar_instance -->
<g id="node3" class="node">
<title>m_calendar_instance</title>
<g id="a_node3"><a xlink:href="../../tables/m_calendar_instance.html" xlink:title="m_calendar_instance" target="_top">
<polygon fill="#ffffff" stroke="transparent" points="8,-37 8,-139 169,-139 169,-37 8,-37"/>
<polygon fill="#f5f5f5" stroke="transparent" points="8.5,-117 8.5,-139 169.5,-139 169.5,-117 8.5,-117"/>
<polygon fill="none" stroke="black" points="8.5,-117 8.5,-139 169.5,-139 169.5,-117 8.5,-117"/>
<text text-anchor="start" x="13.5" y="-126.2" font-family="Helvetica,sans-Serif" font-weight="bold" font-size="11.00">m_calendar_instance</text>
<text text-anchor="start" x="134.5" y="-125.2" font-family="Helvetica,sans-Serif" font-size="11.00">[table]</text>
<polygon fill="none" stroke="black" points="8.5,-95 8.5,-117 169.5,-117 169.5,-95 8.5,-95"/>
<image xlink:href="../../images/primaryKeys.png" width="11px" height="12px" preserveAspectRatio="xMinYMin meet" x="13.5" y="-112"/>
<text text-anchor="start" x="28.5" y="-103.2" font-family="Helvetica,sans-Serif" font-size="11.00">id</text>
<polygon fill="#ffffff" stroke="transparent" points="8.5,-73 8.5,-95 169.5,-95 169.5,-73 8.5,-73"/>
<polygon fill="none" stroke="black" points="8.5,-73 8.5,-95 169.5,-95 169.5,-73 8.5,-73"/>
<image xlink:href="../../images/foreignKeys.png" width="11px" height="12px" preserveAspectRatio="xMinYMin meet" x="13.5" y="-90"/>
<text text-anchor="start" x="28.5" y="-81.2" font-family="Helvetica,sans-Serif" font-size="11.00">calendar_id</text>
<polygon fill="none" stroke="black" points="8.5,-55 8.5,-73 169.5,-73 169.5,-55 8.5,-55"/>
<text text-anchor="start" x="11.5" y="-61.2" font-family="Helvetica,sans-Serif" font-size="11.00">...</text>
<polygon fill="#ffffff" stroke="transparent" points="8.5,-37 8.5,-55 69.5,-55 69.5,-37 8.5,-37"/>
<polygon fill="none" stroke="black" points="8.5,-37 8.5,-55 69.5,-55 69.5,-37 8.5,-37"/>
<text text-anchor="start" x="11.5" y="-43.2" font-family="Helvetica,sans-Serif" font-size="11.00">&lt; 1</text>
<polygon fill="#ffffff" stroke="transparent" points="69.5,-37 69.5,-55 127.5,-55 127.5,-37 69.5,-37"/>
<polygon fill="none" stroke="black" points="69.5,-37 69.5,-55 127.5,-55 127.5,-37 69.5,-37"/>
<text text-anchor="start" x="91.5" y="-43.2" font-family="Helvetica,sans-Serif" font-size="11.00">0 rows</text>
<polygon fill="#ffffff" stroke="transparent" points="127.5,-37 127.5,-55 169.5,-55 169.5,-37 127.5,-37"/>
<polygon fill="none" stroke="black" points="127.5,-37 127.5,-55 169.5,-55 169.5,-37 127.5,-37"/>
<text text-anchor="start" x="150.5" y="-43.2" font-family="Helvetica,sans-Serif" font-size="11.00">1 &gt;</text>
</a>
</g>
</g>
<!-- m_meeting&#45;&gt;m_calendar_instance -->
<g id="edge2" class="edge">
<title>m_meeting:w&#45;&gt;m_calendar_instance:e</title>
<path fill="none" stroke="black" d="M204.99,-106C193.68,-106 186.49,-106 170.5,-106"/>
<polygon fill="black" stroke="black" points="211.5,-106 219.5,-109.6 215.5,-106 219.5,-106 219.5,-106 219.5,-106 215.5,-106 219.5,-102.4 211.5,-106 211.5,-106"/>
<ellipse fill="none" stroke="black" cx="208.3" cy="-106" rx="3.2" ry="3.2"/>
</g>
</g>
</svg>
