<?xml version="1.0" encoding="UTF-8" standalone="no"?>
<!DOCTYPE svg PUBLIC "-//W3C//DTD SVG 1.1//EN"
 "http://www.w3.org/Graphics/SVG/1.1/DTD/svg11.dtd">
<!-- Generated by graphviz version 2.43.0 (0)
 -->
<!-- Title: oneDegreeRelationshipsDiagram Pages: 1 -->
<svg width="842pt" height="265pt"
 viewBox="0.00 0.00 842.00 265.00" xmlns="http://www.w3.org/2000/svg" xmlns:xlink="http://www.w3.org/1999/xlink">
<g id="graph0" class="graph" transform="scale(1 1) rotate(0) translate(4 261)">
<title>oneDegreeRelationshipsDiagram</title>
<polygon fill="#ffffff" stroke="transparent" points="-4,4 -4,-261 838,-261 838,4 -4,4"/>
<text text-anchor="middle" x="71.5" y="-7.2" font-family="Helvetica,sans-Serif" font-size="11.00">Generated by SchemaSpy</text>
<!-- m_creditbureau_loanproduct_mapping -->
<g id="node1" class="node">
<title>m_creditbureau_loanproduct_mapping</title>
<g id="a_node1"><a xlink:href="../../tables/m_creditbureau_loanproduct_mapping.html" xlink:title="m_creditbureau_loanproduct_mapping" target="_top">
<polygon fill="#ffffff" stroke="transparent" points="547,-129 547,-253 826,-253 826,-129 547,-129"/>
<polygon fill="#f5f5f5" stroke="transparent" points="547.5,-231 547.5,-253 826.5,-253 826.5,-231 547.5,-231"/>
<polygon fill="none" stroke="black" points="547.5,-231 547.5,-253 826.5,-253 826.5,-231 547.5,-231"/>
<text text-anchor="start" x="552.5" y="-240.2" font-family="Helvetica,sans-Serif" font-weight="bold" font-size="11.00">m_creditbureau_loanproduct_mapping</text>
<text text-anchor="start" x="791.5" y="-239.2" font-family="Helvetica,sans-Serif" font-size="11.00">[table]</text>
<polygon fill="none" stroke="black" points="547.5,-209 547.5,-231 826.5,-231 826.5,-209 547.5,-209"/>
<image xlink:href="../../images/primaryKeys.png" width="11px" height="12px" preserveAspectRatio="xMinYMin meet" x="552.5" y="-226"/>
<text text-anchor="start" x="567.5" y="-217.2" font-family="Helvetica,sans-Serif" font-size="11.00">id</text>
<polygon fill="#ffffff" stroke="transparent" points="547.5,-187 547.5,-209 826.5,-209 826.5,-187 547.5,-187"/>
<polygon fill="none" stroke="black" points="547.5,-187 547.5,-209 826.5,-209 826.5,-187 547.5,-187"/>
<image xlink:href="../../images/foreignKeys.png" width="11px" height="12px" preserveAspectRatio="xMinYMin meet" x="552.5" y="-204"/>
<text text-anchor="start" x="567.5" y="-195.2" font-family="Helvetica,sans-Serif" font-size="11.00">organisation_creditbureau_id</text>
<polygon fill="#ffffff" stroke="transparent" points="547.5,-165 547.5,-187 826.5,-187 826.5,-165 547.5,-165"/>
<polygon fill="none" stroke="black" points="547.5,-165 547.5,-187 826.5,-187 826.5,-165 547.5,-165"/>
<image xlink:href="../../images/foreignKeys.png" width="11px" height="12px" preserveAspectRatio="xMinYMin meet" x="552.5" y="-182"/>
<text text-anchor="start" x="567.5" y="-173.2" font-family="Helvetica,sans-Serif" font-size="11.00">loan_product_id</text>
<polygon fill="none" stroke="black" points="547.5,-147 547.5,-165 826.5,-165 826.5,-147 547.5,-147"/>
<text text-anchor="start" x="550.5" y="-153.2" font-family="Helvetica,sans-Serif" font-size="11.00">...</text>
<polygon fill="#ffffff" stroke="transparent" points="547.5,-129 547.5,-147 671.5,-147 671.5,-129 547.5,-129"/>
<polygon fill="none" stroke="black" points="547.5,-129 547.5,-147 671.5,-147 671.5,-129 547.5,-129"/>
<text text-anchor="start" x="550.5" y="-135.2" font-family="Helvetica,sans-Serif" font-size="11.00">&lt; 2</text>
<polygon fill="#ffffff" stroke="transparent" points="671.5,-129 671.5,-147 761.5,-147 761.5,-129 671.5,-129"/>
<polygon fill="none" stroke="black" points="671.5,-129 671.5,-147 761.5,-147 761.5,-129 671.5,-129"/>
<text text-anchor="start" x="725.5" y="-135.2" font-family="Helvetica,sans-Serif" font-size="11.00">0 rows</text>
<polygon fill="#ffffff" stroke="transparent" points="761.5,-129 761.5,-147 826.5,-147 826.5,-129 761.5,-129"/>
<polygon fill="none" stroke="black" points="761.5,-129 761.5,-147 826.5,-147 826.5,-129 761.5,-129"/>
<text text-anchor="start" x="816.5" y="-135.2" font-family="Helvetica,sans-Serif" font-size="11.00"> &#160;</text>
</a>
</g>
</g>
<!-- m_organisation_creditbureau -->
<g id="node2" class="node">
<title>m_organisation_creditbureau</title>
<g id="a_node2"><a xlink:href="../../tables/m_organisation_creditbureau.html" xlink:title="m_organisation_creditbureau" target="_top">
<polygon fill="#ffffff" stroke="transparent" points="215,-101 215,-233 498,-233 498,-101 215,-101"/>
<polygon fill="#f5f5f5" stroke="transparent" points="217.5,-209 217.5,-231 496.5,-231 496.5,-209 217.5,-209"/>
<polygon fill="none" stroke="black" points="217.5,-209 217.5,-231 496.5,-231 496.5,-209 217.5,-209"/>
<text text-anchor="start" x="222.5" y="-218.2" font-family="Helvetica,sans-Serif" font-weight="bold" font-size="11.00">m_organisation_creditbureau</text>
<text text-anchor="start" x="461.5" y="-217.2" font-family="Helvetica,sans-Serif" font-size="11.00">[table]</text>
<polygon fill="none" stroke="black" points="217.5,-187 217.5,-209 435.5,-209 435.5,-187 217.5,-187"/>
<image xlink:href="../../images/primaryKeys.png" width="11px" height="12px" preserveAspectRatio="xMinYMin meet" x="222.5" y="-204"/>
<text text-anchor="start" x="237.5" y="-195.2" font-family="Helvetica,sans-Serif" font-size="11.00">id</text>
<polygon fill="none" stroke="black" points="435.5,-187 435.5,-209 496.5,-209 496.5,-187 435.5,-187"/>
<text text-anchor="start" x="438.5" y="-195.2" font-family="Helvetica,sans-Serif" font-size="11.00">bigint[19]</text>
<polygon fill="#ffffff" stroke="transparent" points="217.5,-165 217.5,-187 435.5,-187 435.5,-165 217.5,-165"/>
<polygon fill="none" stroke="black" points="217.5,-165 217.5,-187 435.5,-187 435.5,-165 217.5,-165"/>
<text text-anchor="start" x="237.5" y="-173.2" font-family="Helvetica,sans-Serif" font-size="11.00">alias</text>
<polygon fill="none" stroke="black" points="435.5,-165 435.5,-187 496.5,-187 496.5,-165 435.5,-165"/>
<text text-anchor="start" x="438.5" y="-173.2" font-family="Helvetica,sans-Serif" font-size="11.00">varchar[50]</text>
<polygon fill="#ffffff" stroke="transparent" points="217.5,-143 217.5,-165 435.5,-165 435.5,-143 217.5,-143"/>
<polygon fill="none" stroke="black" points="217.5,-143 217.5,-165 435.5,-165 435.5,-143 217.5,-143"/>
<image xlink:href="../../images/foreignKeys.png" width="11px" height="12px" preserveAspectRatio="xMinYMin meet" x="222.5" y="-160"/>
<text text-anchor="start" x="237.5" y="-151.2" font-family="Helvetica,sans-Serif" font-size="11.00">creditbureau_id</text>
<polygon fill="none" stroke="black" points="435.5,-143 435.5,-165 496.5,-165 496.5,-143 435.5,-143"/>
<text text-anchor="start" x="438.5" y="-151.2" font-family="Helvetica,sans-Serif" font-size="11.00">bigint[19]</text>
<polygon fill="none" stroke="black" points="217.5,-121 217.5,-143 435.5,-143 435.5,-121 217.5,-121"/>
<text text-anchor="start" x="237.5" y="-129.2" font-family="Helvetica,sans-Serif" font-size="11.00">is_active</text>
<polygon fill="none" stroke="black" points="435.5,-121 435.5,-143 496.5,-143 496.5,-121 435.5,-121"/>
<text text-anchor="start" x="438.5" y="-129.2" font-family="Helvetica,sans-Serif" font-size="11.00">bit[1]</text>
<polygon fill="#ffffff" stroke="transparent" points="217.5,-103 217.5,-121 317.5,-121 317.5,-103 217.5,-103"/>
<polygon fill="none" stroke="black" points="217.5,-103 217.5,-121 317.5,-121 317.5,-103 217.5,-103"/>
<text text-anchor="start" x="220.5" y="-109.2" font-family="Helvetica,sans-Serif" font-size="11.00">&lt; 1</text>
<polygon fill="#ffffff" stroke="transparent" points="317.5,-103 317.5,-121 435.5,-121 435.5,-103 317.5,-103"/>
<polygon fill="none" stroke="black" points="317.5,-103 317.5,-121 435.5,-121 435.5,-103 317.5,-103"/>
<text text-anchor="start" x="399.5" y="-109.2" font-family="Helvetica,sans-Serif" font-size="11.00">0 rows</text>
<polygon fill="#ffffff" stroke="transparent" points="435.5,-103 435.5,-121 496.5,-121 496.5,-103 435.5,-103"/>
<polygon fill="none" stroke="black" points="435.5,-103 435.5,-121 496.5,-121 496.5,-103 435.5,-103"/>
<text text-anchor="start" x="477.5" y="-109.2" font-family="Helvetica,sans-Serif" font-size="11.00">1 &gt;</text>
<polygon fill="none" stroke="black" stroke-width="2" points="216,-102 216,-232 497,-232 497,-102 216,-102"/>
</a>
</g>
</g>
<!-- m_creditbureau_loanproduct_mapping&#45;&gt;m_organisation_creditbureau -->
<g id="edge1" class="edge">
<title>m_creditbureau_loanproduct_mapping:w&#45;&gt;m_organisation_creditbureau:e</title>
<path fill="none" stroke="black" d="M531.99,-198C520.68,-198 513.49,-198 497.5,-198"/>
<polygon fill="black" stroke="black" points="538.5,-198 546.5,-201.6 542.5,-198 546.5,-198 546.5,-198 546.5,-198 542.5,-198 546.5,-194.4 538.5,-198 538.5,-198"/>
<ellipse fill="none" stroke="black" cx="535.3" cy="-198" rx="3.2" ry="3.2"/>
</g>
<!-- m_creditbureau -->
<g id="node3" class="node">
<title>m_creditbureau</title>
<g id="a_node3"><a xlink:href="../../tables/m_creditbureau.html" xlink:title="m_creditbureau" target="_top">
<polygon fill="#ffffff" stroke="transparent" points="8,-37 8,-187 166,-187 166,-37 8,-37"/>
<polygon fill="#f5f5f5" stroke="transparent" points="8,-165 8,-187 166,-187 166,-165 8,-165"/>
<polygon fill="none" stroke="black" points="8,-165 8,-187 166,-187 166,-165 8,-165"/>
<text text-anchor="start" x="13" y="-174.2" font-family="Helvetica,sans-Serif" font-weight="bold" font-size="11.00">m_creditbureau</text>
<text text-anchor="start" x="131" y="-173.2" font-family="Helvetica,sans-Serif" font-size="11.00">[table]</text>
<polygon fill="none" stroke="black" points="8,-143 8,-165 166,-165 166,-143 8,-143"/>
<image xlink:href="../../images/primaryKeys.png" width="11px" height="12px" preserveAspectRatio="xMinYMin meet" x="13" y="-160"/>
<text text-anchor="start" x="28" y="-151.2" font-family="Helvetica,sans-Serif" font-size="11.00">id</text>
<polygon fill="#ffffff" stroke="transparent" points="8,-121 8,-143 166,-143 166,-121 8,-121"/>
<polygon fill="none" stroke="black" points="8,-121 8,-143 166,-143 166,-121 8,-121"/>
<text text-anchor="start" x="28" y="-129.2" font-family="Helvetica,sans-Serif" font-size="11.00">name</text>
<polygon fill="#ffffff" stroke="transparent" points="8,-99 8,-121 166,-121 166,-99 8,-99"/>
<polygon fill="none" stroke="black" points="8,-99 8,-121 166,-121 166,-99 8,-99"/>
<text text-anchor="start" x="28" y="-107.2" font-family="Helvetica,sans-Serif" font-size="11.00">product</text>
<polygon fill="#ffffff" stroke="transparent" points="8,-77 8,-99 166,-99 166,-77 8,-77"/>
<polygon fill="none" stroke="black" points="8,-77 8,-99 166,-99 166,-77 8,-77"/>
<text text-anchor="start" x="28" y="-85.2" font-family="Helvetica,sans-Serif" font-size="11.00">country</text>
<polygon fill="#ffffff" stroke="transparent" points="8,-55 8,-77 166,-77 166,-55 8,-55"/>
<polygon fill="none" stroke="black" points="8,-55 8,-77 166,-77 166,-55 8,-55"/>
<text text-anchor="start" x="28" y="-63.2" font-family="Helvetica,sans-Serif" font-size="11.00">implementation_key</text>
<polygon fill="#ffffff" stroke="transparent" points="8,-37 8,-55 65,-55 65,-37 8,-37"/>
<polygon fill="none" stroke="black" points="8,-37 8,-55 65,-55 65,-37 8,-37"/>
<text text-anchor="start" x="11" y="-43.2" font-family="Helvetica,sans-Serif" font-size="11.00"> &#160;</text>
<polygon fill="#ffffff" stroke="transparent" points="65,-37 65,-55 121,-55 121,-37 65,-37"/>
<polygon fill="none" stroke="black" points="65,-37 65,-55 121,-55 121,-37 65,-37"/>
<text text-anchor="start" x="90" y="-43.2" font-family="Helvetica,sans-Serif" font-size="11.00">1 row</text>
<polygon fill="#ffffff" stroke="transparent" points="121,-37 121,-55 166,-55 166,-37 121,-37"/>
<polygon fill="none" stroke="black" points="121,-37 121,-55 166,-55 166,-37 121,-37"/>
<text text-anchor="start" x="147" y="-43.2" font-family="Helvetica,sans-Serif" font-size="11.00">3 &gt;</text>
</a>
</g>
</g>
<!-- m_organisation_creditbureau&#45;&gt;m_creditbureau -->
<g id="edge2" class="edge">
<title>m_organisation_creditbureau:w&#45;&gt;m_creditbureau:e</title>
<path fill="none" stroke="black" d="M201.84,-154C190.41,-154 183.16,-154 167,-154"/>
<polygon fill="black" stroke="black" points="208.5,-154 216.5,-157.6 212.5,-154 216.5,-154 216.5,-154 216.5,-154 212.5,-154 216.5,-150.4 208.5,-154 208.5,-154"/>
<ellipse fill="none" stroke="black" cx="205.3" cy="-154" rx="3.2" ry="3.2"/>
</g>
</g>
</svg>
