<?xml version="1.0" encoding="UTF-8" standalone="no"?>
<!DOCTYPE svg PUBLIC "-//W3C//DTD SVG 1.1//EN"
 "http://www.w3.org/Graphics/SVG/1.1/DTD/svg11.dtd">
<!-- Generated by graphviz version 2.43.0 (0)
 -->
<!-- Title: twoDegreesRelationshipsDiagram Pages: 1 -->
<svg width="842pt" height="418pt"
 viewBox="0.00 0.00 842.00 418.00" xmlns="http://www.w3.org/2000/svg" xmlns:xlink="http://www.w3.org/1999/xlink">
<g id="graph0" class="graph" transform="scale(1 1) rotate(0) translate(4 414)">
<title>twoDegreesRelationshipsDiagram</title>
<polygon fill="#ffffff" stroke="transparent" points="-4,4 -4,-414 838,-414 838,4 -4,4"/>
<text text-anchor="middle" x="71.5" y="-7.2" font-family="Helvetica,sans-Serif" font-size="11.00">Generated by SchemaSpy</text>
<!-- m_creditbureau_configuration -->
<g id="node1" class="node">
<title>m_creditbureau_configuration</title>
<g id="a_node1"><a xlink:href="../../tables/m_creditbureau_configuration.html" xlink:title="m_creditbureau_configuration" target="_top">
<polygon fill="#ffffff" stroke="transparent" points="254.5,-348 254.5,-406 458.5,-406 458.5,-348 254.5,-348"/>
<polygon fill="#f5f5f5" stroke="transparent" points="254.5,-384 254.5,-406 458.5,-406 458.5,-384 254.5,-384"/>
<polygon fill="none" stroke="black" points="254.5,-384 254.5,-406 458.5,-406 458.5,-384 254.5,-384"/>
<text text-anchor="start" x="259.5" y="-393.2" font-family="Helvetica,sans-Serif" font-weight="bold" font-size="11.00">m_creditbureau_configuration</text>
<text text-anchor="start" x="423.5" y="-392.2" font-family="Helvetica,sans-Serif" font-size="11.00">[table]</text>
<polygon fill="none" stroke="black" points="254.5,-366 254.5,-384 458.5,-384 458.5,-366 254.5,-366"/>
<text text-anchor="start" x="257.5" y="-372.2" font-family="Helvetica,sans-Serif" font-size="11.00">...</text>
<polygon fill="#ffffff" stroke="transparent" points="254.5,-348 254.5,-366 341.5,-366 341.5,-348 254.5,-348"/>
<polygon fill="none" stroke="black" points="254.5,-348 254.5,-366 341.5,-366 341.5,-348 254.5,-348"/>
<text text-anchor="start" x="257.5" y="-354.2" font-family="Helvetica,sans-Serif" font-size="11.00">&lt; 1</text>
<polygon fill="#ffffff" stroke="transparent" points="341.5,-348 341.5,-366 412.5,-366 412.5,-348 341.5,-348"/>
<polygon fill="none" stroke="black" points="341.5,-348 341.5,-366 412.5,-366 412.5,-348 341.5,-348"/>
<text text-anchor="start" x="376.5" y="-354.2" font-family="Helvetica,sans-Serif" font-size="11.00">0 rows</text>
<polygon fill="#ffffff" stroke="transparent" points="412.5,-348 412.5,-366 458.5,-366 458.5,-348 412.5,-348"/>
<polygon fill="none" stroke="black" points="412.5,-348 412.5,-366 458.5,-366 458.5,-348 412.5,-348"/>
<text text-anchor="start" x="448.5" y="-354.2" font-family="Helvetica,sans-Serif" font-size="11.00"> &#160;</text>
</a>
</g>
</g>
<!-- m_creditbureau -->
<g id="node2" class="node">
<title>m_creditbureau</title>
<g id="a_node2"><a xlink:href="../../tables/m_creditbureau.html" xlink:title="m_creditbureau" target="_top">
<polygon fill="#ffffff" stroke="transparent" points="8,-131 8,-281 166,-281 166,-131 8,-131"/>
<polygon fill="#f5f5f5" stroke="transparent" points="8,-259 8,-281 166,-281 166,-259 8,-259"/>
<polygon fill="none" stroke="black" points="8,-259 8,-281 166,-281 166,-259 8,-259"/>
<text text-anchor="start" x="13" y="-268.2" font-family="Helvetica,sans-Serif" font-weight="bold" font-size="11.00">m_creditbureau</text>
<text text-anchor="start" x="131" y="-267.2" font-family="Helvetica,sans-Serif" font-size="11.00">[table]</text>
<polygon fill="none" stroke="black" points="8,-237 8,-259 166,-259 166,-237 8,-237"/>
<image xlink:href="../../images/primaryKeys.png" width="11px" height="12px" preserveAspectRatio="xMinYMin meet" x="13" y="-254"/>
<text text-anchor="start" x="28" y="-245.2" font-family="Helvetica,sans-Serif" font-size="11.00">id</text>
<polygon fill="#ffffff" stroke="transparent" points="8,-215 8,-237 166,-237 166,-215 8,-215"/>
<polygon fill="none" stroke="black" points="8,-215 8,-237 166,-237 166,-215 8,-215"/>
<text text-anchor="start" x="28" y="-223.2" font-family="Helvetica,sans-Serif" font-size="11.00">name</text>
<polygon fill="#ffffff" stroke="transparent" points="8,-193 8,-215 166,-215 166,-193 8,-193"/>
<polygon fill="none" stroke="black" points="8,-193 8,-215 166,-215 166,-193 8,-193"/>
<text text-anchor="start" x="28" y="-201.2" font-family="Helvetica,sans-Serif" font-size="11.00">product</text>
<polygon fill="#ffffff" stroke="transparent" points="8,-171 8,-193 166,-193 166,-171 8,-171"/>
<polygon fill="none" stroke="black" points="8,-171 8,-193 166,-193 166,-171 8,-171"/>
<text text-anchor="start" x="28" y="-179.2" font-family="Helvetica,sans-Serif" font-size="11.00">country</text>
<polygon fill="#ffffff" stroke="transparent" points="8,-149 8,-171 166,-171 166,-149 8,-149"/>
<polygon fill="none" stroke="black" points="8,-149 8,-171 166,-171 166,-149 8,-149"/>
<text text-anchor="start" x="28" y="-157.2" font-family="Helvetica,sans-Serif" font-size="11.00">implementation_key</text>
<polygon fill="#ffffff" stroke="transparent" points="8,-131 8,-149 65,-149 65,-131 8,-131"/>
<polygon fill="none" stroke="black" points="8,-131 8,-149 65,-149 65,-131 8,-131"/>
<text text-anchor="start" x="11" y="-137.2" font-family="Helvetica,sans-Serif" font-size="11.00"> &#160;</text>
<polygon fill="#ffffff" stroke="transparent" points="65,-131 65,-149 121,-149 121,-131 65,-131"/>
<polygon fill="none" stroke="black" points="65,-131 65,-149 121,-149 121,-131 65,-131"/>
<text text-anchor="start" x="90" y="-137.2" font-family="Helvetica,sans-Serif" font-size="11.00">1 row</text>
<polygon fill="#ffffff" stroke="transparent" points="121,-131 121,-149 166,-149 166,-131 121,-131"/>
<polygon fill="none" stroke="black" points="121,-131 121,-149 166,-149 166,-131 121,-131"/>
<text text-anchor="start" x="147" y="-137.2" font-family="Helvetica,sans-Serif" font-size="11.00">3 &gt;</text>
</a>
</g>
</g>
<!-- m_creditbureau_configuration&#45;&gt;m_creditbureau -->
<g id="edge1" class="edge">
<title>m_creditbureau_configuration:w&#45;&gt;m_creditbureau:e</title>
<path fill="none" stroke="black" d="M239.03,-372.81C224.79,-367.72 219.63,-354.32 207,-338 180.22,-303.38 210.77,-248 167,-248"/>
<polygon fill="black" stroke="black" points="245.59,-373.8 252.96,-378.56 249.55,-374.4 253.5,-375 253.5,-375 253.5,-375 249.55,-374.4 254.04,-371.44 245.59,-373.8 245.59,-373.8"/>
<ellipse fill="none" stroke="black" cx="242.43" cy="-373.32" rx="3.2" ry="3.2"/>
</g>
<!-- m_creditbureau_loanproduct_mapping -->
<g id="node3" class="node">
<title>m_creditbureau_loanproduct_mapping</title>
<g id="a_node3"><a xlink:href="../../tables/m_creditbureau_loanproduct_mapping.html" xlink:title="m_creditbureau_loanproduct_mapping" target="_top">
<polygon fill="#ffffff" stroke="transparent" points="547,-159 547,-283 826,-283 826,-159 547,-159"/>
<polygon fill="#f5f5f5" stroke="transparent" points="547.5,-261 547.5,-283 826.5,-283 826.5,-261 547.5,-261"/>
<polygon fill="none" stroke="black" points="547.5,-261 547.5,-283 826.5,-283 826.5,-261 547.5,-261"/>
<text text-anchor="start" x="552.5" y="-270.2" font-family="Helvetica,sans-Serif" font-weight="bold" font-size="11.00">m_creditbureau_loanproduct_mapping</text>
<text text-anchor="start" x="791.5" y="-269.2" font-family="Helvetica,sans-Serif" font-size="11.00">[table]</text>
<polygon fill="none" stroke="black" points="547.5,-239 547.5,-261 826.5,-261 826.5,-239 547.5,-239"/>
<image xlink:href="../../images/primaryKeys.png" width="11px" height="12px" preserveAspectRatio="xMinYMin meet" x="552.5" y="-256"/>
<text text-anchor="start" x="567.5" y="-247.2" font-family="Helvetica,sans-Serif" font-size="11.00">id</text>
<polygon fill="#ffffff" stroke="transparent" points="547.5,-217 547.5,-239 826.5,-239 826.5,-217 547.5,-217"/>
<polygon fill="none" stroke="black" points="547.5,-217 547.5,-239 826.5,-239 826.5,-217 547.5,-217"/>
<image xlink:href="../../images/foreignKeys.png" width="11px" height="12px" preserveAspectRatio="xMinYMin meet" x="552.5" y="-234"/>
<text text-anchor="start" x="567.5" y="-225.2" font-family="Helvetica,sans-Serif" font-size="11.00">organisation_creditbureau_id</text>
<polygon fill="#ffffff" stroke="transparent" points="547.5,-195 547.5,-217 826.5,-217 826.5,-195 547.5,-195"/>
<polygon fill="none" stroke="black" points="547.5,-195 547.5,-217 826.5,-217 826.5,-195 547.5,-195"/>
<image xlink:href="../../images/foreignKeys.png" width="11px" height="12px" preserveAspectRatio="xMinYMin meet" x="552.5" y="-212"/>
<text text-anchor="start" x="567.5" y="-203.2" font-family="Helvetica,sans-Serif" font-size="11.00">loan_product_id</text>
<polygon fill="none" stroke="black" points="547.5,-177 547.5,-195 826.5,-195 826.5,-177 547.5,-177"/>
<text text-anchor="start" x="550.5" y="-183.2" font-family="Helvetica,sans-Serif" font-size="11.00">...</text>
<polygon fill="#ffffff" stroke="transparent" points="547.5,-159 547.5,-177 671.5,-177 671.5,-159 547.5,-159"/>
<polygon fill="none" stroke="black" points="547.5,-159 547.5,-177 671.5,-177 671.5,-159 547.5,-159"/>
<text text-anchor="start" x="550.5" y="-165.2" font-family="Helvetica,sans-Serif" font-size="11.00">&lt; 2</text>
<polygon fill="#ffffff" stroke="transparent" points="671.5,-159 671.5,-177 761.5,-177 761.5,-159 671.5,-159"/>
<polygon fill="none" stroke="black" points="671.5,-159 671.5,-177 761.5,-177 761.5,-159 671.5,-159"/>
<text text-anchor="start" x="725.5" y="-165.2" font-family="Helvetica,sans-Serif" font-size="11.00">0 rows</text>
<polygon fill="#ffffff" stroke="transparent" points="761.5,-159 761.5,-177 826.5,-177 826.5,-159 761.5,-159"/>
<polygon fill="none" stroke="black" points="761.5,-159 761.5,-177 826.5,-177 826.5,-159 761.5,-159"/>
<text text-anchor="start" x="816.5" y="-165.2" font-family="Helvetica,sans-Serif" font-size="11.00"> &#160;</text>
</a>
</g>
</g>
<!-- m_product_loan -->
<g id="node4" class="node">
<title>m_product_loan</title>
<g id="a_node4"><a xlink:href="../../tables/m_product_loan.html" xlink:title="m_product_loan" target="_top">
<polygon fill="#ffffff" stroke="transparent" points="291.5,-116 291.5,-174 421.5,-174 421.5,-116 291.5,-116"/>
<polygon fill="#f5f5f5" stroke="transparent" points="291.5,-152 291.5,-174 421.5,-174 421.5,-152 291.5,-152"/>
<polygon fill="none" stroke="black" points="291.5,-152 291.5,-174 421.5,-174 421.5,-152 291.5,-152"/>
<text text-anchor="start" x="296.5" y="-161.2" font-family="Helvetica,sans-Serif" font-weight="bold" font-size="11.00">m_product_loan</text>
<text text-anchor="start" x="386.5" y="-160.2" font-family="Helvetica,sans-Serif" font-size="11.00">[table]</text>
<polygon fill="none" stroke="black" points="291.5,-134 291.5,-152 421.5,-152 421.5,-134 291.5,-134"/>
<text text-anchor="start" x="294.5" y="-140.2" font-family="Helvetica,sans-Serif" font-size="11.00">...</text>
<polygon fill="#ffffff" stroke="transparent" points="291.5,-116 291.5,-134 333.5,-134 333.5,-116 291.5,-116"/>
<polygon fill="none" stroke="black" points="291.5,-116 291.5,-134 333.5,-134 333.5,-116 291.5,-116"/>
<text text-anchor="start" x="294.5" y="-122.2" font-family="Helvetica,sans-Serif" font-size="11.00">&lt; 2</text>
<polygon fill="#ffffff" stroke="transparent" points="333.5,-116 333.5,-134 382.5,-134 382.5,-116 333.5,-116"/>
<polygon fill="none" stroke="black" points="333.5,-116 333.5,-134 382.5,-134 382.5,-116 333.5,-116"/>
<text text-anchor="start" x="346.5" y="-122.2" font-family="Helvetica,sans-Serif" font-size="11.00">0 rows</text>
<polygon fill="#ffffff" stroke="transparent" points="382.5,-116 382.5,-134 421.5,-134 421.5,-116 382.5,-116"/>
<polygon fill="none" stroke="black" points="382.5,-116 382.5,-134 421.5,-134 421.5,-116 382.5,-116"/>
<text text-anchor="start" x="396.5" y="-122.2" font-family="Helvetica,sans-Serif" font-size="11.00">14 &gt;</text>
</a>
</g>
</g>
<!-- m_creditbureau_loanproduct_mapping&#45;&gt;m_product_loan -->
<g id="edge2" class="edge">
<title>m_creditbureau_loanproduct_mapping:w&#45;&gt;m_product_loan:e</title>
<path fill="none" stroke="black" d="M532.34,-203.26C523.54,-199.23 518.7,-191.48 506,-185 469,-166.11 464.04,-143 422.5,-143"/>
<polygon fill="black" stroke="black" points="538.65,-204.48 545.82,-209.53 542.57,-205.24 546.5,-206 546.5,-206 546.5,-206 542.57,-205.24 547.18,-202.47 538.65,-204.48 538.65,-204.48"/>
<ellipse fill="none" stroke="black" cx="535.5" cy="-203.87" rx="3.2" ry="3.2"/>
</g>
<!-- m_organisation_creditbureau -->
<g id="node5" class="node">
<title>m_organisation_creditbureau</title>
<g id="a_node5"><a xlink:href="../../tables/m_organisation_creditbureau.html" xlink:title="m_organisation_creditbureau" target="_top">
<polygon fill="#ffffff" stroke="transparent" points="215,-195 215,-327 498,-327 498,-195 215,-195"/>
<polygon fill="#f5f5f5" stroke="transparent" points="217.5,-303 217.5,-325 496.5,-325 496.5,-303 217.5,-303"/>
<polygon fill="none" stroke="black" points="217.5,-303 217.5,-325 496.5,-325 496.5,-303 217.5,-303"/>
<text text-anchor="start" x="222.5" y="-312.2" font-family="Helvetica,sans-Serif" font-weight="bold" font-size="11.00">m_organisation_creditbureau</text>
<text text-anchor="start" x="461.5" y="-311.2" font-family="Helvetica,sans-Serif" font-size="11.00">[table]</text>
<polygon fill="none" stroke="black" points="217.5,-281 217.5,-303 435.5,-303 435.5,-281 217.5,-281"/>
<image xlink:href="../../images/primaryKeys.png" width="11px" height="12px" preserveAspectRatio="xMinYMin meet" x="222.5" y="-298"/>
<text text-anchor="start" x="237.5" y="-289.2" font-family="Helvetica,sans-Serif" font-size="11.00">id</text>
<polygon fill="none" stroke="black" points="435.5,-281 435.5,-303 496.5,-303 496.5,-281 435.5,-281"/>
<text text-anchor="start" x="438.5" y="-289.2" font-family="Helvetica,sans-Serif" font-size="11.00">bigint[19]</text>
<polygon fill="#ffffff" stroke="transparent" points="217.5,-259 217.5,-281 435.5,-281 435.5,-259 217.5,-259"/>
<polygon fill="none" stroke="black" points="217.5,-259 217.5,-281 435.5,-281 435.5,-259 217.5,-259"/>
<text text-anchor="start" x="237.5" y="-267.2" font-family="Helvetica,sans-Serif" font-size="11.00">alias</text>
<polygon fill="none" stroke="black" points="435.5,-259 435.5,-281 496.5,-281 496.5,-259 435.5,-259"/>
<text text-anchor="start" x="438.5" y="-267.2" font-family="Helvetica,sans-Serif" font-size="11.00">varchar[50]</text>
<polygon fill="#ffffff" stroke="transparent" points="217.5,-237 217.5,-259 435.5,-259 435.5,-237 217.5,-237"/>
<polygon fill="none" stroke="black" points="217.5,-237 217.5,-259 435.5,-259 435.5,-237 217.5,-237"/>
<image xlink:href="../../images/foreignKeys.png" width="11px" height="12px" preserveAspectRatio="xMinYMin meet" x="222.5" y="-254"/>
<text text-anchor="start" x="237.5" y="-245.2" font-family="Helvetica,sans-Serif" font-size="11.00">creditbureau_id</text>
<polygon fill="none" stroke="black" points="435.5,-237 435.5,-259 496.5,-259 496.5,-237 435.5,-237"/>
<text text-anchor="start" x="438.5" y="-245.2" font-family="Helvetica,sans-Serif" font-size="11.00">bigint[19]</text>
<polygon fill="none" stroke="black" points="217.5,-215 217.5,-237 435.5,-237 435.5,-215 217.5,-215"/>
<text text-anchor="start" x="237.5" y="-223.2" font-family="Helvetica,sans-Serif" font-size="11.00">is_active</text>
<polygon fill="none" stroke="black" points="435.5,-215 435.5,-237 496.5,-237 496.5,-215 435.5,-215"/>
<text text-anchor="start" x="438.5" y="-223.2" font-family="Helvetica,sans-Serif" font-size="11.00">bit[1]</text>
<polygon fill="#ffffff" stroke="transparent" points="217.5,-197 217.5,-215 317.5,-215 317.5,-197 217.5,-197"/>
<polygon fill="none" stroke="black" points="217.5,-197 217.5,-215 317.5,-215 317.5,-197 217.5,-197"/>
<text text-anchor="start" x="220.5" y="-203.2" font-family="Helvetica,sans-Serif" font-size="11.00">&lt; 1</text>
<polygon fill="#ffffff" stroke="transparent" points="317.5,-197 317.5,-215 435.5,-215 435.5,-197 317.5,-197"/>
<polygon fill="none" stroke="black" points="317.5,-197 317.5,-215 435.5,-215 435.5,-197 317.5,-197"/>
<text text-anchor="start" x="399.5" y="-203.2" font-family="Helvetica,sans-Serif" font-size="11.00">0 rows</text>
<polygon fill="#ffffff" stroke="transparent" points="435.5,-197 435.5,-215 496.5,-215 496.5,-197 435.5,-197"/>
<polygon fill="none" stroke="black" points="435.5,-197 435.5,-215 496.5,-215 496.5,-197 435.5,-197"/>
<text text-anchor="start" x="477.5" y="-203.2" font-family="Helvetica,sans-Serif" font-size="11.00">1 &gt;</text>
<polygon fill="none" stroke="black" stroke-width="2" points="216,-196 216,-326 497,-326 497,-196 216,-196"/>
</a>
</g>
</g>
<!-- m_creditbureau_loanproduct_mapping&#45;&gt;m_organisation_creditbureau -->
<g id="edge3" class="edge">
<title>m_creditbureau_loanproduct_mapping:w&#45;&gt;m_organisation_creditbureau:e</title>
<path fill="none" stroke="black" d="M532.62,-233.02C516.73,-248.11 527.17,-292 497.5,-292"/>
<polygon fill="black" stroke="black" points="538.98,-230.72 547.72,-231.39 542.74,-229.36 546.5,-228 546.5,-228 546.5,-228 542.74,-229.36 545.28,-224.61 538.98,-230.72 538.98,-230.72"/>
<ellipse fill="none" stroke="black" cx="535.97" cy="-231.81" rx="3.2" ry="3.2"/>
</g>
<!-- m_organisation_creditbureau&#45;&gt;m_creditbureau -->
<g id="edge5" class="edge">
<title>m_organisation_creditbureau:w&#45;&gt;m_creditbureau:e</title>
<path fill="none" stroke="black" d="M201.84,-248C190.41,-248 183.16,-248 167,-248"/>
<polygon fill="black" stroke="black" points="208.5,-248 216.5,-251.6 212.5,-248 216.5,-248 216.5,-248 216.5,-248 212.5,-248 216.5,-244.4 208.5,-248 208.5,-248"/>
<ellipse fill="none" stroke="black" cx="205.3" cy="-248" rx="3.2" ry="3.2"/>
</g>
<!-- m_creditreport -->
<g id="node6" class="node">
<title>m_creditreport</title>
<g id="a_node6"><a xlink:href="../../tables/m_creditreport.html" xlink:title="m_creditreport" target="_top">
<polygon fill="#ffffff" stroke="transparent" points="295,-37 295,-95 418,-95 418,-37 295,-37"/>
<polygon fill="#f5f5f5" stroke="transparent" points="295.5,-73 295.5,-95 418.5,-95 418.5,-73 295.5,-73"/>
<polygon fill="none" stroke="black" points="295.5,-73 295.5,-95 418.5,-95 418.5,-73 295.5,-73"/>
<text text-anchor="start" x="300.5" y="-82.2" font-family="Helvetica,sans-Serif" font-weight="bold" font-size="11.00">m_creditreport</text>
<text text-anchor="start" x="383.5" y="-81.2" font-family="Helvetica,sans-Serif" font-size="11.00">[table]</text>
<polygon fill="none" stroke="black" points="295.5,-55 295.5,-73 418.5,-73 418.5,-55 295.5,-55"/>
<text text-anchor="start" x="298.5" y="-61.2" font-family="Helvetica,sans-Serif" font-size="11.00">...</text>
<polygon fill="#ffffff" stroke="transparent" points="295.5,-37 295.5,-55 341.5,-55 341.5,-37 295.5,-37"/>
<polygon fill="none" stroke="black" points="295.5,-37 295.5,-55 341.5,-55 341.5,-37 295.5,-37"/>
<text text-anchor="start" x="298.5" y="-43.2" font-family="Helvetica,sans-Serif" font-size="11.00">&lt; 1</text>
<polygon fill="#ffffff" stroke="transparent" points="341.5,-37 341.5,-55 392.5,-55 392.5,-37 341.5,-37"/>
<polygon fill="none" stroke="black" points="341.5,-37 341.5,-55 392.5,-55 392.5,-37 341.5,-37"/>
<text text-anchor="start" x="356.5" y="-43.2" font-family="Helvetica,sans-Serif" font-size="11.00">0 rows</text>
<polygon fill="#ffffff" stroke="transparent" points="392.5,-37 392.5,-55 418.5,-55 418.5,-37 392.5,-37"/>
<polygon fill="none" stroke="black" points="392.5,-37 392.5,-55 418.5,-55 418.5,-37 392.5,-37"/>
<text text-anchor="start" x="408.5" y="-43.2" font-family="Helvetica,sans-Serif" font-size="11.00"> &#160;</text>
</a>
</g>
</g>
<!-- m_creditreport&#45;&gt;m_creditbureau -->
<g id="edge4" class="edge">
<title>m_creditreport:w&#45;&gt;m_creditbureau:e</title>
<path fill="none" stroke="black" d="M279.98,-64.39C247.32,-66.35 231.39,-76.2 207,-105 164.35,-155.36 233,-248 167,-248"/>
<polygon fill="black" stroke="black" points="286.5,-64.22 294.6,-67.6 290.5,-64.11 294.5,-64 294.5,-64 294.5,-64 290.5,-64.11 294.4,-60.4 286.5,-64.22 286.5,-64.22"/>
<ellipse fill="none" stroke="black" cx="283.3" cy="-64.3" rx="3.2" ry="3.2"/>
</g>
</g>
</svg>
