<?xml version="1.0" encoding="UTF-8" standalone="no"?>
<!DOCTYPE svg PUBLIC "-//W3C//DTD SVG 1.1//EN"
 "http://www.w3.org/Graphics/SVG/1.1/DTD/svg11.dtd">
<!-- Generated by graphviz version 2.43.0 (0)
 -->
<!-- Title: twoDegreesRelationshipsDiagram Pages: 1 -->
<svg width="442pt" height="304pt"
 viewBox="0.00 0.00 442.00 304.00" xmlns="http://www.w3.org/2000/svg" xmlns:xlink="http://www.w3.org/1999/xlink">
<g id="graph0" class="graph" transform="scale(1 1) rotate(0) translate(4 300)">
<title>twoDegreesRelationshipsDiagram</title>
<polygon fill="#ffffff" stroke="transparent" points="-4,4 -4,-300 438,-300 438,4 -4,4"/>
<text text-anchor="middle" x="71.5" y="-7.2" font-family="Helvetica,sans-Serif" font-size="11.00">Generated by SchemaSpy</text>
<!-- m_role_permission -->
<g id="node1" class="node">
<title>m_role_permission</title>
<g id="a_node1"><a xlink:href="../../tables/m_role_permission.html" xlink:title="m_role_permission" target="_top">
<polygon fill="#ffffff" stroke="transparent" points="280,-179 280,-263 426,-263 426,-179 280,-179"/>
<polygon fill="#f5f5f5" stroke="transparent" points="280,-241 280,-263 426,-263 426,-241 280,-241"/>
<polygon fill="none" stroke="black" points="280,-241 280,-263 426,-263 426,-241 280,-241"/>
<text text-anchor="start" x="285" y="-250.2" font-family="Helvetica,sans-Serif" font-weight="bold" font-size="11.00">m_role_permission</text>
<text text-anchor="start" x="391" y="-249.2" font-family="Helvetica,sans-Serif" font-size="11.00">[table]</text>
<polygon fill="none" stroke="black" points="280,-219 280,-241 426,-241 426,-219 280,-219"/>
<image xlink:href="../../images/primaryKeys.png" width="11px" height="12px" preserveAspectRatio="xMinYMin meet" x="285" y="-236"/>
<text text-anchor="start" x="300" y="-227.2" font-family="Helvetica,sans-Serif" font-size="11.00">role_id</text>
<polygon fill="none" stroke="black" points="280,-197 280,-219 426,-219 426,-197 280,-197"/>
<image xlink:href="../../images/primaryKeys.png" width="11px" height="12px" preserveAspectRatio="xMinYMin meet" x="285" y="-214"/>
<text text-anchor="start" x="300" y="-205.2" font-family="Helvetica,sans-Serif" font-size="11.00">permission_id</text>
<polygon fill="#ffffff" stroke="transparent" points="280,-179 280,-197 338,-197 338,-179 280,-179"/>
<polygon fill="none" stroke="black" points="280,-179 280,-197 338,-197 338,-179 280,-179"/>
<text text-anchor="start" x="283" y="-185.2" font-family="Helvetica,sans-Serif" font-size="11.00">&lt; 2</text>
<polygon fill="#ffffff" stroke="transparent" points="338,-179 338,-197 395,-197 395,-179 338,-179"/>
<polygon fill="none" stroke="black" points="338,-179 338,-197 395,-197 395,-179 338,-179"/>
<text text-anchor="start" x="359" y="-185.2" font-family="Helvetica,sans-Serif" font-size="11.00">0 rows</text>
<polygon fill="#ffffff" stroke="transparent" points="395,-179 395,-197 426,-197 426,-179 395,-179"/>
<polygon fill="none" stroke="black" points="395,-179 395,-197 426,-197 426,-179 395,-179"/>
<text text-anchor="start" x="416" y="-185.2" font-family="Helvetica,sans-Serif" font-size="11.00"> &#160;</text>
</a>
</g>
</g>
<!-- m_permission -->
<g id="node2" class="node">
<title>m_permission</title>
<g id="a_node2"><a xlink:href="../../tables/m_permission.html" xlink:title="m_permission" target="_top">
<polygon fill="#ffffff" stroke="transparent" points="8,-37 8,-213 231,-213 231,-37 8,-37"/>
<polygon fill="#f5f5f5" stroke="transparent" points="10.5,-189 10.5,-211 229.5,-211 229.5,-189 10.5,-189"/>
<polygon fill="none" stroke="black" points="10.5,-189 10.5,-211 229.5,-211 229.5,-189 10.5,-189"/>
<text text-anchor="start" x="15.5" y="-198.2" font-family="Helvetica,sans-Serif" font-weight="bold" font-size="11.00">m_permission</text>
<text text-anchor="start" x="194.5" y="-197.2" font-family="Helvetica,sans-Serif" font-size="11.00">[table]</text>
<polygon fill="none" stroke="black" points="10.5,-167 10.5,-189 162.5,-189 162.5,-167 10.5,-167"/>
<image xlink:href="../../images/primaryKeys.png" width="11px" height="12px" preserveAspectRatio="xMinYMin meet" x="15.5" y="-184"/>
<text text-anchor="start" x="30.5" y="-175.2" font-family="Helvetica,sans-Serif" font-size="11.00">id</text>
<polygon fill="none" stroke="black" points="162.5,-167 162.5,-189 229.5,-189 229.5,-167 162.5,-167"/>
<text text-anchor="start" x="165.5" y="-175.2" font-family="Helvetica,sans-Serif" font-size="11.00">bigint[19]</text>
<polygon fill="none" stroke="black" points="10.5,-145 10.5,-167 162.5,-167 162.5,-145 10.5,-145"/>
<text text-anchor="start" x="30.5" y="-153.2" font-family="Helvetica,sans-Serif" font-size="11.00">grouping</text>
<polygon fill="none" stroke="black" points="162.5,-145 162.5,-167 229.5,-167 229.5,-145 162.5,-145"/>
<text text-anchor="start" x="165.5" y="-153.2" font-family="Helvetica,sans-Serif" font-size="11.00">varchar[45]</text>
<polygon fill="#ffffff" stroke="transparent" points="10.5,-123 10.5,-145 162.5,-145 162.5,-123 10.5,-123"/>
<polygon fill="none" stroke="black" points="10.5,-123 10.5,-145 162.5,-145 162.5,-123 10.5,-123"/>
<text text-anchor="start" x="30.5" y="-131.2" font-family="Helvetica,sans-Serif" font-size="11.00">code</text>
<polygon fill="none" stroke="black" points="162.5,-123 162.5,-145 229.5,-145 229.5,-123 162.5,-123"/>
<text text-anchor="start" x="165.5" y="-131.2" font-family="Helvetica,sans-Serif" font-size="11.00">varchar[100]</text>
<polygon fill="none" stroke="black" points="10.5,-101 10.5,-123 162.5,-123 162.5,-101 10.5,-101"/>
<text text-anchor="start" x="30.5" y="-109.2" font-family="Helvetica,sans-Serif" font-size="11.00">entity_name</text>
<polygon fill="none" stroke="black" points="162.5,-101 162.5,-123 229.5,-123 229.5,-101 162.5,-101"/>
<text text-anchor="start" x="165.5" y="-109.2" font-family="Helvetica,sans-Serif" font-size="11.00">varchar[100]</text>
<polygon fill="none" stroke="black" points="10.5,-79 10.5,-101 162.5,-101 162.5,-79 10.5,-79"/>
<text text-anchor="start" x="30.5" y="-87.2" font-family="Helvetica,sans-Serif" font-size="11.00">action_name</text>
<polygon fill="none" stroke="black" points="162.5,-79 162.5,-101 229.5,-101 229.5,-79 162.5,-79"/>
<text text-anchor="start" x="165.5" y="-87.2" font-family="Helvetica,sans-Serif" font-size="11.00">varchar[100]</text>
<polygon fill="none" stroke="black" points="10.5,-57 10.5,-79 162.5,-79 162.5,-57 10.5,-57"/>
<text text-anchor="start" x="30.5" y="-65.2" font-family="Helvetica,sans-Serif" font-size="11.00">can_maker_checker</text>
<polygon fill="none" stroke="black" points="162.5,-57 162.5,-79 229.5,-79 229.5,-57 162.5,-57"/>
<text text-anchor="start" x="165.5" y="-65.2" font-family="Helvetica,sans-Serif" font-size="11.00">bit[1]</text>
<polygon fill="#ffffff" stroke="transparent" points="10.5,-39 10.5,-57 71.5,-57 71.5,-39 10.5,-39"/>
<polygon fill="none" stroke="black" points="10.5,-39 10.5,-57 71.5,-57 71.5,-39 10.5,-39"/>
<text text-anchor="start" x="13.5" y="-45.2" font-family="Helvetica,sans-Serif" font-size="11.00">&lt; 0</text>
<polygon fill="#ffffff" stroke="transparent" points="71.5,-39 71.5,-57 162.5,-57 162.5,-39 71.5,-39"/>
<polygon fill="none" stroke="black" points="71.5,-39 71.5,-57 162.5,-57 162.5,-39 71.5,-39"/>
<text text-anchor="start" x="114.5" y="-45.2" font-family="Helvetica,sans-Serif" font-size="11.00">865 rows</text>
<polygon fill="#ffffff" stroke="transparent" points="162.5,-39 162.5,-57 229.5,-57 229.5,-39 162.5,-39"/>
<polygon fill="none" stroke="black" points="162.5,-39 162.5,-57 229.5,-57 229.5,-39 162.5,-39"/>
<text text-anchor="start" x="210.5" y="-45.2" font-family="Helvetica,sans-Serif" font-size="11.00">1 &gt;</text>
<polygon fill="none" stroke="black" stroke-width="2" points="9,-38 9,-212 230,-212 230,-38 9,-38"/>
</a>
</g>
</g>
<!-- m_role_permission&#45;&gt;m_permission -->
<g id="edge1" class="edge">
<title>m_role_permission:w&#45;&gt;m_permission:e</title>
<path fill="none" stroke="black" d="M265.01,-203.83C253.17,-195.59 249.91,-178 230.5,-178"/>
<polygon fill="black" stroke="black" points="271.33,-205.71 277.97,-211.45 275.17,-206.86 279,-208 279,-208 279,-208 275.17,-206.86 280.03,-204.55 271.33,-205.71 271.33,-205.71"/>
<ellipse fill="none" stroke="black" cx="268.27" cy="-204.8" rx="3.2" ry="3.2"/>
</g>
<!-- m_role -->
<g id="node3" class="node">
<title>m_role</title>
<g id="a_node3"><a xlink:href="../../tables/m_role.html" xlink:title="m_role" target="_top">
<polygon fill="#ffffff" stroke="transparent" points="79,-234 79,-292 160,-292 160,-234 79,-234"/>
<polygon fill="#f5f5f5" stroke="transparent" points="79.5,-270 79.5,-292 160.5,-292 160.5,-270 79.5,-270"/>
<polygon fill="none" stroke="black" points="79.5,-270 79.5,-292 160.5,-292 160.5,-270 79.5,-270"/>
<text text-anchor="start" x="84.5" y="-279.2" font-family="Helvetica,sans-Serif" font-weight="bold" font-size="11.00">m_role</text>
<text text-anchor="start" x="125.5" y="-278.2" font-family="Helvetica,sans-Serif" font-size="11.00">[table]</text>
<polygon fill="none" stroke="black" points="79.5,-252 79.5,-270 160.5,-270 160.5,-252 79.5,-252"/>
<text text-anchor="start" x="82.5" y="-258.2" font-family="Helvetica,sans-Serif" font-size="11.00">...</text>
<polygon fill="#ffffff" stroke="transparent" points="79.5,-234 79.5,-252 95.5,-252 95.5,-234 79.5,-234"/>
<polygon fill="none" stroke="black" points="79.5,-234 79.5,-252 95.5,-252 95.5,-234 79.5,-234"/>
<text text-anchor="start" x="82.5" y="-240.2" font-family="Helvetica,sans-Serif" font-size="11.00"> &#160;</text>
<polygon fill="#ffffff" stroke="transparent" points="95.5,-234 95.5,-252 136.5,-252 136.5,-234 95.5,-234"/>
<polygon fill="none" stroke="black" points="95.5,-234 95.5,-252 136.5,-252 136.5,-234 95.5,-234"/>
<text text-anchor="start" x="100.5" y="-240.2" font-family="Helvetica,sans-Serif" font-size="11.00">0 rows</text>
<polygon fill="#ffffff" stroke="transparent" points="136.5,-234 136.5,-252 160.5,-252 160.5,-234 136.5,-234"/>
<polygon fill="none" stroke="black" points="136.5,-234 136.5,-252 160.5,-252 160.5,-234 136.5,-234"/>
<text text-anchor="start" x="141.5" y="-240.2" font-family="Helvetica,sans-Serif" font-size="11.00">2 &gt;</text>
</a>
</g>
</g>
<!-- m_role_permission&#45;&gt;m_role -->
<g id="edge2" class="edge">
<title>m_role_permission:w&#45;&gt;m_role:e</title>
<path fill="none" stroke="black" d="M264.37,-230.83C222.71,-235.76 210.23,-261 161.5,-261"/>
<polygon fill="black" stroke="black" points="271.01,-230.45 279.2,-233.59 275.01,-230.23 279,-230 279,-230 279,-230 275.01,-230.23 278.8,-226.41 271.01,-230.45 271.01,-230.45"/>
<ellipse fill="none" stroke="black" cx="267.82" cy="-230.63" rx="3.2" ry="3.2"/>
</g>
</g>
</svg>
