<?xml version="1.0" encoding="UTF-8" standalone="no"?>
<!DOCTYPE svg PUBLIC "-//W3C//DTD SVG 1.1//EN"
 "http://www.w3.org/Graphics/SVG/1.1/DTD/svg11.dtd">
<!-- Generated by graphviz version 2.43.0 (0)
 -->
<!-- Title: oneDegreeRelationshipsDiagram Pages: 1 -->
<svg width="442pt" height="245pt"
 viewBox="0.00 0.00 442.00 245.00" xmlns="http://www.w3.org/2000/svg" xmlns:xlink="http://www.w3.org/1999/xlink">
<g id="graph0" class="graph" transform="scale(1 1) rotate(0) translate(4 241)">
<title>oneDegreeRelationshipsDiagram</title>
<polygon fill="#ffffff" stroke="transparent" points="-4,4 -4,-241 438,-241 438,4 -4,4"/>
<text text-anchor="middle" x="71.5" y="-7.2" font-family="Helvetica,sans-Serif" font-size="11.00">Generated by SchemaSpy</text>
<!-- m_role_permission -->
<g id="node1" class="node">
<title>m_role_permission</title>
<g id="a_node1"><a xlink:href="../../tables/m_role_permission.html" xlink:title="m_role_permission" target="_top">
<polygon fill="#ffffff" stroke="transparent" points="280,-149 280,-233 426,-233 426,-149 280,-149"/>
<polygon fill="#f5f5f5" stroke="transparent" points="280,-211 280,-233 426,-233 426,-211 280,-211"/>
<polygon fill="none" stroke="black" points="280,-211 280,-233 426,-233 426,-211 280,-211"/>
<text text-anchor="start" x="285" y="-220.2" font-family="Helvetica,sans-Serif" font-weight="bold" font-size="11.00">m_role_permission</text>
<text text-anchor="start" x="391" y="-219.2" font-family="Helvetica,sans-Serif" font-size="11.00">[table]</text>
<polygon fill="none" stroke="black" points="280,-189 280,-211 426,-211 426,-189 280,-189"/>
<image xlink:href="../../images/primaryKeys.png" width="11px" height="12px" preserveAspectRatio="xMinYMin meet" x="285" y="-206"/>
<text text-anchor="start" x="300" y="-197.2" font-family="Helvetica,sans-Serif" font-size="11.00">role_id</text>
<polygon fill="none" stroke="black" points="280,-167 280,-189 426,-189 426,-167 280,-167"/>
<image xlink:href="../../images/primaryKeys.png" width="11px" height="12px" preserveAspectRatio="xMinYMin meet" x="285" y="-184"/>
<text text-anchor="start" x="300" y="-175.2" font-family="Helvetica,sans-Serif" font-size="11.00">permission_id</text>
<polygon fill="#ffffff" stroke="transparent" points="280,-149 280,-167 338,-167 338,-149 280,-149"/>
<polygon fill="none" stroke="black" points="280,-149 280,-167 338,-167 338,-149 280,-149"/>
<text text-anchor="start" x="283" y="-155.2" font-family="Helvetica,sans-Serif" font-size="11.00">&lt; 2</text>
<polygon fill="#ffffff" stroke="transparent" points="338,-149 338,-167 395,-167 395,-149 338,-149"/>
<polygon fill="none" stroke="black" points="338,-149 338,-167 395,-167 395,-149 338,-149"/>
<text text-anchor="start" x="359" y="-155.2" font-family="Helvetica,sans-Serif" font-size="11.00">0 rows</text>
<polygon fill="#ffffff" stroke="transparent" points="395,-149 395,-167 426,-167 426,-149 395,-149"/>
<polygon fill="none" stroke="black" points="395,-149 395,-167 426,-167 426,-149 395,-149"/>
<text text-anchor="start" x="416" y="-155.2" font-family="Helvetica,sans-Serif" font-size="11.00"> &#160;</text>
</a>
</g>
</g>
<!-- m_permission -->
<g id="node2" class="node">
<title>m_permission</title>
<g id="a_node2"><a xlink:href="../../tables/m_permission.html" xlink:title="m_permission" target="_top">
<polygon fill="#ffffff" stroke="transparent" points="8,-37 8,-213 231,-213 231,-37 8,-37"/>
<polygon fill="#f5f5f5" stroke="transparent" points="10.5,-189 10.5,-211 229.5,-211 229.5,-189 10.5,-189"/>
<polygon fill="none" stroke="black" points="10.5,-189 10.5,-211 229.5,-211 229.5,-189 10.5,-189"/>
<text text-anchor="start" x="15.5" y="-198.2" font-family="Helvetica,sans-Serif" font-weight="bold" font-size="11.00">m_permission</text>
<text text-anchor="start" x="194.5" y="-197.2" font-family="Helvetica,sans-Serif" font-size="11.00">[table]</text>
<polygon fill="none" stroke="black" points="10.5,-167 10.5,-189 162.5,-189 162.5,-167 10.5,-167"/>
<image xlink:href="../../images/primaryKeys.png" width="11px" height="12px" preserveAspectRatio="xMinYMin meet" x="15.5" y="-184"/>
<text text-anchor="start" x="30.5" y="-175.2" font-family="Helvetica,sans-Serif" font-size="11.00">id</text>
<polygon fill="none" stroke="black" points="162.5,-167 162.5,-189 229.5,-189 229.5,-167 162.5,-167"/>
<text text-anchor="start" x="165.5" y="-175.2" font-family="Helvetica,sans-Serif" font-size="11.00">bigint[19]</text>
<polygon fill="none" stroke="black" points="10.5,-145 10.5,-167 162.5,-167 162.5,-145 10.5,-145"/>
<text text-anchor="start" x="30.5" y="-153.2" font-family="Helvetica,sans-Serif" font-size="11.00">grouping</text>
<polygon fill="none" stroke="black" points="162.5,-145 162.5,-167 229.5,-167 229.5,-145 162.5,-145"/>
<text text-anchor="start" x="165.5" y="-153.2" font-family="Helvetica,sans-Serif" font-size="11.00">varchar[45]</text>
<polygon fill="#ffffff" stroke="transparent" points="10.5,-123 10.5,-145 162.5,-145 162.5,-123 10.5,-123"/>
<polygon fill="none" stroke="black" points="10.5,-123 10.5,-145 162.5,-145 162.5,-123 10.5,-123"/>
<text text-anchor="start" x="30.5" y="-131.2" font-family="Helvetica,sans-Serif" font-size="11.00">code</text>
<polygon fill="none" stroke="black" points="162.5,-123 162.5,-145 229.5,-145 229.5,-123 162.5,-123"/>
<text text-anchor="start" x="165.5" y="-131.2" font-family="Helvetica,sans-Serif" font-size="11.00">varchar[100]</text>
<polygon fill="none" stroke="black" points="10.5,-101 10.5,-123 162.5,-123 162.5,-101 10.5,-101"/>
<text text-anchor="start" x="30.5" y="-109.2" font-family="Helvetica,sans-Serif" font-size="11.00">entity_name</text>
<polygon fill="none" stroke="black" points="162.5,-101 162.5,-123 229.5,-123 229.5,-101 162.5,-101"/>
<text text-anchor="start" x="165.5" y="-109.2" font-family="Helvetica,sans-Serif" font-size="11.00">varchar[100]</text>
<polygon fill="none" stroke="black" points="10.5,-79 10.5,-101 162.5,-101 162.5,-79 10.5,-79"/>
<text text-anchor="start" x="30.5" y="-87.2" font-family="Helvetica,sans-Serif" font-size="11.00">action_name</text>
<polygon fill="none" stroke="black" points="162.5,-79 162.5,-101 229.5,-101 229.5,-79 162.5,-79"/>
<text text-anchor="start" x="165.5" y="-87.2" font-family="Helvetica,sans-Serif" font-size="11.00">varchar[100]</text>
<polygon fill="none" stroke="black" points="10.5,-57 10.5,-79 162.5,-79 162.5,-57 10.5,-57"/>
<text text-anchor="start" x="30.5" y="-65.2" font-family="Helvetica,sans-Serif" font-size="11.00">can_maker_checker</text>
<polygon fill="none" stroke="black" points="162.5,-57 162.5,-79 229.5,-79 229.5,-57 162.5,-57"/>
<text text-anchor="start" x="165.5" y="-65.2" font-family="Helvetica,sans-Serif" font-size="11.00">bit[1]</text>
<polygon fill="#ffffff" stroke="transparent" points="10.5,-39 10.5,-57 71.5,-57 71.5,-39 10.5,-39"/>
<polygon fill="none" stroke="black" points="10.5,-39 10.5,-57 71.5,-57 71.5,-39 10.5,-39"/>
<text text-anchor="start" x="13.5" y="-45.2" font-family="Helvetica,sans-Serif" font-size="11.00">&lt; 0</text>
<polygon fill="#ffffff" stroke="transparent" points="71.5,-39 71.5,-57 162.5,-57 162.5,-39 71.5,-39"/>
<polygon fill="none" stroke="black" points="71.5,-39 71.5,-57 162.5,-57 162.5,-39 71.5,-39"/>
<text text-anchor="start" x="114.5" y="-45.2" font-family="Helvetica,sans-Serif" font-size="11.00">865 rows</text>
<polygon fill="#ffffff" stroke="transparent" points="162.5,-39 162.5,-57 229.5,-57 229.5,-39 162.5,-39"/>
<polygon fill="none" stroke="black" points="162.5,-39 162.5,-57 229.5,-57 229.5,-39 162.5,-39"/>
<text text-anchor="start" x="210.5" y="-45.2" font-family="Helvetica,sans-Serif" font-size="11.00">1 &gt;</text>
<polygon fill="none" stroke="black" stroke-width="2" points="9,-38 9,-212 230,-212 230,-38 9,-38"/>
</a>
</g>
</g>
<!-- m_role_permission&#45;&gt;m_permission -->
<g id="edge1" class="edge">
<title>m_role_permission:w&#45;&gt;m_permission:e</title>
<path fill="none" stroke="black" d="M264.28,-178C253.29,-178 246.16,-178 230.5,-178"/>
<polygon fill="black" stroke="black" points="271,-178 279,-181.6 275,-178 279,-178 279,-178 279,-178 275,-178 279,-174.4 271,-178 271,-178"/>
<ellipse fill="none" stroke="black" cx="267.8" cy="-178" rx="3.2" ry="3.2"/>
</g>
</g>
</svg>
