<?xml version="1.0" encoding="UTF-8" standalone="no"?>
<!DOCTYPE svg PUBLIC "-//W3C//DTD SVG 1.1//EN"
 "http://www.w3.org/Graphics/SVG/1.1/DTD/svg11.dtd">
<!-- Generated by graphviz version 2.43.0 (0)
 -->
<!-- Title: oneDegreeRelationshipsDiagram Pages: 1 -->
<svg width="454pt" height="203pt"
 viewBox="0.00 0.00 454.00 203.00" xmlns="http://www.w3.org/2000/svg" xmlns:xlink="http://www.w3.org/1999/xlink">
<g id="graph0" class="graph" transform="scale(1 1) rotate(0) translate(4 199)">
<title>oneDegreeRelationshipsDiagram</title>
<polygon fill="#ffffff" stroke="transparent" points="-4,4 -4,-199 450,-199 450,4 -4,4"/>
<text text-anchor="middle" x="71.5" y="-7.2" font-family="Helvetica,sans-Serif" font-size="11.00">Generated by SchemaSpy</text>
<!-- m_pocket_accounts_mapping -->
<g id="node1" class="node">
<title>m_pocket_accounts_mapping</title>
<g id="a_node1"><a xlink:href="../../tables/m_pocket_accounts_mapping.html" xlink:title="m_pocket_accounts_mapping" target="_top">
<polygon fill="#ffffff" stroke="transparent" points="157,-37 157,-191 438,-191 438,-37 157,-37"/>
<polygon fill="#f5f5f5" stroke="transparent" points="159.5,-167 159.5,-189 436.5,-189 436.5,-167 159.5,-167"/>
<polygon fill="none" stroke="black" points="159.5,-167 159.5,-189 436.5,-189 436.5,-167 159.5,-167"/>
<text text-anchor="start" x="164.5" y="-176.2" font-family="Helvetica,sans-Serif" font-weight="bold" font-size="11.00">m_pocket_accounts_mapping</text>
<text text-anchor="start" x="401.5" y="-175.2" font-family="Helvetica,sans-Serif" font-size="11.00">[table]</text>
<polygon fill="none" stroke="black" points="159.5,-145 159.5,-167 375.5,-167 375.5,-145 159.5,-145"/>
<image xlink:href="../../images/primaryKeys.png" width="11px" height="12px" preserveAspectRatio="xMinYMin meet" x="164.5" y="-162"/>
<text text-anchor="start" x="179.5" y="-153.2" font-family="Helvetica,sans-Serif" font-size="11.00">id</text>
<polygon fill="none" stroke="black" points="375.5,-145 375.5,-167 436.5,-167 436.5,-145 375.5,-145"/>
<text text-anchor="start" x="378.5" y="-153.2" font-family="Helvetica,sans-Serif" font-size="11.00">bigint[19]</text>
<polygon fill="#ffffff" stroke="transparent" points="159.5,-123 159.5,-145 375.5,-145 375.5,-123 159.5,-123"/>
<polygon fill="none" stroke="black" points="159.5,-123 159.5,-145 375.5,-145 375.5,-123 159.5,-123"/>
<image xlink:href="../../images/foreignKeys.png" width="11px" height="12px" preserveAspectRatio="xMinYMin meet" x="164.5" y="-140"/>
<text text-anchor="start" x="179.5" y="-131.2" font-family="Helvetica,sans-Serif" font-size="11.00">pocket_id</text>
<polygon fill="none" stroke="black" points="375.5,-123 375.5,-145 436.5,-145 436.5,-123 375.5,-123"/>
<text text-anchor="start" x="378.5" y="-131.2" font-family="Helvetica,sans-Serif" font-size="11.00">bigint[19]</text>
<polygon fill="#ffffff" stroke="transparent" points="159.5,-101 159.5,-123 375.5,-123 375.5,-101 159.5,-101"/>
<polygon fill="none" stroke="black" points="159.5,-101 159.5,-123 375.5,-123 375.5,-101 159.5,-101"/>
<text text-anchor="start" x="179.5" y="-109.2" font-family="Helvetica,sans-Serif" font-size="11.00">account_id</text>
<polygon fill="none" stroke="black" points="375.5,-101 375.5,-123 436.5,-123 436.5,-101 375.5,-101"/>
<text text-anchor="start" x="378.5" y="-109.2" font-family="Helvetica,sans-Serif" font-size="11.00">bigint[19]</text>
<polygon fill="#ffffff" stroke="transparent" points="159.5,-79 159.5,-101 375.5,-101 375.5,-79 159.5,-79"/>
<polygon fill="none" stroke="black" points="159.5,-79 159.5,-101 375.5,-101 375.5,-79 159.5,-79"/>
<text text-anchor="start" x="179.5" y="-87.2" font-family="Helvetica,sans-Serif" font-size="11.00">account_type</text>
<polygon fill="none" stroke="black" points="375.5,-79 375.5,-101 436.5,-101 436.5,-79 375.5,-79"/>
<text text-anchor="start" x="378.5" y="-87.2" font-family="Helvetica,sans-Serif" font-size="11.00">int[10]</text>
<polygon fill="none" stroke="black" points="159.5,-57 159.5,-79 375.5,-79 375.5,-57 159.5,-57"/>
<text text-anchor="start" x="179.5" y="-65.2" font-family="Helvetica,sans-Serif" font-size="11.00">account_number</text>
<polygon fill="none" stroke="black" points="375.5,-57 375.5,-79 436.5,-79 436.5,-57 375.5,-57"/>
<text text-anchor="start" x="378.5" y="-65.2" font-family="Helvetica,sans-Serif" font-size="11.00">varchar[20]</text>
<polygon fill="#ffffff" stroke="transparent" points="159.5,-39 159.5,-57 258.5,-57 258.5,-39 159.5,-39"/>
<polygon fill="none" stroke="black" points="159.5,-39 159.5,-57 258.5,-57 258.5,-39 159.5,-39"/>
<text text-anchor="start" x="162.5" y="-45.2" font-family="Helvetica,sans-Serif" font-size="11.00">&lt; 1</text>
<polygon fill="#ffffff" stroke="transparent" points="258.5,-39 258.5,-57 375.5,-57 375.5,-39 258.5,-39"/>
<polygon fill="none" stroke="black" points="258.5,-39 258.5,-57 375.5,-57 375.5,-39 258.5,-39"/>
<text text-anchor="start" x="339.5" y="-45.2" font-family="Helvetica,sans-Serif" font-size="11.00">0 rows</text>
<polygon fill="#ffffff" stroke="transparent" points="375.5,-39 375.5,-57 436.5,-57 436.5,-39 375.5,-39"/>
<polygon fill="none" stroke="black" points="375.5,-39 375.5,-57 436.5,-57 436.5,-39 375.5,-39"/>
<text text-anchor="start" x="417.5" y="-45.2" font-family="Helvetica,sans-Serif" font-size="11.00">0 &gt;</text>
<polygon fill="none" stroke="black" stroke-width="2" points="158,-38 158,-190 437,-190 437,-38 158,-38"/>
</a>
</g>
</g>
<!-- m_pocket -->
<g id="node2" class="node">
<title>m_pocket</title>
<g id="a_node2"><a xlink:href="../../tables/m_pocket.html" xlink:title="m_pocket" target="_top">
<polygon fill="#ffffff" stroke="transparent" points="8,-83 8,-167 108,-167 108,-83 8,-83"/>
<polygon fill="#f5f5f5" stroke="transparent" points="8,-145 8,-167 108,-167 108,-145 8,-145"/>
<polygon fill="none" stroke="black" points="8,-145 8,-167 108,-167 108,-145 8,-145"/>
<text text-anchor="start" x="13" y="-154.2" font-family="Helvetica,sans-Serif" font-weight="bold" font-size="11.00">m_pocket</text>
<text text-anchor="start" x="73" y="-153.2" font-family="Helvetica,sans-Serif" font-size="11.00">[table]</text>
<polygon fill="none" stroke="black" points="8,-123 8,-145 108,-145 108,-123 8,-123"/>
<image xlink:href="../../images/primaryKeys.png" width="11px" height="12px" preserveAspectRatio="xMinYMin meet" x="13" y="-140"/>
<text text-anchor="start" x="28" y="-131.2" font-family="Helvetica,sans-Serif" font-size="11.00">id</text>
<polygon fill="#ffffff" stroke="transparent" points="8,-101 8,-123 108,-123 108,-101 8,-101"/>
<polygon fill="none" stroke="black" points="8,-101 8,-123 108,-123 108,-101 8,-101"/>
<image xlink:href="../../images/foreignKeys.png" width="11px" height="12px" preserveAspectRatio="xMinYMin meet" x="13" y="-118"/>
<text text-anchor="start" x="28" y="-109.2" font-family="Helvetica,sans-Serif" font-size="11.00">app_user_id</text>
<polygon fill="#ffffff" stroke="transparent" points="8,-83 8,-101 38,-101 38,-83 8,-83"/>
<polygon fill="none" stroke="black" points="8,-83 8,-101 38,-101 38,-83 8,-83"/>
<text text-anchor="start" x="11" y="-89.2" font-family="Helvetica,sans-Serif" font-size="11.00">&lt; 1</text>
<polygon fill="#ffffff" stroke="transparent" points="38,-83 38,-101 81,-101 81,-83 38,-83"/>
<polygon fill="none" stroke="black" points="38,-83 38,-101 81,-101 81,-83 38,-83"/>
<text text-anchor="start" x="45" y="-89.2" font-family="Helvetica,sans-Serif" font-size="11.00">0 rows</text>
<polygon fill="#ffffff" stroke="transparent" points="81,-83 81,-101 108,-101 108,-83 81,-83"/>
<polygon fill="none" stroke="black" points="81,-83 81,-101 108,-101 108,-83 81,-83"/>
<text text-anchor="start" x="89" y="-89.2" font-family="Helvetica,sans-Serif" font-size="11.00">1 &gt;</text>
</a>
</g>
</g>
<!-- m_pocket_accounts_mapping&#45;&gt;m_pocket -->
<g id="edge1" class="edge">
<title>m_pocket_accounts_mapping:w&#45;&gt;m_pocket:e</title>
<path fill="none" stroke="black" d="M143.84,-134C132.41,-134 125.16,-134 109,-134"/>
<polygon fill="black" stroke="black" points="150.5,-134 158.5,-137.6 154.5,-134 158.5,-134 158.5,-134 158.5,-134 154.5,-134 158.5,-130.4 150.5,-134 150.5,-134"/>
<ellipse fill="none" stroke="black" cx="147.3" cy="-134" rx="3.2" ry="3.2"/>
</g>
</g>
</svg>
