<?xml version="1.0" encoding="UTF-8" standalone="no"?>
<!DOCTYPE svg PUBLIC "-//W3C//DTD SVG 1.1//EN"
 "http://www.w3.org/Graphics/SVG/1.1/DTD/svg11.dtd">
<!-- Generated by graphviz version 2.43.0 (0)
 -->
<!-- Title: oneDegreeRelationshipsDiagram Pages: 1 -->
<svg width="973pt" height="758pt"
 viewBox="0.00 0.00 973.00 758.00" xmlns="http://www.w3.org/2000/svg" xmlns:xlink="http://www.w3.org/1999/xlink">
<g id="graph0" class="graph" transform="scale(1 1) rotate(0) translate(4 754)">
<title>oneDegreeRelationshipsDiagram</title>
<polygon fill="#ffffff" stroke="transparent" points="-4,4 -4,-754 969,-754 969,4 -4,4"/>
<text text-anchor="middle" x="71.5" y="-7.2" font-family="Helvetica,sans-Serif" font-size="11.00">Generated by SchemaSpy</text>
<!-- m_guarantor_funding_details -->
<g id="node1" class="node">
<title>m_guarantor_funding_details</title>
<g id="a_node1"><a xlink:href="../../tables/m_guarantor_funding_details.html" xlink:title="m_guarantor_funding_details" target="_top">
<polygon fill="#ffffff" stroke="transparent" points="740,-483 740,-607 957,-607 957,-483 740,-483"/>
<polygon fill="#f5f5f5" stroke="transparent" points="740.5,-585 740.5,-607 957.5,-607 957.5,-585 740.5,-585"/>
<polygon fill="none" stroke="black" points="740.5,-585 740.5,-607 957.5,-607 957.5,-585 740.5,-585"/>
<text text-anchor="start" x="745.5" y="-594.2" font-family="Helvetica,sans-Serif" font-weight="bold" font-size="11.00">m_guarantor_funding_details</text>
<text text-anchor="start" x="922.5" y="-593.2" font-family="Helvetica,sans-Serif" font-size="11.00">[table]</text>
<polygon fill="none" stroke="black" points="740.5,-563 740.5,-585 957.5,-585 957.5,-563 740.5,-563"/>
<image xlink:href="../../images/primaryKeys.png" width="11px" height="12px" preserveAspectRatio="xMinYMin meet" x="745.5" y="-580"/>
<text text-anchor="start" x="760.5" y="-571.2" font-family="Helvetica,sans-Serif" font-size="11.00">id</text>
<polygon fill="#ffffff" stroke="transparent" points="740.5,-541 740.5,-563 957.5,-563 957.5,-541 740.5,-541"/>
<polygon fill="none" stroke="black" points="740.5,-541 740.5,-563 957.5,-563 957.5,-541 740.5,-541"/>
<image xlink:href="../../images/foreignKeys.png" width="11px" height="12px" preserveAspectRatio="xMinYMin meet" x="745.5" y="-558"/>
<text text-anchor="start" x="760.5" y="-549.2" font-family="Helvetica,sans-Serif" font-size="11.00">guarantor_id</text>
<polygon fill="#ffffff" stroke="transparent" points="740.5,-519 740.5,-541 957.5,-541 957.5,-519 740.5,-519"/>
<polygon fill="none" stroke="black" points="740.5,-519 740.5,-541 957.5,-541 957.5,-519 740.5,-519"/>
<image xlink:href="../../images/foreignKeys.png" width="11px" height="12px" preserveAspectRatio="xMinYMin meet" x="745.5" y="-536"/>
<text text-anchor="start" x="760.5" y="-527.2" font-family="Helvetica,sans-Serif" font-size="11.00">account_associations_id</text>
<polygon fill="none" stroke="black" points="740.5,-501 740.5,-519 957.5,-519 957.5,-501 740.5,-501"/>
<text text-anchor="start" x="743.5" y="-507.2" font-family="Helvetica,sans-Serif" font-size="11.00">...</text>
<polygon fill="#ffffff" stroke="transparent" points="740.5,-483 740.5,-501 829.5,-501 829.5,-483 740.5,-483"/>
<polygon fill="none" stroke="black" points="740.5,-483 740.5,-501 829.5,-501 829.5,-483 740.5,-483"/>
<text text-anchor="start" x="743.5" y="-489.2" font-family="Helvetica,sans-Serif" font-size="11.00">&lt; 2</text>
<polygon fill="#ffffff" stroke="transparent" points="829.5,-483 829.5,-501 901.5,-501 901.5,-483 829.5,-483"/>
<polygon fill="none" stroke="black" points="829.5,-483 829.5,-501 901.5,-501 901.5,-483 829.5,-483"/>
<text text-anchor="start" x="865.5" y="-489.2" font-family="Helvetica,sans-Serif" font-size="11.00">0 rows</text>
<polygon fill="#ffffff" stroke="transparent" points="901.5,-483 901.5,-501 957.5,-501 957.5,-483 901.5,-483"/>
<polygon fill="none" stroke="black" points="901.5,-483 901.5,-501 957.5,-501 957.5,-483 901.5,-483"/>
<text text-anchor="start" x="938.5" y="-489.2" font-family="Helvetica,sans-Serif" font-size="11.00">1 &gt;</text>
</a>
</g>
</g>
<!-- m_portfolio_account_associations -->
<g id="node2" class="node">
<title>m_portfolio_account_associations</title>
<g id="a_node2"><a xlink:href="../../tables/m_portfolio_account_associations.html" xlink:title="m_portfolio_account_associations" target="_top">
<polygon fill="#ffffff" stroke="transparent" points="385,-367 385,-565 691,-565 691,-367 385,-367"/>
<polygon fill="#f5f5f5" stroke="transparent" points="387,-541 387,-563 689,-563 689,-541 387,-541"/>
<polygon fill="none" stroke="black" points="387,-541 387,-563 689,-563 689,-541 387,-541"/>
<text text-anchor="start" x="392" y="-550.2" font-family="Helvetica,sans-Serif" font-weight="bold" font-size="11.00">m_portfolio_account_associations</text>
<text text-anchor="start" x="654" y="-549.2" font-family="Helvetica,sans-Serif" font-size="11.00">[table]</text>
<polygon fill="none" stroke="black" points="387,-519 387,-541 634,-541 634,-519 387,-519"/>
<image xlink:href="../../images/primaryKeys.png" width="11px" height="12px" preserveAspectRatio="xMinYMin meet" x="392" y="-536"/>
<text text-anchor="start" x="407" y="-527.2" font-family="Helvetica,sans-Serif" font-size="11.00">id</text>
<polygon fill="none" stroke="black" points="634,-519 634,-541 689,-541 689,-519 634,-519"/>
<text text-anchor="start" x="637" y="-527.2" font-family="Helvetica,sans-Serif" font-size="11.00">bigint[19]</text>
<polygon fill="#ffffff" stroke="transparent" points="387,-497 387,-519 634,-519 634,-497 387,-497"/>
<polygon fill="none" stroke="black" points="387,-497 387,-519 634,-519 634,-497 387,-497"/>
<image xlink:href="../../images/foreignKeys.png" width="11px" height="12px" preserveAspectRatio="xMinYMin meet" x="392" y="-514"/>
<text text-anchor="start" x="407" y="-505.2" font-family="Helvetica,sans-Serif" font-size="11.00">loan_account_id</text>
<polygon fill="none" stroke="black" points="634,-497 634,-519 689,-519 689,-497 634,-497"/>
<text text-anchor="start" x="637" y="-505.2" font-family="Helvetica,sans-Serif" font-size="11.00">bigint[19]</text>
<polygon fill="#ffffff" stroke="transparent" points="387,-475 387,-497 634,-497 634,-475 387,-475"/>
<polygon fill="none" stroke="black" points="387,-475 387,-497 634,-497 634,-475 387,-475"/>
<image xlink:href="../../images/foreignKeys.png" width="11px" height="12px" preserveAspectRatio="xMinYMin meet" x="392" y="-492"/>
<text text-anchor="start" x="407" y="-483.2" font-family="Helvetica,sans-Serif" font-size="11.00">savings_account_id</text>
<polygon fill="none" stroke="black" points="634,-475 634,-497 689,-497 689,-475 634,-475"/>
<text text-anchor="start" x="637" y="-483.2" font-family="Helvetica,sans-Serif" font-size="11.00">bigint[19]</text>
<polygon fill="#ffffff" stroke="transparent" points="387,-453 387,-475 634,-475 634,-453 387,-453"/>
<polygon fill="none" stroke="black" points="387,-453 387,-475 634,-475 634,-453 387,-453"/>
<image xlink:href="../../images/foreignKeys.png" width="11px" height="12px" preserveAspectRatio="xMinYMin meet" x="392" y="-470"/>
<text text-anchor="start" x="407" y="-461.2" font-family="Helvetica,sans-Serif" font-size="11.00">linked_loan_account_id</text>
<polygon fill="none" stroke="black" points="634,-453 634,-475 689,-475 689,-453 634,-453"/>
<text text-anchor="start" x="637" y="-461.2" font-family="Helvetica,sans-Serif" font-size="11.00">bigint[19]</text>
<polygon fill="#ffffff" stroke="transparent" points="387,-431 387,-453 634,-453 634,-431 387,-431"/>
<polygon fill="none" stroke="black" points="387,-431 387,-453 634,-453 634,-431 387,-431"/>
<image xlink:href="../../images/foreignKeys.png" width="11px" height="12px" preserveAspectRatio="xMinYMin meet" x="392" y="-448"/>
<text text-anchor="start" x="407" y="-439.2" font-family="Helvetica,sans-Serif" font-size="11.00">linked_savings_account_id</text>
<polygon fill="none" stroke="black" points="634,-431 634,-453 689,-453 689,-431 634,-431"/>
<text text-anchor="start" x="637" y="-439.2" font-family="Helvetica,sans-Serif" font-size="11.00">bigint[19]</text>
<polygon fill="none" stroke="black" points="387,-409 387,-431 634,-431 634,-409 387,-409"/>
<text text-anchor="start" x="407" y="-417.2" font-family="Helvetica,sans-Serif" font-size="11.00">association_type_enum</text>
<polygon fill="none" stroke="black" points="634,-409 634,-431 689,-431 689,-409 634,-409"/>
<text text-anchor="start" x="637" y="-417.2" font-family="Helvetica,sans-Serif" font-size="11.00">smallint[5]</text>
<polygon fill="none" stroke="black" points="387,-387 387,-409 634,-409 634,-387 387,-387"/>
<text text-anchor="start" x="407" y="-395.2" font-family="Helvetica,sans-Serif" font-size="11.00">is_active</text>
<polygon fill="none" stroke="black" points="634,-387 634,-409 689,-409 689,-387 634,-387"/>
<text text-anchor="start" x="637" y="-395.2" font-family="Helvetica,sans-Serif" font-size="11.00">bit[1]</text>
<polygon fill="#ffffff" stroke="transparent" points="387,-369 387,-387 502,-387 502,-369 387,-369"/>
<polygon fill="none" stroke="black" points="387,-369 387,-387 502,-387 502,-369 387,-369"/>
<text text-anchor="start" x="390" y="-375.2" font-family="Helvetica,sans-Serif" font-size="11.00">&lt; 4</text>
<polygon fill="#ffffff" stroke="transparent" points="502,-369 502,-387 634,-387 634,-369 502,-369"/>
<polygon fill="none" stroke="black" points="502,-369 502,-387 634,-387 634,-369 502,-369"/>
<text text-anchor="start" x="598" y="-375.2" font-family="Helvetica,sans-Serif" font-size="11.00">0 rows</text>
<polygon fill="#ffffff" stroke="transparent" points="634,-369 634,-387 689,-387 689,-369 634,-369"/>
<polygon fill="none" stroke="black" points="634,-369 634,-387 689,-387 689,-369 634,-369"/>
<text text-anchor="start" x="670" y="-375.2" font-family="Helvetica,sans-Serif" font-size="11.00">1 &gt;</text>
<polygon fill="none" stroke="black" stroke-width="2" points="386,-368 386,-564 690,-564 690,-368 386,-368"/>
</a>
</g>
</g>
<!-- m_guarantor_funding_details&#45;&gt;m_portfolio_account_associations -->
<g id="edge1" class="edge">
<title>m_guarantor_funding_details:w&#45;&gt;m_portfolio_account_associations:e</title>
<path fill="none" stroke="black" d="M724.84,-530C713.41,-530 706.16,-530 690,-530"/>
<polygon fill="black" stroke="black" points="731.5,-530 739.5,-533.6 735.5,-530 739.5,-530 739.5,-530 739.5,-530 735.5,-530 739.5,-526.4 731.5,-530 731.5,-530"/>
<ellipse fill="none" stroke="black" cx="728.3" cy="-530" rx="3.2" ry="3.2"/>
</g>
<!-- m_loan -->
<g id="node3" class="node">
<title>m_loan</title>
<g id="a_node3"><a xlink:href="../../tables/m_loan.html" xlink:title="m_loan" target="_top">
<polygon fill="#ffffff" stroke="transparent" points="8,-292 8,-746 336,-746 336,-292 8,-292"/>
<polygon fill="#f5f5f5" stroke="transparent" points="8,-724 8,-746 336,-746 336,-724 8,-724"/>
<polygon fill="none" stroke="black" points="8,-724 8,-746 336,-746 336,-724 8,-724"/>
<text text-anchor="start" x="13" y="-733.2" font-family="Helvetica,sans-Serif" font-weight="bold" font-size="11.00">m_loan</text>
<text text-anchor="start" x="301" y="-732.2" font-family="Helvetica,sans-Serif" font-size="11.00">[table]</text>
<polygon fill="none" stroke="black" points="8,-702 8,-724 336,-724 336,-702 8,-702"/>
<image xlink:href="../../images/primaryKeys.png" width="11px" height="12px" preserveAspectRatio="xMinYMin meet" x="13" y="-719"/>
<text text-anchor="start" x="28" y="-710.2" font-family="Helvetica,sans-Serif" font-size="11.00">id</text>
<polygon fill="#ffffff" stroke="transparent" points="8,-680 8,-702 336,-702 336,-680 8,-680"/>
<polygon fill="none" stroke="black" points="8,-680 8,-702 336,-702 336,-680 8,-680"/>
<text text-anchor="start" x="28" y="-688.2" font-family="Helvetica,sans-Serif" font-size="11.00">account_no</text>
<polygon fill="#ffffff" stroke="transparent" points="8,-658 8,-680 336,-680 336,-658 8,-658"/>
<polygon fill="none" stroke="black" points="8,-658 8,-680 336,-680 336,-658 8,-658"/>
<text text-anchor="start" x="28" y="-666.2" font-family="Helvetica,sans-Serif" font-size="11.00">external_id</text>
<polygon fill="#ffffff" stroke="transparent" points="8,-636 8,-658 336,-658 336,-636 8,-636"/>
<polygon fill="none" stroke="black" points="8,-636 8,-658 336,-658 336,-636 8,-636"/>
<image xlink:href="../../images/foreignKeys.png" width="11px" height="12px" preserveAspectRatio="xMinYMin meet" x="13" y="-653"/>
<text text-anchor="start" x="28" y="-644.2" font-family="Helvetica,sans-Serif" font-size="11.00">client_id</text>
<polygon fill="#ffffff" stroke="transparent" points="8,-614 8,-636 336,-636 336,-614 8,-614"/>
<polygon fill="none" stroke="black" points="8,-614 8,-636 336,-636 336,-614 8,-614"/>
<image xlink:href="../../images/foreignKeys.png" width="11px" height="12px" preserveAspectRatio="xMinYMin meet" x="13" y="-631"/>
<text text-anchor="start" x="28" y="-622.2" font-family="Helvetica,sans-Serif" font-size="11.00">group_id</text>
<polygon fill="#ffffff" stroke="transparent" points="8,-592 8,-614 336,-614 336,-592 8,-592"/>
<polygon fill="none" stroke="black" points="8,-592 8,-614 336,-614 336,-592 8,-592"/>
<image xlink:href="../../images/foreignKeys.png" width="11px" height="12px" preserveAspectRatio="xMinYMin meet" x="13" y="-609"/>
<text text-anchor="start" x="28" y="-600.2" font-family="Helvetica,sans-Serif" font-size="11.00">glim_id</text>
<polygon fill="#ffffff" stroke="transparent" points="8,-570 8,-592 336,-592 336,-570 8,-570"/>
<polygon fill="none" stroke="black" points="8,-570 8,-592 336,-592 336,-570 8,-570"/>
<image xlink:href="../../images/foreignKeys.png" width="11px" height="12px" preserveAspectRatio="xMinYMin meet" x="13" y="-587"/>
<text text-anchor="start" x="28" y="-578.2" font-family="Helvetica,sans-Serif" font-size="11.00">product_id</text>
<polygon fill="#ffffff" stroke="transparent" points="8,-548 8,-570 336,-570 336,-548 8,-548"/>
<polygon fill="none" stroke="black" points="8,-548 8,-570 336,-570 336,-548 8,-548"/>
<image xlink:href="../../images/foreignKeys.png" width="11px" height="12px" preserveAspectRatio="xMinYMin meet" x="13" y="-565"/>
<text text-anchor="start" x="28" y="-556.2" font-family="Helvetica,sans-Serif" font-size="11.00">fund_id</text>
<polygon fill="#ffffff" stroke="transparent" points="8,-526 8,-548 336,-548 336,-526 8,-526"/>
<polygon fill="none" stroke="black" points="8,-526 8,-548 336,-548 336,-526 8,-526"/>
<image xlink:href="../../images/foreignKeys.png" width="11px" height="12px" preserveAspectRatio="xMinYMin meet" x="13" y="-543"/>
<text text-anchor="start" x="28" y="-534.2" font-family="Helvetica,sans-Serif" font-size="11.00">loan_officer_id</text>
<polygon fill="#ffffff" stroke="transparent" points="8,-504 8,-526 336,-526 336,-504 8,-504"/>
<polygon fill="none" stroke="black" points="8,-504 8,-526 336,-526 336,-504 8,-504"/>
<image xlink:href="../../images/foreignKeys.png" width="11px" height="12px" preserveAspectRatio="xMinYMin meet" x="13" y="-521"/>
<text text-anchor="start" x="28" y="-512.2" font-family="Helvetica,sans-Serif" font-size="11.00">loanpurpose_cv_id</text>
<polygon fill="#ffffff" stroke="transparent" points="8,-482 8,-504 336,-504 336,-482 8,-482"/>
<polygon fill="none" stroke="black" points="8,-482 8,-504 336,-504 336,-482 8,-482"/>
<image xlink:href="../../images/foreignKeys.png" width="11px" height="12px" preserveAspectRatio="xMinYMin meet" x="13" y="-499"/>
<text text-anchor="start" x="28" y="-490.2" font-family="Helvetica,sans-Serif" font-size="11.00">submittedon_userid</text>
<polygon fill="#ffffff" stroke="transparent" points="8,-460 8,-482 336,-482 336,-460 8,-460"/>
<polygon fill="none" stroke="black" points="8,-460 8,-482 336,-482 336,-460 8,-460"/>
<image xlink:href="../../images/foreignKeys.png" width="11px" height="12px" preserveAspectRatio="xMinYMin meet" x="13" y="-477"/>
<text text-anchor="start" x="28" y="-468.2" font-family="Helvetica,sans-Serif" font-size="11.00">approvedon_userid</text>
<polygon fill="#ffffff" stroke="transparent" points="8,-438 8,-460 336,-460 336,-438 8,-438"/>
<polygon fill="none" stroke="black" points="8,-438 8,-460 336,-460 336,-438 8,-438"/>
<image xlink:href="../../images/foreignKeys.png" width="11px" height="12px" preserveAspectRatio="xMinYMin meet" x="13" y="-455"/>
<text text-anchor="start" x="28" y="-446.2" font-family="Helvetica,sans-Serif" font-size="11.00">disbursedon_userid</text>
<polygon fill="#ffffff" stroke="transparent" points="8,-416 8,-438 336,-438 336,-416 8,-416"/>
<polygon fill="none" stroke="black" points="8,-416 8,-438 336,-438 336,-416 8,-416"/>
<image xlink:href="../../images/foreignKeys.png" width="11px" height="12px" preserveAspectRatio="xMinYMin meet" x="13" y="-433"/>
<text text-anchor="start" x="28" y="-424.2" font-family="Helvetica,sans-Serif" font-size="11.00">closedon_userid</text>
<polygon fill="#ffffff" stroke="transparent" points="8,-394 8,-416 336,-416 336,-394 8,-394"/>
<polygon fill="none" stroke="black" points="8,-394 8,-416 336,-416 336,-394 8,-394"/>
<image xlink:href="../../images/foreignKeys.png" width="11px" height="12px" preserveAspectRatio="xMinYMin meet" x="13" y="-411"/>
<text text-anchor="start" x="28" y="-402.2" font-family="Helvetica,sans-Serif" font-size="11.00">rejectedon_userid</text>
<polygon fill="#ffffff" stroke="transparent" points="8,-372 8,-394 336,-394 336,-372 8,-372"/>
<polygon fill="none" stroke="black" points="8,-372 8,-394 336,-394 336,-372 8,-372"/>
<image xlink:href="../../images/foreignKeys.png" width="11px" height="12px" preserveAspectRatio="xMinYMin meet" x="13" y="-389"/>
<text text-anchor="start" x="28" y="-380.2" font-family="Helvetica,sans-Serif" font-size="11.00">withdrawnon_userid</text>
<polygon fill="#ffffff" stroke="transparent" points="8,-350 8,-372 336,-372 336,-350 8,-350"/>
<polygon fill="none" stroke="black" points="8,-350 8,-372 336,-372 336,-350 8,-350"/>
<image xlink:href="../../images/foreignKeys.png" width="11px" height="12px" preserveAspectRatio="xMinYMin meet" x="13" y="-367"/>
<text text-anchor="start" x="28" y="-358.2" font-family="Helvetica,sans-Serif" font-size="11.00">loan_transaction_strategy_id</text>
<polygon fill="#ffffff" stroke="transparent" points="8,-328 8,-350 336,-350 336,-328 8,-328"/>
<polygon fill="none" stroke="black" points="8,-328 8,-350 336,-350 336,-328 8,-328"/>
<image xlink:href="../../images/foreignKeys.png" width="11px" height="12px" preserveAspectRatio="xMinYMin meet" x="13" y="-345"/>
<text text-anchor="start" x="28" y="-336.2" font-family="Helvetica,sans-Serif" font-size="11.00">writeoff_reason_cv_id</text>
<polygon fill="none" stroke="black" points="8,-310 8,-328 336,-328 336,-310 8,-310"/>
<text text-anchor="start" x="11" y="-316.2" font-family="Helvetica,sans-Serif" font-size="11.00">...</text>
<polygon fill="#ffffff" stroke="transparent" points="8,-292 8,-310 152,-310 152,-292 8,-292"/>
<polygon fill="none" stroke="black" points="8,-292 8,-310 152,-310 152,-292 8,-292"/>
<text text-anchor="start" x="11" y="-298.2" font-family="Helvetica,sans-Serif" font-size="11.00">&lt; 15</text>
<polygon fill="#ffffff" stroke="transparent" points="152,-292 152,-310 249,-310 249,-292 152,-292"/>
<polygon fill="none" stroke="black" points="152,-292 152,-310 249,-310 249,-292 152,-292"/>
<text text-anchor="start" x="213" y="-298.2" font-family="Helvetica,sans-Serif" font-size="11.00">0 rows</text>
<polygon fill="#ffffff" stroke="transparent" points="249,-292 249,-310 336,-310 336,-292 249,-292"/>
<polygon fill="none" stroke="black" points="249,-292 249,-310 336,-310 336,-292 249,-292"/>
<text text-anchor="start" x="311" y="-298.2" font-family="Helvetica,sans-Serif" font-size="11.00">24 &gt;</text>
</a>
</g>
</g>
<!-- m_portfolio_account_associations&#45;&gt;m_loan -->
<g id="edge2" class="edge">
<title>m_portfolio_account_associations:w&#45;&gt;m_loan:e</title>
<path fill="none" stroke="black" d="M371.48,-465.72C289.76,-487.72 444.28,-713 337,-713"/>
<polygon fill="black" stroke="black" points="378.06,-464.94 386.42,-467.57 382.03,-464.47 386,-464 386,-464 386,-464 382.03,-464.47 385.58,-460.43 378.06,-464.94 378.06,-464.94"/>
<ellipse fill="none" stroke="black" cx="374.88" cy="-465.32" rx="3.2" ry="3.2"/>
</g>
<!-- m_portfolio_account_associations&#45;&gt;m_loan -->
<g id="edge4" class="edge">
<title>m_portfolio_account_associations:w&#45;&gt;m_loan:e</title>
<path fill="none" stroke="black" d="M371.43,-510.16C308.23,-532.07 425.01,-713 337,-713"/>
<polygon fill="black" stroke="black" points="378.09,-509.18 386.53,-511.56 382.04,-508.59 386,-508 386,-508 386,-508 382.04,-508.59 385.47,-504.44 378.09,-509.18 378.09,-509.18"/>
<ellipse fill="none" stroke="black" cx="374.92" cy="-509.65" rx="3.2" ry="3.2"/>
</g>
<!-- m_savings_account -->
<g id="node4" class="node">
<title>m_savings_account</title>
<g id="a_node4"><a xlink:href="../../tables/m_savings_account.html" xlink:title="m_savings_account" target="_top">
<polygon fill="#ffffff" stroke="transparent" points="9,-37 9,-271 335,-271 335,-37 9,-37"/>
<polygon fill="#f5f5f5" stroke="transparent" points="9,-249 9,-271 335,-271 335,-249 9,-249"/>
<polygon fill="none" stroke="black" points="9,-249 9,-271 335,-271 335,-249 9,-249"/>
<text text-anchor="start" x="14" y="-258.2" font-family="Helvetica,sans-Serif" font-weight="bold" font-size="11.00">m_savings_account</text>
<text text-anchor="start" x="300" y="-257.2" font-family="Helvetica,sans-Serif" font-size="11.00">[table]</text>
<polygon fill="none" stroke="black" points="9,-227 9,-249 335,-249 335,-227 9,-227"/>
<image xlink:href="../../images/primaryKeys.png" width="11px" height="12px" preserveAspectRatio="xMinYMin meet" x="14" y="-244"/>
<text text-anchor="start" x="29" y="-235.2" font-family="Helvetica,sans-Serif" font-size="11.00">id</text>
<polygon fill="#ffffff" stroke="transparent" points="9,-205 9,-227 335,-227 335,-205 9,-205"/>
<polygon fill="none" stroke="black" points="9,-205 9,-227 335,-227 335,-205 9,-205"/>
<text text-anchor="start" x="29" y="-213.2" font-family="Helvetica,sans-Serif" font-size="11.00">account_no</text>
<polygon fill="#ffffff" stroke="transparent" points="9,-183 9,-205 335,-205 335,-183 9,-183"/>
<polygon fill="none" stroke="black" points="9,-183 9,-205 335,-205 335,-183 9,-183"/>
<text text-anchor="start" x="29" y="-191.2" font-family="Helvetica,sans-Serif" font-size="11.00">external_id</text>
<polygon fill="#ffffff" stroke="transparent" points="9,-161 9,-183 335,-183 335,-161 9,-161"/>
<polygon fill="none" stroke="black" points="9,-161 9,-183 335,-183 335,-161 9,-161"/>
<image xlink:href="../../images/foreignKeys.png" width="11px" height="12px" preserveAspectRatio="xMinYMin meet" x="14" y="-178"/>
<text text-anchor="start" x="29" y="-169.2" font-family="Helvetica,sans-Serif" font-size="11.00">client_id</text>
<polygon fill="#ffffff" stroke="transparent" points="9,-139 9,-161 335,-161 335,-139 9,-139"/>
<polygon fill="none" stroke="black" points="9,-139 9,-161 335,-161 335,-139 9,-139"/>
<image xlink:href="../../images/foreignKeys.png" width="11px" height="12px" preserveAspectRatio="xMinYMin meet" x="14" y="-156"/>
<text text-anchor="start" x="29" y="-147.2" font-family="Helvetica,sans-Serif" font-size="11.00">group_id</text>
<polygon fill="#ffffff" stroke="transparent" points="9,-117 9,-139 335,-139 335,-117 9,-117"/>
<polygon fill="none" stroke="black" points="9,-117 9,-139 335,-139 335,-117 9,-117"/>
<image xlink:href="../../images/foreignKeys.png" width="11px" height="12px" preserveAspectRatio="xMinYMin meet" x="14" y="-134"/>
<text text-anchor="start" x="29" y="-125.2" font-family="Helvetica,sans-Serif" font-size="11.00">gsim_id</text>
<polygon fill="#ffffff" stroke="transparent" points="9,-95 9,-117 335,-117 335,-95 9,-95"/>
<polygon fill="none" stroke="black" points="9,-95 9,-117 335,-117 335,-95 9,-95"/>
<image xlink:href="../../images/foreignKeys.png" width="11px" height="12px" preserveAspectRatio="xMinYMin meet" x="14" y="-112"/>
<text text-anchor="start" x="29" y="-103.2" font-family="Helvetica,sans-Serif" font-size="11.00">product_id</text>
<polygon fill="#ffffff" stroke="transparent" points="9,-73 9,-95 335,-95 335,-73 9,-73"/>
<polygon fill="none" stroke="black" points="9,-73 9,-95 335,-95 335,-73 9,-73"/>
<image xlink:href="../../images/foreignKeys.png" width="11px" height="12px" preserveAspectRatio="xMinYMin meet" x="14" y="-90"/>
<text text-anchor="start" x="29" y="-81.2" font-family="Helvetica,sans-Serif" font-size="11.00">tax_group_id</text>
<polygon fill="none" stroke="black" points="9,-55 9,-73 335,-73 335,-55 9,-55"/>
<text text-anchor="start" x="12" y="-61.2" font-family="Helvetica,sans-Serif" font-size="11.00">...</text>
<polygon fill="#ffffff" stroke="transparent" points="9,-37 9,-55 149,-55 149,-37 9,-37"/>
<polygon fill="none" stroke="black" points="9,-37 9,-55 149,-55 149,-37 9,-37"/>
<text text-anchor="start" x="12" y="-43.2" font-family="Helvetica,sans-Serif" font-size="11.00">&lt; 5</text>
<polygon fill="#ffffff" stroke="transparent" points="149,-37 149,-55 247,-55 247,-37 149,-37"/>
<polygon fill="none" stroke="black" points="149,-37 149,-55 247,-55 247,-37 149,-37"/>
<text text-anchor="start" x="211" y="-43.2" font-family="Helvetica,sans-Serif" font-size="11.00">0 rows</text>
<polygon fill="#ffffff" stroke="transparent" points="247,-37 247,-55 335,-55 335,-37 247,-37"/>
<polygon fill="none" stroke="black" points="247,-37 247,-55 335,-55 335,-37 247,-37"/>
<text text-anchor="start" x="310" y="-43.2" font-family="Helvetica,sans-Serif" font-size="11.00">17 &gt;</text>
</a>
</g>
</g>
<!-- m_portfolio_account_associations&#45;&gt;m_savings_account -->
<g id="edge3" class="edge">
<title>m_portfolio_account_associations:w&#45;&gt;m_savings_account:e</title>
<path fill="none" stroke="black" d="M371.47,-439.85C308.36,-418.04 423.7,-238 336,-238"/>
<polygon fill="black" stroke="black" points="378.09,-440.83 385.47,-445.56 382.04,-441.41 386,-442 386,-442 386,-442 382.04,-441.41 386.53,-438.44 378.09,-440.83 378.09,-440.83"/>
<ellipse fill="none" stroke="black" cx="374.92" cy="-440.36" rx="3.2" ry="3.2"/>
</g>
<!-- m_portfolio_account_associations&#45;&gt;m_savings_account -->
<g id="edge5" class="edge">
<title>m_portfolio_account_associations:w&#45;&gt;m_savings_account:e</title>
<path fill="none" stroke="black" d="M371.52,-484.28C289.95,-462.37 442.95,-238 336,-238"/>
<polygon fill="black" stroke="black" points="378.06,-485.06 385.58,-489.57 382.03,-485.53 386,-486 386,-486 386,-486 382.03,-485.53 386.42,-482.43 378.06,-485.06 378.06,-485.06"/>
<ellipse fill="none" stroke="black" cx="374.88" cy="-484.68" rx="3.2" ry="3.2"/>
</g>
</g>
</svg>
