<?xml version="1.0" encoding="UTF-8" standalone="no"?>
<!DOCTYPE svg PUBLIC "-//W3C//DTD SVG 1.1//EN"
 "http://www.w3.org/Graphics/SVG/1.1/DTD/svg11.dtd">
<!-- Generated by graphviz version 2.43.0 (0)
 -->
<!-- Title: twoDegreesRelationshipsDiagram Pages: 1 -->
<svg width="606pt" height="203pt"
 viewBox="0.00 0.00 606.00 203.00" xmlns="http://www.w3.org/2000/svg" xmlns:xlink="http://www.w3.org/1999/xlink">
<g id="graph0" class="graph" transform="scale(1 1) rotate(0) translate(4 199)">
<title>twoDegreesRelationshipsDiagram</title>
<polygon fill="#ffffff" stroke="transparent" points="-4,4 -4,-199 602,-199 602,4 -4,4"/>
<text text-anchor="middle" x="71.5" y="-7.2" font-family="Helvetica,sans-Serif" font-size="11.00">Generated by SchemaSpy</text>
<!-- m_pocket -->
<g id="node1" class="node">
<title>m_pocket</title>
<g id="a_node1"><a xlink:href="../../tables/m_pocket.html" xlink:title="m_pocket" target="_top">
<polygon fill="#ffffff" stroke="transparent" points="160,-83 160,-167 260,-167 260,-83 160,-83"/>
<polygon fill="#f5f5f5" stroke="transparent" points="160,-145 160,-167 260,-167 260,-145 160,-145"/>
<polygon fill="none" stroke="black" points="160,-145 160,-167 260,-167 260,-145 160,-145"/>
<text text-anchor="start" x="165" y="-154.2" font-family="Helvetica,sans-Serif" font-weight="bold" font-size="11.00">m_pocket</text>
<text text-anchor="start" x="225" y="-153.2" font-family="Helvetica,sans-Serif" font-size="11.00">[table]</text>
<polygon fill="none" stroke="black" points="160,-123 160,-145 260,-145 260,-123 160,-123"/>
<image xlink:href="../../images/primaryKeys.png" width="11px" height="12px" preserveAspectRatio="xMinYMin meet" x="165" y="-140"/>
<text text-anchor="start" x="180" y="-131.2" font-family="Helvetica,sans-Serif" font-size="11.00">id</text>
<polygon fill="#ffffff" stroke="transparent" points="160,-101 160,-123 260,-123 260,-101 160,-101"/>
<polygon fill="none" stroke="black" points="160,-101 160,-123 260,-123 260,-101 160,-101"/>
<image xlink:href="../../images/foreignKeys.png" width="11px" height="12px" preserveAspectRatio="xMinYMin meet" x="165" y="-118"/>
<text text-anchor="start" x="180" y="-109.2" font-family="Helvetica,sans-Serif" font-size="11.00">app_user_id</text>
<polygon fill="#ffffff" stroke="transparent" points="160,-83 160,-101 190,-101 190,-83 160,-83"/>
<polygon fill="none" stroke="black" points="160,-83 160,-101 190,-101 190,-83 160,-83"/>
<text text-anchor="start" x="163" y="-89.2" font-family="Helvetica,sans-Serif" font-size="11.00">&lt; 1</text>
<polygon fill="#ffffff" stroke="transparent" points="190,-83 190,-101 233,-101 233,-83 190,-83"/>
<polygon fill="none" stroke="black" points="190,-83 190,-101 233,-101 233,-83 190,-83"/>
<text text-anchor="start" x="197" y="-89.2" font-family="Helvetica,sans-Serif" font-size="11.00">0 rows</text>
<polygon fill="#ffffff" stroke="transparent" points="233,-83 233,-101 260,-101 260,-83 233,-83"/>
<polygon fill="none" stroke="black" points="233,-83 233,-101 260,-101 260,-83 233,-83"/>
<text text-anchor="start" x="241" y="-89.2" font-family="Helvetica,sans-Serif" font-size="11.00">1 &gt;</text>
</a>
</g>
</g>
<!-- m_appuser -->
<g id="node2" class="node">
<title>m_appuser</title>
<g id="a_node2"><a xlink:href="../../tables/m_appuser.html" xlink:title="m_appuser" target="_top">
<polygon fill="#ffffff" stroke="transparent" points="8,-85 8,-143 111,-143 111,-85 8,-85"/>
<polygon fill="#f5f5f5" stroke="transparent" points="8.5,-121 8.5,-143 111.5,-143 111.5,-121 8.5,-121"/>
<polygon fill="none" stroke="black" points="8.5,-121 8.5,-143 111.5,-143 111.5,-121 8.5,-121"/>
<text text-anchor="start" x="13.5" y="-130.2" font-family="Helvetica,sans-Serif" font-weight="bold" font-size="11.00">m_appuser</text>
<text text-anchor="start" x="76.5" y="-129.2" font-family="Helvetica,sans-Serif" font-size="11.00">[table]</text>
<polygon fill="none" stroke="black" points="8.5,-103 8.5,-121 111.5,-121 111.5,-103 8.5,-103"/>
<text text-anchor="start" x="11.5" y="-109.2" font-family="Helvetica,sans-Serif" font-size="11.00">...</text>
<polygon fill="#ffffff" stroke="transparent" points="8.5,-85 8.5,-103 37.5,-103 37.5,-85 8.5,-85"/>
<polygon fill="none" stroke="black" points="8.5,-85 8.5,-103 37.5,-103 37.5,-85 8.5,-85"/>
<text text-anchor="start" x="11.5" y="-91.2" font-family="Helvetica,sans-Serif" font-size="11.00">&lt; 2</text>
<polygon fill="#ffffff" stroke="transparent" points="37.5,-85 37.5,-103 79.5,-103 79.5,-85 37.5,-85"/>
<polygon fill="none" stroke="black" points="37.5,-85 37.5,-103 79.5,-103 79.5,-85 37.5,-85"/>
<text text-anchor="start" x="43.5" y="-91.2" font-family="Helvetica,sans-Serif" font-size="11.00">0 rows</text>
<polygon fill="#ffffff" stroke="transparent" points="79.5,-85 79.5,-103 111.5,-103 111.5,-85 79.5,-85"/>
<polygon fill="none" stroke="black" points="79.5,-85 79.5,-103 111.5,-103 111.5,-85 79.5,-85"/>
<text text-anchor="start" x="86.5" y="-91.2" font-family="Helvetica,sans-Serif" font-size="11.00">57 &gt;</text>
</a>
</g>
</g>
<!-- m_pocket&#45;&gt;m_appuser -->
<g id="edge1" class="edge">
<title>m_pocket:w&#45;&gt;m_appuser:e</title>
<path fill="none" stroke="black" d="M148.43,-112C135.72,-112 129.13,-112 112.5,-112"/>
<polygon fill="black" stroke="black" points="158.2,-108 158.2,-116 156.6,-116 156.6,-108 158.2,-108"/>
<polyline fill="none" stroke="black" points="159,-112 155,-112 "/>
<ellipse fill="none" stroke="black" cx="151.8" cy="-112" rx="3.2" ry="3.2"/>
</g>
<!-- m_pocket_accounts_mapping -->
<g id="node3" class="node">
<title>m_pocket_accounts_mapping</title>
<g id="a_node3"><a xlink:href="../../tables/m_pocket_accounts_mapping.html" xlink:title="m_pocket_accounts_mapping" target="_top">
<polygon fill="#ffffff" stroke="transparent" points="309,-37 309,-191 590,-191 590,-37 309,-37"/>
<polygon fill="#f5f5f5" stroke="transparent" points="311.5,-167 311.5,-189 588.5,-189 588.5,-167 311.5,-167"/>
<polygon fill="none" stroke="black" points="311.5,-167 311.5,-189 588.5,-189 588.5,-167 311.5,-167"/>
<text text-anchor="start" x="316.5" y="-176.2" font-family="Helvetica,sans-Serif" font-weight="bold" font-size="11.00">m_pocket_accounts_mapping</text>
<text text-anchor="start" x="553.5" y="-175.2" font-family="Helvetica,sans-Serif" font-size="11.00">[table]</text>
<polygon fill="none" stroke="black" points="311.5,-145 311.5,-167 527.5,-167 527.5,-145 311.5,-145"/>
<image xlink:href="../../images/primaryKeys.png" width="11px" height="12px" preserveAspectRatio="xMinYMin meet" x="316.5" y="-162"/>
<text text-anchor="start" x="331.5" y="-153.2" font-family="Helvetica,sans-Serif" font-size="11.00">id</text>
<polygon fill="none" stroke="black" points="527.5,-145 527.5,-167 588.5,-167 588.5,-145 527.5,-145"/>
<text text-anchor="start" x="530.5" y="-153.2" font-family="Helvetica,sans-Serif" font-size="11.00">bigint[19]</text>
<polygon fill="#ffffff" stroke="transparent" points="311.5,-123 311.5,-145 527.5,-145 527.5,-123 311.5,-123"/>
<polygon fill="none" stroke="black" points="311.5,-123 311.5,-145 527.5,-145 527.5,-123 311.5,-123"/>
<image xlink:href="../../images/foreignKeys.png" width="11px" height="12px" preserveAspectRatio="xMinYMin meet" x="316.5" y="-140"/>
<text text-anchor="start" x="331.5" y="-131.2" font-family="Helvetica,sans-Serif" font-size="11.00">pocket_id</text>
<polygon fill="none" stroke="black" points="527.5,-123 527.5,-145 588.5,-145 588.5,-123 527.5,-123"/>
<text text-anchor="start" x="530.5" y="-131.2" font-family="Helvetica,sans-Serif" font-size="11.00">bigint[19]</text>
<polygon fill="#ffffff" stroke="transparent" points="311.5,-101 311.5,-123 527.5,-123 527.5,-101 311.5,-101"/>
<polygon fill="none" stroke="black" points="311.5,-101 311.5,-123 527.5,-123 527.5,-101 311.5,-101"/>
<text text-anchor="start" x="331.5" y="-109.2" font-family="Helvetica,sans-Serif" font-size="11.00">account_id</text>
<polygon fill="none" stroke="black" points="527.5,-101 527.5,-123 588.5,-123 588.5,-101 527.5,-101"/>
<text text-anchor="start" x="530.5" y="-109.2" font-family="Helvetica,sans-Serif" font-size="11.00">bigint[19]</text>
<polygon fill="#ffffff" stroke="transparent" points="311.5,-79 311.5,-101 527.5,-101 527.5,-79 311.5,-79"/>
<polygon fill="none" stroke="black" points="311.5,-79 311.5,-101 527.5,-101 527.5,-79 311.5,-79"/>
<text text-anchor="start" x="331.5" y="-87.2" font-family="Helvetica,sans-Serif" font-size="11.00">account_type</text>
<polygon fill="none" stroke="black" points="527.5,-79 527.5,-101 588.5,-101 588.5,-79 527.5,-79"/>
<text text-anchor="start" x="530.5" y="-87.2" font-family="Helvetica,sans-Serif" font-size="11.00">int[10]</text>
<polygon fill="none" stroke="black" points="311.5,-57 311.5,-79 527.5,-79 527.5,-57 311.5,-57"/>
<text text-anchor="start" x="331.5" y="-65.2" font-family="Helvetica,sans-Serif" font-size="11.00">account_number</text>
<polygon fill="none" stroke="black" points="527.5,-57 527.5,-79 588.5,-79 588.5,-57 527.5,-57"/>
<text text-anchor="start" x="530.5" y="-65.2" font-family="Helvetica,sans-Serif" font-size="11.00">varchar[20]</text>
<polygon fill="#ffffff" stroke="transparent" points="311.5,-39 311.5,-57 410.5,-57 410.5,-39 311.5,-39"/>
<polygon fill="none" stroke="black" points="311.5,-39 311.5,-57 410.5,-57 410.5,-39 311.5,-39"/>
<text text-anchor="start" x="314.5" y="-45.2" font-family="Helvetica,sans-Serif" font-size="11.00">&lt; 1</text>
<polygon fill="#ffffff" stroke="transparent" points="410.5,-39 410.5,-57 527.5,-57 527.5,-39 410.5,-39"/>
<polygon fill="none" stroke="black" points="410.5,-39 410.5,-57 527.5,-57 527.5,-39 410.5,-39"/>
<text text-anchor="start" x="491.5" y="-45.2" font-family="Helvetica,sans-Serif" font-size="11.00">0 rows</text>
<polygon fill="#ffffff" stroke="transparent" points="527.5,-39 527.5,-57 588.5,-57 588.5,-39 527.5,-39"/>
<polygon fill="none" stroke="black" points="527.5,-39 527.5,-57 588.5,-57 588.5,-39 527.5,-39"/>
<text text-anchor="start" x="569.5" y="-45.2" font-family="Helvetica,sans-Serif" font-size="11.00">0 &gt;</text>
<polygon fill="none" stroke="black" stroke-width="2" points="310,-38 310,-190 589,-190 589,-38 310,-38"/>
</a>
</g>
</g>
<!-- m_pocket_accounts_mapping&#45;&gt;m_pocket -->
<g id="edge2" class="edge">
<title>m_pocket_accounts_mapping:w&#45;&gt;m_pocket:e</title>
<path fill="none" stroke="black" d="M295.84,-134C284.41,-134 277.16,-134 261,-134"/>
<polygon fill="black" stroke="black" points="302.5,-134 310.5,-137.6 306.5,-134 310.5,-134 310.5,-134 310.5,-134 306.5,-134 310.5,-130.4 302.5,-134 302.5,-134"/>
<ellipse fill="none" stroke="black" cx="299.3" cy="-134" rx="3.2" ry="3.2"/>
</g>
</g>
</svg>
