<?xml version="1.0" encoding="UTF-8" standalone="no"?>
<!DOCTYPE svg PUBLIC "-//W3C//DTD SVG 1.1//EN"
 "http://www.w3.org/Graphics/SVG/1.1/DTD/svg11.dtd">
<!-- Generated by graphviz version 2.43.0 (0)
 -->
<!-- Title: oneDegreeRelationshipsDiagram Pages: 1 -->
<svg width="688pt" height="274pt"
 viewBox="0.00 0.00 688.00 274.00" xmlns="http://www.w3.org/2000/svg" xmlns:xlink="http://www.w3.org/1999/xlink">
<g id="graph0" class="graph" transform="scale(1 1) rotate(0) translate(4 270)">
<title>oneDegreeRelationshipsDiagram</title>
<polygon fill="#ffffff" stroke="transparent" points="-4,4 -4,-270 684,-270 684,4 -4,4"/>
<text text-anchor="middle" x="71.5" y="-7.2" font-family="Helvetica,sans-Serif" font-size="11.00">Generated by SchemaSpy</text>
<!-- m_product_mix -->
<g id="node1" class="node">
<title>m_product_mix</title>
<g id="a_node1"><a xlink:href="../../tables/m_product_mix.html" xlink:title="m_product_mix" target="_top">
<polygon fill="#ffffff" stroke="transparent" points="454,-152 454,-262 672,-262 672,-152 454,-152"/>
<polygon fill="#f5f5f5" stroke="transparent" points="456,-238 456,-260 670,-260 670,-238 456,-238"/>
<polygon fill="none" stroke="black" points="456,-238 456,-260 670,-260 670,-238 456,-238"/>
<text text-anchor="start" x="461" y="-247.2" font-family="Helvetica,sans-Serif" font-weight="bold" font-size="11.00">m_product_mix</text>
<text text-anchor="start" x="635" y="-246.2" font-family="Helvetica,sans-Serif" font-size="11.00">[table]</text>
<polygon fill="none" stroke="black" points="456,-216 456,-238 620,-238 620,-216 456,-216"/>
<image xlink:href="../../images/primaryKeys.png" width="11px" height="12px" preserveAspectRatio="xMinYMin meet" x="461" y="-233"/>
<text text-anchor="start" x="476" y="-224.2" font-family="Helvetica,sans-Serif" font-size="11.00">id</text>
<polygon fill="none" stroke="black" points="620,-216 620,-238 670,-238 670,-216 620,-216"/>
<text text-anchor="start" x="623" y="-224.2" font-family="Helvetica,sans-Serif" font-size="11.00">bigint[19]</text>
<polygon fill="#ffffff" stroke="transparent" points="456,-194 456,-216 620,-216 620,-194 456,-194"/>
<polygon fill="none" stroke="black" points="456,-194 456,-216 620,-216 620,-194 456,-194"/>
<image xlink:href="../../images/foreignKeys.png" width="11px" height="12px" preserveAspectRatio="xMinYMin meet" x="461" y="-211"/>
<text text-anchor="start" x="476" y="-202.2" font-family="Helvetica,sans-Serif" font-size="11.00">product_id</text>
<polygon fill="none" stroke="black" points="620,-194 620,-216 670,-216 670,-194 620,-194"/>
<text text-anchor="start" x="623" y="-202.2" font-family="Helvetica,sans-Serif" font-size="11.00">bigint[19]</text>
<polygon fill="#ffffff" stroke="transparent" points="456,-172 456,-194 620,-194 620,-172 456,-172"/>
<polygon fill="none" stroke="black" points="456,-172 456,-194 620,-194 620,-172 456,-172"/>
<image xlink:href="../../images/foreignKeys.png" width="11px" height="12px" preserveAspectRatio="xMinYMin meet" x="461" y="-189"/>
<text text-anchor="start" x="476" y="-180.2" font-family="Helvetica,sans-Serif" font-size="11.00">restricted_product_id</text>
<polygon fill="none" stroke="black" points="620,-172 620,-194 670,-194 670,-172 620,-172"/>
<text text-anchor="start" x="623" y="-180.2" font-family="Helvetica,sans-Serif" font-size="11.00">bigint[19]</text>
<polygon fill="#ffffff" stroke="transparent" points="456,-154 456,-172 529,-172 529,-154 456,-154"/>
<polygon fill="none" stroke="black" points="456,-154 456,-172 529,-172 529,-154 456,-154"/>
<text text-anchor="start" x="459" y="-160.2" font-family="Helvetica,sans-Serif" font-size="11.00">&lt; 2</text>
<polygon fill="#ffffff" stroke="transparent" points="529,-154 529,-172 620,-172 620,-154 529,-154"/>
<polygon fill="none" stroke="black" points="529,-154 529,-172 620,-172 620,-154 529,-154"/>
<text text-anchor="start" x="584" y="-160.2" font-family="Helvetica,sans-Serif" font-size="11.00">0 rows</text>
<polygon fill="#ffffff" stroke="transparent" points="620,-154 620,-172 670,-172 670,-154 620,-154"/>
<polygon fill="none" stroke="black" points="620,-154 620,-172 670,-172 670,-154 620,-154"/>
<text text-anchor="start" x="651" y="-160.2" font-family="Helvetica,sans-Serif" font-size="11.00">0 &gt;</text>
<polygon fill="none" stroke="black" stroke-width="2" points="455,-153 455,-261 671,-261 671,-153 455,-153"/>
</a>
</g>
</g>
<!-- m_product_loan -->
<g id="node2" class="node">
<title>m_product_loan</title>
<g id="a_node2"><a xlink:href="../../tables/m_product_loan.html" xlink:title="m_product_loan" target="_top">
<polygon fill="#ffffff" stroke="transparent" points="8,-37 8,-227 405,-227 405,-37 8,-37"/>
<polygon fill="#f5f5f5" stroke="transparent" points="8.5,-205 8.5,-227 405.5,-227 405.5,-205 8.5,-205"/>
<polygon fill="none" stroke="black" points="8.5,-205 8.5,-227 405.5,-227 405.5,-205 8.5,-205"/>
<text text-anchor="start" x="13.5" y="-214.2" font-family="Helvetica,sans-Serif" font-weight="bold" font-size="11.00">m_product_loan</text>
<text text-anchor="start" x="370.5" y="-213.2" font-family="Helvetica,sans-Serif" font-size="11.00">[table]</text>
<polygon fill="none" stroke="black" points="8.5,-183 8.5,-205 405.5,-205 405.5,-183 8.5,-183"/>
<image xlink:href="../../images/primaryKeys.png" width="11px" height="12px" preserveAspectRatio="xMinYMin meet" x="13.5" y="-200"/>
<text text-anchor="start" x="28.5" y="-191.2" font-family="Helvetica,sans-Serif" font-size="11.00">id</text>
<polygon fill="#ffffff" stroke="transparent" points="8.5,-161 8.5,-183 405.5,-183 405.5,-161 8.5,-161"/>
<polygon fill="none" stroke="black" points="8.5,-161 8.5,-183 405.5,-183 405.5,-161 8.5,-161"/>
<text text-anchor="start" x="28.5" y="-169.2" font-family="Helvetica,sans-Serif" font-size="11.00">short_name</text>
<polygon fill="#ffffff" stroke="transparent" points="8.5,-139 8.5,-161 405.5,-161 405.5,-139 8.5,-139"/>
<polygon fill="none" stroke="black" points="8.5,-139 8.5,-161 405.5,-161 405.5,-139 8.5,-139"/>
<text text-anchor="start" x="28.5" y="-147.2" font-family="Helvetica,sans-Serif" font-size="11.00">name</text>
<polygon fill="#ffffff" stroke="transparent" points="8.5,-117 8.5,-139 405.5,-139 405.5,-117 8.5,-117"/>
<polygon fill="none" stroke="black" points="8.5,-117 8.5,-139 405.5,-139 405.5,-117 8.5,-117"/>
<image xlink:href="../../images/foreignKeys.png" width="11px" height="12px" preserveAspectRatio="xMinYMin meet" x="13.5" y="-134"/>
<text text-anchor="start" x="28.5" y="-125.2" font-family="Helvetica,sans-Serif" font-size="11.00">fund_id</text>
<polygon fill="#ffffff" stroke="transparent" points="8.5,-95 8.5,-117 405.5,-117 405.5,-95 8.5,-95"/>
<polygon fill="none" stroke="black" points="8.5,-95 8.5,-117 405.5,-117 405.5,-95 8.5,-95"/>
<image xlink:href="../../images/foreignKeys.png" width="11px" height="12px" preserveAspectRatio="xMinYMin meet" x="13.5" y="-112"/>
<text text-anchor="start" x="28.5" y="-103.2" font-family="Helvetica,sans-Serif" font-size="11.00">loan_transaction_strategy_id</text>
<polygon fill="#ffffff" stroke="transparent" points="8.5,-73 8.5,-95 405.5,-95 405.5,-73 8.5,-73"/>
<polygon fill="none" stroke="black" points="8.5,-73 8.5,-95 405.5,-95 405.5,-73 8.5,-73"/>
<text text-anchor="start" x="28.5" y="-81.2" font-family="Helvetica,sans-Serif" font-size="11.00">external_id</text>
<polygon fill="none" stroke="black" points="8.5,-55 8.5,-73 405.5,-73 405.5,-55 8.5,-55"/>
<text text-anchor="start" x="11.5" y="-61.2" font-family="Helvetica,sans-Serif" font-size="11.00">...</text>
<polygon fill="#ffffff" stroke="transparent" points="8.5,-37 8.5,-55 184.5,-55 184.5,-37 8.5,-37"/>
<polygon fill="none" stroke="black" points="8.5,-37 8.5,-55 184.5,-55 184.5,-37 8.5,-37"/>
<text text-anchor="start" x="11.5" y="-43.2" font-family="Helvetica,sans-Serif" font-size="11.00">&lt; 2</text>
<polygon fill="#ffffff" stroke="transparent" points="184.5,-37 184.5,-55 300.5,-55 300.5,-37 184.5,-37"/>
<polygon fill="none" stroke="black" points="184.5,-37 184.5,-55 300.5,-55 300.5,-37 184.5,-37"/>
<text text-anchor="start" x="264.5" y="-43.2" font-family="Helvetica,sans-Serif" font-size="11.00">0 rows</text>
<polygon fill="#ffffff" stroke="transparent" points="300.5,-37 300.5,-55 405.5,-55 405.5,-37 300.5,-37"/>
<polygon fill="none" stroke="black" points="300.5,-37 300.5,-55 405.5,-55 405.5,-37 300.5,-37"/>
<text text-anchor="start" x="380.5" y="-43.2" font-family="Helvetica,sans-Serif" font-size="11.00">14 &gt;</text>
</a>
</g>
</g>
<!-- m_product_mix&#45;&gt;m_product_loan -->
<g id="edge1" class="edge">
<title>m_product_mix:w&#45;&gt;m_product_loan:e</title>
<path fill="none" stroke="black" d="M440.49,-203.08C429.36,-199.93 422.73,-194 406.5,-194"/>
<polygon fill="black" stroke="black" points="447.07,-203.95 454.53,-208.57 451.03,-204.48 455,-205 455,-205 455,-205 451.03,-204.48 455.47,-201.43 447.07,-203.95 447.07,-203.95"/>
<ellipse fill="none" stroke="black" cx="443.9" cy="-203.53" rx="3.2" ry="3.2"/>
</g>
<!-- m_product_mix&#45;&gt;m_product_loan -->
<g id="edge2" class="edge">
<title>m_product_mix:w&#45;&gt;m_product_loan:e</title>
<path fill="none" stroke="black" d="M440.49,-184.92C429.36,-188.07 422.73,-194 406.5,-194"/>
<polygon fill="black" stroke="black" points="447.07,-184.05 455.47,-186.57 451.03,-183.52 455,-183 455,-183 455,-183 451.03,-183.52 454.53,-179.43 447.07,-184.05 447.07,-184.05"/>
<ellipse fill="none" stroke="black" cx="443.9" cy="-184.47" rx="3.2" ry="3.2"/>
</g>
</g>
</svg>
