<?xml version="1.0" encoding="UTF-8" standalone="no"?>
<!DOCTYPE svg PUBLIC "-//W3C//DTD SVG 1.1//EN"
 "http://www.w3.org/Graphics/SVG/1.1/DTD/svg11.dtd">
<!-- Generated by graphviz version 2.43.0 (0)
 -->
<!-- Title: twoDegreesRelationshipsDiagram Pages: 1 -->
<svg width="1065pt" height="1107pt"
 viewBox="0.00 0.00 1065.00 1107.00" xmlns="http://www.w3.org/2000/svg" xmlns:xlink="http://www.w3.org/1999/xlink">
<g id="graph0" class="graph" transform="scale(1 1) rotate(0) translate(4 1103)">
<title>twoDegreesRelationshipsDiagram</title>
<polygon fill="#ffffff" stroke="transparent" points="-4,4 -4,-1103 1061,-1103 1061,4 -4,4"/>
<text text-anchor="middle" x="71.5" y="-7.2" font-family="Helvetica,sans-Serif" font-size="11.00">Generated by SchemaSpy</text>
<!-- m_creditbureau_loanproduct_mapping -->
<g id="node1" class="node">
<title>m_creditbureau_loanproduct_mapping</title>
<g id="a_node1"><a xlink:href="../../tables/m_creditbureau_loanproduct_mapping.html" xlink:title="m_creditbureau_loanproduct_mapping" target="_top">
<polygon fill="#ffffff" stroke="transparent" points="784.5,-958 784.5,-1016 1033.5,-1016 1033.5,-958 784.5,-958"/>
<polygon fill="#f5f5f5" stroke="transparent" points="785,-994 785,-1016 1034,-1016 1034,-994 785,-994"/>
<polygon fill="none" stroke="black" points="785,-994 785,-1016 1034,-1016 1034,-994 785,-994"/>
<text text-anchor="start" x="790" y="-1003.2" font-family="Helvetica,sans-Serif" font-weight="bold" font-size="11.00">m_creditbureau_loanproduct_mapping</text>
<text text-anchor="start" x="999" y="-1002.2" font-family="Helvetica,sans-Serif" font-size="11.00">[table]</text>
<polygon fill="none" stroke="black" points="785,-976 785,-994 1034,-994 1034,-976 785,-976"/>
<text text-anchor="start" x="788" y="-982.2" font-family="Helvetica,sans-Serif" font-size="11.00">...</text>
<polygon fill="#ffffff" stroke="transparent" points="785,-958 785,-976 894,-976 894,-958 785,-958"/>
<polygon fill="none" stroke="black" points="785,-958 785,-976 894,-976 894,-958 785,-958"/>
<text text-anchor="start" x="788" y="-964.2" font-family="Helvetica,sans-Serif" font-size="11.00">&lt; 2</text>
<polygon fill="#ffffff" stroke="transparent" points="894,-958 894,-976 977,-976 977,-958 894,-958"/>
<polygon fill="none" stroke="black" points="894,-958 894,-976 977,-976 977,-958 894,-958"/>
<text text-anchor="start" x="941" y="-964.2" font-family="Helvetica,sans-Serif" font-size="11.00">0 rows</text>
<polygon fill="#ffffff" stroke="transparent" points="977,-958 977,-976 1034,-976 1034,-958 977,-958"/>
<polygon fill="none" stroke="black" points="977,-958 977,-976 1034,-976 1034,-958 977,-958"/>
<text text-anchor="start" x="1024" y="-964.2" font-family="Helvetica,sans-Serif" font-size="11.00"> &#160;</text>
</a>
</g>
</g>
<!-- m_product_loan -->
<g id="node2" class="node">
<title>m_product_loan</title>
<g id="a_node2"><a xlink:href="../../tables/m_product_loan.html" xlink:title="m_product_loan" target="_top">
<polygon fill="#ffffff" stroke="transparent" points="323,-472 323,-662 720,-662 720,-472 323,-472"/>
<polygon fill="#f5f5f5" stroke="transparent" points="323.5,-640 323.5,-662 720.5,-662 720.5,-640 323.5,-640"/>
<polygon fill="none" stroke="black" points="323.5,-640 323.5,-662 720.5,-662 720.5,-640 323.5,-640"/>
<text text-anchor="start" x="328.5" y="-649.2" font-family="Helvetica,sans-Serif" font-weight="bold" font-size="11.00">m_product_loan</text>
<text text-anchor="start" x="685.5" y="-648.2" font-family="Helvetica,sans-Serif" font-size="11.00">[table]</text>
<polygon fill="none" stroke="black" points="323.5,-618 323.5,-640 720.5,-640 720.5,-618 323.5,-618"/>
<image xlink:href="../../images/primaryKeys.png" width="11px" height="12px" preserveAspectRatio="xMinYMin meet" x="328.5" y="-635"/>
<text text-anchor="start" x="343.5" y="-626.2" font-family="Helvetica,sans-Serif" font-size="11.00">id</text>
<polygon fill="#ffffff" stroke="transparent" points="323.5,-596 323.5,-618 720.5,-618 720.5,-596 323.5,-596"/>
<polygon fill="none" stroke="black" points="323.5,-596 323.5,-618 720.5,-618 720.5,-596 323.5,-596"/>
<text text-anchor="start" x="343.5" y="-604.2" font-family="Helvetica,sans-Serif" font-size="11.00">short_name</text>
<polygon fill="#ffffff" stroke="transparent" points="323.5,-574 323.5,-596 720.5,-596 720.5,-574 323.5,-574"/>
<polygon fill="none" stroke="black" points="323.5,-574 323.5,-596 720.5,-596 720.5,-574 323.5,-574"/>
<text text-anchor="start" x="343.5" y="-582.2" font-family="Helvetica,sans-Serif" font-size="11.00">name</text>
<polygon fill="#ffffff" stroke="transparent" points="323.5,-552 323.5,-574 720.5,-574 720.5,-552 323.5,-552"/>
<polygon fill="none" stroke="black" points="323.5,-552 323.5,-574 720.5,-574 720.5,-552 323.5,-552"/>
<image xlink:href="../../images/foreignKeys.png" width="11px" height="12px" preserveAspectRatio="xMinYMin meet" x="328.5" y="-569"/>
<text text-anchor="start" x="343.5" y="-560.2" font-family="Helvetica,sans-Serif" font-size="11.00">fund_id</text>
<polygon fill="#ffffff" stroke="transparent" points="323.5,-530 323.5,-552 720.5,-552 720.5,-530 323.5,-530"/>
<polygon fill="none" stroke="black" points="323.5,-530 323.5,-552 720.5,-552 720.5,-530 323.5,-530"/>
<image xlink:href="../../images/foreignKeys.png" width="11px" height="12px" preserveAspectRatio="xMinYMin meet" x="328.5" y="-547"/>
<text text-anchor="start" x="343.5" y="-538.2" font-family="Helvetica,sans-Serif" font-size="11.00">loan_transaction_strategy_id</text>
<polygon fill="#ffffff" stroke="transparent" points="323.5,-508 323.5,-530 720.5,-530 720.5,-508 323.5,-508"/>
<polygon fill="none" stroke="black" points="323.5,-508 323.5,-530 720.5,-530 720.5,-508 323.5,-508"/>
<text text-anchor="start" x="343.5" y="-516.2" font-family="Helvetica,sans-Serif" font-size="11.00">external_id</text>
<polygon fill="none" stroke="black" points="323.5,-490 323.5,-508 720.5,-508 720.5,-490 323.5,-490"/>
<text text-anchor="start" x="326.5" y="-496.2" font-family="Helvetica,sans-Serif" font-size="11.00">...</text>
<polygon fill="#ffffff" stroke="transparent" points="323.5,-472 323.5,-490 499.5,-490 499.5,-472 323.5,-472"/>
<polygon fill="none" stroke="black" points="323.5,-472 323.5,-490 499.5,-490 499.5,-472 323.5,-472"/>
<text text-anchor="start" x="326.5" y="-478.2" font-family="Helvetica,sans-Serif" font-size="11.00">&lt; 2</text>
<polygon fill="#ffffff" stroke="transparent" points="499.5,-472 499.5,-490 615.5,-490 615.5,-472 499.5,-472"/>
<polygon fill="none" stroke="black" points="499.5,-472 499.5,-490 615.5,-490 615.5,-472 499.5,-472"/>
<text text-anchor="start" x="579.5" y="-478.2" font-family="Helvetica,sans-Serif" font-size="11.00">0 rows</text>
<polygon fill="#ffffff" stroke="transparent" points="615.5,-472 615.5,-490 720.5,-490 720.5,-472 615.5,-472"/>
<polygon fill="none" stroke="black" points="615.5,-472 615.5,-490 720.5,-490 720.5,-472 615.5,-472"/>
<text text-anchor="start" x="695.5" y="-478.2" font-family="Helvetica,sans-Serif" font-size="11.00">14 &gt;</text>
</a>
</g>
</g>
<!-- m_creditbureau_loanproduct_mapping&#45;&gt;m_product_loan -->
<g id="edge1" class="edge">
<title>m_creditbureau_loanproduct_mapping:w&#45;&gt;m_product_loan:e</title>
<path fill="none" stroke="black" d="M770.25,-980.5C715.93,-939.29 796.49,-629 721.5,-629"/>
<polygon fill="black" stroke="black" points="776.4,-982.51 782.88,-988.42 780.2,-983.76 784,-985 784,-985 784,-985 780.2,-983.76 785.12,-981.58 776.4,-982.51 776.4,-982.51"/>
<ellipse fill="none" stroke="black" cx="773.36" cy="-981.51" rx="3.2" ry="3.2"/>
</g>
<!-- m_fund -->
<g id="node4" class="node">
<title>m_fund</title>
<g id="a_node4"><a xlink:href="../../tables/m_fund.html" xlink:title="m_fund" target="_top">
<polygon fill="#ffffff" stroke="transparent" points="99,-860 99,-918 183,-918 183,-860 99,-860"/>
<polygon fill="#f5f5f5" stroke="transparent" points="99,-896 99,-918 183,-918 183,-896 99,-896"/>
<polygon fill="none" stroke="black" points="99,-896 99,-918 183,-918 183,-896 99,-896"/>
<text text-anchor="start" x="104" y="-905.2" font-family="Helvetica,sans-Serif" font-weight="bold" font-size="11.00">m_fund</text>
<text text-anchor="start" x="148" y="-904.2" font-family="Helvetica,sans-Serif" font-size="11.00">[table]</text>
<polygon fill="none" stroke="black" points="99,-878 99,-896 183,-896 183,-878 99,-878"/>
<text text-anchor="start" x="102" y="-884.2" font-family="Helvetica,sans-Serif" font-size="11.00">...</text>
<polygon fill="#ffffff" stroke="transparent" points="99,-860 99,-878 117,-878 117,-860 99,-860"/>
<polygon fill="none" stroke="black" points="99,-860 99,-878 117,-878 117,-860 99,-860"/>
<text text-anchor="start" x="102" y="-866.2" font-family="Helvetica,sans-Serif" font-size="11.00"> &#160;</text>
<polygon fill="#ffffff" stroke="transparent" points="117,-860 117,-878 158,-878 158,-860 117,-860"/>
<polygon fill="none" stroke="black" points="117,-860 117,-878 158,-878 158,-860 117,-860"/>
<text text-anchor="start" x="122" y="-866.2" font-family="Helvetica,sans-Serif" font-size="11.00">0 rows</text>
<polygon fill="#ffffff" stroke="transparent" points="158,-860 158,-878 183,-878 183,-860 158,-860"/>
<polygon fill="none" stroke="black" points="158,-860 158,-878 183,-878 183,-860 158,-860"/>
<text text-anchor="start" x="164" y="-866.2" font-family="Helvetica,sans-Serif" font-size="11.00">2 &gt;</text>
</a>
</g>
</g>
<!-- m_product_loan&#45;&gt;m_fund -->
<g id="edge7" class="edge">
<title>m_product_loan:w&#45;&gt;m_fund:e</title>
<path fill="none" stroke="black" d="M307.92,-565.25C277.17,-576.7 299.5,-629.65 282,-672 241.91,-769.06 289.01,-887 184,-887"/>
<polygon fill="black" stroke="black" points="314.59,-564.22 323.05,-566.56 318.55,-563.61 322.5,-563 322.5,-563 322.5,-563 318.55,-563.61 321.95,-559.44 314.59,-564.22 314.59,-564.22"/>
<ellipse fill="none" stroke="black" cx="311.43" cy="-564.71" rx="3.2" ry="3.2"/>
</g>
<!-- ref_loan_transaction_processing_strategy -->
<g id="node5" class="node">
<title>ref_loan_transaction_processing_strategy</title>
<g id="a_node5"><a xlink:href="../../tables/ref_loan_transaction_processing_strategy.html" xlink:title="ref_loan_transaction_processing_strategy" target="_top">
<polygon fill="#ffffff" stroke="transparent" points="8,-603 8,-661 274,-661 274,-603 8,-603"/>
<polygon fill="#f5f5f5" stroke="transparent" points="8,-639 8,-661 274,-661 274,-639 8,-639"/>
<polygon fill="none" stroke="black" points="8,-639 8,-661 274,-661 274,-639 8,-639"/>
<text text-anchor="start" x="13" y="-648.2" font-family="Helvetica,sans-Serif" font-weight="bold" font-size="11.00">ref_loan_transaction_processing_strategy</text>
<text text-anchor="start" x="239" y="-647.2" font-family="Helvetica,sans-Serif" font-size="11.00">[table]</text>
<polygon fill="none" stroke="black" points="8,-621 8,-639 274,-639 274,-621 8,-621"/>
<text text-anchor="start" x="11" y="-627.2" font-family="Helvetica,sans-Serif" font-size="11.00">...</text>
<polygon fill="#ffffff" stroke="transparent" points="8,-603 8,-621 117,-621 117,-603 8,-603"/>
<polygon fill="none" stroke="black" points="8,-603 8,-621 117,-621 117,-603 8,-603"/>
<text text-anchor="start" x="11" y="-609.2" font-family="Helvetica,sans-Serif" font-size="11.00"> &#160;</text>
<polygon fill="#ffffff" stroke="transparent" points="117,-603 117,-621 204,-621 204,-603 117,-603"/>
<polygon fill="none" stroke="black" points="117,-603 117,-621 204,-621 204,-603 117,-603"/>
<text text-anchor="start" x="168" y="-609.2" font-family="Helvetica,sans-Serif" font-size="11.00">0 rows</text>
<polygon fill="#ffffff" stroke="transparent" points="204,-603 204,-621 274,-621 274,-603 204,-603"/>
<polygon fill="none" stroke="black" points="204,-603 204,-621 274,-621 274,-603 204,-603"/>
<text text-anchor="start" x="255" y="-609.2" font-family="Helvetica,sans-Serif" font-size="11.00">2 &gt;</text>
</a>
</g>
</g>
<!-- m_product_loan&#45;&gt;ref_loan_transaction_processing_strategy -->
<g id="edge8" class="edge">
<title>m_product_loan:w&#45;&gt;ref_loan_transaction_processing_strategy:e</title>
<path fill="none" stroke="black" d="M308.54,-545.54C287.57,-563.67 313.71,-630 275,-630"/>
<polygon fill="black" stroke="black" points="314.89,-543.47 323.61,-544.42 318.7,-542.24 322.5,-541 322.5,-541 322.5,-541 318.7,-542.24 321.39,-537.58 314.89,-543.47 314.89,-543.47"/>
<ellipse fill="none" stroke="black" cx="311.85" cy="-544.46" rx="3.2" ry="3.2"/>
</g>
<!-- m_loan -->
<g id="node3" class="node">
<title>m_loan</title>
<g id="a_node3"><a xlink:href="../../tables/m_loan.html" xlink:title="m_loan" target="_top">
<polygon fill="#ffffff" stroke="transparent" points="861.5,-1037 861.5,-1095 956.5,-1095 956.5,-1037 861.5,-1037"/>
<polygon fill="#f5f5f5" stroke="transparent" points="862,-1073 862,-1095 957,-1095 957,-1073 862,-1073"/>
<polygon fill="none" stroke="black" points="862,-1073 862,-1095 957,-1095 957,-1073 862,-1073"/>
<text text-anchor="start" x="867" y="-1082.2" font-family="Helvetica,sans-Serif" font-weight="bold" font-size="11.00">m_loan</text>
<text text-anchor="start" x="922" y="-1081.2" font-family="Helvetica,sans-Serif" font-size="11.00">[table]</text>
<polygon fill="none" stroke="black" points="862,-1055 862,-1073 957,-1073 957,-1055 862,-1055"/>
<text text-anchor="start" x="865" y="-1061.2" font-family="Helvetica,sans-Serif" font-size="11.00">...</text>
<polygon fill="#ffffff" stroke="transparent" points="862,-1037 862,-1055 890,-1055 890,-1037 862,-1037"/>
<polygon fill="none" stroke="black" points="862,-1037 862,-1055 890,-1055 890,-1037 862,-1037"/>
<text text-anchor="start" x="865" y="-1043.2" font-family="Helvetica,sans-Serif" font-size="11.00">&lt; 15</text>
<polygon fill="#ffffff" stroke="transparent" points="890,-1037 890,-1055 929,-1055 929,-1037 890,-1037"/>
<polygon fill="none" stroke="black" points="890,-1037 890,-1055 929,-1055 929,-1037 890,-1037"/>
<text text-anchor="start" x="893" y="-1043.2" font-family="Helvetica,sans-Serif" font-size="11.00">0 rows</text>
<polygon fill="#ffffff" stroke="transparent" points="929,-1037 929,-1055 957,-1055 957,-1037 929,-1037"/>
<polygon fill="none" stroke="black" points="929,-1037 929,-1055 957,-1055 957,-1037 929,-1037"/>
<text text-anchor="start" x="932" y="-1043.2" font-family="Helvetica,sans-Serif" font-size="11.00">24 &gt;</text>
</a>
</g>
</g>
<!-- m_loan&#45;&gt;m_product_loan -->
<g id="edge4" class="edge">
<title>m_loan:w&#45;&gt;m_product_loan:e</title>
<path fill="none" stroke="black" d="M846.51,-1063.97C808.47,-1063.67 786.86,-1060.48 761,-1027 706.67,-956.66 810.38,-629 721.5,-629"/>
<polygon fill="black" stroke="black" points="853,-1063.98 860.99,-1067.6 857,-1063.99 861,-1064 861,-1064 861,-1064 857,-1063.99 861.01,-1060.4 853,-1063.98 853,-1063.98"/>
<ellipse fill="none" stroke="black" cx="849.8" cy="-1063.98" rx="3.2" ry="3.2"/>
</g>
<!-- m_loan&#45;&gt;m_fund -->
<g id="edge2" class="edge">
<title>m_loan:w&#45;&gt;m_fund:e</title>
<path fill="none" stroke="black" d="M846.16,-1063.86C548.16,-1058.34 489.99,-887 184,-887"/>
<polygon fill="black" stroke="black" points="853,-1063.93 860.97,-1067.6 857,-1063.96 861,-1064 861,-1064 861,-1064 857,-1063.96 861.03,-1060.4 853,-1063.93 853,-1063.93"/>
<ellipse fill="none" stroke="black" cx="849.8" cy="-1063.9" rx="3.2" ry="3.2"/>
</g>
<!-- m_loan&#45;&gt;ref_loan_transaction_processing_strategy -->
<g id="edge3" class="edge">
<title>m_loan:w&#45;&gt;ref_loan_transaction_processing_strategy:e</title>
<path fill="none" stroke="black" d="M846.35,-1063.9C808.9,-1063.22 789.2,-1058.41 761,-1027 720.89,-982.32 764.87,-943.39 728,-896 599.9,-731.36 480.01,-800.62 315,-673 294.35,-657.03 301.1,-630 275,-630"/>
<polygon fill="black" stroke="black" points="853,-1063.94 860.97,-1067.6 857,-1063.97 861,-1064 861,-1064 861,-1064 857,-1063.97 861.03,-1060.4 853,-1063.94 853,-1063.94"/>
<ellipse fill="none" stroke="black" cx="849.8" cy="-1063.92" rx="3.2" ry="3.2"/>
</g>
<!-- m_loanproduct_provisioning_entry -->
<g id="node6" class="node">
<title>m_loanproduct_provisioning_entry</title>
<g id="a_node6"><a xlink:href="../../tables/m_loanproduct_provisioning_entry.html" xlink:title="m_loanproduct_provisioning_entry" target="_top">
<polygon fill="#ffffff" stroke="transparent" points="794.5,-879 794.5,-937 1023.5,-937 1023.5,-879 794.5,-879"/>
<polygon fill="#f5f5f5" stroke="transparent" points="795,-915 795,-937 1024,-937 1024,-915 795,-915"/>
<polygon fill="none" stroke="black" points="795,-915 795,-937 1024,-937 1024,-915 795,-915"/>
<text text-anchor="start" x="800" y="-924.2" font-family="Helvetica,sans-Serif" font-weight="bold" font-size="11.00">m_loanproduct_provisioning_entry</text>
<text text-anchor="start" x="989" y="-923.2" font-family="Helvetica,sans-Serif" font-size="11.00">[table]</text>
<polygon fill="none" stroke="black" points="795,-897 795,-915 1024,-915 1024,-897 795,-897"/>
<text text-anchor="start" x="798" y="-903.2" font-family="Helvetica,sans-Serif" font-size="11.00">...</text>
<polygon fill="#ffffff" stroke="transparent" points="795,-879 795,-897 894,-897 894,-879 795,-879"/>
<polygon fill="none" stroke="black" points="795,-879 795,-897 894,-897 894,-879 795,-879"/>
<text text-anchor="start" x="798" y="-885.2" font-family="Helvetica,sans-Serif" font-size="11.00">&lt; 7</text>
<polygon fill="#ffffff" stroke="transparent" points="894,-879 894,-897 972,-897 972,-879 894,-879"/>
<polygon fill="none" stroke="black" points="894,-879 894,-897 972,-897 972,-879 894,-879"/>
<text text-anchor="start" x="936" y="-885.2" font-family="Helvetica,sans-Serif" font-size="11.00">0 rows</text>
<polygon fill="#ffffff" stroke="transparent" points="972,-879 972,-897 1024,-897 1024,-879 972,-879"/>
<polygon fill="none" stroke="black" points="972,-879 972,-897 1024,-897 1024,-879 972,-879"/>
<text text-anchor="start" x="1014" y="-885.2" font-family="Helvetica,sans-Serif" font-size="11.00"> &#160;</text>
</a>
</g>
</g>
<!-- m_loanproduct_provisioning_entry&#45;&gt;m_product_loan -->
<g id="edge5" class="edge">
<title>m_loanproduct_provisioning_entry:w&#45;&gt;m_product_loan:e</title>
<path fill="none" stroke="black" d="M779.95,-902.45C770.56,-896.43 767.9,-883.45 761,-869 737.7,-820.23 775.55,-629 721.5,-629"/>
<polygon fill="black" stroke="black" points="786.24,-904.04 793.12,-909.49 790.12,-905.02 794,-906 794,-906 794,-906 790.12,-905.02 794.88,-902.51 786.24,-904.04 786.24,-904.04"/>
<ellipse fill="none" stroke="black" cx="783.14" cy="-903.26" rx="3.2" ry="3.2"/>
</g>
<!-- m_loanproduct_provisioning_mapping -->
<g id="node7" class="node">
<title>m_loanproduct_provisioning_mapping</title>
<g id="a_node7"><a xlink:href="../../tables/m_loanproduct_provisioning_mapping.html" xlink:title="m_loanproduct_provisioning_mapping" target="_top">
<polygon fill="#ffffff" stroke="transparent" points="785,-800 785,-858 1033,-858 1033,-800 785,-800"/>
<polygon fill="#f5f5f5" stroke="transparent" points="785,-836 785,-858 1033,-858 1033,-836 785,-836"/>
<polygon fill="none" stroke="black" points="785,-836 785,-858 1033,-858 1033,-836 785,-836"/>
<text text-anchor="start" x="790" y="-845.2" font-family="Helvetica,sans-Serif" font-weight="bold" font-size="11.00">m_loanproduct_provisioning_mapping</text>
<text text-anchor="start" x="998" y="-844.2" font-family="Helvetica,sans-Serif" font-size="11.00">[table]</text>
<polygon fill="none" stroke="black" points="785,-818 785,-836 1033,-836 1033,-818 785,-818"/>
<text text-anchor="start" x="788" y="-824.2" font-family="Helvetica,sans-Serif" font-size="11.00">...</text>
<polygon fill="#ffffff" stroke="transparent" points="785,-800 785,-818 894,-818 894,-800 785,-800"/>
<polygon fill="none" stroke="black" points="785,-800 785,-818 894,-818 894,-800 785,-800"/>
<text text-anchor="start" x="788" y="-806.2" font-family="Helvetica,sans-Serif" font-size="11.00">&lt; 2</text>
<polygon fill="#ffffff" stroke="transparent" points="894,-800 894,-818 976,-818 976,-800 894,-800"/>
<polygon fill="none" stroke="black" points="894,-800 894,-818 976,-818 976,-800 894,-800"/>
<text text-anchor="start" x="940" y="-806.2" font-family="Helvetica,sans-Serif" font-size="11.00">0 rows</text>
<polygon fill="#ffffff" stroke="transparent" points="976,-800 976,-818 1033,-818 1033,-800 976,-800"/>
<polygon fill="none" stroke="black" points="976,-800 976,-818 1033,-818 1033,-800 976,-800"/>
<text text-anchor="start" x="1023" y="-806.2" font-family="Helvetica,sans-Serif" font-size="11.00"> &#160;</text>
</a>
</g>
</g>
<!-- m_loanproduct_provisioning_mapping&#45;&gt;m_product_loan -->
<g id="edge6" class="edge">
<title>m_loanproduct_provisioning_mapping:w&#45;&gt;m_product_loan:e</title>
<path fill="none" stroke="black" d="M773.26,-825.93C701.81,-810.35 809.81,-629 721.5,-629"/>
<polygon fill="black" stroke="black" points="783.6,-822.94 782.81,-830.9 781.22,-830.74 782.01,-822.78 783.6,-822.94"/>
<polyline fill="none" stroke="black" points="784,-827 780.02,-826.61 "/>
<ellipse fill="none" stroke="black" cx="776.84" cy="-826.29" rx="3.2" ry="3.2"/>
</g>
<!-- m_product_loan_charge -->
<g id="node8" class="node">
<title>m_product_loan_charge</title>
<g id="a_node8"><a xlink:href="../../tables/m_product_loan_charge.html" xlink:title="m_product_loan_charge" target="_top">
<polygon fill="#ffffff" stroke="transparent" points="823,-721 823,-779 995,-779 995,-721 823,-721"/>
<polygon fill="#f5f5f5" stroke="transparent" points="823,-757 823,-779 995,-779 995,-757 823,-757"/>
<polygon fill="none" stroke="black" points="823,-757 823,-779 995,-779 995,-757 823,-757"/>
<text text-anchor="start" x="828" y="-766.2" font-family="Helvetica,sans-Serif" font-weight="bold" font-size="11.00">m_product_loan_charge</text>
<text text-anchor="start" x="960" y="-765.2" font-family="Helvetica,sans-Serif" font-size="11.00">[table]</text>
<polygon fill="none" stroke="black" points="823,-739 823,-757 995,-757 995,-739 823,-739"/>
<text text-anchor="start" x="826" y="-745.2" font-family="Helvetica,sans-Serif" font-size="11.00">...</text>
<polygon fill="#ffffff" stroke="transparent" points="823,-721 823,-739 894,-739 894,-721 823,-721"/>
<polygon fill="none" stroke="black" points="823,-721 823,-739 894,-739 894,-721 823,-721"/>
<text text-anchor="start" x="826" y="-727.2" font-family="Helvetica,sans-Serif" font-size="11.00">&lt; 2</text>
<polygon fill="#ffffff" stroke="transparent" points="894,-721 894,-739 957,-739 957,-721 894,-721"/>
<polygon fill="none" stroke="black" points="894,-721 894,-739 957,-739 957,-721 894,-721"/>
<text text-anchor="start" x="921" y="-727.2" font-family="Helvetica,sans-Serif" font-size="11.00">0 rows</text>
<polygon fill="#ffffff" stroke="transparent" points="957,-721 957,-739 995,-739 995,-721 957,-721"/>
<polygon fill="none" stroke="black" points="957,-721 957,-739 995,-739 995,-721 957,-721"/>
<text text-anchor="start" x="985" y="-727.2" font-family="Helvetica,sans-Serif" font-size="11.00"> &#160;</text>
</a>
</g>
</g>
<!-- m_product_loan_charge&#45;&gt;m_product_loan -->
<g id="edge9" class="edge">
<title>m_product_loan_charge:w&#45;&gt;m_product_loan:e</title>
<path fill="none" stroke="black" d="M807.57,-746.82C787.16,-743.06 778.65,-730.44 761,-711 733.81,-681.05 761.95,-629 721.5,-629"/>
<polygon fill="black" stroke="black" points="814.03,-747.35 821.71,-751.59 818.01,-747.67 822,-748 822,-748 822,-748 818.01,-747.67 822.29,-744.41 814.03,-747.35 814.03,-747.35"/>
<ellipse fill="none" stroke="black" cx="810.84" cy="-747.09" rx="3.2" ry="3.2"/>
</g>
<!-- m_product_loan_configurable_attributes -->
<g id="node9" class="node">
<title>m_product_loan_configurable_attributes</title>
<g id="a_node9"><a xlink:href="../../tables/m_product_loan_configurable_attributes.html" xlink:title="m_product_loan_configurable_attributes" target="_top">
<polygon fill="#ffffff" stroke="transparent" points="780,-642 780,-700 1038,-700 1038,-642 780,-642"/>
<polygon fill="#f5f5f5" stroke="transparent" points="780,-678 780,-700 1038,-700 1038,-678 780,-678"/>
<polygon fill="none" stroke="black" points="780,-678 780,-700 1038,-700 1038,-678 780,-678"/>
<text text-anchor="start" x="785" y="-687.2" font-family="Helvetica,sans-Serif" font-weight="bold" font-size="11.00">m_product_loan_configurable_attributes</text>
<text text-anchor="start" x="1003" y="-686.2" font-family="Helvetica,sans-Serif" font-size="11.00">[table]</text>
<polygon fill="none" stroke="black" points="780,-660 780,-678 1038,-678 1038,-660 780,-660"/>
<text text-anchor="start" x="783" y="-666.2" font-family="Helvetica,sans-Serif" font-size="11.00">...</text>
<polygon fill="#ffffff" stroke="transparent" points="780,-642 780,-660 894,-660 894,-642 780,-642"/>
<polygon fill="none" stroke="black" points="780,-642 780,-660 894,-660 894,-642 780,-642"/>
<text text-anchor="start" x="783" y="-648.2" font-family="Helvetica,sans-Serif" font-size="11.00">&lt; 1</text>
<polygon fill="#ffffff" stroke="transparent" points="894,-642 894,-660 979,-660 979,-642 894,-642"/>
<polygon fill="none" stroke="black" points="894,-642 894,-660 979,-660 979,-642 894,-642"/>
<text text-anchor="start" x="943" y="-648.2" font-family="Helvetica,sans-Serif" font-size="11.00">0 rows</text>
<polygon fill="#ffffff" stroke="transparent" points="979,-642 979,-660 1038,-660 1038,-642 979,-642"/>
<polygon fill="none" stroke="black" points="979,-642 979,-660 1038,-660 1038,-642 979,-642"/>
<text text-anchor="start" x="1028" y="-648.2" font-family="Helvetica,sans-Serif" font-size="11.00"> &#160;</text>
</a>
</g>
</g>
<!-- m_product_loan_configurable_attributes&#45;&gt;m_product_loan -->
<g id="edge10" class="edge">
<title>m_product_loan_configurable_attributes:w&#45;&gt;m_product_loan:e</title>
<path fill="none" stroke="black" d="M764.8,-665.31C748.39,-655.41 746.79,-629 721.5,-629"/>
<polygon fill="black" stroke="black" points="771.26,-666.99 778.09,-672.48 775.13,-667.99 779,-669 779,-669 779,-669 775.13,-667.99 779.91,-665.52 771.26,-666.99 771.26,-666.99"/>
<ellipse fill="none" stroke="black" cx="768.16" cy="-666.18" rx="3.2" ry="3.2"/>
</g>
<!-- m_product_loan_floating_rates -->
<g id="node10" class="node">
<title>m_product_loan_floating_rates</title>
<g id="a_node10"><a xlink:href="../../tables/m_product_loan_floating_rates.html" xlink:title="m_product_loan_floating_rates" target="_top">
<polygon fill="#ffffff" stroke="transparent" points="805,-563 805,-621 1013,-621 1013,-563 805,-563"/>
<polygon fill="#f5f5f5" stroke="transparent" points="805,-599 805,-621 1013,-621 1013,-599 805,-599"/>
<polygon fill="none" stroke="black" points="805,-599 805,-621 1013,-621 1013,-599 805,-599"/>
<text text-anchor="start" x="810" y="-608.2" font-family="Helvetica,sans-Serif" font-weight="bold" font-size="11.00">m_product_loan_floating_rates</text>
<text text-anchor="start" x="978" y="-607.2" font-family="Helvetica,sans-Serif" font-size="11.00">[table]</text>
<polygon fill="none" stroke="black" points="805,-581 805,-599 1013,-599 1013,-581 805,-581"/>
<text text-anchor="start" x="808" y="-587.2" font-family="Helvetica,sans-Serif" font-size="11.00">...</text>
<polygon fill="#ffffff" stroke="transparent" points="805,-563 805,-581 894,-581 894,-563 805,-563"/>
<polygon fill="none" stroke="black" points="805,-563 805,-581 894,-581 894,-563 805,-563"/>
<text text-anchor="start" x="808" y="-569.2" font-family="Helvetica,sans-Serif" font-size="11.00">&lt; 2</text>
<polygon fill="#ffffff" stroke="transparent" points="894,-563 894,-581 966,-581 966,-563 894,-563"/>
<polygon fill="none" stroke="black" points="894,-563 894,-581 966,-581 966,-563 894,-563"/>
<text text-anchor="start" x="930" y="-569.2" font-family="Helvetica,sans-Serif" font-size="11.00">0 rows</text>
<polygon fill="#ffffff" stroke="transparent" points="966,-563 966,-581 1013,-581 1013,-563 966,-563"/>
<polygon fill="none" stroke="black" points="966,-563 966,-581 1013,-581 1013,-563 966,-563"/>
<text text-anchor="start" x="1003" y="-569.2" font-family="Helvetica,sans-Serif" font-size="11.00"> &#160;</text>
</a>
</g>
</g>
<!-- m_product_loan_floating_rates&#45;&gt;m_product_loan -->
<g id="edge11" class="edge">
<title>m_product_loan_floating_rates:w&#45;&gt;m_product_loan:e</title>
<path fill="none" stroke="black" d="M789.36,-591.99C762.33,-599.94 756.51,-629 721.5,-629"/>
<polygon fill="black" stroke="black" points="796.07,-591.08 804.48,-593.57 800.04,-590.54 804,-590 804,-590 804,-590 800.04,-590.54 803.52,-586.43 796.07,-591.08 796.07,-591.08"/>
<ellipse fill="none" stroke="black" cx="792.9" cy="-591.51" rx="3.2" ry="3.2"/>
</g>
<!-- m_product_loan_guarantee_details -->
<g id="node11" class="node">
<title>m_product_loan_guarantee_details</title>
<g id="a_node11"><a xlink:href="../../tables/m_product_loan_guarantee_details.html" xlink:title="m_product_loan_guarantee_details" target="_top">
<polygon fill="#ffffff" stroke="transparent" points="794.5,-484 794.5,-542 1023.5,-542 1023.5,-484 794.5,-484"/>
<polygon fill="#f5f5f5" stroke="transparent" points="795,-520 795,-542 1024,-542 1024,-520 795,-520"/>
<polygon fill="none" stroke="black" points="795,-520 795,-542 1024,-542 1024,-520 795,-520"/>
<text text-anchor="start" x="800" y="-529.2" font-family="Helvetica,sans-Serif" font-weight="bold" font-size="11.00">m_product_loan_guarantee_details</text>
<text text-anchor="start" x="989" y="-528.2" font-family="Helvetica,sans-Serif" font-size="11.00">[table]</text>
<polygon fill="none" stroke="black" points="795,-502 795,-520 1024,-520 1024,-502 795,-502"/>
<text text-anchor="start" x="798" y="-508.2" font-family="Helvetica,sans-Serif" font-size="11.00">...</text>
<polygon fill="#ffffff" stroke="transparent" points="795,-484 795,-502 894,-502 894,-484 795,-484"/>
<polygon fill="none" stroke="black" points="795,-484 795,-502 894,-502 894,-484 795,-484"/>
<text text-anchor="start" x="798" y="-490.2" font-family="Helvetica,sans-Serif" font-size="11.00">&lt; 1</text>
<polygon fill="#ffffff" stroke="transparent" points="894,-484 894,-502 972,-502 972,-484 894,-484"/>
<polygon fill="none" stroke="black" points="894,-484 894,-502 972,-502 972,-484 894,-484"/>
<text text-anchor="start" x="936" y="-490.2" font-family="Helvetica,sans-Serif" font-size="11.00">0 rows</text>
<polygon fill="#ffffff" stroke="transparent" points="972,-484 972,-502 1024,-502 1024,-484 972,-484"/>
<polygon fill="none" stroke="black" points="972,-484 972,-502 1024,-502 1024,-484 972,-484"/>
<text text-anchor="start" x="1014" y="-490.2" font-family="Helvetica,sans-Serif" font-size="11.00"> &#160;</text>
</a>
</g>
</g>
<!-- m_product_loan_guarantee_details&#45;&gt;m_product_loan -->
<g id="edge12" class="edge">
<title>m_product_loan_guarantee_details:w&#45;&gt;m_product_loan:e</title>
<path fill="none" stroke="black" d="M779.71,-513.8C740.79,-531.67 777.4,-629 721.5,-629"/>
<polygon fill="black" stroke="black" points="786.15,-512.54 794.69,-514.53 790.07,-511.77 794,-511 794,-511 794,-511 790.07,-511.77 793.31,-507.47 786.15,-512.54 786.15,-512.54"/>
<ellipse fill="none" stroke="black" cx="783.01" cy="-513.15" rx="3.2" ry="3.2"/>
</g>
<!-- m_product_loan_rate -->
<g id="node12" class="node">
<title>m_product_loan_rate</title>
<g id="a_node12"><a xlink:href="../../tables/m_product_loan_rate.html" xlink:title="m_product_loan_rate" target="_top">
<polygon fill="#ffffff" stroke="transparent" points="831,-405 831,-463 987,-463 987,-405 831,-405"/>
<polygon fill="#f5f5f5" stroke="transparent" points="831,-441 831,-463 987,-463 987,-441 831,-441"/>
<polygon fill="none" stroke="black" points="831,-441 831,-463 987,-463 987,-441 831,-441"/>
<text text-anchor="start" x="836" y="-450.2" font-family="Helvetica,sans-Serif" font-weight="bold" font-size="11.00">m_product_loan_rate</text>
<text text-anchor="start" x="952" y="-449.2" font-family="Helvetica,sans-Serif" font-size="11.00">[table]</text>
<polygon fill="none" stroke="black" points="831,-423 831,-441 987,-441 987,-423 831,-423"/>
<text text-anchor="start" x="834" y="-429.2" font-family="Helvetica,sans-Serif" font-size="11.00">...</text>
<polygon fill="#ffffff" stroke="transparent" points="831,-405 831,-423 894,-423 894,-405 831,-405"/>
<polygon fill="none" stroke="black" points="831,-405 831,-423 894,-423 894,-405 831,-405"/>
<text text-anchor="start" x="834" y="-411.2" font-family="Helvetica,sans-Serif" font-size="11.00">&lt; 2</text>
<polygon fill="#ffffff" stroke="transparent" points="894,-405 894,-423 953,-423 953,-405 894,-405"/>
<polygon fill="none" stroke="black" points="894,-405 894,-423 953,-423 953,-405 894,-405"/>
<text text-anchor="start" x="917" y="-411.2" font-family="Helvetica,sans-Serif" font-size="11.00">0 rows</text>
<polygon fill="#ffffff" stroke="transparent" points="953,-405 953,-423 987,-423 987,-405 953,-405"/>
<polygon fill="none" stroke="black" points="953,-405 953,-423 987,-423 987,-405 953,-405"/>
<text text-anchor="start" x="977" y="-411.2" font-family="Helvetica,sans-Serif" font-size="11.00"> &#160;</text>
</a>
</g>
</g>
<!-- m_product_loan_rate&#45;&gt;m_product_loan -->
<g id="edge13" class="edge">
<title>m_product_loan_rate:w&#45;&gt;m_product_loan:e</title>
<path fill="none" stroke="black" d="M815.5,-432.88C790.4,-436.25 779.18,-449.42 761,-474 718.73,-531.16 792.59,-629 721.5,-629"/>
<polygon fill="black" stroke="black" points="822.01,-432.48 830.22,-435.59 826.01,-432.24 830,-432 830,-432 830,-432 826.01,-432.24 829.78,-428.41 822.01,-432.48 822.01,-432.48"/>
<ellipse fill="none" stroke="black" cx="818.82" cy="-432.68" rx="3.2" ry="3.2"/>
</g>
<!-- m_product_loan_recalculation_details -->
<g id="node13" class="node">
<title>m_product_loan_recalculation_details</title>
<g id="a_node13"><a xlink:href="../../tables/m_product_loan_recalculation_details.html" xlink:title="m_product_loan_recalculation_details" target="_top">
<polygon fill="#ffffff" stroke="transparent" points="787,-326 787,-384 1031,-384 1031,-326 787,-326"/>
<polygon fill="#f5f5f5" stroke="transparent" points="787,-362 787,-384 1031,-384 1031,-362 787,-362"/>
<polygon fill="none" stroke="black" points="787,-362 787,-384 1031,-384 1031,-362 787,-362"/>
<text text-anchor="start" x="792" y="-371.2" font-family="Helvetica,sans-Serif" font-weight="bold" font-size="11.00">m_product_loan_recalculation_details</text>
<text text-anchor="start" x="996" y="-370.2" font-family="Helvetica,sans-Serif" font-size="11.00">[table]</text>
<polygon fill="none" stroke="black" points="787,-344 787,-362 1031,-362 1031,-344 787,-344"/>
<text text-anchor="start" x="790" y="-350.2" font-family="Helvetica,sans-Serif" font-size="11.00">...</text>
<polygon fill="#ffffff" stroke="transparent" points="787,-326 787,-344 894,-344 894,-326 787,-326"/>
<polygon fill="none" stroke="black" points="787,-326 787,-344 894,-344 894,-326 787,-326"/>
<text text-anchor="start" x="790" y="-332.2" font-family="Helvetica,sans-Serif" font-size="11.00">&lt; 1</text>
<polygon fill="#ffffff" stroke="transparent" points="894,-326 894,-344 975,-344 975,-326 894,-326"/>
<polygon fill="none" stroke="black" points="894,-326 894,-344 975,-344 975,-326 894,-326"/>
<text text-anchor="start" x="939" y="-332.2" font-family="Helvetica,sans-Serif" font-size="11.00">0 rows</text>
<polygon fill="#ffffff" stroke="transparent" points="975,-326 975,-344 1031,-344 1031,-326 975,-326"/>
<polygon fill="none" stroke="black" points="975,-326 975,-344 1031,-344 1031,-326 975,-326"/>
<text text-anchor="start" x="1021" y="-332.2" font-family="Helvetica,sans-Serif" font-size="11.00"> &#160;</text>
</a>
</g>
</g>
<!-- m_product_loan_recalculation_details&#45;&gt;m_product_loan -->
<g id="edge14" class="edge">
<title>m_product_loan_recalculation_details:w&#45;&gt;m_product_loan:e</title>
<path fill="none" stroke="black" d="M772.62,-358.51C732.46,-397.41 779.2,-629 721.5,-629"/>
<polygon fill="black" stroke="black" points="778.6,-356.05 787.37,-356.33 782.3,-354.52 786,-353 786,-353 786,-353 782.3,-354.52 784.63,-349.67 778.6,-356.05 778.6,-356.05"/>
<ellipse fill="none" stroke="black" cx="775.64" cy="-357.27" rx="3.2" ry="3.2"/>
</g>
<!-- m_product_loan_variable_installment_config -->
<g id="node14" class="node">
<title>m_product_loan_variable_installment_config</title>
<g id="a_node14"><a xlink:href="../../tables/m_product_loan_variable_installment_config.html" xlink:title="m_product_loan_variable_installment_config" target="_top">
<polygon fill="#ffffff" stroke="transparent" points="769,-247 769,-305 1049,-305 1049,-247 769,-247"/>
<polygon fill="#f5f5f5" stroke="transparent" points="769,-283 769,-305 1049,-305 1049,-283 769,-283"/>
<polygon fill="none" stroke="black" points="769,-283 769,-305 1049,-305 1049,-283 769,-283"/>
<text text-anchor="start" x="774" y="-292.2" font-family="Helvetica,sans-Serif" font-weight="bold" font-size="11.00">m_product_loan_variable_installment_config</text>
<text text-anchor="start" x="1014" y="-291.2" font-family="Helvetica,sans-Serif" font-size="11.00">[table]</text>
<polygon fill="none" stroke="black" points="769,-265 769,-283 1049,-283 1049,-265 769,-265"/>
<text text-anchor="start" x="772" y="-271.2" font-family="Helvetica,sans-Serif" font-size="11.00">...</text>
<polygon fill="#ffffff" stroke="transparent" points="769,-247 769,-265 894,-265 894,-247 769,-247"/>
<polygon fill="none" stroke="black" points="769,-247 769,-265 894,-265 894,-247 769,-247"/>
<text text-anchor="start" x="772" y="-253.2" font-family="Helvetica,sans-Serif" font-size="11.00">&lt; 1</text>
<polygon fill="#ffffff" stroke="transparent" points="894,-247 894,-265 984,-265 984,-247 894,-247"/>
<polygon fill="none" stroke="black" points="894,-247 894,-265 984,-265 984,-247 894,-247"/>
<text text-anchor="start" x="948" y="-253.2" font-family="Helvetica,sans-Serif" font-size="11.00">0 rows</text>
<polygon fill="#ffffff" stroke="transparent" points="984,-247 984,-265 1049,-265 1049,-247 984,-247"/>
<polygon fill="none" stroke="black" points="984,-247 984,-265 1049,-265 1049,-247 984,-247"/>
<text text-anchor="start" x="1039" y="-253.2" font-family="Helvetica,sans-Serif" font-size="11.00"> &#160;</text>
</a>
</g>
</g>
<!-- m_product_loan_variable_installment_config&#45;&gt;m_product_loan -->
<g id="edge15" class="edge">
<title>m_product_loan_variable_installment_config:w&#45;&gt;m_product_loan:e</title>
<path fill="none" stroke="black" d="M754.25,-278.75C702.94,-320.88 795.62,-629 721.5,-629"/>
<polygon fill="black" stroke="black" points="760.44,-276.61 769.18,-277.4 764.22,-275.31 768,-274 768,-274 768,-274 764.22,-275.31 766.82,-270.6 760.44,-276.61 760.44,-276.61"/>
<ellipse fill="none" stroke="black" cx="757.41" cy="-277.66" rx="3.2" ry="3.2"/>
</g>
<!-- m_product_loan_variations_borrower_cycle -->
<g id="node15" class="node">
<title>m_product_loan_variations_borrower_cycle</title>
<g id="a_node15"><a xlink:href="../../tables/m_product_loan_variations_borrower_cycle.html" xlink:title="m_product_loan_variations_borrower_cycle" target="_top">
<polygon fill="#ffffff" stroke="transparent" points="771.5,-168 771.5,-226 1046.5,-226 1046.5,-168 771.5,-168"/>
<polygon fill="#f5f5f5" stroke="transparent" points="772,-204 772,-226 1047,-226 1047,-204 772,-204"/>
<polygon fill="none" stroke="black" points="772,-204 772,-226 1047,-226 1047,-204 772,-204"/>
<text text-anchor="start" x="777" y="-213.2" font-family="Helvetica,sans-Serif" font-weight="bold" font-size="11.00">m_product_loan_variations_borrower_cycle</text>
<text text-anchor="start" x="1012" y="-212.2" font-family="Helvetica,sans-Serif" font-size="11.00">[table]</text>
<polygon fill="none" stroke="black" points="772,-186 772,-204 1047,-204 1047,-186 772,-186"/>
<text text-anchor="start" x="775" y="-192.2" font-family="Helvetica,sans-Serif" font-size="11.00">...</text>
<polygon fill="#ffffff" stroke="transparent" points="772,-168 772,-186 894,-186 894,-168 772,-168"/>
<polygon fill="none" stroke="black" points="772,-168 772,-186 894,-186 894,-168 772,-168"/>
<text text-anchor="start" x="775" y="-174.2" font-family="Helvetica,sans-Serif" font-size="11.00">&lt; 1</text>
<polygon fill="#ffffff" stroke="transparent" points="894,-168 894,-186 983,-186 983,-168 894,-168"/>
<polygon fill="none" stroke="black" points="894,-168 894,-186 983,-186 983,-168 894,-168"/>
<text text-anchor="start" x="947" y="-174.2" font-family="Helvetica,sans-Serif" font-size="11.00">0 rows</text>
<polygon fill="#ffffff" stroke="transparent" points="983,-168 983,-186 1047,-186 1047,-168 983,-168"/>
<polygon fill="none" stroke="black" points="983,-168 983,-186 1047,-186 1047,-168 983,-168"/>
<text text-anchor="start" x="1037" y="-174.2" font-family="Helvetica,sans-Serif" font-size="11.00"> &#160;</text>
</a>
</g>
</g>
<!-- m_product_loan_variations_borrower_cycle&#45;&gt;m_product_loan -->
<g id="edge16" class="edge">
<title>m_product_loan_variations_borrower_cycle:w&#45;&gt;m_product_loan:e</title>
<path fill="none" stroke="black" d="M756.74,-199.02C689.54,-242.77 813.07,-629 721.5,-629"/>
<polygon fill="black" stroke="black" points="763.3,-197.17 771.98,-198.46 767.15,-196.09 771,-195 771,-195 771,-195 767.15,-196.09 770.02,-191.54 763.3,-197.17 763.3,-197.17"/>
<ellipse fill="none" stroke="black" cx="760.22" cy="-198.04" rx="3.2" ry="3.2"/>
</g>
<!-- m_product_mix -->
<g id="node16" class="node">
<title>m_product_mix</title>
<g id="a_node16"><a xlink:href="../../tables/m_product_mix.html" xlink:title="m_product_mix" target="_top">
<polygon fill="#ffffff" stroke="transparent" points="800,-37 800,-147 1018,-147 1018,-37 800,-37"/>
<polygon fill="#f5f5f5" stroke="transparent" points="802,-123 802,-145 1016,-145 1016,-123 802,-123"/>
<polygon fill="none" stroke="black" points="802,-123 802,-145 1016,-145 1016,-123 802,-123"/>
<text text-anchor="start" x="807" y="-132.2" font-family="Helvetica,sans-Serif" font-weight="bold" font-size="11.00">m_product_mix</text>
<text text-anchor="start" x="981" y="-131.2" font-family="Helvetica,sans-Serif" font-size="11.00">[table]</text>
<polygon fill="none" stroke="black" points="802,-101 802,-123 966,-123 966,-101 802,-101"/>
<image xlink:href="../../images/primaryKeys.png" width="11px" height="12px" preserveAspectRatio="xMinYMin meet" x="807" y="-118"/>
<text text-anchor="start" x="822" y="-109.2" font-family="Helvetica,sans-Serif" font-size="11.00">id</text>
<polygon fill="none" stroke="black" points="966,-101 966,-123 1016,-123 1016,-101 966,-101"/>
<text text-anchor="start" x="969" y="-109.2" font-family="Helvetica,sans-Serif" font-size="11.00">bigint[19]</text>
<polygon fill="#ffffff" stroke="transparent" points="802,-79 802,-101 966,-101 966,-79 802,-79"/>
<polygon fill="none" stroke="black" points="802,-79 802,-101 966,-101 966,-79 802,-79"/>
<image xlink:href="../../images/foreignKeys.png" width="11px" height="12px" preserveAspectRatio="xMinYMin meet" x="807" y="-96"/>
<text text-anchor="start" x="822" y="-87.2" font-family="Helvetica,sans-Serif" font-size="11.00">product_id</text>
<polygon fill="none" stroke="black" points="966,-79 966,-101 1016,-101 1016,-79 966,-79"/>
<text text-anchor="start" x="969" y="-87.2" font-family="Helvetica,sans-Serif" font-size="11.00">bigint[19]</text>
<polygon fill="#ffffff" stroke="transparent" points="802,-57 802,-79 966,-79 966,-57 802,-57"/>
<polygon fill="none" stroke="black" points="802,-57 802,-79 966,-79 966,-57 802,-57"/>
<image xlink:href="../../images/foreignKeys.png" width="11px" height="12px" preserveAspectRatio="xMinYMin meet" x="807" y="-74"/>
<text text-anchor="start" x="822" y="-65.2" font-family="Helvetica,sans-Serif" font-size="11.00">restricted_product_id</text>
<polygon fill="none" stroke="black" points="966,-57 966,-79 1016,-79 1016,-57 966,-57"/>
<text text-anchor="start" x="969" y="-65.2" font-family="Helvetica,sans-Serif" font-size="11.00">bigint[19]</text>
<polygon fill="#ffffff" stroke="transparent" points="802,-39 802,-57 875,-57 875,-39 802,-39"/>
<polygon fill="none" stroke="black" points="802,-39 802,-57 875,-57 875,-39 802,-39"/>
<text text-anchor="start" x="805" y="-45.2" font-family="Helvetica,sans-Serif" font-size="11.00">&lt; 2</text>
<polygon fill="#ffffff" stroke="transparent" points="875,-39 875,-57 966,-57 966,-39 875,-39"/>
<polygon fill="none" stroke="black" points="875,-39 875,-57 966,-57 966,-39 875,-39"/>
<text text-anchor="start" x="930" y="-45.2" font-family="Helvetica,sans-Serif" font-size="11.00">0 rows</text>
<polygon fill="#ffffff" stroke="transparent" points="966,-39 966,-57 1016,-57 1016,-39 966,-39"/>
<polygon fill="none" stroke="black" points="966,-39 966,-57 1016,-57 1016,-39 966,-39"/>
<text text-anchor="start" x="997" y="-45.2" font-family="Helvetica,sans-Serif" font-size="11.00">0 &gt;</text>
<polygon fill="none" stroke="black" stroke-width="2" points="801,-38 801,-146 1017,-146 1017,-38 801,-38"/>
</a>
</g>
</g>
<!-- m_product_mix&#45;&gt;m_product_loan -->
<g id="edge17" class="edge">
<title>m_product_mix:w&#45;&gt;m_product_loan:e</title>
<path fill="none" stroke="black" d="M786.78,-92.63C767.36,-101.32 769.88,-130.07 761,-158 745.09,-208.05 774.02,-629 721.5,-629"/>
<polygon fill="black" stroke="black" points="793.13,-91.46 801.66,-93.54 797.07,-90.73 801,-90 801,-90 801,-90 797.07,-90.73 800.34,-86.46 793.13,-91.46 793.13,-91.46"/>
<ellipse fill="none" stroke="black" cx="789.99" cy="-92.04" rx="3.2" ry="3.2"/>
</g>
<!-- m_product_mix&#45;&gt;m_product_loan -->
<g id="edge18" class="edge">
<title>m_product_mix:w&#45;&gt;m_product_loan:e</title>
<path fill="none" stroke="black" d="M786.45,-70.4C760.67,-80.55 770.43,-121.23 761,-158 747.96,-208.87 774.02,-629 721.5,-629"/>
<polygon fill="black" stroke="black" points="793.11,-69.3 801.58,-71.55 797.05,-68.65 801,-68 801,-68 801,-68 797.05,-68.65 800.42,-64.45 793.11,-69.3 793.11,-69.3"/>
<ellipse fill="none" stroke="black" cx="789.95" cy="-69.82" rx="3.2" ry="3.2"/>
</g>
</g>
</svg>
