<?xml version="1.0" encoding="UTF-8" standalone="no"?>
<!DOCTYPE svg PUBLIC "-//W3C//DTD SVG 1.1//EN"
 "http://www.w3.org/Graphics/SVG/1.1/DTD/svg11.dtd">
<!-- Generated by graphviz version 2.43.0 (0)
 -->
<!-- Title: twoDegreesRelationshipsDiagram Pages: 1 -->
<svg width="1131pt" height="1261pt"
 viewBox="0.00 0.00 1131.00 1261.00" xmlns="http://www.w3.org/2000/svg" xmlns:xlink="http://www.w3.org/1999/xlink">
<g id="graph0" class="graph" transform="scale(1 1) rotate(0) translate(4 1257)">
<title>twoDegreesRelationshipsDiagram</title>
<polygon fill="#ffffff" stroke="transparent" points="-4,4 -4,-1257 1127,-1257 1127,4 -4,4"/>
<text text-anchor="middle" x="71.5" y="-7.2" font-family="Helvetica,sans-Serif" font-size="11.00">Generated by SchemaSpy</text>
<!-- m_creditbureau_loanproduct_mapping -->
<g id="node1" class="node">
<title>m_creditbureau_loanproduct_mapping</title>
<g id="a_node1"><a xlink:href="../../tables/m_creditbureau_loanproduct_mapping.html" xlink:title="m_creditbureau_loanproduct_mapping" target="_top">
<polygon fill="#ffffff" stroke="transparent" points="817.5,-1112 817.5,-1170 1066.5,-1170 1066.5,-1112 817.5,-1112"/>
<polygon fill="#f5f5f5" stroke="transparent" points="818,-1148 818,-1170 1067,-1170 1067,-1148 818,-1148"/>
<polygon fill="none" stroke="black" points="818,-1148 818,-1170 1067,-1170 1067,-1148 818,-1148"/>
<text text-anchor="start" x="823" y="-1157.2" font-family="Helvetica,sans-Serif" font-weight="bold" font-size="11.00">m_creditbureau_loanproduct_mapping</text>
<text text-anchor="start" x="1032" y="-1156.2" font-family="Helvetica,sans-Serif" font-size="11.00">[table]</text>
<polygon fill="none" stroke="black" points="818,-1130 818,-1148 1067,-1148 1067,-1130 818,-1130"/>
<text text-anchor="start" x="821" y="-1136.2" font-family="Helvetica,sans-Serif" font-size="11.00">...</text>
<polygon fill="#ffffff" stroke="transparent" points="818,-1112 818,-1130 927,-1130 927,-1112 818,-1112"/>
<polygon fill="none" stroke="black" points="818,-1112 818,-1130 927,-1130 927,-1112 818,-1112"/>
<text text-anchor="start" x="821" y="-1118.2" font-family="Helvetica,sans-Serif" font-size="11.00">&lt; 2</text>
<polygon fill="#ffffff" stroke="transparent" points="927,-1112 927,-1130 1010,-1130 1010,-1112 927,-1112"/>
<polygon fill="none" stroke="black" points="927,-1112 927,-1130 1010,-1130 1010,-1112 927,-1112"/>
<text text-anchor="start" x="974" y="-1118.2" font-family="Helvetica,sans-Serif" font-size="11.00">0 rows</text>
<polygon fill="#ffffff" stroke="transparent" points="1010,-1112 1010,-1130 1067,-1130 1067,-1112 1010,-1112"/>
<polygon fill="none" stroke="black" points="1010,-1112 1010,-1130 1067,-1130 1067,-1112 1010,-1112"/>
<text text-anchor="start" x="1057" y="-1118.2" font-family="Helvetica,sans-Serif" font-size="11.00"> &#160;</text>
</a>
</g>
</g>
<!-- m_product_loan -->
<g id="node2" class="node">
<title>m_product_loan</title>
<g id="a_node2"><a xlink:href="../../tables/m_product_loan.html" xlink:title="m_product_loan" target="_top">
<polygon fill="#ffffff" stroke="transparent" points="323,-510 323,-700 720,-700 720,-510 323,-510"/>
<polygon fill="#f5f5f5" stroke="transparent" points="323.5,-678 323.5,-700 720.5,-700 720.5,-678 323.5,-678"/>
<polygon fill="none" stroke="black" points="323.5,-678 323.5,-700 720.5,-700 720.5,-678 323.5,-678"/>
<text text-anchor="start" x="328.5" y="-687.2" font-family="Helvetica,sans-Serif" font-weight="bold" font-size="11.00">m_product_loan</text>
<text text-anchor="start" x="685.5" y="-686.2" font-family="Helvetica,sans-Serif" font-size="11.00">[table]</text>
<polygon fill="none" stroke="black" points="323.5,-656 323.5,-678 720.5,-678 720.5,-656 323.5,-656"/>
<image xlink:href="../../images/primaryKeys.png" width="11px" height="12px" preserveAspectRatio="xMinYMin meet" x="328.5" y="-673"/>
<text text-anchor="start" x="343.5" y="-664.2" font-family="Helvetica,sans-Serif" font-size="11.00">id</text>
<polygon fill="#ffffff" stroke="transparent" points="323.5,-634 323.5,-656 720.5,-656 720.5,-634 323.5,-634"/>
<polygon fill="none" stroke="black" points="323.5,-634 323.5,-656 720.5,-656 720.5,-634 323.5,-634"/>
<text text-anchor="start" x="343.5" y="-642.2" font-family="Helvetica,sans-Serif" font-size="11.00">short_name</text>
<polygon fill="#ffffff" stroke="transparent" points="323.5,-612 323.5,-634 720.5,-634 720.5,-612 323.5,-612"/>
<polygon fill="none" stroke="black" points="323.5,-612 323.5,-634 720.5,-634 720.5,-612 323.5,-612"/>
<text text-anchor="start" x="343.5" y="-620.2" font-family="Helvetica,sans-Serif" font-size="11.00">name</text>
<polygon fill="#ffffff" stroke="transparent" points="323.5,-590 323.5,-612 720.5,-612 720.5,-590 323.5,-590"/>
<polygon fill="none" stroke="black" points="323.5,-590 323.5,-612 720.5,-612 720.5,-590 323.5,-590"/>
<image xlink:href="../../images/foreignKeys.png" width="11px" height="12px" preserveAspectRatio="xMinYMin meet" x="328.5" y="-607"/>
<text text-anchor="start" x="343.5" y="-598.2" font-family="Helvetica,sans-Serif" font-size="11.00">fund_id</text>
<polygon fill="#ffffff" stroke="transparent" points="323.5,-568 323.5,-590 720.5,-590 720.5,-568 323.5,-568"/>
<polygon fill="none" stroke="black" points="323.5,-568 323.5,-590 720.5,-590 720.5,-568 323.5,-568"/>
<image xlink:href="../../images/foreignKeys.png" width="11px" height="12px" preserveAspectRatio="xMinYMin meet" x="328.5" y="-585"/>
<text text-anchor="start" x="343.5" y="-576.2" font-family="Helvetica,sans-Serif" font-size="11.00">loan_transaction_strategy_id</text>
<polygon fill="#ffffff" stroke="transparent" points="323.5,-546 323.5,-568 720.5,-568 720.5,-546 323.5,-546"/>
<polygon fill="none" stroke="black" points="323.5,-546 323.5,-568 720.5,-568 720.5,-546 323.5,-546"/>
<text text-anchor="start" x="343.5" y="-554.2" font-family="Helvetica,sans-Serif" font-size="11.00">external_id</text>
<polygon fill="none" stroke="black" points="323.5,-528 323.5,-546 720.5,-546 720.5,-528 323.5,-528"/>
<text text-anchor="start" x="326.5" y="-534.2" font-family="Helvetica,sans-Serif" font-size="11.00">...</text>
<polygon fill="#ffffff" stroke="transparent" points="323.5,-510 323.5,-528 499.5,-528 499.5,-510 323.5,-510"/>
<polygon fill="none" stroke="black" points="323.5,-510 323.5,-528 499.5,-528 499.5,-510 323.5,-510"/>
<text text-anchor="start" x="326.5" y="-516.2" font-family="Helvetica,sans-Serif" font-size="11.00">&lt; 2</text>
<polygon fill="#ffffff" stroke="transparent" points="499.5,-510 499.5,-528 615.5,-528 615.5,-510 499.5,-510"/>
<polygon fill="none" stroke="black" points="499.5,-510 499.5,-528 615.5,-528 615.5,-510 499.5,-510"/>
<text text-anchor="start" x="579.5" y="-516.2" font-family="Helvetica,sans-Serif" font-size="11.00">0 rows</text>
<polygon fill="#ffffff" stroke="transparent" points="615.5,-510 615.5,-528 720.5,-528 720.5,-510 615.5,-510"/>
<polygon fill="none" stroke="black" points="615.5,-510 615.5,-528 720.5,-528 720.5,-510 615.5,-510"/>
<text text-anchor="start" x="695.5" y="-516.2" font-family="Helvetica,sans-Serif" font-size="11.00">14 &gt;</text>
</a>
</g>
</g>
<!-- m_creditbureau_loanproduct_mapping&#45;&gt;m_product_loan -->
<g id="edge1" class="edge">
<title>m_creditbureau_loanproduct_mapping:w&#45;&gt;m_product_loan:e</title>
<path fill="none" stroke="black" d="M802.62,-1137.88C783.12,-1134.45 773.55,-1123 761,-1102 736.1,-1060.34 770.03,-667 721.5,-667"/>
<polygon fill="black" stroke="black" points="809.02,-1138.38 816.72,-1142.59 813.01,-1138.69 817,-1139 817,-1139 817,-1139 813.01,-1138.69 817.28,-1135.41 809.02,-1138.38 809.02,-1138.38"/>
<ellipse fill="none" stroke="black" cx="805.83" cy="-1138.13" rx="3.2" ry="3.2"/>
</g>
<!-- m_fund -->
<g id="node4" class="node">
<title>m_fund</title>
<g id="a_node4"><a xlink:href="../../tables/m_fund.html" xlink:title="m_fund" target="_top">
<polygon fill="#ffffff" stroke="transparent" points="99,-963 99,-1021 183,-1021 183,-963 99,-963"/>
<polygon fill="#f5f5f5" stroke="transparent" points="99,-999 99,-1021 183,-1021 183,-999 99,-999"/>
<polygon fill="none" stroke="black" points="99,-999 99,-1021 183,-1021 183,-999 99,-999"/>
<text text-anchor="start" x="104" y="-1008.2" font-family="Helvetica,sans-Serif" font-weight="bold" font-size="11.00">m_fund</text>
<text text-anchor="start" x="148" y="-1007.2" font-family="Helvetica,sans-Serif" font-size="11.00">[table]</text>
<polygon fill="none" stroke="black" points="99,-981 99,-999 183,-999 183,-981 99,-981"/>
<text text-anchor="start" x="102" y="-987.2" font-family="Helvetica,sans-Serif" font-size="11.00">...</text>
<polygon fill="#ffffff" stroke="transparent" points="99,-963 99,-981 117,-981 117,-963 99,-963"/>
<polygon fill="none" stroke="black" points="99,-963 99,-981 117,-981 117,-963 99,-963"/>
<text text-anchor="start" x="102" y="-969.2" font-family="Helvetica,sans-Serif" font-size="11.00"> &#160;</text>
<polygon fill="#ffffff" stroke="transparent" points="117,-963 117,-981 158,-981 158,-963 117,-963"/>
<polygon fill="none" stroke="black" points="117,-963 117,-981 158,-981 158,-963 117,-963"/>
<text text-anchor="start" x="122" y="-969.2" font-family="Helvetica,sans-Serif" font-size="11.00">0 rows</text>
<polygon fill="#ffffff" stroke="transparent" points="158,-963 158,-981 183,-981 183,-963 158,-963"/>
<polygon fill="none" stroke="black" points="158,-963 158,-981 183,-981 183,-963 158,-963"/>
<text text-anchor="start" x="164" y="-969.2" font-family="Helvetica,sans-Serif" font-size="11.00">2 &gt;</text>
</a>
</g>
</g>
<!-- m_product_loan&#45;&gt;m_fund -->
<g id="edge7" class="edge">
<title>m_product_loan:w&#45;&gt;m_fund:e</title>
<path fill="none" stroke="black" d="M308.15,-602.79C268.45,-614.34 300.01,-679.67 282,-732 242.09,-847.98 306.66,-990 184,-990"/>
<polygon fill="black" stroke="black" points="314.56,-601.99 322.94,-604.57 318.53,-601.49 322.5,-601 322.5,-601 322.5,-601 318.53,-601.49 322.06,-597.43 314.56,-601.99 314.56,-601.99"/>
<ellipse fill="none" stroke="black" cx="311.39" cy="-602.38" rx="3.2" ry="3.2"/>
</g>
<!-- ref_loan_transaction_processing_strategy -->
<g id="node5" class="node">
<title>ref_loan_transaction_processing_strategy</title>
<g id="a_node5"><a xlink:href="../../tables/ref_loan_transaction_processing_strategy.html" xlink:title="ref_loan_transaction_processing_strategy" target="_top">
<polygon fill="#ffffff" stroke="transparent" points="8,-663 8,-721 274,-721 274,-663 8,-663"/>
<polygon fill="#f5f5f5" stroke="transparent" points="8,-699 8,-721 274,-721 274,-699 8,-699"/>
<polygon fill="none" stroke="black" points="8,-699 8,-721 274,-721 274,-699 8,-699"/>
<text text-anchor="start" x="13" y="-708.2" font-family="Helvetica,sans-Serif" font-weight="bold" font-size="11.00">ref_loan_transaction_processing_strategy</text>
<text text-anchor="start" x="239" y="-707.2" font-family="Helvetica,sans-Serif" font-size="11.00">[table]</text>
<polygon fill="none" stroke="black" points="8,-681 8,-699 274,-699 274,-681 8,-681"/>
<text text-anchor="start" x="11" y="-687.2" font-family="Helvetica,sans-Serif" font-size="11.00">...</text>
<polygon fill="#ffffff" stroke="transparent" points="8,-663 8,-681 117,-681 117,-663 8,-663"/>
<polygon fill="none" stroke="black" points="8,-663 8,-681 117,-681 117,-663 8,-663"/>
<text text-anchor="start" x="11" y="-669.2" font-family="Helvetica,sans-Serif" font-size="11.00"> &#160;</text>
<polygon fill="#ffffff" stroke="transparent" points="117,-663 117,-681 204,-681 204,-663 117,-663"/>
<polygon fill="none" stroke="black" points="117,-663 117,-681 204,-681 204,-663 117,-663"/>
<text text-anchor="start" x="168" y="-669.2" font-family="Helvetica,sans-Serif" font-size="11.00">0 rows</text>
<polygon fill="#ffffff" stroke="transparent" points="204,-663 204,-681 274,-681 274,-663 204,-663"/>
<polygon fill="none" stroke="black" points="204,-663 204,-681 274,-681 274,-663 204,-663"/>
<text text-anchor="start" x="255" y="-669.2" font-family="Helvetica,sans-Serif" font-size="11.00">2 &gt;</text>
</a>
</g>
</g>
<!-- m_product_loan&#45;&gt;ref_loan_transaction_processing_strategy -->
<g id="edge8" class="edge">
<title>m_product_loan:w&#45;&gt;ref_loan_transaction_processing_strategy:e</title>
<path fill="none" stroke="black" d="M308.3,-582.95C280.94,-602.72 322.58,-690 275,-690"/>
<polygon fill="black" stroke="black" points="314.79,-581.14 323.47,-582.47 318.65,-580.07 322.5,-579 322.5,-579 322.5,-579 318.65,-580.07 321.53,-575.53 314.79,-581.14 314.79,-581.14"/>
<ellipse fill="none" stroke="black" cx="311.71" cy="-582" rx="3.2" ry="3.2"/>
</g>
<!-- m_loan -->
<g id="node3" class="node">
<title>m_loan</title>
<g id="a_node3"><a xlink:href="../../tables/m_loan.html" xlink:title="m_loan" target="_top">
<polygon fill="#ffffff" stroke="transparent" points="894.5,-1191 894.5,-1249 989.5,-1249 989.5,-1191 894.5,-1191"/>
<polygon fill="#f5f5f5" stroke="transparent" points="895,-1227 895,-1249 990,-1249 990,-1227 895,-1227"/>
<polygon fill="none" stroke="black" points="895,-1227 895,-1249 990,-1249 990,-1227 895,-1227"/>
<text text-anchor="start" x="900" y="-1236.2" font-family="Helvetica,sans-Serif" font-weight="bold" font-size="11.00">m_loan</text>
<text text-anchor="start" x="955" y="-1235.2" font-family="Helvetica,sans-Serif" font-size="11.00">[table]</text>
<polygon fill="none" stroke="black" points="895,-1209 895,-1227 990,-1227 990,-1209 895,-1209"/>
<text text-anchor="start" x="898" y="-1215.2" font-family="Helvetica,sans-Serif" font-size="11.00">...</text>
<polygon fill="#ffffff" stroke="transparent" points="895,-1191 895,-1209 923,-1209 923,-1191 895,-1191"/>
<polygon fill="none" stroke="black" points="895,-1191 895,-1209 923,-1209 923,-1191 895,-1191"/>
<text text-anchor="start" x="898" y="-1197.2" font-family="Helvetica,sans-Serif" font-size="11.00">&lt; 15</text>
<polygon fill="#ffffff" stroke="transparent" points="923,-1191 923,-1209 962,-1209 962,-1191 923,-1191"/>
<polygon fill="none" stroke="black" points="923,-1191 923,-1209 962,-1209 962,-1191 923,-1191"/>
<text text-anchor="start" x="926" y="-1197.2" font-family="Helvetica,sans-Serif" font-size="11.00">0 rows</text>
<polygon fill="#ffffff" stroke="transparent" points="962,-1191 962,-1209 990,-1209 990,-1191 962,-1191"/>
<polygon fill="none" stroke="black" points="962,-1191 962,-1209 990,-1209 990,-1191 962,-1191"/>
<text text-anchor="start" x="965" y="-1197.2" font-family="Helvetica,sans-Serif" font-size="11.00">24 &gt;</text>
</a>
</g>
</g>
<!-- m_loan&#45;&gt;m_product_loan -->
<g id="edge4" class="edge">
<title>m_loan:w&#45;&gt;m_product_loan:e</title>
<path fill="none" stroke="black" d="M879.46,-1218.17C827.24,-1219.32 796.77,-1224.51 761,-1181 724.62,-1136.75 778.78,-667 721.5,-667"/>
<polygon fill="black" stroke="black" points="886,-1218.09 894.04,-1221.6 890,-1218.05 894,-1218 894,-1218 894,-1218 890,-1218.05 893.96,-1214.4 886,-1218.09 886,-1218.09"/>
<ellipse fill="none" stroke="black" cx="882.8" cy="-1218.13" rx="3.2" ry="3.2"/>
</g>
<!-- m_loan&#45;&gt;m_fund -->
<g id="edge2" class="edge">
<title>m_loan:w&#45;&gt;m_fund:e</title>
<path fill="none" stroke="black" d="M879.14,-1217.84C561.08,-1211.15 510.41,-990 184,-990"/>
<polygon fill="black" stroke="black" points="886,-1217.92 893.96,-1221.6 890,-1217.96 894,-1218 894,-1218 894,-1218 890,-1217.96 894.04,-1214.4 886,-1217.92 886,-1217.92"/>
<ellipse fill="none" stroke="black" cx="882.8" cy="-1217.88" rx="3.2" ry="3.2"/>
</g>
<!-- m_loan&#45;&gt;ref_loan_transaction_processing_strategy -->
<g id="edge3" class="edge">
<title>m_loan:w&#45;&gt;ref_loan_transaction_processing_strategy:e</title>
<path fill="none" stroke="black" d="M879.51,-1218.13C827.61,-1219 799.01,-1222.56 761,-1181 706.4,-1121.31 771.99,-1069.89 728,-1002 719.69,-989.18 290.28,-690 275,-690"/>
<polygon fill="black" stroke="black" points="886,-1218.07 894.03,-1221.6 890,-1218.04 894,-1218 894,-1218 894,-1218 890,-1218.04 893.97,-1214.4 886,-1218.07 886,-1218.07"/>
<ellipse fill="none" stroke="black" cx="882.8" cy="-1218.1" rx="3.2" ry="3.2"/>
</g>
<!-- m_loanproduct_provisioning_entry -->
<g id="node6" class="node">
<title>m_loanproduct_provisioning_entry</title>
<g id="a_node6"><a xlink:href="../../tables/m_loanproduct_provisioning_entry.html" xlink:title="m_loanproduct_provisioning_entry" target="_top">
<polygon fill="#ffffff" stroke="transparent" points="827.5,-1033 827.5,-1091 1056.5,-1091 1056.5,-1033 827.5,-1033"/>
<polygon fill="#f5f5f5" stroke="transparent" points="828,-1069 828,-1091 1057,-1091 1057,-1069 828,-1069"/>
<polygon fill="none" stroke="black" points="828,-1069 828,-1091 1057,-1091 1057,-1069 828,-1069"/>
<text text-anchor="start" x="833" y="-1078.2" font-family="Helvetica,sans-Serif" font-weight="bold" font-size="11.00">m_loanproduct_provisioning_entry</text>
<text text-anchor="start" x="1022" y="-1077.2" font-family="Helvetica,sans-Serif" font-size="11.00">[table]</text>
<polygon fill="none" stroke="black" points="828,-1051 828,-1069 1057,-1069 1057,-1051 828,-1051"/>
<text text-anchor="start" x="831" y="-1057.2" font-family="Helvetica,sans-Serif" font-size="11.00">...</text>
<polygon fill="#ffffff" stroke="transparent" points="828,-1033 828,-1051 927,-1051 927,-1033 828,-1033"/>
<polygon fill="none" stroke="black" points="828,-1033 828,-1051 927,-1051 927,-1033 828,-1033"/>
<text text-anchor="start" x="831" y="-1039.2" font-family="Helvetica,sans-Serif" font-size="11.00">&lt; 7</text>
<polygon fill="#ffffff" stroke="transparent" points="927,-1033 927,-1051 1005,-1051 1005,-1033 927,-1033"/>
<polygon fill="none" stroke="black" points="927,-1033 927,-1051 1005,-1051 1005,-1033 927,-1033"/>
<text text-anchor="start" x="969" y="-1039.2" font-family="Helvetica,sans-Serif" font-size="11.00">0 rows</text>
<polygon fill="#ffffff" stroke="transparent" points="1005,-1033 1005,-1051 1057,-1051 1057,-1033 1005,-1033"/>
<polygon fill="none" stroke="black" points="1005,-1033 1005,-1051 1057,-1051 1057,-1033 1005,-1033"/>
<text text-anchor="start" x="1047" y="-1039.2" font-family="Helvetica,sans-Serif" font-size="11.00"> &#160;</text>
</a>
</g>
</g>
<!-- m_loanproduct_provisioning_entry&#45;&gt;m_product_loan -->
<g id="edge5" class="edge">
<title>m_loanproduct_provisioning_entry:w&#45;&gt;m_product_loan:e</title>
<path fill="none" stroke="black" d="M812.6,-1059.3C788.94,-1056.73 776.67,-1046.65 761,-1023 717.04,-956.65 801.1,-667 721.5,-667"/>
<polygon fill="black" stroke="black" points="819.01,-1059.61 826.83,-1063.6 823,-1059.81 827,-1060 827,-1060 827,-1060 823,-1059.81 827.17,-1056.4 819.01,-1059.61 819.01,-1059.61"/>
<ellipse fill="none" stroke="black" cx="815.81" cy="-1059.46" rx="3.2" ry="3.2"/>
</g>
<!-- m_loanproduct_provisioning_mapping -->
<g id="node7" class="node">
<title>m_loanproduct_provisioning_mapping</title>
<g id="a_node7"><a xlink:href="../../tables/m_loanproduct_provisioning_mapping.html" xlink:title="m_loanproduct_provisioning_mapping" target="_top">
<polygon fill="#ffffff" stroke="transparent" points="818,-954 818,-1012 1066,-1012 1066,-954 818,-954"/>
<polygon fill="#f5f5f5" stroke="transparent" points="818,-990 818,-1012 1066,-1012 1066,-990 818,-990"/>
<polygon fill="none" stroke="black" points="818,-990 818,-1012 1066,-1012 1066,-990 818,-990"/>
<text text-anchor="start" x="823" y="-999.2" font-family="Helvetica,sans-Serif" font-weight="bold" font-size="11.00">m_loanproduct_provisioning_mapping</text>
<text text-anchor="start" x="1031" y="-998.2" font-family="Helvetica,sans-Serif" font-size="11.00">[table]</text>
<polygon fill="none" stroke="black" points="818,-972 818,-990 1066,-990 1066,-972 818,-972"/>
<text text-anchor="start" x="821" y="-978.2" font-family="Helvetica,sans-Serif" font-size="11.00">...</text>
<polygon fill="#ffffff" stroke="transparent" points="818,-954 818,-972 927,-972 927,-954 818,-954"/>
<polygon fill="none" stroke="black" points="818,-954 818,-972 927,-972 927,-954 818,-954"/>
<text text-anchor="start" x="821" y="-960.2" font-family="Helvetica,sans-Serif" font-size="11.00">&lt; 2</text>
<polygon fill="#ffffff" stroke="transparent" points="927,-954 927,-972 1009,-972 1009,-954 927,-954"/>
<polygon fill="none" stroke="black" points="927,-954 927,-972 1009,-972 1009,-954 927,-954"/>
<text text-anchor="start" x="973" y="-960.2" font-family="Helvetica,sans-Serif" font-size="11.00">0 rows</text>
<polygon fill="#ffffff" stroke="transparent" points="1009,-954 1009,-972 1066,-972 1066,-954 1009,-954"/>
<polygon fill="none" stroke="black" points="1009,-954 1009,-972 1066,-972 1066,-954 1009,-954"/>
<text text-anchor="start" x="1056" y="-960.2" font-family="Helvetica,sans-Serif" font-size="11.00"> &#160;</text>
</a>
</g>
</g>
<!-- m_loanproduct_provisioning_mapping&#45;&gt;m_product_loan -->
<g id="edge6" class="edge">
<title>m_loanproduct_provisioning_mapping:w&#45;&gt;m_product_loan:e</title>
<path fill="none" stroke="black" d="M806.39,-980.41C784.44,-977.74 774.9,-965.96 761,-944 727.75,-891.46 783.68,-667 721.5,-667"/>
<polygon fill="black" stroke="black" points="816.42,-976.96 815.98,-984.95 814.38,-984.86 814.83,-976.87 816.42,-976.96"/>
<polyline fill="none" stroke="black" points="817,-981 813.01,-980.78 "/>
<ellipse fill="none" stroke="black" cx="809.81" cy="-980.6" rx="3.2" ry="3.2"/>
</g>
<!-- m_product_loan_charge -->
<g id="node8" class="node">
<title>m_product_loan_charge</title>
<g id="a_node8"><a xlink:href="../../tables/m_product_loan_charge.html" xlink:title="m_product_loan_charge" target="_top">
<polygon fill="#ffffff" stroke="transparent" points="856,-875 856,-933 1028,-933 1028,-875 856,-875"/>
<polygon fill="#f5f5f5" stroke="transparent" points="856,-911 856,-933 1028,-933 1028,-911 856,-911"/>
<polygon fill="none" stroke="black" points="856,-911 856,-933 1028,-933 1028,-911 856,-911"/>
<text text-anchor="start" x="861" y="-920.2" font-family="Helvetica,sans-Serif" font-weight="bold" font-size="11.00">m_product_loan_charge</text>
<text text-anchor="start" x="993" y="-919.2" font-family="Helvetica,sans-Serif" font-size="11.00">[table]</text>
<polygon fill="none" stroke="black" points="856,-893 856,-911 1028,-911 1028,-893 856,-893"/>
<text text-anchor="start" x="859" y="-899.2" font-family="Helvetica,sans-Serif" font-size="11.00">...</text>
<polygon fill="#ffffff" stroke="transparent" points="856,-875 856,-893 927,-893 927,-875 856,-875"/>
<polygon fill="none" stroke="black" points="856,-875 856,-893 927,-893 927,-875 856,-875"/>
<text text-anchor="start" x="859" y="-881.2" font-family="Helvetica,sans-Serif" font-size="11.00">&lt; 2</text>
<polygon fill="#ffffff" stroke="transparent" points="927,-875 927,-893 990,-893 990,-875 927,-875"/>
<polygon fill="none" stroke="black" points="927,-875 927,-893 990,-893 990,-875 927,-875"/>
<text text-anchor="start" x="954" y="-881.2" font-family="Helvetica,sans-Serif" font-size="11.00">0 rows</text>
<polygon fill="#ffffff" stroke="transparent" points="990,-875 990,-893 1028,-893 1028,-875 990,-875"/>
<polygon fill="none" stroke="black" points="990,-875 990,-893 1028,-893 1028,-875 990,-875"/>
<text text-anchor="start" x="1018" y="-881.2" font-family="Helvetica,sans-Serif" font-size="11.00"> &#160;</text>
</a>
</g>
</g>
<!-- m_product_loan_charge&#45;&gt;m_product_loan -->
<g id="edge9" class="edge">
<title>m_product_loan_charge:w&#45;&gt;m_product_loan:e</title>
<path fill="none" stroke="black" d="M840.18,-901.85C805.23,-900.96 786.42,-895.41 761,-865 703.44,-796.16 811.23,-667 721.5,-667"/>
<polygon fill="black" stroke="black" points="847,-901.92 854.96,-905.6 851,-901.96 855,-902 855,-902 855,-902 851,-901.96 855.04,-898.4 847,-901.92 847,-901.92"/>
<ellipse fill="none" stroke="black" cx="843.8" cy="-901.88" rx="3.2" ry="3.2"/>
</g>
<!-- m_product_loan_configurable_attributes -->
<g id="node9" class="node">
<title>m_product_loan_configurable_attributes</title>
<g id="a_node9"><a xlink:href="../../tables/m_product_loan_configurable_attributes.html" xlink:title="m_product_loan_configurable_attributes" target="_top">
<polygon fill="#ffffff" stroke="transparent" points="769,-590 769,-854 1115,-854 1115,-590 769,-590"/>
<polygon fill="#f5f5f5" stroke="transparent" points="771,-830 771,-852 1113,-852 1113,-830 771,-830"/>
<polygon fill="none" stroke="black" points="771,-830 771,-852 1113,-852 1113,-830 771,-830"/>
<text text-anchor="start" x="776" y="-839.2" font-family="Helvetica,sans-Serif" font-weight="bold" font-size="11.00">m_product_loan_configurable_attributes</text>
<text text-anchor="start" x="1078" y="-838.2" font-family="Helvetica,sans-Serif" font-size="11.00">[table]</text>
<polygon fill="none" stroke="black" points="771,-808 771,-830 1063,-830 1063,-808 771,-808"/>
<image xlink:href="../../images/primaryKeys.png" width="11px" height="12px" preserveAspectRatio="xMinYMin meet" x="776" y="-825"/>
<text text-anchor="start" x="791" y="-816.2" font-family="Helvetica,sans-Serif" font-size="11.00">id</text>
<polygon fill="none" stroke="black" points="1063,-808 1063,-830 1113,-830 1113,-808 1063,-808"/>
<text text-anchor="start" x="1066" y="-816.2" font-family="Helvetica,sans-Serif" font-size="11.00">bigint[19]</text>
<polygon fill="#ffffff" stroke="transparent" points="771,-786 771,-808 1063,-808 1063,-786 771,-786"/>
<polygon fill="none" stroke="black" points="771,-786 771,-808 1063,-808 1063,-786 771,-786"/>
<image xlink:href="../../images/foreignKeys.png" width="11px" height="12px" preserveAspectRatio="xMinYMin meet" x="776" y="-803"/>
<text text-anchor="start" x="791" y="-794.2" font-family="Helvetica,sans-Serif" font-size="11.00">loan_product_id</text>
<polygon fill="none" stroke="black" points="1063,-786 1063,-808 1113,-808 1113,-786 1063,-786"/>
<text text-anchor="start" x="1066" y="-794.2" font-family="Helvetica,sans-Serif" font-size="11.00">bigint[19]</text>
<polygon fill="none" stroke="black" points="771,-764 771,-786 1063,-786 1063,-764 771,-764"/>
<text text-anchor="start" x="791" y="-772.2" font-family="Helvetica,sans-Serif" font-size="11.00">amortization_method_enum</text>
<polygon fill="none" stroke="black" points="1063,-764 1063,-786 1113,-786 1113,-764 1063,-764"/>
<text text-anchor="start" x="1066" y="-772.2" font-family="Helvetica,sans-Serif" font-size="11.00">bit[1]</text>
<polygon fill="none" stroke="black" points="771,-742 771,-764 1063,-764 1063,-742 771,-742"/>
<text text-anchor="start" x="791" y="-750.2" font-family="Helvetica,sans-Serif" font-size="11.00">interest_method_enum</text>
<polygon fill="none" stroke="black" points="1063,-742 1063,-764 1113,-764 1113,-742 1063,-742"/>
<text text-anchor="start" x="1066" y="-750.2" font-family="Helvetica,sans-Serif" font-size="11.00">bit[1]</text>
<polygon fill="none" stroke="black" points="771,-720 771,-742 1063,-742 1063,-720 771,-720"/>
<text text-anchor="start" x="791" y="-728.2" font-family="Helvetica,sans-Serif" font-size="11.00">loan_transaction_strategy_id</text>
<polygon fill="none" stroke="black" points="1063,-720 1063,-742 1113,-742 1113,-720 1063,-720"/>
<text text-anchor="start" x="1066" y="-728.2" font-family="Helvetica,sans-Serif" font-size="11.00">bit[1]</text>
<polygon fill="none" stroke="black" points="771,-698 771,-720 1063,-720 1063,-698 771,-698"/>
<text text-anchor="start" x="791" y="-706.2" font-family="Helvetica,sans-Serif" font-size="11.00">interest_calculated_in_period_enum</text>
<polygon fill="none" stroke="black" points="1063,-698 1063,-720 1113,-720 1113,-698 1063,-698"/>
<text text-anchor="start" x="1066" y="-706.2" font-family="Helvetica,sans-Serif" font-size="11.00">bit[1]</text>
<polygon fill="none" stroke="black" points="771,-676 771,-698 1063,-698 1063,-676 771,-676"/>
<text text-anchor="start" x="791" y="-684.2" font-family="Helvetica,sans-Serif" font-size="11.00">arrearstolerance_amount</text>
<polygon fill="none" stroke="black" points="1063,-676 1063,-698 1113,-698 1113,-676 1063,-676"/>
<text text-anchor="start" x="1066" y="-684.2" font-family="Helvetica,sans-Serif" font-size="11.00">bit[1]</text>
<polygon fill="none" stroke="black" points="771,-654 771,-676 1063,-676 1063,-654 771,-654"/>
<text text-anchor="start" x="791" y="-662.2" font-family="Helvetica,sans-Serif" font-size="11.00">repay_every</text>
<polygon fill="none" stroke="black" points="1063,-654 1063,-676 1113,-676 1113,-654 1063,-654"/>
<text text-anchor="start" x="1066" y="-662.2" font-family="Helvetica,sans-Serif" font-size="11.00">bit[1]</text>
<polygon fill="none" stroke="black" points="771,-632 771,-654 1063,-654 1063,-632 771,-632"/>
<text text-anchor="start" x="791" y="-640.2" font-family="Helvetica,sans-Serif" font-size="11.00">moratorium</text>
<polygon fill="none" stroke="black" points="1063,-632 1063,-654 1113,-654 1113,-632 1063,-632"/>
<text text-anchor="start" x="1066" y="-640.2" font-family="Helvetica,sans-Serif" font-size="11.00">bit[1]</text>
<polygon fill="none" stroke="black" points="771,-610 771,-632 1063,-632 1063,-610 771,-610"/>
<text text-anchor="start" x="791" y="-618.2" font-family="Helvetica,sans-Serif" font-size="11.00">grace_on_arrears_ageing</text>
<polygon fill="none" stroke="black" points="1063,-610 1063,-632 1113,-632 1113,-610 1063,-610"/>
<text text-anchor="start" x="1066" y="-618.2" font-family="Helvetica,sans-Serif" font-size="11.00">bit[1]</text>
<polygon fill="#ffffff" stroke="transparent" points="771,-592 771,-610 908,-610 908,-592 771,-592"/>
<polygon fill="none" stroke="black" points="771,-592 771,-610 908,-610 908,-592 771,-592"/>
<text text-anchor="start" x="774" y="-598.2" font-family="Helvetica,sans-Serif" font-size="11.00">&lt; 1</text>
<polygon fill="#ffffff" stroke="transparent" points="908,-592 908,-610 1063,-610 1063,-592 908,-592"/>
<polygon fill="none" stroke="black" points="908,-592 908,-610 1063,-610 1063,-592 908,-592"/>
<text text-anchor="start" x="1027" y="-598.2" font-family="Helvetica,sans-Serif" font-size="11.00">0 rows</text>
<polygon fill="#ffffff" stroke="transparent" points="1063,-592 1063,-610 1113,-610 1113,-592 1063,-592"/>
<polygon fill="none" stroke="black" points="1063,-592 1063,-610 1113,-610 1113,-592 1063,-592"/>
<text text-anchor="start" x="1094" y="-598.2" font-family="Helvetica,sans-Serif" font-size="11.00">0 &gt;</text>
<polygon fill="none" stroke="black" stroke-width="2" points="770,-591 770,-853 1114,-853 1114,-591 770,-591"/>
</a>
</g>
</g>
<!-- m_product_loan_configurable_attributes&#45;&gt;m_product_loan -->
<g id="edge10" class="edge">
<title>m_product_loan_configurable_attributes:w&#45;&gt;m_product_loan:e</title>
<path fill="none" stroke="black" d="M755.58,-793.52C721.65,-772.85 777.15,-667 721.5,-667"/>
<polygon fill="black" stroke="black" points="762.22,-795.12 769.16,-800.5 766.11,-796.06 770,-797 770,-797 770,-797 766.11,-796.06 770.84,-793.5 762.22,-795.12 762.22,-795.12"/>
<ellipse fill="none" stroke="black" cx="759.11" cy="-794.37" rx="3.2" ry="3.2"/>
</g>
<!-- m_product_loan_floating_rates -->
<g id="node10" class="node">
<title>m_product_loan_floating_rates</title>
<g id="a_node10"><a xlink:href="../../tables/m_product_loan_floating_rates.html" xlink:title="m_product_loan_floating_rates" target="_top">
<polygon fill="#ffffff" stroke="transparent" points="838,-511 838,-569 1046,-569 1046,-511 838,-511"/>
<polygon fill="#f5f5f5" stroke="transparent" points="838,-547 838,-569 1046,-569 1046,-547 838,-547"/>
<polygon fill="none" stroke="black" points="838,-547 838,-569 1046,-569 1046,-547 838,-547"/>
<text text-anchor="start" x="843" y="-556.2" font-family="Helvetica,sans-Serif" font-weight="bold" font-size="11.00">m_product_loan_floating_rates</text>
<text text-anchor="start" x="1011" y="-555.2" font-family="Helvetica,sans-Serif" font-size="11.00">[table]</text>
<polygon fill="none" stroke="black" points="838,-529 838,-547 1046,-547 1046,-529 838,-529"/>
<text text-anchor="start" x="841" y="-535.2" font-family="Helvetica,sans-Serif" font-size="11.00">...</text>
<polygon fill="#ffffff" stroke="transparent" points="838,-511 838,-529 927,-529 927,-511 838,-511"/>
<polygon fill="none" stroke="black" points="838,-511 838,-529 927,-529 927,-511 838,-511"/>
<text text-anchor="start" x="841" y="-517.2" font-family="Helvetica,sans-Serif" font-size="11.00">&lt; 2</text>
<polygon fill="#ffffff" stroke="transparent" points="927,-511 927,-529 999,-529 999,-511 927,-511"/>
<polygon fill="none" stroke="black" points="927,-511 927,-529 999,-529 999,-511 927,-511"/>
<text text-anchor="start" x="963" y="-517.2" font-family="Helvetica,sans-Serif" font-size="11.00">0 rows</text>
<polygon fill="#ffffff" stroke="transparent" points="999,-511 999,-529 1046,-529 1046,-511 999,-511"/>
<polygon fill="none" stroke="black" points="999,-511 999,-529 1046,-529 1046,-511 999,-511"/>
<text text-anchor="start" x="1036" y="-517.2" font-family="Helvetica,sans-Serif" font-size="11.00"> &#160;</text>
</a>
</g>
</g>
<!-- m_product_loan_floating_rates&#45;&gt;m_product_loan -->
<g id="edge11" class="edge">
<title>m_product_loan_floating_rates:w&#45;&gt;m_product_loan:e</title>
<path fill="none" stroke="black" d="M822.6,-538.77C795.06,-542.01 783.61,-555.53 761,-580 732.18,-611.19 763.97,-667 721.5,-667"/>
<polygon fill="black" stroke="black" points="829.01,-538.43 837.19,-541.59 833.01,-538.21 837,-538 837,-538 837,-538 833.01,-538.21 836.81,-534.41 829.01,-538.43 829.01,-538.43"/>
<ellipse fill="none" stroke="black" cx="825.82" cy="-538.6" rx="3.2" ry="3.2"/>
</g>
<!-- m_product_loan_guarantee_details -->
<g id="node11" class="node">
<title>m_product_loan_guarantee_details</title>
<g id="a_node11"><a xlink:href="../../tables/m_product_loan_guarantee_details.html" xlink:title="m_product_loan_guarantee_details" target="_top">
<polygon fill="#ffffff" stroke="transparent" points="827.5,-432 827.5,-490 1056.5,-490 1056.5,-432 827.5,-432"/>
<polygon fill="#f5f5f5" stroke="transparent" points="828,-468 828,-490 1057,-490 1057,-468 828,-468"/>
<polygon fill="none" stroke="black" points="828,-468 828,-490 1057,-490 1057,-468 828,-468"/>
<text text-anchor="start" x="833" y="-477.2" font-family="Helvetica,sans-Serif" font-weight="bold" font-size="11.00">m_product_loan_guarantee_details</text>
<text text-anchor="start" x="1022" y="-476.2" font-family="Helvetica,sans-Serif" font-size="11.00">[table]</text>
<polygon fill="none" stroke="black" points="828,-450 828,-468 1057,-468 1057,-450 828,-450"/>
<text text-anchor="start" x="831" y="-456.2" font-family="Helvetica,sans-Serif" font-size="11.00">...</text>
<polygon fill="#ffffff" stroke="transparent" points="828,-432 828,-450 927,-450 927,-432 828,-432"/>
<polygon fill="none" stroke="black" points="828,-432 828,-450 927,-450 927,-432 828,-432"/>
<text text-anchor="start" x="831" y="-438.2" font-family="Helvetica,sans-Serif" font-size="11.00">&lt; 1</text>
<polygon fill="#ffffff" stroke="transparent" points="927,-432 927,-450 1005,-450 1005,-432 927,-432"/>
<polygon fill="none" stroke="black" points="927,-432 927,-450 1005,-450 1005,-432 927,-432"/>
<text text-anchor="start" x="969" y="-438.2" font-family="Helvetica,sans-Serif" font-size="11.00">0 rows</text>
<polygon fill="#ffffff" stroke="transparent" points="1005,-432 1005,-450 1057,-450 1057,-432 1005,-432"/>
<polygon fill="none" stroke="black" points="1005,-432 1005,-450 1057,-450 1057,-432 1005,-432"/>
<text text-anchor="start" x="1047" y="-438.2" font-family="Helvetica,sans-Serif" font-size="11.00"> &#160;</text>
</a>
</g>
</g>
<!-- m_product_loan_guarantee_details&#45;&gt;m_product_loan -->
<g id="edge12" class="edge">
<title>m_product_loan_guarantee_details:w&#45;&gt;m_product_loan:e</title>
<path fill="none" stroke="black" d="M812.31,-460.01C788.55,-463.63 778.02,-477.1 761,-501 717.01,-562.77 797.34,-667 721.5,-667"/>
<polygon fill="black" stroke="black" points="819.02,-459.55 827.25,-462.59 823.01,-459.27 827,-459 827,-459 827,-459 823.01,-459.27 826.75,-455.41 819.02,-459.55 819.02,-459.55"/>
<ellipse fill="none" stroke="black" cx="815.83" cy="-459.77" rx="3.2" ry="3.2"/>
</g>
<!-- m_product_loan_rate -->
<g id="node12" class="node">
<title>m_product_loan_rate</title>
<g id="a_node12"><a xlink:href="../../tables/m_product_loan_rate.html" xlink:title="m_product_loan_rate" target="_top">
<polygon fill="#ffffff" stroke="transparent" points="864,-353 864,-411 1020,-411 1020,-353 864,-353"/>
<polygon fill="#f5f5f5" stroke="transparent" points="864,-389 864,-411 1020,-411 1020,-389 864,-389"/>
<polygon fill="none" stroke="black" points="864,-389 864,-411 1020,-411 1020,-389 864,-389"/>
<text text-anchor="start" x="869" y="-398.2" font-family="Helvetica,sans-Serif" font-weight="bold" font-size="11.00">m_product_loan_rate</text>
<text text-anchor="start" x="985" y="-397.2" font-family="Helvetica,sans-Serif" font-size="11.00">[table]</text>
<polygon fill="none" stroke="black" points="864,-371 864,-389 1020,-389 1020,-371 864,-371"/>
<text text-anchor="start" x="867" y="-377.2" font-family="Helvetica,sans-Serif" font-size="11.00">...</text>
<polygon fill="#ffffff" stroke="transparent" points="864,-353 864,-371 927,-371 927,-353 864,-353"/>
<polygon fill="none" stroke="black" points="864,-353 864,-371 927,-371 927,-353 864,-353"/>
<text text-anchor="start" x="867" y="-359.2" font-family="Helvetica,sans-Serif" font-size="11.00">&lt; 2</text>
<polygon fill="#ffffff" stroke="transparent" points="927,-353 927,-371 986,-371 986,-353 927,-353"/>
<polygon fill="none" stroke="black" points="927,-353 927,-371 986,-371 986,-353 927,-353"/>
<text text-anchor="start" x="950" y="-359.2" font-family="Helvetica,sans-Serif" font-size="11.00">0 rows</text>
<polygon fill="#ffffff" stroke="transparent" points="986,-353 986,-371 1020,-371 1020,-353 986,-353"/>
<polygon fill="none" stroke="black" points="986,-353 986,-371 1020,-371 1020,-353 986,-353"/>
<text text-anchor="start" x="1010" y="-359.2" font-family="Helvetica,sans-Serif" font-size="11.00"> &#160;</text>
</a>
</g>
</g>
<!-- m_product_loan_rate&#45;&gt;m_product_loan -->
<g id="edge13" class="edge">
<title>m_product_loan_rate:w&#45;&gt;m_product_loan:e</title>
<path fill="none" stroke="black" d="M848.59,-380.15C809.22,-381.11 788.29,-387.55 761,-422 726.75,-465.23 776.65,-667 721.5,-667"/>
<polygon fill="black" stroke="black" points="855,-380.08 863.04,-383.6 859,-380.04 863,-380 863,-380 863,-380 859,-380.04 862.96,-376.4 855,-380.08 855,-380.08"/>
<ellipse fill="none" stroke="black" cx="851.8" cy="-380.12" rx="3.2" ry="3.2"/>
</g>
<!-- m_product_loan_recalculation_details -->
<g id="node13" class="node">
<title>m_product_loan_recalculation_details</title>
<g id="a_node13"><a xlink:href="../../tables/m_product_loan_recalculation_details.html" xlink:title="m_product_loan_recalculation_details" target="_top">
<polygon fill="#ffffff" stroke="transparent" points="820,-274 820,-332 1064,-332 1064,-274 820,-274"/>
<polygon fill="#f5f5f5" stroke="transparent" points="820,-310 820,-332 1064,-332 1064,-310 820,-310"/>
<polygon fill="none" stroke="black" points="820,-310 820,-332 1064,-332 1064,-310 820,-310"/>
<text text-anchor="start" x="825" y="-319.2" font-family="Helvetica,sans-Serif" font-weight="bold" font-size="11.00">m_product_loan_recalculation_details</text>
<text text-anchor="start" x="1029" y="-318.2" font-family="Helvetica,sans-Serif" font-size="11.00">[table]</text>
<polygon fill="none" stroke="black" points="820,-292 820,-310 1064,-310 1064,-292 820,-292"/>
<text text-anchor="start" x="823" y="-298.2" font-family="Helvetica,sans-Serif" font-size="11.00">...</text>
<polygon fill="#ffffff" stroke="transparent" points="820,-274 820,-292 927,-292 927,-274 820,-274"/>
<polygon fill="none" stroke="black" points="820,-274 820,-292 927,-292 927,-274 820,-274"/>
<text text-anchor="start" x="823" y="-280.2" font-family="Helvetica,sans-Serif" font-size="11.00">&lt; 1</text>
<polygon fill="#ffffff" stroke="transparent" points="927,-274 927,-292 1008,-292 1008,-274 927,-274"/>
<polygon fill="none" stroke="black" points="927,-274 927,-292 1008,-292 1008,-274 927,-274"/>
<text text-anchor="start" x="972" y="-280.2" font-family="Helvetica,sans-Serif" font-size="11.00">0 rows</text>
<polygon fill="#ffffff" stroke="transparent" points="1008,-274 1008,-292 1064,-292 1064,-274 1008,-274"/>
<polygon fill="none" stroke="black" points="1008,-274 1008,-292 1064,-292 1064,-274 1008,-274"/>
<text text-anchor="start" x="1054" y="-280.2" font-family="Helvetica,sans-Serif" font-size="11.00"> &#160;</text>
</a>
</g>
</g>
<!-- m_product_loan_recalculation_details&#45;&gt;m_product_loan -->
<g id="edge14" class="edge">
<title>m_product_loan_recalculation_details:w&#45;&gt;m_product_loan:e</title>
<path fill="none" stroke="black" d="M804.38,-302.28C783.55,-306.39 774.39,-320.3 761,-343 724.16,-405.48 794.03,-667 721.5,-667"/>
<polygon fill="black" stroke="black" points="811.03,-301.7 819.31,-304.59 815.02,-301.35 819,-301 819,-301 819,-301 815.02,-301.35 818.69,-297.41 811.03,-301.7 811.03,-301.7"/>
<ellipse fill="none" stroke="black" cx="807.84" cy="-301.98" rx="3.2" ry="3.2"/>
</g>
<!-- m_product_loan_variable_installment_config -->
<g id="node14" class="node">
<title>m_product_loan_variable_installment_config</title>
<g id="a_node14"><a xlink:href="../../tables/m_product_loan_variable_installment_config.html" xlink:title="m_product_loan_variable_installment_config" target="_top">
<polygon fill="#ffffff" stroke="transparent" points="802,-195 802,-253 1082,-253 1082,-195 802,-195"/>
<polygon fill="#f5f5f5" stroke="transparent" points="802,-231 802,-253 1082,-253 1082,-231 802,-231"/>
<polygon fill="none" stroke="black" points="802,-231 802,-253 1082,-253 1082,-231 802,-231"/>
<text text-anchor="start" x="807" y="-240.2" font-family="Helvetica,sans-Serif" font-weight="bold" font-size="11.00">m_product_loan_variable_installment_config</text>
<text text-anchor="start" x="1047" y="-239.2" font-family="Helvetica,sans-Serif" font-size="11.00">[table]</text>
<polygon fill="none" stroke="black" points="802,-213 802,-231 1082,-231 1082,-213 802,-213"/>
<text text-anchor="start" x="805" y="-219.2" font-family="Helvetica,sans-Serif" font-size="11.00">...</text>
<polygon fill="#ffffff" stroke="transparent" points="802,-195 802,-213 927,-213 927,-195 802,-195"/>
<polygon fill="none" stroke="black" points="802,-195 802,-213 927,-213 927,-195 802,-195"/>
<text text-anchor="start" x="805" y="-201.2" font-family="Helvetica,sans-Serif" font-size="11.00">&lt; 1</text>
<polygon fill="#ffffff" stroke="transparent" points="927,-195 927,-213 1017,-213 1017,-195 927,-195"/>
<polygon fill="none" stroke="black" points="927,-195 927,-213 1017,-213 1017,-195 927,-195"/>
<text text-anchor="start" x="981" y="-201.2" font-family="Helvetica,sans-Serif" font-size="11.00">0 rows</text>
<polygon fill="#ffffff" stroke="transparent" points="1017,-195 1017,-213 1082,-213 1082,-195 1017,-195"/>
<polygon fill="none" stroke="black" points="1017,-195 1017,-213 1082,-213 1082,-195 1017,-195"/>
<text text-anchor="start" x="1072" y="-201.2" font-family="Helvetica,sans-Serif" font-size="11.00"> &#160;</text>
</a>
</g>
</g>
<!-- m_product_loan_variable_installment_config&#45;&gt;m_product_loan -->
<g id="edge15" class="edge">
<title>m_product_loan_variable_installment_config:w&#45;&gt;m_product_loan:e</title>
<path fill="none" stroke="black" d="M786.57,-224.7C773.27,-230.66 769.3,-245.87 761,-264 742.27,-304.91 766.49,-667 721.5,-667"/>
<polygon fill="black" stroke="black" points="793.14,-223.47 801.66,-225.54 797.07,-222.74 801,-222 801,-222 801,-222 797.07,-222.74 800.34,-218.46 793.14,-223.47 793.14,-223.47"/>
<ellipse fill="none" stroke="black" cx="789.99" cy="-224.06" rx="3.2" ry="3.2"/>
</g>
<!-- m_product_loan_variations_borrower_cycle -->
<g id="node15" class="node">
<title>m_product_loan_variations_borrower_cycle</title>
<g id="a_node15"><a xlink:href="../../tables/m_product_loan_variations_borrower_cycle.html" xlink:title="m_product_loan_variations_borrower_cycle" target="_top">
<polygon fill="#ffffff" stroke="transparent" points="804.5,-116 804.5,-174 1079.5,-174 1079.5,-116 804.5,-116"/>
<polygon fill="#f5f5f5" stroke="transparent" points="805,-152 805,-174 1080,-174 1080,-152 805,-152"/>
<polygon fill="none" stroke="black" points="805,-152 805,-174 1080,-174 1080,-152 805,-152"/>
<text text-anchor="start" x="810" y="-161.2" font-family="Helvetica,sans-Serif" font-weight="bold" font-size="11.00">m_product_loan_variations_borrower_cycle</text>
<text text-anchor="start" x="1045" y="-160.2" font-family="Helvetica,sans-Serif" font-size="11.00">[table]</text>
<polygon fill="none" stroke="black" points="805,-134 805,-152 1080,-152 1080,-134 805,-134"/>
<text text-anchor="start" x="808" y="-140.2" font-family="Helvetica,sans-Serif" font-size="11.00">...</text>
<polygon fill="#ffffff" stroke="transparent" points="805,-116 805,-134 927,-134 927,-116 805,-116"/>
<polygon fill="none" stroke="black" points="805,-116 805,-134 927,-134 927,-116 805,-116"/>
<text text-anchor="start" x="808" y="-122.2" font-family="Helvetica,sans-Serif" font-size="11.00">&lt; 1</text>
<polygon fill="#ffffff" stroke="transparent" points="927,-116 927,-134 1016,-134 1016,-116 927,-116"/>
<polygon fill="none" stroke="black" points="927,-116 927,-134 1016,-134 1016,-116 927,-116"/>
<text text-anchor="start" x="980" y="-122.2" font-family="Helvetica,sans-Serif" font-size="11.00">0 rows</text>
<polygon fill="#ffffff" stroke="transparent" points="1016,-116 1016,-134 1080,-134 1080,-116 1016,-116"/>
<polygon fill="none" stroke="black" points="1016,-116 1016,-134 1080,-134 1080,-116 1016,-116"/>
<text text-anchor="start" x="1070" y="-122.2" font-family="Helvetica,sans-Serif" font-size="11.00"> &#160;</text>
</a>
</g>
</g>
<!-- m_product_loan_variations_borrower_cycle&#45;&gt;m_product_loan -->
<g id="edge16" class="edge">
<title>m_product_loan_variations_borrower_cycle:w&#45;&gt;m_product_loan:e</title>
<path fill="none" stroke="black" d="M789.74,-145.27C774.92,-150.8 769.97,-165.92 761,-185 738.14,-233.63 775.24,-667 721.5,-667"/>
<polygon fill="black" stroke="black" points="796.1,-144.26 804.57,-146.56 800.05,-143.63 804,-143 804,-143 804,-143 800.05,-143.63 803.43,-139.44 796.1,-144.26 796.1,-144.26"/>
<ellipse fill="none" stroke="black" cx="792.94" cy="-144.76" rx="3.2" ry="3.2"/>
</g>
<!-- m_product_mix -->
<g id="node16" class="node">
<title>m_product_mix</title>
<g id="a_node16"><a xlink:href="../../tables/m_product_mix.html" xlink:title="m_product_mix" target="_top">
<polygon fill="#ffffff" stroke="transparent" points="879,-37 879,-95 1005,-95 1005,-37 879,-37"/>
<polygon fill="#f5f5f5" stroke="transparent" points="879,-73 879,-95 1005,-95 1005,-73 879,-73"/>
<polygon fill="none" stroke="black" points="879,-73 879,-95 1005,-95 1005,-73 879,-73"/>
<text text-anchor="start" x="884" y="-82.2" font-family="Helvetica,sans-Serif" font-weight="bold" font-size="11.00">m_product_mix</text>
<text text-anchor="start" x="970" y="-81.2" font-family="Helvetica,sans-Serif" font-size="11.00">[table]</text>
<polygon fill="none" stroke="black" points="879,-55 879,-73 1005,-73 1005,-55 879,-55"/>
<text text-anchor="start" x="882" y="-61.2" font-family="Helvetica,sans-Serif" font-size="11.00">...</text>
<polygon fill="#ffffff" stroke="transparent" points="879,-37 879,-55 927,-55 927,-37 879,-37"/>
<polygon fill="none" stroke="black" points="879,-37 879,-55 927,-55 927,-37 879,-37"/>
<text text-anchor="start" x="882" y="-43.2" font-family="Helvetica,sans-Serif" font-size="11.00">&lt; 2</text>
<polygon fill="#ffffff" stroke="transparent" points="927,-37 927,-55 979,-55 979,-37 927,-37"/>
<polygon fill="none" stroke="black" points="927,-37 927,-55 979,-55 979,-37 927,-37"/>
<text text-anchor="start" x="943" y="-43.2" font-family="Helvetica,sans-Serif" font-size="11.00">0 rows</text>
<polygon fill="#ffffff" stroke="transparent" points="979,-37 979,-55 1005,-55 1005,-37 979,-37"/>
<polygon fill="none" stroke="black" points="979,-37 979,-55 1005,-55 1005,-37 979,-37"/>
<text text-anchor="start" x="995" y="-43.2" font-family="Helvetica,sans-Serif" font-size="11.00"> &#160;</text>
</a>
</g>
</g>
<!-- m_product_mix&#45;&gt;m_product_loan -->
<g id="edge17" class="edge">
<title>m_product_mix:w&#45;&gt;m_product_loan:e</title>
<path fill="none" stroke="black" d="M863.44,-62.48C817.5,-58.01 791.3,-60 761,-100 723.27,-149.81 783.99,-661 721.5,-667"/>
<polygon fill="black" stroke="black" points="870.04,-63.17 877.63,-67.58 874.02,-63.58 878,-64 878,-64 878,-64 874.02,-63.58 878.37,-60.42 870.04,-63.17 870.04,-63.17"/>
<ellipse fill="none" stroke="black" cx="866.86" cy="-62.84" rx="3.2" ry="3.2"/>
</g>
<!-- m_product_mix&#45;&gt;m_product_loan -->
<g id="edge18" class="edge">
<title>m_product_mix:w&#45;&gt;m_product_loan:e</title>
<path fill="none" stroke="black" d="M863.44,-65.74C817.5,-71.01 791.3,-73 761,-113 723.27,-162.81 783.99,-674 721.5,-667"/>
<polygon fill="black" stroke="black" points="870.06,-64.95 878.43,-67.57 874.03,-64.48 878,-64 878,-64 878,-64 874.03,-64.48 877.57,-60.43 870.06,-64.95 870.06,-64.95"/>
<ellipse fill="none" stroke="black" cx="866.88" cy="-65.33" rx="3.2" ry="3.2"/>
</g>
</g>
</svg>
