<?xml version="1.0" encoding="UTF-8" standalone="no"?>
<!DOCTYPE svg PUBLIC "-//W3C//DTD SVG 1.1//EN"
 "http://www.w3.org/Graphics/SVG/1.1/DTD/svg11.dtd">
<!-- Generated by graphviz version 2.43.0 (0)
 -->
<!-- Title: oneDegreeRelationshipsDiagram Pages: 1 -->
<svg width="816pt" height="313pt"
 viewBox="0.00 0.00 816.00 313.00" xmlns="http://www.w3.org/2000/svg" xmlns:xlink="http://www.w3.org/1999/xlink">
<g id="graph0" class="graph" transform="scale(1 1) rotate(0) translate(4 309)">
<title>oneDegreeRelationshipsDiagram</title>
<polygon fill="#ffffff" stroke="transparent" points="-4,4 -4,-309 812,-309 812,4 -4,4"/>
<text text-anchor="middle" x="71.5" y="-7.2" font-family="Helvetica,sans-Serif" font-size="11.00">Generated by SchemaSpy</text>
<!-- m_product_loan_configurable_attributes -->
<g id="node1" class="node">
<title>m_product_loan_configurable_attributes</title>
<g id="a_node1"><a xlink:href="../../tables/m_product_loan_configurable_attributes.html" xlink:title="m_product_loan_configurable_attributes" target="_top">
<polygon fill="#ffffff" stroke="transparent" points="454,-37 454,-301 800,-301 800,-37 454,-37"/>
<polygon fill="#f5f5f5" stroke="transparent" points="456,-277 456,-299 798,-299 798,-277 456,-277"/>
<polygon fill="none" stroke="black" points="456,-277 456,-299 798,-299 798,-277 456,-277"/>
<text text-anchor="start" x="461" y="-286.2" font-family="Helvetica,sans-Serif" font-weight="bold" font-size="11.00">m_product_loan_configurable_attributes</text>
<text text-anchor="start" x="763" y="-285.2" font-family="Helvetica,sans-Serif" font-size="11.00">[table]</text>
<polygon fill="none" stroke="black" points="456,-255 456,-277 748,-277 748,-255 456,-255"/>
<image xlink:href="../../images/primaryKeys.png" width="11px" height="12px" preserveAspectRatio="xMinYMin meet" x="461" y="-272"/>
<text text-anchor="start" x="476" y="-263.2" font-family="Helvetica,sans-Serif" font-size="11.00">id</text>
<polygon fill="none" stroke="black" points="748,-255 748,-277 798,-277 798,-255 748,-255"/>
<text text-anchor="start" x="751" y="-263.2" font-family="Helvetica,sans-Serif" font-size="11.00">bigint[19]</text>
<polygon fill="#ffffff" stroke="transparent" points="456,-233 456,-255 748,-255 748,-233 456,-233"/>
<polygon fill="none" stroke="black" points="456,-233 456,-255 748,-255 748,-233 456,-233"/>
<image xlink:href="../../images/foreignKeys.png" width="11px" height="12px" preserveAspectRatio="xMinYMin meet" x="461" y="-250"/>
<text text-anchor="start" x="476" y="-241.2" font-family="Helvetica,sans-Serif" font-size="11.00">loan_product_id</text>
<polygon fill="none" stroke="black" points="748,-233 748,-255 798,-255 798,-233 748,-233"/>
<text text-anchor="start" x="751" y="-241.2" font-family="Helvetica,sans-Serif" font-size="11.00">bigint[19]</text>
<polygon fill="none" stroke="black" points="456,-211 456,-233 748,-233 748,-211 456,-211"/>
<text text-anchor="start" x="476" y="-219.2" font-family="Helvetica,sans-Serif" font-size="11.00">amortization_method_enum</text>
<polygon fill="none" stroke="black" points="748,-211 748,-233 798,-233 798,-211 748,-211"/>
<text text-anchor="start" x="751" y="-219.2" font-family="Helvetica,sans-Serif" font-size="11.00">bit[1]</text>
<polygon fill="none" stroke="black" points="456,-189 456,-211 748,-211 748,-189 456,-189"/>
<text text-anchor="start" x="476" y="-197.2" font-family="Helvetica,sans-Serif" font-size="11.00">interest_method_enum</text>
<polygon fill="none" stroke="black" points="748,-189 748,-211 798,-211 798,-189 748,-189"/>
<text text-anchor="start" x="751" y="-197.2" font-family="Helvetica,sans-Serif" font-size="11.00">bit[1]</text>
<polygon fill="none" stroke="black" points="456,-167 456,-189 748,-189 748,-167 456,-167"/>
<text text-anchor="start" x="476" y="-175.2" font-family="Helvetica,sans-Serif" font-size="11.00">loan_transaction_strategy_id</text>
<polygon fill="none" stroke="black" points="748,-167 748,-189 798,-189 798,-167 748,-167"/>
<text text-anchor="start" x="751" y="-175.2" font-family="Helvetica,sans-Serif" font-size="11.00">bit[1]</text>
<polygon fill="none" stroke="black" points="456,-145 456,-167 748,-167 748,-145 456,-145"/>
<text text-anchor="start" x="476" y="-153.2" font-family="Helvetica,sans-Serif" font-size="11.00">interest_calculated_in_period_enum</text>
<polygon fill="none" stroke="black" points="748,-145 748,-167 798,-167 798,-145 748,-145"/>
<text text-anchor="start" x="751" y="-153.2" font-family="Helvetica,sans-Serif" font-size="11.00">bit[1]</text>
<polygon fill="none" stroke="black" points="456,-123 456,-145 748,-145 748,-123 456,-123"/>
<text text-anchor="start" x="476" y="-131.2" font-family="Helvetica,sans-Serif" font-size="11.00">arrearstolerance_amount</text>
<polygon fill="none" stroke="black" points="748,-123 748,-145 798,-145 798,-123 748,-123"/>
<text text-anchor="start" x="751" y="-131.2" font-family="Helvetica,sans-Serif" font-size="11.00">bit[1]</text>
<polygon fill="none" stroke="black" points="456,-101 456,-123 748,-123 748,-101 456,-101"/>
<text text-anchor="start" x="476" y="-109.2" font-family="Helvetica,sans-Serif" font-size="11.00">repay_every</text>
<polygon fill="none" stroke="black" points="748,-101 748,-123 798,-123 798,-101 748,-101"/>
<text text-anchor="start" x="751" y="-109.2" font-family="Helvetica,sans-Serif" font-size="11.00">bit[1]</text>
<polygon fill="none" stroke="black" points="456,-79 456,-101 748,-101 748,-79 456,-79"/>
<text text-anchor="start" x="476" y="-87.2" font-family="Helvetica,sans-Serif" font-size="11.00">moratorium</text>
<polygon fill="none" stroke="black" points="748,-79 748,-101 798,-101 798,-79 748,-79"/>
<text text-anchor="start" x="751" y="-87.2" font-family="Helvetica,sans-Serif" font-size="11.00">bit[1]</text>
<polygon fill="none" stroke="black" points="456,-57 456,-79 748,-79 748,-57 456,-57"/>
<text text-anchor="start" x="476" y="-65.2" font-family="Helvetica,sans-Serif" font-size="11.00">grace_on_arrears_ageing</text>
<polygon fill="none" stroke="black" points="748,-57 748,-79 798,-79 798,-57 748,-57"/>
<text text-anchor="start" x="751" y="-65.2" font-family="Helvetica,sans-Serif" font-size="11.00">bit[1]</text>
<polygon fill="#ffffff" stroke="transparent" points="456,-39 456,-57 593,-57 593,-39 456,-39"/>
<polygon fill="none" stroke="black" points="456,-39 456,-57 593,-57 593,-39 456,-39"/>
<text text-anchor="start" x="459" y="-45.2" font-family="Helvetica,sans-Serif" font-size="11.00">&lt; 1</text>
<polygon fill="#ffffff" stroke="transparent" points="593,-39 593,-57 748,-57 748,-39 593,-39"/>
<polygon fill="none" stroke="black" points="593,-39 593,-57 748,-57 748,-39 593,-39"/>
<text text-anchor="start" x="712" y="-45.2" font-family="Helvetica,sans-Serif" font-size="11.00">0 rows</text>
<polygon fill="#ffffff" stroke="transparent" points="748,-39 748,-57 798,-57 798,-39 748,-39"/>
<polygon fill="none" stroke="black" points="748,-39 748,-57 798,-57 798,-39 748,-39"/>
<text text-anchor="start" x="779" y="-45.2" font-family="Helvetica,sans-Serif" font-size="11.00">0 &gt;</text>
<polygon fill="none" stroke="black" stroke-width="2" points="455,-38 455,-300 799,-300 799,-38 455,-38"/>
</a>
</g>
</g>
<!-- m_product_loan -->
<g id="node2" class="node">
<title>m_product_loan</title>
<g id="a_node2"><a xlink:href="../../tables/m_product_loan.html" xlink:title="m_product_loan" target="_top">
<polygon fill="#ffffff" stroke="transparent" points="8,-87 8,-277 405,-277 405,-87 8,-87"/>
<polygon fill="#f5f5f5" stroke="transparent" points="8.5,-255 8.5,-277 405.5,-277 405.5,-255 8.5,-255"/>
<polygon fill="none" stroke="black" points="8.5,-255 8.5,-277 405.5,-277 405.5,-255 8.5,-255"/>
<text text-anchor="start" x="13.5" y="-264.2" font-family="Helvetica,sans-Serif" font-weight="bold" font-size="11.00">m_product_loan</text>
<text text-anchor="start" x="370.5" y="-263.2" font-family="Helvetica,sans-Serif" font-size="11.00">[table]</text>
<polygon fill="none" stroke="black" points="8.5,-233 8.5,-255 405.5,-255 405.5,-233 8.5,-233"/>
<image xlink:href="../../images/primaryKeys.png" width="11px" height="12px" preserveAspectRatio="xMinYMin meet" x="13.5" y="-250"/>
<text text-anchor="start" x="28.5" y="-241.2" font-family="Helvetica,sans-Serif" font-size="11.00">id</text>
<polygon fill="#ffffff" stroke="transparent" points="8.5,-211 8.5,-233 405.5,-233 405.5,-211 8.5,-211"/>
<polygon fill="none" stroke="black" points="8.5,-211 8.5,-233 405.5,-233 405.5,-211 8.5,-211"/>
<text text-anchor="start" x="28.5" y="-219.2" font-family="Helvetica,sans-Serif" font-size="11.00">short_name</text>
<polygon fill="#ffffff" stroke="transparent" points="8.5,-189 8.5,-211 405.5,-211 405.5,-189 8.5,-189"/>
<polygon fill="none" stroke="black" points="8.5,-189 8.5,-211 405.5,-211 405.5,-189 8.5,-189"/>
<text text-anchor="start" x="28.5" y="-197.2" font-family="Helvetica,sans-Serif" font-size="11.00">name</text>
<polygon fill="#ffffff" stroke="transparent" points="8.5,-167 8.5,-189 405.5,-189 405.5,-167 8.5,-167"/>
<polygon fill="none" stroke="black" points="8.5,-167 8.5,-189 405.5,-189 405.5,-167 8.5,-167"/>
<image xlink:href="../../images/foreignKeys.png" width="11px" height="12px" preserveAspectRatio="xMinYMin meet" x="13.5" y="-184"/>
<text text-anchor="start" x="28.5" y="-175.2" font-family="Helvetica,sans-Serif" font-size="11.00">fund_id</text>
<polygon fill="#ffffff" stroke="transparent" points="8.5,-145 8.5,-167 405.5,-167 405.5,-145 8.5,-145"/>
<polygon fill="none" stroke="black" points="8.5,-145 8.5,-167 405.5,-167 405.5,-145 8.5,-145"/>
<image xlink:href="../../images/foreignKeys.png" width="11px" height="12px" preserveAspectRatio="xMinYMin meet" x="13.5" y="-162"/>
<text text-anchor="start" x="28.5" y="-153.2" font-family="Helvetica,sans-Serif" font-size="11.00">loan_transaction_strategy_id</text>
<polygon fill="#ffffff" stroke="transparent" points="8.5,-123 8.5,-145 405.5,-145 405.5,-123 8.5,-123"/>
<polygon fill="none" stroke="black" points="8.5,-123 8.5,-145 405.5,-145 405.5,-123 8.5,-123"/>
<text text-anchor="start" x="28.5" y="-131.2" font-family="Helvetica,sans-Serif" font-size="11.00">external_id</text>
<polygon fill="none" stroke="black" points="8.5,-105 8.5,-123 405.5,-123 405.5,-105 8.5,-105"/>
<text text-anchor="start" x="11.5" y="-111.2" font-family="Helvetica,sans-Serif" font-size="11.00">...</text>
<polygon fill="#ffffff" stroke="transparent" points="8.5,-87 8.5,-105 184.5,-105 184.5,-87 8.5,-87"/>
<polygon fill="none" stroke="black" points="8.5,-87 8.5,-105 184.5,-105 184.5,-87 8.5,-87"/>
<text text-anchor="start" x="11.5" y="-93.2" font-family="Helvetica,sans-Serif" font-size="11.00">&lt; 2</text>
<polygon fill="#ffffff" stroke="transparent" points="184.5,-87 184.5,-105 300.5,-105 300.5,-87 184.5,-87"/>
<polygon fill="none" stroke="black" points="184.5,-87 184.5,-105 300.5,-105 300.5,-87 184.5,-87"/>
<text text-anchor="start" x="264.5" y="-93.2" font-family="Helvetica,sans-Serif" font-size="11.00">0 rows</text>
<polygon fill="#ffffff" stroke="transparent" points="300.5,-87 300.5,-105 405.5,-105 405.5,-87 300.5,-87"/>
<polygon fill="none" stroke="black" points="300.5,-87 300.5,-105 405.5,-105 405.5,-87 300.5,-87"/>
<text text-anchor="start" x="380.5" y="-93.2" font-family="Helvetica,sans-Serif" font-size="11.00">14 &gt;</text>
</a>
</g>
</g>
<!-- m_product_loan_configurable_attributes&#45;&gt;m_product_loan -->
<g id="edge1" class="edge">
<title>m_product_loan_configurable_attributes:w&#45;&gt;m_product_loan:e</title>
<path fill="none" stroke="black" d="M440.28,-244C429.29,-244 422.16,-244 406.5,-244"/>
<polygon fill="black" stroke="black" points="447,-244 455,-247.6 451,-244 455,-244 455,-244 455,-244 451,-244 455,-240.4 447,-244 447,-244"/>
<ellipse fill="none" stroke="black" cx="443.8" cy="-244" rx="3.2" ry="3.2"/>
</g>
</g>
</svg>
