<?xml version="1.0" encoding="UTF-8" standalone="no"?>
<!DOCTYPE svg PUBLIC "-//W3C//DTD SVG 1.1//EN"
 "http://www.w3.org/Graphics/SVG/1.1/DTD/svg11.dtd">
<!-- Generated by graphviz version 2.43.0 (0)
 -->
<!-- Title: twoDegreesRelationshipsDiagram Pages: 1 -->
<svg width="1168pt" height="1217pt"
 viewBox="0.00 0.00 1168.00 1217.00" xmlns="http://www.w3.org/2000/svg" xmlns:xlink="http://www.w3.org/1999/xlink">
<g id="graph0" class="graph" transform="scale(1 1) rotate(0) translate(4 1213)">
<title>twoDegreesRelationshipsDiagram</title>
<polygon fill="#ffffff" stroke="transparent" points="-4,4 -4,-1213 1164,-1213 1164,4 -4,4"/>
<text text-anchor="middle" x="71.5" y="-7.2" font-family="Helvetica,sans-Serif" font-size="11.00">Generated by SchemaSpy</text>
<!-- m_creditbureau_loanproduct_mapping -->
<g id="node1" class="node">
<title>m_creditbureau_loanproduct_mapping</title>
<g id="a_node1"><a xlink:href="../../tables/m_creditbureau_loanproduct_mapping.html" xlink:title="m_creditbureau_loanproduct_mapping" target="_top">
<polygon fill="#ffffff" stroke="transparent" points="836,-1068 836,-1126 1085,-1126 1085,-1068 836,-1068"/>
<polygon fill="#f5f5f5" stroke="transparent" points="836.5,-1104 836.5,-1126 1085.5,-1126 1085.5,-1104 836.5,-1104"/>
<polygon fill="none" stroke="black" points="836.5,-1104 836.5,-1126 1085.5,-1126 1085.5,-1104 836.5,-1104"/>
<text text-anchor="start" x="841.5" y="-1113.2" font-family="Helvetica,sans-Serif" font-weight="bold" font-size="11.00">m_creditbureau_loanproduct_mapping</text>
<text text-anchor="start" x="1050.5" y="-1112.2" font-family="Helvetica,sans-Serif" font-size="11.00">[table]</text>
<polygon fill="none" stroke="black" points="836.5,-1086 836.5,-1104 1085.5,-1104 1085.5,-1086 836.5,-1086"/>
<text text-anchor="start" x="839.5" y="-1092.2" font-family="Helvetica,sans-Serif" font-size="11.00">...</text>
<polygon fill="#ffffff" stroke="transparent" points="836.5,-1068 836.5,-1086 945.5,-1086 945.5,-1068 836.5,-1068"/>
<polygon fill="none" stroke="black" points="836.5,-1068 836.5,-1086 945.5,-1086 945.5,-1068 836.5,-1068"/>
<text text-anchor="start" x="839.5" y="-1074.2" font-family="Helvetica,sans-Serif" font-size="11.00">&lt; 2</text>
<polygon fill="#ffffff" stroke="transparent" points="945.5,-1068 945.5,-1086 1028.5,-1086 1028.5,-1068 945.5,-1068"/>
<polygon fill="none" stroke="black" points="945.5,-1068 945.5,-1086 1028.5,-1086 1028.5,-1068 945.5,-1068"/>
<text text-anchor="start" x="992.5" y="-1074.2" font-family="Helvetica,sans-Serif" font-size="11.00">0 rows</text>
<polygon fill="#ffffff" stroke="transparent" points="1028.5,-1068 1028.5,-1086 1085.5,-1086 1085.5,-1068 1028.5,-1068"/>
<polygon fill="none" stroke="black" points="1028.5,-1068 1028.5,-1086 1085.5,-1086 1085.5,-1068 1028.5,-1068"/>
<text text-anchor="start" x="1075.5" y="-1074.2" font-family="Helvetica,sans-Serif" font-size="11.00"> &#160;</text>
</a>
</g>
</g>
<!-- m_product_loan -->
<g id="node2" class="node">
<title>m_product_loan</title>
<g id="a_node2"><a xlink:href="../../tables/m_product_loan.html" xlink:title="m_product_loan" target="_top">
<polygon fill="#ffffff" stroke="transparent" points="323,-582 323,-772 720,-772 720,-582 323,-582"/>
<polygon fill="#f5f5f5" stroke="transparent" points="323.5,-750 323.5,-772 720.5,-772 720.5,-750 323.5,-750"/>
<polygon fill="none" stroke="black" points="323.5,-750 323.5,-772 720.5,-772 720.5,-750 323.5,-750"/>
<text text-anchor="start" x="328.5" y="-759.2" font-family="Helvetica,sans-Serif" font-weight="bold" font-size="11.00">m_product_loan</text>
<text text-anchor="start" x="685.5" y="-758.2" font-family="Helvetica,sans-Serif" font-size="11.00">[table]</text>
<polygon fill="none" stroke="black" points="323.5,-728 323.5,-750 720.5,-750 720.5,-728 323.5,-728"/>
<image xlink:href="../../images/primaryKeys.png" width="11px" height="12px" preserveAspectRatio="xMinYMin meet" x="328.5" y="-745"/>
<text text-anchor="start" x="343.5" y="-736.2" font-family="Helvetica,sans-Serif" font-size="11.00">id</text>
<polygon fill="#ffffff" stroke="transparent" points="323.5,-706 323.5,-728 720.5,-728 720.5,-706 323.5,-706"/>
<polygon fill="none" stroke="black" points="323.5,-706 323.5,-728 720.5,-728 720.5,-706 323.5,-706"/>
<text text-anchor="start" x="343.5" y="-714.2" font-family="Helvetica,sans-Serif" font-size="11.00">short_name</text>
<polygon fill="#ffffff" stroke="transparent" points="323.5,-684 323.5,-706 720.5,-706 720.5,-684 323.5,-684"/>
<polygon fill="none" stroke="black" points="323.5,-684 323.5,-706 720.5,-706 720.5,-684 323.5,-684"/>
<text text-anchor="start" x="343.5" y="-692.2" font-family="Helvetica,sans-Serif" font-size="11.00">name</text>
<polygon fill="#ffffff" stroke="transparent" points="323.5,-662 323.5,-684 720.5,-684 720.5,-662 323.5,-662"/>
<polygon fill="none" stroke="black" points="323.5,-662 323.5,-684 720.5,-684 720.5,-662 323.5,-662"/>
<image xlink:href="../../images/foreignKeys.png" width="11px" height="12px" preserveAspectRatio="xMinYMin meet" x="328.5" y="-679"/>
<text text-anchor="start" x="343.5" y="-670.2" font-family="Helvetica,sans-Serif" font-size="11.00">fund_id</text>
<polygon fill="#ffffff" stroke="transparent" points="323.5,-640 323.5,-662 720.5,-662 720.5,-640 323.5,-640"/>
<polygon fill="none" stroke="black" points="323.5,-640 323.5,-662 720.5,-662 720.5,-640 323.5,-640"/>
<image xlink:href="../../images/foreignKeys.png" width="11px" height="12px" preserveAspectRatio="xMinYMin meet" x="328.5" y="-657"/>
<text text-anchor="start" x="343.5" y="-648.2" font-family="Helvetica,sans-Serif" font-size="11.00">loan_transaction_strategy_id</text>
<polygon fill="#ffffff" stroke="transparent" points="323.5,-618 323.5,-640 720.5,-640 720.5,-618 323.5,-618"/>
<polygon fill="none" stroke="black" points="323.5,-618 323.5,-640 720.5,-640 720.5,-618 323.5,-618"/>
<text text-anchor="start" x="343.5" y="-626.2" font-family="Helvetica,sans-Serif" font-size="11.00">external_id</text>
<polygon fill="none" stroke="black" points="323.5,-600 323.5,-618 720.5,-618 720.5,-600 323.5,-600"/>
<text text-anchor="start" x="326.5" y="-606.2" font-family="Helvetica,sans-Serif" font-size="11.00">...</text>
<polygon fill="#ffffff" stroke="transparent" points="323.5,-582 323.5,-600 499.5,-600 499.5,-582 323.5,-582"/>
<polygon fill="none" stroke="black" points="323.5,-582 323.5,-600 499.5,-600 499.5,-582 323.5,-582"/>
<text text-anchor="start" x="326.5" y="-588.2" font-family="Helvetica,sans-Serif" font-size="11.00">&lt; 2</text>
<polygon fill="#ffffff" stroke="transparent" points="499.5,-582 499.5,-600 615.5,-600 615.5,-582 499.5,-582"/>
<polygon fill="none" stroke="black" points="499.5,-582 499.5,-600 615.5,-600 615.5,-582 499.5,-582"/>
<text text-anchor="start" x="579.5" y="-588.2" font-family="Helvetica,sans-Serif" font-size="11.00">0 rows</text>
<polygon fill="#ffffff" stroke="transparent" points="615.5,-582 615.5,-600 720.5,-600 720.5,-582 615.5,-582"/>
<polygon fill="none" stroke="black" points="615.5,-582 615.5,-600 720.5,-600 720.5,-582 615.5,-582"/>
<text text-anchor="start" x="695.5" y="-588.2" font-family="Helvetica,sans-Serif" font-size="11.00">14 &gt;</text>
</a>
</g>
</g>
<!-- m_creditbureau_loanproduct_mapping&#45;&gt;m_product_loan -->
<g id="edge1" class="edge">
<title>m_creditbureau_loanproduct_mapping:w&#45;&gt;m_product_loan:e</title>
<path fill="none" stroke="black" d="M821.07,-1094.55C793.88,-1092.62 779.37,-1083.92 761,-1058 719.7,-999.72 792.93,-739 721.5,-739"/>
<polygon fill="black" stroke="black" points="827.5,-1094.75 835.39,-1098.6 831.5,-1094.87 835.5,-1095 835.5,-1095 835.5,-1095 831.5,-1094.87 835.61,-1091.4 827.5,-1094.75 827.5,-1094.75"/>
<ellipse fill="none" stroke="black" cx="824.31" cy="-1094.65" rx="3.2" ry="3.2"/>
</g>
<!-- m_fund -->
<g id="node4" class="node">
<title>m_fund</title>
<g id="a_node4"><a xlink:href="../../tables/m_fund.html" xlink:title="m_fund" target="_top">
<polygon fill="#ffffff" stroke="transparent" points="99,-970 99,-1028 183,-1028 183,-970 99,-970"/>
<polygon fill="#f5f5f5" stroke="transparent" points="99,-1006 99,-1028 183,-1028 183,-1006 99,-1006"/>
<polygon fill="none" stroke="black" points="99,-1006 99,-1028 183,-1028 183,-1006 99,-1006"/>
<text text-anchor="start" x="104" y="-1015.2" font-family="Helvetica,sans-Serif" font-weight="bold" font-size="11.00">m_fund</text>
<text text-anchor="start" x="148" y="-1014.2" font-family="Helvetica,sans-Serif" font-size="11.00">[table]</text>
<polygon fill="none" stroke="black" points="99,-988 99,-1006 183,-1006 183,-988 99,-988"/>
<text text-anchor="start" x="102" y="-994.2" font-family="Helvetica,sans-Serif" font-size="11.00">...</text>
<polygon fill="#ffffff" stroke="transparent" points="99,-970 99,-988 117,-988 117,-970 99,-970"/>
<polygon fill="none" stroke="black" points="99,-970 99,-988 117,-988 117,-970 99,-970"/>
<text text-anchor="start" x="102" y="-976.2" font-family="Helvetica,sans-Serif" font-size="11.00"> &#160;</text>
<polygon fill="#ffffff" stroke="transparent" points="117,-970 117,-988 158,-988 158,-970 117,-970"/>
<polygon fill="none" stroke="black" points="117,-970 117,-988 158,-988 158,-970 117,-970"/>
<text text-anchor="start" x="122" y="-976.2" font-family="Helvetica,sans-Serif" font-size="11.00">0 rows</text>
<polygon fill="#ffffff" stroke="transparent" points="158,-970 158,-988 183,-988 183,-970 158,-970"/>
<polygon fill="none" stroke="black" points="158,-970 158,-988 183,-988 183,-970 158,-970"/>
<text text-anchor="start" x="164" y="-976.2" font-family="Helvetica,sans-Serif" font-size="11.00">2 &gt;</text>
</a>
</g>
</g>
<!-- m_product_loan&#45;&gt;m_fund -->
<g id="edge7" class="edge">
<title>m_product_loan:w&#45;&gt;m_fund:e</title>
<path fill="none" stroke="black" d="M307.92,-675.25C277.17,-686.7 299.5,-739.65 282,-782 241.91,-879.06 289.01,-997 184,-997"/>
<polygon fill="black" stroke="black" points="314.59,-674.22 323.05,-676.56 318.55,-673.61 322.5,-673 322.5,-673 322.5,-673 318.55,-673.61 321.95,-669.44 314.59,-674.22 314.59,-674.22"/>
<ellipse fill="none" stroke="black" cx="311.43" cy="-674.71" rx="3.2" ry="3.2"/>
</g>
<!-- ref_loan_transaction_processing_strategy -->
<g id="node5" class="node">
<title>ref_loan_transaction_processing_strategy</title>
<g id="a_node5"><a xlink:href="../../tables/ref_loan_transaction_processing_strategy.html" xlink:title="ref_loan_transaction_processing_strategy" target="_top">
<polygon fill="#ffffff" stroke="transparent" points="8,-713 8,-771 274,-771 274,-713 8,-713"/>
<polygon fill="#f5f5f5" stroke="transparent" points="8,-749 8,-771 274,-771 274,-749 8,-749"/>
<polygon fill="none" stroke="black" points="8,-749 8,-771 274,-771 274,-749 8,-749"/>
<text text-anchor="start" x="13" y="-758.2" font-family="Helvetica,sans-Serif" font-weight="bold" font-size="11.00">ref_loan_transaction_processing_strategy</text>
<text text-anchor="start" x="239" y="-757.2" font-family="Helvetica,sans-Serif" font-size="11.00">[table]</text>
<polygon fill="none" stroke="black" points="8,-731 8,-749 274,-749 274,-731 8,-731"/>
<text text-anchor="start" x="11" y="-737.2" font-family="Helvetica,sans-Serif" font-size="11.00">...</text>
<polygon fill="#ffffff" stroke="transparent" points="8,-713 8,-731 117,-731 117,-713 8,-713"/>
<polygon fill="none" stroke="black" points="8,-713 8,-731 117,-731 117,-713 8,-713"/>
<text text-anchor="start" x="11" y="-719.2" font-family="Helvetica,sans-Serif" font-size="11.00"> &#160;</text>
<polygon fill="#ffffff" stroke="transparent" points="117,-713 117,-731 204,-731 204,-713 117,-713"/>
<polygon fill="none" stroke="black" points="117,-713 117,-731 204,-731 204,-713 117,-713"/>
<text text-anchor="start" x="168" y="-719.2" font-family="Helvetica,sans-Serif" font-size="11.00">0 rows</text>
<polygon fill="#ffffff" stroke="transparent" points="204,-713 204,-731 274,-731 274,-713 204,-713"/>
<polygon fill="none" stroke="black" points="204,-713 204,-731 274,-731 274,-713 204,-713"/>
<text text-anchor="start" x="255" y="-719.2" font-family="Helvetica,sans-Serif" font-size="11.00">2 &gt;</text>
</a>
</g>
</g>
<!-- m_product_loan&#45;&gt;ref_loan_transaction_processing_strategy -->
<g id="edge8" class="edge">
<title>m_product_loan:w&#45;&gt;ref_loan_transaction_processing_strategy:e</title>
<path fill="none" stroke="black" d="M308.54,-655.54C287.57,-673.67 313.71,-740 275,-740"/>
<polygon fill="black" stroke="black" points="314.89,-653.47 323.61,-654.42 318.7,-652.24 322.5,-651 322.5,-651 322.5,-651 318.7,-652.24 321.39,-647.58 314.89,-653.47 314.89,-653.47"/>
<ellipse fill="none" stroke="black" cx="311.85" cy="-654.46" rx="3.2" ry="3.2"/>
</g>
<!-- m_loan -->
<g id="node3" class="node">
<title>m_loan</title>
<g id="a_node3"><a xlink:href="../../tables/m_loan.html" xlink:title="m_loan" target="_top">
<polygon fill="#ffffff" stroke="transparent" points="913,-1147 913,-1205 1008,-1205 1008,-1147 913,-1147"/>
<polygon fill="#f5f5f5" stroke="transparent" points="913.5,-1183 913.5,-1205 1008.5,-1205 1008.5,-1183 913.5,-1183"/>
<polygon fill="none" stroke="black" points="913.5,-1183 913.5,-1205 1008.5,-1205 1008.5,-1183 913.5,-1183"/>
<text text-anchor="start" x="918.5" y="-1192.2" font-family="Helvetica,sans-Serif" font-weight="bold" font-size="11.00">m_loan</text>
<text text-anchor="start" x="973.5" y="-1191.2" font-family="Helvetica,sans-Serif" font-size="11.00">[table]</text>
<polygon fill="none" stroke="black" points="913.5,-1165 913.5,-1183 1008.5,-1183 1008.5,-1165 913.5,-1165"/>
<text text-anchor="start" x="916.5" y="-1171.2" font-family="Helvetica,sans-Serif" font-size="11.00">...</text>
<polygon fill="#ffffff" stroke="transparent" points="913.5,-1147 913.5,-1165 941.5,-1165 941.5,-1147 913.5,-1147"/>
<polygon fill="none" stroke="black" points="913.5,-1147 913.5,-1165 941.5,-1165 941.5,-1147 913.5,-1147"/>
<text text-anchor="start" x="916.5" y="-1153.2" font-family="Helvetica,sans-Serif" font-size="11.00">&lt; 15</text>
<polygon fill="#ffffff" stroke="transparent" points="941.5,-1147 941.5,-1165 980.5,-1165 980.5,-1147 941.5,-1147"/>
<polygon fill="none" stroke="black" points="941.5,-1147 941.5,-1165 980.5,-1165 980.5,-1147 941.5,-1147"/>
<text text-anchor="start" x="944.5" y="-1153.2" font-family="Helvetica,sans-Serif" font-size="11.00">0 rows</text>
<polygon fill="#ffffff" stroke="transparent" points="980.5,-1147 980.5,-1165 1008.5,-1165 1008.5,-1147 980.5,-1147"/>
<polygon fill="none" stroke="black" points="980.5,-1147 980.5,-1165 1008.5,-1165 1008.5,-1147 980.5,-1147"/>
<text text-anchor="start" x="983.5" y="-1153.2" font-family="Helvetica,sans-Serif" font-size="11.00">24 &gt;</text>
</a>
</g>
</g>
<!-- m_loan&#45;&gt;m_product_loan -->
<g id="edge4" class="edge">
<title>m_loan:w&#45;&gt;m_product_loan:e</title>
<path fill="none" stroke="black" d="M897.97,-1174.21C837.83,-1175.86 803.16,-1185.55 761,-1137 702.72,-1069.89 810.38,-739 721.5,-739"/>
<polygon fill="black" stroke="black" points="904.5,-1174.12 912.55,-1177.6 908.5,-1174.06 912.5,-1174 912.5,-1174 912.5,-1174 908.5,-1174.06 912.45,-1170.4 904.5,-1174.12 904.5,-1174.12"/>
<ellipse fill="none" stroke="black" cx="901.3" cy="-1174.16" rx="3.2" ry="3.2"/>
</g>
<!-- m_loan&#45;&gt;m_fund -->
<g id="edge2" class="edge">
<title>m_loan:w&#45;&gt;m_fund:e</title>
<path fill="none" stroke="black" d="M898.03,-1173.89C577.42,-1168.85 512.32,-997 184,-997"/>
<polygon fill="black" stroke="black" points="904.5,-1173.94 912.47,-1177.6 908.5,-1173.97 912.5,-1174 912.5,-1174 912.5,-1174 908.5,-1173.97 912.53,-1170.4 904.5,-1173.94 904.5,-1173.94"/>
<ellipse fill="none" stroke="black" cx="901.3" cy="-1173.91" rx="3.2" ry="3.2"/>
</g>
<!-- m_loan&#45;&gt;ref_loan_transaction_processing_strategy -->
<g id="edge3" class="edge">
<title>m_loan:w&#45;&gt;ref_loan_transaction_processing_strategy:e</title>
<path fill="none" stroke="black" d="M898.02,-1174.16C838.33,-1175.39 806.63,-1182.3 761,-1137 718.39,-1094.7 764.87,-1053.39 728,-1006 599.9,-841.36 480.01,-910.62 315,-783 294.35,-767.03 301.1,-740 275,-740"/>
<polygon fill="black" stroke="black" points="904.5,-1174.09 912.54,-1177.6 908.5,-1174.04 912.5,-1174 912.5,-1174 912.5,-1174 908.5,-1174.04 912.46,-1170.4 904.5,-1174.09 904.5,-1174.09"/>
<ellipse fill="none" stroke="black" cx="901.3" cy="-1174.12" rx="3.2" ry="3.2"/>
</g>
<!-- m_loanproduct_provisioning_entry -->
<g id="node6" class="node">
<title>m_loanproduct_provisioning_entry</title>
<g id="a_node6"><a xlink:href="../../tables/m_loanproduct_provisioning_entry.html" xlink:title="m_loanproduct_provisioning_entry" target="_top">
<polygon fill="#ffffff" stroke="transparent" points="846,-989 846,-1047 1075,-1047 1075,-989 846,-989"/>
<polygon fill="#f5f5f5" stroke="transparent" points="846.5,-1025 846.5,-1047 1075.5,-1047 1075.5,-1025 846.5,-1025"/>
<polygon fill="none" stroke="black" points="846.5,-1025 846.5,-1047 1075.5,-1047 1075.5,-1025 846.5,-1025"/>
<text text-anchor="start" x="851.5" y="-1034.2" font-family="Helvetica,sans-Serif" font-weight="bold" font-size="11.00">m_loanproduct_provisioning_entry</text>
<text text-anchor="start" x="1040.5" y="-1033.2" font-family="Helvetica,sans-Serif" font-size="11.00">[table]</text>
<polygon fill="none" stroke="black" points="846.5,-1007 846.5,-1025 1075.5,-1025 1075.5,-1007 846.5,-1007"/>
<text text-anchor="start" x="849.5" y="-1013.2" font-family="Helvetica,sans-Serif" font-size="11.00">...</text>
<polygon fill="#ffffff" stroke="transparent" points="846.5,-989 846.5,-1007 945.5,-1007 945.5,-989 846.5,-989"/>
<polygon fill="none" stroke="black" points="846.5,-989 846.5,-1007 945.5,-1007 945.5,-989 846.5,-989"/>
<text text-anchor="start" x="849.5" y="-995.2" font-family="Helvetica,sans-Serif" font-size="11.00">&lt; 7</text>
<polygon fill="#ffffff" stroke="transparent" points="945.5,-989 945.5,-1007 1023.5,-1007 1023.5,-989 945.5,-989"/>
<polygon fill="none" stroke="black" points="945.5,-989 945.5,-1007 1023.5,-1007 1023.5,-989 945.5,-989"/>
<text text-anchor="start" x="987.5" y="-995.2" font-family="Helvetica,sans-Serif" font-size="11.00">0 rows</text>
<polygon fill="#ffffff" stroke="transparent" points="1023.5,-989 1023.5,-1007 1075.5,-1007 1075.5,-989 1023.5,-989"/>
<polygon fill="none" stroke="black" points="1023.5,-989 1023.5,-1007 1075.5,-1007 1075.5,-989 1023.5,-989"/>
<text text-anchor="start" x="1065.5" y="-995.2" font-family="Helvetica,sans-Serif" font-size="11.00"> &#160;</text>
</a>
</g>
</g>
<!-- m_loanproduct_provisioning_entry&#45;&gt;m_product_loan -->
<g id="edge5" class="edge">
<title>m_loanproduct_provisioning_entry:w&#45;&gt;m_product_loan:e</title>
<path fill="none" stroke="black" d="M830.71,-1015.72C799.66,-1014.35 782.91,-1007.2 761,-979 727.83,-936.32 775.55,-739 721.5,-739"/>
<polygon fill="black" stroke="black" points="837.5,-1015.85 845.43,-1019.6 841.5,-1015.92 845.5,-1016 845.5,-1016 845.5,-1016 841.5,-1015.92 845.57,-1012.4 837.5,-1015.85 837.5,-1015.85"/>
<ellipse fill="none" stroke="black" cx="834.3" cy="-1015.79" rx="3.2" ry="3.2"/>
</g>
<!-- m_loanproduct_provisioning_mapping -->
<g id="node7" class="node">
<title>m_loanproduct_provisioning_mapping</title>
<g id="a_node7"><a xlink:href="../../tables/m_loanproduct_provisioning_mapping.html" xlink:title="m_loanproduct_provisioning_mapping" target="_top">
<polygon fill="#ffffff" stroke="transparent" points="836.5,-910 836.5,-968 1084.5,-968 1084.5,-910 836.5,-910"/>
<polygon fill="#f5f5f5" stroke="transparent" points="836.5,-946 836.5,-968 1084.5,-968 1084.5,-946 836.5,-946"/>
<polygon fill="none" stroke="black" points="836.5,-946 836.5,-968 1084.5,-968 1084.5,-946 836.5,-946"/>
<text text-anchor="start" x="841.5" y="-955.2" font-family="Helvetica,sans-Serif" font-weight="bold" font-size="11.00">m_loanproduct_provisioning_mapping</text>
<text text-anchor="start" x="1049.5" y="-954.2" font-family="Helvetica,sans-Serif" font-size="11.00">[table]</text>
<polygon fill="none" stroke="black" points="836.5,-928 836.5,-946 1084.5,-946 1084.5,-928 836.5,-928"/>
<text text-anchor="start" x="839.5" y="-934.2" font-family="Helvetica,sans-Serif" font-size="11.00">...</text>
<polygon fill="#ffffff" stroke="transparent" points="836.5,-910 836.5,-928 945.5,-928 945.5,-910 836.5,-910"/>
<polygon fill="none" stroke="black" points="836.5,-910 836.5,-928 945.5,-928 945.5,-910 836.5,-910"/>
<text text-anchor="start" x="839.5" y="-916.2" font-family="Helvetica,sans-Serif" font-size="11.00">&lt; 2</text>
<polygon fill="#ffffff" stroke="transparent" points="945.5,-910 945.5,-928 1027.5,-928 1027.5,-910 945.5,-910"/>
<polygon fill="none" stroke="black" points="945.5,-910 945.5,-928 1027.5,-928 1027.5,-910 945.5,-910"/>
<text text-anchor="start" x="991.5" y="-916.2" font-family="Helvetica,sans-Serif" font-size="11.00">0 rows</text>
<polygon fill="#ffffff" stroke="transparent" points="1027.5,-910 1027.5,-928 1084.5,-928 1084.5,-910 1027.5,-910"/>
<polygon fill="none" stroke="black" points="1027.5,-910 1027.5,-928 1084.5,-928 1084.5,-910 1027.5,-910"/>
<text text-anchor="start" x="1074.5" y="-916.2" font-family="Helvetica,sans-Serif" font-size="11.00"> &#160;</text>
</a>
</g>
</g>
<!-- m_loanproduct_provisioning_mapping&#45;&gt;m_product_loan -->
<g id="edge6" class="edge">
<title>m_loanproduct_provisioning_mapping:w&#45;&gt;m_product_loan:e</title>
<path fill="none" stroke="black" d="M824.9,-936.73C795.51,-935.13 781.76,-925.93 761,-900 714.95,-842.49 795.18,-739 721.5,-739"/>
<polygon fill="black" stroke="black" points="834.8,-932.98 834.6,-940.98 833,-940.94 833.2,-932.94 834.8,-932.98"/>
<polyline fill="none" stroke="black" points="835.5,-937 831.5,-936.9 "/>
<ellipse fill="none" stroke="black" cx="828.3" cy="-936.82" rx="3.2" ry="3.2"/>
</g>
<!-- m_product_loan_charge -->
<g id="node8" class="node">
<title>m_product_loan_charge</title>
<g id="a_node8"><a xlink:href="../../tables/m_product_loan_charge.html" xlink:title="m_product_loan_charge" target="_top">
<polygon fill="#ffffff" stroke="transparent" points="874.5,-831 874.5,-889 1046.5,-889 1046.5,-831 874.5,-831"/>
<polygon fill="#f5f5f5" stroke="transparent" points="874.5,-867 874.5,-889 1046.5,-889 1046.5,-867 874.5,-867"/>
<polygon fill="none" stroke="black" points="874.5,-867 874.5,-889 1046.5,-889 1046.5,-867 874.5,-867"/>
<text text-anchor="start" x="879.5" y="-876.2" font-family="Helvetica,sans-Serif" font-weight="bold" font-size="11.00">m_product_loan_charge</text>
<text text-anchor="start" x="1011.5" y="-875.2" font-family="Helvetica,sans-Serif" font-size="11.00">[table]</text>
<polygon fill="none" stroke="black" points="874.5,-849 874.5,-867 1046.5,-867 1046.5,-849 874.5,-849"/>
<text text-anchor="start" x="877.5" y="-855.2" font-family="Helvetica,sans-Serif" font-size="11.00">...</text>
<polygon fill="#ffffff" stroke="transparent" points="874.5,-831 874.5,-849 945.5,-849 945.5,-831 874.5,-831"/>
<polygon fill="none" stroke="black" points="874.5,-831 874.5,-849 945.5,-849 945.5,-831 874.5,-831"/>
<text text-anchor="start" x="877.5" y="-837.2" font-family="Helvetica,sans-Serif" font-size="11.00">&lt; 2</text>
<polygon fill="#ffffff" stroke="transparent" points="945.5,-831 945.5,-849 1008.5,-849 1008.5,-831 945.5,-831"/>
<polygon fill="none" stroke="black" points="945.5,-831 945.5,-849 1008.5,-849 1008.5,-831 945.5,-831"/>
<text text-anchor="start" x="972.5" y="-837.2" font-family="Helvetica,sans-Serif" font-size="11.00">0 rows</text>
<polygon fill="#ffffff" stroke="transparent" points="1008.5,-831 1008.5,-849 1046.5,-849 1046.5,-831 1008.5,-831"/>
<polygon fill="none" stroke="black" points="1008.5,-831 1008.5,-849 1046.5,-849 1046.5,-831 1008.5,-831"/>
<text text-anchor="start" x="1036.5" y="-837.2" font-family="Helvetica,sans-Serif" font-size="11.00"> &#160;</text>
</a>
</g>
</g>
<!-- m_product_loan_charge&#45;&gt;m_product_loan -->
<g id="edge9" class="edge">
<title>m_product_loan_charge:w&#45;&gt;m_product_loan:e</title>
<path fill="none" stroke="black" d="M858.96,-857.91C816.72,-857.24 796.71,-852.31 761,-821 730.58,-794.33 761.95,-739 721.5,-739"/>
<polygon fill="black" stroke="black" points="865.5,-857.95 873.48,-861.6 869.5,-857.97 873.5,-858 873.5,-858 873.5,-858 869.5,-857.97 873.52,-854.4 865.5,-857.95 865.5,-857.95"/>
<ellipse fill="none" stroke="black" cx="862.3" cy="-857.93" rx="3.2" ry="3.2"/>
</g>
<!-- m_product_loan_configurable_attributes -->
<g id="node9" class="node">
<title>m_product_loan_configurable_attributes</title>
<g id="a_node9"><a xlink:href="../../tables/m_product_loan_configurable_attributes.html" xlink:title="m_product_loan_configurable_attributes" target="_top">
<polygon fill="#ffffff" stroke="transparent" points="831.5,-752 831.5,-810 1089.5,-810 1089.5,-752 831.5,-752"/>
<polygon fill="#f5f5f5" stroke="transparent" points="831.5,-788 831.5,-810 1089.5,-810 1089.5,-788 831.5,-788"/>
<polygon fill="none" stroke="black" points="831.5,-788 831.5,-810 1089.5,-810 1089.5,-788 831.5,-788"/>
<text text-anchor="start" x="836.5" y="-797.2" font-family="Helvetica,sans-Serif" font-weight="bold" font-size="11.00">m_product_loan_configurable_attributes</text>
<text text-anchor="start" x="1054.5" y="-796.2" font-family="Helvetica,sans-Serif" font-size="11.00">[table]</text>
<polygon fill="none" stroke="black" points="831.5,-770 831.5,-788 1089.5,-788 1089.5,-770 831.5,-770"/>
<text text-anchor="start" x="834.5" y="-776.2" font-family="Helvetica,sans-Serif" font-size="11.00">...</text>
<polygon fill="#ffffff" stroke="transparent" points="831.5,-752 831.5,-770 945.5,-770 945.5,-752 831.5,-752"/>
<polygon fill="none" stroke="black" points="831.5,-752 831.5,-770 945.5,-770 945.5,-752 831.5,-752"/>
<text text-anchor="start" x="834.5" y="-758.2" font-family="Helvetica,sans-Serif" font-size="11.00">&lt; 1</text>
<polygon fill="#ffffff" stroke="transparent" points="945.5,-752 945.5,-770 1030.5,-770 1030.5,-752 945.5,-752"/>
<polygon fill="none" stroke="black" points="945.5,-752 945.5,-770 1030.5,-770 1030.5,-752 945.5,-752"/>
<text text-anchor="start" x="994.5" y="-758.2" font-family="Helvetica,sans-Serif" font-size="11.00">0 rows</text>
<polygon fill="#ffffff" stroke="transparent" points="1030.5,-752 1030.5,-770 1089.5,-770 1089.5,-752 1030.5,-752"/>
<polygon fill="none" stroke="black" points="1030.5,-752 1030.5,-770 1089.5,-770 1089.5,-752 1030.5,-752"/>
<text text-anchor="start" x="1079.5" y="-758.2" font-family="Helvetica,sans-Serif" font-size="11.00"> &#160;</text>
</a>
</g>
</g>
<!-- m_product_loan_configurable_attributes&#45;&gt;m_product_loan -->
<g id="edge10" class="edge">
<title>m_product_loan_configurable_attributes:w&#45;&gt;m_product_loan:e</title>
<path fill="none" stroke="black" d="M816.1,-777.85C777.25,-771.29 767.86,-739 721.5,-739"/>
<polygon fill="black" stroke="black" points="822.53,-778.36 830.21,-782.59 826.51,-778.68 830.5,-779 830.5,-779 830.5,-779 826.51,-778.68 830.79,-775.41 822.53,-778.36 822.53,-778.36"/>
<ellipse fill="none" stroke="black" cx="819.34" cy="-778.11" rx="3.2" ry="3.2"/>
</g>
<!-- m_product_loan_floating_rates -->
<g id="node10" class="node">
<title>m_product_loan_floating_rates</title>
<g id="a_node10"><a xlink:href="../../tables/m_product_loan_floating_rates.html" xlink:title="m_product_loan_floating_rates" target="_top">
<polygon fill="#ffffff" stroke="transparent" points="856.5,-673 856.5,-731 1064.5,-731 1064.5,-673 856.5,-673"/>
<polygon fill="#f5f5f5" stroke="transparent" points="856.5,-709 856.5,-731 1064.5,-731 1064.5,-709 856.5,-709"/>
<polygon fill="none" stroke="black" points="856.5,-709 856.5,-731 1064.5,-731 1064.5,-709 856.5,-709"/>
<text text-anchor="start" x="861.5" y="-718.2" font-family="Helvetica,sans-Serif" font-weight="bold" font-size="11.00">m_product_loan_floating_rates</text>
<text text-anchor="start" x="1029.5" y="-717.2" font-family="Helvetica,sans-Serif" font-size="11.00">[table]</text>
<polygon fill="none" stroke="black" points="856.5,-691 856.5,-709 1064.5,-709 1064.5,-691 856.5,-691"/>
<text text-anchor="start" x="859.5" y="-697.2" font-family="Helvetica,sans-Serif" font-size="11.00">...</text>
<polygon fill="#ffffff" stroke="transparent" points="856.5,-673 856.5,-691 945.5,-691 945.5,-673 856.5,-673"/>
<polygon fill="none" stroke="black" points="856.5,-673 856.5,-691 945.5,-691 945.5,-673 856.5,-673"/>
<text text-anchor="start" x="859.5" y="-679.2" font-family="Helvetica,sans-Serif" font-size="11.00">&lt; 2</text>
<polygon fill="#ffffff" stroke="transparent" points="945.5,-673 945.5,-691 1017.5,-691 1017.5,-673 945.5,-673"/>
<polygon fill="none" stroke="black" points="945.5,-673 945.5,-691 1017.5,-691 1017.5,-673 945.5,-673"/>
<text text-anchor="start" x="981.5" y="-679.2" font-family="Helvetica,sans-Serif" font-size="11.00">0 rows</text>
<polygon fill="#ffffff" stroke="transparent" points="1017.5,-673 1017.5,-691 1064.5,-691 1064.5,-673 1017.5,-673"/>
<polygon fill="none" stroke="black" points="1017.5,-673 1017.5,-691 1064.5,-691 1064.5,-673 1017.5,-673"/>
<text text-anchor="start" x="1054.5" y="-679.2" font-family="Helvetica,sans-Serif" font-size="11.00"> &#160;</text>
</a>
</g>
</g>
<!-- m_product_loan_floating_rates&#45;&gt;m_product_loan -->
<g id="edge11" class="edge">
<title>m_product_loan_floating_rates:w&#45;&gt;m_product_loan:e</title>
<path fill="none" stroke="black" d="M840.91,-700.78C791.44,-706.28 778.32,-739 721.5,-739"/>
<polygon fill="black" stroke="black" points="847.51,-700.43 855.69,-703.59 851.51,-700.21 855.5,-700 855.5,-700 855.5,-700 851.51,-700.21 855.31,-696.41 847.51,-700.43 847.51,-700.43"/>
<ellipse fill="none" stroke="black" cx="844.32" cy="-700.6" rx="3.2" ry="3.2"/>
</g>
<!-- m_product_loan_guarantee_details -->
<g id="node11" class="node">
<title>m_product_loan_guarantee_details</title>
<g id="a_node11"><a xlink:href="../../tables/m_product_loan_guarantee_details.html" xlink:title="m_product_loan_guarantee_details" target="_top">
<polygon fill="#ffffff" stroke="transparent" points="846,-594 846,-652 1075,-652 1075,-594 846,-594"/>
<polygon fill="#f5f5f5" stroke="transparent" points="846.5,-630 846.5,-652 1075.5,-652 1075.5,-630 846.5,-630"/>
<polygon fill="none" stroke="black" points="846.5,-630 846.5,-652 1075.5,-652 1075.5,-630 846.5,-630"/>
<text text-anchor="start" x="851.5" y="-639.2" font-family="Helvetica,sans-Serif" font-weight="bold" font-size="11.00">m_product_loan_guarantee_details</text>
<text text-anchor="start" x="1040.5" y="-638.2" font-family="Helvetica,sans-Serif" font-size="11.00">[table]</text>
<polygon fill="none" stroke="black" points="846.5,-612 846.5,-630 1075.5,-630 1075.5,-612 846.5,-612"/>
<text text-anchor="start" x="849.5" y="-618.2" font-family="Helvetica,sans-Serif" font-size="11.00">...</text>
<polygon fill="#ffffff" stroke="transparent" points="846.5,-594 846.5,-612 945.5,-612 945.5,-594 846.5,-594"/>
<polygon fill="none" stroke="black" points="846.5,-594 846.5,-612 945.5,-612 945.5,-594 846.5,-594"/>
<text text-anchor="start" x="849.5" y="-600.2" font-family="Helvetica,sans-Serif" font-size="11.00">&lt; 1</text>
<polygon fill="#ffffff" stroke="transparent" points="945.5,-594 945.5,-612 1023.5,-612 1023.5,-594 945.5,-594"/>
<polygon fill="none" stroke="black" points="945.5,-594 945.5,-612 1023.5,-612 1023.5,-594 945.5,-594"/>
<text text-anchor="start" x="987.5" y="-600.2" font-family="Helvetica,sans-Serif" font-size="11.00">0 rows</text>
<polygon fill="#ffffff" stroke="transparent" points="1023.5,-594 1023.5,-612 1075.5,-612 1075.5,-594 1023.5,-594"/>
<polygon fill="none" stroke="black" points="1023.5,-594 1023.5,-612 1075.5,-612 1075.5,-594 1023.5,-594"/>
<text text-anchor="start" x="1065.5" y="-600.2" font-family="Helvetica,sans-Serif" font-size="11.00"> &#160;</text>
</a>
</g>
</g>
<!-- m_product_loan_guarantee_details&#45;&gt;m_product_loan -->
<g id="edge12" class="edge">
<title>m_product_loan_guarantee_details:w&#45;&gt;m_product_loan:e</title>
<path fill="none" stroke="black" d="M831.06,-621.6C800.13,-624.42 787.18,-637.29 761,-663 733.84,-689.67 759.57,-739 721.5,-739"/>
<polygon fill="black" stroke="black" points="837.51,-621.33 845.65,-624.6 841.5,-621.17 845.5,-621 845.5,-621 845.5,-621 841.5,-621.17 845.35,-617.4 837.51,-621.33 837.51,-621.33"/>
<ellipse fill="none" stroke="black" cx="834.31" cy="-621.46" rx="3.2" ry="3.2"/>
</g>
<!-- m_product_loan_rate -->
<g id="node12" class="node">
<title>m_product_loan_rate</title>
<g id="a_node12"><a xlink:href="../../tables/m_product_loan_rate.html" xlink:title="m_product_loan_rate" target="_top">
<polygon fill="#ffffff" stroke="transparent" points="882.5,-515 882.5,-573 1038.5,-573 1038.5,-515 882.5,-515"/>
<polygon fill="#f5f5f5" stroke="transparent" points="882.5,-551 882.5,-573 1038.5,-573 1038.5,-551 882.5,-551"/>
<polygon fill="none" stroke="black" points="882.5,-551 882.5,-573 1038.5,-573 1038.5,-551 882.5,-551"/>
<text text-anchor="start" x="887.5" y="-560.2" font-family="Helvetica,sans-Serif" font-weight="bold" font-size="11.00">m_product_loan_rate</text>
<text text-anchor="start" x="1003.5" y="-559.2" font-family="Helvetica,sans-Serif" font-size="11.00">[table]</text>
<polygon fill="none" stroke="black" points="882.5,-533 882.5,-551 1038.5,-551 1038.5,-533 882.5,-533"/>
<text text-anchor="start" x="885.5" y="-539.2" font-family="Helvetica,sans-Serif" font-size="11.00">...</text>
<polygon fill="#ffffff" stroke="transparent" points="882.5,-515 882.5,-533 945.5,-533 945.5,-515 882.5,-515"/>
<polygon fill="none" stroke="black" points="882.5,-515 882.5,-533 945.5,-533 945.5,-515 882.5,-515"/>
<text text-anchor="start" x="885.5" y="-521.2" font-family="Helvetica,sans-Serif" font-size="11.00">&lt; 2</text>
<polygon fill="#ffffff" stroke="transparent" points="945.5,-515 945.5,-533 1004.5,-533 1004.5,-515 945.5,-515"/>
<polygon fill="none" stroke="black" points="945.5,-515 945.5,-533 1004.5,-533 1004.5,-515 945.5,-515"/>
<text text-anchor="start" x="968.5" y="-521.2" font-family="Helvetica,sans-Serif" font-size="11.00">0 rows</text>
<polygon fill="#ffffff" stroke="transparent" points="1004.5,-515 1004.5,-533 1038.5,-533 1038.5,-515 1004.5,-515"/>
<polygon fill="none" stroke="black" points="1004.5,-515 1004.5,-533 1038.5,-533 1038.5,-515 1004.5,-515"/>
<text text-anchor="start" x="1028.5" y="-521.2" font-family="Helvetica,sans-Serif" font-size="11.00"> &#160;</text>
</a>
</g>
</g>
<!-- m_product_loan_rate&#45;&gt;m_product_loan -->
<g id="edge13" class="edge">
<title>m_product_loan_rate:w&#45;&gt;m_product_loan:e</title>
<path fill="none" stroke="black" d="M866.94,-542.04C820.11,-542.37 795.9,-545.97 761,-584 712.93,-636.38 792.59,-739 721.5,-739"/>
<polygon fill="black" stroke="black" points="873.5,-542.02 881.51,-545.6 877.5,-542.01 881.5,-542 881.5,-542 881.5,-542 877.5,-542.01 881.49,-538.4 873.5,-542.02 873.5,-542.02"/>
<ellipse fill="none" stroke="black" cx="870.3" cy="-542.03" rx="3.2" ry="3.2"/>
</g>
<!-- m_product_loan_recalculation_details -->
<g id="node13" class="node">
<title>m_product_loan_recalculation_details</title>
<g id="a_node13"><a xlink:href="../../tables/m_product_loan_recalculation_details.html" xlink:title="m_product_loan_recalculation_details" target="_top">
<polygon fill="#ffffff" stroke="transparent" points="838.5,-436 838.5,-494 1082.5,-494 1082.5,-436 838.5,-436"/>
<polygon fill="#f5f5f5" stroke="transparent" points="838.5,-472 838.5,-494 1082.5,-494 1082.5,-472 838.5,-472"/>
<polygon fill="none" stroke="black" points="838.5,-472 838.5,-494 1082.5,-494 1082.5,-472 838.5,-472"/>
<text text-anchor="start" x="843.5" y="-481.2" font-family="Helvetica,sans-Serif" font-weight="bold" font-size="11.00">m_product_loan_recalculation_details</text>
<text text-anchor="start" x="1047.5" y="-480.2" font-family="Helvetica,sans-Serif" font-size="11.00">[table]</text>
<polygon fill="none" stroke="black" points="838.5,-454 838.5,-472 1082.5,-472 1082.5,-454 838.5,-454"/>
<text text-anchor="start" x="841.5" y="-460.2" font-family="Helvetica,sans-Serif" font-size="11.00">...</text>
<polygon fill="#ffffff" stroke="transparent" points="838.5,-436 838.5,-454 945.5,-454 945.5,-436 838.5,-436"/>
<polygon fill="none" stroke="black" points="838.5,-436 838.5,-454 945.5,-454 945.5,-436 838.5,-436"/>
<text text-anchor="start" x="841.5" y="-442.2" font-family="Helvetica,sans-Serif" font-size="11.00">&lt; 1</text>
<polygon fill="#ffffff" stroke="transparent" points="945.5,-436 945.5,-454 1026.5,-454 1026.5,-436 945.5,-436"/>
<polygon fill="none" stroke="black" points="945.5,-436 945.5,-454 1026.5,-454 1026.5,-436 945.5,-436"/>
<text text-anchor="start" x="990.5" y="-442.2" font-family="Helvetica,sans-Serif" font-size="11.00">0 rows</text>
<polygon fill="#ffffff" stroke="transparent" points="1026.5,-436 1026.5,-454 1082.5,-454 1082.5,-436 1026.5,-436"/>
<polygon fill="none" stroke="black" points="1026.5,-436 1026.5,-454 1082.5,-454 1082.5,-436 1026.5,-436"/>
<text text-anchor="start" x="1072.5" y="-442.2" font-family="Helvetica,sans-Serif" font-size="11.00"> &#160;</text>
</a>
</g>
</g>
<!-- m_product_loan_recalculation_details&#45;&gt;m_product_loan -->
<g id="edge14" class="edge">
<title>m_product_loan_recalculation_details:w&#45;&gt;m_product_loan:e</title>
<path fill="none" stroke="black" d="M822.83,-463.61C794.41,-466.24 780.4,-477.71 761,-505 730.45,-547.98 774.24,-739 721.5,-739"/>
<polygon fill="black" stroke="black" points="829.51,-463.33 837.65,-466.6 833.5,-463.17 837.5,-463 837.5,-463 837.5,-463 833.5,-463.17 837.35,-459.4 829.51,-463.33 829.51,-463.33"/>
<ellipse fill="none" stroke="black" cx="826.31" cy="-463.47" rx="3.2" ry="3.2"/>
</g>
<!-- m_product_loan_variable_installment_config -->
<g id="node14" class="node">
<title>m_product_loan_variable_installment_config</title>
<g id="a_node14"><a xlink:href="../../tables/m_product_loan_variable_installment_config.html" xlink:title="m_product_loan_variable_installment_config" target="_top">
<polygon fill="#ffffff" stroke="transparent" points="820.5,-357 820.5,-415 1100.5,-415 1100.5,-357 820.5,-357"/>
<polygon fill="#f5f5f5" stroke="transparent" points="820.5,-393 820.5,-415 1100.5,-415 1100.5,-393 820.5,-393"/>
<polygon fill="none" stroke="black" points="820.5,-393 820.5,-415 1100.5,-415 1100.5,-393 820.5,-393"/>
<text text-anchor="start" x="825.5" y="-402.2" font-family="Helvetica,sans-Serif" font-weight="bold" font-size="11.00">m_product_loan_variable_installment_config</text>
<text text-anchor="start" x="1065.5" y="-401.2" font-family="Helvetica,sans-Serif" font-size="11.00">[table]</text>
<polygon fill="none" stroke="black" points="820.5,-375 820.5,-393 1100.5,-393 1100.5,-375 820.5,-375"/>
<text text-anchor="start" x="823.5" y="-381.2" font-family="Helvetica,sans-Serif" font-size="11.00">...</text>
<polygon fill="#ffffff" stroke="transparent" points="820.5,-357 820.5,-375 945.5,-375 945.5,-357 820.5,-357"/>
<polygon fill="none" stroke="black" points="820.5,-357 820.5,-375 945.5,-375 945.5,-357 820.5,-357"/>
<text text-anchor="start" x="823.5" y="-363.2" font-family="Helvetica,sans-Serif" font-size="11.00">&lt; 1</text>
<polygon fill="#ffffff" stroke="transparent" points="945.5,-357 945.5,-375 1035.5,-375 1035.5,-357 945.5,-357"/>
<polygon fill="none" stroke="black" points="945.5,-357 945.5,-375 1035.5,-375 1035.5,-357 945.5,-357"/>
<text text-anchor="start" x="999.5" y="-363.2" font-family="Helvetica,sans-Serif" font-size="11.00">0 rows</text>
<polygon fill="#ffffff" stroke="transparent" points="1035.5,-357 1035.5,-375 1100.5,-375 1100.5,-357 1035.5,-357"/>
<polygon fill="none" stroke="black" points="1035.5,-357 1035.5,-375 1100.5,-375 1100.5,-357 1035.5,-357"/>
<text text-anchor="start" x="1090.5" y="-363.2" font-family="Helvetica,sans-Serif" font-size="11.00"> &#160;</text>
</a>
</g>
</g>
<!-- m_product_loan_variable_installment_config&#45;&gt;m_product_loan -->
<g id="edge15" class="edge">
<title>m_product_loan_variable_installment_config:w&#45;&gt;m_product_loan:e</title>
<path fill="none" stroke="black" d="M805.09,-385.22C783.92,-389.24 774.62,-403.12 761,-426 725.15,-486.25 791.61,-739 721.5,-739"/>
<polygon fill="black" stroke="black" points="811.53,-384.67 819.8,-387.59 815.51,-384.34 819.5,-384 819.5,-384 819.5,-384 815.51,-384.34 819.2,-380.41 811.53,-384.67 811.53,-384.67"/>
<ellipse fill="none" stroke="black" cx="808.34" cy="-384.94" rx="3.2" ry="3.2"/>
</g>
<!-- m_product_loan_variations_borrower_cycle -->
<g id="node15" class="node">
<title>m_product_loan_variations_borrower_cycle</title>
<g id="a_node15"><a xlink:href="../../tables/m_product_loan_variations_borrower_cycle.html" xlink:title="m_product_loan_variations_borrower_cycle" target="_top">
<polygon fill="#ffffff" stroke="transparent" points="769,-116 769,-336 1152,-336 1152,-116 769,-116"/>
<polygon fill="#f5f5f5" stroke="transparent" points="771.5,-312 771.5,-334 1150.5,-334 1150.5,-312 771.5,-312"/>
<polygon fill="none" stroke="black" points="771.5,-312 771.5,-334 1150.5,-334 1150.5,-312 771.5,-312"/>
<text text-anchor="start" x="776.5" y="-321.2" font-family="Helvetica,sans-Serif" font-weight="bold" font-size="11.00">m_product_loan_variations_borrower_cycle</text>
<text text-anchor="start" x="1115.5" y="-320.2" font-family="Helvetica,sans-Serif" font-size="11.00">[table]</text>
<polygon fill="none" stroke="black" points="771.5,-290 771.5,-312 1080.5,-312 1080.5,-290 771.5,-290"/>
<image xlink:href="../../images/primaryKeys.png" width="11px" height="12px" preserveAspectRatio="xMinYMin meet" x="776.5" y="-307"/>
<text text-anchor="start" x="791.5" y="-298.2" font-family="Helvetica,sans-Serif" font-size="11.00">id</text>
<polygon fill="none" stroke="black" points="1080.5,-290 1080.5,-312 1150.5,-312 1150.5,-290 1080.5,-290"/>
<text text-anchor="start" x="1083.5" y="-298.2" font-family="Helvetica,sans-Serif" font-size="11.00">bigint[19]</text>
<polygon fill="#ffffff" stroke="transparent" points="771.5,-268 771.5,-290 1080.5,-290 1080.5,-268 771.5,-268"/>
<polygon fill="none" stroke="black" points="771.5,-268 771.5,-290 1080.5,-290 1080.5,-268 771.5,-268"/>
<image xlink:href="../../images/foreignKeys.png" width="11px" height="12px" preserveAspectRatio="xMinYMin meet" x="776.5" y="-285"/>
<text text-anchor="start" x="791.5" y="-276.2" font-family="Helvetica,sans-Serif" font-size="11.00">loan_product_id</text>
<polygon fill="none" stroke="black" points="1080.5,-268 1080.5,-290 1150.5,-290 1150.5,-268 1080.5,-268"/>
<text text-anchor="start" x="1083.5" y="-276.2" font-family="Helvetica,sans-Serif" font-size="11.00">bigint[19]</text>
<polygon fill="none" stroke="black" points="771.5,-246 771.5,-268 1080.5,-268 1080.5,-246 771.5,-246"/>
<text text-anchor="start" x="791.5" y="-254.2" font-family="Helvetica,sans-Serif" font-size="11.00">borrower_cycle_number</text>
<polygon fill="none" stroke="black" points="1080.5,-246 1080.5,-268 1150.5,-268 1150.5,-246 1080.5,-246"/>
<text text-anchor="start" x="1083.5" y="-254.2" font-family="Helvetica,sans-Serif" font-size="11.00">int[10]</text>
<polygon fill="none" stroke="black" points="771.5,-224 771.5,-246 1080.5,-246 1080.5,-224 771.5,-224"/>
<text text-anchor="start" x="791.5" y="-232.2" font-family="Helvetica,sans-Serif" font-size="11.00">value_condition</text>
<polygon fill="none" stroke="black" points="1080.5,-224 1080.5,-246 1150.5,-246 1150.5,-224 1080.5,-224"/>
<text text-anchor="start" x="1083.5" y="-232.2" font-family="Helvetica,sans-Serif" font-size="11.00">int[10]</text>
<polygon fill="none" stroke="black" points="771.5,-202 771.5,-224 1080.5,-224 1080.5,-202 771.5,-202"/>
<text text-anchor="start" x="791.5" y="-210.2" font-family="Helvetica,sans-Serif" font-size="11.00">param_type</text>
<polygon fill="none" stroke="black" points="1080.5,-202 1080.5,-224 1150.5,-224 1150.5,-202 1080.5,-202"/>
<text text-anchor="start" x="1083.5" y="-210.2" font-family="Helvetica,sans-Serif" font-size="11.00">int[10]</text>
<polygon fill="none" stroke="black" points="771.5,-180 771.5,-202 1080.5,-202 1080.5,-180 771.5,-180"/>
<text text-anchor="start" x="791.5" y="-188.2" font-family="Helvetica,sans-Serif" font-size="11.00">default_value</text>
<polygon fill="none" stroke="black" points="1080.5,-180 1080.5,-202 1150.5,-202 1150.5,-180 1080.5,-180"/>
<text text-anchor="start" x="1083.5" y="-188.2" font-family="Helvetica,sans-Serif" font-size="11.00">decimal[19,6]</text>
<polygon fill="none" stroke="black" points="771.5,-158 771.5,-180 1080.5,-180 1080.5,-158 771.5,-158"/>
<text text-anchor="start" x="791.5" y="-166.2" font-family="Helvetica,sans-Serif" font-size="11.00">max_value</text>
<polygon fill="none" stroke="black" points="1080.5,-158 1080.5,-180 1150.5,-180 1150.5,-158 1080.5,-158"/>
<text text-anchor="start" x="1083.5" y="-166.2" font-family="Helvetica,sans-Serif" font-size="11.00">decimal[19,6]</text>
<polygon fill="none" stroke="black" points="771.5,-136 771.5,-158 1080.5,-158 1080.5,-136 771.5,-136"/>
<text text-anchor="start" x="791.5" y="-144.2" font-family="Helvetica,sans-Serif" font-size="11.00">min_value</text>
<polygon fill="none" stroke="black" points="1080.5,-136 1080.5,-158 1150.5,-158 1150.5,-136 1080.5,-136"/>
<text text-anchor="start" x="1083.5" y="-144.2" font-family="Helvetica,sans-Serif" font-size="11.00">decimal[19,6]</text>
<polygon fill="#ffffff" stroke="transparent" points="771.5,-118 771.5,-136 917.5,-136 917.5,-118 771.5,-118"/>
<polygon fill="none" stroke="black" points="771.5,-118 771.5,-136 917.5,-136 917.5,-118 771.5,-118"/>
<text text-anchor="start" x="774.5" y="-124.2" font-family="Helvetica,sans-Serif" font-size="11.00">&lt; 1</text>
<polygon fill="#ffffff" stroke="transparent" points="917.5,-118 917.5,-136 1080.5,-136 1080.5,-118 917.5,-118"/>
<polygon fill="none" stroke="black" points="917.5,-118 917.5,-136 1080.5,-136 1080.5,-118 917.5,-118"/>
<text text-anchor="start" x="1044.5" y="-124.2" font-family="Helvetica,sans-Serif" font-size="11.00">0 rows</text>
<polygon fill="#ffffff" stroke="transparent" points="1080.5,-118 1080.5,-136 1150.5,-136 1150.5,-118 1080.5,-118"/>
<polygon fill="none" stroke="black" points="1080.5,-118 1080.5,-136 1150.5,-136 1150.5,-118 1080.5,-118"/>
<text text-anchor="start" x="1131.5" y="-124.2" font-family="Helvetica,sans-Serif" font-size="11.00">0 &gt;</text>
<polygon fill="none" stroke="black" stroke-width="2" points="770,-117 770,-335 1151,-335 1151,-117 770,-117"/>
</a>
</g>
</g>
<!-- m_product_loan_variations_borrower_cycle&#45;&gt;m_product_loan -->
<g id="edge16" class="edge">
<title>m_product_loan_variations_borrower_cycle:w&#45;&gt;m_product_loan:e</title>
<path fill="none" stroke="black" d="M756.32,-282.7C683.49,-326.24 818.88,-739 721.5,-739"/>
<polygon fill="black" stroke="black" points="762.76,-281.02 771.41,-282.48 766.63,-280.01 770.5,-279 770.5,-279 770.5,-279 766.63,-280.01 769.59,-275.52 762.76,-281.02 762.76,-281.02"/>
<ellipse fill="none" stroke="black" cx="759.66" cy="-281.83" rx="3.2" ry="3.2"/>
</g>
<!-- m_product_mix -->
<g id="node16" class="node">
<title>m_product_mix</title>
<g id="a_node16"><a xlink:href="../../tables/m_product_mix.html" xlink:title="m_product_mix" target="_top">
<polygon fill="#ffffff" stroke="transparent" points="897.5,-37 897.5,-95 1023.5,-95 1023.5,-37 897.5,-37"/>
<polygon fill="#f5f5f5" stroke="transparent" points="897.5,-73 897.5,-95 1023.5,-95 1023.5,-73 897.5,-73"/>
<polygon fill="none" stroke="black" points="897.5,-73 897.5,-95 1023.5,-95 1023.5,-73 897.5,-73"/>
<text text-anchor="start" x="902.5" y="-82.2" font-family="Helvetica,sans-Serif" font-weight="bold" font-size="11.00">m_product_mix</text>
<text text-anchor="start" x="988.5" y="-81.2" font-family="Helvetica,sans-Serif" font-size="11.00">[table]</text>
<polygon fill="none" stroke="black" points="897.5,-55 897.5,-73 1023.5,-73 1023.5,-55 897.5,-55"/>
<text text-anchor="start" x="900.5" y="-61.2" font-family="Helvetica,sans-Serif" font-size="11.00">...</text>
<polygon fill="#ffffff" stroke="transparent" points="897.5,-37 897.5,-55 945.5,-55 945.5,-37 897.5,-37"/>
<polygon fill="none" stroke="black" points="897.5,-37 897.5,-55 945.5,-55 945.5,-37 897.5,-37"/>
<text text-anchor="start" x="900.5" y="-43.2" font-family="Helvetica,sans-Serif" font-size="11.00">&lt; 2</text>
<polygon fill="#ffffff" stroke="transparent" points="945.5,-37 945.5,-55 997.5,-55 997.5,-37 945.5,-37"/>
<polygon fill="none" stroke="black" points="945.5,-37 945.5,-55 997.5,-55 997.5,-37 945.5,-37"/>
<text text-anchor="start" x="961.5" y="-43.2" font-family="Helvetica,sans-Serif" font-size="11.00">0 rows</text>
<polygon fill="#ffffff" stroke="transparent" points="997.5,-37 997.5,-55 1023.5,-55 1023.5,-37 997.5,-37"/>
<polygon fill="none" stroke="black" points="997.5,-37 997.5,-55 1023.5,-55 1023.5,-37 997.5,-37"/>
<text text-anchor="start" x="1013.5" y="-43.2" font-family="Helvetica,sans-Serif" font-size="11.00"> &#160;</text>
</a>
</g>
</g>
<!-- m_product_mix&#45;&gt;m_product_loan -->
<g id="edge17" class="edge">
<title>m_product_mix:w&#45;&gt;m_product_loan:e</title>
<path fill="none" stroke="black" d="M881.9,-62.56C828.05,-57.15 796.85,-54.4 761,-100 717.45,-155.4 791.97,-733 721.5,-739"/>
<polygon fill="black" stroke="black" points="888.54,-63.21 896.15,-67.58 892.52,-63.61 896.5,-64 896.5,-64 896.5,-64 892.52,-63.61 896.85,-60.42 888.54,-63.21 888.54,-63.21"/>
<ellipse fill="none" stroke="black" cx="885.35" cy="-62.9" rx="3.2" ry="3.2"/>
</g>
<!-- m_product_mix&#45;&gt;m_product_loan -->
<g id="edge18" class="edge">
<title>m_product_mix:w&#45;&gt;m_product_loan:e</title>
<path fill="none" stroke="black" d="M881.9,-65.44C828.05,-70.15 796.85,-67.4 761,-113 717.45,-168.4 791.97,-746 721.5,-739"/>
<polygon fill="black" stroke="black" points="888.54,-64.78 896.85,-67.58 892.52,-64.39 896.5,-64 896.5,-64 896.5,-64 892.52,-64.39 896.15,-60.42 888.54,-64.78 888.54,-64.78"/>
<ellipse fill="none" stroke="black" cx="885.35" cy="-65.1" rx="3.2" ry="3.2"/>
</g>
</g>
</svg>
