<?xml version="1.0" encoding="UTF-8" standalone="no"?>
<!DOCTYPE svg PUBLIC "-//W3C//DTD SVG 1.1//EN"
 "http://www.w3.org/Graphics/SVG/1.1/DTD/svg11.dtd">
<!-- Generated by graphviz version 2.43.0 (0)
 -->
<!-- Title: twoDegreesRelationshipsDiagram Pages: 1 -->
<svg width="1174pt" height="1151pt"
 viewBox="0.00 0.00 1174.00 1151.00" xmlns="http://www.w3.org/2000/svg" xmlns:xlink="http://www.w3.org/1999/xlink">
<g id="graph0" class="graph" transform="scale(1 1) rotate(0) translate(4 1147)">
<title>twoDegreesRelationshipsDiagram</title>
<polygon fill="#ffffff" stroke="transparent" points="-4,4 -4,-1147 1170,-1147 1170,4 -4,4"/>
<text text-anchor="middle" x="71.5" y="-7.2" font-family="Helvetica,sans-Serif" font-size="11.00">Generated by SchemaSpy</text>
<!-- m_creditbureau_loanproduct_mapping -->
<g id="node1" class="node">
<title>m_creditbureau_loanproduct_mapping</title>
<g id="a_node1"><a xlink:href="../../tables/m_creditbureau_loanproduct_mapping.html" xlink:title="m_creditbureau_loanproduct_mapping" target="_top">
<polygon fill="#ffffff" stroke="transparent" points="839,-1002 839,-1060 1088,-1060 1088,-1002 839,-1002"/>
<polygon fill="#f5f5f5" stroke="transparent" points="839.5,-1038 839.5,-1060 1088.5,-1060 1088.5,-1038 839.5,-1038"/>
<polygon fill="none" stroke="black" points="839.5,-1038 839.5,-1060 1088.5,-1060 1088.5,-1038 839.5,-1038"/>
<text text-anchor="start" x="844.5" y="-1047.2" font-family="Helvetica,sans-Serif" font-weight="bold" font-size="11.00">m_creditbureau_loanproduct_mapping</text>
<text text-anchor="start" x="1053.5" y="-1046.2" font-family="Helvetica,sans-Serif" font-size="11.00">[table]</text>
<polygon fill="none" stroke="black" points="839.5,-1020 839.5,-1038 1088.5,-1038 1088.5,-1020 839.5,-1020"/>
<text text-anchor="start" x="842.5" y="-1026.2" font-family="Helvetica,sans-Serif" font-size="11.00">...</text>
<polygon fill="#ffffff" stroke="transparent" points="839.5,-1002 839.5,-1020 948.5,-1020 948.5,-1002 839.5,-1002"/>
<polygon fill="none" stroke="black" points="839.5,-1002 839.5,-1020 948.5,-1020 948.5,-1002 839.5,-1002"/>
<text text-anchor="start" x="842.5" y="-1008.2" font-family="Helvetica,sans-Serif" font-size="11.00">&lt; 2</text>
<polygon fill="#ffffff" stroke="transparent" points="948.5,-1002 948.5,-1020 1031.5,-1020 1031.5,-1002 948.5,-1002"/>
<polygon fill="none" stroke="black" points="948.5,-1002 948.5,-1020 1031.5,-1020 1031.5,-1002 948.5,-1002"/>
<text text-anchor="start" x="995.5" y="-1008.2" font-family="Helvetica,sans-Serif" font-size="11.00">0 rows</text>
<polygon fill="#ffffff" stroke="transparent" points="1031.5,-1002 1031.5,-1020 1088.5,-1020 1088.5,-1002 1031.5,-1002"/>
<polygon fill="none" stroke="black" points="1031.5,-1002 1031.5,-1020 1088.5,-1020 1088.5,-1002 1031.5,-1002"/>
<text text-anchor="start" x="1078.5" y="-1008.2" font-family="Helvetica,sans-Serif" font-size="11.00"> &#160;</text>
</a>
</g>
</g>
<!-- m_product_loan -->
<g id="node2" class="node">
<title>m_product_loan</title>
<g id="a_node2"><a xlink:href="../../tables/m_product_loan.html" xlink:title="m_product_loan" target="_top">
<polygon fill="#ffffff" stroke="transparent" points="323,-516 323,-706 720,-706 720,-516 323,-516"/>
<polygon fill="#f5f5f5" stroke="transparent" points="323.5,-684 323.5,-706 720.5,-706 720.5,-684 323.5,-684"/>
<polygon fill="none" stroke="black" points="323.5,-684 323.5,-706 720.5,-706 720.5,-684 323.5,-684"/>
<text text-anchor="start" x="328.5" y="-693.2" font-family="Helvetica,sans-Serif" font-weight="bold" font-size="11.00">m_product_loan</text>
<text text-anchor="start" x="685.5" y="-692.2" font-family="Helvetica,sans-Serif" font-size="11.00">[table]</text>
<polygon fill="none" stroke="black" points="323.5,-662 323.5,-684 720.5,-684 720.5,-662 323.5,-662"/>
<image xlink:href="../../images/primaryKeys.png" width="11px" height="12px" preserveAspectRatio="xMinYMin meet" x="328.5" y="-679"/>
<text text-anchor="start" x="343.5" y="-670.2" font-family="Helvetica,sans-Serif" font-size="11.00">id</text>
<polygon fill="#ffffff" stroke="transparent" points="323.5,-640 323.5,-662 720.5,-662 720.5,-640 323.5,-640"/>
<polygon fill="none" stroke="black" points="323.5,-640 323.5,-662 720.5,-662 720.5,-640 323.5,-640"/>
<text text-anchor="start" x="343.5" y="-648.2" font-family="Helvetica,sans-Serif" font-size="11.00">short_name</text>
<polygon fill="#ffffff" stroke="transparent" points="323.5,-618 323.5,-640 720.5,-640 720.5,-618 323.5,-618"/>
<polygon fill="none" stroke="black" points="323.5,-618 323.5,-640 720.5,-640 720.5,-618 323.5,-618"/>
<text text-anchor="start" x="343.5" y="-626.2" font-family="Helvetica,sans-Serif" font-size="11.00">name</text>
<polygon fill="#ffffff" stroke="transparent" points="323.5,-596 323.5,-618 720.5,-618 720.5,-596 323.5,-596"/>
<polygon fill="none" stroke="black" points="323.5,-596 323.5,-618 720.5,-618 720.5,-596 323.5,-596"/>
<image xlink:href="../../images/foreignKeys.png" width="11px" height="12px" preserveAspectRatio="xMinYMin meet" x="328.5" y="-613"/>
<text text-anchor="start" x="343.5" y="-604.2" font-family="Helvetica,sans-Serif" font-size="11.00">fund_id</text>
<polygon fill="#ffffff" stroke="transparent" points="323.5,-574 323.5,-596 720.5,-596 720.5,-574 323.5,-574"/>
<polygon fill="none" stroke="black" points="323.5,-574 323.5,-596 720.5,-596 720.5,-574 323.5,-574"/>
<image xlink:href="../../images/foreignKeys.png" width="11px" height="12px" preserveAspectRatio="xMinYMin meet" x="328.5" y="-591"/>
<text text-anchor="start" x="343.5" y="-582.2" font-family="Helvetica,sans-Serif" font-size="11.00">loan_transaction_strategy_id</text>
<polygon fill="#ffffff" stroke="transparent" points="323.5,-552 323.5,-574 720.5,-574 720.5,-552 323.5,-552"/>
<polygon fill="none" stroke="black" points="323.5,-552 323.5,-574 720.5,-574 720.5,-552 323.5,-552"/>
<text text-anchor="start" x="343.5" y="-560.2" font-family="Helvetica,sans-Serif" font-size="11.00">external_id</text>
<polygon fill="none" stroke="black" points="323.5,-534 323.5,-552 720.5,-552 720.5,-534 323.5,-534"/>
<text text-anchor="start" x="326.5" y="-540.2" font-family="Helvetica,sans-Serif" font-size="11.00">...</text>
<polygon fill="#ffffff" stroke="transparent" points="323.5,-516 323.5,-534 499.5,-534 499.5,-516 323.5,-516"/>
<polygon fill="none" stroke="black" points="323.5,-516 323.5,-534 499.5,-534 499.5,-516 323.5,-516"/>
<text text-anchor="start" x="326.5" y="-522.2" font-family="Helvetica,sans-Serif" font-size="11.00">&lt; 2</text>
<polygon fill="#ffffff" stroke="transparent" points="499.5,-516 499.5,-534 615.5,-534 615.5,-516 499.5,-516"/>
<polygon fill="none" stroke="black" points="499.5,-516 499.5,-534 615.5,-534 615.5,-516 499.5,-516"/>
<text text-anchor="start" x="579.5" y="-522.2" font-family="Helvetica,sans-Serif" font-size="11.00">0 rows</text>
<polygon fill="#ffffff" stroke="transparent" points="615.5,-516 615.5,-534 720.5,-534 720.5,-516 615.5,-516"/>
<polygon fill="none" stroke="black" points="615.5,-516 615.5,-534 720.5,-534 720.5,-516 615.5,-516"/>
<text text-anchor="start" x="695.5" y="-522.2" font-family="Helvetica,sans-Serif" font-size="11.00">14 &gt;</text>
</a>
</g>
</g>
<!-- m_creditbureau_loanproduct_mapping&#45;&gt;m_product_loan -->
<g id="edge1" class="edge">
<title>m_creditbureau_loanproduct_mapping:w&#45;&gt;m_product_loan:e</title>
<path fill="none" stroke="black" d="M823.96,-1028.61C795.58,-1026.88 780.26,-1018.74 761,-992 719.25,-934.04 792.93,-673 721.5,-673"/>
<polygon fill="black" stroke="black" points="830.5,-1028.79 838.4,-1032.6 834.5,-1028.89 838.5,-1029 838.5,-1029 838.5,-1029 834.5,-1028.89 838.6,-1025.4 830.5,-1028.79 830.5,-1028.79"/>
<ellipse fill="none" stroke="black" cx="827.3" cy="-1028.7" rx="3.2" ry="3.2"/>
</g>
<!-- m_fund -->
<g id="node4" class="node">
<title>m_fund</title>
<g id="a_node4"><a xlink:href="../../tables/m_fund.html" xlink:title="m_fund" target="_top">
<polygon fill="#ffffff" stroke="transparent" points="99,-904 99,-962 183,-962 183,-904 99,-904"/>
<polygon fill="#f5f5f5" stroke="transparent" points="99,-940 99,-962 183,-962 183,-940 99,-940"/>
<polygon fill="none" stroke="black" points="99,-940 99,-962 183,-962 183,-940 99,-940"/>
<text text-anchor="start" x="104" y="-949.2" font-family="Helvetica,sans-Serif" font-weight="bold" font-size="11.00">m_fund</text>
<text text-anchor="start" x="148" y="-948.2" font-family="Helvetica,sans-Serif" font-size="11.00">[table]</text>
<polygon fill="none" stroke="black" points="99,-922 99,-940 183,-940 183,-922 99,-922"/>
<text text-anchor="start" x="102" y="-928.2" font-family="Helvetica,sans-Serif" font-size="11.00">...</text>
<polygon fill="#ffffff" stroke="transparent" points="99,-904 99,-922 117,-922 117,-904 99,-904"/>
<polygon fill="none" stroke="black" points="99,-904 99,-922 117,-922 117,-904 99,-904"/>
<text text-anchor="start" x="102" y="-910.2" font-family="Helvetica,sans-Serif" font-size="11.00"> &#160;</text>
<polygon fill="#ffffff" stroke="transparent" points="117,-904 117,-922 158,-922 158,-904 117,-904"/>
<polygon fill="none" stroke="black" points="117,-904 117,-922 158,-922 158,-904 117,-904"/>
<text text-anchor="start" x="122" y="-910.2" font-family="Helvetica,sans-Serif" font-size="11.00">0 rows</text>
<polygon fill="#ffffff" stroke="transparent" points="158,-904 158,-922 183,-922 183,-904 158,-904"/>
<polygon fill="none" stroke="black" points="158,-904 158,-922 183,-922 183,-904 158,-904"/>
<text text-anchor="start" x="164" y="-910.2" font-family="Helvetica,sans-Serif" font-size="11.00">2 &gt;</text>
</a>
</g>
</g>
<!-- m_product_loan&#45;&gt;m_fund -->
<g id="edge7" class="edge">
<title>m_product_loan:w&#45;&gt;m_fund:e</title>
<path fill="none" stroke="black" d="M307.92,-609.25C277.17,-620.7 299.5,-673.65 282,-716 241.91,-813.06 289.01,-931 184,-931"/>
<polygon fill="black" stroke="black" points="314.59,-608.22 323.05,-610.56 318.55,-607.61 322.5,-607 322.5,-607 322.5,-607 318.55,-607.61 321.95,-603.44 314.59,-608.22 314.59,-608.22"/>
<ellipse fill="none" stroke="black" cx="311.43" cy="-608.71" rx="3.2" ry="3.2"/>
</g>
<!-- ref_loan_transaction_processing_strategy -->
<g id="node5" class="node">
<title>ref_loan_transaction_processing_strategy</title>
<g id="a_node5"><a xlink:href="../../tables/ref_loan_transaction_processing_strategy.html" xlink:title="ref_loan_transaction_processing_strategy" target="_top">
<polygon fill="#ffffff" stroke="transparent" points="8,-647 8,-705 274,-705 274,-647 8,-647"/>
<polygon fill="#f5f5f5" stroke="transparent" points="8,-683 8,-705 274,-705 274,-683 8,-683"/>
<polygon fill="none" stroke="black" points="8,-683 8,-705 274,-705 274,-683 8,-683"/>
<text text-anchor="start" x="13" y="-692.2" font-family="Helvetica,sans-Serif" font-weight="bold" font-size="11.00">ref_loan_transaction_processing_strategy</text>
<text text-anchor="start" x="239" y="-691.2" font-family="Helvetica,sans-Serif" font-size="11.00">[table]</text>
<polygon fill="none" stroke="black" points="8,-665 8,-683 274,-683 274,-665 8,-665"/>
<text text-anchor="start" x="11" y="-671.2" font-family="Helvetica,sans-Serif" font-size="11.00">...</text>
<polygon fill="#ffffff" stroke="transparent" points="8,-647 8,-665 117,-665 117,-647 8,-647"/>
<polygon fill="none" stroke="black" points="8,-647 8,-665 117,-665 117,-647 8,-647"/>
<text text-anchor="start" x="11" y="-653.2" font-family="Helvetica,sans-Serif" font-size="11.00"> &#160;</text>
<polygon fill="#ffffff" stroke="transparent" points="117,-647 117,-665 204,-665 204,-647 117,-647"/>
<polygon fill="none" stroke="black" points="117,-647 117,-665 204,-665 204,-647 117,-647"/>
<text text-anchor="start" x="168" y="-653.2" font-family="Helvetica,sans-Serif" font-size="11.00">0 rows</text>
<polygon fill="#ffffff" stroke="transparent" points="204,-647 204,-665 274,-665 274,-647 204,-647"/>
<polygon fill="none" stroke="black" points="204,-647 204,-665 274,-665 274,-647 204,-647"/>
<text text-anchor="start" x="255" y="-653.2" font-family="Helvetica,sans-Serif" font-size="11.00">2 &gt;</text>
</a>
</g>
</g>
<!-- m_product_loan&#45;&gt;ref_loan_transaction_processing_strategy -->
<g id="edge8" class="edge">
<title>m_product_loan:w&#45;&gt;ref_loan_transaction_processing_strategy:e</title>
<path fill="none" stroke="black" d="M308.54,-589.54C287.57,-607.67 313.71,-674 275,-674"/>
<polygon fill="black" stroke="black" points="314.89,-587.47 323.61,-588.42 318.7,-586.24 322.5,-585 322.5,-585 322.5,-585 318.7,-586.24 321.39,-581.58 314.89,-587.47 314.89,-587.47"/>
<ellipse fill="none" stroke="black" cx="311.85" cy="-588.46" rx="3.2" ry="3.2"/>
</g>
<!-- m_loan -->
<g id="node3" class="node">
<title>m_loan</title>
<g id="a_node3"><a xlink:href="../../tables/m_loan.html" xlink:title="m_loan" target="_top">
<polygon fill="#ffffff" stroke="transparent" points="916,-1081 916,-1139 1011,-1139 1011,-1081 916,-1081"/>
<polygon fill="#f5f5f5" stroke="transparent" points="916.5,-1117 916.5,-1139 1011.5,-1139 1011.5,-1117 916.5,-1117"/>
<polygon fill="none" stroke="black" points="916.5,-1117 916.5,-1139 1011.5,-1139 1011.5,-1117 916.5,-1117"/>
<text text-anchor="start" x="921.5" y="-1126.2" font-family="Helvetica,sans-Serif" font-weight="bold" font-size="11.00">m_loan</text>
<text text-anchor="start" x="976.5" y="-1125.2" font-family="Helvetica,sans-Serif" font-size="11.00">[table]</text>
<polygon fill="none" stroke="black" points="916.5,-1099 916.5,-1117 1011.5,-1117 1011.5,-1099 916.5,-1099"/>
<text text-anchor="start" x="919.5" y="-1105.2" font-family="Helvetica,sans-Serif" font-size="11.00">...</text>
<polygon fill="#ffffff" stroke="transparent" points="916.5,-1081 916.5,-1099 944.5,-1099 944.5,-1081 916.5,-1081"/>
<polygon fill="none" stroke="black" points="916.5,-1081 916.5,-1099 944.5,-1099 944.5,-1081 916.5,-1081"/>
<text text-anchor="start" x="919.5" y="-1087.2" font-family="Helvetica,sans-Serif" font-size="11.00">&lt; 15</text>
<polygon fill="#ffffff" stroke="transparent" points="944.5,-1081 944.5,-1099 983.5,-1099 983.5,-1081 944.5,-1081"/>
<polygon fill="none" stroke="black" points="944.5,-1081 944.5,-1099 983.5,-1099 983.5,-1081 944.5,-1081"/>
<text text-anchor="start" x="947.5" y="-1087.2" font-family="Helvetica,sans-Serif" font-size="11.00">0 rows</text>
<polygon fill="#ffffff" stroke="transparent" points="983.5,-1081 983.5,-1099 1011.5,-1099 1011.5,-1081 983.5,-1081"/>
<polygon fill="none" stroke="black" points="983.5,-1081 983.5,-1099 1011.5,-1099 1011.5,-1081 983.5,-1081"/>
<text text-anchor="start" x="986.5" y="-1087.2" font-family="Helvetica,sans-Serif" font-size="11.00">24 &gt;</text>
</a>
</g>
</g>
<!-- m_loan&#45;&gt;m_product_loan -->
<g id="edge4" class="edge">
<title>m_loan:w&#45;&gt;m_product_loan:e</title>
<path fill="none" stroke="black" d="M901.08,-1108.21C839.58,-1109.94 804.15,-1120.47 761,-1071 702.57,-1004.02 810.38,-673 721.5,-673"/>
<polygon fill="black" stroke="black" points="907.5,-1108.12 915.55,-1111.6 911.5,-1108.06 915.5,-1108 915.5,-1108 915.5,-1108 911.5,-1108.06 915.45,-1104.4 907.5,-1108.12 907.5,-1108.12"/>
<ellipse fill="none" stroke="black" cx="904.3" cy="-1108.16" rx="3.2" ry="3.2"/>
</g>
<!-- m_loan&#45;&gt;m_fund -->
<g id="edge2" class="edge">
<title>m_loan:w&#45;&gt;m_fund:e</title>
<path fill="none" stroke="black" d="M900.97,-1107.89C579.12,-1102.85 513.59,-931 184,-931"/>
<polygon fill="black" stroke="black" points="907.5,-1107.94 915.47,-1111.6 911.5,-1107.97 915.5,-1108 915.5,-1108 915.5,-1108 911.5,-1107.97 915.53,-1104.4 907.5,-1107.94 907.5,-1107.94"/>
<ellipse fill="none" stroke="black" cx="904.3" cy="-1107.91" rx="3.2" ry="3.2"/>
</g>
<!-- m_loan&#45;&gt;ref_loan_transaction_processing_strategy -->
<g id="edge3" class="edge">
<title>m_loan:w&#45;&gt;ref_loan_transaction_processing_strategy:e</title>
<path fill="none" stroke="black" d="M900.75,-1108.17C839.94,-1109.5 807.59,-1117.05 761,-1071 718.3,-1028.79 764.87,-987.39 728,-940 599.9,-775.36 480.01,-844.62 315,-717 294.35,-701.03 301.1,-674 275,-674"/>
<polygon fill="black" stroke="black" points="907.5,-1108.09 915.54,-1111.6 911.5,-1108.05 915.5,-1108 915.5,-1108 915.5,-1108 911.5,-1108.05 915.46,-1104.4 907.5,-1108.09 907.5,-1108.09"/>
<ellipse fill="none" stroke="black" cx="904.3" cy="-1108.13" rx="3.2" ry="3.2"/>
</g>
<!-- m_loanproduct_provisioning_entry -->
<g id="node6" class="node">
<title>m_loanproduct_provisioning_entry</title>
<g id="a_node6"><a xlink:href="../../tables/m_loanproduct_provisioning_entry.html" xlink:title="m_loanproduct_provisioning_entry" target="_top">
<polygon fill="#ffffff" stroke="transparent" points="849,-923 849,-981 1078,-981 1078,-923 849,-923"/>
<polygon fill="#f5f5f5" stroke="transparent" points="849.5,-959 849.5,-981 1078.5,-981 1078.5,-959 849.5,-959"/>
<polygon fill="none" stroke="black" points="849.5,-959 849.5,-981 1078.5,-981 1078.5,-959 849.5,-959"/>
<text text-anchor="start" x="854.5" y="-968.2" font-family="Helvetica,sans-Serif" font-weight="bold" font-size="11.00">m_loanproduct_provisioning_entry</text>
<text text-anchor="start" x="1043.5" y="-967.2" font-family="Helvetica,sans-Serif" font-size="11.00">[table]</text>
<polygon fill="none" stroke="black" points="849.5,-941 849.5,-959 1078.5,-959 1078.5,-941 849.5,-941"/>
<text text-anchor="start" x="852.5" y="-947.2" font-family="Helvetica,sans-Serif" font-size="11.00">...</text>
<polygon fill="#ffffff" stroke="transparent" points="849.5,-923 849.5,-941 948.5,-941 948.5,-923 849.5,-923"/>
<polygon fill="none" stroke="black" points="849.5,-923 849.5,-941 948.5,-941 948.5,-923 849.5,-923"/>
<text text-anchor="start" x="852.5" y="-929.2" font-family="Helvetica,sans-Serif" font-size="11.00">&lt; 7</text>
<polygon fill="#ffffff" stroke="transparent" points="948.5,-923 948.5,-941 1026.5,-941 1026.5,-923 948.5,-923"/>
<polygon fill="none" stroke="black" points="948.5,-923 948.5,-941 1026.5,-941 1026.5,-923 948.5,-923"/>
<text text-anchor="start" x="990.5" y="-929.2" font-family="Helvetica,sans-Serif" font-size="11.00">0 rows</text>
<polygon fill="#ffffff" stroke="transparent" points="1026.5,-923 1026.5,-941 1078.5,-941 1078.5,-923 1026.5,-923"/>
<polygon fill="none" stroke="black" points="1026.5,-923 1026.5,-941 1078.5,-941 1078.5,-923 1026.5,-923"/>
<text text-anchor="start" x="1068.5" y="-929.2" font-family="Helvetica,sans-Serif" font-size="11.00"> &#160;</text>
</a>
</g>
</g>
<!-- m_loanproduct_provisioning_entry&#45;&gt;m_product_loan -->
<g id="edge5" class="edge">
<title>m_loanproduct_provisioning_entry:w&#45;&gt;m_product_loan:e</title>
<path fill="none" stroke="black" d="M833.69,-949.77C801.38,-948.59 783.85,-942.03 761,-913 727.57,-870.53 775.55,-673 721.5,-673"/>
<polygon fill="black" stroke="black" points="840.5,-949.88 848.44,-953.6 844.5,-949.94 848.5,-950 848.5,-950 848.5,-950 844.5,-949.94 848.56,-946.4 840.5,-949.88 840.5,-949.88"/>
<ellipse fill="none" stroke="black" cx="837.3" cy="-949.83" rx="3.2" ry="3.2"/>
</g>
<!-- m_loanproduct_provisioning_mapping -->
<g id="node7" class="node">
<title>m_loanproduct_provisioning_mapping</title>
<g id="a_node7"><a xlink:href="../../tables/m_loanproduct_provisioning_mapping.html" xlink:title="m_loanproduct_provisioning_mapping" target="_top">
<polygon fill="#ffffff" stroke="transparent" points="839.5,-844 839.5,-902 1087.5,-902 1087.5,-844 839.5,-844"/>
<polygon fill="#f5f5f5" stroke="transparent" points="839.5,-880 839.5,-902 1087.5,-902 1087.5,-880 839.5,-880"/>
<polygon fill="none" stroke="black" points="839.5,-880 839.5,-902 1087.5,-902 1087.5,-880 839.5,-880"/>
<text text-anchor="start" x="844.5" y="-889.2" font-family="Helvetica,sans-Serif" font-weight="bold" font-size="11.00">m_loanproduct_provisioning_mapping</text>
<text text-anchor="start" x="1052.5" y="-888.2" font-family="Helvetica,sans-Serif" font-size="11.00">[table]</text>
<polygon fill="none" stroke="black" points="839.5,-862 839.5,-880 1087.5,-880 1087.5,-862 839.5,-862"/>
<text text-anchor="start" x="842.5" y="-868.2" font-family="Helvetica,sans-Serif" font-size="11.00">...</text>
<polygon fill="#ffffff" stroke="transparent" points="839.5,-844 839.5,-862 948.5,-862 948.5,-844 839.5,-844"/>
<polygon fill="none" stroke="black" points="839.5,-844 839.5,-862 948.5,-862 948.5,-844 839.5,-844"/>
<text text-anchor="start" x="842.5" y="-850.2" font-family="Helvetica,sans-Serif" font-size="11.00">&lt; 2</text>
<polygon fill="#ffffff" stroke="transparent" points="948.5,-844 948.5,-862 1030.5,-862 1030.5,-844 948.5,-844"/>
<polygon fill="none" stroke="black" points="948.5,-844 948.5,-862 1030.5,-862 1030.5,-844 948.5,-844"/>
<text text-anchor="start" x="994.5" y="-850.2" font-family="Helvetica,sans-Serif" font-size="11.00">0 rows</text>
<polygon fill="#ffffff" stroke="transparent" points="1030.5,-844 1030.5,-862 1087.5,-862 1087.5,-844 1030.5,-844"/>
<polygon fill="none" stroke="black" points="1030.5,-844 1030.5,-862 1087.5,-862 1087.5,-844 1030.5,-844"/>
<text text-anchor="start" x="1077.5" y="-850.2" font-family="Helvetica,sans-Serif" font-size="11.00"> &#160;</text>
</a>
</g>
</g>
<!-- m_loanproduct_provisioning_mapping&#45;&gt;m_product_loan -->
<g id="edge6" class="edge">
<title>m_loanproduct_provisioning_mapping:w&#45;&gt;m_product_loan:e</title>
<path fill="none" stroke="black" d="M827.94,-870.77C797.27,-869.34 782.74,-860.72 761,-834 714.5,-776.85 795.18,-673 721.5,-673"/>
<polygon fill="black" stroke="black" points="837.79,-866.98 837.61,-874.98 836.02,-874.95 836.19,-866.95 837.79,-866.98"/>
<polyline fill="none" stroke="black" points="838.5,-871 834.5,-870.91 "/>
<ellipse fill="none" stroke="black" cx="831.3" cy="-870.85" rx="3.2" ry="3.2"/>
</g>
<!-- m_product_loan_charge -->
<g id="node8" class="node">
<title>m_product_loan_charge</title>
<g id="a_node8"><a xlink:href="../../tables/m_product_loan_charge.html" xlink:title="m_product_loan_charge" target="_top">
<polygon fill="#ffffff" stroke="transparent" points="877.5,-765 877.5,-823 1049.5,-823 1049.5,-765 877.5,-765"/>
<polygon fill="#f5f5f5" stroke="transparent" points="877.5,-801 877.5,-823 1049.5,-823 1049.5,-801 877.5,-801"/>
<polygon fill="none" stroke="black" points="877.5,-801 877.5,-823 1049.5,-823 1049.5,-801 877.5,-801"/>
<text text-anchor="start" x="882.5" y="-810.2" font-family="Helvetica,sans-Serif" font-weight="bold" font-size="11.00">m_product_loan_charge</text>
<text text-anchor="start" x="1014.5" y="-809.2" font-family="Helvetica,sans-Serif" font-size="11.00">[table]</text>
<polygon fill="none" stroke="black" points="877.5,-783 877.5,-801 1049.5,-801 1049.5,-783 877.5,-783"/>
<text text-anchor="start" x="880.5" y="-789.2" font-family="Helvetica,sans-Serif" font-size="11.00">...</text>
<polygon fill="#ffffff" stroke="transparent" points="877.5,-765 877.5,-783 948.5,-783 948.5,-765 877.5,-765"/>
<polygon fill="none" stroke="black" points="877.5,-765 877.5,-783 948.5,-783 948.5,-765 877.5,-765"/>
<text text-anchor="start" x="880.5" y="-771.2" font-family="Helvetica,sans-Serif" font-size="11.00">&lt; 2</text>
<polygon fill="#ffffff" stroke="transparent" points="948.5,-765 948.5,-783 1011.5,-783 1011.5,-765 948.5,-765"/>
<polygon fill="none" stroke="black" points="948.5,-765 948.5,-783 1011.5,-783 1011.5,-765 948.5,-765"/>
<text text-anchor="start" x="975.5" y="-771.2" font-family="Helvetica,sans-Serif" font-size="11.00">0 rows</text>
<polygon fill="#ffffff" stroke="transparent" points="1011.5,-765 1011.5,-783 1049.5,-783 1049.5,-765 1011.5,-765"/>
<polygon fill="none" stroke="black" points="1011.5,-765 1011.5,-783 1049.5,-783 1049.5,-765 1011.5,-765"/>
<text text-anchor="start" x="1039.5" y="-771.2" font-family="Helvetica,sans-Serif" font-size="11.00"> &#160;</text>
</a>
</g>
</g>
<!-- m_product_loan_charge&#45;&gt;m_product_loan -->
<g id="edge9" class="edge">
<title>m_product_loan_charge:w&#45;&gt;m_product_loan:e</title>
<path fill="none" stroke="black" d="M861.88,-791.93C818.41,-791.38 797.78,-786.99 761,-755 730.48,-728.45 761.95,-673 721.5,-673"/>
<polygon fill="black" stroke="black" points="868.5,-791.96 876.48,-795.6 872.5,-791.98 876.5,-792 876.5,-792 876.5,-792 872.5,-791.98 876.52,-788.4 868.5,-791.96 868.5,-791.96"/>
<ellipse fill="none" stroke="black" cx="865.3" cy="-791.94" rx="3.2" ry="3.2"/>
</g>
<!-- m_product_loan_configurable_attributes -->
<g id="node9" class="node">
<title>m_product_loan_configurable_attributes</title>
<g id="a_node9"><a xlink:href="../../tables/m_product_loan_configurable_attributes.html" xlink:title="m_product_loan_configurable_attributes" target="_top">
<polygon fill="#ffffff" stroke="transparent" points="834.5,-686 834.5,-744 1092.5,-744 1092.5,-686 834.5,-686"/>
<polygon fill="#f5f5f5" stroke="transparent" points="834.5,-722 834.5,-744 1092.5,-744 1092.5,-722 834.5,-722"/>
<polygon fill="none" stroke="black" points="834.5,-722 834.5,-744 1092.5,-744 1092.5,-722 834.5,-722"/>
<text text-anchor="start" x="839.5" y="-731.2" font-family="Helvetica,sans-Serif" font-weight="bold" font-size="11.00">m_product_loan_configurable_attributes</text>
<text text-anchor="start" x="1057.5" y="-730.2" font-family="Helvetica,sans-Serif" font-size="11.00">[table]</text>
<polygon fill="none" stroke="black" points="834.5,-704 834.5,-722 1092.5,-722 1092.5,-704 834.5,-704"/>
<text text-anchor="start" x="837.5" y="-710.2" font-family="Helvetica,sans-Serif" font-size="11.00">...</text>
<polygon fill="#ffffff" stroke="transparent" points="834.5,-686 834.5,-704 948.5,-704 948.5,-686 834.5,-686"/>
<polygon fill="none" stroke="black" points="834.5,-686 834.5,-704 948.5,-704 948.5,-686 834.5,-686"/>
<text text-anchor="start" x="837.5" y="-692.2" font-family="Helvetica,sans-Serif" font-size="11.00">&lt; 1</text>
<polygon fill="#ffffff" stroke="transparent" points="948.5,-686 948.5,-704 1033.5,-704 1033.5,-686 948.5,-686"/>
<polygon fill="none" stroke="black" points="948.5,-686 948.5,-704 1033.5,-704 1033.5,-686 948.5,-686"/>
<text text-anchor="start" x="997.5" y="-692.2" font-family="Helvetica,sans-Serif" font-size="11.00">0 rows</text>
<polygon fill="#ffffff" stroke="transparent" points="1033.5,-686 1033.5,-704 1092.5,-704 1092.5,-686 1033.5,-686"/>
<polygon fill="none" stroke="black" points="1033.5,-686 1033.5,-704 1092.5,-704 1092.5,-686 1033.5,-686"/>
<text text-anchor="start" x="1082.5" y="-692.2" font-family="Helvetica,sans-Serif" font-size="11.00"> &#160;</text>
</a>
</g>
</g>
<!-- m_product_loan_configurable_attributes&#45;&gt;m_product_loan -->
<g id="edge10" class="edge">
<title>m_product_loan_configurable_attributes:w&#45;&gt;m_product_loan:e</title>
<path fill="none" stroke="black" d="M819,-711.89C778.93,-705.43 769.09,-673 721.5,-673"/>
<polygon fill="black" stroke="black" points="825.52,-712.39 833.22,-716.59 829.51,-712.69 833.5,-713 833.5,-713 833.5,-713 829.51,-712.69 833.78,-709.41 825.52,-712.39 825.52,-712.39"/>
<ellipse fill="none" stroke="black" cx="822.33" cy="-712.14" rx="3.2" ry="3.2"/>
</g>
<!-- m_product_loan_floating_rates -->
<g id="node10" class="node">
<title>m_product_loan_floating_rates</title>
<g id="a_node10"><a xlink:href="../../tables/m_product_loan_floating_rates.html" xlink:title="m_product_loan_floating_rates" target="_top">
<polygon fill="#ffffff" stroke="transparent" points="859.5,-607 859.5,-665 1067.5,-665 1067.5,-607 859.5,-607"/>
<polygon fill="#f5f5f5" stroke="transparent" points="859.5,-643 859.5,-665 1067.5,-665 1067.5,-643 859.5,-643"/>
<polygon fill="none" stroke="black" points="859.5,-643 859.5,-665 1067.5,-665 1067.5,-643 859.5,-643"/>
<text text-anchor="start" x="864.5" y="-652.2" font-family="Helvetica,sans-Serif" font-weight="bold" font-size="11.00">m_product_loan_floating_rates</text>
<text text-anchor="start" x="1032.5" y="-651.2" font-family="Helvetica,sans-Serif" font-size="11.00">[table]</text>
<polygon fill="none" stroke="black" points="859.5,-625 859.5,-643 1067.5,-643 1067.5,-625 859.5,-625"/>
<text text-anchor="start" x="862.5" y="-631.2" font-family="Helvetica,sans-Serif" font-size="11.00">...</text>
<polygon fill="#ffffff" stroke="transparent" points="859.5,-607 859.5,-625 948.5,-625 948.5,-607 859.5,-607"/>
<polygon fill="none" stroke="black" points="859.5,-607 859.5,-625 948.5,-625 948.5,-607 859.5,-607"/>
<text text-anchor="start" x="862.5" y="-613.2" font-family="Helvetica,sans-Serif" font-size="11.00">&lt; 2</text>
<polygon fill="#ffffff" stroke="transparent" points="948.5,-607 948.5,-625 1020.5,-625 1020.5,-607 948.5,-607"/>
<polygon fill="none" stroke="black" points="948.5,-607 948.5,-625 1020.5,-625 1020.5,-607 948.5,-607"/>
<text text-anchor="start" x="984.5" y="-613.2" font-family="Helvetica,sans-Serif" font-size="11.00">0 rows</text>
<polygon fill="#ffffff" stroke="transparent" points="1020.5,-607 1020.5,-625 1067.5,-625 1067.5,-607 1020.5,-607"/>
<polygon fill="none" stroke="black" points="1020.5,-607 1020.5,-625 1067.5,-625 1067.5,-607 1020.5,-607"/>
<text text-anchor="start" x="1057.5" y="-613.2" font-family="Helvetica,sans-Serif" font-size="11.00"> &#160;</text>
</a>
</g>
</g>
<!-- m_product_loan_floating_rates&#45;&gt;m_product_loan -->
<g id="edge11" class="edge">
<title>m_product_loan_floating_rates:w&#45;&gt;m_product_loan:e</title>
<path fill="none" stroke="black" d="M843.93,-634.74C793.13,-640.14 779.61,-673 721.5,-673"/>
<polygon fill="black" stroke="black" points="850.51,-634.41 858.68,-637.6 854.51,-634.2 858.5,-634 858.5,-634 858.5,-634 854.51,-634.2 858.32,-630.4 850.51,-634.41 850.51,-634.41"/>
<ellipse fill="none" stroke="black" cx="847.31" cy="-634.57" rx="3.2" ry="3.2"/>
</g>
<!-- m_product_loan_guarantee_details -->
<g id="node11" class="node">
<title>m_product_loan_guarantee_details</title>
<g id="a_node11"><a xlink:href="../../tables/m_product_loan_guarantee_details.html" xlink:title="m_product_loan_guarantee_details" target="_top">
<polygon fill="#ffffff" stroke="transparent" points="769,-432 769,-586 1158,-586 1158,-432 769,-432"/>
<polygon fill="#f5f5f5" stroke="transparent" points="771.5,-562 771.5,-584 1156.5,-584 1156.5,-562 771.5,-562"/>
<polygon fill="none" stroke="black" points="771.5,-562 771.5,-584 1156.5,-584 1156.5,-562 771.5,-562"/>
<text text-anchor="start" x="776.5" y="-571.2" font-family="Helvetica,sans-Serif" font-weight="bold" font-size="11.00">m_product_loan_guarantee_details</text>
<text text-anchor="start" x="1121.5" y="-570.2" font-family="Helvetica,sans-Serif" font-size="11.00">[table]</text>
<polygon fill="none" stroke="black" points="771.5,-540 771.5,-562 1086.5,-562 1086.5,-540 771.5,-540"/>
<image xlink:href="../../images/primaryKeys.png" width="11px" height="12px" preserveAspectRatio="xMinYMin meet" x="776.5" y="-557"/>
<text text-anchor="start" x="791.5" y="-548.2" font-family="Helvetica,sans-Serif" font-size="11.00">id</text>
<polygon fill="none" stroke="black" points="1086.5,-540 1086.5,-562 1156.5,-562 1156.5,-540 1086.5,-540"/>
<text text-anchor="start" x="1089.5" y="-548.2" font-family="Helvetica,sans-Serif" font-size="11.00">bigint[19]</text>
<polygon fill="#ffffff" stroke="transparent" points="771.5,-518 771.5,-540 1086.5,-540 1086.5,-518 771.5,-518"/>
<polygon fill="none" stroke="black" points="771.5,-518 771.5,-540 1086.5,-540 1086.5,-518 771.5,-518"/>
<image xlink:href="../../images/foreignKeys.png" width="11px" height="12px" preserveAspectRatio="xMinYMin meet" x="776.5" y="-535"/>
<text text-anchor="start" x="791.5" y="-526.2" font-family="Helvetica,sans-Serif" font-size="11.00">loan_product_id</text>
<polygon fill="none" stroke="black" points="1086.5,-518 1086.5,-540 1156.5,-540 1156.5,-518 1086.5,-518"/>
<text text-anchor="start" x="1089.5" y="-526.2" font-family="Helvetica,sans-Serif" font-size="11.00">bigint[19]</text>
<polygon fill="none" stroke="black" points="771.5,-496 771.5,-518 1086.5,-518 1086.5,-496 771.5,-496"/>
<text text-anchor="start" x="791.5" y="-504.2" font-family="Helvetica,sans-Serif" font-size="11.00">mandatory_guarantee</text>
<polygon fill="none" stroke="black" points="1086.5,-496 1086.5,-518 1156.5,-518 1156.5,-496 1086.5,-496"/>
<text text-anchor="start" x="1089.5" y="-504.2" font-family="Helvetica,sans-Serif" font-size="11.00">decimal[19,5]</text>
<polygon fill="none" stroke="black" points="771.5,-474 771.5,-496 1086.5,-496 1086.5,-474 771.5,-474"/>
<text text-anchor="start" x="791.5" y="-482.2" font-family="Helvetica,sans-Serif" font-size="11.00">minimum_guarantee_from_own_funds</text>
<polygon fill="none" stroke="black" points="1086.5,-474 1086.5,-496 1156.5,-496 1156.5,-474 1086.5,-474"/>
<text text-anchor="start" x="1089.5" y="-482.2" font-family="Helvetica,sans-Serif" font-size="11.00">decimal[19,5]</text>
<polygon fill="none" stroke="black" points="771.5,-452 771.5,-474 1086.5,-474 1086.5,-452 771.5,-452"/>
<text text-anchor="start" x="791.5" y="-460.2" font-family="Helvetica,sans-Serif" font-size="11.00">minimum_guarantee_from_guarantor_funds</text>
<polygon fill="none" stroke="black" points="1086.5,-452 1086.5,-474 1156.5,-474 1156.5,-452 1086.5,-452"/>
<text text-anchor="start" x="1089.5" y="-460.2" font-family="Helvetica,sans-Serif" font-size="11.00">decimal[19,5]</text>
<polygon fill="#ffffff" stroke="transparent" points="771.5,-434 771.5,-452 920.5,-452 920.5,-434 771.5,-434"/>
<polygon fill="none" stroke="black" points="771.5,-434 771.5,-452 920.5,-452 920.5,-434 771.5,-434"/>
<text text-anchor="start" x="774.5" y="-440.2" font-family="Helvetica,sans-Serif" font-size="11.00">&lt; 1</text>
<polygon fill="#ffffff" stroke="transparent" points="920.5,-434 920.5,-452 1086.5,-452 1086.5,-434 920.5,-434"/>
<polygon fill="none" stroke="black" points="920.5,-434 920.5,-452 1086.5,-452 1086.5,-434 920.5,-434"/>
<text text-anchor="start" x="1050.5" y="-440.2" font-family="Helvetica,sans-Serif" font-size="11.00">0 rows</text>
<polygon fill="#ffffff" stroke="transparent" points="1086.5,-434 1086.5,-452 1156.5,-452 1156.5,-434 1086.5,-434"/>
<polygon fill="none" stroke="black" points="1086.5,-434 1086.5,-452 1156.5,-452 1156.5,-434 1086.5,-434"/>
<text text-anchor="start" x="1137.5" y="-440.2" font-family="Helvetica,sans-Serif" font-size="11.00">0 &gt;</text>
<polygon fill="none" stroke="black" stroke-width="2" points="770,-433 770,-585 1157,-585 1157,-433 770,-433"/>
</a>
</g>
</g>
<!-- m_product_loan_guarantee_details&#45;&gt;m_product_loan -->
<g id="edge12" class="edge">
<title>m_product_loan_guarantee_details:w&#45;&gt;m_product_loan:e</title>
<path fill="none" stroke="black" d="M756.28,-532.01C716.58,-552.69 783.29,-673 721.5,-673"/>
<polygon fill="black" stroke="black" points="762.67,-530.66 771.25,-532.52 766.59,-529.83 770.5,-529 770.5,-529 770.5,-529 766.59,-529.83 769.75,-525.48 762.67,-530.66 762.67,-530.66"/>
<ellipse fill="none" stroke="black" cx="759.54" cy="-531.32" rx="3.2" ry="3.2"/>
</g>
<!-- m_product_loan_rate -->
<g id="node12" class="node">
<title>m_product_loan_rate</title>
<g id="a_node12"><a xlink:href="../../tables/m_product_loan_rate.html" xlink:title="m_product_loan_rate" target="_top">
<polygon fill="#ffffff" stroke="transparent" points="885.5,-353 885.5,-411 1041.5,-411 1041.5,-353 885.5,-353"/>
<polygon fill="#f5f5f5" stroke="transparent" points="885.5,-389 885.5,-411 1041.5,-411 1041.5,-389 885.5,-389"/>
<polygon fill="none" stroke="black" points="885.5,-389 885.5,-411 1041.5,-411 1041.5,-389 885.5,-389"/>
<text text-anchor="start" x="890.5" y="-398.2" font-family="Helvetica,sans-Serif" font-weight="bold" font-size="11.00">m_product_loan_rate</text>
<text text-anchor="start" x="1006.5" y="-397.2" font-family="Helvetica,sans-Serif" font-size="11.00">[table]</text>
<polygon fill="none" stroke="black" points="885.5,-371 885.5,-389 1041.5,-389 1041.5,-371 885.5,-371"/>
<text text-anchor="start" x="888.5" y="-377.2" font-family="Helvetica,sans-Serif" font-size="11.00">...</text>
<polygon fill="#ffffff" stroke="transparent" points="885.5,-353 885.5,-371 948.5,-371 948.5,-353 885.5,-353"/>
<polygon fill="none" stroke="black" points="885.5,-353 885.5,-371 948.5,-371 948.5,-353 885.5,-353"/>
<text text-anchor="start" x="888.5" y="-359.2" font-family="Helvetica,sans-Serif" font-size="11.00">&lt; 2</text>
<polygon fill="#ffffff" stroke="transparent" points="948.5,-353 948.5,-371 1007.5,-371 1007.5,-353 948.5,-353"/>
<polygon fill="none" stroke="black" points="948.5,-353 948.5,-371 1007.5,-371 1007.5,-353 948.5,-353"/>
<text text-anchor="start" x="971.5" y="-359.2" font-family="Helvetica,sans-Serif" font-size="11.00">0 rows</text>
<polygon fill="#ffffff" stroke="transparent" points="1007.5,-353 1007.5,-371 1041.5,-371 1041.5,-353 1007.5,-353"/>
<polygon fill="none" stroke="black" points="1007.5,-353 1007.5,-371 1041.5,-371 1041.5,-353 1007.5,-353"/>
<text text-anchor="start" x="1031.5" y="-359.2" font-family="Helvetica,sans-Serif" font-size="11.00"> &#160;</text>
</a>
</g>
</g>
<!-- m_product_loan_rate&#45;&gt;m_product_loan -->
<g id="edge13" class="edge">
<title>m_product_loan_rate:w&#45;&gt;m_product_loan:e</title>
<path fill="none" stroke="black" d="M869.88,-379.98C821.5,-379.95 795.05,-381.54 761,-422 724.64,-465.2 777.96,-673 721.5,-673"/>
<polygon fill="black" stroke="black" points="876.5,-379.99 884.49,-383.6 880.5,-379.99 884.5,-380 884.5,-380 884.5,-380 880.5,-379.99 884.51,-376.4 876.5,-379.99 876.5,-379.99"/>
<ellipse fill="none" stroke="black" cx="873.3" cy="-379.98" rx="3.2" ry="3.2"/>
</g>
<!-- m_product_loan_recalculation_details -->
<g id="node13" class="node">
<title>m_product_loan_recalculation_details</title>
<g id="a_node13"><a xlink:href="../../tables/m_product_loan_recalculation_details.html" xlink:title="m_product_loan_recalculation_details" target="_top">
<polygon fill="#ffffff" stroke="transparent" points="841.5,-274 841.5,-332 1085.5,-332 1085.5,-274 841.5,-274"/>
<polygon fill="#f5f5f5" stroke="transparent" points="841.5,-310 841.5,-332 1085.5,-332 1085.5,-310 841.5,-310"/>
<polygon fill="none" stroke="black" points="841.5,-310 841.5,-332 1085.5,-332 1085.5,-310 841.5,-310"/>
<text text-anchor="start" x="846.5" y="-319.2" font-family="Helvetica,sans-Serif" font-weight="bold" font-size="11.00">m_product_loan_recalculation_details</text>
<text text-anchor="start" x="1050.5" y="-318.2" font-family="Helvetica,sans-Serif" font-size="11.00">[table]</text>
<polygon fill="none" stroke="black" points="841.5,-292 841.5,-310 1085.5,-310 1085.5,-292 841.5,-292"/>
<text text-anchor="start" x="844.5" y="-298.2" font-family="Helvetica,sans-Serif" font-size="11.00">...</text>
<polygon fill="#ffffff" stroke="transparent" points="841.5,-274 841.5,-292 948.5,-292 948.5,-274 841.5,-274"/>
<polygon fill="none" stroke="black" points="841.5,-274 841.5,-292 948.5,-292 948.5,-274 841.5,-274"/>
<text text-anchor="start" x="844.5" y="-280.2" font-family="Helvetica,sans-Serif" font-size="11.00">&lt; 1</text>
<polygon fill="#ffffff" stroke="transparent" points="948.5,-274 948.5,-292 1029.5,-292 1029.5,-274 948.5,-274"/>
<polygon fill="none" stroke="black" points="948.5,-274 948.5,-292 1029.5,-292 1029.5,-274 948.5,-274"/>
<text text-anchor="start" x="993.5" y="-280.2" font-family="Helvetica,sans-Serif" font-size="11.00">0 rows</text>
<polygon fill="#ffffff" stroke="transparent" points="1029.5,-274 1029.5,-292 1085.5,-292 1085.5,-274 1029.5,-274"/>
<polygon fill="none" stroke="black" points="1029.5,-274 1029.5,-292 1085.5,-292 1085.5,-274 1029.5,-274"/>
<text text-anchor="start" x="1075.5" y="-280.2" font-family="Helvetica,sans-Serif" font-size="11.00"> &#160;</text>
</a>
</g>
</g>
<!-- m_product_loan_recalculation_details&#45;&gt;m_product_loan -->
<g id="edge14" class="edge">
<title>m_product_loan_recalculation_details:w&#45;&gt;m_product_loan:e</title>
<path fill="none" stroke="black" d="M825.73,-301.51C795.95,-303.83 780.62,-314.44 761,-343 719.18,-403.88 795.36,-673 721.5,-673"/>
<polygon fill="black" stroke="black" points="832.5,-301.28 840.63,-304.6 836.5,-301.14 840.5,-301 840.5,-301 840.5,-301 836.5,-301.14 840.37,-297.4 832.5,-301.28 832.5,-301.28"/>
<ellipse fill="none" stroke="black" cx="829.31" cy="-301.39" rx="3.2" ry="3.2"/>
</g>
<!-- m_product_loan_variable_installment_config -->
<g id="node14" class="node">
<title>m_product_loan_variable_installment_config</title>
<g id="a_node14"><a xlink:href="../../tables/m_product_loan_variable_installment_config.html" xlink:title="m_product_loan_variable_installment_config" target="_top">
<polygon fill="#ffffff" stroke="transparent" points="823.5,-195 823.5,-253 1103.5,-253 1103.5,-195 823.5,-195"/>
<polygon fill="#f5f5f5" stroke="transparent" points="823.5,-231 823.5,-253 1103.5,-253 1103.5,-231 823.5,-231"/>
<polygon fill="none" stroke="black" points="823.5,-231 823.5,-253 1103.5,-253 1103.5,-231 823.5,-231"/>
<text text-anchor="start" x="828.5" y="-240.2" font-family="Helvetica,sans-Serif" font-weight="bold" font-size="11.00">m_product_loan_variable_installment_config</text>
<text text-anchor="start" x="1068.5" y="-239.2" font-family="Helvetica,sans-Serif" font-size="11.00">[table]</text>
<polygon fill="none" stroke="black" points="823.5,-213 823.5,-231 1103.5,-231 1103.5,-213 823.5,-213"/>
<text text-anchor="start" x="826.5" y="-219.2" font-family="Helvetica,sans-Serif" font-size="11.00">...</text>
<polygon fill="#ffffff" stroke="transparent" points="823.5,-195 823.5,-213 948.5,-213 948.5,-195 823.5,-195"/>
<polygon fill="none" stroke="black" points="823.5,-195 823.5,-213 948.5,-213 948.5,-195 823.5,-195"/>
<text text-anchor="start" x="826.5" y="-201.2" font-family="Helvetica,sans-Serif" font-size="11.00">&lt; 1</text>
<polygon fill="#ffffff" stroke="transparent" points="948.5,-195 948.5,-213 1038.5,-213 1038.5,-195 948.5,-195"/>
<polygon fill="none" stroke="black" points="948.5,-195 948.5,-213 1038.5,-213 1038.5,-195 948.5,-195"/>
<text text-anchor="start" x="1002.5" y="-201.2" font-family="Helvetica,sans-Serif" font-size="11.00">0 rows</text>
<polygon fill="#ffffff" stroke="transparent" points="1038.5,-195 1038.5,-213 1103.5,-213 1103.5,-195 1038.5,-195"/>
<polygon fill="none" stroke="black" points="1038.5,-195 1038.5,-213 1103.5,-213 1103.5,-195 1038.5,-195"/>
<text text-anchor="start" x="1093.5" y="-201.2" font-family="Helvetica,sans-Serif" font-size="11.00"> &#160;</text>
</a>
</g>
</g>
<!-- m_product_loan_variable_installment_config&#45;&gt;m_product_loan -->
<g id="edge15" class="edge">
<title>m_product_loan_variable_installment_config:w&#45;&gt;m_product_loan:e</title>
<path fill="none" stroke="black" d="M807.83,-223.1C785.47,-226.84 775.08,-240.18 761,-264 737.76,-303.3 767.16,-673 721.5,-673"/>
<polygon fill="black" stroke="black" points="814.52,-222.6 822.77,-225.59 818.51,-222.3 822.5,-222 822.5,-222 822.5,-222 818.51,-222.3 822.23,-218.41 814.52,-222.6 814.52,-222.6"/>
<ellipse fill="none" stroke="black" cx="811.33" cy="-222.84" rx="3.2" ry="3.2"/>
</g>
<!-- m_product_loan_variations_borrower_cycle -->
<g id="node15" class="node">
<title>m_product_loan_variations_borrower_cycle</title>
<g id="a_node15"><a xlink:href="../../tables/m_product_loan_variations_borrower_cycle.html" xlink:title="m_product_loan_variations_borrower_cycle" target="_top">
<polygon fill="#ffffff" stroke="transparent" points="826,-116 826,-174 1101,-174 1101,-116 826,-116"/>
<polygon fill="#f5f5f5" stroke="transparent" points="826.5,-152 826.5,-174 1101.5,-174 1101.5,-152 826.5,-152"/>
<polygon fill="none" stroke="black" points="826.5,-152 826.5,-174 1101.5,-174 1101.5,-152 826.5,-152"/>
<text text-anchor="start" x="831.5" y="-161.2" font-family="Helvetica,sans-Serif" font-weight="bold" font-size="11.00">m_product_loan_variations_borrower_cycle</text>
<text text-anchor="start" x="1066.5" y="-160.2" font-family="Helvetica,sans-Serif" font-size="11.00">[table]</text>
<polygon fill="none" stroke="black" points="826.5,-134 826.5,-152 1101.5,-152 1101.5,-134 826.5,-134"/>
<text text-anchor="start" x="829.5" y="-140.2" font-family="Helvetica,sans-Serif" font-size="11.00">...</text>
<polygon fill="#ffffff" stroke="transparent" points="826.5,-116 826.5,-134 948.5,-134 948.5,-116 826.5,-116"/>
<polygon fill="none" stroke="black" points="826.5,-116 826.5,-134 948.5,-134 948.5,-116 826.5,-116"/>
<text text-anchor="start" x="829.5" y="-122.2" font-family="Helvetica,sans-Serif" font-size="11.00">&lt; 1</text>
<polygon fill="#ffffff" stroke="transparent" points="948.5,-116 948.5,-134 1037.5,-134 1037.5,-116 948.5,-116"/>
<polygon fill="none" stroke="black" points="948.5,-116 948.5,-134 1037.5,-134 1037.5,-116 948.5,-116"/>
<text text-anchor="start" x="1001.5" y="-122.2" font-family="Helvetica,sans-Serif" font-size="11.00">0 rows</text>
<polygon fill="#ffffff" stroke="transparent" points="1037.5,-116 1037.5,-134 1101.5,-134 1101.5,-116 1037.5,-116"/>
<polygon fill="none" stroke="black" points="1037.5,-116 1037.5,-134 1101.5,-134 1101.5,-116 1037.5,-116"/>
<text text-anchor="start" x="1091.5" y="-122.2" font-family="Helvetica,sans-Serif" font-size="11.00"> &#160;</text>
</a>
</g>
</g>
<!-- m_product_loan_variations_borrower_cycle&#45;&gt;m_product_loan -->
<g id="edge16" class="edge">
<title>m_product_loan_variations_borrower_cycle:w&#45;&gt;m_product_loan:e</title>
<path fill="none" stroke="black" d="M810.93,-143.94C787.18,-147.35 775.77,-160.2 761,-185 733.16,-231.74 775.9,-673 721.5,-673"/>
<polygon fill="black" stroke="black" points="817.52,-143.51 825.73,-146.59 821.51,-143.26 825.5,-143 825.5,-143 825.5,-143 821.51,-143.26 825.27,-139.41 817.52,-143.51 817.52,-143.51"/>
<ellipse fill="none" stroke="black" cx="814.32" cy="-143.72" rx="3.2" ry="3.2"/>
</g>
<!-- m_product_mix -->
<g id="node16" class="node">
<title>m_product_mix</title>
<g id="a_node16"><a xlink:href="../../tables/m_product_mix.html" xlink:title="m_product_mix" target="_top">
<polygon fill="#ffffff" stroke="transparent" points="900.5,-37 900.5,-95 1026.5,-95 1026.5,-37 900.5,-37"/>
<polygon fill="#f5f5f5" stroke="transparent" points="900.5,-73 900.5,-95 1026.5,-95 1026.5,-73 900.5,-73"/>
<polygon fill="none" stroke="black" points="900.5,-73 900.5,-95 1026.5,-95 1026.5,-73 900.5,-73"/>
<text text-anchor="start" x="905.5" y="-82.2" font-family="Helvetica,sans-Serif" font-weight="bold" font-size="11.00">m_product_mix</text>
<text text-anchor="start" x="991.5" y="-81.2" font-family="Helvetica,sans-Serif" font-size="11.00">[table]</text>
<polygon fill="none" stroke="black" points="900.5,-55 900.5,-73 1026.5,-73 1026.5,-55 900.5,-55"/>
<text text-anchor="start" x="903.5" y="-61.2" font-family="Helvetica,sans-Serif" font-size="11.00">...</text>
<polygon fill="#ffffff" stroke="transparent" points="900.5,-37 900.5,-55 948.5,-55 948.5,-37 900.5,-37"/>
<polygon fill="none" stroke="black" points="900.5,-37 900.5,-55 948.5,-55 948.5,-37 900.5,-37"/>
<text text-anchor="start" x="903.5" y="-43.2" font-family="Helvetica,sans-Serif" font-size="11.00">&lt; 2</text>
<polygon fill="#ffffff" stroke="transparent" points="948.5,-37 948.5,-55 1000.5,-55 1000.5,-37 948.5,-37"/>
<polygon fill="none" stroke="black" points="948.5,-37 948.5,-55 1000.5,-55 1000.5,-37 948.5,-37"/>
<text text-anchor="start" x="964.5" y="-43.2" font-family="Helvetica,sans-Serif" font-size="11.00">0 rows</text>
<polygon fill="#ffffff" stroke="transparent" points="1000.5,-37 1000.5,-55 1026.5,-55 1026.5,-37 1000.5,-37"/>
<polygon fill="none" stroke="black" points="1000.5,-37 1000.5,-55 1026.5,-55 1026.5,-37 1000.5,-37"/>
<text text-anchor="start" x="1016.5" y="-43.2" font-family="Helvetica,sans-Serif" font-size="11.00"> &#160;</text>
</a>
</g>
</g>
<!-- m_product_mix&#45;&gt;m_product_loan -->
<g id="edge17" class="edge">
<title>m_product_mix:w&#45;&gt;m_product_loan:e</title>
<path fill="none" stroke="black" d="M884.96,-62.58C829.81,-57.06 797.96,-53.63 761,-100 721.64,-149.38 784.65,-667 721.5,-673"/>
<polygon fill="black" stroke="black" points="891.54,-63.22 899.15,-67.58 895.52,-63.61 899.5,-64 899.5,-64 899.5,-64 895.52,-63.61 899.85,-60.42 891.54,-63.22 891.54,-63.22"/>
<ellipse fill="none" stroke="black" cx="888.35" cy="-62.91" rx="3.2" ry="3.2"/>
</g>
<!-- m_product_mix&#45;&gt;m_product_loan -->
<g id="edge18" class="edge">
<title>m_product_mix:w&#45;&gt;m_product_loan:e</title>
<path fill="none" stroke="black" d="M884.96,-65.4C829.81,-70.06 797.96,-66.63 761,-113 721.64,-162.38 784.65,-680 721.5,-673"/>
<polygon fill="black" stroke="black" points="891.54,-64.76 899.84,-67.58 895.52,-64.38 899.5,-64 899.5,-64 899.5,-64 895.52,-64.38 899.16,-60.42 891.54,-64.76 891.54,-64.76"/>
<ellipse fill="none" stroke="black" cx="888.35" cy="-65.07" rx="3.2" ry="3.2"/>
</g>
</g>
</svg>
