<?xml version="1.0" encoding="UTF-8" standalone="no"?>
<!DOCTYPE svg PUBLIC "-//W3C//DTD SVG 1.1//EN"
 "http://www.w3.org/Graphics/SVG/1.1/DTD/svg11.dtd">
<!-- Generated by graphviz version 2.43.0 (0)
 -->
<!-- Title: oneDegreeRelationshipsDiagram Pages: 1 -->
<svg width="859pt" height="263pt"
 viewBox="0.00 0.00 859.00 263.00" xmlns="http://www.w3.org/2000/svg" xmlns:xlink="http://www.w3.org/1999/xlink">
<g id="graph0" class="graph" transform="scale(1 1) rotate(0) translate(4 259)">
<title>oneDegreeRelationshipsDiagram</title>
<polygon fill="#ffffff" stroke="transparent" points="-4,4 -4,-259 855,-259 855,4 -4,4"/>
<text text-anchor="middle" x="71.5" y="-7.2" font-family="Helvetica,sans-Serif" font-size="11.00">Generated by SchemaSpy</text>
<!-- m_product_loan_guarantee_details -->
<g id="node1" class="node">
<title>m_product_loan_guarantee_details</title>
<g id="a_node1"><a xlink:href="../../tables/m_product_loan_guarantee_details.html" xlink:title="m_product_loan_guarantee_details" target="_top">
<polygon fill="#ffffff" stroke="transparent" points="454,-97 454,-251 843,-251 843,-97 454,-97"/>
<polygon fill="#f5f5f5" stroke="transparent" points="456.5,-227 456.5,-249 841.5,-249 841.5,-227 456.5,-227"/>
<polygon fill="none" stroke="black" points="456.5,-227 456.5,-249 841.5,-249 841.5,-227 456.5,-227"/>
<text text-anchor="start" x="461.5" y="-236.2" font-family="Helvetica,sans-Serif" font-weight="bold" font-size="11.00">m_product_loan_guarantee_details</text>
<text text-anchor="start" x="806.5" y="-235.2" font-family="Helvetica,sans-Serif" font-size="11.00">[table]</text>
<polygon fill="none" stroke="black" points="456.5,-205 456.5,-227 771.5,-227 771.5,-205 456.5,-205"/>
<image xlink:href="../../images/primaryKeys.png" width="11px" height="12px" preserveAspectRatio="xMinYMin meet" x="461.5" y="-222"/>
<text text-anchor="start" x="476.5" y="-213.2" font-family="Helvetica,sans-Serif" font-size="11.00">id</text>
<polygon fill="none" stroke="black" points="771.5,-205 771.5,-227 841.5,-227 841.5,-205 771.5,-205"/>
<text text-anchor="start" x="774.5" y="-213.2" font-family="Helvetica,sans-Serif" font-size="11.00">bigint[19]</text>
<polygon fill="#ffffff" stroke="transparent" points="456.5,-183 456.5,-205 771.5,-205 771.5,-183 456.5,-183"/>
<polygon fill="none" stroke="black" points="456.5,-183 456.5,-205 771.5,-205 771.5,-183 456.5,-183"/>
<image xlink:href="../../images/foreignKeys.png" width="11px" height="12px" preserveAspectRatio="xMinYMin meet" x="461.5" y="-200"/>
<text text-anchor="start" x="476.5" y="-191.2" font-family="Helvetica,sans-Serif" font-size="11.00">loan_product_id</text>
<polygon fill="none" stroke="black" points="771.5,-183 771.5,-205 841.5,-205 841.5,-183 771.5,-183"/>
<text text-anchor="start" x="774.5" y="-191.2" font-family="Helvetica,sans-Serif" font-size="11.00">bigint[19]</text>
<polygon fill="none" stroke="black" points="456.5,-161 456.5,-183 771.5,-183 771.5,-161 456.5,-161"/>
<text text-anchor="start" x="476.5" y="-169.2" font-family="Helvetica,sans-Serif" font-size="11.00">mandatory_guarantee</text>
<polygon fill="none" stroke="black" points="771.5,-161 771.5,-183 841.5,-183 841.5,-161 771.5,-161"/>
<text text-anchor="start" x="774.5" y="-169.2" font-family="Helvetica,sans-Serif" font-size="11.00">decimal[19,5]</text>
<polygon fill="none" stroke="black" points="456.5,-139 456.5,-161 771.5,-161 771.5,-139 456.5,-139"/>
<text text-anchor="start" x="476.5" y="-147.2" font-family="Helvetica,sans-Serif" font-size="11.00">minimum_guarantee_from_own_funds</text>
<polygon fill="none" stroke="black" points="771.5,-139 771.5,-161 841.5,-161 841.5,-139 771.5,-139"/>
<text text-anchor="start" x="774.5" y="-147.2" font-family="Helvetica,sans-Serif" font-size="11.00">decimal[19,5]</text>
<polygon fill="none" stroke="black" points="456.5,-117 456.5,-139 771.5,-139 771.5,-117 456.5,-117"/>
<text text-anchor="start" x="476.5" y="-125.2" font-family="Helvetica,sans-Serif" font-size="11.00">minimum_guarantee_from_guarantor_funds</text>
<polygon fill="none" stroke="black" points="771.5,-117 771.5,-139 841.5,-139 841.5,-117 771.5,-117"/>
<text text-anchor="start" x="774.5" y="-125.2" font-family="Helvetica,sans-Serif" font-size="11.00">decimal[19,5]</text>
<polygon fill="#ffffff" stroke="transparent" points="456.5,-99 456.5,-117 605.5,-117 605.5,-99 456.5,-99"/>
<polygon fill="none" stroke="black" points="456.5,-99 456.5,-117 605.5,-117 605.5,-99 456.5,-99"/>
<text text-anchor="start" x="459.5" y="-105.2" font-family="Helvetica,sans-Serif" font-size="11.00">&lt; 1</text>
<polygon fill="#ffffff" stroke="transparent" points="605.5,-99 605.5,-117 771.5,-117 771.5,-99 605.5,-99"/>
<polygon fill="none" stroke="black" points="605.5,-99 605.5,-117 771.5,-117 771.5,-99 605.5,-99"/>
<text text-anchor="start" x="735.5" y="-105.2" font-family="Helvetica,sans-Serif" font-size="11.00">0 rows</text>
<polygon fill="#ffffff" stroke="transparent" points="771.5,-99 771.5,-117 841.5,-117 841.5,-99 771.5,-99"/>
<polygon fill="none" stroke="black" points="771.5,-99 771.5,-117 841.5,-117 841.5,-99 771.5,-99"/>
<text text-anchor="start" x="822.5" y="-105.2" font-family="Helvetica,sans-Serif" font-size="11.00">0 &gt;</text>
<polygon fill="none" stroke="black" stroke-width="2" points="455,-98 455,-250 842,-250 842,-98 455,-98"/>
</a>
</g>
</g>
<!-- m_product_loan -->
<g id="node2" class="node">
<title>m_product_loan</title>
<g id="a_node2"><a xlink:href="../../tables/m_product_loan.html" xlink:title="m_product_loan" target="_top">
<polygon fill="#ffffff" stroke="transparent" points="8,-37 8,-227 405,-227 405,-37 8,-37"/>
<polygon fill="#f5f5f5" stroke="transparent" points="8.5,-205 8.5,-227 405.5,-227 405.5,-205 8.5,-205"/>
<polygon fill="none" stroke="black" points="8.5,-205 8.5,-227 405.5,-227 405.5,-205 8.5,-205"/>
<text text-anchor="start" x="13.5" y="-214.2" font-family="Helvetica,sans-Serif" font-weight="bold" font-size="11.00">m_product_loan</text>
<text text-anchor="start" x="370.5" y="-213.2" font-family="Helvetica,sans-Serif" font-size="11.00">[table]</text>
<polygon fill="none" stroke="black" points="8.5,-183 8.5,-205 405.5,-205 405.5,-183 8.5,-183"/>
<image xlink:href="../../images/primaryKeys.png" width="11px" height="12px" preserveAspectRatio="xMinYMin meet" x="13.5" y="-200"/>
<text text-anchor="start" x="28.5" y="-191.2" font-family="Helvetica,sans-Serif" font-size="11.00">id</text>
<polygon fill="#ffffff" stroke="transparent" points="8.5,-161 8.5,-183 405.5,-183 405.5,-161 8.5,-161"/>
<polygon fill="none" stroke="black" points="8.5,-161 8.5,-183 405.5,-183 405.5,-161 8.5,-161"/>
<text text-anchor="start" x="28.5" y="-169.2" font-family="Helvetica,sans-Serif" font-size="11.00">short_name</text>
<polygon fill="#ffffff" stroke="transparent" points="8.5,-139 8.5,-161 405.5,-161 405.5,-139 8.5,-139"/>
<polygon fill="none" stroke="black" points="8.5,-139 8.5,-161 405.5,-161 405.5,-139 8.5,-139"/>
<text text-anchor="start" x="28.5" y="-147.2" font-family="Helvetica,sans-Serif" font-size="11.00">name</text>
<polygon fill="#ffffff" stroke="transparent" points="8.5,-117 8.5,-139 405.5,-139 405.5,-117 8.5,-117"/>
<polygon fill="none" stroke="black" points="8.5,-117 8.5,-139 405.5,-139 405.5,-117 8.5,-117"/>
<image xlink:href="../../images/foreignKeys.png" width="11px" height="12px" preserveAspectRatio="xMinYMin meet" x="13.5" y="-134"/>
<text text-anchor="start" x="28.5" y="-125.2" font-family="Helvetica,sans-Serif" font-size="11.00">fund_id</text>
<polygon fill="#ffffff" stroke="transparent" points="8.5,-95 8.5,-117 405.5,-117 405.5,-95 8.5,-95"/>
<polygon fill="none" stroke="black" points="8.5,-95 8.5,-117 405.5,-117 405.5,-95 8.5,-95"/>
<image xlink:href="../../images/foreignKeys.png" width="11px" height="12px" preserveAspectRatio="xMinYMin meet" x="13.5" y="-112"/>
<text text-anchor="start" x="28.5" y="-103.2" font-family="Helvetica,sans-Serif" font-size="11.00">loan_transaction_strategy_id</text>
<polygon fill="#ffffff" stroke="transparent" points="8.5,-73 8.5,-95 405.5,-95 405.5,-73 8.5,-73"/>
<polygon fill="none" stroke="black" points="8.5,-73 8.5,-95 405.5,-95 405.5,-73 8.5,-73"/>
<text text-anchor="start" x="28.5" y="-81.2" font-family="Helvetica,sans-Serif" font-size="11.00">external_id</text>
<polygon fill="none" stroke="black" points="8.5,-55 8.5,-73 405.5,-73 405.5,-55 8.5,-55"/>
<text text-anchor="start" x="11.5" y="-61.2" font-family="Helvetica,sans-Serif" font-size="11.00">...</text>
<polygon fill="#ffffff" stroke="transparent" points="8.5,-37 8.5,-55 184.5,-55 184.5,-37 8.5,-37"/>
<polygon fill="none" stroke="black" points="8.5,-37 8.5,-55 184.5,-55 184.5,-37 8.5,-37"/>
<text text-anchor="start" x="11.5" y="-43.2" font-family="Helvetica,sans-Serif" font-size="11.00">&lt; 2</text>
<polygon fill="#ffffff" stroke="transparent" points="184.5,-37 184.5,-55 300.5,-55 300.5,-37 184.5,-37"/>
<polygon fill="none" stroke="black" points="184.5,-37 184.5,-55 300.5,-55 300.5,-37 184.5,-37"/>
<text text-anchor="start" x="264.5" y="-43.2" font-family="Helvetica,sans-Serif" font-size="11.00">0 rows</text>
<polygon fill="#ffffff" stroke="transparent" points="300.5,-37 300.5,-55 405.5,-55 405.5,-37 300.5,-37"/>
<polygon fill="none" stroke="black" points="300.5,-37 300.5,-55 405.5,-55 405.5,-37 300.5,-37"/>
<text text-anchor="start" x="380.5" y="-43.2" font-family="Helvetica,sans-Serif" font-size="11.00">14 &gt;</text>
</a>
</g>
</g>
<!-- m_product_loan_guarantee_details&#45;&gt;m_product_loan -->
<g id="edge1" class="edge">
<title>m_product_loan_guarantee_details:w&#45;&gt;m_product_loan:e</title>
<path fill="none" stroke="black" d="M440.99,-194C429.68,-194 422.49,-194 406.5,-194"/>
<polygon fill="black" stroke="black" points="447.5,-194 455.5,-197.6 451.5,-194 455.5,-194 455.5,-194 455.5,-194 451.5,-194 455.5,-190.4 447.5,-194 447.5,-194"/>
<ellipse fill="none" stroke="black" cx="444.3" cy="-194" rx="3.2" ry="3.2"/>
</g>
</g>
</svg>
