<?xml version="1.0" encoding="UTF-8" standalone="no"?>
<!DOCTYPE svg PUBLIC "-//W3C//DTD SVG 1.1//EN"
 "http://www.w3.org/Graphics/SVG/1.1/DTD/svg11.dtd">
<!-- Generated by graphviz version 2.43.0 (0)
 -->
<!-- Title: twoDegreesRelationshipsDiagram Pages: 1 -->
<svg width="795pt" height="901pt"
 viewBox="0.00 0.00 795.00 901.00" xmlns="http://www.w3.org/2000/svg" xmlns:xlink="http://www.w3.org/1999/xlink">
<g id="graph0" class="graph" transform="scale(1 1) rotate(0) translate(4 897)">
<title>twoDegreesRelationshipsDiagram</title>
<polygon fill="#ffffff" stroke="transparent" points="-4,4 -4,-897 791,-897 791,4 -4,4"/>
<text text-anchor="middle" x="71.5" y="-7.2" font-family="Helvetica,sans-Serif" font-size="11.00">Generated by SchemaSpy</text>
<!-- acc_accounting_rule -->
<g id="node1" class="node">
<title>acc_accounting_rule</title>
<g id="a_node1"><a xlink:href="../../tables/acc_accounting_rule.html" xlink:title="acc_accounting_rule" target="_top">
<polygon fill="#ffffff" stroke="transparent" points="544,-752 544,-810 697,-810 697,-752 544,-752"/>
<polygon fill="#f5f5f5" stroke="transparent" points="544.5,-788 544.5,-810 697.5,-810 697.5,-788 544.5,-788"/>
<polygon fill="none" stroke="black" points="544.5,-788 544.5,-810 697.5,-810 697.5,-788 544.5,-788"/>
<text text-anchor="start" x="549.5" y="-797.2" font-family="Helvetica,sans-Serif" font-weight="bold" font-size="11.00">acc_accounting_rule</text>
<text text-anchor="start" x="662.5" y="-796.2" font-family="Helvetica,sans-Serif" font-size="11.00">[table]</text>
<polygon fill="none" stroke="black" points="544.5,-770 544.5,-788 697.5,-788 697.5,-770 544.5,-770"/>
<text text-anchor="start" x="547.5" y="-776.2" font-family="Helvetica,sans-Serif" font-size="11.00">...</text>
<polygon fill="#ffffff" stroke="transparent" points="544.5,-752 544.5,-770 601.5,-770 601.5,-752 544.5,-752"/>
<polygon fill="none" stroke="black" points="544.5,-752 544.5,-770 601.5,-770 601.5,-752 544.5,-752"/>
<text text-anchor="start" x="547.5" y="-758.2" font-family="Helvetica,sans-Serif" font-size="11.00">&lt; 3</text>
<polygon fill="#ffffff" stroke="transparent" points="601.5,-752 601.5,-770 657.5,-770 657.5,-752 601.5,-752"/>
<polygon fill="none" stroke="black" points="601.5,-752 601.5,-770 657.5,-770 657.5,-752 601.5,-752"/>
<text text-anchor="start" x="621.5" y="-758.2" font-family="Helvetica,sans-Serif" font-size="11.00">0 rows</text>
<polygon fill="#ffffff" stroke="transparent" points="657.5,-752 657.5,-770 697.5,-770 697.5,-752 657.5,-752"/>
<polygon fill="none" stroke="black" points="657.5,-752 657.5,-770 697.5,-770 697.5,-752 657.5,-752"/>
<text text-anchor="start" x="678.5" y="-758.2" font-family="Helvetica,sans-Serif" font-size="11.00">1 &gt;</text>
</a>
</g>
</g>
<!-- acc_gl_account -->
<g id="node2" class="node">
<title>acc_gl_account</title>
<g id="a_node2"><a xlink:href="../../tables/acc_gl_account.html" xlink:title="acc_gl_account" target="_top">
<polygon fill="#ffffff" stroke="transparent" points="177,-463 177,-609 413,-609 413,-463 177,-463"/>
<polygon fill="#f5f5f5" stroke="transparent" points="177,-587 177,-609 413,-609 413,-587 177,-587"/>
<polygon fill="none" stroke="black" points="177,-587 177,-609 413,-609 413,-587 177,-587"/>
<text text-anchor="start" x="182" y="-596.2" font-family="Helvetica,sans-Serif" font-weight="bold" font-size="11.00">acc_gl_account</text>
<text text-anchor="start" x="378" y="-595.2" font-family="Helvetica,sans-Serif" font-size="11.00">[table]</text>
<polygon fill="none" stroke="black" points="177,-565 177,-587 413,-587 413,-565 177,-565"/>
<image xlink:href="../../images/primaryKeys.png" width="11px" height="12px" preserveAspectRatio="xMinYMin meet" x="182" y="-582"/>
<text text-anchor="start" x="197" y="-573.2" font-family="Helvetica,sans-Serif" font-size="11.00">id</text>
<polygon fill="#ffffff" stroke="transparent" points="177,-543 177,-565 413,-565 413,-543 177,-543"/>
<polygon fill="none" stroke="black" points="177,-543 177,-565 413,-565 413,-543 177,-543"/>
<image xlink:href="../../images/foreignKeys.png" width="11px" height="12px" preserveAspectRatio="xMinYMin meet" x="182" y="-560"/>
<text text-anchor="start" x="197" y="-551.2" font-family="Helvetica,sans-Serif" font-size="11.00">parent_id</text>
<polygon fill="#ffffff" stroke="transparent" points="177,-521 177,-543 413,-543 413,-521 177,-521"/>
<polygon fill="none" stroke="black" points="177,-521 177,-543 413,-543 413,-521 177,-521"/>
<text text-anchor="start" x="197" y="-529.2" font-family="Helvetica,sans-Serif" font-size="11.00">gl_code</text>
<polygon fill="#ffffff" stroke="transparent" points="177,-499 177,-521 413,-521 413,-499 177,-499"/>
<polygon fill="none" stroke="black" points="177,-499 177,-521 413,-521 413,-499 177,-499"/>
<image xlink:href="../../images/foreignKeys.png" width="11px" height="12px" preserveAspectRatio="xMinYMin meet" x="182" y="-516"/>
<text text-anchor="start" x="197" y="-507.2" font-family="Helvetica,sans-Serif" font-size="11.00">tag_id</text>
<polygon fill="none" stroke="black" points="177,-481 177,-499 413,-499 413,-481 177,-481"/>
<text text-anchor="start" x="180" y="-487.2" font-family="Helvetica,sans-Serif" font-size="11.00">...</text>
<polygon fill="#ffffff" stroke="transparent" points="177,-463 177,-481 272,-481 272,-463 177,-463"/>
<polygon fill="none" stroke="black" points="177,-463 177,-481 272,-481 272,-463 177,-463"/>
<text text-anchor="start" x="180" y="-469.2" font-family="Helvetica,sans-Serif" font-size="11.00">&lt; 2</text>
<polygon fill="#ffffff" stroke="transparent" points="272,-463 272,-481 348,-481 348,-463 272,-463"/>
<polygon fill="none" stroke="black" points="272,-463 272,-481 348,-481 348,-463 272,-463"/>
<text text-anchor="start" x="312" y="-469.2" font-family="Helvetica,sans-Serif" font-size="11.00">0 rows</text>
<polygon fill="#ffffff" stroke="transparent" points="348,-463 348,-481 413,-481 413,-463 348,-463"/>
<polygon fill="none" stroke="black" points="348,-463 348,-481 413,-481 413,-463 348,-463"/>
<text text-anchor="start" x="388" y="-469.2" font-family="Helvetica,sans-Serif" font-size="11.00">14 &gt;</text>
</a>
</g>
</g>
<!-- acc_accounting_rule&#45;&gt;acc_gl_account -->
<g id="edge1" class="edge">
<title>acc_accounting_rule:w&#45;&gt;acc_gl_account:e</title>
<path fill="none" stroke="black" d="M528.88,-776.84C495.84,-771.54 478.59,-764.75 454,-736 404.67,-678.33 489.89,-570 414,-576"/>
<polygon fill="black" stroke="black" points="535.59,-777.83 542.97,-782.56 539.54,-778.42 543.5,-779 543.5,-779 543.5,-779 539.54,-778.42 544.03,-775.44 535.59,-777.83 535.59,-777.83"/>
<ellipse fill="none" stroke="black" cx="532.42" cy="-777.36" rx="3.2" ry="3.2"/>
</g>
<!-- acc_accounting_rule&#45;&gt;acc_gl_account -->
<g id="edge2" class="edge">
<title>acc_accounting_rule:w&#45;&gt;acc_gl_account:e</title>
<path fill="none" stroke="black" d="M528.88,-781.02C495.84,-784.54 478.59,-777.75 454,-749 404.67,-691.33 489.89,-583 414,-576"/>
<polygon fill="black" stroke="black" points="535.58,-780.09 543.99,-782.57 539.54,-779.55 543.5,-779 543.5,-779 543.5,-779 539.54,-779.55 543.01,-775.43 535.58,-780.09 535.58,-780.09"/>
<ellipse fill="none" stroke="black" cx="532.41" cy="-780.53" rx="3.2" ry="3.2"/>
</g>
<!-- m_code_value -->
<g id="node3" class="node">
<title>m_code_value</title>
<g id="a_node3"><a xlink:href="../../tables/m_code_value.html" xlink:title="m_code_value" target="_top">
<polygon fill="#ffffff" stroke="transparent" points="8,-483 8,-541 128,-541 128,-483 8,-483"/>
<polygon fill="#f5f5f5" stroke="transparent" points="8,-519 8,-541 128,-541 128,-519 8,-519"/>
<polygon fill="none" stroke="black" points="8,-519 8,-541 128,-541 128,-519 8,-519"/>
<text text-anchor="start" x="13" y="-528.2" font-family="Helvetica,sans-Serif" font-weight="bold" font-size="11.00">m_code_value</text>
<text text-anchor="start" x="93" y="-527.2" font-family="Helvetica,sans-Serif" font-size="11.00">[table]</text>
<polygon fill="none" stroke="black" points="8,-501 8,-519 128,-519 128,-501 8,-501"/>
<text text-anchor="start" x="11" y="-507.2" font-family="Helvetica,sans-Serif" font-size="11.00">...</text>
<polygon fill="#ffffff" stroke="transparent" points="8,-483 8,-501 45,-501 45,-483 8,-483"/>
<polygon fill="none" stroke="black" points="8,-483 8,-501 45,-501 45,-483 8,-483"/>
<text text-anchor="start" x="11" y="-489.2" font-family="Helvetica,sans-Serif" font-size="11.00">&lt; 1</text>
<polygon fill="#ffffff" stroke="transparent" points="45,-483 45,-501 92,-501 92,-483 45,-483"/>
<polygon fill="none" stroke="black" points="45,-483 45,-501 92,-501 92,-483 45,-483"/>
<text text-anchor="start" x="56" y="-489.2" font-family="Helvetica,sans-Serif" font-size="11.00">0 rows</text>
<polygon fill="#ffffff" stroke="transparent" points="92,-483 92,-501 128,-501 128,-483 92,-483"/>
<polygon fill="none" stroke="black" points="92,-483 92,-501 128,-501 128,-483 92,-483"/>
<text text-anchor="start" x="103" y="-489.2" font-family="Helvetica,sans-Serif" font-size="11.00">25 &gt;</text>
</a>
</g>
</g>
<!-- acc_gl_account&#45;&gt;m_code_value -->
<g id="edge3" class="edge">
<title>acc_gl_account:w&#45;&gt;m_code_value:e</title>
<path fill="none" stroke="black" d="M161.4,-510C150.93,-510 144.01,-510 129,-510"/>
<polygon fill="black" stroke="black" points="168,-510 176,-513.6 172,-510 176,-510 176,-510 176,-510 172,-510 176,-506.4 168,-510 168,-510"/>
<ellipse fill="none" stroke="black" cx="164.8" cy="-510" rx="3.2" ry="3.2"/>
</g>
<!-- acc_gl_financial_activity_account -->
<g id="node4" class="node">
<title>acc_gl_financial_activity_account</title>
<g id="a_node4"><a xlink:href="../../tables/acc_gl_financial_activity_account.html" xlink:title="acc_gl_financial_activity_account" target="_top">
<polygon fill="#ffffff" stroke="transparent" points="510.5,-673 510.5,-731 730.5,-731 730.5,-673 510.5,-673"/>
<polygon fill="#f5f5f5" stroke="transparent" points="510.5,-709 510.5,-731 730.5,-731 730.5,-709 510.5,-709"/>
<polygon fill="none" stroke="black" points="510.5,-709 510.5,-731 730.5,-731 730.5,-709 510.5,-709"/>
<text text-anchor="start" x="515.5" y="-718.2" font-family="Helvetica,sans-Serif" font-weight="bold" font-size="11.00">acc_gl_financial_activity_account</text>
<text text-anchor="start" x="695.5" y="-717.2" font-family="Helvetica,sans-Serif" font-size="11.00">[table]</text>
<polygon fill="none" stroke="black" points="510.5,-691 510.5,-709 730.5,-709 730.5,-691 510.5,-691"/>
<text text-anchor="start" x="513.5" y="-697.2" font-family="Helvetica,sans-Serif" font-size="11.00">...</text>
<polygon fill="#ffffff" stroke="transparent" points="510.5,-673 510.5,-691 605.5,-691 605.5,-673 510.5,-673"/>
<polygon fill="none" stroke="black" points="510.5,-673 510.5,-691 605.5,-691 605.5,-673 510.5,-673"/>
<text text-anchor="start" x="513.5" y="-679.2" font-family="Helvetica,sans-Serif" font-size="11.00">&lt; 1</text>
<polygon fill="#ffffff" stroke="transparent" points="605.5,-673 605.5,-691 680.5,-691 680.5,-673 605.5,-673"/>
<polygon fill="none" stroke="black" points="605.5,-673 605.5,-691 680.5,-691 680.5,-673 605.5,-673"/>
<text text-anchor="start" x="644.5" y="-679.2" font-family="Helvetica,sans-Serif" font-size="11.00">0 rows</text>
<polygon fill="#ffffff" stroke="transparent" points="680.5,-673 680.5,-691 730.5,-691 730.5,-673 680.5,-673"/>
<polygon fill="none" stroke="black" points="680.5,-673 680.5,-691 730.5,-691 730.5,-673 680.5,-673"/>
<text text-anchor="start" x="720.5" y="-679.2" font-family="Helvetica,sans-Serif" font-size="11.00"> &#160;</text>
</a>
</g>
</g>
<!-- acc_gl_financial_activity_account&#45;&gt;acc_gl_account -->
<g id="edge4" class="edge">
<title>acc_gl_financial_activity_account:w&#45;&gt;acc_gl_account:e</title>
<path fill="none" stroke="black" d="M495.02,-698.52C476.93,-694.29 469.64,-681.32 454,-663 426.36,-630.64 456.56,-576 414,-576"/>
<polygon fill="black" stroke="black" points="501.54,-699.19 509.13,-703.58 505.52,-699.59 509.5,-700 509.5,-700 509.5,-700 505.52,-699.59 509.87,-696.42 501.54,-699.19 501.54,-699.19"/>
<ellipse fill="none" stroke="black" cx="498.36" cy="-698.86" rx="3.2" ry="3.2"/>
</g>
<!-- acc_gl_journal_entry -->
<g id="node5" class="node">
<title>acc_gl_journal_entry</title>
<g id="a_node5"><a xlink:href="../../tables/acc_gl_journal_entry.html" xlink:title="acc_gl_journal_entry" target="_top">
<polygon fill="#ffffff" stroke="transparent" points="543.5,-831 543.5,-889 697.5,-889 697.5,-831 543.5,-831"/>
<polygon fill="#f5f5f5" stroke="transparent" points="543.5,-867 543.5,-889 697.5,-889 697.5,-867 543.5,-867"/>
<polygon fill="none" stroke="black" points="543.5,-867 543.5,-889 697.5,-889 697.5,-867 543.5,-867"/>
<text text-anchor="start" x="548.5" y="-876.2" font-family="Helvetica,sans-Serif" font-weight="bold" font-size="11.00">acc_gl_journal_entry</text>
<text text-anchor="start" x="662.5" y="-875.2" font-family="Helvetica,sans-Serif" font-size="11.00">[table]</text>
<polygon fill="none" stroke="black" points="543.5,-849 543.5,-867 697.5,-867 697.5,-849 543.5,-849"/>
<text text-anchor="start" x="546.5" y="-855.2" font-family="Helvetica,sans-Serif" font-size="11.00">...</text>
<polygon fill="#ffffff" stroke="transparent" points="543.5,-831 543.5,-849 603.5,-849 603.5,-831 543.5,-831"/>
<polygon fill="none" stroke="black" points="543.5,-831 543.5,-849 603.5,-849 603.5,-831 543.5,-831"/>
<text text-anchor="start" x="546.5" y="-837.2" font-family="Helvetica,sans-Serif" font-size="11.00">&lt; 10</text>
<polygon fill="#ffffff" stroke="transparent" points="603.5,-831 603.5,-849 658.5,-849 658.5,-831 603.5,-831"/>
<polygon fill="none" stroke="black" points="603.5,-831 603.5,-849 658.5,-849 658.5,-831 603.5,-831"/>
<text text-anchor="start" x="622.5" y="-837.2" font-family="Helvetica,sans-Serif" font-size="11.00">0 rows</text>
<polygon fill="#ffffff" stroke="transparent" points="658.5,-831 658.5,-849 697.5,-849 697.5,-831 658.5,-831"/>
<polygon fill="none" stroke="black" points="658.5,-831 658.5,-849 697.5,-849 697.5,-831 658.5,-831"/>
<text text-anchor="start" x="678.5" y="-837.2" font-family="Helvetica,sans-Serif" font-size="11.00">1 &gt;</text>
</a>
</g>
</g>
<!-- acc_gl_journal_entry&#45;&gt;acc_gl_account -->
<g id="edge5" class="edge">
<title>acc_gl_journal_entry:w&#45;&gt;acc_gl_account:e</title>
<path fill="none" stroke="black" d="M527.98,-857.8C495.05,-856.7 477.22,-850.41 454,-821 419.82,-777.7 469.17,-576 414,-576"/>
<polygon fill="black" stroke="black" points="534.5,-857.89 542.45,-861.6 538.5,-857.94 542.5,-858 542.5,-858 542.5,-858 538.5,-857.94 542.55,-854.4 534.5,-857.89 534.5,-857.89"/>
<ellipse fill="none" stroke="black" cx="531.3" cy="-857.84" rx="3.2" ry="3.2"/>
</g>
<!-- m_appuser -->
<g id="node6" class="node">
<title>m_appuser</title>
<g id="a_node6"><a xlink:href="../../tables/m_appuser.html" xlink:title="m_appuser" target="_top">
<polygon fill="#ffffff" stroke="transparent" points="16.5,-204 16.5,-262 119.5,-262 119.5,-204 16.5,-204"/>
<polygon fill="#f5f5f5" stroke="transparent" points="17,-240 17,-262 120,-262 120,-240 17,-240"/>
<polygon fill="none" stroke="black" points="17,-240 17,-262 120,-262 120,-240 17,-240"/>
<text text-anchor="start" x="22" y="-249.2" font-family="Helvetica,sans-Serif" font-weight="bold" font-size="11.00">m_appuser</text>
<text text-anchor="start" x="85" y="-248.2" font-family="Helvetica,sans-Serif" font-size="11.00">[table]</text>
<polygon fill="none" stroke="black" points="17,-222 17,-240 120,-240 120,-222 17,-222"/>
<text text-anchor="start" x="20" y="-228.2" font-family="Helvetica,sans-Serif" font-size="11.00">...</text>
<polygon fill="#ffffff" stroke="transparent" points="17,-204 17,-222 46,-222 46,-204 17,-204"/>
<polygon fill="none" stroke="black" points="17,-204 17,-222 46,-222 46,-204 17,-204"/>
<text text-anchor="start" x="20" y="-210.2" font-family="Helvetica,sans-Serif" font-size="11.00">&lt; 2</text>
<polygon fill="#ffffff" stroke="transparent" points="46,-204 46,-222 88,-222 88,-204 46,-204"/>
<polygon fill="none" stroke="black" points="46,-204 46,-222 88,-222 88,-204 46,-204"/>
<text text-anchor="start" x="52" y="-210.2" font-family="Helvetica,sans-Serif" font-size="11.00">0 rows</text>
<polygon fill="#ffffff" stroke="transparent" points="88,-204 88,-222 120,-222 120,-204 88,-204"/>
<polygon fill="none" stroke="black" points="88,-204 88,-222 120,-222 120,-204 88,-204"/>
<text text-anchor="start" x="95" y="-210.2" font-family="Helvetica,sans-Serif" font-size="11.00">57 &gt;</text>
</a>
</g>
</g>
<!-- acc_gl_journal_entry&#45;&gt;m_appuser -->
<g id="edge6" class="edge">
<title>acc_gl_journal_entry:w&#45;&gt;m_appuser:e</title>
<path fill="none" stroke="black" d="M527.85,-857.46C399.46,-848.11 229.07,-720.3 169,-620 124.24,-545.28 208.1,-231 121,-231"/>
<polygon fill="black" stroke="black" points="534.51,-857.7 542.37,-861.6 538.5,-857.85 542.5,-858 542.5,-858 542.5,-858 538.5,-857.85 542.63,-854.4 534.51,-857.7 534.51,-857.7"/>
<ellipse fill="none" stroke="black" cx="531.31" cy="-857.58" rx="3.2" ry="3.2"/>
</g>
<!-- acc_gl_journal_entry&#45;&gt;m_appuser -->
<g id="edge7" class="edge">
<title>acc_gl_journal_entry:w&#45;&gt;m_appuser:e</title>
<path fill="none" stroke="black" d="M528.01,-857.46C397.57,-847.97 227.69,-714.89 169,-616 125,-541.86 207.22,-231 121,-231"/>
<polygon fill="black" stroke="black" points="534.51,-857.7 542.37,-861.6 538.5,-857.85 542.5,-858 542.5,-858 542.5,-858 538.5,-857.85 542.63,-854.4 534.51,-857.7 534.51,-857.7"/>
<ellipse fill="none" stroke="black" cx="531.31" cy="-857.58" rx="3.2" ry="3.2"/>
</g>
<!-- m_charge -->
<g id="node7" class="node">
<title>m_charge</title>
<g id="a_node7"><a xlink:href="../../tables/m_charge.html" xlink:title="m_charge" target="_top">
<polygon fill="#ffffff" stroke="transparent" points="572.5,-594 572.5,-652 668.5,-652 668.5,-594 572.5,-594"/>
<polygon fill="#f5f5f5" stroke="transparent" points="572.5,-630 572.5,-652 668.5,-652 668.5,-630 572.5,-630"/>
<polygon fill="none" stroke="black" points="572.5,-630 572.5,-652 668.5,-652 668.5,-630 572.5,-630"/>
<text text-anchor="start" x="577.5" y="-639.2" font-family="Helvetica,sans-Serif" font-weight="bold" font-size="11.00">m_charge</text>
<text text-anchor="start" x="633.5" y="-638.2" font-family="Helvetica,sans-Serif" font-size="11.00">[table]</text>
<polygon fill="none" stroke="black" points="572.5,-612 572.5,-630 668.5,-630 668.5,-612 572.5,-612"/>
<text text-anchor="start" x="575.5" y="-618.2" font-family="Helvetica,sans-Serif" font-size="11.00">...</text>
<polygon fill="#ffffff" stroke="transparent" points="572.5,-594 572.5,-612 600.5,-612 600.5,-594 572.5,-594"/>
<polygon fill="none" stroke="black" points="572.5,-594 572.5,-612 600.5,-612 600.5,-594 572.5,-594"/>
<text text-anchor="start" x="575.5" y="-600.2" font-family="Helvetica,sans-Serif" font-size="11.00">&lt; 3</text>
<polygon fill="#ffffff" stroke="transparent" points="600.5,-594 600.5,-612 642.5,-612 642.5,-594 600.5,-594"/>
<polygon fill="none" stroke="black" points="600.5,-594 600.5,-612 642.5,-612 642.5,-594 600.5,-594"/>
<text text-anchor="start" x="606.5" y="-600.2" font-family="Helvetica,sans-Serif" font-size="11.00">0 rows</text>
<polygon fill="#ffffff" stroke="transparent" points="642.5,-594 642.5,-612 668.5,-612 668.5,-594 642.5,-594"/>
<polygon fill="none" stroke="black" points="642.5,-594 642.5,-612 668.5,-612 668.5,-594 642.5,-594"/>
<text text-anchor="start" x="649.5" y="-600.2" font-family="Helvetica,sans-Serif" font-size="11.00">9 &gt;</text>
</a>
</g>
</g>
<!-- m_charge&#45;&gt;acc_gl_account -->
<g id="edge8" class="edge">
<title>m_charge:w&#45;&gt;acc_gl_account:e</title>
<path fill="none" stroke="black" d="M557.14,-619.35C516.22,-611.23 446.21,-576 414,-576"/>
<polygon fill="black" stroke="black" points="563.55,-620.08 571.09,-624.58 567.53,-620.54 571.5,-621 571.5,-621 571.5,-621 567.53,-620.54 571.91,-617.42 563.55,-620.08 563.55,-620.08"/>
<ellipse fill="none" stroke="black" cx="560.37" cy="-619.72" rx="3.2" ry="3.2"/>
</g>
<!-- m_loanproduct_provisioning_entry -->
<g id="node8" class="node">
<title>m_loanproduct_provisioning_entry</title>
<g id="a_node8"><a xlink:href="../../tables/m_loanproduct_provisioning_entry.html" xlink:title="m_loanproduct_provisioning_entry" target="_top">
<polygon fill="#ffffff" stroke="transparent" points="506,-436 506,-494 735,-494 735,-436 506,-436"/>
<polygon fill="#f5f5f5" stroke="transparent" points="506.5,-472 506.5,-494 735.5,-494 735.5,-472 506.5,-472"/>
<polygon fill="none" stroke="black" points="506.5,-472 506.5,-494 735.5,-494 735.5,-472 506.5,-472"/>
<text text-anchor="start" x="511.5" y="-481.2" font-family="Helvetica,sans-Serif" font-weight="bold" font-size="11.00">m_loanproduct_provisioning_entry</text>
<text text-anchor="start" x="700.5" y="-480.2" font-family="Helvetica,sans-Serif" font-size="11.00">[table]</text>
<polygon fill="none" stroke="black" points="506.5,-454 506.5,-472 735.5,-472 735.5,-454 506.5,-454"/>
<text text-anchor="start" x="509.5" y="-460.2" font-family="Helvetica,sans-Serif" font-size="11.00">...</text>
<polygon fill="#ffffff" stroke="transparent" points="506.5,-436 506.5,-454 605.5,-454 605.5,-436 506.5,-436"/>
<polygon fill="none" stroke="black" points="506.5,-436 506.5,-454 605.5,-454 605.5,-436 506.5,-436"/>
<text text-anchor="start" x="509.5" y="-442.2" font-family="Helvetica,sans-Serif" font-size="11.00">&lt; 7</text>
<polygon fill="#ffffff" stroke="transparent" points="605.5,-436 605.5,-454 683.5,-454 683.5,-436 605.5,-436"/>
<polygon fill="none" stroke="black" points="605.5,-436 605.5,-454 683.5,-454 683.5,-436 605.5,-436"/>
<text text-anchor="start" x="647.5" y="-442.2" font-family="Helvetica,sans-Serif" font-size="11.00">0 rows</text>
<polygon fill="#ffffff" stroke="transparent" points="683.5,-436 683.5,-454 735.5,-454 735.5,-436 683.5,-436"/>
<polygon fill="none" stroke="black" points="683.5,-436 683.5,-454 735.5,-454 735.5,-436 683.5,-436"/>
<text text-anchor="start" x="725.5" y="-442.2" font-family="Helvetica,sans-Serif" font-size="11.00"> &#160;</text>
</a>
</g>
</g>
<!-- m_loanproduct_provisioning_entry&#45;&gt;acc_gl_account -->
<g id="edge11" class="edge">
<title>m_loanproduct_provisioning_entry:w&#45;&gt;acc_gl_account:e</title>
<path fill="none" stroke="black" d="M490.92,-462.23C474.2,-464.7 469.31,-480.82 454,-499 430.67,-526.71 450.22,-570 414,-576"/>
<polygon fill="black" stroke="black" points="497.51,-462.58 505.31,-466.59 501.51,-462.79 505.5,-463 505.5,-463 505.5,-463 501.51,-462.79 505.69,-459.41 497.51,-462.58 497.51,-462.58"/>
<ellipse fill="none" stroke="black" cx="494.32" cy="-462.41" rx="3.2" ry="3.2"/>
</g>
<!-- m_loanproduct_provisioning_entry&#45;&gt;acc_gl_account -->
<g id="edge12" class="edge">
<title>m_loanproduct_provisioning_entry:w&#45;&gt;acc_gl_account:e</title>
<path fill="none" stroke="black" d="M491.91,-467.92C474.39,-477.08 469.61,-493.47 454,-512 430.67,-539.71 450.22,-583 414,-576"/>
<polygon fill="black" stroke="black" points="497.98,-465.72 506.73,-466.38 501.74,-464.36 505.5,-463 505.5,-463 505.5,-463 501.74,-464.36 504.27,-459.62 497.98,-465.72 497.98,-465.72"/>
<ellipse fill="none" stroke="black" cx="494.97" cy="-466.81" rx="3.2" ry="3.2"/>
</g>
<!-- m_provision_category -->
<g id="node9" class="node">
<title>m_provision_category</title>
<g id="a_node9"><a xlink:href="../../tables/m_provision_category.html" xlink:title="m_provision_category" target="_top">
<polygon fill="#ffffff" stroke="transparent" points="211.5,-340 211.5,-442 378.5,-442 378.5,-340 211.5,-340"/>
<polygon fill="#f5f5f5" stroke="transparent" points="212,-420 212,-442 379,-442 379,-420 212,-420"/>
<polygon fill="none" stroke="black" points="212,-420 212,-442 379,-442 379,-420 212,-420"/>
<text text-anchor="start" x="217" y="-429.2" font-family="Helvetica,sans-Serif" font-weight="bold" font-size="11.00">m_provision_category</text>
<text text-anchor="start" x="344" y="-428.2" font-family="Helvetica,sans-Serif" font-size="11.00">[table]</text>
<polygon fill="none" stroke="black" points="212,-398 212,-420 379,-420 379,-398 212,-398"/>
<image xlink:href="../../images/primaryKeys.png" width="11px" height="12px" preserveAspectRatio="xMinYMin meet" x="217" y="-415"/>
<text text-anchor="start" x="232" y="-406.2" font-family="Helvetica,sans-Serif" font-size="11.00">id</text>
<polygon fill="#ffffff" stroke="transparent" points="212,-376 212,-398 379,-398 379,-376 212,-376"/>
<polygon fill="none" stroke="black" points="212,-376 212,-398 379,-398 379,-376 212,-376"/>
<text text-anchor="start" x="232" y="-384.2" font-family="Helvetica,sans-Serif" font-size="11.00">category_name</text>
<polygon fill="none" stroke="black" points="212,-358 212,-376 379,-376 379,-358 212,-358"/>
<text text-anchor="start" x="215" y="-364.2" font-family="Helvetica,sans-Serif" font-size="11.00">...</text>
<polygon fill="#ffffff" stroke="transparent" points="212,-340 212,-358 271,-358 271,-340 212,-340"/>
<polygon fill="none" stroke="black" points="212,-340 212,-358 271,-358 271,-340 212,-340"/>
<text text-anchor="start" x="215" y="-346.2" font-family="Helvetica,sans-Serif" font-size="11.00"> &#160;</text>
<polygon fill="#ffffff" stroke="transparent" points="271,-340 271,-358 333,-358 333,-340 271,-340"/>
<polygon fill="none" stroke="black" points="271,-340 271,-358 333,-358 333,-340 271,-340"/>
<text text-anchor="start" x="297" y="-346.2" font-family="Helvetica,sans-Serif" font-size="11.00">0 rows</text>
<polygon fill="#ffffff" stroke="transparent" points="333,-340 333,-358 379,-358 379,-340 333,-340"/>
<polygon fill="none" stroke="black" points="333,-340 333,-358 379,-358 379,-340 333,-340"/>
<text text-anchor="start" x="360" y="-346.2" font-family="Helvetica,sans-Serif" font-size="11.00">2 &gt;</text>
</a>
</g>
</g>
<!-- m_loanproduct_provisioning_entry&#45;&gt;m_provision_category -->
<g id="edge9" class="edge">
<title>m_loanproduct_provisioning_entry:w&#45;&gt;m_provision_category:e</title>
<path fill="none" stroke="black" d="M491.03,-461.87C443.66,-454.12 435.5,-409 380,-409"/>
<polygon fill="black" stroke="black" points="497.52,-462.38 505.22,-466.59 501.51,-462.69 505.5,-463 505.5,-463 505.5,-463 501.51,-462.69 505.78,-459.41 497.52,-462.38 497.52,-462.38"/>
<ellipse fill="none" stroke="black" cx="494.33" cy="-462.13" rx="3.2" ry="3.2"/>
</g>
<!-- m_provisioning_criteria -->
<g id="node10" class="node">
<title>m_provisioning_criteria</title>
<g id="a_node10"><a xlink:href="../../tables/m_provisioning_criteria.html" xlink:title="m_provisioning_criteria" target="_top">
<polygon fill="#ffffff" stroke="transparent" points="206,-173 206,-319 384,-319 384,-173 206,-173"/>
<polygon fill="#f5f5f5" stroke="transparent" points="206,-297 206,-319 384,-319 384,-297 206,-297"/>
<polygon fill="none" stroke="black" points="206,-297 206,-319 384,-319 384,-297 206,-297"/>
<text text-anchor="start" x="211" y="-306.2" font-family="Helvetica,sans-Serif" font-weight="bold" font-size="11.00">m_provisioning_criteria</text>
<text text-anchor="start" x="349" y="-305.2" font-family="Helvetica,sans-Serif" font-size="11.00">[table]</text>
<polygon fill="none" stroke="black" points="206,-275 206,-297 384,-297 384,-275 206,-275"/>
<image xlink:href="../../images/primaryKeys.png" width="11px" height="12px" preserveAspectRatio="xMinYMin meet" x="211" y="-292"/>
<text text-anchor="start" x="226" y="-283.2" font-family="Helvetica,sans-Serif" font-size="11.00">id</text>
<polygon fill="#ffffff" stroke="transparent" points="206,-253 206,-275 384,-275 384,-253 206,-253"/>
<polygon fill="none" stroke="black" points="206,-253 206,-275 384,-275 384,-253 206,-253"/>
<text text-anchor="start" x="226" y="-261.2" font-family="Helvetica,sans-Serif" font-size="11.00">criteria_name</text>
<polygon fill="#ffffff" stroke="transparent" points="206,-231 206,-253 384,-253 384,-231 206,-231"/>
<polygon fill="none" stroke="black" points="206,-231 206,-253 384,-253 384,-231 206,-231"/>
<image xlink:href="../../images/foreignKeys.png" width="11px" height="12px" preserveAspectRatio="xMinYMin meet" x="211" y="-248"/>
<text text-anchor="start" x="226" y="-239.2" font-family="Helvetica,sans-Serif" font-size="11.00">createdby_id</text>
<polygon fill="#ffffff" stroke="transparent" points="206,-209 206,-231 384,-231 384,-209 206,-209"/>
<polygon fill="none" stroke="black" points="206,-209 206,-231 384,-231 384,-209 206,-209"/>
<image xlink:href="../../images/foreignKeys.png" width="11px" height="12px" preserveAspectRatio="xMinYMin meet" x="211" y="-226"/>
<text text-anchor="start" x="226" y="-217.2" font-family="Helvetica,sans-Serif" font-size="11.00">lastmodifiedby_id</text>
<polygon fill="none" stroke="black" points="206,-191 206,-209 384,-209 384,-191 206,-191"/>
<text text-anchor="start" x="209" y="-197.2" font-family="Helvetica,sans-Serif" font-size="11.00">...</text>
<polygon fill="#ffffff" stroke="transparent" points="206,-173 206,-191 275,-191 275,-173 206,-173"/>
<polygon fill="none" stroke="black" points="206,-173 206,-191 275,-191 275,-173 206,-173"/>
<text text-anchor="start" x="209" y="-179.2" font-family="Helvetica,sans-Serif" font-size="11.00">&lt; 2</text>
<polygon fill="#ffffff" stroke="transparent" points="275,-173 275,-191 338,-191 338,-173 275,-173"/>
<polygon fill="none" stroke="black" points="275,-173 275,-191 338,-191 338,-173 275,-173"/>
<text text-anchor="start" x="302" y="-179.2" font-family="Helvetica,sans-Serif" font-size="11.00">0 rows</text>
<polygon fill="#ffffff" stroke="transparent" points="338,-173 338,-191 384,-191 384,-173 338,-173"/>
<polygon fill="none" stroke="black" points="338,-173 338,-191 384,-191 384,-173 338,-173"/>
<text text-anchor="start" x="365" y="-179.2" font-family="Helvetica,sans-Serif" font-size="11.00">3 &gt;</text>
</a>
</g>
</g>
<!-- m_loanproduct_provisioning_entry&#45;&gt;m_provisioning_criteria -->
<g id="edge10" class="edge">
<title>m_loanproduct_provisioning_entry:w&#45;&gt;m_provisioning_criteria:e</title>
<path fill="none" stroke="black" d="M490.74,-461.27C474.25,-456.82 467.4,-444.02 454,-426 412.6,-370.34 454.37,-286 385,-286"/>
<polygon fill="black" stroke="black" points="497.55,-462.07 505.08,-466.58 501.53,-462.53 505.5,-463 505.5,-463 505.5,-463 501.53,-462.53 505.92,-459.42 497.55,-462.07 497.55,-462.07"/>
<ellipse fill="none" stroke="black" cx="494.38" cy="-461.7" rx="3.2" ry="3.2"/>
</g>
<!-- m_provisioning_criteria&#45;&gt;m_appuser -->
<g id="edge14" class="edge">
<title>m_provisioning_criteria:w&#45;&gt;m_appuser:e</title>
<path fill="none" stroke="black" d="M190.31,-241.38C164.23,-239.05 153.21,-231 121,-231"/>
<polygon fill="black" stroke="black" points="197.01,-241.66 204.85,-245.6 201,-241.83 205,-242 205,-242 205,-242 201,-241.83 205.15,-238.4 197.01,-241.66 197.01,-241.66"/>
<ellipse fill="none" stroke="black" cx="193.81" cy="-241.53" rx="3.2" ry="3.2"/>
</g>
<!-- m_provisioning_criteria&#45;&gt;m_appuser -->
<g id="edge15" class="edge">
<title>m_provisioning_criteria:w&#45;&gt;m_appuser:e</title>
<path fill="none" stroke="black" d="M190.31,-220.62C164.23,-222.95 153.21,-231 121,-231"/>
<polygon fill="black" stroke="black" points="197.01,-220.34 205.15,-223.6 201,-220.17 205,-220 205,-220 205,-220 201,-220.17 204.85,-216.4 197.01,-220.34 197.01,-220.34"/>
<ellipse fill="none" stroke="black" cx="193.81" cy="-220.47" rx="3.2" ry="3.2"/>
</g>
<!-- m_loanproduct_provisioning_mapping -->
<g id="node11" class="node">
<title>m_loanproduct_provisioning_mapping</title>
<g id="a_node11"><a xlink:href="../../tables/m_loanproduct_provisioning_mapping.html" xlink:title="m_loanproduct_provisioning_mapping" target="_top">
<polygon fill="#ffffff" stroke="transparent" points="496.5,-37 496.5,-95 744.5,-95 744.5,-37 496.5,-37"/>
<polygon fill="#f5f5f5" stroke="transparent" points="496.5,-73 496.5,-95 744.5,-95 744.5,-73 496.5,-73"/>
<polygon fill="none" stroke="black" points="496.5,-73 496.5,-95 744.5,-95 744.5,-73 496.5,-73"/>
<text text-anchor="start" x="501.5" y="-82.2" font-family="Helvetica,sans-Serif" font-weight="bold" font-size="11.00">m_loanproduct_provisioning_mapping</text>
<text text-anchor="start" x="709.5" y="-81.2" font-family="Helvetica,sans-Serif" font-size="11.00">[table]</text>
<polygon fill="none" stroke="black" points="496.5,-55 496.5,-73 744.5,-73 744.5,-55 496.5,-55"/>
<text text-anchor="start" x="499.5" y="-61.2" font-family="Helvetica,sans-Serif" font-size="11.00">...</text>
<polygon fill="#ffffff" stroke="transparent" points="496.5,-37 496.5,-55 605.5,-55 605.5,-37 496.5,-37"/>
<polygon fill="none" stroke="black" points="496.5,-37 496.5,-55 605.5,-55 605.5,-37 496.5,-37"/>
<text text-anchor="start" x="499.5" y="-43.2" font-family="Helvetica,sans-Serif" font-size="11.00">&lt; 2</text>
<polygon fill="#ffffff" stroke="transparent" points="605.5,-37 605.5,-55 687.5,-55 687.5,-37 605.5,-37"/>
<polygon fill="none" stroke="black" points="605.5,-37 605.5,-55 687.5,-55 687.5,-37 605.5,-37"/>
<text text-anchor="start" x="651.5" y="-43.2" font-family="Helvetica,sans-Serif" font-size="11.00">0 rows</text>
<polygon fill="#ffffff" stroke="transparent" points="687.5,-37 687.5,-55 744.5,-55 744.5,-37 687.5,-37"/>
<polygon fill="none" stroke="black" points="687.5,-37 687.5,-55 744.5,-55 744.5,-37 687.5,-37"/>
<text text-anchor="start" x="734.5" y="-43.2" font-family="Helvetica,sans-Serif" font-size="11.00"> &#160;</text>
</a>
</g>
</g>
<!-- m_loanproduct_provisioning_mapping&#45;&gt;m_provisioning_criteria -->
<g id="edge13" class="edge">
<title>m_loanproduct_provisioning_mapping:w&#45;&gt;m_provisioning_criteria:e</title>
<path fill="none" stroke="black" d="M481.14,-65.48C395.3,-84.74 489.94,-286 385,-286"/>
<polygon fill="black" stroke="black" points="487.54,-64.82 495.87,-67.58 491.52,-64.41 495.5,-64 495.5,-64 495.5,-64 491.52,-64.41 495.13,-60.42 487.54,-64.82 487.54,-64.82"/>
<ellipse fill="none" stroke="black" cx="484.36" cy="-65.15" rx="3.2" ry="3.2"/>
</g>
<!-- m_provisioning_criteria_definition -->
<g id="node12" class="node">
<title>m_provisioning_criteria_definition</title>
<g id="a_node12"><a xlink:href="../../tables/m_provisioning_criteria_definition.html" xlink:title="m_provisioning_criteria_definition" target="_top">
<polygon fill="#ffffff" stroke="transparent" points="462,-195 462,-415 779,-415 779,-195 462,-195"/>
<polygon fill="#f5f5f5" stroke="transparent" points="464.5,-391 464.5,-413 777.5,-413 777.5,-391 464.5,-391"/>
<polygon fill="none" stroke="black" points="464.5,-391 464.5,-413 777.5,-413 777.5,-391 464.5,-391"/>
<text text-anchor="start" x="469.5" y="-400.2" font-family="Helvetica,sans-Serif" font-weight="bold" font-size="11.00">m_provisioning_criteria_definition</text>
<text text-anchor="start" x="742.5" y="-399.2" font-family="Helvetica,sans-Serif" font-size="11.00">[table]</text>
<polygon fill="none" stroke="black" points="464.5,-369 464.5,-391 713.5,-391 713.5,-369 464.5,-369"/>
<image xlink:href="../../images/primaryKeys.png" width="11px" height="12px" preserveAspectRatio="xMinYMin meet" x="469.5" y="-386"/>
<text text-anchor="start" x="484.5" y="-377.2" font-family="Helvetica,sans-Serif" font-size="11.00">id</text>
<polygon fill="none" stroke="black" points="713.5,-369 713.5,-391 777.5,-391 777.5,-369 713.5,-369"/>
<text text-anchor="start" x="716.5" y="-377.2" font-family="Helvetica,sans-Serif" font-size="11.00">bigint[19]</text>
<polygon fill="#ffffff" stroke="transparent" points="464.5,-347 464.5,-369 713.5,-369 713.5,-347 464.5,-347"/>
<polygon fill="none" stroke="black" points="464.5,-347 464.5,-369 713.5,-369 713.5,-347 464.5,-347"/>
<image xlink:href="../../images/foreignKeys.png" width="11px" height="12px" preserveAspectRatio="xMinYMin meet" x="469.5" y="-364"/>
<text text-anchor="start" x="484.5" y="-355.2" font-family="Helvetica,sans-Serif" font-size="11.00">criteria_id</text>
<polygon fill="none" stroke="black" points="713.5,-347 713.5,-369 777.5,-369 777.5,-347 713.5,-347"/>
<text text-anchor="start" x="716.5" y="-355.2" font-family="Helvetica,sans-Serif" font-size="11.00">bigint[19]</text>
<polygon fill="#ffffff" stroke="transparent" points="464.5,-325 464.5,-347 713.5,-347 713.5,-325 464.5,-325"/>
<polygon fill="none" stroke="black" points="464.5,-325 464.5,-347 713.5,-347 713.5,-325 464.5,-325"/>
<image xlink:href="../../images/foreignKeys.png" width="11px" height="12px" preserveAspectRatio="xMinYMin meet" x="469.5" y="-342"/>
<text text-anchor="start" x="484.5" y="-333.2" font-family="Helvetica,sans-Serif" font-size="11.00">category_id</text>
<polygon fill="none" stroke="black" points="713.5,-325 713.5,-347 777.5,-347 777.5,-325 713.5,-325"/>
<text text-anchor="start" x="716.5" y="-333.2" font-family="Helvetica,sans-Serif" font-size="11.00">bigint[19]</text>
<polygon fill="none" stroke="black" points="464.5,-303 464.5,-325 713.5,-325 713.5,-303 464.5,-303"/>
<text text-anchor="start" x="484.5" y="-311.2" font-family="Helvetica,sans-Serif" font-size="11.00">min_age</text>
<polygon fill="none" stroke="black" points="713.5,-303 713.5,-325 777.5,-325 777.5,-303 713.5,-303"/>
<text text-anchor="start" x="716.5" y="-311.2" font-family="Helvetica,sans-Serif" font-size="11.00">bigint[19]</text>
<polygon fill="none" stroke="black" points="464.5,-281 464.5,-303 713.5,-303 713.5,-281 464.5,-281"/>
<text text-anchor="start" x="484.5" y="-289.2" font-family="Helvetica,sans-Serif" font-size="11.00">max_age</text>
<polygon fill="none" stroke="black" points="713.5,-281 713.5,-303 777.5,-303 777.5,-281 713.5,-281"/>
<text text-anchor="start" x="716.5" y="-289.2" font-family="Helvetica,sans-Serif" font-size="11.00">bigint[19]</text>
<polygon fill="none" stroke="black" points="464.5,-259 464.5,-281 713.5,-281 713.5,-259 464.5,-259"/>
<text text-anchor="start" x="484.5" y="-267.2" font-family="Helvetica,sans-Serif" font-size="11.00">provision_percentage</text>
<polygon fill="none" stroke="black" points="713.5,-259 713.5,-281 777.5,-281 777.5,-259 713.5,-259"/>
<text text-anchor="start" x="716.5" y="-267.2" font-family="Helvetica,sans-Serif" font-size="11.00">decimal[5,2]</text>
<polygon fill="#ffffff" stroke="transparent" points="464.5,-237 464.5,-259 713.5,-259 713.5,-237 464.5,-237"/>
<polygon fill="none" stroke="black" points="464.5,-237 464.5,-259 713.5,-259 713.5,-237 464.5,-237"/>
<image xlink:href="../../images/foreignKeys.png" width="11px" height="12px" preserveAspectRatio="xMinYMin meet" x="469.5" y="-254"/>
<text text-anchor="start" x="484.5" y="-245.2" font-family="Helvetica,sans-Serif" font-size="11.00">liability_account</text>
<polygon fill="none" stroke="black" points="713.5,-237 713.5,-259 777.5,-259 777.5,-237 713.5,-237"/>
<text text-anchor="start" x="716.5" y="-245.2" font-family="Helvetica,sans-Serif" font-size="11.00">bigint[19]</text>
<polygon fill="#ffffff" stroke="transparent" points="464.5,-215 464.5,-237 713.5,-237 713.5,-215 464.5,-215"/>
<polygon fill="none" stroke="black" points="464.5,-215 464.5,-237 713.5,-237 713.5,-215 464.5,-215"/>
<image xlink:href="../../images/foreignKeys.png" width="11px" height="12px" preserveAspectRatio="xMinYMin meet" x="469.5" y="-232"/>
<text text-anchor="start" x="484.5" y="-223.2" font-family="Helvetica,sans-Serif" font-size="11.00">expense_account</text>
<polygon fill="none" stroke="black" points="713.5,-215 713.5,-237 777.5,-237 777.5,-215 713.5,-215"/>
<text text-anchor="start" x="716.5" y="-223.2" font-family="Helvetica,sans-Serif" font-size="11.00">bigint[19]</text>
<polygon fill="#ffffff" stroke="transparent" points="464.5,-197 464.5,-215 580.5,-215 580.5,-197 464.5,-197"/>
<polygon fill="none" stroke="black" points="464.5,-197 464.5,-215 580.5,-215 580.5,-197 464.5,-197"/>
<text text-anchor="start" x="467.5" y="-203.2" font-family="Helvetica,sans-Serif" font-size="11.00">&lt; 4</text>
<polygon fill="#ffffff" stroke="transparent" points="580.5,-197 580.5,-215 713.5,-215 713.5,-197 580.5,-197"/>
<polygon fill="none" stroke="black" points="580.5,-197 580.5,-215 713.5,-215 713.5,-197 580.5,-197"/>
<text text-anchor="start" x="677.5" y="-203.2" font-family="Helvetica,sans-Serif" font-size="11.00">0 rows</text>
<polygon fill="#ffffff" stroke="transparent" points="713.5,-197 713.5,-215 777.5,-215 777.5,-197 713.5,-197"/>
<polygon fill="none" stroke="black" points="713.5,-197 713.5,-215 777.5,-215 777.5,-197 713.5,-197"/>
<text text-anchor="start" x="758.5" y="-203.2" font-family="Helvetica,sans-Serif" font-size="11.00">0 &gt;</text>
<polygon fill="none" stroke="black" stroke-width="2" points="463,-196 463,-414 778,-414 778,-196 463,-196"/>
</a>
</g>
</g>
<!-- m_provisioning_criteria_definition&#45;&gt;acc_gl_account -->
<g id="edge18" class="edge">
<title>m_provisioning_criteria_definition:w&#45;&gt;acc_gl_account:e</title>
<path fill="none" stroke="black" d="M449.88,-230.68C398.79,-272.22 487.18,-576 414,-576"/>
<polygon fill="black" stroke="black" points="455.93,-228.6 464.67,-229.4 459.72,-227.3 463.5,-226 463.5,-226 463.5,-226 459.72,-227.3 462.33,-222.6 455.93,-228.6 455.93,-228.6"/>
<ellipse fill="none" stroke="black" cx="452.91" cy="-229.64" rx="3.2" ry="3.2"/>
</g>
<!-- m_provisioning_criteria_definition&#45;&gt;acc_gl_account -->
<g id="edge19" class="edge">
<title>m_provisioning_criteria_definition:w&#45;&gt;acc_gl_account:e</title>
<path fill="none" stroke="black" d="M449.78,-253.15C403.38,-294.88 482.24,-576 414,-576"/>
<polygon fill="black" stroke="black" points="456.01,-250.81 464.77,-251.37 459.76,-249.41 463.5,-248 463.5,-248 463.5,-248 459.76,-249.41 462.23,-244.63 456.01,-250.81 456.01,-250.81"/>
<ellipse fill="none" stroke="black" cx="453.02" cy="-251.94" rx="3.2" ry="3.2"/>
</g>
<!-- m_provisioning_criteria_definition&#45;&gt;m_provision_category -->
<g id="edge16" class="edge">
<title>m_provisioning_criteria_definition:w&#45;&gt;m_provision_category:e</title>
<path fill="none" stroke="black" d="M449.04,-338.6C416.8,-351.6 423.71,-409 380,-409"/>
<polygon fill="black" stroke="black" points="455.63,-337.41 464.14,-339.54 459.56,-336.71 463.5,-336 463.5,-336 463.5,-336 459.56,-336.71 462.86,-332.46 455.63,-337.41 455.63,-337.41"/>
<ellipse fill="none" stroke="black" cx="452.48" cy="-337.98" rx="3.2" ry="3.2"/>
</g>
<!-- m_provisioning_criteria_definition&#45;&gt;m_provisioning_criteria -->
<g id="edge17" class="edge">
<title>m_provisioning_criteria_definition:w&#45;&gt;m_provisioning_criteria:e</title>
<path fill="none" stroke="black" d="M449.27,-355.27C419.08,-342.11 426.79,-286 385,-286"/>
<polygon fill="black" stroke="black" points="455.64,-356.49 462.82,-361.54 459.57,-357.25 463.5,-358 463.5,-358 463.5,-358 459.57,-357.25 464.18,-354.46 455.64,-356.49 455.64,-356.49"/>
<ellipse fill="none" stroke="black" cx="452.5" cy="-355.89" rx="3.2" ry="3.2"/>
</g>
<!-- m_tax_component -->
<g id="node13" class="node">
<title>m_tax_component</title>
<g id="a_node13"><a xlink:href="../../tables/m_tax_component.html" xlink:title="m_tax_component" target="_top">
<polygon fill="#ffffff" stroke="transparent" points="550,-116 550,-174 691,-174 691,-116 550,-116"/>
<polygon fill="#f5f5f5" stroke="transparent" points="550.5,-152 550.5,-174 691.5,-174 691.5,-152 550.5,-152"/>
<polygon fill="none" stroke="black" points="550.5,-152 550.5,-174 691.5,-174 691.5,-152 550.5,-152"/>
<text text-anchor="start" x="555.5" y="-161.2" font-family="Helvetica,sans-Serif" font-weight="bold" font-size="11.00">m_tax_component</text>
<text text-anchor="start" x="656.5" y="-160.2" font-family="Helvetica,sans-Serif" font-size="11.00">[table]</text>
<polygon fill="none" stroke="black" points="550.5,-134 550.5,-152 691.5,-152 691.5,-134 550.5,-134"/>
<text text-anchor="start" x="553.5" y="-140.2" font-family="Helvetica,sans-Serif" font-size="11.00">...</text>
<polygon fill="#ffffff" stroke="transparent" points="550.5,-116 550.5,-134 601.5,-134 601.5,-116 550.5,-116"/>
<polygon fill="none" stroke="black" points="550.5,-116 550.5,-134 601.5,-134 601.5,-116 550.5,-116"/>
<text text-anchor="start" x="553.5" y="-122.2" font-family="Helvetica,sans-Serif" font-size="11.00">&lt; 4</text>
<polygon fill="#ffffff" stroke="transparent" points="601.5,-116 601.5,-134 654.5,-134 654.5,-116 601.5,-116"/>
<polygon fill="none" stroke="black" points="601.5,-116 601.5,-134 654.5,-134 654.5,-116 601.5,-116"/>
<text text-anchor="start" x="618.5" y="-122.2" font-family="Helvetica,sans-Serif" font-size="11.00">0 rows</text>
<polygon fill="#ffffff" stroke="transparent" points="654.5,-116 654.5,-134 691.5,-134 691.5,-116 654.5,-116"/>
<polygon fill="none" stroke="black" points="654.5,-116 654.5,-134 691.5,-134 691.5,-116 654.5,-116"/>
<text text-anchor="start" x="672.5" y="-122.2" font-family="Helvetica,sans-Serif" font-size="11.00">3 &gt;</text>
</a>
</g>
</g>
<!-- m_tax_component&#45;&gt;acc_gl_account -->
<g id="edge21" class="edge">
<title>m_tax_component:w&#45;&gt;acc_gl_account:e</title>
<path fill="none" stroke="black" d="M535.13,-141.44C498.29,-138.38 478.3,-145.61 454,-179 402.6,-249.62 501.34,-570 414,-576"/>
<polygon fill="black" stroke="black" points="541.55,-142.14 549.11,-146.58 545.52,-142.57 549.5,-143 549.5,-143 549.5,-143 545.52,-142.57 549.89,-139.42 541.55,-142.14 541.55,-142.14"/>
<ellipse fill="none" stroke="black" cx="538.37" cy="-141.79" rx="3.2" ry="3.2"/>
</g>
<!-- m_tax_component&#45;&gt;acc_gl_account -->
<g id="edge22" class="edge">
<title>m_tax_component:w&#45;&gt;acc_gl_account:e</title>
<path fill="none" stroke="black" d="M535.13,-145.25C498.29,-151.38 478.3,-158.61 454,-192 402.6,-262.62 501.34,-583 414,-576"/>
<polygon fill="black" stroke="black" points="541.6,-144.24 550.06,-146.56 545.55,-143.62 549.5,-143 549.5,-143 549.5,-143 545.55,-143.62 548.94,-139.44 541.6,-144.24 541.6,-144.24"/>
<ellipse fill="none" stroke="black" cx="538.44" cy="-144.74" rx="3.2" ry="3.2"/>
</g>
<!-- m_tax_component&#45;&gt;m_appuser -->
<g id="edge20" class="edge">
<title>m_tax_component:w&#45;&gt;m_appuser:e</title>
<path fill="none" stroke="black" d="M534.89,-142.85C376.4,-139.5 312.92,-83.57 169,-163 136.61,-180.88 157.99,-231 121,-231"/>
<polygon fill="black" stroke="black" points="541.5,-142.92 549.46,-146.6 545.5,-142.96 549.5,-143 549.5,-143 549.5,-143 545.5,-142.96 549.54,-139.4 541.5,-142.92 541.5,-142.92"/>
<ellipse fill="none" stroke="black" cx="538.3" cy="-142.88" rx="3.2" ry="3.2"/>
</g>
<!-- m_tax_component&#45;&gt;m_appuser -->
<g id="edge23" class="edge">
<title>m_tax_component:w&#45;&gt;m_appuser:e</title>
<path fill="none" stroke="black" d="M534.88,-142.86C376.35,-139.81 313.73,-88.84 169,-167 137.71,-183.89 156.56,-231 121,-231"/>
<polygon fill="black" stroke="black" points="541.5,-142.92 549.47,-146.6 545.5,-142.96 549.5,-143 549.5,-143 549.5,-143 545.5,-142.96 549.53,-139.4 541.5,-142.92 541.5,-142.92"/>
<ellipse fill="none" stroke="black" cx="538.3" cy="-142.89" rx="3.2" ry="3.2"/>
</g>
<!-- m_tellers -->
<g id="node14" class="node">
<title>m_tellers</title>
<g id="a_node14"><a xlink:href="../../tables/m_tellers.html" xlink:title="m_tellers" target="_top">
<polygon fill="#ffffff" stroke="transparent" points="574,-515 574,-573 667,-573 667,-515 574,-515"/>
<polygon fill="#f5f5f5" stroke="transparent" points="574.5,-551 574.5,-573 667.5,-573 667.5,-551 574.5,-551"/>
<polygon fill="none" stroke="black" points="574.5,-551 574.5,-573 667.5,-573 667.5,-551 574.5,-551"/>
<text text-anchor="start" x="579.5" y="-560.2" font-family="Helvetica,sans-Serif" font-weight="bold" font-size="11.00">m_tellers</text>
<text text-anchor="start" x="632.5" y="-559.2" font-family="Helvetica,sans-Serif" font-size="11.00">[table]</text>
<polygon fill="none" stroke="black" points="574.5,-533 574.5,-551 667.5,-551 667.5,-533 574.5,-533"/>
<text text-anchor="start" x="577.5" y="-539.2" font-family="Helvetica,sans-Serif" font-size="11.00">...</text>
<polygon fill="#ffffff" stroke="transparent" points="574.5,-515 574.5,-533 601.5,-533 601.5,-515 574.5,-515"/>
<polygon fill="none" stroke="black" points="574.5,-515 574.5,-533 601.5,-533 601.5,-515 574.5,-515"/>
<text text-anchor="start" x="577.5" y="-521.2" font-family="Helvetica,sans-Serif" font-size="11.00">&lt; 3</text>
<polygon fill="#ffffff" stroke="transparent" points="601.5,-515 601.5,-533 642.5,-533 642.5,-515 601.5,-515"/>
<polygon fill="none" stroke="black" points="601.5,-515 601.5,-533 642.5,-533 642.5,-515 601.5,-515"/>
<text text-anchor="start" x="606.5" y="-521.2" font-family="Helvetica,sans-Serif" font-size="11.00">0 rows</text>
<polygon fill="#ffffff" stroke="transparent" points="642.5,-515 642.5,-533 667.5,-533 667.5,-515 642.5,-515"/>
<polygon fill="none" stroke="black" points="642.5,-515 642.5,-533 667.5,-533 667.5,-515 642.5,-515"/>
<text text-anchor="start" x="648.5" y="-521.2" font-family="Helvetica,sans-Serif" font-size="11.00">1 &gt;</text>
</a>
</g>
</g>
<!-- m_tellers&#45;&gt;acc_gl_account -->
<g id="edge24" class="edge">
<title>m_tellers:w&#45;&gt;acc_gl_account:e</title>
<path fill="none" stroke="black" d="M559.03,-541.3C498.69,-540.64 481.39,-570.42 414,-576"/>
<polygon fill="black" stroke="black" points="565.51,-541.62 573.33,-545.6 569.5,-541.81 573.5,-542 573.5,-542 573.5,-542 569.5,-541.81 573.67,-538.4 565.51,-541.62 565.51,-541.62"/>
<ellipse fill="none" stroke="black" cx="562.31" cy="-541.46" rx="3.2" ry="3.2"/>
</g>
<!-- m_tellers&#45;&gt;acc_gl_account -->
<g id="edge25" class="edge">
<title>m_tellers:w&#45;&gt;acc_gl_account:e</title>
<path fill="none" stroke="black" d="M559.03,-543.85C498.69,-553.58 481.39,-582.51 414,-576"/>
<polygon fill="black" stroke="black" points="565.56,-543.02 573.96,-545.57 569.53,-542.51 573.5,-542 573.5,-542 573.5,-542 569.53,-542.51 573.04,-538.43 565.56,-543.02 565.56,-543.02"/>
<ellipse fill="none" stroke="black" cx="562.39" cy="-543.42" rx="3.2" ry="3.2"/>
</g>
</g>
</svg>
