<?xml version="1.0" encoding="UTF-8" standalone="no"?>
<!DOCTYPE svg PUBLIC "-//W3C//DTD SVG 1.1//EN"
 "http://www.w3.org/Graphics/SVG/1.1/DTD/svg11.dtd">
<!-- Generated by graphviz version 2.43.0 (0)
 -->
<!-- Title: twoDegreesRelationshipsDiagram Pages: 1 -->
<svg width="564pt" height="554pt"
 viewBox="0.00 0.00 564.00 554.00" xmlns="http://www.w3.org/2000/svg" xmlns:xlink="http://www.w3.org/1999/xlink">
<g id="graph0" class="graph" transform="scale(1 1) rotate(0) translate(4 550)">
<title>twoDegreesRelationshipsDiagram</title>
<polygon fill="#ffffff" stroke="transparent" points="-4,4 -4,-550 560,-550 560,4 -4,4"/>
<text text-anchor="middle" x="71.5" y="-7.2" font-family="Helvetica,sans-Serif" font-size="11.00">Generated by SchemaSpy</text>
<!-- m_loanproduct_provisioning_entry -->
<g id="node1" class="node">
<title>m_loanproduct_provisioning_entry</title>
<g id="a_node1"><a xlink:href="../../tables/m_loanproduct_provisioning_entry.html" xlink:title="m_loanproduct_provisioning_entry" target="_top">
<polygon fill="#ffffff" stroke="transparent" points="295,-96 295,-330 548,-330 548,-96 295,-96"/>
<polygon fill="#f5f5f5" stroke="transparent" points="295.5,-308 295.5,-330 548.5,-330 548.5,-308 295.5,-308"/>
<polygon fill="none" stroke="black" points="295.5,-308 295.5,-330 548.5,-330 548.5,-308 295.5,-308"/>
<text text-anchor="start" x="300.5" y="-317.2" font-family="Helvetica,sans-Serif" font-weight="bold" font-size="11.00">m_loanproduct_provisioning_entry</text>
<text text-anchor="start" x="513.5" y="-316.2" font-family="Helvetica,sans-Serif" font-size="11.00">[table]</text>
<polygon fill="none" stroke="black" points="295.5,-286 295.5,-308 548.5,-308 548.5,-286 295.5,-286"/>
<image xlink:href="../../images/primaryKeys.png" width="11px" height="12px" preserveAspectRatio="xMinYMin meet" x="300.5" y="-303"/>
<text text-anchor="start" x="315.5" y="-294.2" font-family="Helvetica,sans-Serif" font-size="11.00">id</text>
<polygon fill="#ffffff" stroke="transparent" points="295.5,-264 295.5,-286 548.5,-286 548.5,-264 295.5,-264"/>
<polygon fill="none" stroke="black" points="295.5,-264 295.5,-286 548.5,-286 548.5,-264 295.5,-264"/>
<image xlink:href="../../images/foreignKeys.png" width="11px" height="12px" preserveAspectRatio="xMinYMin meet" x="300.5" y="-281"/>
<text text-anchor="start" x="315.5" y="-272.2" font-family="Helvetica,sans-Serif" font-size="11.00">history_id</text>
<polygon fill="#ffffff" stroke="transparent" points="295.5,-242 295.5,-264 548.5,-264 548.5,-242 295.5,-242"/>
<polygon fill="none" stroke="black" points="295.5,-242 295.5,-264 548.5,-264 548.5,-242 295.5,-242"/>
<image xlink:href="../../images/foreignKeys.png" width="11px" height="12px" preserveAspectRatio="xMinYMin meet" x="300.5" y="-259"/>
<text text-anchor="start" x="315.5" y="-250.2" font-family="Helvetica,sans-Serif" font-size="11.00">criteria_id</text>
<polygon fill="#ffffff" stroke="transparent" points="295.5,-220 295.5,-242 548.5,-242 548.5,-220 295.5,-220"/>
<polygon fill="none" stroke="black" points="295.5,-220 295.5,-242 548.5,-242 548.5,-220 295.5,-220"/>
<image xlink:href="../../images/foreignKeys.png" width="11px" height="12px" preserveAspectRatio="xMinYMin meet" x="300.5" y="-237"/>
<text text-anchor="start" x="315.5" y="-228.2" font-family="Helvetica,sans-Serif" font-size="11.00">office_id</text>
<polygon fill="#ffffff" stroke="transparent" points="295.5,-198 295.5,-220 548.5,-220 548.5,-198 295.5,-198"/>
<polygon fill="none" stroke="black" points="295.5,-198 295.5,-220 548.5,-220 548.5,-198 295.5,-198"/>
<image xlink:href="../../images/foreignKeys.png" width="11px" height="12px" preserveAspectRatio="xMinYMin meet" x="300.5" y="-215"/>
<text text-anchor="start" x="315.5" y="-206.2" font-family="Helvetica,sans-Serif" font-size="11.00">product_id</text>
<polygon fill="#ffffff" stroke="transparent" points="295.5,-176 295.5,-198 548.5,-198 548.5,-176 295.5,-176"/>
<polygon fill="none" stroke="black" points="295.5,-176 295.5,-198 548.5,-198 548.5,-176 295.5,-176"/>
<image xlink:href="../../images/foreignKeys.png" width="11px" height="12px" preserveAspectRatio="xMinYMin meet" x="300.5" y="-193"/>
<text text-anchor="start" x="315.5" y="-184.2" font-family="Helvetica,sans-Serif" font-size="11.00">category_id</text>
<polygon fill="#ffffff" stroke="transparent" points="295.5,-154 295.5,-176 548.5,-176 548.5,-154 295.5,-154"/>
<polygon fill="none" stroke="black" points="295.5,-154 295.5,-176 548.5,-176 548.5,-154 295.5,-154"/>
<image xlink:href="../../images/foreignKeys.png" width="11px" height="12px" preserveAspectRatio="xMinYMin meet" x="300.5" y="-171"/>
<text text-anchor="start" x="315.5" y="-162.2" font-family="Helvetica,sans-Serif" font-size="11.00">liability_account</text>
<polygon fill="#ffffff" stroke="transparent" points="295.5,-132 295.5,-154 548.5,-154 548.5,-132 295.5,-132"/>
<polygon fill="none" stroke="black" points="295.5,-132 295.5,-154 548.5,-154 548.5,-132 295.5,-132"/>
<image xlink:href="../../images/foreignKeys.png" width="11px" height="12px" preserveAspectRatio="xMinYMin meet" x="300.5" y="-149"/>
<text text-anchor="start" x="315.5" y="-140.2" font-family="Helvetica,sans-Serif" font-size="11.00">expense_account</text>
<polygon fill="none" stroke="black" points="295.5,-114 295.5,-132 548.5,-132 548.5,-114 295.5,-114"/>
<text text-anchor="start" x="298.5" y="-120.2" font-family="Helvetica,sans-Serif" font-size="11.00">...</text>
<polygon fill="#ffffff" stroke="transparent" points="295.5,-96 295.5,-114 406.5,-114 406.5,-96 295.5,-96"/>
<polygon fill="none" stroke="black" points="295.5,-96 295.5,-114 406.5,-114 406.5,-96 295.5,-96"/>
<text text-anchor="start" x="298.5" y="-102.2" font-family="Helvetica,sans-Serif" font-size="11.00">&lt; 7</text>
<polygon fill="#ffffff" stroke="transparent" points="406.5,-96 406.5,-114 490.5,-114 490.5,-96 406.5,-96"/>
<polygon fill="none" stroke="black" points="406.5,-96 406.5,-114 490.5,-114 490.5,-96 406.5,-96"/>
<text text-anchor="start" x="454.5" y="-102.2" font-family="Helvetica,sans-Serif" font-size="11.00">0 rows</text>
<polygon fill="#ffffff" stroke="transparent" points="490.5,-96 490.5,-114 548.5,-114 548.5,-96 490.5,-96"/>
<polygon fill="none" stroke="black" points="490.5,-96 490.5,-114 548.5,-114 548.5,-96 490.5,-96"/>
<text text-anchor="start" x="538.5" y="-102.2" font-family="Helvetica,sans-Serif" font-size="11.00"> &#160;</text>
</a>
</g>
</g>
<!-- m_provision_category -->
<g id="node2" class="node">
<title>m_provision_category</title>
<g id="a_node2"><a xlink:href="../../tables/m_provision_category.html" xlink:title="m_provision_category" target="_top">
<polygon fill="#ffffff" stroke="transparent" points="8,-195 8,-305 246,-305 246,-195 8,-195"/>
<polygon fill="#f5f5f5" stroke="transparent" points="10,-281 10,-303 244,-303 244,-281 10,-281"/>
<polygon fill="none" stroke="black" points="10,-281 10,-303 244,-303 244,-281 10,-281"/>
<text text-anchor="start" x="15" y="-290.2" font-family="Helvetica,sans-Serif" font-weight="bold" font-size="11.00">m_provision_category</text>
<text text-anchor="start" x="209" y="-289.2" font-family="Helvetica,sans-Serif" font-size="11.00">[table]</text>
<polygon fill="none" stroke="black" points="10,-259 10,-281 177,-281 177,-259 10,-259"/>
<image xlink:href="../../images/primaryKeys.png" width="11px" height="12px" preserveAspectRatio="xMinYMin meet" x="15" y="-276"/>
<text text-anchor="start" x="30" y="-267.2" font-family="Helvetica,sans-Serif" font-size="11.00">id</text>
<polygon fill="none" stroke="black" points="177,-259 177,-281 244,-281 244,-259 177,-259"/>
<text text-anchor="start" x="180" y="-267.2" font-family="Helvetica,sans-Serif" font-size="11.00">bigint[19]</text>
<polygon fill="#ffffff" stroke="transparent" points="10,-237 10,-259 177,-259 177,-237 10,-237"/>
<polygon fill="none" stroke="black" points="10,-237 10,-259 177,-259 177,-237 10,-237"/>
<text text-anchor="start" x="30" y="-245.2" font-family="Helvetica,sans-Serif" font-size="11.00">category_name</text>
<polygon fill="none" stroke="black" points="177,-237 177,-259 244,-259 244,-237 177,-237"/>
<text text-anchor="start" x="180" y="-245.2" font-family="Helvetica,sans-Serif" font-size="11.00">varchar[100]</text>
<polygon fill="none" stroke="black" points="10,-215 10,-237 177,-237 177,-215 10,-215"/>
<text text-anchor="start" x="30" y="-223.2" font-family="Helvetica,sans-Serif" font-size="11.00">description</text>
<polygon fill="none" stroke="black" points="177,-215 177,-237 244,-237 244,-215 177,-215"/>
<text text-anchor="start" x="180" y="-223.2" font-family="Helvetica,sans-Serif" font-size="11.00">varchar[300]</text>
<polygon fill="#ffffff" stroke="transparent" points="10,-197 10,-215 85,-215 85,-197 10,-197"/>
<polygon fill="none" stroke="black" points="10,-197 10,-215 85,-215 85,-197 10,-197"/>
<text text-anchor="start" x="13" y="-203.2" font-family="Helvetica,sans-Serif" font-size="11.00">&lt; 0</text>
<polygon fill="#ffffff" stroke="transparent" points="85,-197 85,-215 177,-215 177,-197 85,-197"/>
<polygon fill="none" stroke="black" points="85,-197 85,-215 177,-215 177,-197 85,-197"/>
<text text-anchor="start" x="141" y="-203.2" font-family="Helvetica,sans-Serif" font-size="11.00">0 rows</text>
<polygon fill="#ffffff" stroke="transparent" points="177,-197 177,-215 244,-215 244,-197 177,-197"/>
<polygon fill="none" stroke="black" points="177,-197 177,-215 244,-215 244,-197 177,-197"/>
<text text-anchor="start" x="225" y="-203.2" font-family="Helvetica,sans-Serif" font-size="11.00">2 &gt;</text>
<polygon fill="none" stroke="black" stroke-width="2" points="9,-196 9,-304 245,-304 245,-196 9,-196"/>
</a>
</g>
</g>
<!-- m_loanproduct_provisioning_entry&#45;&gt;m_provision_category -->
<g id="edge1" class="edge">
<title>m_loanproduct_provisioning_entry:w&#45;&gt;m_provision_category:e</title>
<path fill="none" stroke="black" d="M280.65,-191.46C260.22,-208.7 281.91,-270 245,-270"/>
<polygon fill="black" stroke="black" points="286.89,-189.45 295.6,-190.43 290.69,-188.23 294.5,-187 294.5,-187 294.5,-187 290.69,-188.23 293.4,-183.57 286.89,-189.45 286.89,-189.45"/>
<ellipse fill="none" stroke="black" cx="283.84" cy="-190.43" rx="3.2" ry="3.2"/>
</g>
<!-- m_provisioning_criteria -->
<g id="node3" class="node">
<title>m_provisioning_criteria</title>
<g id="a_node3"><a xlink:href="../../tables/m_provisioning_criteria.html" xlink:title="m_provisioning_criteria" target="_top">
<polygon fill="#ffffff" stroke="transparent" points="42.5,-484 42.5,-542 211.5,-542 211.5,-484 42.5,-484"/>
<polygon fill="#f5f5f5" stroke="transparent" points="43,-520 43,-542 212,-542 212,-520 43,-520"/>
<polygon fill="none" stroke="black" points="43,-520 43,-542 212,-542 212,-520 43,-520"/>
<text text-anchor="start" x="48" y="-529.2" font-family="Helvetica,sans-Serif" font-weight="bold" font-size="11.00">m_provisioning_criteria</text>
<text text-anchor="start" x="177" y="-528.2" font-family="Helvetica,sans-Serif" font-size="11.00">[table]</text>
<polygon fill="none" stroke="black" points="43,-502 43,-520 212,-520 212,-502 43,-502"/>
<text text-anchor="start" x="46" y="-508.2" font-family="Helvetica,sans-Serif" font-size="11.00">...</text>
<polygon fill="#ffffff" stroke="transparent" points="43,-484 43,-502 108,-502 108,-484 43,-484"/>
<polygon fill="none" stroke="black" points="43,-484 43,-502 108,-502 108,-484 43,-484"/>
<text text-anchor="start" x="46" y="-490.2" font-family="Helvetica,sans-Serif" font-size="11.00">&lt; 2</text>
<polygon fill="#ffffff" stroke="transparent" points="108,-484 108,-502 168,-502 168,-484 108,-484"/>
<polygon fill="none" stroke="black" points="108,-484 108,-502 168,-502 168,-484 108,-484"/>
<text text-anchor="start" x="132" y="-490.2" font-family="Helvetica,sans-Serif" font-size="11.00">0 rows</text>
<polygon fill="#ffffff" stroke="transparent" points="168,-484 168,-502 212,-502 212,-484 168,-484"/>
<polygon fill="none" stroke="black" points="168,-484 168,-502 212,-502 212,-484 168,-484"/>
<text text-anchor="start" x="193" y="-490.2" font-family="Helvetica,sans-Serif" font-size="11.00">3 &gt;</text>
</a>
</g>
</g>
<!-- m_loanproduct_provisioning_entry&#45;&gt;m_provisioning_criteria -->
<g id="edge2" class="edge">
<title>m_loanproduct_provisioning_entry:w&#45;&gt;m_provisioning_criteria:e</title>
<path fill="none" stroke="black" d="M280.93,-258.96C251.26,-290.21 275.67,-435.17 254,-474 242.04,-495.43 237.55,-511 213,-511"/>
<polygon fill="black" stroke="black" points="287.18,-256.22 295.95,-256.3 290.84,-254.61 294.5,-253 294.5,-253 294.5,-253 290.84,-254.61 293.05,-249.7 287.18,-256.22 287.18,-256.22"/>
<ellipse fill="none" stroke="black" cx="284.25" cy="-257.5" rx="3.2" ry="3.2"/>
</g>
<!-- acc_gl_account -->
<g id="node4" class="node">
<title>acc_gl_account</title>
<g id="a_node4"><a xlink:href="../../tables/acc_gl_account.html" xlink:title="acc_gl_account" target="_top">
<polygon fill="#ffffff" stroke="transparent" points="64,-116 64,-174 190,-174 190,-116 64,-116"/>
<polygon fill="#f5f5f5" stroke="transparent" points="64,-152 64,-174 190,-174 190,-152 64,-152"/>
<polygon fill="none" stroke="black" points="64,-152 64,-174 190,-174 190,-152 64,-152"/>
<text text-anchor="start" x="69" y="-161.2" font-family="Helvetica,sans-Serif" font-weight="bold" font-size="11.00">acc_gl_account</text>
<text text-anchor="start" x="155" y="-160.2" font-family="Helvetica,sans-Serif" font-size="11.00">[table]</text>
<polygon fill="none" stroke="black" points="64,-134 64,-152 190,-152 190,-134 64,-134"/>
<text text-anchor="start" x="67" y="-140.2" font-family="Helvetica,sans-Serif" font-size="11.00">...</text>
<polygon fill="#ffffff" stroke="transparent" points="64,-116 64,-134 104,-134 104,-116 64,-116"/>
<polygon fill="none" stroke="black" points="64,-116 64,-134 104,-134 104,-116 64,-116"/>
<text text-anchor="start" x="67" y="-122.2" font-family="Helvetica,sans-Serif" font-size="11.00">&lt; 2</text>
<polygon fill="#ffffff" stroke="transparent" points="104,-116 104,-134 152,-134 152,-116 104,-116"/>
<polygon fill="none" stroke="black" points="104,-116 104,-134 152,-134 152,-116 104,-116"/>
<text text-anchor="start" x="116" y="-122.2" font-family="Helvetica,sans-Serif" font-size="11.00">0 rows</text>
<polygon fill="#ffffff" stroke="transparent" points="152,-116 152,-134 190,-134 190,-116 152,-116"/>
<polygon fill="none" stroke="black" points="152,-116 152,-134 190,-134 190,-116 152,-116"/>
<text text-anchor="start" x="165" y="-122.2" font-family="Helvetica,sans-Serif" font-size="11.00">14 &gt;</text>
</a>
</g>
</g>
<!-- m_loanproduct_provisioning_entry&#45;&gt;acc_gl_account -->
<g id="edge3" class="edge">
<title>m_loanproduct_provisioning_entry:w&#45;&gt;acc_gl_account:e</title>
<path fill="none" stroke="black" d="M280.1,-143C245.45,-143 231.79,-143 191,-143"/>
<polygon fill="black" stroke="black" points="286.5,-143 294.5,-146.6 290.5,-143 294.5,-143 294.5,-143 294.5,-143 290.5,-143 294.5,-139.4 286.5,-143 286.5,-143"/>
<ellipse fill="none" stroke="black" cx="283.3" cy="-143" rx="3.2" ry="3.2"/>
</g>
<!-- m_loanproduct_provisioning_entry&#45;&gt;acc_gl_account -->
<g id="edge5" class="edge">
<title>m_loanproduct_provisioning_entry:w&#45;&gt;acc_gl_account:e</title>
<path fill="none" stroke="black" d="M279.86,-164.22C244.85,-160.3 232.7,-143 191,-143"/>
<polygon fill="black" stroke="black" points="286.51,-164.57 294.31,-168.59 290.51,-164.79 294.5,-165 294.5,-165 294.5,-165 290.51,-164.79 294.69,-161.41 286.51,-164.57 286.51,-164.57"/>
<ellipse fill="none" stroke="black" cx="283.32" cy="-164.4" rx="3.2" ry="3.2"/>
</g>
<!-- m_provisioning_history -->
<g id="node5" class="node">
<title>m_provisioning_history</title>
<g id="a_node5"><a xlink:href="../../tables/m_provisioning_history.html" xlink:title="m_provisioning_history" target="_top">
<polygon fill="#ffffff" stroke="transparent" points="42.5,-405 42.5,-463 211.5,-463 211.5,-405 42.5,-405"/>
<polygon fill="#f5f5f5" stroke="transparent" points="43,-441 43,-463 212,-463 212,-441 43,-441"/>
<polygon fill="none" stroke="black" points="43,-441 43,-463 212,-463 212,-441 43,-441"/>
<text text-anchor="start" x="48" y="-450.2" font-family="Helvetica,sans-Serif" font-weight="bold" font-size="11.00">m_provisioning_history</text>
<text text-anchor="start" x="177" y="-449.2" font-family="Helvetica,sans-Serif" font-size="11.00">[table]</text>
<polygon fill="none" stroke="black" points="43,-423 43,-441 212,-441 212,-423 43,-423"/>
<text text-anchor="start" x="46" y="-429.2" font-family="Helvetica,sans-Serif" font-size="11.00">...</text>
<polygon fill="#ffffff" stroke="transparent" points="43,-405 43,-423 108,-423 108,-405 43,-405"/>
<polygon fill="none" stroke="black" points="43,-405 43,-423 108,-423 108,-405 43,-405"/>
<text text-anchor="start" x="46" y="-411.2" font-family="Helvetica,sans-Serif" font-size="11.00">&lt; 2</text>
<polygon fill="#ffffff" stroke="transparent" points="108,-405 108,-423 168,-423 168,-405 108,-405"/>
<polygon fill="none" stroke="black" points="108,-405 108,-423 168,-423 168,-405 108,-405"/>
<text text-anchor="start" x="132" y="-411.2" font-family="Helvetica,sans-Serif" font-size="11.00">0 rows</text>
<polygon fill="#ffffff" stroke="transparent" points="168,-405 168,-423 212,-423 212,-405 168,-405"/>
<polygon fill="none" stroke="black" points="168,-405 168,-423 212,-423 212,-405 168,-405"/>
<text text-anchor="start" x="193" y="-411.2" font-family="Helvetica,sans-Serif" font-size="11.00">1 &gt;</text>
</a>
</g>
</g>
<!-- m_loanproduct_provisioning_entry&#45;&gt;m_provisioning_history -->
<g id="edge4" class="edge">
<title>m_loanproduct_provisioning_entry:w&#45;&gt;m_provisioning_history:e</title>
<path fill="none" stroke="black" d="M279.91,-277.32C247.2,-290.1 281.64,-352.91 254,-395 240.53,-415.52 237.55,-432 213,-432"/>
<polygon fill="black" stroke="black" points="286.6,-276.26 295.07,-278.56 290.55,-275.63 294.5,-275 294.5,-275 294.5,-275 290.55,-275.63 293.93,-271.44 286.6,-276.26 286.6,-276.26"/>
<ellipse fill="none" stroke="black" cx="283.44" cy="-276.76" rx="3.2" ry="3.2"/>
</g>
<!-- m_office -->
<g id="node6" class="node">
<title>m_office</title>
<g id="a_node6"><a xlink:href="../../tables/m_office.html" xlink:title="m_office" target="_top">
<polygon fill="#ffffff" stroke="transparent" points="82,-326 82,-384 172,-384 172,-326 82,-326"/>
<polygon fill="#f5f5f5" stroke="transparent" points="82,-362 82,-384 172,-384 172,-362 82,-362"/>
<polygon fill="none" stroke="black" points="82,-362 82,-384 172,-384 172,-362 82,-362"/>
<text text-anchor="start" x="87" y="-371.2" font-family="Helvetica,sans-Serif" font-weight="bold" font-size="11.00">m_office</text>
<text text-anchor="start" x="137" y="-370.2" font-family="Helvetica,sans-Serif" font-size="11.00">[table]</text>
<polygon fill="none" stroke="black" points="82,-344 82,-362 172,-362 172,-344 82,-344"/>
<text text-anchor="start" x="85" y="-350.2" font-family="Helvetica,sans-Serif" font-size="11.00">...</text>
<polygon fill="#ffffff" stroke="transparent" points="82,-326 82,-344 104,-344 104,-326 82,-326"/>
<polygon fill="none" stroke="black" points="82,-326 82,-344 104,-344 104,-326 82,-326"/>
<text text-anchor="start" x="85" y="-332.2" font-family="Helvetica,sans-Serif" font-size="11.00">&lt; 1</text>
<polygon fill="#ffffff" stroke="transparent" points="104,-326 104,-344 143,-344 143,-326 104,-326"/>
<polygon fill="none" stroke="black" points="104,-326 104,-344 143,-344 143,-326 104,-326"/>
<text text-anchor="start" x="107" y="-332.2" font-family="Helvetica,sans-Serif" font-size="11.00">0 rows</text>
<polygon fill="#ffffff" stroke="transparent" points="143,-326 143,-344 172,-344 172,-326 143,-326"/>
<polygon fill="none" stroke="black" points="143,-326 143,-344 172,-344 172,-326 143,-326"/>
<text text-anchor="start" x="147" y="-332.2" font-family="Helvetica,sans-Serif" font-size="11.00">20 &gt;</text>
</a>
</g>
</g>
<!-- m_loanproduct_provisioning_entry&#45;&gt;m_office -->
<g id="edge6" class="edge">
<title>m_loanproduct_provisioning_entry:w&#45;&gt;m_office:e</title>
<path fill="none" stroke="black" d="M280.25,-234.41C260.56,-246.94 279.4,-291.01 254,-316 225.79,-343.76 212.58,-353 173,-353"/>
<polygon fill="black" stroke="black" points="286.72,-232.86 295.34,-234.5 290.61,-231.93 294.5,-231 294.5,-231 294.5,-231 290.61,-231.93 293.66,-227.5 286.72,-232.86 286.72,-232.86"/>
<ellipse fill="none" stroke="black" cx="283.61" cy="-233.61" rx="3.2" ry="3.2"/>
</g>
<!-- m_product_loan -->
<g id="node7" class="node">
<title>m_product_loan</title>
<g id="a_node7"><a xlink:href="../../tables/m_product_loan.html" xlink:title="m_product_loan" target="_top">
<polygon fill="#ffffff" stroke="transparent" points="62,-37 62,-95 192,-95 192,-37 62,-37"/>
<polygon fill="#f5f5f5" stroke="transparent" points="62,-73 62,-95 192,-95 192,-73 62,-73"/>
<polygon fill="none" stroke="black" points="62,-73 62,-95 192,-95 192,-73 62,-73"/>
<text text-anchor="start" x="67" y="-82.2" font-family="Helvetica,sans-Serif" font-weight="bold" font-size="11.00">m_product_loan</text>
<text text-anchor="start" x="157" y="-81.2" font-family="Helvetica,sans-Serif" font-size="11.00">[table]</text>
<polygon fill="none" stroke="black" points="62,-55 62,-73 192,-73 192,-55 62,-55"/>
<text text-anchor="start" x="65" y="-61.2" font-family="Helvetica,sans-Serif" font-size="11.00">...</text>
<polygon fill="#ffffff" stroke="transparent" points="62,-37 62,-55 104,-55 104,-37 62,-37"/>
<polygon fill="none" stroke="black" points="62,-37 62,-55 104,-55 104,-37 62,-37"/>
<text text-anchor="start" x="65" y="-43.2" font-family="Helvetica,sans-Serif" font-size="11.00">&lt; 2</text>
<polygon fill="#ffffff" stroke="transparent" points="104,-37 104,-55 153,-55 153,-37 104,-37"/>
<polygon fill="none" stroke="black" points="104,-37 104,-55 153,-55 153,-37 104,-37"/>
<text text-anchor="start" x="117" y="-43.2" font-family="Helvetica,sans-Serif" font-size="11.00">0 rows</text>
<polygon fill="#ffffff" stroke="transparent" points="153,-37 153,-55 192,-55 192,-37 153,-37"/>
<polygon fill="none" stroke="black" points="153,-37 153,-55 192,-55 192,-37 153,-37"/>
<text text-anchor="start" x="167" y="-43.2" font-family="Helvetica,sans-Serif" font-size="11.00">14 &gt;</text>
</a>
</g>
</g>
<!-- m_loanproduct_provisioning_entry&#45;&gt;m_product_loan -->
<g id="edge7" class="edge">
<title>m_loanproduct_provisioning_entry:w&#45;&gt;m_product_loan:e</title>
<path fill="none" stroke="black" d="M280.24,-206.32C253.8,-193.76 280.89,-139.85 254,-106 233.53,-80.22 225.92,-64 193,-64"/>
<polygon fill="black" stroke="black" points="286.64,-207.52 293.84,-212.54 290.57,-208.26 294.5,-209 294.5,-209 294.5,-209 290.57,-208.26 295.16,-205.46 286.64,-207.52 286.64,-207.52"/>
<ellipse fill="none" stroke="black" cx="283.49" cy="-206.93" rx="3.2" ry="3.2"/>
</g>
<!-- m_provisioning_criteria_definition -->
<g id="node8" class="node">
<title>m_provisioning_criteria_definition</title>
<g id="a_node8"><a xlink:href="../../tables/m_provisioning_criteria_definition.html" xlink:title="m_provisioning_criteria_definition" target="_top">
<polygon fill="#ffffff" stroke="transparent" points="297,-351 297,-519 546,-519 546,-351 297,-351"/>
<polygon fill="#f5f5f5" stroke="transparent" points="297.5,-497 297.5,-519 546.5,-519 546.5,-497 297.5,-497"/>
<polygon fill="none" stroke="black" points="297.5,-497 297.5,-519 546.5,-519 546.5,-497 297.5,-497"/>
<text text-anchor="start" x="302.5" y="-506.2" font-family="Helvetica,sans-Serif" font-weight="bold" font-size="11.00">m_provisioning_criteria_definition</text>
<text text-anchor="start" x="511.5" y="-505.2" font-family="Helvetica,sans-Serif" font-size="11.00">[table]</text>
<polygon fill="none" stroke="black" points="297.5,-475 297.5,-497 546.5,-497 546.5,-475 297.5,-475"/>
<image xlink:href="../../images/primaryKeys.png" width="11px" height="12px" preserveAspectRatio="xMinYMin meet" x="302.5" y="-492"/>
<text text-anchor="start" x="317.5" y="-483.2" font-family="Helvetica,sans-Serif" font-size="11.00">id</text>
<polygon fill="#ffffff" stroke="transparent" points="297.5,-453 297.5,-475 546.5,-475 546.5,-453 297.5,-453"/>
<polygon fill="none" stroke="black" points="297.5,-453 297.5,-475 546.5,-475 546.5,-453 297.5,-453"/>
<image xlink:href="../../images/foreignKeys.png" width="11px" height="12px" preserveAspectRatio="xMinYMin meet" x="302.5" y="-470"/>
<text text-anchor="start" x="317.5" y="-461.2" font-family="Helvetica,sans-Serif" font-size="11.00">criteria_id</text>
<polygon fill="#ffffff" stroke="transparent" points="297.5,-431 297.5,-453 546.5,-453 546.5,-431 297.5,-431"/>
<polygon fill="none" stroke="black" points="297.5,-431 297.5,-453 546.5,-453 546.5,-431 297.5,-431"/>
<image xlink:href="../../images/foreignKeys.png" width="11px" height="12px" preserveAspectRatio="xMinYMin meet" x="302.5" y="-448"/>
<text text-anchor="start" x="317.5" y="-439.2" font-family="Helvetica,sans-Serif" font-size="11.00">category_id</text>
<polygon fill="#ffffff" stroke="transparent" points="297.5,-409 297.5,-431 546.5,-431 546.5,-409 297.5,-409"/>
<polygon fill="none" stroke="black" points="297.5,-409 297.5,-431 546.5,-431 546.5,-409 297.5,-409"/>
<image xlink:href="../../images/foreignKeys.png" width="11px" height="12px" preserveAspectRatio="xMinYMin meet" x="302.5" y="-426"/>
<text text-anchor="start" x="317.5" y="-417.2" font-family="Helvetica,sans-Serif" font-size="11.00">liability_account</text>
<polygon fill="#ffffff" stroke="transparent" points="297.5,-387 297.5,-409 546.5,-409 546.5,-387 297.5,-387"/>
<polygon fill="none" stroke="black" points="297.5,-387 297.5,-409 546.5,-409 546.5,-387 297.5,-387"/>
<image xlink:href="../../images/foreignKeys.png" width="11px" height="12px" preserveAspectRatio="xMinYMin meet" x="302.5" y="-404"/>
<text text-anchor="start" x="317.5" y="-395.2" font-family="Helvetica,sans-Serif" font-size="11.00">expense_account</text>
<polygon fill="none" stroke="black" points="297.5,-369 297.5,-387 546.5,-387 546.5,-369 297.5,-369"/>
<text text-anchor="start" x="300.5" y="-375.2" font-family="Helvetica,sans-Serif" font-size="11.00">...</text>
<polygon fill="#ffffff" stroke="transparent" points="297.5,-351 297.5,-369 406.5,-369 406.5,-351 297.5,-351"/>
<polygon fill="none" stroke="black" points="297.5,-351 297.5,-369 406.5,-369 406.5,-351 297.5,-351"/>
<text text-anchor="start" x="300.5" y="-357.2" font-family="Helvetica,sans-Serif" font-size="11.00">&lt; 4</text>
<polygon fill="#ffffff" stroke="transparent" points="406.5,-351 406.5,-369 489.5,-369 489.5,-351 406.5,-351"/>
<polygon fill="none" stroke="black" points="406.5,-351 406.5,-369 489.5,-369 489.5,-351 406.5,-351"/>
<text text-anchor="start" x="453.5" y="-357.2" font-family="Helvetica,sans-Serif" font-size="11.00">0 rows</text>
<polygon fill="#ffffff" stroke="transparent" points="489.5,-351 489.5,-369 546.5,-369 546.5,-351 489.5,-351"/>
<polygon fill="none" stroke="black" points="489.5,-351 489.5,-369 546.5,-369 546.5,-351 489.5,-351"/>
<text text-anchor="start" x="536.5" y="-357.2" font-family="Helvetica,sans-Serif" font-size="11.00"> &#160;</text>
</a>
</g>
</g>
<!-- m_provisioning_criteria_definition&#45;&gt;m_provision_category -->
<g id="edge8" class="edge">
<title>m_provisioning_criteria_definition:w&#45;&gt;m_provision_category:e</title>
<path fill="none" stroke="black" d="M282,-439.44C231.34,-418.04 319.03,-270 245,-270"/>
<polygon fill="black" stroke="black" points="288.62,-440.61 295.87,-445.54 292.56,-441.3 296.5,-442 296.5,-442 296.5,-442 292.56,-441.3 297.13,-438.46 288.62,-440.61 288.62,-440.61"/>
<ellipse fill="none" stroke="black" cx="285.47" cy="-440.05" rx="3.2" ry="3.2"/>
</g>
<!-- m_provisioning_criteria_definition&#45;&gt;m_provisioning_criteria -->
<g id="edge9" class="edge">
<title>m_provisioning_criteria_definition:w&#45;&gt;m_provisioning_criteria:e</title>
<path fill="none" stroke="black" d="M282.05,-466.14C253.61,-475.34 250.1,-511 213,-511"/>
<polygon fill="black" stroke="black" points="288.59,-465.17 297.03,-467.56 292.54,-464.59 296.5,-464 296.5,-464 296.5,-464 292.54,-464.59 295.97,-460.44 288.59,-465.17 288.59,-465.17"/>
<ellipse fill="none" stroke="black" cx="285.42" cy="-465.64" rx="3.2" ry="3.2"/>
</g>
<!-- m_provisioning_criteria_definition&#45;&gt;acc_gl_account -->
<g id="edge10" class="edge">
<title>m_provisioning_criteria_definition:w&#45;&gt;acc_gl_account:e</title>
<path fill="none" stroke="black" d="M282,-396.76C211.65,-383.13 304.66,-260.68 254,-185 235.28,-157.03 224.65,-143 191,-143"/>
<polygon fill="black" stroke="black" points="288.53,-397.32 296.19,-401.59 292.51,-397.66 296.5,-398 296.5,-398 296.5,-398 292.51,-397.66 296.81,-394.41 288.53,-397.32 288.53,-397.32"/>
<ellipse fill="none" stroke="black" cx="285.34" cy="-397.04" rx="3.2" ry="3.2"/>
</g>
<!-- m_provisioning_criteria_definition&#45;&gt;acc_gl_account -->
<g id="edge11" class="edge">
<title>m_provisioning_criteria_definition:w&#45;&gt;acc_gl_account:e</title>
<path fill="none" stroke="black" d="M283.03,-414.45C250.78,-382.79 280.16,-224.86 254,-185 235.53,-156.87 224.65,-143 191,-143"/>
<polygon fill="black" stroke="black" points="289.1,-416.95 295.13,-423.33 292.8,-418.48 296.5,-420 296.5,-420 296.5,-420 292.8,-418.48 297.87,-416.67 289.1,-416.95 289.1,-416.95"/>
<ellipse fill="none" stroke="black" cx="286.14" cy="-415.74" rx="3.2" ry="3.2"/>
</g>
</g>
</svg>
