<?xml version="1.0" encoding="UTF-8" standalone="no"?>
<!DOCTYPE svg PUBLIC "-//W3C//DTD SVG 1.1//EN"
 "http://www.w3.org/Graphics/SVG/1.1/DTD/svg11.dtd">
<!-- Generated by graphviz version 2.43.0 (0)
 -->
<!-- Title: oneDegreeRelationshipsDiagram Pages: 1 -->
<svg width="862pt" height="599pt"
 viewBox="0.00 0.00 862.00 599.00" xmlns="http://www.w3.org/2000/svg" xmlns:xlink="http://www.w3.org/1999/xlink">
<g id="graph0" class="graph" transform="scale(1 1) rotate(0) translate(4 595)">
<title>oneDegreeRelationshipsDiagram</title>
<polygon fill="#ffffff" stroke="transparent" points="-4,4 -4,-595 858,-595 858,4 -4,4"/>
<text text-anchor="middle" x="71.5" y="-7.2" font-family="Helvetica,sans-Serif" font-size="11.00">Generated by SchemaSpy</text>
<!-- m_loanproduct_provisioning_entry -->
<g id="node1" class="node">
<title>m_loanproduct_provisioning_entry</title>
<g id="a_node1"><a xlink:href="../../tables/m_loanproduct_provisioning_entry.html" xlink:title="m_loanproduct_provisioning_entry" target="_top">
<polygon fill="#ffffff" stroke="transparent" points="581.5,-353 581.5,-587 834.5,-587 834.5,-353 581.5,-353"/>
<polygon fill="#f5f5f5" stroke="transparent" points="582,-565 582,-587 835,-587 835,-565 582,-565"/>
<polygon fill="none" stroke="black" points="582,-565 582,-587 835,-587 835,-565 582,-565"/>
<text text-anchor="start" x="587" y="-574.2" font-family="Helvetica,sans-Serif" font-weight="bold" font-size="11.00">m_loanproduct_provisioning_entry</text>
<text text-anchor="start" x="800" y="-573.2" font-family="Helvetica,sans-Serif" font-size="11.00">[table]</text>
<polygon fill="none" stroke="black" points="582,-543 582,-565 835,-565 835,-543 582,-543"/>
<image xlink:href="../../images/primaryKeys.png" width="11px" height="12px" preserveAspectRatio="xMinYMin meet" x="587" y="-560"/>
<text text-anchor="start" x="602" y="-551.2" font-family="Helvetica,sans-Serif" font-size="11.00">id</text>
<polygon fill="#ffffff" stroke="transparent" points="582,-521 582,-543 835,-543 835,-521 582,-521"/>
<polygon fill="none" stroke="black" points="582,-521 582,-543 835,-543 835,-521 582,-521"/>
<image xlink:href="../../images/foreignKeys.png" width="11px" height="12px" preserveAspectRatio="xMinYMin meet" x="587" y="-538"/>
<text text-anchor="start" x="602" y="-529.2" font-family="Helvetica,sans-Serif" font-size="11.00">history_id</text>
<polygon fill="#ffffff" stroke="transparent" points="582,-499 582,-521 835,-521 835,-499 582,-499"/>
<polygon fill="none" stroke="black" points="582,-499 582,-521 835,-521 835,-499 582,-499"/>
<image xlink:href="../../images/foreignKeys.png" width="11px" height="12px" preserveAspectRatio="xMinYMin meet" x="587" y="-516"/>
<text text-anchor="start" x="602" y="-507.2" font-family="Helvetica,sans-Serif" font-size="11.00">criteria_id</text>
<polygon fill="#ffffff" stroke="transparent" points="582,-477 582,-499 835,-499 835,-477 582,-477"/>
<polygon fill="none" stroke="black" points="582,-477 582,-499 835,-499 835,-477 582,-477"/>
<image xlink:href="../../images/foreignKeys.png" width="11px" height="12px" preserveAspectRatio="xMinYMin meet" x="587" y="-494"/>
<text text-anchor="start" x="602" y="-485.2" font-family="Helvetica,sans-Serif" font-size="11.00">office_id</text>
<polygon fill="#ffffff" stroke="transparent" points="582,-455 582,-477 835,-477 835,-455 582,-455"/>
<polygon fill="none" stroke="black" points="582,-455 582,-477 835,-477 835,-455 582,-455"/>
<image xlink:href="../../images/foreignKeys.png" width="11px" height="12px" preserveAspectRatio="xMinYMin meet" x="587" y="-472"/>
<text text-anchor="start" x="602" y="-463.2" font-family="Helvetica,sans-Serif" font-size="11.00">product_id</text>
<polygon fill="#ffffff" stroke="transparent" points="582,-433 582,-455 835,-455 835,-433 582,-433"/>
<polygon fill="none" stroke="black" points="582,-433 582,-455 835,-455 835,-433 582,-433"/>
<image xlink:href="../../images/foreignKeys.png" width="11px" height="12px" preserveAspectRatio="xMinYMin meet" x="587" y="-450"/>
<text text-anchor="start" x="602" y="-441.2" font-family="Helvetica,sans-Serif" font-size="11.00">category_id</text>
<polygon fill="#ffffff" stroke="transparent" points="582,-411 582,-433 835,-433 835,-411 582,-411"/>
<polygon fill="none" stroke="black" points="582,-411 582,-433 835,-433 835,-411 582,-411"/>
<image xlink:href="../../images/foreignKeys.png" width="11px" height="12px" preserveAspectRatio="xMinYMin meet" x="587" y="-428"/>
<text text-anchor="start" x="602" y="-419.2" font-family="Helvetica,sans-Serif" font-size="11.00">liability_account</text>
<polygon fill="#ffffff" stroke="transparent" points="582,-389 582,-411 835,-411 835,-389 582,-389"/>
<polygon fill="none" stroke="black" points="582,-389 582,-411 835,-411 835,-389 582,-389"/>
<image xlink:href="../../images/foreignKeys.png" width="11px" height="12px" preserveAspectRatio="xMinYMin meet" x="587" y="-406"/>
<text text-anchor="start" x="602" y="-397.2" font-family="Helvetica,sans-Serif" font-size="11.00">expense_account</text>
<polygon fill="none" stroke="black" points="582,-371 582,-389 835,-389 835,-371 582,-371"/>
<text text-anchor="start" x="585" y="-377.2" font-family="Helvetica,sans-Serif" font-size="11.00">...</text>
<polygon fill="#ffffff" stroke="transparent" points="582,-353 582,-371 693,-371 693,-353 582,-353"/>
<polygon fill="none" stroke="black" points="582,-353 582,-371 693,-371 693,-353 582,-353"/>
<text text-anchor="start" x="585" y="-359.2" font-family="Helvetica,sans-Serif" font-size="11.00">&lt; 7</text>
<polygon fill="#ffffff" stroke="transparent" points="693,-353 693,-371 777,-371 777,-353 693,-353"/>
<polygon fill="none" stroke="black" points="693,-353 693,-371 777,-371 777,-353 693,-353"/>
<text text-anchor="start" x="741" y="-359.2" font-family="Helvetica,sans-Serif" font-size="11.00">0 rows</text>
<polygon fill="#ffffff" stroke="transparent" points="777,-353 777,-371 835,-371 835,-353 777,-353"/>
<polygon fill="none" stroke="black" points="777,-353 777,-371 835,-371 835,-353 777,-353"/>
<text text-anchor="start" x="825" y="-359.2" font-family="Helvetica,sans-Serif" font-size="11.00"> &#160;</text>
</a>
</g>
</g>
<!-- m_provisioning_criteria -->
<g id="node2" class="node">
<title>m_provisioning_criteria</title>
<g id="a_node2"><a xlink:href="../../tables/m_provisioning_criteria.html" xlink:title="m_provisioning_criteria" target="_top">
<polygon fill="#ffffff" stroke="transparent" points="272,-114 272,-290 521,-290 521,-114 272,-114"/>
<polygon fill="#f5f5f5" stroke="transparent" points="274.5,-266 274.5,-288 519.5,-288 519.5,-266 274.5,-266"/>
<polygon fill="none" stroke="black" points="274.5,-266 274.5,-288 519.5,-288 519.5,-266 274.5,-266"/>
<text text-anchor="start" x="279.5" y="-275.2" font-family="Helvetica,sans-Serif" font-weight="bold" font-size="11.00">m_provisioning_criteria</text>
<text text-anchor="start" x="484.5" y="-274.2" font-family="Helvetica,sans-Serif" font-size="11.00">[table]</text>
<polygon fill="none" stroke="black" points="274.5,-244 274.5,-266 452.5,-266 452.5,-244 274.5,-244"/>
<image xlink:href="../../images/primaryKeys.png" width="11px" height="12px" preserveAspectRatio="xMinYMin meet" x="279.5" y="-261"/>
<text text-anchor="start" x="294.5" y="-252.2" font-family="Helvetica,sans-Serif" font-size="11.00">id</text>
<polygon fill="none" stroke="black" points="452.5,-244 452.5,-266 519.5,-266 519.5,-244 452.5,-244"/>
<text text-anchor="start" x="455.5" y="-252.2" font-family="Helvetica,sans-Serif" font-size="11.00">bigint[19]</text>
<polygon fill="#ffffff" stroke="transparent" points="274.5,-222 274.5,-244 452.5,-244 452.5,-222 274.5,-222"/>
<polygon fill="none" stroke="black" points="274.5,-222 274.5,-244 452.5,-244 452.5,-222 274.5,-222"/>
<text text-anchor="start" x="294.5" y="-230.2" font-family="Helvetica,sans-Serif" font-size="11.00">criteria_name</text>
<polygon fill="none" stroke="black" points="452.5,-222 452.5,-244 519.5,-244 519.5,-222 452.5,-222"/>
<text text-anchor="start" x="455.5" y="-230.2" font-family="Helvetica,sans-Serif" font-size="11.00">varchar[200]</text>
<polygon fill="#ffffff" stroke="transparent" points="274.5,-200 274.5,-222 452.5,-222 452.5,-200 274.5,-200"/>
<polygon fill="none" stroke="black" points="274.5,-200 274.5,-222 452.5,-222 452.5,-200 274.5,-200"/>
<image xlink:href="../../images/foreignKeys.png" width="11px" height="12px" preserveAspectRatio="xMinYMin meet" x="279.5" y="-217"/>
<text text-anchor="start" x="294.5" y="-208.2" font-family="Helvetica,sans-Serif" font-size="11.00">createdby_id</text>
<polygon fill="none" stroke="black" points="452.5,-200 452.5,-222 519.5,-222 519.5,-200 452.5,-200"/>
<text text-anchor="start" x="455.5" y="-208.2" font-family="Helvetica,sans-Serif" font-size="11.00">bigint[19]</text>
<polygon fill="none" stroke="black" points="274.5,-178 274.5,-200 452.5,-200 452.5,-178 274.5,-178"/>
<text text-anchor="start" x="294.5" y="-186.2" font-family="Helvetica,sans-Serif" font-size="11.00">created_date</text>
<polygon fill="none" stroke="black" points="452.5,-178 452.5,-200 519.5,-200 519.5,-178 452.5,-178"/>
<text text-anchor="start" x="455.5" y="-186.2" font-family="Helvetica,sans-Serif" font-size="11.00">datetime[19]</text>
<polygon fill="#ffffff" stroke="transparent" points="274.5,-156 274.5,-178 452.5,-178 452.5,-156 274.5,-156"/>
<polygon fill="none" stroke="black" points="274.5,-156 274.5,-178 452.5,-178 452.5,-156 274.5,-156"/>
<image xlink:href="../../images/foreignKeys.png" width="11px" height="12px" preserveAspectRatio="xMinYMin meet" x="279.5" y="-173"/>
<text text-anchor="start" x="294.5" y="-164.2" font-family="Helvetica,sans-Serif" font-size="11.00">lastmodifiedby_id</text>
<polygon fill="none" stroke="black" points="452.5,-156 452.5,-178 519.5,-178 519.5,-156 452.5,-156"/>
<text text-anchor="start" x="455.5" y="-164.2" font-family="Helvetica,sans-Serif" font-size="11.00">bigint[19]</text>
<polygon fill="none" stroke="black" points="274.5,-134 274.5,-156 452.5,-156 452.5,-134 274.5,-134"/>
<text text-anchor="start" x="294.5" y="-142.2" font-family="Helvetica,sans-Serif" font-size="11.00">lastmodified_date</text>
<polygon fill="none" stroke="black" points="452.5,-134 452.5,-156 519.5,-156 519.5,-134 452.5,-134"/>
<text text-anchor="start" x="455.5" y="-142.2" font-family="Helvetica,sans-Serif" font-size="11.00">datetime[19]</text>
<polygon fill="#ffffff" stroke="transparent" points="274.5,-116 274.5,-134 354.5,-134 354.5,-116 274.5,-116"/>
<polygon fill="none" stroke="black" points="274.5,-116 274.5,-134 354.5,-134 354.5,-116 274.5,-116"/>
<text text-anchor="start" x="277.5" y="-122.2" font-family="Helvetica,sans-Serif" font-size="11.00">&lt; 2</text>
<polygon fill="#ffffff" stroke="transparent" points="354.5,-116 354.5,-134 452.5,-134 452.5,-116 354.5,-116"/>
<polygon fill="none" stroke="black" points="354.5,-116 354.5,-134 452.5,-134 452.5,-116 354.5,-116"/>
<text text-anchor="start" x="416.5" y="-122.2" font-family="Helvetica,sans-Serif" font-size="11.00">0 rows</text>
<polygon fill="#ffffff" stroke="transparent" points="452.5,-116 452.5,-134 519.5,-134 519.5,-116 452.5,-116"/>
<polygon fill="none" stroke="black" points="452.5,-116 452.5,-134 519.5,-134 519.5,-116 452.5,-116"/>
<text text-anchor="start" x="500.5" y="-122.2" font-family="Helvetica,sans-Serif" font-size="11.00">3 &gt;</text>
<polygon fill="none" stroke="black" stroke-width="2" points="273,-115 273,-289 520,-289 520,-115 273,-115"/>
</a>
</g>
</g>
<!-- m_loanproduct_provisioning_entry&#45;&gt;m_provisioning_criteria -->
<g id="edge1" class="edge">
<title>m_loanproduct_provisioning_entry:w&#45;&gt;m_provisioning_criteria:e</title>
<path fill="none" stroke="black" d="M567.44,-503.7C532.25,-464.43 573.28,-255 520.5,-255"/>
<polygon fill="black" stroke="black" points="573.75,-506.63 579.48,-513.26 577.37,-508.31 581,-510 581,-510 581,-510 577.37,-508.31 582.52,-506.74 573.75,-506.63 573.75,-506.63"/>
<ellipse fill="none" stroke="black" cx="570.84" cy="-505.28" rx="3.2" ry="3.2"/>
</g>
<!-- m_appuser -->
<g id="node4" class="node">
<title>m_appuser</title>
<g id="a_node4"><a xlink:href="../../tables/m_appuser.html" xlink:title="m_appuser" target="_top">
<polygon fill="#ffffff" stroke="transparent" points="8,-54 8,-222 223,-222 223,-54 8,-54"/>
<polygon fill="#f5f5f5" stroke="transparent" points="8.5,-200 8.5,-222 223.5,-222 223.5,-200 8.5,-200"/>
<polygon fill="none" stroke="black" points="8.5,-200 8.5,-222 223.5,-222 223.5,-200 8.5,-200"/>
<text text-anchor="start" x="13.5" y="-209.2" font-family="Helvetica,sans-Serif" font-weight="bold" font-size="11.00">m_appuser</text>
<text text-anchor="start" x="188.5" y="-208.2" font-family="Helvetica,sans-Serif" font-size="11.00">[table]</text>
<polygon fill="none" stroke="black" points="8.5,-178 8.5,-200 223.5,-200 223.5,-178 8.5,-178"/>
<image xlink:href="../../images/primaryKeys.png" width="11px" height="12px" preserveAspectRatio="xMinYMin meet" x="13.5" y="-195"/>
<text text-anchor="start" x="28.5" y="-186.2" font-family="Helvetica,sans-Serif" font-size="11.00">id</text>
<polygon fill="#ffffff" stroke="transparent" points="8.5,-156 8.5,-178 223.5,-178 223.5,-156 8.5,-156"/>
<polygon fill="none" stroke="black" points="8.5,-156 8.5,-178 223.5,-178 223.5,-156 8.5,-156"/>
<image xlink:href="../../images/foreignKeys.png" width="11px" height="12px" preserveAspectRatio="xMinYMin meet" x="13.5" y="-173"/>
<text text-anchor="start" x="28.5" y="-164.2" font-family="Helvetica,sans-Serif" font-size="11.00">office_id</text>
<polygon fill="#ffffff" stroke="transparent" points="8.5,-134 8.5,-156 223.5,-156 223.5,-134 8.5,-134"/>
<polygon fill="none" stroke="black" points="8.5,-134 8.5,-156 223.5,-156 223.5,-134 8.5,-134"/>
<image xlink:href="../../images/foreignKeys.png" width="11px" height="12px" preserveAspectRatio="xMinYMin meet" x="13.5" y="-151"/>
<text text-anchor="start" x="28.5" y="-142.2" font-family="Helvetica,sans-Serif" font-size="11.00">staff_id</text>
<polygon fill="#ffffff" stroke="transparent" points="8.5,-112 8.5,-134 223.5,-134 223.5,-112 8.5,-112"/>
<polygon fill="none" stroke="black" points="8.5,-112 8.5,-134 223.5,-134 223.5,-112 8.5,-112"/>
<text text-anchor="start" x="28.5" y="-120.2" font-family="Helvetica,sans-Serif" font-size="11.00">username</text>
<polygon fill="#ffffff" stroke="transparent" points="8.5,-90 8.5,-112 223.5,-112 223.5,-90 8.5,-90"/>
<polygon fill="none" stroke="black" points="8.5,-90 8.5,-112 223.5,-112 223.5,-90 8.5,-90"/>
<text text-anchor="start" x="28.5" y="-98.2" font-family="Helvetica,sans-Serif" font-size="11.00">last_time_password_updated</text>
<polygon fill="none" stroke="black" points="8.5,-72 8.5,-90 223.5,-90 223.5,-72 8.5,-72"/>
<text text-anchor="start" x="11.5" y="-78.2" font-family="Helvetica,sans-Serif" font-size="11.00">...</text>
<polygon fill="#ffffff" stroke="transparent" points="8.5,-54 8.5,-72 93.5,-72 93.5,-54 8.5,-54"/>
<polygon fill="none" stroke="black" points="8.5,-54 8.5,-72 93.5,-72 93.5,-54 8.5,-54"/>
<text text-anchor="start" x="11.5" y="-60.2" font-family="Helvetica,sans-Serif" font-size="11.00">&lt; 2</text>
<polygon fill="#ffffff" stroke="transparent" points="93.5,-54 93.5,-72 163.5,-72 163.5,-54 93.5,-54"/>
<polygon fill="none" stroke="black" points="93.5,-54 93.5,-72 163.5,-72 163.5,-54 93.5,-54"/>
<text text-anchor="start" x="127.5" y="-60.2" font-family="Helvetica,sans-Serif" font-size="11.00">0 rows</text>
<polygon fill="#ffffff" stroke="transparent" points="163.5,-54 163.5,-72 223.5,-72 223.5,-54 163.5,-54"/>
<polygon fill="none" stroke="black" points="163.5,-54 163.5,-72 223.5,-72 223.5,-54 163.5,-54"/>
<text text-anchor="start" x="198.5" y="-60.2" font-family="Helvetica,sans-Serif" font-size="11.00">57 &gt;</text>
</a>
</g>
</g>
<!-- m_provisioning_criteria&#45;&gt;m_appuser -->
<g id="edge3" class="edge">
<title>m_provisioning_criteria:w&#45;&gt;m_appuser:e</title>
<path fill="none" stroke="black" d="M259.13,-207.56C247.59,-201.38 242.4,-189 224.5,-189"/>
<polygon fill="black" stroke="black" points="265.72,-209.14 272.66,-214.5 269.61,-210.07 273.5,-211 273.5,-211 273.5,-211 269.61,-210.07 274.34,-207.5 265.72,-209.14 265.72,-209.14"/>
<ellipse fill="none" stroke="black" cx="262.61" cy="-208.39" rx="3.2" ry="3.2"/>
</g>
<!-- m_provisioning_criteria&#45;&gt;m_appuser -->
<g id="edge4" class="edge">
<title>m_provisioning_criteria:w&#45;&gt;m_appuser:e</title>
<path fill="none" stroke="black" d="M259.13,-170.44C247.59,-176.62 242.4,-189 224.5,-189"/>
<polygon fill="black" stroke="black" points="265.72,-168.86 274.34,-170.5 269.61,-167.93 273.5,-167 273.5,-167 273.5,-167 269.61,-167.93 272.66,-163.5 265.72,-168.86 265.72,-168.86"/>
<ellipse fill="none" stroke="black" cx="262.61" cy="-169.61" rx="3.2" ry="3.2"/>
</g>
<!-- m_loanproduct_provisioning_mapping -->
<g id="node3" class="node">
<title>m_loanproduct_provisioning_mapping</title>
<g id="a_node3"><a xlink:href="../../tables/m_loanproduct_provisioning_mapping.html" xlink:title="m_loanproduct_provisioning_mapping" target="_top">
<polygon fill="#ffffff" stroke="transparent" points="570,-226 570,-332 846,-332 846,-226 570,-226"/>
<polygon fill="#f5f5f5" stroke="transparent" points="570,-310 570,-332 846,-332 846,-310 570,-310"/>
<polygon fill="none" stroke="black" points="570,-310 570,-332 846,-332 846,-310 570,-310"/>
<text text-anchor="start" x="575" y="-319.2" font-family="Helvetica,sans-Serif" font-weight="bold" font-size="11.00">m_loanproduct_provisioning_mapping</text>
<text text-anchor="start" x="811" y="-318.2" font-family="Helvetica,sans-Serif" font-size="11.00">[table]</text>
<polygon fill="none" stroke="black" points="570,-288 570,-310 846,-310 846,-288 570,-288"/>
<image xlink:href="../../images/primaryKeys.png" width="11px" height="12px" preserveAspectRatio="xMinYMin meet" x="575" y="-305"/>
<text text-anchor="start" x="590" y="-296.2" font-family="Helvetica,sans-Serif" font-size="11.00">id</text>
<polygon fill="#ffffff" stroke="transparent" points="570,-266 570,-288 846,-288 846,-266 570,-266"/>
<polygon fill="none" stroke="black" points="570,-266 570,-288 846,-288 846,-266 570,-266"/>
<image xlink:href="../../images/foreignKeys.png" width="11px" height="12px" preserveAspectRatio="xMinYMin meet" x="575" y="-283"/>
<text text-anchor="start" x="590" y="-274.2" font-family="Helvetica,sans-Serif" font-size="11.00">product_id</text>
<polygon fill="#ffffff" stroke="transparent" points="570,-244 570,-266 846,-266 846,-244 570,-244"/>
<polygon fill="none" stroke="black" points="570,-244 570,-266 846,-266 846,-244 570,-244"/>
<image xlink:href="../../images/foreignKeys.png" width="11px" height="12px" preserveAspectRatio="xMinYMin meet" x="575" y="-261"/>
<text text-anchor="start" x="590" y="-252.2" font-family="Helvetica,sans-Serif" font-size="11.00">criteria_id</text>
<polygon fill="#ffffff" stroke="transparent" points="570,-226 570,-244 693,-244 693,-226 570,-226"/>
<polygon fill="none" stroke="black" points="570,-226 570,-244 693,-244 693,-226 570,-226"/>
<text text-anchor="start" x="573" y="-232.2" font-family="Helvetica,sans-Serif" font-size="11.00">&lt; 2</text>
<polygon fill="#ffffff" stroke="transparent" points="693,-226 693,-244 782,-244 782,-226 693,-226"/>
<polygon fill="none" stroke="black" points="693,-226 693,-244 782,-244 782,-226 693,-226"/>
<text text-anchor="start" x="746" y="-232.2" font-family="Helvetica,sans-Serif" font-size="11.00">0 rows</text>
<polygon fill="#ffffff" stroke="transparent" points="782,-226 782,-244 846,-244 846,-226 782,-226"/>
<polygon fill="none" stroke="black" points="782,-226 782,-244 846,-244 846,-226 782,-226"/>
<text text-anchor="start" x="836" y="-232.2" font-family="Helvetica,sans-Serif" font-size="11.00"> &#160;</text>
</a>
</g>
</g>
<!-- m_loanproduct_provisioning_mapping&#45;&gt;m_provisioning_criteria -->
<g id="edge2" class="edge">
<title>m_loanproduct_provisioning_mapping:w&#45;&gt;m_provisioning_criteria:e</title>
<path fill="none" stroke="black" d="M554.28,-255C543.29,-255 536.16,-255 520.5,-255"/>
<polygon fill="black" stroke="black" points="561,-255 569,-258.6 565,-255 569,-255 569,-255 569,-255 565,-255 569,-251.4 561,-255 561,-255"/>
<ellipse fill="none" stroke="black" cx="557.8" cy="-255" rx="3.2" ry="3.2"/>
</g>
<!-- m_provisioning_criteria_definition -->
<g id="node5" class="node">
<title>m_provisioning_criteria_definition</title>
<g id="a_node5"><a xlink:href="../../tables/m_provisioning_criteria_definition.html" xlink:title="m_provisioning_criteria_definition" target="_top">
<polygon fill="#ffffff" stroke="transparent" points="583.5,-37 583.5,-205 832.5,-205 832.5,-37 583.5,-37"/>
<polygon fill="#f5f5f5" stroke="transparent" points="584,-183 584,-205 833,-205 833,-183 584,-183"/>
<polygon fill="none" stroke="black" points="584,-183 584,-205 833,-205 833,-183 584,-183"/>
<text text-anchor="start" x="589" y="-192.2" font-family="Helvetica,sans-Serif" font-weight="bold" font-size="11.00">m_provisioning_criteria_definition</text>
<text text-anchor="start" x="798" y="-191.2" font-family="Helvetica,sans-Serif" font-size="11.00">[table]</text>
<polygon fill="none" stroke="black" points="584,-161 584,-183 833,-183 833,-161 584,-161"/>
<image xlink:href="../../images/primaryKeys.png" width="11px" height="12px" preserveAspectRatio="xMinYMin meet" x="589" y="-178"/>
<text text-anchor="start" x="604" y="-169.2" font-family="Helvetica,sans-Serif" font-size="11.00">id</text>
<polygon fill="#ffffff" stroke="transparent" points="584,-139 584,-161 833,-161 833,-139 584,-139"/>
<polygon fill="none" stroke="black" points="584,-139 584,-161 833,-161 833,-139 584,-139"/>
<image xlink:href="../../images/foreignKeys.png" width="11px" height="12px" preserveAspectRatio="xMinYMin meet" x="589" y="-156"/>
<text text-anchor="start" x="604" y="-147.2" font-family="Helvetica,sans-Serif" font-size="11.00">criteria_id</text>
<polygon fill="#ffffff" stroke="transparent" points="584,-117 584,-139 833,-139 833,-117 584,-117"/>
<polygon fill="none" stroke="black" points="584,-117 584,-139 833,-139 833,-117 584,-117"/>
<image xlink:href="../../images/foreignKeys.png" width="11px" height="12px" preserveAspectRatio="xMinYMin meet" x="589" y="-134"/>
<text text-anchor="start" x="604" y="-125.2" font-family="Helvetica,sans-Serif" font-size="11.00">category_id</text>
<polygon fill="#ffffff" stroke="transparent" points="584,-95 584,-117 833,-117 833,-95 584,-95"/>
<polygon fill="none" stroke="black" points="584,-95 584,-117 833,-117 833,-95 584,-95"/>
<image xlink:href="../../images/foreignKeys.png" width="11px" height="12px" preserveAspectRatio="xMinYMin meet" x="589" y="-112"/>
<text text-anchor="start" x="604" y="-103.2" font-family="Helvetica,sans-Serif" font-size="11.00">liability_account</text>
<polygon fill="#ffffff" stroke="transparent" points="584,-73 584,-95 833,-95 833,-73 584,-73"/>
<polygon fill="none" stroke="black" points="584,-73 584,-95 833,-95 833,-73 584,-73"/>
<image xlink:href="../../images/foreignKeys.png" width="11px" height="12px" preserveAspectRatio="xMinYMin meet" x="589" y="-90"/>
<text text-anchor="start" x="604" y="-81.2" font-family="Helvetica,sans-Serif" font-size="11.00">expense_account</text>
<polygon fill="none" stroke="black" points="584,-55 584,-73 833,-73 833,-55 584,-55"/>
<text text-anchor="start" x="587" y="-61.2" font-family="Helvetica,sans-Serif" font-size="11.00">...</text>
<polygon fill="#ffffff" stroke="transparent" points="584,-37 584,-55 693,-55 693,-37 584,-37"/>
<polygon fill="none" stroke="black" points="584,-37 584,-55 693,-55 693,-37 584,-37"/>
<text text-anchor="start" x="587" y="-43.2" font-family="Helvetica,sans-Serif" font-size="11.00">&lt; 4</text>
<polygon fill="#ffffff" stroke="transparent" points="693,-37 693,-55 776,-55 776,-37 693,-37"/>
<polygon fill="none" stroke="black" points="693,-37 693,-55 776,-55 776,-37 693,-37"/>
<text text-anchor="start" x="740" y="-43.2" font-family="Helvetica,sans-Serif" font-size="11.00">0 rows</text>
<polygon fill="#ffffff" stroke="transparent" points="776,-37 776,-55 833,-55 833,-37 776,-37"/>
<polygon fill="none" stroke="black" points="776,-37 776,-55 833,-55 833,-37 776,-37"/>
<text text-anchor="start" x="823" y="-43.2" font-family="Helvetica,sans-Serif" font-size="11.00"> &#160;</text>
</a>
</g>
</g>
<!-- m_provisioning_criteria_definition&#45;&gt;m_provisioning_criteria -->
<g id="edge5" class="edge">
<title>m_provisioning_criteria_definition:w&#45;&gt;m_provisioning_criteria:e</title>
<path fill="none" stroke="black" d="M568.93,-153.26C537.3,-170.98 569.08,-255 520.5,-255"/>
<polygon fill="black" stroke="black" points="575.21,-151.8 583.81,-153.51 579.1,-150.9 583,-150 583,-150 583,-150 579.1,-150.9 582.19,-146.49 575.21,-151.8 575.21,-151.8"/>
<ellipse fill="none" stroke="black" cx="572.09" cy="-152.53" rx="3.2" ry="3.2"/>
</g>
</g>
</svg>
