<?xml version="1.0" encoding="UTF-8" standalone="no"?>
<!DOCTYPE svg PUBLIC "-//W3C//DTD SVG 1.1//EN"
 "http://www.w3.org/Graphics/SVG/1.1/DTD/svg11.dtd">
<!-- Generated by graphviz version 2.43.0 (0)
 -->
<!-- Title: oneDegreeRelationshipsDiagram Pages: 1 -->
<svg width="611pt" height="263pt"
 viewBox="0.00 0.00 611.00 263.00" xmlns="http://www.w3.org/2000/svg" xmlns:xlink="http://www.w3.org/1999/xlink">
<g id="graph0" class="graph" transform="scale(1 1) rotate(0) translate(4 259)">
<title>oneDegreeRelationshipsDiagram</title>
<polygon fill="#ffffff" stroke="transparent" points="-4,4 -4,-259 607,-259 607,4 -4,4"/>
<text text-anchor="middle" x="71.5" y="-7.2" font-family="Helvetica,sans-Serif" font-size="11.00">Generated by SchemaSpy</text>
<!-- m_report_mailing_job_run_history -->
<g id="node1" class="node">
<title>m_report_mailing_job_run_history</title>
<g id="a_node1"><a xlink:href="../../tables/m_report_mailing_job_run_history.html" xlink:title="m_report_mailing_job_run_history" target="_top">
<polygon fill="#ffffff" stroke="transparent" points="278,-53 278,-251 595,-251 595,-53 278,-53"/>
<polygon fill="#f5f5f5" stroke="transparent" points="280.5,-227 280.5,-249 593.5,-249 593.5,-227 280.5,-227"/>
<polygon fill="none" stroke="black" points="280.5,-227 280.5,-249 593.5,-249 593.5,-227 280.5,-227"/>
<text text-anchor="start" x="285.5" y="-236.2" font-family="Helvetica,sans-Serif" font-weight="bold" font-size="11.00">m_report_mailing_job_run_history</text>
<text text-anchor="start" x="558.5" y="-235.2" font-family="Helvetica,sans-Serif" font-size="11.00">[table]</text>
<polygon fill="none" stroke="black" points="280.5,-205 280.5,-227 527.5,-227 527.5,-205 280.5,-205"/>
<image xlink:href="../../images/primaryKeys.png" width="11px" height="12px" preserveAspectRatio="xMinYMin meet" x="285.5" y="-222"/>
<text text-anchor="start" x="300.5" y="-213.2" font-family="Helvetica,sans-Serif" font-size="11.00">id</text>
<polygon fill="none" stroke="black" points="527.5,-205 527.5,-227 593.5,-227 593.5,-205 527.5,-205"/>
<text text-anchor="start" x="530.5" y="-213.2" font-family="Helvetica,sans-Serif" font-size="11.00">bigint[19]</text>
<polygon fill="#ffffff" stroke="transparent" points="280.5,-183 280.5,-205 527.5,-205 527.5,-183 280.5,-183"/>
<polygon fill="none" stroke="black" points="280.5,-183 280.5,-205 527.5,-205 527.5,-183 280.5,-183"/>
<image xlink:href="../../images/foreignKeys.png" width="11px" height="12px" preserveAspectRatio="xMinYMin meet" x="285.5" y="-200"/>
<text text-anchor="start" x="300.5" y="-191.2" font-family="Helvetica,sans-Serif" font-size="11.00">job_id</text>
<polygon fill="none" stroke="black" points="527.5,-183 527.5,-205 593.5,-205 593.5,-183 527.5,-183"/>
<text text-anchor="start" x="530.5" y="-191.2" font-family="Helvetica,sans-Serif" font-size="11.00">bigint[19]</text>
<polygon fill="none" stroke="black" points="280.5,-161 280.5,-183 527.5,-183 527.5,-161 280.5,-161"/>
<text text-anchor="start" x="300.5" y="-169.2" font-family="Helvetica,sans-Serif" font-size="11.00">start_datetime</text>
<polygon fill="none" stroke="black" points="527.5,-161 527.5,-183 593.5,-183 593.5,-161 527.5,-161"/>
<text text-anchor="start" x="530.5" y="-169.2" font-family="Helvetica,sans-Serif" font-size="11.00">datetime[19]</text>
<polygon fill="none" stroke="black" points="280.5,-139 280.5,-161 527.5,-161 527.5,-139 280.5,-139"/>
<text text-anchor="start" x="300.5" y="-147.2" font-family="Helvetica,sans-Serif" font-size="11.00">end_datetime</text>
<polygon fill="none" stroke="black" points="527.5,-139 527.5,-161 593.5,-161 593.5,-139 527.5,-139"/>
<text text-anchor="start" x="530.5" y="-147.2" font-family="Helvetica,sans-Serif" font-size="11.00">datetime[19]</text>
<polygon fill="none" stroke="black" points="280.5,-117 280.5,-139 527.5,-139 527.5,-117 280.5,-117"/>
<text text-anchor="start" x="300.5" y="-125.2" font-family="Helvetica,sans-Serif" font-size="11.00">status</text>
<polygon fill="none" stroke="black" points="527.5,-117 527.5,-139 593.5,-139 593.5,-117 527.5,-117"/>
<text text-anchor="start" x="530.5" y="-125.2" font-family="Helvetica,sans-Serif" font-size="11.00">varchar[10]</text>
<polygon fill="none" stroke="black" points="280.5,-95 280.5,-117 527.5,-117 527.5,-95 280.5,-95"/>
<text text-anchor="start" x="300.5" y="-103.2" font-family="Helvetica,sans-Serif" font-size="11.00">error_message</text>
<polygon fill="none" stroke="black" points="527.5,-95 527.5,-117 593.5,-117 593.5,-95 527.5,-95"/>
<text text-anchor="start" x="530.5" y="-103.2" font-family="Helvetica,sans-Serif" font-size="11.00">text[65535]</text>
<polygon fill="none" stroke="black" points="280.5,-73 280.5,-95 527.5,-95 527.5,-73 280.5,-73"/>
<text text-anchor="start" x="300.5" y="-81.2" font-family="Helvetica,sans-Serif" font-size="11.00">error_log</text>
<polygon fill="none" stroke="black" points="527.5,-73 527.5,-95 593.5,-95 593.5,-73 527.5,-73"/>
<text text-anchor="start" x="530.5" y="-81.2" font-family="Helvetica,sans-Serif" font-size="11.00">text[65535]</text>
<polygon fill="#ffffff" stroke="transparent" points="280.5,-55 280.5,-73 395.5,-73 395.5,-55 280.5,-55"/>
<polygon fill="none" stroke="black" points="280.5,-55 280.5,-73 395.5,-73 395.5,-55 280.5,-55"/>
<text text-anchor="start" x="283.5" y="-61.2" font-family="Helvetica,sans-Serif" font-size="11.00">&lt; 1</text>
<polygon fill="#ffffff" stroke="transparent" points="395.5,-55 395.5,-73 527.5,-73 527.5,-55 395.5,-55"/>
<polygon fill="none" stroke="black" points="395.5,-55 395.5,-73 527.5,-73 527.5,-55 395.5,-55"/>
<text text-anchor="start" x="491.5" y="-61.2" font-family="Helvetica,sans-Serif" font-size="11.00">0 rows</text>
<polygon fill="#ffffff" stroke="transparent" points="527.5,-55 527.5,-73 593.5,-73 593.5,-55 527.5,-55"/>
<polygon fill="none" stroke="black" points="527.5,-55 527.5,-73 593.5,-73 593.5,-55 527.5,-55"/>
<text text-anchor="start" x="574.5" y="-61.2" font-family="Helvetica,sans-Serif" font-size="11.00">0 &gt;</text>
<polygon fill="none" stroke="black" stroke-width="2" points="279,-54 279,-250 594,-250 594,-54 279,-54"/>
</a>
</g>
</g>
<!-- m_report_mailing_job -->
<g id="node2" class="node">
<title>m_report_mailing_job</title>
<g id="a_node2"><a xlink:href="../../tables/m_report_mailing_job.html" xlink:title="m_report_mailing_job" target="_top">
<polygon fill="#ffffff" stroke="transparent" points="8,-37 8,-227 229,-227 229,-37 8,-37"/>
<polygon fill="#f5f5f5" stroke="transparent" points="8.5,-205 8.5,-227 229.5,-227 229.5,-205 8.5,-205"/>
<polygon fill="none" stroke="black" points="8.5,-205 8.5,-227 229.5,-227 229.5,-205 8.5,-205"/>
<text text-anchor="start" x="13.5" y="-214.2" font-family="Helvetica,sans-Serif" font-weight="bold" font-size="11.00">m_report_mailing_job</text>
<text text-anchor="start" x="194.5" y="-213.2" font-family="Helvetica,sans-Serif" font-size="11.00">[table]</text>
<polygon fill="none" stroke="black" points="8.5,-183 8.5,-205 229.5,-205 229.5,-183 8.5,-183"/>
<image xlink:href="../../images/primaryKeys.png" width="11px" height="12px" preserveAspectRatio="xMinYMin meet" x="13.5" y="-200"/>
<text text-anchor="start" x="28.5" y="-191.2" font-family="Helvetica,sans-Serif" font-size="11.00">id</text>
<polygon fill="#ffffff" stroke="transparent" points="8.5,-161 8.5,-183 229.5,-183 229.5,-161 8.5,-161"/>
<polygon fill="none" stroke="black" points="8.5,-161 8.5,-183 229.5,-183 229.5,-161 8.5,-161"/>
<text text-anchor="start" x="28.5" y="-169.2" font-family="Helvetica,sans-Serif" font-size="11.00">name</text>
<polygon fill="#ffffff" stroke="transparent" points="8.5,-139 8.5,-161 229.5,-161 229.5,-139 8.5,-139"/>
<polygon fill="none" stroke="black" points="8.5,-139 8.5,-161 229.5,-161 229.5,-139 8.5,-139"/>
<image xlink:href="../../images/foreignKeys.png" width="11px" height="12px" preserveAspectRatio="xMinYMin meet" x="13.5" y="-156"/>
<text text-anchor="start" x="28.5" y="-147.2" font-family="Helvetica,sans-Serif" font-size="11.00">createdby_id</text>
<polygon fill="#ffffff" stroke="transparent" points="8.5,-117 8.5,-139 229.5,-139 229.5,-117 8.5,-117"/>
<polygon fill="none" stroke="black" points="8.5,-117 8.5,-139 229.5,-139 229.5,-117 8.5,-117"/>
<image xlink:href="../../images/foreignKeys.png" width="11px" height="12px" preserveAspectRatio="xMinYMin meet" x="13.5" y="-134"/>
<text text-anchor="start" x="28.5" y="-125.2" font-family="Helvetica,sans-Serif" font-size="11.00">lastmodifiedby_id</text>
<polygon fill="#ffffff" stroke="transparent" points="8.5,-95 8.5,-117 229.5,-117 229.5,-95 8.5,-95"/>
<polygon fill="none" stroke="black" points="8.5,-95 8.5,-117 229.5,-117 229.5,-95 8.5,-95"/>
<image xlink:href="../../images/foreignKeys.png" width="11px" height="12px" preserveAspectRatio="xMinYMin meet" x="13.5" y="-112"/>
<text text-anchor="start" x="28.5" y="-103.2" font-family="Helvetica,sans-Serif" font-size="11.00">stretchy_report_id</text>
<polygon fill="#ffffff" stroke="transparent" points="8.5,-73 8.5,-95 229.5,-95 229.5,-73 8.5,-73"/>
<polygon fill="none" stroke="black" points="8.5,-73 8.5,-95 229.5,-95 229.5,-73 8.5,-73"/>
<image xlink:href="../../images/foreignKeys.png" width="11px" height="12px" preserveAspectRatio="xMinYMin meet" x="13.5" y="-90"/>
<text text-anchor="start" x="28.5" y="-81.2" font-family="Helvetica,sans-Serif" font-size="11.00">run_as_userid</text>
<polygon fill="none" stroke="black" points="8.5,-55 8.5,-73 229.5,-73 229.5,-55 8.5,-55"/>
<text text-anchor="start" x="11.5" y="-61.2" font-family="Helvetica,sans-Serif" font-size="11.00">...</text>
<polygon fill="#ffffff" stroke="transparent" points="8.5,-37 8.5,-55 99.5,-55 99.5,-37 8.5,-37"/>
<polygon fill="none" stroke="black" points="8.5,-37 8.5,-55 99.5,-55 99.5,-37 8.5,-37"/>
<text text-anchor="start" x="11.5" y="-43.2" font-family="Helvetica,sans-Serif" font-size="11.00">&lt; 4</text>
<polygon fill="#ffffff" stroke="transparent" points="99.5,-37 99.5,-55 172.5,-55 172.5,-37 99.5,-37"/>
<polygon fill="none" stroke="black" points="99.5,-37 99.5,-55 172.5,-55 172.5,-37 99.5,-37"/>
<text text-anchor="start" x="136.5" y="-43.2" font-family="Helvetica,sans-Serif" font-size="11.00">0 rows</text>
<polygon fill="#ffffff" stroke="transparent" points="172.5,-37 172.5,-55 229.5,-55 229.5,-37 172.5,-37"/>
<polygon fill="none" stroke="black" points="172.5,-37 172.5,-55 229.5,-55 229.5,-37 172.5,-37"/>
<text text-anchor="start" x="210.5" y="-43.2" font-family="Helvetica,sans-Serif" font-size="11.00">1 &gt;</text>
</a>
</g>
</g>
<!-- m_report_mailing_job_run_history&#45;&gt;m_report_mailing_job -->
<g id="edge1" class="edge">
<title>m_report_mailing_job_run_history:w&#45;&gt;m_report_mailing_job:e</title>
<path fill="none" stroke="black" d="M264.99,-194C253.68,-194 246.49,-194 230.5,-194"/>
<polygon fill="black" stroke="black" points="271.5,-194 279.5,-197.6 275.5,-194 279.5,-194 279.5,-194 279.5,-194 275.5,-194 279.5,-190.4 271.5,-194 271.5,-194"/>
<ellipse fill="none" stroke="black" cx="268.3" cy="-194" rx="3.2" ry="3.2"/>
</g>
</g>
</svg>
