<?xml version="1.0" encoding="UTF-8" standalone="no"?>
<!DOCTYPE svg PUBLIC "-//W3C//DTD SVG 1.1//EN"
 "http://www.w3.org/Graphics/SVG/1.1/DTD/svg11.dtd">
<!-- Generated by graphviz version 2.43.0 (0)
 -->
<!-- Title: oneDegreeRelationshipsDiagram Pages: 1 -->
<svg width="1071pt" height="592pt"
 viewBox="0.00 0.00 1071.00 592.00" xmlns="http://www.w3.org/2000/svg" xmlns:xlink="http://www.w3.org/1999/xlink">
<g id="graph0" class="graph" transform="scale(1 1) rotate(0) translate(4 588)">
<title>oneDegreeRelationshipsDiagram</title>
<polygon fill="#ffffff" stroke="transparent" points="-4,4 -4,-588 1067,-588 1067,4 -4,4"/>
<text text-anchor="middle" x="71.5" y="-7.2" font-family="Helvetica,sans-Serif" font-size="11.00">Generated by SchemaSpy</text>
<!-- m_loan_repayment_schedule -->
<g id="node1" class="node">
<title>m_loan_repayment_schedule</title>
<g id="a_node1"><a xlink:href="../../tables/m_loan_repayment_schedule.html" xlink:title="m_loan_repayment_schedule" target="_top">
<polygon fill="#ffffff" stroke="transparent" points="385,-371 385,-473 651,-473 651,-371 385,-371"/>
<polygon fill="#f5f5f5" stroke="transparent" points="385,-451 385,-473 651,-473 651,-451 385,-451"/>
<polygon fill="none" stroke="black" points="385,-451 385,-473 651,-473 651,-451 385,-451"/>
<text text-anchor="start" x="390" y="-460.2" font-family="Helvetica,sans-Serif" font-weight="bold" font-size="11.00">m_loan_repayment_schedule</text>
<text text-anchor="start" x="616" y="-459.2" font-family="Helvetica,sans-Serif" font-size="11.00">[table]</text>
<polygon fill="none" stroke="black" points="385,-429 385,-451 651,-451 651,-429 385,-429"/>
<image xlink:href="../../images/primaryKeys.png" width="11px" height="12px" preserveAspectRatio="xMinYMin meet" x="390" y="-446"/>
<text text-anchor="start" x="405" y="-437.2" font-family="Helvetica,sans-Serif" font-size="11.00">id</text>
<polygon fill="#ffffff" stroke="transparent" points="385,-407 385,-429 651,-429 651,-407 385,-407"/>
<polygon fill="none" stroke="black" points="385,-407 385,-429 651,-429 651,-407 385,-407"/>
<image xlink:href="../../images/foreignKeys.png" width="11px" height="12px" preserveAspectRatio="xMinYMin meet" x="390" y="-424"/>
<text text-anchor="start" x="405" y="-415.2" font-family="Helvetica,sans-Serif" font-size="11.00">loan_id</text>
<polygon fill="none" stroke="black" points="385,-389 385,-407 651,-407 651,-389 385,-389"/>
<text text-anchor="start" x="388" y="-395.2" font-family="Helvetica,sans-Serif" font-size="11.00">...</text>
<polygon fill="#ffffff" stroke="transparent" points="385,-371 385,-389 498,-389 498,-371 385,-371"/>
<polygon fill="none" stroke="black" points="385,-371 385,-389 498,-389 498,-371 385,-371"/>
<text text-anchor="start" x="388" y="-377.2" font-family="Helvetica,sans-Serif" font-size="11.00">&lt; 1</text>
<polygon fill="#ffffff" stroke="transparent" points="498,-371 498,-389 583,-389 583,-371 498,-371"/>
<polygon fill="none" stroke="black" points="498,-371 498,-389 583,-389 583,-371 498,-371"/>
<text text-anchor="start" x="547" y="-377.2" font-family="Helvetica,sans-Serif" font-size="11.00">0 rows</text>
<polygon fill="#ffffff" stroke="transparent" points="583,-371 583,-389 651,-389 651,-371 583,-371"/>
<polygon fill="none" stroke="black" points="583,-371 583,-389 651,-389 651,-371 583,-371"/>
<text text-anchor="start" x="632" y="-377.2" font-family="Helvetica,sans-Serif" font-size="11.00">5 &gt;</text>
</a>
</g>
</g>
<!-- m_loan -->
<g id="node2" class="node">
<title>m_loan</title>
<g id="a_node2"><a xlink:href="../../tables/m_loan.html" xlink:title="m_loan" target="_top">
<polygon fill="#ffffff" stroke="transparent" points="8,-37 8,-491 336,-491 336,-37 8,-37"/>
<polygon fill="#f5f5f5" stroke="transparent" points="8,-469 8,-491 336,-491 336,-469 8,-469"/>
<polygon fill="none" stroke="black" points="8,-469 8,-491 336,-491 336,-469 8,-469"/>
<text text-anchor="start" x="13" y="-478.2" font-family="Helvetica,sans-Serif" font-weight="bold" font-size="11.00">m_loan</text>
<text text-anchor="start" x="301" y="-477.2" font-family="Helvetica,sans-Serif" font-size="11.00">[table]</text>
<polygon fill="none" stroke="black" points="8,-447 8,-469 336,-469 336,-447 8,-447"/>
<image xlink:href="../../images/primaryKeys.png" width="11px" height="12px" preserveAspectRatio="xMinYMin meet" x="13" y="-464"/>
<text text-anchor="start" x="28" y="-455.2" font-family="Helvetica,sans-Serif" font-size="11.00">id</text>
<polygon fill="#ffffff" stroke="transparent" points="8,-425 8,-447 336,-447 336,-425 8,-425"/>
<polygon fill="none" stroke="black" points="8,-425 8,-447 336,-447 336,-425 8,-425"/>
<text text-anchor="start" x="28" y="-433.2" font-family="Helvetica,sans-Serif" font-size="11.00">account_no</text>
<polygon fill="#ffffff" stroke="transparent" points="8,-403 8,-425 336,-425 336,-403 8,-403"/>
<polygon fill="none" stroke="black" points="8,-403 8,-425 336,-425 336,-403 8,-403"/>
<text text-anchor="start" x="28" y="-411.2" font-family="Helvetica,sans-Serif" font-size="11.00">external_id</text>
<polygon fill="#ffffff" stroke="transparent" points="8,-381 8,-403 336,-403 336,-381 8,-381"/>
<polygon fill="none" stroke="black" points="8,-381 8,-403 336,-403 336,-381 8,-381"/>
<image xlink:href="../../images/foreignKeys.png" width="11px" height="12px" preserveAspectRatio="xMinYMin meet" x="13" y="-398"/>
<text text-anchor="start" x="28" y="-389.2" font-family="Helvetica,sans-Serif" font-size="11.00">client_id</text>
<polygon fill="#ffffff" stroke="transparent" points="8,-359 8,-381 336,-381 336,-359 8,-359"/>
<polygon fill="none" stroke="black" points="8,-359 8,-381 336,-381 336,-359 8,-359"/>
<image xlink:href="../../images/foreignKeys.png" width="11px" height="12px" preserveAspectRatio="xMinYMin meet" x="13" y="-376"/>
<text text-anchor="start" x="28" y="-367.2" font-family="Helvetica,sans-Serif" font-size="11.00">group_id</text>
<polygon fill="#ffffff" stroke="transparent" points="8,-337 8,-359 336,-359 336,-337 8,-337"/>
<polygon fill="none" stroke="black" points="8,-337 8,-359 336,-359 336,-337 8,-337"/>
<image xlink:href="../../images/foreignKeys.png" width="11px" height="12px" preserveAspectRatio="xMinYMin meet" x="13" y="-354"/>
<text text-anchor="start" x="28" y="-345.2" font-family="Helvetica,sans-Serif" font-size="11.00">glim_id</text>
<polygon fill="#ffffff" stroke="transparent" points="8,-315 8,-337 336,-337 336,-315 8,-315"/>
<polygon fill="none" stroke="black" points="8,-315 8,-337 336,-337 336,-315 8,-315"/>
<image xlink:href="../../images/foreignKeys.png" width="11px" height="12px" preserveAspectRatio="xMinYMin meet" x="13" y="-332"/>
<text text-anchor="start" x="28" y="-323.2" font-family="Helvetica,sans-Serif" font-size="11.00">product_id</text>
<polygon fill="#ffffff" stroke="transparent" points="8,-293 8,-315 336,-315 336,-293 8,-293"/>
<polygon fill="none" stroke="black" points="8,-293 8,-315 336,-315 336,-293 8,-293"/>
<image xlink:href="../../images/foreignKeys.png" width="11px" height="12px" preserveAspectRatio="xMinYMin meet" x="13" y="-310"/>
<text text-anchor="start" x="28" y="-301.2" font-family="Helvetica,sans-Serif" font-size="11.00">fund_id</text>
<polygon fill="#ffffff" stroke="transparent" points="8,-271 8,-293 336,-293 336,-271 8,-271"/>
<polygon fill="none" stroke="black" points="8,-271 8,-293 336,-293 336,-271 8,-271"/>
<image xlink:href="../../images/foreignKeys.png" width="11px" height="12px" preserveAspectRatio="xMinYMin meet" x="13" y="-288"/>
<text text-anchor="start" x="28" y="-279.2" font-family="Helvetica,sans-Serif" font-size="11.00">loan_officer_id</text>
<polygon fill="#ffffff" stroke="transparent" points="8,-249 8,-271 336,-271 336,-249 8,-249"/>
<polygon fill="none" stroke="black" points="8,-249 8,-271 336,-271 336,-249 8,-249"/>
<image xlink:href="../../images/foreignKeys.png" width="11px" height="12px" preserveAspectRatio="xMinYMin meet" x="13" y="-266"/>
<text text-anchor="start" x="28" y="-257.2" font-family="Helvetica,sans-Serif" font-size="11.00">loanpurpose_cv_id</text>
<polygon fill="#ffffff" stroke="transparent" points="8,-227 8,-249 336,-249 336,-227 8,-227"/>
<polygon fill="none" stroke="black" points="8,-227 8,-249 336,-249 336,-227 8,-227"/>
<image xlink:href="../../images/foreignKeys.png" width="11px" height="12px" preserveAspectRatio="xMinYMin meet" x="13" y="-244"/>
<text text-anchor="start" x="28" y="-235.2" font-family="Helvetica,sans-Serif" font-size="11.00">submittedon_userid</text>
<polygon fill="#ffffff" stroke="transparent" points="8,-205 8,-227 336,-227 336,-205 8,-205"/>
<polygon fill="none" stroke="black" points="8,-205 8,-227 336,-227 336,-205 8,-205"/>
<image xlink:href="../../images/foreignKeys.png" width="11px" height="12px" preserveAspectRatio="xMinYMin meet" x="13" y="-222"/>
<text text-anchor="start" x="28" y="-213.2" font-family="Helvetica,sans-Serif" font-size="11.00">approvedon_userid</text>
<polygon fill="#ffffff" stroke="transparent" points="8,-183 8,-205 336,-205 336,-183 8,-183"/>
<polygon fill="none" stroke="black" points="8,-183 8,-205 336,-205 336,-183 8,-183"/>
<image xlink:href="../../images/foreignKeys.png" width="11px" height="12px" preserveAspectRatio="xMinYMin meet" x="13" y="-200"/>
<text text-anchor="start" x="28" y="-191.2" font-family="Helvetica,sans-Serif" font-size="11.00">disbursedon_userid</text>
<polygon fill="#ffffff" stroke="transparent" points="8,-161 8,-183 336,-183 336,-161 8,-161"/>
<polygon fill="none" stroke="black" points="8,-161 8,-183 336,-183 336,-161 8,-161"/>
<image xlink:href="../../images/foreignKeys.png" width="11px" height="12px" preserveAspectRatio="xMinYMin meet" x="13" y="-178"/>
<text text-anchor="start" x="28" y="-169.2" font-family="Helvetica,sans-Serif" font-size="11.00">closedon_userid</text>
<polygon fill="#ffffff" stroke="transparent" points="8,-139 8,-161 336,-161 336,-139 8,-139"/>
<polygon fill="none" stroke="black" points="8,-139 8,-161 336,-161 336,-139 8,-139"/>
<image xlink:href="../../images/foreignKeys.png" width="11px" height="12px" preserveAspectRatio="xMinYMin meet" x="13" y="-156"/>
<text text-anchor="start" x="28" y="-147.2" font-family="Helvetica,sans-Serif" font-size="11.00">rejectedon_userid</text>
<polygon fill="#ffffff" stroke="transparent" points="8,-117 8,-139 336,-139 336,-117 8,-117"/>
<polygon fill="none" stroke="black" points="8,-117 8,-139 336,-139 336,-117 8,-117"/>
<image xlink:href="../../images/foreignKeys.png" width="11px" height="12px" preserveAspectRatio="xMinYMin meet" x="13" y="-134"/>
<text text-anchor="start" x="28" y="-125.2" font-family="Helvetica,sans-Serif" font-size="11.00">withdrawnon_userid</text>
<polygon fill="#ffffff" stroke="transparent" points="8,-95 8,-117 336,-117 336,-95 8,-95"/>
<polygon fill="none" stroke="black" points="8,-95 8,-117 336,-117 336,-95 8,-95"/>
<image xlink:href="../../images/foreignKeys.png" width="11px" height="12px" preserveAspectRatio="xMinYMin meet" x="13" y="-112"/>
<text text-anchor="start" x="28" y="-103.2" font-family="Helvetica,sans-Serif" font-size="11.00">loan_transaction_strategy_id</text>
<polygon fill="#ffffff" stroke="transparent" points="8,-73 8,-95 336,-95 336,-73 8,-73"/>
<polygon fill="none" stroke="black" points="8,-73 8,-95 336,-95 336,-73 8,-73"/>
<image xlink:href="../../images/foreignKeys.png" width="11px" height="12px" preserveAspectRatio="xMinYMin meet" x="13" y="-90"/>
<text text-anchor="start" x="28" y="-81.2" font-family="Helvetica,sans-Serif" font-size="11.00">writeoff_reason_cv_id</text>
<polygon fill="none" stroke="black" points="8,-55 8,-73 336,-73 336,-55 8,-55"/>
<text text-anchor="start" x="11" y="-61.2" font-family="Helvetica,sans-Serif" font-size="11.00">...</text>
<polygon fill="#ffffff" stroke="transparent" points="8,-37 8,-55 152,-55 152,-37 8,-37"/>
<polygon fill="none" stroke="black" points="8,-37 8,-55 152,-55 152,-37 8,-37"/>
<text text-anchor="start" x="11" y="-43.2" font-family="Helvetica,sans-Serif" font-size="11.00">&lt; 15</text>
<polygon fill="#ffffff" stroke="transparent" points="152,-37 152,-55 249,-55 249,-37 152,-37"/>
<polygon fill="none" stroke="black" points="152,-37 152,-55 249,-55 249,-37 152,-37"/>
<text text-anchor="start" x="213" y="-43.2" font-family="Helvetica,sans-Serif" font-size="11.00">0 rows</text>
<polygon fill="#ffffff" stroke="transparent" points="249,-37 249,-55 336,-55 336,-37 249,-37"/>
<polygon fill="none" stroke="black" points="249,-37 249,-55 336,-55 336,-37 249,-37"/>
<text text-anchor="start" x="311" y="-43.2" font-family="Helvetica,sans-Serif" font-size="11.00">24 &gt;</text>
</a>
</g>
</g>
<!-- m_loan_repayment_schedule&#45;&gt;m_loan -->
<g id="edge1" class="edge">
<title>m_loan_repayment_schedule:w&#45;&gt;m_loan:e</title>
<path fill="none" stroke="black" d="M370.33,-422.9C358.32,-433.59 358.43,-458 337,-458"/>
<polygon fill="black" stroke="black" points="376.47,-420.7 385.22,-421.39 380.23,-419.35 384,-418 384,-418 384,-418 380.23,-419.35 382.78,-414.61 376.47,-420.7 376.47,-420.7"/>
<ellipse fill="none" stroke="black" cx="373.46" cy="-421.78" rx="3.2" ry="3.2"/>
</g>
<!-- m_repayment_with_post_dated_checks -->
<g id="node3" class="node">
<title>m_repayment_with_post_dated_checks</title>
<g id="a_node3"><a xlink:href="../../tables/m_repayment_with_post_dated_checks.html" xlink:title="m_repayment_with_post_dated_checks" target="_top">
<polygon fill="#ffffff" stroke="transparent" points="700,-338 700,-580 1055,-580 1055,-338 700,-338"/>
<polygon fill="#f5f5f5" stroke="transparent" points="702.5,-556 702.5,-578 1053.5,-578 1053.5,-556 702.5,-556"/>
<polygon fill="none" stroke="black" points="702.5,-556 702.5,-578 1053.5,-578 1053.5,-556 702.5,-556"/>
<text text-anchor="start" x="707.5" y="-565.2" font-family="Helvetica,sans-Serif" font-weight="bold" font-size="11.00">m_repayment_with_post_dated_checks</text>
<text text-anchor="start" x="1018.5" y="-564.2" font-family="Helvetica,sans-Serif" font-size="11.00">[table]</text>
<polygon fill="none" stroke="black" points="702.5,-534 702.5,-556 983.5,-556 983.5,-534 702.5,-534"/>
<image xlink:href="../../images/primaryKeys.png" width="11px" height="12px" preserveAspectRatio="xMinYMin meet" x="707.5" y="-551"/>
<text text-anchor="start" x="722.5" y="-542.2" font-family="Helvetica,sans-Serif" font-size="11.00">id</text>
<polygon fill="none" stroke="black" points="983.5,-534 983.5,-556 1053.5,-556 1053.5,-534 983.5,-534"/>
<text text-anchor="start" x="986.5" y="-542.2" font-family="Helvetica,sans-Serif" font-size="11.00">bigint[19]</text>
<polygon fill="#ffffff" stroke="transparent" points="702.5,-512 702.5,-534 983.5,-534 983.5,-512 702.5,-512"/>
<polygon fill="none" stroke="black" points="702.5,-512 702.5,-534 983.5,-534 983.5,-512 702.5,-512"/>
<text text-anchor="start" x="722.5" y="-520.2" font-family="Helvetica,sans-Serif" font-size="11.00">check_no</text>
<polygon fill="none" stroke="black" points="983.5,-512 983.5,-534 1053.5,-534 1053.5,-512 983.5,-512"/>
<text text-anchor="start" x="986.5" y="-520.2" font-family="Helvetica,sans-Serif" font-size="11.00">bigint[19]</text>
<polygon fill="none" stroke="black" points="702.5,-490 702.5,-512 983.5,-512 983.5,-490 702.5,-490"/>
<text text-anchor="start" x="722.5" y="-498.2" font-family="Helvetica,sans-Serif" font-size="11.00">amount</text>
<polygon fill="none" stroke="black" points="983.5,-490 983.5,-512 1053.5,-512 1053.5,-490 983.5,-490"/>
<text text-anchor="start" x="986.5" y="-498.2" font-family="Helvetica,sans-Serif" font-size="11.00">decimal[20,5]</text>
<polygon fill="#ffffff" stroke="transparent" points="702.5,-468 702.5,-490 983.5,-490 983.5,-468 702.5,-468"/>
<polygon fill="none" stroke="black" points="702.5,-468 702.5,-490 983.5,-490 983.5,-468 702.5,-468"/>
<image xlink:href="../../images/foreignKeys.png" width="11px" height="12px" preserveAspectRatio="xMinYMin meet" x="707.5" y="-485"/>
<text text-anchor="start" x="722.5" y="-476.2" font-family="Helvetica,sans-Serif" font-size="11.00">loan_id</text>
<polygon fill="none" stroke="black" points="983.5,-468 983.5,-490 1053.5,-490 1053.5,-468 983.5,-468"/>
<text text-anchor="start" x="986.5" y="-476.2" font-family="Helvetica,sans-Serif" font-size="11.00">bigint[19]</text>
<polygon fill="#ffffff" stroke="transparent" points="702.5,-446 702.5,-468 983.5,-468 983.5,-446 702.5,-446"/>
<polygon fill="none" stroke="black" points="702.5,-446 702.5,-468 983.5,-468 983.5,-446 702.5,-446"/>
<image xlink:href="../../images/foreignKeys.png" width="11px" height="12px" preserveAspectRatio="xMinYMin meet" x="707.5" y="-463"/>
<text text-anchor="start" x="722.5" y="-454.2" font-family="Helvetica,sans-Serif" font-size="11.00">repayment_id</text>
<polygon fill="none" stroke="black" points="983.5,-446 983.5,-468 1053.5,-468 1053.5,-446 983.5,-446"/>
<text text-anchor="start" x="986.5" y="-454.2" font-family="Helvetica,sans-Serif" font-size="11.00">bigint[19]</text>
<polygon fill="none" stroke="black" points="702.5,-424 702.5,-446 983.5,-446 983.5,-424 702.5,-424"/>
<text text-anchor="start" x="722.5" y="-432.2" font-family="Helvetica,sans-Serif" font-size="11.00">account_no</text>
<polygon fill="none" stroke="black" points="983.5,-424 983.5,-446 1053.5,-446 1053.5,-424 983.5,-424"/>
<text text-anchor="start" x="986.5" y="-432.2" font-family="Helvetica,sans-Serif" font-size="11.00">bigint[19]</text>
<polygon fill="none" stroke="black" points="702.5,-402 702.5,-424 983.5,-424 983.5,-402 702.5,-402"/>
<text text-anchor="start" x="722.5" y="-410.2" font-family="Helvetica,sans-Serif" font-size="11.00">bank_name</text>
<polygon fill="none" stroke="black" points="983.5,-402 983.5,-424 1053.5,-424 1053.5,-402 983.5,-402"/>
<text text-anchor="start" x="986.5" y="-410.2" font-family="Helvetica,sans-Serif" font-size="11.00">varchar[200]</text>
<polygon fill="none" stroke="black" points="702.5,-380 702.5,-402 983.5,-402 983.5,-380 702.5,-380"/>
<text text-anchor="start" x="722.5" y="-388.2" font-family="Helvetica,sans-Serif" font-size="11.00">repayment_date</text>
<polygon fill="none" stroke="black" points="983.5,-380 983.5,-402 1053.5,-402 1053.5,-380 983.5,-380"/>
<text text-anchor="start" x="986.5" y="-388.2" font-family="Helvetica,sans-Serif" font-size="11.00">date[10]</text>
<polygon fill="none" stroke="black" points="702.5,-358 702.5,-380 983.5,-380 983.5,-358 702.5,-358"/>
<text text-anchor="start" x="722.5" y="-366.2" font-family="Helvetica,sans-Serif" font-size="11.00">status</text>
<polygon fill="none" stroke="black" points="983.5,-358 983.5,-380 1053.5,-380 1053.5,-358 983.5,-358"/>
<text text-anchor="start" x="986.5" y="-366.2" font-family="Helvetica,sans-Serif" font-size="11.00">smallint[5]</text>
<polygon fill="#ffffff" stroke="transparent" points="702.5,-340 702.5,-358 834.5,-358 834.5,-340 702.5,-340"/>
<polygon fill="none" stroke="black" points="702.5,-340 702.5,-358 834.5,-358 834.5,-340 702.5,-340"/>
<text text-anchor="start" x="705.5" y="-346.2" font-family="Helvetica,sans-Serif" font-size="11.00">&lt; 2</text>
<polygon fill="#ffffff" stroke="transparent" points="834.5,-340 834.5,-358 983.5,-358 983.5,-340 834.5,-340"/>
<polygon fill="none" stroke="black" points="834.5,-340 834.5,-358 983.5,-358 983.5,-340 834.5,-340"/>
<text text-anchor="start" x="947.5" y="-346.2" font-family="Helvetica,sans-Serif" font-size="11.00">0 rows</text>
<polygon fill="#ffffff" stroke="transparent" points="983.5,-340 983.5,-358 1053.5,-358 1053.5,-340 983.5,-340"/>
<polygon fill="none" stroke="black" points="983.5,-340 983.5,-358 1053.5,-358 1053.5,-340 983.5,-340"/>
<text text-anchor="start" x="1034.5" y="-346.2" font-family="Helvetica,sans-Serif" font-size="11.00">0 &gt;</text>
<polygon fill="none" stroke="black" stroke-width="2" points="701,-339 701,-579 1054,-579 1054,-339 701,-339"/>
</a>
</g>
</g>
<!-- m_repayment_with_post_dated_checks&#45;&gt;m_loan_repayment_schedule -->
<g id="edge3" class="edge">
<title>m_repayment_with_post_dated_checks:w&#45;&gt;m_loan_repayment_schedule:e</title>
<path fill="none" stroke="black" d="M687.22,-454.34C675.48,-449.56 669.45,-440 652,-440"/>
<polygon fill="black" stroke="black" points="693.63,-455.54 700.84,-460.54 697.57,-456.27 701.5,-457 701.5,-457 701.5,-457 697.57,-456.27 702.16,-453.46 693.63,-455.54 693.63,-455.54"/>
<ellipse fill="none" stroke="black" cx="690.49" cy="-454.95" rx="3.2" ry="3.2"/>
</g>
<!-- m_repayment_with_post_dated_checks&#45;&gt;m_loan -->
<g id="edge2" class="edge">
<title>m_repayment_with_post_dated_checks:w&#45;&gt;m_loan:e</title>
<path fill="none" stroke="black" d="M687.04,-479.94C678.26,-481.16 672.05,-483.23 659,-484 533.88,-491.33 497.16,-519.62 377,-484 356.67,-477.97 358.2,-458 337,-458"/>
<polygon fill="black" stroke="black" points="693.52,-479.52 701.73,-482.59 697.51,-479.26 701.5,-479 701.5,-479 701.5,-479 697.51,-479.26 701.27,-475.41 693.52,-479.52 693.52,-479.52"/>
<ellipse fill="none" stroke="black" cx="690.32" cy="-479.72" rx="3.2" ry="3.2"/>
</g>
</g>
</svg>
