<?xml version="1.0" encoding="UTF-8" standalone="no"?>
<!DOCTYPE svg PUBLIC "-//W3C//DTD SVG 1.1//EN"
 "http://www.w3.org/Graphics/SVG/1.1/DTD/svg11.dtd">
<!-- Generated by graphviz version 2.43.0 (0)
 -->
<!-- Title: oneDegreeRelationshipsDiagram Pages: 1 -->
<svg width="387pt" height="243pt"
 viewBox="0.00 0.00 387.00 243.00" xmlns="http://www.w3.org/2000/svg" xmlns:xlink="http://www.w3.org/1999/xlink">
<g id="graph0" class="graph" transform="scale(1 1) rotate(0) translate(4 239)">
<title>oneDegreeRelationshipsDiagram</title>
<polygon fill="#ffffff" stroke="transparent" points="-4,4 -4,-239 383,-239 383,4 -4,4"/>
<text text-anchor="middle" x="71.5" y="-7.2" font-family="Helvetica,sans-Serif" font-size="11.00">Generated by SchemaSpy</text>
<!-- m_appuser_role -->
<g id="node1" class="node">
<title>m_appuser_role</title>
<g id="a_node1"><a xlink:href="../../tables/m_appuser_role.html" xlink:title="m_appuser_role" target="_top">
<polygon fill="#ffffff" stroke="transparent" points="233.5,-147 233.5,-231 362.5,-231 362.5,-147 233.5,-147"/>
<polygon fill="#f5f5f5" stroke="transparent" points="234,-209 234,-231 363,-231 363,-209 234,-209"/>
<polygon fill="none" stroke="black" points="234,-209 234,-231 363,-231 363,-209 234,-209"/>
<text text-anchor="start" x="239" y="-218.2" font-family="Helvetica,sans-Serif" font-weight="bold" font-size="11.00">m_appuser_role</text>
<text text-anchor="start" x="328" y="-217.2" font-family="Helvetica,sans-Serif" font-size="11.00">[table]</text>
<polygon fill="none" stroke="black" points="234,-187 234,-209 363,-209 363,-187 234,-187"/>
<image xlink:href="../../images/primaryKeys.png" width="11px" height="12px" preserveAspectRatio="xMinYMin meet" x="239" y="-204"/>
<text text-anchor="start" x="256" y="-195.2" font-family="Helvetica,sans-Serif" font-size="11.00">appuser_id</text>
<polygon fill="none" stroke="black" points="234,-165 234,-187 363,-187 363,-165 234,-165"/>
<image xlink:href="../../images/primaryKeys.png" width="11px" height="12px" preserveAspectRatio="xMinYMin meet" x="239" y="-182"/>
<text text-anchor="start" x="256" y="-173.2" font-family="Helvetica,sans-Serif" font-size="11.00">role_id</text>
<polygon fill="#ffffff" stroke="transparent" points="234,-147 234,-165 283,-165 283,-147 234,-147"/>
<polygon fill="none" stroke="black" points="234,-147 234,-165 283,-165 283,-147 234,-147"/>
<text text-anchor="start" x="237" y="-153.2" font-family="Helvetica,sans-Serif" font-size="11.00">&lt; 2</text>
<polygon fill="#ffffff" stroke="transparent" points="283,-147 283,-165 336,-165 336,-147 283,-147"/>
<polygon fill="none" stroke="black" points="283,-147 283,-165 336,-165 336,-147 283,-147"/>
<text text-anchor="start" x="300" y="-153.2" font-family="Helvetica,sans-Serif" font-size="11.00">0 rows</text>
<polygon fill="#ffffff" stroke="transparent" points="336,-147 336,-165 363,-165 363,-147 336,-147"/>
<polygon fill="none" stroke="black" points="336,-147 336,-165 363,-165 363,-147 336,-147"/>
<text text-anchor="start" x="353" y="-153.2" font-family="Helvetica,sans-Serif" font-size="11.00"> &#160;</text>
</a>
</g>
</g>
<!-- m_role -->
<g id="node2" class="node">
<title>m_role</title>
<g id="a_node2"><a xlink:href="../../tables/m_role.html" xlink:title="m_role" target="_top">
<polygon fill="#ffffff" stroke="transparent" points="8,-37 8,-169 176,-169 176,-37 8,-37"/>
<polygon fill="#f5f5f5" stroke="transparent" points="10,-145 10,-167 174,-167 174,-145 10,-145"/>
<polygon fill="none" stroke="black" points="10,-145 10,-167 174,-167 174,-145 10,-145"/>
<text text-anchor="start" x="15" y="-154.2" font-family="Helvetica,sans-Serif" font-weight="bold" font-size="11.00">m_role</text>
<text text-anchor="start" x="139" y="-153.2" font-family="Helvetica,sans-Serif" font-size="11.00">[table]</text>
<polygon fill="none" stroke="black" points="10,-123 10,-145 107,-145 107,-123 10,-123"/>
<image xlink:href="../../images/primaryKeys.png" width="11px" height="12px" preserveAspectRatio="xMinYMin meet" x="15" y="-140"/>
<text text-anchor="start" x="30" y="-131.2" font-family="Helvetica,sans-Serif" font-size="11.00">id</text>
<polygon fill="none" stroke="black" points="107,-123 107,-145 174,-145 174,-123 107,-123"/>
<text text-anchor="start" x="110" y="-131.2" font-family="Helvetica,sans-Serif" font-size="11.00">bigint[19]</text>
<polygon fill="#ffffff" stroke="transparent" points="10,-101 10,-123 107,-123 107,-101 10,-101"/>
<polygon fill="none" stroke="black" points="10,-101 10,-123 107,-123 107,-101 10,-101"/>
<text text-anchor="start" x="30" y="-109.2" font-family="Helvetica,sans-Serif" font-size="11.00">name</text>
<polygon fill="none" stroke="black" points="107,-101 107,-123 174,-123 174,-101 107,-101"/>
<text text-anchor="start" x="110" y="-109.2" font-family="Helvetica,sans-Serif" font-size="11.00">varchar[100]</text>
<polygon fill="none" stroke="black" points="10,-79 10,-101 107,-101 107,-79 10,-79"/>
<text text-anchor="start" x="30" y="-87.2" font-family="Helvetica,sans-Serif" font-size="11.00">description</text>
<polygon fill="none" stroke="black" points="107,-79 107,-101 174,-101 174,-79 107,-79"/>
<text text-anchor="start" x="110" y="-87.2" font-family="Helvetica,sans-Serif" font-size="11.00">varchar[500]</text>
<polygon fill="none" stroke="black" points="10,-57 10,-79 107,-79 107,-57 10,-57"/>
<text text-anchor="start" x="30" y="-65.2" font-family="Helvetica,sans-Serif" font-size="11.00">is_disabled</text>
<polygon fill="none" stroke="black" points="107,-57 107,-79 174,-79 174,-57 107,-57"/>
<text text-anchor="start" x="110" y="-65.2" font-family="Helvetica,sans-Serif" font-size="11.00">bit[1]</text>
<polygon fill="#ffffff" stroke="transparent" points="10,-39 10,-57 50,-57 50,-39 10,-39"/>
<polygon fill="none" stroke="black" points="10,-39 10,-57 50,-57 50,-39 10,-39"/>
<text text-anchor="start" x="13" y="-45.2" font-family="Helvetica,sans-Serif" font-size="11.00">&lt; 0</text>
<polygon fill="#ffffff" stroke="transparent" points="50,-39 50,-57 107,-57 107,-39 50,-39"/>
<polygon fill="none" stroke="black" points="50,-39 50,-57 107,-57 107,-39 50,-39"/>
<text text-anchor="start" x="71" y="-45.2" font-family="Helvetica,sans-Serif" font-size="11.00">0 rows</text>
<polygon fill="#ffffff" stroke="transparent" points="107,-39 107,-57 174,-57 174,-39 107,-39"/>
<polygon fill="none" stroke="black" points="107,-39 107,-57 174,-57 174,-39 107,-39"/>
<text text-anchor="start" x="155" y="-45.2" font-family="Helvetica,sans-Serif" font-size="11.00">2 &gt;</text>
<polygon fill="none" stroke="black" stroke-width="2" points="9,-38 9,-168 175,-168 175,-38 9,-38"/>
</a>
</g>
</g>
<!-- m_appuser_role&#45;&gt;m_role -->
<g id="edge1" class="edge">
<title>m_appuser_role:w&#45;&gt;m_role:e</title>
<path fill="none" stroke="black" d="M219.04,-172.42C201.99,-162.26 201.11,-134 175,-134"/>
<polygon fill="black" stroke="black" points="225.25,-174.01 232.11,-179.49 229.13,-175.01 233,-176 233,-176 233,-176 229.13,-175.01 233.89,-172.51 225.25,-174.01 225.25,-174.01"/>
<ellipse fill="none" stroke="black" cx="222.15" cy="-173.22" rx="3.2" ry="3.2"/>
</g>
<!-- m_role_permission -->
<g id="node3" class="node">
<title>m_role_permission</title>
<g id="a_node3"><a xlink:href="../../tables/m_role_permission.html" xlink:title="m_role_permission" target="_top">
<polygon fill="#ffffff" stroke="transparent" points="225,-42 225,-126 371,-126 371,-42 225,-42"/>
<polygon fill="#f5f5f5" stroke="transparent" points="225,-104 225,-126 371,-126 371,-104 225,-104"/>
<polygon fill="none" stroke="black" points="225,-104 225,-126 371,-126 371,-104 225,-104"/>
<text text-anchor="start" x="230" y="-113.2" font-family="Helvetica,sans-Serif" font-weight="bold" font-size="11.00">m_role_permission</text>
<text text-anchor="start" x="336" y="-112.2" font-family="Helvetica,sans-Serif" font-size="11.00">[table]</text>
<polygon fill="none" stroke="black" points="225,-82 225,-104 371,-104 371,-82 225,-82"/>
<image xlink:href="../../images/primaryKeys.png" width="11px" height="12px" preserveAspectRatio="xMinYMin meet" x="230" y="-99"/>
<text text-anchor="start" x="245" y="-90.2" font-family="Helvetica,sans-Serif" font-size="11.00">role_id</text>
<polygon fill="none" stroke="black" points="225,-60 225,-82 371,-82 371,-60 225,-60"/>
<image xlink:href="../../images/primaryKeys.png" width="11px" height="12px" preserveAspectRatio="xMinYMin meet" x="230" y="-77"/>
<text text-anchor="start" x="245" y="-68.2" font-family="Helvetica,sans-Serif" font-size="11.00">permission_id</text>
<polygon fill="#ffffff" stroke="transparent" points="225,-42 225,-60 283,-60 283,-42 225,-42"/>
<polygon fill="none" stroke="black" points="225,-42 225,-60 283,-60 283,-42 225,-42"/>
<text text-anchor="start" x="228" y="-48.2" font-family="Helvetica,sans-Serif" font-size="11.00">&lt; 2</text>
<polygon fill="#ffffff" stroke="transparent" points="283,-42 283,-60 340,-60 340,-42 283,-42"/>
<polygon fill="none" stroke="black" points="283,-42 283,-60 340,-60 340,-42 283,-42"/>
<text text-anchor="start" x="304" y="-48.2" font-family="Helvetica,sans-Serif" font-size="11.00">0 rows</text>
<polygon fill="#ffffff" stroke="transparent" points="340,-42 340,-60 371,-60 371,-42 340,-42"/>
<polygon fill="none" stroke="black" points="340,-42 340,-60 371,-60 371,-42 340,-42"/>
<text text-anchor="start" x="361" y="-48.2" font-family="Helvetica,sans-Serif" font-size="11.00"> &#160;</text>
</a>
</g>
</g>
<!-- m_role_permission&#45;&gt;m_role -->
<g id="edge2" class="edge">
<title>m_role_permission:w&#45;&gt;m_role:e</title>
<path fill="none" stroke="black" d="M210.18,-97.7C197.28,-108.47 197.41,-134 175,-134"/>
<polygon fill="black" stroke="black" points="216.43,-95.58 225.16,-96.41 220.21,-94.29 224,-93 224,-93 224,-93 220.21,-94.29 222.84,-89.59 216.43,-95.58 216.43,-95.58"/>
<ellipse fill="none" stroke="black" cx="213.4" cy="-96.61" rx="3.2" ry="3.2"/>
</g>
</g>
</svg>
