<?xml version="1.0" encoding="UTF-8" standalone="no"?>
<!DOCTYPE svg PUBLIC "-//W3C//DTD SVG 1.1//EN"
 "http://www.w3.org/Graphics/SVG/1.1/DTD/svg11.dtd">
<!-- Generated by graphviz version 2.43.0 (0)
 -->
<!-- Title: twoDegreesRelationshipsDiagram Pages: 1 -->
<svg width="425pt" height="274pt"
 viewBox="0.00 0.00 425.00 274.00" xmlns="http://www.w3.org/2000/svg" xmlns:xlink="http://www.w3.org/1999/xlink">
<g id="graph0" class="graph" transform="scale(1 1) rotate(0) translate(4 270)">
<title>twoDegreesRelationshipsDiagram</title>
<polygon fill="#ffffff" stroke="transparent" points="-4,4 -4,-270 421,-270 421,4 -4,4"/>
<text text-anchor="middle" x="71.5" y="-7.2" font-family="Helvetica,sans-Serif" font-size="11.00">Generated by SchemaSpy</text>
<!-- m_appuser_role -->
<g id="node1" class="node">
<title>m_appuser_role</title>
<g id="a_node1"><a xlink:href="../../tables/m_appuser_role.html" xlink:title="m_appuser_role" target="_top">
<polygon fill="#ffffff" stroke="transparent" points="244.5,-202 244.5,-260 373.5,-260 373.5,-202 244.5,-202"/>
<polygon fill="#f5f5f5" stroke="transparent" points="245,-238 245,-260 374,-260 374,-238 245,-238"/>
<polygon fill="none" stroke="black" points="245,-238 245,-260 374,-260 374,-238 245,-238"/>
<text text-anchor="start" x="250" y="-247.2" font-family="Helvetica,sans-Serif" font-weight="bold" font-size="11.00">m_appuser_role</text>
<text text-anchor="start" x="339" y="-246.2" font-family="Helvetica,sans-Serif" font-size="11.00">[table]</text>
<polygon fill="none" stroke="black" points="245,-220 245,-238 374,-238 374,-220 245,-220"/>
<text text-anchor="start" x="248" y="-226.2" font-family="Helvetica,sans-Serif" font-size="11.00">...</text>
<polygon fill="#ffffff" stroke="transparent" points="245,-202 245,-220 294,-220 294,-202 245,-202"/>
<polygon fill="none" stroke="black" points="245,-202 245,-220 294,-220 294,-202 245,-202"/>
<text text-anchor="start" x="248" y="-208.2" font-family="Helvetica,sans-Serif" font-size="11.00">&lt; 2</text>
<polygon fill="#ffffff" stroke="transparent" points="294,-202 294,-220 347,-220 347,-202 294,-202"/>
<polygon fill="none" stroke="black" points="294,-202 294,-220 347,-220 347,-202 294,-202"/>
<text text-anchor="start" x="311" y="-208.2" font-family="Helvetica,sans-Serif" font-size="11.00">0 rows</text>
<polygon fill="#ffffff" stroke="transparent" points="347,-202 347,-220 374,-220 374,-202 347,-202"/>
<polygon fill="none" stroke="black" points="347,-202 347,-220 374,-220 374,-202 347,-202"/>
<text text-anchor="start" x="364" y="-208.2" font-family="Helvetica,sans-Serif" font-size="11.00"> &#160;</text>
</a>
</g>
</g>
<!-- m_role -->
<g id="node2" class="node">
<title>m_role</title>
<g id="a_node2"><a xlink:href="../../tables/m_role.html" xlink:title="m_role" target="_top">
<polygon fill="#ffffff" stroke="transparent" points="35.5,-160 35.5,-262 132.5,-262 132.5,-160 35.5,-160"/>
<polygon fill="#f5f5f5" stroke="transparent" points="36,-240 36,-262 133,-262 133,-240 36,-240"/>
<polygon fill="none" stroke="black" points="36,-240 36,-262 133,-262 133,-240 36,-240"/>
<text text-anchor="start" x="41" y="-249.2" font-family="Helvetica,sans-Serif" font-weight="bold" font-size="11.00">m_role</text>
<text text-anchor="start" x="98" y="-248.2" font-family="Helvetica,sans-Serif" font-size="11.00">[table]</text>
<polygon fill="none" stroke="black" points="36,-218 36,-240 133,-240 133,-218 36,-218"/>
<image xlink:href="../../images/primaryKeys.png" width="11px" height="12px" preserveAspectRatio="xMinYMin meet" x="41" y="-235"/>
<text text-anchor="start" x="56" y="-226.2" font-family="Helvetica,sans-Serif" font-size="11.00">id</text>
<polygon fill="#ffffff" stroke="transparent" points="36,-196 36,-218 133,-218 133,-196 36,-196"/>
<polygon fill="none" stroke="black" points="36,-196 36,-218 133,-218 133,-196 36,-196"/>
<text text-anchor="start" x="56" y="-204.2" font-family="Helvetica,sans-Serif" font-size="11.00">name</text>
<polygon fill="none" stroke="black" points="36,-178 36,-196 133,-196 133,-178 36,-178"/>
<text text-anchor="start" x="39" y="-184.2" font-family="Helvetica,sans-Serif" font-size="11.00">...</text>
<polygon fill="#ffffff" stroke="transparent" points="36,-160 36,-178 60,-178 60,-160 36,-160"/>
<polygon fill="none" stroke="black" points="36,-160 36,-178 60,-178 60,-160 36,-160"/>
<text text-anchor="start" x="39" y="-166.2" font-family="Helvetica,sans-Serif" font-size="11.00"> &#160;</text>
<polygon fill="#ffffff" stroke="transparent" points="60,-160 60,-178 105,-178 105,-160 60,-160"/>
<polygon fill="none" stroke="black" points="60,-160 60,-178 105,-178 105,-160 60,-160"/>
<text text-anchor="start" x="69" y="-166.2" font-family="Helvetica,sans-Serif" font-size="11.00">0 rows</text>
<polygon fill="#ffffff" stroke="transparent" points="105,-160 105,-178 133,-178 133,-160 105,-160"/>
<polygon fill="none" stroke="black" points="105,-160 105,-178 133,-178 133,-160 105,-160"/>
<text text-anchor="start" x="114" y="-166.2" font-family="Helvetica,sans-Serif" font-size="11.00">2 &gt;</text>
</a>
</g>
</g>
<!-- m_appuser_role&#45;&gt;m_role -->
<g id="edge1" class="edge">
<title>m_appuser_role:w&#45;&gt;m_role:e</title>
<path fill="none" stroke="black" d="M229.18,-229C192,-229 177.54,-229 134,-229"/>
<polygon fill="black" stroke="black" points="236,-229 244,-232.6 240,-229 244,-229 244,-229 244,-229 240,-229 244,-225.4 236,-229 236,-229"/>
<ellipse fill="none" stroke="black" cx="232.8" cy="-229" rx="3.2" ry="3.2"/>
</g>
<!-- m_role_permission -->
<g id="node3" class="node">
<title>m_role_permission</title>
<g id="a_node3"><a xlink:href="../../tables/m_role_permission.html" xlink:title="m_role_permission" target="_top">
<polygon fill="#ffffff" stroke="transparent" points="209,-84 209,-172 409,-172 409,-84 209,-84"/>
<polygon fill="#f5f5f5" stroke="transparent" points="211,-148 211,-170 407,-170 407,-148 211,-148"/>
<polygon fill="none" stroke="black" points="211,-148 211,-170 407,-170 407,-148 211,-148"/>
<text text-anchor="start" x="216" y="-157.2" font-family="Helvetica,sans-Serif" font-weight="bold" font-size="11.00">m_role_permission</text>
<text text-anchor="start" x="372" y="-156.2" font-family="Helvetica,sans-Serif" font-size="11.00">[table]</text>
<polygon fill="none" stroke="black" points="211,-126 211,-148 357,-148 357,-126 211,-126"/>
<image xlink:href="../../images/primaryKeys.png" width="11px" height="12px" preserveAspectRatio="xMinYMin meet" x="216" y="-143"/>
<text text-anchor="start" x="231" y="-134.2" font-family="Helvetica,sans-Serif" font-size="11.00">role_id</text>
<polygon fill="none" stroke="black" points="357,-126 357,-148 407,-148 407,-126 357,-126"/>
<text text-anchor="start" x="360" y="-134.2" font-family="Helvetica,sans-Serif" font-size="11.00">bigint[19]</text>
<polygon fill="none" stroke="black" points="211,-104 211,-126 357,-126 357,-104 211,-104"/>
<image xlink:href="../../images/primaryKeys.png" width="11px" height="12px" preserveAspectRatio="xMinYMin meet" x="216" y="-121"/>
<text text-anchor="start" x="231" y="-112.2" font-family="Helvetica,sans-Serif" font-size="11.00">permission_id</text>
<polygon fill="none" stroke="black" points="357,-104 357,-126 407,-126 407,-104 357,-104"/>
<text text-anchor="start" x="360" y="-112.2" font-family="Helvetica,sans-Serif" font-size="11.00">bigint[19]</text>
<polygon fill="#ffffff" stroke="transparent" points="211,-86 211,-104 275,-104 275,-86 211,-86"/>
<polygon fill="none" stroke="black" points="211,-86 211,-104 275,-104 275,-86 211,-86"/>
<text text-anchor="start" x="214" y="-92.2" font-family="Helvetica,sans-Serif" font-size="11.00">&lt; 2</text>
<polygon fill="#ffffff" stroke="transparent" points="275,-86 275,-104 357,-104 357,-86 275,-86"/>
<polygon fill="none" stroke="black" points="275,-86 275,-104 357,-104 357,-86 275,-86"/>
<text text-anchor="start" x="321" y="-92.2" font-family="Helvetica,sans-Serif" font-size="11.00">0 rows</text>
<polygon fill="#ffffff" stroke="transparent" points="357,-86 357,-104 407,-104 407,-86 357,-86"/>
<polygon fill="none" stroke="black" points="357,-86 357,-104 407,-104 407,-86 357,-86"/>
<text text-anchor="start" x="388" y="-92.2" font-family="Helvetica,sans-Serif" font-size="11.00">0 &gt;</text>
<polygon fill="none" stroke="black" stroke-width="2" points="210,-85 210,-171 408,-171 408,-85 210,-85"/>
</a>
</g>
</g>
<!-- m_role_permission&#45;&gt;m_role -->
<g id="edge3" class="edge">
<title>m_role_permission:w&#45;&gt;m_role:e</title>
<path fill="none" stroke="black" d="M195.8,-139.85C162.38,-155.38 181.44,-229 134,-229"/>
<polygon fill="black" stroke="black" points="202.16,-138.58 210.71,-140.53 206.08,-137.79 210,-137 210,-137 210,-137 206.08,-137.79 209.29,-133.47 202.16,-138.58 202.16,-138.58"/>
<ellipse fill="none" stroke="black" cx="199.02" cy="-139.21" rx="3.2" ry="3.2"/>
</g>
<!-- m_permission -->
<g id="node4" class="node">
<title>m_permission</title>
<g id="a_node4"><a xlink:href="../../tables/m_permission.html" xlink:title="m_permission" target="_top">
<polygon fill="#ffffff" stroke="transparent" points="8,-37 8,-139 160,-139 160,-37 8,-37"/>
<polygon fill="#f5f5f5" stroke="transparent" points="8,-117 8,-139 160,-139 160,-117 8,-117"/>
<polygon fill="none" stroke="black" points="8,-117 8,-139 160,-139 160,-117 8,-117"/>
<text text-anchor="start" x="13" y="-126.2" font-family="Helvetica,sans-Serif" font-weight="bold" font-size="11.00">m_permission</text>
<text text-anchor="start" x="125" y="-125.2" font-family="Helvetica,sans-Serif" font-size="11.00">[table]</text>
<polygon fill="none" stroke="black" points="8,-95 8,-117 160,-117 160,-95 8,-95"/>
<image xlink:href="../../images/primaryKeys.png" width="11px" height="12px" preserveAspectRatio="xMinYMin meet" x="13" y="-112"/>
<text text-anchor="start" x="28" y="-103.2" font-family="Helvetica,sans-Serif" font-size="11.00">id</text>
<polygon fill="#ffffff" stroke="transparent" points="8,-73 8,-95 160,-95 160,-73 8,-73"/>
<polygon fill="none" stroke="black" points="8,-73 8,-95 160,-95 160,-73 8,-73"/>
<text text-anchor="start" x="28" y="-81.2" font-family="Helvetica,sans-Serif" font-size="11.00">code</text>
<polygon fill="none" stroke="black" points="8,-55 8,-73 160,-73 160,-55 8,-55"/>
<text text-anchor="start" x="11" y="-61.2" font-family="Helvetica,sans-Serif" font-size="11.00">...</text>
<polygon fill="#ffffff" stroke="transparent" points="8,-37 8,-55 54,-55 54,-37 8,-37"/>
<polygon fill="none" stroke="black" points="8,-37 8,-55 54,-55 54,-37 8,-37"/>
<text text-anchor="start" x="11" y="-43.2" font-family="Helvetica,sans-Serif" font-size="11.00"> &#160;</text>
<polygon fill="#ffffff" stroke="transparent" points="54,-37 54,-55 121,-55 121,-37 54,-37"/>
<polygon fill="none" stroke="black" points="54,-37 54,-55 121,-55 121,-37 54,-37"/>
<text text-anchor="start" x="73" y="-43.2" font-family="Helvetica,sans-Serif" font-size="11.00">865 rows</text>
<polygon fill="#ffffff" stroke="transparent" points="121,-37 121,-55 160,-55 160,-37 121,-37"/>
<polygon fill="none" stroke="black" points="121,-37 121,-55 160,-55 160,-37 121,-37"/>
<text text-anchor="start" x="141" y="-43.2" font-family="Helvetica,sans-Serif" font-size="11.00">1 &gt;</text>
</a>
</g>
</g>
<!-- m_role_permission&#45;&gt;m_permission -->
<g id="edge2" class="edge">
<title>m_role_permission:w&#45;&gt;m_permission:e</title>
<path fill="none" stroke="black" d="M195.39,-113.43C184.12,-110.85 177.26,-106 161,-106"/>
<polygon fill="black" stroke="black" points="202.05,-114.15 209.62,-118.58 206.02,-114.57 210,-115 210,-115 210,-115 206.02,-114.57 210.38,-111.42 202.05,-114.15 202.05,-114.15"/>
<ellipse fill="none" stroke="black" cx="198.86" cy="-113.8" rx="3.2" ry="3.2"/>
</g>
</g>
</svg>
