<?xml version="1.0" encoding="UTF-8" standalone="no"?>
<!DOCTYPE svg PUBLIC "-//W3C//DTD SVG 1.1//EN"
 "http://www.w3.org/Graphics/SVG/1.1/DTD/svg11.dtd">
<!-- Generated by graphviz version 2.43.0 (0)
 -->
<!-- Title: oneDegreeRelationshipsDiagram Pages: 1 -->
<svg width="425pt" height="274pt"
 viewBox="0.00 0.00 425.00 274.00" xmlns="http://www.w3.org/2000/svg" xmlns:xlink="http://www.w3.org/1999/xlink">
<g id="graph0" class="graph" transform="scale(1 1) rotate(0) translate(4 270)">
<title>oneDegreeRelationshipsDiagram</title>
<polygon fill="#ffffff" stroke="transparent" points="-4,4 -4,-270 421,-270 421,4 -4,4"/>
<text text-anchor="middle" x="71.5" y="-7.2" font-family="Helvetica,sans-Serif" font-size="11.00">Generated by SchemaSpy</text>
<!-- m_role_permission -->
<g id="node1" class="node">
<title>m_role_permission</title>
<g id="a_node1"><a xlink:href="../../tables/m_role_permission.html" xlink:title="m_role_permission" target="_top">
<polygon fill="#ffffff" stroke="transparent" points="209,-125 209,-213 409,-213 409,-125 209,-125"/>
<polygon fill="#f5f5f5" stroke="transparent" points="211,-189 211,-211 407,-211 407,-189 211,-189"/>
<polygon fill="none" stroke="black" points="211,-189 211,-211 407,-211 407,-189 211,-189"/>
<text text-anchor="start" x="216" y="-198.2" font-family="Helvetica,sans-Serif" font-weight="bold" font-size="11.00">m_role_permission</text>
<text text-anchor="start" x="372" y="-197.2" font-family="Helvetica,sans-Serif" font-size="11.00">[table]</text>
<polygon fill="none" stroke="black" points="211,-167 211,-189 357,-189 357,-167 211,-167"/>
<image xlink:href="../../images/primaryKeys.png" width="11px" height="12px" preserveAspectRatio="xMinYMin meet" x="216" y="-184"/>
<text text-anchor="start" x="231" y="-175.2" font-family="Helvetica,sans-Serif" font-size="11.00">role_id</text>
<polygon fill="none" stroke="black" points="357,-167 357,-189 407,-189 407,-167 357,-167"/>
<text text-anchor="start" x="360" y="-175.2" font-family="Helvetica,sans-Serif" font-size="11.00">bigint[19]</text>
<polygon fill="none" stroke="black" points="211,-145 211,-167 357,-167 357,-145 211,-145"/>
<image xlink:href="../../images/primaryKeys.png" width="11px" height="12px" preserveAspectRatio="xMinYMin meet" x="216" y="-162"/>
<text text-anchor="start" x="231" y="-153.2" font-family="Helvetica,sans-Serif" font-size="11.00">permission_id</text>
<polygon fill="none" stroke="black" points="357,-145 357,-167 407,-167 407,-145 357,-145"/>
<text text-anchor="start" x="360" y="-153.2" font-family="Helvetica,sans-Serif" font-size="11.00">bigint[19]</text>
<polygon fill="#ffffff" stroke="transparent" points="211,-127 211,-145 275,-145 275,-127 211,-127"/>
<polygon fill="none" stroke="black" points="211,-127 211,-145 275,-145 275,-127 211,-127"/>
<text text-anchor="start" x="214" y="-133.2" font-family="Helvetica,sans-Serif" font-size="11.00">&lt; 2</text>
<polygon fill="#ffffff" stroke="transparent" points="275,-127 275,-145 357,-145 357,-127 275,-127"/>
<polygon fill="none" stroke="black" points="275,-127 275,-145 357,-145 357,-127 275,-127"/>
<text text-anchor="start" x="321" y="-133.2" font-family="Helvetica,sans-Serif" font-size="11.00">0 rows</text>
<polygon fill="#ffffff" stroke="transparent" points="357,-127 357,-145 407,-145 407,-127 357,-127"/>
<polygon fill="none" stroke="black" points="357,-127 357,-145 407,-145 407,-127 357,-127"/>
<text text-anchor="start" x="388" y="-133.2" font-family="Helvetica,sans-Serif" font-size="11.00">0 &gt;</text>
<polygon fill="none" stroke="black" stroke-width="2" points="210,-126 210,-212 408,-212 408,-126 210,-126"/>
</a>
</g>
</g>
<!-- m_permission -->
<g id="node2" class="node">
<title>m_permission</title>
<g id="a_node2"><a xlink:href="../../tables/m_permission.html" xlink:title="m_permission" target="_top">
<polygon fill="#ffffff" stroke="transparent" points="8,-37 8,-139 160,-139 160,-37 8,-37"/>
<polygon fill="#f5f5f5" stroke="transparent" points="8,-117 8,-139 160,-139 160,-117 8,-117"/>
<polygon fill="none" stroke="black" points="8,-117 8,-139 160,-139 160,-117 8,-117"/>
<text text-anchor="start" x="13" y="-126.2" font-family="Helvetica,sans-Serif" font-weight="bold" font-size="11.00">m_permission</text>
<text text-anchor="start" x="125" y="-125.2" font-family="Helvetica,sans-Serif" font-size="11.00">[table]</text>
<polygon fill="none" stroke="black" points="8,-95 8,-117 160,-117 160,-95 8,-95"/>
<image xlink:href="../../images/primaryKeys.png" width="11px" height="12px" preserveAspectRatio="xMinYMin meet" x="13" y="-112"/>
<text text-anchor="start" x="28" y="-103.2" font-family="Helvetica,sans-Serif" font-size="11.00">id</text>
<polygon fill="#ffffff" stroke="transparent" points="8,-73 8,-95 160,-95 160,-73 8,-73"/>
<polygon fill="none" stroke="black" points="8,-73 8,-95 160,-95 160,-73 8,-73"/>
<text text-anchor="start" x="28" y="-81.2" font-family="Helvetica,sans-Serif" font-size="11.00">code</text>
<polygon fill="none" stroke="black" points="8,-55 8,-73 160,-73 160,-55 8,-55"/>
<text text-anchor="start" x="11" y="-61.2" font-family="Helvetica,sans-Serif" font-size="11.00">...</text>
<polygon fill="#ffffff" stroke="transparent" points="8,-37 8,-55 54,-55 54,-37 8,-37"/>
<polygon fill="none" stroke="black" points="8,-37 8,-55 54,-55 54,-37 8,-37"/>
<text text-anchor="start" x="11" y="-43.2" font-family="Helvetica,sans-Serif" font-size="11.00"> &#160;</text>
<polygon fill="#ffffff" stroke="transparent" points="54,-37 54,-55 121,-55 121,-37 54,-37"/>
<polygon fill="none" stroke="black" points="54,-37 54,-55 121,-55 121,-37 54,-37"/>
<text text-anchor="start" x="73" y="-43.2" font-family="Helvetica,sans-Serif" font-size="11.00">865 rows</text>
<polygon fill="#ffffff" stroke="transparent" points="121,-37 121,-55 160,-55 160,-37 121,-37"/>
<polygon fill="none" stroke="black" points="121,-37 121,-55 160,-55 160,-37 121,-37"/>
<text text-anchor="start" x="141" y="-43.2" font-family="Helvetica,sans-Serif" font-size="11.00">1 &gt;</text>
</a>
</g>
</g>
<!-- m_role_permission&#45;&gt;m_permission -->
<g id="edge1" class="edge">
<title>m_role_permission:w&#45;&gt;m_permission:e</title>
<path fill="none" stroke="black" d="M196.18,-151.02C182.36,-138.38 186.04,-106 161,-106"/>
<polygon fill="black" stroke="black" points="202.47,-153.29 208.78,-159.39 206.24,-154.64 210,-156 210,-156 210,-156 206.24,-154.64 211.22,-152.61 202.47,-153.29 202.47,-153.29"/>
<ellipse fill="none" stroke="black" cx="199.46" cy="-152.2" rx="3.2" ry="3.2"/>
</g>
<!-- m_role -->
<g id="node3" class="node">
<title>m_role</title>
<g id="a_node3"><a xlink:href="../../tables/m_role.html" xlink:title="m_role" target="_top">
<polygon fill="#ffffff" stroke="transparent" points="35.5,-160 35.5,-262 132.5,-262 132.5,-160 35.5,-160"/>
<polygon fill="#f5f5f5" stroke="transparent" points="36,-240 36,-262 133,-262 133,-240 36,-240"/>
<polygon fill="none" stroke="black" points="36,-240 36,-262 133,-262 133,-240 36,-240"/>
<text text-anchor="start" x="41" y="-249.2" font-family="Helvetica,sans-Serif" font-weight="bold" font-size="11.00">m_role</text>
<text text-anchor="start" x="98" y="-248.2" font-family="Helvetica,sans-Serif" font-size="11.00">[table]</text>
<polygon fill="none" stroke="black" points="36,-218 36,-240 133,-240 133,-218 36,-218"/>
<image xlink:href="../../images/primaryKeys.png" width="11px" height="12px" preserveAspectRatio="xMinYMin meet" x="41" y="-235"/>
<text text-anchor="start" x="56" y="-226.2" font-family="Helvetica,sans-Serif" font-size="11.00">id</text>
<polygon fill="#ffffff" stroke="transparent" points="36,-196 36,-218 133,-218 133,-196 36,-196"/>
<polygon fill="none" stroke="black" points="36,-196 36,-218 133,-218 133,-196 36,-196"/>
<text text-anchor="start" x="56" y="-204.2" font-family="Helvetica,sans-Serif" font-size="11.00">name</text>
<polygon fill="none" stroke="black" points="36,-178 36,-196 133,-196 133,-178 36,-178"/>
<text text-anchor="start" x="39" y="-184.2" font-family="Helvetica,sans-Serif" font-size="11.00">...</text>
<polygon fill="#ffffff" stroke="transparent" points="36,-160 36,-178 60,-178 60,-160 36,-160"/>
<polygon fill="none" stroke="black" points="36,-160 36,-178 60,-178 60,-160 36,-160"/>
<text text-anchor="start" x="39" y="-166.2" font-family="Helvetica,sans-Serif" font-size="11.00"> &#160;</text>
<polygon fill="#ffffff" stroke="transparent" points="60,-160 60,-178 105,-178 105,-160 60,-160"/>
<polygon fill="none" stroke="black" points="60,-160 60,-178 105,-178 105,-160 60,-160"/>
<text text-anchor="start" x="69" y="-166.2" font-family="Helvetica,sans-Serif" font-size="11.00">0 rows</text>
<polygon fill="#ffffff" stroke="transparent" points="105,-160 105,-178 133,-178 133,-160 105,-160"/>
<polygon fill="none" stroke="black" points="105,-160 105,-178 133,-178 133,-160 105,-160"/>
<text text-anchor="start" x="114" y="-166.2" font-family="Helvetica,sans-Serif" font-size="11.00">2 &gt;</text>
</a>
</g>
</g>
<!-- m_role_permission&#45;&gt;m_role -->
<g id="edge2" class="edge">
<title>m_role_permission:w&#45;&gt;m_role:e</title>
<path fill="none" stroke="black" d="M195.66,-180.6C169.93,-190.99 169.12,-229 134,-229"/>
<polygon fill="black" stroke="black" points="202.13,-179.43 210.64,-181.54 206.06,-178.71 210,-178 210,-178 210,-178 206.06,-178.71 209.36,-174.46 202.13,-179.43 202.13,-179.43"/>
<ellipse fill="none" stroke="black" cx="198.98" cy="-180" rx="3.2" ry="3.2"/>
</g>
</g>
</svg>
