<?xml version="1.0" encoding="UTF-8" standalone="no"?>
<!DOCTYPE svg PUBLIC "-//W3C//DTD SVG 1.1//EN"
 "http://www.w3.org/Graphics/SVG/1.1/DTD/svg11.dtd">
<!-- Generated by graphviz version 2.43.0 (0)
 -->
<!-- Title: oneDegreeRelationshipsDiagram Pages: 1 -->
<svg width="999pt" height="692pt"
 viewBox="0.00 0.00 999.00 692.00" xmlns="http://www.w3.org/2000/svg" xmlns:xlink="http://www.w3.org/1999/xlink">
<g id="graph0" class="graph" transform="scale(1 1) rotate(0) translate(4 688)">
<title>oneDegreeRelationshipsDiagram</title>
<polygon fill="#ffffff" stroke="transparent" points="-4,4 -4,-688 995,-688 995,4 -4,4"/>
<text text-anchor="middle" x="71.5" y="-7.2" font-family="Helvetica,sans-Serif" font-size="11.00">Generated by SchemaSpy</text>
<!-- m_savings_account_charge -->
<g id="node1" class="node">
<title>m_savings_account_charge</title>
<g id="a_node1"><a xlink:href="../../tables/m_savings_account_charge.html" xlink:title="m_savings_account_charge" target="_top">
<polygon fill="#ffffff" stroke="transparent" points="383,-37 383,-587 674,-587 674,-37 383,-37"/>
<polygon fill="#f5f5f5" stroke="transparent" points="385.5,-563 385.5,-585 672.5,-585 672.5,-563 385.5,-563"/>
<polygon fill="none" stroke="black" points="385.5,-563 385.5,-585 672.5,-585 672.5,-563 385.5,-563"/>
<text text-anchor="start" x="390.5" y="-572.2" font-family="Helvetica,sans-Serif" font-weight="bold" font-size="11.00">m_savings_account_charge</text>
<text text-anchor="start" x="637.5" y="-571.2" font-family="Helvetica,sans-Serif" font-size="11.00">[table]</text>
<polygon fill="none" stroke="black" points="385.5,-541 385.5,-563 602.5,-563 602.5,-541 385.5,-541"/>
<image xlink:href="../../images/primaryKeys.png" width="11px" height="12px" preserveAspectRatio="xMinYMin meet" x="390.5" y="-558"/>
<text text-anchor="start" x="405.5" y="-549.2" font-family="Helvetica,sans-Serif" font-size="11.00">id</text>
<polygon fill="none" stroke="black" points="602.5,-541 602.5,-563 672.5,-563 672.5,-541 602.5,-541"/>
<text text-anchor="start" x="605.5" y="-549.2" font-family="Helvetica,sans-Serif" font-size="11.00">bigint[19]</text>
<polygon fill="#ffffff" stroke="transparent" points="385.5,-519 385.5,-541 602.5,-541 602.5,-519 385.5,-519"/>
<polygon fill="none" stroke="black" points="385.5,-519 385.5,-541 602.5,-541 602.5,-519 385.5,-519"/>
<image xlink:href="../../images/foreignKeys.png" width="11px" height="12px" preserveAspectRatio="xMinYMin meet" x="390.5" y="-536"/>
<text text-anchor="start" x="405.5" y="-527.2" font-family="Helvetica,sans-Serif" font-size="11.00">savings_account_id</text>
<polygon fill="none" stroke="black" points="602.5,-519 602.5,-541 672.5,-541 672.5,-519 602.5,-519"/>
<text text-anchor="start" x="605.5" y="-527.2" font-family="Helvetica,sans-Serif" font-size="11.00">bigint[19]</text>
<polygon fill="#ffffff" stroke="transparent" points="385.5,-497 385.5,-519 602.5,-519 602.5,-497 385.5,-497"/>
<polygon fill="none" stroke="black" points="385.5,-497 385.5,-519 602.5,-519 602.5,-497 385.5,-497"/>
<image xlink:href="../../images/foreignKeys.png" width="11px" height="12px" preserveAspectRatio="xMinYMin meet" x="390.5" y="-514"/>
<text text-anchor="start" x="405.5" y="-505.2" font-family="Helvetica,sans-Serif" font-size="11.00">charge_id</text>
<polygon fill="none" stroke="black" points="602.5,-497 602.5,-519 672.5,-519 672.5,-497 602.5,-497"/>
<text text-anchor="start" x="605.5" y="-505.2" font-family="Helvetica,sans-Serif" font-size="11.00">bigint[19]</text>
<polygon fill="none" stroke="black" points="385.5,-475 385.5,-497 602.5,-497 602.5,-475 385.5,-475"/>
<text text-anchor="start" x="405.5" y="-483.2" font-family="Helvetica,sans-Serif" font-size="11.00">is_penalty</text>
<polygon fill="none" stroke="black" points="602.5,-475 602.5,-497 672.5,-497 672.5,-475 602.5,-475"/>
<text text-anchor="start" x="605.5" y="-483.2" font-family="Helvetica,sans-Serif" font-size="11.00">bit[1]</text>
<polygon fill="none" stroke="black" points="385.5,-453 385.5,-475 602.5,-475 602.5,-453 385.5,-453"/>
<text text-anchor="start" x="405.5" y="-461.2" font-family="Helvetica,sans-Serif" font-size="11.00">charge_time_enum</text>
<polygon fill="none" stroke="black" points="602.5,-453 602.5,-475 672.5,-475 672.5,-453 602.5,-453"/>
<text text-anchor="start" x="605.5" y="-461.2" font-family="Helvetica,sans-Serif" font-size="11.00">smallint[5]</text>
<polygon fill="none" stroke="black" points="385.5,-431 385.5,-453 602.5,-453 602.5,-431 385.5,-431"/>
<text text-anchor="start" x="405.5" y="-439.2" font-family="Helvetica,sans-Serif" font-size="11.00">charge_due_date</text>
<polygon fill="none" stroke="black" points="602.5,-431 602.5,-453 672.5,-453 672.5,-431 602.5,-431"/>
<text text-anchor="start" x="605.5" y="-439.2" font-family="Helvetica,sans-Serif" font-size="11.00">date[10]</text>
<polygon fill="none" stroke="black" points="385.5,-409 385.5,-431 602.5,-431 602.5,-409 385.5,-409"/>
<text text-anchor="start" x="405.5" y="-417.2" font-family="Helvetica,sans-Serif" font-size="11.00">fee_on_month</text>
<polygon fill="none" stroke="black" points="602.5,-409 602.5,-431 672.5,-431 672.5,-409 602.5,-409"/>
<text text-anchor="start" x="605.5" y="-417.2" font-family="Helvetica,sans-Serif" font-size="11.00">smallint[5]</text>
<polygon fill="none" stroke="black" points="385.5,-387 385.5,-409 602.5,-409 602.5,-387 385.5,-387"/>
<text text-anchor="start" x="405.5" y="-395.2" font-family="Helvetica,sans-Serif" font-size="11.00">fee_on_day</text>
<polygon fill="none" stroke="black" points="602.5,-387 602.5,-409 672.5,-409 672.5,-387 602.5,-387"/>
<text text-anchor="start" x="605.5" y="-395.2" font-family="Helvetica,sans-Serif" font-size="11.00">smallint[5]</text>
<polygon fill="none" stroke="black" points="385.5,-365 385.5,-387 602.5,-387 602.5,-365 385.5,-365"/>
<text text-anchor="start" x="405.5" y="-373.2" font-family="Helvetica,sans-Serif" font-size="11.00">fee_interval</text>
<polygon fill="none" stroke="black" points="602.5,-365 602.5,-387 672.5,-387 672.5,-365 602.5,-365"/>
<text text-anchor="start" x="605.5" y="-373.2" font-family="Helvetica,sans-Serif" font-size="11.00">smallint[5]</text>
<polygon fill="none" stroke="black" points="385.5,-343 385.5,-365 602.5,-365 602.5,-343 385.5,-343"/>
<text text-anchor="start" x="405.5" y="-351.2" font-family="Helvetica,sans-Serif" font-size="11.00">free_withdrawal_count</text>
<polygon fill="none" stroke="black" points="602.5,-343 602.5,-365 672.5,-365 672.5,-343 602.5,-343"/>
<text text-anchor="start" x="605.5" y="-351.2" font-family="Helvetica,sans-Serif" font-size="11.00">int[10]</text>
<polygon fill="none" stroke="black" points="385.5,-321 385.5,-343 602.5,-343 602.5,-321 385.5,-321"/>
<text text-anchor="start" x="405.5" y="-329.2" font-family="Helvetica,sans-Serif" font-size="11.00">charge_reset_date</text>
<polygon fill="none" stroke="black" points="602.5,-321 602.5,-343 672.5,-343 672.5,-321 602.5,-321"/>
<text text-anchor="start" x="605.5" y="-329.2" font-family="Helvetica,sans-Serif" font-size="11.00">date[10]</text>
<polygon fill="none" stroke="black" points="385.5,-299 385.5,-321 602.5,-321 602.5,-299 385.5,-299"/>
<text text-anchor="start" x="405.5" y="-307.2" font-family="Helvetica,sans-Serif" font-size="11.00">charge_calculation_enum</text>
<polygon fill="none" stroke="black" points="602.5,-299 602.5,-321 672.5,-321 672.5,-299 602.5,-299"/>
<text text-anchor="start" x="605.5" y="-307.2" font-family="Helvetica,sans-Serif" font-size="11.00">smallint[5]</text>
<polygon fill="none" stroke="black" points="385.5,-277 385.5,-299 602.5,-299 602.5,-277 385.5,-277"/>
<text text-anchor="start" x="405.5" y="-285.2" font-family="Helvetica,sans-Serif" font-size="11.00">calculation_percentage</text>
<polygon fill="none" stroke="black" points="602.5,-277 602.5,-299 672.5,-299 672.5,-277 602.5,-277"/>
<text text-anchor="start" x="605.5" y="-285.2" font-family="Helvetica,sans-Serif" font-size="11.00">decimal[19,6]</text>
<polygon fill="none" stroke="black" points="385.5,-255 385.5,-277 602.5,-277 602.5,-255 385.5,-255"/>
<text text-anchor="start" x="405.5" y="-263.2" font-family="Helvetica,sans-Serif" font-size="11.00">calculation_on_amount</text>
<polygon fill="none" stroke="black" points="602.5,-255 602.5,-277 672.5,-277 672.5,-255 602.5,-255"/>
<text text-anchor="start" x="605.5" y="-263.2" font-family="Helvetica,sans-Serif" font-size="11.00">decimal[19,6]</text>
<polygon fill="none" stroke="black" points="385.5,-233 385.5,-255 602.5,-255 602.5,-233 385.5,-233"/>
<text text-anchor="start" x="405.5" y="-241.2" font-family="Helvetica,sans-Serif" font-size="11.00">amount</text>
<polygon fill="none" stroke="black" points="602.5,-233 602.5,-255 672.5,-255 672.5,-233 602.5,-233"/>
<text text-anchor="start" x="605.5" y="-241.2" font-family="Helvetica,sans-Serif" font-size="11.00">decimal[19,6]</text>
<polygon fill="none" stroke="black" points="385.5,-211 385.5,-233 602.5,-233 602.5,-211 385.5,-211"/>
<text text-anchor="start" x="405.5" y="-219.2" font-family="Helvetica,sans-Serif" font-size="11.00">amount_paid_derived</text>
<polygon fill="none" stroke="black" points="602.5,-211 602.5,-233 672.5,-233 672.5,-211 602.5,-211"/>
<text text-anchor="start" x="605.5" y="-219.2" font-family="Helvetica,sans-Serif" font-size="11.00">decimal[19,6]</text>
<polygon fill="none" stroke="black" points="385.5,-189 385.5,-211 602.5,-211 602.5,-189 385.5,-189"/>
<text text-anchor="start" x="405.5" y="-197.2" font-family="Helvetica,sans-Serif" font-size="11.00">amount_waived_derived</text>
<polygon fill="none" stroke="black" points="602.5,-189 602.5,-211 672.5,-211 672.5,-189 602.5,-189"/>
<text text-anchor="start" x="605.5" y="-197.2" font-family="Helvetica,sans-Serif" font-size="11.00">decimal[19,6]</text>
<polygon fill="none" stroke="black" points="385.5,-167 385.5,-189 602.5,-189 602.5,-167 385.5,-167"/>
<text text-anchor="start" x="405.5" y="-175.2" font-family="Helvetica,sans-Serif" font-size="11.00">amount_writtenoff_derived</text>
<polygon fill="none" stroke="black" points="602.5,-167 602.5,-189 672.5,-189 672.5,-167 602.5,-167"/>
<text text-anchor="start" x="605.5" y="-175.2" font-family="Helvetica,sans-Serif" font-size="11.00">decimal[19,6]</text>
<polygon fill="none" stroke="black" points="385.5,-145 385.5,-167 602.5,-167 602.5,-145 385.5,-145"/>
<text text-anchor="start" x="405.5" y="-153.2" font-family="Helvetica,sans-Serif" font-size="11.00">amount_outstanding_derived</text>
<polygon fill="none" stroke="black" points="602.5,-145 602.5,-167 672.5,-167 672.5,-145 602.5,-145"/>
<text text-anchor="start" x="605.5" y="-153.2" font-family="Helvetica,sans-Serif" font-size="11.00">decimal[19,6]</text>
<polygon fill="none" stroke="black" points="385.5,-123 385.5,-145 602.5,-145 602.5,-123 385.5,-123"/>
<text text-anchor="start" x="405.5" y="-131.2" font-family="Helvetica,sans-Serif" font-size="11.00">is_paid_derived</text>
<polygon fill="none" stroke="black" points="602.5,-123 602.5,-145 672.5,-145 672.5,-123 602.5,-123"/>
<text text-anchor="start" x="605.5" y="-131.2" font-family="Helvetica,sans-Serif" font-size="11.00">bit[1]</text>
<polygon fill="none" stroke="black" points="385.5,-101 385.5,-123 602.5,-123 602.5,-101 385.5,-101"/>
<text text-anchor="start" x="405.5" y="-109.2" font-family="Helvetica,sans-Serif" font-size="11.00">waived</text>
<polygon fill="none" stroke="black" points="602.5,-101 602.5,-123 672.5,-123 672.5,-101 602.5,-101"/>
<text text-anchor="start" x="605.5" y="-109.2" font-family="Helvetica,sans-Serif" font-size="11.00">bit[1]</text>
<polygon fill="none" stroke="black" points="385.5,-79 385.5,-101 602.5,-101 602.5,-79 385.5,-79"/>
<text text-anchor="start" x="405.5" y="-87.2" font-family="Helvetica,sans-Serif" font-size="11.00">is_active</text>
<polygon fill="none" stroke="black" points="602.5,-79 602.5,-101 672.5,-101 672.5,-79 602.5,-79"/>
<text text-anchor="start" x="605.5" y="-87.2" font-family="Helvetica,sans-Serif" font-size="11.00">bit[1]</text>
<polygon fill="none" stroke="black" points="385.5,-57 385.5,-79 602.5,-79 602.5,-57 385.5,-57"/>
<text text-anchor="start" x="405.5" y="-65.2" font-family="Helvetica,sans-Serif" font-size="11.00">inactivated_on_date</text>
<polygon fill="none" stroke="black" points="602.5,-57 602.5,-79 672.5,-79 672.5,-57 602.5,-57"/>
<text text-anchor="start" x="605.5" y="-65.2" font-family="Helvetica,sans-Serif" font-size="11.00">date[10]</text>
<polygon fill="#ffffff" stroke="transparent" points="385.5,-39 385.5,-57 485.5,-57 485.5,-39 385.5,-39"/>
<polygon fill="none" stroke="black" points="385.5,-39 385.5,-57 485.5,-57 485.5,-39 385.5,-39"/>
<text text-anchor="start" x="388.5" y="-45.2" font-family="Helvetica,sans-Serif" font-size="11.00">&lt; 2</text>
<polygon fill="#ffffff" stroke="transparent" points="485.5,-39 485.5,-57 602.5,-57 602.5,-39 485.5,-39"/>
<polygon fill="none" stroke="black" points="485.5,-39 485.5,-57 602.5,-57 602.5,-39 485.5,-39"/>
<text text-anchor="start" x="566.5" y="-45.2" font-family="Helvetica,sans-Serif" font-size="11.00">0 rows</text>
<polygon fill="#ffffff" stroke="transparent" points="602.5,-39 602.5,-57 672.5,-57 672.5,-39 602.5,-39"/>
<polygon fill="none" stroke="black" points="602.5,-39 602.5,-57 672.5,-57 672.5,-39 602.5,-39"/>
<text text-anchor="start" x="653.5" y="-45.2" font-family="Helvetica,sans-Serif" font-size="11.00">1 &gt;</text>
<polygon fill="none" stroke="black" stroke-width="2" points="384,-38 384,-586 673,-586 673,-38 384,-38"/>
</a>
</g>
</g>
<!-- m_charge -->
<g id="node2" class="node">
<title>m_charge</title>
<g id="a_node2"><a xlink:href="../../tables/m_charge.html" xlink:title="m_charge" target="_top">
<polygon fill="#ffffff" stroke="transparent" points="43,-257 43,-425 299,-425 299,-257 43,-257"/>
<polygon fill="#f5f5f5" stroke="transparent" points="43,-403 43,-425 299,-425 299,-403 43,-403"/>
<polygon fill="none" stroke="black" points="43,-403 43,-425 299,-425 299,-403 43,-403"/>
<text text-anchor="start" x="48" y="-412.2" font-family="Helvetica,sans-Serif" font-weight="bold" font-size="11.00">m_charge</text>
<text text-anchor="start" x="264" y="-411.2" font-family="Helvetica,sans-Serif" font-size="11.00">[table]</text>
<polygon fill="none" stroke="black" points="43,-381 43,-403 299,-403 299,-381 43,-381"/>
<image xlink:href="../../images/primaryKeys.png" width="11px" height="12px" preserveAspectRatio="xMinYMin meet" x="48" y="-398"/>
<text text-anchor="start" x="63" y="-389.2" font-family="Helvetica,sans-Serif" font-size="11.00">id</text>
<polygon fill="#ffffff" stroke="transparent" points="43,-359 43,-381 299,-381 299,-359 43,-359"/>
<polygon fill="none" stroke="black" points="43,-359 43,-381 299,-381 299,-359 43,-359"/>
<text text-anchor="start" x="63" y="-367.2" font-family="Helvetica,sans-Serif" font-size="11.00">name</text>
<polygon fill="#ffffff" stroke="transparent" points="43,-337 43,-359 299,-359 299,-337 43,-337"/>
<polygon fill="none" stroke="black" points="43,-337 43,-359 299,-359 299,-337 43,-337"/>
<image xlink:href="../../images/foreignKeys.png" width="11px" height="12px" preserveAspectRatio="xMinYMin meet" x="48" y="-354"/>
<text text-anchor="start" x="63" y="-345.2" font-family="Helvetica,sans-Serif" font-size="11.00">payment_type_id</text>
<polygon fill="#ffffff" stroke="transparent" points="43,-315 43,-337 299,-337 299,-315 43,-315"/>
<polygon fill="none" stroke="black" points="43,-315 43,-337 299,-337 299,-315 43,-315"/>
<image xlink:href="../../images/foreignKeys.png" width="11px" height="12px" preserveAspectRatio="xMinYMin meet" x="48" y="-332"/>
<text text-anchor="start" x="63" y="-323.2" font-family="Helvetica,sans-Serif" font-size="11.00">income_or_liability_account_id</text>
<polygon fill="#ffffff" stroke="transparent" points="43,-293 43,-315 299,-315 299,-293 43,-293"/>
<polygon fill="none" stroke="black" points="43,-293 43,-315 299,-315 299,-293 43,-293"/>
<image xlink:href="../../images/foreignKeys.png" width="11px" height="12px" preserveAspectRatio="xMinYMin meet" x="48" y="-310"/>
<text text-anchor="start" x="63" y="-301.2" font-family="Helvetica,sans-Serif" font-size="11.00">tax_group_id</text>
<polygon fill="none" stroke="black" points="43,-275 43,-293 299,-293 299,-275 43,-275"/>
<text text-anchor="start" x="46" y="-281.2" font-family="Helvetica,sans-Serif" font-size="11.00">...</text>
<polygon fill="#ffffff" stroke="transparent" points="43,-257 43,-275 151,-275 151,-257 43,-257"/>
<polygon fill="none" stroke="black" points="43,-257 43,-275 151,-275 151,-257 43,-257"/>
<text text-anchor="start" x="46" y="-263.2" font-family="Helvetica,sans-Serif" font-size="11.00">&lt; 3</text>
<polygon fill="#ffffff" stroke="transparent" points="151,-257 151,-275 233,-275 233,-257 151,-257"/>
<polygon fill="none" stroke="black" points="151,-257 151,-275 233,-275 233,-257 151,-257"/>
<text text-anchor="start" x="197" y="-263.2" font-family="Helvetica,sans-Serif" font-size="11.00">0 rows</text>
<polygon fill="#ffffff" stroke="transparent" points="233,-257 233,-275 299,-275 299,-257 233,-257"/>
<polygon fill="none" stroke="black" points="233,-257 233,-275 299,-275 299,-257 233,-257"/>
<text text-anchor="start" x="280" y="-263.2" font-family="Helvetica,sans-Serif" font-size="11.00">9 &gt;</text>
</a>
</g>
</g>
<!-- m_savings_account_charge&#45;&gt;m_charge -->
<g id="edge1" class="edge">
<title>m_savings_account_charge:w&#45;&gt;m_charge:e</title>
<path fill="none" stroke="black" d="M370.18,-504.82C351.88,-494.44 360.74,-460.77 342,-436 325.69,-414.44 327.03,-392 300,-392"/>
<polygon fill="black" stroke="black" points="376.69,-506.27 383.72,-511.51 380.59,-507.13 384.5,-508 384.5,-508 384.5,-508 380.59,-507.13 385.28,-504.49 376.69,-506.27 376.69,-506.27"/>
<ellipse fill="none" stroke="black" cx="373.57" cy="-505.57" rx="3.2" ry="3.2"/>
</g>
<!-- m_savings_account -->
<g id="node3" class="node">
<title>m_savings_account</title>
<g id="a_node3"><a xlink:href="../../tables/m_savings_account.html" xlink:title="m_savings_account" target="_top">
<polygon fill="#ffffff" stroke="transparent" points="8,-446 8,-680 334,-680 334,-446 8,-446"/>
<polygon fill="#f5f5f5" stroke="transparent" points="8,-658 8,-680 334,-680 334,-658 8,-658"/>
<polygon fill="none" stroke="black" points="8,-658 8,-680 334,-680 334,-658 8,-658"/>
<text text-anchor="start" x="13" y="-667.2" font-family="Helvetica,sans-Serif" font-weight="bold" font-size="11.00">m_savings_account</text>
<text text-anchor="start" x="299" y="-666.2" font-family="Helvetica,sans-Serif" font-size="11.00">[table]</text>
<polygon fill="none" stroke="black" points="8,-636 8,-658 334,-658 334,-636 8,-636"/>
<image xlink:href="../../images/primaryKeys.png" width="11px" height="12px" preserveAspectRatio="xMinYMin meet" x="13" y="-653"/>
<text text-anchor="start" x="28" y="-644.2" font-family="Helvetica,sans-Serif" font-size="11.00">id</text>
<polygon fill="#ffffff" stroke="transparent" points="8,-614 8,-636 334,-636 334,-614 8,-614"/>
<polygon fill="none" stroke="black" points="8,-614 8,-636 334,-636 334,-614 8,-614"/>
<text text-anchor="start" x="28" y="-622.2" font-family="Helvetica,sans-Serif" font-size="11.00">account_no</text>
<polygon fill="#ffffff" stroke="transparent" points="8,-592 8,-614 334,-614 334,-592 8,-592"/>
<polygon fill="none" stroke="black" points="8,-592 8,-614 334,-614 334,-592 8,-592"/>
<text text-anchor="start" x="28" y="-600.2" font-family="Helvetica,sans-Serif" font-size="11.00">external_id</text>
<polygon fill="#ffffff" stroke="transparent" points="8,-570 8,-592 334,-592 334,-570 8,-570"/>
<polygon fill="none" stroke="black" points="8,-570 8,-592 334,-592 334,-570 8,-570"/>
<image xlink:href="../../images/foreignKeys.png" width="11px" height="12px" preserveAspectRatio="xMinYMin meet" x="13" y="-587"/>
<text text-anchor="start" x="28" y="-578.2" font-family="Helvetica,sans-Serif" font-size="11.00">client_id</text>
<polygon fill="#ffffff" stroke="transparent" points="8,-548 8,-570 334,-570 334,-548 8,-548"/>
<polygon fill="none" stroke="black" points="8,-548 8,-570 334,-570 334,-548 8,-548"/>
<image xlink:href="../../images/foreignKeys.png" width="11px" height="12px" preserveAspectRatio="xMinYMin meet" x="13" y="-565"/>
<text text-anchor="start" x="28" y="-556.2" font-family="Helvetica,sans-Serif" font-size="11.00">group_id</text>
<polygon fill="#ffffff" stroke="transparent" points="8,-526 8,-548 334,-548 334,-526 8,-526"/>
<polygon fill="none" stroke="black" points="8,-526 8,-548 334,-548 334,-526 8,-526"/>
<image xlink:href="../../images/foreignKeys.png" width="11px" height="12px" preserveAspectRatio="xMinYMin meet" x="13" y="-543"/>
<text text-anchor="start" x="28" y="-534.2" font-family="Helvetica,sans-Serif" font-size="11.00">gsim_id</text>
<polygon fill="#ffffff" stroke="transparent" points="8,-504 8,-526 334,-526 334,-504 8,-504"/>
<polygon fill="none" stroke="black" points="8,-504 8,-526 334,-526 334,-504 8,-504"/>
<image xlink:href="../../images/foreignKeys.png" width="11px" height="12px" preserveAspectRatio="xMinYMin meet" x="13" y="-521"/>
<text text-anchor="start" x="28" y="-512.2" font-family="Helvetica,sans-Serif" font-size="11.00">product_id</text>
<polygon fill="#ffffff" stroke="transparent" points="8,-482 8,-504 334,-504 334,-482 8,-482"/>
<polygon fill="none" stroke="black" points="8,-482 8,-504 334,-504 334,-482 8,-482"/>
<image xlink:href="../../images/foreignKeys.png" width="11px" height="12px" preserveAspectRatio="xMinYMin meet" x="13" y="-499"/>
<text text-anchor="start" x="28" y="-490.2" font-family="Helvetica,sans-Serif" font-size="11.00">tax_group_id</text>
<polygon fill="none" stroke="black" points="8,-464 8,-482 334,-482 334,-464 8,-464"/>
<text text-anchor="start" x="11" y="-470.2" font-family="Helvetica,sans-Serif" font-size="11.00">...</text>
<polygon fill="#ffffff" stroke="transparent" points="8,-446 8,-464 148,-464 148,-446 8,-446"/>
<polygon fill="none" stroke="black" points="8,-446 8,-464 148,-464 148,-446 8,-446"/>
<text text-anchor="start" x="11" y="-452.2" font-family="Helvetica,sans-Serif" font-size="11.00">&lt; 5</text>
<polygon fill="#ffffff" stroke="transparent" points="148,-446 148,-464 246,-464 246,-446 148,-446"/>
<polygon fill="none" stroke="black" points="148,-446 148,-464 246,-464 246,-446 148,-446"/>
<text text-anchor="start" x="210" y="-452.2" font-family="Helvetica,sans-Serif" font-size="11.00">0 rows</text>
<polygon fill="#ffffff" stroke="transparent" points="246,-446 246,-464 334,-464 334,-446 246,-446"/>
<polygon fill="none" stroke="black" points="246,-446 246,-464 334,-464 334,-446 246,-446"/>
<text text-anchor="start" x="309" y="-452.2" font-family="Helvetica,sans-Serif" font-size="11.00">17 &gt;</text>
</a>
</g>
</g>
<!-- m_savings_account_charge&#45;&gt;m_savings_account -->
<g id="edge2" class="edge">
<title>m_savings_account_charge:w&#45;&gt;m_savings_account:e</title>
<path fill="none" stroke="black" d="M370.35,-533.63C340.08,-553.38 385.51,-647 335,-647"/>
<polygon fill="black" stroke="black" points="376.75,-531.99 385.39,-533.49 380.63,-530.99 384.5,-530 384.5,-530 384.5,-530 380.63,-530.99 383.61,-526.51 376.75,-531.99 376.75,-531.99"/>
<ellipse fill="none" stroke="black" cx="373.65" cy="-532.78" rx="3.2" ry="3.2"/>
</g>
<!-- m_savings_account_charge_paid_by -->
<g id="node4" class="node">
<title>m_savings_account_charge_paid_by</title>
<g id="a_node4"><a xlink:href="../../tables/m_savings_account_charge_paid_by.html" xlink:title="m_savings_account_charge_paid_by" target="_top">
<polygon fill="#ffffff" stroke="transparent" points="723,-505 723,-629 983,-629 983,-505 723,-505"/>
<polygon fill="#f5f5f5" stroke="transparent" points="723,-607 723,-629 983,-629 983,-607 723,-607"/>
<polygon fill="none" stroke="black" points="723,-607 723,-629 983,-629 983,-607 723,-607"/>
<text text-anchor="start" x="728" y="-616.2" font-family="Helvetica,sans-Serif" font-weight="bold" font-size="11.00">m_savings_account_charge_paid_by</text>
<text text-anchor="start" x="948" y="-615.2" font-family="Helvetica,sans-Serif" font-size="11.00">[table]</text>
<polygon fill="none" stroke="black" points="723,-585 723,-607 983,-607 983,-585 723,-585"/>
<image xlink:href="../../images/primaryKeys.png" width="11px" height="12px" preserveAspectRatio="xMinYMin meet" x="728" y="-602"/>
<text text-anchor="start" x="743" y="-593.2" font-family="Helvetica,sans-Serif" font-size="11.00">id</text>
<polygon fill="#ffffff" stroke="transparent" points="723,-563 723,-585 983,-585 983,-563 723,-563"/>
<polygon fill="none" stroke="black" points="723,-563 723,-585 983,-585 983,-563 723,-563"/>
<image xlink:href="../../images/foreignKeys.png" width="11px" height="12px" preserveAspectRatio="xMinYMin meet" x="728" y="-580"/>
<text text-anchor="start" x="743" y="-571.2" font-family="Helvetica,sans-Serif" font-size="11.00">savings_account_transaction_id</text>
<polygon fill="#ffffff" stroke="transparent" points="723,-541 723,-563 983,-563 983,-541 723,-541"/>
<polygon fill="none" stroke="black" points="723,-541 723,-563 983,-563 983,-541 723,-541"/>
<image xlink:href="../../images/foreignKeys.png" width="11px" height="12px" preserveAspectRatio="xMinYMin meet" x="728" y="-558"/>
<text text-anchor="start" x="743" y="-549.2" font-family="Helvetica,sans-Serif" font-size="11.00">savings_account_charge_id</text>
<polygon fill="none" stroke="black" points="723,-523 723,-541 983,-541 983,-523 723,-523"/>
<text text-anchor="start" x="726" y="-529.2" font-family="Helvetica,sans-Serif" font-size="11.00">...</text>
<polygon fill="#ffffff" stroke="transparent" points="723,-505 723,-523 838,-523 838,-505 723,-505"/>
<polygon fill="none" stroke="black" points="723,-505 723,-523 838,-523 838,-505 723,-505"/>
<text text-anchor="start" x="726" y="-511.2" font-family="Helvetica,sans-Serif" font-size="11.00">&lt; 2</text>
<polygon fill="#ffffff" stroke="transparent" points="838,-505 838,-523 923,-523 923,-505 838,-505"/>
<polygon fill="none" stroke="black" points="838,-505 838,-523 923,-523 923,-505 838,-505"/>
<text text-anchor="start" x="887" y="-511.2" font-family="Helvetica,sans-Serif" font-size="11.00">0 rows</text>
<polygon fill="#ffffff" stroke="transparent" points="923,-505 923,-523 983,-523 983,-505 923,-505"/>
<polygon fill="none" stroke="black" points="923,-505 923,-523 983,-523 983,-505 923,-505"/>
<text text-anchor="start" x="973" y="-511.2" font-family="Helvetica,sans-Serif" font-size="11.00"> &#160;</text>
</a>
</g>
</g>
<!-- m_savings_account_charge_paid_by&#45;&gt;m_savings_account_charge -->
<g id="edge3" class="edge">
<title>m_savings_account_charge_paid_by:w&#45;&gt;m_savings_account_charge:e</title>
<path fill="none" stroke="black" d="M707.28,-552C696.29,-552 689.16,-552 673.5,-552"/>
<polygon fill="black" stroke="black" points="714,-552 722,-555.6 718,-552 722,-552 722,-552 722,-552 718,-552 722,-548.4 714,-552 714,-552"/>
<ellipse fill="none" stroke="black" cx="710.8" cy="-552" rx="3.2" ry="3.2"/>
</g>
</g>
</svg>
