<?xml version="1.0" encoding="UTF-8" standalone="no"?>
<!DOCTYPE svg PUBLIC "-//W3C//DTD SVG 1.1//EN"
 "http://www.w3.org/Graphics/SVG/1.1/DTD/svg11.dtd">
<!-- Generated by graphviz version 2.43.0 (0)
 -->
<!-- Title: twoDegreesRelationshipsDiagram Pages: 1 -->
<svg width="1191pt" height="599pt"
 viewBox="0.00 0.00 1191.00 598.90" xmlns="http://www.w3.org/2000/svg" xmlns:xlink="http://www.w3.org/1999/xlink">
<g id="graph0" class="graph" transform="scale(1 1) rotate(0) translate(4 594.9)">
<title>twoDegreesRelationshipsDiagram</title>
<polygon fill="#ffffff" stroke="transparent" points="-4,4 -4,-594.9 1187,-594.9 1187,4 -4,4"/>
<text text-anchor="middle" x="71.5" y="-7.2" font-family="Helvetica,sans-Serif" font-size="11.00">Generated by SchemaSpy</text>
<!-- acc_gl_journal_entry -->
<g id="node1" class="node">
<title>acc_gl_journal_entry</title>
<g id="a_node1"><a xlink:href="../../tables/acc_gl_journal_entry.html" xlink:title="acc_gl_journal_entry" target="_top">
<polygon fill="#ffffff" stroke="transparent" points="543,-322 543,-380 697,-380 697,-322 543,-322"/>
<polygon fill="#f5f5f5" stroke="transparent" points="543,-358 543,-380 697,-380 697,-358 543,-358"/>
<polygon fill="none" stroke="black" points="543,-358 543,-380 697,-380 697,-358 543,-358"/>
<text text-anchor="start" x="548" y="-367.2" font-family="Helvetica,sans-Serif" font-weight="bold" font-size="11.00">acc_gl_journal_entry</text>
<text text-anchor="start" x="662" y="-366.2" font-family="Helvetica,sans-Serif" font-size="11.00">[table]</text>
<polygon fill="none" stroke="black" points="543,-340 543,-358 697,-358 697,-340 543,-340"/>
<text text-anchor="start" x="546" y="-346.2" font-family="Helvetica,sans-Serif" font-size="11.00">...</text>
<polygon fill="#ffffff" stroke="transparent" points="543,-322 543,-340 603,-340 603,-322 543,-322"/>
<polygon fill="none" stroke="black" points="543,-322 543,-340 603,-340 603,-322 543,-322"/>
<text text-anchor="start" x="546" y="-328.2" font-family="Helvetica,sans-Serif" font-size="11.00">&lt; 10</text>
<polygon fill="#ffffff" stroke="transparent" points="603,-322 603,-340 658,-340 658,-322 603,-322"/>
<polygon fill="none" stroke="black" points="603,-322 603,-340 658,-340 658,-322 603,-322"/>
<text text-anchor="start" x="622" y="-328.2" font-family="Helvetica,sans-Serif" font-size="11.00">0 rows</text>
<polygon fill="#ffffff" stroke="transparent" points="658,-322 658,-340 697,-340 697,-322 658,-322"/>
<polygon fill="none" stroke="black" points="658,-322 658,-340 697,-340 697,-322 658,-322"/>
<text text-anchor="start" x="678" y="-328.2" font-family="Helvetica,sans-Serif" font-size="11.00">1 &gt;</text>
</a>
</g>
</g>
<!-- acc_gl_account -->
<g id="node2" class="node">
<title>acc_gl_account</title>
<g id="a_node2"><a xlink:href="../../tables/acc_gl_account.html" xlink:title="acc_gl_account" target="_top">
<polygon fill="#ffffff" stroke="transparent" points="266,-226 266,-284 392,-284 392,-226 266,-226"/>
<polygon fill="#f5f5f5" stroke="transparent" points="266,-262 266,-284 392,-284 392,-262 266,-262"/>
<polygon fill="none" stroke="black" points="266,-262 266,-284 392,-284 392,-262 266,-262"/>
<text text-anchor="start" x="271" y="-271.2" font-family="Helvetica,sans-Serif" font-weight="bold" font-size="11.00">acc_gl_account</text>
<text text-anchor="start" x="357" y="-270.2" font-family="Helvetica,sans-Serif" font-size="11.00">[table]</text>
<polygon fill="none" stroke="black" points="266,-244 266,-262 392,-262 392,-244 266,-244"/>
<text text-anchor="start" x="269" y="-250.2" font-family="Helvetica,sans-Serif" font-size="11.00">...</text>
<polygon fill="#ffffff" stroke="transparent" points="266,-226 266,-244 306,-244 306,-226 266,-226"/>
<polygon fill="none" stroke="black" points="266,-226 266,-244 306,-244 306,-226 266,-226"/>
<text text-anchor="start" x="269" y="-232.2" font-family="Helvetica,sans-Serif" font-size="11.00">&lt; 2</text>
<polygon fill="#ffffff" stroke="transparent" points="306,-226 306,-244 354,-244 354,-226 306,-226"/>
<polygon fill="none" stroke="black" points="306,-226 306,-244 354,-244 354,-226 306,-226"/>
<text text-anchor="start" x="318" y="-232.2" font-family="Helvetica,sans-Serif" font-size="11.00">0 rows</text>
<polygon fill="#ffffff" stroke="transparent" points="354,-226 354,-244 392,-244 392,-226 354,-226"/>
<polygon fill="none" stroke="black" points="354,-226 354,-244 392,-244 392,-226 354,-226"/>
<text text-anchor="start" x="367" y="-232.2" font-family="Helvetica,sans-Serif" font-size="11.00">14 &gt;</text>
</a>
</g>
</g>
<!-- acc_gl_journal_entry&#45;&gt;acc_gl_account -->
<g id="edge1" class="edge">
<title>acc_gl_journal_entry:w&#45;&gt;acc_gl_account:e</title>
<path fill="none" stroke="black" d="M527.41,-347.79C463.97,-336.67 466.55,-253 393,-253"/>
<polygon fill="black" stroke="black" points="534.03,-348.34 541.7,-352.59 538.01,-348.67 542,-349 542,-349 542,-349 538.01,-348.67 542.3,-345.41 534.03,-348.34 534.03,-348.34"/>
<ellipse fill="none" stroke="black" cx="530.84" cy="-348.07" rx="3.2" ry="3.2"/>
</g>
<!-- m_appuser -->
<g id="node3" class="node">
<title>m_appuser</title>
<g id="a_node3"><a xlink:href="../../tables/m_appuser.html" xlink:title="m_appuser" target="_top">
<polygon fill="#ffffff" stroke="transparent" points="277.5,-147 277.5,-205 380.5,-205 380.5,-147 277.5,-147"/>
<polygon fill="#f5f5f5" stroke="transparent" points="278,-183 278,-205 381,-205 381,-183 278,-183"/>
<polygon fill="none" stroke="black" points="278,-183 278,-205 381,-205 381,-183 278,-183"/>
<text text-anchor="start" x="283" y="-192.2" font-family="Helvetica,sans-Serif" font-weight="bold" font-size="11.00">m_appuser</text>
<text text-anchor="start" x="346" y="-191.2" font-family="Helvetica,sans-Serif" font-size="11.00">[table]</text>
<polygon fill="none" stroke="black" points="278,-165 278,-183 381,-183 381,-165 278,-165"/>
<text text-anchor="start" x="281" y="-171.2" font-family="Helvetica,sans-Serif" font-size="11.00">...</text>
<polygon fill="#ffffff" stroke="transparent" points="278,-147 278,-165 307,-165 307,-147 278,-147"/>
<polygon fill="none" stroke="black" points="278,-147 278,-165 307,-165 307,-147 278,-147"/>
<text text-anchor="start" x="281" y="-153.2" font-family="Helvetica,sans-Serif" font-size="11.00">&lt; 2</text>
<polygon fill="#ffffff" stroke="transparent" points="307,-147 307,-165 349,-165 349,-147 307,-147"/>
<polygon fill="none" stroke="black" points="307,-147 307,-165 349,-165 349,-147 307,-147"/>
<text text-anchor="start" x="313" y="-153.2" font-family="Helvetica,sans-Serif" font-size="11.00">0 rows</text>
<polygon fill="#ffffff" stroke="transparent" points="349,-147 349,-165 381,-165 381,-147 349,-147"/>
<polygon fill="none" stroke="black" points="349,-147 349,-165 381,-165 381,-147 349,-147"/>
<text text-anchor="start" x="356" y="-153.2" font-family="Helvetica,sans-Serif" font-size="11.00">57 &gt;</text>
</a>
</g>
</g>
<!-- acc_gl_journal_entry&#45;&gt;m_appuser -->
<g id="edge2" class="edge">
<title>acc_gl_journal_entry:w&#45;&gt;m_appuser:e</title>
<path fill="none" stroke="black" d="M528.24,-344.48C512.1,-336.9 505.89,-323.78 493,-306 466.51,-269.48 489.2,-244.39 460,-210 434.52,-179.99 421.37,-168 382,-174"/>
<polygon fill="black" stroke="black" points="534.4,-346.5 540.88,-352.42 538.2,-347.75 542,-349 542,-349 542,-349 538.2,-347.75 543.12,-345.58 534.4,-346.5 534.4,-346.5"/>
<ellipse fill="none" stroke="black" cx="531.36" cy="-345.5" rx="3.2" ry="3.2"/>
</g>
<!-- acc_gl_journal_entry&#45;&gt;m_appuser -->
<g id="edge3" class="edge">
<title>acc_gl_journal_entry:w&#45;&gt;m_appuser:e</title>
<path fill="none" stroke="black" d="M527.31,-350.64C511.85,-349.39 505.64,-336.43 493,-319 466.51,-282.48 489.2,-257.39 460,-223 434.52,-192.99 421.37,-181 382,-174"/>
<polygon fill="black" stroke="black" points="534.05,-349.89 542.4,-352.58 538.02,-349.44 542,-349 542,-349 542,-349 538.02,-349.44 541.6,-345.42 534.05,-349.89 534.05,-349.89"/>
<ellipse fill="none" stroke="black" cx="530.87" cy="-350.25" rx="3.2" ry="3.2"/>
</g>
<!-- m_office -->
<g id="node4" class="node">
<title>m_office</title>
<g id="a_node4"><a xlink:href="../../tables/m_office.html" xlink:title="m_office" target="_top">
<polygon fill="#ffffff" stroke="transparent" points="37.5,-294 37.5,-352 127.5,-352 127.5,-294 37.5,-294"/>
<polygon fill="#f5f5f5" stroke="transparent" points="37.5,-330 37.5,-352 127.5,-352 127.5,-330 37.5,-330"/>
<polygon fill="none" stroke="black" points="37.5,-330 37.5,-352 127.5,-352 127.5,-330 37.5,-330"/>
<text text-anchor="start" x="42.5" y="-339.2" font-family="Helvetica,sans-Serif" font-weight="bold" font-size="11.00">m_office</text>
<text text-anchor="start" x="92.5" y="-338.2" font-family="Helvetica,sans-Serif" font-size="11.00">[table]</text>
<polygon fill="none" stroke="black" points="37.5,-312 37.5,-330 127.5,-330 127.5,-312 37.5,-312"/>
<text text-anchor="start" x="40.5" y="-318.2" font-family="Helvetica,sans-Serif" font-size="11.00">...</text>
<polygon fill="#ffffff" stroke="transparent" points="37.5,-294 37.5,-312 59.5,-312 59.5,-294 37.5,-294"/>
<polygon fill="none" stroke="black" points="37.5,-294 37.5,-312 59.5,-312 59.5,-294 37.5,-294"/>
<text text-anchor="start" x="40.5" y="-300.2" font-family="Helvetica,sans-Serif" font-size="11.00">&lt; 1</text>
<polygon fill="#ffffff" stroke="transparent" points="59.5,-294 59.5,-312 98.5,-312 98.5,-294 59.5,-294"/>
<polygon fill="none" stroke="black" points="59.5,-294 59.5,-312 98.5,-312 98.5,-294 59.5,-294"/>
<text text-anchor="start" x="62.5" y="-300.2" font-family="Helvetica,sans-Serif" font-size="11.00">0 rows</text>
<polygon fill="#ffffff" stroke="transparent" points="98.5,-294 98.5,-312 127.5,-312 127.5,-294 98.5,-294"/>
<polygon fill="none" stroke="black" points="98.5,-294 98.5,-312 127.5,-312 127.5,-294 98.5,-294"/>
<text text-anchor="start" x="102.5" y="-300.2" font-family="Helvetica,sans-Serif" font-size="11.00">20 &gt;</text>
</a>
</g>
</g>
<!-- acc_gl_journal_entry&#45;&gt;m_office -->
<g id="edge4" class="edge">
<title>acc_gl_journal_entry:w&#45;&gt;m_office:e</title>
<path fill="none" stroke="black" d="M527.3,-348.54C502.05,-346.83 491.18,-340.89 460,-338 313.1,-324.4 276.03,-321 128.5,-321"/>
<polygon fill="black" stroke="black" points="534,-348.75 541.89,-352.6 538,-348.87 542,-349 542,-349 542,-349 538,-348.87 542.11,-345.4 534,-348.75 534,-348.75"/>
<ellipse fill="none" stroke="black" cx="530.81" cy="-348.65" rx="3.2" ry="3.2"/>
</g>
<!-- m_payment_detail -->
<g id="node5" class="node">
<title>m_payment_detail</title>
<g id="a_node5"><a xlink:href="../../tables/m_payment_detail.html" xlink:title="m_payment_detail" target="_top">
<polygon fill="#ffffff" stroke="transparent" points="12.5,-376 12.5,-434 152.5,-434 152.5,-376 12.5,-376"/>
<polygon fill="#f5f5f5" stroke="transparent" points="12.5,-412 12.5,-434 152.5,-434 152.5,-412 12.5,-412"/>
<polygon fill="none" stroke="black" points="12.5,-412 12.5,-434 152.5,-434 152.5,-412 12.5,-412"/>
<text text-anchor="start" x="17.5" y="-421.2" font-family="Helvetica,sans-Serif" font-weight="bold" font-size="11.00">m_payment_detail</text>
<text text-anchor="start" x="117.5" y="-420.2" font-family="Helvetica,sans-Serif" font-size="11.00">[table]</text>
<polygon fill="none" stroke="black" points="12.5,-394 12.5,-412 152.5,-412 152.5,-394 12.5,-394"/>
<text text-anchor="start" x="15.5" y="-400.2" font-family="Helvetica,sans-Serif" font-size="11.00">...</text>
<polygon fill="#ffffff" stroke="transparent" points="12.5,-376 12.5,-394 62.5,-394 62.5,-376 12.5,-376"/>
<polygon fill="none" stroke="black" points="12.5,-376 12.5,-394 62.5,-394 62.5,-376 12.5,-376"/>
<text text-anchor="start" x="15.5" y="-382.2" font-family="Helvetica,sans-Serif" font-size="11.00">&lt; 1</text>
<polygon fill="#ffffff" stroke="transparent" points="62.5,-376 62.5,-394 115.5,-394 115.5,-376 62.5,-376"/>
<polygon fill="none" stroke="black" points="62.5,-376 62.5,-394 115.5,-394 115.5,-376 62.5,-376"/>
<text text-anchor="start" x="79.5" y="-382.2" font-family="Helvetica,sans-Serif" font-size="11.00">0 rows</text>
<polygon fill="#ffffff" stroke="transparent" points="115.5,-376 115.5,-394 152.5,-394 152.5,-376 115.5,-376"/>
<polygon fill="none" stroke="black" points="115.5,-376 115.5,-394 152.5,-394 152.5,-376 115.5,-376"/>
<text text-anchor="start" x="133.5" y="-382.2" font-family="Helvetica,sans-Serif" font-size="11.00">3 &gt;</text>
</a>
</g>
</g>
<!-- acc_gl_journal_entry&#45;&gt;m_payment_detail -->
<g id="edge5" class="edge">
<title>acc_gl_journal_entry:w&#45;&gt;m_payment_detail:e</title>
<path fill="none" stroke="black" d="M527.36,-348.85C442.87,-347.26 264.58,-334.54 198,-362 173.14,-372.25 180.39,-403 153.5,-403"/>
<polygon fill="black" stroke="black" points="534,-348.92 541.96,-352.6 538,-348.96 542,-349 542,-349 542,-349 538,-348.96 542.04,-345.4 534,-348.92 534,-348.92"/>
<ellipse fill="none" stroke="black" cx="530.8" cy="-348.88" rx="3.2" ry="3.2"/>
</g>
<!-- m_savings_account_transaction -->
<g id="node6" class="node">
<title>m_savings_account_transaction</title>
<g id="a_node6"><a xlink:href="../../tables/m_savings_account_transaction.html" xlink:title="m_savings_account_transaction" target="_top">
<polygon fill="#ffffff" stroke="transparent" points="206,-372 206,-540 452,-540 452,-372 206,-372"/>
<polygon fill="#f5f5f5" stroke="transparent" points="206,-518 206,-540 452,-540 452,-518 206,-518"/>
<polygon fill="none" stroke="black" points="206,-518 206,-540 452,-540 452,-518 206,-518"/>
<text text-anchor="start" x="211" y="-527.2" font-family="Helvetica,sans-Serif" font-weight="bold" font-size="11.00">m_savings_account_transaction</text>
<text text-anchor="start" x="417" y="-526.2" font-family="Helvetica,sans-Serif" font-size="11.00">[table]</text>
<polygon fill="none" stroke="black" points="206,-496 206,-518 452,-518 452,-496 206,-496"/>
<image xlink:href="../../images/primaryKeys.png" width="11px" height="12px" preserveAspectRatio="xMinYMin meet" x="211" y="-513"/>
<text text-anchor="start" x="226" y="-504.2" font-family="Helvetica,sans-Serif" font-size="11.00">id</text>
<polygon fill="#ffffff" stroke="transparent" points="206,-474 206,-496 452,-496 452,-474 206,-474"/>
<polygon fill="none" stroke="black" points="206,-474 206,-496 452,-496 452,-474 206,-474"/>
<image xlink:href="../../images/foreignKeys.png" width="11px" height="12px" preserveAspectRatio="xMinYMin meet" x="211" y="-491"/>
<text text-anchor="start" x="226" y="-482.2" font-family="Helvetica,sans-Serif" font-size="11.00">savings_account_id</text>
<polygon fill="#ffffff" stroke="transparent" points="206,-452 206,-474 452,-474 452,-452 206,-452"/>
<polygon fill="none" stroke="black" points="206,-452 206,-474 452,-474 452,-452 206,-452"/>
<image xlink:href="../../images/foreignKeys.png" width="11px" height="12px" preserveAspectRatio="xMinYMin meet" x="211" y="-469"/>
<text text-anchor="start" x="226" y="-460.2" font-family="Helvetica,sans-Serif" font-size="11.00">office_id</text>
<polygon fill="#ffffff" stroke="transparent" points="206,-430 206,-452 452,-452 452,-430 206,-430"/>
<polygon fill="none" stroke="black" points="206,-430 206,-452 452,-452 452,-430 206,-430"/>
<image xlink:href="../../images/foreignKeys.png" width="11px" height="12px" preserveAspectRatio="xMinYMin meet" x="211" y="-447"/>
<text text-anchor="start" x="226" y="-438.2" font-family="Helvetica,sans-Serif" font-size="11.00">payment_detail_id</text>
<polygon fill="#ffffff" stroke="transparent" points="206,-408 206,-430 452,-430 452,-408 206,-408"/>
<polygon fill="none" stroke="black" points="206,-408 206,-430 452,-430 452,-408 206,-408"/>
<text text-anchor="start" x="226" y="-416.2" font-family="Helvetica,sans-Serif" font-size="11.00">ref_no</text>
<polygon fill="none" stroke="black" points="206,-390 206,-408 452,-408 452,-390 206,-390"/>
<text text-anchor="start" x="209" y="-396.2" font-family="Helvetica,sans-Serif" font-size="11.00">...</text>
<polygon fill="#ffffff" stroke="transparent" points="206,-372 206,-390 309,-390 309,-372 206,-372"/>
<polygon fill="none" stroke="black" points="206,-372 206,-390 309,-390 309,-372 206,-372"/>
<text text-anchor="start" x="209" y="-378.2" font-family="Helvetica,sans-Serif" font-size="11.00">&lt; 3</text>
<polygon fill="#ffffff" stroke="transparent" points="309,-372 309,-390 389,-390 389,-372 309,-372"/>
<polygon fill="none" stroke="black" points="309,-372 309,-390 389,-390 389,-372 309,-372"/>
<text text-anchor="start" x="353" y="-378.2" font-family="Helvetica,sans-Serif" font-size="11.00">0 rows</text>
<polygon fill="#ffffff" stroke="transparent" points="389,-372 389,-390 452,-390 452,-372 389,-372"/>
<polygon fill="none" stroke="black" points="389,-372 389,-390 452,-390 452,-372 389,-372"/>
<text text-anchor="start" x="433" y="-378.2" font-family="Helvetica,sans-Serif" font-size="11.00">5 &gt;</text>
</a>
</g>
</g>
<!-- acc_gl_journal_entry&#45;&gt;m_savings_account_transaction -->
<g id="edge6" class="edge">
<title>acc_gl_journal_entry:w&#45;&gt;m_savings_account_transaction:e</title>
<path fill="none" stroke="black" d="M527.73,-351C511.22,-356.35 505.98,-371.91 493,-391 462.34,-436.1 507.53,-507 453,-507"/>
<polygon fill="black" stroke="black" points="534.08,-350.11 542.5,-352.57 538.04,-349.55 542,-349 542,-349 542,-349 538.04,-349.55 541.5,-345.43 534.08,-350.11 534.08,-350.11"/>
<ellipse fill="none" stroke="black" cx="530.91" cy="-350.55" rx="3.2" ry="3.2"/>
</g>
<!-- m_appuser&#45;&gt;m_office -->
<g id="edge9" class="edge">
<title>m_appuser:w&#45;&gt;m_office:e</title>
<path fill="none" stroke="black" d="M262.24,-174.85C234.19,-178.39 223.41,-192.92 198,-216 156.57,-253.63 184.46,-321 128.5,-321"/>
<polygon fill="black" stroke="black" points="269.01,-174.46 277.21,-177.59 273.01,-174.23 277,-174 277,-174 277,-174 273.01,-174.23 276.79,-170.41 269.01,-174.46 269.01,-174.46"/>
<ellipse fill="none" stroke="black" cx="265.82" cy="-174.64" rx="3.2" ry="3.2"/>
</g>
<!-- m_savings_account_transaction&#45;&gt;m_office -->
<g id="edge11" class="edge">
<title>m_savings_account_transaction:w&#45;&gt;m_office:e</title>
<path fill="none" stroke="black" d="M190.6,-460.54C142.92,-441.68 194.59,-321 128.5,-321"/>
<polygon fill="black" stroke="black" points="197.11,-461.65 204.39,-466.55 201.06,-462.33 205,-463 205,-463 205,-463 201.06,-462.33 205.61,-459.45 197.11,-461.65 197.11,-461.65"/>
<ellipse fill="none" stroke="black" cx="193.96" cy="-461.11" rx="3.2" ry="3.2"/>
</g>
<!-- m_savings_account_transaction&#45;&gt;m_payment_detail -->
<g id="edge12" class="edge">
<title>m_savings_account_transaction:w&#45;&gt;m_payment_detail:e</title>
<path fill="none" stroke="black" d="M190.88,-436.64C177.32,-426.66 175.95,-403 153.5,-403"/>
<polygon fill="black" stroke="black" points="197.36,-438.64 203.94,-444.44 201.18,-439.82 205,-441 205,-441 205,-441 201.18,-439.82 206.06,-437.56 197.36,-438.64 197.36,-438.64"/>
<ellipse fill="none" stroke="black" cx="194.3" cy="-437.7" rx="3.2" ry="3.2"/>
</g>
<!-- m_savings_account -->
<g id="node9" class="node">
<title>m_savings_account</title>
<g id="a_node9"><a xlink:href="../../tables/m_savings_account.html" xlink:title="m_savings_account" target="_top">
<polygon fill="#ffffff" stroke="transparent" points="8,-458 8,-516 157,-516 157,-458 8,-458"/>
<polygon fill="#f5f5f5" stroke="transparent" points="8.5,-494 8.5,-516 157.5,-516 157.5,-494 8.5,-494"/>
<polygon fill="none" stroke="black" points="8.5,-494 8.5,-516 157.5,-516 157.5,-494 8.5,-494"/>
<text text-anchor="start" x="13.5" y="-503.2" font-family="Helvetica,sans-Serif" font-weight="bold" font-size="11.00">m_savings_account</text>
<text text-anchor="start" x="122.5" y="-502.2" font-family="Helvetica,sans-Serif" font-size="11.00">[table]</text>
<polygon fill="none" stroke="black" points="8.5,-476 8.5,-494 157.5,-494 157.5,-476 8.5,-476"/>
<text text-anchor="start" x="11.5" y="-482.2" font-family="Helvetica,sans-Serif" font-size="11.00">...</text>
<polygon fill="#ffffff" stroke="transparent" points="8.5,-458 8.5,-476 60.5,-476 60.5,-458 8.5,-458"/>
<polygon fill="none" stroke="black" points="8.5,-458 8.5,-476 60.5,-476 60.5,-458 8.5,-458"/>
<text text-anchor="start" x="11.5" y="-464.2" font-family="Helvetica,sans-Serif" font-size="11.00">&lt; 5</text>
<polygon fill="#ffffff" stroke="transparent" points="60.5,-458 60.5,-476 114.5,-476 114.5,-458 60.5,-458"/>
<polygon fill="none" stroke="black" points="60.5,-458 60.5,-476 114.5,-476 114.5,-458 60.5,-458"/>
<text text-anchor="start" x="78.5" y="-464.2" font-family="Helvetica,sans-Serif" font-size="11.00">0 rows</text>
<polygon fill="#ffffff" stroke="transparent" points="114.5,-458 114.5,-476 157.5,-476 157.5,-458 114.5,-458"/>
<polygon fill="none" stroke="black" points="114.5,-458 114.5,-476 157.5,-476 157.5,-458 114.5,-458"/>
<text text-anchor="start" x="132.5" y="-464.2" font-family="Helvetica,sans-Serif" font-size="11.00">17 &gt;</text>
</a>
</g>
</g>
<!-- m_savings_account_transaction&#45;&gt;m_savings_account -->
<g id="edge13" class="edge">
<title>m_savings_account_transaction:w&#45;&gt;m_savings_account:e</title>
<path fill="none" stroke="black" d="M190.55,-485C180.2,-485 173.35,-485 158.5,-485"/>
<polygon fill="black" stroke="black" points="197,-485 205,-488.6 201,-485 205,-485 205,-485 205,-485 201,-485 205,-481.4 197,-485 197,-485"/>
<ellipse fill="none" stroke="black" cx="193.8" cy="-485" rx="3.2" ry="3.2"/>
</g>
<!-- m_account_transfer_transaction -->
<g id="node7" class="node">
<title>m_account_transfer_transaction</title>
<g id="a_node7"><a xlink:href="../../tables/m_account_transfer_transaction.html" xlink:title="m_account_transfer_transaction" target="_top">
<polygon fill="#ffffff" stroke="transparent" points="512.5,-480 512.5,-538 727.5,-538 727.5,-480 512.5,-480"/>
<polygon fill="#f5f5f5" stroke="transparent" points="513,-516 513,-538 728,-538 728,-516 513,-516"/>
<polygon fill="none" stroke="black" points="513,-516 513,-538 728,-538 728,-516 513,-516"/>
<text text-anchor="start" x="518" y="-525.2" font-family="Helvetica,sans-Serif" font-weight="bold" font-size="11.00">m_account_transfer_transaction</text>
<text text-anchor="start" x="693" y="-524.2" font-family="Helvetica,sans-Serif" font-size="11.00">[table]</text>
<polygon fill="none" stroke="black" points="513,-498 513,-516 728,-516 728,-498 513,-498"/>
<text text-anchor="start" x="516" y="-504.2" font-family="Helvetica,sans-Serif" font-size="11.00">...</text>
<polygon fill="#ffffff" stroke="transparent" points="513,-480 513,-498 605,-498 605,-480 513,-480"/>
<polygon fill="none" stroke="black" points="513,-480 513,-498 605,-498 605,-480 513,-480"/>
<text text-anchor="start" x="516" y="-486.2" font-family="Helvetica,sans-Serif" font-size="11.00">&lt; 5</text>
<polygon fill="#ffffff" stroke="transparent" points="605,-480 605,-498 679,-498 679,-480 605,-480"/>
<polygon fill="none" stroke="black" points="605,-480 605,-498 679,-498 679,-480 605,-480"/>
<text text-anchor="start" x="643" y="-486.2" font-family="Helvetica,sans-Serif" font-size="11.00">0 rows</text>
<polygon fill="#ffffff" stroke="transparent" points="679,-480 679,-498 728,-498 728,-480 679,-480"/>
<polygon fill="none" stroke="black" points="679,-480 679,-498 728,-498 728,-480 679,-480"/>
<text text-anchor="start" x="718" y="-486.2" font-family="Helvetica,sans-Serif" font-size="11.00"> &#160;</text>
</a>
</g>
</g>
<!-- m_account_transfer_transaction&#45;&gt;m_savings_account_transaction -->
<g id="edge7" class="edge">
<title>m_account_transfer_transaction:w&#45;&gt;m_savings_account_transaction:e</title>
<path fill="none" stroke="black" d="M497.66,-504C482.14,-501.27 473.69,-502.27 453,-507"/>
<polygon fill="black" stroke="black" points="504.17,-505.36 511.26,-510.52 508.08,-506.18 512,-507 512,-507 512,-507 508.08,-506.18 512.74,-503.48 504.17,-505.36 504.17,-505.36"/>
<ellipse fill="none" stroke="black" cx="501.04" cy="-504.71" rx="3.2" ry="3.2"/>
</g>
<!-- m_account_transfer_transaction&#45;&gt;m_savings_account_transaction -->
<g id="edge8" class="edge">
<title>m_account_transfer_transaction:w&#45;&gt;m_savings_account_transaction:e</title>
<path fill="none" stroke="black" d="M497.66,-510.5C482.14,-513.69 473.69,-512.52 453,-507"/>
<polygon fill="black" stroke="black" points="504.23,-508.89 512.85,-510.5 508.11,-507.95 512,-507 512,-507 512,-507 508.11,-507.95 511.15,-503.5 504.23,-508.89 504.23,-508.89"/>
<ellipse fill="none" stroke="black" cx="501.12" cy="-509.65" rx="3.2" ry="3.2"/>
</g>
<!-- m_savings_account_charge_paid_by -->
<g id="node8" class="node">
<title>m_savings_account_charge_paid_by</title>
<g id="a_node8"><a xlink:href="../../tables/m_savings_account_charge_paid_by.html" xlink:title="m_savings_account_charge_paid_by" target="_top">
<polygon fill="#ffffff" stroke="transparent" points="501,-401 501,-459 739,-459 739,-401 501,-401"/>
<polygon fill="#f5f5f5" stroke="transparent" points="501,-437 501,-459 739,-459 739,-437 501,-437"/>
<polygon fill="none" stroke="black" points="501,-437 501,-459 739,-459 739,-437 501,-437"/>
<text text-anchor="start" x="506" y="-446.2" font-family="Helvetica,sans-Serif" font-weight="bold" font-size="11.00">m_savings_account_charge_paid_by</text>
<text text-anchor="start" x="704" y="-445.2" font-family="Helvetica,sans-Serif" font-size="11.00">[table]</text>
<polygon fill="none" stroke="black" points="501,-419 501,-437 739,-437 739,-419 501,-419"/>
<text text-anchor="start" x="504" y="-425.2" font-family="Helvetica,sans-Serif" font-size="11.00">...</text>
<polygon fill="#ffffff" stroke="transparent" points="501,-401 501,-419 605,-419 605,-401 501,-401"/>
<polygon fill="none" stroke="black" points="501,-401 501,-419 605,-419 605,-401 501,-401"/>
<text text-anchor="start" x="504" y="-407.2" font-family="Helvetica,sans-Serif" font-size="11.00">&lt; 2</text>
<polygon fill="#ffffff" stroke="transparent" points="605,-401 605,-419 685,-419 685,-401 605,-401"/>
<polygon fill="none" stroke="black" points="605,-401 605,-419 685,-419 685,-401 605,-401"/>
<text text-anchor="start" x="649" y="-407.2" font-family="Helvetica,sans-Serif" font-size="11.00">0 rows</text>
<polygon fill="#ffffff" stroke="transparent" points="685,-401 685,-419 739,-419 739,-401 685,-401"/>
<polygon fill="none" stroke="black" points="685,-401 685,-419 739,-419 739,-401 685,-401"/>
<text text-anchor="start" x="729" y="-407.2" font-family="Helvetica,sans-Serif" font-size="11.00"> &#160;</text>
</a>
</g>
</g>
<!-- m_savings_account_charge_paid_by&#45;&gt;m_savings_account_transaction -->
<g id="edge10" class="edge">
<title>m_savings_account_charge_paid_by:w&#45;&gt;m_savings_account_transaction:e</title>
<path fill="none" stroke="black" d="M486.31,-432.71C467.78,-449.71 487.79,-507 453,-507"/>
<polygon fill="black" stroke="black" points="492.43,-430.6 501.17,-431.4 496.22,-429.3 500,-428 500,-428 500,-428 496.22,-429.3 498.83,-424.6 492.43,-430.6 492.43,-430.6"/>
<ellipse fill="none" stroke="black" cx="489.41" cy="-431.64" rx="3.2" ry="3.2"/>
</g>
<!-- m_savings_account_transaction_tax_details -->
<g id="node10" class="node">
<title>m_savings_account_transaction_tax_details</title>
<g id="a_node10"><a xlink:href="../../tables/m_savings_account_transaction_tax_details.html" xlink:title="m_savings_account_transaction_tax_details" target="_top">
<polygon fill="#ffffff" stroke="transparent" points="788,-351 788,-483 1175,-483 1175,-351 788,-351"/>
<polygon fill="#f5f5f5" stroke="transparent" points="790.5,-459 790.5,-481 1173.5,-481 1173.5,-459 790.5,-459"/>
<polygon fill="none" stroke="black" points="790.5,-459 790.5,-481 1173.5,-481 1173.5,-459 790.5,-459"/>
<text text-anchor="start" x="795.5" y="-468.2" font-family="Helvetica,sans-Serif" font-weight="bold" font-size="11.00">m_savings_account_transaction_tax_details</text>
<text text-anchor="start" x="1138.5" y="-467.2" font-family="Helvetica,sans-Serif" font-size="11.00">[table]</text>
<polygon fill="none" stroke="black" points="790.5,-437 790.5,-459 1103.5,-459 1103.5,-437 790.5,-437"/>
<image xlink:href="../../images/primaryKeys.png" width="11px" height="12px" preserveAspectRatio="xMinYMin meet" x="795.5" y="-454"/>
<text text-anchor="start" x="810.5" y="-445.2" font-family="Helvetica,sans-Serif" font-size="11.00">id</text>
<polygon fill="none" stroke="black" points="1103.5,-437 1103.5,-459 1173.5,-459 1173.5,-437 1103.5,-437"/>
<text text-anchor="start" x="1106.5" y="-445.2" font-family="Helvetica,sans-Serif" font-size="11.00">bigint[19]</text>
<polygon fill="#ffffff" stroke="transparent" points="790.5,-415 790.5,-437 1103.5,-437 1103.5,-415 790.5,-415"/>
<polygon fill="none" stroke="black" points="790.5,-415 790.5,-437 1103.5,-437 1103.5,-415 790.5,-415"/>
<image xlink:href="../../images/foreignKeys.png" width="11px" height="12px" preserveAspectRatio="xMinYMin meet" x="795.5" y="-432"/>
<text text-anchor="start" x="810.5" y="-423.2" font-family="Helvetica,sans-Serif" font-size="11.00">savings_transaction_id</text>
<polygon fill="none" stroke="black" points="1103.5,-415 1103.5,-437 1173.5,-437 1173.5,-415 1103.5,-415"/>
<text text-anchor="start" x="1106.5" y="-423.2" font-family="Helvetica,sans-Serif" font-size="11.00">bigint[19]</text>
<polygon fill="#ffffff" stroke="transparent" points="790.5,-393 790.5,-415 1103.5,-415 1103.5,-393 790.5,-393"/>
<polygon fill="none" stroke="black" points="790.5,-393 790.5,-415 1103.5,-415 1103.5,-393 790.5,-393"/>
<image xlink:href="../../images/foreignKeys.png" width="11px" height="12px" preserveAspectRatio="xMinYMin meet" x="795.5" y="-410"/>
<text text-anchor="start" x="810.5" y="-401.2" font-family="Helvetica,sans-Serif" font-size="11.00">tax_component_id</text>
<polygon fill="none" stroke="black" points="1103.5,-393 1103.5,-415 1173.5,-415 1173.5,-393 1103.5,-393"/>
<text text-anchor="start" x="1106.5" y="-401.2" font-family="Helvetica,sans-Serif" font-size="11.00">bigint[19]</text>
<polygon fill="none" stroke="black" points="790.5,-371 790.5,-393 1103.5,-393 1103.5,-371 790.5,-371"/>
<text text-anchor="start" x="810.5" y="-379.2" font-family="Helvetica,sans-Serif" font-size="11.00">amount</text>
<polygon fill="none" stroke="black" points="1103.5,-371 1103.5,-393 1173.5,-393 1173.5,-371 1103.5,-371"/>
<text text-anchor="start" x="1106.5" y="-379.2" font-family="Helvetica,sans-Serif" font-size="11.00">decimal[19,6]</text>
<polygon fill="#ffffff" stroke="transparent" points="790.5,-353 790.5,-371 938.5,-371 938.5,-353 790.5,-353"/>
<polygon fill="none" stroke="black" points="790.5,-353 790.5,-371 938.5,-371 938.5,-353 790.5,-353"/>
<text text-anchor="start" x="793.5" y="-359.2" font-family="Helvetica,sans-Serif" font-size="11.00">&lt; 2</text>
<polygon fill="#ffffff" stroke="transparent" points="938.5,-353 938.5,-371 1103.5,-371 1103.5,-353 938.5,-353"/>
<polygon fill="none" stroke="black" points="938.5,-353 938.5,-371 1103.5,-371 1103.5,-353 938.5,-353"/>
<text text-anchor="start" x="1067.5" y="-359.2" font-family="Helvetica,sans-Serif" font-size="11.00">0 rows</text>
<polygon fill="#ffffff" stroke="transparent" points="1103.5,-353 1103.5,-371 1173.5,-371 1173.5,-353 1103.5,-353"/>
<polygon fill="none" stroke="black" points="1103.5,-353 1103.5,-371 1173.5,-371 1173.5,-353 1103.5,-353"/>
<text text-anchor="start" x="1154.5" y="-359.2" font-family="Helvetica,sans-Serif" font-size="11.00">0 &gt;</text>
<polygon fill="none" stroke="black" stroke-width="2" points="789,-352 789,-482 1174,-482 1174,-352 789,-352"/>
</a>
</g>
</g>
<!-- m_savings_account_transaction_tax_details&#45;&gt;m_savings_account_transaction -->
<g id="edge14" class="edge">
<title>m_savings_account_transaction_tax_details:w&#45;&gt;m_savings_account_transaction:e</title>
<path fill="none" stroke="black" d="M774.94,-428.81C743.61,-444.24 789.14,-518.98 747,-549 655.06,-614.51 596.76,-593.47 493,-549 469.31,-538.85 478.78,-507 453,-507"/>
<polygon fill="black" stroke="black" points="781.65,-427.52 790.18,-429.53 785.57,-426.76 789.5,-426 789.5,-426 789.5,-426 785.57,-426.76 788.82,-422.47 781.65,-427.52 781.65,-427.52"/>
<ellipse fill="none" stroke="black" cx="778.5" cy="-428.13" rx="3.2" ry="3.2"/>
</g>
<!-- m_tax_component -->
<g id="node11" class="node">
<title>m_tax_component</title>
<g id="a_node11"><a xlink:href="../../tables/m_tax_component.html" xlink:title="m_tax_component" target="_top">
<polygon fill="#ffffff" stroke="transparent" points="520,-133 520,-301 720,-301 720,-133 520,-133"/>
<polygon fill="#f5f5f5" stroke="transparent" points="520,-279 520,-301 720,-301 720,-279 520,-279"/>
<polygon fill="none" stroke="black" points="520,-279 520,-301 720,-301 720,-279 520,-279"/>
<text text-anchor="start" x="525" y="-288.2" font-family="Helvetica,sans-Serif" font-weight="bold" font-size="11.00">m_tax_component</text>
<text text-anchor="start" x="685" y="-287.2" font-family="Helvetica,sans-Serif" font-size="11.00">[table]</text>
<polygon fill="none" stroke="black" points="520,-257 520,-279 720,-279 720,-257 520,-257"/>
<image xlink:href="../../images/primaryKeys.png" width="11px" height="12px" preserveAspectRatio="xMinYMin meet" x="525" y="-274"/>
<text text-anchor="start" x="540" y="-265.2" font-family="Helvetica,sans-Serif" font-size="11.00">id</text>
<polygon fill="#ffffff" stroke="transparent" points="520,-235 520,-257 720,-257 720,-235 520,-235"/>
<polygon fill="none" stroke="black" points="520,-235 520,-257 720,-257 720,-235 520,-235"/>
<image xlink:href="../../images/foreignKeys.png" width="11px" height="12px" preserveAspectRatio="xMinYMin meet" x="525" y="-252"/>
<text text-anchor="start" x="540" y="-243.2" font-family="Helvetica,sans-Serif" font-size="11.00">debit_account_id</text>
<polygon fill="#ffffff" stroke="transparent" points="520,-213 520,-235 720,-235 720,-213 520,-213"/>
<polygon fill="none" stroke="black" points="520,-213 520,-235 720,-235 720,-213 520,-213"/>
<image xlink:href="../../images/foreignKeys.png" width="11px" height="12px" preserveAspectRatio="xMinYMin meet" x="525" y="-230"/>
<text text-anchor="start" x="540" y="-221.2" font-family="Helvetica,sans-Serif" font-size="11.00">credit_account_id</text>
<polygon fill="#ffffff" stroke="transparent" points="520,-191 520,-213 720,-213 720,-191 520,-191"/>
<polygon fill="none" stroke="black" points="520,-191 520,-213 720,-213 720,-191 520,-191"/>
<image xlink:href="../../images/foreignKeys.png" width="11px" height="12px" preserveAspectRatio="xMinYMin meet" x="525" y="-208"/>
<text text-anchor="start" x="540" y="-199.2" font-family="Helvetica,sans-Serif" font-size="11.00">createdby_id</text>
<polygon fill="#ffffff" stroke="transparent" points="520,-169 520,-191 720,-191 720,-169 520,-169"/>
<polygon fill="none" stroke="black" points="520,-169 520,-191 720,-191 720,-169 520,-169"/>
<image xlink:href="../../images/foreignKeys.png" width="11px" height="12px" preserveAspectRatio="xMinYMin meet" x="525" y="-186"/>
<text text-anchor="start" x="540" y="-177.2" font-family="Helvetica,sans-Serif" font-size="11.00">lastmodifiedby_id</text>
<polygon fill="none" stroke="black" points="520,-151 520,-169 720,-169 720,-151 520,-151"/>
<text text-anchor="start" x="523" y="-157.2" font-family="Helvetica,sans-Serif" font-size="11.00">...</text>
<polygon fill="#ffffff" stroke="transparent" points="520,-133 520,-151 600,-151 600,-133 520,-133"/>
<polygon fill="none" stroke="black" points="520,-133 520,-151 600,-151 600,-133 520,-133"/>
<text text-anchor="start" x="523" y="-139.2" font-family="Helvetica,sans-Serif" font-size="11.00">&lt; 4</text>
<polygon fill="#ffffff" stroke="transparent" points="600,-133 600,-151 668,-151 668,-133 600,-133"/>
<polygon fill="none" stroke="black" points="600,-133 600,-151 668,-151 668,-133 600,-133"/>
<text text-anchor="start" x="632" y="-139.2" font-family="Helvetica,sans-Serif" font-size="11.00">0 rows</text>
<polygon fill="#ffffff" stroke="transparent" points="668,-133 668,-151 720,-151 720,-133 668,-133"/>
<polygon fill="none" stroke="black" points="668,-133 668,-151 720,-151 720,-133 668,-133"/>
<text text-anchor="start" x="701" y="-139.2" font-family="Helvetica,sans-Serif" font-size="11.00">3 &gt;</text>
</a>
</g>
</g>
<!-- m_savings_account_transaction_tax_details&#45;&gt;m_tax_component -->
<g id="edge15" class="edge">
<title>m_savings_account_transaction_tax_details:w&#45;&gt;m_tax_component:e</title>
<path fill="none" stroke="black" d="M775.14,-401.28C732.1,-382.12 782.99,-268 721,-268"/>
<polygon fill="black" stroke="black" points="781.64,-402.51 788.83,-407.54 785.57,-403.26 789.5,-404 789.5,-404 789.5,-404 785.57,-403.26 790.17,-400.46 781.64,-402.51 781.64,-402.51"/>
<ellipse fill="none" stroke="black" cx="778.5" cy="-401.92" rx="3.2" ry="3.2"/>
</g>
<!-- m_tax_component&#45;&gt;acc_gl_account -->
<g id="edge17" class="edge">
<title>m_tax_component:w&#45;&gt;acc_gl_account:e</title>
<path fill="none" stroke="black" d="M504.57,-224.66C459.17,-228.98 445.3,-253 393,-253"/>
<polygon fill="black" stroke="black" points="511.01,-224.37 519.16,-227.6 515,-224.18 519,-224 519,-224 519,-224 515,-224.18 518.84,-220.4 511.01,-224.37 511.01,-224.37"/>
<ellipse fill="none" stroke="black" cx="507.81" cy="-224.51" rx="3.2" ry="3.2"/>
</g>
<!-- m_tax_component&#45;&gt;acc_gl_account -->
<g id="edge18" class="edge">
<title>m_tax_component:w&#45;&gt;acc_gl_account:e</title>
<path fill="none" stroke="black" d="M504.56,-246.17C460.02,-247.23 443.94,-253 393,-253"/>
<polygon fill="black" stroke="black" points="511,-246.09 519.04,-249.6 515,-246.05 519,-246 519,-246 519,-246 515,-246.05 518.96,-242.4 511,-246.09 511,-246.09"/>
<ellipse fill="none" stroke="black" cx="507.8" cy="-246.13" rx="3.2" ry="3.2"/>
</g>
<!-- m_tax_component&#45;&gt;m_appuser -->
<g id="edge16" class="edge">
<title>m_tax_component:w&#45;&gt;m_appuser:e</title>
<path fill="none" stroke="black" d="M504.33,-201.44C454.37,-197.49 438.93,-174 382,-174"/>
<polygon fill="black" stroke="black" points="511.01,-201.7 518.86,-205.6 515,-201.85 519,-202 519,-202 519,-202 515,-201.85 519.14,-198.4 511.01,-201.7 511.01,-201.7"/>
<ellipse fill="none" stroke="black" cx="507.81" cy="-201.57" rx="3.2" ry="3.2"/>
</g>
<!-- m_tax_component&#45;&gt;m_appuser -->
<g id="edge19" class="edge">
<title>m_tax_component:w&#45;&gt;m_appuser:e</title>
<path fill="none" stroke="black" d="M504.56,-179.88C455.19,-179.03 437.83,-174 382,-174"/>
<polygon fill="black" stroke="black" points="511,-179.93 518.97,-183.6 515,-179.97 519,-180 519,-180 519,-180 515,-179.97 519.03,-176.4 511,-179.93 511,-179.93"/>
<ellipse fill="none" stroke="black" cx="507.8" cy="-179.91" rx="3.2" ry="3.2"/>
</g>
<!-- m_tax_component_history -->
<g id="node12" class="node">
<title>m_tax_component_history</title>
<g id="a_node12"><a xlink:href="../../tables/m_tax_component_history.html" xlink:title="m_tax_component_history" target="_top">
<polygon fill="#ffffff" stroke="transparent" points="889.5,-37 889.5,-95 1073.5,-95 1073.5,-37 889.5,-37"/>
<polygon fill="#f5f5f5" stroke="transparent" points="889.5,-73 889.5,-95 1073.5,-95 1073.5,-73 889.5,-73"/>
<polygon fill="none" stroke="black" points="889.5,-73 889.5,-95 1073.5,-95 1073.5,-73 889.5,-73"/>
<text text-anchor="start" x="894.5" y="-82.2" font-family="Helvetica,sans-Serif" font-weight="bold" font-size="11.00">m_tax_component_history</text>
<text text-anchor="start" x="1038.5" y="-81.2" font-family="Helvetica,sans-Serif" font-size="11.00">[table]</text>
<polygon fill="none" stroke="black" points="889.5,-55 889.5,-73 1073.5,-73 1073.5,-55 889.5,-55"/>
<text text-anchor="start" x="892.5" y="-61.2" font-family="Helvetica,sans-Serif" font-size="11.00">...</text>
<polygon fill="#ffffff" stroke="transparent" points="889.5,-37 889.5,-55 966.5,-55 966.5,-37 889.5,-37"/>
<polygon fill="none" stroke="black" points="889.5,-37 889.5,-55 966.5,-55 966.5,-37 889.5,-37"/>
<text text-anchor="start" x="892.5" y="-43.2" font-family="Helvetica,sans-Serif" font-size="11.00">&lt; 3</text>
<polygon fill="#ffffff" stroke="transparent" points="966.5,-37 966.5,-55 1032.5,-55 1032.5,-37 966.5,-37"/>
<polygon fill="none" stroke="black" points="966.5,-37 966.5,-55 1032.5,-55 1032.5,-37 966.5,-37"/>
<text text-anchor="start" x="996.5" y="-43.2" font-family="Helvetica,sans-Serif" font-size="11.00">0 rows</text>
<polygon fill="#ffffff" stroke="transparent" points="1032.5,-37 1032.5,-55 1073.5,-55 1073.5,-37 1032.5,-37"/>
<polygon fill="none" stroke="black" points="1032.5,-37 1032.5,-55 1073.5,-55 1073.5,-37 1032.5,-37"/>
<text text-anchor="start" x="1063.5" y="-43.2" font-family="Helvetica,sans-Serif" font-size="11.00"> &#160;</text>
</a>
</g>
</g>
<!-- m_tax_component_history&#45;&gt;m_appuser -->
<g id="edge20" class="edge">
<title>m_tax_component_history:w&#45;&gt;m_appuser:e</title>
<path fill="none" stroke="black" d="M873.76,-63.99C708.5,-63.66 656.58,-58.68 493,-112 439.27,-129.51 438.51,-174 382,-174"/>
<polygon fill="black" stroke="black" points="880.5,-63.99 888.5,-67.6 884.5,-64 888.5,-64 888.5,-64 888.5,-64 884.5,-64 888.5,-60.4 880.5,-63.99 880.5,-63.99"/>
<ellipse fill="none" stroke="black" cx="877.3" cy="-63.99" rx="3.2" ry="3.2"/>
</g>
<!-- m_tax_component_history&#45;&gt;m_appuser -->
<g id="edge21" class="edge">
<title>m_tax_component_history:w&#45;&gt;m_appuser:e</title>
<path fill="none" stroke="black" d="M873.74,-64C708.33,-63.96 657.26,-64.09 493,-116 439.93,-132.77 437.66,-174 382,-174"/>
<polygon fill="black" stroke="black" points="880.5,-64 888.5,-67.6 884.5,-64 888.5,-64 888.5,-64 888.5,-64 884.5,-64 888.5,-60.4 880.5,-64 880.5,-64"/>
<ellipse fill="none" stroke="black" cx="877.3" cy="-64" rx="3.2" ry="3.2"/>
</g>
<!-- m_tax_component_history&#45;&gt;m_tax_component -->
<g id="edge22" class="edge">
<title>m_tax_component_history:w&#45;&gt;m_tax_component:e</title>
<path fill="none" stroke="black" d="M873.93,-64.18C832.53,-65.33 812.59,-72.75 780,-106 726.36,-160.72 797.63,-268 721,-268"/>
<polygon fill="black" stroke="black" points="880.5,-64.1 888.54,-67.6 884.5,-64.05 888.5,-64 888.5,-64 888.5,-64 884.5,-64.05 888.46,-60.4 880.5,-64.1 880.5,-64.1"/>
<ellipse fill="none" stroke="black" cx="877.3" cy="-64.14" rx="3.2" ry="3.2"/>
</g>
<!-- m_tax_group_mappings -->
<g id="node13" class="node">
<title>m_tax_group_mappings</title>
<g id="a_node13"><a xlink:href="../../tables/m_tax_group_mappings.html" xlink:title="m_tax_group_mappings" target="_top">
<polygon fill="#ffffff" stroke="transparent" points="896,-116 896,-174 1067,-174 1067,-116 896,-116"/>
<polygon fill="#f5f5f5" stroke="transparent" points="896.5,-152 896.5,-174 1067.5,-174 1067.5,-152 896.5,-152"/>
<polygon fill="none" stroke="black" points="896.5,-152 896.5,-174 1067.5,-174 1067.5,-152 896.5,-152"/>
<text text-anchor="start" x="901.5" y="-161.2" font-family="Helvetica,sans-Serif" font-weight="bold" font-size="11.00">m_tax_group_mappings</text>
<text text-anchor="start" x="1032.5" y="-160.2" font-family="Helvetica,sans-Serif" font-size="11.00">[table]</text>
<polygon fill="none" stroke="black" points="896.5,-134 896.5,-152 1067.5,-152 1067.5,-134 896.5,-134"/>
<text text-anchor="start" x="899.5" y="-140.2" font-family="Helvetica,sans-Serif" font-size="11.00">...</text>
<polygon fill="#ffffff" stroke="transparent" points="896.5,-116 896.5,-134 966.5,-134 966.5,-116 896.5,-116"/>
<polygon fill="none" stroke="black" points="896.5,-116 896.5,-134 966.5,-134 966.5,-116 896.5,-116"/>
<text text-anchor="start" x="899.5" y="-122.2" font-family="Helvetica,sans-Serif" font-size="11.00">&lt; 4</text>
<polygon fill="#ffffff" stroke="transparent" points="966.5,-116 966.5,-134 1029.5,-134 1029.5,-116 966.5,-116"/>
<polygon fill="none" stroke="black" points="966.5,-116 966.5,-134 1029.5,-134 1029.5,-116 966.5,-116"/>
<text text-anchor="start" x="993.5" y="-122.2" font-family="Helvetica,sans-Serif" font-size="11.00">0 rows</text>
<polygon fill="#ffffff" stroke="transparent" points="1029.5,-116 1029.5,-134 1067.5,-134 1067.5,-116 1029.5,-116"/>
<polygon fill="none" stroke="black" points="1029.5,-116 1029.5,-134 1067.5,-134 1067.5,-116 1029.5,-116"/>
<text text-anchor="start" x="1057.5" y="-122.2" font-family="Helvetica,sans-Serif" font-size="11.00"> &#160;</text>
</a>
</g>
</g>
<!-- m_tax_group_mappings&#45;&gt;m_appuser -->
<g id="edge23" class="edge">
<title>m_tax_group_mappings:w&#45;&gt;m_appuser:e</title>
<path fill="none" stroke="black" d="M880.78,-142.73C826.18,-140.64 808.26,-127.11 747,-123 634.36,-115.45 603.28,-98.88 493,-123 439.96,-134.6 436.29,-174 382,-174"/>
<polygon fill="black" stroke="black" points="887.5,-142.85 895.43,-146.6 891.5,-142.93 895.5,-143 895.5,-143 895.5,-143 891.5,-142.93 895.57,-139.4 887.5,-142.85 887.5,-142.85"/>
<ellipse fill="none" stroke="black" cx="884.3" cy="-142.79" rx="3.2" ry="3.2"/>
</g>
<!-- m_tax_group_mappings&#45;&gt;m_appuser -->
<g id="edge24" class="edge">
<title>m_tax_group_mappings:w&#45;&gt;m_appuser:e</title>
<path fill="none" stroke="black" d="M880.82,-142.78C826.34,-141.11 808.11,-130.28 747,-127 634.27,-120.94 603.63,-104.54 493,-127 440.5,-137.66 435.57,-174 382,-174"/>
<polygon fill="black" stroke="black" points="887.5,-142.88 895.45,-146.6 891.5,-142.94 895.5,-143 895.5,-143 895.5,-143 891.5,-142.94 895.55,-139.4 887.5,-142.88 887.5,-142.88"/>
<ellipse fill="none" stroke="black" cx="884.3" cy="-142.83" rx="3.2" ry="3.2"/>
</g>
<!-- m_tax_group_mappings&#45;&gt;m_tax_component -->
<g id="edge25" class="edge">
<title>m_tax_group_mappings:w&#45;&gt;m_tax_component:e</title>
<path fill="none" stroke="black" d="M880.81,-144.08C801.55,-156.3 811.18,-268 721,-268"/>
<polygon fill="black" stroke="black" points="887.52,-143.59 895.76,-146.59 891.51,-143.29 895.5,-143 895.5,-143 895.5,-143 891.51,-143.29 895.24,-139.41 887.52,-143.59 887.52,-143.59"/>
<ellipse fill="none" stroke="black" cx="884.33" cy="-143.82" rx="3.2" ry="3.2"/>
</g>
</g>
</svg>
