<?xml version="1.0" encoding="UTF-8" standalone="no"?>
<!DOCTYPE svg PUBLIC "-//W3C//DTD SVG 1.1//EN"
 "http://www.w3.org/Graphics/SVG/1.1/DTD/svg11.dtd">
<!-- Generated by graphviz version 2.43.0 (0)
 -->
<!-- Title: oneDegreeRelationshipsDiagram Pages: 1 -->
<svg width="655pt" height="384pt"
 viewBox="0.00 0.00 655.00 384.00" xmlns="http://www.w3.org/2000/svg" xmlns:xlink="http://www.w3.org/1999/xlink">
<g id="graph0" class="graph" transform="scale(1 1) rotate(0) translate(4 380)">
<title>oneDegreeRelationshipsDiagram</title>
<polygon fill="#ffffff" stroke="transparent" points="-4,4 -4,-380 651,-380 651,4 -4,4"/>
<text text-anchor="middle" x="71.5" y="-7.2" font-family="Helvetica,sans-Serif" font-size="11.00">Generated by SchemaSpy</text>
<!-- m_savings_product_charge -->
<g id="node1" class="node">
<title>m_savings_product_charge</title>
<g id="a_node1"><a xlink:href="../../tables/m_savings_product_charge.html" xlink:title="m_savings_product_charge" target="_top">
<polygon fill="#ffffff" stroke="transparent" points="383,-213 383,-301 639,-301 639,-213 383,-213"/>
<polygon fill="#f5f5f5" stroke="transparent" points="385,-277 385,-299 637,-299 637,-277 385,-277"/>
<polygon fill="none" stroke="black" points="385,-277 385,-299 637,-299 637,-277 385,-277"/>
<text text-anchor="start" x="390" y="-286.2" font-family="Helvetica,sans-Serif" font-weight="bold" font-size="11.00">m_savings_product_charge</text>
<text text-anchor="start" x="602" y="-285.2" font-family="Helvetica,sans-Serif" font-size="11.00">[table]</text>
<polygon fill="none" stroke="black" points="385,-255 385,-277 587,-277 587,-255 385,-255"/>
<image xlink:href="../../images/primaryKeys.png" width="11px" height="12px" preserveAspectRatio="xMinYMin meet" x="390" y="-272"/>
<text text-anchor="start" x="405" y="-263.2" font-family="Helvetica,sans-Serif" font-size="11.00">savings_product_id</text>
<polygon fill="none" stroke="black" points="587,-255 587,-277 637,-277 637,-255 587,-255"/>
<text text-anchor="start" x="590" y="-263.2" font-family="Helvetica,sans-Serif" font-size="11.00">bigint[19]</text>
<polygon fill="none" stroke="black" points="385,-233 385,-255 587,-255 587,-233 385,-233"/>
<image xlink:href="../../images/primaryKeys.png" width="11px" height="12px" preserveAspectRatio="xMinYMin meet" x="390" y="-250"/>
<text text-anchor="start" x="405" y="-241.2" font-family="Helvetica,sans-Serif" font-size="11.00">charge_id</text>
<polygon fill="none" stroke="black" points="587,-233 587,-255 637,-255 637,-233 587,-233"/>
<text text-anchor="start" x="590" y="-241.2" font-family="Helvetica,sans-Serif" font-size="11.00">bigint[19]</text>
<polygon fill="#ffffff" stroke="transparent" points="385,-215 385,-233 477,-233 477,-215 385,-215"/>
<polygon fill="none" stroke="black" points="385,-215 385,-233 477,-233 477,-215 385,-215"/>
<text text-anchor="start" x="388" y="-221.2" font-family="Helvetica,sans-Serif" font-size="11.00">&lt; 2</text>
<polygon fill="#ffffff" stroke="transparent" points="477,-215 477,-233 587,-233 587,-215 477,-215"/>
<polygon fill="none" stroke="black" points="477,-215 477,-233 587,-233 587,-215 477,-215"/>
<text text-anchor="start" x="551" y="-221.2" font-family="Helvetica,sans-Serif" font-size="11.00">0 rows</text>
<polygon fill="#ffffff" stroke="transparent" points="587,-215 587,-233 637,-233 637,-215 587,-215"/>
<polygon fill="none" stroke="black" points="587,-215 587,-233 637,-233 637,-215 587,-215"/>
<text text-anchor="start" x="618" y="-221.2" font-family="Helvetica,sans-Serif" font-size="11.00">0 &gt;</text>
<polygon fill="none" stroke="black" stroke-width="2" points="384,-214 384,-300 638,-300 638,-214 384,-214"/>
</a>
</g>
</g>
<!-- m_charge -->
<g id="node2" class="node">
<title>m_charge</title>
<g id="a_node2"><a xlink:href="../../tables/m_charge.html" xlink:title="m_charge" target="_top">
<polygon fill="#ffffff" stroke="transparent" points="43,-37 43,-205 299,-205 299,-37 43,-37"/>
<polygon fill="#f5f5f5" stroke="transparent" points="43,-183 43,-205 299,-205 299,-183 43,-183"/>
<polygon fill="none" stroke="black" points="43,-183 43,-205 299,-205 299,-183 43,-183"/>
<text text-anchor="start" x="48" y="-192.2" font-family="Helvetica,sans-Serif" font-weight="bold" font-size="11.00">m_charge</text>
<text text-anchor="start" x="264" y="-191.2" font-family="Helvetica,sans-Serif" font-size="11.00">[table]</text>
<polygon fill="none" stroke="black" points="43,-161 43,-183 299,-183 299,-161 43,-161"/>
<image xlink:href="../../images/primaryKeys.png" width="11px" height="12px" preserveAspectRatio="xMinYMin meet" x="48" y="-178"/>
<text text-anchor="start" x="63" y="-169.2" font-family="Helvetica,sans-Serif" font-size="11.00">id</text>
<polygon fill="#ffffff" stroke="transparent" points="43,-139 43,-161 299,-161 299,-139 43,-139"/>
<polygon fill="none" stroke="black" points="43,-139 43,-161 299,-161 299,-139 43,-139"/>
<text text-anchor="start" x="63" y="-147.2" font-family="Helvetica,sans-Serif" font-size="11.00">name</text>
<polygon fill="#ffffff" stroke="transparent" points="43,-117 43,-139 299,-139 299,-117 43,-117"/>
<polygon fill="none" stroke="black" points="43,-117 43,-139 299,-139 299,-117 43,-117"/>
<image xlink:href="../../images/foreignKeys.png" width="11px" height="12px" preserveAspectRatio="xMinYMin meet" x="48" y="-134"/>
<text text-anchor="start" x="63" y="-125.2" font-family="Helvetica,sans-Serif" font-size="11.00">payment_type_id</text>
<polygon fill="#ffffff" stroke="transparent" points="43,-95 43,-117 299,-117 299,-95 43,-95"/>
<polygon fill="none" stroke="black" points="43,-95 43,-117 299,-117 299,-95 43,-95"/>
<image xlink:href="../../images/foreignKeys.png" width="11px" height="12px" preserveAspectRatio="xMinYMin meet" x="48" y="-112"/>
<text text-anchor="start" x="63" y="-103.2" font-family="Helvetica,sans-Serif" font-size="11.00">income_or_liability_account_id</text>
<polygon fill="#ffffff" stroke="transparent" points="43,-73 43,-95 299,-95 299,-73 43,-73"/>
<polygon fill="none" stroke="black" points="43,-73 43,-95 299,-95 299,-73 43,-73"/>
<image xlink:href="../../images/foreignKeys.png" width="11px" height="12px" preserveAspectRatio="xMinYMin meet" x="48" y="-90"/>
<text text-anchor="start" x="63" y="-81.2" font-family="Helvetica,sans-Serif" font-size="11.00">tax_group_id</text>
<polygon fill="none" stroke="black" points="43,-55 43,-73 299,-73 299,-55 43,-55"/>
<text text-anchor="start" x="46" y="-61.2" font-family="Helvetica,sans-Serif" font-size="11.00">...</text>
<polygon fill="#ffffff" stroke="transparent" points="43,-37 43,-55 151,-55 151,-37 43,-37"/>
<polygon fill="none" stroke="black" points="43,-37 43,-55 151,-55 151,-37 43,-37"/>
<text text-anchor="start" x="46" y="-43.2" font-family="Helvetica,sans-Serif" font-size="11.00">&lt; 3</text>
<polygon fill="#ffffff" stroke="transparent" points="151,-37 151,-55 233,-55 233,-37 151,-37"/>
<polygon fill="none" stroke="black" points="151,-37 151,-55 233,-55 233,-37 151,-37"/>
<text text-anchor="start" x="197" y="-43.2" font-family="Helvetica,sans-Serif" font-size="11.00">0 rows</text>
<polygon fill="#ffffff" stroke="transparent" points="233,-37 233,-55 299,-55 299,-37 233,-37"/>
<polygon fill="none" stroke="black" points="233,-37 233,-55 299,-55 299,-37 233,-37"/>
<text text-anchor="start" x="280" y="-43.2" font-family="Helvetica,sans-Serif" font-size="11.00">9 &gt;</text>
</a>
</g>
</g>
<!-- m_savings_product_charge&#45;&gt;m_charge -->
<g id="edge1" class="edge">
<title>m_savings_product_charge:w&#45;&gt;m_charge:e</title>
<path fill="none" stroke="black" d="M369.55,-241.44C337.26,-228.61 343.6,-172 300,-172"/>
<polygon fill="black" stroke="black" points="376.12,-242.6 383.37,-247.54 380.06,-243.3 384,-244 384,-244 384,-244 380.06,-243.3 384.63,-240.46 376.12,-242.6 376.12,-242.6"/>
<ellipse fill="none" stroke="black" cx="372.97" cy="-242.04" rx="3.2" ry="3.2"/>
</g>
<!-- m_savings_product -->
<g id="node3" class="node">
<title>m_savings_product</title>
<g id="a_node3"><a xlink:href="../../tables/m_savings_product.html" xlink:title="m_savings_product" target="_top">
<polygon fill="#ffffff" stroke="transparent" points="8,-226 8,-372 334,-372 334,-226 8,-226"/>
<polygon fill="#f5f5f5" stroke="transparent" points="8,-350 8,-372 334,-372 334,-350 8,-350"/>
<polygon fill="none" stroke="black" points="8,-350 8,-372 334,-372 334,-350 8,-350"/>
<text text-anchor="start" x="13" y="-359.2" font-family="Helvetica,sans-Serif" font-weight="bold" font-size="11.00">m_savings_product</text>
<text text-anchor="start" x="299" y="-358.2" font-family="Helvetica,sans-Serif" font-size="11.00">[table]</text>
<polygon fill="none" stroke="black" points="8,-328 8,-350 334,-350 334,-328 8,-328"/>
<image xlink:href="../../images/primaryKeys.png" width="11px" height="12px" preserveAspectRatio="xMinYMin meet" x="13" y="-345"/>
<text text-anchor="start" x="28" y="-336.2" font-family="Helvetica,sans-Serif" font-size="11.00">id</text>
<polygon fill="#ffffff" stroke="transparent" points="8,-306 8,-328 334,-328 334,-306 8,-306"/>
<polygon fill="none" stroke="black" points="8,-306 8,-328 334,-328 334,-306 8,-306"/>
<text text-anchor="start" x="28" y="-314.2" font-family="Helvetica,sans-Serif" font-size="11.00">name</text>
<polygon fill="#ffffff" stroke="transparent" points="8,-284 8,-306 334,-306 334,-284 8,-284"/>
<polygon fill="none" stroke="black" points="8,-284 8,-306 334,-306 334,-284 8,-284"/>
<text text-anchor="start" x="28" y="-292.2" font-family="Helvetica,sans-Serif" font-size="11.00">short_name</text>
<polygon fill="#ffffff" stroke="transparent" points="8,-262 8,-284 334,-284 334,-262 8,-262"/>
<polygon fill="none" stroke="black" points="8,-262 8,-284 334,-284 334,-262 8,-262"/>
<image xlink:href="../../images/foreignKeys.png" width="11px" height="12px" preserveAspectRatio="xMinYMin meet" x="13" y="-279"/>
<text text-anchor="start" x="28" y="-270.2" font-family="Helvetica,sans-Serif" font-size="11.00">tax_group_id</text>
<polygon fill="none" stroke="black" points="8,-244 8,-262 334,-262 334,-244 8,-244"/>
<text text-anchor="start" x="11" y="-250.2" font-family="Helvetica,sans-Serif" font-size="11.00">...</text>
<polygon fill="#ffffff" stroke="transparent" points="8,-226 8,-244 151,-244 151,-226 8,-226"/>
<polygon fill="none" stroke="black" points="8,-226 8,-244 151,-244 151,-226 8,-226"/>
<text text-anchor="start" x="11" y="-232.2" font-family="Helvetica,sans-Serif" font-size="11.00">&lt; 1</text>
<polygon fill="#ffffff" stroke="transparent" points="151,-226 151,-244 251,-244 251,-226 151,-226"/>
<polygon fill="none" stroke="black" points="151,-226 151,-244 251,-244 251,-226 151,-226"/>
<text text-anchor="start" x="215" y="-232.2" font-family="Helvetica,sans-Serif" font-size="11.00">0 rows</text>
<polygon fill="#ffffff" stroke="transparent" points="251,-226 251,-244 334,-244 334,-226 251,-226"/>
<polygon fill="none" stroke="black" points="251,-226 251,-244 334,-244 334,-226 251,-226"/>
<text text-anchor="start" x="315" y="-232.2" font-family="Helvetica,sans-Serif" font-size="11.00">6 &gt;</text>
</a>
</g>
</g>
<!-- m_savings_product_charge&#45;&gt;m_savings_product -->
<g id="edge2" class="edge">
<title>m_savings_product_charge:w&#45;&gt;m_savings_product:e</title>
<path fill="none" stroke="black" d="M370.16,-270.79C352.37,-287.03 367.97,-339 335,-339"/>
<polygon fill="black" stroke="black" points="376.44,-268.62 385.18,-269.4 380.22,-267.31 384,-266 384,-266 384,-266 380.22,-267.31 382.82,-262.6 376.44,-268.62 376.44,-268.62"/>
<ellipse fill="none" stroke="black" cx="373.42" cy="-269.66" rx="3.2" ry="3.2"/>
</g>
</g>
</svg>
