<?xml version="1.0" encoding="UTF-8" standalone="no"?>
<!DOCTYPE svg PUBLIC "-//W3C//DTD SVG 1.1//EN"
 "http://www.w3.org/Graphics/SVG/1.1/DTD/svg11.dtd">
<!-- Generated by graphviz version 2.43.0 (0)
 -->
<!-- Title: twoDegreesRelationshipsDiagram Pages: 1 -->
<svg width="1240pt" height="333pt"
 viewBox="0.00 0.00 1240.00 333.00" xmlns="http://www.w3.org/2000/svg" xmlns:xlink="http://www.w3.org/1999/xlink">
<g id="graph0" class="graph" transform="scale(1 1) rotate(0) translate(4 329)">
<title>twoDegreesRelationshipsDiagram</title>
<polygon fill="#ffffff" stroke="transparent" points="-4,4 -4,-329 1236,-329 1236,4 -4,4"/>
<text text-anchor="middle" x="71.5" y="-7.2" font-family="Helvetica,sans-Serif" font-size="11.00">Generated by SchemaSpy</text>
<!-- m_savings_account_interest_rate_chart -->
<g id="node1" class="node">
<title>m_savings_account_interest_rate_chart</title>
<g id="a_node1"><a xlink:href="../../tables/m_savings_account_interest_rate_chart.html" xlink:title="m_savings_account_interest_rate_chart" target="_top">
<polygon fill="#ffffff" stroke="transparent" points="206,-175 206,-277 491,-277 491,-175 206,-175"/>
<polygon fill="#f5f5f5" stroke="transparent" points="206.5,-255 206.5,-277 491.5,-277 491.5,-255 206.5,-255"/>
<polygon fill="none" stroke="black" points="206.5,-255 206.5,-277 491.5,-277 491.5,-255 206.5,-255"/>
<text text-anchor="start" x="211.5" y="-264.2" font-family="Helvetica,sans-Serif" font-weight="bold" font-size="11.00">m_savings_account_interest_rate_chart</text>
<text text-anchor="start" x="456.5" y="-263.2" font-family="Helvetica,sans-Serif" font-size="11.00">[table]</text>
<polygon fill="none" stroke="black" points="206.5,-233 206.5,-255 491.5,-255 491.5,-233 206.5,-233"/>
<image xlink:href="../../images/primaryKeys.png" width="11px" height="12px" preserveAspectRatio="xMinYMin meet" x="211.5" y="-250"/>
<text text-anchor="start" x="226.5" y="-241.2" font-family="Helvetica,sans-Serif" font-size="11.00">id</text>
<polygon fill="#ffffff" stroke="transparent" points="206.5,-211 206.5,-233 491.5,-233 491.5,-211 206.5,-211"/>
<polygon fill="none" stroke="black" points="206.5,-211 206.5,-233 491.5,-233 491.5,-211 206.5,-211"/>
<image xlink:href="../../images/foreignKeys.png" width="11px" height="12px" preserveAspectRatio="xMinYMin meet" x="211.5" y="-228"/>
<text text-anchor="start" x="226.5" y="-219.2" font-family="Helvetica,sans-Serif" font-size="11.00">savings_account_id</text>
<polygon fill="none" stroke="black" points="206.5,-193 206.5,-211 491.5,-211 491.5,-193 206.5,-193"/>
<text text-anchor="start" x="209.5" y="-199.2" font-family="Helvetica,sans-Serif" font-size="11.00">...</text>
<polygon fill="#ffffff" stroke="transparent" points="206.5,-175 206.5,-193 329.5,-193 329.5,-175 206.5,-175"/>
<polygon fill="none" stroke="black" points="206.5,-175 206.5,-193 329.5,-193 329.5,-175 206.5,-175"/>
<text text-anchor="start" x="209.5" y="-181.2" font-family="Helvetica,sans-Serif" font-size="11.00">&lt; 1</text>
<polygon fill="#ffffff" stroke="transparent" points="329.5,-175 329.5,-193 418.5,-193 418.5,-175 329.5,-175"/>
<polygon fill="none" stroke="black" points="329.5,-175 329.5,-193 418.5,-193 418.5,-175 329.5,-175"/>
<text text-anchor="start" x="382.5" y="-181.2" font-family="Helvetica,sans-Serif" font-size="11.00">0 rows</text>
<polygon fill="#ffffff" stroke="transparent" points="418.5,-175 418.5,-193 491.5,-193 491.5,-175 418.5,-175"/>
<polygon fill="none" stroke="black" points="418.5,-175 418.5,-193 491.5,-193 491.5,-175 418.5,-175"/>
<text text-anchor="start" x="472.5" y="-181.2" font-family="Helvetica,sans-Serif" font-size="11.00">1 &gt;</text>
</a>
</g>
</g>
<!-- m_savings_account -->
<g id="node2" class="node">
<title>m_savings_account</title>
<g id="a_node2"><a xlink:href="../../tables/m_savings_account.html" xlink:title="m_savings_account" target="_top">
<polygon fill="#ffffff" stroke="transparent" points="8,-195 8,-253 157,-253 157,-195 8,-195"/>
<polygon fill="#f5f5f5" stroke="transparent" points="8.5,-231 8.5,-253 157.5,-253 157.5,-231 8.5,-231"/>
<polygon fill="none" stroke="black" points="8.5,-231 8.5,-253 157.5,-253 157.5,-231 8.5,-231"/>
<text text-anchor="start" x="13.5" y="-240.2" font-family="Helvetica,sans-Serif" font-weight="bold" font-size="11.00">m_savings_account</text>
<text text-anchor="start" x="122.5" y="-239.2" font-family="Helvetica,sans-Serif" font-size="11.00">[table]</text>
<polygon fill="none" stroke="black" points="8.5,-213 8.5,-231 157.5,-231 157.5,-213 8.5,-213"/>
<text text-anchor="start" x="11.5" y="-219.2" font-family="Helvetica,sans-Serif" font-size="11.00">...</text>
<polygon fill="#ffffff" stroke="transparent" points="8.5,-195 8.5,-213 60.5,-213 60.5,-195 8.5,-195"/>
<polygon fill="none" stroke="black" points="8.5,-195 8.5,-213 60.5,-213 60.5,-195 8.5,-195"/>
<text text-anchor="start" x="11.5" y="-201.2" font-family="Helvetica,sans-Serif" font-size="11.00">&lt; 5</text>
<polygon fill="#ffffff" stroke="transparent" points="60.5,-195 60.5,-213 114.5,-213 114.5,-195 60.5,-195"/>
<polygon fill="none" stroke="black" points="60.5,-195 60.5,-213 114.5,-213 114.5,-195 60.5,-195"/>
<text text-anchor="start" x="78.5" y="-201.2" font-family="Helvetica,sans-Serif" font-size="11.00">0 rows</text>
<polygon fill="#ffffff" stroke="transparent" points="114.5,-195 114.5,-213 157.5,-213 157.5,-195 114.5,-195"/>
<polygon fill="none" stroke="black" points="114.5,-195 114.5,-213 157.5,-213 157.5,-195 114.5,-195"/>
<text text-anchor="start" x="132.5" y="-201.2" font-family="Helvetica,sans-Serif" font-size="11.00">17 &gt;</text>
</a>
</g>
</g>
<!-- m_savings_account_interest_rate_chart&#45;&gt;m_savings_account -->
<g id="edge1" class="edge">
<title>m_savings_account_interest_rate_chart:w&#45;&gt;m_savings_account:e</title>
<path fill="none" stroke="black" d="M190.9,-222C180.43,-222 173.51,-222 158.5,-222"/>
<polygon fill="black" stroke="black" points="197.5,-222 205.5,-225.6 201.5,-222 205.5,-222 205.5,-222 205.5,-222 201.5,-222 205.5,-218.4 197.5,-222 197.5,-222"/>
<ellipse fill="none" stroke="black" cx="194.3" cy="-222" rx="3.2" ry="3.2"/>
</g>
<!-- m_savings_account_interest_rate_slab -->
<g id="node3" class="node">
<title>m_savings_account_interest_rate_slab</title>
<g id="a_node3"><a xlink:href="../../tables/m_savings_account_interest_rate_slab.html" xlink:title="m_savings_account_interest_rate_slab" target="_top">
<polygon fill="#ffffff" stroke="transparent" points="540,-37 540,-301 899,-301 899,-37 540,-37"/>
<polygon fill="#f5f5f5" stroke="transparent" points="542.5,-277 542.5,-299 897.5,-299 897.5,-277 542.5,-277"/>
<polygon fill="none" stroke="black" points="542.5,-277 542.5,-299 897.5,-299 897.5,-277 542.5,-277"/>
<text text-anchor="start" x="547.5" y="-286.2" font-family="Helvetica,sans-Serif" font-weight="bold" font-size="11.00">m_savings_account_interest_rate_slab</text>
<text text-anchor="start" x="862.5" y="-285.2" font-family="Helvetica,sans-Serif" font-size="11.00">[table]</text>
<polygon fill="none" stroke="black" points="542.5,-255 542.5,-277 827.5,-277 827.5,-255 542.5,-255"/>
<image xlink:href="../../images/primaryKeys.png" width="11px" height="12px" preserveAspectRatio="xMinYMin meet" x="547.5" y="-272"/>
<text text-anchor="start" x="562.5" y="-263.2" font-family="Helvetica,sans-Serif" font-size="11.00">id</text>
<polygon fill="none" stroke="black" points="827.5,-255 827.5,-277 897.5,-277 897.5,-255 827.5,-255"/>
<text text-anchor="start" x="830.5" y="-263.2" font-family="Helvetica,sans-Serif" font-size="11.00">bigint[19]</text>
<polygon fill="#ffffff" stroke="transparent" points="542.5,-233 542.5,-255 827.5,-255 827.5,-233 542.5,-233"/>
<polygon fill="none" stroke="black" points="542.5,-233 542.5,-255 827.5,-255 827.5,-233 542.5,-233"/>
<image xlink:href="../../images/foreignKeys.png" width="11px" height="12px" preserveAspectRatio="xMinYMin meet" x="547.5" y="-250"/>
<text text-anchor="start" x="562.5" y="-241.2" font-family="Helvetica,sans-Serif" font-size="11.00">savings_account_interest_rate_chart_id</text>
<polygon fill="none" stroke="black" points="827.5,-233 827.5,-255 897.5,-255 897.5,-233 827.5,-233"/>
<text text-anchor="start" x="830.5" y="-241.2" font-family="Helvetica,sans-Serif" font-size="11.00">bigint[19]</text>
<polygon fill="none" stroke="black" points="542.5,-211 542.5,-233 827.5,-233 827.5,-211 542.5,-211"/>
<text text-anchor="start" x="562.5" y="-219.2" font-family="Helvetica,sans-Serif" font-size="11.00">description</text>
<polygon fill="none" stroke="black" points="827.5,-211 827.5,-233 897.5,-233 897.5,-211 827.5,-211"/>
<text text-anchor="start" x="830.5" y="-219.2" font-family="Helvetica,sans-Serif" font-size="11.00">varchar[200]</text>
<polygon fill="none" stroke="black" points="542.5,-189 542.5,-211 827.5,-211 827.5,-189 542.5,-189"/>
<text text-anchor="start" x="562.5" y="-197.2" font-family="Helvetica,sans-Serif" font-size="11.00">period_type_enum</text>
<polygon fill="none" stroke="black" points="827.5,-189 827.5,-211 897.5,-211 897.5,-189 827.5,-189"/>
<text text-anchor="start" x="830.5" y="-197.2" font-family="Helvetica,sans-Serif" font-size="11.00">smallint[5]</text>
<polygon fill="none" stroke="black" points="542.5,-167 542.5,-189 827.5,-189 827.5,-167 542.5,-167"/>
<text text-anchor="start" x="562.5" y="-175.2" font-family="Helvetica,sans-Serif" font-size="11.00">from_period</text>
<polygon fill="none" stroke="black" points="827.5,-167 827.5,-189 897.5,-189 897.5,-167 827.5,-167"/>
<text text-anchor="start" x="830.5" y="-175.2" font-family="Helvetica,sans-Serif" font-size="11.00">int[10]</text>
<polygon fill="none" stroke="black" points="542.5,-145 542.5,-167 827.5,-167 827.5,-145 542.5,-145"/>
<text text-anchor="start" x="562.5" y="-153.2" font-family="Helvetica,sans-Serif" font-size="11.00">to_period</text>
<polygon fill="none" stroke="black" points="827.5,-145 827.5,-167 897.5,-167 897.5,-145 827.5,-145"/>
<text text-anchor="start" x="830.5" y="-153.2" font-family="Helvetica,sans-Serif" font-size="11.00">int[10]</text>
<polygon fill="none" stroke="black" points="542.5,-123 542.5,-145 827.5,-145 827.5,-123 542.5,-123"/>
<text text-anchor="start" x="562.5" y="-131.2" font-family="Helvetica,sans-Serif" font-size="11.00">amount_range_from</text>
<polygon fill="none" stroke="black" points="827.5,-123 827.5,-145 897.5,-145 897.5,-123 827.5,-123"/>
<text text-anchor="start" x="830.5" y="-131.2" font-family="Helvetica,sans-Serif" font-size="11.00">decimal[19,6]</text>
<polygon fill="none" stroke="black" points="542.5,-101 542.5,-123 827.5,-123 827.5,-101 542.5,-101"/>
<text text-anchor="start" x="562.5" y="-109.2" font-family="Helvetica,sans-Serif" font-size="11.00">amount_range_to</text>
<polygon fill="none" stroke="black" points="827.5,-101 827.5,-123 897.5,-123 897.5,-101 827.5,-101"/>
<text text-anchor="start" x="830.5" y="-109.2" font-family="Helvetica,sans-Serif" font-size="11.00">decimal[19,6]</text>
<polygon fill="none" stroke="black" points="542.5,-79 542.5,-101 827.5,-101 827.5,-79 542.5,-79"/>
<text text-anchor="start" x="562.5" y="-87.2" font-family="Helvetica,sans-Serif" font-size="11.00">annual_interest_rate</text>
<polygon fill="none" stroke="black" points="827.5,-79 827.5,-101 897.5,-101 897.5,-79 827.5,-79"/>
<text text-anchor="start" x="830.5" y="-87.2" font-family="Helvetica,sans-Serif" font-size="11.00">decimal[19,6]</text>
<polygon fill="none" stroke="black" points="542.5,-57 542.5,-79 827.5,-79 827.5,-57 542.5,-57"/>
<text text-anchor="start" x="562.5" y="-65.2" font-family="Helvetica,sans-Serif" font-size="11.00">currency_code</text>
<polygon fill="none" stroke="black" points="827.5,-57 827.5,-79 897.5,-79 897.5,-57 827.5,-57"/>
<text text-anchor="start" x="830.5" y="-65.2" font-family="Helvetica,sans-Serif" font-size="11.00">varchar[3]</text>
<polygon fill="#ffffff" stroke="transparent" points="542.5,-39 542.5,-57 676.5,-57 676.5,-39 542.5,-39"/>
<polygon fill="none" stroke="black" points="542.5,-39 542.5,-57 676.5,-57 676.5,-39 542.5,-39"/>
<text text-anchor="start" x="545.5" y="-45.2" font-family="Helvetica,sans-Serif" font-size="11.00">&lt; 1</text>
<polygon fill="#ffffff" stroke="transparent" points="676.5,-39 676.5,-57 827.5,-57 827.5,-39 676.5,-39"/>
<polygon fill="none" stroke="black" points="676.5,-39 676.5,-57 827.5,-57 827.5,-39 676.5,-39"/>
<text text-anchor="start" x="791.5" y="-45.2" font-family="Helvetica,sans-Serif" font-size="11.00">0 rows</text>
<polygon fill="#ffffff" stroke="transparent" points="827.5,-39 827.5,-57 897.5,-57 897.5,-39 827.5,-39"/>
<polygon fill="none" stroke="black" points="827.5,-39 827.5,-57 897.5,-57 897.5,-39 827.5,-39"/>
<text text-anchor="start" x="878.5" y="-45.2" font-family="Helvetica,sans-Serif" font-size="11.00">1 &gt;</text>
<polygon fill="none" stroke="black" stroke-width="2" points="541,-38 541,-300 898,-300 898,-38 541,-38"/>
</a>
</g>
</g>
<!-- m_savings_account_interest_rate_slab&#45;&gt;m_savings_account_interest_rate_chart -->
<g id="edge2" class="edge">
<title>m_savings_account_interest_rate_slab:w&#45;&gt;m_savings_account_interest_rate_chart:e</title>
<path fill="none" stroke="black" d="M526.99,-244C515.68,-244 508.49,-244 492.5,-244"/>
<polygon fill="black" stroke="black" points="533.5,-244 541.5,-247.6 537.5,-244 541.5,-244 541.5,-244 541.5,-244 537.5,-244 541.5,-240.4 533.5,-244 533.5,-244"/>
<ellipse fill="none" stroke="black" cx="530.3" cy="-244" rx="3.2" ry="3.2"/>
</g>
<!-- m_savings_interest_incentives -->
<g id="node4" class="node">
<title>m_savings_interest_incentives</title>
<g id="a_node4"><a xlink:href="../../tables/m_savings_interest_incentives.html" xlink:title="m_savings_interest_incentives" target="_top">
<polygon fill="#ffffff" stroke="transparent" points="948,-219 948,-321 1224,-321 1224,-219 948,-219"/>
<polygon fill="#f5f5f5" stroke="transparent" points="948,-299 948,-321 1224,-321 1224,-299 948,-299"/>
<polygon fill="none" stroke="black" points="948,-299 948,-321 1224,-321 1224,-299 948,-299"/>
<text text-anchor="start" x="953" y="-308.2" font-family="Helvetica,sans-Serif" font-weight="bold" font-size="11.00">m_savings_interest_incentives</text>
<text text-anchor="start" x="1189" y="-307.2" font-family="Helvetica,sans-Serif" font-size="11.00">[table]</text>
<polygon fill="none" stroke="black" points="948,-277 948,-299 1224,-299 1224,-277 948,-277"/>
<image xlink:href="../../images/primaryKeys.png" width="11px" height="12px" preserveAspectRatio="xMinYMin meet" x="953" y="-294"/>
<text text-anchor="start" x="968" y="-285.2" font-family="Helvetica,sans-Serif" font-size="11.00">id</text>
<polygon fill="#ffffff" stroke="transparent" points="948,-255 948,-277 1224,-277 1224,-255 948,-255"/>
<polygon fill="none" stroke="black" points="948,-255 948,-277 1224,-277 1224,-255 948,-255"/>
<image xlink:href="../../images/foreignKeys.png" width="11px" height="12px" preserveAspectRatio="xMinYMin meet" x="953" y="-272"/>
<text text-anchor="start" x="968" y="-263.2" font-family="Helvetica,sans-Serif" font-size="11.00">deposit_account_interest_rate_slab_id</text>
<polygon fill="none" stroke="black" points="948,-237 948,-255 1224,-255 1224,-237 948,-237"/>
<text text-anchor="start" x="951" y="-243.2" font-family="Helvetica,sans-Serif" font-size="11.00">...</text>
<polygon fill="#ffffff" stroke="transparent" points="948,-219 948,-237 1071,-237 1071,-219 948,-219"/>
<polygon fill="none" stroke="black" points="948,-219 948,-237 1071,-237 1071,-219 948,-219"/>
<text text-anchor="start" x="951" y="-225.2" font-family="Helvetica,sans-Serif" font-size="11.00">&lt; 1</text>
<polygon fill="#ffffff" stroke="transparent" points="1071,-219 1071,-237 1160,-237 1160,-219 1071,-219"/>
<polygon fill="none" stroke="black" points="1071,-219 1071,-237 1160,-237 1160,-219 1071,-219"/>
<text text-anchor="start" x="1124" y="-225.2" font-family="Helvetica,sans-Serif" font-size="11.00">0 rows</text>
<polygon fill="#ffffff" stroke="transparent" points="1160,-219 1160,-237 1224,-237 1224,-219 1160,-219"/>
<polygon fill="none" stroke="black" points="1160,-219 1160,-237 1224,-237 1224,-219 1160,-219"/>
<text text-anchor="start" x="1214" y="-225.2" font-family="Helvetica,sans-Serif" font-size="11.00"> &#160;</text>
</a>
</g>
</g>
<!-- m_savings_interest_incentives&#45;&gt;m_savings_account_interest_rate_slab -->
<g id="edge3" class="edge">
<title>m_savings_interest_incentives:w&#45;&gt;m_savings_account_interest_rate_slab:e</title>
<path fill="none" stroke="black" d="M932.28,-266C921.29,-266 914.16,-266 898.5,-266"/>
<polygon fill="black" stroke="black" points="939,-266 947,-269.6 943,-266 947,-266 947,-266 947,-266 943,-266 947,-262.4 939,-266 939,-266"/>
<ellipse fill="none" stroke="black" cx="935.8" cy="-266" rx="3.2" ry="3.2"/>
</g>
</g>
</svg>
