<?xml version="1.0" encoding="UTF-8" standalone="no"?>
<!DOCTYPE svg PUBLIC "-//W3C//DTD SVG 1.1//EN"
 "http://www.w3.org/Graphics/SVG/1.1/DTD/svg11.dtd">
<!-- Generated by graphviz version 2.43.0 (0)
 -->
<!-- Title: twoDegreesRelationshipsDiagram Pages: 1 -->
<svg width="1011pt" height="269pt"
 viewBox="0.00 0.00 1011.00 269.00" xmlns="http://www.w3.org/2000/svg" xmlns:xlink="http://www.w3.org/1999/xlink">
<g id="graph0" class="graph" transform="scale(1 1) rotate(0) translate(4 265)">
<title>twoDegreesRelationshipsDiagram</title>
<polygon fill="#ffffff" stroke="transparent" points="-4,4 -4,-265 1007,-265 1007,4 -4,4"/>
<text text-anchor="middle" x="71.5" y="-7.2" font-family="Helvetica,sans-Serif" font-size="11.00">Generated by SchemaSpy</text>
<!-- m_savings_account_interest_rate_slab -->
<g id="node1" class="node">
<title>m_savings_account_interest_rate_slab</title>
<g id="a_node1"><a xlink:href="../../tables/m_savings_account_interest_rate_slab.html" xlink:title="m_savings_account_interest_rate_slab" target="_top">
<polygon fill="#ffffff" stroke="transparent" points="311,-131 311,-233 596,-233 596,-131 311,-131"/>
<polygon fill="#f5f5f5" stroke="transparent" points="311.5,-211 311.5,-233 596.5,-233 596.5,-211 311.5,-211"/>
<polygon fill="none" stroke="black" points="311.5,-211 311.5,-233 596.5,-233 596.5,-211 311.5,-211"/>
<text text-anchor="start" x="316.5" y="-220.2" font-family="Helvetica,sans-Serif" font-weight="bold" font-size="11.00">m_savings_account_interest_rate_slab</text>
<text text-anchor="start" x="561.5" y="-219.2" font-family="Helvetica,sans-Serif" font-size="11.00">[table]</text>
<polygon fill="none" stroke="black" points="311.5,-189 311.5,-211 596.5,-211 596.5,-189 311.5,-189"/>
<image xlink:href="../../images/primaryKeys.png" width="11px" height="12px" preserveAspectRatio="xMinYMin meet" x="316.5" y="-206"/>
<text text-anchor="start" x="331.5" y="-197.2" font-family="Helvetica,sans-Serif" font-size="11.00">id</text>
<polygon fill="#ffffff" stroke="transparent" points="311.5,-167 311.5,-189 596.5,-189 596.5,-167 311.5,-167"/>
<polygon fill="none" stroke="black" points="311.5,-167 311.5,-189 596.5,-189 596.5,-167 311.5,-167"/>
<image xlink:href="../../images/foreignKeys.png" width="11px" height="12px" preserveAspectRatio="xMinYMin meet" x="316.5" y="-184"/>
<text text-anchor="start" x="331.5" y="-175.2" font-family="Helvetica,sans-Serif" font-size="11.00">savings_account_interest_rate_chart_id</text>
<polygon fill="none" stroke="black" points="311.5,-149 311.5,-167 596.5,-167 596.5,-149 311.5,-149"/>
<text text-anchor="start" x="314.5" y="-155.2" font-family="Helvetica,sans-Serif" font-size="11.00">...</text>
<polygon fill="#ffffff" stroke="transparent" points="311.5,-131 311.5,-149 434.5,-149 434.5,-131 311.5,-131"/>
<polygon fill="none" stroke="black" points="311.5,-131 311.5,-149 434.5,-149 434.5,-131 311.5,-131"/>
<text text-anchor="start" x="314.5" y="-137.2" font-family="Helvetica,sans-Serif" font-size="11.00">&lt; 1</text>
<polygon fill="#ffffff" stroke="transparent" points="434.5,-131 434.5,-149 523.5,-149 523.5,-131 434.5,-131"/>
<polygon fill="none" stroke="black" points="434.5,-131 434.5,-149 523.5,-149 523.5,-131 434.5,-131"/>
<text text-anchor="start" x="487.5" y="-137.2" font-family="Helvetica,sans-Serif" font-size="11.00">0 rows</text>
<polygon fill="#ffffff" stroke="transparent" points="523.5,-131 523.5,-149 596.5,-149 596.5,-131 523.5,-131"/>
<polygon fill="none" stroke="black" points="523.5,-131 523.5,-149 596.5,-149 596.5,-131 523.5,-131"/>
<text text-anchor="start" x="577.5" y="-137.2" font-family="Helvetica,sans-Serif" font-size="11.00">1 &gt;</text>
</a>
</g>
</g>
<!-- m_savings_account_interest_rate_chart -->
<g id="node2" class="node">
<title>m_savings_account_interest_rate_chart</title>
<g id="a_node2"><a xlink:href="../../tables/m_savings_account_interest_rate_chart.html" xlink:title="m_savings_account_interest_rate_chart" target="_top">
<polygon fill="#ffffff" stroke="transparent" points="8,-151 8,-209 262,-209 262,-151 8,-151"/>
<polygon fill="#f5f5f5" stroke="transparent" points="8,-187 8,-209 262,-209 262,-187 8,-187"/>
<polygon fill="none" stroke="black" points="8,-187 8,-209 262,-209 262,-187 8,-187"/>
<text text-anchor="start" x="13" y="-196.2" font-family="Helvetica,sans-Serif" font-weight="bold" font-size="11.00">m_savings_account_interest_rate_chart</text>
<text text-anchor="start" x="227" y="-195.2" font-family="Helvetica,sans-Serif" font-size="11.00">[table]</text>
<polygon fill="none" stroke="black" points="8,-169 8,-187 262,-187 262,-169 8,-169"/>
<text text-anchor="start" x="11" y="-175.2" font-family="Helvetica,sans-Serif" font-size="11.00">...</text>
<polygon fill="#ffffff" stroke="transparent" points="8,-151 8,-169 115,-169 115,-151 8,-151"/>
<polygon fill="none" stroke="black" points="8,-151 8,-169 115,-169 115,-151 8,-151"/>
<text text-anchor="start" x="11" y="-157.2" font-family="Helvetica,sans-Serif" font-size="11.00">&lt; 1</text>
<polygon fill="#ffffff" stroke="transparent" points="115,-151 115,-169 197,-169 197,-151 115,-151"/>
<polygon fill="none" stroke="black" points="115,-151 115,-169 197,-169 197,-151 115,-151"/>
<text text-anchor="start" x="161" y="-157.2" font-family="Helvetica,sans-Serif" font-size="11.00">0 rows</text>
<polygon fill="#ffffff" stroke="transparent" points="197,-151 197,-169 262,-169 262,-151 197,-151"/>
<polygon fill="none" stroke="black" points="197,-151 197,-169 262,-169 262,-151 197,-151"/>
<text text-anchor="start" x="243" y="-157.2" font-family="Helvetica,sans-Serif" font-size="11.00">1 &gt;</text>
</a>
</g>
</g>
<!-- m_savings_account_interest_rate_slab&#45;&gt;m_savings_account_interest_rate_chart -->
<g id="edge1" class="edge">
<title>m_savings_account_interest_rate_slab:w&#45;&gt;m_savings_account_interest_rate_chart:e</title>
<path fill="none" stroke="black" d="M296.09,-178C285.32,-178 278.34,-178 263,-178"/>
<polygon fill="black" stroke="black" points="302.5,-178 310.5,-181.6 306.5,-178 310.5,-178 310.5,-178 310.5,-178 306.5,-178 310.5,-174.4 302.5,-178 302.5,-178"/>
<ellipse fill="none" stroke="black" cx="299.3" cy="-178" rx="3.2" ry="3.2"/>
</g>
<!-- m_savings_interest_incentives -->
<g id="node3" class="node">
<title>m_savings_interest_incentives</title>
<g id="a_node3"><a xlink:href="../../tables/m_savings_interest_incentives.html" xlink:title="m_savings_interest_incentives" target="_top">
<polygon fill="#ffffff" stroke="transparent" points="645,-37 645,-257 995,-257 995,-37 645,-37"/>
<polygon fill="#f5f5f5" stroke="transparent" points="647,-233 647,-255 993,-255 993,-233 647,-233"/>
<polygon fill="none" stroke="black" points="647,-233 647,-255 993,-255 993,-233 647,-233"/>
<text text-anchor="start" x="652" y="-242.2" font-family="Helvetica,sans-Serif" font-weight="bold" font-size="11.00">m_savings_interest_incentives</text>
<text text-anchor="start" x="958" y="-241.2" font-family="Helvetica,sans-Serif" font-size="11.00">[table]</text>
<polygon fill="none" stroke="black" points="647,-211 647,-233 923,-233 923,-211 647,-211"/>
<image xlink:href="../../images/primaryKeys.png" width="11px" height="12px" preserveAspectRatio="xMinYMin meet" x="652" y="-228"/>
<text text-anchor="start" x="667" y="-219.2" font-family="Helvetica,sans-Serif" font-size="11.00">id</text>
<polygon fill="none" stroke="black" points="923,-211 923,-233 993,-233 993,-211 923,-211"/>
<text text-anchor="start" x="926" y="-219.2" font-family="Helvetica,sans-Serif" font-size="11.00">bigint[19]</text>
<polygon fill="#ffffff" stroke="transparent" points="647,-189 647,-211 923,-211 923,-189 647,-189"/>
<polygon fill="none" stroke="black" points="647,-189 647,-211 923,-211 923,-189 647,-189"/>
<image xlink:href="../../images/foreignKeys.png" width="11px" height="12px" preserveAspectRatio="xMinYMin meet" x="652" y="-206"/>
<text text-anchor="start" x="667" y="-197.2" font-family="Helvetica,sans-Serif" font-size="11.00">deposit_account_interest_rate_slab_id</text>
<polygon fill="none" stroke="black" points="923,-189 923,-211 993,-211 993,-189 923,-189"/>
<text text-anchor="start" x="926" y="-197.2" font-family="Helvetica,sans-Serif" font-size="11.00">bigint[19]</text>
<polygon fill="none" stroke="black" points="647,-167 647,-189 923,-189 923,-167 647,-167"/>
<text text-anchor="start" x="667" y="-175.2" font-family="Helvetica,sans-Serif" font-size="11.00">entiry_type</text>
<polygon fill="none" stroke="black" points="923,-167 923,-189 993,-189 993,-167 923,-167"/>
<text text-anchor="start" x="926" y="-175.2" font-family="Helvetica,sans-Serif" font-size="11.00">smallint[5]</text>
<polygon fill="none" stroke="black" points="647,-145 647,-167 923,-167 923,-145 647,-145"/>
<text text-anchor="start" x="667" y="-153.2" font-family="Helvetica,sans-Serif" font-size="11.00">attribute_name</text>
<polygon fill="none" stroke="black" points="923,-145 923,-167 993,-167 993,-145 923,-145"/>
<text text-anchor="start" x="926" y="-153.2" font-family="Helvetica,sans-Serif" font-size="11.00">smallint[5]</text>
<polygon fill="none" stroke="black" points="647,-123 647,-145 923,-145 923,-123 647,-123"/>
<text text-anchor="start" x="667" y="-131.2" font-family="Helvetica,sans-Serif" font-size="11.00">condition_type</text>
<polygon fill="none" stroke="black" points="923,-123 923,-145 993,-145 993,-123 923,-123"/>
<text text-anchor="start" x="926" y="-131.2" font-family="Helvetica,sans-Serif" font-size="11.00">smallint[5]</text>
<polygon fill="none" stroke="black" points="647,-101 647,-123 923,-123 923,-101 647,-101"/>
<text text-anchor="start" x="667" y="-109.2" font-family="Helvetica,sans-Serif" font-size="11.00">attribute_value</text>
<polygon fill="none" stroke="black" points="923,-101 923,-123 993,-123 993,-101 923,-101"/>
<text text-anchor="start" x="926" y="-109.2" font-family="Helvetica,sans-Serif" font-size="11.00">varchar[50]</text>
<polygon fill="none" stroke="black" points="647,-79 647,-101 923,-101 923,-79 647,-79"/>
<text text-anchor="start" x="667" y="-87.2" font-family="Helvetica,sans-Serif" font-size="11.00">incentive_type</text>
<polygon fill="none" stroke="black" points="923,-79 923,-101 993,-101 993,-79 923,-79"/>
<text text-anchor="start" x="926" y="-87.2" font-family="Helvetica,sans-Serif" font-size="11.00">smallint[5]</text>
<polygon fill="none" stroke="black" points="647,-57 647,-79 923,-79 923,-57 647,-57"/>
<text text-anchor="start" x="667" y="-65.2" font-family="Helvetica,sans-Serif" font-size="11.00">amount</text>
<polygon fill="none" stroke="black" points="923,-57 923,-79 993,-79 993,-57 923,-57"/>
<text text-anchor="start" x="926" y="-65.2" font-family="Helvetica,sans-Serif" font-size="11.00">decimal[19,6]</text>
<polygon fill="#ffffff" stroke="transparent" points="647,-39 647,-57 776,-57 776,-39 647,-39"/>
<polygon fill="none" stroke="black" points="647,-39 647,-57 776,-57 776,-39 647,-39"/>
<text text-anchor="start" x="650" y="-45.2" font-family="Helvetica,sans-Serif" font-size="11.00">&lt; 1</text>
<polygon fill="#ffffff" stroke="transparent" points="776,-39 776,-57 923,-57 923,-39 776,-39"/>
<polygon fill="none" stroke="black" points="776,-39 776,-57 923,-57 923,-39 776,-39"/>
<text text-anchor="start" x="887" y="-45.2" font-family="Helvetica,sans-Serif" font-size="11.00">0 rows</text>
<polygon fill="#ffffff" stroke="transparent" points="923,-39 923,-57 993,-57 993,-39 923,-39"/>
<polygon fill="none" stroke="black" points="923,-39 923,-57 993,-57 993,-39 923,-39"/>
<text text-anchor="start" x="974" y="-45.2" font-family="Helvetica,sans-Serif" font-size="11.00">0 &gt;</text>
<polygon fill="none" stroke="black" stroke-width="2" points="646,-38 646,-256 994,-256 994,-38 646,-38"/>
</a>
</g>
</g>
<!-- m_savings_interest_incentives&#45;&gt;m_savings_account_interest_rate_slab -->
<g id="edge2" class="edge">
<title>m_savings_interest_incentives:w&#45;&gt;m_savings_account_interest_rate_slab:e</title>
<path fill="none" stroke="black" d="M631.28,-200C620.29,-200 613.16,-200 597.5,-200"/>
<polygon fill="black" stroke="black" points="638,-200 646,-203.6 642,-200 646,-200 646,-200 646,-200 642,-200 646,-196.4 638,-200 638,-200"/>
<ellipse fill="none" stroke="black" cx="634.8" cy="-200" rx="3.2" ry="3.2"/>
</g>
</g>
</svg>
