<?xml version="1.0" encoding="UTF-8" standalone="no"?>
<!DOCTYPE svg PUBLIC "-//W3C//DTD SVG 1.1//EN"
 "http://www.w3.org/Graphics/SVG/1.1/DTD/svg11.dtd">
<!-- Generated by graphviz version 2.43.0 (0)
 -->
<!-- Title: oneDegreeRelationshipsDiagram Pages: 1 -->
<svg width="1042pt" height="333pt"
 viewBox="0.00 0.00 1042.00 333.00" xmlns="http://www.w3.org/2000/svg" xmlns:xlink="http://www.w3.org/1999/xlink">
<g id="graph0" class="graph" transform="scale(1 1) rotate(0) translate(4 329)">
<title>oneDegreeRelationshipsDiagram</title>
<polygon fill="#ffffff" stroke="transparent" points="-4,4 -4,-329 1038,-329 1038,4 -4,4"/>
<text text-anchor="middle" x="71.5" y="-7.2" font-family="Helvetica,sans-Serif" font-size="11.00">Generated by SchemaSpy</text>
<!-- m_savings_account_interest_rate_slab -->
<g id="node1" class="node">
<title>m_savings_account_interest_rate_slab</title>
<g id="a_node1"><a xlink:href="../../tables/m_savings_account_interest_rate_slab.html" xlink:title="m_savings_account_interest_rate_slab" target="_top">
<polygon fill="#ffffff" stroke="transparent" points="342,-37 342,-301 701,-301 701,-37 342,-37"/>
<polygon fill="#f5f5f5" stroke="transparent" points="344.5,-277 344.5,-299 699.5,-299 699.5,-277 344.5,-277"/>
<polygon fill="none" stroke="black" points="344.5,-277 344.5,-299 699.5,-299 699.5,-277 344.5,-277"/>
<text text-anchor="start" x="349.5" y="-286.2" font-family="Helvetica,sans-Serif" font-weight="bold" font-size="11.00">m_savings_account_interest_rate_slab</text>
<text text-anchor="start" x="664.5" y="-285.2" font-family="Helvetica,sans-Serif" font-size="11.00">[table]</text>
<polygon fill="none" stroke="black" points="344.5,-255 344.5,-277 629.5,-277 629.5,-255 344.5,-255"/>
<image xlink:href="../../images/primaryKeys.png" width="11px" height="12px" preserveAspectRatio="xMinYMin meet" x="349.5" y="-272"/>
<text text-anchor="start" x="364.5" y="-263.2" font-family="Helvetica,sans-Serif" font-size="11.00">id</text>
<polygon fill="none" stroke="black" points="629.5,-255 629.5,-277 699.5,-277 699.5,-255 629.5,-255"/>
<text text-anchor="start" x="632.5" y="-263.2" font-family="Helvetica,sans-Serif" font-size="11.00">bigint[19]</text>
<polygon fill="#ffffff" stroke="transparent" points="344.5,-233 344.5,-255 629.5,-255 629.5,-233 344.5,-233"/>
<polygon fill="none" stroke="black" points="344.5,-233 344.5,-255 629.5,-255 629.5,-233 344.5,-233"/>
<image xlink:href="../../images/foreignKeys.png" width="11px" height="12px" preserveAspectRatio="xMinYMin meet" x="349.5" y="-250"/>
<text text-anchor="start" x="364.5" y="-241.2" font-family="Helvetica,sans-Serif" font-size="11.00">savings_account_interest_rate_chart_id</text>
<polygon fill="none" stroke="black" points="629.5,-233 629.5,-255 699.5,-255 699.5,-233 629.5,-233"/>
<text text-anchor="start" x="632.5" y="-241.2" font-family="Helvetica,sans-Serif" font-size="11.00">bigint[19]</text>
<polygon fill="none" stroke="black" points="344.5,-211 344.5,-233 629.5,-233 629.5,-211 344.5,-211"/>
<text text-anchor="start" x="364.5" y="-219.2" font-family="Helvetica,sans-Serif" font-size="11.00">description</text>
<polygon fill="none" stroke="black" points="629.5,-211 629.5,-233 699.5,-233 699.5,-211 629.5,-211"/>
<text text-anchor="start" x="632.5" y="-219.2" font-family="Helvetica,sans-Serif" font-size="11.00">varchar[200]</text>
<polygon fill="none" stroke="black" points="344.5,-189 344.5,-211 629.5,-211 629.5,-189 344.5,-189"/>
<text text-anchor="start" x="364.5" y="-197.2" font-family="Helvetica,sans-Serif" font-size="11.00">period_type_enum</text>
<polygon fill="none" stroke="black" points="629.5,-189 629.5,-211 699.5,-211 699.5,-189 629.5,-189"/>
<text text-anchor="start" x="632.5" y="-197.2" font-family="Helvetica,sans-Serif" font-size="11.00">smallint[5]</text>
<polygon fill="none" stroke="black" points="344.5,-167 344.5,-189 629.5,-189 629.5,-167 344.5,-167"/>
<text text-anchor="start" x="364.5" y="-175.2" font-family="Helvetica,sans-Serif" font-size="11.00">from_period</text>
<polygon fill="none" stroke="black" points="629.5,-167 629.5,-189 699.5,-189 699.5,-167 629.5,-167"/>
<text text-anchor="start" x="632.5" y="-175.2" font-family="Helvetica,sans-Serif" font-size="11.00">int[10]</text>
<polygon fill="none" stroke="black" points="344.5,-145 344.5,-167 629.5,-167 629.5,-145 344.5,-145"/>
<text text-anchor="start" x="364.5" y="-153.2" font-family="Helvetica,sans-Serif" font-size="11.00">to_period</text>
<polygon fill="none" stroke="black" points="629.5,-145 629.5,-167 699.5,-167 699.5,-145 629.5,-145"/>
<text text-anchor="start" x="632.5" y="-153.2" font-family="Helvetica,sans-Serif" font-size="11.00">int[10]</text>
<polygon fill="none" stroke="black" points="344.5,-123 344.5,-145 629.5,-145 629.5,-123 344.5,-123"/>
<text text-anchor="start" x="364.5" y="-131.2" font-family="Helvetica,sans-Serif" font-size="11.00">amount_range_from</text>
<polygon fill="none" stroke="black" points="629.5,-123 629.5,-145 699.5,-145 699.5,-123 629.5,-123"/>
<text text-anchor="start" x="632.5" y="-131.2" font-family="Helvetica,sans-Serif" font-size="11.00">decimal[19,6]</text>
<polygon fill="none" stroke="black" points="344.5,-101 344.5,-123 629.5,-123 629.5,-101 344.5,-101"/>
<text text-anchor="start" x="364.5" y="-109.2" font-family="Helvetica,sans-Serif" font-size="11.00">amount_range_to</text>
<polygon fill="none" stroke="black" points="629.5,-101 629.5,-123 699.5,-123 699.5,-101 629.5,-101"/>
<text text-anchor="start" x="632.5" y="-109.2" font-family="Helvetica,sans-Serif" font-size="11.00">decimal[19,6]</text>
<polygon fill="none" stroke="black" points="344.5,-79 344.5,-101 629.5,-101 629.5,-79 344.5,-79"/>
<text text-anchor="start" x="364.5" y="-87.2" font-family="Helvetica,sans-Serif" font-size="11.00">annual_interest_rate</text>
<polygon fill="none" stroke="black" points="629.5,-79 629.5,-101 699.5,-101 699.5,-79 629.5,-79"/>
<text text-anchor="start" x="632.5" y="-87.2" font-family="Helvetica,sans-Serif" font-size="11.00">decimal[19,6]</text>
<polygon fill="none" stroke="black" points="344.5,-57 344.5,-79 629.5,-79 629.5,-57 344.5,-57"/>
<text text-anchor="start" x="364.5" y="-65.2" font-family="Helvetica,sans-Serif" font-size="11.00">currency_code</text>
<polygon fill="none" stroke="black" points="629.5,-57 629.5,-79 699.5,-79 699.5,-57 629.5,-57"/>
<text text-anchor="start" x="632.5" y="-65.2" font-family="Helvetica,sans-Serif" font-size="11.00">varchar[3]</text>
<polygon fill="#ffffff" stroke="transparent" points="344.5,-39 344.5,-57 478.5,-57 478.5,-39 344.5,-39"/>
<polygon fill="none" stroke="black" points="344.5,-39 344.5,-57 478.5,-57 478.5,-39 344.5,-39"/>
<text text-anchor="start" x="347.5" y="-45.2" font-family="Helvetica,sans-Serif" font-size="11.00">&lt; 1</text>
<polygon fill="#ffffff" stroke="transparent" points="478.5,-39 478.5,-57 629.5,-57 629.5,-39 478.5,-39"/>
<polygon fill="none" stroke="black" points="478.5,-39 478.5,-57 629.5,-57 629.5,-39 478.5,-39"/>
<text text-anchor="start" x="593.5" y="-45.2" font-family="Helvetica,sans-Serif" font-size="11.00">0 rows</text>
<polygon fill="#ffffff" stroke="transparent" points="629.5,-39 629.5,-57 699.5,-57 699.5,-39 629.5,-39"/>
<polygon fill="none" stroke="black" points="629.5,-39 629.5,-57 699.5,-57 699.5,-39 629.5,-39"/>
<text text-anchor="start" x="680.5" y="-45.2" font-family="Helvetica,sans-Serif" font-size="11.00">1 &gt;</text>
<polygon fill="none" stroke="black" stroke-width="2" points="343,-38 343,-300 700,-300 700,-38 343,-38"/>
</a>
</g>
</g>
<!-- m_savings_account_interest_rate_chart -->
<g id="node2" class="node">
<title>m_savings_account_interest_rate_chart</title>
<g id="a_node2"><a xlink:href="../../tables/m_savings_account_interest_rate_chart.html" xlink:title="m_savings_account_interest_rate_chart" target="_top">
<polygon fill="#ffffff" stroke="transparent" points="8,-175 8,-277 293,-277 293,-175 8,-175"/>
<polygon fill="#f5f5f5" stroke="transparent" points="8.5,-255 8.5,-277 293.5,-277 293.5,-255 8.5,-255"/>
<polygon fill="none" stroke="black" points="8.5,-255 8.5,-277 293.5,-277 293.5,-255 8.5,-255"/>
<text text-anchor="start" x="13.5" y="-264.2" font-family="Helvetica,sans-Serif" font-weight="bold" font-size="11.00">m_savings_account_interest_rate_chart</text>
<text text-anchor="start" x="258.5" y="-263.2" font-family="Helvetica,sans-Serif" font-size="11.00">[table]</text>
<polygon fill="none" stroke="black" points="8.5,-233 8.5,-255 293.5,-255 293.5,-233 8.5,-233"/>
<image xlink:href="../../images/primaryKeys.png" width="11px" height="12px" preserveAspectRatio="xMinYMin meet" x="13.5" y="-250"/>
<text text-anchor="start" x="28.5" y="-241.2" font-family="Helvetica,sans-Serif" font-size="11.00">id</text>
<polygon fill="#ffffff" stroke="transparent" points="8.5,-211 8.5,-233 293.5,-233 293.5,-211 8.5,-211"/>
<polygon fill="none" stroke="black" points="8.5,-211 8.5,-233 293.5,-233 293.5,-211 8.5,-211"/>
<image xlink:href="../../images/foreignKeys.png" width="11px" height="12px" preserveAspectRatio="xMinYMin meet" x="13.5" y="-228"/>
<text text-anchor="start" x="28.5" y="-219.2" font-family="Helvetica,sans-Serif" font-size="11.00">savings_account_id</text>
<polygon fill="none" stroke="black" points="8.5,-193 8.5,-211 293.5,-211 293.5,-193 8.5,-193"/>
<text text-anchor="start" x="11.5" y="-199.2" font-family="Helvetica,sans-Serif" font-size="11.00">...</text>
<polygon fill="#ffffff" stroke="transparent" points="8.5,-175 8.5,-193 131.5,-193 131.5,-175 8.5,-175"/>
<polygon fill="none" stroke="black" points="8.5,-175 8.5,-193 131.5,-193 131.5,-175 8.5,-175"/>
<text text-anchor="start" x="11.5" y="-181.2" font-family="Helvetica,sans-Serif" font-size="11.00">&lt; 1</text>
<polygon fill="#ffffff" stroke="transparent" points="131.5,-175 131.5,-193 220.5,-193 220.5,-175 131.5,-175"/>
<polygon fill="none" stroke="black" points="131.5,-175 131.5,-193 220.5,-193 220.5,-175 131.5,-175"/>
<text text-anchor="start" x="184.5" y="-181.2" font-family="Helvetica,sans-Serif" font-size="11.00">0 rows</text>
<polygon fill="#ffffff" stroke="transparent" points="220.5,-175 220.5,-193 293.5,-193 293.5,-175 220.5,-175"/>
<polygon fill="none" stroke="black" points="220.5,-175 220.5,-193 293.5,-193 293.5,-175 220.5,-175"/>
<text text-anchor="start" x="274.5" y="-181.2" font-family="Helvetica,sans-Serif" font-size="11.00">1 &gt;</text>
</a>
</g>
</g>
<!-- m_savings_account_interest_rate_slab&#45;&gt;m_savings_account_interest_rate_chart -->
<g id="edge1" class="edge">
<title>m_savings_account_interest_rate_slab:w&#45;&gt;m_savings_account_interest_rate_chart:e</title>
<path fill="none" stroke="black" d="M328.99,-244C317.68,-244 310.49,-244 294.5,-244"/>
<polygon fill="black" stroke="black" points="335.5,-244 343.5,-247.6 339.5,-244 343.5,-244 343.5,-244 343.5,-244 339.5,-244 343.5,-240.4 335.5,-244 335.5,-244"/>
<ellipse fill="none" stroke="black" cx="332.3" cy="-244" rx="3.2" ry="3.2"/>
</g>
<!-- m_savings_interest_incentives -->
<g id="node3" class="node">
<title>m_savings_interest_incentives</title>
<g id="a_node3"><a xlink:href="../../tables/m_savings_interest_incentives.html" xlink:title="m_savings_interest_incentives" target="_top">
<polygon fill="#ffffff" stroke="transparent" points="750,-219 750,-321 1026,-321 1026,-219 750,-219"/>
<polygon fill="#f5f5f5" stroke="transparent" points="750,-299 750,-321 1026,-321 1026,-299 750,-299"/>
<polygon fill="none" stroke="black" points="750,-299 750,-321 1026,-321 1026,-299 750,-299"/>
<text text-anchor="start" x="755" y="-308.2" font-family="Helvetica,sans-Serif" font-weight="bold" font-size="11.00">m_savings_interest_incentives</text>
<text text-anchor="start" x="991" y="-307.2" font-family="Helvetica,sans-Serif" font-size="11.00">[table]</text>
<polygon fill="none" stroke="black" points="750,-277 750,-299 1026,-299 1026,-277 750,-277"/>
<image xlink:href="../../images/primaryKeys.png" width="11px" height="12px" preserveAspectRatio="xMinYMin meet" x="755" y="-294"/>
<text text-anchor="start" x="770" y="-285.2" font-family="Helvetica,sans-Serif" font-size="11.00">id</text>
<polygon fill="#ffffff" stroke="transparent" points="750,-255 750,-277 1026,-277 1026,-255 750,-255"/>
<polygon fill="none" stroke="black" points="750,-255 750,-277 1026,-277 1026,-255 750,-255"/>
<image xlink:href="../../images/foreignKeys.png" width="11px" height="12px" preserveAspectRatio="xMinYMin meet" x="755" y="-272"/>
<text text-anchor="start" x="770" y="-263.2" font-family="Helvetica,sans-Serif" font-size="11.00">deposit_account_interest_rate_slab_id</text>
<polygon fill="none" stroke="black" points="750,-237 750,-255 1026,-255 1026,-237 750,-237"/>
<text text-anchor="start" x="753" y="-243.2" font-family="Helvetica,sans-Serif" font-size="11.00">...</text>
<polygon fill="#ffffff" stroke="transparent" points="750,-219 750,-237 873,-237 873,-219 750,-219"/>
<polygon fill="none" stroke="black" points="750,-219 750,-237 873,-237 873,-219 750,-219"/>
<text text-anchor="start" x="753" y="-225.2" font-family="Helvetica,sans-Serif" font-size="11.00">&lt; 1</text>
<polygon fill="#ffffff" stroke="transparent" points="873,-219 873,-237 962,-237 962,-219 873,-219"/>
<polygon fill="none" stroke="black" points="873,-219 873,-237 962,-237 962,-219 873,-219"/>
<text text-anchor="start" x="926" y="-225.2" font-family="Helvetica,sans-Serif" font-size="11.00">0 rows</text>
<polygon fill="#ffffff" stroke="transparent" points="962,-219 962,-237 1026,-237 1026,-219 962,-219"/>
<polygon fill="none" stroke="black" points="962,-219 962,-237 1026,-237 1026,-219 962,-219"/>
<text text-anchor="start" x="1016" y="-225.2" font-family="Helvetica,sans-Serif" font-size="11.00"> &#160;</text>
</a>
</g>
</g>
<!-- m_savings_interest_incentives&#45;&gt;m_savings_account_interest_rate_slab -->
<g id="edge2" class="edge">
<title>m_savings_interest_incentives:w&#45;&gt;m_savings_account_interest_rate_slab:e</title>
<path fill="none" stroke="black" d="M734.28,-266C723.29,-266 716.16,-266 700.5,-266"/>
<polygon fill="black" stroke="black" points="741,-266 749,-269.6 745,-266 749,-266 749,-266 749,-266 745,-266 749,-262.4 741,-266 741,-266"/>
<ellipse fill="none" stroke="black" cx="737.8" cy="-266" rx="3.2" ry="3.2"/>
</g>
</g>
</svg>
