<?xml version="1.0" encoding="UTF-8" standalone="no"?>
<!DOCTYPE svg PUBLIC "-//W3C//DTD SVG 1.1//EN"
 "http://www.w3.org/Graphics/SVG/1.1/DTD/svg11.dtd">
<!-- Generated by graphviz version 2.43.0 (0)
 -->
<!-- Title: twoDegreesRelationshipsDiagram Pages: 1 -->
<svg width="851pt" height="448pt"
 viewBox="0.00 0.00 851.00 448.00" xmlns="http://www.w3.org/2000/svg" xmlns:xlink="http://www.w3.org/1999/xlink">
<g id="graph0" class="graph" transform="scale(1 1) rotate(0) translate(4 444)">
<title>twoDegreesRelationshipsDiagram</title>
<polygon fill="#ffffff" stroke="transparent" points="-4,4 -4,-444 847,-444 847,4 -4,4"/>
<text text-anchor="middle" x="71.5" y="-7.2" font-family="Helvetica,sans-Serif" font-size="11.00">Generated by SchemaSpy</text>
<!-- acc_gl_journal_entry -->
<g id="node1" class="node">
<title>acc_gl_journal_entry</title>
<g id="a_node1"><a xlink:href="../../tables/acc_gl_journal_entry.html" xlink:title="acc_gl_journal_entry" target="_top">
<polygon fill="#ffffff" stroke="transparent" points="591,-378 591,-436 745,-436 745,-378 591,-378"/>
<polygon fill="#f5f5f5" stroke="transparent" points="591,-414 591,-436 745,-436 745,-414 591,-414"/>
<polygon fill="none" stroke="black" points="591,-414 591,-436 745,-436 745,-414 591,-414"/>
<text text-anchor="start" x="596" y="-423.2" font-family="Helvetica,sans-Serif" font-weight="bold" font-size="11.00">acc_gl_journal_entry</text>
<text text-anchor="start" x="710" y="-422.2" font-family="Helvetica,sans-Serif" font-size="11.00">[table]</text>
<polygon fill="none" stroke="black" points="591,-396 591,-414 745,-414 745,-396 591,-396"/>
<text text-anchor="start" x="594" y="-402.2" font-family="Helvetica,sans-Serif" font-size="11.00">...</text>
<polygon fill="#ffffff" stroke="transparent" points="591,-378 591,-396 651,-396 651,-378 591,-378"/>
<polygon fill="none" stroke="black" points="591,-378 591,-396 651,-396 651,-378 591,-378"/>
<text text-anchor="start" x="594" y="-384.2" font-family="Helvetica,sans-Serif" font-size="11.00">&lt; 10</text>
<polygon fill="#ffffff" stroke="transparent" points="651,-378 651,-396 706,-396 706,-378 651,-378"/>
<polygon fill="none" stroke="black" points="651,-378 651,-396 706,-396 706,-378 651,-378"/>
<text text-anchor="start" x="670" y="-384.2" font-family="Helvetica,sans-Serif" font-size="11.00">0 rows</text>
<polygon fill="#ffffff" stroke="transparent" points="706,-378 706,-396 745,-396 745,-378 706,-378"/>
<polygon fill="none" stroke="black" points="706,-378 706,-396 745,-396 745,-378 706,-378"/>
<text text-anchor="start" x="726" y="-384.2" font-family="Helvetica,sans-Serif" font-size="11.00">1 &gt;</text>
</a>
</g>
</g>
<!-- m_office -->
<g id="node2" class="node">
<title>m_office</title>
<g id="a_node2"><a xlink:href="../../tables/m_office.html" xlink:title="m_office" target="_top">
<polygon fill="#ffffff" stroke="transparent" points="37.5,-363 37.5,-421 127.5,-421 127.5,-363 37.5,-363"/>
<polygon fill="#f5f5f5" stroke="transparent" points="37.5,-399 37.5,-421 127.5,-421 127.5,-399 37.5,-399"/>
<polygon fill="none" stroke="black" points="37.5,-399 37.5,-421 127.5,-421 127.5,-399 37.5,-399"/>
<text text-anchor="start" x="42.5" y="-408.2" font-family="Helvetica,sans-Serif" font-weight="bold" font-size="11.00">m_office</text>
<text text-anchor="start" x="92.5" y="-407.2" font-family="Helvetica,sans-Serif" font-size="11.00">[table]</text>
<polygon fill="none" stroke="black" points="37.5,-381 37.5,-399 127.5,-399 127.5,-381 37.5,-381"/>
<text text-anchor="start" x="40.5" y="-387.2" font-family="Helvetica,sans-Serif" font-size="11.00">...</text>
<polygon fill="#ffffff" stroke="transparent" points="37.5,-363 37.5,-381 59.5,-381 59.5,-363 37.5,-363"/>
<polygon fill="none" stroke="black" points="37.5,-363 37.5,-381 59.5,-381 59.5,-363 37.5,-363"/>
<text text-anchor="start" x="40.5" y="-369.2" font-family="Helvetica,sans-Serif" font-size="11.00">&lt; 1</text>
<polygon fill="#ffffff" stroke="transparent" points="59.5,-363 59.5,-381 98.5,-381 98.5,-363 59.5,-363"/>
<polygon fill="none" stroke="black" points="59.5,-363 59.5,-381 98.5,-381 98.5,-363 59.5,-363"/>
<text text-anchor="start" x="62.5" y="-369.2" font-family="Helvetica,sans-Serif" font-size="11.00">0 rows</text>
<polygon fill="#ffffff" stroke="transparent" points="98.5,-363 98.5,-381 127.5,-381 127.5,-363 98.5,-363"/>
<polygon fill="none" stroke="black" points="98.5,-363 98.5,-381 127.5,-381 127.5,-363 98.5,-363"/>
<text text-anchor="start" x="102.5" y="-369.2" font-family="Helvetica,sans-Serif" font-size="11.00">20 &gt;</text>
</a>
</g>
</g>
<!-- acc_gl_journal_entry&#45;&gt;m_office -->
<g id="edge1" class="edge">
<title>acc_gl_journal_entry:w&#45;&gt;m_office:e</title>
<path fill="none" stroke="black" d="M575.27,-404.91C464.68,-403.68 226.5,-390 128.5,-390"/>
<polygon fill="black" stroke="black" points="582,-404.95 589.98,-408.6 586,-404.98 590,-405 590,-405 590,-405 586,-404.98 590.02,-401.4 582,-404.95 582,-404.95"/>
<ellipse fill="none" stroke="black" cx="578.8" cy="-404.93" rx="3.2" ry="3.2"/>
</g>
<!-- m_payment_detail -->
<g id="node3" class="node">
<title>m_payment_detail</title>
<g id="a_node3"><a xlink:href="../../tables/m_payment_detail.html" xlink:title="m_payment_detail" target="_top">
<polygon fill="#ffffff" stroke="transparent" points="12.5,-249 12.5,-307 152.5,-307 152.5,-249 12.5,-249"/>
<polygon fill="#f5f5f5" stroke="transparent" points="12.5,-285 12.5,-307 152.5,-307 152.5,-285 12.5,-285"/>
<polygon fill="none" stroke="black" points="12.5,-285 12.5,-307 152.5,-307 152.5,-285 12.5,-285"/>
<text text-anchor="start" x="17.5" y="-294.2" font-family="Helvetica,sans-Serif" font-weight="bold" font-size="11.00">m_payment_detail</text>
<text text-anchor="start" x="117.5" y="-293.2" font-family="Helvetica,sans-Serif" font-size="11.00">[table]</text>
<polygon fill="none" stroke="black" points="12.5,-267 12.5,-285 152.5,-285 152.5,-267 12.5,-267"/>
<text text-anchor="start" x="15.5" y="-273.2" font-family="Helvetica,sans-Serif" font-size="11.00">...</text>
<polygon fill="#ffffff" stroke="transparent" points="12.5,-249 12.5,-267 62.5,-267 62.5,-249 12.5,-249"/>
<polygon fill="none" stroke="black" points="12.5,-249 12.5,-267 62.5,-267 62.5,-249 12.5,-249"/>
<text text-anchor="start" x="15.5" y="-255.2" font-family="Helvetica,sans-Serif" font-size="11.00">&lt; 1</text>
<polygon fill="#ffffff" stroke="transparent" points="62.5,-249 62.5,-267 115.5,-267 115.5,-249 62.5,-249"/>
<polygon fill="none" stroke="black" points="62.5,-249 62.5,-267 115.5,-267 115.5,-249 62.5,-249"/>
<text text-anchor="start" x="79.5" y="-255.2" font-family="Helvetica,sans-Serif" font-size="11.00">0 rows</text>
<polygon fill="#ffffff" stroke="transparent" points="115.5,-249 115.5,-267 152.5,-267 152.5,-249 115.5,-249"/>
<polygon fill="none" stroke="black" points="115.5,-249 115.5,-267 152.5,-267 152.5,-249 115.5,-249"/>
<text text-anchor="start" x="133.5" y="-255.2" font-family="Helvetica,sans-Serif" font-size="11.00">3 &gt;</text>
</a>
</g>
</g>
<!-- acc_gl_journal_entry&#45;&gt;m_payment_detail -->
<g id="edge2" class="edge">
<title>acc_gl_journal_entry:w&#45;&gt;m_payment_detail:e</title>
<path fill="none" stroke="black" d="M575.35,-404.83C529.04,-403.67 512.61,-397.04 460,-392 401.8,-386.42 246.06,-401.29 198,-368 160.66,-342.14 198.92,-276 153.5,-276"/>
<polygon fill="black" stroke="black" points="582,-404.9 589.96,-408.6 586,-404.95 590,-405 590,-405 590,-405 586,-404.95 590.04,-401.4 582,-404.9 582,-404.9"/>
<ellipse fill="none" stroke="black" cx="578.8" cy="-404.87" rx="3.2" ry="3.2"/>
</g>
<!-- m_savings_account_transaction -->
<g id="node4" class="node">
<title>m_savings_account_transaction</title>
<g id="a_node4"><a xlink:href="../../tables/m_savings_account_transaction.html" xlink:title="m_savings_account_transaction" target="_top">
<polygon fill="#ffffff" stroke="transparent" points="206,-189 206,-357 452,-357 452,-189 206,-189"/>
<polygon fill="#f5f5f5" stroke="transparent" points="206,-335 206,-357 452,-357 452,-335 206,-335"/>
<polygon fill="none" stroke="black" points="206,-335 206,-357 452,-357 452,-335 206,-335"/>
<text text-anchor="start" x="211" y="-344.2" font-family="Helvetica,sans-Serif" font-weight="bold" font-size="11.00">m_savings_account_transaction</text>
<text text-anchor="start" x="417" y="-343.2" font-family="Helvetica,sans-Serif" font-size="11.00">[table]</text>
<polygon fill="none" stroke="black" points="206,-313 206,-335 452,-335 452,-313 206,-313"/>
<image xlink:href="../../images/primaryKeys.png" width="11px" height="12px" preserveAspectRatio="xMinYMin meet" x="211" y="-330"/>
<text text-anchor="start" x="226" y="-321.2" font-family="Helvetica,sans-Serif" font-size="11.00">id</text>
<polygon fill="#ffffff" stroke="transparent" points="206,-291 206,-313 452,-313 452,-291 206,-291"/>
<polygon fill="none" stroke="black" points="206,-291 206,-313 452,-313 452,-291 206,-291"/>
<image xlink:href="../../images/foreignKeys.png" width="11px" height="12px" preserveAspectRatio="xMinYMin meet" x="211" y="-308"/>
<text text-anchor="start" x="226" y="-299.2" font-family="Helvetica,sans-Serif" font-size="11.00">savings_account_id</text>
<polygon fill="#ffffff" stroke="transparent" points="206,-269 206,-291 452,-291 452,-269 206,-269"/>
<polygon fill="none" stroke="black" points="206,-269 206,-291 452,-291 452,-269 206,-269"/>
<image xlink:href="../../images/foreignKeys.png" width="11px" height="12px" preserveAspectRatio="xMinYMin meet" x="211" y="-286"/>
<text text-anchor="start" x="226" y="-277.2" font-family="Helvetica,sans-Serif" font-size="11.00">office_id</text>
<polygon fill="#ffffff" stroke="transparent" points="206,-247 206,-269 452,-269 452,-247 206,-247"/>
<polygon fill="none" stroke="black" points="206,-247 206,-269 452,-269 452,-247 206,-247"/>
<image xlink:href="../../images/foreignKeys.png" width="11px" height="12px" preserveAspectRatio="xMinYMin meet" x="211" y="-264"/>
<text text-anchor="start" x="226" y="-255.2" font-family="Helvetica,sans-Serif" font-size="11.00">payment_detail_id</text>
<polygon fill="#ffffff" stroke="transparent" points="206,-225 206,-247 452,-247 452,-225 206,-225"/>
<polygon fill="none" stroke="black" points="206,-225 206,-247 452,-247 452,-225 206,-225"/>
<text text-anchor="start" x="226" y="-233.2" font-family="Helvetica,sans-Serif" font-size="11.00">ref_no</text>
<polygon fill="none" stroke="black" points="206,-207 206,-225 452,-225 452,-207 206,-207"/>
<text text-anchor="start" x="209" y="-213.2" font-family="Helvetica,sans-Serif" font-size="11.00">...</text>
<polygon fill="#ffffff" stroke="transparent" points="206,-189 206,-207 309,-207 309,-189 206,-189"/>
<polygon fill="none" stroke="black" points="206,-189 206,-207 309,-207 309,-189 206,-189"/>
<text text-anchor="start" x="209" y="-195.2" font-family="Helvetica,sans-Serif" font-size="11.00">&lt; 3</text>
<polygon fill="#ffffff" stroke="transparent" points="309,-189 309,-207 389,-207 389,-189 309,-189"/>
<polygon fill="none" stroke="black" points="309,-189 309,-207 389,-207 389,-189 309,-189"/>
<text text-anchor="start" x="353" y="-195.2" font-family="Helvetica,sans-Serif" font-size="11.00">0 rows</text>
<polygon fill="#ffffff" stroke="transparent" points="389,-189 389,-207 452,-207 452,-189 389,-189"/>
<polygon fill="none" stroke="black" points="389,-189 389,-207 452,-207 452,-189 389,-189"/>
<text text-anchor="start" x="433" y="-195.2" font-family="Helvetica,sans-Serif" font-size="11.00">5 &gt;</text>
</a>
</g>
</g>
<!-- acc_gl_journal_entry&#45;&gt;m_savings_account_transaction -->
<g id="edge3" class="edge">
<title>acc_gl_journal_entry:w&#45;&gt;m_savings_account_transaction:e</title>
<path fill="none" stroke="black" d="M575.52,-404.57C540.65,-402.32 526.8,-391.06 493,-368 471.17,-353.11 479.43,-324 453,-324"/>
<polygon fill="black" stroke="black" points="582,-404.76 589.89,-408.6 586,-404.88 590,-405 590,-405 590,-405 586,-404.88 590.11,-401.4 582,-404.76 582,-404.76"/>
<ellipse fill="none" stroke="black" cx="578.8" cy="-404.67" rx="3.2" ry="3.2"/>
</g>
<!-- m_savings_account_transaction&#45;&gt;m_office -->
<g id="edge10" class="edge">
<title>m_savings_account_transaction:w&#45;&gt;m_office:e</title>
<path fill="none" stroke="black" d="M190.78,-282.72C152.54,-299.66 182.47,-390 128.5,-390"/>
<polygon fill="black" stroke="black" points="197.14,-281.5 205.68,-283.54 201.07,-280.75 205,-280 205,-280 205,-280 201.07,-280.75 204.32,-276.46 197.14,-281.5 197.14,-281.5"/>
<ellipse fill="none" stroke="black" cx="194" cy="-282.1" rx="3.2" ry="3.2"/>
</g>
<!-- m_savings_account_transaction&#45;&gt;m_payment_detail -->
<g id="edge11" class="edge">
<title>m_savings_account_transaction:w&#45;&gt;m_payment_detail:e</title>
<path fill="none" stroke="black" d="M190.52,-260.66C178.05,-265.66 171.87,-276 153.5,-276"/>
<polygon fill="black" stroke="black" points="197.13,-259.44 205.65,-261.54 201.07,-258.72 205,-258 205,-258 205,-258 201.07,-258.72 204.35,-254.46 197.13,-259.44 197.13,-259.44"/>
<ellipse fill="none" stroke="black" cx="193.98" cy="-260.02" rx="3.2" ry="3.2"/>
</g>
<!-- m_savings_account -->
<g id="node8" class="node">
<title>m_savings_account</title>
<g id="a_node8"><a xlink:href="../../tables/m_savings_account.html" xlink:title="m_savings_account" target="_top">
<polygon fill="#ffffff" stroke="transparent" points="8,-144 8,-202 157,-202 157,-144 8,-144"/>
<polygon fill="#f5f5f5" stroke="transparent" points="8.5,-180 8.5,-202 157.5,-202 157.5,-180 8.5,-180"/>
<polygon fill="none" stroke="black" points="8.5,-180 8.5,-202 157.5,-202 157.5,-180 8.5,-180"/>
<text text-anchor="start" x="13.5" y="-189.2" font-family="Helvetica,sans-Serif" font-weight="bold" font-size="11.00">m_savings_account</text>
<text text-anchor="start" x="122.5" y="-188.2" font-family="Helvetica,sans-Serif" font-size="11.00">[table]</text>
<polygon fill="none" stroke="black" points="8.5,-162 8.5,-180 157.5,-180 157.5,-162 8.5,-162"/>
<text text-anchor="start" x="11.5" y="-168.2" font-family="Helvetica,sans-Serif" font-size="11.00">...</text>
<polygon fill="#ffffff" stroke="transparent" points="8.5,-144 8.5,-162 60.5,-162 60.5,-144 8.5,-144"/>
<polygon fill="none" stroke="black" points="8.5,-144 8.5,-162 60.5,-162 60.5,-144 8.5,-144"/>
<text text-anchor="start" x="11.5" y="-150.2" font-family="Helvetica,sans-Serif" font-size="11.00">&lt; 5</text>
<polygon fill="#ffffff" stroke="transparent" points="60.5,-144 60.5,-162 114.5,-162 114.5,-144 60.5,-144"/>
<polygon fill="none" stroke="black" points="60.5,-144 60.5,-162 114.5,-162 114.5,-144 60.5,-144"/>
<text text-anchor="start" x="78.5" y="-150.2" font-family="Helvetica,sans-Serif" font-size="11.00">0 rows</text>
<polygon fill="#ffffff" stroke="transparent" points="114.5,-144 114.5,-162 157.5,-162 157.5,-144 114.5,-144"/>
<polygon fill="none" stroke="black" points="114.5,-144 114.5,-162 157.5,-162 157.5,-144 114.5,-144"/>
<text text-anchor="start" x="132.5" y="-150.2" font-family="Helvetica,sans-Serif" font-size="11.00">17 &gt;</text>
</a>
</g>
</g>
<!-- m_savings_account_transaction&#45;&gt;m_savings_account -->
<g id="edge12" class="edge">
<title>m_savings_account_transaction:w&#45;&gt;m_savings_account:e</title>
<path fill="none" stroke="black" d="M190.61,-298.5C156.95,-277.66 214.25,-171 158.5,-171"/>
<polygon fill="black" stroke="black" points="197.23,-300.11 204.15,-305.5 201.11,-301.05 205,-302 205,-302 205,-302 201.11,-301.05 205.85,-298.5 197.23,-300.11 197.23,-300.11"/>
<ellipse fill="none" stroke="black" cx="194.12" cy="-299.35" rx="3.2" ry="3.2"/>
</g>
<!-- m_account_transfer_transaction -->
<g id="node5" class="node">
<title>m_account_transfer_transaction</title>
<g id="a_node5"><a xlink:href="../../tables/m_account_transfer_transaction.html" xlink:title="m_account_transfer_transaction" target="_top">
<polygon fill="#ffffff" stroke="transparent" points="560.5,-299 560.5,-357 775.5,-357 775.5,-299 560.5,-299"/>
<polygon fill="#f5f5f5" stroke="transparent" points="561,-335 561,-357 776,-357 776,-335 561,-335"/>
<polygon fill="none" stroke="black" points="561,-335 561,-357 776,-357 776,-335 561,-335"/>
<text text-anchor="start" x="566" y="-344.2" font-family="Helvetica,sans-Serif" font-weight="bold" font-size="11.00">m_account_transfer_transaction</text>
<text text-anchor="start" x="741" y="-343.2" font-family="Helvetica,sans-Serif" font-size="11.00">[table]</text>
<polygon fill="none" stroke="black" points="561,-317 561,-335 776,-335 776,-317 561,-317"/>
<text text-anchor="start" x="564" y="-323.2" font-family="Helvetica,sans-Serif" font-size="11.00">...</text>
<polygon fill="#ffffff" stroke="transparent" points="561,-299 561,-317 653,-317 653,-299 561,-299"/>
<polygon fill="none" stroke="black" points="561,-299 561,-317 653,-317 653,-299 561,-299"/>
<text text-anchor="start" x="564" y="-305.2" font-family="Helvetica,sans-Serif" font-size="11.00">&lt; 5</text>
<polygon fill="#ffffff" stroke="transparent" points="653,-299 653,-317 727,-317 727,-299 653,-299"/>
<polygon fill="none" stroke="black" points="653,-299 653,-317 727,-317 727,-299 653,-299"/>
<text text-anchor="start" x="691" y="-305.2" font-family="Helvetica,sans-Serif" font-size="11.00">0 rows</text>
<polygon fill="#ffffff" stroke="transparent" points="727,-299 727,-317 776,-317 776,-299 727,-299"/>
<polygon fill="none" stroke="black" points="727,-299 727,-317 776,-317 776,-299 727,-299"/>
<text text-anchor="start" x="766" y="-305.2" font-family="Helvetica,sans-Serif" font-size="11.00"> &#160;</text>
</a>
</g>
</g>
<!-- m_account_transfer_transaction&#45;&gt;m_savings_account_transaction -->
<g id="edge4" class="edge">
<title>m_account_transfer_transaction:w&#45;&gt;m_savings_account_transaction:e</title>
<path fill="none" stroke="black" d="M545.58,-324.18C509.41,-319.66 495.36,-318.66 453,-324"/>
<polygon fill="black" stroke="black" points="552.06,-325 559.55,-329.57 556.03,-325.5 560,-326 560,-326 560,-326 556.03,-325.5 560.45,-322.43 552.06,-325 552.06,-325"/>
<ellipse fill="none" stroke="black" cx="548.89" cy="-324.6" rx="3.2" ry="3.2"/>
</g>
<!-- m_account_transfer_transaction&#45;&gt;m_savings_account_transaction -->
<g id="edge5" class="edge">
<title>m_account_transfer_transaction:w&#45;&gt;m_savings_account_transaction:e</title>
<path fill="none" stroke="black" d="M545.58,-327.98C509.41,-332.5 495.36,-330.23 453,-324"/>
<polygon fill="black" stroke="black" points="552.07,-327.09 560.49,-329.57 556.04,-326.54 560,-326 560,-326 560,-326 556.04,-326.54 559.51,-322.43 552.07,-327.09 552.07,-327.09"/>
<ellipse fill="none" stroke="black" cx="548.9" cy="-327.52" rx="3.2" ry="3.2"/>
</g>
<!-- m_savings_account_charge -->
<g id="node6" class="node">
<title>m_savings_account_charge</title>
<g id="a_node6"><a xlink:href="../../tables/m_savings_account_charge.html" xlink:title="m_savings_account_charge" target="_top">
<polygon fill="#ffffff" stroke="transparent" points="220.5,-37 220.5,-161 437.5,-161 437.5,-37 220.5,-37"/>
<polygon fill="#f5f5f5" stroke="transparent" points="221,-139 221,-161 438,-161 438,-139 221,-139"/>
<polygon fill="none" stroke="black" points="221,-139 221,-161 438,-161 438,-139 221,-139"/>
<text text-anchor="start" x="226" y="-148.2" font-family="Helvetica,sans-Serif" font-weight="bold" font-size="11.00">m_savings_account_charge</text>
<text text-anchor="start" x="403" y="-147.2" font-family="Helvetica,sans-Serif" font-size="11.00">[table]</text>
<polygon fill="none" stroke="black" points="221,-117 221,-139 438,-139 438,-117 221,-117"/>
<image xlink:href="../../images/primaryKeys.png" width="11px" height="12px" preserveAspectRatio="xMinYMin meet" x="226" y="-134"/>
<text text-anchor="start" x="241" y="-125.2" font-family="Helvetica,sans-Serif" font-size="11.00">id</text>
<polygon fill="#ffffff" stroke="transparent" points="221,-95 221,-117 438,-117 438,-95 221,-95"/>
<polygon fill="none" stroke="black" points="221,-95 221,-117 438,-117 438,-95 221,-95"/>
<image xlink:href="../../images/foreignKeys.png" width="11px" height="12px" preserveAspectRatio="xMinYMin meet" x="226" y="-112"/>
<text text-anchor="start" x="241" y="-103.2" font-family="Helvetica,sans-Serif" font-size="11.00">savings_account_id</text>
<polygon fill="#ffffff" stroke="transparent" points="221,-73 221,-95 438,-95 438,-73 221,-73"/>
<polygon fill="none" stroke="black" points="221,-73 221,-95 438,-95 438,-73 221,-73"/>
<image xlink:href="../../images/foreignKeys.png" width="11px" height="12px" preserveAspectRatio="xMinYMin meet" x="226" y="-90"/>
<text text-anchor="start" x="241" y="-81.2" font-family="Helvetica,sans-Serif" font-size="11.00">charge_id</text>
<polygon fill="none" stroke="black" points="221,-55 221,-73 438,-73 438,-55 221,-55"/>
<text text-anchor="start" x="224" y="-61.2" font-family="Helvetica,sans-Serif" font-size="11.00">...</text>
<polygon fill="#ffffff" stroke="transparent" points="221,-37 221,-55 310,-55 310,-37 221,-37"/>
<polygon fill="none" stroke="black" points="221,-37 221,-55 310,-55 310,-37 221,-37"/>
<text text-anchor="start" x="224" y="-43.2" font-family="Helvetica,sans-Serif" font-size="11.00">&lt; 2</text>
<polygon fill="#ffffff" stroke="transparent" points="310,-37 310,-55 382,-55 382,-37 310,-37"/>
<polygon fill="none" stroke="black" points="310,-37 310,-55 382,-55 382,-37 310,-37"/>
<text text-anchor="start" x="346" y="-43.2" font-family="Helvetica,sans-Serif" font-size="11.00">0 rows</text>
<polygon fill="#ffffff" stroke="transparent" points="382,-37 382,-55 438,-55 438,-37 382,-37"/>
<polygon fill="none" stroke="black" points="382,-37 382,-55 438,-55 438,-37 382,-37"/>
<text text-anchor="start" x="419" y="-43.2" font-family="Helvetica,sans-Serif" font-size="11.00">1 &gt;</text>
</a>
</g>
</g>
<!-- m_charge -->
<g id="node7" class="node">
<title>m_charge</title>
<g id="a_node7"><a xlink:href="../../tables/m_charge.html" xlink:title="m_charge" target="_top">
<polygon fill="#ffffff" stroke="transparent" points="34.5,-57 34.5,-115 130.5,-115 130.5,-57 34.5,-57"/>
<polygon fill="#f5f5f5" stroke="transparent" points="34.5,-93 34.5,-115 130.5,-115 130.5,-93 34.5,-93"/>
<polygon fill="none" stroke="black" points="34.5,-93 34.5,-115 130.5,-115 130.5,-93 34.5,-93"/>
<text text-anchor="start" x="39.5" y="-102.2" font-family="Helvetica,sans-Serif" font-weight="bold" font-size="11.00">m_charge</text>
<text text-anchor="start" x="95.5" y="-101.2" font-family="Helvetica,sans-Serif" font-size="11.00">[table]</text>
<polygon fill="none" stroke="black" points="34.5,-75 34.5,-93 130.5,-93 130.5,-75 34.5,-75"/>
<text text-anchor="start" x="37.5" y="-81.2" font-family="Helvetica,sans-Serif" font-size="11.00">...</text>
<polygon fill="#ffffff" stroke="transparent" points="34.5,-57 34.5,-75 62.5,-75 62.5,-57 34.5,-57"/>
<polygon fill="none" stroke="black" points="34.5,-57 34.5,-75 62.5,-75 62.5,-57 34.5,-57"/>
<text text-anchor="start" x="37.5" y="-63.2" font-family="Helvetica,sans-Serif" font-size="11.00">&lt; 3</text>
<polygon fill="#ffffff" stroke="transparent" points="62.5,-57 62.5,-75 104.5,-75 104.5,-57 62.5,-57"/>
<polygon fill="none" stroke="black" points="62.5,-57 62.5,-75 104.5,-75 104.5,-57 62.5,-57"/>
<text text-anchor="start" x="68.5" y="-63.2" font-family="Helvetica,sans-Serif" font-size="11.00">0 rows</text>
<polygon fill="#ffffff" stroke="transparent" points="104.5,-57 104.5,-75 130.5,-75 130.5,-57 104.5,-57"/>
<polygon fill="none" stroke="black" points="104.5,-57 104.5,-75 130.5,-75 130.5,-57 104.5,-57"/>
<text text-anchor="start" x="111.5" y="-63.2" font-family="Helvetica,sans-Serif" font-size="11.00">9 &gt;</text>
</a>
</g>
</g>
<!-- m_savings_account_charge&#45;&gt;m_charge -->
<g id="edge6" class="edge">
<title>m_savings_account_charge:w&#45;&gt;m_charge:e</title>
<path fill="none" stroke="black" d="M205.37,-84C177.43,-84 165.46,-84 131.5,-84"/>
<polygon fill="black" stroke="black" points="212,-84 220,-87.6 216,-84 220,-84 220,-84 220,-84 216,-84 220,-80.4 212,-84 212,-84"/>
<ellipse fill="none" stroke="black" cx="208.8" cy="-84" rx="3.2" ry="3.2"/>
</g>
<!-- m_savings_account_charge&#45;&gt;m_savings_account -->
<g id="edge7" class="edge">
<title>m_savings_account_charge:w&#45;&gt;m_savings_account:e</title>
<path fill="none" stroke="black" d="M206.03,-109.68C184.24,-123.43 192.52,-171 158.5,-171"/>
<polygon fill="black" stroke="black" points="212.26,-108.04 220.92,-109.48 216.13,-107.02 220,-106 220,-106 220,-106 216.13,-107.02 219.08,-102.52 212.26,-108.04 212.26,-108.04"/>
<ellipse fill="none" stroke="black" cx="209.17" cy="-108.85" rx="3.2" ry="3.2"/>
</g>
<!-- m_savings_account_charge_paid_by -->
<g id="node9" class="node">
<title>m_savings_account_charge_paid_by</title>
<g id="a_node9"><a xlink:href="../../tables/m_savings_account_charge_paid_by.html" xlink:title="m_savings_account_charge_paid_by" target="_top">
<polygon fill="#ffffff" stroke="transparent" points="501,-67 501,-199 835,-199 835,-67 501,-67"/>
<polygon fill="#f5f5f5" stroke="transparent" points="503,-175 503,-197 833,-197 833,-175 503,-175"/>
<polygon fill="none" stroke="black" points="503,-175 503,-197 833,-197 833,-175 503,-175"/>
<text text-anchor="start" x="508" y="-184.2" font-family="Helvetica,sans-Serif" font-weight="bold" font-size="11.00">m_savings_account_charge_paid_by</text>
<text text-anchor="start" x="798" y="-183.2" font-family="Helvetica,sans-Serif" font-size="11.00">[table]</text>
<polygon fill="none" stroke="black" points="503,-153 503,-175 763,-175 763,-153 503,-153"/>
<image xlink:href="../../images/primaryKeys.png" width="11px" height="12px" preserveAspectRatio="xMinYMin meet" x="508" y="-170"/>
<text text-anchor="start" x="523" y="-161.2" font-family="Helvetica,sans-Serif" font-size="11.00">id</text>
<polygon fill="none" stroke="black" points="763,-153 763,-175 833,-175 833,-153 763,-153"/>
<text text-anchor="start" x="766" y="-161.2" font-family="Helvetica,sans-Serif" font-size="11.00">bigint[19]</text>
<polygon fill="#ffffff" stroke="transparent" points="503,-131 503,-153 763,-153 763,-131 503,-131"/>
<polygon fill="none" stroke="black" points="503,-131 503,-153 763,-153 763,-131 503,-131"/>
<image xlink:href="../../images/foreignKeys.png" width="11px" height="12px" preserveAspectRatio="xMinYMin meet" x="508" y="-148"/>
<text text-anchor="start" x="523" y="-139.2" font-family="Helvetica,sans-Serif" font-size="11.00">savings_account_transaction_id</text>
<polygon fill="none" stroke="black" points="763,-131 763,-153 833,-153 833,-131 763,-131"/>
<text text-anchor="start" x="766" y="-139.2" font-family="Helvetica,sans-Serif" font-size="11.00">bigint[19]</text>
<polygon fill="#ffffff" stroke="transparent" points="503,-109 503,-131 763,-131 763,-109 503,-109"/>
<polygon fill="none" stroke="black" points="503,-109 503,-131 763,-131 763,-109 503,-109"/>
<image xlink:href="../../images/foreignKeys.png" width="11px" height="12px" preserveAspectRatio="xMinYMin meet" x="508" y="-126"/>
<text text-anchor="start" x="523" y="-117.2" font-family="Helvetica,sans-Serif" font-size="11.00">savings_account_charge_id</text>
<polygon fill="none" stroke="black" points="763,-109 763,-131 833,-131 833,-109 763,-109"/>
<text text-anchor="start" x="766" y="-117.2" font-family="Helvetica,sans-Serif" font-size="11.00">bigint[19]</text>
<polygon fill="none" stroke="black" points="503,-87 503,-109 763,-109 763,-87 503,-87"/>
<text text-anchor="start" x="523" y="-95.2" font-family="Helvetica,sans-Serif" font-size="11.00">amount</text>
<polygon fill="none" stroke="black" points="763,-87 763,-109 833,-109 833,-87 763,-87"/>
<text text-anchor="start" x="766" y="-95.2" font-family="Helvetica,sans-Serif" font-size="11.00">decimal[19,6]</text>
<polygon fill="#ffffff" stroke="transparent" points="503,-69 503,-87 624,-87 624,-69 503,-69"/>
<polygon fill="none" stroke="black" points="503,-69 503,-87 624,-87 624,-69 503,-69"/>
<text text-anchor="start" x="506" y="-75.2" font-family="Helvetica,sans-Serif" font-size="11.00">&lt; 2</text>
<polygon fill="#ffffff" stroke="transparent" points="624,-69 624,-87 763,-87 763,-69 624,-69"/>
<polygon fill="none" stroke="black" points="624,-69 624,-87 763,-87 763,-69 624,-69"/>
<text text-anchor="start" x="727" y="-75.2" font-family="Helvetica,sans-Serif" font-size="11.00">0 rows</text>
<polygon fill="#ffffff" stroke="transparent" points="763,-69 763,-87 833,-87 833,-69 763,-69"/>
<polygon fill="none" stroke="black" points="763,-69 763,-87 833,-87 833,-69 763,-69"/>
<text text-anchor="start" x="814" y="-75.2" font-family="Helvetica,sans-Serif" font-size="11.00">0 &gt;</text>
<polygon fill="none" stroke="black" stroke-width="2" points="502,-68 502,-198 834,-198 834,-68 502,-68"/>
</a>
</g>
</g>
<!-- m_savings_account_charge_paid_by&#45;&gt;m_savings_account_transaction -->
<g id="edge9" class="edge">
<title>m_savings_account_charge_paid_by:w&#45;&gt;m_savings_account_transaction:e</title>
<path fill="none" stroke="black" d="M487.53,-144.44C433.49,-166.03 531.04,-324 453,-324"/>
<polygon fill="black" stroke="black" points="494.11,-143.33 502.6,-145.55 498.06,-142.66 502,-142 502,-142 502,-142 498.06,-142.66 501.4,-138.45 494.11,-143.33 494.11,-143.33"/>
<ellipse fill="none" stroke="black" cx="490.96" cy="-143.86" rx="3.2" ry="3.2"/>
</g>
<!-- m_savings_account_charge_paid_by&#45;&gt;m_savings_account_charge -->
<g id="edge8" class="edge">
<title>m_savings_account_charge_paid_by:w&#45;&gt;m_savings_account_charge:e</title>
<path fill="none" stroke="black" d="M487.62,-120.8C470.39,-122.82 461.71,-128 439,-128"/>
<polygon fill="black" stroke="black" points="494.01,-120.44 502.2,-123.59 498.01,-120.22 502,-120 502,-120 502,-120 498.01,-120.22 501.8,-116.41 494.01,-120.44 494.01,-120.44"/>
<ellipse fill="none" stroke="black" cx="490.82" cy="-120.62" rx="3.2" ry="3.2"/>
</g>
<!-- m_savings_account_transaction_tax_details -->
<g id="node10" class="node">
<title>m_savings_account_transaction_tax_details</title>
<g id="a_node10"><a xlink:href="../../tables/m_savings_account_transaction_tax_details.html" xlink:title="m_savings_account_transaction_tax_details" target="_top">
<polygon fill="#ffffff" stroke="transparent" points="530,-220 530,-278 806,-278 806,-220 530,-220"/>
<polygon fill="#f5f5f5" stroke="transparent" points="530,-256 530,-278 806,-278 806,-256 530,-256"/>
<polygon fill="none" stroke="black" points="530,-256 530,-278 806,-278 806,-256 530,-256"/>
<text text-anchor="start" x="535" y="-265.2" font-family="Helvetica,sans-Serif" font-weight="bold" font-size="11.00">m_savings_account_transaction_tax_details</text>
<text text-anchor="start" x="771" y="-264.2" font-family="Helvetica,sans-Serif" font-size="11.00">[table]</text>
<polygon fill="none" stroke="black" points="530,-238 530,-256 806,-256 806,-238 530,-238"/>
<text text-anchor="start" x="533" y="-244.2" font-family="Helvetica,sans-Serif" font-size="11.00">...</text>
<polygon fill="#ffffff" stroke="transparent" points="530,-220 530,-238 653,-238 653,-220 530,-220"/>
<polygon fill="none" stroke="black" points="530,-220 530,-238 653,-238 653,-220 530,-220"/>
<text text-anchor="start" x="533" y="-226.2" font-family="Helvetica,sans-Serif" font-size="11.00">&lt; 2</text>
<polygon fill="#ffffff" stroke="transparent" points="653,-220 653,-238 742,-238 742,-220 653,-220"/>
<polygon fill="none" stroke="black" points="653,-220 653,-238 742,-238 742,-220 653,-220"/>
<text text-anchor="start" x="706" y="-226.2" font-family="Helvetica,sans-Serif" font-size="11.00">0 rows</text>
<polygon fill="#ffffff" stroke="transparent" points="742,-220 742,-238 806,-238 806,-220 742,-220"/>
<polygon fill="none" stroke="black" points="742,-220 742,-238 806,-238 806,-220 742,-220"/>
<text text-anchor="start" x="796" y="-226.2" font-family="Helvetica,sans-Serif" font-size="11.00"> &#160;</text>
</a>
</g>
</g>
<!-- m_savings_account_transaction_tax_details&#45;&gt;m_savings_account_transaction -->
<g id="edge13" class="edge">
<title>m_savings_account_transaction_tax_details:w&#45;&gt;m_savings_account_transaction:e</title>
<path fill="none" stroke="black" d="M514.69,-249.92C484.71,-263.99 495.45,-324 453,-324"/>
<polygon fill="black" stroke="black" points="521.16,-248.6 529.72,-250.53 525.08,-247.8 529,-247 529,-247 529,-247 525.08,-247.8 528.28,-243.47 521.16,-248.6 521.16,-248.6"/>
<ellipse fill="none" stroke="black" cx="518.03" cy="-249.24" rx="3.2" ry="3.2"/>
</g>
</g>
</svg>
