<?xml version="1.0" encoding="UTF-8" standalone="no"?>
<!DOCTYPE svg PUBLIC "-//W3C//DTD SVG 1.1//EN"
 "http://www.w3.org/Graphics/SVG/1.1/DTD/svg11.dtd">
<!-- Generated by graphviz version 2.43.0 (0)
 -->
<!-- Title: oneDegreeRelationshipsDiagram Pages: 1 -->
<svg width="653pt" height="362pt"
 viewBox="0.00 0.00 653.00 362.00" xmlns="http://www.w3.org/2000/svg" xmlns:xlink="http://www.w3.org/1999/xlink">
<g id="graph0" class="graph" transform="scale(1 1) rotate(0) translate(4 358)">
<title>oneDegreeRelationshipsDiagram</title>
<polygon fill="#ffffff" stroke="transparent" points="-4,4 -4,-358 649,-358 649,4 -4,4"/>
<text text-anchor="middle" x="71.5" y="-7.2" font-family="Helvetica,sans-Serif" font-size="11.00">Generated by SchemaSpy</text>
<!-- m_savings_account_charge_paid_by -->
<g id="node1" class="node">
<title>m_savings_account_charge_paid_by</title>
<g id="a_node1"><a xlink:href="../../tables/m_savings_account_charge_paid_by.html" xlink:title="m_savings_account_charge_paid_by" target="_top">
<polygon fill="#ffffff" stroke="transparent" points="303,-158 303,-290 637,-290 637,-158 303,-158"/>
<polygon fill="#f5f5f5" stroke="transparent" points="305,-266 305,-288 635,-288 635,-266 305,-266"/>
<polygon fill="none" stroke="black" points="305,-266 305,-288 635,-288 635,-266 305,-266"/>
<text text-anchor="start" x="310" y="-275.2" font-family="Helvetica,sans-Serif" font-weight="bold" font-size="11.00">m_savings_account_charge_paid_by</text>
<text text-anchor="start" x="600" y="-274.2" font-family="Helvetica,sans-Serif" font-size="11.00">[table]</text>
<polygon fill="none" stroke="black" points="305,-244 305,-266 565,-266 565,-244 305,-244"/>
<image xlink:href="../../images/primaryKeys.png" width="11px" height="12px" preserveAspectRatio="xMinYMin meet" x="310" y="-261"/>
<text text-anchor="start" x="325" y="-252.2" font-family="Helvetica,sans-Serif" font-size="11.00">id</text>
<polygon fill="none" stroke="black" points="565,-244 565,-266 635,-266 635,-244 565,-244"/>
<text text-anchor="start" x="568" y="-252.2" font-family="Helvetica,sans-Serif" font-size="11.00">bigint[19]</text>
<polygon fill="#ffffff" stroke="transparent" points="305,-222 305,-244 565,-244 565,-222 305,-222"/>
<polygon fill="none" stroke="black" points="305,-222 305,-244 565,-244 565,-222 305,-222"/>
<image xlink:href="../../images/foreignKeys.png" width="11px" height="12px" preserveAspectRatio="xMinYMin meet" x="310" y="-239"/>
<text text-anchor="start" x="325" y="-230.2" font-family="Helvetica,sans-Serif" font-size="11.00">savings_account_transaction_id</text>
<polygon fill="none" stroke="black" points="565,-222 565,-244 635,-244 635,-222 565,-222"/>
<text text-anchor="start" x="568" y="-230.2" font-family="Helvetica,sans-Serif" font-size="11.00">bigint[19]</text>
<polygon fill="#ffffff" stroke="transparent" points="305,-200 305,-222 565,-222 565,-200 305,-200"/>
<polygon fill="none" stroke="black" points="305,-200 305,-222 565,-222 565,-200 305,-200"/>
<image xlink:href="../../images/foreignKeys.png" width="11px" height="12px" preserveAspectRatio="xMinYMin meet" x="310" y="-217"/>
<text text-anchor="start" x="325" y="-208.2" font-family="Helvetica,sans-Serif" font-size="11.00">savings_account_charge_id</text>
<polygon fill="none" stroke="black" points="565,-200 565,-222 635,-222 635,-200 565,-200"/>
<text text-anchor="start" x="568" y="-208.2" font-family="Helvetica,sans-Serif" font-size="11.00">bigint[19]</text>
<polygon fill="none" stroke="black" points="305,-178 305,-200 565,-200 565,-178 305,-178"/>
<text text-anchor="start" x="325" y="-186.2" font-family="Helvetica,sans-Serif" font-size="11.00">amount</text>
<polygon fill="none" stroke="black" points="565,-178 565,-200 635,-200 635,-178 565,-178"/>
<text text-anchor="start" x="568" y="-186.2" font-family="Helvetica,sans-Serif" font-size="11.00">decimal[19,6]</text>
<polygon fill="#ffffff" stroke="transparent" points="305,-160 305,-178 426,-178 426,-160 305,-160"/>
<polygon fill="none" stroke="black" points="305,-160 305,-178 426,-178 426,-160 305,-160"/>
<text text-anchor="start" x="308" y="-166.2" font-family="Helvetica,sans-Serif" font-size="11.00">&lt; 2</text>
<polygon fill="#ffffff" stroke="transparent" points="426,-160 426,-178 565,-178 565,-160 426,-160"/>
<polygon fill="none" stroke="black" points="426,-160 426,-178 565,-178 565,-160 426,-160"/>
<text text-anchor="start" x="529" y="-166.2" font-family="Helvetica,sans-Serif" font-size="11.00">0 rows</text>
<polygon fill="#ffffff" stroke="transparent" points="565,-160 565,-178 635,-178 635,-160 565,-160"/>
<polygon fill="none" stroke="black" points="565,-160 565,-178 635,-178 635,-160 565,-160"/>
<text text-anchor="start" x="616" y="-166.2" font-family="Helvetica,sans-Serif" font-size="11.00">0 &gt;</text>
<polygon fill="none" stroke="black" stroke-width="2" points="304,-159 304,-289 636,-289 636,-159 304,-159"/>
</a>
</g>
</g>
<!-- m_savings_account_charge -->
<g id="node2" class="node">
<title>m_savings_account_charge</title>
<g id="a_node2"><a xlink:href="../../tables/m_savings_account_charge.html" xlink:title="m_savings_account_charge" target="_top">
<polygon fill="#ffffff" stroke="transparent" points="22.5,-37 22.5,-161 239.5,-161 239.5,-37 22.5,-37"/>
<polygon fill="#f5f5f5" stroke="transparent" points="23,-139 23,-161 240,-161 240,-139 23,-139"/>
<polygon fill="none" stroke="black" points="23,-139 23,-161 240,-161 240,-139 23,-139"/>
<text text-anchor="start" x="28" y="-148.2" font-family="Helvetica,sans-Serif" font-weight="bold" font-size="11.00">m_savings_account_charge</text>
<text text-anchor="start" x="205" y="-147.2" font-family="Helvetica,sans-Serif" font-size="11.00">[table]</text>
<polygon fill="none" stroke="black" points="23,-117 23,-139 240,-139 240,-117 23,-117"/>
<image xlink:href="../../images/primaryKeys.png" width="11px" height="12px" preserveAspectRatio="xMinYMin meet" x="28" y="-134"/>
<text text-anchor="start" x="43" y="-125.2" font-family="Helvetica,sans-Serif" font-size="11.00">id</text>
<polygon fill="#ffffff" stroke="transparent" points="23,-95 23,-117 240,-117 240,-95 23,-95"/>
<polygon fill="none" stroke="black" points="23,-95 23,-117 240,-117 240,-95 23,-95"/>
<image xlink:href="../../images/foreignKeys.png" width="11px" height="12px" preserveAspectRatio="xMinYMin meet" x="28" y="-112"/>
<text text-anchor="start" x="43" y="-103.2" font-family="Helvetica,sans-Serif" font-size="11.00">savings_account_id</text>
<polygon fill="#ffffff" stroke="transparent" points="23,-73 23,-95 240,-95 240,-73 23,-73"/>
<polygon fill="none" stroke="black" points="23,-73 23,-95 240,-95 240,-73 23,-73"/>
<image xlink:href="../../images/foreignKeys.png" width="11px" height="12px" preserveAspectRatio="xMinYMin meet" x="28" y="-90"/>
<text text-anchor="start" x="43" y="-81.2" font-family="Helvetica,sans-Serif" font-size="11.00">charge_id</text>
<polygon fill="none" stroke="black" points="23,-55 23,-73 240,-73 240,-55 23,-55"/>
<text text-anchor="start" x="26" y="-61.2" font-family="Helvetica,sans-Serif" font-size="11.00">...</text>
<polygon fill="#ffffff" stroke="transparent" points="23,-37 23,-55 112,-55 112,-37 23,-37"/>
<polygon fill="none" stroke="black" points="23,-37 23,-55 112,-55 112,-37 23,-37"/>
<text text-anchor="start" x="26" y="-43.2" font-family="Helvetica,sans-Serif" font-size="11.00">&lt; 2</text>
<polygon fill="#ffffff" stroke="transparent" points="112,-37 112,-55 184,-55 184,-37 112,-37"/>
<polygon fill="none" stroke="black" points="112,-37 112,-55 184,-55 184,-37 112,-37"/>
<text text-anchor="start" x="148" y="-43.2" font-family="Helvetica,sans-Serif" font-size="11.00">0 rows</text>
<polygon fill="#ffffff" stroke="transparent" points="184,-37 184,-55 240,-55 240,-37 184,-37"/>
<polygon fill="none" stroke="black" points="184,-37 184,-55 240,-55 240,-37 184,-37"/>
<text text-anchor="start" x="221" y="-43.2" font-family="Helvetica,sans-Serif" font-size="11.00">1 &gt;</text>
</a>
</g>
</g>
<!-- m_savings_account_charge_paid_by&#45;&gt;m_savings_account_charge -->
<g id="edge1" class="edge">
<title>m_savings_account_charge_paid_by:w&#45;&gt;m_savings_account_charge:e</title>
<path fill="none" stroke="black" d="M289.9,-207.43C263.91,-191.55 281.52,-128 241,-128"/>
<polygon fill="black" stroke="black" points="296.24,-209.04 303.12,-214.49 300.12,-210.02 304,-211 304,-211 304,-211 300.12,-210.02 304.88,-207.51 296.24,-209.04 296.24,-209.04"/>
<ellipse fill="none" stroke="black" cx="293.14" cy="-208.25" rx="3.2" ry="3.2"/>
</g>
<!-- m_savings_account_transaction -->
<g id="node3" class="node">
<title>m_savings_account_transaction</title>
<g id="a_node3"><a xlink:href="../../tables/m_savings_account_transaction.html" xlink:title="m_savings_account_transaction" target="_top">
<polygon fill="#ffffff" stroke="transparent" points="8,-182 8,-350 254,-350 254,-182 8,-182"/>
<polygon fill="#f5f5f5" stroke="transparent" points="8,-328 8,-350 254,-350 254,-328 8,-328"/>
<polygon fill="none" stroke="black" points="8,-328 8,-350 254,-350 254,-328 8,-328"/>
<text text-anchor="start" x="13" y="-337.2" font-family="Helvetica,sans-Serif" font-weight="bold" font-size="11.00">m_savings_account_transaction</text>
<text text-anchor="start" x="219" y="-336.2" font-family="Helvetica,sans-Serif" font-size="11.00">[table]</text>
<polygon fill="none" stroke="black" points="8,-306 8,-328 254,-328 254,-306 8,-306"/>
<image xlink:href="../../images/primaryKeys.png" width="11px" height="12px" preserveAspectRatio="xMinYMin meet" x="13" y="-323"/>
<text text-anchor="start" x="28" y="-314.2" font-family="Helvetica,sans-Serif" font-size="11.00">id</text>
<polygon fill="#ffffff" stroke="transparent" points="8,-284 8,-306 254,-306 254,-284 8,-284"/>
<polygon fill="none" stroke="black" points="8,-284 8,-306 254,-306 254,-284 8,-284"/>
<image xlink:href="../../images/foreignKeys.png" width="11px" height="12px" preserveAspectRatio="xMinYMin meet" x="13" y="-301"/>
<text text-anchor="start" x="28" y="-292.2" font-family="Helvetica,sans-Serif" font-size="11.00">savings_account_id</text>
<polygon fill="#ffffff" stroke="transparent" points="8,-262 8,-284 254,-284 254,-262 8,-262"/>
<polygon fill="none" stroke="black" points="8,-262 8,-284 254,-284 254,-262 8,-262"/>
<image xlink:href="../../images/foreignKeys.png" width="11px" height="12px" preserveAspectRatio="xMinYMin meet" x="13" y="-279"/>
<text text-anchor="start" x="28" y="-270.2" font-family="Helvetica,sans-Serif" font-size="11.00">office_id</text>
<polygon fill="#ffffff" stroke="transparent" points="8,-240 8,-262 254,-262 254,-240 8,-240"/>
<polygon fill="none" stroke="black" points="8,-240 8,-262 254,-262 254,-240 8,-240"/>
<image xlink:href="../../images/foreignKeys.png" width="11px" height="12px" preserveAspectRatio="xMinYMin meet" x="13" y="-257"/>
<text text-anchor="start" x="28" y="-248.2" font-family="Helvetica,sans-Serif" font-size="11.00">payment_detail_id</text>
<polygon fill="#ffffff" stroke="transparent" points="8,-218 8,-240 254,-240 254,-218 8,-218"/>
<polygon fill="none" stroke="black" points="8,-218 8,-240 254,-240 254,-218 8,-218"/>
<text text-anchor="start" x="28" y="-226.2" font-family="Helvetica,sans-Serif" font-size="11.00">ref_no</text>
<polygon fill="none" stroke="black" points="8,-200 8,-218 254,-218 254,-200 8,-200"/>
<text text-anchor="start" x="11" y="-206.2" font-family="Helvetica,sans-Serif" font-size="11.00">...</text>
<polygon fill="#ffffff" stroke="transparent" points="8,-182 8,-200 111,-200 111,-182 8,-182"/>
<polygon fill="none" stroke="black" points="8,-182 8,-200 111,-200 111,-182 8,-182"/>
<text text-anchor="start" x="11" y="-188.2" font-family="Helvetica,sans-Serif" font-size="11.00">&lt; 3</text>
<polygon fill="#ffffff" stroke="transparent" points="111,-182 111,-200 191,-200 191,-182 111,-182"/>
<polygon fill="none" stroke="black" points="111,-182 111,-200 191,-200 191,-182 111,-182"/>
<text text-anchor="start" x="155" y="-188.2" font-family="Helvetica,sans-Serif" font-size="11.00">0 rows</text>
<polygon fill="#ffffff" stroke="transparent" points="191,-182 191,-200 254,-200 254,-182 191,-182"/>
<polygon fill="none" stroke="black" points="191,-182 191,-200 254,-200 254,-182 191,-182"/>
<text text-anchor="start" x="235" y="-188.2" font-family="Helvetica,sans-Serif" font-size="11.00">5 &gt;</text>
</a>
</g>
</g>
<!-- m_savings_account_charge_paid_by&#45;&gt;m_savings_account_transaction -->
<g id="edge2" class="edge">
<title>m_savings_account_charge_paid_by:w&#45;&gt;m_savings_account_transaction:e</title>
<path fill="none" stroke="black" d="M290.1,-237.52C269.71,-254.96 292.14,-317 255,-317"/>
<polygon fill="black" stroke="black" points="296.39,-235.47 305.11,-236.42 300.2,-234.24 304,-233 304,-233 304,-233 300.2,-234.24 302.89,-229.58 296.39,-235.47 296.39,-235.47"/>
<ellipse fill="none" stroke="black" cx="293.35" cy="-236.46" rx="3.2" ry="3.2"/>
</g>
</g>
</svg>
