<?xml version="1.0" encoding="UTF-8" standalone="no"?>
<!DOCTYPE svg PUBLIC "-//W3C//DTD SVG 1.1//EN"
 "http://www.w3.org/Graphics/SVG/1.1/DTD/svg11.dtd">
<!-- Generated by graphviz version 2.43.0 (0)
 -->
<!-- Title: oneDegreeRelationshipsDiagram Pages: 1 -->
<svg width="708pt" height="269pt"
 viewBox="0.00 0.00 708.00 269.00" xmlns="http://www.w3.org/2000/svg" xmlns:xlink="http://www.w3.org/1999/xlink">
<g id="graph0" class="graph" transform="scale(1 1) rotate(0) translate(4 265)">
<title>oneDegreeRelationshipsDiagram</title>
<polygon fill="#ffffff" stroke="transparent" points="-4,4 -4,-265 704,-265 704,4 -4,4"/>
<text text-anchor="middle" x="71.5" y="-7.2" font-family="Helvetica,sans-Serif" font-size="11.00">Generated by SchemaSpy</text>
<!-- m_savings_interest_incentives -->
<g id="node1" class="node">
<title>m_savings_interest_incentives</title>
<g id="a_node1"><a xlink:href="../../tables/m_savings_interest_incentives.html" xlink:title="m_savings_interest_incentives" target="_top">
<polygon fill="#ffffff" stroke="transparent" points="342,-37 342,-257 692,-257 692,-37 342,-37"/>
<polygon fill="#f5f5f5" stroke="transparent" points="344,-233 344,-255 690,-255 690,-233 344,-233"/>
<polygon fill="none" stroke="black" points="344,-233 344,-255 690,-255 690,-233 344,-233"/>
<text text-anchor="start" x="349" y="-242.2" font-family="Helvetica,sans-Serif" font-weight="bold" font-size="11.00">m_savings_interest_incentives</text>
<text text-anchor="start" x="655" y="-241.2" font-family="Helvetica,sans-Serif" font-size="11.00">[table]</text>
<polygon fill="none" stroke="black" points="344,-211 344,-233 620,-233 620,-211 344,-211"/>
<image xlink:href="../../images/primaryKeys.png" width="11px" height="12px" preserveAspectRatio="xMinYMin meet" x="349" y="-228"/>
<text text-anchor="start" x="364" y="-219.2" font-family="Helvetica,sans-Serif" font-size="11.00">id</text>
<polygon fill="none" stroke="black" points="620,-211 620,-233 690,-233 690,-211 620,-211"/>
<text text-anchor="start" x="623" y="-219.2" font-family="Helvetica,sans-Serif" font-size="11.00">bigint[19]</text>
<polygon fill="#ffffff" stroke="transparent" points="344,-189 344,-211 620,-211 620,-189 344,-189"/>
<polygon fill="none" stroke="black" points="344,-189 344,-211 620,-211 620,-189 344,-189"/>
<image xlink:href="../../images/foreignKeys.png" width="11px" height="12px" preserveAspectRatio="xMinYMin meet" x="349" y="-206"/>
<text text-anchor="start" x="364" y="-197.2" font-family="Helvetica,sans-Serif" font-size="11.00">deposit_account_interest_rate_slab_id</text>
<polygon fill="none" stroke="black" points="620,-189 620,-211 690,-211 690,-189 620,-189"/>
<text text-anchor="start" x="623" y="-197.2" font-family="Helvetica,sans-Serif" font-size="11.00">bigint[19]</text>
<polygon fill="none" stroke="black" points="344,-167 344,-189 620,-189 620,-167 344,-167"/>
<text text-anchor="start" x="364" y="-175.2" font-family="Helvetica,sans-Serif" font-size="11.00">entiry_type</text>
<polygon fill="none" stroke="black" points="620,-167 620,-189 690,-189 690,-167 620,-167"/>
<text text-anchor="start" x="623" y="-175.2" font-family="Helvetica,sans-Serif" font-size="11.00">smallint[5]</text>
<polygon fill="none" stroke="black" points="344,-145 344,-167 620,-167 620,-145 344,-145"/>
<text text-anchor="start" x="364" y="-153.2" font-family="Helvetica,sans-Serif" font-size="11.00">attribute_name</text>
<polygon fill="none" stroke="black" points="620,-145 620,-167 690,-167 690,-145 620,-145"/>
<text text-anchor="start" x="623" y="-153.2" font-family="Helvetica,sans-Serif" font-size="11.00">smallint[5]</text>
<polygon fill="none" stroke="black" points="344,-123 344,-145 620,-145 620,-123 344,-123"/>
<text text-anchor="start" x="364" y="-131.2" font-family="Helvetica,sans-Serif" font-size="11.00">condition_type</text>
<polygon fill="none" stroke="black" points="620,-123 620,-145 690,-145 690,-123 620,-123"/>
<text text-anchor="start" x="623" y="-131.2" font-family="Helvetica,sans-Serif" font-size="11.00">smallint[5]</text>
<polygon fill="none" stroke="black" points="344,-101 344,-123 620,-123 620,-101 344,-101"/>
<text text-anchor="start" x="364" y="-109.2" font-family="Helvetica,sans-Serif" font-size="11.00">attribute_value</text>
<polygon fill="none" stroke="black" points="620,-101 620,-123 690,-123 690,-101 620,-101"/>
<text text-anchor="start" x="623" y="-109.2" font-family="Helvetica,sans-Serif" font-size="11.00">varchar[50]</text>
<polygon fill="none" stroke="black" points="344,-79 344,-101 620,-101 620,-79 344,-79"/>
<text text-anchor="start" x="364" y="-87.2" font-family="Helvetica,sans-Serif" font-size="11.00">incentive_type</text>
<polygon fill="none" stroke="black" points="620,-79 620,-101 690,-101 690,-79 620,-79"/>
<text text-anchor="start" x="623" y="-87.2" font-family="Helvetica,sans-Serif" font-size="11.00">smallint[5]</text>
<polygon fill="none" stroke="black" points="344,-57 344,-79 620,-79 620,-57 344,-57"/>
<text text-anchor="start" x="364" y="-65.2" font-family="Helvetica,sans-Serif" font-size="11.00">amount</text>
<polygon fill="none" stroke="black" points="620,-57 620,-79 690,-79 690,-57 620,-57"/>
<text text-anchor="start" x="623" y="-65.2" font-family="Helvetica,sans-Serif" font-size="11.00">decimal[19,6]</text>
<polygon fill="#ffffff" stroke="transparent" points="344,-39 344,-57 473,-57 473,-39 344,-39"/>
<polygon fill="none" stroke="black" points="344,-39 344,-57 473,-57 473,-39 344,-39"/>
<text text-anchor="start" x="347" y="-45.2" font-family="Helvetica,sans-Serif" font-size="11.00">&lt; 1</text>
<polygon fill="#ffffff" stroke="transparent" points="473,-39 473,-57 620,-57 620,-39 473,-39"/>
<polygon fill="none" stroke="black" points="473,-39 473,-57 620,-57 620,-39 473,-39"/>
<text text-anchor="start" x="584" y="-45.2" font-family="Helvetica,sans-Serif" font-size="11.00">0 rows</text>
<polygon fill="#ffffff" stroke="transparent" points="620,-39 620,-57 690,-57 690,-39 620,-39"/>
<polygon fill="none" stroke="black" points="620,-39 620,-57 690,-57 690,-39 620,-39"/>
<text text-anchor="start" x="671" y="-45.2" font-family="Helvetica,sans-Serif" font-size="11.00">0 &gt;</text>
<polygon fill="none" stroke="black" stroke-width="2" points="343,-38 343,-256 691,-256 691,-38 343,-38"/>
</a>
</g>
</g>
<!-- m_savings_account_interest_rate_slab -->
<g id="node2" class="node">
<title>m_savings_account_interest_rate_slab</title>
<g id="a_node2"><a xlink:href="../../tables/m_savings_account_interest_rate_slab.html" xlink:title="m_savings_account_interest_rate_slab" target="_top">
<polygon fill="#ffffff" stroke="transparent" points="8,-131 8,-233 293,-233 293,-131 8,-131"/>
<polygon fill="#f5f5f5" stroke="transparent" points="8.5,-211 8.5,-233 293.5,-233 293.5,-211 8.5,-211"/>
<polygon fill="none" stroke="black" points="8.5,-211 8.5,-233 293.5,-233 293.5,-211 8.5,-211"/>
<text text-anchor="start" x="13.5" y="-220.2" font-family="Helvetica,sans-Serif" font-weight="bold" font-size="11.00">m_savings_account_interest_rate_slab</text>
<text text-anchor="start" x="258.5" y="-219.2" font-family="Helvetica,sans-Serif" font-size="11.00">[table]</text>
<polygon fill="none" stroke="black" points="8.5,-189 8.5,-211 293.5,-211 293.5,-189 8.5,-189"/>
<image xlink:href="../../images/primaryKeys.png" width="11px" height="12px" preserveAspectRatio="xMinYMin meet" x="13.5" y="-206"/>
<text text-anchor="start" x="28.5" y="-197.2" font-family="Helvetica,sans-Serif" font-size="11.00">id</text>
<polygon fill="#ffffff" stroke="transparent" points="8.5,-167 8.5,-189 293.5,-189 293.5,-167 8.5,-167"/>
<polygon fill="none" stroke="black" points="8.5,-167 8.5,-189 293.5,-189 293.5,-167 8.5,-167"/>
<image xlink:href="../../images/foreignKeys.png" width="11px" height="12px" preserveAspectRatio="xMinYMin meet" x="13.5" y="-184"/>
<text text-anchor="start" x="28.5" y="-175.2" font-family="Helvetica,sans-Serif" font-size="11.00">savings_account_interest_rate_chart_id</text>
<polygon fill="none" stroke="black" points="8.5,-149 8.5,-167 293.5,-167 293.5,-149 8.5,-149"/>
<text text-anchor="start" x="11.5" y="-155.2" font-family="Helvetica,sans-Serif" font-size="11.00">...</text>
<polygon fill="#ffffff" stroke="transparent" points="8.5,-131 8.5,-149 131.5,-149 131.5,-131 8.5,-131"/>
<polygon fill="none" stroke="black" points="8.5,-131 8.5,-149 131.5,-149 131.5,-131 8.5,-131"/>
<text text-anchor="start" x="11.5" y="-137.2" font-family="Helvetica,sans-Serif" font-size="11.00">&lt; 1</text>
<polygon fill="#ffffff" stroke="transparent" points="131.5,-131 131.5,-149 220.5,-149 220.5,-131 131.5,-131"/>
<polygon fill="none" stroke="black" points="131.5,-131 131.5,-149 220.5,-149 220.5,-131 131.5,-131"/>
<text text-anchor="start" x="184.5" y="-137.2" font-family="Helvetica,sans-Serif" font-size="11.00">0 rows</text>
<polygon fill="#ffffff" stroke="transparent" points="220.5,-131 220.5,-149 293.5,-149 293.5,-131 220.5,-131"/>
<polygon fill="none" stroke="black" points="220.5,-131 220.5,-149 293.5,-149 293.5,-131 220.5,-131"/>
<text text-anchor="start" x="274.5" y="-137.2" font-family="Helvetica,sans-Serif" font-size="11.00">1 &gt;</text>
</a>
</g>
</g>
<!-- m_savings_interest_incentives&#45;&gt;m_savings_account_interest_rate_slab -->
<g id="edge1" class="edge">
<title>m_savings_interest_incentives:w&#45;&gt;m_savings_account_interest_rate_slab:e</title>
<path fill="none" stroke="black" d="M328.28,-200C317.29,-200 310.16,-200 294.5,-200"/>
<polygon fill="black" stroke="black" points="335,-200 343,-203.6 339,-200 343,-200 343,-200 343,-200 339,-200 343,-196.4 335,-200 335,-200"/>
<ellipse fill="none" stroke="black" cx="331.8" cy="-200" rx="3.2" ry="3.2"/>
</g>
</g>
</svg>
