<?xml version="1.0" encoding="UTF-8" standalone="no"?>
<!DOCTYPE svg PUBLIC "-//W3C//DTD SVG 1.1//EN"
 "http://www.w3.org/Graphics/SVG/1.1/DTD/svg11.dtd">
<!-- Generated by graphviz version 2.43.0 (0)
 -->
<!-- Title: twoDegreesRelationshipsDiagram Pages: 1 -->
<svg width="827pt" height="418pt"
 viewBox="0.00 0.00 827.00 418.00" xmlns="http://www.w3.org/2000/svg" xmlns:xlink="http://www.w3.org/1999/xlink">
<g id="graph0" class="graph" transform="scale(1 1) rotate(0) translate(4 414)">
<title>twoDegreesRelationshipsDiagram</title>
<polygon fill="#ffffff" stroke="transparent" points="-4,4 -4,-414 823,-414 823,4 -4,4"/>
<text text-anchor="middle" x="71.5" y="-7.2" font-family="Helvetica,sans-Serif" font-size="11.00">Generated by SchemaSpy</text>
<!-- m_share_account -->
<g id="node1" class="node">
<title>m_share_account</title>
<g id="a_node1"><a xlink:href="../../tables/m_share_account.html" xlink:title="m_share_account" target="_top">
<polygon fill="#ffffff" stroke="transparent" points="590,-348 590,-406 728,-406 728,-348 590,-348"/>
<polygon fill="#f5f5f5" stroke="transparent" points="590,-384 590,-406 728,-406 728,-384 590,-384"/>
<polygon fill="none" stroke="black" points="590,-384 590,-406 728,-406 728,-384 590,-384"/>
<text text-anchor="start" x="595" y="-393.2" font-family="Helvetica,sans-Serif" font-weight="bold" font-size="11.00">m_share_account</text>
<text text-anchor="start" x="693" y="-392.2" font-family="Helvetica,sans-Serif" font-size="11.00">[table]</text>
<polygon fill="none" stroke="black" points="590,-366 590,-384 728,-384 728,-366 590,-366"/>
<text text-anchor="start" x="593" y="-372.2" font-family="Helvetica,sans-Serif" font-size="11.00">...</text>
<polygon fill="#ffffff" stroke="transparent" points="590,-348 590,-366 639,-366 639,-348 590,-348"/>
<polygon fill="none" stroke="black" points="590,-348 590,-366 639,-366 639,-348 590,-348"/>
<text text-anchor="start" x="593" y="-354.2" font-family="Helvetica,sans-Serif" font-size="11.00">&lt; 9</text>
<polygon fill="#ffffff" stroke="transparent" points="639,-348 639,-366 692,-366 692,-348 639,-348"/>
<polygon fill="none" stroke="black" points="639,-348 639,-366 692,-366 692,-348 639,-348"/>
<text text-anchor="start" x="656" y="-354.2" font-family="Helvetica,sans-Serif" font-size="11.00">0 rows</text>
<polygon fill="#ffffff" stroke="transparent" points="692,-348 692,-366 728,-366 728,-348 692,-348"/>
<polygon fill="none" stroke="black" points="692,-348 692,-366 728,-366 728,-348 692,-348"/>
<text text-anchor="start" x="709" y="-354.2" font-family="Helvetica,sans-Serif" font-size="11.00">3 &gt;</text>
</a>
</g>
</g>
<!-- m_appuser -->
<g id="node2" class="node">
<title>m_appuser</title>
<g id="a_node2"><a xlink:href="../../tables/m_appuser.html" xlink:title="m_appuser" target="_top">
<polygon fill="#ffffff" stroke="transparent" points="8,-348 8,-406 111,-406 111,-348 8,-348"/>
<polygon fill="#f5f5f5" stroke="transparent" points="8.5,-384 8.5,-406 111.5,-406 111.5,-384 8.5,-384"/>
<polygon fill="none" stroke="black" points="8.5,-384 8.5,-406 111.5,-406 111.5,-384 8.5,-384"/>
<text text-anchor="start" x="13.5" y="-393.2" font-family="Helvetica,sans-Serif" font-weight="bold" font-size="11.00">m_appuser</text>
<text text-anchor="start" x="76.5" y="-392.2" font-family="Helvetica,sans-Serif" font-size="11.00">[table]</text>
<polygon fill="none" stroke="black" points="8.5,-366 8.5,-384 111.5,-384 111.5,-366 8.5,-366"/>
<text text-anchor="start" x="11.5" y="-372.2" font-family="Helvetica,sans-Serif" font-size="11.00">...</text>
<polygon fill="#ffffff" stroke="transparent" points="8.5,-348 8.5,-366 37.5,-366 37.5,-348 8.5,-348"/>
<polygon fill="none" stroke="black" points="8.5,-348 8.5,-366 37.5,-366 37.5,-348 8.5,-348"/>
<text text-anchor="start" x="11.5" y="-354.2" font-family="Helvetica,sans-Serif" font-size="11.00">&lt; 2</text>
<polygon fill="#ffffff" stroke="transparent" points="37.5,-348 37.5,-366 79.5,-366 79.5,-348 37.5,-348"/>
<polygon fill="none" stroke="black" points="37.5,-348 37.5,-366 79.5,-366 79.5,-348 37.5,-348"/>
<text text-anchor="start" x="43.5" y="-354.2" font-family="Helvetica,sans-Serif" font-size="11.00">0 rows</text>
<polygon fill="#ffffff" stroke="transparent" points="79.5,-348 79.5,-366 111.5,-366 111.5,-348 79.5,-348"/>
<polygon fill="none" stroke="black" points="79.5,-348 79.5,-366 111.5,-366 111.5,-348 79.5,-348"/>
<text text-anchor="start" x="86.5" y="-354.2" font-family="Helvetica,sans-Serif" font-size="11.00">57 &gt;</text>
</a>
</g>
</g>
<!-- m_share_account&#45;&gt;m_appuser -->
<g id="edge1" class="edge">
<title>m_share_account:w&#45;&gt;m_appuser:e</title>
<path fill="none" stroke="black" d="M574.37,-375C374.65,-375 319.31,-375 112.5,-375"/>
<polygon fill="black" stroke="black" points="581,-375 589,-378.6 585,-375 589,-375 589,-375 589,-375 585,-375 589,-371.4 581,-375 581,-375"/>
<ellipse fill="none" stroke="black" cx="577.8" cy="-375" rx="3.2" ry="3.2"/>
</g>
<!-- m_share_account&#45;&gt;m_appuser -->
<g id="edge2" class="edge">
<title>m_share_account:w&#45;&gt;m_appuser:e</title>
<path fill="none" stroke="black" d="M574.67,-373.25C374.71,-349.01 319.42,-349.6 112.5,-375"/>
<polygon fill="black" stroke="black" points="581.06,-374.03 588.56,-378.57 585.03,-374.52 589,-375 589,-375 589,-375 585.03,-374.52 589.44,-371.43 581.06,-374.03 581.06,-374.03"/>
<ellipse fill="none" stroke="black" cx="577.88" cy="-373.64" rx="3.2" ry="3.2"/>
</g>
<!-- m_share_account&#45;&gt;m_appuser -->
<g id="edge3" class="edge">
<title>m_share_account:w&#45;&gt;m_appuser:e</title>
<path fill="none" stroke="black" d="M574.37,-374.11C374.65,-362.01 319.31,-362.3 112.5,-375"/>
<polygon fill="black" stroke="black" points="581.01,-374.51 588.78,-378.59 585.01,-374.76 589,-375 589,-375 589,-375 585.01,-374.76 589.22,-371.41 581.01,-374.51 581.01,-374.51"/>
<ellipse fill="none" stroke="black" cx="577.82" cy="-374.32" rx="3.2" ry="3.2"/>
</g>
<!-- m_share_account&#45;&gt;m_appuser -->
<g id="edge4" class="edge">
<title>m_share_account:w&#45;&gt;m_appuser:e</title>
<path fill="none" stroke="black" d="M574.37,-375C374.65,-375 319.31,-375 112.5,-375"/>
<polygon fill="black" stroke="black" points="581,-375 589,-378.6 585,-375 589,-375 589,-375 589,-375 585,-375 589,-371.4 581,-375 581,-375"/>
<ellipse fill="none" stroke="black" cx="577.8" cy="-375" rx="3.2" ry="3.2"/>
</g>
<!-- m_share_account&#45;&gt;m_appuser -->
<g id="edge6" class="edge">
<title>m_share_account:w&#45;&gt;m_appuser:e</title>
<path fill="none" stroke="black" d="M574.37,-375.89C374.65,-387.99 319.31,-387.7 112.5,-375"/>
<polygon fill="black" stroke="black" points="581.01,-375.49 589.22,-378.59 585.01,-375.24 589,-375 589,-375 589,-375 585.01,-375.24 588.78,-371.41 581.01,-375.49 581.01,-375.49"/>
<ellipse fill="none" stroke="black" cx="577.82" cy="-375.68" rx="3.2" ry="3.2"/>
</g>
<!-- m_share_account&#45;&gt;m_appuser -->
<g id="edge7" class="edge">
<title>m_share_account:w&#45;&gt;m_appuser:e</title>
<path fill="none" stroke="black" d="M574.67,-376.75C374.71,-400.99 319.42,-400.4 112.5,-375"/>
<polygon fill="black" stroke="black" points="581.06,-375.97 589.44,-378.57 585.03,-375.48 589,-375 589,-375 589,-375 585.03,-375.48 588.56,-371.43 581.06,-375.97 581.06,-375.97"/>
<ellipse fill="none" stroke="black" cx="577.88" cy="-376.36" rx="3.2" ry="3.2"/>
</g>
<!-- m_share_product -->
<g id="node3" class="node">
<title>m_share_product</title>
<g id="a_node3"><a xlink:href="../../tables/m_share_product.html" xlink:title="m_share_product" target="_top">
<polygon fill="#ffffff" stroke="transparent" points="160,-175 160,-321 458,-321 458,-175 160,-175"/>
<polygon fill="#f5f5f5" stroke="transparent" points="160,-299 160,-321 458,-321 458,-299 160,-299"/>
<polygon fill="none" stroke="black" points="160,-299 160,-321 458,-321 458,-299 160,-299"/>
<text text-anchor="start" x="165" y="-308.2" font-family="Helvetica,sans-Serif" font-weight="bold" font-size="11.00">m_share_product</text>
<text text-anchor="start" x="423" y="-307.2" font-family="Helvetica,sans-Serif" font-size="11.00">[table]</text>
<polygon fill="none" stroke="black" points="160,-277 160,-299 458,-299 458,-277 160,-277"/>
<image xlink:href="../../images/primaryKeys.png" width="11px" height="12px" preserveAspectRatio="xMinYMin meet" x="165" y="-294"/>
<text text-anchor="start" x="180" y="-285.2" font-family="Helvetica,sans-Serif" font-size="11.00">id</text>
<polygon fill="#ffffff" stroke="transparent" points="160,-255 160,-277 458,-277 458,-255 160,-255"/>
<polygon fill="none" stroke="black" points="160,-255 160,-277 458,-277 458,-255 160,-255"/>
<text text-anchor="start" x="180" y="-263.2" font-family="Helvetica,sans-Serif" font-size="11.00">name</text>
<polygon fill="#ffffff" stroke="transparent" points="160,-233 160,-255 458,-255 458,-233 160,-233"/>
<polygon fill="none" stroke="black" points="160,-233 160,-255 458,-255 458,-233 160,-233"/>
<image xlink:href="../../images/foreignKeys.png" width="11px" height="12px" preserveAspectRatio="xMinYMin meet" x="165" y="-250"/>
<text text-anchor="start" x="180" y="-241.2" font-family="Helvetica,sans-Serif" font-size="11.00">createdby_id</text>
<polygon fill="#ffffff" stroke="transparent" points="160,-211 160,-233 458,-233 458,-211 160,-211"/>
<polygon fill="none" stroke="black" points="160,-211 160,-233 458,-233 458,-211 160,-211"/>
<image xlink:href="../../images/foreignKeys.png" width="11px" height="12px" preserveAspectRatio="xMinYMin meet" x="165" y="-228"/>
<text text-anchor="start" x="180" y="-219.2" font-family="Helvetica,sans-Serif" font-size="11.00">lastmodifiedby_id</text>
<polygon fill="none" stroke="black" points="160,-193 160,-211 458,-211 458,-193 160,-193"/>
<text text-anchor="start" x="163" y="-199.2" font-family="Helvetica,sans-Serif" font-size="11.00">...</text>
<polygon fill="#ffffff" stroke="transparent" points="160,-175 160,-193 289,-193 289,-175 160,-175"/>
<polygon fill="none" stroke="black" points="160,-175 160,-193 289,-193 289,-175 160,-175"/>
<text text-anchor="start" x="163" y="-181.2" font-family="Helvetica,sans-Serif" font-size="11.00">&lt; 2</text>
<polygon fill="#ffffff" stroke="transparent" points="289,-175 289,-193 382,-193 382,-175 289,-175"/>
<polygon fill="none" stroke="black" points="289,-175 289,-193 382,-193 382,-175 289,-175"/>
<text text-anchor="start" x="346" y="-181.2" font-family="Helvetica,sans-Serif" font-size="11.00">0 rows</text>
<polygon fill="#ffffff" stroke="transparent" points="382,-175 382,-193 458,-193 458,-175 382,-175"/>
<polygon fill="none" stroke="black" points="382,-175 382,-193 458,-193 458,-175 382,-175"/>
<text text-anchor="start" x="439" y="-181.2" font-family="Helvetica,sans-Serif" font-size="11.00">4 &gt;</text>
</a>
</g>
</g>
<!-- m_share_account&#45;&gt;m_share_product -->
<g id="edge5" class="edge">
<title>m_share_account:w&#45;&gt;m_share_product:e</title>
<path fill="none" stroke="black" d="M574.56,-374.51C542.48,-372.1 529.42,-360.79 499,-338 476.23,-320.94 487.46,-288 459,-288"/>
<polygon fill="black" stroke="black" points="581,-374.73 588.88,-378.6 585,-374.86 589,-375 589,-375 589,-375 585,-374.86 589.12,-371.4 581,-374.73 581,-374.73"/>
<ellipse fill="none" stroke="black" cx="577.81" cy="-374.62" rx="3.2" ry="3.2"/>
</g>
<!-- m_share_product&#45;&gt;m_appuser -->
<g id="edge8" class="edge">
<title>m_share_product:w&#45;&gt;m_appuser:e</title>
<path fill="none" stroke="black" d="M144.61,-247.5C110.95,-268.34 168.25,-375 112.5,-375"/>
<polygon fill="black" stroke="black" points="151.23,-245.89 159.85,-247.5 155.11,-244.95 159,-244 159,-244 159,-244 155.11,-244.95 158.15,-240.5 151.23,-245.89 151.23,-245.89"/>
<ellipse fill="none" stroke="black" cx="148.12" cy="-246.65" rx="3.2" ry="3.2"/>
</g>
<!-- m_share_product&#45;&gt;m_appuser -->
<g id="edge9" class="edge">
<title>m_share_product:w&#45;&gt;m_appuser:e</title>
<path fill="none" stroke="black" d="M144.69,-224.92C102.5,-246.07 177.74,-375 112.5,-375"/>
<polygon fill="black" stroke="black" points="151.16,-223.6 159.72,-225.53 155.08,-222.8 159,-222 159,-222 159,-222 155.08,-222.8 158.28,-218.47 151.16,-223.6 151.16,-223.6"/>
<ellipse fill="none" stroke="black" cx="148.03" cy="-224.24" rx="3.2" ry="3.2"/>
</g>
<!-- m_share_product_charge -->
<g id="node4" class="node">
<title>m_share_product_charge</title>
<g id="a_node4"><a xlink:href="../../tables/m_share_product_charge.html" xlink:title="m_share_product_charge" target="_top">
<polygon fill="#ffffff" stroke="transparent" points="569.5,-269 569.5,-327 748.5,-327 748.5,-269 569.5,-269"/>
<polygon fill="#f5f5f5" stroke="transparent" points="570,-305 570,-327 749,-327 749,-305 570,-305"/>
<polygon fill="none" stroke="black" points="570,-305 570,-327 749,-327 749,-305 570,-305"/>
<text text-anchor="start" x="575" y="-314.2" font-family="Helvetica,sans-Serif" font-weight="bold" font-size="11.00">m_share_product_charge</text>
<text text-anchor="start" x="714" y="-313.2" font-family="Helvetica,sans-Serif" font-size="11.00">[table]</text>
<polygon fill="none" stroke="black" points="570,-287 570,-305 749,-305 749,-287 570,-287"/>
<text text-anchor="start" x="573" y="-293.2" font-family="Helvetica,sans-Serif" font-size="11.00">...</text>
<polygon fill="#ffffff" stroke="transparent" points="570,-269 570,-287 644,-287 644,-269 570,-269"/>
<polygon fill="none" stroke="black" points="570,-269 570,-287 644,-287 644,-269 570,-269"/>
<text text-anchor="start" x="573" y="-275.2" font-family="Helvetica,sans-Serif" font-size="11.00">&lt; 2</text>
<polygon fill="#ffffff" stroke="transparent" points="644,-269 644,-287 709,-287 709,-269 644,-269"/>
<polygon fill="none" stroke="black" points="644,-269 644,-287 709,-287 709,-269 644,-269"/>
<text text-anchor="start" x="673" y="-275.2" font-family="Helvetica,sans-Serif" font-size="11.00">0 rows</text>
<polygon fill="#ffffff" stroke="transparent" points="709,-269 709,-287 749,-287 749,-269 709,-269"/>
<polygon fill="none" stroke="black" points="709,-269 709,-287 749,-287 749,-269 709,-269"/>
<text text-anchor="start" x="739" y="-275.2" font-family="Helvetica,sans-Serif" font-size="11.00"> &#160;</text>
</a>
</g>
</g>
<!-- m_share_product_charge&#45;&gt;m_share_product -->
<g id="edge10" class="edge">
<title>m_share_product_charge:w&#45;&gt;m_share_product:e</title>
<path fill="none" stroke="black" d="M554.15,-295.73C516.92,-294.35 502.66,-288 459,-288"/>
<polygon fill="black" stroke="black" points="561,-295.86 568.94,-299.6 565,-295.93 569,-296 569,-296 569,-296 565,-295.93 569.06,-292.4 561,-295.86 561,-295.86"/>
<ellipse fill="none" stroke="black" cx="557.8" cy="-295.8" rx="3.2" ry="3.2"/>
</g>
<!-- m_share_product_dividend_pay_out -->
<g id="node5" class="node">
<title>m_share_product_dividend_pay_out</title>
<g id="a_node5"><a xlink:href="../../tables/m_share_product_dividend_pay_out.html" xlink:title="m_share_product_dividend_pay_out" target="_top">
<polygon fill="#ffffff" stroke="transparent" points="541,-37 541,-95 777,-95 777,-37 541,-37"/>
<polygon fill="#f5f5f5" stroke="transparent" points="541,-73 541,-95 777,-95 777,-73 541,-73"/>
<polygon fill="none" stroke="black" points="541,-73 541,-95 777,-95 777,-73 541,-73"/>
<text text-anchor="start" x="546" y="-82.2" font-family="Helvetica,sans-Serif" font-weight="bold" font-size="11.00">m_share_product_dividend_pay_out</text>
<text text-anchor="start" x="742" y="-81.2" font-family="Helvetica,sans-Serif" font-size="11.00">[table]</text>
<polygon fill="none" stroke="black" points="541,-55 541,-73 777,-73 777,-55 541,-55"/>
<text text-anchor="start" x="544" y="-61.2" font-family="Helvetica,sans-Serif" font-size="11.00">...</text>
<polygon fill="#ffffff" stroke="transparent" points="541,-37 541,-55 639,-55 639,-37 541,-37"/>
<polygon fill="none" stroke="black" points="541,-37 541,-55 639,-55 639,-37 541,-37"/>
<text text-anchor="start" x="544" y="-43.2" font-family="Helvetica,sans-Serif" font-size="11.00">&lt; 3</text>
<polygon fill="#ffffff" stroke="transparent" points="639,-37 639,-55 716,-55 716,-37 639,-37"/>
<polygon fill="none" stroke="black" points="639,-37 639,-55 716,-55 716,-37 639,-37"/>
<text text-anchor="start" x="680" y="-43.2" font-family="Helvetica,sans-Serif" font-size="11.00">0 rows</text>
<polygon fill="#ffffff" stroke="transparent" points="716,-37 716,-55 777,-55 777,-37 716,-37"/>
<polygon fill="none" stroke="black" points="716,-37 716,-55 777,-55 777,-37 716,-37"/>
<text text-anchor="start" x="758" y="-43.2" font-family="Helvetica,sans-Serif" font-size="11.00">1 &gt;</text>
</a>
</g>
</g>
<!-- m_share_product_dividend_pay_out&#45;&gt;m_appuser -->
<g id="edge11" class="edge">
<title>m_share_product_dividend_pay_out:w&#45;&gt;m_appuser:e</title>
<path fill="none" stroke="black" d="M525.58,-63.94C356.96,-62.52 270.27,-38.31 152,-165 87.19,-234.42 207.47,-375 112.5,-375"/>
<polygon fill="black" stroke="black" points="532,-63.97 539.98,-67.6 536,-63.98 540,-64 540,-64 540,-64 536,-63.98 540.02,-60.4 532,-63.97 532,-63.97"/>
<ellipse fill="none" stroke="black" cx="528.8" cy="-63.95" rx="3.2" ry="3.2"/>
</g>
<!-- m_share_product_dividend_pay_out&#45;&gt;m_appuser -->
<g id="edge12" class="edge">
<title>m_share_product_dividend_pay_out:w&#45;&gt;m_appuser:e</title>
<path fill="none" stroke="black" d="M525.55,-63.95C356.52,-62.7 270.19,-41.62 152,-169 88.59,-237.34 205.72,-375 112.5,-375"/>
<polygon fill="black" stroke="black" points="532,-63.97 539.99,-67.6 536,-63.98 540,-64 540,-64 540,-64 536,-63.98 540.01,-60.4 532,-63.97 532,-63.97"/>
<ellipse fill="none" stroke="black" cx="528.8" cy="-63.96" rx="3.2" ry="3.2"/>
</g>
<!-- m_share_product_dividend_pay_out&#45;&gt;m_share_product -->
<g id="edge13" class="edge">
<title>m_share_product_dividend_pay_out:w&#45;&gt;m_share_product:e</title>
<path fill="none" stroke="black" d="M525.51,-66.76C512.26,-72.83 508.58,-88.24 499,-106 459.67,-178.88 541.82,-288 459,-288"/>
<polygon fill="black" stroke="black" points="532.14,-65.5 540.67,-67.54 536.07,-64.75 540,-64 540,-64 540,-64 536.07,-64.75 539.33,-60.46 532.14,-65.5 532.14,-65.5"/>
<ellipse fill="none" stroke="black" cx="529" cy="-66.09" rx="3.2" ry="3.2"/>
</g>
<!-- m_share_product_market_price -->
<g id="node6" class="node">
<title>m_share_product_market_price</title>
<g id="a_node6"><a xlink:href="../../tables/m_share_product_market_price.html" xlink:title="m_share_product_market_price" target="_top">
<polygon fill="#ffffff" stroke="transparent" points="507,-116 507,-248 811,-248 811,-116 507,-116"/>
<polygon fill="#f5f5f5" stroke="transparent" points="509,-224 509,-246 809,-246 809,-224 509,-224"/>
<polygon fill="none" stroke="black" points="509,-224 509,-246 809,-246 809,-224 509,-224"/>
<text text-anchor="start" x="514" y="-233.2" font-family="Helvetica,sans-Serif" font-weight="bold" font-size="11.00">m_share_product_market_price</text>
<text text-anchor="start" x="774" y="-232.2" font-family="Helvetica,sans-Serif" font-size="11.00">[table]</text>
<polygon fill="none" stroke="black" points="509,-202 509,-224 739,-224 739,-202 509,-202"/>
<image xlink:href="../../images/primaryKeys.png" width="11px" height="12px" preserveAspectRatio="xMinYMin meet" x="514" y="-219"/>
<text text-anchor="start" x="529" y="-210.2" font-family="Helvetica,sans-Serif" font-size="11.00">id</text>
<polygon fill="none" stroke="black" points="739,-202 739,-224 809,-224 809,-202 739,-202"/>
<text text-anchor="start" x="742" y="-210.2" font-family="Helvetica,sans-Serif" font-size="11.00">bigint[19]</text>
<polygon fill="#ffffff" stroke="transparent" points="509,-180 509,-202 739,-202 739,-180 509,-180"/>
<polygon fill="none" stroke="black" points="509,-180 509,-202 739,-202 739,-180 509,-180"/>
<image xlink:href="../../images/foreignKeys.png" width="11px" height="12px" preserveAspectRatio="xMinYMin meet" x="514" y="-197"/>
<text text-anchor="start" x="529" y="-188.2" font-family="Helvetica,sans-Serif" font-size="11.00">product_id</text>
<polygon fill="none" stroke="black" points="739,-180 739,-202 809,-202 809,-180 739,-180"/>
<text text-anchor="start" x="742" y="-188.2" font-family="Helvetica,sans-Serif" font-size="11.00">bigint[19]</text>
<polygon fill="none" stroke="black" points="509,-158 509,-180 739,-180 739,-158 509,-158"/>
<text text-anchor="start" x="529" y="-166.2" font-family="Helvetica,sans-Serif" font-size="11.00">from_date</text>
<polygon fill="none" stroke="black" points="739,-158 739,-180 809,-180 809,-158 739,-158"/>
<text text-anchor="start" x="742" y="-166.2" font-family="Helvetica,sans-Serif" font-size="11.00">date[10]</text>
<polygon fill="none" stroke="black" points="509,-136 509,-158 739,-158 739,-136 509,-136"/>
<text text-anchor="start" x="529" y="-144.2" font-family="Helvetica,sans-Serif" font-size="11.00">share_value</text>
<polygon fill="none" stroke="black" points="739,-136 739,-158 809,-158 809,-136 739,-136"/>
<text text-anchor="start" x="742" y="-144.2" font-family="Helvetica,sans-Serif" font-size="11.00">decimal[10,2]</text>
<polygon fill="#ffffff" stroke="transparent" points="509,-118 509,-136 615,-136 615,-118 509,-118"/>
<polygon fill="none" stroke="black" points="509,-118 509,-136 615,-136 615,-118 509,-118"/>
<text text-anchor="start" x="512" y="-124.2" font-family="Helvetica,sans-Serif" font-size="11.00">&lt; 1</text>
<polygon fill="#ffffff" stroke="transparent" points="615,-118 615,-136 739,-136 739,-118 615,-118"/>
<polygon fill="none" stroke="black" points="615,-118 615,-136 739,-136 739,-118 615,-118"/>
<text text-anchor="start" x="703" y="-124.2" font-family="Helvetica,sans-Serif" font-size="11.00">0 rows</text>
<polygon fill="#ffffff" stroke="transparent" points="739,-118 739,-136 809,-136 809,-118 739,-118"/>
<polygon fill="none" stroke="black" points="739,-118 739,-136 809,-136 809,-118 739,-118"/>
<text text-anchor="start" x="790" y="-124.2" font-family="Helvetica,sans-Serif" font-size="11.00">0 &gt;</text>
<polygon fill="none" stroke="black" stroke-width="2" points="508,-117 508,-247 810,-247 810,-117 508,-117"/>
</a>
</g>
</g>
<!-- m_share_product_market_price&#45;&gt;m_share_product -->
<g id="edge14" class="edge">
<title>m_share_product_market_price:w&#45;&gt;m_share_product:e</title>
<path fill="none" stroke="black" d="M494.01,-195.17C470.1,-213.73 501.26,-288 459,-288"/>
<polygon fill="black" stroke="black" points="500.33,-193.28 509.03,-194.45 504.17,-192.14 508,-191 508,-191 508,-191 504.17,-192.14 506.97,-187.55 500.33,-193.28 500.33,-193.28"/>
<ellipse fill="none" stroke="black" cx="497.27" cy="-194.2" rx="3.2" ry="3.2"/>
</g>
</g>
</svg>
