<?xml version="1.0" encoding="UTF-8" standalone="no"?>
<!DOCTYPE svg PUBLIC "-//W3C//DTD SVG 1.1//EN"
 "http://www.w3.org/Graphics/SVG/1.1/DTD/svg11.dtd">
<!-- Generated by graphviz version 2.43.0 (0)
 -->
<!-- Title: oneDegreeRelationshipsDiagram Pages: 1 -->
<svg width="675pt" height="219pt"
 viewBox="0.00 0.00 675.00 219.00" xmlns="http://www.w3.org/2000/svg" xmlns:xlink="http://www.w3.org/1999/xlink">
<g id="graph0" class="graph" transform="scale(1 1) rotate(0) translate(4 215)">
<title>oneDegreeRelationshipsDiagram</title>
<polygon fill="#ffffff" stroke="transparent" points="-4,4 -4,-215 671,-215 671,4 -4,4"/>
<text text-anchor="middle" x="71.5" y="-7.2" font-family="Helvetica,sans-Serif" font-size="11.00">Generated by SchemaSpy</text>
<!-- m_share_product_market_price -->
<g id="node1" class="node">
<title>m_share_product_market_price</title>
<g id="a_node1"><a xlink:href="../../tables/m_share_product_market_price.html" xlink:title="m_share_product_market_price" target="_top">
<polygon fill="#ffffff" stroke="transparent" points="355,-75 355,-207 659,-207 659,-75 355,-75"/>
<polygon fill="#f5f5f5" stroke="transparent" points="357,-183 357,-205 657,-205 657,-183 357,-183"/>
<polygon fill="none" stroke="black" points="357,-183 357,-205 657,-205 657,-183 357,-183"/>
<text text-anchor="start" x="362" y="-192.2" font-family="Helvetica,sans-Serif" font-weight="bold" font-size="11.00">m_share_product_market_price</text>
<text text-anchor="start" x="622" y="-191.2" font-family="Helvetica,sans-Serif" font-size="11.00">[table]</text>
<polygon fill="none" stroke="black" points="357,-161 357,-183 587,-183 587,-161 357,-161"/>
<image xlink:href="../../images/primaryKeys.png" width="11px" height="12px" preserveAspectRatio="xMinYMin meet" x="362" y="-178"/>
<text text-anchor="start" x="377" y="-169.2" font-family="Helvetica,sans-Serif" font-size="11.00">id</text>
<polygon fill="none" stroke="black" points="587,-161 587,-183 657,-183 657,-161 587,-161"/>
<text text-anchor="start" x="590" y="-169.2" font-family="Helvetica,sans-Serif" font-size="11.00">bigint[19]</text>
<polygon fill="#ffffff" stroke="transparent" points="357,-139 357,-161 587,-161 587,-139 357,-139"/>
<polygon fill="none" stroke="black" points="357,-139 357,-161 587,-161 587,-139 357,-139"/>
<image xlink:href="../../images/foreignKeys.png" width="11px" height="12px" preserveAspectRatio="xMinYMin meet" x="362" y="-156"/>
<text text-anchor="start" x="377" y="-147.2" font-family="Helvetica,sans-Serif" font-size="11.00">product_id</text>
<polygon fill="none" stroke="black" points="587,-139 587,-161 657,-161 657,-139 587,-139"/>
<text text-anchor="start" x="590" y="-147.2" font-family="Helvetica,sans-Serif" font-size="11.00">bigint[19]</text>
<polygon fill="none" stroke="black" points="357,-117 357,-139 587,-139 587,-117 357,-117"/>
<text text-anchor="start" x="377" y="-125.2" font-family="Helvetica,sans-Serif" font-size="11.00">from_date</text>
<polygon fill="none" stroke="black" points="587,-117 587,-139 657,-139 657,-117 587,-117"/>
<text text-anchor="start" x="590" y="-125.2" font-family="Helvetica,sans-Serif" font-size="11.00">date[10]</text>
<polygon fill="none" stroke="black" points="357,-95 357,-117 587,-117 587,-95 357,-95"/>
<text text-anchor="start" x="377" y="-103.2" font-family="Helvetica,sans-Serif" font-size="11.00">share_value</text>
<polygon fill="none" stroke="black" points="587,-95 587,-117 657,-117 657,-95 587,-95"/>
<text text-anchor="start" x="590" y="-103.2" font-family="Helvetica,sans-Serif" font-size="11.00">decimal[10,2]</text>
<polygon fill="#ffffff" stroke="transparent" points="357,-77 357,-95 463,-95 463,-77 357,-77"/>
<polygon fill="none" stroke="black" points="357,-77 357,-95 463,-95 463,-77 357,-77"/>
<text text-anchor="start" x="360" y="-83.2" font-family="Helvetica,sans-Serif" font-size="11.00">&lt; 1</text>
<polygon fill="#ffffff" stroke="transparent" points="463,-77 463,-95 587,-95 587,-77 463,-77"/>
<polygon fill="none" stroke="black" points="463,-77 463,-95 587,-95 587,-77 463,-77"/>
<text text-anchor="start" x="551" y="-83.2" font-family="Helvetica,sans-Serif" font-size="11.00">0 rows</text>
<polygon fill="#ffffff" stroke="transparent" points="587,-77 587,-95 657,-95 657,-77 587,-77"/>
<polygon fill="none" stroke="black" points="587,-77 587,-95 657,-95 657,-77 587,-77"/>
<text text-anchor="start" x="638" y="-83.2" font-family="Helvetica,sans-Serif" font-size="11.00">0 &gt;</text>
<polygon fill="none" stroke="black" stroke-width="2" points="356,-76 356,-206 658,-206 658,-76 356,-76"/>
</a>
</g>
</g>
<!-- m_share_product -->
<g id="node2" class="node">
<title>m_share_product</title>
<g id="a_node2"><a xlink:href="../../tables/m_share_product.html" xlink:title="m_share_product" target="_top">
<polygon fill="#ffffff" stroke="transparent" points="8,-37 8,-183 306,-183 306,-37 8,-37"/>
<polygon fill="#f5f5f5" stroke="transparent" points="8,-161 8,-183 306,-183 306,-161 8,-161"/>
<polygon fill="none" stroke="black" points="8,-161 8,-183 306,-183 306,-161 8,-161"/>
<text text-anchor="start" x="13" y="-170.2" font-family="Helvetica,sans-Serif" font-weight="bold" font-size="11.00">m_share_product</text>
<text text-anchor="start" x="271" y="-169.2" font-family="Helvetica,sans-Serif" font-size="11.00">[table]</text>
<polygon fill="none" stroke="black" points="8,-139 8,-161 306,-161 306,-139 8,-139"/>
<image xlink:href="../../images/primaryKeys.png" width="11px" height="12px" preserveAspectRatio="xMinYMin meet" x="13" y="-156"/>
<text text-anchor="start" x="28" y="-147.2" font-family="Helvetica,sans-Serif" font-size="11.00">id</text>
<polygon fill="#ffffff" stroke="transparent" points="8,-117 8,-139 306,-139 306,-117 8,-117"/>
<polygon fill="none" stroke="black" points="8,-117 8,-139 306,-139 306,-117 8,-117"/>
<text text-anchor="start" x="28" y="-125.2" font-family="Helvetica,sans-Serif" font-size="11.00">name</text>
<polygon fill="#ffffff" stroke="transparent" points="8,-95 8,-117 306,-117 306,-95 8,-95"/>
<polygon fill="none" stroke="black" points="8,-95 8,-117 306,-117 306,-95 8,-95"/>
<image xlink:href="../../images/foreignKeys.png" width="11px" height="12px" preserveAspectRatio="xMinYMin meet" x="13" y="-112"/>
<text text-anchor="start" x="28" y="-103.2" font-family="Helvetica,sans-Serif" font-size="11.00">createdby_id</text>
<polygon fill="#ffffff" stroke="transparent" points="8,-73 8,-95 306,-95 306,-73 8,-73"/>
<polygon fill="none" stroke="black" points="8,-73 8,-95 306,-95 306,-73 8,-73"/>
<image xlink:href="../../images/foreignKeys.png" width="11px" height="12px" preserveAspectRatio="xMinYMin meet" x="13" y="-90"/>
<text text-anchor="start" x="28" y="-81.2" font-family="Helvetica,sans-Serif" font-size="11.00">lastmodifiedby_id</text>
<polygon fill="none" stroke="black" points="8,-55 8,-73 306,-73 306,-55 8,-55"/>
<text text-anchor="start" x="11" y="-61.2" font-family="Helvetica,sans-Serif" font-size="11.00">...</text>
<polygon fill="#ffffff" stroke="transparent" points="8,-37 8,-55 137,-55 137,-37 8,-37"/>
<polygon fill="none" stroke="black" points="8,-37 8,-55 137,-55 137,-37 8,-37"/>
<text text-anchor="start" x="11" y="-43.2" font-family="Helvetica,sans-Serif" font-size="11.00">&lt; 2</text>
<polygon fill="#ffffff" stroke="transparent" points="137,-37 137,-55 230,-55 230,-37 137,-37"/>
<polygon fill="none" stroke="black" points="137,-37 137,-55 230,-55 230,-37 137,-37"/>
<text text-anchor="start" x="194" y="-43.2" font-family="Helvetica,sans-Serif" font-size="11.00">0 rows</text>
<polygon fill="#ffffff" stroke="transparent" points="230,-37 230,-55 306,-55 306,-37 230,-37"/>
<polygon fill="none" stroke="black" points="230,-37 230,-55 306,-55 306,-37 230,-37"/>
<text text-anchor="start" x="287" y="-43.2" font-family="Helvetica,sans-Serif" font-size="11.00">4 &gt;</text>
</a>
</g>
</g>
<!-- m_share_product_market_price&#45;&gt;m_share_product -->
<g id="edge1" class="edge">
<title>m_share_product_market_price:w&#45;&gt;m_share_product:e</title>
<path fill="none" stroke="black" d="M341.49,-150C330.18,-150 322.99,-150 307,-150"/>
<polygon fill="black" stroke="black" points="348,-150 356,-153.6 352,-150 356,-150 356,-150 356,-150 352,-150 356,-146.4 348,-150 348,-150"/>
<ellipse fill="none" stroke="black" cx="344.8" cy="-150" rx="3.2" ry="3.2"/>
</g>
</g>
</svg>
