<?xml version="1.0" encoding="UTF-8" standalone="no"?>
<!DOCTYPE svg PUBLIC "-//W3C//DTD SVG 1.1//EN"
 "http://www.w3.org/Graphics/SVG/1.1/DTD/svg11.dtd">
<!-- Generated by graphviz version 2.43.0 (0)
 -->
<!-- Title: twoDegreesRelationshipsDiagram Pages: 1 -->
<svg width="1083pt" height="531pt"
 viewBox="0.00 0.00 1082.88 531.00" xmlns="http://www.w3.org/2000/svg" xmlns:xlink="http://www.w3.org/1999/xlink">
<g id="graph0" class="graph" transform="scale(1 1) rotate(0) translate(4 527)">
<title>twoDegreesRelationshipsDiagram</title>
<polygon fill="#ffffff" stroke="transparent" points="-4,4 -4,-527 1078.88,-527 1078.88,4 -4,4"/>
<text text-anchor="middle" x="71.5" y="-7.2" font-family="Helvetica,sans-Serif" font-size="11.00">Generated by SchemaSpy</text>
<!-- m_client -->
<g id="node1" class="node">
<title>m_client</title>
<g id="a_node1"><a xlink:href="../../tables/m_client.html" xlink:title="m_client" target="_top">
<polygon fill="#ffffff" stroke="transparent" points="227.88,-433 227.88,-491 322.88,-491 322.88,-433 227.88,-433"/>
<polygon fill="#f5f5f5" stroke="transparent" points="228.38,-469 228.38,-491 323.38,-491 323.38,-469 228.38,-469"/>
<polygon fill="none" stroke="black" points="228.38,-469 228.38,-491 323.38,-491 323.38,-469 228.38,-469"/>
<text text-anchor="start" x="233.38" y="-478.2" font-family="Helvetica,sans-Serif" font-weight="bold" font-size="11.00">m_client</text>
<text text-anchor="start" x="288.38" y="-477.2" font-family="Helvetica,sans-Serif" font-size="11.00">[table]</text>
<polygon fill="none" stroke="black" points="228.38,-451 228.38,-469 323.38,-469 323.38,-451 228.38,-451"/>
<text text-anchor="start" x="231.38" y="-457.2" font-family="Helvetica,sans-Serif" font-size="11.00">...</text>
<polygon fill="#ffffff" stroke="transparent" points="228.38,-433 228.38,-451 256.38,-451 256.38,-433 228.38,-433"/>
<polygon fill="none" stroke="black" points="228.38,-433 228.38,-451 256.38,-451 256.38,-433 228.38,-433"/>
<text text-anchor="start" x="231.38" y="-439.2" font-family="Helvetica,sans-Serif" font-size="11.00">&lt; 13</text>
<polygon fill="#ffffff" stroke="transparent" points="256.38,-433 256.38,-451 295.38,-451 295.38,-433 256.38,-433"/>
<polygon fill="none" stroke="black" points="256.38,-433 256.38,-451 295.38,-451 295.38,-433 256.38,-433"/>
<text text-anchor="start" x="259.38" y="-439.2" font-family="Helvetica,sans-Serif" font-size="11.00">0 rows</text>
<polygon fill="#ffffff" stroke="transparent" points="295.38,-433 295.38,-451 323.38,-451 323.38,-433 295.38,-433"/>
<polygon fill="none" stroke="black" points="295.38,-433 295.38,-451 323.38,-451 323.38,-433 295.38,-433"/>
<text text-anchor="start" x="298.38" y="-439.2" font-family="Helvetica,sans-Serif" font-size="11.00">23 &gt;</text>
</a>
</g>
</g>
<!-- m_savings_account -->
<g id="node2" class="node">
<title>m_savings_account</title>
<g id="a_node2"><a xlink:href="../../tables/m_savings_account.html" xlink:title="m_savings_account" target="_top">
<polygon fill="#ffffff" stroke="transparent" points="8.88,-433 8.88,-491 157.88,-491 157.88,-433 8.88,-433"/>
<polygon fill="#f5f5f5" stroke="transparent" points="9.38,-469 9.38,-491 158.38,-491 158.38,-469 9.38,-469"/>
<polygon fill="none" stroke="black" points="9.38,-469 9.38,-491 158.38,-491 158.38,-469 9.38,-469"/>
<text text-anchor="start" x="14.38" y="-478.2" font-family="Helvetica,sans-Serif" font-weight="bold" font-size="11.00">m_savings_account</text>
<text text-anchor="start" x="123.38" y="-477.2" font-family="Helvetica,sans-Serif" font-size="11.00">[table]</text>
<polygon fill="none" stroke="black" points="9.38,-451 9.38,-469 158.38,-469 158.38,-451 9.38,-451"/>
<text text-anchor="start" x="12.38" y="-457.2" font-family="Helvetica,sans-Serif" font-size="11.00">...</text>
<polygon fill="#ffffff" stroke="transparent" points="9.38,-433 9.38,-451 61.38,-451 61.38,-433 9.38,-433"/>
<polygon fill="none" stroke="black" points="9.38,-433 9.38,-451 61.38,-451 61.38,-433 9.38,-433"/>
<text text-anchor="start" x="12.38" y="-439.2" font-family="Helvetica,sans-Serif" font-size="11.00">&lt; 5</text>
<polygon fill="#ffffff" stroke="transparent" points="61.38,-433 61.38,-451 115.38,-451 115.38,-433 61.38,-433"/>
<polygon fill="none" stroke="black" points="61.38,-433 61.38,-451 115.38,-451 115.38,-433 61.38,-433"/>
<text text-anchor="start" x="79.38" y="-439.2" font-family="Helvetica,sans-Serif" font-size="11.00">0 rows</text>
<polygon fill="#ffffff" stroke="transparent" points="115.38,-433 115.38,-451 158.38,-451 158.38,-433 115.38,-433"/>
<polygon fill="none" stroke="black" points="115.38,-433 115.38,-451 158.38,-451 158.38,-433 115.38,-433"/>
<text text-anchor="start" x="133.38" y="-439.2" font-family="Helvetica,sans-Serif" font-size="11.00">17 &gt;</text>
</a>
</g>
</g>
<!-- m_client&#45;&gt;m_savings_account -->
<g id="edge1" class="edge">
<title>m_client:w&#45;&gt;m_savings_account:e</title>
<path fill="none" stroke="black" d="M212.75,-460C193.62,-460 184.06,-460 159.38,-460"/>
<polygon fill="black" stroke="black" points="219.38,-460 227.38,-463.6 223.38,-460 227.38,-460 227.38,-460 227.38,-460 223.38,-460 227.38,-456.4 219.38,-460 219.38,-460"/>
<ellipse fill="none" stroke="black" cx="216.18" cy="-460" rx="3.2" ry="3.2"/>
</g>
<!-- m_savings_account&#45;&gt;m_client -->
<g id="edge2" class="edge">
<title>m_savings_account:w&#45;&gt;m_client:e</title>
<path fill="none" stroke="black" d="M0,-448.1C0.74,-441.54 4.43,-433.79 9.38,-429 21.92,-416.87 310.85,-416.87 323.38,-429 333.29,-438.59 338.17,-460 324.38,-460"/>
<polygon fill="black" stroke="black" points="3.78,-453.46 5.44,-462.07 6.08,-456.73 8.38,-460 8.38,-460 8.38,-460 6.08,-456.73 11.33,-457.93 3.78,-453.46 3.78,-453.46"/>
<ellipse fill="none" stroke="black" cx="1.93" cy="-450.84" rx="3.2" ry="3.2"/>
</g>
<!-- m_share_account -->
<g id="node3" class="node">
<title>m_share_account</title>
<g id="a_node3"><a xlink:href="../../tables/m_share_account.html" xlink:title="m_share_account" target="_top">
<polygon fill="#ffffff" stroke="transparent" points="392.88,-204 392.88,-482 690.88,-482 690.88,-204 392.88,-204"/>
<polygon fill="#f5f5f5" stroke="transparent" points="392.88,-460 392.88,-482 690.88,-482 690.88,-460 392.88,-460"/>
<polygon fill="none" stroke="black" points="392.88,-460 392.88,-482 690.88,-482 690.88,-460 392.88,-460"/>
<text text-anchor="start" x="397.88" y="-469.2" font-family="Helvetica,sans-Serif" font-weight="bold" font-size="11.00">m_share_account</text>
<text text-anchor="start" x="655.88" y="-468.2" font-family="Helvetica,sans-Serif" font-size="11.00">[table]</text>
<polygon fill="none" stroke="black" points="392.88,-438 392.88,-460 690.88,-460 690.88,-438 392.88,-438"/>
<image xlink:href="../../images/primaryKeys.png" width="11px" height="12px" preserveAspectRatio="xMinYMin meet" x="397.883" y="-455"/>
<text text-anchor="start" x="412.88" y="-446.2" font-family="Helvetica,sans-Serif" font-size="11.00">id</text>
<polygon fill="#ffffff" stroke="transparent" points="392.88,-416 392.88,-438 690.88,-438 690.88,-416 392.88,-416"/>
<polygon fill="none" stroke="black" points="392.88,-416 392.88,-438 690.88,-438 690.88,-416 392.88,-416"/>
<image xlink:href="../../images/foreignKeys.png" width="11px" height="12px" preserveAspectRatio="xMinYMin meet" x="397.883" y="-433"/>
<text text-anchor="start" x="412.88" y="-424.2" font-family="Helvetica,sans-Serif" font-size="11.00">product_id</text>
<polygon fill="#ffffff" stroke="transparent" points="392.88,-394 392.88,-416 690.88,-416 690.88,-394 392.88,-394"/>
<polygon fill="none" stroke="black" points="392.88,-394 392.88,-416 690.88,-416 690.88,-394 392.88,-394"/>
<image xlink:href="../../images/foreignKeys.png" width="11px" height="12px" preserveAspectRatio="xMinYMin meet" x="397.883" y="-411"/>
<text text-anchor="start" x="412.88" y="-402.2" font-family="Helvetica,sans-Serif" font-size="11.00">client_id</text>
<polygon fill="#ffffff" stroke="transparent" points="392.88,-372 392.88,-394 690.88,-394 690.88,-372 392.88,-372"/>
<polygon fill="none" stroke="black" points="392.88,-372 392.88,-394 690.88,-394 690.88,-372 392.88,-372"/>
<image xlink:href="../../images/foreignKeys.png" width="11px" height="12px" preserveAspectRatio="xMinYMin meet" x="397.883" y="-389"/>
<text text-anchor="start" x="412.88" y="-380.2" font-family="Helvetica,sans-Serif" font-size="11.00">submitted_userid</text>
<polygon fill="#ffffff" stroke="transparent" points="392.88,-350 392.88,-372 690.88,-372 690.88,-350 392.88,-350"/>
<polygon fill="none" stroke="black" points="392.88,-350 392.88,-372 690.88,-372 690.88,-350 392.88,-350"/>
<image xlink:href="../../images/foreignKeys.png" width="11px" height="12px" preserveAspectRatio="xMinYMin meet" x="397.883" y="-367"/>
<text text-anchor="start" x="412.88" y="-358.2" font-family="Helvetica,sans-Serif" font-size="11.00">approved_userid</text>
<polygon fill="#ffffff" stroke="transparent" points="392.88,-328 392.88,-350 690.88,-350 690.88,-328 392.88,-328"/>
<polygon fill="none" stroke="black" points="392.88,-328 392.88,-350 690.88,-350 690.88,-328 392.88,-328"/>
<image xlink:href="../../images/foreignKeys.png" width="11px" height="12px" preserveAspectRatio="xMinYMin meet" x="397.883" y="-345"/>
<text text-anchor="start" x="412.88" y="-336.2" font-family="Helvetica,sans-Serif" font-size="11.00">rejected_userid</text>
<polygon fill="#ffffff" stroke="transparent" points="392.88,-306 392.88,-328 690.88,-328 690.88,-306 392.88,-306"/>
<polygon fill="none" stroke="black" points="392.88,-306 392.88,-328 690.88,-328 690.88,-306 392.88,-306"/>
<image xlink:href="../../images/foreignKeys.png" width="11px" height="12px" preserveAspectRatio="xMinYMin meet" x="397.883" y="-323"/>
<text text-anchor="start" x="412.88" y="-314.2" font-family="Helvetica,sans-Serif" font-size="11.00">activated_userid</text>
<polygon fill="#ffffff" stroke="transparent" points="392.88,-284 392.88,-306 690.88,-306 690.88,-284 392.88,-284"/>
<polygon fill="none" stroke="black" points="392.88,-284 392.88,-306 690.88,-306 690.88,-284 392.88,-284"/>
<image xlink:href="../../images/foreignKeys.png" width="11px" height="12px" preserveAspectRatio="xMinYMin meet" x="397.883" y="-301"/>
<text text-anchor="start" x="412.88" y="-292.2" font-family="Helvetica,sans-Serif" font-size="11.00">closed_userid</text>
<polygon fill="#ffffff" stroke="transparent" points="392.88,-262 392.88,-284 690.88,-284 690.88,-262 392.88,-262"/>
<polygon fill="none" stroke="black" points="392.88,-262 392.88,-284 690.88,-284 690.88,-262 392.88,-262"/>
<image xlink:href="../../images/foreignKeys.png" width="11px" height="12px" preserveAspectRatio="xMinYMin meet" x="397.883" y="-279"/>
<text text-anchor="start" x="412.88" y="-270.2" font-family="Helvetica,sans-Serif" font-size="11.00">savings_account_id</text>
<polygon fill="#ffffff" stroke="transparent" points="392.88,-240 392.88,-262 690.88,-262 690.88,-240 392.88,-240"/>
<polygon fill="none" stroke="black" points="392.88,-240 392.88,-262 690.88,-262 690.88,-240 392.88,-240"/>
<image xlink:href="../../images/foreignKeys.png" width="11px" height="12px" preserveAspectRatio="xMinYMin meet" x="397.883" y="-257"/>
<text text-anchor="start" x="412.88" y="-248.2" font-family="Helvetica,sans-Serif" font-size="11.00">lastmodifiedby_id</text>
<polygon fill="none" stroke="black" points="392.88,-222 392.88,-240 690.88,-240 690.88,-222 392.88,-222"/>
<text text-anchor="start" x="395.88" y="-228.2" font-family="Helvetica,sans-Serif" font-size="11.00">...</text>
<polygon fill="#ffffff" stroke="transparent" points="392.88,-204 392.88,-222 521.88,-222 521.88,-204 392.88,-204"/>
<polygon fill="none" stroke="black" points="392.88,-204 392.88,-222 521.88,-222 521.88,-204 392.88,-204"/>
<text text-anchor="start" x="395.88" y="-210.2" font-family="Helvetica,sans-Serif" font-size="11.00">&lt; 9</text>
<polygon fill="#ffffff" stroke="transparent" points="521.88,-204 521.88,-222 614.88,-222 614.88,-204 521.88,-204"/>
<polygon fill="none" stroke="black" points="521.88,-204 521.88,-222 614.88,-222 614.88,-204 521.88,-204"/>
<text text-anchor="start" x="578.88" y="-210.2" font-family="Helvetica,sans-Serif" font-size="11.00">0 rows</text>
<polygon fill="#ffffff" stroke="transparent" points="614.88,-204 614.88,-222 690.88,-222 690.88,-204 614.88,-204"/>
<polygon fill="none" stroke="black" points="614.88,-204 614.88,-222 690.88,-222 690.88,-204 614.88,-204"/>
<text text-anchor="start" x="671.88" y="-210.2" font-family="Helvetica,sans-Serif" font-size="11.00">3 &gt;</text>
</a>
</g>
</g>
<!-- m_share_account&#45;&gt;m_client -->
<g id="edge5" class="edge">
<title>m_share_account:w&#45;&gt;m_client:e</title>
<path fill="none" stroke="black" d="M377.54,-408.28C355.05,-420.12 357.34,-460 324.38,-460"/>
<polygon fill="black" stroke="black" points="384.08,-406.78 392.68,-408.51 387.98,-405.89 391.88,-405 391.88,-405 391.88,-405 387.98,-405.89 391.08,-401.49 384.08,-406.78 384.08,-406.78"/>
<ellipse fill="none" stroke="black" cx="380.96" cy="-407.49" rx="3.2" ry="3.2"/>
</g>
<!-- m_share_account&#45;&gt;m_savings_account -->
<g id="edge10" class="edge">
<title>m_share_account:w&#45;&gt;m_savings_account:e</title>
<path fill="none" stroke="black" d="M377.65,-276.39C357.38,-289.25 378.41,-335.56 351.88,-361 298.93,-411.79 260.7,-383.48 198.88,-423 178.62,-435.96 183.44,-460 159.38,-460"/>
<polygon fill="black" stroke="black" points="384.1,-274.85 392.72,-276.5 387.99,-273.93 391.88,-273 391.88,-273 391.88,-273 387.99,-273.93 391.05,-269.5 384.1,-274.85 384.1,-274.85"/>
<ellipse fill="none" stroke="black" cx="380.99" cy="-275.59" rx="3.2" ry="3.2"/>
</g>
<!-- m_appuser -->
<g id="node4" class="node">
<title>m_appuser</title>
<g id="a_node4"><a xlink:href="../../tables/m_appuser.html" xlink:title="m_appuser" target="_top">
<polygon fill="#ffffff" stroke="transparent" points="31.88,-234 31.88,-292 134.88,-292 134.88,-234 31.88,-234"/>
<polygon fill="#f5f5f5" stroke="transparent" points="32.38,-270 32.38,-292 135.38,-292 135.38,-270 32.38,-270"/>
<polygon fill="none" stroke="black" points="32.38,-270 32.38,-292 135.38,-292 135.38,-270 32.38,-270"/>
<text text-anchor="start" x="37.38" y="-279.2" font-family="Helvetica,sans-Serif" font-weight="bold" font-size="11.00">m_appuser</text>
<text text-anchor="start" x="100.38" y="-278.2" font-family="Helvetica,sans-Serif" font-size="11.00">[table]</text>
<polygon fill="none" stroke="black" points="32.38,-252 32.38,-270 135.38,-270 135.38,-252 32.38,-252"/>
<text text-anchor="start" x="35.38" y="-258.2" font-family="Helvetica,sans-Serif" font-size="11.00">...</text>
<polygon fill="#ffffff" stroke="transparent" points="32.38,-234 32.38,-252 61.38,-252 61.38,-234 32.38,-234"/>
<polygon fill="none" stroke="black" points="32.38,-234 32.38,-252 61.38,-252 61.38,-234 32.38,-234"/>
<text text-anchor="start" x="35.38" y="-240.2" font-family="Helvetica,sans-Serif" font-size="11.00">&lt; 2</text>
<polygon fill="#ffffff" stroke="transparent" points="61.38,-234 61.38,-252 103.38,-252 103.38,-234 61.38,-234"/>
<polygon fill="none" stroke="black" points="61.38,-234 61.38,-252 103.38,-252 103.38,-234 61.38,-234"/>
<text text-anchor="start" x="67.38" y="-240.2" font-family="Helvetica,sans-Serif" font-size="11.00">0 rows</text>
<polygon fill="#ffffff" stroke="transparent" points="103.38,-234 103.38,-252 135.38,-252 135.38,-234 103.38,-234"/>
<polygon fill="none" stroke="black" points="103.38,-234 103.38,-252 135.38,-252 135.38,-234 103.38,-234"/>
<text text-anchor="start" x="110.38" y="-240.2" font-family="Helvetica,sans-Serif" font-size="11.00">57 &gt;</text>
</a>
</g>
</g>
<!-- m_share_account&#45;&gt;m_appuser -->
<g id="edge3" class="edge">
<title>m_share_account:w&#45;&gt;m_appuser:e</title>
<path fill="none" stroke="black" d="M377.23,-316.89C302.08,-315.72 278.03,-305.14 198.88,-284 170.29,-276.36 165.98,-261 136.38,-261"/>
<polygon fill="black" stroke="black" points="383.88,-316.94 391.86,-320.6 387.88,-316.97 391.88,-317 391.88,-317 391.88,-317 387.88,-316.97 391.91,-313.4 383.88,-316.94 383.88,-316.94"/>
<ellipse fill="none" stroke="black" cx="380.68" cy="-316.92" rx="3.2" ry="3.2"/>
</g>
<!-- m_share_account&#45;&gt;m_appuser -->
<g id="edge4" class="edge">
<title>m_share_account:w&#45;&gt;m_appuser:e</title>
<path fill="none" stroke="black" d="M377.25,-361.18C301.72,-362.98 270.1,-377.26 198.88,-338 160.28,-316.72 180.46,-261 136.38,-261"/>
<polygon fill="black" stroke="black" points="383.88,-361.1 391.93,-364.6 387.88,-361.05 391.88,-361 391.88,-361 391.88,-361 387.88,-361.05 391.84,-357.4 383.88,-361.1 383.88,-361.1"/>
<ellipse fill="none" stroke="black" cx="380.68" cy="-361.14" rx="3.2" ry="3.2"/>
</g>
<!-- m_share_account&#45;&gt;m_appuser -->
<g id="edge6" class="edge">
<title>m_share_account:w&#45;&gt;m_appuser:e</title>
<path fill="none" stroke="black" d="M377.56,-293.18C369.62,-290.94 364,-287.18 351.88,-285 257.03,-267.94 232.75,-261 136.38,-261"/>
<polygon fill="black" stroke="black" points="383.95,-293.99 391.43,-298.57 387.91,-294.5 391.88,-295 391.88,-295 391.88,-295 387.91,-294.5 392.34,-291.43 383.95,-293.99 383.95,-293.99"/>
<ellipse fill="none" stroke="black" cx="380.77" cy="-293.59" rx="3.2" ry="3.2"/>
</g>
<!-- m_share_account&#45;&gt;m_appuser -->
<g id="edge7" class="edge">
<title>m_share_account:w&#45;&gt;m_appuser:e</title>
<path fill="none" stroke="black" d="M377.26,-251.32C322.75,-253.03 161.74,-261 136.38,-261"/>
<polygon fill="black" stroke="black" points="383.89,-251.18 391.96,-254.6 387.88,-251.09 391.88,-251 391.88,-251 391.88,-251 387.88,-251.09 391.8,-247.4 383.89,-251.18 383.89,-251.18"/>
<ellipse fill="none" stroke="black" cx="380.69" cy="-251.25" rx="3.2" ry="3.2"/>
</g>
<!-- m_share_account&#45;&gt;m_appuser -->
<g id="edge9" class="edge">
<title>m_share_account:w&#45;&gt;m_appuser:e</title>
<path fill="none" stroke="black" d="M377.4,-338.64C327.72,-336.44 234.89,-324.42 198.88,-309 166.69,-295.21 171.41,-261 136.38,-261"/>
<polygon fill="black" stroke="black" points="383.89,-338.8 391.79,-342.6 387.88,-338.9 391.88,-339 391.88,-339 391.88,-339 387.88,-338.9 391.97,-335.4 383.89,-338.8 383.89,-338.8"/>
<ellipse fill="none" stroke="black" cx="380.69" cy="-338.72" rx="3.2" ry="3.2"/>
</g>
<!-- m_share_account&#45;&gt;m_appuser -->
<g id="edge11" class="edge">
<title>m_share_account:w&#45;&gt;m_appuser:e</title>
<path fill="none" stroke="black" d="M377.23,-383.23C301.47,-385.58 267.62,-404.37 198.88,-361 154.56,-333.03 188.79,-261 136.38,-261"/>
<polygon fill="black" stroke="black" points="383.88,-383.13 391.94,-386.6 387.88,-383.06 391.88,-383 391.88,-383 391.88,-383 387.88,-383.06 391.83,-379.4 383.88,-383.13 383.88,-383.13"/>
<ellipse fill="none" stroke="black" cx="380.68" cy="-383.18" rx="3.2" ry="3.2"/>
</g>
<!-- m_share_product -->
<g id="node5" class="node">
<title>m_share_product</title>
<g id="a_node5"><a xlink:href="../../tables/m_share_product.html" xlink:title="m_share_product" target="_top">
<polygon fill="#ffffff" stroke="transparent" points="206.88,-165 206.88,-223 343.88,-223 343.88,-165 206.88,-165"/>
<polygon fill="#f5f5f5" stroke="transparent" points="207.38,-201 207.38,-223 344.38,-223 344.38,-201 207.38,-201"/>
<polygon fill="none" stroke="black" points="207.38,-201 207.38,-223 344.38,-223 344.38,-201 207.38,-201"/>
<text text-anchor="start" x="212.38" y="-210.2" font-family="Helvetica,sans-Serif" font-weight="bold" font-size="11.00">m_share_product</text>
<text text-anchor="start" x="309.38" y="-209.2" font-family="Helvetica,sans-Serif" font-size="11.00">[table]</text>
<polygon fill="none" stroke="black" points="207.38,-183 207.38,-201 344.38,-201 344.38,-183 207.38,-183"/>
<text text-anchor="start" x="210.38" y="-189.2" font-family="Helvetica,sans-Serif" font-size="11.00">...</text>
<polygon fill="#ffffff" stroke="transparent" points="207.38,-165 207.38,-183 256.38,-183 256.38,-165 207.38,-165"/>
<polygon fill="none" stroke="black" points="207.38,-165 207.38,-183 256.38,-183 256.38,-165 207.38,-165"/>
<text text-anchor="start" x="210.38" y="-171.2" font-family="Helvetica,sans-Serif" font-size="11.00">&lt; 2</text>
<polygon fill="#ffffff" stroke="transparent" points="256.38,-165 256.38,-183 308.38,-183 308.38,-165 256.38,-165"/>
<polygon fill="none" stroke="black" points="256.38,-165 256.38,-183 308.38,-183 308.38,-165 256.38,-165"/>
<text text-anchor="start" x="272.38" y="-171.2" font-family="Helvetica,sans-Serif" font-size="11.00">0 rows</text>
<polygon fill="#ffffff" stroke="transparent" points="308.38,-165 308.38,-183 344.38,-183 344.38,-165 308.38,-165"/>
<polygon fill="none" stroke="black" points="308.38,-165 308.38,-183 344.38,-183 344.38,-165 308.38,-165"/>
<text text-anchor="start" x="325.38" y="-171.2" font-family="Helvetica,sans-Serif" font-size="11.00">4 &gt;</text>
</a>
</g>
</g>
<!-- m_share_account&#45;&gt;m_share_product -->
<g id="edge8" class="edge">
<title>m_share_account:w&#45;&gt;m_share_product:e</title>
<path fill="none" stroke="black" d="M377.24,-425.11C302.21,-402.87 446.24,-192 345.38,-192"/>
<polygon fill="black" stroke="black" points="383.95,-425.98 391.42,-430.57 387.92,-426.49 391.88,-427 391.88,-427 391.88,-427 387.92,-426.49 392.34,-423.43 383.95,-425.98 383.95,-425.98"/>
<ellipse fill="none" stroke="black" cx="380.78" cy="-425.57" rx="3.2" ry="3.2"/>
</g>
<!-- m_share_product&#45;&gt;m_appuser -->
<g id="edge16" class="edge">
<title>m_share_product:w&#45;&gt;m_appuser:e</title>
<path fill="none" stroke="black" d="M191.92,-193.25C166.24,-203.22 174.27,-255.8 136.38,-261"/>
<polygon fill="black" stroke="black" points="198.41,-192.69 206.69,-195.59 202.4,-192.35 206.38,-192 206.38,-192 206.38,-192 202.4,-192.35 206.07,-188.41 198.41,-192.69 198.41,-192.69"/>
<ellipse fill="none" stroke="black" cx="195.23" cy="-192.97" rx="3.2" ry="3.2"/>
</g>
<!-- m_share_product&#45;&gt;m_appuser -->
<g id="edge17" class="edge">
<title>m_share_product:w&#45;&gt;m_appuser:e</title>
<path fill="none" stroke="black" d="M192.62,-197.26C166.09,-215.06 174.61,-267.12 136.38,-261"/>
<polygon fill="black" stroke="black" points="198.91,-194.86 207.67,-195.36 202.65,-193.43 206.38,-192 206.38,-192 206.38,-192 202.65,-193.43 205.1,-188.64 198.91,-194.86 198.91,-194.86"/>
<ellipse fill="none" stroke="black" cx="195.92" cy="-196" rx="3.2" ry="3.2"/>
</g>
<!-- m_share_account_charge -->
<g id="node6" class="node">
<title>m_share_account_charge</title>
<g id="a_node6"><a xlink:href="../../tables/m_share_account_charge.html" xlink:title="m_share_account_charge" target="_top">
<polygon fill="#ffffff" stroke="transparent" points="813.38,-382 813.38,-440 993.38,-440 993.38,-382 813.38,-382"/>
<polygon fill="#f5f5f5" stroke="transparent" points="813.38,-418 813.38,-440 993.38,-440 993.38,-418 813.38,-418"/>
<polygon fill="none" stroke="black" points="813.38,-418 813.38,-440 993.38,-440 993.38,-418 813.38,-418"/>
<text text-anchor="start" x="818.38" y="-427.2" font-family="Helvetica,sans-Serif" font-weight="bold" font-size="11.00">m_share_account_charge</text>
<text text-anchor="start" x="958.38" y="-426.2" font-family="Helvetica,sans-Serif" font-size="11.00">[table]</text>
<polygon fill="none" stroke="black" points="813.38,-400 813.38,-418 993.38,-418 993.38,-400 813.38,-400"/>
<text text-anchor="start" x="816.38" y="-406.2" font-family="Helvetica,sans-Serif" font-size="11.00">...</text>
<polygon fill="#ffffff" stroke="transparent" points="813.38,-382 813.38,-400 883.38,-400 883.38,-382 813.38,-382"/>
<polygon fill="none" stroke="black" points="813.38,-382 813.38,-400 883.38,-400 883.38,-382 813.38,-382"/>
<text text-anchor="start" x="816.38" y="-388.2" font-family="Helvetica,sans-Serif" font-size="11.00">&lt; 2</text>
<polygon fill="#ffffff" stroke="transparent" points="883.38,-382 883.38,-400 946.38,-400 946.38,-382 883.38,-382"/>
<polygon fill="none" stroke="black" points="883.38,-382 883.38,-400 946.38,-400 946.38,-382 883.38,-382"/>
<text text-anchor="start" x="910.38" y="-388.2" font-family="Helvetica,sans-Serif" font-size="11.00">0 rows</text>
<polygon fill="#ffffff" stroke="transparent" points="946.38,-382 946.38,-400 993.38,-400 993.38,-382 946.38,-382"/>
<polygon fill="none" stroke="black" points="946.38,-382 946.38,-400 993.38,-400 993.38,-382 946.38,-382"/>
<text text-anchor="start" x="974.38" y="-388.2" font-family="Helvetica,sans-Serif" font-size="11.00">1 &gt;</text>
</a>
</g>
</g>
<!-- m_share_account_charge&#45;&gt;m_share_account -->
<g id="edge12" class="edge">
<title>m_share_account_charge:w&#45;&gt;m_share_account:e</title>
<path fill="none" stroke="black" d="M798,-409.95C754.14,-416.01 743.13,-449 691.88,-449"/>
<polygon fill="black" stroke="black" points="804.4,-409.53 812.62,-412.59 808.39,-409.26 812.38,-409 812.38,-409 812.38,-409 808.39,-409.26 812.15,-405.41 804.4,-409.53 804.4,-409.53"/>
<ellipse fill="none" stroke="black" cx="801.21" cy="-409.74" rx="3.2" ry="3.2"/>
</g>
<!-- m_share_account_dividend_details -->
<g id="node7" class="node">
<title>m_share_account_dividend_details</title>
<g id="a_node7"><a xlink:href="../../tables/m_share_account_dividend_details.html" xlink:title="m_share_account_dividend_details" target="_top">
<polygon fill="#ffffff" stroke="transparent" points="739.88,-108 739.88,-284 1066.88,-284 1066.88,-108 739.88,-108"/>
<polygon fill="#f5f5f5" stroke="transparent" points="742.38,-260 742.38,-282 1065.38,-282 1065.38,-260 742.38,-260"/>
<polygon fill="none" stroke="black" points="742.38,-260 742.38,-282 1065.38,-282 1065.38,-260 742.38,-260"/>
<text text-anchor="start" x="747.38" y="-269.2" font-family="Helvetica,sans-Serif" font-weight="bold" font-size="11.00">m_share_account_dividend_details</text>
<text text-anchor="start" x="1030.38" y="-268.2" font-family="Helvetica,sans-Serif" font-size="11.00">[table]</text>
<polygon fill="none" stroke="black" points="742.38,-238 742.38,-260 995.38,-260 995.38,-238 742.38,-238"/>
<image xlink:href="../../images/primaryKeys.png" width="11px" height="12px" preserveAspectRatio="xMinYMin meet" x="747.383" y="-255"/>
<text text-anchor="start" x="762.38" y="-246.2" font-family="Helvetica,sans-Serif" font-size="11.00">id</text>
<polygon fill="none" stroke="black" points="995.38,-238 995.38,-260 1065.38,-260 1065.38,-238 995.38,-238"/>
<text text-anchor="start" x="998.38" y="-246.2" font-family="Helvetica,sans-Serif" font-size="11.00">bigint[19]</text>
<polygon fill="#ffffff" stroke="transparent" points="742.38,-216 742.38,-238 995.38,-238 995.38,-216 742.38,-216"/>
<polygon fill="none" stroke="black" points="742.38,-216 742.38,-238 995.38,-238 995.38,-216 742.38,-216"/>
<image xlink:href="../../images/foreignKeys.png" width="11px" height="12px" preserveAspectRatio="xMinYMin meet" x="747.383" y="-233"/>
<text text-anchor="start" x="762.38" y="-224.2" font-family="Helvetica,sans-Serif" font-size="11.00">dividend_pay_out_id</text>
<polygon fill="none" stroke="black" points="995.38,-216 995.38,-238 1065.38,-238 1065.38,-216 995.38,-216"/>
<text text-anchor="start" x="998.38" y="-224.2" font-family="Helvetica,sans-Serif" font-size="11.00">bigint[19]</text>
<polygon fill="#ffffff" stroke="transparent" points="742.38,-194 742.38,-216 995.38,-216 995.38,-194 742.38,-194"/>
<polygon fill="none" stroke="black" points="742.38,-194 742.38,-216 995.38,-216 995.38,-194 742.38,-194"/>
<image xlink:href="../../images/foreignKeys.png" width="11px" height="12px" preserveAspectRatio="xMinYMin meet" x="747.383" y="-211"/>
<text text-anchor="start" x="762.38" y="-202.2" font-family="Helvetica,sans-Serif" font-size="11.00">account_id</text>
<polygon fill="none" stroke="black" points="995.38,-194 995.38,-216 1065.38,-216 1065.38,-194 995.38,-194"/>
<text text-anchor="start" x="998.38" y="-202.2" font-family="Helvetica,sans-Serif" font-size="11.00">bigint[19]</text>
<polygon fill="none" stroke="black" points="742.38,-172 742.38,-194 995.38,-194 995.38,-172 742.38,-172"/>
<text text-anchor="start" x="762.38" y="-180.2" font-family="Helvetica,sans-Serif" font-size="11.00">amount</text>
<polygon fill="none" stroke="black" points="995.38,-172 995.38,-194 1065.38,-194 1065.38,-172 995.38,-172"/>
<text text-anchor="start" x="998.38" y="-180.2" font-family="Helvetica,sans-Serif" font-size="11.00">decimal[19,6]</text>
<polygon fill="none" stroke="black" points="742.38,-150 742.38,-172 995.38,-172 995.38,-150 742.38,-150"/>
<text text-anchor="start" x="762.38" y="-158.2" font-family="Helvetica,sans-Serif" font-size="11.00">status</text>
<polygon fill="none" stroke="black" points="995.38,-150 995.38,-172 1065.38,-172 1065.38,-150 995.38,-150"/>
<text text-anchor="start" x="998.38" y="-158.2" font-family="Helvetica,sans-Serif" font-size="11.00">smallint[5]</text>
<polygon fill="none" stroke="black" points="742.38,-128 742.38,-150 995.38,-150 995.38,-128 742.38,-128"/>
<text text-anchor="start" x="762.38" y="-136.2" font-family="Helvetica,sans-Serif" font-size="11.00">savings_transaction_id</text>
<polygon fill="none" stroke="black" points="995.38,-128 995.38,-150 1065.38,-150 1065.38,-128 995.38,-128"/>
<text text-anchor="start" x="998.38" y="-136.2" font-family="Helvetica,sans-Serif" font-size="11.00">bigint[19]</text>
<polygon fill="#ffffff" stroke="transparent" points="742.38,-110 742.38,-128 860.38,-128 860.38,-110 742.38,-110"/>
<polygon fill="none" stroke="black" points="742.38,-110 742.38,-128 860.38,-128 860.38,-110 742.38,-110"/>
<text text-anchor="start" x="745.38" y="-116.2" font-family="Helvetica,sans-Serif" font-size="11.00">&lt; 2</text>
<polygon fill="#ffffff" stroke="transparent" points="860.38,-110 860.38,-128 995.38,-128 995.38,-110 860.38,-110"/>
<polygon fill="none" stroke="black" points="860.38,-110 860.38,-128 995.38,-128 995.38,-110 860.38,-110"/>
<text text-anchor="start" x="959.38" y="-116.2" font-family="Helvetica,sans-Serif" font-size="11.00">0 rows</text>
<polygon fill="#ffffff" stroke="transparent" points="995.38,-110 995.38,-128 1065.38,-128 1065.38,-110 995.38,-110"/>
<polygon fill="none" stroke="black" points="995.38,-110 995.38,-128 1065.38,-128 1065.38,-110 995.38,-110"/>
<text text-anchor="start" x="1046.38" y="-116.2" font-family="Helvetica,sans-Serif" font-size="11.00">0 &gt;</text>
<polygon fill="none" stroke="black" stroke-width="2" points="740.88,-109 740.88,-283 1065.88,-283 1065.88,-109 740.88,-109"/>
</a>
</g>
</g>
<!-- m_share_account_dividend_details&#45;&gt;m_share_account -->
<g id="edge13" class="edge">
<title>m_share_account_dividend_details:w&#45;&gt;m_share_account:e</title>
<path fill="none" stroke="black" d="M726.64,-206.82C647.45,-229.15 796.92,-449 691.88,-449"/>
<polygon fill="black" stroke="black" points="733.44,-205.98 741.82,-208.57 737.41,-205.49 741.38,-205 741.38,-205 741.38,-205 737.41,-205.49 740.94,-201.43 733.44,-205.98 733.44,-205.98"/>
<ellipse fill="none" stroke="black" cx="730.27" cy="-206.37" rx="3.2" ry="3.2"/>
</g>
<!-- m_share_product_dividend_pay_out -->
<g id="node8" class="node">
<title>m_share_product_dividend_pay_out</title>
<g id="a_node8"><a xlink:href="../../tables/m_share_product_dividend_pay_out.html" xlink:title="m_share_product_dividend_pay_out" target="_top">
<polygon fill="#ffffff" stroke="transparent" points="412.38,-37 412.38,-183 671.38,-183 671.38,-37 412.38,-37"/>
<polygon fill="#f5f5f5" stroke="transparent" points="412.88,-161 412.88,-183 671.88,-183 671.88,-161 412.88,-161"/>
<polygon fill="none" stroke="black" points="412.88,-161 412.88,-183 671.88,-183 671.88,-161 412.88,-161"/>
<text text-anchor="start" x="417.88" y="-170.2" font-family="Helvetica,sans-Serif" font-weight="bold" font-size="11.00">m_share_product_dividend_pay_out</text>
<text text-anchor="start" x="636.88" y="-169.2" font-family="Helvetica,sans-Serif" font-size="11.00">[table]</text>
<polygon fill="none" stroke="black" points="412.88,-139 412.88,-161 671.88,-161 671.88,-139 412.88,-139"/>
<image xlink:href="../../images/primaryKeys.png" width="11px" height="12px" preserveAspectRatio="xMinYMin meet" x="417.883" y="-156"/>
<text text-anchor="start" x="432.88" y="-147.2" font-family="Helvetica,sans-Serif" font-size="11.00">id</text>
<polygon fill="#ffffff" stroke="transparent" points="412.88,-117 412.88,-139 671.88,-139 671.88,-117 412.88,-117"/>
<polygon fill="none" stroke="black" points="412.88,-117 412.88,-139 671.88,-139 671.88,-117 412.88,-117"/>
<image xlink:href="../../images/foreignKeys.png" width="11px" height="12px" preserveAspectRatio="xMinYMin meet" x="417.883" y="-134"/>
<text text-anchor="start" x="432.88" y="-125.2" font-family="Helvetica,sans-Serif" font-size="11.00">product_id</text>
<polygon fill="#ffffff" stroke="transparent" points="412.88,-95 412.88,-117 671.88,-117 671.88,-95 412.88,-95"/>
<polygon fill="none" stroke="black" points="412.88,-95 412.88,-117 671.88,-117 671.88,-95 412.88,-95"/>
<image xlink:href="../../images/foreignKeys.png" width="11px" height="12px" preserveAspectRatio="xMinYMin meet" x="417.883" y="-112"/>
<text text-anchor="start" x="432.88" y="-103.2" font-family="Helvetica,sans-Serif" font-size="11.00">createdby_id</text>
<polygon fill="#ffffff" stroke="transparent" points="412.88,-73 412.88,-95 671.88,-95 671.88,-73 412.88,-73"/>
<polygon fill="none" stroke="black" points="412.88,-73 412.88,-95 671.88,-95 671.88,-73 412.88,-73"/>
<image xlink:href="../../images/foreignKeys.png" width="11px" height="12px" preserveAspectRatio="xMinYMin meet" x="417.883" y="-90"/>
<text text-anchor="start" x="432.88" y="-81.2" font-family="Helvetica,sans-Serif" font-size="11.00">lastmodifiedby_id</text>
<polygon fill="none" stroke="black" points="412.88,-55 412.88,-73 671.88,-73 671.88,-55 412.88,-55"/>
<text text-anchor="start" x="415.88" y="-61.2" font-family="Helvetica,sans-Serif" font-size="11.00">...</text>
<polygon fill="#ffffff" stroke="transparent" points="412.88,-37 412.88,-55 522.88,-55 522.88,-37 412.88,-37"/>
<polygon fill="none" stroke="black" points="412.88,-37 412.88,-55 522.88,-55 522.88,-37 412.88,-37"/>
<text text-anchor="start" x="415.88" y="-43.2" font-family="Helvetica,sans-Serif" font-size="11.00">&lt; 3</text>
<polygon fill="#ffffff" stroke="transparent" points="522.88,-37 522.88,-55 605.88,-55 605.88,-37 522.88,-37"/>
<polygon fill="none" stroke="black" points="522.88,-37 522.88,-55 605.88,-55 605.88,-37 522.88,-37"/>
<text text-anchor="start" x="569.88" y="-43.2" font-family="Helvetica,sans-Serif" font-size="11.00">0 rows</text>
<polygon fill="#ffffff" stroke="transparent" points="605.88,-37 605.88,-55 671.88,-55 671.88,-37 605.88,-37"/>
<polygon fill="none" stroke="black" points="605.88,-37 605.88,-55 671.88,-55 671.88,-37 605.88,-37"/>
<text text-anchor="start" x="652.88" y="-43.2" font-family="Helvetica,sans-Serif" font-size="11.00">1 &gt;</text>
</a>
</g>
</g>
<!-- m_share_account_dividend_details&#45;&gt;m_share_product_dividend_pay_out -->
<g id="edge14" class="edge">
<title>m_share_account_dividend_details:w&#45;&gt;m_share_product_dividend_pay_out:e</title>
<path fill="none" stroke="black" d="M727.17,-223.69C700.28,-208.95 712.96,-150 672.88,-150"/>
<polygon fill="black" stroke="black" points="733.59,-225.19 740.57,-230.51 737.49,-226.09 741.38,-227 741.38,-227 741.38,-227 737.49,-226.09 742.2,-223.49 733.59,-225.19 733.59,-225.19"/>
<ellipse fill="none" stroke="black" cx="730.47" cy="-224.46" rx="3.2" ry="3.2"/>
</g>
<!-- m_share_product_dividend_pay_out&#45;&gt;m_appuser -->
<g id="edge18" class="edge">
<title>m_share_product_dividend_pay_out:w&#45;&gt;m_appuser:e</title>
<path fill="none" stroke="black" d="M397.28,-105.94C310.84,-105.21 273.13,-99.65 198.88,-154 154.44,-186.53 191.46,-261 136.38,-261"/>
<polygon fill="black" stroke="black" points="403.88,-105.96 411.87,-109.6 407.88,-105.98 411.88,-106 411.88,-106 411.88,-106 407.88,-105.98 411.9,-102.4 403.88,-105.96 403.88,-105.96"/>
<ellipse fill="none" stroke="black" cx="400.68" cy="-105.95" rx="3.2" ry="3.2"/>
</g>
<!-- m_share_product_dividend_pay_out&#45;&gt;m_appuser -->
<g id="edge19" class="edge">
<title>m_share_product_dividend_pay_out:w&#45;&gt;m_appuser:e</title>
<path fill="none" stroke="black" d="M397.28,-83.7C312.34,-80.27 271.01,-49.12 198.88,-103 138.38,-148.19 211.9,-261 136.38,-261"/>
<polygon fill="black" stroke="black" points="403.88,-83.84 411.81,-87.6 407.88,-83.92 411.88,-84 411.88,-84 411.88,-84 407.88,-83.92 411.96,-80.4 403.88,-83.84 403.88,-83.84"/>
<ellipse fill="none" stroke="black" cx="400.69" cy="-83.77" rx="3.2" ry="3.2"/>
</g>
<!-- m_share_product_dividend_pay_out&#45;&gt;m_share_product -->
<g id="edge20" class="edge">
<title>m_share_product_dividend_pay_out:w&#45;&gt;m_share_product:e</title>
<path fill="none" stroke="black" d="M397.62,-131.44C374.12,-144.73 380.63,-192 345.38,-192"/>
<polygon fill="black" stroke="black" points="404.11,-129.88 412.73,-131.5 407.99,-128.94 411.88,-128 411.88,-128 411.88,-128 407.99,-128.94 411.04,-124.5 404.11,-129.88 404.11,-129.88"/>
<ellipse fill="none" stroke="black" cx="401" cy="-130.63" rx="3.2" ry="3.2"/>
</g>
<!-- m_share_account_transactions -->
<g id="node9" class="node">
<title>m_share_account_transactions</title>
<g id="a_node9"><a xlink:href="../../tables/m_share_account_transactions.html" xlink:title="m_share_account_transactions" target="_top">
<polygon fill="#ffffff" stroke="transparent" points="798.88,-461 798.88,-519 1007.88,-519 1007.88,-461 798.88,-461"/>
<polygon fill="#f5f5f5" stroke="transparent" points="799.38,-497 799.38,-519 1008.38,-519 1008.38,-497 799.38,-497"/>
<polygon fill="none" stroke="black" points="799.38,-497 799.38,-519 1008.38,-519 1008.38,-497 799.38,-497"/>
<text text-anchor="start" x="804.38" y="-506.2" font-family="Helvetica,sans-Serif" font-weight="bold" font-size="11.00">m_share_account_transactions</text>
<text text-anchor="start" x="973.38" y="-505.2" font-family="Helvetica,sans-Serif" font-size="11.00">[table]</text>
<polygon fill="none" stroke="black" points="799.38,-479 799.38,-497 1008.38,-497 1008.38,-479 799.38,-479"/>
<text text-anchor="start" x="802.38" y="-485.2" font-family="Helvetica,sans-Serif" font-size="11.00">...</text>
<polygon fill="#ffffff" stroke="transparent" points="799.38,-461 799.38,-479 884.38,-479 884.38,-461 799.38,-461"/>
<polygon fill="none" stroke="black" points="799.38,-461 799.38,-479 884.38,-479 884.38,-461 799.38,-461"/>
<text text-anchor="start" x="802.38" y="-467.2" font-family="Helvetica,sans-Serif" font-size="11.00">&lt; 1</text>
<polygon fill="#ffffff" stroke="transparent" points="884.38,-461 884.38,-479 954.38,-479 954.38,-461 884.38,-461"/>
<polygon fill="none" stroke="black" points="884.38,-461 884.38,-479 954.38,-479 954.38,-461 884.38,-461"/>
<text text-anchor="start" x="918.38" y="-467.2" font-family="Helvetica,sans-Serif" font-size="11.00">0 rows</text>
<polygon fill="#ffffff" stroke="transparent" points="954.38,-461 954.38,-479 1008.38,-479 1008.38,-461 954.38,-461"/>
<polygon fill="none" stroke="black" points="954.38,-461 954.38,-479 1008.38,-479 1008.38,-461 954.38,-461"/>
<text text-anchor="start" x="989.38" y="-467.2" font-family="Helvetica,sans-Serif" font-size="11.00">2 &gt;</text>
</a>
</g>
</g>
<!-- m_share_account_transactions&#45;&gt;m_share_account -->
<g id="edge15" class="edge">
<title>m_share_account_transactions:w&#45;&gt;m_share_account:e</title>
<path fill="none" stroke="black" d="M783.82,-486.79C746.28,-480.21 736.97,-449 691.88,-449"/>
<polygon fill="black" stroke="black" points="790.41,-487.34 798.08,-491.59 794.4,-487.67 798.38,-488 798.38,-488 798.38,-488 794.4,-487.67 798.68,-484.41 790.41,-487.34 790.41,-487.34"/>
<ellipse fill="none" stroke="black" cx="787.22" cy="-487.07" rx="3.2" ry="3.2"/>
</g>
</g>
</svg>
