<?xml version="1.0" encoding="UTF-8" standalone="no"?>
<!DOCTYPE svg PUBLIC "-//W3C//DTD SVG 1.1//EN"
 "http://www.w3.org/Graphics/SVG/1.1/DTD/svg11.dtd">
<!-- Generated by graphviz version 2.43.0 (0)
 -->
<!-- Title: twoDegreesRelationshipsDiagram Pages: 1 -->
<svg width="808pt" height="298pt"
 viewBox="0.00 0.00 808.00 298.00" xmlns="http://www.w3.org/2000/svg" xmlns:xlink="http://www.w3.org/1999/xlink">
<g id="graph0" class="graph" transform="scale(1 1) rotate(0) translate(4 294)">
<title>twoDegreesRelationshipsDiagram</title>
<polygon fill="#ffffff" stroke="transparent" points="-4,4 -4,-294 804,-294 804,4 -4,4"/>
<text text-anchor="middle" x="71.5" y="-7.2" font-family="Helvetica,sans-Serif" font-size="11.00">Generated by SchemaSpy</text>
<!-- acc_gl_journal_entry -->
<g id="node1" class="node">
<title>acc_gl_journal_entry</title>
<g id="a_node1"><a xlink:href="../../tables/acc_gl_journal_entry.html" xlink:title="acc_gl_journal_entry" target="_top">
<polygon fill="#ffffff" stroke="transparent" points="555,-228 555,-286 709,-286 709,-228 555,-228"/>
<polygon fill="#f5f5f5" stroke="transparent" points="555,-264 555,-286 709,-286 709,-264 555,-264"/>
<polygon fill="none" stroke="black" points="555,-264 555,-286 709,-286 709,-264 555,-264"/>
<text text-anchor="start" x="560" y="-273.2" font-family="Helvetica,sans-Serif" font-weight="bold" font-size="11.00">acc_gl_journal_entry</text>
<text text-anchor="start" x="674" y="-272.2" font-family="Helvetica,sans-Serif" font-size="11.00">[table]</text>
<polygon fill="none" stroke="black" points="555,-246 555,-264 709,-264 709,-246 555,-246"/>
<text text-anchor="start" x="558" y="-252.2" font-family="Helvetica,sans-Serif" font-size="11.00">...</text>
<polygon fill="#ffffff" stroke="transparent" points="555,-228 555,-246 615,-246 615,-228 555,-228"/>
<polygon fill="none" stroke="black" points="555,-228 555,-246 615,-246 615,-228 555,-228"/>
<text text-anchor="start" x="558" y="-234.2" font-family="Helvetica,sans-Serif" font-size="11.00">&lt; 10</text>
<polygon fill="#ffffff" stroke="transparent" points="615,-228 615,-246 670,-246 670,-228 615,-228"/>
<polygon fill="none" stroke="black" points="615,-228 615,-246 670,-246 670,-228 615,-228"/>
<text text-anchor="start" x="634" y="-234.2" font-family="Helvetica,sans-Serif" font-size="11.00">0 rows</text>
<polygon fill="#ffffff" stroke="transparent" points="670,-228 670,-246 709,-246 709,-228 670,-228"/>
<polygon fill="none" stroke="black" points="670,-228 670,-246 709,-246 709,-228 670,-228"/>
<text text-anchor="start" x="690" y="-234.2" font-family="Helvetica,sans-Serif" font-size="11.00">1 &gt;</text>
</a>
</g>
</g>
<!-- m_share_account_transactions -->
<g id="node2" class="node">
<title>m_share_account_transactions</title>
<g id="a_node2"><a xlink:href="../../tables/m_share_account_transactions.html" xlink:title="m_share_account_transactions" target="_top">
<polygon fill="#ffffff" stroke="transparent" points="195.5,-182 195.5,-284 422.5,-284 422.5,-182 195.5,-182"/>
<polygon fill="#f5f5f5" stroke="transparent" points="196,-262 196,-284 423,-284 423,-262 196,-262"/>
<polygon fill="none" stroke="black" points="196,-262 196,-284 423,-284 423,-262 196,-262"/>
<text text-anchor="start" x="201" y="-271.2" font-family="Helvetica,sans-Serif" font-weight="bold" font-size="11.00">m_share_account_transactions</text>
<text text-anchor="start" x="388" y="-270.2" font-family="Helvetica,sans-Serif" font-size="11.00">[table]</text>
<polygon fill="none" stroke="black" points="196,-240 196,-262 423,-262 423,-240 196,-240"/>
<image xlink:href="../../images/primaryKeys.png" width="11px" height="12px" preserveAspectRatio="xMinYMin meet" x="201" y="-257"/>
<text text-anchor="start" x="216" y="-248.2" font-family="Helvetica,sans-Serif" font-size="11.00">id</text>
<polygon fill="#ffffff" stroke="transparent" points="196,-218 196,-240 423,-240 423,-218 196,-218"/>
<polygon fill="none" stroke="black" points="196,-218 196,-240 423,-240 423,-218 196,-218"/>
<image xlink:href="../../images/foreignKeys.png" width="11px" height="12px" preserveAspectRatio="xMinYMin meet" x="201" y="-235"/>
<text text-anchor="start" x="216" y="-226.2" font-family="Helvetica,sans-Serif" font-size="11.00">account_id</text>
<polygon fill="none" stroke="black" points="196,-200 196,-218 423,-218 423,-200 196,-200"/>
<text text-anchor="start" x="199" y="-206.2" font-family="Helvetica,sans-Serif" font-size="11.00">...</text>
<polygon fill="#ffffff" stroke="transparent" points="196,-182 196,-200 290,-200 290,-182 196,-182"/>
<polygon fill="none" stroke="black" points="196,-182 196,-200 290,-200 290,-182 196,-182"/>
<text text-anchor="start" x="199" y="-188.2" font-family="Helvetica,sans-Serif" font-size="11.00">&lt; 1</text>
<polygon fill="#ffffff" stroke="transparent" points="290,-182 290,-200 365,-200 365,-182 290,-182"/>
<polygon fill="none" stroke="black" points="290,-182 290,-200 365,-200 365,-182 290,-182"/>
<text text-anchor="start" x="329" y="-188.2" font-family="Helvetica,sans-Serif" font-size="11.00">0 rows</text>
<polygon fill="#ffffff" stroke="transparent" points="365,-182 365,-200 423,-200 423,-182 365,-182"/>
<polygon fill="none" stroke="black" points="365,-182 365,-200 423,-200 423,-182 365,-182"/>
<text text-anchor="start" x="404" y="-188.2" font-family="Helvetica,sans-Serif" font-size="11.00">2 &gt;</text>
</a>
</g>
</g>
<!-- acc_gl_journal_entry&#45;&gt;m_share_account_transactions -->
<g id="edge1" class="edge">
<title>acc_gl_journal_entry:w&#45;&gt;m_share_account_transactions:e</title>
<path fill="none" stroke="black" d="M539.41,-254.91C493.26,-254.31 476.61,-251 424,-251"/>
<polygon fill="black" stroke="black" points="546,-254.95 553.98,-258.6 550,-254.98 554,-255 554,-255 554,-255 550,-254.98 554.02,-251.4 546,-254.95 546,-254.95"/>
<ellipse fill="none" stroke="black" cx="542.8" cy="-254.93" rx="3.2" ry="3.2"/>
</g>
<!-- m_share_account -->
<g id="node4" class="node">
<title>m_share_account</title>
<g id="a_node4"><a xlink:href="../../tables/m_share_account.html" xlink:title="m_share_account" target="_top">
<polygon fill="#ffffff" stroke="transparent" points="8,-169 8,-227 146,-227 146,-169 8,-169"/>
<polygon fill="#f5f5f5" stroke="transparent" points="8,-205 8,-227 146,-227 146,-205 8,-205"/>
<polygon fill="none" stroke="black" points="8,-205 8,-227 146,-227 146,-205 8,-205"/>
<text text-anchor="start" x="13" y="-214.2" font-family="Helvetica,sans-Serif" font-weight="bold" font-size="11.00">m_share_account</text>
<text text-anchor="start" x="111" y="-213.2" font-family="Helvetica,sans-Serif" font-size="11.00">[table]</text>
<polygon fill="none" stroke="black" points="8,-187 8,-205 146,-205 146,-187 8,-187"/>
<text text-anchor="start" x="11" y="-193.2" font-family="Helvetica,sans-Serif" font-size="11.00">...</text>
<polygon fill="#ffffff" stroke="transparent" points="8,-169 8,-187 57,-187 57,-169 8,-169"/>
<polygon fill="none" stroke="black" points="8,-169 8,-187 57,-187 57,-169 8,-169"/>
<text text-anchor="start" x="11" y="-175.2" font-family="Helvetica,sans-Serif" font-size="11.00">&lt; 9</text>
<polygon fill="#ffffff" stroke="transparent" points="57,-169 57,-187 110,-187 110,-169 57,-169"/>
<polygon fill="none" stroke="black" points="57,-169 57,-187 110,-187 110,-169 57,-169"/>
<text text-anchor="start" x="74" y="-175.2" font-family="Helvetica,sans-Serif" font-size="11.00">0 rows</text>
<polygon fill="#ffffff" stroke="transparent" points="110,-169 110,-187 146,-187 146,-169 110,-169"/>
<polygon fill="none" stroke="black" points="110,-169 110,-187 146,-187 146,-169 110,-169"/>
<text text-anchor="start" x="127" y="-175.2" font-family="Helvetica,sans-Serif" font-size="11.00">3 &gt;</text>
</a>
</g>
</g>
<!-- m_share_account_transactions&#45;&gt;m_share_account -->
<g id="edge6" class="edge">
<title>m_share_account_transactions:w&#45;&gt;m_share_account:e</title>
<path fill="none" stroke="black" d="M180.92,-224.41C169.25,-215.34 166.82,-196 147,-196"/>
<polygon fill="black" stroke="black" points="187.39,-226.52 193.88,-232.42 191.2,-227.76 195,-229 195,-229 195,-229 191.2,-227.76 196.12,-225.58 187.39,-226.52 187.39,-226.52"/>
<ellipse fill="none" stroke="black" cx="184.35" cy="-225.53" rx="3.2" ry="3.2"/>
</g>
<!-- m_share_account_charge -->
<g id="node3" class="node">
<title>m_share_account_charge</title>
<g id="a_node3"><a xlink:href="../../tables/m_share_account_charge.html" xlink:title="m_share_account_charge" target="_top">
<polygon fill="#ffffff" stroke="transparent" points="195,-37 195,-161 423,-161 423,-37 195,-37"/>
<polygon fill="#f5f5f5" stroke="transparent" points="195,-139 195,-161 423,-161 423,-139 195,-139"/>
<polygon fill="none" stroke="black" points="195,-139 195,-161 423,-161 423,-139 195,-139"/>
<text text-anchor="start" x="200" y="-148.2" font-family="Helvetica,sans-Serif" font-weight="bold" font-size="11.00">m_share_account_charge</text>
<text text-anchor="start" x="388" y="-147.2" font-family="Helvetica,sans-Serif" font-size="11.00">[table]</text>
<polygon fill="none" stroke="black" points="195,-117 195,-139 423,-139 423,-117 195,-117"/>
<image xlink:href="../../images/primaryKeys.png" width="11px" height="12px" preserveAspectRatio="xMinYMin meet" x="200" y="-134"/>
<text text-anchor="start" x="215" y="-125.2" font-family="Helvetica,sans-Serif" font-size="11.00">id</text>
<polygon fill="#ffffff" stroke="transparent" points="195,-95 195,-117 423,-117 423,-95 195,-95"/>
<polygon fill="none" stroke="black" points="195,-95 195,-117 423,-117 423,-95 195,-95"/>
<image xlink:href="../../images/foreignKeys.png" width="11px" height="12px" preserveAspectRatio="xMinYMin meet" x="200" y="-112"/>
<text text-anchor="start" x="215" y="-103.2" font-family="Helvetica,sans-Serif" font-size="11.00">account_id</text>
<polygon fill="#ffffff" stroke="transparent" points="195,-73 195,-95 423,-95 423,-73 195,-73"/>
<polygon fill="none" stroke="black" points="195,-73 195,-95 423,-95 423,-73 195,-73"/>
<image xlink:href="../../images/foreignKeys.png" width="11px" height="12px" preserveAspectRatio="xMinYMin meet" x="200" y="-90"/>
<text text-anchor="start" x="215" y="-81.2" font-family="Helvetica,sans-Serif" font-size="11.00">charge_id</text>
<polygon fill="none" stroke="black" points="195,-55 195,-73 423,-73 423,-55 195,-55"/>
<text text-anchor="start" x="198" y="-61.2" font-family="Helvetica,sans-Serif" font-size="11.00">...</text>
<polygon fill="#ffffff" stroke="transparent" points="195,-37 195,-55 289,-55 289,-37 195,-37"/>
<polygon fill="none" stroke="black" points="195,-37 195,-55 289,-55 289,-37 195,-37"/>
<text text-anchor="start" x="198" y="-43.2" font-family="Helvetica,sans-Serif" font-size="11.00">&lt; 2</text>
<polygon fill="#ffffff" stroke="transparent" points="289,-37 289,-55 364,-55 364,-37 289,-37"/>
<polygon fill="none" stroke="black" points="289,-37 289,-55 364,-55 364,-37 289,-37"/>
<text text-anchor="start" x="328" y="-43.2" font-family="Helvetica,sans-Serif" font-size="11.00">0 rows</text>
<polygon fill="#ffffff" stroke="transparent" points="364,-37 364,-55 423,-55 423,-37 364,-37"/>
<polygon fill="none" stroke="black" points="364,-37 364,-55 423,-55 423,-37 364,-37"/>
<text text-anchor="start" x="404" y="-43.2" font-family="Helvetica,sans-Serif" font-size="11.00">1 &gt;</text>
</a>
</g>
</g>
<!-- m_share_account_charge&#45;&gt;m_share_account -->
<g id="edge2" class="edge">
<title>m_share_account_charge:w&#45;&gt;m_share_account:e</title>
<path fill="none" stroke="black" d="M180,-110.59C159.05,-128.93 185.96,-196 147,-196"/>
<polygon fill="black" stroke="black" points="186.4,-108.49 195.12,-109.42 190.2,-107.25 194,-106 194,-106 194,-106 190.2,-107.25 192.88,-102.58 186.4,-108.49 186.4,-108.49"/>
<ellipse fill="none" stroke="black" cx="183.36" cy="-109.49" rx="3.2" ry="3.2"/>
</g>
<!-- m_charge -->
<g id="node5" class="node">
<title>m_charge</title>
<g id="a_node5"><a xlink:href="../../tables/m_charge.html" xlink:title="m_charge" target="_top">
<polygon fill="#ffffff" stroke="transparent" points="29,-57 29,-115 125,-115 125,-57 29,-57"/>
<polygon fill="#f5f5f5" stroke="transparent" points="29,-93 29,-115 125,-115 125,-93 29,-93"/>
<polygon fill="none" stroke="black" points="29,-93 29,-115 125,-115 125,-93 29,-93"/>
<text text-anchor="start" x="34" y="-102.2" font-family="Helvetica,sans-Serif" font-weight="bold" font-size="11.00">m_charge</text>
<text text-anchor="start" x="90" y="-101.2" font-family="Helvetica,sans-Serif" font-size="11.00">[table]</text>
<polygon fill="none" stroke="black" points="29,-75 29,-93 125,-93 125,-75 29,-75"/>
<text text-anchor="start" x="32" y="-81.2" font-family="Helvetica,sans-Serif" font-size="11.00">...</text>
<polygon fill="#ffffff" stroke="transparent" points="29,-57 29,-75 57,-75 57,-57 29,-57"/>
<polygon fill="none" stroke="black" points="29,-57 29,-75 57,-75 57,-57 29,-57"/>
<text text-anchor="start" x="32" y="-63.2" font-family="Helvetica,sans-Serif" font-size="11.00">&lt; 3</text>
<polygon fill="#ffffff" stroke="transparent" points="57,-57 57,-75 99,-75 99,-57 57,-57"/>
<polygon fill="none" stroke="black" points="57,-57 57,-75 99,-75 99,-57 57,-57"/>
<text text-anchor="start" x="63" y="-63.2" font-family="Helvetica,sans-Serif" font-size="11.00">0 rows</text>
<polygon fill="#ffffff" stroke="transparent" points="99,-57 99,-75 125,-75 125,-57 99,-57"/>
<polygon fill="none" stroke="black" points="99,-57 99,-75 125,-75 125,-57 99,-57"/>
<text text-anchor="start" x="106" y="-63.2" font-family="Helvetica,sans-Serif" font-size="11.00">9 &gt;</text>
</a>
</g>
</g>
<!-- m_share_account_charge&#45;&gt;m_charge -->
<g id="edge3" class="edge">
<title>m_share_account_charge:w&#45;&gt;m_charge:e</title>
<path fill="none" stroke="black" d="M179.37,-84C160.24,-84 150.67,-84 126,-84"/>
<polygon fill="black" stroke="black" points="186,-84 194,-87.6 190,-84 194,-84 194,-84 194,-84 190,-84 194,-80.4 186,-84 186,-84"/>
<ellipse fill="none" stroke="black" cx="182.8" cy="-84" rx="3.2" ry="3.2"/>
</g>
<!-- m_share_account_charge_paid_by -->
<g id="node6" class="node">
<title>m_share_account_charge_paid_by</title>
<g id="a_node6"><a xlink:href="../../tables/m_share_account_charge_paid_by.html" xlink:title="m_share_account_charge_paid_by" target="_top">
<polygon fill="#ffffff" stroke="transparent" points="472,-75 472,-207 792,-207 792,-75 472,-75"/>
<polygon fill="#f5f5f5" stroke="transparent" points="474,-183 474,-205 790,-205 790,-183 474,-183"/>
<polygon fill="none" stroke="black" points="474,-183 474,-205 790,-205 790,-183 474,-183"/>
<text text-anchor="start" x="479" y="-192.2" font-family="Helvetica,sans-Serif" font-weight="bold" font-size="11.00">m_share_account_charge_paid_by</text>
<text text-anchor="start" x="755" y="-191.2" font-family="Helvetica,sans-Serif" font-size="11.00">[table]</text>
<polygon fill="none" stroke="black" points="474,-161 474,-183 720,-183 720,-161 474,-161"/>
<image xlink:href="../../images/primaryKeys.png" width="11px" height="12px" preserveAspectRatio="xMinYMin meet" x="479" y="-178"/>
<text text-anchor="start" x="494" y="-169.2" font-family="Helvetica,sans-Serif" font-size="11.00">id</text>
<polygon fill="none" stroke="black" points="720,-161 720,-183 790,-183 790,-161 720,-161"/>
<text text-anchor="start" x="723" y="-169.2" font-family="Helvetica,sans-Serif" font-size="11.00">bigint[19]</text>
<polygon fill="#ffffff" stroke="transparent" points="474,-139 474,-161 720,-161 720,-139 474,-139"/>
<polygon fill="none" stroke="black" points="474,-139 474,-161 720,-161 720,-139 474,-139"/>
<image xlink:href="../../images/foreignKeys.png" width="11px" height="12px" preserveAspectRatio="xMinYMin meet" x="479" y="-156"/>
<text text-anchor="start" x="494" y="-147.2" font-family="Helvetica,sans-Serif" font-size="11.00">share_transaction_id</text>
<polygon fill="none" stroke="black" points="720,-139 720,-161 790,-161 790,-139 720,-139"/>
<text text-anchor="start" x="723" y="-147.2" font-family="Helvetica,sans-Serif" font-size="11.00">bigint[19]</text>
<polygon fill="#ffffff" stroke="transparent" points="474,-117 474,-139 720,-139 720,-117 474,-117"/>
<polygon fill="none" stroke="black" points="474,-117 474,-139 720,-139 720,-117 474,-117"/>
<image xlink:href="../../images/foreignKeys.png" width="11px" height="12px" preserveAspectRatio="xMinYMin meet" x="479" y="-134"/>
<text text-anchor="start" x="494" y="-125.2" font-family="Helvetica,sans-Serif" font-size="11.00">charge_transaction_id</text>
<polygon fill="none" stroke="black" points="720,-117 720,-139 790,-139 790,-117 720,-117"/>
<text text-anchor="start" x="723" y="-125.2" font-family="Helvetica,sans-Serif" font-size="11.00">bigint[19]</text>
<polygon fill="none" stroke="black" points="474,-95 474,-117 720,-117 720,-95 474,-95"/>
<text text-anchor="start" x="494" y="-103.2" font-family="Helvetica,sans-Serif" font-size="11.00">amount</text>
<polygon fill="none" stroke="black" points="720,-95 720,-117 790,-117 790,-95 720,-95"/>
<text text-anchor="start" x="723" y="-103.2" font-family="Helvetica,sans-Serif" font-size="11.00">decimal[20,2]</text>
<polygon fill="#ffffff" stroke="transparent" points="474,-77 474,-95 588,-95 588,-77 474,-77"/>
<polygon fill="none" stroke="black" points="474,-77 474,-95 588,-95 588,-77 474,-77"/>
<text text-anchor="start" x="477" y="-83.2" font-family="Helvetica,sans-Serif" font-size="11.00">&lt; 2</text>
<polygon fill="#ffffff" stroke="transparent" points="588,-77 588,-95 720,-95 720,-77 588,-77"/>
<polygon fill="none" stroke="black" points="588,-77 588,-95 720,-95 720,-77 588,-77"/>
<text text-anchor="start" x="684" y="-83.2" font-family="Helvetica,sans-Serif" font-size="11.00">0 rows</text>
<polygon fill="#ffffff" stroke="transparent" points="720,-77 720,-95 790,-95 790,-77 720,-77"/>
<polygon fill="none" stroke="black" points="720,-77 720,-95 790,-95 790,-77 720,-77"/>
<text text-anchor="start" x="771" y="-83.2" font-family="Helvetica,sans-Serif" font-size="11.00">0 &gt;</text>
<polygon fill="none" stroke="black" stroke-width="2" points="473,-76 473,-206 791,-206 791,-76 473,-76"/>
</a>
</g>
</g>
<!-- m_share_account_charge_paid_by&#45;&gt;m_share_account_transactions -->
<g id="edge5" class="edge">
<title>m_share_account_charge_paid_by:w&#45;&gt;m_share_account_transactions:e</title>
<path fill="none" stroke="black" d="M458.95,-154.08C433.93,-172.98 467.85,-251 424,-251"/>
<polygon fill="black" stroke="black" points="465.32,-152.23 474,-153.46 469.16,-151.12 473,-150 473,-150 473,-150 469.16,-151.12 472,-146.54 465.32,-152.23 465.32,-152.23"/>
<ellipse fill="none" stroke="black" cx="462.25" cy="-153.13" rx="3.2" ry="3.2"/>
</g>
<!-- m_share_account_charge_paid_by&#45;&gt;m_share_account_charge -->
<g id="edge4" class="edge">
<title>m_share_account_charge_paid_by:w&#45;&gt;m_share_account_charge:e</title>
<path fill="none" stroke="black" d="M458.49,-128C447.18,-128 439.99,-128 424,-128"/>
<polygon fill="black" stroke="black" points="465,-128 473,-131.6 469,-128 473,-128 473,-128 473,-128 469,-128 473,-124.4 465,-128 465,-128"/>
<ellipse fill="none" stroke="black" cx="461.8" cy="-128" rx="3.2" ry="3.2"/>
</g>
</g>
</svg>
