<?xml version="1.0" encoding="UTF-8" standalone="no"?>
<!DOCTYPE svg PUBLIC "-//W3C//DTD SVG 1.1//EN"
 "http://www.w3.org/Graphics/SVG/1.1/DTD/svg11.dtd">
<!-- Generated by graphviz version 2.43.0 (0)
 -->
<!-- Title: oneDegreeRelationshipsDiagram Pages: 1 -->
<svg width="967pt" height="641pt"
 viewBox="0.00 0.00 967.00 641.00" xmlns="http://www.w3.org/2000/svg" xmlns:xlink="http://www.w3.org/1999/xlink">
<g id="graph0" class="graph" transform="scale(1 1) rotate(0) translate(4 637)">
<title>oneDegreeRelationshipsDiagram</title>
<polygon fill="#ffffff" stroke="transparent" points="-4,4 -4,-637 963,-637 963,4 -4,4"/>
<text text-anchor="middle" x="71.5" y="-7.2" font-family="Helvetica,sans-Serif" font-size="11.00">Generated by SchemaSpy</text>
<!-- acc_gl_journal_entry -->
<g id="node1" class="node">
<title>acc_gl_journal_entry</title>
<g id="a_node1"><a xlink:href="../../tables/acc_gl_journal_entry.html" xlink:title="acc_gl_journal_entry" target="_top">
<polygon fill="#ffffff" stroke="transparent" points="715.5,-307 715.5,-629 940.5,-629 940.5,-307 715.5,-307"/>
<polygon fill="#f5f5f5" stroke="transparent" points="716,-607 716,-629 941,-629 941,-607 716,-607"/>
<polygon fill="none" stroke="black" points="716,-607 716,-629 941,-629 941,-607 716,-607"/>
<text text-anchor="start" x="721" y="-616.2" font-family="Helvetica,sans-Serif" font-weight="bold" font-size="11.00">acc_gl_journal_entry</text>
<text text-anchor="start" x="906" y="-615.2" font-family="Helvetica,sans-Serif" font-size="11.00">[table]</text>
<polygon fill="none" stroke="black" points="716,-585 716,-607 941,-607 941,-585 716,-585"/>
<image xlink:href="../../images/primaryKeys.png" width="11px" height="12px" preserveAspectRatio="xMinYMin meet" x="721" y="-602"/>
<text text-anchor="start" x="736" y="-593.2" font-family="Helvetica,sans-Serif" font-size="11.00">id</text>
<polygon fill="#ffffff" stroke="transparent" points="716,-563 716,-585 941,-585 941,-563 716,-563"/>
<polygon fill="none" stroke="black" points="716,-563 716,-585 941,-585 941,-563 716,-563"/>
<image xlink:href="../../images/foreignKeys.png" width="11px" height="12px" preserveAspectRatio="xMinYMin meet" x="721" y="-580"/>
<text text-anchor="start" x="736" y="-571.2" font-family="Helvetica,sans-Serif" font-size="11.00">account_id</text>
<polygon fill="#ffffff" stroke="transparent" points="716,-541 716,-563 941,-563 941,-541 716,-541"/>
<polygon fill="none" stroke="black" points="716,-541 716,-563 941,-563 941,-541 716,-541"/>
<image xlink:href="../../images/foreignKeys.png" width="11px" height="12px" preserveAspectRatio="xMinYMin meet" x="721" y="-558"/>
<text text-anchor="start" x="736" y="-549.2" font-family="Helvetica,sans-Serif" font-size="11.00">office_id</text>
<polygon fill="#ffffff" stroke="transparent" points="716,-519 716,-541 941,-541 941,-519 716,-519"/>
<polygon fill="none" stroke="black" points="716,-519 716,-541 941,-541 941,-519 716,-519"/>
<image xlink:href="../../images/foreignKeys.png" width="11px" height="12px" preserveAspectRatio="xMinYMin meet" x="721" y="-536"/>
<text text-anchor="start" x="736" y="-527.2" font-family="Helvetica,sans-Serif" font-size="11.00">reversal_id</text>
<polygon fill="#ffffff" stroke="transparent" points="716,-497 716,-519 941,-519 941,-497 716,-497"/>
<polygon fill="none" stroke="black" points="716,-497 716,-519 941,-519 941,-497 716,-497"/>
<image xlink:href="../../images/foreignKeys.png" width="11px" height="12px" preserveAspectRatio="xMinYMin meet" x="721" y="-514"/>
<text text-anchor="start" x="736" y="-505.2" font-family="Helvetica,sans-Serif" font-size="11.00">loan_transaction_id</text>
<polygon fill="#ffffff" stroke="transparent" points="716,-475 716,-497 941,-497 941,-475 716,-475"/>
<polygon fill="none" stroke="black" points="716,-475 716,-497 941,-497 941,-475 716,-475"/>
<image xlink:href="../../images/foreignKeys.png" width="11px" height="12px" preserveAspectRatio="xMinYMin meet" x="721" y="-492"/>
<text text-anchor="start" x="736" y="-483.2" font-family="Helvetica,sans-Serif" font-size="11.00">savings_transaction_id</text>
<polygon fill="#ffffff" stroke="transparent" points="716,-453 716,-475 941,-475 941,-453 716,-453"/>
<polygon fill="none" stroke="black" points="716,-453 716,-475 941,-475 941,-453 716,-453"/>
<image xlink:href="../../images/foreignKeys.png" width="11px" height="12px" preserveAspectRatio="xMinYMin meet" x="721" y="-470"/>
<text text-anchor="start" x="736" y="-461.2" font-family="Helvetica,sans-Serif" font-size="11.00">client_transaction_id</text>
<polygon fill="#ffffff" stroke="transparent" points="716,-431 716,-453 941,-453 941,-431 716,-431"/>
<polygon fill="none" stroke="black" points="716,-431 716,-453 941,-453 941,-431 716,-431"/>
<image xlink:href="../../images/foreignKeys.png" width="11px" height="12px" preserveAspectRatio="xMinYMin meet" x="721" y="-448"/>
<text text-anchor="start" x="736" y="-439.2" font-family="Helvetica,sans-Serif" font-size="11.00">createdby_id</text>
<polygon fill="#ffffff" stroke="transparent" points="716,-409 716,-431 941,-431 941,-409 716,-409"/>
<polygon fill="none" stroke="black" points="716,-409 716,-431 941,-431 941,-409 716,-409"/>
<image xlink:href="../../images/foreignKeys.png" width="11px" height="12px" preserveAspectRatio="xMinYMin meet" x="721" y="-426"/>
<text text-anchor="start" x="736" y="-417.2" font-family="Helvetica,sans-Serif" font-size="11.00">lastmodifiedby_id</text>
<polygon fill="#ffffff" stroke="transparent" points="716,-387 716,-409 941,-409 941,-387 716,-387"/>
<polygon fill="none" stroke="black" points="716,-387 716,-409 941,-409 941,-387 716,-387"/>
<image xlink:href="../../images/foreignKeys.png" width="11px" height="12px" preserveAspectRatio="xMinYMin meet" x="721" y="-404"/>
<text text-anchor="start" x="736" y="-395.2" font-family="Helvetica,sans-Serif" font-size="11.00">payment_details_id</text>
<polygon fill="#ffffff" stroke="transparent" points="716,-365 716,-387 941,-387 941,-365 716,-365"/>
<polygon fill="none" stroke="black" points="716,-365 716,-387 941,-387 941,-365 716,-365"/>
<image xlink:href="../../images/foreignKeys.png" width="11px" height="12px" preserveAspectRatio="xMinYMin meet" x="721" y="-382"/>
<text text-anchor="start" x="736" y="-373.2" font-family="Helvetica,sans-Serif" font-size="11.00">share_transaction_id</text>
<polygon fill="#ffffff" stroke="transparent" points="716,-343 716,-365 941,-365 941,-343 716,-343"/>
<polygon fill="none" stroke="black" points="716,-343 716,-365 941,-365 941,-343 716,-343"/>
<text text-anchor="start" x="736" y="-351.2" font-family="Helvetica,sans-Serif" font-size="11.00">transaction_date</text>
<polygon fill="none" stroke="black" points="716,-325 716,-343 941,-343 941,-325 716,-325"/>
<text text-anchor="start" x="719" y="-331.2" font-family="Helvetica,sans-Serif" font-size="11.00">...</text>
<polygon fill="#ffffff" stroke="transparent" points="716,-307 716,-325 812,-325 812,-307 716,-307"/>
<polygon fill="none" stroke="black" points="716,-307 716,-325 812,-325 812,-307 716,-307"/>
<text text-anchor="start" x="719" y="-313.2" font-family="Helvetica,sans-Serif" font-size="11.00">&lt; 10</text>
<polygon fill="#ffffff" stroke="transparent" points="812,-307 812,-325 885,-325 885,-307 812,-307"/>
<polygon fill="none" stroke="black" points="812,-307 812,-325 885,-325 885,-307 812,-307"/>
<text text-anchor="start" x="849" y="-313.2" font-family="Helvetica,sans-Serif" font-size="11.00">0 rows</text>
<polygon fill="#ffffff" stroke="transparent" points="885,-307 885,-325 941,-325 941,-307 885,-307"/>
<polygon fill="none" stroke="black" points="885,-307 885,-325 941,-325 941,-307 885,-307"/>
<text text-anchor="start" x="922" y="-313.2" font-family="Helvetica,sans-Serif" font-size="11.00">1 &gt;</text>
</a>
</g>
</g>
<!-- m_share_account_transactions -->
<g id="node2" class="node">
<title>m_share_account_transactions</title>
<g id="a_node2"><a xlink:href="../../tables/m_share_account_transactions.html" xlink:title="m_share_account_transactions" target="_top">
<polygon fill="#ffffff" stroke="transparent" points="355,-53 355,-339 656,-339 656,-53 355,-53"/>
<polygon fill="#f5f5f5" stroke="transparent" points="357.5,-315 357.5,-337 654.5,-337 654.5,-315 357.5,-315"/>
<polygon fill="none" stroke="black" points="357.5,-315 357.5,-337 654.5,-337 654.5,-315 357.5,-315"/>
<text text-anchor="start" x="362.5" y="-324.2" font-family="Helvetica,sans-Serif" font-weight="bold" font-size="11.00">m_share_account_transactions</text>
<text text-anchor="start" x="619.5" y="-323.2" font-family="Helvetica,sans-Serif" font-size="11.00">[table]</text>
<polygon fill="none" stroke="black" points="357.5,-293 357.5,-315 584.5,-315 584.5,-293 357.5,-293"/>
<image xlink:href="../../images/primaryKeys.png" width="11px" height="12px" preserveAspectRatio="xMinYMin meet" x="362.5" y="-310"/>
<text text-anchor="start" x="377.5" y="-301.2" font-family="Helvetica,sans-Serif" font-size="11.00">id</text>
<polygon fill="none" stroke="black" points="584.5,-293 584.5,-315 654.5,-315 654.5,-293 584.5,-293"/>
<text text-anchor="start" x="587.5" y="-301.2" font-family="Helvetica,sans-Serif" font-size="11.00">bigint[19]</text>
<polygon fill="#ffffff" stroke="transparent" points="357.5,-271 357.5,-293 584.5,-293 584.5,-271 357.5,-271"/>
<polygon fill="none" stroke="black" points="357.5,-271 357.5,-293 584.5,-293 584.5,-271 357.5,-271"/>
<image xlink:href="../../images/foreignKeys.png" width="11px" height="12px" preserveAspectRatio="xMinYMin meet" x="362.5" y="-288"/>
<text text-anchor="start" x="377.5" y="-279.2" font-family="Helvetica,sans-Serif" font-size="11.00">account_id</text>
<polygon fill="none" stroke="black" points="584.5,-271 584.5,-293 654.5,-293 654.5,-271 584.5,-271"/>
<text text-anchor="start" x="587.5" y="-279.2" font-family="Helvetica,sans-Serif" font-size="11.00">bigint[19]</text>
<polygon fill="none" stroke="black" points="357.5,-249 357.5,-271 584.5,-271 584.5,-249 357.5,-249"/>
<text text-anchor="start" x="377.5" y="-257.2" font-family="Helvetica,sans-Serif" font-size="11.00">transaction_date</text>
<polygon fill="none" stroke="black" points="584.5,-249 584.5,-271 654.5,-271 654.5,-249 584.5,-249"/>
<text text-anchor="start" x="587.5" y="-257.2" font-family="Helvetica,sans-Serif" font-size="11.00">date[10]</text>
<polygon fill="none" stroke="black" points="357.5,-227 357.5,-249 584.5,-249 584.5,-227 357.5,-227"/>
<text text-anchor="start" x="377.5" y="-235.2" font-family="Helvetica,sans-Serif" font-size="11.00">total_shares</text>
<polygon fill="none" stroke="black" points="584.5,-227 584.5,-249 654.5,-249 654.5,-227 584.5,-227"/>
<text text-anchor="start" x="587.5" y="-235.2" font-family="Helvetica,sans-Serif" font-size="11.00">bigint[19]</text>
<polygon fill="none" stroke="black" points="357.5,-205 357.5,-227 584.5,-227 584.5,-205 357.5,-205"/>
<text text-anchor="start" x="377.5" y="-213.2" font-family="Helvetica,sans-Serif" font-size="11.00">unit_price</text>
<polygon fill="none" stroke="black" points="584.5,-205 584.5,-227 654.5,-227 654.5,-205 584.5,-205"/>
<text text-anchor="start" x="587.5" y="-213.2" font-family="Helvetica,sans-Serif" font-size="11.00">decimal[10,2]</text>
<polygon fill="none" stroke="black" points="357.5,-183 357.5,-205 584.5,-205 584.5,-183 357.5,-183"/>
<text text-anchor="start" x="377.5" y="-191.2" font-family="Helvetica,sans-Serif" font-size="11.00">amount</text>
<polygon fill="none" stroke="black" points="584.5,-183 584.5,-205 654.5,-205 654.5,-183 584.5,-183"/>
<text text-anchor="start" x="587.5" y="-191.2" font-family="Helvetica,sans-Serif" font-size="11.00">decimal[20,2]</text>
<polygon fill="none" stroke="black" points="357.5,-161 357.5,-183 584.5,-183 584.5,-161 357.5,-161"/>
<text text-anchor="start" x="377.5" y="-169.2" font-family="Helvetica,sans-Serif" font-size="11.00">charge_amount</text>
<polygon fill="none" stroke="black" points="584.5,-161 584.5,-183 654.5,-183 654.5,-161 584.5,-161"/>
<text text-anchor="start" x="587.5" y="-169.2" font-family="Helvetica,sans-Serif" font-size="11.00">decimal[20,2]</text>
<polygon fill="none" stroke="black" points="357.5,-139 357.5,-161 584.5,-161 584.5,-139 357.5,-139"/>
<text text-anchor="start" x="377.5" y="-147.2" font-family="Helvetica,sans-Serif" font-size="11.00">amount_paid</text>
<polygon fill="none" stroke="black" points="584.5,-139 584.5,-161 654.5,-161 654.5,-139 584.5,-139"/>
<text text-anchor="start" x="587.5" y="-147.2" font-family="Helvetica,sans-Serif" font-size="11.00">decimal[20,2]</text>
<polygon fill="none" stroke="black" points="357.5,-117 357.5,-139 584.5,-139 584.5,-117 357.5,-117"/>
<text text-anchor="start" x="377.5" y="-125.2" font-family="Helvetica,sans-Serif" font-size="11.00">status_enum</text>
<polygon fill="none" stroke="black" points="584.5,-117 584.5,-139 654.5,-139 654.5,-117 584.5,-117"/>
<text text-anchor="start" x="587.5" y="-125.2" font-family="Helvetica,sans-Serif" font-size="11.00">smallint[5]</text>
<polygon fill="none" stroke="black" points="357.5,-95 357.5,-117 584.5,-117 584.5,-95 357.5,-95"/>
<text text-anchor="start" x="377.5" y="-103.2" font-family="Helvetica,sans-Serif" font-size="11.00">type_enum</text>
<polygon fill="none" stroke="black" points="584.5,-95 584.5,-117 654.5,-117 654.5,-95 584.5,-95"/>
<text text-anchor="start" x="587.5" y="-103.2" font-family="Helvetica,sans-Serif" font-size="11.00">smallint[5]</text>
<polygon fill="none" stroke="black" points="357.5,-73 357.5,-95 584.5,-95 584.5,-73 357.5,-73"/>
<text text-anchor="start" x="377.5" y="-81.2" font-family="Helvetica,sans-Serif" font-size="11.00">is_active</text>
<polygon fill="none" stroke="black" points="584.5,-73 584.5,-95 654.5,-95 654.5,-73 584.5,-73"/>
<text text-anchor="start" x="587.5" y="-81.2" font-family="Helvetica,sans-Serif" font-size="11.00">bit[1]</text>
<polygon fill="#ffffff" stroke="transparent" points="357.5,-55 357.5,-73 462.5,-73 462.5,-55 357.5,-55"/>
<polygon fill="none" stroke="black" points="357.5,-55 357.5,-73 462.5,-73 462.5,-55 357.5,-55"/>
<text text-anchor="start" x="360.5" y="-61.2" font-family="Helvetica,sans-Serif" font-size="11.00">&lt; 1</text>
<polygon fill="#ffffff" stroke="transparent" points="462.5,-55 462.5,-73 584.5,-73 584.5,-55 462.5,-55"/>
<polygon fill="none" stroke="black" points="462.5,-55 462.5,-73 584.5,-73 584.5,-55 462.5,-55"/>
<text text-anchor="start" x="548.5" y="-61.2" font-family="Helvetica,sans-Serif" font-size="11.00">0 rows</text>
<polygon fill="#ffffff" stroke="transparent" points="584.5,-55 584.5,-73 654.5,-73 654.5,-55 584.5,-55"/>
<polygon fill="none" stroke="black" points="584.5,-55 584.5,-73 654.5,-73 654.5,-55 584.5,-55"/>
<text text-anchor="start" x="635.5" y="-61.2" font-family="Helvetica,sans-Serif" font-size="11.00">2 &gt;</text>
<polygon fill="none" stroke="black" stroke-width="2" points="356,-54 356,-338 655,-338 655,-54 356,-54"/>
</a>
</g>
</g>
<!-- acc_gl_journal_entry&#45;&gt;m_share_account_transactions -->
<g id="edge1" class="edge">
<title>acc_gl_journal_entry:w&#45;&gt;m_share_account_transactions:e</title>
<path fill="none" stroke="black" d="M700.98,-372.13C678.82,-357.17 691.18,-304 655.5,-304"/>
<polygon fill="black" stroke="black" points="707.29,-373.87 714.04,-379.47 711.14,-374.94 715,-376 715,-376 715,-376 711.14,-374.94 715.96,-372.53 707.29,-373.87 707.29,-373.87"/>
<ellipse fill="none" stroke="black" cx="704.2" cy="-373.02" rx="3.2" ry="3.2"/>
</g>
<!-- m_share_account -->
<g id="node4" class="node">
<title>m_share_account</title>
<g id="a_node4"><a xlink:href="../../tables/m_share_account.html" xlink:title="m_share_account" target="_top">
<polygon fill="#ffffff" stroke="transparent" points="8,-37 8,-315 306,-315 306,-37 8,-37"/>
<polygon fill="#f5f5f5" stroke="transparent" points="8,-293 8,-315 306,-315 306,-293 8,-293"/>
<polygon fill="none" stroke="black" points="8,-293 8,-315 306,-315 306,-293 8,-293"/>
<text text-anchor="start" x="13" y="-302.2" font-family="Helvetica,sans-Serif" font-weight="bold" font-size="11.00">m_share_account</text>
<text text-anchor="start" x="271" y="-301.2" font-family="Helvetica,sans-Serif" font-size="11.00">[table]</text>
<polygon fill="none" stroke="black" points="8,-271 8,-293 306,-293 306,-271 8,-271"/>
<image xlink:href="../../images/primaryKeys.png" width="11px" height="12px" preserveAspectRatio="xMinYMin meet" x="13" y="-288"/>
<text text-anchor="start" x="28" y="-279.2" font-family="Helvetica,sans-Serif" font-size="11.00">id</text>
<polygon fill="#ffffff" stroke="transparent" points="8,-249 8,-271 306,-271 306,-249 8,-249"/>
<polygon fill="none" stroke="black" points="8,-249 8,-271 306,-271 306,-249 8,-249"/>
<image xlink:href="../../images/foreignKeys.png" width="11px" height="12px" preserveAspectRatio="xMinYMin meet" x="13" y="-266"/>
<text text-anchor="start" x="28" y="-257.2" font-family="Helvetica,sans-Serif" font-size="11.00">product_id</text>
<polygon fill="#ffffff" stroke="transparent" points="8,-227 8,-249 306,-249 306,-227 8,-227"/>
<polygon fill="none" stroke="black" points="8,-227 8,-249 306,-249 306,-227 8,-227"/>
<image xlink:href="../../images/foreignKeys.png" width="11px" height="12px" preserveAspectRatio="xMinYMin meet" x="13" y="-244"/>
<text text-anchor="start" x="28" y="-235.2" font-family="Helvetica,sans-Serif" font-size="11.00">client_id</text>
<polygon fill="#ffffff" stroke="transparent" points="8,-205 8,-227 306,-227 306,-205 8,-205"/>
<polygon fill="none" stroke="black" points="8,-205 8,-227 306,-227 306,-205 8,-205"/>
<image xlink:href="../../images/foreignKeys.png" width="11px" height="12px" preserveAspectRatio="xMinYMin meet" x="13" y="-222"/>
<text text-anchor="start" x="28" y="-213.2" font-family="Helvetica,sans-Serif" font-size="11.00">submitted_userid</text>
<polygon fill="#ffffff" stroke="transparent" points="8,-183 8,-205 306,-205 306,-183 8,-183"/>
<polygon fill="none" stroke="black" points="8,-183 8,-205 306,-205 306,-183 8,-183"/>
<image xlink:href="../../images/foreignKeys.png" width="11px" height="12px" preserveAspectRatio="xMinYMin meet" x="13" y="-200"/>
<text text-anchor="start" x="28" y="-191.2" font-family="Helvetica,sans-Serif" font-size="11.00">approved_userid</text>
<polygon fill="#ffffff" stroke="transparent" points="8,-161 8,-183 306,-183 306,-161 8,-161"/>
<polygon fill="none" stroke="black" points="8,-161 8,-183 306,-183 306,-161 8,-161"/>
<image xlink:href="../../images/foreignKeys.png" width="11px" height="12px" preserveAspectRatio="xMinYMin meet" x="13" y="-178"/>
<text text-anchor="start" x="28" y="-169.2" font-family="Helvetica,sans-Serif" font-size="11.00">rejected_userid</text>
<polygon fill="#ffffff" stroke="transparent" points="8,-139 8,-161 306,-161 306,-139 8,-139"/>
<polygon fill="none" stroke="black" points="8,-139 8,-161 306,-161 306,-139 8,-139"/>
<image xlink:href="../../images/foreignKeys.png" width="11px" height="12px" preserveAspectRatio="xMinYMin meet" x="13" y="-156"/>
<text text-anchor="start" x="28" y="-147.2" font-family="Helvetica,sans-Serif" font-size="11.00">activated_userid</text>
<polygon fill="#ffffff" stroke="transparent" points="8,-117 8,-139 306,-139 306,-117 8,-117"/>
<polygon fill="none" stroke="black" points="8,-117 8,-139 306,-139 306,-117 8,-117"/>
<image xlink:href="../../images/foreignKeys.png" width="11px" height="12px" preserveAspectRatio="xMinYMin meet" x="13" y="-134"/>
<text text-anchor="start" x="28" y="-125.2" font-family="Helvetica,sans-Serif" font-size="11.00">closed_userid</text>
<polygon fill="#ffffff" stroke="transparent" points="8,-95 8,-117 306,-117 306,-95 8,-95"/>
<polygon fill="none" stroke="black" points="8,-95 8,-117 306,-117 306,-95 8,-95"/>
<image xlink:href="../../images/foreignKeys.png" width="11px" height="12px" preserveAspectRatio="xMinYMin meet" x="13" y="-112"/>
<text text-anchor="start" x="28" y="-103.2" font-family="Helvetica,sans-Serif" font-size="11.00">savings_account_id</text>
<polygon fill="#ffffff" stroke="transparent" points="8,-73 8,-95 306,-95 306,-73 8,-73"/>
<polygon fill="none" stroke="black" points="8,-73 8,-95 306,-95 306,-73 8,-73"/>
<image xlink:href="../../images/foreignKeys.png" width="11px" height="12px" preserveAspectRatio="xMinYMin meet" x="13" y="-90"/>
<text text-anchor="start" x="28" y="-81.2" font-family="Helvetica,sans-Serif" font-size="11.00">lastmodifiedby_id</text>
<polygon fill="none" stroke="black" points="8,-55 8,-73 306,-73 306,-55 8,-55"/>
<text text-anchor="start" x="11" y="-61.2" font-family="Helvetica,sans-Serif" font-size="11.00">...</text>
<polygon fill="#ffffff" stroke="transparent" points="8,-37 8,-55 137,-55 137,-37 8,-37"/>
<polygon fill="none" stroke="black" points="8,-37 8,-55 137,-55 137,-37 8,-37"/>
<text text-anchor="start" x="11" y="-43.2" font-family="Helvetica,sans-Serif" font-size="11.00">&lt; 9</text>
<polygon fill="#ffffff" stroke="transparent" points="137,-37 137,-55 230,-55 230,-37 137,-37"/>
<polygon fill="none" stroke="black" points="137,-37 137,-55 230,-55 230,-37 137,-37"/>
<text text-anchor="start" x="194" y="-43.2" font-family="Helvetica,sans-Serif" font-size="11.00">0 rows</text>
<polygon fill="#ffffff" stroke="transparent" points="230,-37 230,-55 306,-55 306,-37 230,-37"/>
<polygon fill="none" stroke="black" points="230,-37 230,-55 306,-55 306,-37 230,-37"/>
<text text-anchor="start" x="287" y="-43.2" font-family="Helvetica,sans-Serif" font-size="11.00">3 &gt;</text>
</a>
</g>
</g>
<!-- m_share_account_transactions&#45;&gt;m_share_account -->
<g id="edge3" class="edge">
<title>m_share_account_transactions:w&#45;&gt;m_share_account:e</title>
<path fill="none" stroke="black" d="M341.84,-282C330.41,-282 323.16,-282 307,-282"/>
<polygon fill="black" stroke="black" points="348.5,-282 356.5,-285.6 352.5,-282 356.5,-282 356.5,-282 356.5,-282 352.5,-282 356.5,-278.4 348.5,-282 348.5,-282"/>
<ellipse fill="none" stroke="black" cx="345.3" cy="-282" rx="3.2" ry="3.2"/>
</g>
<!-- m_share_account_charge_paid_by -->
<g id="node3" class="node">
<title>m_share_account_charge_paid_by</title>
<g id="a_node3"><a xlink:href="../../tables/m_share_account_charge_paid_by.html" xlink:title="m_share_account_charge_paid_by" target="_top">
<polygon fill="#ffffff" stroke="transparent" points="705,-162 705,-286 951,-286 951,-162 705,-162"/>
<polygon fill="#f5f5f5" stroke="transparent" points="705,-264 705,-286 951,-286 951,-264 705,-264"/>
<polygon fill="none" stroke="black" points="705,-264 705,-286 951,-286 951,-264 705,-264"/>
<text text-anchor="start" x="710" y="-273.2" font-family="Helvetica,sans-Serif" font-weight="bold" font-size="11.00">m_share_account_charge_paid_by</text>
<text text-anchor="start" x="916" y="-272.2" font-family="Helvetica,sans-Serif" font-size="11.00">[table]</text>
<polygon fill="none" stroke="black" points="705,-242 705,-264 951,-264 951,-242 705,-242"/>
<image xlink:href="../../images/primaryKeys.png" width="11px" height="12px" preserveAspectRatio="xMinYMin meet" x="710" y="-259"/>
<text text-anchor="start" x="725" y="-250.2" font-family="Helvetica,sans-Serif" font-size="11.00">id</text>
<polygon fill="#ffffff" stroke="transparent" points="705,-220 705,-242 951,-242 951,-220 705,-220"/>
<polygon fill="none" stroke="black" points="705,-220 705,-242 951,-242 951,-220 705,-220"/>
<image xlink:href="../../images/foreignKeys.png" width="11px" height="12px" preserveAspectRatio="xMinYMin meet" x="710" y="-237"/>
<text text-anchor="start" x="725" y="-228.2" font-family="Helvetica,sans-Serif" font-size="11.00">share_transaction_id</text>
<polygon fill="#ffffff" stroke="transparent" points="705,-198 705,-220 951,-220 951,-198 705,-198"/>
<polygon fill="none" stroke="black" points="705,-198 705,-220 951,-220 951,-198 705,-198"/>
<image xlink:href="../../images/foreignKeys.png" width="11px" height="12px" preserveAspectRatio="xMinYMin meet" x="710" y="-215"/>
<text text-anchor="start" x="725" y="-206.2" font-family="Helvetica,sans-Serif" font-size="11.00">charge_transaction_id</text>
<polygon fill="none" stroke="black" points="705,-180 705,-198 951,-198 951,-180 705,-180"/>
<text text-anchor="start" x="708" y="-186.2" font-family="Helvetica,sans-Serif" font-size="11.00">...</text>
<polygon fill="#ffffff" stroke="transparent" points="705,-162 705,-180 813,-180 813,-162 705,-162"/>
<polygon fill="none" stroke="black" points="705,-162 705,-180 813,-180 813,-162 705,-162"/>
<text text-anchor="start" x="708" y="-168.2" font-family="Helvetica,sans-Serif" font-size="11.00">&lt; 2</text>
<polygon fill="#ffffff" stroke="transparent" points="813,-162 813,-180 895,-180 895,-162 813,-162"/>
<polygon fill="none" stroke="black" points="813,-162 813,-180 895,-180 895,-162 813,-162"/>
<text text-anchor="start" x="859" y="-168.2" font-family="Helvetica,sans-Serif" font-size="11.00">0 rows</text>
<polygon fill="#ffffff" stroke="transparent" points="895,-162 895,-180 951,-180 951,-162 895,-162"/>
<polygon fill="none" stroke="black" points="895,-162 895,-180 951,-180 951,-162 895,-162"/>
<text text-anchor="start" x="941" y="-168.2" font-family="Helvetica,sans-Serif" font-size="11.00"> &#160;</text>
</a>
</g>
</g>
<!-- m_share_account_charge_paid_by&#45;&gt;m_share_account_transactions -->
<g id="edge2" class="edge">
<title>m_share_account_charge_paid_by:w&#45;&gt;m_share_account_transactions:e</title>
<path fill="none" stroke="black" d="M690.23,-235.79C672.57,-252.03 688.37,-304 655.5,-304"/>
<polygon fill="black" stroke="black" points="696.44,-233.63 705.18,-234.4 700.22,-232.31 704,-231 704,-231 704,-231 700.22,-232.31 702.82,-227.6 696.44,-233.63 696.44,-233.63"/>
<ellipse fill="none" stroke="black" cx="693.42" cy="-234.68" rx="3.2" ry="3.2"/>
</g>
</g>
</svg>
