<?xml version="1.0" encoding="UTF-8" standalone="no"?>
<!DOCTYPE svg PUBLIC "-//W3C//DTD SVG 1.1//EN"
 "http://www.w3.org/Graphics/SVG/1.1/DTD/svg11.dtd">
<!-- Generated by graphviz version 2.43.0 (0)
 -->
<!-- Title: oneDegreeRelationshipsDiagram Pages: 1 -->
<svg width="1270pt" height="353pt"
 viewBox="0.00 0.00 1270.00 353.00" xmlns="http://www.w3.org/2000/svg" xmlns:xlink="http://www.w3.org/1999/xlink">
<g id="graph0" class="graph" transform="scale(1 1) rotate(0) translate(4 349)">
<title>oneDegreeRelationshipsDiagram</title>
<polygon fill="#ffffff" stroke="transparent" points="-4,4 -4,-349 1266,-349 1266,4 -4,4"/>
<text text-anchor="middle" x="71.5" y="-7.2" font-family="Helvetica,sans-Serif" font-size="11.00">Generated by SchemaSpy</text>
<!-- m_share_account_dividend_details -->
<g id="node1" class="node">
<title>m_share_account_dividend_details</title>
<g id="a_node1"><a xlink:href="../../tables/m_share_account_dividend_details.html" xlink:title="m_share_account_dividend_details" target="_top">
<polygon fill="#ffffff" stroke="transparent" points="1001,-217 1001,-341 1254,-341 1254,-217 1001,-217"/>
<polygon fill="#f5f5f5" stroke="transparent" points="1001.5,-319 1001.5,-341 1254.5,-341 1254.5,-319 1001.5,-319"/>
<polygon fill="none" stroke="black" points="1001.5,-319 1001.5,-341 1254.5,-341 1254.5,-319 1001.5,-319"/>
<text text-anchor="start" x="1006.5" y="-328.2" font-family="Helvetica,sans-Serif" font-weight="bold" font-size="11.00">m_share_account_dividend_details</text>
<text text-anchor="start" x="1219.5" y="-327.2" font-family="Helvetica,sans-Serif" font-size="11.00">[table]</text>
<polygon fill="none" stroke="black" points="1001.5,-297 1001.5,-319 1254.5,-319 1254.5,-297 1001.5,-297"/>
<image xlink:href="../../images/primaryKeys.png" width="11px" height="12px" preserveAspectRatio="xMinYMin meet" x="1006.5" y="-314"/>
<text text-anchor="start" x="1021.5" y="-305.2" font-family="Helvetica,sans-Serif" font-size="11.00">id</text>
<polygon fill="#ffffff" stroke="transparent" points="1001.5,-275 1001.5,-297 1254.5,-297 1254.5,-275 1001.5,-275"/>
<polygon fill="none" stroke="black" points="1001.5,-275 1001.5,-297 1254.5,-297 1254.5,-275 1001.5,-275"/>
<image xlink:href="../../images/foreignKeys.png" width="11px" height="12px" preserveAspectRatio="xMinYMin meet" x="1006.5" y="-292"/>
<text text-anchor="start" x="1021.5" y="-283.2" font-family="Helvetica,sans-Serif" font-size="11.00">dividend_pay_out_id</text>
<polygon fill="#ffffff" stroke="transparent" points="1001.5,-253 1001.5,-275 1254.5,-275 1254.5,-253 1001.5,-253"/>
<polygon fill="none" stroke="black" points="1001.5,-253 1001.5,-275 1254.5,-275 1254.5,-253 1001.5,-253"/>
<image xlink:href="../../images/foreignKeys.png" width="11px" height="12px" preserveAspectRatio="xMinYMin meet" x="1006.5" y="-270"/>
<text text-anchor="start" x="1021.5" y="-261.2" font-family="Helvetica,sans-Serif" font-size="11.00">account_id</text>
<polygon fill="none" stroke="black" points="1001.5,-235 1001.5,-253 1254.5,-253 1254.5,-235 1001.5,-235"/>
<text text-anchor="start" x="1004.5" y="-241.2" font-family="Helvetica,sans-Serif" font-size="11.00">...</text>
<polygon fill="#ffffff" stroke="transparent" points="1001.5,-217 1001.5,-235 1112.5,-235 1112.5,-217 1001.5,-217"/>
<polygon fill="none" stroke="black" points="1001.5,-217 1001.5,-235 1112.5,-235 1112.5,-217 1001.5,-217"/>
<text text-anchor="start" x="1004.5" y="-223.2" font-family="Helvetica,sans-Serif" font-size="11.00">&lt; 2</text>
<polygon fill="#ffffff" stroke="transparent" points="1112.5,-217 1112.5,-235 1196.5,-235 1196.5,-217 1112.5,-217"/>
<polygon fill="none" stroke="black" points="1112.5,-217 1112.5,-235 1196.5,-235 1196.5,-217 1112.5,-217"/>
<text text-anchor="start" x="1160.5" y="-223.2" font-family="Helvetica,sans-Serif" font-size="11.00">0 rows</text>
<polygon fill="#ffffff" stroke="transparent" points="1196.5,-217 1196.5,-235 1254.5,-235 1254.5,-217 1196.5,-217"/>
<polygon fill="none" stroke="black" points="1196.5,-217 1196.5,-235 1254.5,-235 1254.5,-217 1196.5,-217"/>
<text text-anchor="start" x="1244.5" y="-223.2" font-family="Helvetica,sans-Serif" font-size="11.00"> &#160;</text>
</a>
</g>
</g>
<!-- m_share_product_dividend_pay_out -->
<g id="node2" class="node">
<title>m_share_product_dividend_pay_out</title>
<g id="a_node2"><a xlink:href="../../tables/m_share_product_dividend_pay_out.html" xlink:title="m_share_product_dividend_pay_out" target="_top">
<polygon fill="#ffffff" stroke="transparent" points="619,-57 619,-321 952,-321 952,-57 619,-57"/>
<polygon fill="#f5f5f5" stroke="transparent" points="621.5,-297 621.5,-319 950.5,-319 950.5,-297 621.5,-297"/>
<polygon fill="none" stroke="black" points="621.5,-297 621.5,-319 950.5,-319 950.5,-297 621.5,-297"/>
<text text-anchor="start" x="626.5" y="-306.2" font-family="Helvetica,sans-Serif" font-weight="bold" font-size="11.00">m_share_product_dividend_pay_out</text>
<text text-anchor="start" x="915.5" y="-305.2" font-family="Helvetica,sans-Serif" font-size="11.00">[table]</text>
<polygon fill="none" stroke="black" points="621.5,-275 621.5,-297 880.5,-297 880.5,-275 621.5,-275"/>
<image xlink:href="../../images/primaryKeys.png" width="11px" height="12px" preserveAspectRatio="xMinYMin meet" x="626.5" y="-292"/>
<text text-anchor="start" x="641.5" y="-283.2" font-family="Helvetica,sans-Serif" font-size="11.00">id</text>
<polygon fill="none" stroke="black" points="880.5,-275 880.5,-297 950.5,-297 950.5,-275 880.5,-275"/>
<text text-anchor="start" x="883.5" y="-283.2" font-family="Helvetica,sans-Serif" font-size="11.00">bigint[19]</text>
<polygon fill="#ffffff" stroke="transparent" points="621.5,-253 621.5,-275 880.5,-275 880.5,-253 621.5,-253"/>
<polygon fill="none" stroke="black" points="621.5,-253 621.5,-275 880.5,-275 880.5,-253 621.5,-253"/>
<image xlink:href="../../images/foreignKeys.png" width="11px" height="12px" preserveAspectRatio="xMinYMin meet" x="626.5" y="-270"/>
<text text-anchor="start" x="641.5" y="-261.2" font-family="Helvetica,sans-Serif" font-size="11.00">product_id</text>
<polygon fill="none" stroke="black" points="880.5,-253 880.5,-275 950.5,-275 950.5,-253 880.5,-253"/>
<text text-anchor="start" x="883.5" y="-261.2" font-family="Helvetica,sans-Serif" font-size="11.00">bigint[19]</text>
<polygon fill="none" stroke="black" points="621.5,-231 621.5,-253 880.5,-253 880.5,-231 621.5,-231"/>
<text text-anchor="start" x="641.5" y="-239.2" font-family="Helvetica,sans-Serif" font-size="11.00">amount</text>
<polygon fill="none" stroke="black" points="880.5,-231 880.5,-253 950.5,-253 950.5,-231 880.5,-231"/>
<text text-anchor="start" x="883.5" y="-239.2" font-family="Helvetica,sans-Serif" font-size="11.00">decimal[19,6]</text>
<polygon fill="none" stroke="black" points="621.5,-209 621.5,-231 880.5,-231 880.5,-209 621.5,-209"/>
<text text-anchor="start" x="641.5" y="-217.2" font-family="Helvetica,sans-Serif" font-size="11.00">dividend_period_start_date</text>
<polygon fill="none" stroke="black" points="880.5,-209 880.5,-231 950.5,-231 950.5,-209 880.5,-209"/>
<text text-anchor="start" x="883.5" y="-217.2" font-family="Helvetica,sans-Serif" font-size="11.00">date[10]</text>
<polygon fill="none" stroke="black" points="621.5,-187 621.5,-209 880.5,-209 880.5,-187 621.5,-187"/>
<text text-anchor="start" x="641.5" y="-195.2" font-family="Helvetica,sans-Serif" font-size="11.00">dividend_period_end_date</text>
<polygon fill="none" stroke="black" points="880.5,-187 880.5,-209 950.5,-209 950.5,-187 880.5,-187"/>
<text text-anchor="start" x="883.5" y="-195.2" font-family="Helvetica,sans-Serif" font-size="11.00">date[10]</text>
<polygon fill="none" stroke="black" points="621.5,-165 621.5,-187 880.5,-187 880.5,-165 621.5,-165"/>
<text text-anchor="start" x="641.5" y="-173.2" font-family="Helvetica,sans-Serif" font-size="11.00">status</text>
<polygon fill="none" stroke="black" points="880.5,-165 880.5,-187 950.5,-187 950.5,-165 880.5,-165"/>
<text text-anchor="start" x="883.5" y="-173.2" font-family="Helvetica,sans-Serif" font-size="11.00">smallint[5]</text>
<polygon fill="#ffffff" stroke="transparent" points="621.5,-143 621.5,-165 880.5,-165 880.5,-143 621.5,-143"/>
<polygon fill="none" stroke="black" points="621.5,-143 621.5,-165 880.5,-165 880.5,-143 621.5,-143"/>
<image xlink:href="../../images/foreignKeys.png" width="11px" height="12px" preserveAspectRatio="xMinYMin meet" x="626.5" y="-160"/>
<text text-anchor="start" x="641.5" y="-151.2" font-family="Helvetica,sans-Serif" font-size="11.00">createdby_id</text>
<polygon fill="none" stroke="black" points="880.5,-143 880.5,-165 950.5,-165 950.5,-143 880.5,-143"/>
<text text-anchor="start" x="883.5" y="-151.2" font-family="Helvetica,sans-Serif" font-size="11.00">bigint[19]</text>
<polygon fill="none" stroke="black" points="621.5,-121 621.5,-143 880.5,-143 880.5,-121 621.5,-121"/>
<text text-anchor="start" x="641.5" y="-129.2" font-family="Helvetica,sans-Serif" font-size="11.00">created_date</text>
<polygon fill="none" stroke="black" points="880.5,-121 880.5,-143 950.5,-143 950.5,-121 880.5,-121"/>
<text text-anchor="start" x="883.5" y="-129.2" font-family="Helvetica,sans-Serif" font-size="11.00">datetime[19]</text>
<polygon fill="#ffffff" stroke="transparent" points="621.5,-99 621.5,-121 880.5,-121 880.5,-99 621.5,-99"/>
<polygon fill="none" stroke="black" points="621.5,-99 621.5,-121 880.5,-121 880.5,-99 621.5,-99"/>
<image xlink:href="../../images/foreignKeys.png" width="11px" height="12px" preserveAspectRatio="xMinYMin meet" x="626.5" y="-116"/>
<text text-anchor="start" x="641.5" y="-107.2" font-family="Helvetica,sans-Serif" font-size="11.00">lastmodifiedby_id</text>
<polygon fill="none" stroke="black" points="880.5,-99 880.5,-121 950.5,-121 950.5,-99 880.5,-99"/>
<text text-anchor="start" x="883.5" y="-107.2" font-family="Helvetica,sans-Serif" font-size="11.00">bigint[19]</text>
<polygon fill="none" stroke="black" points="621.5,-77 621.5,-99 880.5,-99 880.5,-77 621.5,-77"/>
<text text-anchor="start" x="641.5" y="-85.2" font-family="Helvetica,sans-Serif" font-size="11.00">lastmodified_date</text>
<polygon fill="none" stroke="black" points="880.5,-77 880.5,-99 950.5,-99 950.5,-77 880.5,-77"/>
<text text-anchor="start" x="883.5" y="-85.2" font-family="Helvetica,sans-Serif" font-size="11.00">datetime[19]</text>
<polygon fill="#ffffff" stroke="transparent" points="621.5,-59 621.5,-77 742.5,-77 742.5,-59 621.5,-59"/>
<polygon fill="none" stroke="black" points="621.5,-59 621.5,-77 742.5,-77 742.5,-59 621.5,-59"/>
<text text-anchor="start" x="624.5" y="-65.2" font-family="Helvetica,sans-Serif" font-size="11.00">&lt; 3</text>
<polygon fill="#ffffff" stroke="transparent" points="742.5,-59 742.5,-77 880.5,-77 880.5,-59 742.5,-59"/>
<polygon fill="none" stroke="black" points="742.5,-59 742.5,-77 880.5,-77 880.5,-59 742.5,-59"/>
<text text-anchor="start" x="844.5" y="-65.2" font-family="Helvetica,sans-Serif" font-size="11.00">0 rows</text>
<polygon fill="#ffffff" stroke="transparent" points="880.5,-59 880.5,-77 950.5,-77 950.5,-59 880.5,-59"/>
<polygon fill="none" stroke="black" points="880.5,-59 880.5,-77 950.5,-77 950.5,-59 880.5,-59"/>
<text text-anchor="start" x="931.5" y="-65.2" font-family="Helvetica,sans-Serif" font-size="11.00">1 &gt;</text>
<polygon fill="none" stroke="black" stroke-width="2" points="620,-58 620,-320 951,-320 951,-58 620,-58"/>
</a>
</g>
</g>
<!-- m_share_account_dividend_details&#45;&gt;m_share_product_dividend_pay_out -->
<g id="edge1" class="edge">
<title>m_share_account_dividend_details:w&#45;&gt;m_share_product_dividend_pay_out:e</title>
<path fill="none" stroke="black" d="M985.99,-286C974.68,-286 967.49,-286 951.5,-286"/>
<polygon fill="black" stroke="black" points="992.5,-286 1000.5,-289.6 996.5,-286 1000.5,-286 1000.5,-286 1000.5,-286 996.5,-286 1000.5,-282.4 992.5,-286 992.5,-286"/>
<ellipse fill="none" stroke="black" cx="989.3" cy="-286" rx="3.2" ry="3.2"/>
</g>
<!-- m_share_product -->
<g id="node3" class="node">
<title>m_share_product</title>
<g id="a_node3"><a xlink:href="../../tables/m_share_product.html" xlink:title="m_share_product" target="_top">
<polygon fill="#ffffff" stroke="transparent" points="272,-161 272,-307 570,-307 570,-161 272,-161"/>
<polygon fill="#f5f5f5" stroke="transparent" points="272,-285 272,-307 570,-307 570,-285 272,-285"/>
<polygon fill="none" stroke="black" points="272,-285 272,-307 570,-307 570,-285 272,-285"/>
<text text-anchor="start" x="277" y="-294.2" font-family="Helvetica,sans-Serif" font-weight="bold" font-size="11.00">m_share_product</text>
<text text-anchor="start" x="535" y="-293.2" font-family="Helvetica,sans-Serif" font-size="11.00">[table]</text>
<polygon fill="none" stroke="black" points="272,-263 272,-285 570,-285 570,-263 272,-263"/>
<image xlink:href="../../images/primaryKeys.png" width="11px" height="12px" preserveAspectRatio="xMinYMin meet" x="277" y="-280"/>
<text text-anchor="start" x="292" y="-271.2" font-family="Helvetica,sans-Serif" font-size="11.00">id</text>
<polygon fill="#ffffff" stroke="transparent" points="272,-241 272,-263 570,-263 570,-241 272,-241"/>
<polygon fill="none" stroke="black" points="272,-241 272,-263 570,-263 570,-241 272,-241"/>
<text text-anchor="start" x="292" y="-249.2" font-family="Helvetica,sans-Serif" font-size="11.00">name</text>
<polygon fill="#ffffff" stroke="transparent" points="272,-219 272,-241 570,-241 570,-219 272,-219"/>
<polygon fill="none" stroke="black" points="272,-219 272,-241 570,-241 570,-219 272,-219"/>
<image xlink:href="../../images/foreignKeys.png" width="11px" height="12px" preserveAspectRatio="xMinYMin meet" x="277" y="-236"/>
<text text-anchor="start" x="292" y="-227.2" font-family="Helvetica,sans-Serif" font-size="11.00">createdby_id</text>
<polygon fill="#ffffff" stroke="transparent" points="272,-197 272,-219 570,-219 570,-197 272,-197"/>
<polygon fill="none" stroke="black" points="272,-197 272,-219 570,-219 570,-197 272,-197"/>
<image xlink:href="../../images/foreignKeys.png" width="11px" height="12px" preserveAspectRatio="xMinYMin meet" x="277" y="-214"/>
<text text-anchor="start" x="292" y="-205.2" font-family="Helvetica,sans-Serif" font-size="11.00">lastmodifiedby_id</text>
<polygon fill="none" stroke="black" points="272,-179 272,-197 570,-197 570,-179 272,-179"/>
<text text-anchor="start" x="275" y="-185.2" font-family="Helvetica,sans-Serif" font-size="11.00">...</text>
<polygon fill="#ffffff" stroke="transparent" points="272,-161 272,-179 401,-179 401,-161 272,-161"/>
<polygon fill="none" stroke="black" points="272,-161 272,-179 401,-179 401,-161 272,-161"/>
<text text-anchor="start" x="275" y="-167.2" font-family="Helvetica,sans-Serif" font-size="11.00">&lt; 2</text>
<polygon fill="#ffffff" stroke="transparent" points="401,-161 401,-179 494,-179 494,-161 401,-161"/>
<polygon fill="none" stroke="black" points="401,-161 401,-179 494,-179 494,-161 401,-161"/>
<text text-anchor="start" x="458" y="-167.2" font-family="Helvetica,sans-Serif" font-size="11.00">0 rows</text>
<polygon fill="#ffffff" stroke="transparent" points="494,-161 494,-179 570,-179 570,-161 494,-161"/>
<polygon fill="none" stroke="black" points="494,-161 494,-179 570,-179 570,-161 494,-161"/>
<text text-anchor="start" x="551" y="-167.2" font-family="Helvetica,sans-Serif" font-size="11.00">4 &gt;</text>
</a>
</g>
</g>
<!-- m_share_product_dividend_pay_out&#45;&gt;m_share_product -->
<g id="edge6" class="edge">
<title>m_share_product_dividend_pay_out:w&#45;&gt;m_share_product:e</title>
<path fill="none" stroke="black" d="M606.09,-265.65C594.49,-268.49 587.66,-274 571,-274"/>
<polygon fill="black" stroke="black" points="612.55,-264.91 620.91,-267.58 616.53,-264.46 620.5,-264 620.5,-264 620.5,-264 616.53,-264.46 620.09,-260.42 612.55,-264.91 612.55,-264.91"/>
<ellipse fill="none" stroke="black" cx="609.37" cy="-265.27" rx="3.2" ry="3.2"/>
</g>
<!-- m_appuser -->
<g id="node4" class="node">
<title>m_appuser</title>
<g id="a_node4"><a xlink:href="../../tables/m_appuser.html" xlink:title="m_appuser" target="_top">
<polygon fill="#ffffff" stroke="transparent" points="8,-37 8,-205 223,-205 223,-37 8,-37"/>
<polygon fill="#f5f5f5" stroke="transparent" points="8.5,-183 8.5,-205 223.5,-205 223.5,-183 8.5,-183"/>
<polygon fill="none" stroke="black" points="8.5,-183 8.5,-205 223.5,-205 223.5,-183 8.5,-183"/>
<text text-anchor="start" x="13.5" y="-192.2" font-family="Helvetica,sans-Serif" font-weight="bold" font-size="11.00">m_appuser</text>
<text text-anchor="start" x="188.5" y="-191.2" font-family="Helvetica,sans-Serif" font-size="11.00">[table]</text>
<polygon fill="none" stroke="black" points="8.5,-161 8.5,-183 223.5,-183 223.5,-161 8.5,-161"/>
<image xlink:href="../../images/primaryKeys.png" width="11px" height="12px" preserveAspectRatio="xMinYMin meet" x="13.5" y="-178"/>
<text text-anchor="start" x="28.5" y="-169.2" font-family="Helvetica,sans-Serif" font-size="11.00">id</text>
<polygon fill="#ffffff" stroke="transparent" points="8.5,-139 8.5,-161 223.5,-161 223.5,-139 8.5,-139"/>
<polygon fill="none" stroke="black" points="8.5,-139 8.5,-161 223.5,-161 223.5,-139 8.5,-139"/>
<image xlink:href="../../images/foreignKeys.png" width="11px" height="12px" preserveAspectRatio="xMinYMin meet" x="13.5" y="-156"/>
<text text-anchor="start" x="28.5" y="-147.2" font-family="Helvetica,sans-Serif" font-size="11.00">office_id</text>
<polygon fill="#ffffff" stroke="transparent" points="8.5,-117 8.5,-139 223.5,-139 223.5,-117 8.5,-117"/>
<polygon fill="none" stroke="black" points="8.5,-117 8.5,-139 223.5,-139 223.5,-117 8.5,-117"/>
<image xlink:href="../../images/foreignKeys.png" width="11px" height="12px" preserveAspectRatio="xMinYMin meet" x="13.5" y="-134"/>
<text text-anchor="start" x="28.5" y="-125.2" font-family="Helvetica,sans-Serif" font-size="11.00">staff_id</text>
<polygon fill="#ffffff" stroke="transparent" points="8.5,-95 8.5,-117 223.5,-117 223.5,-95 8.5,-95"/>
<polygon fill="none" stroke="black" points="8.5,-95 8.5,-117 223.5,-117 223.5,-95 8.5,-95"/>
<text text-anchor="start" x="28.5" y="-103.2" font-family="Helvetica,sans-Serif" font-size="11.00">username</text>
<polygon fill="#ffffff" stroke="transparent" points="8.5,-73 8.5,-95 223.5,-95 223.5,-73 8.5,-73"/>
<polygon fill="none" stroke="black" points="8.5,-73 8.5,-95 223.5,-95 223.5,-73 8.5,-73"/>
<text text-anchor="start" x="28.5" y="-81.2" font-family="Helvetica,sans-Serif" font-size="11.00">last_time_password_updated</text>
<polygon fill="none" stroke="black" points="8.5,-55 8.5,-73 223.5,-73 223.5,-55 8.5,-55"/>
<text text-anchor="start" x="11.5" y="-61.2" font-family="Helvetica,sans-Serif" font-size="11.00">...</text>
<polygon fill="#ffffff" stroke="transparent" points="8.5,-37 8.5,-55 93.5,-55 93.5,-37 8.5,-37"/>
<polygon fill="none" stroke="black" points="8.5,-37 8.5,-55 93.5,-55 93.5,-37 8.5,-37"/>
<text text-anchor="start" x="11.5" y="-43.2" font-family="Helvetica,sans-Serif" font-size="11.00">&lt; 2</text>
<polygon fill="#ffffff" stroke="transparent" points="93.5,-37 93.5,-55 163.5,-55 163.5,-37 93.5,-37"/>
<polygon fill="none" stroke="black" points="93.5,-37 93.5,-55 163.5,-55 163.5,-37 93.5,-37"/>
<text text-anchor="start" x="127.5" y="-43.2" font-family="Helvetica,sans-Serif" font-size="11.00">0 rows</text>
<polygon fill="#ffffff" stroke="transparent" points="163.5,-37 163.5,-55 223.5,-55 223.5,-37 163.5,-37"/>
<polygon fill="none" stroke="black" points="163.5,-37 163.5,-55 223.5,-55 223.5,-37 163.5,-37"/>
<text text-anchor="start" x="198.5" y="-43.2" font-family="Helvetica,sans-Serif" font-size="11.00">57 &gt;</text>
</a>
</g>
</g>
<!-- m_share_product_dividend_pay_out&#45;&gt;m_appuser -->
<g id="edge4" class="edge">
<title>m_share_product_dividend_pay_out:w&#45;&gt;m_appuser:e</title>
<path fill="none" stroke="black" d="M606.06,-153.44C597.27,-152.7 591.01,-151.46 578,-151 438.53,-146.08 399.41,-117.24 264,-151 244.71,-155.81 244.38,-172 224.5,-172"/>
<polygon fill="black" stroke="black" points="612.51,-153.69 620.36,-157.6 616.5,-153.84 620.5,-154 620.5,-154 620.5,-154 616.5,-153.84 620.64,-150.4 612.51,-153.69 612.51,-153.69"/>
<ellipse fill="none" stroke="black" cx="609.31" cy="-153.56" rx="3.2" ry="3.2"/>
</g>
<!-- m_share_product_dividend_pay_out&#45;&gt;m_appuser -->
<g id="edge5" class="edge">
<title>m_share_product_dividend_pay_out:w&#45;&gt;m_appuser:e</title>
<path fill="none" stroke="black" d="M605.92,-109.87C458.34,-107.27 403.67,-66.7 264,-131 241.02,-141.58 249.8,-172 224.5,-172"/>
<polygon fill="black" stroke="black" points="612.5,-109.93 620.47,-113.6 616.5,-109.96 620.5,-110 620.5,-110 620.5,-110 616.5,-109.96 620.53,-106.4 612.5,-109.93 612.5,-109.93"/>
<ellipse fill="none" stroke="black" cx="609.3" cy="-109.9" rx="3.2" ry="3.2"/>
</g>
<!-- m_share_product&#45;&gt;m_appuser -->
<g id="edge2" class="edge">
<title>m_share_product:w&#45;&gt;m_appuser:e</title>
<path fill="none" stroke="black" d="M257.27,-224.65C243.45,-210.29 251.34,-172 224.5,-172"/>
<polygon fill="black" stroke="black" points="263.55,-227.09 269.69,-233.35 267.27,-228.55 271,-230 271,-230 271,-230 267.27,-228.55 272.31,-226.65 263.55,-227.09 263.55,-227.09"/>
<ellipse fill="none" stroke="black" cx="260.57" cy="-225.93" rx="3.2" ry="3.2"/>
</g>
<!-- m_share_product&#45;&gt;m_appuser -->
<g id="edge3" class="edge">
<title>m_share_product:w&#45;&gt;m_appuser:e</title>
<path fill="none" stroke="black" d="M257.06,-202.99C245.82,-193.1 244.51,-172 224.5,-172"/>
<polygon fill="black" stroke="black" points="263.47,-205.3 269.78,-211.39 267.24,-206.65 271,-208 271,-208 271,-208 267.24,-206.65 272.22,-204.61 263.47,-205.3 263.47,-205.3"/>
<ellipse fill="none" stroke="black" cx="260.46" cy="-204.21" rx="3.2" ry="3.2"/>
</g>
</g>
</svg>
