<?xml version="1.0" encoding="UTF-8" standalone="no"?>
<!DOCTYPE svg PUBLIC "-//W3C//DTD SVG 1.1//EN"
 "http://www.w3.org/Graphics/SVG/1.1/DTD/svg11.dtd">
<!-- Generated by graphviz version 2.43.0 (0)
 -->
<!-- Title: oneDegreeRelationshipsDiagram Pages: 1 -->
<svg width="968pt" height="626pt"
 viewBox="0.00 0.00 968.00 626.00" xmlns="http://www.w3.org/2000/svg" xmlns:xlink="http://www.w3.org/1999/xlink">
<g id="graph0" class="graph" transform="scale(1 1) rotate(0) translate(4 622)">
<title>oneDegreeRelationshipsDiagram</title>
<polygon fill="#ffffff" stroke="transparent" points="-4,4 -4,-622 964,-622 964,4 -4,4"/>
<text text-anchor="middle" x="71.5" y="-7.2" font-family="Helvetica,sans-Serif" font-size="11.00">Generated by SchemaSpy</text>
<!-- m_share_account_charge -->
<g id="node1" class="node">
<title>m_share_account_charge</title>
<g id="a_node1"><a xlink:href="../../tables/m_share_account_charge.html" xlink:title="m_share_account_charge" target="_top">
<polygon fill="#ffffff" stroke="transparent" points="355,-37 355,-499 657,-499 657,-37 355,-37"/>
<polygon fill="#f5f5f5" stroke="transparent" points="357,-475 357,-497 655,-497 655,-475 357,-475"/>
<polygon fill="none" stroke="black" points="357,-475 357,-497 655,-497 655,-475 357,-475"/>
<text text-anchor="start" x="362" y="-484.2" font-family="Helvetica,sans-Serif" font-weight="bold" font-size="11.00">m_share_account_charge</text>
<text text-anchor="start" x="620" y="-483.2" font-family="Helvetica,sans-Serif" font-size="11.00">[table]</text>
<polygon fill="none" stroke="black" points="357,-453 357,-475 585,-475 585,-453 357,-453"/>
<image xlink:href="../../images/primaryKeys.png" width="11px" height="12px" preserveAspectRatio="xMinYMin meet" x="362" y="-470"/>
<text text-anchor="start" x="377" y="-461.2" font-family="Helvetica,sans-Serif" font-size="11.00">id</text>
<polygon fill="none" stroke="black" points="585,-453 585,-475 655,-475 655,-453 585,-453"/>
<text text-anchor="start" x="588" y="-461.2" font-family="Helvetica,sans-Serif" font-size="11.00">bigint[19]</text>
<polygon fill="#ffffff" stroke="transparent" points="357,-431 357,-453 585,-453 585,-431 357,-431"/>
<polygon fill="none" stroke="black" points="357,-431 357,-453 585,-453 585,-431 357,-431"/>
<image xlink:href="../../images/foreignKeys.png" width="11px" height="12px" preserveAspectRatio="xMinYMin meet" x="362" y="-448"/>
<text text-anchor="start" x="377" y="-439.2" font-family="Helvetica,sans-Serif" font-size="11.00">account_id</text>
<polygon fill="none" stroke="black" points="585,-431 585,-453 655,-453 655,-431 585,-431"/>
<text text-anchor="start" x="588" y="-439.2" font-family="Helvetica,sans-Serif" font-size="11.00">bigint[19]</text>
<polygon fill="#ffffff" stroke="transparent" points="357,-409 357,-431 585,-431 585,-409 357,-409"/>
<polygon fill="none" stroke="black" points="357,-409 357,-431 585,-431 585,-409 357,-409"/>
<image xlink:href="../../images/foreignKeys.png" width="11px" height="12px" preserveAspectRatio="xMinYMin meet" x="362" y="-426"/>
<text text-anchor="start" x="377" y="-417.2" font-family="Helvetica,sans-Serif" font-size="11.00">charge_id</text>
<polygon fill="none" stroke="black" points="585,-409 585,-431 655,-431 655,-409 585,-409"/>
<text text-anchor="start" x="588" y="-417.2" font-family="Helvetica,sans-Serif" font-size="11.00">bigint[19]</text>
<polygon fill="none" stroke="black" points="357,-387 357,-409 585,-409 585,-387 357,-387"/>
<text text-anchor="start" x="377" y="-395.2" font-family="Helvetica,sans-Serif" font-size="11.00">charge_time_enum</text>
<polygon fill="none" stroke="black" points="585,-387 585,-409 655,-409 655,-387 585,-387"/>
<text text-anchor="start" x="588" y="-395.2" font-family="Helvetica,sans-Serif" font-size="11.00">smallint[5]</text>
<polygon fill="none" stroke="black" points="357,-365 357,-387 585,-387 585,-365 357,-365"/>
<text text-anchor="start" x="377" y="-373.2" font-family="Helvetica,sans-Serif" font-size="11.00">charge_calculation_enum</text>
<polygon fill="none" stroke="black" points="585,-365 585,-387 655,-387 655,-365 585,-365"/>
<text text-anchor="start" x="588" y="-373.2" font-family="Helvetica,sans-Serif" font-size="11.00">smallint[5]</text>
<polygon fill="none" stroke="black" points="357,-343 357,-365 585,-365 585,-343 357,-343"/>
<text text-anchor="start" x="377" y="-351.2" font-family="Helvetica,sans-Serif" font-size="11.00">charge_payment_mode_enum</text>
<polygon fill="none" stroke="black" points="585,-343 585,-365 655,-365 655,-343 585,-343"/>
<text text-anchor="start" x="588" y="-351.2" font-family="Helvetica,sans-Serif" font-size="11.00">smallint[5]</text>
<polygon fill="none" stroke="black" points="357,-321 357,-343 585,-343 585,-321 357,-321"/>
<text text-anchor="start" x="377" y="-329.2" font-family="Helvetica,sans-Serif" font-size="11.00">calculation_percentage</text>
<polygon fill="none" stroke="black" points="585,-321 585,-343 655,-343 655,-321 585,-321"/>
<text text-anchor="start" x="588" y="-329.2" font-family="Helvetica,sans-Serif" font-size="11.00">decimal[19,6]</text>
<polygon fill="none" stroke="black" points="357,-299 357,-321 585,-321 585,-299 357,-299"/>
<text text-anchor="start" x="377" y="-307.2" font-family="Helvetica,sans-Serif" font-size="11.00">calculation_on_amount</text>
<polygon fill="none" stroke="black" points="585,-299 585,-321 655,-321 655,-299 585,-299"/>
<text text-anchor="start" x="588" y="-307.2" font-family="Helvetica,sans-Serif" font-size="11.00">decimal[19,6]</text>
<polygon fill="none" stroke="black" points="357,-277 357,-299 585,-299 585,-277 357,-277"/>
<text text-anchor="start" x="377" y="-285.2" font-family="Helvetica,sans-Serif" font-size="11.00">charge_amount_or_percentage</text>
<polygon fill="none" stroke="black" points="585,-277 585,-299 655,-299 655,-277 585,-277"/>
<text text-anchor="start" x="588" y="-285.2" font-family="Helvetica,sans-Serif" font-size="11.00">decimal[19,6]</text>
<polygon fill="none" stroke="black" points="357,-255 357,-277 585,-277 585,-255 357,-255"/>
<text text-anchor="start" x="377" y="-263.2" font-family="Helvetica,sans-Serif" font-size="11.00">amount</text>
<polygon fill="none" stroke="black" points="585,-255 585,-277 655,-277 655,-255 585,-255"/>
<text text-anchor="start" x="588" y="-263.2" font-family="Helvetica,sans-Serif" font-size="11.00">decimal[19,6]</text>
<polygon fill="none" stroke="black" points="357,-233 357,-255 585,-255 585,-233 357,-233"/>
<text text-anchor="start" x="377" y="-241.2" font-family="Helvetica,sans-Serif" font-size="11.00">amount_paid_derived</text>
<polygon fill="none" stroke="black" points="585,-233 585,-255 655,-255 655,-233 585,-233"/>
<text text-anchor="start" x="588" y="-241.2" font-family="Helvetica,sans-Serif" font-size="11.00">decimal[19,6]</text>
<polygon fill="none" stroke="black" points="357,-211 357,-233 585,-233 585,-211 357,-211"/>
<text text-anchor="start" x="377" y="-219.2" font-family="Helvetica,sans-Serif" font-size="11.00">amount_waived_derived</text>
<polygon fill="none" stroke="black" points="585,-211 585,-233 655,-233 655,-211 585,-211"/>
<text text-anchor="start" x="588" y="-219.2" font-family="Helvetica,sans-Serif" font-size="11.00">decimal[19,6]</text>
<polygon fill="none" stroke="black" points="357,-189 357,-211 585,-211 585,-189 357,-189"/>
<text text-anchor="start" x="377" y="-197.2" font-family="Helvetica,sans-Serif" font-size="11.00">amount_writtenoff_derived</text>
<polygon fill="none" stroke="black" points="585,-189 585,-211 655,-211 655,-189 585,-189"/>
<text text-anchor="start" x="588" y="-197.2" font-family="Helvetica,sans-Serif" font-size="11.00">decimal[19,6]</text>
<polygon fill="none" stroke="black" points="357,-167 357,-189 585,-189 585,-167 357,-167"/>
<text text-anchor="start" x="377" y="-175.2" font-family="Helvetica,sans-Serif" font-size="11.00">amount_outstanding_derived</text>
<polygon fill="none" stroke="black" points="585,-167 585,-189 655,-189 655,-167 585,-167"/>
<text text-anchor="start" x="588" y="-175.2" font-family="Helvetica,sans-Serif" font-size="11.00">decimal[19,6]</text>
<polygon fill="none" stroke="black" points="357,-145 357,-167 585,-167 585,-145 357,-145"/>
<text text-anchor="start" x="377" y="-153.2" font-family="Helvetica,sans-Serif" font-size="11.00">is_paid_derived</text>
<polygon fill="none" stroke="black" points="585,-145 585,-167 655,-167 655,-145 585,-145"/>
<text text-anchor="start" x="588" y="-153.2" font-family="Helvetica,sans-Serif" font-size="11.00">bit[1]</text>
<polygon fill="none" stroke="black" points="357,-123 357,-145 585,-145 585,-123 357,-123"/>
<text text-anchor="start" x="377" y="-131.2" font-family="Helvetica,sans-Serif" font-size="11.00">waived</text>
<polygon fill="none" stroke="black" points="585,-123 585,-145 655,-145 655,-123 585,-123"/>
<text text-anchor="start" x="588" y="-131.2" font-family="Helvetica,sans-Serif" font-size="11.00">bit[1]</text>
<polygon fill="none" stroke="black" points="357,-101 357,-123 585,-123 585,-101 357,-101"/>
<text text-anchor="start" x="377" y="-109.2" font-family="Helvetica,sans-Serif" font-size="11.00">min_cap</text>
<polygon fill="none" stroke="black" points="585,-101 585,-123 655,-123 655,-101 585,-101"/>
<text text-anchor="start" x="588" y="-109.2" font-family="Helvetica,sans-Serif" font-size="11.00">decimal[19,6]</text>
<polygon fill="none" stroke="black" points="357,-79 357,-101 585,-101 585,-79 357,-79"/>
<text text-anchor="start" x="377" y="-87.2" font-family="Helvetica,sans-Serif" font-size="11.00">max_cap</text>
<polygon fill="none" stroke="black" points="585,-79 585,-101 655,-101 655,-79 585,-79"/>
<text text-anchor="start" x="588" y="-87.2" font-family="Helvetica,sans-Serif" font-size="11.00">decimal[19,6]</text>
<polygon fill="none" stroke="black" points="357,-57 357,-79 585,-79 585,-57 357,-57"/>
<text text-anchor="start" x="377" y="-65.2" font-family="Helvetica,sans-Serif" font-size="11.00">is_active</text>
<polygon fill="none" stroke="black" points="585,-57 585,-79 655,-79 655,-57 585,-57"/>
<text text-anchor="start" x="588" y="-65.2" font-family="Helvetica,sans-Serif" font-size="11.00">bit[1]</text>
<polygon fill="#ffffff" stroke="transparent" points="357,-39 357,-57 462,-57 462,-39 357,-39"/>
<polygon fill="none" stroke="black" points="357,-39 357,-57 462,-57 462,-39 357,-39"/>
<text text-anchor="start" x="360" y="-45.2" font-family="Helvetica,sans-Serif" font-size="11.00">&lt; 2</text>
<polygon fill="#ffffff" stroke="transparent" points="462,-39 462,-57 585,-57 585,-39 462,-39"/>
<polygon fill="none" stroke="black" points="462,-39 462,-57 585,-57 585,-39 462,-39"/>
<text text-anchor="start" x="549" y="-45.2" font-family="Helvetica,sans-Serif" font-size="11.00">0 rows</text>
<polygon fill="#ffffff" stroke="transparent" points="585,-39 585,-57 655,-57 655,-39 585,-39"/>
<polygon fill="none" stroke="black" points="585,-39 585,-57 655,-57 655,-39 585,-39"/>
<text text-anchor="start" x="636" y="-45.2" font-family="Helvetica,sans-Serif" font-size="11.00">1 &gt;</text>
<polygon fill="none" stroke="black" stroke-width="2" points="356,-38 356,-498 656,-498 656,-38 356,-38"/>
</a>
</g>
</g>
<!-- m_share_account -->
<g id="node2" class="node">
<title>m_share_account</title>
<g id="a_node2"><a xlink:href="../../tables/m_share_account.html" xlink:title="m_share_account" target="_top">
<polygon fill="#ffffff" stroke="transparent" points="8,-336 8,-614 306,-614 306,-336 8,-336"/>
<polygon fill="#f5f5f5" stroke="transparent" points="8,-592 8,-614 306,-614 306,-592 8,-592"/>
<polygon fill="none" stroke="black" points="8,-592 8,-614 306,-614 306,-592 8,-592"/>
<text text-anchor="start" x="13" y="-601.2" font-family="Helvetica,sans-Serif" font-weight="bold" font-size="11.00">m_share_account</text>
<text text-anchor="start" x="271" y="-600.2" font-family="Helvetica,sans-Serif" font-size="11.00">[table]</text>
<polygon fill="none" stroke="black" points="8,-570 8,-592 306,-592 306,-570 8,-570"/>
<image xlink:href="../../images/primaryKeys.png" width="11px" height="12px" preserveAspectRatio="xMinYMin meet" x="13" y="-587"/>
<text text-anchor="start" x="28" y="-578.2" font-family="Helvetica,sans-Serif" font-size="11.00">id</text>
<polygon fill="#ffffff" stroke="transparent" points="8,-548 8,-570 306,-570 306,-548 8,-548"/>
<polygon fill="none" stroke="black" points="8,-548 8,-570 306,-570 306,-548 8,-548"/>
<image xlink:href="../../images/foreignKeys.png" width="11px" height="12px" preserveAspectRatio="xMinYMin meet" x="13" y="-565"/>
<text text-anchor="start" x="28" y="-556.2" font-family="Helvetica,sans-Serif" font-size="11.00">product_id</text>
<polygon fill="#ffffff" stroke="transparent" points="8,-526 8,-548 306,-548 306,-526 8,-526"/>
<polygon fill="none" stroke="black" points="8,-526 8,-548 306,-548 306,-526 8,-526"/>
<image xlink:href="../../images/foreignKeys.png" width="11px" height="12px" preserveAspectRatio="xMinYMin meet" x="13" y="-543"/>
<text text-anchor="start" x="28" y="-534.2" font-family="Helvetica,sans-Serif" font-size="11.00">client_id</text>
<polygon fill="#ffffff" stroke="transparent" points="8,-504 8,-526 306,-526 306,-504 8,-504"/>
<polygon fill="none" stroke="black" points="8,-504 8,-526 306,-526 306,-504 8,-504"/>
<image xlink:href="../../images/foreignKeys.png" width="11px" height="12px" preserveAspectRatio="xMinYMin meet" x="13" y="-521"/>
<text text-anchor="start" x="28" y="-512.2" font-family="Helvetica,sans-Serif" font-size="11.00">submitted_userid</text>
<polygon fill="#ffffff" stroke="transparent" points="8,-482 8,-504 306,-504 306,-482 8,-482"/>
<polygon fill="none" stroke="black" points="8,-482 8,-504 306,-504 306,-482 8,-482"/>
<image xlink:href="../../images/foreignKeys.png" width="11px" height="12px" preserveAspectRatio="xMinYMin meet" x="13" y="-499"/>
<text text-anchor="start" x="28" y="-490.2" font-family="Helvetica,sans-Serif" font-size="11.00">approved_userid</text>
<polygon fill="#ffffff" stroke="transparent" points="8,-460 8,-482 306,-482 306,-460 8,-460"/>
<polygon fill="none" stroke="black" points="8,-460 8,-482 306,-482 306,-460 8,-460"/>
<image xlink:href="../../images/foreignKeys.png" width="11px" height="12px" preserveAspectRatio="xMinYMin meet" x="13" y="-477"/>
<text text-anchor="start" x="28" y="-468.2" font-family="Helvetica,sans-Serif" font-size="11.00">rejected_userid</text>
<polygon fill="#ffffff" stroke="transparent" points="8,-438 8,-460 306,-460 306,-438 8,-438"/>
<polygon fill="none" stroke="black" points="8,-438 8,-460 306,-460 306,-438 8,-438"/>
<image xlink:href="../../images/foreignKeys.png" width="11px" height="12px" preserveAspectRatio="xMinYMin meet" x="13" y="-455"/>
<text text-anchor="start" x="28" y="-446.2" font-family="Helvetica,sans-Serif" font-size="11.00">activated_userid</text>
<polygon fill="#ffffff" stroke="transparent" points="8,-416 8,-438 306,-438 306,-416 8,-416"/>
<polygon fill="none" stroke="black" points="8,-416 8,-438 306,-438 306,-416 8,-416"/>
<image xlink:href="../../images/foreignKeys.png" width="11px" height="12px" preserveAspectRatio="xMinYMin meet" x="13" y="-433"/>
<text text-anchor="start" x="28" y="-424.2" font-family="Helvetica,sans-Serif" font-size="11.00">closed_userid</text>
<polygon fill="#ffffff" stroke="transparent" points="8,-394 8,-416 306,-416 306,-394 8,-394"/>
<polygon fill="none" stroke="black" points="8,-394 8,-416 306,-416 306,-394 8,-394"/>
<image xlink:href="../../images/foreignKeys.png" width="11px" height="12px" preserveAspectRatio="xMinYMin meet" x="13" y="-411"/>
<text text-anchor="start" x="28" y="-402.2" font-family="Helvetica,sans-Serif" font-size="11.00">savings_account_id</text>
<polygon fill="#ffffff" stroke="transparent" points="8,-372 8,-394 306,-394 306,-372 8,-372"/>
<polygon fill="none" stroke="black" points="8,-372 8,-394 306,-394 306,-372 8,-372"/>
<image xlink:href="../../images/foreignKeys.png" width="11px" height="12px" preserveAspectRatio="xMinYMin meet" x="13" y="-389"/>
<text text-anchor="start" x="28" y="-380.2" font-family="Helvetica,sans-Serif" font-size="11.00">lastmodifiedby_id</text>
<polygon fill="none" stroke="black" points="8,-354 8,-372 306,-372 306,-354 8,-354"/>
<text text-anchor="start" x="11" y="-360.2" font-family="Helvetica,sans-Serif" font-size="11.00">...</text>
<polygon fill="#ffffff" stroke="transparent" points="8,-336 8,-354 137,-354 137,-336 8,-336"/>
<polygon fill="none" stroke="black" points="8,-336 8,-354 137,-354 137,-336 8,-336"/>
<text text-anchor="start" x="11" y="-342.2" font-family="Helvetica,sans-Serif" font-size="11.00">&lt; 9</text>
<polygon fill="#ffffff" stroke="transparent" points="137,-336 137,-354 230,-354 230,-336 137,-336"/>
<polygon fill="none" stroke="black" points="137,-336 137,-354 230,-354 230,-336 137,-336"/>
<text text-anchor="start" x="194" y="-342.2" font-family="Helvetica,sans-Serif" font-size="11.00">0 rows</text>
<polygon fill="#ffffff" stroke="transparent" points="230,-336 230,-354 306,-354 306,-336 230,-336"/>
<polygon fill="none" stroke="black" points="230,-336 230,-354 306,-354 306,-336 230,-336"/>
<text text-anchor="start" x="287" y="-342.2" font-family="Helvetica,sans-Serif" font-size="11.00">3 &gt;</text>
</a>
</g>
</g>
<!-- m_share_account_charge&#45;&gt;m_share_account -->
<g id="edge1" class="edge">
<title>m_share_account_charge:w&#45;&gt;m_share_account:e</title>
<path fill="none" stroke="black" d="M341.7,-445.16C304.04,-465.85 366.62,-581 307,-581"/>
<polygon fill="black" stroke="black" points="348.19,-443.73 356.78,-445.51 352.09,-442.86 356,-442 356,-442 356,-442 352.09,-442.86 355.22,-438.49 348.19,-443.73 348.19,-443.73"/>
<ellipse fill="none" stroke="black" cx="345.06" cy="-444.42" rx="3.2" ry="3.2"/>
</g>
<!-- m_charge -->
<g id="node3" class="node">
<title>m_charge</title>
<g id="a_node3"><a xlink:href="../../tables/m_charge.html" xlink:title="m_charge" target="_top">
<polygon fill="#ffffff" stroke="transparent" points="29,-147 29,-315 285,-315 285,-147 29,-147"/>
<polygon fill="#f5f5f5" stroke="transparent" points="29,-293 29,-315 285,-315 285,-293 29,-293"/>
<polygon fill="none" stroke="black" points="29,-293 29,-315 285,-315 285,-293 29,-293"/>
<text text-anchor="start" x="34" y="-302.2" font-family="Helvetica,sans-Serif" font-weight="bold" font-size="11.00">m_charge</text>
<text text-anchor="start" x="250" y="-301.2" font-family="Helvetica,sans-Serif" font-size="11.00">[table]</text>
<polygon fill="none" stroke="black" points="29,-271 29,-293 285,-293 285,-271 29,-271"/>
<image xlink:href="../../images/primaryKeys.png" width="11px" height="12px" preserveAspectRatio="xMinYMin meet" x="34" y="-288"/>
<text text-anchor="start" x="49" y="-279.2" font-family="Helvetica,sans-Serif" font-size="11.00">id</text>
<polygon fill="#ffffff" stroke="transparent" points="29,-249 29,-271 285,-271 285,-249 29,-249"/>
<polygon fill="none" stroke="black" points="29,-249 29,-271 285,-271 285,-249 29,-249"/>
<text text-anchor="start" x="49" y="-257.2" font-family="Helvetica,sans-Serif" font-size="11.00">name</text>
<polygon fill="#ffffff" stroke="transparent" points="29,-227 29,-249 285,-249 285,-227 29,-227"/>
<polygon fill="none" stroke="black" points="29,-227 29,-249 285,-249 285,-227 29,-227"/>
<image xlink:href="../../images/foreignKeys.png" width="11px" height="12px" preserveAspectRatio="xMinYMin meet" x="34" y="-244"/>
<text text-anchor="start" x="49" y="-235.2" font-family="Helvetica,sans-Serif" font-size="11.00">payment_type_id</text>
<polygon fill="#ffffff" stroke="transparent" points="29,-205 29,-227 285,-227 285,-205 29,-205"/>
<polygon fill="none" stroke="black" points="29,-205 29,-227 285,-227 285,-205 29,-205"/>
<image xlink:href="../../images/foreignKeys.png" width="11px" height="12px" preserveAspectRatio="xMinYMin meet" x="34" y="-222"/>
<text text-anchor="start" x="49" y="-213.2" font-family="Helvetica,sans-Serif" font-size="11.00">income_or_liability_account_id</text>
<polygon fill="#ffffff" stroke="transparent" points="29,-183 29,-205 285,-205 285,-183 29,-183"/>
<polygon fill="none" stroke="black" points="29,-183 29,-205 285,-205 285,-183 29,-183"/>
<image xlink:href="../../images/foreignKeys.png" width="11px" height="12px" preserveAspectRatio="xMinYMin meet" x="34" y="-200"/>
<text text-anchor="start" x="49" y="-191.2" font-family="Helvetica,sans-Serif" font-size="11.00">tax_group_id</text>
<polygon fill="none" stroke="black" points="29,-165 29,-183 285,-183 285,-165 29,-165"/>
<text text-anchor="start" x="32" y="-171.2" font-family="Helvetica,sans-Serif" font-size="11.00">...</text>
<polygon fill="#ffffff" stroke="transparent" points="29,-147 29,-165 137,-165 137,-147 29,-147"/>
<polygon fill="none" stroke="black" points="29,-147 29,-165 137,-165 137,-147 29,-147"/>
<text text-anchor="start" x="32" y="-153.2" font-family="Helvetica,sans-Serif" font-size="11.00">&lt; 3</text>
<polygon fill="#ffffff" stroke="transparent" points="137,-147 137,-165 219,-165 219,-147 137,-147"/>
<polygon fill="none" stroke="black" points="137,-147 137,-165 219,-165 219,-147 137,-147"/>
<text text-anchor="start" x="183" y="-153.2" font-family="Helvetica,sans-Serif" font-size="11.00">0 rows</text>
<polygon fill="#ffffff" stroke="transparent" points="219,-147 219,-165 285,-165 285,-147 219,-147"/>
<polygon fill="none" stroke="black" points="219,-147 219,-165 285,-165 285,-147 219,-147"/>
<text text-anchor="start" x="266" y="-153.2" font-family="Helvetica,sans-Serif" font-size="11.00">9 &gt;</text>
</a>
</g>
</g>
<!-- m_share_account_charge&#45;&gt;m_charge -->
<g id="edge2" class="edge">
<title>m_share_account_charge:w&#45;&gt;m_charge:e</title>
<path fill="none" stroke="black" d="M341.68,-417.37C297.39,-398.29 349.13,-282 286,-282"/>
<polygon fill="black" stroke="black" points="348.13,-418.55 355.35,-423.54 352.07,-419.28 356,-420 356,-420 356,-420 352.07,-419.28 356.65,-416.46 348.13,-418.55 348.13,-418.55"/>
<ellipse fill="none" stroke="black" cx="344.98" cy="-417.97" rx="3.2" ry="3.2"/>
</g>
<!-- m_share_account_charge_paid_by -->
<g id="node4" class="node">
<title>m_share_account_charge_paid_by</title>
<g id="a_node4"><a xlink:href="../../tables/m_share_account_charge_paid_by.html" xlink:title="m_share_account_charge_paid_by" target="_top">
<polygon fill="#ffffff" stroke="transparent" points="706,-417 706,-541 952,-541 952,-417 706,-417"/>
<polygon fill="#f5f5f5" stroke="transparent" points="706,-519 706,-541 952,-541 952,-519 706,-519"/>
<polygon fill="none" stroke="black" points="706,-519 706,-541 952,-541 952,-519 706,-519"/>
<text text-anchor="start" x="711" y="-528.2" font-family="Helvetica,sans-Serif" font-weight="bold" font-size="11.00">m_share_account_charge_paid_by</text>
<text text-anchor="start" x="917" y="-527.2" font-family="Helvetica,sans-Serif" font-size="11.00">[table]</text>
<polygon fill="none" stroke="black" points="706,-497 706,-519 952,-519 952,-497 706,-497"/>
<image xlink:href="../../images/primaryKeys.png" width="11px" height="12px" preserveAspectRatio="xMinYMin meet" x="711" y="-514"/>
<text text-anchor="start" x="726" y="-505.2" font-family="Helvetica,sans-Serif" font-size="11.00">id</text>
<polygon fill="#ffffff" stroke="transparent" points="706,-475 706,-497 952,-497 952,-475 706,-475"/>
<polygon fill="none" stroke="black" points="706,-475 706,-497 952,-497 952,-475 706,-475"/>
<image xlink:href="../../images/foreignKeys.png" width="11px" height="12px" preserveAspectRatio="xMinYMin meet" x="711" y="-492"/>
<text text-anchor="start" x="726" y="-483.2" font-family="Helvetica,sans-Serif" font-size="11.00">share_transaction_id</text>
<polygon fill="#ffffff" stroke="transparent" points="706,-453 706,-475 952,-475 952,-453 706,-453"/>
<polygon fill="none" stroke="black" points="706,-453 706,-475 952,-475 952,-453 706,-453"/>
<image xlink:href="../../images/foreignKeys.png" width="11px" height="12px" preserveAspectRatio="xMinYMin meet" x="711" y="-470"/>
<text text-anchor="start" x="726" y="-461.2" font-family="Helvetica,sans-Serif" font-size="11.00">charge_transaction_id</text>
<polygon fill="none" stroke="black" points="706,-435 706,-453 952,-453 952,-435 706,-435"/>
<text text-anchor="start" x="709" y="-441.2" font-family="Helvetica,sans-Serif" font-size="11.00">...</text>
<polygon fill="#ffffff" stroke="transparent" points="706,-417 706,-435 814,-435 814,-417 706,-417"/>
<polygon fill="none" stroke="black" points="706,-417 706,-435 814,-435 814,-417 706,-417"/>
<text text-anchor="start" x="709" y="-423.2" font-family="Helvetica,sans-Serif" font-size="11.00">&lt; 2</text>
<polygon fill="#ffffff" stroke="transparent" points="814,-417 814,-435 896,-435 896,-417 814,-417"/>
<polygon fill="none" stroke="black" points="814,-417 814,-435 896,-435 896,-417 814,-417"/>
<text text-anchor="start" x="860" y="-423.2" font-family="Helvetica,sans-Serif" font-size="11.00">0 rows</text>
<polygon fill="#ffffff" stroke="transparent" points="896,-417 896,-435 952,-435 952,-417 896,-417"/>
<polygon fill="none" stroke="black" points="896,-417 896,-435 952,-435 952,-417 896,-417"/>
<text text-anchor="start" x="942" y="-423.2" font-family="Helvetica,sans-Serif" font-size="11.00"> &#160;</text>
</a>
</g>
</g>
<!-- m_share_account_charge_paid_by&#45;&gt;m_share_account_charge -->
<g id="edge3" class="edge">
<title>m_share_account_charge_paid_by:w&#45;&gt;m_share_account_charge:e</title>
<path fill="none" stroke="black" d="M690.49,-464C679.18,-464 671.99,-464 656,-464"/>
<polygon fill="black" stroke="black" points="697,-464 705,-467.6 701,-464 705,-464 705,-464 705,-464 701,-464 705,-460.4 697,-464 697,-464"/>
<ellipse fill="none" stroke="black" cx="693.8" cy="-464" rx="3.2" ry="3.2"/>
</g>
</g>
</svg>
