<?xml version="1.0" encoding="UTF-8" standalone="no"?>
<!DOCTYPE svg PUBLIC "-//W3C//DTD SVG 1.1//EN"
 "http://www.w3.org/Graphics/SVG/1.1/DTD/svg11.dtd">
<!-- Generated by graphviz version 2.43.0 (0)
 -->
<!-- Title: oneDegreeRelationshipsDiagram Pages: 1 -->
<svg width="621pt" height="296pt"
 viewBox="0.00 0.00 621.00 296.00" xmlns="http://www.w3.org/2000/svg" xmlns:xlink="http://www.w3.org/1999/xlink">
<g id="graph0" class="graph" transform="scale(1 1) rotate(0) translate(4 292)">
<title>oneDegreeRelationshipsDiagram</title>
<polygon fill="#ffffff" stroke="transparent" points="-4,4 -4,-292 617,-292 617,4 -4,4"/>
<text text-anchor="middle" x="71.5" y="-7.2" font-family="Helvetica,sans-Serif" font-size="11.00">Generated by SchemaSpy</text>
<!-- m_share_account_charge_paid_by -->
<g id="node1" class="node">
<title>m_share_account_charge_paid_by</title>
<g id="a_node1"><a xlink:href="../../tables/m_share_account_charge_paid_by.html" xlink:title="m_share_account_charge_paid_by" target="_top">
<polygon fill="#ffffff" stroke="transparent" points="285,-125 285,-257 605,-257 605,-125 285,-125"/>
<polygon fill="#f5f5f5" stroke="transparent" points="287,-233 287,-255 603,-255 603,-233 287,-233"/>
<polygon fill="none" stroke="black" points="287,-233 287,-255 603,-255 603,-233 287,-233"/>
<text text-anchor="start" x="292" y="-242.2" font-family="Helvetica,sans-Serif" font-weight="bold" font-size="11.00">m_share_account_charge_paid_by</text>
<text text-anchor="start" x="568" y="-241.2" font-family="Helvetica,sans-Serif" font-size="11.00">[table]</text>
<polygon fill="none" stroke="black" points="287,-211 287,-233 533,-233 533,-211 287,-211"/>
<image xlink:href="../../images/primaryKeys.png" width="11px" height="12px" preserveAspectRatio="xMinYMin meet" x="292" y="-228"/>
<text text-anchor="start" x="307" y="-219.2" font-family="Helvetica,sans-Serif" font-size="11.00">id</text>
<polygon fill="none" stroke="black" points="533,-211 533,-233 603,-233 603,-211 533,-211"/>
<text text-anchor="start" x="536" y="-219.2" font-family="Helvetica,sans-Serif" font-size="11.00">bigint[19]</text>
<polygon fill="#ffffff" stroke="transparent" points="287,-189 287,-211 533,-211 533,-189 287,-189"/>
<polygon fill="none" stroke="black" points="287,-189 287,-211 533,-211 533,-189 287,-189"/>
<image xlink:href="../../images/foreignKeys.png" width="11px" height="12px" preserveAspectRatio="xMinYMin meet" x="292" y="-206"/>
<text text-anchor="start" x="307" y="-197.2" font-family="Helvetica,sans-Serif" font-size="11.00">share_transaction_id</text>
<polygon fill="none" stroke="black" points="533,-189 533,-211 603,-211 603,-189 533,-189"/>
<text text-anchor="start" x="536" y="-197.2" font-family="Helvetica,sans-Serif" font-size="11.00">bigint[19]</text>
<polygon fill="#ffffff" stroke="transparent" points="287,-167 287,-189 533,-189 533,-167 287,-167"/>
<polygon fill="none" stroke="black" points="287,-167 287,-189 533,-189 533,-167 287,-167"/>
<image xlink:href="../../images/foreignKeys.png" width="11px" height="12px" preserveAspectRatio="xMinYMin meet" x="292" y="-184"/>
<text text-anchor="start" x="307" y="-175.2" font-family="Helvetica,sans-Serif" font-size="11.00">charge_transaction_id</text>
<polygon fill="none" stroke="black" points="533,-167 533,-189 603,-189 603,-167 533,-167"/>
<text text-anchor="start" x="536" y="-175.2" font-family="Helvetica,sans-Serif" font-size="11.00">bigint[19]</text>
<polygon fill="none" stroke="black" points="287,-145 287,-167 533,-167 533,-145 287,-145"/>
<text text-anchor="start" x="307" y="-153.2" font-family="Helvetica,sans-Serif" font-size="11.00">amount</text>
<polygon fill="none" stroke="black" points="533,-145 533,-167 603,-167 603,-145 533,-145"/>
<text text-anchor="start" x="536" y="-153.2" font-family="Helvetica,sans-Serif" font-size="11.00">decimal[20,2]</text>
<polygon fill="#ffffff" stroke="transparent" points="287,-127 287,-145 401,-145 401,-127 287,-127"/>
<polygon fill="none" stroke="black" points="287,-127 287,-145 401,-145 401,-127 287,-127"/>
<text text-anchor="start" x="290" y="-133.2" font-family="Helvetica,sans-Serif" font-size="11.00">&lt; 2</text>
<polygon fill="#ffffff" stroke="transparent" points="401,-127 401,-145 533,-145 533,-127 401,-127"/>
<polygon fill="none" stroke="black" points="401,-127 401,-145 533,-145 533,-127 401,-127"/>
<text text-anchor="start" x="497" y="-133.2" font-family="Helvetica,sans-Serif" font-size="11.00">0 rows</text>
<polygon fill="#ffffff" stroke="transparent" points="533,-127 533,-145 603,-145 603,-127 533,-127"/>
<polygon fill="none" stroke="black" points="533,-127 533,-145 603,-145 603,-127 533,-127"/>
<text text-anchor="start" x="584" y="-133.2" font-family="Helvetica,sans-Serif" font-size="11.00">0 &gt;</text>
<polygon fill="none" stroke="black" stroke-width="2" points="286,-126 286,-256 604,-256 604,-126 286,-126"/>
</a>
</g>
</g>
<!-- m_share_account_charge -->
<g id="node2" class="node">
<title>m_share_account_charge</title>
<g id="a_node2"><a xlink:href="../../tables/m_share_account_charge.html" xlink:title="m_share_account_charge" target="_top">
<polygon fill="#ffffff" stroke="transparent" points="8,-37 8,-161 236,-161 236,-37 8,-37"/>
<polygon fill="#f5f5f5" stroke="transparent" points="8,-139 8,-161 236,-161 236,-139 8,-139"/>
<polygon fill="none" stroke="black" points="8,-139 8,-161 236,-161 236,-139 8,-139"/>
<text text-anchor="start" x="13" y="-148.2" font-family="Helvetica,sans-Serif" font-weight="bold" font-size="11.00">m_share_account_charge</text>
<text text-anchor="start" x="201" y="-147.2" font-family="Helvetica,sans-Serif" font-size="11.00">[table]</text>
<polygon fill="none" stroke="black" points="8,-117 8,-139 236,-139 236,-117 8,-117"/>
<image xlink:href="../../images/primaryKeys.png" width="11px" height="12px" preserveAspectRatio="xMinYMin meet" x="13" y="-134"/>
<text text-anchor="start" x="28" y="-125.2" font-family="Helvetica,sans-Serif" font-size="11.00">id</text>
<polygon fill="#ffffff" stroke="transparent" points="8,-95 8,-117 236,-117 236,-95 8,-95"/>
<polygon fill="none" stroke="black" points="8,-95 8,-117 236,-117 236,-95 8,-95"/>
<image xlink:href="../../images/foreignKeys.png" width="11px" height="12px" preserveAspectRatio="xMinYMin meet" x="13" y="-112"/>
<text text-anchor="start" x="28" y="-103.2" font-family="Helvetica,sans-Serif" font-size="11.00">account_id</text>
<polygon fill="#ffffff" stroke="transparent" points="8,-73 8,-95 236,-95 236,-73 8,-73"/>
<polygon fill="none" stroke="black" points="8,-73 8,-95 236,-95 236,-73 8,-73"/>
<image xlink:href="../../images/foreignKeys.png" width="11px" height="12px" preserveAspectRatio="xMinYMin meet" x="13" y="-90"/>
<text text-anchor="start" x="28" y="-81.2" font-family="Helvetica,sans-Serif" font-size="11.00">charge_id</text>
<polygon fill="none" stroke="black" points="8,-55 8,-73 236,-73 236,-55 8,-55"/>
<text text-anchor="start" x="11" y="-61.2" font-family="Helvetica,sans-Serif" font-size="11.00">...</text>
<polygon fill="#ffffff" stroke="transparent" points="8,-37 8,-55 102,-55 102,-37 8,-37"/>
<polygon fill="none" stroke="black" points="8,-37 8,-55 102,-55 102,-37 8,-37"/>
<text text-anchor="start" x="11" y="-43.2" font-family="Helvetica,sans-Serif" font-size="11.00">&lt; 2</text>
<polygon fill="#ffffff" stroke="transparent" points="102,-37 102,-55 177,-55 177,-37 102,-37"/>
<polygon fill="none" stroke="black" points="102,-37 102,-55 177,-55 177,-37 102,-37"/>
<text text-anchor="start" x="141" y="-43.2" font-family="Helvetica,sans-Serif" font-size="11.00">0 rows</text>
<polygon fill="#ffffff" stroke="transparent" points="177,-37 177,-55 236,-55 236,-37 177,-37"/>
<polygon fill="none" stroke="black" points="177,-37 177,-55 236,-55 236,-37 177,-37"/>
<text text-anchor="start" x="217" y="-43.2" font-family="Helvetica,sans-Serif" font-size="11.00">1 &gt;</text>
</a>
</g>
</g>
<!-- m_share_account_charge_paid_by&#45;&gt;m_share_account_charge -->
<g id="edge1" class="edge">
<title>m_share_account_charge_paid_by:w&#45;&gt;m_share_account_charge:e</title>
<path fill="none" stroke="black" d="M272.18,-173.02C258.36,-160.38 262.04,-128 237,-128"/>
<polygon fill="black" stroke="black" points="278.47,-175.29 284.78,-181.39 282.24,-176.64 286,-178 286,-178 286,-178 282.24,-176.64 287.22,-174.61 278.47,-175.29 278.47,-175.29"/>
<ellipse fill="none" stroke="black" cx="275.46" cy="-174.2" rx="3.2" ry="3.2"/>
</g>
<!-- m_share_account_transactions -->
<g id="node3" class="node">
<title>m_share_account_transactions</title>
<g id="a_node3"><a xlink:href="../../tables/m_share_account_transactions.html" xlink:title="m_share_account_transactions" target="_top">
<polygon fill="#ffffff" stroke="transparent" points="8.5,-182 8.5,-284 235.5,-284 235.5,-182 8.5,-182"/>
<polygon fill="#f5f5f5" stroke="transparent" points="9,-262 9,-284 236,-284 236,-262 9,-262"/>
<polygon fill="none" stroke="black" points="9,-262 9,-284 236,-284 236,-262 9,-262"/>
<text text-anchor="start" x="14" y="-271.2" font-family="Helvetica,sans-Serif" font-weight="bold" font-size="11.00">m_share_account_transactions</text>
<text text-anchor="start" x="201" y="-270.2" font-family="Helvetica,sans-Serif" font-size="11.00">[table]</text>
<polygon fill="none" stroke="black" points="9,-240 9,-262 236,-262 236,-240 9,-240"/>
<image xlink:href="../../images/primaryKeys.png" width="11px" height="12px" preserveAspectRatio="xMinYMin meet" x="14" y="-257"/>
<text text-anchor="start" x="29" y="-248.2" font-family="Helvetica,sans-Serif" font-size="11.00">id</text>
<polygon fill="#ffffff" stroke="transparent" points="9,-218 9,-240 236,-240 236,-218 9,-218"/>
<polygon fill="none" stroke="black" points="9,-218 9,-240 236,-240 236,-218 9,-218"/>
<image xlink:href="../../images/foreignKeys.png" width="11px" height="12px" preserveAspectRatio="xMinYMin meet" x="14" y="-235"/>
<text text-anchor="start" x="29" y="-226.2" font-family="Helvetica,sans-Serif" font-size="11.00">account_id</text>
<polygon fill="none" stroke="black" points="9,-200 9,-218 236,-218 236,-200 9,-200"/>
<text text-anchor="start" x="12" y="-206.2" font-family="Helvetica,sans-Serif" font-size="11.00">...</text>
<polygon fill="#ffffff" stroke="transparent" points="9,-182 9,-200 103,-200 103,-182 9,-182"/>
<polygon fill="none" stroke="black" points="9,-182 9,-200 103,-200 103,-182 9,-182"/>
<text text-anchor="start" x="12" y="-188.2" font-family="Helvetica,sans-Serif" font-size="11.00">&lt; 1</text>
<polygon fill="#ffffff" stroke="transparent" points="103,-182 103,-200 178,-200 178,-182 103,-182"/>
<polygon fill="none" stroke="black" points="103,-182 103,-200 178,-200 178,-182 103,-182"/>
<text text-anchor="start" x="142" y="-188.2" font-family="Helvetica,sans-Serif" font-size="11.00">0 rows</text>
<polygon fill="#ffffff" stroke="transparent" points="178,-182 178,-200 236,-200 236,-182 178,-182"/>
<polygon fill="none" stroke="black" points="178,-182 178,-200 236,-200 236,-182 178,-182"/>
<text text-anchor="start" x="217" y="-188.2" font-family="Helvetica,sans-Serif" font-size="11.00">2 &gt;</text>
</a>
</g>
</g>
<!-- m_share_account_charge_paid_by&#45;&gt;m_share_account_transactions -->
<g id="edge2" class="edge">
<title>m_share_account_charge_paid_by:w&#45;&gt;m_share_account_transactions:e</title>
<path fill="none" stroke="black" d="M272.09,-205.08C258.26,-217.98 262.29,-251 237,-251"/>
<polygon fill="black" stroke="black" points="278.48,-202.74 287.23,-203.38 282.24,-201.37 286,-200 286,-200 286,-200 282.24,-201.37 284.77,-196.62 278.48,-202.74 278.48,-202.74"/>
<ellipse fill="none" stroke="black" cx="275.48" cy="-203.84" rx="3.2" ry="3.2"/>
</g>
</g>
</svg>
