<?xml version="1.0" encoding="UTF-8" standalone="no"?>
<!DOCTYPE svg PUBLIC "-//W3C//DTD SVG 1.1//EN"
 "http://www.w3.org/Graphics/SVG/1.1/DTD/svg11.dtd">
<!-- Generated by graphviz version 2.43.0 (0)
 -->
<!-- Title: oneDegreeRelationshipsDiagram Pages: 1 -->
<svg width="613pt" height="384pt"
 viewBox="0.00 0.00 613.00 384.00" xmlns="http://www.w3.org/2000/svg" xmlns:xlink="http://www.w3.org/1999/xlink">
<g id="graph0" class="graph" transform="scale(1 1) rotate(0) translate(4 380)">
<title>oneDegreeRelationshipsDiagram</title>
<polygon fill="#ffffff" stroke="transparent" points="-4,4 -4,-380 609,-380 609,4 -4,4"/>
<text text-anchor="middle" x="71.5" y="-7.2" font-family="Helvetica,sans-Serif" font-size="11.00">Generated by SchemaSpy</text>
<!-- m_share_product_charge -->
<g id="node1" class="node">
<title>m_share_product_charge</title>
<g id="a_node1"><a xlink:href="../../tables/m_share_product_charge.html" xlink:title="m_share_product_charge" target="_top">
<polygon fill="#ffffff" stroke="transparent" points="355,-213 355,-301 597,-301 597,-213 355,-213"/>
<polygon fill="#f5f5f5" stroke="transparent" points="357,-277 357,-299 595,-299 595,-277 357,-277"/>
<polygon fill="none" stroke="black" points="357,-277 357,-299 595,-299 595,-277 357,-277"/>
<text text-anchor="start" x="362" y="-286.2" font-family="Helvetica,sans-Serif" font-weight="bold" font-size="11.00">m_share_product_charge</text>
<text text-anchor="start" x="560" y="-285.2" font-family="Helvetica,sans-Serif" font-size="11.00">[table]</text>
<polygon fill="none" stroke="black" points="357,-255 357,-277 545,-277 545,-255 357,-255"/>
<image xlink:href="../../images/primaryKeys.png" width="11px" height="12px" preserveAspectRatio="xMinYMin meet" x="362" y="-272"/>
<text text-anchor="start" x="377" y="-263.2" font-family="Helvetica,sans-Serif" font-size="11.00">product_id</text>
<polygon fill="none" stroke="black" points="545,-255 545,-277 595,-277 595,-255 545,-255"/>
<text text-anchor="start" x="548" y="-263.2" font-family="Helvetica,sans-Serif" font-size="11.00">bigint[19]</text>
<polygon fill="none" stroke="black" points="357,-233 357,-255 545,-255 545,-233 357,-233"/>
<image xlink:href="../../images/primaryKeys.png" width="11px" height="12px" preserveAspectRatio="xMinYMin meet" x="362" y="-250"/>
<text text-anchor="start" x="377" y="-241.2" font-family="Helvetica,sans-Serif" font-size="11.00">charge_id</text>
<polygon fill="none" stroke="black" points="545,-233 545,-255 595,-255 595,-233 545,-233"/>
<text text-anchor="start" x="548" y="-241.2" font-family="Helvetica,sans-Serif" font-size="11.00">bigint[19]</text>
<polygon fill="#ffffff" stroke="transparent" points="357,-215 357,-233 442,-233 442,-215 357,-215"/>
<polygon fill="none" stroke="black" points="357,-215 357,-233 442,-233 442,-215 357,-215"/>
<text text-anchor="start" x="360" y="-221.2" font-family="Helvetica,sans-Serif" font-size="11.00">&lt; 2</text>
<polygon fill="#ffffff" stroke="transparent" points="442,-215 442,-233 545,-233 545,-215 442,-215"/>
<polygon fill="none" stroke="black" points="442,-215 442,-233 545,-233 545,-215 442,-215"/>
<text text-anchor="start" x="509" y="-221.2" font-family="Helvetica,sans-Serif" font-size="11.00">0 rows</text>
<polygon fill="#ffffff" stroke="transparent" points="545,-215 545,-233 595,-233 595,-215 545,-215"/>
<polygon fill="none" stroke="black" points="545,-215 545,-233 595,-233 595,-215 545,-215"/>
<text text-anchor="start" x="576" y="-221.2" font-family="Helvetica,sans-Serif" font-size="11.00">0 &gt;</text>
<polygon fill="none" stroke="black" stroke-width="2" points="356,-214 356,-300 596,-300 596,-214 356,-214"/>
</a>
</g>
</g>
<!-- m_charge -->
<g id="node2" class="node">
<title>m_charge</title>
<g id="a_node2"><a xlink:href="../../tables/m_charge.html" xlink:title="m_charge" target="_top">
<polygon fill="#ffffff" stroke="transparent" points="29,-37 29,-205 285,-205 285,-37 29,-37"/>
<polygon fill="#f5f5f5" stroke="transparent" points="29,-183 29,-205 285,-205 285,-183 29,-183"/>
<polygon fill="none" stroke="black" points="29,-183 29,-205 285,-205 285,-183 29,-183"/>
<text text-anchor="start" x="34" y="-192.2" font-family="Helvetica,sans-Serif" font-weight="bold" font-size="11.00">m_charge</text>
<text text-anchor="start" x="250" y="-191.2" font-family="Helvetica,sans-Serif" font-size="11.00">[table]</text>
<polygon fill="none" stroke="black" points="29,-161 29,-183 285,-183 285,-161 29,-161"/>
<image xlink:href="../../images/primaryKeys.png" width="11px" height="12px" preserveAspectRatio="xMinYMin meet" x="34" y="-178"/>
<text text-anchor="start" x="49" y="-169.2" font-family="Helvetica,sans-Serif" font-size="11.00">id</text>
<polygon fill="#ffffff" stroke="transparent" points="29,-139 29,-161 285,-161 285,-139 29,-139"/>
<polygon fill="none" stroke="black" points="29,-139 29,-161 285,-161 285,-139 29,-139"/>
<text text-anchor="start" x="49" y="-147.2" font-family="Helvetica,sans-Serif" font-size="11.00">name</text>
<polygon fill="#ffffff" stroke="transparent" points="29,-117 29,-139 285,-139 285,-117 29,-117"/>
<polygon fill="none" stroke="black" points="29,-117 29,-139 285,-139 285,-117 29,-117"/>
<image xlink:href="../../images/foreignKeys.png" width="11px" height="12px" preserveAspectRatio="xMinYMin meet" x="34" y="-134"/>
<text text-anchor="start" x="49" y="-125.2" font-family="Helvetica,sans-Serif" font-size="11.00">payment_type_id</text>
<polygon fill="#ffffff" stroke="transparent" points="29,-95 29,-117 285,-117 285,-95 29,-95"/>
<polygon fill="none" stroke="black" points="29,-95 29,-117 285,-117 285,-95 29,-95"/>
<image xlink:href="../../images/foreignKeys.png" width="11px" height="12px" preserveAspectRatio="xMinYMin meet" x="34" y="-112"/>
<text text-anchor="start" x="49" y="-103.2" font-family="Helvetica,sans-Serif" font-size="11.00">income_or_liability_account_id</text>
<polygon fill="#ffffff" stroke="transparent" points="29,-73 29,-95 285,-95 285,-73 29,-73"/>
<polygon fill="none" stroke="black" points="29,-73 29,-95 285,-95 285,-73 29,-73"/>
<image xlink:href="../../images/foreignKeys.png" width="11px" height="12px" preserveAspectRatio="xMinYMin meet" x="34" y="-90"/>
<text text-anchor="start" x="49" y="-81.2" font-family="Helvetica,sans-Serif" font-size="11.00">tax_group_id</text>
<polygon fill="none" stroke="black" points="29,-55 29,-73 285,-73 285,-55 29,-55"/>
<text text-anchor="start" x="32" y="-61.2" font-family="Helvetica,sans-Serif" font-size="11.00">...</text>
<polygon fill="#ffffff" stroke="transparent" points="29,-37 29,-55 137,-55 137,-37 29,-37"/>
<polygon fill="none" stroke="black" points="29,-37 29,-55 137,-55 137,-37 29,-37"/>
<text text-anchor="start" x="32" y="-43.2" font-family="Helvetica,sans-Serif" font-size="11.00">&lt; 3</text>
<polygon fill="#ffffff" stroke="transparent" points="137,-37 137,-55 219,-55 219,-37 137,-37"/>
<polygon fill="none" stroke="black" points="137,-37 137,-55 219,-55 219,-37 137,-37"/>
<text text-anchor="start" x="183" y="-43.2" font-family="Helvetica,sans-Serif" font-size="11.00">0 rows</text>
<polygon fill="#ffffff" stroke="transparent" points="219,-37 219,-55 285,-55 285,-37 219,-37"/>
<polygon fill="none" stroke="black" points="219,-37 219,-55 285,-55 285,-37 219,-37"/>
<text text-anchor="start" x="266" y="-43.2" font-family="Helvetica,sans-Serif" font-size="11.00">9 &gt;</text>
</a>
</g>
</g>
<!-- m_share_product_charge&#45;&gt;m_charge -->
<g id="edge1" class="edge">
<title>m_share_product_charge:w&#45;&gt;m_charge:e</title>
<path fill="none" stroke="black" d="M341.65,-240.72C315.27,-226.63 324.88,-172 286,-172"/>
<polygon fill="black" stroke="black" points="348.2,-242.22 355.2,-247.51 352.1,-243.11 356,-244 356,-244 356,-244 352.1,-243.11 356.8,-240.49 348.2,-242.22 348.2,-242.22"/>
<ellipse fill="none" stroke="black" cx="345.08" cy="-241.5" rx="3.2" ry="3.2"/>
</g>
<!-- m_share_product -->
<g id="node3" class="node">
<title>m_share_product</title>
<g id="a_node3"><a xlink:href="../../tables/m_share_product.html" xlink:title="m_share_product" target="_top">
<polygon fill="#ffffff" stroke="transparent" points="8,-226 8,-372 306,-372 306,-226 8,-226"/>
<polygon fill="#f5f5f5" stroke="transparent" points="8,-350 8,-372 306,-372 306,-350 8,-350"/>
<polygon fill="none" stroke="black" points="8,-350 8,-372 306,-372 306,-350 8,-350"/>
<text text-anchor="start" x="13" y="-359.2" font-family="Helvetica,sans-Serif" font-weight="bold" font-size="11.00">m_share_product</text>
<text text-anchor="start" x="271" y="-358.2" font-family="Helvetica,sans-Serif" font-size="11.00">[table]</text>
<polygon fill="none" stroke="black" points="8,-328 8,-350 306,-350 306,-328 8,-328"/>
<image xlink:href="../../images/primaryKeys.png" width="11px" height="12px" preserveAspectRatio="xMinYMin meet" x="13" y="-345"/>
<text text-anchor="start" x="28" y="-336.2" font-family="Helvetica,sans-Serif" font-size="11.00">id</text>
<polygon fill="#ffffff" stroke="transparent" points="8,-306 8,-328 306,-328 306,-306 8,-306"/>
<polygon fill="none" stroke="black" points="8,-306 8,-328 306,-328 306,-306 8,-306"/>
<text text-anchor="start" x="28" y="-314.2" font-family="Helvetica,sans-Serif" font-size="11.00">name</text>
<polygon fill="#ffffff" stroke="transparent" points="8,-284 8,-306 306,-306 306,-284 8,-284"/>
<polygon fill="none" stroke="black" points="8,-284 8,-306 306,-306 306,-284 8,-284"/>
<image xlink:href="../../images/foreignKeys.png" width="11px" height="12px" preserveAspectRatio="xMinYMin meet" x="13" y="-301"/>
<text text-anchor="start" x="28" y="-292.2" font-family="Helvetica,sans-Serif" font-size="11.00">createdby_id</text>
<polygon fill="#ffffff" stroke="transparent" points="8,-262 8,-284 306,-284 306,-262 8,-262"/>
<polygon fill="none" stroke="black" points="8,-262 8,-284 306,-284 306,-262 8,-262"/>
<image xlink:href="../../images/foreignKeys.png" width="11px" height="12px" preserveAspectRatio="xMinYMin meet" x="13" y="-279"/>
<text text-anchor="start" x="28" y="-270.2" font-family="Helvetica,sans-Serif" font-size="11.00">lastmodifiedby_id</text>
<polygon fill="none" stroke="black" points="8,-244 8,-262 306,-262 306,-244 8,-244"/>
<text text-anchor="start" x="11" y="-250.2" font-family="Helvetica,sans-Serif" font-size="11.00">...</text>
<polygon fill="#ffffff" stroke="transparent" points="8,-226 8,-244 137,-244 137,-226 8,-226"/>
<polygon fill="none" stroke="black" points="8,-226 8,-244 137,-244 137,-226 8,-226"/>
<text text-anchor="start" x="11" y="-232.2" font-family="Helvetica,sans-Serif" font-size="11.00">&lt; 2</text>
<polygon fill="#ffffff" stroke="transparent" points="137,-226 137,-244 230,-244 230,-226 137,-226"/>
<polygon fill="none" stroke="black" points="137,-226 137,-244 230,-244 230,-226 137,-226"/>
<text text-anchor="start" x="194" y="-232.2" font-family="Helvetica,sans-Serif" font-size="11.00">0 rows</text>
<polygon fill="#ffffff" stroke="transparent" points="230,-226 230,-244 306,-244 306,-226 230,-226"/>
<polygon fill="none" stroke="black" points="230,-226 230,-244 306,-244 306,-226 230,-226"/>
<text text-anchor="start" x="287" y="-232.2" font-family="Helvetica,sans-Serif" font-size="11.00">4 &gt;</text>
</a>
</g>
</g>
<!-- m_share_product_charge&#45;&gt;m_share_product -->
<g id="edge2" class="edge">
<title>m_share_product_charge:w&#45;&gt;m_share_product:e</title>
<path fill="none" stroke="black" d="M342.16,-270.79C324.37,-287.03 339.97,-339 307,-339"/>
<polygon fill="black" stroke="black" points="348.44,-268.62 357.18,-269.4 352.22,-267.31 356,-266 356,-266 356,-266 352.22,-267.31 354.82,-262.6 348.44,-268.62 348.44,-268.62"/>
<ellipse fill="none" stroke="black" cx="345.42" cy="-269.66" rx="3.2" ry="3.2"/>
</g>
</g>
</svg>
