<?xml version="1.0" encoding="UTF-8" standalone="no"?>
<!DOCTYPE svg PUBLIC "-//W3C//DTD SVG 1.1//EN"
 "http://www.w3.org/Graphics/SVG/1.1/DTD/svg11.dtd">
<!-- Generated by graphviz version 2.43.0 (0)
 -->
<!-- Title: oneDegreeRelationshipsDiagram Pages: 1 -->
<svg width="819pt" height="385pt"
 viewBox="0.00 0.00 819.00 385.00" xmlns="http://www.w3.org/2000/svg" xmlns:xlink="http://www.w3.org/1999/xlink">
<g id="graph0" class="graph" transform="scale(1 1) rotate(0) translate(4 381)">
<title>oneDegreeRelationshipsDiagram</title>
<polygon fill="#ffffff" stroke="transparent" points="-4,4 -4,-381 815,-381 815,4 -4,4"/>
<text text-anchor="middle" x="71.5" y="-7.2" font-family="Helvetica,sans-Serif" font-size="11.00">Generated by SchemaSpy</text>
<!-- m_group -->
<g id="node1" class="node">
<title>m_group</title>
<g id="a_node1"><a xlink:href="../../tables/m_group.html" xlink:title="m_group" target="_top">
<polygon fill="#ffffff" stroke="transparent" points="315,-139 315,-373 476,-373 476,-139 315,-139"/>
<polygon fill="#f5f5f5" stroke="transparent" points="315.5,-351 315.5,-373 476.5,-373 476.5,-351 315.5,-351"/>
<polygon fill="none" stroke="black" points="315.5,-351 315.5,-373 476.5,-373 476.5,-351 315.5,-351"/>
<text text-anchor="start" x="320.5" y="-360.2" font-family="Helvetica,sans-Serif" font-weight="bold" font-size="11.00">m_group</text>
<text text-anchor="start" x="441.5" y="-359.2" font-family="Helvetica,sans-Serif" font-size="11.00">[table]</text>
<polygon fill="none" stroke="black" points="315.5,-329 315.5,-351 476.5,-351 476.5,-329 315.5,-329"/>
<image xlink:href="../../images/primaryKeys.png" width="11px" height="12px" preserveAspectRatio="xMinYMin meet" x="320.5" y="-346"/>
<text text-anchor="start" x="335.5" y="-337.2" font-family="Helvetica,sans-Serif" font-size="11.00">id</text>
<polygon fill="#ffffff" stroke="transparent" points="315.5,-307 315.5,-329 476.5,-329 476.5,-307 315.5,-307"/>
<polygon fill="none" stroke="black" points="315.5,-307 315.5,-329 476.5,-329 476.5,-307 315.5,-307"/>
<text text-anchor="start" x="335.5" y="-315.2" font-family="Helvetica,sans-Serif" font-size="11.00">external_id</text>
<polygon fill="#ffffff" stroke="transparent" points="315.5,-285 315.5,-307 476.5,-307 476.5,-285 315.5,-285"/>
<polygon fill="none" stroke="black" points="315.5,-285 315.5,-307 476.5,-307 476.5,-285 315.5,-285"/>
<image xlink:href="../../images/foreignKeys.png" width="11px" height="12px" preserveAspectRatio="xMinYMin meet" x="320.5" y="-302"/>
<text text-anchor="start" x="335.5" y="-293.2" font-family="Helvetica,sans-Serif" font-size="11.00">office_id</text>
<polygon fill="#ffffff" stroke="transparent" points="315.5,-263 315.5,-285 476.5,-285 476.5,-263 315.5,-263"/>
<polygon fill="none" stroke="black" points="315.5,-263 315.5,-285 476.5,-285 476.5,-263 315.5,-263"/>
<image xlink:href="../../images/foreignKeys.png" width="11px" height="12px" preserveAspectRatio="xMinYMin meet" x="320.5" y="-280"/>
<text text-anchor="start" x="335.5" y="-271.2" font-family="Helvetica,sans-Serif" font-size="11.00">staff_id</text>
<polygon fill="#ffffff" stroke="transparent" points="315.5,-241 315.5,-263 476.5,-263 476.5,-241 315.5,-241"/>
<polygon fill="none" stroke="black" points="315.5,-241 315.5,-263 476.5,-263 476.5,-241 315.5,-241"/>
<image xlink:href="../../images/foreignKeys.png" width="11px" height="12px" preserveAspectRatio="xMinYMin meet" x="320.5" y="-258"/>
<text text-anchor="start" x="335.5" y="-249.2" font-family="Helvetica,sans-Serif" font-size="11.00">parent_id</text>
<polygon fill="#ffffff" stroke="transparent" points="315.5,-219 315.5,-241 476.5,-241 476.5,-219 315.5,-219"/>
<polygon fill="none" stroke="black" points="315.5,-219 315.5,-241 476.5,-241 476.5,-219 315.5,-219"/>
<image xlink:href="../../images/foreignKeys.png" width="11px" height="12px" preserveAspectRatio="xMinYMin meet" x="320.5" y="-236"/>
<text text-anchor="start" x="335.5" y="-227.2" font-family="Helvetica,sans-Serif" font-size="11.00">level_id</text>
<polygon fill="#ffffff" stroke="transparent" points="315.5,-197 315.5,-219 476.5,-219 476.5,-197 315.5,-197"/>
<polygon fill="none" stroke="black" points="315.5,-197 315.5,-219 476.5,-219 476.5,-197 315.5,-197"/>
<text text-anchor="start" x="335.5" y="-205.2" font-family="Helvetica,sans-Serif" font-size="11.00">display_name</text>
<polygon fill="#ffffff" stroke="transparent" points="315.5,-175 315.5,-197 476.5,-197 476.5,-175 315.5,-175"/>
<polygon fill="none" stroke="black" points="315.5,-175 315.5,-197 476.5,-197 476.5,-175 315.5,-175"/>
<image xlink:href="../../images/foreignKeys.png" width="11px" height="12px" preserveAspectRatio="xMinYMin meet" x="320.5" y="-192"/>
<text text-anchor="start" x="335.5" y="-183.2" font-family="Helvetica,sans-Serif" font-size="11.00">closure_reason_cv_id</text>
<polygon fill="none" stroke="black" points="315.5,-157 315.5,-175 476.5,-175 476.5,-157 315.5,-157"/>
<text text-anchor="start" x="318.5" y="-163.2" font-family="Helvetica,sans-Serif" font-size="11.00">...</text>
<polygon fill="#ffffff" stroke="transparent" points="315.5,-139 315.5,-157 373.5,-157 373.5,-139 315.5,-139"/>
<polygon fill="none" stroke="black" points="315.5,-139 315.5,-157 373.5,-157 373.5,-139 315.5,-139"/>
<text text-anchor="start" x="318.5" y="-145.2" font-family="Helvetica,sans-Serif" font-size="11.00">&lt; 5</text>
<polygon fill="#ffffff" stroke="transparent" points="373.5,-139 373.5,-157 430.5,-157 430.5,-139 373.5,-139"/>
<polygon fill="none" stroke="black" points="373.5,-139 373.5,-157 430.5,-157 430.5,-139 373.5,-139"/>
<text text-anchor="start" x="394.5" y="-145.2" font-family="Helvetica,sans-Serif" font-size="11.00">0 rows</text>
<polygon fill="#ffffff" stroke="transparent" points="430.5,-139 430.5,-157 476.5,-157 476.5,-139 430.5,-139"/>
<polygon fill="none" stroke="black" points="430.5,-139 430.5,-157 476.5,-157 476.5,-139 430.5,-139"/>
<text text-anchor="start" x="451.5" y="-145.2" font-family="Helvetica,sans-Serif" font-size="11.00">11 &gt;</text>
</a>
</g>
</g>
<!-- m_staff -->
<g id="node2" class="node">
<title>m_staff</title>
<g id="a_node2"><a xlink:href="../../tables/m_staff.html" xlink:title="m_staff" target="_top">
<polygon fill="#ffffff" stroke="transparent" points="8,-37 8,-227 266,-227 266,-37 8,-37"/>
<polygon fill="#f5f5f5" stroke="transparent" points="8,-205 8,-227 266,-227 266,-205 8,-205"/>
<polygon fill="none" stroke="black" points="8,-205 8,-227 266,-227 266,-205 8,-205"/>
<text text-anchor="start" x="13" y="-214.2" font-family="Helvetica,sans-Serif" font-weight="bold" font-size="11.00">m_staff</text>
<text text-anchor="start" x="231" y="-213.2" font-family="Helvetica,sans-Serif" font-size="11.00">[table]</text>
<polygon fill="none" stroke="black" points="8,-183 8,-205 266,-205 266,-183 8,-183"/>
<image xlink:href="../../images/primaryKeys.png" width="11px" height="12px" preserveAspectRatio="xMinYMin meet" x="13" y="-200"/>
<text text-anchor="start" x="28" y="-191.2" font-family="Helvetica,sans-Serif" font-size="11.00">id</text>
<polygon fill="#ffffff" stroke="transparent" points="8,-161 8,-183 266,-183 266,-161 8,-161"/>
<polygon fill="none" stroke="black" points="8,-161 8,-183 266,-183 266,-161 8,-161"/>
<image xlink:href="../../images/foreignKeys.png" width="11px" height="12px" preserveAspectRatio="xMinYMin meet" x="13" y="-178"/>
<text text-anchor="start" x="28" y="-169.2" font-family="Helvetica,sans-Serif" font-size="11.00">office_id</text>
<polygon fill="#ffffff" stroke="transparent" points="8,-139 8,-161 266,-161 266,-139 8,-139"/>
<polygon fill="none" stroke="black" points="8,-139 8,-161 266,-161 266,-139 8,-139"/>
<text text-anchor="start" x="28" y="-147.2" font-family="Helvetica,sans-Serif" font-size="11.00">display_name</text>
<polygon fill="#ffffff" stroke="transparent" points="8,-117 8,-139 266,-139 266,-117 8,-117"/>
<polygon fill="none" stroke="black" points="8,-117 8,-139 266,-139 266,-117 8,-117"/>
<text text-anchor="start" x="28" y="-125.2" font-family="Helvetica,sans-Serif" font-size="11.00">mobile_no</text>
<polygon fill="#ffffff" stroke="transparent" points="8,-95 8,-117 266,-117 266,-95 8,-95"/>
<polygon fill="none" stroke="black" points="8,-95 8,-117 266,-117 266,-95 8,-95"/>
<text text-anchor="start" x="28" y="-103.2" font-family="Helvetica,sans-Serif" font-size="11.00">external_id</text>
<polygon fill="#ffffff" stroke="transparent" points="8,-73 8,-95 266,-95 266,-73 8,-73"/>
<polygon fill="none" stroke="black" points="8,-73 8,-95 266,-95 266,-73 8,-73"/>
<image xlink:href="../../images/foreignKeys.png" width="11px" height="12px" preserveAspectRatio="xMinYMin meet" x="13" y="-90"/>
<text text-anchor="start" x="28" y="-81.2" font-family="Helvetica,sans-Serif" font-size="11.00">image_id</text>
<polygon fill="none" stroke="black" points="8,-55 8,-73 266,-73 266,-55 8,-55"/>
<text text-anchor="start" x="11" y="-61.2" font-family="Helvetica,sans-Serif" font-size="11.00">...</text>
<polygon fill="#ffffff" stroke="transparent" points="8,-37 8,-55 114,-55 114,-37 8,-37"/>
<polygon fill="none" stroke="black" points="8,-37 8,-55 114,-55 114,-37 8,-37"/>
<text text-anchor="start" x="11" y="-43.2" font-family="Helvetica,sans-Serif" font-size="11.00">&lt; 2</text>
<polygon fill="#ffffff" stroke="transparent" points="114,-37 114,-55 195,-55 195,-37 114,-37"/>
<polygon fill="none" stroke="black" points="114,-37 114,-55 195,-55 195,-37 114,-37"/>
<text text-anchor="start" x="159" y="-43.2" font-family="Helvetica,sans-Serif" font-size="11.00">0 rows</text>
<polygon fill="#ffffff" stroke="transparent" points="195,-37 195,-55 266,-55 266,-37 195,-37"/>
<polygon fill="none" stroke="black" points="195,-37 195,-55 266,-55 266,-37 195,-37"/>
<text text-anchor="start" x="241" y="-43.2" font-family="Helvetica,sans-Serif" font-size="11.00">10 &gt;</text>
</a>
</g>
</g>
<!-- m_group&#45;&gt;m_staff -->
<g id="edge1" class="edge">
<title>m_group:w&#45;&gt;m_staff:e</title>
<path fill="none" stroke="black" d="M300.65,-269.24C281.91,-252.01 302.21,-194 267,-194"/>
<polygon fill="black" stroke="black" points="306.93,-271.4 313.33,-277.4 310.72,-272.7 314.5,-274 314.5,-274 314.5,-274 310.72,-272.7 315.67,-270.6 306.93,-271.4 306.93,-271.4"/>
<ellipse fill="none" stroke="black" cx="303.91" cy="-270.36" rx="3.2" ry="3.2"/>
</g>
<!-- m_staff_assignment_history -->
<g id="node3" class="node">
<title>m_staff_assignment_history</title>
<g id="a_node3"><a xlink:href="../../tables/m_staff_assignment_history.html" xlink:title="m_staff_assignment_history" target="_top">
<polygon fill="#ffffff" stroke="transparent" points="525,-53 525,-295 803,-295 803,-53 525,-53"/>
<polygon fill="#f5f5f5" stroke="transparent" points="527,-271 527,-293 801,-293 801,-271 527,-271"/>
<polygon fill="none" stroke="black" points="527,-271 527,-293 801,-293 801,-271 527,-271"/>
<text text-anchor="start" x="532" y="-280.2" font-family="Helvetica,sans-Serif" font-weight="bold" font-size="11.00">m_staff_assignment_history</text>
<text text-anchor="start" x="766" y="-279.2" font-family="Helvetica,sans-Serif" font-size="11.00">[table]</text>
<polygon fill="none" stroke="black" points="527,-249 527,-271 735,-271 735,-249 527,-249"/>
<image xlink:href="../../images/primaryKeys.png" width="11px" height="12px" preserveAspectRatio="xMinYMin meet" x="532" y="-266"/>
<text text-anchor="start" x="547" y="-257.2" font-family="Helvetica,sans-Serif" font-size="11.00">id</text>
<polygon fill="none" stroke="black" points="735,-249 735,-271 801,-271 801,-249 735,-249"/>
<text text-anchor="start" x="738" y="-257.2" font-family="Helvetica,sans-Serif" font-size="11.00">bigint[19]</text>
<polygon fill="#ffffff" stroke="transparent" points="527,-227 527,-249 735,-249 735,-227 527,-227"/>
<polygon fill="none" stroke="black" points="527,-227 527,-249 735,-249 735,-227 527,-227"/>
<image xlink:href="../../images/foreignKeys.png" width="11px" height="12px" preserveAspectRatio="xMinYMin meet" x="532" y="-244"/>
<text text-anchor="start" x="547" y="-235.2" font-family="Helvetica,sans-Serif" font-size="11.00">centre_id</text>
<polygon fill="none" stroke="black" points="735,-227 735,-249 801,-249 801,-227 735,-227"/>
<text text-anchor="start" x="738" y="-235.2" font-family="Helvetica,sans-Serif" font-size="11.00">bigint[19]</text>
<polygon fill="#ffffff" stroke="transparent" points="527,-205 527,-227 735,-227 735,-205 527,-205"/>
<polygon fill="none" stroke="black" points="527,-205 527,-227 735,-227 735,-205 527,-205"/>
<image xlink:href="../../images/foreignKeys.png" width="11px" height="12px" preserveAspectRatio="xMinYMin meet" x="532" y="-222"/>
<text text-anchor="start" x="547" y="-213.2" font-family="Helvetica,sans-Serif" font-size="11.00">staff_id</text>
<polygon fill="none" stroke="black" points="735,-205 735,-227 801,-227 801,-205 735,-205"/>
<text text-anchor="start" x="738" y="-213.2" font-family="Helvetica,sans-Serif" font-size="11.00">bigint[19]</text>
<polygon fill="none" stroke="black" points="527,-183 527,-205 735,-205 735,-183 527,-183"/>
<text text-anchor="start" x="547" y="-191.2" font-family="Helvetica,sans-Serif" font-size="11.00">start_date</text>
<polygon fill="none" stroke="black" points="735,-183 735,-205 801,-205 801,-183 735,-183"/>
<text text-anchor="start" x="738" y="-191.2" font-family="Helvetica,sans-Serif" font-size="11.00">date[10]</text>
<polygon fill="none" stroke="black" points="527,-161 527,-183 735,-183 735,-161 527,-161"/>
<text text-anchor="start" x="547" y="-169.2" font-family="Helvetica,sans-Serif" font-size="11.00">end_date</text>
<polygon fill="none" stroke="black" points="735,-161 735,-183 801,-183 801,-161 735,-161"/>
<text text-anchor="start" x="738" y="-169.2" font-family="Helvetica,sans-Serif" font-size="11.00">date[10]</text>
<polygon fill="none" stroke="black" points="527,-139 527,-161 735,-161 735,-139 527,-139"/>
<text text-anchor="start" x="547" y="-147.2" font-family="Helvetica,sans-Serif" font-size="11.00">createdby_id</text>
<polygon fill="none" stroke="black" points="735,-139 735,-161 801,-161 801,-139 735,-139"/>
<text text-anchor="start" x="738" y="-147.2" font-family="Helvetica,sans-Serif" font-size="11.00">bigint[19]</text>
<polygon fill="none" stroke="black" points="527,-117 527,-139 735,-139 735,-117 527,-117"/>
<text text-anchor="start" x="547" y="-125.2" font-family="Helvetica,sans-Serif" font-size="11.00">created_date</text>
<polygon fill="none" stroke="black" points="735,-117 735,-139 801,-139 801,-117 735,-117"/>
<text text-anchor="start" x="738" y="-125.2" font-family="Helvetica,sans-Serif" font-size="11.00">datetime[19]</text>
<polygon fill="none" stroke="black" points="527,-95 527,-117 735,-117 735,-95 527,-95"/>
<text text-anchor="start" x="547" y="-103.2" font-family="Helvetica,sans-Serif" font-size="11.00">lastmodified_date</text>
<polygon fill="none" stroke="black" points="735,-95 735,-117 801,-117 801,-95 735,-95"/>
<text text-anchor="start" x="738" y="-103.2" font-family="Helvetica,sans-Serif" font-size="11.00">datetime[19]</text>
<polygon fill="none" stroke="black" points="527,-73 527,-95 735,-95 735,-73 527,-73"/>
<text text-anchor="start" x="547" y="-81.2" font-family="Helvetica,sans-Serif" font-size="11.00">lastmodifiedby_id</text>
<polygon fill="none" stroke="black" points="735,-73 735,-95 801,-95 801,-73 735,-73"/>
<text text-anchor="start" x="738" y="-81.2" font-family="Helvetica,sans-Serif" font-size="11.00">bigint[19]</text>
<polygon fill="#ffffff" stroke="transparent" points="527,-55 527,-73 622,-73 622,-55 527,-55"/>
<polygon fill="none" stroke="black" points="527,-55 527,-73 622,-73 622,-55 527,-55"/>
<text text-anchor="start" x="530" y="-61.2" font-family="Helvetica,sans-Serif" font-size="11.00">&lt; 2</text>
<polygon fill="#ffffff" stroke="transparent" points="622,-55 622,-73 735,-73 735,-55 622,-55"/>
<polygon fill="none" stroke="black" points="622,-55 622,-73 735,-73 735,-55 622,-55"/>
<text text-anchor="start" x="699" y="-61.2" font-family="Helvetica,sans-Serif" font-size="11.00">0 rows</text>
<polygon fill="#ffffff" stroke="transparent" points="735,-55 735,-73 801,-73 801,-55 735,-55"/>
<polygon fill="none" stroke="black" points="735,-55 735,-73 801,-73 801,-55 735,-55"/>
<text text-anchor="start" x="782" y="-61.2" font-family="Helvetica,sans-Serif" font-size="11.00">0 &gt;</text>
<polygon fill="none" stroke="black" stroke-width="2" points="526,-54 526,-294 802,-294 802,-54 526,-54"/>
</a>
</g>
</g>
<!-- m_staff_assignment_history&#45;&gt;m_group -->
<g id="edge2" class="edge">
<title>m_staff_assignment_history:w&#45;&gt;m_group:e</title>
<path fill="none" stroke="black" d="M511.89,-242.12C486.87,-261.21 521.62,-340 477.5,-340"/>
<polygon fill="black" stroke="black" points="518.32,-240.25 527.01,-241.46 522.16,-239.12 526,-238 526,-238 526,-238 522.16,-239.12 524.99,-234.54 518.32,-240.25 518.32,-240.25"/>
<ellipse fill="none" stroke="black" cx="515.25" cy="-241.14" rx="3.2" ry="3.2"/>
</g>
<!-- m_staff_assignment_history&#45;&gt;m_staff -->
<g id="edge3" class="edge">
<title>m_staff_assignment_history:w&#45;&gt;m_staff:e</title>
<path fill="none" stroke="black" d="M511.95,-212.3C492.31,-198.31 515.11,-148.53 484,-129 417.37,-87.18 375.67,-90.63 307,-129 277.39,-145.55 300.92,-194 267,-194"/>
<polygon fill="black" stroke="black" points="518.26,-213.96 525.08,-219.48 522.13,-214.98 526,-216 526,-216 526,-216 522.13,-214.98 526.92,-212.52 518.26,-213.96 518.26,-213.96"/>
<ellipse fill="none" stroke="black" cx="515.17" cy="-213.15" rx="3.2" ry="3.2"/>
</g>
</g>
</svg>
