<?xml version="1.0" encoding="UTF-8" standalone="no"?>
<!DOCTYPE svg PUBLIC "-//W3C//DTD SVG 1.1//EN"
 "http://www.w3.org/Graphics/SVG/1.1/DTD/svg11.dtd">
<!-- Generated by graphviz version 2.43.0 (0)
 -->
<!-- Title: twoDegreesRelationshipsDiagram Pages: 1 -->
<svg width="839pt" height="521pt"
 viewBox="0.00 0.00 839.00 521.00" xmlns="http://www.w3.org/2000/svg" xmlns:xlink="http://www.w3.org/1999/xlink">
<g id="graph0" class="graph" transform="scale(1 1) rotate(0) translate(4 517)">
<title>twoDegreesRelationshipsDiagram</title>
<polygon fill="#ffffff" stroke="transparent" points="-4,4 -4,-517 835,-517 835,4 -4,4"/>
<text text-anchor="middle" x="71.5" y="-7.2" font-family="Helvetica,sans-Serif" font-size="11.00">Generated by SchemaSpy</text>
<!-- m_survey_components -->
<g id="node1" class="node">
<title>m_survey_components</title>
<g id="a_node1"><a xlink:href="../../tables/m_survey_components.html" xlink:title="m_survey_components" target="_top">
<polygon fill="#ffffff" stroke="transparent" points="201.5,-451 201.5,-509 368.5,-509 368.5,-451 201.5,-451"/>
<polygon fill="#f5f5f5" stroke="transparent" points="202,-487 202,-509 369,-509 369,-487 202,-487"/>
<polygon fill="none" stroke="black" points="202,-487 202,-509 369,-509 369,-487 202,-487"/>
<text text-anchor="start" x="207" y="-496.2" font-family="Helvetica,sans-Serif" font-weight="bold" font-size="11.00">m_survey_components</text>
<text text-anchor="start" x="334" y="-495.2" font-family="Helvetica,sans-Serif" font-size="11.00">[table]</text>
<polygon fill="none" stroke="black" points="202,-469 202,-487 369,-487 369,-469 202,-469"/>
<text text-anchor="start" x="205" y="-475.2" font-family="Helvetica,sans-Serif" font-size="11.00">...</text>
<polygon fill="#ffffff" stroke="transparent" points="202,-451 202,-469 270,-469 270,-451 202,-451"/>
<polygon fill="none" stroke="black" points="202,-451 202,-469 270,-469 270,-451 202,-451"/>
<text text-anchor="start" x="205" y="-457.2" font-family="Helvetica,sans-Serif" font-size="11.00">&lt; 1</text>
<polygon fill="#ffffff" stroke="transparent" points="270,-451 270,-469 332,-469 332,-451 270,-451"/>
<polygon fill="none" stroke="black" points="270,-451 270,-469 332,-469 332,-451 270,-451"/>
<text text-anchor="start" x="296" y="-457.2" font-family="Helvetica,sans-Serif" font-size="11.00">0 rows</text>
<polygon fill="#ffffff" stroke="transparent" points="332,-451 332,-469 369,-469 369,-451 332,-451"/>
<polygon fill="none" stroke="black" points="332,-451 332,-469 369,-469 369,-451 332,-451"/>
<text text-anchor="start" x="359" y="-457.2" font-family="Helvetica,sans-Serif" font-size="11.00"> &#160;</text>
</a>
</g>
</g>
<!-- m_surveys -->
<g id="node2" class="node">
<title>m_surveys</title>
<g id="a_node2"><a xlink:href="../../tables/m_surveys.html" xlink:title="m_surveys" target="_top">
<polygon fill="#ffffff" stroke="transparent" points="8,-326 8,-406 119,-406 119,-326 8,-326"/>
<polygon fill="#f5f5f5" stroke="transparent" points="8.5,-384 8.5,-406 119.5,-406 119.5,-384 8.5,-384"/>
<polygon fill="none" stroke="black" points="8.5,-384 8.5,-406 119.5,-406 119.5,-384 8.5,-384"/>
<text text-anchor="start" x="13.5" y="-393.2" font-family="Helvetica,sans-Serif" font-weight="bold" font-size="11.00">m_surveys</text>
<text text-anchor="start" x="84.5" y="-392.2" font-family="Helvetica,sans-Serif" font-size="11.00">[table]</text>
<polygon fill="none" stroke="black" points="8.5,-362 8.5,-384 119.5,-384 119.5,-362 8.5,-362"/>
<image xlink:href="../../images/primaryKeys.png" width="11px" height="12px" preserveAspectRatio="xMinYMin meet" x="13.5" y="-379"/>
<text text-anchor="start" x="28.5" y="-370.2" font-family="Helvetica,sans-Serif" font-size="11.00">id</text>
<polygon fill="none" stroke="black" points="8.5,-344 8.5,-362 119.5,-362 119.5,-344 8.5,-344"/>
<text text-anchor="start" x="11.5" y="-350.2" font-family="Helvetica,sans-Serif" font-size="11.00">...</text>
<polygon fill="#ffffff" stroke="transparent" points="8.5,-326 8.5,-344 39.5,-344 39.5,-326 8.5,-326"/>
<polygon fill="none" stroke="black" points="8.5,-326 8.5,-344 39.5,-344 39.5,-326 8.5,-326"/>
<text text-anchor="start" x="11.5" y="-332.2" font-family="Helvetica,sans-Serif" font-size="11.00"> &#160;</text>
<polygon fill="#ffffff" stroke="transparent" points="39.5,-326 39.5,-344 87.5,-344 87.5,-326 39.5,-326"/>
<polygon fill="none" stroke="black" points="39.5,-326 39.5,-344 87.5,-344 87.5,-326 39.5,-326"/>
<text text-anchor="start" x="51.5" y="-332.2" font-family="Helvetica,sans-Serif" font-size="11.00">0 rows</text>
<polygon fill="#ffffff" stroke="transparent" points="87.5,-326 87.5,-344 119.5,-344 119.5,-326 87.5,-326"/>
<polygon fill="none" stroke="black" points="87.5,-326 87.5,-344 119.5,-344 119.5,-326 87.5,-326"/>
<text text-anchor="start" x="100.5" y="-332.2" font-family="Helvetica,sans-Serif" font-size="11.00">4 &gt;</text>
</a>
</g>
</g>
<!-- m_survey_components&#45;&gt;m_surveys -->
<g id="edge1" class="edge">
<title>m_survey_components:w&#45;&gt;m_surveys:e</title>
<path fill="none" stroke="black" d="M186.77,-475.08C175.12,-469.25 171.72,-455.45 160,-441 137.98,-413.85 155.45,-373 120.5,-373"/>
<polygon fill="black" stroke="black" points="193.16,-476.39 200.28,-481.53 197.08,-477.2 201,-478 201,-478 201,-478 197.08,-477.2 201.72,-474.47 193.16,-476.39 193.16,-476.39"/>
<ellipse fill="none" stroke="black" cx="190.03" cy="-475.75" rx="3.2" ry="3.2"/>
</g>
<!-- m_survey_lookup_tables -->
<g id="node3" class="node">
<title>m_survey_lookup_tables</title>
<g id="a_node3"><a xlink:href="../../tables/m_survey_lookup_tables.html" xlink:title="m_survey_lookup_tables" target="_top">
<polygon fill="#ffffff" stroke="transparent" points="197.5,-372 197.5,-430 372.5,-430 372.5,-372 197.5,-372"/>
<polygon fill="#f5f5f5" stroke="transparent" points="198,-408 198,-430 373,-430 373,-408 198,-408"/>
<polygon fill="none" stroke="black" points="198,-408 198,-430 373,-430 373,-408 198,-408"/>
<text text-anchor="start" x="203" y="-417.2" font-family="Helvetica,sans-Serif" font-weight="bold" font-size="11.00">m_survey_lookup_tables</text>
<text text-anchor="start" x="338" y="-416.2" font-family="Helvetica,sans-Serif" font-size="11.00">[table]</text>
<polygon fill="none" stroke="black" points="198,-390 198,-408 373,-408 373,-390 198,-390"/>
<text text-anchor="start" x="201" y="-396.2" font-family="Helvetica,sans-Serif" font-size="11.00">...</text>
<polygon fill="#ffffff" stroke="transparent" points="198,-372 198,-390 270,-390 270,-372 198,-372"/>
<polygon fill="none" stroke="black" points="198,-372 198,-390 270,-390 270,-372 198,-372"/>
<text text-anchor="start" x="201" y="-378.2" font-family="Helvetica,sans-Serif" font-size="11.00">&lt; 1</text>
<polygon fill="#ffffff" stroke="transparent" points="270,-372 270,-390 334,-390 334,-372 270,-372"/>
<polygon fill="none" stroke="black" points="270,-372 270,-390 334,-390 334,-372 270,-372"/>
<text text-anchor="start" x="298" y="-378.2" font-family="Helvetica,sans-Serif" font-size="11.00">0 rows</text>
<polygon fill="#ffffff" stroke="transparent" points="334,-372 334,-390 373,-390 373,-372 334,-372"/>
<polygon fill="none" stroke="black" points="334,-372 334,-390 373,-390 373,-372 334,-372"/>
<text text-anchor="start" x="363" y="-378.2" font-family="Helvetica,sans-Serif" font-size="11.00"> &#160;</text>
</a>
</g>
</g>
<!-- m_survey_lookup_tables&#45;&gt;m_surveys -->
<g id="edge2" class="edge">
<title>m_survey_lookup_tables:w&#45;&gt;m_surveys:e</title>
<path fill="none" stroke="black" d="M182.54,-397.37C158.94,-391.68 150.94,-373 120.5,-373"/>
<polygon fill="black" stroke="black" points="189.05,-398.11 196.6,-402.58 193.03,-398.55 197,-399 197,-399 197,-399 193.03,-398.55 197.4,-395.42 189.05,-398.11 189.05,-398.11"/>
<ellipse fill="none" stroke="black" cx="185.87" cy="-397.75" rx="3.2" ry="3.2"/>
</g>
<!-- m_survey_questions -->
<g id="node4" class="node">
<title>m_survey_questions</title>
<g id="a_node4"><a xlink:href="../../tables/m_survey_questions.html" xlink:title="m_survey_questions" target="_top">
<polygon fill="#ffffff" stroke="transparent" points="168,-126 168,-324 402,-324 402,-126 168,-126"/>
<polygon fill="#f5f5f5" stroke="transparent" points="170,-300 170,-322 400,-322 400,-300 170,-300"/>
<polygon fill="none" stroke="black" points="170,-300 170,-322 400,-322 400,-300 170,-300"/>
<text text-anchor="start" x="175" y="-309.2" font-family="Helvetica,sans-Serif" font-weight="bold" font-size="11.00">m_survey_questions</text>
<text text-anchor="start" x="365" y="-308.2" font-family="Helvetica,sans-Serif" font-size="11.00">[table]</text>
<polygon fill="none" stroke="black" points="170,-278 170,-300 327,-300 327,-278 170,-278"/>
<image xlink:href="../../images/primaryKeys.png" width="11px" height="12px" preserveAspectRatio="xMinYMin meet" x="175" y="-295"/>
<text text-anchor="start" x="190" y="-286.2" font-family="Helvetica,sans-Serif" font-size="11.00">id</text>
<polygon fill="none" stroke="black" points="327,-278 327,-300 400,-300 400,-278 327,-278"/>
<text text-anchor="start" x="330" y="-286.2" font-family="Helvetica,sans-Serif" font-size="11.00">bigint[19]</text>
<polygon fill="#ffffff" stroke="transparent" points="170,-256 170,-278 327,-278 327,-256 170,-256"/>
<polygon fill="none" stroke="black" points="170,-256 170,-278 327,-278 327,-256 170,-256"/>
<image xlink:href="../../images/foreignKeys.png" width="11px" height="12px" preserveAspectRatio="xMinYMin meet" x="175" y="-273"/>
<text text-anchor="start" x="190" y="-264.2" font-family="Helvetica,sans-Serif" font-size="11.00">survey_id</text>
<polygon fill="none" stroke="black" points="327,-256 327,-278 400,-278 400,-256 327,-256"/>
<text text-anchor="start" x="330" y="-264.2" font-family="Helvetica,sans-Serif" font-size="11.00">bigint[19]</text>
<polygon fill="none" stroke="black" points="170,-234 170,-256 327,-256 327,-234 170,-234"/>
<text text-anchor="start" x="190" y="-242.2" font-family="Helvetica,sans-Serif" font-size="11.00">component_key</text>
<polygon fill="none" stroke="black" points="327,-234 327,-256 400,-256 400,-234 327,-234"/>
<text text-anchor="start" x="330" y="-242.2" font-family="Helvetica,sans-Serif" font-size="11.00">varchar[32]</text>
<polygon fill="none" stroke="black" points="170,-212 170,-234 327,-234 327,-212 170,-212"/>
<text text-anchor="start" x="190" y="-220.2" font-family="Helvetica,sans-Serif" font-size="11.00">a_key</text>
<polygon fill="none" stroke="black" points="327,-212 327,-234 400,-234 400,-212 327,-212"/>
<text text-anchor="start" x="330" y="-220.2" font-family="Helvetica,sans-Serif" font-size="11.00">varchar[32]</text>
<polygon fill="none" stroke="black" points="170,-190 170,-212 327,-212 327,-190 170,-190"/>
<text text-anchor="start" x="190" y="-198.2" font-family="Helvetica,sans-Serif" font-size="11.00">a_text</text>
<polygon fill="none" stroke="black" points="327,-190 327,-212 400,-212 400,-190 327,-190"/>
<text text-anchor="start" x="330" y="-198.2" font-family="Helvetica,sans-Serif" font-size="11.00">varchar[255]</text>
<polygon fill="none" stroke="black" points="170,-168 170,-190 327,-190 327,-168 170,-168"/>
<text text-anchor="start" x="190" y="-176.2" font-family="Helvetica,sans-Serif" font-size="11.00">description</text>
<polygon fill="none" stroke="black" points="327,-168 327,-190 400,-190 400,-168 327,-168"/>
<text text-anchor="start" x="330" y="-176.2" font-family="Helvetica,sans-Serif" font-size="11.00">varchar[4000]</text>
<polygon fill="none" stroke="black" points="170,-146 170,-168 327,-168 327,-146 170,-146"/>
<text text-anchor="start" x="190" y="-154.2" font-family="Helvetica,sans-Serif" font-size="11.00">sequence_no</text>
<polygon fill="none" stroke="black" points="327,-146 327,-168 400,-168 400,-146 327,-146"/>
<text text-anchor="start" x="330" y="-154.2" font-family="Helvetica,sans-Serif" font-size="11.00">int[10]</text>
<polygon fill="#ffffff" stroke="transparent" points="170,-128 170,-146 240,-146 240,-128 170,-128"/>
<polygon fill="none" stroke="black" points="170,-128 170,-146 240,-146 240,-128 170,-128"/>
<text text-anchor="start" x="173" y="-134.2" font-family="Helvetica,sans-Serif" font-size="11.00">&lt; 1</text>
<polygon fill="#ffffff" stroke="transparent" points="240,-128 240,-146 327,-146 327,-128 240,-128"/>
<polygon fill="none" stroke="black" points="240,-128 240,-146 327,-146 327,-128 240,-128"/>
<text text-anchor="start" x="291" y="-134.2" font-family="Helvetica,sans-Serif" font-size="11.00">0 rows</text>
<polygon fill="#ffffff" stroke="transparent" points="327,-128 327,-146 400,-146 400,-128 327,-128"/>
<polygon fill="none" stroke="black" points="327,-128 327,-146 400,-146 400,-128 327,-128"/>
<text text-anchor="start" x="381" y="-134.2" font-family="Helvetica,sans-Serif" font-size="11.00">2 &gt;</text>
<polygon fill="none" stroke="black" stroke-width="2" points="169,-127 169,-323 401,-323 401,-127 169,-127"/>
</a>
</g>
</g>
<!-- m_survey_questions&#45;&gt;m_surveys -->
<g id="edge3" class="edge">
<title>m_survey_questions:w&#45;&gt;m_surveys:e</title>
<path fill="none" stroke="black" d="M154.85,-271.03C128.64,-290.39 166.24,-373 120.5,-373"/>
<polygon fill="black" stroke="black" points="161.31,-269.19 169.98,-270.46 165.15,-268.09 169,-267 169,-267 169,-267 165.15,-268.09 168.02,-263.54 161.31,-269.19 161.31,-269.19"/>
<ellipse fill="none" stroke="black" cx="158.23" cy="-270.06" rx="3.2" ry="3.2"/>
</g>
<!-- m_survey_responses -->
<g id="node5" class="node">
<title>m_survey_responses</title>
<g id="a_node5"><a xlink:href="../../tables/m_survey_responses.html" xlink:title="m_survey_responses" target="_top">
<polygon fill="#ffffff" stroke="transparent" points="451,-195 451,-297 610,-297 610,-195 451,-195"/>
<polygon fill="#f5f5f5" stroke="transparent" points="451.5,-275 451.5,-297 610.5,-297 610.5,-275 451.5,-275"/>
<polygon fill="none" stroke="black" points="451.5,-275 451.5,-297 610.5,-297 610.5,-275 451.5,-275"/>
<text text-anchor="start" x="456.5" y="-284.2" font-family="Helvetica,sans-Serif" font-weight="bold" font-size="11.00">m_survey_responses</text>
<text text-anchor="start" x="575.5" y="-283.2" font-family="Helvetica,sans-Serif" font-size="11.00">[table]</text>
<polygon fill="none" stroke="black" points="451.5,-253 451.5,-275 610.5,-275 610.5,-253 451.5,-253"/>
<image xlink:href="../../images/primaryKeys.png" width="11px" height="12px" preserveAspectRatio="xMinYMin meet" x="456.5" y="-270"/>
<text text-anchor="start" x="471.5" y="-261.2" font-family="Helvetica,sans-Serif" font-size="11.00">id</text>
<polygon fill="#ffffff" stroke="transparent" points="451.5,-231 451.5,-253 610.5,-253 610.5,-231 451.5,-231"/>
<polygon fill="none" stroke="black" points="451.5,-231 451.5,-253 610.5,-253 610.5,-231 451.5,-231"/>
<image xlink:href="../../images/foreignKeys.png" width="11px" height="12px" preserveAspectRatio="xMinYMin meet" x="456.5" y="-248"/>
<text text-anchor="start" x="471.5" y="-239.2" font-family="Helvetica,sans-Serif" font-size="11.00">question_id</text>
<polygon fill="none" stroke="black" points="451.5,-213 451.5,-231 610.5,-231 610.5,-213 451.5,-213"/>
<text text-anchor="start" x="454.5" y="-219.2" font-family="Helvetica,sans-Serif" font-size="11.00">...</text>
<polygon fill="#ffffff" stroke="transparent" points="451.5,-195 451.5,-213 511.5,-213 511.5,-195 451.5,-195"/>
<polygon fill="none" stroke="black" points="451.5,-195 451.5,-213 511.5,-213 511.5,-195 451.5,-195"/>
<text text-anchor="start" x="454.5" y="-201.2" font-family="Helvetica,sans-Serif" font-size="11.00">&lt; 1</text>
<polygon fill="#ffffff" stroke="transparent" points="511.5,-195 511.5,-213 569.5,-213 569.5,-195 511.5,-195"/>
<polygon fill="none" stroke="black" points="511.5,-195 511.5,-213 569.5,-213 569.5,-195 511.5,-195"/>
<text text-anchor="start" x="533.5" y="-201.2" font-family="Helvetica,sans-Serif" font-size="11.00">0 rows</text>
<polygon fill="#ffffff" stroke="transparent" points="569.5,-195 569.5,-213 610.5,-213 610.5,-195 569.5,-195"/>
<polygon fill="none" stroke="black" points="569.5,-195 569.5,-213 610.5,-213 610.5,-195 569.5,-195"/>
<text text-anchor="start" x="591.5" y="-201.2" font-family="Helvetica,sans-Serif" font-size="11.00">1 &gt;</text>
</a>
</g>
</g>
<!-- m_survey_responses&#45;&gt;m_survey_questions -->
<g id="edge4" class="edge">
<title>m_survey_responses:w&#45;&gt;m_survey_questions:e</title>
<path fill="none" stroke="black" d="M436.86,-246.68C422.94,-258.57 425.41,-289 401,-289"/>
<polygon fill="black" stroke="black" points="442.93,-244.59 451.67,-245.41 446.72,-243.3 450.5,-242 450.5,-242 450.5,-242 446.72,-243.3 449.33,-238.59 442.93,-244.59 442.93,-244.59"/>
<ellipse fill="none" stroke="black" cx="439.91" cy="-245.63" rx="3.2" ry="3.2"/>
</g>
<!-- m_survey_scorecards -->
<g id="node6" class="node">
<title>m_survey_scorecards</title>
<g id="a_node6"><a xlink:href="../../tables/m_survey_scorecards.html" xlink:title="m_survey_scorecards" target="_top">
<polygon fill="#ffffff" stroke="transparent" points="659,-173 659,-363 823,-363 823,-173 659,-173"/>
<polygon fill="#f5f5f5" stroke="transparent" points="659,-341 659,-363 823,-363 823,-341 659,-341"/>
<polygon fill="none" stroke="black" points="659,-341 659,-363 823,-363 823,-341 659,-341"/>
<text text-anchor="start" x="664" y="-350.2" font-family="Helvetica,sans-Serif" font-weight="bold" font-size="11.00">m_survey_scorecards</text>
<text text-anchor="start" x="788" y="-349.2" font-family="Helvetica,sans-Serif" font-size="11.00">[table]</text>
<polygon fill="none" stroke="black" points="659,-319 659,-341 823,-341 823,-319 659,-319"/>
<image xlink:href="../../images/primaryKeys.png" width="11px" height="12px" preserveAspectRatio="xMinYMin meet" x="664" y="-336"/>
<text text-anchor="start" x="679" y="-327.2" font-family="Helvetica,sans-Serif" font-size="11.00">id</text>
<polygon fill="#ffffff" stroke="transparent" points="659,-297 659,-319 823,-319 823,-297 659,-297"/>
<polygon fill="none" stroke="black" points="659,-297 659,-319 823,-319 823,-297 659,-297"/>
<image xlink:href="../../images/foreignKeys.png" width="11px" height="12px" preserveAspectRatio="xMinYMin meet" x="664" y="-314"/>
<text text-anchor="start" x="679" y="-305.2" font-family="Helvetica,sans-Serif" font-size="11.00">survey_id</text>
<polygon fill="#ffffff" stroke="transparent" points="659,-275 659,-297 823,-297 823,-275 659,-275"/>
<polygon fill="none" stroke="black" points="659,-275 659,-297 823,-297 823,-275 659,-275"/>
<image xlink:href="../../images/foreignKeys.png" width="11px" height="12px" preserveAspectRatio="xMinYMin meet" x="664" y="-292"/>
<text text-anchor="start" x="679" y="-283.2" font-family="Helvetica,sans-Serif" font-size="11.00">question_id</text>
<polygon fill="#ffffff" stroke="transparent" points="659,-253 659,-275 823,-275 823,-253 659,-253"/>
<polygon fill="none" stroke="black" points="659,-253 659,-275 823,-275 823,-253 659,-253"/>
<image xlink:href="../../images/foreignKeys.png" width="11px" height="12px" preserveAspectRatio="xMinYMin meet" x="664" y="-270"/>
<text text-anchor="start" x="679" y="-261.2" font-family="Helvetica,sans-Serif" font-size="11.00">response_id</text>
<polygon fill="#ffffff" stroke="transparent" points="659,-231 659,-253 823,-253 823,-231 659,-231"/>
<polygon fill="none" stroke="black" points="659,-231 659,-253 823,-253 823,-231 659,-231"/>
<image xlink:href="../../images/foreignKeys.png" width="11px" height="12px" preserveAspectRatio="xMinYMin meet" x="664" y="-248"/>
<text text-anchor="start" x="679" y="-239.2" font-family="Helvetica,sans-Serif" font-size="11.00">user_id</text>
<polygon fill="#ffffff" stroke="transparent" points="659,-209 659,-231 823,-231 823,-209 659,-209"/>
<polygon fill="none" stroke="black" points="659,-209 659,-231 823,-231 823,-209 659,-209"/>
<image xlink:href="../../images/foreignKeys.png" width="11px" height="12px" preserveAspectRatio="xMinYMin meet" x="664" y="-226"/>
<text text-anchor="start" x="679" y="-217.2" font-family="Helvetica,sans-Serif" font-size="11.00">client_id</text>
<polygon fill="none" stroke="black" points="659,-191 659,-209 823,-209 823,-191 659,-191"/>
<text text-anchor="start" x="662" y="-197.2" font-family="Helvetica,sans-Serif" font-size="11.00">...</text>
<polygon fill="#ffffff" stroke="transparent" points="659,-173 659,-191 726,-191 726,-173 659,-173"/>
<polygon fill="none" stroke="black" points="659,-173 659,-191 726,-191 726,-173 659,-173"/>
<text text-anchor="start" x="662" y="-179.2" font-family="Helvetica,sans-Serif" font-size="11.00">&lt; 5</text>
<polygon fill="#ffffff" stroke="transparent" points="726,-173 726,-191 787,-191 787,-173 726,-173"/>
<polygon fill="none" stroke="black" points="726,-173 726,-191 787,-191 787,-173 726,-173"/>
<text text-anchor="start" x="751" y="-179.2" font-family="Helvetica,sans-Serif" font-size="11.00">0 rows</text>
<polygon fill="#ffffff" stroke="transparent" points="787,-173 787,-191 823,-191 823,-173 787,-173"/>
<polygon fill="none" stroke="black" points="787,-173 787,-191 823,-191 823,-173 787,-173"/>
<text text-anchor="start" x="813" y="-179.2" font-family="Helvetica,sans-Serif" font-size="11.00"> &#160;</text>
</a>
</g>
</g>
<!-- m_survey_scorecards&#45;&gt;m_surveys -->
<g id="edge8" class="edge">
<title>m_survey_scorecards:w&#45;&gt;m_surveys:e</title>
<path fill="none" stroke="black" d="M643.72,-310.95C635.75,-314.69 630.67,-321.01 618,-324 419.2,-370.89 361.06,-326 160,-362 142.06,-365.21 138.72,-373 120.5,-373"/>
<polygon fill="black" stroke="black" points="650.17,-309.62 658.73,-311.53 654.08,-308.81 658,-308 658,-308 658,-308 654.08,-308.81 657.27,-304.47 650.17,-309.62 650.17,-309.62"/>
<ellipse fill="none" stroke="black" cx="647.03" cy="-310.27" rx="3.2" ry="3.2"/>
</g>
<!-- m_survey_scorecards&#45;&gt;m_survey_questions -->
<g id="edge6" class="edge">
<title>m_survey_scorecards:w&#45;&gt;m_survey_questions:e</title>
<path fill="none" stroke="black" d="M643.96,-289.91C635.86,-295.23 631.66,-304.49 618,-308 542.67,-327.35 519.03,-324.4 443,-308 422.97,-303.68 421.49,-289 401,-289"/>
<polygon fill="black" stroke="black" points="650.29,-288.14 658.96,-289.47 654.15,-287.07 658,-286 658,-286 658,-286 654.15,-287.07 657.04,-282.53 650.29,-288.14 650.29,-288.14"/>
<ellipse fill="none" stroke="black" cx="647.21" cy="-289" rx="3.2" ry="3.2"/>
</g>
<!-- m_survey_scorecards&#45;&gt;m_survey_responses -->
<g id="edge7" class="edge">
<title>m_survey_scorecards:w&#45;&gt;m_survey_responses:e</title>
<path fill="none" stroke="black" d="M643.55,-264C633.2,-264 626.35,-264 611.5,-264"/>
<polygon fill="black" stroke="black" points="650,-264 658,-267.6 654,-264 658,-264 658,-264 658,-264 654,-264 658,-260.4 650,-264 650,-264"/>
<ellipse fill="none" stroke="black" cx="646.8" cy="-264" rx="3.2" ry="3.2"/>
</g>
<!-- m_client -->
<g id="node7" class="node">
<title>m_client</title>
<g id="a_node7"><a xlink:href="../../tables/m_client.html" xlink:title="m_client" target="_top">
<polygon fill="#ffffff" stroke="transparent" points="483,-37 483,-95 578,-95 578,-37 483,-37"/>
<polygon fill="#f5f5f5" stroke="transparent" points="483.5,-73 483.5,-95 578.5,-95 578.5,-73 483.5,-73"/>
<polygon fill="none" stroke="black" points="483.5,-73 483.5,-95 578.5,-95 578.5,-73 483.5,-73"/>
<text text-anchor="start" x="488.5" y="-82.2" font-family="Helvetica,sans-Serif" font-weight="bold" font-size="11.00">m_client</text>
<text text-anchor="start" x="543.5" y="-81.2" font-family="Helvetica,sans-Serif" font-size="11.00">[table]</text>
<polygon fill="none" stroke="black" points="483.5,-55 483.5,-73 578.5,-73 578.5,-55 483.5,-55"/>
<text text-anchor="start" x="486.5" y="-61.2" font-family="Helvetica,sans-Serif" font-size="11.00">...</text>
<polygon fill="#ffffff" stroke="transparent" points="483.5,-37 483.5,-55 511.5,-55 511.5,-37 483.5,-37"/>
<polygon fill="none" stroke="black" points="483.5,-37 483.5,-55 511.5,-55 511.5,-37 483.5,-37"/>
<text text-anchor="start" x="486.5" y="-43.2" font-family="Helvetica,sans-Serif" font-size="11.00">&lt; 13</text>
<polygon fill="#ffffff" stroke="transparent" points="511.5,-37 511.5,-55 550.5,-55 550.5,-37 511.5,-37"/>
<polygon fill="none" stroke="black" points="511.5,-37 511.5,-55 550.5,-55 550.5,-37 511.5,-37"/>
<text text-anchor="start" x="514.5" y="-43.2" font-family="Helvetica,sans-Serif" font-size="11.00">0 rows</text>
<polygon fill="#ffffff" stroke="transparent" points="550.5,-37 550.5,-55 578.5,-55 578.5,-37 550.5,-37"/>
<polygon fill="none" stroke="black" points="550.5,-37 550.5,-55 578.5,-55 578.5,-37 550.5,-37"/>
<text text-anchor="start" x="553.5" y="-43.2" font-family="Helvetica,sans-Serif" font-size="11.00">23 &gt;</text>
</a>
</g>
</g>
<!-- m_survey_scorecards&#45;&gt;m_client -->
<g id="edge5" class="edge">
<title>m_survey_scorecards:w&#45;&gt;m_client:e</title>
<path fill="none" stroke="black" d="M643.48,-217.65C612.26,-205.24 642.96,-146.23 618,-105 605.06,-83.62 604.5,-64 579.5,-64"/>
<polygon fill="black" stroke="black" points="650.1,-218.72 657.43,-223.55 654.05,-219.36 658,-220 658,-220 658,-220 654.05,-219.36 658.57,-216.45 650.1,-218.72 650.1,-218.72"/>
<ellipse fill="none" stroke="black" cx="646.94" cy="-218.21" rx="3.2" ry="3.2"/>
</g>
<!-- m_appuser -->
<g id="node8" class="node">
<title>m_appuser</title>
<g id="a_node8"><a xlink:href="../../tables/m_appuser.html" xlink:title="m_appuser" target="_top">
<polygon fill="#ffffff" stroke="transparent" points="479,-116 479,-174 582,-174 582,-116 479,-116"/>
<polygon fill="#f5f5f5" stroke="transparent" points="479.5,-152 479.5,-174 582.5,-174 582.5,-152 479.5,-152"/>
<polygon fill="none" stroke="black" points="479.5,-152 479.5,-174 582.5,-174 582.5,-152 479.5,-152"/>
<text text-anchor="start" x="484.5" y="-161.2" font-family="Helvetica,sans-Serif" font-weight="bold" font-size="11.00">m_appuser</text>
<text text-anchor="start" x="547.5" y="-160.2" font-family="Helvetica,sans-Serif" font-size="11.00">[table]</text>
<polygon fill="none" stroke="black" points="479.5,-134 479.5,-152 582.5,-152 582.5,-134 479.5,-134"/>
<text text-anchor="start" x="482.5" y="-140.2" font-family="Helvetica,sans-Serif" font-size="11.00">...</text>
<polygon fill="#ffffff" stroke="transparent" points="479.5,-116 479.5,-134 508.5,-134 508.5,-116 479.5,-116"/>
<polygon fill="none" stroke="black" points="479.5,-116 479.5,-134 508.5,-134 508.5,-116 479.5,-116"/>
<text text-anchor="start" x="482.5" y="-122.2" font-family="Helvetica,sans-Serif" font-size="11.00">&lt; 2</text>
<polygon fill="#ffffff" stroke="transparent" points="508.5,-116 508.5,-134 550.5,-134 550.5,-116 508.5,-116"/>
<polygon fill="none" stroke="black" points="508.5,-116 508.5,-134 550.5,-134 550.5,-116 508.5,-116"/>
<text text-anchor="start" x="514.5" y="-122.2" font-family="Helvetica,sans-Serif" font-size="11.00">0 rows</text>
<polygon fill="#ffffff" stroke="transparent" points="550.5,-116 550.5,-134 582.5,-134 582.5,-116 550.5,-116"/>
<polygon fill="none" stroke="black" points="550.5,-116 550.5,-134 582.5,-134 582.5,-116 550.5,-116"/>
<text text-anchor="start" x="557.5" y="-122.2" font-family="Helvetica,sans-Serif" font-size="11.00">57 &gt;</text>
</a>
</g>
</g>
<!-- m_survey_scorecards&#45;&gt;m_appuser -->
<g id="edge9" class="edge">
<title>m_survey_scorecards:w&#45;&gt;m_appuser:e</title>
<path fill="none" stroke="black" d="M643.84,-239.14C609.24,-222.91 632.97,-143 583.5,-143"/>
<polygon fill="black" stroke="black" points="650.16,-240.42 657.29,-245.53 654.08,-241.21 658,-242 658,-242 658,-242 654.08,-241.21 658.71,-238.47 650.16,-240.42 650.16,-240.42"/>
<ellipse fill="none" stroke="black" cx="647.02" cy="-239.79" rx="3.2" ry="3.2"/>
</g>
</g>
</svg>
