<?xml version="1.0" encoding="UTF-8" standalone="no"?>
<!DOCTYPE svg PUBLIC "-//W3C//DTD SVG 1.1//EN"
 "http://www.w3.org/Graphics/SVG/1.1/DTD/svg11.dtd">
<!-- Generated by graphviz version 2.43.0 (0)
 -->
<!-- Title: oneDegreeRelationshipsDiagram Pages: 1 -->
<svg width="434pt" height="225pt"
 viewBox="0.00 0.00 434.00 225.00" xmlns="http://www.w3.org/2000/svg" xmlns:xlink="http://www.w3.org/1999/xlink">
<g id="graph0" class="graph" transform="scale(1 1) rotate(0) translate(4 221)">
<title>oneDegreeRelationshipsDiagram</title>
<polygon fill="#ffffff" stroke="transparent" points="-4,4 -4,-221 430,-221 430,4 -4,4"/>
<text text-anchor="middle" x="71.5" y="-7.2" font-family="Helvetica,sans-Serif" font-size="11.00">Generated by SchemaSpy</text>
<!-- m_survey_components -->
<g id="node1" class="node">
<title>m_survey_components</title>
<g id="a_node1"><a xlink:href="../../tables/m_survey_components.html" xlink:title="m_survey_components" target="_top">
<polygon fill="#ffffff" stroke="transparent" points="168,-37 168,-213 418,-213 418,-37 168,-37"/>
<polygon fill="#f5f5f5" stroke="transparent" points="170,-189 170,-211 416,-211 416,-189 170,-189"/>
<polygon fill="none" stroke="black" points="170,-189 170,-211 416,-211 416,-189 170,-189"/>
<text text-anchor="start" x="175" y="-198.2" font-family="Helvetica,sans-Serif" font-weight="bold" font-size="11.00">m_survey_components</text>
<text text-anchor="start" x="381" y="-197.2" font-family="Helvetica,sans-Serif" font-size="11.00">[table]</text>
<polygon fill="none" stroke="black" points="170,-167 170,-189 343,-189 343,-167 170,-167"/>
<image xlink:href="../../images/primaryKeys.png" width="11px" height="12px" preserveAspectRatio="xMinYMin meet" x="175" y="-184"/>
<text text-anchor="start" x="190" y="-175.2" font-family="Helvetica,sans-Serif" font-size="11.00">id</text>
<polygon fill="none" stroke="black" points="343,-167 343,-189 416,-189 416,-167 343,-167"/>
<text text-anchor="start" x="346" y="-175.2" font-family="Helvetica,sans-Serif" font-size="11.00">bigint[19]</text>
<polygon fill="#ffffff" stroke="transparent" points="170,-145 170,-167 343,-167 343,-145 170,-145"/>
<polygon fill="none" stroke="black" points="170,-145 170,-167 343,-167 343,-145 170,-145"/>
<image xlink:href="../../images/foreignKeys.png" width="11px" height="12px" preserveAspectRatio="xMinYMin meet" x="175" y="-162"/>
<text text-anchor="start" x="190" y="-153.2" font-family="Helvetica,sans-Serif" font-size="11.00">survey_id</text>
<polygon fill="none" stroke="black" points="343,-145 343,-167 416,-167 416,-145 343,-145"/>
<text text-anchor="start" x="346" y="-153.2" font-family="Helvetica,sans-Serif" font-size="11.00">bigint[19]</text>
<polygon fill="none" stroke="black" points="170,-123 170,-145 343,-145 343,-123 170,-123"/>
<text text-anchor="start" x="190" y="-131.2" font-family="Helvetica,sans-Serif" font-size="11.00">a_key</text>
<polygon fill="none" stroke="black" points="343,-123 343,-145 416,-145 416,-123 343,-123"/>
<text text-anchor="start" x="346" y="-131.2" font-family="Helvetica,sans-Serif" font-size="11.00">varchar[32]</text>
<polygon fill="none" stroke="black" points="170,-101 170,-123 343,-123 343,-101 170,-101"/>
<text text-anchor="start" x="190" y="-109.2" font-family="Helvetica,sans-Serif" font-size="11.00">a_text</text>
<polygon fill="none" stroke="black" points="343,-101 343,-123 416,-123 416,-101 343,-101"/>
<text text-anchor="start" x="346" y="-109.2" font-family="Helvetica,sans-Serif" font-size="11.00">varchar[255]</text>
<polygon fill="none" stroke="black" points="170,-79 170,-101 343,-101 343,-79 170,-79"/>
<text text-anchor="start" x="190" y="-87.2" font-family="Helvetica,sans-Serif" font-size="11.00">description</text>
<polygon fill="none" stroke="black" points="343,-79 343,-101 416,-101 416,-79 343,-79"/>
<text text-anchor="start" x="346" y="-87.2" font-family="Helvetica,sans-Serif" font-size="11.00">varchar[4000]</text>
<polygon fill="none" stroke="black" points="170,-57 170,-79 343,-79 343,-57 170,-57"/>
<text text-anchor="start" x="190" y="-65.2" font-family="Helvetica,sans-Serif" font-size="11.00">sequence_no</text>
<polygon fill="none" stroke="black" points="343,-57 343,-79 416,-79 416,-57 343,-57"/>
<text text-anchor="start" x="346" y="-65.2" font-family="Helvetica,sans-Serif" font-size="11.00">int[10]</text>
<polygon fill="#ffffff" stroke="transparent" points="170,-39 170,-57 248,-57 248,-39 170,-39"/>
<polygon fill="none" stroke="black" points="170,-39 170,-57 248,-57 248,-39 170,-39"/>
<text text-anchor="start" x="173" y="-45.2" font-family="Helvetica,sans-Serif" font-size="11.00">&lt; 1</text>
<polygon fill="#ffffff" stroke="transparent" points="248,-39 248,-57 343,-57 343,-39 248,-39"/>
<polygon fill="none" stroke="black" points="248,-39 248,-57 343,-57 343,-39 248,-39"/>
<text text-anchor="start" x="307" y="-45.2" font-family="Helvetica,sans-Serif" font-size="11.00">0 rows</text>
<polygon fill="#ffffff" stroke="transparent" points="343,-39 343,-57 416,-57 416,-39 343,-39"/>
<polygon fill="none" stroke="black" points="343,-39 343,-57 416,-57 416,-39 343,-39"/>
<text text-anchor="start" x="397" y="-45.2" font-family="Helvetica,sans-Serif" font-size="11.00">0 &gt;</text>
<polygon fill="none" stroke="black" stroke-width="2" points="169,-38 169,-212 417,-212 417,-38 169,-38"/>
</a>
</g>
</g>
<!-- m_surveys -->
<g id="node2" class="node">
<title>m_surveys</title>
<g id="a_node2"><a xlink:href="../../tables/m_surveys.html" xlink:title="m_surveys" target="_top">
<polygon fill="#ffffff" stroke="transparent" points="8,-109 8,-189 119,-189 119,-109 8,-109"/>
<polygon fill="#f5f5f5" stroke="transparent" points="8.5,-167 8.5,-189 119.5,-189 119.5,-167 8.5,-167"/>
<polygon fill="none" stroke="black" points="8.5,-167 8.5,-189 119.5,-189 119.5,-167 8.5,-167"/>
<text text-anchor="start" x="13.5" y="-176.2" font-family="Helvetica,sans-Serif" font-weight="bold" font-size="11.00">m_surveys</text>
<text text-anchor="start" x="84.5" y="-175.2" font-family="Helvetica,sans-Serif" font-size="11.00">[table]</text>
<polygon fill="none" stroke="black" points="8.5,-145 8.5,-167 119.5,-167 119.5,-145 8.5,-145"/>
<image xlink:href="../../images/primaryKeys.png" width="11px" height="12px" preserveAspectRatio="xMinYMin meet" x="13.5" y="-162"/>
<text text-anchor="start" x="28.5" y="-153.2" font-family="Helvetica,sans-Serif" font-size="11.00">id</text>
<polygon fill="none" stroke="black" points="8.5,-127 8.5,-145 119.5,-145 119.5,-127 8.5,-127"/>
<text text-anchor="start" x="11.5" y="-133.2" font-family="Helvetica,sans-Serif" font-size="11.00">...</text>
<polygon fill="#ffffff" stroke="transparent" points="8.5,-109 8.5,-127 39.5,-127 39.5,-109 8.5,-109"/>
<polygon fill="none" stroke="black" points="8.5,-109 8.5,-127 39.5,-127 39.5,-109 8.5,-109"/>
<text text-anchor="start" x="11.5" y="-115.2" font-family="Helvetica,sans-Serif" font-size="11.00"> &#160;</text>
<polygon fill="#ffffff" stroke="transparent" points="39.5,-109 39.5,-127 87.5,-127 87.5,-109 39.5,-109"/>
<polygon fill="none" stroke="black" points="39.5,-109 39.5,-127 87.5,-127 87.5,-109 39.5,-109"/>
<text text-anchor="start" x="51.5" y="-115.2" font-family="Helvetica,sans-Serif" font-size="11.00">0 rows</text>
<polygon fill="#ffffff" stroke="transparent" points="87.5,-109 87.5,-127 119.5,-127 119.5,-109 87.5,-109"/>
<polygon fill="none" stroke="black" points="87.5,-109 87.5,-127 119.5,-127 119.5,-109 87.5,-109"/>
<text text-anchor="start" x="100.5" y="-115.2" font-family="Helvetica,sans-Serif" font-size="11.00">4 &gt;</text>
</a>
</g>
</g>
<!-- m_survey_components&#45;&gt;m_surveys -->
<g id="edge1" class="edge">
<title>m_survey_components:w&#45;&gt;m_surveys:e</title>
<path fill="none" stroke="black" d="M154.28,-156C143.29,-156 136.16,-156 120.5,-156"/>
<polygon fill="black" stroke="black" points="161,-156 169,-159.6 165,-156 169,-156 169,-156 169,-156 165,-156 169,-152.4 161,-156 161,-156"/>
<ellipse fill="none" stroke="black" cx="157.8" cy="-156" rx="3.2" ry="3.2"/>
</g>
</g>
</svg>
