<?xml version="1.0" encoding="UTF-8" standalone="no"?>
<!DOCTYPE svg PUBLIC "-//W3C//DTD SVG 1.1//EN"
 "http://www.w3.org/Graphics/SVG/1.1/DTD/svg11.dtd">
<!-- Generated by graphviz version 2.43.0 (0)
 -->
<!-- Title: twoDegreesRelationshipsDiagram Pages: 1 -->
<svg width="824pt" height="433pt"
 viewBox="0.00 0.00 824.00 432.87" xmlns="http://www.w3.org/2000/svg" xmlns:xlink="http://www.w3.org/1999/xlink">
<g id="graph0" class="graph" transform="scale(1 1) rotate(0) translate(4 428.87)">
<title>twoDegreesRelationshipsDiagram</title>
<polygon fill="#ffffff" stroke="transparent" points="-4,4 -4,-428.87 820,-428.87 820,4 -4,4"/>
<text text-anchor="middle" x="71.5" y="-7.2" font-family="Helvetica,sans-Serif" font-size="11.00">Generated by SchemaSpy</text>
<!-- m_survey_questions -->
<g id="node1" class="node">
<title>m_survey_questions</title>
<g id="a_node1"><a xlink:href="../../tables/m_survey_questions.html" xlink:title="m_survey_questions" target="_top">
<polygon fill="#ffffff" stroke="transparent" points="159,-274 159,-376 316,-376 316,-274 159,-274"/>
<polygon fill="#f5f5f5" stroke="transparent" points="159.5,-354 159.5,-376 316.5,-376 316.5,-354 159.5,-354"/>
<polygon fill="none" stroke="black" points="159.5,-354 159.5,-376 316.5,-376 316.5,-354 159.5,-354"/>
<text text-anchor="start" x="164.5" y="-363.2" font-family="Helvetica,sans-Serif" font-weight="bold" font-size="11.00">m_survey_questions</text>
<text text-anchor="start" x="281.5" y="-362.2" font-family="Helvetica,sans-Serif" font-size="11.00">[table]</text>
<polygon fill="none" stroke="black" points="159.5,-332 159.5,-354 316.5,-354 316.5,-332 159.5,-332"/>
<image xlink:href="../../images/primaryKeys.png" width="11px" height="12px" preserveAspectRatio="xMinYMin meet" x="164.5" y="-349"/>
<text text-anchor="start" x="179.5" y="-340.2" font-family="Helvetica,sans-Serif" font-size="11.00">id</text>
<polygon fill="#ffffff" stroke="transparent" points="159.5,-310 159.5,-332 316.5,-332 316.5,-310 159.5,-310"/>
<polygon fill="none" stroke="black" points="159.5,-310 159.5,-332 316.5,-332 316.5,-310 159.5,-310"/>
<image xlink:href="../../images/foreignKeys.png" width="11px" height="12px" preserveAspectRatio="xMinYMin meet" x="164.5" y="-327"/>
<text text-anchor="start" x="179.5" y="-318.2" font-family="Helvetica,sans-Serif" font-size="11.00">survey_id</text>
<polygon fill="none" stroke="black" points="159.5,-292 159.5,-310 316.5,-310 316.5,-292 159.5,-292"/>
<text text-anchor="start" x="162.5" y="-298.2" font-family="Helvetica,sans-Serif" font-size="11.00">...</text>
<polygon fill="#ffffff" stroke="transparent" points="159.5,-274 159.5,-292 218.5,-292 218.5,-274 159.5,-274"/>
<polygon fill="none" stroke="black" points="159.5,-274 159.5,-292 218.5,-292 218.5,-274 159.5,-274"/>
<text text-anchor="start" x="162.5" y="-280.2" font-family="Helvetica,sans-Serif" font-size="11.00">&lt; 1</text>
<polygon fill="#ffffff" stroke="transparent" points="218.5,-274 218.5,-292 275.5,-292 275.5,-274 218.5,-274"/>
<polygon fill="none" stroke="black" points="218.5,-274 218.5,-292 275.5,-292 275.5,-274 218.5,-274"/>
<text text-anchor="start" x="239.5" y="-280.2" font-family="Helvetica,sans-Serif" font-size="11.00">0 rows</text>
<polygon fill="#ffffff" stroke="transparent" points="275.5,-274 275.5,-292 316.5,-292 316.5,-274 275.5,-274"/>
<polygon fill="none" stroke="black" points="275.5,-274 275.5,-292 316.5,-292 316.5,-274 275.5,-274"/>
<text text-anchor="start" x="297.5" y="-280.2" font-family="Helvetica,sans-Serif" font-size="11.00">2 &gt;</text>
</a>
</g>
</g>
<!-- m_surveys -->
<g id="node2" class="node">
<title>m_surveys</title>
<g id="a_node2"><a xlink:href="../../tables/m_surveys.html" xlink:title="m_surveys" target="_top">
<polygon fill="#ffffff" stroke="transparent" points="8,-333 8,-391 110,-391 110,-333 8,-333"/>
<polygon fill="#f5f5f5" stroke="transparent" points="8,-369 8,-391 110,-391 110,-369 8,-369"/>
<polygon fill="none" stroke="black" points="8,-369 8,-391 110,-391 110,-369 8,-369"/>
<text text-anchor="start" x="13" y="-378.2" font-family="Helvetica,sans-Serif" font-weight="bold" font-size="11.00">m_surveys</text>
<text text-anchor="start" x="75" y="-377.2" font-family="Helvetica,sans-Serif" font-size="11.00">[table]</text>
<polygon fill="none" stroke="black" points="8,-351 8,-369 110,-369 110,-351 8,-351"/>
<text text-anchor="start" x="11" y="-357.2" font-family="Helvetica,sans-Serif" font-size="11.00">...</text>
<polygon fill="#ffffff" stroke="transparent" points="8,-333 8,-351 35,-351 35,-333 8,-333"/>
<polygon fill="none" stroke="black" points="8,-333 8,-351 35,-351 35,-333 8,-333"/>
<text text-anchor="start" x="11" y="-339.2" font-family="Helvetica,sans-Serif" font-size="11.00"> &#160;</text>
<polygon fill="#ffffff" stroke="transparent" points="35,-333 35,-351 81,-351 81,-333 35,-333"/>
<polygon fill="none" stroke="black" points="35,-333 35,-351 81,-351 81,-333 35,-333"/>
<text text-anchor="start" x="45" y="-339.2" font-family="Helvetica,sans-Serif" font-size="11.00">0 rows</text>
<polygon fill="#ffffff" stroke="transparent" points="81,-333 81,-351 110,-351 110,-333 81,-333"/>
<polygon fill="none" stroke="black" points="81,-333 81,-351 110,-351 110,-333 81,-333"/>
<text text-anchor="start" x="91" y="-339.2" font-family="Helvetica,sans-Serif" font-size="11.00">4 &gt;</text>
</a>
</g>
</g>
<!-- m_survey_questions&#45;&gt;m_surveys -->
<g id="edge1" class="edge">
<title>m_survey_questions:w&#45;&gt;m_surveys:e</title>
<path fill="none" stroke="black" d="M144.8,-325.78C132.66,-336.2 132.34,-360 111,-360"/>
<polygon fill="black" stroke="black" points="150.95,-323.64 159.69,-324.4 154.72,-322.32 158.5,-321 158.5,-321 158.5,-321 154.72,-322.32 157.31,-317.6 150.95,-323.64 150.95,-323.64"/>
<ellipse fill="none" stroke="black" cx="147.93" cy="-324.69" rx="3.2" ry="3.2"/>
</g>
<!-- m_survey_responses -->
<g id="node3" class="node">
<title>m_survey_responses</title>
<g id="a_node3"><a xlink:href="../../tables/m_survey_responses.html" xlink:title="m_survey_responses" target="_top">
<polygon fill="#ffffff" stroke="transparent" points="365,-195 365,-349 595,-349 595,-195 365,-195"/>
<polygon fill="#f5f5f5" stroke="transparent" points="367,-325 367,-347 593,-347 593,-325 367,-325"/>
<polygon fill="none" stroke="black" points="367,-325 367,-347 593,-347 593,-325 367,-325"/>
<text text-anchor="start" x="372" y="-334.2" font-family="Helvetica,sans-Serif" font-weight="bold" font-size="11.00">m_survey_responses</text>
<text text-anchor="start" x="558" y="-333.2" font-family="Helvetica,sans-Serif" font-size="11.00">[table]</text>
<polygon fill="none" stroke="black" points="367,-303 367,-325 526,-325 526,-303 367,-303"/>
<image xlink:href="../../images/primaryKeys.png" width="11px" height="12px" preserveAspectRatio="xMinYMin meet" x="372" y="-320"/>
<text text-anchor="start" x="387" y="-311.2" font-family="Helvetica,sans-Serif" font-size="11.00">id</text>
<polygon fill="none" stroke="black" points="526,-303 526,-325 593,-325 593,-303 526,-303"/>
<text text-anchor="start" x="529" y="-311.2" font-family="Helvetica,sans-Serif" font-size="11.00">bigint[19]</text>
<polygon fill="#ffffff" stroke="transparent" points="367,-281 367,-303 526,-303 526,-281 367,-281"/>
<polygon fill="none" stroke="black" points="367,-281 367,-303 526,-303 526,-281 367,-281"/>
<image xlink:href="../../images/foreignKeys.png" width="11px" height="12px" preserveAspectRatio="xMinYMin meet" x="372" y="-298"/>
<text text-anchor="start" x="387" y="-289.2" font-family="Helvetica,sans-Serif" font-size="11.00">question_id</text>
<polygon fill="none" stroke="black" points="526,-281 526,-303 593,-303 593,-281 526,-281"/>
<text text-anchor="start" x="529" y="-289.2" font-family="Helvetica,sans-Serif" font-size="11.00">bigint[19]</text>
<polygon fill="none" stroke="black" points="367,-259 367,-281 526,-281 526,-259 367,-259"/>
<text text-anchor="start" x="387" y="-267.2" font-family="Helvetica,sans-Serif" font-size="11.00">a_text</text>
<polygon fill="none" stroke="black" points="526,-259 526,-281 593,-281 593,-259 526,-259"/>
<text text-anchor="start" x="529" y="-267.2" font-family="Helvetica,sans-Serif" font-size="11.00">varchar[255]</text>
<polygon fill="none" stroke="black" points="367,-237 367,-259 526,-259 526,-237 367,-237"/>
<text text-anchor="start" x="387" y="-245.2" font-family="Helvetica,sans-Serif" font-size="11.00">a_value</text>
<polygon fill="none" stroke="black" points="526,-237 526,-259 593,-259 593,-237 526,-237"/>
<text text-anchor="start" x="529" y="-245.2" font-family="Helvetica,sans-Serif" font-size="11.00">int[10]</text>
<polygon fill="none" stroke="black" points="367,-215 367,-237 526,-237 526,-215 367,-215"/>
<text text-anchor="start" x="387" y="-223.2" font-family="Helvetica,sans-Serif" font-size="11.00">sequence_no</text>
<polygon fill="none" stroke="black" points="526,-215 526,-237 593,-237 593,-215 526,-215"/>
<text text-anchor="start" x="529" y="-223.2" font-family="Helvetica,sans-Serif" font-size="11.00">int[10]</text>
<polygon fill="#ffffff" stroke="transparent" points="367,-197 367,-215 438,-215 438,-197 367,-197"/>
<polygon fill="none" stroke="black" points="367,-197 367,-215 438,-215 438,-197 367,-197"/>
<text text-anchor="start" x="370" y="-203.2" font-family="Helvetica,sans-Serif" font-size="11.00">&lt; 1</text>
<polygon fill="#ffffff" stroke="transparent" points="438,-197 438,-215 526,-215 526,-197 438,-197"/>
<polygon fill="none" stroke="black" points="438,-197 438,-215 526,-215 526,-197 438,-197"/>
<text text-anchor="start" x="490" y="-203.2" font-family="Helvetica,sans-Serif" font-size="11.00">0 rows</text>
<polygon fill="#ffffff" stroke="transparent" points="526,-197 526,-215 593,-215 593,-197 526,-197"/>
<polygon fill="none" stroke="black" points="526,-197 526,-215 593,-215 593,-197 526,-197"/>
<text text-anchor="start" x="574" y="-203.2" font-family="Helvetica,sans-Serif" font-size="11.00">1 &gt;</text>
<polygon fill="none" stroke="black" stroke-width="2" points="366,-196 366,-348 594,-348 594,-196 366,-196"/>
</a>
</g>
</g>
<!-- m_survey_responses&#45;&gt;m_survey_questions -->
<g id="edge2" class="edge">
<title>m_survey_responses:w&#45;&gt;m_survey_questions:e</title>
<path fill="none" stroke="black" d="M352.19,-297.08C338.48,-309.98 342.67,-343 317.5,-343"/>
<polygon fill="black" stroke="black" points="358.49,-294.76 367.24,-295.38 362.25,-293.38 366,-292 366,-292 366,-292 362.25,-293.38 364.76,-288.62 358.49,-294.76 358.49,-294.76"/>
<ellipse fill="none" stroke="black" cx="355.49" cy="-295.86" rx="3.2" ry="3.2"/>
</g>
<!-- m_survey_scorecards -->
<g id="node4" class="node">
<title>m_survey_scorecards</title>
<g id="a_node4"><a xlink:href="../../tables/m_survey_scorecards.html" xlink:title="m_survey_scorecards" target="_top">
<polygon fill="#ffffff" stroke="transparent" points="644,-223 644,-413 808,-413 808,-223 644,-223"/>
<polygon fill="#f5f5f5" stroke="transparent" points="644,-391 644,-413 808,-413 808,-391 644,-391"/>
<polygon fill="none" stroke="black" points="644,-391 644,-413 808,-413 808,-391 644,-391"/>
<text text-anchor="start" x="649" y="-400.2" font-family="Helvetica,sans-Serif" font-weight="bold" font-size="11.00">m_survey_scorecards</text>
<text text-anchor="start" x="773" y="-399.2" font-family="Helvetica,sans-Serif" font-size="11.00">[table]</text>
<polygon fill="none" stroke="black" points="644,-369 644,-391 808,-391 808,-369 644,-369"/>
<image xlink:href="../../images/primaryKeys.png" width="11px" height="12px" preserveAspectRatio="xMinYMin meet" x="649" y="-386"/>
<text text-anchor="start" x="664" y="-377.2" font-family="Helvetica,sans-Serif" font-size="11.00">id</text>
<polygon fill="#ffffff" stroke="transparent" points="644,-347 644,-369 808,-369 808,-347 644,-347"/>
<polygon fill="none" stroke="black" points="644,-347 644,-369 808,-369 808,-347 644,-347"/>
<image xlink:href="../../images/foreignKeys.png" width="11px" height="12px" preserveAspectRatio="xMinYMin meet" x="649" y="-364"/>
<text text-anchor="start" x="664" y="-355.2" font-family="Helvetica,sans-Serif" font-size="11.00">survey_id</text>
<polygon fill="#ffffff" stroke="transparent" points="644,-325 644,-347 808,-347 808,-325 644,-325"/>
<polygon fill="none" stroke="black" points="644,-325 644,-347 808,-347 808,-325 644,-325"/>
<image xlink:href="../../images/foreignKeys.png" width="11px" height="12px" preserveAspectRatio="xMinYMin meet" x="649" y="-342"/>
<text text-anchor="start" x="664" y="-333.2" font-family="Helvetica,sans-Serif" font-size="11.00">question_id</text>
<polygon fill="#ffffff" stroke="transparent" points="644,-303 644,-325 808,-325 808,-303 644,-303"/>
<polygon fill="none" stroke="black" points="644,-303 644,-325 808,-325 808,-303 644,-303"/>
<image xlink:href="../../images/foreignKeys.png" width="11px" height="12px" preserveAspectRatio="xMinYMin meet" x="649" y="-320"/>
<text text-anchor="start" x="664" y="-311.2" font-family="Helvetica,sans-Serif" font-size="11.00">response_id</text>
<polygon fill="#ffffff" stroke="transparent" points="644,-281 644,-303 808,-303 808,-281 644,-281"/>
<polygon fill="none" stroke="black" points="644,-281 644,-303 808,-303 808,-281 644,-281"/>
<image xlink:href="../../images/foreignKeys.png" width="11px" height="12px" preserveAspectRatio="xMinYMin meet" x="649" y="-298"/>
<text text-anchor="start" x="664" y="-289.2" font-family="Helvetica,sans-Serif" font-size="11.00">user_id</text>
<polygon fill="#ffffff" stroke="transparent" points="644,-259 644,-281 808,-281 808,-259 644,-259"/>
<polygon fill="none" stroke="black" points="644,-259 644,-281 808,-281 808,-259 644,-259"/>
<image xlink:href="../../images/foreignKeys.png" width="11px" height="12px" preserveAspectRatio="xMinYMin meet" x="649" y="-276"/>
<text text-anchor="start" x="664" y="-267.2" font-family="Helvetica,sans-Serif" font-size="11.00">client_id</text>
<polygon fill="none" stroke="black" points="644,-241 644,-259 808,-259 808,-241 644,-241"/>
<text text-anchor="start" x="647" y="-247.2" font-family="Helvetica,sans-Serif" font-size="11.00">...</text>
<polygon fill="#ffffff" stroke="transparent" points="644,-223 644,-241 711,-241 711,-223 644,-223"/>
<polygon fill="none" stroke="black" points="644,-223 644,-241 711,-241 711,-223 644,-223"/>
<text text-anchor="start" x="647" y="-229.2" font-family="Helvetica,sans-Serif" font-size="11.00">&lt; 5</text>
<polygon fill="#ffffff" stroke="transparent" points="711,-223 711,-241 772,-241 772,-223 711,-223"/>
<polygon fill="none" stroke="black" points="711,-223 711,-241 772,-241 772,-223 711,-223"/>
<text text-anchor="start" x="736" y="-229.2" font-family="Helvetica,sans-Serif" font-size="11.00">0 rows</text>
<polygon fill="#ffffff" stroke="transparent" points="772,-223 772,-241 808,-241 808,-223 772,-223"/>
<polygon fill="none" stroke="black" points="772,-223 772,-241 808,-241 808,-223 772,-223"/>
<text text-anchor="start" x="798" y="-229.2" font-family="Helvetica,sans-Serif" font-size="11.00"> &#160;</text>
</a>
</g>
</g>
<!-- m_survey_scorecards&#45;&gt;m_survey_questions -->
<g id="edge4" class="edge">
<title>m_survey_scorecards:w&#45;&gt;m_survey_questions:e</title>
<path fill="none" stroke="black" d="M629.1,-340.06C620.87,-345.82 617.05,-356.11 603,-360 497.63,-389.18 464.08,-382.06 357,-360 338.28,-356.14 336.61,-343 317.5,-343"/>
<polygon fill="black" stroke="black" points="635.32,-338.24 644.01,-339.46 639.16,-337.12 643,-336 643,-336 643,-336 639.16,-337.12 641.99,-332.54 635.32,-338.24 635.32,-338.24"/>
<ellipse fill="none" stroke="black" cx="632.25" cy="-339.14" rx="3.2" ry="3.2"/>
</g>
<!-- m_survey_scorecards&#45;&gt;m_surveys -->
<g id="edge6" class="edge">
<title>m_survey_scorecards:w&#45;&gt;m_surveys:e</title>
<path fill="none" stroke="black" d="M629.01,-361.68C620.86,-366.69 616.51,-375.46 603,-379 408.63,-429.89 343.13,-445.78 151,-387 130.49,-380.73 132.45,-360 111,-360"/>
<polygon fill="black" stroke="black" points="635.26,-360.03 643.91,-361.48 639.13,-359.02 643,-358 643,-358 643,-358 639.13,-359.02 642.09,-354.52 635.26,-360.03 635.26,-360.03"/>
<ellipse fill="none" stroke="black" cx="632.17" cy="-360.85" rx="3.2" ry="3.2"/>
</g>
<!-- m_survey_scorecards&#45;&gt;m_survey_responses -->
<g id="edge5" class="edge">
<title>m_survey_scorecards:w&#45;&gt;m_survey_responses:e</title>
<path fill="none" stroke="black" d="M628.49,-314C617.18,-314 609.99,-314 594,-314"/>
<polygon fill="black" stroke="black" points="635,-314 643,-317.6 639,-314 643,-314 643,-314 643,-314 639,-314 643,-310.4 635,-314 635,-314"/>
<ellipse fill="none" stroke="black" cx="631.8" cy="-314" rx="3.2" ry="3.2"/>
</g>
<!-- m_client -->
<g id="node5" class="node">
<title>m_client</title>
<g id="a_node5"><a xlink:href="../../tables/m_client.html" xlink:title="m_client" target="_top">
<polygon fill="#ffffff" stroke="transparent" points="432.5,-37 432.5,-95 527.5,-95 527.5,-37 432.5,-37"/>
<polygon fill="#f5f5f5" stroke="transparent" points="433,-73 433,-95 528,-95 528,-73 433,-73"/>
<polygon fill="none" stroke="black" points="433,-73 433,-95 528,-95 528,-73 433,-73"/>
<text text-anchor="start" x="438" y="-82.2" font-family="Helvetica,sans-Serif" font-weight="bold" font-size="11.00">m_client</text>
<text text-anchor="start" x="493" y="-81.2" font-family="Helvetica,sans-Serif" font-size="11.00">[table]</text>
<polygon fill="none" stroke="black" points="433,-55 433,-73 528,-73 528,-55 433,-55"/>
<text text-anchor="start" x="436" y="-61.2" font-family="Helvetica,sans-Serif" font-size="11.00">...</text>
<polygon fill="#ffffff" stroke="transparent" points="433,-37 433,-55 461,-55 461,-37 433,-37"/>
<polygon fill="none" stroke="black" points="433,-37 433,-55 461,-55 461,-37 433,-37"/>
<text text-anchor="start" x="436" y="-43.2" font-family="Helvetica,sans-Serif" font-size="11.00">&lt; 13</text>
<polygon fill="#ffffff" stroke="transparent" points="461,-37 461,-55 500,-55 500,-37 461,-37"/>
<polygon fill="none" stroke="black" points="461,-37 461,-55 500,-55 500,-37 461,-37"/>
<text text-anchor="start" x="464" y="-43.2" font-family="Helvetica,sans-Serif" font-size="11.00">0 rows</text>
<polygon fill="#ffffff" stroke="transparent" points="500,-37 500,-55 528,-55 528,-37 500,-37"/>
<polygon fill="none" stroke="black" points="500,-37 500,-55 528,-55 528,-37 500,-37"/>
<text text-anchor="start" x="503" y="-43.2" font-family="Helvetica,sans-Serif" font-size="11.00">23 &gt;</text>
</a>
</g>
</g>
<!-- m_survey_scorecards&#45;&gt;m_client -->
<g id="edge3" class="edge">
<title>m_survey_scorecards:w&#45;&gt;m_client:e</title>
<path fill="none" stroke="black" d="M628.67,-268.33C578.9,-254.66 645.35,-160.56 603,-105 580.21,-75.1 566.6,-64 529,-64"/>
<polygon fill="black" stroke="black" points="635.05,-269.07 642.58,-273.58 639.03,-269.54 643,-270 643,-270 643,-270 639.03,-269.54 643.42,-266.42 635.05,-269.07 635.05,-269.07"/>
<ellipse fill="none" stroke="black" cx="631.88" cy="-268.7" rx="3.2" ry="3.2"/>
</g>
<!-- m_appuser -->
<g id="node6" class="node">
<title>m_appuser</title>
<g id="a_node6"><a xlink:href="../../tables/m_appuser.html" xlink:title="m_appuser" target="_top">
<polygon fill="#ffffff" stroke="transparent" points="428.5,-116 428.5,-174 531.5,-174 531.5,-116 428.5,-116"/>
<polygon fill="#f5f5f5" stroke="transparent" points="429,-152 429,-174 532,-174 532,-152 429,-152"/>
<polygon fill="none" stroke="black" points="429,-152 429,-174 532,-174 532,-152 429,-152"/>
<text text-anchor="start" x="434" y="-161.2" font-family="Helvetica,sans-Serif" font-weight="bold" font-size="11.00">m_appuser</text>
<text text-anchor="start" x="497" y="-160.2" font-family="Helvetica,sans-Serif" font-size="11.00">[table]</text>
<polygon fill="none" stroke="black" points="429,-134 429,-152 532,-152 532,-134 429,-134"/>
<text text-anchor="start" x="432" y="-140.2" font-family="Helvetica,sans-Serif" font-size="11.00">...</text>
<polygon fill="#ffffff" stroke="transparent" points="429,-116 429,-134 458,-134 458,-116 429,-116"/>
<polygon fill="none" stroke="black" points="429,-116 429,-134 458,-134 458,-116 429,-116"/>
<text text-anchor="start" x="432" y="-122.2" font-family="Helvetica,sans-Serif" font-size="11.00">&lt; 2</text>
<polygon fill="#ffffff" stroke="transparent" points="458,-116 458,-134 500,-134 500,-116 458,-116"/>
<polygon fill="none" stroke="black" points="458,-116 458,-134 500,-134 500,-116 458,-116"/>
<text text-anchor="start" x="464" y="-122.2" font-family="Helvetica,sans-Serif" font-size="11.00">0 rows</text>
<polygon fill="#ffffff" stroke="transparent" points="500,-116 500,-134 532,-134 532,-116 500,-116"/>
<polygon fill="none" stroke="black" points="500,-116 500,-134 532,-134 532,-116 500,-116"/>
<text text-anchor="start" x="507" y="-122.2" font-family="Helvetica,sans-Serif" font-size="11.00">57 &gt;</text>
</a>
</g>
</g>
<!-- m_survey_scorecards&#45;&gt;m_appuser -->
<g id="edge7" class="edge">
<title>m_survey_scorecards:w&#45;&gt;m_appuser:e</title>
<path fill="none" stroke="black" d="M628.75,-289.36C601.33,-276.47 631.67,-219.45 603,-185 579.79,-157.11 569.28,-143 533,-143"/>
<polygon fill="black" stroke="black" points="635.13,-290.54 642.34,-295.54 639.07,-291.27 643,-292 643,-292 643,-292 639.07,-291.27 643.66,-288.46 635.13,-290.54 635.13,-290.54"/>
<ellipse fill="none" stroke="black" cx="631.99" cy="-289.96" rx="3.2" ry="3.2"/>
</g>
</g>
</svg>
