<?xml version="1.0" encoding="UTF-8" standalone="no"?>
<!DOCTYPE svg PUBLIC "-//W3C//DTD SVG 1.1//EN"
 "http://www.w3.org/Graphics/SVG/1.1/DTD/svg11.dtd">
<!-- Generated by graphviz version 2.43.0 (0)
 -->
<!-- Title: twoDegreesRelationshipsDiagram Pages: 1 -->
<svg width="863pt" height="565pt"
 viewBox="0.00 0.00 863.00 565.00" xmlns="http://www.w3.org/2000/svg" xmlns:xlink="http://www.w3.org/1999/xlink">
<g id="graph0" class="graph" transform="scale(1 1) rotate(0) translate(4 561)">
<title>twoDegreesRelationshipsDiagram</title>
<polygon fill="#ffffff" stroke="transparent" points="-4,4 -4,-561 859,-561 859,4 -4,4"/>
<text text-anchor="middle" x="71.5" y="-7.2" font-family="Helvetica,sans-Serif" font-size="11.00">Generated by SchemaSpy</text>
<!-- m_survey_components -->
<g id="node1" class="node">
<title>m_survey_components</title>
<g id="a_node1"><a xlink:href="../../tables/m_survey_components.html" xlink:title="m_survey_components" target="_top">
<polygon fill="#ffffff" stroke="transparent" points="250.5,-451 250.5,-553 423.5,-553 423.5,-451 250.5,-451"/>
<polygon fill="#f5f5f5" stroke="transparent" points="251,-531 251,-553 424,-553 424,-531 251,-531"/>
<polygon fill="none" stroke="black" points="251,-531 251,-553 424,-553 424,-531 251,-531"/>
<text text-anchor="start" x="256" y="-540.2" font-family="Helvetica,sans-Serif" font-weight="bold" font-size="11.00">m_survey_components</text>
<text text-anchor="start" x="389" y="-539.2" font-family="Helvetica,sans-Serif" font-size="11.00">[table]</text>
<polygon fill="none" stroke="black" points="251,-509 251,-531 424,-531 424,-509 251,-509"/>
<image xlink:href="../../images/primaryKeys.png" width="11px" height="12px" preserveAspectRatio="xMinYMin meet" x="256" y="-526"/>
<text text-anchor="start" x="271" y="-517.2" font-family="Helvetica,sans-Serif" font-size="11.00">id</text>
<polygon fill="#ffffff" stroke="transparent" points="251,-487 251,-509 424,-509 424,-487 251,-487"/>
<polygon fill="none" stroke="black" points="251,-487 251,-509 424,-509 424,-487 251,-487"/>
<image xlink:href="../../images/foreignKeys.png" width="11px" height="12px" preserveAspectRatio="xMinYMin meet" x="256" y="-504"/>
<text text-anchor="start" x="271" y="-495.2" font-family="Helvetica,sans-Serif" font-size="11.00">survey_id</text>
<polygon fill="none" stroke="black" points="251,-469 251,-487 424,-487 424,-469 251,-469"/>
<text text-anchor="start" x="254" y="-475.2" font-family="Helvetica,sans-Serif" font-size="11.00">...</text>
<polygon fill="#ffffff" stroke="transparent" points="251,-451 251,-469 322,-469 322,-451 251,-451"/>
<polygon fill="none" stroke="black" points="251,-451 251,-469 322,-469 322,-451 251,-451"/>
<text text-anchor="start" x="254" y="-457.2" font-family="Helvetica,sans-Serif" font-size="11.00">&lt; 1</text>
<polygon fill="#ffffff" stroke="transparent" points="322,-451 322,-469 386,-469 386,-451 322,-451"/>
<polygon fill="none" stroke="black" points="322,-451 322,-469 386,-469 386,-451 322,-451"/>
<text text-anchor="start" x="350" y="-457.2" font-family="Helvetica,sans-Serif" font-size="11.00">0 rows</text>
<polygon fill="#ffffff" stroke="transparent" points="386,-451 386,-469 424,-469 424,-451 386,-451"/>
<polygon fill="none" stroke="black" points="386,-451 386,-469 424,-469 424,-451 386,-451"/>
<text text-anchor="start" x="414" y="-457.2" font-family="Helvetica,sans-Serif" font-size="11.00"> &#160;</text>
</a>
</g>
</g>
<!-- m_surveys -->
<g id="node2" class="node">
<title>m_surveys</title>
<g id="a_node2"><a xlink:href="../../tables/m_surveys.html" xlink:title="m_surveys" target="_top">
<polygon fill="#ffffff" stroke="transparent" points="8,-176 8,-374 196,-374 196,-176 8,-176"/>
<polygon fill="#f5f5f5" stroke="transparent" points="10,-350 10,-372 194,-372 194,-350 10,-350"/>
<polygon fill="none" stroke="black" points="10,-350 10,-372 194,-372 194,-350 10,-350"/>
<text text-anchor="start" x="15" y="-359.2" font-family="Helvetica,sans-Serif" font-weight="bold" font-size="11.00">m_surveys</text>
<text text-anchor="start" x="159" y="-358.2" font-family="Helvetica,sans-Serif" font-size="11.00">[table]</text>
<polygon fill="none" stroke="black" points="10,-328 10,-350 121,-350 121,-328 10,-328"/>
<image xlink:href="../../images/primaryKeys.png" width="11px" height="12px" preserveAspectRatio="xMinYMin meet" x="15" y="-345"/>
<text text-anchor="start" x="30" y="-336.2" font-family="Helvetica,sans-Serif" font-size="11.00">id</text>
<polygon fill="none" stroke="black" points="121,-328 121,-350 194,-350 194,-328 121,-328"/>
<text text-anchor="start" x="124" y="-336.2" font-family="Helvetica,sans-Serif" font-size="11.00">bigint[19]</text>
<polygon fill="none" stroke="black" points="10,-306 10,-328 121,-328 121,-306 10,-306"/>
<text text-anchor="start" x="30" y="-314.2" font-family="Helvetica,sans-Serif" font-size="11.00">a_key</text>
<polygon fill="none" stroke="black" points="121,-306 121,-328 194,-328 194,-306 121,-306"/>
<text text-anchor="start" x="124" y="-314.2" font-family="Helvetica,sans-Serif" font-size="11.00">varchar[32]</text>
<polygon fill="none" stroke="black" points="10,-284 10,-306 121,-306 121,-284 10,-284"/>
<text text-anchor="start" x="30" y="-292.2" font-family="Helvetica,sans-Serif" font-size="11.00">a_name</text>
<polygon fill="none" stroke="black" points="121,-284 121,-306 194,-306 194,-284 121,-284"/>
<text text-anchor="start" x="124" y="-292.2" font-family="Helvetica,sans-Serif" font-size="11.00">varchar[255]</text>
<polygon fill="none" stroke="black" points="10,-262 10,-284 121,-284 121,-262 10,-262"/>
<text text-anchor="start" x="30" y="-270.2" font-family="Helvetica,sans-Serif" font-size="11.00">description</text>
<polygon fill="none" stroke="black" points="121,-262 121,-284 194,-284 194,-262 121,-262"/>
<text text-anchor="start" x="124" y="-270.2" font-family="Helvetica,sans-Serif" font-size="11.00">varchar[4000]</text>
<polygon fill="none" stroke="black" points="10,-240 10,-262 121,-262 121,-240 10,-240"/>
<text text-anchor="start" x="30" y="-248.2" font-family="Helvetica,sans-Serif" font-size="11.00">country_code</text>
<polygon fill="none" stroke="black" points="121,-240 121,-262 194,-262 194,-240 121,-240"/>
<text text-anchor="start" x="124" y="-248.2" font-family="Helvetica,sans-Serif" font-size="11.00">varchar[2]</text>
<polygon fill="none" stroke="black" points="10,-218 10,-240 121,-240 121,-218 10,-218"/>
<text text-anchor="start" x="30" y="-226.2" font-family="Helvetica,sans-Serif" font-size="11.00">valid_from</text>
<polygon fill="none" stroke="black" points="121,-218 121,-240 194,-240 194,-218 121,-218"/>
<text text-anchor="start" x="124" y="-226.2" font-family="Helvetica,sans-Serif" font-size="11.00">datetime[19]</text>
<polygon fill="none" stroke="black" points="10,-196 10,-218 121,-218 121,-196 10,-196"/>
<text text-anchor="start" x="30" y="-204.2" font-family="Helvetica,sans-Serif" font-size="11.00">valid_to</text>
<polygon fill="none" stroke="black" points="121,-196 121,-218 194,-218 194,-196 121,-196"/>
<text text-anchor="start" x="124" y="-204.2" font-family="Helvetica,sans-Serif" font-size="11.00">datetime[19]</text>
<polygon fill="#ffffff" stroke="transparent" points="10,-178 10,-196 57,-196 57,-178 10,-178"/>
<polygon fill="none" stroke="black" points="10,-178 10,-196 57,-196 57,-178 10,-178"/>
<text text-anchor="start" x="13" y="-184.2" font-family="Helvetica,sans-Serif" font-size="11.00">&lt; 0</text>
<polygon fill="#ffffff" stroke="transparent" points="57,-178 57,-196 121,-196 121,-178 57,-178"/>
<polygon fill="none" stroke="black" points="57,-178 57,-196 121,-196 121,-178 57,-178"/>
<text text-anchor="start" x="85" y="-184.2" font-family="Helvetica,sans-Serif" font-size="11.00">0 rows</text>
<polygon fill="#ffffff" stroke="transparent" points="121,-178 121,-196 194,-196 194,-178 121,-178"/>
<polygon fill="none" stroke="black" points="121,-178 121,-196 194,-196 194,-178 121,-178"/>
<text text-anchor="start" x="175" y="-184.2" font-family="Helvetica,sans-Serif" font-size="11.00">4 &gt;</text>
<polygon fill="none" stroke="black" stroke-width="2" points="9,-177 9,-373 195,-373 195,-177 9,-177"/>
</a>
</g>
</g>
<!-- m_survey_components&#45;&gt;m_surveys -->
<g id="edge1" class="edge">
<title>m_survey_components:w&#45;&gt;m_surveys:e</title>
<path fill="none" stroke="black" d="M235.71,-495.37C188.65,-474.7 264.08,-339 195,-339"/>
<polygon fill="black" stroke="black" points="242.13,-496.55 249.35,-501.54 246.07,-497.28 250,-498 250,-498 250,-498 246.07,-497.28 250.65,-494.46 242.13,-496.55 242.13,-496.55"/>
<ellipse fill="none" stroke="black" cx="238.98" cy="-495.97" rx="3.2" ry="3.2"/>
</g>
<!-- m_survey_lookup_tables -->
<g id="node3" class="node">
<title>m_survey_lookup_tables</title>
<g id="a_node3"><a xlink:href="../../tables/m_survey_lookup_tables.html" xlink:title="m_survey_lookup_tables" target="_top">
<polygon fill="#ffffff" stroke="transparent" points="245,-328 245,-430 429,-430 429,-328 245,-328"/>
<polygon fill="#f5f5f5" stroke="transparent" points="245,-408 245,-430 429,-430 429,-408 245,-408"/>
<polygon fill="none" stroke="black" points="245,-408 245,-430 429,-430 429,-408 245,-408"/>
<text text-anchor="start" x="250" y="-417.2" font-family="Helvetica,sans-Serif" font-weight="bold" font-size="11.00">m_survey_lookup_tables</text>
<text text-anchor="start" x="394" y="-416.2" font-family="Helvetica,sans-Serif" font-size="11.00">[table]</text>
<polygon fill="none" stroke="black" points="245,-386 245,-408 429,-408 429,-386 245,-386"/>
<image xlink:href="../../images/primaryKeys.png" width="11px" height="12px" preserveAspectRatio="xMinYMin meet" x="250" y="-403"/>
<text text-anchor="start" x="265" y="-394.2" font-family="Helvetica,sans-Serif" font-size="11.00">id</text>
<polygon fill="#ffffff" stroke="transparent" points="245,-364 245,-386 429,-386 429,-364 245,-364"/>
<polygon fill="none" stroke="black" points="245,-364 245,-386 429,-386 429,-364 245,-364"/>
<image xlink:href="../../images/foreignKeys.png" width="11px" height="12px" preserveAspectRatio="xMinYMin meet" x="250" y="-381"/>
<text text-anchor="start" x="265" y="-372.2" font-family="Helvetica,sans-Serif" font-size="11.00">survey_id</text>
<polygon fill="none" stroke="black" points="245,-346 245,-364 429,-364 429,-346 245,-346"/>
<text text-anchor="start" x="248" y="-352.2" font-family="Helvetica,sans-Serif" font-size="11.00">...</text>
<polygon fill="#ffffff" stroke="transparent" points="245,-328 245,-346 322,-346 322,-328 245,-328"/>
<polygon fill="none" stroke="black" points="245,-328 245,-346 322,-346 322,-328 245,-328"/>
<text text-anchor="start" x="248" y="-334.2" font-family="Helvetica,sans-Serif" font-size="11.00">&lt; 1</text>
<polygon fill="#ffffff" stroke="transparent" points="322,-328 322,-346 388,-346 388,-328 322,-328"/>
<polygon fill="none" stroke="black" points="322,-328 322,-346 388,-346 388,-328 322,-328"/>
<text text-anchor="start" x="352" y="-334.2" font-family="Helvetica,sans-Serif" font-size="11.00">0 rows</text>
<polygon fill="#ffffff" stroke="transparent" points="388,-328 388,-346 429,-346 429,-328 388,-328"/>
<polygon fill="none" stroke="black" points="388,-328 388,-346 429,-346 429,-328 388,-328"/>
<text text-anchor="start" x="419" y="-334.2" font-family="Helvetica,sans-Serif" font-size="11.00"> &#160;</text>
</a>
</g>
</g>
<!-- m_survey_lookup_tables&#45;&gt;m_surveys -->
<g id="edge2" class="edge">
<title>m_survey_lookup_tables:w&#45;&gt;m_surveys:e</title>
<path fill="none" stroke="black" d="M230.2,-370.59C217.65,-360.97 216.11,-339 195,-339"/>
<polygon fill="black" stroke="black" points="236.38,-372.56 242.9,-378.43 240.19,-373.78 244,-375 244,-375 244,-375 240.19,-373.78 245.1,-371.57 236.38,-372.56 236.38,-372.56"/>
<ellipse fill="none" stroke="black" cx="233.33" cy="-371.59" rx="3.2" ry="3.2"/>
</g>
<!-- m_survey_questions -->
<g id="node4" class="node">
<title>m_survey_questions</title>
<g id="a_node4"><a xlink:href="../../tables/m_survey_questions.html" xlink:title="m_survey_questions" target="_top">
<polygon fill="#ffffff" stroke="transparent" points="258.5,-178 258.5,-280 415.5,-280 415.5,-178 258.5,-178"/>
<polygon fill="#f5f5f5" stroke="transparent" points="259,-258 259,-280 416,-280 416,-258 259,-258"/>
<polygon fill="none" stroke="black" points="259,-258 259,-280 416,-280 416,-258 259,-258"/>
<text text-anchor="start" x="264" y="-267.2" font-family="Helvetica,sans-Serif" font-weight="bold" font-size="11.00">m_survey_questions</text>
<text text-anchor="start" x="381" y="-266.2" font-family="Helvetica,sans-Serif" font-size="11.00">[table]</text>
<polygon fill="none" stroke="black" points="259,-236 259,-258 416,-258 416,-236 259,-236"/>
<image xlink:href="../../images/primaryKeys.png" width="11px" height="12px" preserveAspectRatio="xMinYMin meet" x="264" y="-253"/>
<text text-anchor="start" x="279" y="-244.2" font-family="Helvetica,sans-Serif" font-size="11.00">id</text>
<polygon fill="#ffffff" stroke="transparent" points="259,-214 259,-236 416,-236 416,-214 259,-214"/>
<polygon fill="none" stroke="black" points="259,-214 259,-236 416,-236 416,-214 259,-214"/>
<image xlink:href="../../images/foreignKeys.png" width="11px" height="12px" preserveAspectRatio="xMinYMin meet" x="264" y="-231"/>
<text text-anchor="start" x="279" y="-222.2" font-family="Helvetica,sans-Serif" font-size="11.00">survey_id</text>
<polygon fill="none" stroke="black" points="259,-196 259,-214 416,-214 416,-196 259,-196"/>
<text text-anchor="start" x="262" y="-202.2" font-family="Helvetica,sans-Serif" font-size="11.00">...</text>
<polygon fill="#ffffff" stroke="transparent" points="259,-178 259,-196 318,-196 318,-178 259,-178"/>
<polygon fill="none" stroke="black" points="259,-178 259,-196 318,-196 318,-178 259,-178"/>
<text text-anchor="start" x="262" y="-184.2" font-family="Helvetica,sans-Serif" font-size="11.00">&lt; 1</text>
<polygon fill="#ffffff" stroke="transparent" points="318,-178 318,-196 375,-196 375,-178 318,-178"/>
<polygon fill="none" stroke="black" points="318,-178 318,-196 375,-196 375,-178 318,-178"/>
<text text-anchor="start" x="339" y="-184.2" font-family="Helvetica,sans-Serif" font-size="11.00">0 rows</text>
<polygon fill="#ffffff" stroke="transparent" points="375,-178 375,-196 416,-196 416,-178 375,-178"/>
<polygon fill="none" stroke="black" points="375,-178 375,-196 416,-196 416,-178 375,-178"/>
<text text-anchor="start" x="397" y="-184.2" font-family="Helvetica,sans-Serif" font-size="11.00">2 &gt;</text>
</a>
</g>
</g>
<!-- m_survey_questions&#45;&gt;m_surveys -->
<g id="edge3" class="edge">
<title>m_survey_questions:w&#45;&gt;m_surveys:e</title>
<path fill="none" stroke="black" d="M243.55,-228.29C209.69,-246.98 247.01,-339 195,-339"/>
<polygon fill="black" stroke="black" points="250.2,-226.78 258.8,-228.51 254.1,-225.89 258,-225 258,-225 258,-225 254.1,-225.89 257.2,-221.49 250.2,-226.78 250.2,-226.78"/>
<ellipse fill="none" stroke="black" cx="247.08" cy="-227.49" rx="3.2" ry="3.2"/>
</g>
<!-- m_survey_responses -->
<g id="node5" class="node">
<title>m_survey_responses</title>
<g id="a_node5"><a xlink:href="../../tables/m_survey_responses.html" xlink:title="m_survey_responses" target="_top">
<polygon fill="#ffffff" stroke="transparent" points="478,-195 478,-253 634,-253 634,-195 478,-195"/>
<polygon fill="#f5f5f5" stroke="transparent" points="478,-231 478,-253 634,-253 634,-231 478,-231"/>
<polygon fill="none" stroke="black" points="478,-231 478,-253 634,-253 634,-231 478,-231"/>
<text text-anchor="start" x="483" y="-240.2" font-family="Helvetica,sans-Serif" font-weight="bold" font-size="11.00">m_survey_responses</text>
<text text-anchor="start" x="599" y="-239.2" font-family="Helvetica,sans-Serif" font-size="11.00">[table]</text>
<polygon fill="none" stroke="black" points="478,-213 478,-231 634,-231 634,-213 478,-213"/>
<text text-anchor="start" x="481" y="-219.2" font-family="Helvetica,sans-Serif" font-size="11.00">...</text>
<polygon fill="#ffffff" stroke="transparent" points="478,-195 478,-213 536,-213 536,-195 478,-195"/>
<polygon fill="none" stroke="black" points="478,-195 478,-213 536,-213 536,-195 478,-195"/>
<text text-anchor="start" x="481" y="-201.2" font-family="Helvetica,sans-Serif" font-size="11.00">&lt; 1</text>
<polygon fill="#ffffff" stroke="transparent" points="536,-195 536,-213 593,-213 593,-195 536,-195"/>
<polygon fill="none" stroke="black" points="536,-195 536,-213 593,-213 593,-195 536,-195"/>
<text text-anchor="start" x="557" y="-201.2" font-family="Helvetica,sans-Serif" font-size="11.00">0 rows</text>
<polygon fill="#ffffff" stroke="transparent" points="593,-195 593,-213 634,-213 634,-195 593,-195"/>
<polygon fill="none" stroke="black" points="593,-195 593,-213 634,-213 634,-195 593,-195"/>
<text text-anchor="start" x="615" y="-201.2" font-family="Helvetica,sans-Serif" font-size="11.00">1 &gt;</text>
</a>
</g>
</g>
<!-- m_survey_responses&#45;&gt;m_survey_questions -->
<g id="edge4" class="edge">
<title>m_survey_responses:w&#45;&gt;m_survey_questions:e</title>
<path fill="none" stroke="black" d="M462.73,-224.49C446.23,-230.81 440.25,-247 417,-247"/>
<polygon fill="black" stroke="black" points="469.12,-223.37 477.62,-225.55 473.06,-222.69 477,-222 477,-222 477,-222 473.06,-222.69 476.38,-218.45 469.12,-223.37 469.12,-223.37"/>
<ellipse fill="none" stroke="black" cx="465.97" cy="-223.92" rx="3.2" ry="3.2"/>
</g>
<!-- m_survey_scorecards -->
<g id="node6" class="node">
<title>m_survey_scorecards</title>
<g id="a_node6"><a xlink:href="../../tables/m_survey_scorecards.html" xlink:title="m_survey_scorecards" target="_top">
<polygon fill="#ffffff" stroke="transparent" points="683,-131 683,-321 847,-321 847,-131 683,-131"/>
<polygon fill="#f5f5f5" stroke="transparent" points="683,-299 683,-321 847,-321 847,-299 683,-299"/>
<polygon fill="none" stroke="black" points="683,-299 683,-321 847,-321 847,-299 683,-299"/>
<text text-anchor="start" x="688" y="-308.2" font-family="Helvetica,sans-Serif" font-weight="bold" font-size="11.00">m_survey_scorecards</text>
<text text-anchor="start" x="812" y="-307.2" font-family="Helvetica,sans-Serif" font-size="11.00">[table]</text>
<polygon fill="none" stroke="black" points="683,-277 683,-299 847,-299 847,-277 683,-277"/>
<image xlink:href="../../images/primaryKeys.png" width="11px" height="12px" preserveAspectRatio="xMinYMin meet" x="688" y="-294"/>
<text text-anchor="start" x="703" y="-285.2" font-family="Helvetica,sans-Serif" font-size="11.00">id</text>
<polygon fill="#ffffff" stroke="transparent" points="683,-255 683,-277 847,-277 847,-255 683,-255"/>
<polygon fill="none" stroke="black" points="683,-255 683,-277 847,-277 847,-255 683,-255"/>
<image xlink:href="../../images/foreignKeys.png" width="11px" height="12px" preserveAspectRatio="xMinYMin meet" x="688" y="-272"/>
<text text-anchor="start" x="703" y="-263.2" font-family="Helvetica,sans-Serif" font-size="11.00">survey_id</text>
<polygon fill="#ffffff" stroke="transparent" points="683,-233 683,-255 847,-255 847,-233 683,-233"/>
<polygon fill="none" stroke="black" points="683,-233 683,-255 847,-255 847,-233 683,-233"/>
<image xlink:href="../../images/foreignKeys.png" width="11px" height="12px" preserveAspectRatio="xMinYMin meet" x="688" y="-250"/>
<text text-anchor="start" x="703" y="-241.2" font-family="Helvetica,sans-Serif" font-size="11.00">question_id</text>
<polygon fill="#ffffff" stroke="transparent" points="683,-211 683,-233 847,-233 847,-211 683,-211"/>
<polygon fill="none" stroke="black" points="683,-211 683,-233 847,-233 847,-211 683,-211"/>
<image xlink:href="../../images/foreignKeys.png" width="11px" height="12px" preserveAspectRatio="xMinYMin meet" x="688" y="-228"/>
<text text-anchor="start" x="703" y="-219.2" font-family="Helvetica,sans-Serif" font-size="11.00">response_id</text>
<polygon fill="#ffffff" stroke="transparent" points="683,-189 683,-211 847,-211 847,-189 683,-189"/>
<polygon fill="none" stroke="black" points="683,-189 683,-211 847,-211 847,-189 683,-189"/>
<image xlink:href="../../images/foreignKeys.png" width="11px" height="12px" preserveAspectRatio="xMinYMin meet" x="688" y="-206"/>
<text text-anchor="start" x="703" y="-197.2" font-family="Helvetica,sans-Serif" font-size="11.00">user_id</text>
<polygon fill="#ffffff" stroke="transparent" points="683,-167 683,-189 847,-189 847,-167 683,-167"/>
<polygon fill="none" stroke="black" points="683,-167 683,-189 847,-189 847,-167 683,-167"/>
<image xlink:href="../../images/foreignKeys.png" width="11px" height="12px" preserveAspectRatio="xMinYMin meet" x="688" y="-184"/>
<text text-anchor="start" x="703" y="-175.2" font-family="Helvetica,sans-Serif" font-size="11.00">client_id</text>
<polygon fill="none" stroke="black" points="683,-149 683,-167 847,-167 847,-149 683,-149"/>
<text text-anchor="start" x="686" y="-155.2" font-family="Helvetica,sans-Serif" font-size="11.00">...</text>
<polygon fill="#ffffff" stroke="transparent" points="683,-131 683,-149 750,-149 750,-131 683,-131"/>
<polygon fill="none" stroke="black" points="683,-131 683,-149 750,-149 750,-131 683,-131"/>
<text text-anchor="start" x="686" y="-137.2" font-family="Helvetica,sans-Serif" font-size="11.00">&lt; 5</text>
<polygon fill="#ffffff" stroke="transparent" points="750,-131 750,-149 811,-149 811,-131 750,-131"/>
<polygon fill="none" stroke="black" points="750,-131 750,-149 811,-149 811,-131 750,-131"/>
<text text-anchor="start" x="775" y="-137.2" font-family="Helvetica,sans-Serif" font-size="11.00">0 rows</text>
<polygon fill="#ffffff" stroke="transparent" points="811,-131 811,-149 847,-149 847,-131 811,-131"/>
<polygon fill="none" stroke="black" points="811,-131 811,-149 847,-149 847,-131 811,-131"/>
<text text-anchor="start" x="837" y="-137.2" font-family="Helvetica,sans-Serif" font-size="11.00"> &#160;</text>
</a>
</g>
</g>
<!-- m_survey_scorecards&#45;&gt;m_surveys -->
<g id="edge8" class="edge">
<title>m_survey_scorecards:w&#45;&gt;m_surveys:e</title>
<path fill="none" stroke="black" d="M667.57,-268.45C659.69,-271.45 654.3,-276.44 642,-279 464.96,-315.83 410.8,-268.06 237,-318 216.94,-323.76 215.87,-339 195,-339"/>
<polygon fill="black" stroke="black" points="674.11,-267.34 682.6,-269.55 678.06,-266.67 682,-266 682,-266 682,-266 678.06,-266.67 681.4,-262.45 674.11,-267.34 674.11,-267.34"/>
<ellipse fill="none" stroke="black" cx="670.96" cy="-267.88" rx="3.2" ry="3.2"/>
</g>
<!-- m_survey_scorecards&#45;&gt;m_survey_questions -->
<g id="edge6" class="edge">
<title>m_survey_scorecards:w&#45;&gt;m_survey_questions:e</title>
<path fill="none" stroke="black" d="M667.81,-247.72C659.82,-252.58 655.3,-260.86 642,-264 567.6,-281.56 545.53,-275.82 470,-264 445.56,-260.18 441.74,-247 417,-247"/>
<polygon fill="black" stroke="black" points="674.26,-246.03 682.91,-247.48 678.13,-245.01 682,-244 682,-244 682,-244 678.13,-245.01 681.09,-240.52 674.26,-246.03 674.26,-246.03"/>
<ellipse fill="none" stroke="black" cx="671.17" cy="-246.84" rx="3.2" ry="3.2"/>
</g>
<!-- m_survey_scorecards&#45;&gt;m_survey_responses -->
<g id="edge7" class="edge">
<title>m_survey_scorecards:w&#45;&gt;m_survey_responses:e</title>
<path fill="none" stroke="black" d="M667.4,-222C656.93,-222 650.01,-222 635,-222"/>
<polygon fill="black" stroke="black" points="674,-222 682,-225.6 678,-222 682,-222 682,-222 682,-222 678,-222 682,-218.4 674,-222 674,-222"/>
<ellipse fill="none" stroke="black" cx="670.8" cy="-222" rx="3.2" ry="3.2"/>
</g>
<!-- m_client -->
<g id="node7" class="node">
<title>m_client</title>
<g id="a_node7"><a xlink:href="../../tables/m_client.html" xlink:title="m_client" target="_top">
<polygon fill="#ffffff" stroke="transparent" points="508.5,-37 508.5,-95 603.5,-95 603.5,-37 508.5,-37"/>
<polygon fill="#f5f5f5" stroke="transparent" points="509,-73 509,-95 604,-95 604,-73 509,-73"/>
<polygon fill="none" stroke="black" points="509,-73 509,-95 604,-95 604,-73 509,-73"/>
<text text-anchor="start" x="514" y="-82.2" font-family="Helvetica,sans-Serif" font-weight="bold" font-size="11.00">m_client</text>
<text text-anchor="start" x="569" y="-81.2" font-family="Helvetica,sans-Serif" font-size="11.00">[table]</text>
<polygon fill="none" stroke="black" points="509,-55 509,-73 604,-73 604,-55 509,-55"/>
<text text-anchor="start" x="512" y="-61.2" font-family="Helvetica,sans-Serif" font-size="11.00">...</text>
<polygon fill="#ffffff" stroke="transparent" points="509,-37 509,-55 537,-55 537,-37 509,-37"/>
<polygon fill="none" stroke="black" points="509,-37 509,-55 537,-55 537,-37 509,-37"/>
<text text-anchor="start" x="512" y="-43.2" font-family="Helvetica,sans-Serif" font-size="11.00">&lt; 13</text>
<polygon fill="#ffffff" stroke="transparent" points="537,-37 537,-55 576,-55 576,-37 537,-37"/>
<polygon fill="none" stroke="black" points="537,-37 537,-55 576,-55 576,-37 537,-37"/>
<text text-anchor="start" x="540" y="-43.2" font-family="Helvetica,sans-Serif" font-size="11.00">0 rows</text>
<polygon fill="#ffffff" stroke="transparent" points="576,-37 576,-55 604,-55 604,-37 576,-37"/>
<polygon fill="none" stroke="black" points="576,-37 576,-55 604,-55 604,-37 576,-37"/>
<text text-anchor="start" x="579" y="-43.2" font-family="Helvetica,sans-Serif" font-size="11.00">23 &gt;</text>
</a>
</g>
</g>
<!-- m_survey_scorecards&#45;&gt;m_client -->
<g id="edge5" class="edge">
<title>m_survey_scorecards:w&#45;&gt;m_client:e</title>
<path fill="none" stroke="black" d="M667.85,-174.79C649.98,-164.28 659.91,-130.21 642,-105 627.78,-84.99 629.55,-64 605,-64"/>
<polygon fill="black" stroke="black" points="674.2,-176.23 681.2,-181.51 678.1,-177.11 682,-178 682,-178 682,-178 678.1,-177.11 682.8,-174.49 674.2,-176.23 674.2,-176.23"/>
<ellipse fill="none" stroke="black" cx="671.08" cy="-175.52" rx="3.2" ry="3.2"/>
</g>
<!-- m_appuser -->
<g id="node8" class="node">
<title>m_appuser</title>
<g id="a_node8"><a xlink:href="../../tables/m_appuser.html" xlink:title="m_appuser" target="_top">
<polygon fill="#ffffff" stroke="transparent" points="504.5,-116 504.5,-174 607.5,-174 607.5,-116 504.5,-116"/>
<polygon fill="#f5f5f5" stroke="transparent" points="505,-152 505,-174 608,-174 608,-152 505,-152"/>
<polygon fill="none" stroke="black" points="505,-152 505,-174 608,-174 608,-152 505,-152"/>
<text text-anchor="start" x="510" y="-161.2" font-family="Helvetica,sans-Serif" font-weight="bold" font-size="11.00">m_appuser</text>
<text text-anchor="start" x="573" y="-160.2" font-family="Helvetica,sans-Serif" font-size="11.00">[table]</text>
<polygon fill="none" stroke="black" points="505,-134 505,-152 608,-152 608,-134 505,-134"/>
<text text-anchor="start" x="508" y="-140.2" font-family="Helvetica,sans-Serif" font-size="11.00">...</text>
<polygon fill="#ffffff" stroke="transparent" points="505,-116 505,-134 534,-134 534,-116 505,-116"/>
<polygon fill="none" stroke="black" points="505,-116 505,-134 534,-134 534,-116 505,-116"/>
<text text-anchor="start" x="508" y="-122.2" font-family="Helvetica,sans-Serif" font-size="11.00">&lt; 2</text>
<polygon fill="#ffffff" stroke="transparent" points="534,-116 534,-134 576,-134 576,-116 534,-116"/>
<polygon fill="none" stroke="black" points="534,-116 534,-134 576,-134 576,-116 534,-116"/>
<text text-anchor="start" x="540" y="-122.2" font-family="Helvetica,sans-Serif" font-size="11.00">0 rows</text>
<polygon fill="#ffffff" stroke="transparent" points="576,-116 576,-134 608,-134 608,-116 576,-116"/>
<polygon fill="none" stroke="black" points="576,-116 576,-134 608,-134 608,-116 576,-116"/>
<text text-anchor="start" x="583" y="-122.2" font-family="Helvetica,sans-Serif" font-size="11.00">57 &gt;</text>
</a>
</g>
</g>
<!-- m_survey_scorecards&#45;&gt;m_appuser -->
<g id="edge9" class="edge">
<title>m_survey_scorecards:w&#45;&gt;m_appuser:e</title>
<path fill="none" stroke="black" d="M667.69,-197.09C642.44,-185.48 644.54,-143 609,-143"/>
<polygon fill="black" stroke="black" points="674.16,-198.41 681.28,-203.53 678.08,-199.2 682,-200 682,-200 682,-200 678.08,-199.2 682.72,-196.47 674.16,-198.41 674.16,-198.41"/>
<ellipse fill="none" stroke="black" cx="671.02" cy="-197.77" rx="3.2" ry="3.2"/>
</g>
</g>
</svg>
