<?xml version="1.0" encoding="UTF-8" standalone="no"?>
<!DOCTYPE svg PUBLIC "-//W3C//DTD SVG 1.1//EN"
 "http://www.w3.org/Graphics/SVG/1.1/DTD/svg11.dtd">
<!-- Generated by graphviz version 2.43.0 (0)
 -->
<!-- Title: oneDegreeRelationshipsDiagram Pages: 1 -->
<svg width="786pt" height="439pt"
 viewBox="0.00 0.00 786.00 439.00" xmlns="http://www.w3.org/2000/svg" xmlns:xlink="http://www.w3.org/1999/xlink">
<g id="graph0" class="graph" transform="scale(1 1) rotate(0) translate(4 435)">
<title>oneDegreeRelationshipsDiagram</title>
<polygon fill="#ffffff" stroke="transparent" points="-4,4 -4,-435 782,-435 782,4 -4,4"/>
<text text-anchor="middle" x="71.5" y="-7.2" font-family="Helvetica,sans-Serif" font-size="11.00">Generated by SchemaSpy</text>
<!-- m_tax_component -->
<g id="node1" class="node">
<title>m_tax_component</title>
<g id="a_node1"><a xlink:href="../../tables/m_tax_component.html" xlink:title="m_tax_component" target="_top">
<polygon fill="#ffffff" stroke="transparent" points="272,-114 272,-282 472,-282 472,-114 272,-114"/>
<polygon fill="#f5f5f5" stroke="transparent" points="272,-260 272,-282 472,-282 472,-260 272,-260"/>
<polygon fill="none" stroke="black" points="272,-260 272,-282 472,-282 472,-260 272,-260"/>
<text text-anchor="start" x="277" y="-269.2" font-family="Helvetica,sans-Serif" font-weight="bold" font-size="11.00">m_tax_component</text>
<text text-anchor="start" x="437" y="-268.2" font-family="Helvetica,sans-Serif" font-size="11.00">[table]</text>
<polygon fill="none" stroke="black" points="272,-238 272,-260 472,-260 472,-238 272,-238"/>
<image xlink:href="../../images/primaryKeys.png" width="11px" height="12px" preserveAspectRatio="xMinYMin meet" x="277" y="-255"/>
<text text-anchor="start" x="292" y="-246.2" font-family="Helvetica,sans-Serif" font-size="11.00">id</text>
<polygon fill="#ffffff" stroke="transparent" points="272,-216 272,-238 472,-238 472,-216 272,-216"/>
<polygon fill="none" stroke="black" points="272,-216 272,-238 472,-238 472,-216 272,-216"/>
<image xlink:href="../../images/foreignKeys.png" width="11px" height="12px" preserveAspectRatio="xMinYMin meet" x="277" y="-233"/>
<text text-anchor="start" x="292" y="-224.2" font-family="Helvetica,sans-Serif" font-size="11.00">debit_account_id</text>
<polygon fill="#ffffff" stroke="transparent" points="272,-194 272,-216 472,-216 472,-194 272,-194"/>
<polygon fill="none" stroke="black" points="272,-194 272,-216 472,-216 472,-194 272,-194"/>
<image xlink:href="../../images/foreignKeys.png" width="11px" height="12px" preserveAspectRatio="xMinYMin meet" x="277" y="-211"/>
<text text-anchor="start" x="292" y="-202.2" font-family="Helvetica,sans-Serif" font-size="11.00">credit_account_id</text>
<polygon fill="#ffffff" stroke="transparent" points="272,-172 272,-194 472,-194 472,-172 272,-172"/>
<polygon fill="none" stroke="black" points="272,-172 272,-194 472,-194 472,-172 272,-172"/>
<image xlink:href="../../images/foreignKeys.png" width="11px" height="12px" preserveAspectRatio="xMinYMin meet" x="277" y="-189"/>
<text text-anchor="start" x="292" y="-180.2" font-family="Helvetica,sans-Serif" font-size="11.00">createdby_id</text>
<polygon fill="#ffffff" stroke="transparent" points="272,-150 272,-172 472,-172 472,-150 272,-150"/>
<polygon fill="none" stroke="black" points="272,-150 272,-172 472,-172 472,-150 272,-150"/>
<image xlink:href="../../images/foreignKeys.png" width="11px" height="12px" preserveAspectRatio="xMinYMin meet" x="277" y="-167"/>
<text text-anchor="start" x="292" y="-158.2" font-family="Helvetica,sans-Serif" font-size="11.00">lastmodifiedby_id</text>
<polygon fill="none" stroke="black" points="272,-132 272,-150 472,-150 472,-132 272,-132"/>
<text text-anchor="start" x="275" y="-138.2" font-family="Helvetica,sans-Serif" font-size="11.00">...</text>
<polygon fill="#ffffff" stroke="transparent" points="272,-114 272,-132 352,-132 352,-114 272,-114"/>
<polygon fill="none" stroke="black" points="272,-114 272,-132 352,-132 352,-114 272,-114"/>
<text text-anchor="start" x="275" y="-120.2" font-family="Helvetica,sans-Serif" font-size="11.00">&lt; 4</text>
<polygon fill="#ffffff" stroke="transparent" points="352,-114 352,-132 420,-132 420,-114 352,-114"/>
<polygon fill="none" stroke="black" points="352,-114 352,-132 420,-132 420,-114 352,-114"/>
<text text-anchor="start" x="384" y="-120.2" font-family="Helvetica,sans-Serif" font-size="11.00">0 rows</text>
<polygon fill="#ffffff" stroke="transparent" points="420,-114 420,-132 472,-132 472,-114 420,-114"/>
<polygon fill="none" stroke="black" points="420,-114 420,-132 472,-132 472,-114 420,-114"/>
<text text-anchor="start" x="453" y="-120.2" font-family="Helvetica,sans-Serif" font-size="11.00">3 &gt;</text>
</a>
</g>
</g>
<!-- m_appuser -->
<g id="node2" class="node">
<title>m_appuser</title>
<g id="a_node2"><a xlink:href="../../tables/m_appuser.html" xlink:title="m_appuser" target="_top">
<polygon fill="#ffffff" stroke="transparent" points="8,-37 8,-205 223,-205 223,-37 8,-37"/>
<polygon fill="#f5f5f5" stroke="transparent" points="8.5,-183 8.5,-205 223.5,-205 223.5,-183 8.5,-183"/>
<polygon fill="none" stroke="black" points="8.5,-183 8.5,-205 223.5,-205 223.5,-183 8.5,-183"/>
<text text-anchor="start" x="13.5" y="-192.2" font-family="Helvetica,sans-Serif" font-weight="bold" font-size="11.00">m_appuser</text>
<text text-anchor="start" x="188.5" y="-191.2" font-family="Helvetica,sans-Serif" font-size="11.00">[table]</text>
<polygon fill="none" stroke="black" points="8.5,-161 8.5,-183 223.5,-183 223.5,-161 8.5,-161"/>
<image xlink:href="../../images/primaryKeys.png" width="11px" height="12px" preserveAspectRatio="xMinYMin meet" x="13.5" y="-178"/>
<text text-anchor="start" x="28.5" y="-169.2" font-family="Helvetica,sans-Serif" font-size="11.00">id</text>
<polygon fill="#ffffff" stroke="transparent" points="8.5,-139 8.5,-161 223.5,-161 223.5,-139 8.5,-139"/>
<polygon fill="none" stroke="black" points="8.5,-139 8.5,-161 223.5,-161 223.5,-139 8.5,-139"/>
<image xlink:href="../../images/foreignKeys.png" width="11px" height="12px" preserveAspectRatio="xMinYMin meet" x="13.5" y="-156"/>
<text text-anchor="start" x="28.5" y="-147.2" font-family="Helvetica,sans-Serif" font-size="11.00">office_id</text>
<polygon fill="#ffffff" stroke="transparent" points="8.5,-117 8.5,-139 223.5,-139 223.5,-117 8.5,-117"/>
<polygon fill="none" stroke="black" points="8.5,-117 8.5,-139 223.5,-139 223.5,-117 8.5,-117"/>
<image xlink:href="../../images/foreignKeys.png" width="11px" height="12px" preserveAspectRatio="xMinYMin meet" x="13.5" y="-134"/>
<text text-anchor="start" x="28.5" y="-125.2" font-family="Helvetica,sans-Serif" font-size="11.00">staff_id</text>
<polygon fill="#ffffff" stroke="transparent" points="8.5,-95 8.5,-117 223.5,-117 223.5,-95 8.5,-95"/>
<polygon fill="none" stroke="black" points="8.5,-95 8.5,-117 223.5,-117 223.5,-95 8.5,-95"/>
<text text-anchor="start" x="28.5" y="-103.2" font-family="Helvetica,sans-Serif" font-size="11.00">username</text>
<polygon fill="#ffffff" stroke="transparent" points="8.5,-73 8.5,-95 223.5,-95 223.5,-73 8.5,-73"/>
<polygon fill="none" stroke="black" points="8.5,-73 8.5,-95 223.5,-95 223.5,-73 8.5,-73"/>
<text text-anchor="start" x="28.5" y="-81.2" font-family="Helvetica,sans-Serif" font-size="11.00">last_time_password_updated</text>
<polygon fill="none" stroke="black" points="8.5,-55 8.5,-73 223.5,-73 223.5,-55 8.5,-55"/>
<text text-anchor="start" x="11.5" y="-61.2" font-family="Helvetica,sans-Serif" font-size="11.00">...</text>
<polygon fill="#ffffff" stroke="transparent" points="8.5,-37 8.5,-55 93.5,-55 93.5,-37 8.5,-37"/>
<polygon fill="none" stroke="black" points="8.5,-37 8.5,-55 93.5,-55 93.5,-37 8.5,-37"/>
<text text-anchor="start" x="11.5" y="-43.2" font-family="Helvetica,sans-Serif" font-size="11.00">&lt; 2</text>
<polygon fill="#ffffff" stroke="transparent" points="93.5,-37 93.5,-55 163.5,-55 163.5,-37 93.5,-37"/>
<polygon fill="none" stroke="black" points="93.5,-37 93.5,-55 163.5,-55 163.5,-37 93.5,-37"/>
<text text-anchor="start" x="127.5" y="-43.2" font-family="Helvetica,sans-Serif" font-size="11.00">0 rows</text>
<polygon fill="#ffffff" stroke="transparent" points="163.5,-37 163.5,-55 223.5,-55 223.5,-37 163.5,-37"/>
<polygon fill="none" stroke="black" points="163.5,-37 163.5,-55 223.5,-55 223.5,-37 163.5,-37"/>
<text text-anchor="start" x="198.5" y="-43.2" font-family="Helvetica,sans-Serif" font-size="11.00">57 &gt;</text>
</a>
</g>
</g>
<!-- m_tax_component&#45;&gt;m_appuser -->
<g id="edge1" class="edge">
<title>m_tax_component:w&#45;&gt;m_appuser:e</title>
<path fill="none" stroke="black" d="M256.74,-180.98C246.27,-177.81 239.93,-172 224.5,-172"/>
<polygon fill="black" stroke="black" points="263.08,-181.88 270.5,-186.56 267.04,-182.44 271,-183 271,-183 271,-183 267.04,-182.44 271.5,-179.44 263.08,-181.88 263.08,-181.88"/>
<ellipse fill="none" stroke="black" cx="259.91" cy="-181.43" rx="3.2" ry="3.2"/>
</g>
<!-- m_tax_component&#45;&gt;m_appuser -->
<g id="edge2" class="edge">
<title>m_tax_component:w&#45;&gt;m_appuser:e</title>
<path fill="none" stroke="black" d="M256.74,-163.02C246.27,-166.19 239.93,-172 224.5,-172"/>
<polygon fill="black" stroke="black" points="263.08,-162.12 271.5,-164.56 267.04,-161.56 271,-161 271,-161 271,-161 267.04,-161.56 270.5,-157.44 263.08,-162.12 263.08,-162.12"/>
<ellipse fill="none" stroke="black" cx="259.91" cy="-162.57" rx="3.2" ry="3.2"/>
</g>
<!-- m_tax_group -->
<g id="node3" class="node">
<title>m_tax_group</title>
<g id="a_node3"><a xlink:href="../../tables/m_tax_group.html" xlink:title="m_tax_group" target="_top">
<polygon fill="#ffffff" stroke="transparent" points="301,-303 301,-427 443,-427 443,-303 301,-303"/>
<polygon fill="#f5f5f5" stroke="transparent" points="301,-405 301,-427 443,-427 443,-405 301,-405"/>
<polygon fill="none" stroke="black" points="301,-405 301,-427 443,-427 443,-405 301,-405"/>
<text text-anchor="start" x="306" y="-414.2" font-family="Helvetica,sans-Serif" font-weight="bold" font-size="11.00">m_tax_group</text>
<text text-anchor="start" x="408" y="-413.2" font-family="Helvetica,sans-Serif" font-size="11.00">[table]</text>
<polygon fill="none" stroke="black" points="301,-383 301,-405 443,-405 443,-383 301,-383"/>
<image xlink:href="../../images/primaryKeys.png" width="11px" height="12px" preserveAspectRatio="xMinYMin meet" x="306" y="-400"/>
<text text-anchor="start" x="321" y="-391.2" font-family="Helvetica,sans-Serif" font-size="11.00">id</text>
<polygon fill="#ffffff" stroke="transparent" points="301,-361 301,-383 443,-383 443,-361 301,-361"/>
<polygon fill="none" stroke="black" points="301,-361 301,-383 443,-383 443,-361 301,-361"/>
<image xlink:href="../../images/foreignKeys.png" width="11px" height="12px" preserveAspectRatio="xMinYMin meet" x="306" y="-378"/>
<text text-anchor="start" x="321" y="-369.2" font-family="Helvetica,sans-Serif" font-size="11.00">createdby_id</text>
<polygon fill="#ffffff" stroke="transparent" points="301,-339 301,-361 443,-361 443,-339 301,-339"/>
<polygon fill="none" stroke="black" points="301,-339 301,-361 443,-361 443,-339 301,-339"/>
<image xlink:href="../../images/foreignKeys.png" width="11px" height="12px" preserveAspectRatio="xMinYMin meet" x="306" y="-356"/>
<text text-anchor="start" x="321" y="-347.2" font-family="Helvetica,sans-Serif" font-size="11.00">lastmodifiedby_id</text>
<polygon fill="none" stroke="black" points="301,-321 301,-339 443,-339 443,-321 301,-321"/>
<text text-anchor="start" x="304" y="-327.2" font-family="Helvetica,sans-Serif" font-size="11.00">...</text>
<polygon fill="#ffffff" stroke="transparent" points="301,-303 301,-321 352,-321 352,-303 301,-303"/>
<polygon fill="none" stroke="black" points="301,-303 301,-321 352,-321 352,-303 301,-303"/>
<text text-anchor="start" x="304" y="-309.2" font-family="Helvetica,sans-Serif" font-size="11.00">&lt; 2</text>
<polygon fill="#ffffff" stroke="transparent" points="352,-303 352,-321 406,-321 406,-303 352,-303"/>
<polygon fill="none" stroke="black" points="352,-303 352,-321 406,-321 406,-303 352,-303"/>
<text text-anchor="start" x="370" y="-309.2" font-family="Helvetica,sans-Serif" font-size="11.00">0 rows</text>
<polygon fill="#ffffff" stroke="transparent" points="406,-303 406,-321 443,-321 443,-303 406,-303"/>
<polygon fill="none" stroke="black" points="406,-303 406,-321 443,-321 443,-303 406,-303"/>
<text text-anchor="start" x="424" y="-309.2" font-family="Helvetica,sans-Serif" font-size="11.00">4 &gt;</text>
</a>
</g>
</g>
<!-- m_tax_group&#45;&gt;m_appuser -->
<g id="edge3" class="edge">
<title>m_tax_group:w&#45;&gt;m_appuser:e</title>
<path fill="none" stroke="black" d="M285.63,-369.04C265.85,-358.72 275.82,-323.33 264,-293 243.46,-240.29 281.07,-172 224.5,-172"/>
<polygon fill="black" stroke="black" points="292.16,-370.39 299.27,-375.53 296.08,-371.19 300,-372 300,-372 300,-372 296.08,-371.19 300.73,-368.47 292.16,-370.39 292.16,-370.39"/>
<ellipse fill="none" stroke="black" cx="289.03" cy="-369.74" rx="3.2" ry="3.2"/>
</g>
<!-- m_tax_group&#45;&gt;m_appuser -->
<g id="edge4" class="edge">
<title>m_tax_group:w&#45;&gt;m_appuser:e</title>
<path fill="none" stroke="black" d="M285.56,-347.88C225.73,-327.79 304.89,-172 224.5,-172"/>
<polygon fill="black" stroke="black" points="292.09,-348.84 299.48,-353.56 296.04,-349.42 300,-350 300,-350 300,-350 296.04,-349.42 300.52,-346.44 292.09,-348.84 292.09,-348.84"/>
<ellipse fill="none" stroke="black" cx="288.92" cy="-348.37" rx="3.2" ry="3.2"/>
</g>
<!-- m_tax_group_mappings -->
<g id="node4" class="node">
<title>m_tax_group_mappings</title>
<g id="a_node4"><a xlink:href="../../tables/m_tax_group_mappings.html" xlink:title="m_tax_group_mappings" target="_top">
<polygon fill="#ffffff" stroke="transparent" points="521,-48 521,-290 770,-290 770,-48 521,-48"/>
<polygon fill="#f5f5f5" stroke="transparent" points="523.5,-266 523.5,-288 768.5,-288 768.5,-266 523.5,-266"/>
<polygon fill="none" stroke="black" points="523.5,-266 523.5,-288 768.5,-288 768.5,-266 523.5,-266"/>
<text text-anchor="start" x="528.5" y="-275.2" font-family="Helvetica,sans-Serif" font-weight="bold" font-size="11.00">m_tax_group_mappings</text>
<text text-anchor="start" x="733.5" y="-274.2" font-family="Helvetica,sans-Serif" font-size="11.00">[table]</text>
<polygon fill="none" stroke="black" points="523.5,-244 523.5,-266 702.5,-266 702.5,-244 523.5,-244"/>
<image xlink:href="../../images/primaryKeys.png" width="11px" height="12px" preserveAspectRatio="xMinYMin meet" x="528.5" y="-261"/>
<text text-anchor="start" x="543.5" y="-252.2" font-family="Helvetica,sans-Serif" font-size="11.00">id</text>
<polygon fill="none" stroke="black" points="702.5,-244 702.5,-266 768.5,-266 768.5,-244 702.5,-244"/>
<text text-anchor="start" x="705.5" y="-252.2" font-family="Helvetica,sans-Serif" font-size="11.00">bigint[19]</text>
<polygon fill="#ffffff" stroke="transparent" points="523.5,-222 523.5,-244 702.5,-244 702.5,-222 523.5,-222"/>
<polygon fill="none" stroke="black" points="523.5,-222 523.5,-244 702.5,-244 702.5,-222 523.5,-222"/>
<image xlink:href="../../images/foreignKeys.png" width="11px" height="12px" preserveAspectRatio="xMinYMin meet" x="528.5" y="-239"/>
<text text-anchor="start" x="543.5" y="-230.2" font-family="Helvetica,sans-Serif" font-size="11.00">tax_group_id</text>
<polygon fill="none" stroke="black" points="702.5,-222 702.5,-244 768.5,-244 768.5,-222 702.5,-222"/>
<text text-anchor="start" x="705.5" y="-230.2" font-family="Helvetica,sans-Serif" font-size="11.00">bigint[19]</text>
<polygon fill="#ffffff" stroke="transparent" points="523.5,-200 523.5,-222 702.5,-222 702.5,-200 523.5,-200"/>
<polygon fill="none" stroke="black" points="523.5,-200 523.5,-222 702.5,-222 702.5,-200 523.5,-200"/>
<image xlink:href="../../images/foreignKeys.png" width="11px" height="12px" preserveAspectRatio="xMinYMin meet" x="528.5" y="-217"/>
<text text-anchor="start" x="543.5" y="-208.2" font-family="Helvetica,sans-Serif" font-size="11.00">tax_component_id</text>
<polygon fill="none" stroke="black" points="702.5,-200 702.5,-222 768.5,-222 768.5,-200 702.5,-200"/>
<text text-anchor="start" x="705.5" y="-208.2" font-family="Helvetica,sans-Serif" font-size="11.00">bigint[19]</text>
<polygon fill="none" stroke="black" points="523.5,-178 523.5,-200 702.5,-200 702.5,-178 523.5,-178"/>
<text text-anchor="start" x="543.5" y="-186.2" font-family="Helvetica,sans-Serif" font-size="11.00">start_date</text>
<polygon fill="none" stroke="black" points="702.5,-178 702.5,-200 768.5,-200 768.5,-178 702.5,-178"/>
<text text-anchor="start" x="705.5" y="-186.2" font-family="Helvetica,sans-Serif" font-size="11.00">date[10]</text>
<polygon fill="none" stroke="black" points="523.5,-156 523.5,-178 702.5,-178 702.5,-156 523.5,-156"/>
<text text-anchor="start" x="543.5" y="-164.2" font-family="Helvetica,sans-Serif" font-size="11.00">end_date</text>
<polygon fill="none" stroke="black" points="702.5,-156 702.5,-178 768.5,-178 768.5,-156 702.5,-156"/>
<text text-anchor="start" x="705.5" y="-164.2" font-family="Helvetica,sans-Serif" font-size="11.00">date[10]</text>
<polygon fill="#ffffff" stroke="transparent" points="523.5,-134 523.5,-156 702.5,-156 702.5,-134 523.5,-134"/>
<polygon fill="none" stroke="black" points="523.5,-134 523.5,-156 702.5,-156 702.5,-134 523.5,-134"/>
<image xlink:href="../../images/foreignKeys.png" width="11px" height="12px" preserveAspectRatio="xMinYMin meet" x="528.5" y="-151"/>
<text text-anchor="start" x="543.5" y="-142.2" font-family="Helvetica,sans-Serif" font-size="11.00">createdby_id</text>
<polygon fill="none" stroke="black" points="702.5,-134 702.5,-156 768.5,-156 768.5,-134 702.5,-134"/>
<text text-anchor="start" x="705.5" y="-142.2" font-family="Helvetica,sans-Serif" font-size="11.00">bigint[19]</text>
<polygon fill="none" stroke="black" points="523.5,-112 523.5,-134 702.5,-134 702.5,-112 523.5,-112"/>
<text text-anchor="start" x="543.5" y="-120.2" font-family="Helvetica,sans-Serif" font-size="11.00">created_date</text>
<polygon fill="none" stroke="black" points="702.5,-112 702.5,-134 768.5,-134 768.5,-112 702.5,-112"/>
<text text-anchor="start" x="705.5" y="-120.2" font-family="Helvetica,sans-Serif" font-size="11.00">datetime[19]</text>
<polygon fill="#ffffff" stroke="transparent" points="523.5,-90 523.5,-112 702.5,-112 702.5,-90 523.5,-90"/>
<polygon fill="none" stroke="black" points="523.5,-90 523.5,-112 702.5,-112 702.5,-90 523.5,-90"/>
<image xlink:href="../../images/foreignKeys.png" width="11px" height="12px" preserveAspectRatio="xMinYMin meet" x="528.5" y="-107"/>
<text text-anchor="start" x="543.5" y="-98.2" font-family="Helvetica,sans-Serif" font-size="11.00">lastmodifiedby_id</text>
<polygon fill="none" stroke="black" points="702.5,-90 702.5,-112 768.5,-112 768.5,-90 702.5,-90"/>
<text text-anchor="start" x="705.5" y="-98.2" font-family="Helvetica,sans-Serif" font-size="11.00">bigint[19]</text>
<polygon fill="none" stroke="black" points="523.5,-68 523.5,-90 702.5,-90 702.5,-68 523.5,-68"/>
<text text-anchor="start" x="543.5" y="-76.2" font-family="Helvetica,sans-Serif" font-size="11.00">lastmodified_date</text>
<polygon fill="none" stroke="black" points="702.5,-68 702.5,-90 768.5,-90 768.5,-68 702.5,-68"/>
<text text-anchor="start" x="705.5" y="-76.2" font-family="Helvetica,sans-Serif" font-size="11.00">datetime[19]</text>
<polygon fill="#ffffff" stroke="transparent" points="523.5,-50 523.5,-68 604.5,-68 604.5,-50 523.5,-50"/>
<polygon fill="none" stroke="black" points="523.5,-50 523.5,-68 604.5,-68 604.5,-50 523.5,-50"/>
<text text-anchor="start" x="526.5" y="-56.2" font-family="Helvetica,sans-Serif" font-size="11.00">&lt; 4</text>
<polygon fill="#ffffff" stroke="transparent" points="604.5,-50 604.5,-68 702.5,-68 702.5,-50 604.5,-50"/>
<polygon fill="none" stroke="black" points="604.5,-50 604.5,-68 702.5,-68 702.5,-50 604.5,-50"/>
<text text-anchor="start" x="666.5" y="-56.2" font-family="Helvetica,sans-Serif" font-size="11.00">0 rows</text>
<polygon fill="#ffffff" stroke="transparent" points="702.5,-50 702.5,-68 768.5,-68 768.5,-50 702.5,-50"/>
<polygon fill="none" stroke="black" points="702.5,-50 702.5,-68 768.5,-68 768.5,-50 702.5,-50"/>
<text text-anchor="start" x="749.5" y="-56.2" font-family="Helvetica,sans-Serif" font-size="11.00">0 &gt;</text>
<polygon fill="none" stroke="black" stroke-width="2" points="522,-49 522,-289 769,-289 769,-49 522,-49"/>
</a>
</g>
</g>
<!-- m_tax_group_mappings&#45;&gt;m_tax_component -->
<g id="edge7" class="edge">
<title>m_tax_group_mappings:w&#45;&gt;m_tax_component:e</title>
<path fill="none" stroke="black" d="M508.43,-215.66C495.76,-225.81 494.67,-249 473,-249"/>
<polygon fill="black" stroke="black" points="514.91,-213.52 523.63,-214.42 518.7,-212.26 522.5,-211 522.5,-211 522.5,-211 518.7,-212.26 521.37,-207.58 514.91,-213.52 514.91,-213.52"/>
<ellipse fill="none" stroke="black" cx="511.87" cy="-214.52" rx="3.2" ry="3.2"/>
</g>
<!-- m_tax_group_mappings&#45;&gt;m_appuser -->
<g id="edge5" class="edge">
<title>m_tax_group_mappings:w&#45;&gt;m_appuser:e</title>
<path fill="none" stroke="black" d="M508.52,-140.26C498.27,-131.15 498.44,-111.45 480,-104 435.49,-86.03 305.6,-80.05 264,-104 233.71,-121.44 259.45,-172 224.5,-172"/>
<polygon fill="black" stroke="black" points="514.92,-142.43 521.34,-148.41 518.71,-143.72 522.5,-145 522.5,-145 522.5,-145 518.71,-143.72 523.66,-141.59 514.92,-142.43 514.92,-142.43"/>
<ellipse fill="none" stroke="black" cx="511.89" cy="-141.4" rx="3.2" ry="3.2"/>
</g>
<!-- m_tax_group_mappings&#45;&gt;m_appuser -->
<g id="edge6" class="edge">
<title>m_tax_group_mappings:w&#45;&gt;m_appuser:e</title>
<path fill="none" stroke="black" d="M508.04,-98.33C499.23,-94.68 493.73,-88.35 480,-86 385.38,-69.79 344.82,-34.19 264,-86 228.59,-108.7 266.56,-172 224.5,-172"/>
<polygon fill="black" stroke="black" points="514.63,-99.55 521.85,-104.54 518.57,-100.27 522.5,-101 522.5,-101 522.5,-101 518.57,-100.27 523.15,-97.46 514.63,-99.55 514.63,-99.55"/>
<ellipse fill="none" stroke="black" cx="511.49" cy="-98.96" rx="3.2" ry="3.2"/>
</g>
<!-- m_tax_group_mappings&#45;&gt;m_tax_group -->
<g id="edge8" class="edge">
<title>m_tax_group_mappings:w&#45;&gt;m_tax_group:e</title>
<path fill="none" stroke="black" d="M507.97,-235.28C453.45,-254.84 518.01,-394 444,-394"/>
<polygon fill="black" stroke="black" points="514.6,-234.24 523.06,-236.56 518.55,-233.62 522.5,-233 522.5,-233 522.5,-233 518.55,-233.62 521.94,-229.44 514.6,-234.24 514.6,-234.24"/>
<ellipse fill="none" stroke="black" cx="511.43" cy="-234.73" rx="3.2" ry="3.2"/>
</g>
</g>
</svg>
