<?xml version="1.0" encoding="UTF-8" standalone="no"?>
<!DOCTYPE svg PUBLIC "-//W3C//DTD SVG 1.1//EN"
 "http://www.w3.org/Graphics/SVG/1.1/DTD/svg11.dtd">
<!-- Generated by graphviz version 2.43.0 (0)
 -->
<!-- Title: oneDegreeRelationshipsDiagram Pages: 1 -->
<svg width="945pt" height="565pt"
 viewBox="0.00 0.00 945.00 565.00" xmlns="http://www.w3.org/2000/svg" xmlns:xlink="http://www.w3.org/1999/xlink">
<g id="graph0" class="graph" transform="scale(1 1) rotate(0) translate(4 561)">
<title>oneDegreeRelationshipsDiagram</title>
<polygon fill="#ffffff" stroke="transparent" points="-4,4 -4,-561 941,-561 941,4 -4,4"/>
<text text-anchor="middle" x="71.5" y="-7.2" font-family="Helvetica,sans-Serif" font-size="11.00">Generated by SchemaSpy</text>
<!-- m_savings_account_transaction_tax_details -->
<g id="node1" class="node">
<title>m_savings_account_transaction_tax_details</title>
<g id="a_node1"><a xlink:href="../../tables/m_savings_account_transaction_tax_details.html" xlink:title="m_savings_account_transaction_tax_details" target="_top">
<polygon fill="#ffffff" stroke="transparent" points="616,-429 616,-553 929,-553 929,-429 616,-429"/>
<polygon fill="#f5f5f5" stroke="transparent" points="616.5,-531 616.5,-553 929.5,-553 929.5,-531 616.5,-531"/>
<polygon fill="none" stroke="black" points="616.5,-531 616.5,-553 929.5,-553 929.5,-531 616.5,-531"/>
<text text-anchor="start" x="621.5" y="-540.2" font-family="Helvetica,sans-Serif" font-weight="bold" font-size="11.00">m_savings_account_transaction_tax_details</text>
<text text-anchor="start" x="894.5" y="-539.2" font-family="Helvetica,sans-Serif" font-size="11.00">[table]</text>
<polygon fill="none" stroke="black" points="616.5,-509 616.5,-531 929.5,-531 929.5,-509 616.5,-509"/>
<image xlink:href="../../images/primaryKeys.png" width="11px" height="12px" preserveAspectRatio="xMinYMin meet" x="621.5" y="-526"/>
<text text-anchor="start" x="636.5" y="-517.2" font-family="Helvetica,sans-Serif" font-size="11.00">id</text>
<polygon fill="#ffffff" stroke="transparent" points="616.5,-487 616.5,-509 929.5,-509 929.5,-487 616.5,-487"/>
<polygon fill="none" stroke="black" points="616.5,-487 616.5,-509 929.5,-509 929.5,-487 616.5,-487"/>
<image xlink:href="../../images/foreignKeys.png" width="11px" height="12px" preserveAspectRatio="xMinYMin meet" x="621.5" y="-504"/>
<text text-anchor="start" x="636.5" y="-495.2" font-family="Helvetica,sans-Serif" font-size="11.00">savings_transaction_id</text>
<polygon fill="#ffffff" stroke="transparent" points="616.5,-465 616.5,-487 929.5,-487 929.5,-465 616.5,-465"/>
<polygon fill="none" stroke="black" points="616.5,-465 616.5,-487 929.5,-487 929.5,-465 616.5,-465"/>
<image xlink:href="../../images/foreignKeys.png" width="11px" height="12px" preserveAspectRatio="xMinYMin meet" x="621.5" y="-482"/>
<text text-anchor="start" x="636.5" y="-473.2" font-family="Helvetica,sans-Serif" font-size="11.00">tax_component_id</text>
<polygon fill="none" stroke="black" points="616.5,-447 616.5,-465 929.5,-465 929.5,-447 616.5,-447"/>
<text text-anchor="start" x="619.5" y="-453.2" font-family="Helvetica,sans-Serif" font-size="11.00">...</text>
<polygon fill="#ffffff" stroke="transparent" points="616.5,-429 616.5,-447 757.5,-447 757.5,-429 616.5,-429"/>
<polygon fill="none" stroke="black" points="616.5,-429 616.5,-447 757.5,-447 757.5,-429 616.5,-429"/>
<text text-anchor="start" x="619.5" y="-435.2" font-family="Helvetica,sans-Serif" font-size="11.00">&lt; 2</text>
<polygon fill="#ffffff" stroke="transparent" points="757.5,-429 757.5,-447 856.5,-447 856.5,-429 757.5,-429"/>
<polygon fill="none" stroke="black" points="757.5,-429 757.5,-447 856.5,-447 856.5,-429 757.5,-429"/>
<text text-anchor="start" x="820.5" y="-435.2" font-family="Helvetica,sans-Serif" font-size="11.00">0 rows</text>
<polygon fill="#ffffff" stroke="transparent" points="856.5,-429 856.5,-447 929.5,-447 929.5,-429 856.5,-429"/>
<polygon fill="none" stroke="black" points="856.5,-429 856.5,-447 929.5,-447 929.5,-429 856.5,-429"/>
<text text-anchor="start" x="919.5" y="-435.2" font-family="Helvetica,sans-Serif" font-size="11.00"> &#160;</text>
</a>
</g>
</g>
<!-- m_tax_component -->
<g id="node2" class="node">
<title>m_tax_component</title>
<g id="a_node2"><a xlink:href="../../tables/m_tax_component.html" xlink:title="m_tax_component" target="_top">
<polygon fill="#ffffff" stroke="transparent" points="293,-203 293,-511 567,-511 567,-203 293,-203"/>
<polygon fill="#f5f5f5" stroke="transparent" points="295,-487 295,-509 565,-509 565,-487 295,-487"/>
<polygon fill="none" stroke="black" points="295,-487 295,-509 565,-509 565,-487 295,-487"/>
<text text-anchor="start" x="300" y="-496.2" font-family="Helvetica,sans-Serif" font-weight="bold" font-size="11.00">m_tax_component</text>
<text text-anchor="start" x="530" y="-495.2" font-family="Helvetica,sans-Serif" font-size="11.00">[table]</text>
<polygon fill="none" stroke="black" points="295,-465 295,-487 495,-487 495,-465 295,-465"/>
<image xlink:href="../../images/primaryKeys.png" width="11px" height="12px" preserveAspectRatio="xMinYMin meet" x="300" y="-482"/>
<text text-anchor="start" x="315" y="-473.2" font-family="Helvetica,sans-Serif" font-size="11.00">id</text>
<polygon fill="none" stroke="black" points="495,-465 495,-487 565,-487 565,-465 495,-465"/>
<text text-anchor="start" x="498" y="-473.2" font-family="Helvetica,sans-Serif" font-size="11.00">bigint[19]</text>
<polygon fill="none" stroke="black" points="295,-443 295,-465 495,-465 495,-443 295,-443"/>
<text text-anchor="start" x="315" y="-451.2" font-family="Helvetica,sans-Serif" font-size="11.00">name</text>
<polygon fill="none" stroke="black" points="495,-443 495,-465 565,-465 565,-443 495,-443"/>
<text text-anchor="start" x="498" y="-451.2" font-family="Helvetica,sans-Serif" font-size="11.00">varchar[50]</text>
<polygon fill="none" stroke="black" points="295,-421 295,-443 495,-443 495,-421 295,-421"/>
<text text-anchor="start" x="315" y="-429.2" font-family="Helvetica,sans-Serif" font-size="11.00">percentage</text>
<polygon fill="none" stroke="black" points="495,-421 495,-443 565,-443 565,-421 495,-421"/>
<text text-anchor="start" x="498" y="-429.2" font-family="Helvetica,sans-Serif" font-size="11.00">decimal[19,6]</text>
<polygon fill="none" stroke="black" points="295,-399 295,-421 495,-421 495,-399 295,-399"/>
<text text-anchor="start" x="315" y="-407.2" font-family="Helvetica,sans-Serif" font-size="11.00">debit_account_type_enum</text>
<polygon fill="none" stroke="black" points="495,-399 495,-421 565,-421 565,-399 495,-399"/>
<text text-anchor="start" x="498" y="-407.2" font-family="Helvetica,sans-Serif" font-size="11.00">smallint[5]</text>
<polygon fill="#ffffff" stroke="transparent" points="295,-377 295,-399 495,-399 495,-377 295,-377"/>
<polygon fill="none" stroke="black" points="295,-377 295,-399 495,-399 495,-377 295,-377"/>
<image xlink:href="../../images/foreignKeys.png" width="11px" height="12px" preserveAspectRatio="xMinYMin meet" x="300" y="-394"/>
<text text-anchor="start" x="315" y="-385.2" font-family="Helvetica,sans-Serif" font-size="11.00">debit_account_id</text>
<polygon fill="none" stroke="black" points="495,-377 495,-399 565,-399 565,-377 495,-377"/>
<text text-anchor="start" x="498" y="-385.2" font-family="Helvetica,sans-Serif" font-size="11.00">bigint[19]</text>
<polygon fill="none" stroke="black" points="295,-355 295,-377 495,-377 495,-355 295,-355"/>
<text text-anchor="start" x="315" y="-363.2" font-family="Helvetica,sans-Serif" font-size="11.00">credit_account_type_enum</text>
<polygon fill="none" stroke="black" points="495,-355 495,-377 565,-377 565,-355 495,-355"/>
<text text-anchor="start" x="498" y="-363.2" font-family="Helvetica,sans-Serif" font-size="11.00">smallint[5]</text>
<polygon fill="#ffffff" stroke="transparent" points="295,-333 295,-355 495,-355 495,-333 295,-333"/>
<polygon fill="none" stroke="black" points="295,-333 295,-355 495,-355 495,-333 295,-333"/>
<image xlink:href="../../images/foreignKeys.png" width="11px" height="12px" preserveAspectRatio="xMinYMin meet" x="300" y="-350"/>
<text text-anchor="start" x="315" y="-341.2" font-family="Helvetica,sans-Serif" font-size="11.00">credit_account_id</text>
<polygon fill="none" stroke="black" points="495,-333 495,-355 565,-355 565,-333 495,-333"/>
<text text-anchor="start" x="498" y="-341.2" font-family="Helvetica,sans-Serif" font-size="11.00">bigint[19]</text>
<polygon fill="none" stroke="black" points="295,-311 295,-333 495,-333 495,-311 295,-311"/>
<text text-anchor="start" x="315" y="-319.2" font-family="Helvetica,sans-Serif" font-size="11.00">start_date</text>
<polygon fill="none" stroke="black" points="495,-311 495,-333 565,-333 565,-311 495,-311"/>
<text text-anchor="start" x="498" y="-319.2" font-family="Helvetica,sans-Serif" font-size="11.00">date[10]</text>
<polygon fill="#ffffff" stroke="transparent" points="295,-289 295,-311 495,-311 495,-289 295,-289"/>
<polygon fill="none" stroke="black" points="295,-289 295,-311 495,-311 495,-289 295,-289"/>
<image xlink:href="../../images/foreignKeys.png" width="11px" height="12px" preserveAspectRatio="xMinYMin meet" x="300" y="-306"/>
<text text-anchor="start" x="315" y="-297.2" font-family="Helvetica,sans-Serif" font-size="11.00">createdby_id</text>
<polygon fill="none" stroke="black" points="495,-289 495,-311 565,-311 565,-289 495,-289"/>
<text text-anchor="start" x="498" y="-297.2" font-family="Helvetica,sans-Serif" font-size="11.00">bigint[19]</text>
<polygon fill="none" stroke="black" points="295,-267 295,-289 495,-289 495,-267 295,-267"/>
<text text-anchor="start" x="315" y="-275.2" font-family="Helvetica,sans-Serif" font-size="11.00">created_date</text>
<polygon fill="none" stroke="black" points="495,-267 495,-289 565,-289 565,-267 495,-267"/>
<text text-anchor="start" x="498" y="-275.2" font-family="Helvetica,sans-Serif" font-size="11.00">datetime[19]</text>
<polygon fill="#ffffff" stroke="transparent" points="295,-245 295,-267 495,-267 495,-245 295,-245"/>
<polygon fill="none" stroke="black" points="295,-245 295,-267 495,-267 495,-245 295,-245"/>
<image xlink:href="../../images/foreignKeys.png" width="11px" height="12px" preserveAspectRatio="xMinYMin meet" x="300" y="-262"/>
<text text-anchor="start" x="315" y="-253.2" font-family="Helvetica,sans-Serif" font-size="11.00">lastmodifiedby_id</text>
<polygon fill="none" stroke="black" points="495,-245 495,-267 565,-267 565,-245 495,-245"/>
<text text-anchor="start" x="498" y="-253.2" font-family="Helvetica,sans-Serif" font-size="11.00">bigint[19]</text>
<polygon fill="none" stroke="black" points="295,-223 295,-245 495,-245 495,-223 295,-223"/>
<text text-anchor="start" x="315" y="-231.2" font-family="Helvetica,sans-Serif" font-size="11.00">lastmodified_date</text>
<polygon fill="none" stroke="black" points="495,-223 495,-245 565,-245 565,-223 495,-223"/>
<text text-anchor="start" x="498" y="-231.2" font-family="Helvetica,sans-Serif" font-size="11.00">datetime[19]</text>
<polygon fill="#ffffff" stroke="transparent" points="295,-205 295,-223 386,-223 386,-205 295,-205"/>
<polygon fill="none" stroke="black" points="295,-205 295,-223 386,-223 386,-205 295,-205"/>
<text text-anchor="start" x="298" y="-211.2" font-family="Helvetica,sans-Serif" font-size="11.00">&lt; 4</text>
<polygon fill="#ffffff" stroke="transparent" points="386,-205 386,-223 495,-223 495,-205 386,-205"/>
<polygon fill="none" stroke="black" points="386,-205 386,-223 495,-223 495,-205 386,-205"/>
<text text-anchor="start" x="459" y="-211.2" font-family="Helvetica,sans-Serif" font-size="11.00">0 rows</text>
<polygon fill="#ffffff" stroke="transparent" points="495,-205 495,-223 565,-223 565,-205 495,-205"/>
<polygon fill="none" stroke="black" points="495,-205 495,-223 565,-223 565,-205 495,-205"/>
<text text-anchor="start" x="546" y="-211.2" font-family="Helvetica,sans-Serif" font-size="11.00">3 &gt;</text>
<polygon fill="none" stroke="black" stroke-width="2" points="294,-204 294,-510 566,-510 566,-204 294,-204"/>
</a>
</g>
</g>
<!-- m_savings_account_transaction_tax_details&#45;&gt;m_tax_component -->
<g id="edge1" class="edge">
<title>m_savings_account_transaction_tax_details:w&#45;&gt;m_tax_component:e</title>
<path fill="none" stroke="black" d="M600.84,-476C589.41,-476 582.16,-476 566,-476"/>
<polygon fill="black" stroke="black" points="607.5,-476 615.5,-479.6 611.5,-476 615.5,-476 615.5,-476 615.5,-476 611.5,-476 615.5,-472.4 607.5,-476 607.5,-476"/>
<ellipse fill="none" stroke="black" cx="604.3" cy="-476" rx="3.2" ry="3.2"/>
</g>
<!-- m_appuser -->
<g id="node3" class="node">
<title>m_appuser</title>
<g id="a_node3"><a xlink:href="../../tables/m_appuser.html" xlink:title="m_appuser" target="_top">
<polygon fill="#ffffff" stroke="transparent" points="18.5,-37 18.5,-205 233.5,-205 233.5,-37 18.5,-37"/>
<polygon fill="#f5f5f5" stroke="transparent" points="19,-183 19,-205 234,-205 234,-183 19,-183"/>
<polygon fill="none" stroke="black" points="19,-183 19,-205 234,-205 234,-183 19,-183"/>
<text text-anchor="start" x="24" y="-192.2" font-family="Helvetica,sans-Serif" font-weight="bold" font-size="11.00">m_appuser</text>
<text text-anchor="start" x="199" y="-191.2" font-family="Helvetica,sans-Serif" font-size="11.00">[table]</text>
<polygon fill="none" stroke="black" points="19,-161 19,-183 234,-183 234,-161 19,-161"/>
<image xlink:href="../../images/primaryKeys.png" width="11px" height="12px" preserveAspectRatio="xMinYMin meet" x="24" y="-178"/>
<text text-anchor="start" x="39" y="-169.2" font-family="Helvetica,sans-Serif" font-size="11.00">id</text>
<polygon fill="#ffffff" stroke="transparent" points="19,-139 19,-161 234,-161 234,-139 19,-139"/>
<polygon fill="none" stroke="black" points="19,-139 19,-161 234,-161 234,-139 19,-139"/>
<image xlink:href="../../images/foreignKeys.png" width="11px" height="12px" preserveAspectRatio="xMinYMin meet" x="24" y="-156"/>
<text text-anchor="start" x="39" y="-147.2" font-family="Helvetica,sans-Serif" font-size="11.00">office_id</text>
<polygon fill="#ffffff" stroke="transparent" points="19,-117 19,-139 234,-139 234,-117 19,-117"/>
<polygon fill="none" stroke="black" points="19,-117 19,-139 234,-139 234,-117 19,-117"/>
<image xlink:href="../../images/foreignKeys.png" width="11px" height="12px" preserveAspectRatio="xMinYMin meet" x="24" y="-134"/>
<text text-anchor="start" x="39" y="-125.2" font-family="Helvetica,sans-Serif" font-size="11.00">staff_id</text>
<polygon fill="#ffffff" stroke="transparent" points="19,-95 19,-117 234,-117 234,-95 19,-95"/>
<polygon fill="none" stroke="black" points="19,-95 19,-117 234,-117 234,-95 19,-95"/>
<text text-anchor="start" x="39" y="-103.2" font-family="Helvetica,sans-Serif" font-size="11.00">username</text>
<polygon fill="#ffffff" stroke="transparent" points="19,-73 19,-95 234,-95 234,-73 19,-73"/>
<polygon fill="none" stroke="black" points="19,-73 19,-95 234,-95 234,-73 19,-73"/>
<text text-anchor="start" x="39" y="-81.2" font-family="Helvetica,sans-Serif" font-size="11.00">last_time_password_updated</text>
<polygon fill="none" stroke="black" points="19,-55 19,-73 234,-73 234,-55 19,-55"/>
<text text-anchor="start" x="22" y="-61.2" font-family="Helvetica,sans-Serif" font-size="11.00">...</text>
<polygon fill="#ffffff" stroke="transparent" points="19,-37 19,-55 104,-55 104,-37 19,-37"/>
<polygon fill="none" stroke="black" points="19,-37 19,-55 104,-55 104,-37 19,-37"/>
<text text-anchor="start" x="22" y="-43.2" font-family="Helvetica,sans-Serif" font-size="11.00">&lt; 2</text>
<polygon fill="#ffffff" stroke="transparent" points="104,-37 104,-55 174,-55 174,-37 104,-37"/>
<polygon fill="none" stroke="black" points="104,-37 104,-55 174,-55 174,-37 104,-37"/>
<text text-anchor="start" x="138" y="-43.2" font-family="Helvetica,sans-Serif" font-size="11.00">0 rows</text>
<polygon fill="#ffffff" stroke="transparent" points="174,-37 174,-55 234,-55 234,-37 174,-37"/>
<polygon fill="none" stroke="black" points="174,-37 174,-55 234,-55 234,-37 174,-37"/>
<text text-anchor="start" x="209" y="-43.2" font-family="Helvetica,sans-Serif" font-size="11.00">57 &gt;</text>
</a>
</g>
</g>
<!-- m_tax_component&#45;&gt;m_appuser -->
<g id="edge2" class="edge">
<title>m_tax_component:w&#45;&gt;m_appuser:e</title>
<path fill="none" stroke="black" d="M279.57,-296.84C242.65,-277.12 291.77,-172 235,-172"/>
<polygon fill="black" stroke="black" points="286.19,-298.29 293.23,-303.52 290.09,-299.14 294,-300 294,-300 294,-300 290.09,-299.14 294.77,-296.48 286.19,-298.29 286.19,-298.29"/>
<ellipse fill="none" stroke="black" cx="283.06" cy="-297.6" rx="3.2" ry="3.2"/>
</g>
<!-- m_tax_component&#45;&gt;m_appuser -->
<g id="edge5" class="edge">
<title>m_tax_component:w&#45;&gt;m_appuser:e</title>
<path fill="none" stroke="black" d="M279.91,-252.17C255.4,-235.74 274.74,-172 235,-172"/>
<polygon fill="black" stroke="black" points="286.28,-253.9 293.06,-259.47 290.14,-254.95 294,-256 294,-256 294,-256 290.14,-254.95 294.94,-252.53 286.28,-253.9 286.28,-253.9"/>
<ellipse fill="none" stroke="black" cx="283.19" cy="-253.06" rx="3.2" ry="3.2"/>
</g>
<!-- acc_gl_account -->
<g id="node4" class="node">
<title>acc_gl_account</title>
<g id="a_node4"><a xlink:href="../../tables/acc_gl_account.html" xlink:title="acc_gl_account" target="_top">
<polygon fill="#ffffff" stroke="transparent" points="8,-238 8,-384 244,-384 244,-238 8,-238"/>
<polygon fill="#f5f5f5" stroke="transparent" points="8,-362 8,-384 244,-384 244,-362 8,-362"/>
<polygon fill="none" stroke="black" points="8,-362 8,-384 244,-384 244,-362 8,-362"/>
<text text-anchor="start" x="13" y="-371.2" font-family="Helvetica,sans-Serif" font-weight="bold" font-size="11.00">acc_gl_account</text>
<text text-anchor="start" x="209" y="-370.2" font-family="Helvetica,sans-Serif" font-size="11.00">[table]</text>
<polygon fill="none" stroke="black" points="8,-340 8,-362 244,-362 244,-340 8,-340"/>
<image xlink:href="../../images/primaryKeys.png" width="11px" height="12px" preserveAspectRatio="xMinYMin meet" x="13" y="-357"/>
<text text-anchor="start" x="28" y="-348.2" font-family="Helvetica,sans-Serif" font-size="11.00">id</text>
<polygon fill="#ffffff" stroke="transparent" points="8,-318 8,-340 244,-340 244,-318 8,-318"/>
<polygon fill="none" stroke="black" points="8,-318 8,-340 244,-340 244,-318 8,-318"/>
<image xlink:href="../../images/foreignKeys.png" width="11px" height="12px" preserveAspectRatio="xMinYMin meet" x="13" y="-335"/>
<text text-anchor="start" x="28" y="-326.2" font-family="Helvetica,sans-Serif" font-size="11.00">parent_id</text>
<polygon fill="#ffffff" stroke="transparent" points="8,-296 8,-318 244,-318 244,-296 8,-296"/>
<polygon fill="none" stroke="black" points="8,-296 8,-318 244,-318 244,-296 8,-296"/>
<text text-anchor="start" x="28" y="-304.2" font-family="Helvetica,sans-Serif" font-size="11.00">gl_code</text>
<polygon fill="#ffffff" stroke="transparent" points="8,-274 8,-296 244,-296 244,-274 8,-274"/>
<polygon fill="none" stroke="black" points="8,-274 8,-296 244,-296 244,-274 8,-274"/>
<image xlink:href="../../images/foreignKeys.png" width="11px" height="12px" preserveAspectRatio="xMinYMin meet" x="13" y="-291"/>
<text text-anchor="start" x="28" y="-282.2" font-family="Helvetica,sans-Serif" font-size="11.00">tag_id</text>
<polygon fill="none" stroke="black" points="8,-256 8,-274 244,-274 244,-256 8,-256"/>
<text text-anchor="start" x="11" y="-262.2" font-family="Helvetica,sans-Serif" font-size="11.00">...</text>
<polygon fill="#ffffff" stroke="transparent" points="8,-238 8,-256 103,-256 103,-238 8,-238"/>
<polygon fill="none" stroke="black" points="8,-238 8,-256 103,-256 103,-238 8,-238"/>
<text text-anchor="start" x="11" y="-244.2" font-family="Helvetica,sans-Serif" font-size="11.00">&lt; 2</text>
<polygon fill="#ffffff" stroke="transparent" points="103,-238 103,-256 179,-256 179,-238 103,-238"/>
<polygon fill="none" stroke="black" points="103,-238 103,-256 179,-256 179,-238 103,-238"/>
<text text-anchor="start" x="143" y="-244.2" font-family="Helvetica,sans-Serif" font-size="11.00">0 rows</text>
<polygon fill="#ffffff" stroke="transparent" points="179,-238 179,-256 244,-256 244,-238 179,-238"/>
<polygon fill="none" stroke="black" points="179,-238 179,-256 244,-256 244,-238 179,-238"/>
<text text-anchor="start" x="219" y="-244.2" font-family="Helvetica,sans-Serif" font-size="11.00">14 &gt;</text>
</a>
</g>
</g>
<!-- m_tax_component&#45;&gt;acc_gl_account -->
<g id="edge3" class="edge">
<title>m_tax_component:w&#45;&gt;acc_gl_account:e</title>
<path fill="none" stroke="black" d="M279.43,-345.22C268.14,-347.22 261.16,-351 245,-351"/>
<polygon fill="black" stroke="black" points="286.03,-344.67 294.3,-347.59 290.01,-344.33 294,-344 294,-344 294,-344 290.01,-344.33 293.7,-340.41 286.03,-344.67 286.03,-344.67"/>
<ellipse fill="none" stroke="black" cx="282.84" cy="-344.93" rx="3.2" ry="3.2"/>
</g>
<!-- m_tax_component&#45;&gt;acc_gl_account -->
<g id="edge4" class="edge">
<title>m_tax_component:w&#45;&gt;acc_gl_account:e</title>
<path fill="none" stroke="black" d="M280.12,-383.46C267.58,-373.58 266.32,-351 245,-351"/>
<polygon fill="black" stroke="black" points="286.4,-385.51 292.88,-391.42 290.2,-386.76 294,-388 294,-388 294,-388 290.2,-386.76 295.12,-384.58 286.4,-385.51 286.4,-385.51"/>
<ellipse fill="none" stroke="black" cx="283.35" cy="-384.52" rx="3.2" ry="3.2"/>
</g>
<!-- m_tax_component_history -->
<g id="node5" class="node">
<title>m_tax_component_history</title>
<g id="a_node5"><a xlink:href="../../tables/m_tax_component_history.html" xlink:title="m_tax_component_history" target="_top">
<polygon fill="#ffffff" stroke="transparent" points="674.5,-54 674.5,-200 870.5,-200 870.5,-54 674.5,-54"/>
<polygon fill="#f5f5f5" stroke="transparent" points="674.5,-178 674.5,-200 870.5,-200 870.5,-178 674.5,-178"/>
<polygon fill="none" stroke="black" points="674.5,-178 674.5,-200 870.5,-200 870.5,-178 674.5,-178"/>
<text text-anchor="start" x="679.5" y="-187.2" font-family="Helvetica,sans-Serif" font-weight="bold" font-size="11.00">m_tax_component_history</text>
<text text-anchor="start" x="835.5" y="-186.2" font-family="Helvetica,sans-Serif" font-size="11.00">[table]</text>
<polygon fill="none" stroke="black" points="674.5,-156 674.5,-178 870.5,-178 870.5,-156 674.5,-156"/>
<image xlink:href="../../images/primaryKeys.png" width="11px" height="12px" preserveAspectRatio="xMinYMin meet" x="679.5" y="-173"/>
<text text-anchor="start" x="694.5" y="-164.2" font-family="Helvetica,sans-Serif" font-size="11.00">id</text>
<polygon fill="#ffffff" stroke="transparent" points="674.5,-134 674.5,-156 870.5,-156 870.5,-134 674.5,-134"/>
<polygon fill="none" stroke="black" points="674.5,-134 674.5,-156 870.5,-156 870.5,-134 674.5,-134"/>
<image xlink:href="../../images/foreignKeys.png" width="11px" height="12px" preserveAspectRatio="xMinYMin meet" x="679.5" y="-151"/>
<text text-anchor="start" x="694.5" y="-142.2" font-family="Helvetica,sans-Serif" font-size="11.00">tax_component_id</text>
<polygon fill="#ffffff" stroke="transparent" points="674.5,-112 674.5,-134 870.5,-134 870.5,-112 674.5,-112"/>
<polygon fill="none" stroke="black" points="674.5,-112 674.5,-134 870.5,-134 870.5,-112 674.5,-112"/>
<image xlink:href="../../images/foreignKeys.png" width="11px" height="12px" preserveAspectRatio="xMinYMin meet" x="679.5" y="-129"/>
<text text-anchor="start" x="694.5" y="-120.2" font-family="Helvetica,sans-Serif" font-size="11.00">createdby_id</text>
<polygon fill="#ffffff" stroke="transparent" points="674.5,-90 674.5,-112 870.5,-112 870.5,-90 674.5,-90"/>
<polygon fill="none" stroke="black" points="674.5,-90 674.5,-112 870.5,-112 870.5,-90 674.5,-90"/>
<image xlink:href="../../images/foreignKeys.png" width="11px" height="12px" preserveAspectRatio="xMinYMin meet" x="679.5" y="-107"/>
<text text-anchor="start" x="694.5" y="-98.2" font-family="Helvetica,sans-Serif" font-size="11.00">lastmodifiedby_id</text>
<polygon fill="none" stroke="black" points="674.5,-72 674.5,-90 870.5,-90 870.5,-72 674.5,-72"/>
<text text-anchor="start" x="677.5" y="-78.2" font-family="Helvetica,sans-Serif" font-size="11.00">...</text>
<polygon fill="#ffffff" stroke="transparent" points="674.5,-54 674.5,-72 757.5,-72 757.5,-54 674.5,-54"/>
<polygon fill="none" stroke="black" points="674.5,-54 674.5,-72 757.5,-72 757.5,-54 674.5,-54"/>
<text text-anchor="start" x="677.5" y="-60.2" font-family="Helvetica,sans-Serif" font-size="11.00">&lt; 3</text>
<polygon fill="#ffffff" stroke="transparent" points="757.5,-54 757.5,-72 826.5,-72 826.5,-54 757.5,-54"/>
<polygon fill="none" stroke="black" points="757.5,-54 757.5,-72 826.5,-72 826.5,-54 757.5,-54"/>
<text text-anchor="start" x="790.5" y="-60.2" font-family="Helvetica,sans-Serif" font-size="11.00">0 rows</text>
<polygon fill="#ffffff" stroke="transparent" points="826.5,-54 826.5,-72 870.5,-72 870.5,-54 826.5,-54"/>
<polygon fill="none" stroke="black" points="826.5,-54 826.5,-72 870.5,-72 870.5,-54 826.5,-54"/>
<text text-anchor="start" x="860.5" y="-60.2" font-family="Helvetica,sans-Serif" font-size="11.00"> &#160;</text>
</a>
</g>
</g>
<!-- m_tax_component_history&#45;&gt;m_tax_component -->
<g id="edge8" class="edge">
<title>m_tax_component_history:w&#45;&gt;m_tax_component:e</title>
<path fill="none" stroke="black" d="M658.82,-146.49C630.48,-152.88 624.21,-179.04 608,-211 581.03,-264.18 625.62,-476 566,-476"/>
<polygon fill="black" stroke="black" points="665.54,-145.81 673.86,-148.58 669.52,-145.4 673.5,-145 673.5,-145 673.5,-145 669.52,-145.4 673.14,-141.42 665.54,-145.81 665.54,-145.81"/>
<ellipse fill="none" stroke="black" cx="662.36" cy="-146.13" rx="3.2" ry="3.2"/>
</g>
<!-- m_tax_component_history&#45;&gt;m_appuser -->
<g id="edge6" class="edge">
<title>m_tax_component_history:w&#45;&gt;m_appuser:e</title>
<path fill="none" stroke="black" d="M658.62,-122.92C497.59,-121.24 445.58,-93.27 285,-142 260.2,-149.53 260.92,-172 235,-172"/>
<polygon fill="black" stroke="black" points="665.5,-122.96 673.48,-126.6 669.5,-122.98 673.5,-123 673.5,-123 673.5,-123 669.5,-122.98 673.52,-119.4 665.5,-122.96 665.5,-122.96"/>
<ellipse fill="none" stroke="black" cx="662.3" cy="-122.94" rx="3.2" ry="3.2"/>
</g>
<!-- m_tax_component_history&#45;&gt;m_appuser -->
<g id="edge7" class="edge">
<title>m_tax_component_history:w&#45;&gt;m_appuser:e</title>
<path fill="none" stroke="black" d="M659.09,-100.84C497.27,-97.3 435.55,-35.85 285,-110 253.24,-125.64 270.4,-172 235,-172"/>
<polygon fill="black" stroke="black" points="665.5,-100.91 673.46,-104.6 669.5,-100.96 673.5,-101 673.5,-101 673.5,-101 669.5,-100.96 673.54,-97.4 665.5,-100.91 665.5,-100.91"/>
<ellipse fill="none" stroke="black" cx="662.3" cy="-100.88" rx="3.2" ry="3.2"/>
</g>
<!-- m_tax_group_mappings -->
<g id="node6" class="node">
<title>m_tax_group_mappings</title>
<g id="a_node6"><a xlink:href="../../tables/m_tax_group_mappings.html" xlink:title="m_tax_group_mappings" target="_top">
<polygon fill="#ffffff" stroke="transparent" points="683,-221 683,-389 862,-389 862,-221 683,-221"/>
<polygon fill="#f5f5f5" stroke="transparent" points="683.5,-367 683.5,-389 862.5,-389 862.5,-367 683.5,-367"/>
<polygon fill="none" stroke="black" points="683.5,-367 683.5,-389 862.5,-389 862.5,-367 683.5,-367"/>
<text text-anchor="start" x="688.5" y="-376.2" font-family="Helvetica,sans-Serif" font-weight="bold" font-size="11.00">m_tax_group_mappings</text>
<text text-anchor="start" x="827.5" y="-375.2" font-family="Helvetica,sans-Serif" font-size="11.00">[table]</text>
<polygon fill="none" stroke="black" points="683.5,-345 683.5,-367 862.5,-367 862.5,-345 683.5,-345"/>
<image xlink:href="../../images/primaryKeys.png" width="11px" height="12px" preserveAspectRatio="xMinYMin meet" x="688.5" y="-362"/>
<text text-anchor="start" x="703.5" y="-353.2" font-family="Helvetica,sans-Serif" font-size="11.00">id</text>
<polygon fill="#ffffff" stroke="transparent" points="683.5,-323 683.5,-345 862.5,-345 862.5,-323 683.5,-323"/>
<polygon fill="none" stroke="black" points="683.5,-323 683.5,-345 862.5,-345 862.5,-323 683.5,-323"/>
<image xlink:href="../../images/foreignKeys.png" width="11px" height="12px" preserveAspectRatio="xMinYMin meet" x="688.5" y="-340"/>
<text text-anchor="start" x="703.5" y="-331.2" font-family="Helvetica,sans-Serif" font-size="11.00">tax_group_id</text>
<polygon fill="#ffffff" stroke="transparent" points="683.5,-301 683.5,-323 862.5,-323 862.5,-301 683.5,-301"/>
<polygon fill="none" stroke="black" points="683.5,-301 683.5,-323 862.5,-323 862.5,-301 683.5,-301"/>
<image xlink:href="../../images/foreignKeys.png" width="11px" height="12px" preserveAspectRatio="xMinYMin meet" x="688.5" y="-318"/>
<text text-anchor="start" x="703.5" y="-309.2" font-family="Helvetica,sans-Serif" font-size="11.00">tax_component_id</text>
<polygon fill="#ffffff" stroke="transparent" points="683.5,-279 683.5,-301 862.5,-301 862.5,-279 683.5,-279"/>
<polygon fill="none" stroke="black" points="683.5,-279 683.5,-301 862.5,-301 862.5,-279 683.5,-279"/>
<image xlink:href="../../images/foreignKeys.png" width="11px" height="12px" preserveAspectRatio="xMinYMin meet" x="688.5" y="-296"/>
<text text-anchor="start" x="703.5" y="-287.2" font-family="Helvetica,sans-Serif" font-size="11.00">createdby_id</text>
<polygon fill="#ffffff" stroke="transparent" points="683.5,-257 683.5,-279 862.5,-279 862.5,-257 683.5,-257"/>
<polygon fill="none" stroke="black" points="683.5,-257 683.5,-279 862.5,-279 862.5,-257 683.5,-257"/>
<image xlink:href="../../images/foreignKeys.png" width="11px" height="12px" preserveAspectRatio="xMinYMin meet" x="688.5" y="-274"/>
<text text-anchor="start" x="703.5" y="-265.2" font-family="Helvetica,sans-Serif" font-size="11.00">lastmodifiedby_id</text>
<polygon fill="none" stroke="black" points="683.5,-239 683.5,-257 862.5,-257 862.5,-239 683.5,-239"/>
<text text-anchor="start" x="686.5" y="-245.2" font-family="Helvetica,sans-Serif" font-size="11.00">...</text>
<polygon fill="#ffffff" stroke="transparent" points="683.5,-221 683.5,-239 757.5,-239 757.5,-221 683.5,-221"/>
<polygon fill="none" stroke="black" points="683.5,-221 683.5,-239 757.5,-239 757.5,-221 683.5,-221"/>
<text text-anchor="start" x="686.5" y="-227.2" font-family="Helvetica,sans-Serif" font-size="11.00">&lt; 4</text>
<polygon fill="#ffffff" stroke="transparent" points="757.5,-221 757.5,-239 822.5,-239 822.5,-221 757.5,-221"/>
<polygon fill="none" stroke="black" points="757.5,-221 757.5,-239 822.5,-239 822.5,-221 757.5,-221"/>
<text text-anchor="start" x="786.5" y="-227.2" font-family="Helvetica,sans-Serif" font-size="11.00">0 rows</text>
<polygon fill="#ffffff" stroke="transparent" points="822.5,-221 822.5,-239 862.5,-239 862.5,-221 822.5,-221"/>
<polygon fill="none" stroke="black" points="822.5,-221 822.5,-239 862.5,-239 862.5,-221 822.5,-221"/>
<text text-anchor="start" x="852.5" y="-227.2" font-family="Helvetica,sans-Serif" font-size="11.00"> &#160;</text>
</a>
</g>
</g>
<!-- m_tax_group_mappings&#45;&gt;m_tax_component -->
<g id="edge11" class="edge">
<title>m_tax_group_mappings:w&#45;&gt;m_tax_component:e</title>
<path fill="none" stroke="black" d="M673.15,-323.02C646.08,-359.79 570.7,-476 566,-476"/>
<polygon fill="black" stroke="black" points="677.32,-318.1 685.24,-314.33 679.91,-315.05 682.5,-312 682.5,-312 682.5,-312 679.91,-315.05 679.76,-309.67 677.32,-318.1 677.32,-318.1"/>
<ellipse fill="none" stroke="black" cx="675.25" cy="-320.54" rx="3.2" ry="3.2"/>
</g>
<!-- m_tax_group_mappings&#45;&gt;m_appuser -->
<g id="edge9" class="edge">
<title>m_tax_group_mappings:w&#45;&gt;m_appuser:e</title>
<path fill="none" stroke="black" d="M667.9,-288.55C620.33,-278.23 629.34,-215.84 575,-193 505.21,-163.67 310.7,-172 235,-172"/>
<polygon fill="black" stroke="black" points="674.54,-289.21 682.14,-293.58 678.52,-289.6 682.5,-290 682.5,-290 682.5,-290 678.52,-289.6 682.86,-286.42 674.54,-289.21 674.54,-289.21"/>
<ellipse fill="none" stroke="black" cx="671.36" cy="-288.89" rx="3.2" ry="3.2"/>
</g>
<!-- m_tax_group_mappings&#45;&gt;m_appuser -->
<g id="edge10" class="edge">
<title>m_tax_group_mappings:w&#45;&gt;m_appuser:e</title>
<path fill="none" stroke="black" d="M668.15,-266.69C639.48,-260.9 633.56,-236.8 608,-211 590.8,-193.63 596.86,-177.93 575,-167 459.72,-109.36 413.73,-160.58 285,-167 262.69,-168.11 257.33,-172 235,-172"/>
<polygon fill="black" stroke="black" points="674.53,-267.27 682.17,-271.59 678.52,-267.64 682.5,-268 682.5,-268 682.5,-268 678.52,-267.64 682.83,-264.41 674.53,-267.27 674.53,-267.27"/>
<ellipse fill="none" stroke="black" cx="671.35" cy="-266.98" rx="3.2" ry="3.2"/>
</g>
</g>
</svg>
