<?xml version="1.0" encoding="UTF-8" standalone="no"?>
<!DOCTYPE svg PUBLIC "-//W3C//DTD SVG 1.1//EN"
 "http://www.w3.org/Graphics/SVG/1.1/DTD/svg11.dtd">
<!-- Generated by graphviz version 2.43.0 (0)
 -->
<!-- Title: oneDegreeRelationshipsDiagram Pages: 1 -->
<svg width="1250pt" height="625pt"
 viewBox="0.00 0.00 1250.00 625.00" xmlns="http://www.w3.org/2000/svg" xmlns:xlink="http://www.w3.org/1999/xlink">
<g id="graph0" class="graph" transform="scale(1 1) rotate(0) translate(4 621)">
<title>oneDegreeRelationshipsDiagram</title>
<polygon fill="#ffffff" stroke="transparent" points="-4,4 -4,-621 1246,-621 1246,4 -4,4"/>
<text text-anchor="middle" x="71.5" y="-7.2" font-family="Helvetica,sans-Serif" font-size="11.00">Generated by SchemaSpy</text>
<!-- m_charge -->
<g id="node1" class="node">
<title>m_charge</title>
<g id="a_node1"><a xlink:href="../../tables/m_charge.html" xlink:title="m_charge" target="_top">
<polygon fill="#ffffff" stroke="transparent" points="568,-445 568,-613 824,-613 824,-445 568,-445"/>
<polygon fill="#f5f5f5" stroke="transparent" points="568,-591 568,-613 824,-613 824,-591 568,-591"/>
<polygon fill="none" stroke="black" points="568,-591 568,-613 824,-613 824,-591 568,-591"/>
<text text-anchor="start" x="573" y="-600.2" font-family="Helvetica,sans-Serif" font-weight="bold" font-size="11.00">m_charge</text>
<text text-anchor="start" x="789" y="-599.2" font-family="Helvetica,sans-Serif" font-size="11.00">[table]</text>
<polygon fill="none" stroke="black" points="568,-569 568,-591 824,-591 824,-569 568,-569"/>
<image xlink:href="../../images/primaryKeys.png" width="11px" height="12px" preserveAspectRatio="xMinYMin meet" x="573" y="-586"/>
<text text-anchor="start" x="588" y="-577.2" font-family="Helvetica,sans-Serif" font-size="11.00">id</text>
<polygon fill="#ffffff" stroke="transparent" points="568,-547 568,-569 824,-569 824,-547 568,-547"/>
<polygon fill="none" stroke="black" points="568,-547 568,-569 824,-569 824,-547 568,-547"/>
<text text-anchor="start" x="588" y="-555.2" font-family="Helvetica,sans-Serif" font-size="11.00">name</text>
<polygon fill="#ffffff" stroke="transparent" points="568,-525 568,-547 824,-547 824,-525 568,-525"/>
<polygon fill="none" stroke="black" points="568,-525 568,-547 824,-547 824,-525 568,-525"/>
<image xlink:href="../../images/foreignKeys.png" width="11px" height="12px" preserveAspectRatio="xMinYMin meet" x="573" y="-542"/>
<text text-anchor="start" x="588" y="-533.2" font-family="Helvetica,sans-Serif" font-size="11.00">payment_type_id</text>
<polygon fill="#ffffff" stroke="transparent" points="568,-503 568,-525 824,-525 824,-503 568,-503"/>
<polygon fill="none" stroke="black" points="568,-503 568,-525 824,-525 824,-503 568,-503"/>
<image xlink:href="../../images/foreignKeys.png" width="11px" height="12px" preserveAspectRatio="xMinYMin meet" x="573" y="-520"/>
<text text-anchor="start" x="588" y="-511.2" font-family="Helvetica,sans-Serif" font-size="11.00">income_or_liability_account_id</text>
<polygon fill="#ffffff" stroke="transparent" points="568,-481 568,-503 824,-503 824,-481 568,-481"/>
<polygon fill="none" stroke="black" points="568,-481 568,-503 824,-503 824,-481 568,-481"/>
<image xlink:href="../../images/foreignKeys.png" width="11px" height="12px" preserveAspectRatio="xMinYMin meet" x="573" y="-498"/>
<text text-anchor="start" x="588" y="-489.2" font-family="Helvetica,sans-Serif" font-size="11.00">tax_group_id</text>
<polygon fill="none" stroke="black" points="568,-463 568,-481 824,-481 824,-463 568,-463"/>
<text text-anchor="start" x="571" y="-469.2" font-family="Helvetica,sans-Serif" font-size="11.00">...</text>
<polygon fill="#ffffff" stroke="transparent" points="568,-445 568,-463 676,-463 676,-445 568,-445"/>
<polygon fill="none" stroke="black" points="568,-445 568,-463 676,-463 676,-445 568,-445"/>
<text text-anchor="start" x="571" y="-451.2" font-family="Helvetica,sans-Serif" font-size="11.00">&lt; 3</text>
<polygon fill="#ffffff" stroke="transparent" points="676,-445 676,-463 758,-463 758,-445 676,-445"/>
<polygon fill="none" stroke="black" points="676,-445 676,-463 758,-463 758,-445 676,-445"/>
<text text-anchor="start" x="722" y="-451.2" font-family="Helvetica,sans-Serif" font-size="11.00">0 rows</text>
<polygon fill="#ffffff" stroke="transparent" points="758,-445 758,-463 824,-463 824,-445 758,-445"/>
<polygon fill="none" stroke="black" points="758,-445 758,-463 824,-463 824,-445 758,-445"/>
<text text-anchor="start" x="805" y="-451.2" font-family="Helvetica,sans-Serif" font-size="11.00">9 &gt;</text>
</a>
</g>
</g>
<!-- m_tax_group -->
<g id="node2" class="node">
<title>m_tax_group</title>
<g id="a_node2"><a xlink:href="../../tables/m_tax_group.html" xlink:title="m_tax_group" target="_top">
<polygon fill="#ffffff" stroke="transparent" points="272,-158 272,-334 484,-334 484,-158 272,-158"/>
<polygon fill="#f5f5f5" stroke="transparent" points="274,-310 274,-332 482,-332 482,-310 274,-310"/>
<polygon fill="none" stroke="black" points="274,-310 274,-332 482,-332 482,-310 274,-310"/>
<text text-anchor="start" x="279" y="-319.2" font-family="Helvetica,sans-Serif" font-weight="bold" font-size="11.00">m_tax_group</text>
<text text-anchor="start" x="447" y="-318.2" font-family="Helvetica,sans-Serif" font-size="11.00">[table]</text>
<polygon fill="none" stroke="black" points="274,-288 274,-310 416,-310 416,-288 274,-288"/>
<image xlink:href="../../images/primaryKeys.png" width="11px" height="12px" preserveAspectRatio="xMinYMin meet" x="279" y="-305"/>
<text text-anchor="start" x="294" y="-296.2" font-family="Helvetica,sans-Serif" font-size="11.00">id</text>
<polygon fill="none" stroke="black" points="416,-288 416,-310 482,-310 482,-288 416,-288"/>
<text text-anchor="start" x="419" y="-296.2" font-family="Helvetica,sans-Serif" font-size="11.00">bigint[19]</text>
<polygon fill="none" stroke="black" points="274,-266 274,-288 416,-288 416,-266 274,-266"/>
<text text-anchor="start" x="294" y="-274.2" font-family="Helvetica,sans-Serif" font-size="11.00">name</text>
<polygon fill="none" stroke="black" points="416,-266 416,-288 482,-288 482,-266 416,-266"/>
<text text-anchor="start" x="419" y="-274.2" font-family="Helvetica,sans-Serif" font-size="11.00">varchar[50]</text>
<polygon fill="#ffffff" stroke="transparent" points="274,-244 274,-266 416,-266 416,-244 274,-244"/>
<polygon fill="none" stroke="black" points="274,-244 274,-266 416,-266 416,-244 274,-244"/>
<image xlink:href="../../images/foreignKeys.png" width="11px" height="12px" preserveAspectRatio="xMinYMin meet" x="279" y="-261"/>
<text text-anchor="start" x="294" y="-252.2" font-family="Helvetica,sans-Serif" font-size="11.00">createdby_id</text>
<polygon fill="none" stroke="black" points="416,-244 416,-266 482,-266 482,-244 416,-244"/>
<text text-anchor="start" x="419" y="-252.2" font-family="Helvetica,sans-Serif" font-size="11.00">bigint[19]</text>
<polygon fill="none" stroke="black" points="274,-222 274,-244 416,-244 416,-222 274,-222"/>
<text text-anchor="start" x="294" y="-230.2" font-family="Helvetica,sans-Serif" font-size="11.00">created_date</text>
<polygon fill="none" stroke="black" points="416,-222 416,-244 482,-244 482,-222 416,-222"/>
<text text-anchor="start" x="419" y="-230.2" font-family="Helvetica,sans-Serif" font-size="11.00">datetime[19]</text>
<polygon fill="#ffffff" stroke="transparent" points="274,-200 274,-222 416,-222 416,-200 274,-200"/>
<polygon fill="none" stroke="black" points="274,-200 274,-222 416,-222 416,-200 274,-200"/>
<image xlink:href="../../images/foreignKeys.png" width="11px" height="12px" preserveAspectRatio="xMinYMin meet" x="279" y="-217"/>
<text text-anchor="start" x="294" y="-208.2" font-family="Helvetica,sans-Serif" font-size="11.00">lastmodifiedby_id</text>
<polygon fill="none" stroke="black" points="416,-200 416,-222 482,-222 482,-200 416,-200"/>
<text text-anchor="start" x="419" y="-208.2" font-family="Helvetica,sans-Serif" font-size="11.00">bigint[19]</text>
<polygon fill="none" stroke="black" points="274,-178 274,-200 416,-200 416,-178 274,-178"/>
<text text-anchor="start" x="294" y="-186.2" font-family="Helvetica,sans-Serif" font-size="11.00">lastmodified_date</text>
<polygon fill="none" stroke="black" points="416,-178 416,-200 482,-200 482,-178 416,-178"/>
<text text-anchor="start" x="419" y="-186.2" font-family="Helvetica,sans-Serif" font-size="11.00">datetime[19]</text>
<polygon fill="#ffffff" stroke="transparent" points="274,-160 274,-178 336,-178 336,-160 274,-160"/>
<polygon fill="none" stroke="black" points="274,-160 274,-178 336,-178 336,-160 274,-160"/>
<text text-anchor="start" x="277" y="-166.2" font-family="Helvetica,sans-Serif" font-size="11.00">&lt; 2</text>
<polygon fill="#ffffff" stroke="transparent" points="336,-160 336,-178 416,-178 416,-160 336,-160"/>
<polygon fill="none" stroke="black" points="336,-160 336,-178 416,-178 416,-160 336,-160"/>
<text text-anchor="start" x="380" y="-166.2" font-family="Helvetica,sans-Serif" font-size="11.00">0 rows</text>
<polygon fill="#ffffff" stroke="transparent" points="416,-160 416,-178 482,-178 482,-160 416,-160"/>
<polygon fill="none" stroke="black" points="416,-160 416,-178 482,-178 482,-160 416,-160"/>
<text text-anchor="start" x="463" y="-166.2" font-family="Helvetica,sans-Serif" font-size="11.00">4 &gt;</text>
<polygon fill="none" stroke="black" stroke-width="2" points="273,-159 273,-333 483,-333 483,-159 273,-159"/>
</a>
</g>
</g>
<!-- m_charge&#45;&gt;m_tax_group -->
<g id="edge1" class="edge">
<title>m_charge:w&#45;&gt;m_tax_group:e</title>
<path fill="none" stroke="black" d="M552.65,-489.15C536.27,-481.19 536.52,-457.83 525,-435 496.5,-378.52 546.26,-299 483,-299"/>
<polygon fill="black" stroke="black" points="559.15,-490.44 566.3,-495.53 563.08,-491.22 567,-492 567,-492 567,-492 563.08,-491.22 567.7,-488.47 559.15,-490.44 559.15,-490.44"/>
<ellipse fill="none" stroke="black" cx="556.02" cy="-489.82" rx="3.2" ry="3.2"/>
</g>
<!-- m_appuser -->
<g id="node5" class="node">
<title>m_appuser</title>
<g id="a_node5"><a xlink:href="../../tables/m_appuser.html" xlink:title="m_appuser" target="_top">
<polygon fill="#ffffff" stroke="transparent" points="8,-37 8,-205 223,-205 223,-37 8,-37"/>
<polygon fill="#f5f5f5" stroke="transparent" points="8.5,-183 8.5,-205 223.5,-205 223.5,-183 8.5,-183"/>
<polygon fill="none" stroke="black" points="8.5,-183 8.5,-205 223.5,-205 223.5,-183 8.5,-183"/>
<text text-anchor="start" x="13.5" y="-192.2" font-family="Helvetica,sans-Serif" font-weight="bold" font-size="11.00">m_appuser</text>
<text text-anchor="start" x="188.5" y="-191.2" font-family="Helvetica,sans-Serif" font-size="11.00">[table]</text>
<polygon fill="none" stroke="black" points="8.5,-161 8.5,-183 223.5,-183 223.5,-161 8.5,-161"/>
<image xlink:href="../../images/primaryKeys.png" width="11px" height="12px" preserveAspectRatio="xMinYMin meet" x="13.5" y="-178"/>
<text text-anchor="start" x="28.5" y="-169.2" font-family="Helvetica,sans-Serif" font-size="11.00">id</text>
<polygon fill="#ffffff" stroke="transparent" points="8.5,-139 8.5,-161 223.5,-161 223.5,-139 8.5,-139"/>
<polygon fill="none" stroke="black" points="8.5,-139 8.5,-161 223.5,-161 223.5,-139 8.5,-139"/>
<image xlink:href="../../images/foreignKeys.png" width="11px" height="12px" preserveAspectRatio="xMinYMin meet" x="13.5" y="-156"/>
<text text-anchor="start" x="28.5" y="-147.2" font-family="Helvetica,sans-Serif" font-size="11.00">office_id</text>
<polygon fill="#ffffff" stroke="transparent" points="8.5,-117 8.5,-139 223.5,-139 223.5,-117 8.5,-117"/>
<polygon fill="none" stroke="black" points="8.5,-117 8.5,-139 223.5,-139 223.5,-117 8.5,-117"/>
<image xlink:href="../../images/foreignKeys.png" width="11px" height="12px" preserveAspectRatio="xMinYMin meet" x="13.5" y="-134"/>
<text text-anchor="start" x="28.5" y="-125.2" font-family="Helvetica,sans-Serif" font-size="11.00">staff_id</text>
<polygon fill="#ffffff" stroke="transparent" points="8.5,-95 8.5,-117 223.5,-117 223.5,-95 8.5,-95"/>
<polygon fill="none" stroke="black" points="8.5,-95 8.5,-117 223.5,-117 223.5,-95 8.5,-95"/>
<text text-anchor="start" x="28.5" y="-103.2" font-family="Helvetica,sans-Serif" font-size="11.00">username</text>
<polygon fill="#ffffff" stroke="transparent" points="8.5,-73 8.5,-95 223.5,-95 223.5,-73 8.5,-73"/>
<polygon fill="none" stroke="black" points="8.5,-73 8.5,-95 223.5,-95 223.5,-73 8.5,-73"/>
<text text-anchor="start" x="28.5" y="-81.2" font-family="Helvetica,sans-Serif" font-size="11.00">last_time_password_updated</text>
<polygon fill="none" stroke="black" points="8.5,-55 8.5,-73 223.5,-73 223.5,-55 8.5,-55"/>
<text text-anchor="start" x="11.5" y="-61.2" font-family="Helvetica,sans-Serif" font-size="11.00">...</text>
<polygon fill="#ffffff" stroke="transparent" points="8.5,-37 8.5,-55 93.5,-55 93.5,-37 8.5,-37"/>
<polygon fill="none" stroke="black" points="8.5,-37 8.5,-55 93.5,-55 93.5,-37 8.5,-37"/>
<text text-anchor="start" x="11.5" y="-43.2" font-family="Helvetica,sans-Serif" font-size="11.00">&lt; 2</text>
<polygon fill="#ffffff" stroke="transparent" points="93.5,-37 93.5,-55 163.5,-55 163.5,-37 93.5,-37"/>
<polygon fill="none" stroke="black" points="93.5,-37 93.5,-55 163.5,-55 163.5,-37 93.5,-37"/>
<text text-anchor="start" x="127.5" y="-43.2" font-family="Helvetica,sans-Serif" font-size="11.00">0 rows</text>
<polygon fill="#ffffff" stroke="transparent" points="163.5,-37 163.5,-55 223.5,-55 223.5,-37 163.5,-37"/>
<polygon fill="none" stroke="black" points="163.5,-37 163.5,-55 223.5,-55 223.5,-37 163.5,-37"/>
<text text-anchor="start" x="198.5" y="-43.2" font-family="Helvetica,sans-Serif" font-size="11.00">57 &gt;</text>
</a>
</g>
</g>
<!-- m_tax_group&#45;&gt;m_appuser -->
<g id="edge5" class="edge">
<title>m_tax_group:w&#45;&gt;m_appuser:e</title>
<path fill="none" stroke="black" d="M259.26,-250.54C239.09,-233.3 261.22,-172 224.5,-172"/>
<polygon fill="black" stroke="black" points="265.39,-252.53 271.89,-258.42 269.2,-253.76 273,-255 273,-255 273,-255 269.2,-253.76 274.11,-251.58 265.39,-252.53 265.39,-252.53"/>
<ellipse fill="none" stroke="black" cx="262.35" cy="-251.54" rx="3.2" ry="3.2"/>
</g>
<!-- m_tax_group&#45;&gt;m_appuser -->
<g id="edge6" class="edge">
<title>m_tax_group:w&#45;&gt;m_appuser:e</title>
<path fill="none" stroke="black" d="M259.08,-206.22C246.67,-195.8 246.11,-172 224.5,-172"/>
<polygon fill="black" stroke="black" points="265.43,-208.4 271.83,-214.4 269.22,-209.7 273,-211 273,-211 273,-211 269.22,-209.7 274.17,-207.6 265.43,-208.4 265.43,-208.4"/>
<ellipse fill="none" stroke="black" cx="262.41" cy="-207.36" rx="3.2" ry="3.2"/>
</g>
<!-- m_savings_account -->
<g id="node3" class="node">
<title>m_savings_account</title>
<g id="a_node3"><a xlink:href="../../tables/m_savings_account.html" xlink:title="m_savings_account" target="_top">
<polygon fill="#ffffff" stroke="transparent" points="908,-264 908,-498 1234,-498 1234,-264 908,-264"/>
<polygon fill="#f5f5f5" stroke="transparent" points="908,-476 908,-498 1234,-498 1234,-476 908,-476"/>
<polygon fill="none" stroke="black" points="908,-476 908,-498 1234,-498 1234,-476 908,-476"/>
<text text-anchor="start" x="913" y="-485.2" font-family="Helvetica,sans-Serif" font-weight="bold" font-size="11.00">m_savings_account</text>
<text text-anchor="start" x="1199" y="-484.2" font-family="Helvetica,sans-Serif" font-size="11.00">[table]</text>
<polygon fill="none" stroke="black" points="908,-454 908,-476 1234,-476 1234,-454 908,-454"/>
<image xlink:href="../../images/primaryKeys.png" width="11px" height="12px" preserveAspectRatio="xMinYMin meet" x="913" y="-471"/>
<text text-anchor="start" x="928" y="-462.2" font-family="Helvetica,sans-Serif" font-size="11.00">id</text>
<polygon fill="#ffffff" stroke="transparent" points="908,-432 908,-454 1234,-454 1234,-432 908,-432"/>
<polygon fill="none" stroke="black" points="908,-432 908,-454 1234,-454 1234,-432 908,-432"/>
<text text-anchor="start" x="928" y="-440.2" font-family="Helvetica,sans-Serif" font-size="11.00">account_no</text>
<polygon fill="#ffffff" stroke="transparent" points="908,-410 908,-432 1234,-432 1234,-410 908,-410"/>
<polygon fill="none" stroke="black" points="908,-410 908,-432 1234,-432 1234,-410 908,-410"/>
<text text-anchor="start" x="928" y="-418.2" font-family="Helvetica,sans-Serif" font-size="11.00">external_id</text>
<polygon fill="#ffffff" stroke="transparent" points="908,-388 908,-410 1234,-410 1234,-388 908,-388"/>
<polygon fill="none" stroke="black" points="908,-388 908,-410 1234,-410 1234,-388 908,-388"/>
<image xlink:href="../../images/foreignKeys.png" width="11px" height="12px" preserveAspectRatio="xMinYMin meet" x="913" y="-405"/>
<text text-anchor="start" x="928" y="-396.2" font-family="Helvetica,sans-Serif" font-size="11.00">client_id</text>
<polygon fill="#ffffff" stroke="transparent" points="908,-366 908,-388 1234,-388 1234,-366 908,-366"/>
<polygon fill="none" stroke="black" points="908,-366 908,-388 1234,-388 1234,-366 908,-366"/>
<image xlink:href="../../images/foreignKeys.png" width="11px" height="12px" preserveAspectRatio="xMinYMin meet" x="913" y="-383"/>
<text text-anchor="start" x="928" y="-374.2" font-family="Helvetica,sans-Serif" font-size="11.00">group_id</text>
<polygon fill="#ffffff" stroke="transparent" points="908,-344 908,-366 1234,-366 1234,-344 908,-344"/>
<polygon fill="none" stroke="black" points="908,-344 908,-366 1234,-366 1234,-344 908,-344"/>
<image xlink:href="../../images/foreignKeys.png" width="11px" height="12px" preserveAspectRatio="xMinYMin meet" x="913" y="-361"/>
<text text-anchor="start" x="928" y="-352.2" font-family="Helvetica,sans-Serif" font-size="11.00">gsim_id</text>
<polygon fill="#ffffff" stroke="transparent" points="908,-322 908,-344 1234,-344 1234,-322 908,-322"/>
<polygon fill="none" stroke="black" points="908,-322 908,-344 1234,-344 1234,-322 908,-322"/>
<image xlink:href="../../images/foreignKeys.png" width="11px" height="12px" preserveAspectRatio="xMinYMin meet" x="913" y="-339"/>
<text text-anchor="start" x="928" y="-330.2" font-family="Helvetica,sans-Serif" font-size="11.00">product_id</text>
<polygon fill="#ffffff" stroke="transparent" points="908,-300 908,-322 1234,-322 1234,-300 908,-300"/>
<polygon fill="none" stroke="black" points="908,-300 908,-322 1234,-322 1234,-300 908,-300"/>
<image xlink:href="../../images/foreignKeys.png" width="11px" height="12px" preserveAspectRatio="xMinYMin meet" x="913" y="-317"/>
<text text-anchor="start" x="928" y="-308.2" font-family="Helvetica,sans-Serif" font-size="11.00">tax_group_id</text>
<polygon fill="none" stroke="black" points="908,-282 908,-300 1234,-300 1234,-282 908,-282"/>
<text text-anchor="start" x="911" y="-288.2" font-family="Helvetica,sans-Serif" font-size="11.00">...</text>
<polygon fill="#ffffff" stroke="transparent" points="908,-264 908,-282 1048,-282 1048,-264 908,-264"/>
<polygon fill="none" stroke="black" points="908,-264 908,-282 1048,-282 1048,-264 908,-264"/>
<text text-anchor="start" x="911" y="-270.2" font-family="Helvetica,sans-Serif" font-size="11.00">&lt; 5</text>
<polygon fill="#ffffff" stroke="transparent" points="1048,-264 1048,-282 1146,-282 1146,-264 1048,-264"/>
<polygon fill="none" stroke="black" points="1048,-264 1048,-282 1146,-282 1146,-264 1048,-264"/>
<text text-anchor="start" x="1110" y="-270.2" font-family="Helvetica,sans-Serif" font-size="11.00">0 rows</text>
<polygon fill="#ffffff" stroke="transparent" points="1146,-264 1146,-282 1234,-282 1234,-264 1146,-264"/>
<polygon fill="none" stroke="black" points="1146,-264 1146,-282 1234,-282 1234,-264 1146,-264"/>
<text text-anchor="start" x="1209" y="-270.2" font-family="Helvetica,sans-Serif" font-size="11.00">17 &gt;</text>
</a>
</g>
</g>
<!-- m_savings_account&#45;&gt;m_tax_group -->
<g id="edge3" class="edge">
<title>m_savings_account:w&#45;&gt;m_tax_group:e</title>
<path fill="none" stroke="black" d="M893.4,-306.05C883.77,-296.52 885.13,-275.9 867,-268 797.32,-237.65 597.19,-244.24 525,-268 502.96,-275.25 506.2,-299 483,-299"/>
<polygon fill="black" stroke="black" points="899.48,-308.26 905.77,-314.38 903.24,-309.63 907,-311 907,-311 907,-311 903.24,-309.63 908.23,-307.62 899.48,-308.26 899.48,-308.26"/>
<ellipse fill="none" stroke="black" cx="896.48" cy="-307.17" rx="3.2" ry="3.2"/>
</g>
<!-- m_savings_product -->
<g id="node4" class="node">
<title>m_savings_product</title>
<g id="a_node4"><a xlink:href="../../tables/m_savings_product.html" xlink:title="m_savings_product" target="_top">
<polygon fill="#ffffff" stroke="transparent" points="533,-278 533,-424 859,-424 859,-278 533,-278"/>
<polygon fill="#f5f5f5" stroke="transparent" points="533,-402 533,-424 859,-424 859,-402 533,-402"/>
<polygon fill="none" stroke="black" points="533,-402 533,-424 859,-424 859,-402 533,-402"/>
<text text-anchor="start" x="538" y="-411.2" font-family="Helvetica,sans-Serif" font-weight="bold" font-size="11.00">m_savings_product</text>
<text text-anchor="start" x="824" y="-410.2" font-family="Helvetica,sans-Serif" font-size="11.00">[table]</text>
<polygon fill="none" stroke="black" points="533,-380 533,-402 859,-402 859,-380 533,-380"/>
<image xlink:href="../../images/primaryKeys.png" width="11px" height="12px" preserveAspectRatio="xMinYMin meet" x="538" y="-397"/>
<text text-anchor="start" x="553" y="-388.2" font-family="Helvetica,sans-Serif" font-size="11.00">id</text>
<polygon fill="#ffffff" stroke="transparent" points="533,-358 533,-380 859,-380 859,-358 533,-358"/>
<polygon fill="none" stroke="black" points="533,-358 533,-380 859,-380 859,-358 533,-358"/>
<text text-anchor="start" x="553" y="-366.2" font-family="Helvetica,sans-Serif" font-size="11.00">name</text>
<polygon fill="#ffffff" stroke="transparent" points="533,-336 533,-358 859,-358 859,-336 533,-336"/>
<polygon fill="none" stroke="black" points="533,-336 533,-358 859,-358 859,-336 533,-336"/>
<text text-anchor="start" x="553" y="-344.2" font-family="Helvetica,sans-Serif" font-size="11.00">short_name</text>
<polygon fill="#ffffff" stroke="transparent" points="533,-314 533,-336 859,-336 859,-314 533,-314"/>
<polygon fill="none" stroke="black" points="533,-314 533,-336 859,-336 859,-314 533,-314"/>
<image xlink:href="../../images/foreignKeys.png" width="11px" height="12px" preserveAspectRatio="xMinYMin meet" x="538" y="-331"/>
<text text-anchor="start" x="553" y="-322.2" font-family="Helvetica,sans-Serif" font-size="11.00">tax_group_id</text>
<polygon fill="none" stroke="black" points="533,-296 533,-314 859,-314 859,-296 533,-296"/>
<text text-anchor="start" x="536" y="-302.2" font-family="Helvetica,sans-Serif" font-size="11.00">...</text>
<polygon fill="#ffffff" stroke="transparent" points="533,-278 533,-296 676,-296 676,-278 533,-278"/>
<polygon fill="none" stroke="black" points="533,-278 533,-296 676,-296 676,-278 533,-278"/>
<text text-anchor="start" x="536" y="-284.2" font-family="Helvetica,sans-Serif" font-size="11.00">&lt; 1</text>
<polygon fill="#ffffff" stroke="transparent" points="676,-278 676,-296 776,-296 776,-278 676,-278"/>
<polygon fill="none" stroke="black" points="676,-278 676,-296 776,-296 776,-278 676,-278"/>
<text text-anchor="start" x="740" y="-284.2" font-family="Helvetica,sans-Serif" font-size="11.00">0 rows</text>
<polygon fill="#ffffff" stroke="transparent" points="776,-278 776,-296 859,-296 859,-278 776,-278"/>
<polygon fill="none" stroke="black" points="776,-278 776,-296 859,-296 859,-278 776,-278"/>
<text text-anchor="start" x="840" y="-284.2" font-family="Helvetica,sans-Serif" font-size="11.00">6 &gt;</text>
</a>
</g>
</g>
<!-- m_savings_account&#45;&gt;m_savings_product -->
<g id="edge2" class="edge">
<title>m_savings_account:w&#45;&gt;m_savings_product:e</title>
<path fill="none" stroke="black" d="M893.19,-338.35C879.23,-352.71 886.96,-391 860,-391"/>
<polygon fill="black" stroke="black" points="899.54,-335.89 908.3,-336.36 903.27,-334.45 907,-333 907,-333 907,-333 903.27,-334.45 905.7,-329.64 899.54,-335.89 899.54,-335.89"/>
<ellipse fill="none" stroke="black" cx="896.56" cy="-337.05" rx="3.2" ry="3.2"/>
</g>
<!-- m_savings_product&#45;&gt;m_tax_group -->
<g id="edge4" class="edge">
<title>m_savings_product:w&#45;&gt;m_tax_group:e</title>
<path fill="none" stroke="black" d="M517.77,-321.16C506.03,-313.93 501.68,-299 483,-299"/>
<polygon fill="black" stroke="black" points="524.28,-322.92 531.06,-328.48 528.14,-323.96 532,-325 532,-325 532,-325 528.14,-323.96 532.94,-321.52 524.28,-322.92 524.28,-322.92"/>
<ellipse fill="none" stroke="black" cx="521.19" cy="-322.08" rx="3.2" ry="3.2"/>
</g>
<!-- m_tax_group_mappings -->
<g id="node6" class="node">
<title>m_tax_group_mappings</title>
<g id="a_node6"><a xlink:href="../../tables/m_tax_group_mappings.html" xlink:title="m_tax_group_mappings" target="_top">
<polygon fill="#ffffff" stroke="transparent" points="606.5,-62 606.5,-230 785.5,-230 785.5,-62 606.5,-62"/>
<polygon fill="#f5f5f5" stroke="transparent" points="607,-208 607,-230 786,-230 786,-208 607,-208"/>
<polygon fill="none" stroke="black" points="607,-208 607,-230 786,-230 786,-208 607,-208"/>
<text text-anchor="start" x="612" y="-217.2" font-family="Helvetica,sans-Serif" font-weight="bold" font-size="11.00">m_tax_group_mappings</text>
<text text-anchor="start" x="751" y="-216.2" font-family="Helvetica,sans-Serif" font-size="11.00">[table]</text>
<polygon fill="none" stroke="black" points="607,-186 607,-208 786,-208 786,-186 607,-186"/>
<image xlink:href="../../images/primaryKeys.png" width="11px" height="12px" preserveAspectRatio="xMinYMin meet" x="612" y="-203"/>
<text text-anchor="start" x="627" y="-194.2" font-family="Helvetica,sans-Serif" font-size="11.00">id</text>
<polygon fill="#ffffff" stroke="transparent" points="607,-164 607,-186 786,-186 786,-164 607,-164"/>
<polygon fill="none" stroke="black" points="607,-164 607,-186 786,-186 786,-164 607,-164"/>
<image xlink:href="../../images/foreignKeys.png" width="11px" height="12px" preserveAspectRatio="xMinYMin meet" x="612" y="-181"/>
<text text-anchor="start" x="627" y="-172.2" font-family="Helvetica,sans-Serif" font-size="11.00">tax_group_id</text>
<polygon fill="#ffffff" stroke="transparent" points="607,-142 607,-164 786,-164 786,-142 607,-142"/>
<polygon fill="none" stroke="black" points="607,-142 607,-164 786,-164 786,-142 607,-142"/>
<image xlink:href="../../images/foreignKeys.png" width="11px" height="12px" preserveAspectRatio="xMinYMin meet" x="612" y="-159"/>
<text text-anchor="start" x="627" y="-150.2" font-family="Helvetica,sans-Serif" font-size="11.00">tax_component_id</text>
<polygon fill="#ffffff" stroke="transparent" points="607,-120 607,-142 786,-142 786,-120 607,-120"/>
<polygon fill="none" stroke="black" points="607,-120 607,-142 786,-142 786,-120 607,-120"/>
<image xlink:href="../../images/foreignKeys.png" width="11px" height="12px" preserveAspectRatio="xMinYMin meet" x="612" y="-137"/>
<text text-anchor="start" x="627" y="-128.2" font-family="Helvetica,sans-Serif" font-size="11.00">createdby_id</text>
<polygon fill="#ffffff" stroke="transparent" points="607,-98 607,-120 786,-120 786,-98 607,-98"/>
<polygon fill="none" stroke="black" points="607,-98 607,-120 786,-120 786,-98 607,-98"/>
<image xlink:href="../../images/foreignKeys.png" width="11px" height="12px" preserveAspectRatio="xMinYMin meet" x="612" y="-115"/>
<text text-anchor="start" x="627" y="-106.2" font-family="Helvetica,sans-Serif" font-size="11.00">lastmodifiedby_id</text>
<polygon fill="none" stroke="black" points="607,-80 607,-98 786,-98 786,-80 607,-80"/>
<text text-anchor="start" x="610" y="-86.2" font-family="Helvetica,sans-Serif" font-size="11.00">...</text>
<polygon fill="#ffffff" stroke="transparent" points="607,-62 607,-80 681,-80 681,-62 607,-62"/>
<polygon fill="none" stroke="black" points="607,-62 607,-80 681,-80 681,-62 607,-62"/>
<text text-anchor="start" x="610" y="-68.2" font-family="Helvetica,sans-Serif" font-size="11.00">&lt; 4</text>
<polygon fill="#ffffff" stroke="transparent" points="681,-62 681,-80 746,-80 746,-62 681,-62"/>
<polygon fill="none" stroke="black" points="681,-62 681,-80 746,-80 746,-62 681,-62"/>
<text text-anchor="start" x="710" y="-68.2" font-family="Helvetica,sans-Serif" font-size="11.00">0 rows</text>
<polygon fill="#ffffff" stroke="transparent" points="746,-62 746,-80 786,-80 786,-62 746,-62"/>
<polygon fill="none" stroke="black" points="746,-62 746,-80 786,-80 786,-62 746,-62"/>
<text text-anchor="start" x="776" y="-68.2" font-family="Helvetica,sans-Serif" font-size="11.00"> &#160;</text>
</a>
</g>
</g>
<!-- m_tax_group_mappings&#45;&gt;m_tax_group -->
<g id="edge9" class="edge">
<title>m_tax_group_mappings:w&#45;&gt;m_tax_group:e</title>
<path fill="none" stroke="black" d="M591.59,-176.28C558.04,-182.85 553.85,-213.57 525,-244 503.84,-266.32 513.76,-299 483,-299"/>
<polygon fill="black" stroke="black" points="598.03,-175.71 606.32,-178.59 602.02,-175.36 606,-175 606,-175 606,-175 602.02,-175.36 605.68,-171.41 598.03,-175.71 598.03,-175.71"/>
<ellipse fill="none" stroke="black" cx="594.84" cy="-175.99" rx="3.2" ry="3.2"/>
</g>
<!-- m_tax_group_mappings&#45;&gt;m_appuser -->
<g id="edge7" class="edge">
<title>m_tax_group_mappings:w&#45;&gt;m_appuser:e</title>
<path fill="none" stroke="black" d="M591.19,-130.91C450.75,-129.11 404.3,-102.75 264,-147 244.19,-153.25 245.28,-172 224.5,-172"/>
<polygon fill="black" stroke="black" points="598,-130.95 605.98,-134.6 602,-130.97 606,-131 606,-131 606,-131 602,-130.97 606.02,-127.4 598,-130.95 598,-130.95"/>
<ellipse fill="none" stroke="black" cx="594.8" cy="-130.93" rx="3.2" ry="3.2"/>
</g>
<!-- m_tax_group_mappings&#45;&gt;m_appuser -->
<g id="edge8" class="edge">
<title>m_tax_group_mappings:w&#45;&gt;m_appuser:e</title>
<path fill="none" stroke="black" d="M591.59,-108.82C450.3,-105.26 394.55,-51.07 264,-119 237.94,-132.56 253.88,-172 224.5,-172"/>
<polygon fill="black" stroke="black" points="598,-108.9 605.95,-112.6 602,-108.95 606,-109 606,-109 606,-109 602,-108.95 606.05,-105.4 598,-108.9 598,-108.9"/>
<ellipse fill="none" stroke="black" cx="594.8" cy="-108.86" rx="3.2" ry="3.2"/>
</g>
</g>
</svg>
