<?xml version="1.0" encoding="UTF-8" standalone="no"?>
<!DOCTYPE svg PUBLIC "-//W3C//DTD SVG 1.1//EN"
 "http://www.w3.org/Graphics/SVG/1.1/DTD/svg11.dtd">
<!-- Generated by graphviz version 2.43.0 (0)
 -->
<!-- Title: twoDegreesRelationshipsDiagram Pages: 1 -->
<svg width="664pt" height="313pt"
 viewBox="0.00 0.00 664.00 313.00" xmlns="http://www.w3.org/2000/svg" xmlns:xlink="http://www.w3.org/1999/xlink">
<g id="graph0" class="graph" transform="scale(1 1) rotate(0) translate(4 309)">
<title>twoDegreesRelationshipsDiagram</title>
<polygon fill="#ffffff" stroke="transparent" points="-4,4 -4,-309 660,-309 660,4 -4,4"/>
<text text-anchor="middle" x="71.5" y="-7.2" font-family="Helvetica,sans-Serif" font-size="11.00">Generated by SchemaSpy</text>
<!-- m_hook -->
<g id="node1" class="node">
<title>m_hook</title>
<g id="a_node1"><a xlink:href="../../tables/m_hook.html" xlink:title="m_hook" target="_top">
<polygon fill="#ffffff" stroke="transparent" points="271,-139 271,-263 413,-263 413,-139 271,-139"/>
<polygon fill="#f5f5f5" stroke="transparent" points="271,-241 271,-263 413,-263 413,-241 271,-241"/>
<polygon fill="none" stroke="black" points="271,-241 271,-263 413,-263 413,-241 271,-241"/>
<text text-anchor="start" x="276" y="-250.2" font-family="Helvetica,sans-Serif" font-weight="bold" font-size="11.00">m_hook</text>
<text text-anchor="start" x="378" y="-249.2" font-family="Helvetica,sans-Serif" font-size="11.00">[table]</text>
<polygon fill="none" stroke="black" points="271,-219 271,-241 413,-241 413,-219 271,-219"/>
<image xlink:href="../../images/primaryKeys.png" width="11px" height="12px" preserveAspectRatio="xMinYMin meet" x="276" y="-236"/>
<text text-anchor="start" x="291" y="-227.2" font-family="Helvetica,sans-Serif" font-size="11.00">id</text>
<polygon fill="#ffffff" stroke="transparent" points="271,-197 271,-219 413,-219 413,-197 271,-197"/>
<polygon fill="none" stroke="black" points="271,-197 271,-219 413,-219 413,-197 271,-197"/>
<image xlink:href="../../images/foreignKeys.png" width="11px" height="12px" preserveAspectRatio="xMinYMin meet" x="276" y="-214"/>
<text text-anchor="start" x="291" y="-205.2" font-family="Helvetica,sans-Serif" font-size="11.00">template_id</text>
<polygon fill="#ffffff" stroke="transparent" points="271,-175 271,-197 413,-197 413,-175 271,-175"/>
<polygon fill="none" stroke="black" points="271,-175 271,-197 413,-197 413,-175 271,-175"/>
<image xlink:href="../../images/foreignKeys.png" width="11px" height="12px" preserveAspectRatio="xMinYMin meet" x="276" y="-192"/>
<text text-anchor="start" x="291" y="-183.2" font-family="Helvetica,sans-Serif" font-size="11.00">ugd_template_id</text>
<polygon fill="none" stroke="black" points="271,-157 271,-175 413,-175 413,-157 271,-157"/>
<text text-anchor="start" x="274" y="-163.2" font-family="Helvetica,sans-Serif" font-size="11.00">...</text>
<polygon fill="#ffffff" stroke="transparent" points="271,-139 271,-157 322,-157 322,-139 271,-139"/>
<polygon fill="none" stroke="black" points="271,-139 271,-157 322,-157 322,-139 271,-139"/>
<text text-anchor="start" x="274" y="-145.2" font-family="Helvetica,sans-Serif" font-size="11.00">&lt; 2</text>
<polygon fill="#ffffff" stroke="transparent" points="322,-139 322,-157 376,-157 376,-139 322,-139"/>
<polygon fill="none" stroke="black" points="322,-139 322,-157 376,-157 376,-139 322,-139"/>
<text text-anchor="start" x="340" y="-145.2" font-family="Helvetica,sans-Serif" font-size="11.00">0 rows</text>
<polygon fill="#ffffff" stroke="transparent" points="376,-139 376,-157 413,-157 413,-139 376,-139"/>
<polygon fill="none" stroke="black" points="376,-139 376,-157 413,-157 413,-139 376,-139"/>
<text text-anchor="start" x="394" y="-145.2" font-family="Helvetica,sans-Serif" font-size="11.00">2 &gt;</text>
</a>
</g>
</g>
<!-- m_hook_templates -->
<g id="node2" class="node">
<title>m_hook_templates</title>
<g id="a_node2"><a xlink:href="../../tables/m_hook_templates.html" xlink:title="m_hook_templates" target="_top">
<polygon fill="#ffffff" stroke="transparent" points="43,-212 43,-270 187,-270 187,-212 43,-212"/>
<polygon fill="#f5f5f5" stroke="transparent" points="43,-248 43,-270 187,-270 187,-248 43,-248"/>
<polygon fill="none" stroke="black" points="43,-248 43,-270 187,-270 187,-248 43,-248"/>
<text text-anchor="start" x="48" y="-257.2" font-family="Helvetica,sans-Serif" font-weight="bold" font-size="11.00">m_hook_templates</text>
<text text-anchor="start" x="152" y="-256.2" font-family="Helvetica,sans-Serif" font-size="11.00">[table]</text>
<polygon fill="none" stroke="black" points="43,-230 43,-248 187,-248 187,-230 43,-230"/>
<text text-anchor="start" x="46" y="-236.2" font-family="Helvetica,sans-Serif" font-size="11.00">...</text>
<polygon fill="#ffffff" stroke="transparent" points="43,-212 43,-230 91,-230 91,-212 43,-212"/>
<polygon fill="none" stroke="black" points="43,-212 43,-230 91,-230 91,-212 43,-212"/>
<text text-anchor="start" x="46" y="-218.2" font-family="Helvetica,sans-Serif" font-size="11.00"> &#160;</text>
<polygon fill="#ffffff" stroke="transparent" points="91,-212 91,-230 147,-230 147,-212 91,-212"/>
<polygon fill="none" stroke="black" points="91,-212 91,-230 147,-230 147,-212 91,-212"/>
<text text-anchor="start" x="111" y="-218.2" font-family="Helvetica,sans-Serif" font-size="11.00">0 rows</text>
<polygon fill="#ffffff" stroke="transparent" points="147,-212 147,-230 187,-230 187,-212 147,-212"/>
<polygon fill="none" stroke="black" points="147,-212 147,-230 187,-230 187,-212 147,-212"/>
<text text-anchor="start" x="168" y="-218.2" font-family="Helvetica,sans-Serif" font-size="11.00">2 &gt;</text>
</a>
</g>
</g>
<!-- m_hook&#45;&gt;m_hook_templates -->
<g id="edge1" class="edge">
<title>m_hook:w&#45;&gt;m_hook_templates:e</title>
<path fill="none" stroke="black" d="M255.44,-209.67C229.2,-216.11 221.48,-239 188,-239"/>
<polygon fill="black" stroke="black" points="262.05,-208.91 270.41,-211.58 266.03,-208.45 270,-208 270,-208 270,-208 266.03,-208.45 269.59,-204.42 262.05,-208.91 262.05,-208.91"/>
<ellipse fill="none" stroke="black" cx="258.87" cy="-209.27" rx="3.2" ry="3.2"/>
</g>
<!-- m_template -->
<g id="node3" class="node">
<title>m_template</title>
<g id="a_node3"><a xlink:href="../../tables/m_template.html" xlink:title="m_template" target="_top">
<polygon fill="#ffffff" stroke="transparent" points="8,-37 8,-191 222,-191 222,-37 8,-37"/>
<polygon fill="#f5f5f5" stroke="transparent" points="10,-167 10,-189 220,-189 220,-167 10,-167"/>
<polygon fill="none" stroke="black" points="10,-167 10,-189 220,-189 220,-167 10,-167"/>
<text text-anchor="start" x="15" y="-176.2" font-family="Helvetica,sans-Serif" font-weight="bold" font-size="11.00">m_template</text>
<text text-anchor="start" x="185" y="-175.2" font-family="Helvetica,sans-Serif" font-size="11.00">[table]</text>
<polygon fill="none" stroke="black" points="10,-145 10,-167 110,-167 110,-145 10,-145"/>
<image xlink:href="../../images/primaryKeys.png" width="11px" height="12px" preserveAspectRatio="xMinYMin meet" x="15" y="-162"/>
<text text-anchor="start" x="30" y="-153.2" font-family="Helvetica,sans-Serif" font-size="11.00">id</text>
<polygon fill="none" stroke="black" points="110,-145 110,-167 220,-167 220,-145 110,-145"/>
<text text-anchor="start" x="113" y="-153.2" font-family="Helvetica,sans-Serif" font-size="11.00">bigint[19]</text>
<polygon fill="#ffffff" stroke="transparent" points="10,-123 10,-145 110,-145 110,-123 10,-123"/>
<polygon fill="none" stroke="black" points="10,-123 10,-145 110,-145 110,-123 10,-123"/>
<text text-anchor="start" x="30" y="-131.2" font-family="Helvetica,sans-Serif" font-size="11.00">name</text>
<polygon fill="none" stroke="black" points="110,-123 110,-145 220,-145 220,-123 110,-123"/>
<text text-anchor="start" x="113" y="-131.2" font-family="Helvetica,sans-Serif" font-size="11.00">varchar[255]</text>
<polygon fill="none" stroke="black" points="10,-101 10,-123 110,-123 110,-101 10,-101"/>
<text text-anchor="start" x="30" y="-109.2" font-family="Helvetica,sans-Serif" font-size="11.00">text</text>
<polygon fill="none" stroke="black" points="110,-101 110,-123 220,-123 220,-101 110,-101"/>
<text text-anchor="start" x="113" y="-109.2" font-family="Helvetica,sans-Serif" font-size="11.00">longtext[2147483647]</text>
<polygon fill="none" stroke="black" points="10,-79 10,-101 110,-101 110,-79 10,-79"/>
<text text-anchor="start" x="30" y="-87.2" font-family="Helvetica,sans-Serif" font-size="11.00">entity</text>
<polygon fill="none" stroke="black" points="110,-79 110,-101 220,-101 220,-79 110,-79"/>
<text text-anchor="start" x="113" y="-87.2" font-family="Helvetica,sans-Serif" font-size="11.00">int[10]</text>
<polygon fill="none" stroke="black" points="10,-57 10,-79 110,-79 110,-57 10,-57"/>
<text text-anchor="start" x="30" y="-65.2" font-family="Helvetica,sans-Serif" font-size="11.00">type</text>
<polygon fill="none" stroke="black" points="110,-57 110,-79 220,-79 220,-57 110,-57"/>
<text text-anchor="start" x="113" y="-65.2" font-family="Helvetica,sans-Serif" font-size="11.00">int[10]</text>
<polygon fill="#ffffff" stroke="transparent" points="10,-39 10,-57 51,-57 51,-39 10,-39"/>
<polygon fill="none" stroke="black" points="10,-39 10,-57 51,-57 51,-39 10,-39"/>
<text text-anchor="start" x="13" y="-45.2" font-family="Helvetica,sans-Serif" font-size="11.00">&lt; 0</text>
<polygon fill="#ffffff" stroke="transparent" points="51,-39 51,-57 110,-57 110,-39 51,-39"/>
<polygon fill="none" stroke="black" points="51,-39 51,-57 110,-57 110,-39 51,-39"/>
<text text-anchor="start" x="74" y="-45.2" font-family="Helvetica,sans-Serif" font-size="11.00">0 rows</text>
<polygon fill="#ffffff" stroke="transparent" points="110,-39 110,-57 220,-57 220,-39 110,-39"/>
<polygon fill="none" stroke="black" points="110,-39 110,-57 220,-57 220,-39 110,-39"/>
<text text-anchor="start" x="201" y="-45.2" font-family="Helvetica,sans-Serif" font-size="11.00">1 &gt;</text>
<polygon fill="none" stroke="black" stroke-width="2" points="9,-38 9,-190 221,-190 221,-38 9,-38"/>
</a>
</g>
</g>
<!-- m_hook&#45;&gt;m_template -->
<g id="edge2" class="edge">
<title>m_hook:w&#45;&gt;m_template:e</title>
<path fill="none" stroke="black" d="M255.88,-181.83C243.92,-173.59 240.55,-156 221,-156"/>
<polygon fill="black" stroke="black" points="262.33,-183.73 268.98,-189.45 266.16,-184.87 270,-186 270,-186 270,-186 266.16,-184.87 271.02,-182.55 262.33,-183.73 262.33,-183.73"/>
<ellipse fill="none" stroke="black" cx="259.26" cy="-182.83" rx="3.2" ry="3.2"/>
</g>
<!-- m_hook_configuration -->
<g id="node4" class="node">
<title>m_hook_configuration</title>
<g id="a_node4"><a xlink:href="../../tables/m_hook_configuration.html" xlink:title="m_hook_configuration" target="_top">
<polygon fill="#ffffff" stroke="transparent" points="473.5,-243 473.5,-301 636.5,-301 636.5,-243 473.5,-243"/>
<polygon fill="#f5f5f5" stroke="transparent" points="474,-279 474,-301 637,-301 637,-279 474,-279"/>
<polygon fill="none" stroke="black" points="474,-279 474,-301 637,-301 637,-279 474,-279"/>
<text text-anchor="start" x="479" y="-288.2" font-family="Helvetica,sans-Serif" font-weight="bold" font-size="11.00">m_hook_configuration</text>
<text text-anchor="start" x="602" y="-287.2" font-family="Helvetica,sans-Serif" font-size="11.00">[table]</text>
<polygon fill="none" stroke="black" points="474,-261 474,-279 637,-279 637,-261 474,-261"/>
<text text-anchor="start" x="477" y="-267.2" font-family="Helvetica,sans-Serif" font-size="11.00">...</text>
<polygon fill="#ffffff" stroke="transparent" points="474,-243 474,-261 540,-261 540,-243 474,-243"/>
<polygon fill="none" stroke="black" points="474,-243 474,-261 540,-261 540,-243 474,-243"/>
<text text-anchor="start" x="477" y="-249.2" font-family="Helvetica,sans-Serif" font-size="11.00">&lt; 1</text>
<polygon fill="#ffffff" stroke="transparent" points="540,-243 540,-261 601,-261 601,-243 540,-243"/>
<polygon fill="none" stroke="black" points="540,-243 540,-261 601,-261 601,-243 540,-243"/>
<text text-anchor="start" x="565" y="-249.2" font-family="Helvetica,sans-Serif" font-size="11.00">0 rows</text>
<polygon fill="#ffffff" stroke="transparent" points="601,-243 601,-261 637,-261 637,-243 601,-243"/>
<polygon fill="none" stroke="black" points="601,-243 601,-261 637,-261 637,-243 601,-243"/>
<text text-anchor="start" x="627" y="-249.2" font-family="Helvetica,sans-Serif" font-size="11.00"> &#160;</text>
</a>
</g>
</g>
<!-- m_hook_configuration&#45;&gt;m_hook -->
<g id="edge3" class="edge">
<title>m_hook_configuration:w&#45;&gt;m_hook:e</title>
<path fill="none" stroke="black" d="M459,-266.59C441.72,-256.92 439.99,-230 414,-230"/>
<polygon fill="black" stroke="black" points="465.23,-268.11 472.15,-273.5 469.11,-269.05 473,-270 473,-270 473,-270 469.11,-269.05 473.85,-266.5 465.23,-268.11 465.23,-268.11"/>
<ellipse fill="none" stroke="black" cx="462.12" cy="-267.35" rx="3.2" ry="3.2"/>
</g>
<!-- m_hook_registered_events -->
<g id="node5" class="node">
<title>m_hook_registered_events</title>
<g id="a_node5"><a xlink:href="../../tables/m_hook_registered_events.html" xlink:title="m_hook_registered_events" target="_top">
<polygon fill="#ffffff" stroke="transparent" points="462,-164 462,-222 648,-222 648,-164 462,-164"/>
<polygon fill="#f5f5f5" stroke="transparent" points="462,-200 462,-222 648,-222 648,-200 462,-200"/>
<polygon fill="none" stroke="black" points="462,-200 462,-222 648,-222 648,-200 462,-200"/>
<text text-anchor="start" x="467" y="-209.2" font-family="Helvetica,sans-Serif" font-weight="bold" font-size="11.00">m_hook_registered_events</text>
<text text-anchor="start" x="613" y="-208.2" font-family="Helvetica,sans-Serif" font-size="11.00">[table]</text>
<polygon fill="none" stroke="black" points="462,-182 462,-200 648,-200 648,-182 462,-182"/>
<text text-anchor="start" x="465" y="-188.2" font-family="Helvetica,sans-Serif" font-size="11.00">...</text>
<polygon fill="#ffffff" stroke="transparent" points="462,-164 462,-182 540,-182 540,-164 462,-164"/>
<polygon fill="none" stroke="black" points="462,-164 462,-182 540,-182 540,-164 462,-164"/>
<text text-anchor="start" x="465" y="-170.2" font-family="Helvetica,sans-Serif" font-size="11.00">&lt; 1</text>
<polygon fill="#ffffff" stroke="transparent" points="540,-164 540,-182 607,-182 607,-164 540,-164"/>
<polygon fill="none" stroke="black" points="540,-164 540,-182 607,-182 607,-164 540,-164"/>
<text text-anchor="start" x="571" y="-170.2" font-family="Helvetica,sans-Serif" font-size="11.00">0 rows</text>
<polygon fill="#ffffff" stroke="transparent" points="607,-164 607,-182 648,-182 648,-164 607,-164"/>
<polygon fill="none" stroke="black" points="607,-164 607,-182 648,-182 648,-164 607,-164"/>
<text text-anchor="start" x="638" y="-170.2" font-family="Helvetica,sans-Serif" font-size="11.00"> &#160;</text>
</a>
</g>
</g>
<!-- m_hook_registered_events&#45;&gt;m_hook -->
<g id="edge4" class="edge">
<title>m_hook_registered_events:w&#45;&gt;m_hook:e</title>
<path fill="none" stroke="black" d="M447.41,-195.78C435.4,-206.2 435.21,-230 414,-230"/>
<polygon fill="black" stroke="black" points="453.45,-193.66 462.19,-194.4 457.23,-192.33 461,-191 461,-191 461,-191 457.23,-192.33 459.81,-187.6 453.45,-193.66 453.45,-193.66"/>
<ellipse fill="none" stroke="black" cx="450.43" cy="-194.72" rx="3.2" ry="3.2"/>
</g>
</g>
</svg>
