<?xml version="1.0" encoding="UTF-8" standalone="no"?>
<!DOCTYPE svg PUBLIC "-//W3C//DTD SVG 1.1//EN"
 "http://www.w3.org/Graphics/SVG/1.1/DTD/svg11.dtd">
<!-- Generated by graphviz version 2.43.0 (0)
 -->
<!-- Title: oneDegreeRelationshipsDiagram Pages: 1 -->
<svg width="429pt" height="245pt"
 viewBox="0.00 0.00 429.00 245.00" xmlns="http://www.w3.org/2000/svg" xmlns:xlink="http://www.w3.org/1999/xlink">
<g id="graph0" class="graph" transform="scale(1 1) rotate(0) translate(4 241)">
<title>oneDegreeRelationshipsDiagram</title>
<polygon fill="#ffffff" stroke="transparent" points="-4,4 -4,-241 425,-241 425,4 -4,4"/>
<text text-anchor="middle" x="71.5" y="-7.2" font-family="Helvetica,sans-Serif" font-size="11.00">Generated by SchemaSpy</text>
<!-- m_hook -->
<g id="node1" class="node">
<title>m_hook</title>
<g id="a_node1"><a xlink:href="../../tables/m_hook.html" xlink:title="m_hook" target="_top">
<polygon fill="#ffffff" stroke="transparent" points="271,-109 271,-233 413,-233 413,-109 271,-109"/>
<polygon fill="#f5f5f5" stroke="transparent" points="271,-211 271,-233 413,-233 413,-211 271,-211"/>
<polygon fill="none" stroke="black" points="271,-211 271,-233 413,-233 413,-211 271,-211"/>
<text text-anchor="start" x="276" y="-220.2" font-family="Helvetica,sans-Serif" font-weight="bold" font-size="11.00">m_hook</text>
<text text-anchor="start" x="378" y="-219.2" font-family="Helvetica,sans-Serif" font-size="11.00">[table]</text>
<polygon fill="none" stroke="black" points="271,-189 271,-211 413,-211 413,-189 271,-189"/>
<image xlink:href="../../images/primaryKeys.png" width="11px" height="12px" preserveAspectRatio="xMinYMin meet" x="276" y="-206"/>
<text text-anchor="start" x="291" y="-197.2" font-family="Helvetica,sans-Serif" font-size="11.00">id</text>
<polygon fill="#ffffff" stroke="transparent" points="271,-167 271,-189 413,-189 413,-167 271,-167"/>
<polygon fill="none" stroke="black" points="271,-167 271,-189 413,-189 413,-167 271,-167"/>
<image xlink:href="../../images/foreignKeys.png" width="11px" height="12px" preserveAspectRatio="xMinYMin meet" x="276" y="-184"/>
<text text-anchor="start" x="291" y="-175.2" font-family="Helvetica,sans-Serif" font-size="11.00">template_id</text>
<polygon fill="#ffffff" stroke="transparent" points="271,-145 271,-167 413,-167 413,-145 271,-145"/>
<polygon fill="none" stroke="black" points="271,-145 271,-167 413,-167 413,-145 271,-145"/>
<image xlink:href="../../images/foreignKeys.png" width="11px" height="12px" preserveAspectRatio="xMinYMin meet" x="276" y="-162"/>
<text text-anchor="start" x="291" y="-153.2" font-family="Helvetica,sans-Serif" font-size="11.00">ugd_template_id</text>
<polygon fill="none" stroke="black" points="271,-127 271,-145 413,-145 413,-127 271,-127"/>
<text text-anchor="start" x="274" y="-133.2" font-family="Helvetica,sans-Serif" font-size="11.00">...</text>
<polygon fill="#ffffff" stroke="transparent" points="271,-109 271,-127 322,-127 322,-109 271,-109"/>
<polygon fill="none" stroke="black" points="271,-109 271,-127 322,-127 322,-109 271,-109"/>
<text text-anchor="start" x="274" y="-115.2" font-family="Helvetica,sans-Serif" font-size="11.00">&lt; 2</text>
<polygon fill="#ffffff" stroke="transparent" points="322,-109 322,-127 376,-127 376,-109 322,-109"/>
<polygon fill="none" stroke="black" points="322,-109 322,-127 376,-127 376,-109 322,-109"/>
<text text-anchor="start" x="340" y="-115.2" font-family="Helvetica,sans-Serif" font-size="11.00">0 rows</text>
<polygon fill="#ffffff" stroke="transparent" points="376,-109 376,-127 413,-127 413,-109 376,-109"/>
<polygon fill="none" stroke="black" points="376,-109 376,-127 413,-127 413,-109 376,-109"/>
<text text-anchor="start" x="394" y="-115.2" font-family="Helvetica,sans-Serif" font-size="11.00">2 &gt;</text>
</a>
</g>
</g>
<!-- m_template -->
<g id="node2" class="node">
<title>m_template</title>
<g id="a_node2"><a xlink:href="../../tables/m_template.html" xlink:title="m_template" target="_top">
<polygon fill="#ffffff" stroke="transparent" points="8,-37 8,-191 222,-191 222,-37 8,-37"/>
<polygon fill="#f5f5f5" stroke="transparent" points="10,-167 10,-189 220,-189 220,-167 10,-167"/>
<polygon fill="none" stroke="black" points="10,-167 10,-189 220,-189 220,-167 10,-167"/>
<text text-anchor="start" x="15" y="-176.2" font-family="Helvetica,sans-Serif" font-weight="bold" font-size="11.00">m_template</text>
<text text-anchor="start" x="185" y="-175.2" font-family="Helvetica,sans-Serif" font-size="11.00">[table]</text>
<polygon fill="none" stroke="black" points="10,-145 10,-167 110,-167 110,-145 10,-145"/>
<image xlink:href="../../images/primaryKeys.png" width="11px" height="12px" preserveAspectRatio="xMinYMin meet" x="15" y="-162"/>
<text text-anchor="start" x="30" y="-153.2" font-family="Helvetica,sans-Serif" font-size="11.00">id</text>
<polygon fill="none" stroke="black" points="110,-145 110,-167 220,-167 220,-145 110,-145"/>
<text text-anchor="start" x="113" y="-153.2" font-family="Helvetica,sans-Serif" font-size="11.00">bigint[19]</text>
<polygon fill="#ffffff" stroke="transparent" points="10,-123 10,-145 110,-145 110,-123 10,-123"/>
<polygon fill="none" stroke="black" points="10,-123 10,-145 110,-145 110,-123 10,-123"/>
<text text-anchor="start" x="30" y="-131.2" font-family="Helvetica,sans-Serif" font-size="11.00">name</text>
<polygon fill="none" stroke="black" points="110,-123 110,-145 220,-145 220,-123 110,-123"/>
<text text-anchor="start" x="113" y="-131.2" font-family="Helvetica,sans-Serif" font-size="11.00">varchar[255]</text>
<polygon fill="none" stroke="black" points="10,-101 10,-123 110,-123 110,-101 10,-101"/>
<text text-anchor="start" x="30" y="-109.2" font-family="Helvetica,sans-Serif" font-size="11.00">text</text>
<polygon fill="none" stroke="black" points="110,-101 110,-123 220,-123 220,-101 110,-101"/>
<text text-anchor="start" x="113" y="-109.2" font-family="Helvetica,sans-Serif" font-size="11.00">longtext[2147483647]</text>
<polygon fill="none" stroke="black" points="10,-79 10,-101 110,-101 110,-79 10,-79"/>
<text text-anchor="start" x="30" y="-87.2" font-family="Helvetica,sans-Serif" font-size="11.00">entity</text>
<polygon fill="none" stroke="black" points="110,-79 110,-101 220,-101 220,-79 110,-79"/>
<text text-anchor="start" x="113" y="-87.2" font-family="Helvetica,sans-Serif" font-size="11.00">int[10]</text>
<polygon fill="none" stroke="black" points="10,-57 10,-79 110,-79 110,-57 10,-57"/>
<text text-anchor="start" x="30" y="-65.2" font-family="Helvetica,sans-Serif" font-size="11.00">type</text>
<polygon fill="none" stroke="black" points="110,-57 110,-79 220,-79 220,-57 110,-57"/>
<text text-anchor="start" x="113" y="-65.2" font-family="Helvetica,sans-Serif" font-size="11.00">int[10]</text>
<polygon fill="#ffffff" stroke="transparent" points="10,-39 10,-57 51,-57 51,-39 10,-39"/>
<polygon fill="none" stroke="black" points="10,-39 10,-57 51,-57 51,-39 10,-39"/>
<text text-anchor="start" x="13" y="-45.2" font-family="Helvetica,sans-Serif" font-size="11.00">&lt; 0</text>
<polygon fill="#ffffff" stroke="transparent" points="51,-39 51,-57 110,-57 110,-39 51,-39"/>
<polygon fill="none" stroke="black" points="51,-39 51,-57 110,-57 110,-39 51,-39"/>
<text text-anchor="start" x="74" y="-45.2" font-family="Helvetica,sans-Serif" font-size="11.00">0 rows</text>
<polygon fill="#ffffff" stroke="transparent" points="110,-39 110,-57 220,-57 220,-39 110,-39"/>
<polygon fill="none" stroke="black" points="110,-39 110,-57 220,-57 220,-39 110,-39"/>
<text text-anchor="start" x="201" y="-45.2" font-family="Helvetica,sans-Serif" font-size="11.00">1 &gt;</text>
<polygon fill="none" stroke="black" stroke-width="2" points="9,-38 9,-190 221,-190 221,-38 9,-38"/>
</a>
</g>
</g>
<!-- m_hook&#45;&gt;m_template -->
<g id="edge1" class="edge">
<title>m_hook:w&#45;&gt;m_template:e</title>
<path fill="none" stroke="black" d="M255.49,-156C244.18,-156 236.99,-156 221,-156"/>
<polygon fill="black" stroke="black" points="262,-156 270,-159.6 266,-156 270,-156 270,-156 270,-156 266,-156 270,-152.4 262,-156 262,-156"/>
<ellipse fill="none" stroke="black" cx="258.8" cy="-156" rx="3.2" ry="3.2"/>
</g>
</g>
</svg>
