<?xml version="1.0" encoding="UTF-8" standalone="no"?>
<!DOCTYPE svg PUBLIC "-//W3C//DTD SVG 1.1//EN"
 "http://www.w3.org/Graphics/SVG/1.1/DTD/svg11.dtd">
<!-- Generated by graphviz version 2.43.0 (0)
 -->
<!-- Title: oneDegreeRelationshipsDiagram Pages: 1 -->
<svg width="471pt" height="289pt"
 viewBox="0.00 0.00 471.00 289.00" xmlns="http://www.w3.org/2000/svg" xmlns:xlink="http://www.w3.org/1999/xlink">
<g id="graph0" class="graph" transform="scale(1 1) rotate(0) translate(4 285)">
<title>oneDegreeRelationshipsDiagram</title>
<polygon fill="#ffffff" stroke="transparent" points="-4,4 -4,-285 467,-285 467,4 -4,4"/>
<text text-anchor="middle" x="71.5" y="-7.2" font-family="Helvetica,sans-Serif" font-size="11.00">Generated by SchemaSpy</text>
<!-- notification_mapper -->
<g id="node1" class="node">
<title>notification_mapper</title>
<g id="a_node1"><a xlink:href="../../tables/notification_mapper.html" xlink:title="notification_mapper" target="_top">
<polygon fill="#ffffff" stroke="transparent" points="299,-153 299,-277 455,-277 455,-153 299,-153"/>
<polygon fill="#f5f5f5" stroke="transparent" points="299,-255 299,-277 455,-277 455,-255 299,-255"/>
<polygon fill="none" stroke="black" points="299,-255 299,-277 455,-277 455,-255 299,-255"/>
<text text-anchor="start" x="304" y="-264.2" font-family="Helvetica,sans-Serif" font-weight="bold" font-size="11.00">notification_mapper</text>
<text text-anchor="start" x="420" y="-263.2" font-family="Helvetica,sans-Serif" font-size="11.00">[table]</text>
<polygon fill="none" stroke="black" points="299,-233 299,-255 455,-255 455,-233 299,-233"/>
<image xlink:href="../../images/primaryKeys.png" width="11px" height="12px" preserveAspectRatio="xMinYMin meet" x="304" y="-250"/>
<text text-anchor="start" x="319" y="-241.2" font-family="Helvetica,sans-Serif" font-size="11.00">id</text>
<polygon fill="#ffffff" stroke="transparent" points="299,-211 299,-233 455,-233 455,-211 299,-211"/>
<polygon fill="none" stroke="black" points="299,-211 299,-233 455,-233 455,-211 299,-211"/>
<image xlink:href="../../images/foreignKeys.png" width="11px" height="12px" preserveAspectRatio="xMinYMin meet" x="304" y="-228"/>
<text text-anchor="start" x="319" y="-219.2" font-family="Helvetica,sans-Serif" font-size="11.00">notification_id</text>
<polygon fill="#ffffff" stroke="transparent" points="299,-189 299,-211 455,-211 455,-189 299,-189"/>
<polygon fill="none" stroke="black" points="299,-189 299,-211 455,-211 455,-189 299,-189"/>
<image xlink:href="../../images/foreignKeys.png" width="11px" height="12px" preserveAspectRatio="xMinYMin meet" x="304" y="-206"/>
<text text-anchor="start" x="319" y="-197.2" font-family="Helvetica,sans-Serif" font-size="11.00">user_id</text>
<polygon fill="none" stroke="black" points="299,-171 299,-189 455,-189 455,-171 299,-171"/>
<text text-anchor="start" x="302" y="-177.2" font-family="Helvetica,sans-Serif" font-size="11.00">...</text>
<polygon fill="#ffffff" stroke="transparent" points="299,-153 299,-171 362,-171 362,-153 299,-153"/>
<polygon fill="none" stroke="black" points="299,-153 299,-171 362,-171 362,-153 299,-153"/>
<text text-anchor="start" x="302" y="-159.2" font-family="Helvetica,sans-Serif" font-size="11.00">&lt; 2</text>
<polygon fill="#ffffff" stroke="transparent" points="362,-153 362,-171 421,-171 421,-153 362,-153"/>
<polygon fill="none" stroke="black" points="362,-153 362,-171 421,-171 421,-153 362,-153"/>
<text text-anchor="start" x="385" y="-159.2" font-family="Helvetica,sans-Serif" font-size="11.00">0 rows</text>
<polygon fill="#ffffff" stroke="transparent" points="421,-153 421,-171 455,-171 455,-153 421,-153"/>
<polygon fill="none" stroke="black" points="421,-153 421,-171 455,-171 455,-153 421,-153"/>
<text text-anchor="start" x="445" y="-159.2" font-family="Helvetica,sans-Serif" font-size="11.00"> &#160;</text>
</a>
</g>
</g>
<!-- notification_generator -->
<g id="node2" class="node">
<title>notification_generator</title>
<g id="a_node2"><a xlink:href="../../tables/notification_generator.html" xlink:title="notification_generator" target="_top">
<polygon fill="#ffffff" stroke="transparent" points="8,-37 8,-257 250,-257 250,-37 8,-37"/>
<polygon fill="#f5f5f5" stroke="transparent" points="10,-233 10,-255 248,-255 248,-233 10,-233"/>
<polygon fill="none" stroke="black" points="10,-233 10,-255 248,-255 248,-233 10,-233"/>
<text text-anchor="start" x="15" y="-242.2" font-family="Helvetica,sans-Serif" font-weight="bold" font-size="11.00">notification_generator</text>
<text text-anchor="start" x="213" y="-241.2" font-family="Helvetica,sans-Serif" font-size="11.00">[table]</text>
<polygon fill="none" stroke="black" points="10,-211 10,-233 182,-233 182,-211 10,-211"/>
<image xlink:href="../../images/primaryKeys.png" width="11px" height="12px" preserveAspectRatio="xMinYMin meet" x="15" y="-228"/>
<text text-anchor="start" x="30" y="-219.2" font-family="Helvetica,sans-Serif" font-size="11.00">id</text>
<polygon fill="none" stroke="black" points="182,-211 182,-233 248,-233 248,-211 182,-211"/>
<text text-anchor="start" x="185" y="-219.2" font-family="Helvetica,sans-Serif" font-size="11.00">bigint[19]</text>
<polygon fill="none" stroke="black" points="10,-189 10,-211 182,-211 182,-189 10,-189"/>
<text text-anchor="start" x="30" y="-197.2" font-family="Helvetica,sans-Serif" font-size="11.00">object_type</text>
<polygon fill="none" stroke="black" points="182,-189 182,-211 248,-211 248,-189 182,-189"/>
<text text-anchor="start" x="185" y="-197.2" font-family="Helvetica,sans-Serif" font-size="11.00">text[65535]</text>
<polygon fill="none" stroke="black" points="10,-167 10,-189 182,-189 182,-167 10,-167"/>
<text text-anchor="start" x="30" y="-175.2" font-family="Helvetica,sans-Serif" font-size="11.00">object_identifier</text>
<polygon fill="none" stroke="black" points="182,-167 182,-189 248,-189 248,-167 182,-167"/>
<text text-anchor="start" x="185" y="-175.2" font-family="Helvetica,sans-Serif" font-size="11.00">bigint[19]</text>
<polygon fill="none" stroke="black" points="10,-145 10,-167 182,-167 182,-145 10,-145"/>
<text text-anchor="start" x="30" y="-153.2" font-family="Helvetica,sans-Serif" font-size="11.00">action</text>
<polygon fill="none" stroke="black" points="182,-145 182,-167 248,-167 248,-145 182,-145"/>
<text text-anchor="start" x="185" y="-153.2" font-family="Helvetica,sans-Serif" font-size="11.00">text[65535]</text>
<polygon fill="none" stroke="black" points="10,-123 10,-145 182,-145 182,-123 10,-123"/>
<text text-anchor="start" x="30" y="-131.2" font-family="Helvetica,sans-Serif" font-size="11.00">actor</text>
<polygon fill="none" stroke="black" points="182,-123 182,-145 248,-145 248,-123 182,-123"/>
<text text-anchor="start" x="185" y="-131.2" font-family="Helvetica,sans-Serif" font-size="11.00">bigint[19]</text>
<polygon fill="none" stroke="black" points="10,-101 10,-123 182,-123 182,-101 10,-101"/>
<text text-anchor="start" x="30" y="-109.2" font-family="Helvetica,sans-Serif" font-size="11.00">is_system_generated</text>
<polygon fill="none" stroke="black" points="182,-101 182,-123 248,-123 248,-101 182,-101"/>
<text text-anchor="start" x="185" y="-109.2" font-family="Helvetica,sans-Serif" font-size="11.00">bit[1]</text>
<polygon fill="none" stroke="black" points="10,-79 10,-101 182,-101 182,-79 10,-79"/>
<text text-anchor="start" x="30" y="-87.2" font-family="Helvetica,sans-Serif" font-size="11.00">notification_content</text>
<polygon fill="none" stroke="black" points="182,-79 182,-101 248,-101 248,-79 182,-79"/>
<text text-anchor="start" x="185" y="-87.2" font-family="Helvetica,sans-Serif" font-size="11.00">text[65535]</text>
<polygon fill="none" stroke="black" points="10,-57 10,-79 182,-79 182,-57 10,-57"/>
<text text-anchor="start" x="30" y="-65.2" font-family="Helvetica,sans-Serif" font-size="11.00">created_at</text>
<polygon fill="none" stroke="black" points="182,-57 182,-79 248,-79 248,-57 182,-57"/>
<text text-anchor="start" x="185" y="-65.2" font-family="Helvetica,sans-Serif" font-size="11.00">datetime[19]</text>
<polygon fill="#ffffff" stroke="transparent" points="10,-39 10,-57 87,-57 87,-39 10,-39"/>
<polygon fill="none" stroke="black" points="10,-39 10,-57 87,-57 87,-39 10,-39"/>
<text text-anchor="start" x="13" y="-45.2" font-family="Helvetica,sans-Serif" font-size="11.00">&lt; 0</text>
<polygon fill="#ffffff" stroke="transparent" points="87,-39 87,-57 182,-57 182,-39 87,-39"/>
<polygon fill="none" stroke="black" points="87,-39 87,-57 182,-57 182,-39 87,-39"/>
<text text-anchor="start" x="146" y="-45.2" font-family="Helvetica,sans-Serif" font-size="11.00">0 rows</text>
<polygon fill="#ffffff" stroke="transparent" points="182,-39 182,-57 248,-57 248,-39 182,-39"/>
<polygon fill="none" stroke="black" points="182,-39 182,-57 248,-57 248,-39 182,-39"/>
<text text-anchor="start" x="229" y="-45.2" font-family="Helvetica,sans-Serif" font-size="11.00">1 &gt;</text>
<polygon fill="none" stroke="black" stroke-width="2" points="9,-38 9,-256 249,-256 249,-38 9,-38"/>
</a>
</g>
</g>
<!-- notification_mapper&#45;&gt;notification_generator -->
<g id="edge1" class="edge">
<title>notification_mapper:w&#45;&gt;notification_generator:e</title>
<path fill="none" stroke="black" d="M283.49,-222C272.18,-222 264.99,-222 249,-222"/>
<polygon fill="black" stroke="black" points="290,-222 298,-225.6 294,-222 298,-222 298,-222 298,-222 294,-222 298,-218.4 290,-222 290,-222"/>
<ellipse fill="none" stroke="black" cx="286.8" cy="-222" rx="3.2" ry="3.2"/>
</g>
</g>
</svg>
