<?xml version="1.0" encoding="UTF-8" standalone="no"?>
<!DOCTYPE svg PUBLIC "-//W3C//DTD SVG 1.1//EN"
 "http://www.w3.org/Graphics/SVG/1.1/DTD/svg11.dtd">
<!-- Generated by graphviz version 2.43.0 (0)
 -->
<!-- Title: oneDegreeRelationshipsDiagram Pages: 1 -->
<svg width="948pt" height="886pt"
 viewBox="0.00 0.00 948.00 886.00" xmlns="http://www.w3.org/2000/svg" xmlns:xlink="http://www.w3.org/1999/xlink">
<g id="graph0" class="graph" transform="scale(1 1) rotate(0) translate(4 882)">
<title>oneDegreeRelationshipsDiagram</title>
<polygon fill="#ffffff" stroke="transparent" points="-4,4 -4,-882 944,-882 944,4 -4,4"/>
<text text-anchor="middle" x="71.5" y="-7.2" font-family="Helvetica,sans-Serif" font-size="11.00">Generated by SchemaSpy</text>
<!-- m_client -->
<g id="node1" class="node">
<title>m_client</title>
<g id="a_node1"><a xlink:href="../../tables/m_client.html" xlink:title="m_client" target="_top">
<polygon fill="#ffffff" stroke="transparent" points="329,-187 329,-619 522,-619 522,-187 329,-187"/>
<polygon fill="#f5f5f5" stroke="transparent" points="329.5,-597 329.5,-619 522.5,-619 522.5,-597 329.5,-597"/>
<polygon fill="none" stroke="black" points="329.5,-597 329.5,-619 522.5,-619 522.5,-597 329.5,-597"/>
<text text-anchor="start" x="334.5" y="-606.2" font-family="Helvetica,sans-Serif" font-weight="bold" font-size="11.00">m_client</text>
<text text-anchor="start" x="487.5" y="-605.2" font-family="Helvetica,sans-Serif" font-size="11.00">[table]</text>
<polygon fill="none" stroke="black" points="329.5,-575 329.5,-597 522.5,-597 522.5,-575 329.5,-575"/>
<image xlink:href="../../images/primaryKeys.png" width="11px" height="12px" preserveAspectRatio="xMinYMin meet" x="334.5" y="-592"/>
<text text-anchor="start" x="349.5" y="-583.2" font-family="Helvetica,sans-Serif" font-size="11.00">id</text>
<polygon fill="#ffffff" stroke="transparent" points="329.5,-553 329.5,-575 522.5,-575 522.5,-553 329.5,-553"/>
<polygon fill="none" stroke="black" points="329.5,-553 329.5,-575 522.5,-575 522.5,-553 329.5,-553"/>
<text text-anchor="start" x="349.5" y="-561.2" font-family="Helvetica,sans-Serif" font-size="11.00">account_no</text>
<polygon fill="#ffffff" stroke="transparent" points="329.5,-531 329.5,-553 522.5,-553 522.5,-531 329.5,-531"/>
<polygon fill="none" stroke="black" points="329.5,-531 329.5,-553 522.5,-553 522.5,-531 329.5,-531"/>
<text text-anchor="start" x="349.5" y="-539.2" font-family="Helvetica,sans-Serif" font-size="11.00">external_id</text>
<polygon fill="#ffffff" stroke="transparent" points="329.5,-509 329.5,-531 522.5,-531 522.5,-509 329.5,-509"/>
<polygon fill="none" stroke="black" points="329.5,-509 329.5,-531 522.5,-531 522.5,-509 329.5,-509"/>
<image xlink:href="../../images/foreignKeys.png" width="11px" height="12px" preserveAspectRatio="xMinYMin meet" x="334.5" y="-526"/>
<text text-anchor="start" x="349.5" y="-517.2" font-family="Helvetica,sans-Serif" font-size="11.00">sub_status</text>
<polygon fill="#ffffff" stroke="transparent" points="329.5,-487 329.5,-509 522.5,-509 522.5,-487 329.5,-487"/>
<polygon fill="none" stroke="black" points="329.5,-487 329.5,-509 522.5,-509 522.5,-487 329.5,-487"/>
<image xlink:href="../../images/foreignKeys.png" width="11px" height="12px" preserveAspectRatio="xMinYMin meet" x="334.5" y="-504"/>
<text text-anchor="start" x="349.5" y="-495.2" font-family="Helvetica,sans-Serif" font-size="11.00">office_id</text>
<polygon fill="#ffffff" stroke="transparent" points="329.5,-465 329.5,-487 522.5,-487 522.5,-465 329.5,-465"/>
<polygon fill="none" stroke="black" points="329.5,-465 329.5,-487 522.5,-487 522.5,-465 329.5,-465"/>
<image xlink:href="../../images/foreignKeys.png" width="11px" height="12px" preserveAspectRatio="xMinYMin meet" x="334.5" y="-482"/>
<text text-anchor="start" x="349.5" y="-473.2" font-family="Helvetica,sans-Serif" font-size="11.00">transfer_to_office_id</text>
<polygon fill="#ffffff" stroke="transparent" points="329.5,-443 329.5,-465 522.5,-465 522.5,-443 329.5,-443"/>
<polygon fill="none" stroke="black" points="329.5,-443 329.5,-465 522.5,-465 522.5,-443 329.5,-443"/>
<image xlink:href="../../images/foreignKeys.png" width="11px" height="12px" preserveAspectRatio="xMinYMin meet" x="334.5" y="-460"/>
<text text-anchor="start" x="349.5" y="-451.2" font-family="Helvetica,sans-Serif" font-size="11.00">staff_id</text>
<polygon fill="#ffffff" stroke="transparent" points="329.5,-421 329.5,-443 522.5,-443 522.5,-421 329.5,-421"/>
<polygon fill="none" stroke="black" points="329.5,-421 329.5,-443 522.5,-443 522.5,-421 329.5,-421"/>
<text text-anchor="start" x="349.5" y="-429.2" font-family="Helvetica,sans-Serif" font-size="11.00">mobile_no</text>
<polygon fill="#ffffff" stroke="transparent" points="329.5,-399 329.5,-421 522.5,-421 522.5,-399 329.5,-399"/>
<polygon fill="none" stroke="black" points="329.5,-399 329.5,-421 522.5,-421 522.5,-399 329.5,-399"/>
<image xlink:href="../../images/foreignKeys.png" width="11px" height="12px" preserveAspectRatio="xMinYMin meet" x="334.5" y="-416"/>
<text text-anchor="start" x="349.5" y="-407.2" font-family="Helvetica,sans-Serif" font-size="11.00">gender_cv_id</text>
<polygon fill="#ffffff" stroke="transparent" points="329.5,-377 329.5,-399 522.5,-399 522.5,-377 329.5,-377"/>
<polygon fill="none" stroke="black" points="329.5,-377 329.5,-399 522.5,-399 522.5,-377 329.5,-377"/>
<image xlink:href="../../images/foreignKeys.png" width="11px" height="12px" preserveAspectRatio="xMinYMin meet" x="334.5" y="-394"/>
<text text-anchor="start" x="349.5" y="-385.2" font-family="Helvetica,sans-Serif" font-size="11.00">image_id</text>
<polygon fill="#ffffff" stroke="transparent" points="329.5,-355 329.5,-377 522.5,-377 522.5,-355 329.5,-355"/>
<polygon fill="none" stroke="black" points="329.5,-355 329.5,-377 522.5,-377 522.5,-355 329.5,-355"/>
<image xlink:href="../../images/foreignKeys.png" width="11px" height="12px" preserveAspectRatio="xMinYMin meet" x="334.5" y="-372"/>
<text text-anchor="start" x="349.5" y="-363.2" font-family="Helvetica,sans-Serif" font-size="11.00">closure_reason_cv_id</text>
<polygon fill="#ffffff" stroke="transparent" points="329.5,-333 329.5,-355 522.5,-355 522.5,-333 329.5,-333"/>
<polygon fill="none" stroke="black" points="329.5,-333 329.5,-355 522.5,-355 522.5,-333 329.5,-333"/>
<image xlink:href="../../images/foreignKeys.png" width="11px" height="12px" preserveAspectRatio="xMinYMin meet" x="334.5" y="-350"/>
<text text-anchor="start" x="349.5" y="-341.2" font-family="Helvetica,sans-Serif" font-size="11.00">default_savings_product</text>
<polygon fill="#ffffff" stroke="transparent" points="329.5,-311 329.5,-333 522.5,-333 522.5,-311 329.5,-311"/>
<polygon fill="none" stroke="black" points="329.5,-311 329.5,-333 522.5,-333 522.5,-311 329.5,-311"/>
<image xlink:href="../../images/foreignKeys.png" width="11px" height="12px" preserveAspectRatio="xMinYMin meet" x="334.5" y="-328"/>
<text text-anchor="start" x="349.5" y="-319.2" font-family="Helvetica,sans-Serif" font-size="11.00">default_savings_account</text>
<polygon fill="#ffffff" stroke="transparent" points="329.5,-289 329.5,-311 522.5,-311 522.5,-289 329.5,-289"/>
<polygon fill="none" stroke="black" points="329.5,-289 329.5,-311 522.5,-311 522.5,-289 329.5,-289"/>
<image xlink:href="../../images/foreignKeys.png" width="11px" height="12px" preserveAspectRatio="xMinYMin meet" x="334.5" y="-306"/>
<text text-anchor="start" x="349.5" y="-297.2" font-family="Helvetica,sans-Serif" font-size="11.00">client_type_cv_id</text>
<polygon fill="#ffffff" stroke="transparent" points="329.5,-267 329.5,-289 522.5,-289 522.5,-267 329.5,-267"/>
<polygon fill="none" stroke="black" points="329.5,-267 329.5,-289 522.5,-289 522.5,-267 329.5,-267"/>
<image xlink:href="../../images/foreignKeys.png" width="11px" height="12px" preserveAspectRatio="xMinYMin meet" x="334.5" y="-284"/>
<text text-anchor="start" x="349.5" y="-275.2" font-family="Helvetica,sans-Serif" font-size="11.00">client_classification_cv_id</text>
<polygon fill="#ffffff" stroke="transparent" points="329.5,-245 329.5,-267 522.5,-267 522.5,-245 329.5,-245"/>
<polygon fill="none" stroke="black" points="329.5,-245 329.5,-267 522.5,-267 522.5,-245 329.5,-245"/>
<image xlink:href="../../images/foreignKeys.png" width="11px" height="12px" preserveAspectRatio="xMinYMin meet" x="334.5" y="-262"/>
<text text-anchor="start" x="349.5" y="-253.2" font-family="Helvetica,sans-Serif" font-size="11.00">reject_reason_cv_id</text>
<polygon fill="#ffffff" stroke="transparent" points="329.5,-223 329.5,-245 522.5,-245 522.5,-223 329.5,-223"/>
<polygon fill="none" stroke="black" points="329.5,-223 329.5,-245 522.5,-245 522.5,-223 329.5,-223"/>
<image xlink:href="../../images/foreignKeys.png" width="11px" height="12px" preserveAspectRatio="xMinYMin meet" x="334.5" y="-240"/>
<text text-anchor="start" x="349.5" y="-231.2" font-family="Helvetica,sans-Serif" font-size="11.00">withdraw_reason_cv_id</text>
<polygon fill="none" stroke="black" points="329.5,-205 329.5,-223 522.5,-223 522.5,-205 329.5,-205"/>
<text text-anchor="start" x="332.5" y="-211.2" font-family="Helvetica,sans-Serif" font-size="11.00">...</text>
<polygon fill="#ffffff" stroke="transparent" points="329.5,-187 329.5,-205 406.5,-205 406.5,-187 329.5,-187"/>
<polygon fill="none" stroke="black" points="329.5,-187 329.5,-205 406.5,-205 406.5,-187 329.5,-187"/>
<text text-anchor="start" x="332.5" y="-193.2" font-family="Helvetica,sans-Serif" font-size="11.00">&lt; 13</text>
<polygon fill="#ffffff" stroke="transparent" points="406.5,-187 406.5,-205 469.5,-205 469.5,-187 406.5,-187"/>
<polygon fill="none" stroke="black" points="406.5,-187 406.5,-205 469.5,-205 469.5,-187 406.5,-187"/>
<text text-anchor="start" x="433.5" y="-193.2" font-family="Helvetica,sans-Serif" font-size="11.00">0 rows</text>
<polygon fill="#ffffff" stroke="transparent" points="469.5,-187 469.5,-205 522.5,-205 522.5,-187 469.5,-187"/>
<polygon fill="none" stroke="black" points="469.5,-187 469.5,-205 522.5,-205 522.5,-187 469.5,-187"/>
<text text-anchor="start" x="497.5" y="-193.2" font-family="Helvetica,sans-Serif" font-size="11.00">23 &gt;</text>
</a>
</g>
</g>
<!-- m_staff -->
<g id="node2" class="node">
<title>m_staff</title>
<g id="a_node2"><a xlink:href="../../tables/m_staff.html" xlink:title="m_staff" target="_top">
<polygon fill="#ffffff" stroke="transparent" points="8,-297 8,-487 266,-487 266,-297 8,-297"/>
<polygon fill="#f5f5f5" stroke="transparent" points="8,-465 8,-487 266,-487 266,-465 8,-465"/>
<polygon fill="none" stroke="black" points="8,-465 8,-487 266,-487 266,-465 8,-465"/>
<text text-anchor="start" x="13" y="-474.2" font-family="Helvetica,sans-Serif" font-weight="bold" font-size="11.00">m_staff</text>
<text text-anchor="start" x="231" y="-473.2" font-family="Helvetica,sans-Serif" font-size="11.00">[table]</text>
<polygon fill="none" stroke="black" points="8,-443 8,-465 266,-465 266,-443 8,-443"/>
<image xlink:href="../../images/primaryKeys.png" width="11px" height="12px" preserveAspectRatio="xMinYMin meet" x="13" y="-460"/>
<text text-anchor="start" x="28" y="-451.2" font-family="Helvetica,sans-Serif" font-size="11.00">id</text>
<polygon fill="#ffffff" stroke="transparent" points="8,-421 8,-443 266,-443 266,-421 8,-421"/>
<polygon fill="none" stroke="black" points="8,-421 8,-443 266,-443 266,-421 8,-421"/>
<image xlink:href="../../images/foreignKeys.png" width="11px" height="12px" preserveAspectRatio="xMinYMin meet" x="13" y="-438"/>
<text text-anchor="start" x="28" y="-429.2" font-family="Helvetica,sans-Serif" font-size="11.00">office_id</text>
<polygon fill="#ffffff" stroke="transparent" points="8,-399 8,-421 266,-421 266,-399 8,-399"/>
<polygon fill="none" stroke="black" points="8,-399 8,-421 266,-421 266,-399 8,-399"/>
<text text-anchor="start" x="28" y="-407.2" font-family="Helvetica,sans-Serif" font-size="11.00">display_name</text>
<polygon fill="#ffffff" stroke="transparent" points="8,-377 8,-399 266,-399 266,-377 8,-377"/>
<polygon fill="none" stroke="black" points="8,-377 8,-399 266,-399 266,-377 8,-377"/>
<text text-anchor="start" x="28" y="-385.2" font-family="Helvetica,sans-Serif" font-size="11.00">mobile_no</text>
<polygon fill="#ffffff" stroke="transparent" points="8,-355 8,-377 266,-377 266,-355 8,-355"/>
<polygon fill="none" stroke="black" points="8,-355 8,-377 266,-377 266,-355 8,-355"/>
<text text-anchor="start" x="28" y="-363.2" font-family="Helvetica,sans-Serif" font-size="11.00">external_id</text>
<polygon fill="#ffffff" stroke="transparent" points="8,-333 8,-355 266,-355 266,-333 8,-333"/>
<polygon fill="none" stroke="black" points="8,-333 8,-355 266,-355 266,-333 8,-333"/>
<image xlink:href="../../images/foreignKeys.png" width="11px" height="12px" preserveAspectRatio="xMinYMin meet" x="13" y="-350"/>
<text text-anchor="start" x="28" y="-341.2" font-family="Helvetica,sans-Serif" font-size="11.00">image_id</text>
<polygon fill="none" stroke="black" points="8,-315 8,-333 266,-333 266,-315 8,-315"/>
<text text-anchor="start" x="11" y="-321.2" font-family="Helvetica,sans-Serif" font-size="11.00">...</text>
<polygon fill="#ffffff" stroke="transparent" points="8,-297 8,-315 114,-315 114,-297 8,-297"/>
<polygon fill="none" stroke="black" points="8,-297 8,-315 114,-315 114,-297 8,-297"/>
<text text-anchor="start" x="11" y="-303.2" font-family="Helvetica,sans-Serif" font-size="11.00">&lt; 2</text>
<polygon fill="#ffffff" stroke="transparent" points="114,-297 114,-315 195,-315 195,-297 114,-297"/>
<polygon fill="none" stroke="black" points="114,-297 114,-315 195,-315 195,-297 114,-297"/>
<text text-anchor="start" x="159" y="-303.2" font-family="Helvetica,sans-Serif" font-size="11.00">0 rows</text>
<polygon fill="#ffffff" stroke="transparent" points="195,-297 195,-315 266,-315 266,-297 195,-297"/>
<polygon fill="none" stroke="black" points="195,-297 195,-315 266,-315 266,-297 195,-297"/>
<text text-anchor="start" x="241" y="-303.2" font-family="Helvetica,sans-Serif" font-size="11.00">10 &gt;</text>
</a>
</g>
</g>
<!-- m_client&#45;&gt;m_staff -->
<g id="edge1" class="edge">
<title>m_client:w&#45;&gt;m_staff:e</title>
<path fill="none" stroke="black" d="M314.04,-454C297.54,-454 288.78,-454 267,-454"/>
<polygon fill="black" stroke="black" points="320.5,-454 328.5,-457.6 324.5,-454 328.5,-454 328.5,-454 328.5,-454 324.5,-454 328.5,-450.4 320.5,-454 320.5,-454"/>
<ellipse fill="none" stroke="black" cx="317.3" cy="-454" rx="3.2" ry="3.2"/>
</g>
<!-- m_group -->
<g id="node3" class="node">
<title>m_group</title>
<g id="a_node3"><a xlink:href="../../tables/m_group.html" xlink:title="m_group" target="_top">
<polygon fill="#ffffff" stroke="transparent" points="345,-640 345,-874 506,-874 506,-640 345,-640"/>
<polygon fill="#f5f5f5" stroke="transparent" points="345.5,-852 345.5,-874 506.5,-874 506.5,-852 345.5,-852"/>
<polygon fill="none" stroke="black" points="345.5,-852 345.5,-874 506.5,-874 506.5,-852 345.5,-852"/>
<text text-anchor="start" x="350.5" y="-861.2" font-family="Helvetica,sans-Serif" font-weight="bold" font-size="11.00">m_group</text>
<text text-anchor="start" x="471.5" y="-860.2" font-family="Helvetica,sans-Serif" font-size="11.00">[table]</text>
<polygon fill="none" stroke="black" points="345.5,-830 345.5,-852 506.5,-852 506.5,-830 345.5,-830"/>
<image xlink:href="../../images/primaryKeys.png" width="11px" height="12px" preserveAspectRatio="xMinYMin meet" x="350.5" y="-847"/>
<text text-anchor="start" x="365.5" y="-838.2" font-family="Helvetica,sans-Serif" font-size="11.00">id</text>
<polygon fill="#ffffff" stroke="transparent" points="345.5,-808 345.5,-830 506.5,-830 506.5,-808 345.5,-808"/>
<polygon fill="none" stroke="black" points="345.5,-808 345.5,-830 506.5,-830 506.5,-808 345.5,-808"/>
<text text-anchor="start" x="365.5" y="-816.2" font-family="Helvetica,sans-Serif" font-size="11.00">external_id</text>
<polygon fill="#ffffff" stroke="transparent" points="345.5,-786 345.5,-808 506.5,-808 506.5,-786 345.5,-786"/>
<polygon fill="none" stroke="black" points="345.5,-786 345.5,-808 506.5,-808 506.5,-786 345.5,-786"/>
<image xlink:href="../../images/foreignKeys.png" width="11px" height="12px" preserveAspectRatio="xMinYMin meet" x="350.5" y="-803"/>
<text text-anchor="start" x="365.5" y="-794.2" font-family="Helvetica,sans-Serif" font-size="11.00">office_id</text>
<polygon fill="#ffffff" stroke="transparent" points="345.5,-764 345.5,-786 506.5,-786 506.5,-764 345.5,-764"/>
<polygon fill="none" stroke="black" points="345.5,-764 345.5,-786 506.5,-786 506.5,-764 345.5,-764"/>
<image xlink:href="../../images/foreignKeys.png" width="11px" height="12px" preserveAspectRatio="xMinYMin meet" x="350.5" y="-781"/>
<text text-anchor="start" x="365.5" y="-772.2" font-family="Helvetica,sans-Serif" font-size="11.00">staff_id</text>
<polygon fill="#ffffff" stroke="transparent" points="345.5,-742 345.5,-764 506.5,-764 506.5,-742 345.5,-742"/>
<polygon fill="none" stroke="black" points="345.5,-742 345.5,-764 506.5,-764 506.5,-742 345.5,-742"/>
<image xlink:href="../../images/foreignKeys.png" width="11px" height="12px" preserveAspectRatio="xMinYMin meet" x="350.5" y="-759"/>
<text text-anchor="start" x="365.5" y="-750.2" font-family="Helvetica,sans-Serif" font-size="11.00">parent_id</text>
<polygon fill="#ffffff" stroke="transparent" points="345.5,-720 345.5,-742 506.5,-742 506.5,-720 345.5,-720"/>
<polygon fill="none" stroke="black" points="345.5,-720 345.5,-742 506.5,-742 506.5,-720 345.5,-720"/>
<image xlink:href="../../images/foreignKeys.png" width="11px" height="12px" preserveAspectRatio="xMinYMin meet" x="350.5" y="-737"/>
<text text-anchor="start" x="365.5" y="-728.2" font-family="Helvetica,sans-Serif" font-size="11.00">level_id</text>
<polygon fill="#ffffff" stroke="transparent" points="345.5,-698 345.5,-720 506.5,-720 506.5,-698 345.5,-698"/>
<polygon fill="none" stroke="black" points="345.5,-698 345.5,-720 506.5,-720 506.5,-698 345.5,-698"/>
<text text-anchor="start" x="365.5" y="-706.2" font-family="Helvetica,sans-Serif" font-size="11.00">display_name</text>
<polygon fill="#ffffff" stroke="transparent" points="345.5,-676 345.5,-698 506.5,-698 506.5,-676 345.5,-676"/>
<polygon fill="none" stroke="black" points="345.5,-676 345.5,-698 506.5,-698 506.5,-676 345.5,-676"/>
<image xlink:href="../../images/foreignKeys.png" width="11px" height="12px" preserveAspectRatio="xMinYMin meet" x="350.5" y="-693"/>
<text text-anchor="start" x="365.5" y="-684.2" font-family="Helvetica,sans-Serif" font-size="11.00">closure_reason_cv_id</text>
<polygon fill="none" stroke="black" points="345.5,-658 345.5,-676 506.5,-676 506.5,-658 345.5,-658"/>
<text text-anchor="start" x="348.5" y="-664.2" font-family="Helvetica,sans-Serif" font-size="11.00">...</text>
<polygon fill="#ffffff" stroke="transparent" points="345.5,-640 345.5,-658 403.5,-658 403.5,-640 345.5,-640"/>
<polygon fill="none" stroke="black" points="345.5,-640 345.5,-658 403.5,-658 403.5,-640 345.5,-640"/>
<text text-anchor="start" x="348.5" y="-646.2" font-family="Helvetica,sans-Serif" font-size="11.00">&lt; 5</text>
<polygon fill="#ffffff" stroke="transparent" points="403.5,-640 403.5,-658 460.5,-658 460.5,-640 403.5,-640"/>
<polygon fill="none" stroke="black" points="403.5,-640 403.5,-658 460.5,-658 460.5,-640 403.5,-640"/>
<text text-anchor="start" x="424.5" y="-646.2" font-family="Helvetica,sans-Serif" font-size="11.00">0 rows</text>
<polygon fill="#ffffff" stroke="transparent" points="460.5,-640 460.5,-658 506.5,-658 506.5,-640 460.5,-640"/>
<polygon fill="none" stroke="black" points="460.5,-640 460.5,-658 506.5,-658 506.5,-640 460.5,-640"/>
<text text-anchor="start" x="481.5" y="-646.2" font-family="Helvetica,sans-Serif" font-size="11.00">11 &gt;</text>
</a>
</g>
</g>
<!-- m_group&#45;&gt;m_staff -->
<g id="edge2" class="edge">
<title>m_group:w&#45;&gt;m_staff:e</title>
<path fill="none" stroke="black" d="M330.72,-770.21C280.38,-730.28 335.08,-454 267,-454"/>
<polygon fill="black" stroke="black" points="336.94,-772.38 343.32,-778.4 340.72,-773.69 344.5,-775 344.5,-775 344.5,-775 340.72,-773.69 345.68,-771.6 336.94,-772.38 336.94,-772.38"/>
<ellipse fill="none" stroke="black" cx="333.92" cy="-771.33" rx="3.2" ry="3.2"/>
</g>
<!-- scheduled_email_messages_outbound -->
<g id="node4" class="node">
<title>scheduled_email_messages_outbound</title>
<g id="a_node4"><a xlink:href="../../tables/scheduled_email_messages_outbound.html" xlink:title="scheduled_email_messages_outbound" target="_top">
<polygon fill="#ffffff" stroke="transparent" points="585,-156 585,-464 932,-464 932,-156 585,-156"/>
<polygon fill="#f5f5f5" stroke="transparent" points="587.5,-440 587.5,-462 930.5,-462 930.5,-440 587.5,-440"/>
<polygon fill="none" stroke="black" points="587.5,-440 587.5,-462 930.5,-462 930.5,-440 587.5,-440"/>
<text text-anchor="start" x="592.5" y="-449.2" font-family="Helvetica,sans-Serif" font-weight="bold" font-size="11.00">scheduled_email_messages_outbound</text>
<text text-anchor="start" x="895.5" y="-448.2" font-family="Helvetica,sans-Serif" font-size="11.00">[table]</text>
<polygon fill="none" stroke="black" points="587.5,-418 587.5,-440 863.5,-440 863.5,-418 587.5,-418"/>
<image xlink:href="../../images/primaryKeys.png" width="11px" height="12px" preserveAspectRatio="xMinYMin meet" x="592.5" y="-435"/>
<text text-anchor="start" x="607.5" y="-426.2" font-family="Helvetica,sans-Serif" font-size="11.00">id</text>
<polygon fill="none" stroke="black" points="863.5,-418 863.5,-440 930.5,-440 930.5,-418 863.5,-418"/>
<text text-anchor="start" x="866.5" y="-426.2" font-family="Helvetica,sans-Serif" font-size="11.00">bigint[19]</text>
<polygon fill="#ffffff" stroke="transparent" points="587.5,-396 587.5,-418 863.5,-418 863.5,-396 587.5,-396"/>
<polygon fill="none" stroke="black" points="587.5,-396 587.5,-418 863.5,-418 863.5,-396 587.5,-396"/>
<image xlink:href="../../images/foreignKeys.png" width="11px" height="12px" preserveAspectRatio="xMinYMin meet" x="592.5" y="-413"/>
<text text-anchor="start" x="607.5" y="-404.2" font-family="Helvetica,sans-Serif" font-size="11.00">group_id</text>
<polygon fill="none" stroke="black" points="863.5,-396 863.5,-418 930.5,-418 930.5,-396 863.5,-396"/>
<text text-anchor="start" x="866.5" y="-404.2" font-family="Helvetica,sans-Serif" font-size="11.00">bigint[19]</text>
<polygon fill="#ffffff" stroke="transparent" points="587.5,-374 587.5,-396 863.5,-396 863.5,-374 587.5,-374"/>
<polygon fill="none" stroke="black" points="587.5,-374 587.5,-396 863.5,-396 863.5,-374 587.5,-374"/>
<image xlink:href="../../images/foreignKeys.png" width="11px" height="12px" preserveAspectRatio="xMinYMin meet" x="592.5" y="-391"/>
<text text-anchor="start" x="607.5" y="-382.2" font-family="Helvetica,sans-Serif" font-size="11.00">client_id</text>
<polygon fill="none" stroke="black" points="863.5,-374 863.5,-396 930.5,-396 930.5,-374 863.5,-374"/>
<text text-anchor="start" x="866.5" y="-382.2" font-family="Helvetica,sans-Serif" font-size="11.00">bigint[19]</text>
<polygon fill="#ffffff" stroke="transparent" points="587.5,-352 587.5,-374 863.5,-374 863.5,-352 587.5,-352"/>
<polygon fill="none" stroke="black" points="587.5,-352 587.5,-374 863.5,-374 863.5,-352 587.5,-352"/>
<image xlink:href="../../images/foreignKeys.png" width="11px" height="12px" preserveAspectRatio="xMinYMin meet" x="592.5" y="-369"/>
<text text-anchor="start" x="607.5" y="-360.2" font-family="Helvetica,sans-Serif" font-size="11.00">staff_id</text>
<polygon fill="none" stroke="black" points="863.5,-352 863.5,-374 930.5,-374 930.5,-352 863.5,-352"/>
<text text-anchor="start" x="866.5" y="-360.2" font-family="Helvetica,sans-Serif" font-size="11.00">bigint[19]</text>
<polygon fill="#ffffff" stroke="transparent" points="587.5,-330 587.5,-352 863.5,-352 863.5,-330 587.5,-330"/>
<polygon fill="none" stroke="black" points="587.5,-330 587.5,-352 863.5,-352 863.5,-330 587.5,-330"/>
<image xlink:href="../../images/foreignKeys.png" width="11px" height="12px" preserveAspectRatio="xMinYMin meet" x="592.5" y="-347"/>
<text text-anchor="start" x="607.5" y="-338.2" font-family="Helvetica,sans-Serif" font-size="11.00">email_campaign_id</text>
<polygon fill="none" stroke="black" points="863.5,-330 863.5,-352 930.5,-352 930.5,-330 863.5,-330"/>
<text text-anchor="start" x="866.5" y="-338.2" font-family="Helvetica,sans-Serif" font-size="11.00">bigint[19]</text>
<polygon fill="none" stroke="black" points="587.5,-308 587.5,-330 863.5,-330 863.5,-308 587.5,-308"/>
<text text-anchor="start" x="607.5" y="-316.2" font-family="Helvetica,sans-Serif" font-size="11.00">status_enum</text>
<polygon fill="none" stroke="black" points="863.5,-308 863.5,-330 930.5,-330 930.5,-308 863.5,-308"/>
<text text-anchor="start" x="866.5" y="-316.2" font-family="Helvetica,sans-Serif" font-size="11.00">int[10]</text>
<polygon fill="none" stroke="black" points="587.5,-286 587.5,-308 863.5,-308 863.5,-286 587.5,-286"/>
<text text-anchor="start" x="607.5" y="-294.2" font-family="Helvetica,sans-Serif" font-size="11.00">email_address</text>
<polygon fill="none" stroke="black" points="863.5,-286 863.5,-308 930.5,-308 930.5,-286 863.5,-286"/>
<text text-anchor="start" x="866.5" y="-294.2" font-family="Helvetica,sans-Serif" font-size="11.00">varchar[50]</text>
<polygon fill="none" stroke="black" points="587.5,-264 587.5,-286 863.5,-286 863.5,-264 587.5,-264"/>
<text text-anchor="start" x="607.5" y="-272.2" font-family="Helvetica,sans-Serif" font-size="11.00">email_subject</text>
<polygon fill="none" stroke="black" points="863.5,-264 863.5,-286 930.5,-286 930.5,-264 863.5,-264"/>
<text text-anchor="start" x="866.5" y="-272.2" font-family="Helvetica,sans-Serif" font-size="11.00">varchar[50]</text>
<polygon fill="none" stroke="black" points="587.5,-242 587.5,-264 863.5,-264 863.5,-242 587.5,-242"/>
<text text-anchor="start" x="607.5" y="-250.2" font-family="Helvetica,sans-Serif" font-size="11.00">message</text>
<polygon fill="none" stroke="black" points="863.5,-242 863.5,-264 930.5,-264 930.5,-242 863.5,-242"/>
<text text-anchor="start" x="866.5" y="-250.2" font-family="Helvetica,sans-Serif" font-size="11.00">text[65535]</text>
<polygon fill="none" stroke="black" points="587.5,-220 587.5,-242 863.5,-242 863.5,-220 587.5,-220"/>
<text text-anchor="start" x="607.5" y="-228.2" font-family="Helvetica,sans-Serif" font-size="11.00">campaign_name</text>
<polygon fill="none" stroke="black" points="863.5,-220 863.5,-242 930.5,-242 930.5,-220 863.5,-220"/>
<text text-anchor="start" x="866.5" y="-228.2" font-family="Helvetica,sans-Serif" font-size="11.00">varchar[200]</text>
<polygon fill="none" stroke="black" points="587.5,-198 587.5,-220 863.5,-220 863.5,-198 587.5,-198"/>
<text text-anchor="start" x="607.5" y="-206.2" font-family="Helvetica,sans-Serif" font-size="11.00">submittedon_date</text>
<polygon fill="none" stroke="black" points="863.5,-198 863.5,-220 930.5,-220 930.5,-198 863.5,-198"/>
<text text-anchor="start" x="866.5" y="-206.2" font-family="Helvetica,sans-Serif" font-size="11.00">date[10]</text>
<polygon fill="none" stroke="black" points="587.5,-176 587.5,-198 863.5,-198 863.5,-176 587.5,-176"/>
<text text-anchor="start" x="607.5" y="-184.2" font-family="Helvetica,sans-Serif" font-size="11.00">error_message</text>
<polygon fill="none" stroke="black" points="863.5,-176 863.5,-198 930.5,-198 930.5,-176 863.5,-176"/>
<text text-anchor="start" x="866.5" y="-184.2" font-family="Helvetica,sans-Serif" font-size="11.00">text[65535]</text>
<polygon fill="#ffffff" stroke="transparent" points="587.5,-158 587.5,-176 716.5,-176 716.5,-158 587.5,-158"/>
<polygon fill="none" stroke="black" points="587.5,-158 587.5,-176 716.5,-176 716.5,-158 587.5,-158"/>
<text text-anchor="start" x="590.5" y="-164.2" font-family="Helvetica,sans-Serif" font-size="11.00">&lt; 4</text>
<polygon fill="#ffffff" stroke="transparent" points="716.5,-158 716.5,-176 863.5,-176 863.5,-158 716.5,-158"/>
<polygon fill="none" stroke="black" points="716.5,-158 716.5,-176 863.5,-176 863.5,-158 716.5,-158"/>
<text text-anchor="start" x="827.5" y="-164.2" font-family="Helvetica,sans-Serif" font-size="11.00">0 rows</text>
<polygon fill="#ffffff" stroke="transparent" points="863.5,-158 863.5,-176 930.5,-176 930.5,-158 863.5,-158"/>
<polygon fill="none" stroke="black" points="863.5,-158 863.5,-176 930.5,-176 930.5,-158 863.5,-158"/>
<text text-anchor="start" x="911.5" y="-164.2" font-family="Helvetica,sans-Serif" font-size="11.00">0 &gt;</text>
<polygon fill="none" stroke="black" stroke-width="2" points="586,-157 586,-463 931,-463 931,-157 586,-157"/>
</a>
</g>
</g>
<!-- scheduled_email_messages_outbound&#45;&gt;m_client -->
<g id="edge3" class="edge">
<title>scheduled_email_messages_outbound:w&#45;&gt;m_client:e</title>
<path fill="none" stroke="black" d="M572.2,-386.99C506.69,-407.86 611.63,-586 523.5,-586"/>
<polygon fill="black" stroke="black" points="578.58,-386.1 587,-388.57 582.54,-385.55 586.5,-385 586.5,-385 586.5,-385 582.54,-385.55 586,-381.43 578.58,-386.1 578.58,-386.1"/>
<ellipse fill="none" stroke="black" cx="575.41" cy="-386.54" rx="3.2" ry="3.2"/>
</g>
<!-- scheduled_email_messages_outbound&#45;&gt;m_staff -->
<g id="edge6" class="edge">
<title>scheduled_email_messages_outbound:w&#45;&gt;m_staff:e</title>
<path fill="none" stroke="black" d="M572.06,-361.3C515.36,-345.67 605.9,-226.35 544,-177 502.82,-144.17 346.81,-142.52 307,-177 259.98,-217.71 329.19,-454 267,-454"/>
<polygon fill="black" stroke="black" points="578.55,-362.07 586.08,-366.58 582.53,-362.53 586.5,-363 586.5,-363 586.5,-363 582.53,-362.53 586.92,-359.42 578.55,-362.07 578.55,-362.07"/>
<ellipse fill="none" stroke="black" cx="575.38" cy="-361.69" rx="3.2" ry="3.2"/>
</g>
<!-- scheduled_email_messages_outbound&#45;&gt;m_group -->
<g id="edge5" class="edge">
<title>scheduled_email_messages_outbound:w&#45;&gt;m_group:e</title>
<path fill="none" stroke="black" d="M572.28,-410.75C500.63,-453.17 600.17,-841 507.5,-841"/>
<polygon fill="black" stroke="black" points="578.76,-409.04 587.42,-410.48 582.63,-408.02 586.5,-407 586.5,-407 586.5,-407 582.63,-408.02 585.58,-403.52 578.76,-409.04 578.76,-409.04"/>
<ellipse fill="none" stroke="black" cx="575.67" cy="-409.86" rx="3.2" ry="3.2"/>
</g>
<!-- scheduled_email_campaign -->
<g id="node5" class="node">
<title>scheduled_email_campaign</title>
<g id="a_node5"><a xlink:href="../../tables/scheduled_email_campaign.html" xlink:title="scheduled_email_campaign" target="_top">
<polygon fill="#ffffff" stroke="transparent" points="315,-37 315,-139 536,-139 536,-37 315,-37"/>
<polygon fill="#f5f5f5" stroke="transparent" points="315.5,-117 315.5,-139 536.5,-139 536.5,-117 315.5,-117"/>
<polygon fill="none" stroke="black" points="315.5,-117 315.5,-139 536.5,-139 536.5,-117 315.5,-117"/>
<text text-anchor="start" x="320.5" y="-126.2" font-family="Helvetica,sans-Serif" font-weight="bold" font-size="11.00">scheduled_email_campaign</text>
<text text-anchor="start" x="501.5" y="-125.2" font-family="Helvetica,sans-Serif" font-size="11.00">[table]</text>
<polygon fill="none" stroke="black" points="315.5,-95 315.5,-117 536.5,-117 536.5,-95 315.5,-95"/>
<image xlink:href="../../images/primaryKeys.png" width="11px" height="12px" preserveAspectRatio="xMinYMin meet" x="320.5" y="-112"/>
<text text-anchor="start" x="335.5" y="-103.2" font-family="Helvetica,sans-Serif" font-size="11.00">id</text>
<polygon fill="#ffffff" stroke="transparent" points="315.5,-73 315.5,-95 536.5,-95 536.5,-73 315.5,-73"/>
<polygon fill="none" stroke="black" points="315.5,-73 315.5,-95 536.5,-95 536.5,-73 315.5,-73"/>
<image xlink:href="../../images/foreignKeys.png" width="11px" height="12px" preserveAspectRatio="xMinYMin meet" x="320.5" y="-90"/>
<text text-anchor="start" x="335.5" y="-81.2" font-family="Helvetica,sans-Serif" font-size="11.00">stretchy_report_id</text>
<polygon fill="none" stroke="black" points="315.5,-55 315.5,-73 536.5,-73 536.5,-55 315.5,-55"/>
<text text-anchor="start" x="318.5" y="-61.2" font-family="Helvetica,sans-Serif" font-size="11.00">...</text>
<polygon fill="#ffffff" stroke="transparent" points="315.5,-37 315.5,-55 406.5,-55 406.5,-37 315.5,-37"/>
<polygon fill="none" stroke="black" points="315.5,-37 315.5,-55 406.5,-55 406.5,-37 315.5,-37"/>
<text text-anchor="start" x="318.5" y="-43.2" font-family="Helvetica,sans-Serif" font-size="11.00">&lt; 1</text>
<polygon fill="#ffffff" stroke="transparent" points="406.5,-37 406.5,-55 479.5,-55 479.5,-37 406.5,-37"/>
<polygon fill="none" stroke="black" points="406.5,-37 406.5,-55 479.5,-55 479.5,-37 406.5,-37"/>
<text text-anchor="start" x="443.5" y="-43.2" font-family="Helvetica,sans-Serif" font-size="11.00">0 rows</text>
<polygon fill="#ffffff" stroke="transparent" points="479.5,-37 479.5,-55 536.5,-55 536.5,-37 479.5,-37"/>
<polygon fill="none" stroke="black" points="479.5,-37 479.5,-55 536.5,-55 536.5,-37 479.5,-37"/>
<text text-anchor="start" x="517.5" y="-43.2" font-family="Helvetica,sans-Serif" font-size="11.00">1 &gt;</text>
</a>
</g>
</g>
<!-- scheduled_email_messages_outbound&#45;&gt;scheduled_email_campaign -->
<g id="edge4" class="edge">
<title>scheduled_email_messages_outbound:w&#45;&gt;scheduled_email_campaign:e</title>
<path fill="none" stroke="black" d="M571.8,-339.11C496.39,-316.87 638.56,-106 537.5,-106"/>
<polygon fill="black" stroke="black" points="578.57,-339.98 586.04,-344.57 582.53,-340.49 586.5,-341 586.5,-341 586.5,-341 582.53,-340.49 586.96,-337.43 578.57,-339.98 578.57,-339.98"/>
<ellipse fill="none" stroke="black" cx="575.39" cy="-339.57" rx="3.2" ry="3.2"/>
</g>
</g>
</svg>
