<?xml version="1.0" encoding="UTF-8" standalone="no"?>
<!DOCTYPE svg PUBLIC "-//W3C//DTD SVG 1.1//EN"
 "http://www.w3.org/Graphics/SVG/1.1/DTD/svg11.dtd">
<!-- Generated by graphviz version 2.43.0 (0)
 -->
<!-- Title: twoDegreesRelationshipsDiagram Pages: 1 -->
<svg width="874pt" height="1065pt"
 viewBox="0.00 0.00 874.00 1065.00" xmlns="http://www.w3.org/2000/svg" xmlns:xlink="http://www.w3.org/1999/xlink">
<g id="graph0" class="graph" transform="scale(1 1) rotate(0) translate(4 1061)">
<title>twoDegreesRelationshipsDiagram</title>
<polygon fill="#ffffff" stroke="transparent" points="-4,4 -4,-1061 870,-1061 870,4 -4,4"/>
<text text-anchor="middle" x="71.5" y="-7.2" font-family="Helvetica,sans-Serif" font-size="11.00">Generated by SchemaSpy</text>
<!-- m_client -->
<g id="node1" class="node">
<title>m_client</title>
<g id="a_node1"><a xlink:href="../../tables/m_client.html" xlink:title="m_client" target="_top">
<polygon fill="#ffffff" stroke="transparent" points="339.5,-916 339.5,-974 434.5,-974 434.5,-916 339.5,-916"/>
<polygon fill="#f5f5f5" stroke="transparent" points="340,-952 340,-974 435,-974 435,-952 340,-952"/>
<polygon fill="none" stroke="black" points="340,-952 340,-974 435,-974 435,-952 340,-952"/>
<text text-anchor="start" x="345" y="-961.2" font-family="Helvetica,sans-Serif" font-weight="bold" font-size="11.00">m_client</text>
<text text-anchor="start" x="400" y="-960.2" font-family="Helvetica,sans-Serif" font-size="11.00">[table]</text>
<polygon fill="none" stroke="black" points="340,-934 340,-952 435,-952 435,-934 340,-934"/>
<text text-anchor="start" x="343" y="-940.2" font-family="Helvetica,sans-Serif" font-size="11.00">...</text>
<polygon fill="#ffffff" stroke="transparent" points="340,-916 340,-934 368,-934 368,-916 340,-916"/>
<polygon fill="none" stroke="black" points="340,-916 340,-934 368,-934 368,-916 340,-916"/>
<text text-anchor="start" x="343" y="-922.2" font-family="Helvetica,sans-Serif" font-size="11.00">&lt; 13</text>
<polygon fill="#ffffff" stroke="transparent" points="368,-916 368,-934 407,-934 407,-916 368,-916"/>
<polygon fill="none" stroke="black" points="368,-916 368,-934 407,-934 407,-916 368,-916"/>
<text text-anchor="start" x="371" y="-922.2" font-family="Helvetica,sans-Serif" font-size="11.00">0 rows</text>
<polygon fill="#ffffff" stroke="transparent" points="407,-916 407,-934 435,-934 435,-916 407,-916"/>
<polygon fill="none" stroke="black" points="407,-916 407,-934 435,-934 435,-916 407,-916"/>
<text text-anchor="start" x="410" y="-922.2" font-family="Helvetica,sans-Serif" font-size="11.00">23 &gt;</text>
</a>
</g>
</g>
<!-- m_staff -->
<g id="node2" class="node">
<title>m_staff</title>
<g id="a_node2"><a xlink:href="../../tables/m_staff.html" xlink:title="m_staff" target="_top">
<polygon fill="#ffffff" stroke="transparent" points="55.5,-916 55.5,-974 144.5,-974 144.5,-916 55.5,-916"/>
<polygon fill="#f5f5f5" stroke="transparent" points="56,-952 56,-974 145,-974 145,-952 56,-952"/>
<polygon fill="none" stroke="black" points="56,-952 56,-974 145,-974 145,-952 56,-952"/>
<text text-anchor="start" x="61" y="-961.2" font-family="Helvetica,sans-Serif" font-weight="bold" font-size="11.00">m_staff</text>
<text text-anchor="start" x="110" y="-960.2" font-family="Helvetica,sans-Serif" font-size="11.00">[table]</text>
<polygon fill="none" stroke="black" points="56,-934 56,-952 145,-952 145,-934 56,-934"/>
<text text-anchor="start" x="59" y="-940.2" font-family="Helvetica,sans-Serif" font-size="11.00">...</text>
<polygon fill="#ffffff" stroke="transparent" points="56,-916 56,-934 78,-934 78,-916 56,-916"/>
<polygon fill="none" stroke="black" points="56,-916 56,-934 78,-934 78,-916 56,-916"/>
<text text-anchor="start" x="59" y="-922.2" font-family="Helvetica,sans-Serif" font-size="11.00">&lt; 2</text>
<polygon fill="#ffffff" stroke="transparent" points="78,-916 78,-934 117,-934 117,-916 78,-916"/>
<polygon fill="none" stroke="black" points="78,-916 78,-934 117,-934 117,-916 78,-916"/>
<text text-anchor="start" x="81" y="-922.2" font-family="Helvetica,sans-Serif" font-size="11.00">0 rows</text>
<polygon fill="#ffffff" stroke="transparent" points="117,-916 117,-934 145,-934 145,-916 117,-916"/>
<polygon fill="none" stroke="black" points="117,-916 117,-934 145,-934 145,-916 117,-916"/>
<text text-anchor="start" x="120" y="-922.2" font-family="Helvetica,sans-Serif" font-size="11.00">10 &gt;</text>
</a>
</g>
</g>
<!-- m_client&#45;&gt;m_staff -->
<g id="edge1" class="edge">
<title>m_client:w&#45;&gt;m_staff:e</title>
<path fill="none" stroke="black" d="M324.56,-943C250.49,-943 226.75,-943 146,-943"/>
<polygon fill="black" stroke="black" points="331,-943 339,-946.6 335,-943 339,-943 339,-943 339,-943 335,-943 339,-939.4 331,-943 331,-943"/>
<ellipse fill="none" stroke="black" cx="327.8" cy="-943" rx="3.2" ry="3.2"/>
</g>
<!-- m_group -->
<g id="node3" class="node">
<title>m_group</title>
<g id="a_node3"><a xlink:href="../../tables/m_group.html" xlink:title="m_group" target="_top">
<polygon fill="#ffffff" stroke="transparent" points="341,-995 341,-1053 433,-1053 433,-995 341,-995"/>
<polygon fill="#f5f5f5" stroke="transparent" points="341,-1031 341,-1053 433,-1053 433,-1031 341,-1031"/>
<polygon fill="none" stroke="black" points="341,-1031 341,-1053 433,-1053 433,-1031 341,-1031"/>
<text text-anchor="start" x="346" y="-1040.2" font-family="Helvetica,sans-Serif" font-weight="bold" font-size="11.00">m_group</text>
<text text-anchor="start" x="398" y="-1039.2" font-family="Helvetica,sans-Serif" font-size="11.00">[table]</text>
<polygon fill="none" stroke="black" points="341,-1013 341,-1031 433,-1031 433,-1013 341,-1013"/>
<text text-anchor="start" x="344" y="-1019.2" font-family="Helvetica,sans-Serif" font-size="11.00">...</text>
<polygon fill="#ffffff" stroke="transparent" points="341,-995 341,-1013 364,-1013 364,-995 341,-995"/>
<polygon fill="none" stroke="black" points="341,-995 341,-1013 364,-1013 364,-995 341,-995"/>
<text text-anchor="start" x="344" y="-1001.2" font-family="Helvetica,sans-Serif" font-size="11.00">&lt; 5</text>
<polygon fill="#ffffff" stroke="transparent" points="364,-995 364,-1013 404,-1013 404,-995 364,-995"/>
<polygon fill="none" stroke="black" points="364,-995 364,-1013 404,-1013 404,-995 364,-995"/>
<text text-anchor="start" x="368" y="-1001.2" font-family="Helvetica,sans-Serif" font-size="11.00">0 rows</text>
<polygon fill="#ffffff" stroke="transparent" points="404,-995 404,-1013 433,-1013 433,-995 404,-995"/>
<polygon fill="none" stroke="black" points="404,-995 404,-1013 433,-1013 433,-995 404,-995"/>
<text text-anchor="start" x="408" y="-1001.2" font-family="Helvetica,sans-Serif" font-size="11.00">11 &gt;</text>
</a>
</g>
</g>
<!-- m_group&#45;&gt;m_staff -->
<g id="edge2" class="edge">
<title>m_group:w&#45;&gt;m_staff:e</title>
<path fill="none" stroke="black" d="M325.58,-1021.45C287.19,-1018.3 274.7,-1002.21 233,-985 193.31,-968.62 188.94,-943 146,-943"/>
<polygon fill="black" stroke="black" points="332.01,-1021.69 339.86,-1025.6 336,-1021.85 340,-1022 340,-1022 340,-1022 336,-1021.85 340.14,-1018.4 332.01,-1021.69 332.01,-1021.69"/>
<ellipse fill="none" stroke="black" cx="328.81" cy="-1021.57" rx="3.2" ry="3.2"/>
</g>
<!-- m_report_mailing_job -->
<g id="node4" class="node">
<title>m_report_mailing_job</title>
<g id="a_node4"><a xlink:href="../../tables/m_report_mailing_job.html" xlink:title="m_report_mailing_job" target="_top">
<polygon fill="#ffffff" stroke="transparent" points="307.5,-195 307.5,-253 466.5,-253 466.5,-195 307.5,-195"/>
<polygon fill="#f5f5f5" stroke="transparent" points="308,-231 308,-253 467,-253 467,-231 308,-231"/>
<polygon fill="none" stroke="black" points="308,-231 308,-253 467,-253 467,-231 308,-231"/>
<text text-anchor="start" x="313" y="-240.2" font-family="Helvetica,sans-Serif" font-weight="bold" font-size="11.00">m_report_mailing_job</text>
<text text-anchor="start" x="432" y="-239.2" font-family="Helvetica,sans-Serif" font-size="11.00">[table]</text>
<polygon fill="none" stroke="black" points="308,-213 308,-231 467,-231 467,-213 308,-213"/>
<text text-anchor="start" x="311" y="-219.2" font-family="Helvetica,sans-Serif" font-size="11.00">...</text>
<polygon fill="#ffffff" stroke="transparent" points="308,-195 308,-213 368,-213 368,-195 308,-195"/>
<polygon fill="none" stroke="black" points="308,-195 308,-213 368,-213 368,-195 308,-195"/>
<text text-anchor="start" x="311" y="-201.2" font-family="Helvetica,sans-Serif" font-size="11.00">&lt; 4</text>
<polygon fill="#ffffff" stroke="transparent" points="368,-195 368,-213 426,-213 426,-195 368,-195"/>
<polygon fill="none" stroke="black" points="368,-195 368,-213 426,-213 426,-195 368,-195"/>
<text text-anchor="start" x="390" y="-201.2" font-family="Helvetica,sans-Serif" font-size="11.00">0 rows</text>
<polygon fill="#ffffff" stroke="transparent" points="426,-195 426,-213 467,-213 467,-195 426,-195"/>
<polygon fill="none" stroke="black" points="426,-195 426,-213 467,-213 467,-195 426,-195"/>
<text text-anchor="start" x="448" y="-201.2" font-family="Helvetica,sans-Serif" font-size="11.00">1 &gt;</text>
</a>
</g>
</g>
<!-- stretchy_report -->
<g id="node5" class="node">
<title>stretchy_report</title>
<g id="a_node5"><a xlink:href="../../tables/stretchy_report.html" xlink:title="stretchy_report" target="_top">
<polygon fill="#ffffff" stroke="transparent" points="8,-114 8,-216 192,-216 192,-114 8,-114"/>
<polygon fill="#f5f5f5" stroke="transparent" points="8,-194 8,-216 192,-216 192,-194 8,-194"/>
<polygon fill="none" stroke="black" points="8,-194 8,-216 192,-216 192,-194 8,-194"/>
<text text-anchor="start" x="13" y="-203.2" font-family="Helvetica,sans-Serif" font-weight="bold" font-size="11.00">stretchy_report</text>
<text text-anchor="start" x="157" y="-202.2" font-family="Helvetica,sans-Serif" font-size="11.00">[table]</text>
<polygon fill="none" stroke="black" points="8,-172 8,-194 192,-194 192,-172 8,-172"/>
<image xlink:href="../../images/primaryKeys.png" width="11px" height="12px" preserveAspectRatio="xMinYMin meet" x="13" y="-189"/>
<text text-anchor="start" x="28" y="-180.2" font-family="Helvetica,sans-Serif" font-size="11.00">id</text>
<polygon fill="#ffffff" stroke="transparent" points="8,-150 8,-172 192,-172 192,-150 8,-150"/>
<polygon fill="none" stroke="black" points="8,-150 8,-172 192,-172 192,-150 8,-150"/>
<text text-anchor="start" x="28" y="-158.2" font-family="Helvetica,sans-Serif" font-size="11.00">report_name</text>
<polygon fill="none" stroke="black" points="8,-132 8,-150 192,-150 192,-132 8,-132"/>
<text text-anchor="start" x="11" y="-138.2" font-family="Helvetica,sans-Serif" font-size="11.00">...</text>
<polygon fill="#ffffff" stroke="transparent" points="8,-114 8,-132 76,-132 76,-114 8,-114"/>
<polygon fill="none" stroke="black" points="8,-114 8,-132 76,-132 76,-114 8,-114"/>
<text text-anchor="start" x="11" y="-120.2" font-family="Helvetica,sans-Serif" font-size="11.00"> &#160;</text>
<polygon fill="#ffffff" stroke="transparent" points="76,-114 76,-132 142,-132 142,-114 76,-114"/>
<polygon fill="none" stroke="black" points="76,-114 76,-132 142,-132 142,-114 76,-114"/>
<text text-anchor="start" x="106" y="-120.2" font-family="Helvetica,sans-Serif" font-size="11.00">0 rows</text>
<polygon fill="#ffffff" stroke="transparent" points="142,-114 142,-132 192,-132 192,-114 142,-114"/>
<polygon fill="none" stroke="black" points="142,-114 142,-132 192,-132 192,-114 142,-114"/>
<text text-anchor="start" x="173" y="-120.2" font-family="Helvetica,sans-Serif" font-size="11.00">4 &gt;</text>
</a>
</g>
</g>
<!-- m_report_mailing_job&#45;&gt;stretchy_report -->
<g id="edge3" class="edge">
<title>m_report_mailing_job:w&#45;&gt;stretchy_report:e</title>
<path fill="none" stroke="black" d="M292.56,-220.96C251.66,-214.75 241.32,-183 193,-183"/>
<polygon fill="black" stroke="black" points="299.02,-221.42 306.74,-225.59 303.01,-221.71 307,-222 307,-222 307,-222 303.01,-221.71 307.26,-218.41 299.02,-221.42 299.02,-221.42"/>
<ellipse fill="none" stroke="black" cx="295.83" cy="-221.19" rx="3.2" ry="3.2"/>
</g>
<!-- scheduled_email_campaign -->
<g id="node6" class="node">
<title>scheduled_email_campaign</title>
<g id="a_node6"><a xlink:href="../../tables/scheduled_email_campaign.html" xlink:title="scheduled_email_campaign" target="_top">
<polygon fill="#ffffff" stroke="transparent" points="241,-274 241,-868 533,-868 533,-274 241,-274"/>
<polygon fill="#f5f5f5" stroke="transparent" points="243,-844 243,-866 531,-866 531,-844 243,-844"/>
<polygon fill="none" stroke="black" points="243,-844 243,-866 531,-866 531,-844 243,-844"/>
<text text-anchor="start" x="248" y="-853.2" font-family="Helvetica,sans-Serif" font-weight="bold" font-size="11.00">scheduled_email_campaign</text>
<text text-anchor="start" x="496" y="-852.2" font-family="Helvetica,sans-Serif" font-size="11.00">[table]</text>
<polygon fill="none" stroke="black" points="243,-822 243,-844 464,-844 464,-822 243,-822"/>
<image xlink:href="../../images/primaryKeys.png" width="11px" height="12px" preserveAspectRatio="xMinYMin meet" x="248" y="-839"/>
<text text-anchor="start" x="263" y="-830.2" font-family="Helvetica,sans-Serif" font-size="11.00">id</text>
<polygon fill="none" stroke="black" points="464,-822 464,-844 531,-844 531,-822 464,-822"/>
<text text-anchor="start" x="467" y="-830.2" font-family="Helvetica,sans-Serif" font-size="11.00">bigint[19]</text>
<polygon fill="none" stroke="black" points="243,-800 243,-822 464,-822 464,-800 243,-800"/>
<text text-anchor="start" x="263" y="-808.2" font-family="Helvetica,sans-Serif" font-size="11.00">campaign_name</text>
<polygon fill="none" stroke="black" points="464,-800 464,-822 531,-822 531,-800 464,-800"/>
<text text-anchor="start" x="467" y="-808.2" font-family="Helvetica,sans-Serif" font-size="11.00">varchar[100]</text>
<polygon fill="none" stroke="black" points="243,-778 243,-800 464,-800 464,-778 243,-778"/>
<text text-anchor="start" x="263" y="-786.2" font-family="Helvetica,sans-Serif" font-size="11.00">campaign_type</text>
<polygon fill="none" stroke="black" points="464,-778 464,-800 531,-800 531,-778 464,-778"/>
<text text-anchor="start" x="467" y="-786.2" font-family="Helvetica,sans-Serif" font-size="11.00">int[10]</text>
<polygon fill="none" stroke="black" points="243,-756 243,-778 464,-778 464,-756 243,-756"/>
<text text-anchor="start" x="263" y="-764.2" font-family="Helvetica,sans-Serif" font-size="11.00">business_rule_id</text>
<polygon fill="none" stroke="black" points="464,-756 464,-778 531,-778 531,-756 464,-756"/>
<text text-anchor="start" x="467" y="-764.2" font-family="Helvetica,sans-Serif" font-size="11.00">int[10]</text>
<polygon fill="none" stroke="black" points="243,-734 243,-756 464,-756 464,-734 243,-734"/>
<text text-anchor="start" x="263" y="-742.2" font-family="Helvetica,sans-Serif" font-size="11.00">param_value</text>
<polygon fill="none" stroke="black" points="464,-734 464,-756 531,-756 531,-734 464,-734"/>
<text text-anchor="start" x="467" y="-742.2" font-family="Helvetica,sans-Serif" font-size="11.00">text[65535]</text>
<polygon fill="none" stroke="black" points="243,-712 243,-734 464,-734 464,-712 243,-712"/>
<text text-anchor="start" x="263" y="-720.2" font-family="Helvetica,sans-Serif" font-size="11.00">status_enum</text>
<polygon fill="none" stroke="black" points="464,-712 464,-734 531,-734 531,-712 464,-712"/>
<text text-anchor="start" x="467" y="-720.2" font-family="Helvetica,sans-Serif" font-size="11.00">int[10]</text>
<polygon fill="none" stroke="black" points="243,-690 243,-712 464,-712 464,-690 243,-690"/>
<text text-anchor="start" x="263" y="-698.2" font-family="Helvetica,sans-Serif" font-size="11.00">email_subject</text>
<polygon fill="none" stroke="black" points="464,-690 464,-712 531,-712 531,-690 464,-690"/>
<text text-anchor="start" x="467" y="-698.2" font-family="Helvetica,sans-Serif" font-size="11.00">varchar[100]</text>
<polygon fill="none" stroke="black" points="243,-668 243,-690 464,-690 464,-668 243,-668"/>
<text text-anchor="start" x="263" y="-676.2" font-family="Helvetica,sans-Serif" font-size="11.00">email_message</text>
<polygon fill="none" stroke="black" points="464,-668 464,-690 531,-690 531,-668 464,-668"/>
<text text-anchor="start" x="467" y="-676.2" font-family="Helvetica,sans-Serif" font-size="11.00">text[65535]</text>
<polygon fill="none" stroke="black" points="243,-646 243,-668 464,-668 464,-646 243,-646"/>
<text text-anchor="start" x="263" y="-654.2" font-family="Helvetica,sans-Serif" font-size="11.00">email_attachment_file_format</text>
<polygon fill="none" stroke="black" points="464,-646 464,-668 531,-668 531,-646 464,-646"/>
<text text-anchor="start" x="467" y="-654.2" font-family="Helvetica,sans-Serif" font-size="11.00">varchar[10]</text>
<polygon fill="#ffffff" stroke="transparent" points="243,-624 243,-646 464,-646 464,-624 243,-624"/>
<polygon fill="none" stroke="black" points="243,-624 243,-646 464,-646 464,-624 243,-624"/>
<image xlink:href="../../images/foreignKeys.png" width="11px" height="12px" preserveAspectRatio="xMinYMin meet" x="248" y="-641"/>
<text text-anchor="start" x="263" y="-632.2" font-family="Helvetica,sans-Serif" font-size="11.00">stretchy_report_id</text>
<polygon fill="none" stroke="black" points="464,-624 464,-646 531,-646 531,-624 464,-624"/>
<text text-anchor="start" x="467" y="-632.2" font-family="Helvetica,sans-Serif" font-size="11.00">int[10]</text>
<polygon fill="none" stroke="black" points="243,-602 243,-624 464,-624 464,-602 243,-602"/>
<text text-anchor="start" x="263" y="-610.2" font-family="Helvetica,sans-Serif" font-size="11.00">stretchy_report_param_map</text>
<polygon fill="none" stroke="black" points="464,-602 464,-624 531,-624 531,-602 464,-602"/>
<text text-anchor="start" x="467" y="-610.2" font-family="Helvetica,sans-Serif" font-size="11.00">text[65535]</text>
<polygon fill="none" stroke="black" points="243,-580 243,-602 464,-602 464,-580 243,-580"/>
<text text-anchor="start" x="263" y="-588.2" font-family="Helvetica,sans-Serif" font-size="11.00">closedon_date</text>
<polygon fill="none" stroke="black" points="464,-580 464,-602 531,-602 531,-580 464,-580"/>
<text text-anchor="start" x="467" y="-588.2" font-family="Helvetica,sans-Serif" font-size="11.00">date[10]</text>
<polygon fill="none" stroke="black" points="243,-558 243,-580 464,-580 464,-558 243,-558"/>
<text text-anchor="start" x="263" y="-566.2" font-family="Helvetica,sans-Serif" font-size="11.00">closedon_userid</text>
<polygon fill="none" stroke="black" points="464,-558 464,-580 531,-580 531,-558 464,-558"/>
<text text-anchor="start" x="467" y="-566.2" font-family="Helvetica,sans-Serif" font-size="11.00">bigint[19]</text>
<polygon fill="none" stroke="black" points="243,-536 243,-558 464,-558 464,-536 243,-536"/>
<text text-anchor="start" x="263" y="-544.2" font-family="Helvetica,sans-Serif" font-size="11.00">submittedon_date</text>
<polygon fill="none" stroke="black" points="464,-536 464,-558 531,-558 531,-536 464,-536"/>
<text text-anchor="start" x="467" y="-544.2" font-family="Helvetica,sans-Serif" font-size="11.00">date[10]</text>
<polygon fill="none" stroke="black" points="243,-514 243,-536 464,-536 464,-514 243,-514"/>
<text text-anchor="start" x="263" y="-522.2" font-family="Helvetica,sans-Serif" font-size="11.00">submittedon_userid</text>
<polygon fill="none" stroke="black" points="464,-514 464,-536 531,-536 531,-514 464,-514"/>
<text text-anchor="start" x="467" y="-522.2" font-family="Helvetica,sans-Serif" font-size="11.00">bigint[19]</text>
<polygon fill="none" stroke="black" points="243,-492 243,-514 464,-514 464,-492 243,-492"/>
<text text-anchor="start" x="263" y="-500.2" font-family="Helvetica,sans-Serif" font-size="11.00">approvedon_date</text>
<polygon fill="none" stroke="black" points="464,-492 464,-514 531,-514 531,-492 464,-492"/>
<text text-anchor="start" x="467" y="-500.2" font-family="Helvetica,sans-Serif" font-size="11.00">date[10]</text>
<polygon fill="none" stroke="black" points="243,-470 243,-492 464,-492 464,-470 243,-470"/>
<text text-anchor="start" x="263" y="-478.2" font-family="Helvetica,sans-Serif" font-size="11.00">approvedon_userid</text>
<polygon fill="none" stroke="black" points="464,-470 464,-492 531,-492 531,-470 464,-470"/>
<text text-anchor="start" x="467" y="-478.2" font-family="Helvetica,sans-Serif" font-size="11.00">bigint[19]</text>
<polygon fill="none" stroke="black" points="243,-448 243,-470 464,-470 464,-448 243,-448"/>
<text text-anchor="start" x="263" y="-456.2" font-family="Helvetica,sans-Serif" font-size="11.00">recurrence</text>
<polygon fill="none" stroke="black" points="464,-448 464,-470 531,-470 531,-448 464,-448"/>
<text text-anchor="start" x="467" y="-456.2" font-family="Helvetica,sans-Serif" font-size="11.00">varchar[100]</text>
<polygon fill="none" stroke="black" points="243,-426 243,-448 464,-448 464,-426 243,-426"/>
<text text-anchor="start" x="263" y="-434.2" font-family="Helvetica,sans-Serif" font-size="11.00">next_trigger_date</text>
<polygon fill="none" stroke="black" points="464,-426 464,-448 531,-448 531,-426 464,-426"/>
<text text-anchor="start" x="467" y="-434.2" font-family="Helvetica,sans-Serif" font-size="11.00">datetime[19]</text>
<polygon fill="none" stroke="black" points="243,-404 243,-426 464,-426 464,-404 243,-404"/>
<text text-anchor="start" x="263" y="-412.2" font-family="Helvetica,sans-Serif" font-size="11.00">last_trigger_date</text>
<polygon fill="none" stroke="black" points="464,-404 464,-426 531,-426 531,-404 464,-404"/>
<text text-anchor="start" x="467" y="-412.2" font-family="Helvetica,sans-Serif" font-size="11.00">datetime[19]</text>
<polygon fill="none" stroke="black" points="243,-382 243,-404 464,-404 464,-382 243,-382"/>
<text text-anchor="start" x="263" y="-390.2" font-family="Helvetica,sans-Serif" font-size="11.00">recurrence_start_date</text>
<polygon fill="none" stroke="black" points="464,-382 464,-404 531,-404 531,-382 464,-382"/>
<text text-anchor="start" x="467" y="-390.2" font-family="Helvetica,sans-Serif" font-size="11.00">datetime[19]</text>
<polygon fill="none" stroke="black" points="243,-360 243,-382 464,-382 464,-360 243,-360"/>
<text text-anchor="start" x="263" y="-368.2" font-family="Helvetica,sans-Serif" font-size="11.00">is_visible</text>
<polygon fill="none" stroke="black" points="464,-360 464,-382 531,-382 531,-360 464,-360"/>
<text text-anchor="start" x="467" y="-368.2" font-family="Helvetica,sans-Serif" font-size="11.00">bit[1]</text>
<polygon fill="none" stroke="black" points="243,-338 243,-360 464,-360 464,-338 243,-338"/>
<text text-anchor="start" x="263" y="-346.2" font-family="Helvetica,sans-Serif" font-size="11.00">previous_run_error_log</text>
<polygon fill="none" stroke="black" points="464,-338 464,-360 531,-360 531,-338 464,-338"/>
<text text-anchor="start" x="467" y="-346.2" font-family="Helvetica,sans-Serif" font-size="11.00">text[65535]</text>
<polygon fill="none" stroke="black" points="243,-316 243,-338 464,-338 464,-316 243,-316"/>
<text text-anchor="start" x="263" y="-324.2" font-family="Helvetica,sans-Serif" font-size="11.00">previous_run_error_message</text>
<polygon fill="none" stroke="black" points="464,-316 464,-338 531,-338 531,-316 464,-316"/>
<text text-anchor="start" x="467" y="-324.2" font-family="Helvetica,sans-Serif" font-size="11.00">text[65535]</text>
<polygon fill="none" stroke="black" points="243,-294 243,-316 464,-316 464,-294 243,-294"/>
<text text-anchor="start" x="263" y="-302.2" font-family="Helvetica,sans-Serif" font-size="11.00">previous_run_status</text>
<polygon fill="none" stroke="black" points="464,-294 464,-316 531,-316 531,-294 464,-294"/>
<text text-anchor="start" x="467" y="-302.2" font-family="Helvetica,sans-Serif" font-size="11.00">varchar[10]</text>
<polygon fill="#ffffff" stroke="transparent" points="243,-276 243,-294 345,-294 345,-276 243,-276"/>
<polygon fill="none" stroke="black" points="243,-276 243,-294 345,-294 345,-276 243,-276"/>
<text text-anchor="start" x="246" y="-282.2" font-family="Helvetica,sans-Serif" font-size="11.00">&lt; 1</text>
<polygon fill="#ffffff" stroke="transparent" points="345,-276 345,-294 464,-294 464,-276 345,-276"/>
<polygon fill="none" stroke="black" points="345,-276 345,-294 464,-294 464,-276 345,-276"/>
<text text-anchor="start" x="428" y="-282.2" font-family="Helvetica,sans-Serif" font-size="11.00">0 rows</text>
<polygon fill="#ffffff" stroke="transparent" points="464,-276 464,-294 531,-294 531,-276 464,-276"/>
<polygon fill="none" stroke="black" points="464,-276 464,-294 531,-294 531,-276 464,-276"/>
<text text-anchor="start" x="512" y="-282.2" font-family="Helvetica,sans-Serif" font-size="11.00">1 &gt;</text>
<polygon fill="none" stroke="black" stroke-width="2" points="242,-275 242,-867 532,-867 532,-275 242,-275"/>
</a>
</g>
</g>
<!-- scheduled_email_campaign&#45;&gt;stretchy_report -->
<g id="edge4" class="edge">
<title>scheduled_email_campaign:w&#45;&gt;stretchy_report:e</title>
<path fill="none" stroke="black" d="M228.06,-631.36C156.4,-588.59 288.71,-183 193,-183"/>
<polygon fill="black" stroke="black" points="234.26,-632.98 241.09,-638.48 238.13,-633.99 242,-635 242,-635 242,-635 238.13,-633.99 242.91,-631.52 234.26,-632.98 234.26,-632.98"/>
<ellipse fill="none" stroke="black" cx="231.16" cy="-632.17" rx="3.2" ry="3.2"/>
</g>
<!-- scheduled_email_messages_outbound -->
<g id="node7" class="node">
<title>scheduled_email_messages_outbound</title>
<g id="a_node7"><a xlink:href="../../tables/scheduled_email_messages_outbound.html" xlink:title="scheduled_email_messages_outbound" target="_top">
<polygon fill="#ffffff" stroke="transparent" points="582,-837 582,-1005 858,-1005 858,-837 582,-837"/>
<polygon fill="#f5f5f5" stroke="transparent" points="582,-983 582,-1005 858,-1005 858,-983 582,-983"/>
<polygon fill="none" stroke="black" points="582,-983 582,-1005 858,-1005 858,-983 582,-983"/>
<text text-anchor="start" x="587" y="-992.2" font-family="Helvetica,sans-Serif" font-weight="bold" font-size="11.00">scheduled_email_messages_outbound</text>
<text text-anchor="start" x="823" y="-991.2" font-family="Helvetica,sans-Serif" font-size="11.00">[table]</text>
<polygon fill="none" stroke="black" points="582,-961 582,-983 858,-983 858,-961 582,-961"/>
<image xlink:href="../../images/primaryKeys.png" width="11px" height="12px" preserveAspectRatio="xMinYMin meet" x="587" y="-978"/>
<text text-anchor="start" x="602" y="-969.2" font-family="Helvetica,sans-Serif" font-size="11.00">id</text>
<polygon fill="#ffffff" stroke="transparent" points="582,-939 582,-961 858,-961 858,-939 582,-939"/>
<polygon fill="none" stroke="black" points="582,-939 582,-961 858,-961 858,-939 582,-939"/>
<image xlink:href="../../images/foreignKeys.png" width="11px" height="12px" preserveAspectRatio="xMinYMin meet" x="587" y="-956"/>
<text text-anchor="start" x="602" y="-947.2" font-family="Helvetica,sans-Serif" font-size="11.00">group_id</text>
<polygon fill="#ffffff" stroke="transparent" points="582,-917 582,-939 858,-939 858,-917 582,-917"/>
<polygon fill="none" stroke="black" points="582,-917 582,-939 858,-939 858,-917 582,-917"/>
<image xlink:href="../../images/foreignKeys.png" width="11px" height="12px" preserveAspectRatio="xMinYMin meet" x="587" y="-934"/>
<text text-anchor="start" x="602" y="-925.2" font-family="Helvetica,sans-Serif" font-size="11.00">client_id</text>
<polygon fill="#ffffff" stroke="transparent" points="582,-895 582,-917 858,-917 858,-895 582,-895"/>
<polygon fill="none" stroke="black" points="582,-895 582,-917 858,-917 858,-895 582,-895"/>
<image xlink:href="../../images/foreignKeys.png" width="11px" height="12px" preserveAspectRatio="xMinYMin meet" x="587" y="-912"/>
<text text-anchor="start" x="602" y="-903.2" font-family="Helvetica,sans-Serif" font-size="11.00">staff_id</text>
<polygon fill="#ffffff" stroke="transparent" points="582,-873 582,-895 858,-895 858,-873 582,-873"/>
<polygon fill="none" stroke="black" points="582,-873 582,-895 858,-895 858,-873 582,-873"/>
<image xlink:href="../../images/foreignKeys.png" width="11px" height="12px" preserveAspectRatio="xMinYMin meet" x="587" y="-890"/>
<text text-anchor="start" x="602" y="-881.2" font-family="Helvetica,sans-Serif" font-size="11.00">email_campaign_id</text>
<polygon fill="none" stroke="black" points="582,-855 582,-873 858,-873 858,-855 582,-855"/>
<text text-anchor="start" x="585" y="-861.2" font-family="Helvetica,sans-Serif" font-size="11.00">...</text>
<polygon fill="#ffffff" stroke="transparent" points="582,-837 582,-855 705,-855 705,-837 582,-837"/>
<polygon fill="none" stroke="black" points="582,-837 582,-855 705,-855 705,-837 582,-837"/>
<text text-anchor="start" x="585" y="-843.2" font-family="Helvetica,sans-Serif" font-size="11.00">&lt; 4</text>
<polygon fill="#ffffff" stroke="transparent" points="705,-837 705,-855 794,-855 794,-837 705,-837"/>
<polygon fill="none" stroke="black" points="705,-837 705,-855 794,-855 794,-837 705,-837"/>
<text text-anchor="start" x="758" y="-843.2" font-family="Helvetica,sans-Serif" font-size="11.00">0 rows</text>
<polygon fill="#ffffff" stroke="transparent" points="794,-837 794,-855 858,-855 858,-837 794,-837"/>
<polygon fill="none" stroke="black" points="794,-837 794,-855 858,-855 858,-837 794,-837"/>
<text text-anchor="start" x="848" y="-843.2" font-family="Helvetica,sans-Serif" font-size="11.00"> &#160;</text>
</a>
</g>
</g>
<!-- scheduled_email_messages_outbound&#45;&gt;m_client -->
<g id="edge5" class="edge">
<title>scheduled_email_messages_outbound:w&#45;&gt;m_client:e</title>
<path fill="none" stroke="black" d="M566.33,-928.27C513.42,-930.31 495.6,-943 436,-943"/>
<polygon fill="black" stroke="black" points="573,-928.15 581.07,-931.6 577,-928.07 581,-928 581,-928 581,-928 577,-928.07 580.93,-924.4 573,-928.15 573,-928.15"/>
<ellipse fill="none" stroke="black" cx="569.8" cy="-928.21" rx="3.2" ry="3.2"/>
</g>
<!-- scheduled_email_messages_outbound&#45;&gt;m_staff -->
<g id="edge8" class="edge">
<title>scheduled_email_messages_outbound:w&#45;&gt;m_staff:e</title>
<path fill="none" stroke="black" d="M566.39,-905.91C423.53,-904.07 379.67,-876.11 233,-906 191.83,-914.39 188.02,-943 146,-943"/>
<polygon fill="black" stroke="black" points="573,-905.95 580.98,-909.6 577,-905.97 581,-906 581,-906 581,-906 577,-905.97 581.02,-902.4 573,-905.95 573,-905.95"/>
<ellipse fill="none" stroke="black" cx="569.8" cy="-905.93" rx="3.2" ry="3.2"/>
</g>
<!-- scheduled_email_messages_outbound&#45;&gt;m_group -->
<g id="edge7" class="edge">
<title>scheduled_email_messages_outbound:w&#45;&gt;m_group:e</title>
<path fill="none" stroke="black" d="M567.06,-954.25C557.8,-961.5 556,-976.29 541,-985 497.48,-1010.26 484.32,-1022 434,-1022"/>
<polygon fill="black" stroke="black" points="573.35,-952.33 582.05,-953.44 577.17,-951.17 581,-950 581,-950 581,-950 577.17,-951.17 579.95,-946.56 573.35,-952.33 573.35,-952.33"/>
<ellipse fill="none" stroke="black" cx="570.29" cy="-953.27" rx="3.2" ry="3.2"/>
</g>
<!-- scheduled_email_messages_outbound&#45;&gt;scheduled_email_campaign -->
<g id="edge6" class="edge">
<title>scheduled_email_messages_outbound:w&#45;&gt;scheduled_email_campaign:e</title>
<path fill="none" stroke="black" d="M567.09,-878.92C553.26,-866.02 557.29,-833 532,-833"/>
<polygon fill="black" stroke="black" points="573.48,-881.26 579.77,-887.38 577.24,-882.63 581,-884 581,-884 581,-884 577.24,-882.63 582.23,-880.62 573.48,-881.26 573.48,-881.26"/>
<ellipse fill="none" stroke="black" cx="570.48" cy="-880.16" rx="3.2" ry="3.2"/>
</g>
<!-- sms_campaign -->
<g id="node8" class="node">
<title>sms_campaign</title>
<g id="a_node8"><a xlink:href="../../tables/sms_campaign.html" xlink:title="sms_campaign" target="_top">
<polygon fill="#ffffff" stroke="transparent" points="325.5,-116 325.5,-174 448.5,-174 448.5,-116 325.5,-116"/>
<polygon fill="#f5f5f5" stroke="transparent" points="326,-152 326,-174 449,-174 449,-152 326,-152"/>
<polygon fill="none" stroke="black" points="326,-152 326,-174 449,-174 449,-152 326,-152"/>
<text text-anchor="start" x="331" y="-161.2" font-family="Helvetica,sans-Serif" font-weight="bold" font-size="11.00">sms_campaign</text>
<text text-anchor="start" x="414" y="-160.2" font-family="Helvetica,sans-Serif" font-size="11.00">[table]</text>
<polygon fill="none" stroke="black" points="326,-134 326,-152 449,-152 449,-134 326,-134"/>
<text text-anchor="start" x="329" y="-140.2" font-family="Helvetica,sans-Serif" font-size="11.00">...</text>
<polygon fill="#ffffff" stroke="transparent" points="326,-116 326,-134 368,-134 368,-116 326,-116"/>
<polygon fill="none" stroke="black" points="326,-116 326,-134 368,-134 368,-116 326,-116"/>
<text text-anchor="start" x="329" y="-122.2" font-family="Helvetica,sans-Serif" font-size="11.00">&lt; 1</text>
<polygon fill="#ffffff" stroke="transparent" points="368,-116 368,-134 417,-134 417,-116 368,-116"/>
<polygon fill="none" stroke="black" points="368,-116 368,-134 417,-134 417,-116 368,-116"/>
<text text-anchor="start" x="381" y="-122.2" font-family="Helvetica,sans-Serif" font-size="11.00">0 rows</text>
<polygon fill="#ffffff" stroke="transparent" points="417,-116 417,-134 449,-134 449,-116 417,-116"/>
<polygon fill="none" stroke="black" points="417,-116 417,-134 449,-134 449,-116 417,-116"/>
<text text-anchor="start" x="430" y="-122.2" font-family="Helvetica,sans-Serif" font-size="11.00">1 &gt;</text>
</a>
</g>
</g>
<!-- sms_campaign&#45;&gt;stretchy_report -->
<g id="edge9" class="edge">
<title>sms_campaign:w&#45;&gt;stretchy_report:e</title>
<path fill="none" stroke="black" d="M310.59,-143.8C261.75,-149.44 249.15,-183 193,-183"/>
<polygon fill="black" stroke="black" points="317.01,-143.44 325.2,-146.59 321.01,-143.22 325,-143 325,-143 325,-143 321.01,-143.22 324.8,-139.41 317.01,-143.44 317.01,-143.44"/>
<ellipse fill="none" stroke="black" cx="313.82" cy="-143.62" rx="3.2" ry="3.2"/>
</g>
<!-- stretchy_report_parameter -->
<g id="node9" class="node">
<title>stretchy_report_parameter</title>
<g id="a_node9"><a xlink:href="../../tables/stretchy_report_parameter.html" xlink:title="stretchy_report_parameter" target="_top">
<polygon fill="#ffffff" stroke="transparent" points="294.5,-37 294.5,-95 479.5,-95 479.5,-37 294.5,-37"/>
<polygon fill="#f5f5f5" stroke="transparent" points="295,-73 295,-95 480,-95 480,-73 295,-73"/>
<polygon fill="none" stroke="black" points="295,-73 295,-95 480,-95 480,-73 295,-73"/>
<text text-anchor="start" x="300" y="-82.2" font-family="Helvetica,sans-Serif" font-weight="bold" font-size="11.00">stretchy_report_parameter</text>
<text text-anchor="start" x="445" y="-81.2" font-family="Helvetica,sans-Serif" font-size="11.00">[table]</text>
<polygon fill="none" stroke="black" points="295,-55 295,-73 480,-73 480,-55 295,-55"/>
<text text-anchor="start" x="298" y="-61.2" font-family="Helvetica,sans-Serif" font-size="11.00">...</text>
<polygon fill="#ffffff" stroke="transparent" points="295,-37 295,-55 372,-55 372,-37 295,-37"/>
<polygon fill="none" stroke="black" points="295,-37 295,-55 372,-55 372,-37 295,-37"/>
<text text-anchor="start" x="298" y="-43.2" font-family="Helvetica,sans-Serif" font-size="11.00">&lt; 2</text>
<polygon fill="#ffffff" stroke="transparent" points="372,-37 372,-55 439,-55 439,-37 372,-37"/>
<polygon fill="none" stroke="black" points="372,-37 372,-55 439,-55 439,-37 372,-37"/>
<text text-anchor="start" x="403" y="-43.2" font-family="Helvetica,sans-Serif" font-size="11.00">0 rows</text>
<polygon fill="#ffffff" stroke="transparent" points="439,-37 439,-55 480,-55 480,-37 439,-37"/>
<polygon fill="none" stroke="black" points="439,-37 439,-55 480,-55 480,-37 439,-37"/>
<text text-anchor="start" x="470" y="-43.2" font-family="Helvetica,sans-Serif" font-size="11.00"> &#160;</text>
</a>
</g>
</g>
<!-- stretchy_report_parameter&#45;&gt;stretchy_report -->
<g id="edge10" class="edge">
<title>stretchy_report_parameter:w&#45;&gt;stretchy_report:e</title>
<path fill="none" stroke="black" d="M279.47,-65.42C258.53,-70.03 251.13,-85.47 233,-106 207.47,-134.9 231.56,-183 193,-183"/>
<polygon fill="black" stroke="black" points="286.04,-64.78 294.35,-67.58 290.02,-64.39 294,-64 294,-64 294,-64 290.02,-64.39 293.65,-60.42 286.04,-64.78 286.04,-64.78"/>
<ellipse fill="none" stroke="black" cx="282.85" cy="-65.09" rx="3.2" ry="3.2"/>
</g>
</g>
</svg>
