<?xml version="1.0" encoding="UTF-8" standalone="no"?>
<!DOCTYPE svg PUBLIC "-//W3C//DTD SVG 1.1//EN"
 "http://www.w3.org/Graphics/SVG/1.1/DTD/svg11.dtd">
<!-- Generated by graphviz version 2.43.0 (0)
 -->
<!-- Title: oneDegreeRelationshipsDiagram Pages: 1 -->
<svg width="874pt" height="729pt"
 viewBox="0.00 0.00 874.00 729.00" xmlns="http://www.w3.org/2000/svg" xmlns:xlink="http://www.w3.org/1999/xlink">
<g id="graph0" class="graph" transform="scale(1 1) rotate(0) translate(4 725)">
<title>oneDegreeRelationshipsDiagram</title>
<polygon fill="#ffffff" stroke="transparent" points="-4,4 -4,-725 870,-725 870,4 -4,4"/>
<text text-anchor="middle" x="71.5" y="-7.2" font-family="Helvetica,sans-Serif" font-size="11.00">Generated by SchemaSpy</text>
<!-- scheduled_email_campaign -->
<g id="node1" class="node">
<title>scheduled_email_campaign</title>
<g id="a_node1"><a xlink:href="../../tables/scheduled_email_campaign.html" xlink:title="scheduled_email_campaign" target="_top">
<polygon fill="#ffffff" stroke="transparent" points="241,-37 241,-631 533,-631 533,-37 241,-37"/>
<polygon fill="#f5f5f5" stroke="transparent" points="243,-607 243,-629 531,-629 531,-607 243,-607"/>
<polygon fill="none" stroke="black" points="243,-607 243,-629 531,-629 531,-607 243,-607"/>
<text text-anchor="start" x="248" y="-616.2" font-family="Helvetica,sans-Serif" font-weight="bold" font-size="11.00">scheduled_email_campaign</text>
<text text-anchor="start" x="496" y="-615.2" font-family="Helvetica,sans-Serif" font-size="11.00">[table]</text>
<polygon fill="none" stroke="black" points="243,-585 243,-607 464,-607 464,-585 243,-585"/>
<image xlink:href="../../images/primaryKeys.png" width="11px" height="12px" preserveAspectRatio="xMinYMin meet" x="248" y="-602"/>
<text text-anchor="start" x="263" y="-593.2" font-family="Helvetica,sans-Serif" font-size="11.00">id</text>
<polygon fill="none" stroke="black" points="464,-585 464,-607 531,-607 531,-585 464,-585"/>
<text text-anchor="start" x="467" y="-593.2" font-family="Helvetica,sans-Serif" font-size="11.00">bigint[19]</text>
<polygon fill="none" stroke="black" points="243,-563 243,-585 464,-585 464,-563 243,-563"/>
<text text-anchor="start" x="263" y="-571.2" font-family="Helvetica,sans-Serif" font-size="11.00">campaign_name</text>
<polygon fill="none" stroke="black" points="464,-563 464,-585 531,-585 531,-563 464,-563"/>
<text text-anchor="start" x="467" y="-571.2" font-family="Helvetica,sans-Serif" font-size="11.00">varchar[100]</text>
<polygon fill="none" stroke="black" points="243,-541 243,-563 464,-563 464,-541 243,-541"/>
<text text-anchor="start" x="263" y="-549.2" font-family="Helvetica,sans-Serif" font-size="11.00">campaign_type</text>
<polygon fill="none" stroke="black" points="464,-541 464,-563 531,-563 531,-541 464,-541"/>
<text text-anchor="start" x="467" y="-549.2" font-family="Helvetica,sans-Serif" font-size="11.00">int[10]</text>
<polygon fill="none" stroke="black" points="243,-519 243,-541 464,-541 464,-519 243,-519"/>
<text text-anchor="start" x="263" y="-527.2" font-family="Helvetica,sans-Serif" font-size="11.00">business_rule_id</text>
<polygon fill="none" stroke="black" points="464,-519 464,-541 531,-541 531,-519 464,-519"/>
<text text-anchor="start" x="467" y="-527.2" font-family="Helvetica,sans-Serif" font-size="11.00">int[10]</text>
<polygon fill="none" stroke="black" points="243,-497 243,-519 464,-519 464,-497 243,-497"/>
<text text-anchor="start" x="263" y="-505.2" font-family="Helvetica,sans-Serif" font-size="11.00">param_value</text>
<polygon fill="none" stroke="black" points="464,-497 464,-519 531,-519 531,-497 464,-497"/>
<text text-anchor="start" x="467" y="-505.2" font-family="Helvetica,sans-Serif" font-size="11.00">text[65535]</text>
<polygon fill="none" stroke="black" points="243,-475 243,-497 464,-497 464,-475 243,-475"/>
<text text-anchor="start" x="263" y="-483.2" font-family="Helvetica,sans-Serif" font-size="11.00">status_enum</text>
<polygon fill="none" stroke="black" points="464,-475 464,-497 531,-497 531,-475 464,-475"/>
<text text-anchor="start" x="467" y="-483.2" font-family="Helvetica,sans-Serif" font-size="11.00">int[10]</text>
<polygon fill="none" stroke="black" points="243,-453 243,-475 464,-475 464,-453 243,-453"/>
<text text-anchor="start" x="263" y="-461.2" font-family="Helvetica,sans-Serif" font-size="11.00">email_subject</text>
<polygon fill="none" stroke="black" points="464,-453 464,-475 531,-475 531,-453 464,-453"/>
<text text-anchor="start" x="467" y="-461.2" font-family="Helvetica,sans-Serif" font-size="11.00">varchar[100]</text>
<polygon fill="none" stroke="black" points="243,-431 243,-453 464,-453 464,-431 243,-431"/>
<text text-anchor="start" x="263" y="-439.2" font-family="Helvetica,sans-Serif" font-size="11.00">email_message</text>
<polygon fill="none" stroke="black" points="464,-431 464,-453 531,-453 531,-431 464,-431"/>
<text text-anchor="start" x="467" y="-439.2" font-family="Helvetica,sans-Serif" font-size="11.00">text[65535]</text>
<polygon fill="none" stroke="black" points="243,-409 243,-431 464,-431 464,-409 243,-409"/>
<text text-anchor="start" x="263" y="-417.2" font-family="Helvetica,sans-Serif" font-size="11.00">email_attachment_file_format</text>
<polygon fill="none" stroke="black" points="464,-409 464,-431 531,-431 531,-409 464,-409"/>
<text text-anchor="start" x="467" y="-417.2" font-family="Helvetica,sans-Serif" font-size="11.00">varchar[10]</text>
<polygon fill="#ffffff" stroke="transparent" points="243,-387 243,-409 464,-409 464,-387 243,-387"/>
<polygon fill="none" stroke="black" points="243,-387 243,-409 464,-409 464,-387 243,-387"/>
<image xlink:href="../../images/foreignKeys.png" width="11px" height="12px" preserveAspectRatio="xMinYMin meet" x="248" y="-404"/>
<text text-anchor="start" x="263" y="-395.2" font-family="Helvetica,sans-Serif" font-size="11.00">stretchy_report_id</text>
<polygon fill="none" stroke="black" points="464,-387 464,-409 531,-409 531,-387 464,-387"/>
<text text-anchor="start" x="467" y="-395.2" font-family="Helvetica,sans-Serif" font-size="11.00">int[10]</text>
<polygon fill="none" stroke="black" points="243,-365 243,-387 464,-387 464,-365 243,-365"/>
<text text-anchor="start" x="263" y="-373.2" font-family="Helvetica,sans-Serif" font-size="11.00">stretchy_report_param_map</text>
<polygon fill="none" stroke="black" points="464,-365 464,-387 531,-387 531,-365 464,-365"/>
<text text-anchor="start" x="467" y="-373.2" font-family="Helvetica,sans-Serif" font-size="11.00">text[65535]</text>
<polygon fill="none" stroke="black" points="243,-343 243,-365 464,-365 464,-343 243,-343"/>
<text text-anchor="start" x="263" y="-351.2" font-family="Helvetica,sans-Serif" font-size="11.00">closedon_date</text>
<polygon fill="none" stroke="black" points="464,-343 464,-365 531,-365 531,-343 464,-343"/>
<text text-anchor="start" x="467" y="-351.2" font-family="Helvetica,sans-Serif" font-size="11.00">date[10]</text>
<polygon fill="none" stroke="black" points="243,-321 243,-343 464,-343 464,-321 243,-321"/>
<text text-anchor="start" x="263" y="-329.2" font-family="Helvetica,sans-Serif" font-size="11.00">closedon_userid</text>
<polygon fill="none" stroke="black" points="464,-321 464,-343 531,-343 531,-321 464,-321"/>
<text text-anchor="start" x="467" y="-329.2" font-family="Helvetica,sans-Serif" font-size="11.00">bigint[19]</text>
<polygon fill="none" stroke="black" points="243,-299 243,-321 464,-321 464,-299 243,-299"/>
<text text-anchor="start" x="263" y="-307.2" font-family="Helvetica,sans-Serif" font-size="11.00">submittedon_date</text>
<polygon fill="none" stroke="black" points="464,-299 464,-321 531,-321 531,-299 464,-299"/>
<text text-anchor="start" x="467" y="-307.2" font-family="Helvetica,sans-Serif" font-size="11.00">date[10]</text>
<polygon fill="none" stroke="black" points="243,-277 243,-299 464,-299 464,-277 243,-277"/>
<text text-anchor="start" x="263" y="-285.2" font-family="Helvetica,sans-Serif" font-size="11.00">submittedon_userid</text>
<polygon fill="none" stroke="black" points="464,-277 464,-299 531,-299 531,-277 464,-277"/>
<text text-anchor="start" x="467" y="-285.2" font-family="Helvetica,sans-Serif" font-size="11.00">bigint[19]</text>
<polygon fill="none" stroke="black" points="243,-255 243,-277 464,-277 464,-255 243,-255"/>
<text text-anchor="start" x="263" y="-263.2" font-family="Helvetica,sans-Serif" font-size="11.00">approvedon_date</text>
<polygon fill="none" stroke="black" points="464,-255 464,-277 531,-277 531,-255 464,-255"/>
<text text-anchor="start" x="467" y="-263.2" font-family="Helvetica,sans-Serif" font-size="11.00">date[10]</text>
<polygon fill="none" stroke="black" points="243,-233 243,-255 464,-255 464,-233 243,-233"/>
<text text-anchor="start" x="263" y="-241.2" font-family="Helvetica,sans-Serif" font-size="11.00">approvedon_userid</text>
<polygon fill="none" stroke="black" points="464,-233 464,-255 531,-255 531,-233 464,-233"/>
<text text-anchor="start" x="467" y="-241.2" font-family="Helvetica,sans-Serif" font-size="11.00">bigint[19]</text>
<polygon fill="none" stroke="black" points="243,-211 243,-233 464,-233 464,-211 243,-211"/>
<text text-anchor="start" x="263" y="-219.2" font-family="Helvetica,sans-Serif" font-size="11.00">recurrence</text>
<polygon fill="none" stroke="black" points="464,-211 464,-233 531,-233 531,-211 464,-211"/>
<text text-anchor="start" x="467" y="-219.2" font-family="Helvetica,sans-Serif" font-size="11.00">varchar[100]</text>
<polygon fill="none" stroke="black" points="243,-189 243,-211 464,-211 464,-189 243,-189"/>
<text text-anchor="start" x="263" y="-197.2" font-family="Helvetica,sans-Serif" font-size="11.00">next_trigger_date</text>
<polygon fill="none" stroke="black" points="464,-189 464,-211 531,-211 531,-189 464,-189"/>
<text text-anchor="start" x="467" y="-197.2" font-family="Helvetica,sans-Serif" font-size="11.00">datetime[19]</text>
<polygon fill="none" stroke="black" points="243,-167 243,-189 464,-189 464,-167 243,-167"/>
<text text-anchor="start" x="263" y="-175.2" font-family="Helvetica,sans-Serif" font-size="11.00">last_trigger_date</text>
<polygon fill="none" stroke="black" points="464,-167 464,-189 531,-189 531,-167 464,-167"/>
<text text-anchor="start" x="467" y="-175.2" font-family="Helvetica,sans-Serif" font-size="11.00">datetime[19]</text>
<polygon fill="none" stroke="black" points="243,-145 243,-167 464,-167 464,-145 243,-145"/>
<text text-anchor="start" x="263" y="-153.2" font-family="Helvetica,sans-Serif" font-size="11.00">recurrence_start_date</text>
<polygon fill="none" stroke="black" points="464,-145 464,-167 531,-167 531,-145 464,-145"/>
<text text-anchor="start" x="467" y="-153.2" font-family="Helvetica,sans-Serif" font-size="11.00">datetime[19]</text>
<polygon fill="none" stroke="black" points="243,-123 243,-145 464,-145 464,-123 243,-123"/>
<text text-anchor="start" x="263" y="-131.2" font-family="Helvetica,sans-Serif" font-size="11.00">is_visible</text>
<polygon fill="none" stroke="black" points="464,-123 464,-145 531,-145 531,-123 464,-123"/>
<text text-anchor="start" x="467" y="-131.2" font-family="Helvetica,sans-Serif" font-size="11.00">bit[1]</text>
<polygon fill="none" stroke="black" points="243,-101 243,-123 464,-123 464,-101 243,-101"/>
<text text-anchor="start" x="263" y="-109.2" font-family="Helvetica,sans-Serif" font-size="11.00">previous_run_error_log</text>
<polygon fill="none" stroke="black" points="464,-101 464,-123 531,-123 531,-101 464,-101"/>
<text text-anchor="start" x="467" y="-109.2" font-family="Helvetica,sans-Serif" font-size="11.00">text[65535]</text>
<polygon fill="none" stroke="black" points="243,-79 243,-101 464,-101 464,-79 243,-79"/>
<text text-anchor="start" x="263" y="-87.2" font-family="Helvetica,sans-Serif" font-size="11.00">previous_run_error_message</text>
<polygon fill="none" stroke="black" points="464,-79 464,-101 531,-101 531,-79 464,-79"/>
<text text-anchor="start" x="467" y="-87.2" font-family="Helvetica,sans-Serif" font-size="11.00">text[65535]</text>
<polygon fill="none" stroke="black" points="243,-57 243,-79 464,-79 464,-57 243,-57"/>
<text text-anchor="start" x="263" y="-65.2" font-family="Helvetica,sans-Serif" font-size="11.00">previous_run_status</text>
<polygon fill="none" stroke="black" points="464,-57 464,-79 531,-79 531,-57 464,-57"/>
<text text-anchor="start" x="467" y="-65.2" font-family="Helvetica,sans-Serif" font-size="11.00">varchar[10]</text>
<polygon fill="#ffffff" stroke="transparent" points="243,-39 243,-57 345,-57 345,-39 243,-39"/>
<polygon fill="none" stroke="black" points="243,-39 243,-57 345,-57 345,-39 243,-39"/>
<text text-anchor="start" x="246" y="-45.2" font-family="Helvetica,sans-Serif" font-size="11.00">&lt; 1</text>
<polygon fill="#ffffff" stroke="transparent" points="345,-39 345,-57 464,-57 464,-39 345,-39"/>
<polygon fill="none" stroke="black" points="345,-39 345,-57 464,-57 464,-39 345,-39"/>
<text text-anchor="start" x="428" y="-45.2" font-family="Helvetica,sans-Serif" font-size="11.00">0 rows</text>
<polygon fill="#ffffff" stroke="transparent" points="464,-39 464,-57 531,-57 531,-39 464,-39"/>
<polygon fill="none" stroke="black" points="464,-39 464,-57 531,-57 531,-39 464,-39"/>
<text text-anchor="start" x="512" y="-45.2" font-family="Helvetica,sans-Serif" font-size="11.00">1 &gt;</text>
<polygon fill="none" stroke="black" stroke-width="2" points="242,-38 242,-630 532,-630 532,-38 242,-38"/>
</a>
</g>
</g>
<!-- stretchy_report -->
<g id="node2" class="node">
<title>stretchy_report</title>
<g id="a_node2"><a xlink:href="../../tables/stretchy_report.html" xlink:title="stretchy_report" target="_top">
<polygon fill="#ffffff" stroke="transparent" points="8,-329 8,-431 192,-431 192,-329 8,-329"/>
<polygon fill="#f5f5f5" stroke="transparent" points="8,-409 8,-431 192,-431 192,-409 8,-409"/>
<polygon fill="none" stroke="black" points="8,-409 8,-431 192,-431 192,-409 8,-409"/>
<text text-anchor="start" x="13" y="-418.2" font-family="Helvetica,sans-Serif" font-weight="bold" font-size="11.00">stretchy_report</text>
<text text-anchor="start" x="157" y="-417.2" font-family="Helvetica,sans-Serif" font-size="11.00">[table]</text>
<polygon fill="none" stroke="black" points="8,-387 8,-409 192,-409 192,-387 8,-387"/>
<image xlink:href="../../images/primaryKeys.png" width="11px" height="12px" preserveAspectRatio="xMinYMin meet" x="13" y="-404"/>
<text text-anchor="start" x="28" y="-395.2" font-family="Helvetica,sans-Serif" font-size="11.00">id</text>
<polygon fill="#ffffff" stroke="transparent" points="8,-365 8,-387 192,-387 192,-365 8,-365"/>
<polygon fill="none" stroke="black" points="8,-365 8,-387 192,-387 192,-365 8,-365"/>
<text text-anchor="start" x="28" y="-373.2" font-family="Helvetica,sans-Serif" font-size="11.00">report_name</text>
<polygon fill="none" stroke="black" points="8,-347 8,-365 192,-365 192,-347 8,-347"/>
<text text-anchor="start" x="11" y="-353.2" font-family="Helvetica,sans-Serif" font-size="11.00">...</text>
<polygon fill="#ffffff" stroke="transparent" points="8,-329 8,-347 76,-347 76,-329 8,-329"/>
<polygon fill="none" stroke="black" points="8,-329 8,-347 76,-347 76,-329 8,-329"/>
<text text-anchor="start" x="11" y="-335.2" font-family="Helvetica,sans-Serif" font-size="11.00"> &#160;</text>
<polygon fill="#ffffff" stroke="transparent" points="76,-329 76,-347 142,-347 142,-329 76,-329"/>
<polygon fill="none" stroke="black" points="76,-329 76,-347 142,-347 142,-329 76,-329"/>
<text text-anchor="start" x="106" y="-335.2" font-family="Helvetica,sans-Serif" font-size="11.00">0 rows</text>
<polygon fill="#ffffff" stroke="transparent" points="142,-329 142,-347 192,-347 192,-329 142,-329"/>
<polygon fill="none" stroke="black" points="142,-329 142,-347 192,-347 192,-329 142,-329"/>
<text text-anchor="start" x="173" y="-335.2" font-family="Helvetica,sans-Serif" font-size="11.00">4 &gt;</text>
</a>
</g>
</g>
<!-- scheduled_email_campaign&#45;&gt;stretchy_report -->
<g id="edge1" class="edge">
<title>scheduled_email_campaign:w&#45;&gt;stretchy_report:e</title>
<path fill="none" stroke="black" d="M227.49,-398C216.18,-398 208.99,-398 193,-398"/>
<polygon fill="black" stroke="black" points="234,-398 242,-401.6 238,-398 242,-398 242,-398 242,-398 238,-398 242,-394.4 234,-398 234,-398"/>
<ellipse fill="none" stroke="black" cx="230.8" cy="-398" rx="3.2" ry="3.2"/>
</g>
<!-- scheduled_email_messages_outbound -->
<g id="node3" class="node">
<title>scheduled_email_messages_outbound</title>
<g id="a_node3"><a xlink:href="../../tables/scheduled_email_messages_outbound.html" xlink:title="scheduled_email_messages_outbound" target="_top">
<polygon fill="#ffffff" stroke="transparent" points="582,-549 582,-717 858,-717 858,-549 582,-549"/>
<polygon fill="#f5f5f5" stroke="transparent" points="582,-695 582,-717 858,-717 858,-695 582,-695"/>
<polygon fill="none" stroke="black" points="582,-695 582,-717 858,-717 858,-695 582,-695"/>
<text text-anchor="start" x="587" y="-704.2" font-family="Helvetica,sans-Serif" font-weight="bold" font-size="11.00">scheduled_email_messages_outbound</text>
<text text-anchor="start" x="823" y="-703.2" font-family="Helvetica,sans-Serif" font-size="11.00">[table]</text>
<polygon fill="none" stroke="black" points="582,-673 582,-695 858,-695 858,-673 582,-673"/>
<image xlink:href="../../images/primaryKeys.png" width="11px" height="12px" preserveAspectRatio="xMinYMin meet" x="587" y="-690"/>
<text text-anchor="start" x="602" y="-681.2" font-family="Helvetica,sans-Serif" font-size="11.00">id</text>
<polygon fill="#ffffff" stroke="transparent" points="582,-651 582,-673 858,-673 858,-651 582,-651"/>
<polygon fill="none" stroke="black" points="582,-651 582,-673 858,-673 858,-651 582,-651"/>
<image xlink:href="../../images/foreignKeys.png" width="11px" height="12px" preserveAspectRatio="xMinYMin meet" x="587" y="-668"/>
<text text-anchor="start" x="602" y="-659.2" font-family="Helvetica,sans-Serif" font-size="11.00">group_id</text>
<polygon fill="#ffffff" stroke="transparent" points="582,-629 582,-651 858,-651 858,-629 582,-629"/>
<polygon fill="none" stroke="black" points="582,-629 582,-651 858,-651 858,-629 582,-629"/>
<image xlink:href="../../images/foreignKeys.png" width="11px" height="12px" preserveAspectRatio="xMinYMin meet" x="587" y="-646"/>
<text text-anchor="start" x="602" y="-637.2" font-family="Helvetica,sans-Serif" font-size="11.00">client_id</text>
<polygon fill="#ffffff" stroke="transparent" points="582,-607 582,-629 858,-629 858,-607 582,-607"/>
<polygon fill="none" stroke="black" points="582,-607 582,-629 858,-629 858,-607 582,-607"/>
<image xlink:href="../../images/foreignKeys.png" width="11px" height="12px" preserveAspectRatio="xMinYMin meet" x="587" y="-624"/>
<text text-anchor="start" x="602" y="-615.2" font-family="Helvetica,sans-Serif" font-size="11.00">staff_id</text>
<polygon fill="#ffffff" stroke="transparent" points="582,-585 582,-607 858,-607 858,-585 582,-585"/>
<polygon fill="none" stroke="black" points="582,-585 582,-607 858,-607 858,-585 582,-585"/>
<image xlink:href="../../images/foreignKeys.png" width="11px" height="12px" preserveAspectRatio="xMinYMin meet" x="587" y="-602"/>
<text text-anchor="start" x="602" y="-593.2" font-family="Helvetica,sans-Serif" font-size="11.00">email_campaign_id</text>
<polygon fill="none" stroke="black" points="582,-567 582,-585 858,-585 858,-567 582,-567"/>
<text text-anchor="start" x="585" y="-573.2" font-family="Helvetica,sans-Serif" font-size="11.00">...</text>
<polygon fill="#ffffff" stroke="transparent" points="582,-549 582,-567 705,-567 705,-549 582,-549"/>
<polygon fill="none" stroke="black" points="582,-549 582,-567 705,-567 705,-549 582,-549"/>
<text text-anchor="start" x="585" y="-555.2" font-family="Helvetica,sans-Serif" font-size="11.00">&lt; 4</text>
<polygon fill="#ffffff" stroke="transparent" points="705,-549 705,-567 794,-567 794,-549 705,-549"/>
<polygon fill="none" stroke="black" points="705,-549 705,-567 794,-567 794,-549 705,-549"/>
<text text-anchor="start" x="758" y="-555.2" font-family="Helvetica,sans-Serif" font-size="11.00">0 rows</text>
<polygon fill="#ffffff" stroke="transparent" points="794,-549 794,-567 858,-567 858,-549 794,-549"/>
<polygon fill="none" stroke="black" points="794,-549 794,-567 858,-567 858,-549 794,-549"/>
<text text-anchor="start" x="848" y="-555.2" font-family="Helvetica,sans-Serif" font-size="11.00"> &#160;</text>
</a>
</g>
</g>
<!-- scheduled_email_messages_outbound&#45;&gt;scheduled_email_campaign -->
<g id="edge2" class="edge">
<title>scheduled_email_messages_outbound:w&#45;&gt;scheduled_email_campaign:e</title>
<path fill="none" stroke="black" d="M566.49,-596C555.18,-596 547.99,-596 532,-596"/>
<polygon fill="black" stroke="black" points="573,-596 581,-599.6 577,-596 581,-596 581,-596 581,-596 577,-596 581,-592.4 573,-596 573,-596"/>
<ellipse fill="none" stroke="black" cx="569.8" cy="-596" rx="3.2" ry="3.2"/>
</g>
</g>
</svg>
