<?xml version="1.0" encoding="UTF-8" standalone="no"?>
<!DOCTYPE svg PUBLIC "-//W3C//DTD SVG 1.1//EN"
 "http://www.w3.org/Graphics/SVG/1.1/DTD/svg11.dtd">
<!-- Generated by graphviz version 2.43.0 (0)
 -->
<!-- Title: oneDegreeRelationshipsDiagram Pages: 1 -->
<svg width="524pt" height="296pt"
 viewBox="0.00 0.00 524.00 296.00" xmlns="http://www.w3.org/2000/svg" xmlns:xlink="http://www.w3.org/1999/xlink">
<g id="graph0" class="graph" transform="scale(1 1) rotate(0) translate(4 292)">
<title>oneDegreeRelationshipsDiagram</title>
<polygon fill="#ffffff" stroke="transparent" points="-4,4 -4,-292 520,-292 520,4 -4,4"/>
<text text-anchor="middle" x="71.5" y="-7.2" font-family="Helvetica,sans-Serif" font-size="11.00">Generated by SchemaSpy</text>
<!-- stretchy_report_parameter -->
<g id="node1" class="node">
<title>stretchy_report_parameter</title>
<g id="a_node1"><a xlink:href="../../tables/stretchy_report_parameter.html" xlink:title="stretchy_report_parameter" target="_top">
<polygon fill="#ffffff" stroke="transparent" points="241,-125 241,-257 508,-257 508,-125 241,-125"/>
<polygon fill="#f5f5f5" stroke="transparent" points="243.5,-233 243.5,-255 506.5,-255 506.5,-233 243.5,-233"/>
<polygon fill="none" stroke="black" points="243.5,-233 243.5,-255 506.5,-255 506.5,-233 243.5,-233"/>
<text text-anchor="start" x="248.5" y="-242.2" font-family="Helvetica,sans-Serif" font-weight="bold" font-size="11.00">stretchy_report_parameter</text>
<text text-anchor="start" x="471.5" y="-241.2" font-family="Helvetica,sans-Serif" font-size="11.00">[table]</text>
<polygon fill="none" stroke="black" points="243.5,-211 243.5,-233 445.5,-233 445.5,-211 243.5,-211"/>
<image xlink:href="../../images/primaryKeys.png" width="11px" height="12px" preserveAspectRatio="xMinYMin meet" x="248.5" y="-228"/>
<text text-anchor="start" x="263.5" y="-219.2" font-family="Helvetica,sans-Serif" font-size="11.00">id</text>
<polygon fill="none" stroke="black" points="445.5,-211 445.5,-233 506.5,-233 506.5,-211 445.5,-211"/>
<text text-anchor="start" x="448.5" y="-219.2" font-family="Helvetica,sans-Serif" font-size="11.00">int[10]</text>
<polygon fill="#ffffff" stroke="transparent" points="243.5,-189 243.5,-211 445.5,-211 445.5,-189 243.5,-189"/>
<polygon fill="none" stroke="black" points="243.5,-189 243.5,-211 445.5,-211 445.5,-189 243.5,-189"/>
<image xlink:href="../../images/foreignKeys.png" width="11px" height="12px" preserveAspectRatio="xMinYMin meet" x="248.5" y="-206"/>
<text text-anchor="start" x="263.5" y="-197.2" font-family="Helvetica,sans-Serif" font-size="11.00">report_id</text>
<polygon fill="none" stroke="black" points="445.5,-189 445.5,-211 506.5,-211 506.5,-189 445.5,-189"/>
<text text-anchor="start" x="448.5" y="-197.2" font-family="Helvetica,sans-Serif" font-size="11.00">int[10]</text>
<polygon fill="#ffffff" stroke="transparent" points="243.5,-167 243.5,-189 445.5,-189 445.5,-167 243.5,-167"/>
<polygon fill="none" stroke="black" points="243.5,-167 243.5,-189 445.5,-189 445.5,-167 243.5,-167"/>
<image xlink:href="../../images/foreignKeys.png" width="11px" height="12px" preserveAspectRatio="xMinYMin meet" x="248.5" y="-184"/>
<text text-anchor="start" x="263.5" y="-175.2" font-family="Helvetica,sans-Serif" font-size="11.00">parameter_id</text>
<polygon fill="none" stroke="black" points="445.5,-167 445.5,-189 506.5,-189 506.5,-167 445.5,-167"/>
<text text-anchor="start" x="448.5" y="-175.2" font-family="Helvetica,sans-Serif" font-size="11.00">int[10]</text>
<polygon fill="none" stroke="black" points="243.5,-145 243.5,-167 445.5,-167 445.5,-145 243.5,-145"/>
<text text-anchor="start" x="263.5" y="-153.2" font-family="Helvetica,sans-Serif" font-size="11.00">report_parameter_name</text>
<polygon fill="none" stroke="black" points="445.5,-145 445.5,-167 506.5,-167 506.5,-145 445.5,-145"/>
<text text-anchor="start" x="448.5" y="-153.2" font-family="Helvetica,sans-Serif" font-size="11.00">varchar[45]</text>
<polygon fill="#ffffff" stroke="transparent" points="243.5,-127 243.5,-145 335.5,-145 335.5,-127 243.5,-127"/>
<polygon fill="none" stroke="black" points="243.5,-127 243.5,-145 335.5,-145 335.5,-127 243.5,-127"/>
<text text-anchor="start" x="246.5" y="-133.2" font-family="Helvetica,sans-Serif" font-size="11.00">&lt; 2</text>
<polygon fill="#ffffff" stroke="transparent" points="335.5,-127 335.5,-145 445.5,-145 445.5,-127 335.5,-127"/>
<polygon fill="none" stroke="black" points="335.5,-127 335.5,-145 445.5,-145 445.5,-127 335.5,-127"/>
<text text-anchor="start" x="409.5" y="-133.2" font-family="Helvetica,sans-Serif" font-size="11.00">0 rows</text>
<polygon fill="#ffffff" stroke="transparent" points="445.5,-127 445.5,-145 506.5,-145 506.5,-127 445.5,-127"/>
<polygon fill="none" stroke="black" points="445.5,-127 445.5,-145 506.5,-145 506.5,-127 445.5,-127"/>
<text text-anchor="start" x="487.5" y="-133.2" font-family="Helvetica,sans-Serif" font-size="11.00">0 &gt;</text>
<polygon fill="none" stroke="black" stroke-width="2" points="242,-126 242,-256 507,-256 507,-126 242,-126"/>
</a>
</g>
</g>
<!-- stretchy_parameter -->
<g id="node2" class="node">
<title>stretchy_parameter</title>
<g id="a_node2"><a xlink:href="../../tables/stretchy_parameter.html" xlink:title="stretchy_parameter" target="_top">
<polygon fill="#ffffff" stroke="transparent" points="10.5,-37 10.5,-161 189.5,-161 189.5,-37 10.5,-37"/>
<polygon fill="#f5f5f5" stroke="transparent" points="11,-139 11,-161 190,-161 190,-139 11,-139"/>
<polygon fill="none" stroke="black" points="11,-139 11,-161 190,-161 190,-139 11,-139"/>
<text text-anchor="start" x="16" y="-148.2" font-family="Helvetica,sans-Serif" font-weight="bold" font-size="11.00">stretchy_parameter</text>
<text text-anchor="start" x="155" y="-147.2" font-family="Helvetica,sans-Serif" font-size="11.00">[table]</text>
<polygon fill="none" stroke="black" points="11,-117 11,-139 190,-139 190,-117 11,-117"/>
<image xlink:href="../../images/primaryKeys.png" width="11px" height="12px" preserveAspectRatio="xMinYMin meet" x="16" y="-134"/>
<text text-anchor="start" x="31" y="-125.2" font-family="Helvetica,sans-Serif" font-size="11.00">id</text>
<polygon fill="#ffffff" stroke="transparent" points="11,-95 11,-117 190,-117 190,-95 11,-95"/>
<polygon fill="none" stroke="black" points="11,-95 11,-117 190,-117 190,-95 11,-95"/>
<text text-anchor="start" x="31" y="-103.2" font-family="Helvetica,sans-Serif" font-size="11.00">parameter_name</text>
<polygon fill="#ffffff" stroke="transparent" points="11,-73 11,-95 190,-95 190,-73 11,-73"/>
<polygon fill="none" stroke="black" points="11,-73 11,-95 190,-95 190,-73 11,-73"/>
<image xlink:href="../../images/foreignKeys.png" width="11px" height="12px" preserveAspectRatio="xMinYMin meet" x="16" y="-90"/>
<text text-anchor="start" x="31" y="-81.2" font-family="Helvetica,sans-Serif" font-size="11.00">parent_id</text>
<polygon fill="none" stroke="black" points="11,-55 11,-73 190,-73 190,-55 11,-55"/>
<text text-anchor="start" x="14" y="-61.2" font-family="Helvetica,sans-Serif" font-size="11.00">...</text>
<polygon fill="#ffffff" stroke="transparent" points="11,-37 11,-55 81,-55 81,-37 11,-37"/>
<polygon fill="none" stroke="black" points="11,-37 11,-55 81,-55 81,-37 11,-37"/>
<text text-anchor="start" x="14" y="-43.2" font-family="Helvetica,sans-Serif" font-size="11.00">&lt; 1</text>
<polygon fill="#ffffff" stroke="transparent" points="81,-37 81,-55 144,-55 144,-37 81,-37"/>
<polygon fill="none" stroke="black" points="81,-37 81,-55 144,-55 144,-37 81,-37"/>
<text text-anchor="start" x="108" y="-43.2" font-family="Helvetica,sans-Serif" font-size="11.00">0 rows</text>
<polygon fill="#ffffff" stroke="transparent" points="144,-37 144,-55 190,-55 190,-37 144,-37"/>
<polygon fill="none" stroke="black" points="144,-37 144,-55 190,-55 190,-37 144,-37"/>
<text text-anchor="start" x="171" y="-43.2" font-family="Helvetica,sans-Serif" font-size="11.00">2 &gt;</text>
</a>
</g>
</g>
<!-- stretchy_report_parameter&#45;&gt;stretchy_parameter -->
<g id="edge1" class="edge">
<title>stretchy_report_parameter:w&#45;&gt;stretchy_parameter:e</title>
<path fill="none" stroke="black" d="M228.63,-173.39C213.66,-161.01 216.92,-128 191,-128"/>
<polygon fill="black" stroke="black" points="234.91,-175.47 241.36,-181.42 238.7,-176.74 242.5,-178 242.5,-178 242.5,-178 238.7,-176.74 243.64,-174.58 234.91,-175.47 234.91,-175.47"/>
<ellipse fill="none" stroke="black" cx="231.87" cy="-174.46" rx="3.2" ry="3.2"/>
</g>
<!-- stretchy_report -->
<g id="node3" class="node">
<title>stretchy_report</title>
<g id="a_node3"><a xlink:href="../../tables/stretchy_report.html" xlink:title="stretchy_report" target="_top">
<polygon fill="#ffffff" stroke="transparent" points="8,-182 8,-284 192,-284 192,-182 8,-182"/>
<polygon fill="#f5f5f5" stroke="transparent" points="8,-262 8,-284 192,-284 192,-262 8,-262"/>
<polygon fill="none" stroke="black" points="8,-262 8,-284 192,-284 192,-262 8,-262"/>
<text text-anchor="start" x="13" y="-271.2" font-family="Helvetica,sans-Serif" font-weight="bold" font-size="11.00">stretchy_report</text>
<text text-anchor="start" x="157" y="-270.2" font-family="Helvetica,sans-Serif" font-size="11.00">[table]</text>
<polygon fill="none" stroke="black" points="8,-240 8,-262 192,-262 192,-240 8,-240"/>
<image xlink:href="../../images/primaryKeys.png" width="11px" height="12px" preserveAspectRatio="xMinYMin meet" x="13" y="-257"/>
<text text-anchor="start" x="28" y="-248.2" font-family="Helvetica,sans-Serif" font-size="11.00">id</text>
<polygon fill="#ffffff" stroke="transparent" points="8,-218 8,-240 192,-240 192,-218 8,-218"/>
<polygon fill="none" stroke="black" points="8,-218 8,-240 192,-240 192,-218 8,-218"/>
<text text-anchor="start" x="28" y="-226.2" font-family="Helvetica,sans-Serif" font-size="11.00">report_name</text>
<polygon fill="none" stroke="black" points="8,-200 8,-218 192,-218 192,-200 8,-200"/>
<text text-anchor="start" x="11" y="-206.2" font-family="Helvetica,sans-Serif" font-size="11.00">...</text>
<polygon fill="#ffffff" stroke="transparent" points="8,-182 8,-200 76,-200 76,-182 8,-182"/>
<polygon fill="none" stroke="black" points="8,-182 8,-200 76,-200 76,-182 8,-182"/>
<text text-anchor="start" x="11" y="-188.2" font-family="Helvetica,sans-Serif" font-size="11.00"> &#160;</text>
<polygon fill="#ffffff" stroke="transparent" points="76,-182 76,-200 142,-200 142,-182 76,-182"/>
<polygon fill="none" stroke="black" points="76,-182 76,-200 142,-200 142,-182 76,-182"/>
<text text-anchor="start" x="106" y="-188.2" font-family="Helvetica,sans-Serif" font-size="11.00">0 rows</text>
<polygon fill="#ffffff" stroke="transparent" points="142,-182 142,-200 192,-200 192,-182 142,-182"/>
<polygon fill="none" stroke="black" points="142,-182 142,-200 192,-200 192,-182 142,-182"/>
<text text-anchor="start" x="173" y="-188.2" font-family="Helvetica,sans-Serif" font-size="11.00">4 &gt;</text>
</a>
</g>
</g>
<!-- stretchy_report_parameter&#45;&gt;stretchy_report -->
<g id="edge2" class="edge">
<title>stretchy_report_parameter:w&#45;&gt;stretchy_report:e</title>
<path fill="none" stroke="black" d="M228.5,-205.08C214.53,-217.98 218.42,-251 193,-251"/>
<polygon fill="black" stroke="black" points="234.98,-202.73 243.73,-203.38 238.74,-201.36 242.5,-200 242.5,-200 242.5,-200 238.74,-201.36 241.27,-196.62 234.98,-202.73 234.98,-202.73"/>
<ellipse fill="none" stroke="black" cx="231.97" cy="-203.82" rx="3.2" ry="3.2"/>
</g>
</g>
</svg>
