<?xml version="1.0" encoding="UTF-8" standalone="no"?>
<!DOCTYPE svg PUBLIC "-//W3C//DTD SVG 1.1//EN"
 "http://www.w3.org/Graphics/SVG/1.1/DTD/svg11.dtd">
<!-- Generated by graphviz version 2.43.0 (0)
 -->
<!-- Title: oneDegreeRelationshipsDiagram Pages: 1 -->
<svg width="549pt" height="630pt"
 viewBox="0.00 0.00 549.00 630.00" xmlns="http://www.w3.org/2000/svg" xmlns:xlink="http://www.w3.org/1999/xlink">
<g id="graph0" class="graph" transform="scale(1 1) rotate(0) translate(4 626)">
<title>oneDegreeRelationshipsDiagram</title>
<polygon fill="#ffffff" stroke="transparent" points="-4,4 -4,-626 545,-626 545,4 -4,4"/>
<text text-anchor="middle" x="71.5" y="-7.2" font-family="Helvetica,sans-Serif" font-size="11.00">Generated by SchemaSpy</text>
<!-- m_report_mailing_job -->
<g id="node1" class="node">
<title>m_report_mailing_job</title>
<g id="a_node1"><a xlink:href="../../tables/m_report_mailing_job.html" xlink:title="m_report_mailing_job" target="_top">
<polygon fill="#ffffff" stroke="transparent" points="312,-428 312,-618 533,-618 533,-428 312,-428"/>
<polygon fill="#f5f5f5" stroke="transparent" points="312.5,-596 312.5,-618 533.5,-618 533.5,-596 312.5,-596"/>
<polygon fill="none" stroke="black" points="312.5,-596 312.5,-618 533.5,-618 533.5,-596 312.5,-596"/>
<text text-anchor="start" x="317.5" y="-605.2" font-family="Helvetica,sans-Serif" font-weight="bold" font-size="11.00">m_report_mailing_job</text>
<text text-anchor="start" x="498.5" y="-604.2" font-family="Helvetica,sans-Serif" font-size="11.00">[table]</text>
<polygon fill="none" stroke="black" points="312.5,-574 312.5,-596 533.5,-596 533.5,-574 312.5,-574"/>
<image xlink:href="../../images/primaryKeys.png" width="11px" height="12px" preserveAspectRatio="xMinYMin meet" x="317.5" y="-591"/>
<text text-anchor="start" x="332.5" y="-582.2" font-family="Helvetica,sans-Serif" font-size="11.00">id</text>
<polygon fill="#ffffff" stroke="transparent" points="312.5,-552 312.5,-574 533.5,-574 533.5,-552 312.5,-552"/>
<polygon fill="none" stroke="black" points="312.5,-552 312.5,-574 533.5,-574 533.5,-552 312.5,-552"/>
<text text-anchor="start" x="332.5" y="-560.2" font-family="Helvetica,sans-Serif" font-size="11.00">name</text>
<polygon fill="#ffffff" stroke="transparent" points="312.5,-530 312.5,-552 533.5,-552 533.5,-530 312.5,-530"/>
<polygon fill="none" stroke="black" points="312.5,-530 312.5,-552 533.5,-552 533.5,-530 312.5,-530"/>
<image xlink:href="../../images/foreignKeys.png" width="11px" height="12px" preserveAspectRatio="xMinYMin meet" x="317.5" y="-547"/>
<text text-anchor="start" x="332.5" y="-538.2" font-family="Helvetica,sans-Serif" font-size="11.00">createdby_id</text>
<polygon fill="#ffffff" stroke="transparent" points="312.5,-508 312.5,-530 533.5,-530 533.5,-508 312.5,-508"/>
<polygon fill="none" stroke="black" points="312.5,-508 312.5,-530 533.5,-530 533.5,-508 312.5,-508"/>
<image xlink:href="../../images/foreignKeys.png" width="11px" height="12px" preserveAspectRatio="xMinYMin meet" x="317.5" y="-525"/>
<text text-anchor="start" x="332.5" y="-516.2" font-family="Helvetica,sans-Serif" font-size="11.00">lastmodifiedby_id</text>
<polygon fill="#ffffff" stroke="transparent" points="312.5,-486 312.5,-508 533.5,-508 533.5,-486 312.5,-486"/>
<polygon fill="none" stroke="black" points="312.5,-486 312.5,-508 533.5,-508 533.5,-486 312.5,-486"/>
<image xlink:href="../../images/foreignKeys.png" width="11px" height="12px" preserveAspectRatio="xMinYMin meet" x="317.5" y="-503"/>
<text text-anchor="start" x="332.5" y="-494.2" font-family="Helvetica,sans-Serif" font-size="11.00">stretchy_report_id</text>
<polygon fill="#ffffff" stroke="transparent" points="312.5,-464 312.5,-486 533.5,-486 533.5,-464 312.5,-464"/>
<polygon fill="none" stroke="black" points="312.5,-464 312.5,-486 533.5,-486 533.5,-464 312.5,-464"/>
<image xlink:href="../../images/foreignKeys.png" width="11px" height="12px" preserveAspectRatio="xMinYMin meet" x="317.5" y="-481"/>
<text text-anchor="start" x="332.5" y="-472.2" font-family="Helvetica,sans-Serif" font-size="11.00">run_as_userid</text>
<polygon fill="none" stroke="black" points="312.5,-446 312.5,-464 533.5,-464 533.5,-446 312.5,-446"/>
<text text-anchor="start" x="315.5" y="-452.2" font-family="Helvetica,sans-Serif" font-size="11.00">...</text>
<polygon fill="#ffffff" stroke="transparent" points="312.5,-428 312.5,-446 403.5,-446 403.5,-428 312.5,-428"/>
<polygon fill="none" stroke="black" points="312.5,-428 312.5,-446 403.5,-446 403.5,-428 312.5,-428"/>
<text text-anchor="start" x="315.5" y="-434.2" font-family="Helvetica,sans-Serif" font-size="11.00">&lt; 4</text>
<polygon fill="#ffffff" stroke="transparent" points="403.5,-428 403.5,-446 476.5,-446 476.5,-428 403.5,-428"/>
<polygon fill="none" stroke="black" points="403.5,-428 403.5,-446 476.5,-446 476.5,-428 403.5,-428"/>
<text text-anchor="start" x="440.5" y="-434.2" font-family="Helvetica,sans-Serif" font-size="11.00">0 rows</text>
<polygon fill="#ffffff" stroke="transparent" points="476.5,-428 476.5,-446 533.5,-446 533.5,-428 476.5,-428"/>
<polygon fill="none" stroke="black" points="476.5,-428 476.5,-446 533.5,-446 533.5,-428 476.5,-428"/>
<text text-anchor="start" x="514.5" y="-434.2" font-family="Helvetica,sans-Serif" font-size="11.00">1 &gt;</text>
</a>
</g>
</g>
<!-- stretchy_report -->
<g id="node2" class="node">
<title>stretchy_report</title>
<g id="a_node2"><a xlink:href="../../tables/stretchy_report.html" xlink:title="stretchy_report" target="_top">
<polygon fill="#ffffff" stroke="transparent" points="8,-61 8,-325 263,-325 263,-61 8,-61"/>
<polygon fill="#f5f5f5" stroke="transparent" points="10.5,-301 10.5,-323 261.5,-323 261.5,-301 10.5,-301"/>
<polygon fill="none" stroke="black" points="10.5,-301 10.5,-323 261.5,-323 261.5,-301 10.5,-301"/>
<text text-anchor="start" x="15.5" y="-310.2" font-family="Helvetica,sans-Serif" font-weight="bold" font-size="11.00">stretchy_report</text>
<text text-anchor="start" x="226.5" y="-309.2" font-family="Helvetica,sans-Serif" font-size="11.00">[table]</text>
<polygon fill="none" stroke="black" points="10.5,-279 10.5,-301 194.5,-301 194.5,-279 10.5,-279"/>
<image xlink:href="../../images/primaryKeys.png" width="11px" height="12px" preserveAspectRatio="xMinYMin meet" x="15.5" y="-296"/>
<text text-anchor="start" x="30.5" y="-287.2" font-family="Helvetica,sans-Serif" font-size="11.00">id</text>
<polygon fill="none" stroke="black" points="194.5,-279 194.5,-301 261.5,-301 261.5,-279 194.5,-279"/>
<text text-anchor="start" x="197.5" y="-287.2" font-family="Helvetica,sans-Serif" font-size="11.00">int[10]</text>
<polygon fill="#ffffff" stroke="transparent" points="10.5,-257 10.5,-279 194.5,-279 194.5,-257 10.5,-257"/>
<polygon fill="none" stroke="black" points="10.5,-257 10.5,-279 194.5,-279 194.5,-257 10.5,-257"/>
<text text-anchor="start" x="30.5" y="-265.2" font-family="Helvetica,sans-Serif" font-size="11.00">report_name</text>
<polygon fill="none" stroke="black" points="194.5,-257 194.5,-279 261.5,-279 261.5,-257 194.5,-257"/>
<text text-anchor="start" x="197.5" y="-265.2" font-family="Helvetica,sans-Serif" font-size="11.00">varchar[100]</text>
<polygon fill="none" stroke="black" points="10.5,-235 10.5,-257 194.5,-257 194.5,-235 10.5,-235"/>
<text text-anchor="start" x="30.5" y="-243.2" font-family="Helvetica,sans-Serif" font-size="11.00">report_type</text>
<polygon fill="none" stroke="black" points="194.5,-235 194.5,-257 261.5,-257 261.5,-235 194.5,-235"/>
<text text-anchor="start" x="197.5" y="-243.2" font-family="Helvetica,sans-Serif" font-size="11.00">varchar[20]</text>
<polygon fill="none" stroke="black" points="10.5,-213 10.5,-235 194.5,-235 194.5,-213 10.5,-213"/>
<text text-anchor="start" x="30.5" y="-221.2" font-family="Helvetica,sans-Serif" font-size="11.00">report_subtype</text>
<polygon fill="none" stroke="black" points="194.5,-213 194.5,-235 261.5,-235 261.5,-213 194.5,-213"/>
<text text-anchor="start" x="197.5" y="-221.2" font-family="Helvetica,sans-Serif" font-size="11.00">varchar[20]</text>
<polygon fill="none" stroke="black" points="10.5,-191 10.5,-213 194.5,-213 194.5,-191 10.5,-191"/>
<text text-anchor="start" x="30.5" y="-199.2" font-family="Helvetica,sans-Serif" font-size="11.00">report_category</text>
<polygon fill="none" stroke="black" points="194.5,-191 194.5,-213 261.5,-213 261.5,-191 194.5,-191"/>
<text text-anchor="start" x="197.5" y="-199.2" font-family="Helvetica,sans-Serif" font-size="11.00">varchar[45]</text>
<polygon fill="none" stroke="black" points="10.5,-169 10.5,-191 194.5,-191 194.5,-169 10.5,-169"/>
<text text-anchor="start" x="30.5" y="-177.2" font-family="Helvetica,sans-Serif" font-size="11.00">report_sql</text>
<polygon fill="none" stroke="black" points="194.5,-169 194.5,-191 261.5,-191 261.5,-169 194.5,-169"/>
<text text-anchor="start" x="197.5" y="-177.2" font-family="Helvetica,sans-Serif" font-size="11.00">text[65535]</text>
<polygon fill="none" stroke="black" points="10.5,-147 10.5,-169 194.5,-169 194.5,-147 10.5,-147"/>
<text text-anchor="start" x="30.5" y="-155.2" font-family="Helvetica,sans-Serif" font-size="11.00">description</text>
<polygon fill="none" stroke="black" points="194.5,-147 194.5,-169 261.5,-169 261.5,-147 194.5,-147"/>
<text text-anchor="start" x="197.5" y="-155.2" font-family="Helvetica,sans-Serif" font-size="11.00">text[65535]</text>
<polygon fill="none" stroke="black" points="10.5,-125 10.5,-147 194.5,-147 194.5,-125 10.5,-125"/>
<text text-anchor="start" x="30.5" y="-133.2" font-family="Helvetica,sans-Serif" font-size="11.00">core_report</text>
<polygon fill="none" stroke="black" points="194.5,-125 194.5,-147 261.5,-147 261.5,-125 194.5,-125"/>
<text text-anchor="start" x="197.5" y="-133.2" font-family="Helvetica,sans-Serif" font-size="11.00">bit[1]</text>
<polygon fill="none" stroke="black" points="10.5,-103 10.5,-125 194.5,-125 194.5,-103 10.5,-103"/>
<text text-anchor="start" x="30.5" y="-111.2" font-family="Helvetica,sans-Serif" font-size="11.00">use_report</text>
<polygon fill="none" stroke="black" points="194.5,-103 194.5,-125 261.5,-125 261.5,-103 194.5,-103"/>
<text text-anchor="start" x="197.5" y="-111.2" font-family="Helvetica,sans-Serif" font-size="11.00">bit[1]</text>
<polygon fill="none" stroke="black" points="10.5,-81 10.5,-103 194.5,-103 194.5,-81 10.5,-81"/>
<text text-anchor="start" x="30.5" y="-89.2" font-family="Helvetica,sans-Serif" font-size="11.00">self_service_user_report</text>
<polygon fill="none" stroke="black" points="194.5,-81 194.5,-103 261.5,-103 261.5,-81 194.5,-81"/>
<text text-anchor="start" x="197.5" y="-89.2" font-family="Helvetica,sans-Serif" font-size="11.00">bit[1]</text>
<polygon fill="#ffffff" stroke="transparent" points="10.5,-63 10.5,-81 93.5,-81 93.5,-63 10.5,-63"/>
<polygon fill="none" stroke="black" points="10.5,-63 10.5,-81 93.5,-81 93.5,-63 10.5,-63"/>
<text text-anchor="start" x="13.5" y="-69.2" font-family="Helvetica,sans-Serif" font-size="11.00">&lt; 0</text>
<polygon fill="#ffffff" stroke="transparent" points="93.5,-63 93.5,-81 194.5,-81 194.5,-63 93.5,-63"/>
<polygon fill="none" stroke="black" points="93.5,-63 93.5,-81 194.5,-81 194.5,-63 93.5,-63"/>
<text text-anchor="start" x="158.5" y="-69.2" font-family="Helvetica,sans-Serif" font-size="11.00">0 rows</text>
<polygon fill="#ffffff" stroke="transparent" points="194.5,-63 194.5,-81 261.5,-81 261.5,-63 194.5,-63"/>
<polygon fill="none" stroke="black" points="194.5,-63 194.5,-81 261.5,-81 261.5,-63 194.5,-63"/>
<text text-anchor="start" x="242.5" y="-69.2" font-family="Helvetica,sans-Serif" font-size="11.00">4 &gt;</text>
<polygon fill="none" stroke="black" stroke-width="2" points="9,-62 9,-324 262,-324 262,-62 9,-62"/>
</a>
</g>
</g>
<!-- m_report_mailing_job&#45;&gt;stretchy_report -->
<g id="edge1" class="edge">
<title>m_report_mailing_job:w&#45;&gt;stretchy_report:e</title>
<path fill="none" stroke="black" d="M297.2,-494.95C232.57,-473.45 351.5,-290 262.5,-290"/>
<polygon fill="black" stroke="black" points="303.58,-495.87 310.99,-500.56 307.54,-496.43 311.5,-497 311.5,-497 311.5,-497 307.54,-496.43 312.01,-493.44 303.58,-495.87 303.58,-495.87"/>
<ellipse fill="none" stroke="black" cx="300.41" cy="-495.41" rx="3.2" ry="3.2"/>
</g>
<!-- scheduled_email_campaign -->
<g id="node3" class="node">
<title>scheduled_email_campaign</title>
<g id="a_node3"><a xlink:href="../../tables/scheduled_email_campaign.html" xlink:title="scheduled_email_campaign" target="_top">
<polygon fill="#ffffff" stroke="transparent" points="312,-305 312,-407 533,-407 533,-305 312,-305"/>
<polygon fill="#f5f5f5" stroke="transparent" points="312.5,-385 312.5,-407 533.5,-407 533.5,-385 312.5,-385"/>
<polygon fill="none" stroke="black" points="312.5,-385 312.5,-407 533.5,-407 533.5,-385 312.5,-385"/>
<text text-anchor="start" x="317.5" y="-394.2" font-family="Helvetica,sans-Serif" font-weight="bold" font-size="11.00">scheduled_email_campaign</text>
<text text-anchor="start" x="498.5" y="-393.2" font-family="Helvetica,sans-Serif" font-size="11.00">[table]</text>
<polygon fill="none" stroke="black" points="312.5,-363 312.5,-385 533.5,-385 533.5,-363 312.5,-363"/>
<image xlink:href="../../images/primaryKeys.png" width="11px" height="12px" preserveAspectRatio="xMinYMin meet" x="317.5" y="-380"/>
<text text-anchor="start" x="332.5" y="-371.2" font-family="Helvetica,sans-Serif" font-size="11.00">id</text>
<polygon fill="#ffffff" stroke="transparent" points="312.5,-341 312.5,-363 533.5,-363 533.5,-341 312.5,-341"/>
<polygon fill="none" stroke="black" points="312.5,-341 312.5,-363 533.5,-363 533.5,-341 312.5,-341"/>
<image xlink:href="../../images/foreignKeys.png" width="11px" height="12px" preserveAspectRatio="xMinYMin meet" x="317.5" y="-358"/>
<text text-anchor="start" x="332.5" y="-349.2" font-family="Helvetica,sans-Serif" font-size="11.00">stretchy_report_id</text>
<polygon fill="none" stroke="black" points="312.5,-323 312.5,-341 533.5,-341 533.5,-323 312.5,-323"/>
<text text-anchor="start" x="315.5" y="-329.2" font-family="Helvetica,sans-Serif" font-size="11.00">...</text>
<polygon fill="#ffffff" stroke="transparent" points="312.5,-305 312.5,-323 403.5,-323 403.5,-305 312.5,-305"/>
<polygon fill="none" stroke="black" points="312.5,-305 312.5,-323 403.5,-323 403.5,-305 312.5,-305"/>
<text text-anchor="start" x="315.5" y="-311.2" font-family="Helvetica,sans-Serif" font-size="11.00">&lt; 1</text>
<polygon fill="#ffffff" stroke="transparent" points="403.5,-305 403.5,-323 476.5,-323 476.5,-305 403.5,-305"/>
<polygon fill="none" stroke="black" points="403.5,-305 403.5,-323 476.5,-323 476.5,-305 403.5,-305"/>
<text text-anchor="start" x="440.5" y="-311.2" font-family="Helvetica,sans-Serif" font-size="11.00">0 rows</text>
<polygon fill="#ffffff" stroke="transparent" points="476.5,-305 476.5,-323 533.5,-323 533.5,-305 476.5,-305"/>
<polygon fill="none" stroke="black" points="476.5,-305 476.5,-323 533.5,-323 533.5,-305 476.5,-305"/>
<text text-anchor="start" x="514.5" y="-311.2" font-family="Helvetica,sans-Serif" font-size="11.00">1 &gt;</text>
</a>
</g>
</g>
<!-- scheduled_email_campaign&#45;&gt;stretchy_report -->
<g id="edge2" class="edge">
<title>scheduled_email_campaign:w&#45;&gt;stretchy_report:e</title>
<path fill="none" stroke="black" d="M297.81,-347.13C282.02,-332.52 291.59,-290 262.5,-290"/>
<polygon fill="black" stroke="black" points="303.96,-349.32 310.29,-355.39 307.73,-350.66 311.5,-352 311.5,-352 311.5,-352 307.73,-350.66 312.71,-348.61 303.96,-349.32 303.96,-349.32"/>
<ellipse fill="none" stroke="black" cx="300.95" cy="-348.25" rx="3.2" ry="3.2"/>
</g>
<!-- sms_campaign -->
<g id="node4" class="node">
<title>sms_campaign</title>
<g id="a_node4"><a xlink:href="../../tables/sms_campaign.html" xlink:title="sms_campaign" target="_top">
<polygon fill="#ffffff" stroke="transparent" points="335,-182 335,-284 510,-284 510,-182 335,-182"/>
<polygon fill="#f5f5f5" stroke="transparent" points="335.5,-262 335.5,-284 510.5,-284 510.5,-262 335.5,-262"/>
<polygon fill="none" stroke="black" points="335.5,-262 335.5,-284 510.5,-284 510.5,-262 335.5,-262"/>
<text text-anchor="start" x="340.5" y="-271.2" font-family="Helvetica,sans-Serif" font-weight="bold" font-size="11.00">sms_campaign</text>
<text text-anchor="start" x="475.5" y="-270.2" font-family="Helvetica,sans-Serif" font-size="11.00">[table]</text>
<polygon fill="none" stroke="black" points="335.5,-240 335.5,-262 510.5,-262 510.5,-240 335.5,-240"/>
<image xlink:href="../../images/primaryKeys.png" width="11px" height="12px" preserveAspectRatio="xMinYMin meet" x="340.5" y="-257"/>
<text text-anchor="start" x="355.5" y="-248.2" font-family="Helvetica,sans-Serif" font-size="11.00">id</text>
<polygon fill="#ffffff" stroke="transparent" points="335.5,-218 335.5,-240 510.5,-240 510.5,-218 335.5,-218"/>
<polygon fill="none" stroke="black" points="335.5,-218 335.5,-240 510.5,-240 510.5,-218 335.5,-218"/>
<image xlink:href="../../images/foreignKeys.png" width="11px" height="12px" preserveAspectRatio="xMinYMin meet" x="340.5" y="-235"/>
<text text-anchor="start" x="355.5" y="-226.2" font-family="Helvetica,sans-Serif" font-size="11.00">report_id</text>
<polygon fill="none" stroke="black" points="335.5,-200 335.5,-218 510.5,-218 510.5,-200 335.5,-200"/>
<text text-anchor="start" x="338.5" y="-206.2" font-family="Helvetica,sans-Serif" font-size="11.00">...</text>
<polygon fill="#ffffff" stroke="transparent" points="335.5,-182 335.5,-200 403.5,-200 403.5,-182 335.5,-182"/>
<polygon fill="none" stroke="black" points="335.5,-182 335.5,-200 403.5,-200 403.5,-182 335.5,-182"/>
<text text-anchor="start" x="338.5" y="-188.2" font-family="Helvetica,sans-Serif" font-size="11.00">&lt; 1</text>
<polygon fill="#ffffff" stroke="transparent" points="403.5,-182 403.5,-200 465.5,-200 465.5,-182 403.5,-182"/>
<polygon fill="none" stroke="black" points="403.5,-182 403.5,-200 465.5,-200 465.5,-182 403.5,-182"/>
<text text-anchor="start" x="429.5" y="-188.2" font-family="Helvetica,sans-Serif" font-size="11.00">0 rows</text>
<polygon fill="#ffffff" stroke="transparent" points="465.5,-182 465.5,-200 510.5,-200 510.5,-182 465.5,-182"/>
<polygon fill="none" stroke="black" points="465.5,-182 465.5,-200 510.5,-200 510.5,-182 465.5,-182"/>
<text text-anchor="start" x="491.5" y="-188.2" font-family="Helvetica,sans-Serif" font-size="11.00">1 &gt;</text>
</a>
</g>
</g>
<!-- sms_campaign&#45;&gt;stretchy_report -->
<g id="edge3" class="edge">
<title>sms_campaign:w&#45;&gt;stretchy_report:e</title>
<path fill="none" stroke="black" d="M320.39,-231.94C294.77,-244.13 298.87,-290 262.5,-290"/>
<polygon fill="black" stroke="black" points="326.67,-230.63 335.23,-232.52 330.58,-229.82 334.5,-229 334.5,-229 334.5,-229 330.58,-229.82 333.77,-225.48 326.67,-230.63 326.67,-230.63"/>
<ellipse fill="none" stroke="black" cx="323.54" cy="-231.29" rx="3.2" ry="3.2"/>
</g>
<!-- stretchy_report_parameter -->
<g id="node5" class="node">
<title>stretchy_report_parameter</title>
<g id="a_node5"><a xlink:href="../../tables/stretchy_report_parameter.html" xlink:title="stretchy_report_parameter" target="_top">
<polygon fill="#ffffff" stroke="transparent" points="321.5,-37 321.5,-161 523.5,-161 523.5,-37 321.5,-37"/>
<polygon fill="#f5f5f5" stroke="transparent" points="321.5,-139 321.5,-161 523.5,-161 523.5,-139 321.5,-139"/>
<polygon fill="none" stroke="black" points="321.5,-139 321.5,-161 523.5,-161 523.5,-139 321.5,-139"/>
<text text-anchor="start" x="326.5" y="-148.2" font-family="Helvetica,sans-Serif" font-weight="bold" font-size="11.00">stretchy_report_parameter</text>
<text text-anchor="start" x="488.5" y="-147.2" font-family="Helvetica,sans-Serif" font-size="11.00">[table]</text>
<polygon fill="none" stroke="black" points="321.5,-117 321.5,-139 523.5,-139 523.5,-117 321.5,-117"/>
<image xlink:href="../../images/primaryKeys.png" width="11px" height="12px" preserveAspectRatio="xMinYMin meet" x="326.5" y="-134"/>
<text text-anchor="start" x="341.5" y="-125.2" font-family="Helvetica,sans-Serif" font-size="11.00">id</text>
<polygon fill="#ffffff" stroke="transparent" points="321.5,-95 321.5,-117 523.5,-117 523.5,-95 321.5,-95"/>
<polygon fill="none" stroke="black" points="321.5,-95 321.5,-117 523.5,-117 523.5,-95 321.5,-95"/>
<image xlink:href="../../images/foreignKeys.png" width="11px" height="12px" preserveAspectRatio="xMinYMin meet" x="326.5" y="-112"/>
<text text-anchor="start" x="341.5" y="-103.2" font-family="Helvetica,sans-Serif" font-size="11.00">report_id</text>
<polygon fill="#ffffff" stroke="transparent" points="321.5,-73 321.5,-95 523.5,-95 523.5,-73 321.5,-73"/>
<polygon fill="none" stroke="black" points="321.5,-73 321.5,-95 523.5,-95 523.5,-73 321.5,-73"/>
<image xlink:href="../../images/foreignKeys.png" width="11px" height="12px" preserveAspectRatio="xMinYMin meet" x="326.5" y="-90"/>
<text text-anchor="start" x="341.5" y="-81.2" font-family="Helvetica,sans-Serif" font-size="11.00">parameter_id</text>
<polygon fill="none" stroke="black" points="321.5,-55 321.5,-73 523.5,-73 523.5,-55 321.5,-55"/>
<text text-anchor="start" x="324.5" y="-61.2" font-family="Helvetica,sans-Serif" font-size="11.00">...</text>
<polygon fill="#ffffff" stroke="transparent" points="321.5,-37 321.5,-55 407.5,-55 407.5,-37 321.5,-37"/>
<polygon fill="none" stroke="black" points="321.5,-37 321.5,-55 407.5,-55 407.5,-37 321.5,-37"/>
<text text-anchor="start" x="324.5" y="-43.2" font-family="Helvetica,sans-Serif" font-size="11.00">&lt; 2</text>
<polygon fill="#ffffff" stroke="transparent" points="407.5,-37 407.5,-55 478.5,-55 478.5,-37 407.5,-37"/>
<polygon fill="none" stroke="black" points="407.5,-37 407.5,-55 478.5,-55 478.5,-37 407.5,-37"/>
<text text-anchor="start" x="442.5" y="-43.2" font-family="Helvetica,sans-Serif" font-size="11.00">0 rows</text>
<polygon fill="#ffffff" stroke="transparent" points="478.5,-37 478.5,-55 523.5,-55 523.5,-37 478.5,-37"/>
<polygon fill="none" stroke="black" points="478.5,-37 478.5,-55 523.5,-55 523.5,-37 478.5,-37"/>
<text text-anchor="start" x="513.5" y="-43.2" font-family="Helvetica,sans-Serif" font-size="11.00"> &#160;</text>
</a>
</g>
</g>
<!-- stretchy_report_parameter&#45;&gt;stretchy_report -->
<g id="edge4" class="edge">
<title>stretchy_report_parameter:w&#45;&gt;stretchy_report:e</title>
<path fill="none" stroke="black" d="M305.94,-108.33C248.95,-129.63 342.55,-290 262.5,-290"/>
<polygon fill="black" stroke="black" points="312.6,-107.26 321.07,-109.55 316.55,-106.63 320.5,-106 320.5,-106 320.5,-106 316.55,-106.63 319.93,-102.45 312.6,-107.26 312.6,-107.26"/>
<ellipse fill="none" stroke="black" cx="309.44" cy="-107.77" rx="3.2" ry="3.2"/>
</g>
</g>
</svg>
