<?xml version="1.0" encoding="UTF-8" standalone="no"?>
<!DOCTYPE svg PUBLIC "-//W3C//DTD SVG 1.1//EN"
 "http://www.w3.org/Graphics/SVG/1.1/DTD/svg11.dtd">
<!-- Generated by graphviz version 2.43.0 (0)
 -->
<!-- Title: twoDegreesRelationshipsDiagram Pages: 1 -->
<svg width="846pt" height="636pt"
 viewBox="0.00 0.00 846.00 636.00" xmlns="http://www.w3.org/2000/svg" xmlns:xlink="http://www.w3.org/1999/xlink">
<g id="graph0" class="graph" transform="scale(1 1) rotate(0) translate(4 632)">
<title>twoDegreesRelationshipsDiagram</title>
<polygon fill="#ffffff" stroke="transparent" points="-4,4 -4,-632 842,-632 842,4 -4,4"/>
<text text-anchor="middle" x="71.5" y="-7.2" font-family="Helvetica,sans-Serif" font-size="11.00">Generated by SchemaSpy</text>
<!-- m_report_mailing_job -->
<g id="node1" class="node">
<title>m_report_mailing_job</title>
<g id="a_node1"><a xlink:href="../../tables/m_report_mailing_job.html" xlink:title="m_report_mailing_job" target="_top">
<polygon fill="#ffffff" stroke="transparent" points="312,-434 312,-624 533,-624 533,-434 312,-434"/>
<polygon fill="#f5f5f5" stroke="transparent" points="312.5,-602 312.5,-624 533.5,-624 533.5,-602 312.5,-602"/>
<polygon fill="none" stroke="black" points="312.5,-602 312.5,-624 533.5,-624 533.5,-602 312.5,-602"/>
<text text-anchor="start" x="317.5" y="-611.2" font-family="Helvetica,sans-Serif" font-weight="bold" font-size="11.00">m_report_mailing_job</text>
<text text-anchor="start" x="498.5" y="-610.2" font-family="Helvetica,sans-Serif" font-size="11.00">[table]</text>
<polygon fill="none" stroke="black" points="312.5,-580 312.5,-602 533.5,-602 533.5,-580 312.5,-580"/>
<image xlink:href="../../images/primaryKeys.png" width="11px" height="12px" preserveAspectRatio="xMinYMin meet" x="317.5" y="-597"/>
<text text-anchor="start" x="332.5" y="-588.2" font-family="Helvetica,sans-Serif" font-size="11.00">id</text>
<polygon fill="#ffffff" stroke="transparent" points="312.5,-558 312.5,-580 533.5,-580 533.5,-558 312.5,-558"/>
<polygon fill="none" stroke="black" points="312.5,-558 312.5,-580 533.5,-580 533.5,-558 312.5,-558"/>
<text text-anchor="start" x="332.5" y="-566.2" font-family="Helvetica,sans-Serif" font-size="11.00">name</text>
<polygon fill="#ffffff" stroke="transparent" points="312.5,-536 312.5,-558 533.5,-558 533.5,-536 312.5,-536"/>
<polygon fill="none" stroke="black" points="312.5,-536 312.5,-558 533.5,-558 533.5,-536 312.5,-536"/>
<image xlink:href="../../images/foreignKeys.png" width="11px" height="12px" preserveAspectRatio="xMinYMin meet" x="317.5" y="-553"/>
<text text-anchor="start" x="332.5" y="-544.2" font-family="Helvetica,sans-Serif" font-size="11.00">createdby_id</text>
<polygon fill="#ffffff" stroke="transparent" points="312.5,-514 312.5,-536 533.5,-536 533.5,-514 312.5,-514"/>
<polygon fill="none" stroke="black" points="312.5,-514 312.5,-536 533.5,-536 533.5,-514 312.5,-514"/>
<image xlink:href="../../images/foreignKeys.png" width="11px" height="12px" preserveAspectRatio="xMinYMin meet" x="317.5" y="-531"/>
<text text-anchor="start" x="332.5" y="-522.2" font-family="Helvetica,sans-Serif" font-size="11.00">lastmodifiedby_id</text>
<polygon fill="#ffffff" stroke="transparent" points="312.5,-492 312.5,-514 533.5,-514 533.5,-492 312.5,-492"/>
<polygon fill="none" stroke="black" points="312.5,-492 312.5,-514 533.5,-514 533.5,-492 312.5,-492"/>
<image xlink:href="../../images/foreignKeys.png" width="11px" height="12px" preserveAspectRatio="xMinYMin meet" x="317.5" y="-509"/>
<text text-anchor="start" x="332.5" y="-500.2" font-family="Helvetica,sans-Serif" font-size="11.00">stretchy_report_id</text>
<polygon fill="#ffffff" stroke="transparent" points="312.5,-470 312.5,-492 533.5,-492 533.5,-470 312.5,-470"/>
<polygon fill="none" stroke="black" points="312.5,-470 312.5,-492 533.5,-492 533.5,-470 312.5,-470"/>
<image xlink:href="../../images/foreignKeys.png" width="11px" height="12px" preserveAspectRatio="xMinYMin meet" x="317.5" y="-487"/>
<text text-anchor="start" x="332.5" y="-478.2" font-family="Helvetica,sans-Serif" font-size="11.00">run_as_userid</text>
<polygon fill="none" stroke="black" points="312.5,-452 312.5,-470 533.5,-470 533.5,-452 312.5,-452"/>
<text text-anchor="start" x="315.5" y="-458.2" font-family="Helvetica,sans-Serif" font-size="11.00">...</text>
<polygon fill="#ffffff" stroke="transparent" points="312.5,-434 312.5,-452 403.5,-452 403.5,-434 312.5,-434"/>
<polygon fill="none" stroke="black" points="312.5,-434 312.5,-452 403.5,-452 403.5,-434 312.5,-434"/>
<text text-anchor="start" x="315.5" y="-440.2" font-family="Helvetica,sans-Serif" font-size="11.00">&lt; 4</text>
<polygon fill="#ffffff" stroke="transparent" points="403.5,-434 403.5,-452 476.5,-452 476.5,-434 403.5,-434"/>
<polygon fill="none" stroke="black" points="403.5,-434 403.5,-452 476.5,-452 476.5,-434 403.5,-434"/>
<text text-anchor="start" x="440.5" y="-440.2" font-family="Helvetica,sans-Serif" font-size="11.00">0 rows</text>
<polygon fill="#ffffff" stroke="transparent" points="476.5,-434 476.5,-452 533.5,-452 533.5,-434 476.5,-434"/>
<polygon fill="none" stroke="black" points="476.5,-434 476.5,-452 533.5,-452 533.5,-434 476.5,-434"/>
<text text-anchor="start" x="514.5" y="-440.2" font-family="Helvetica,sans-Serif" font-size="11.00">1 &gt;</text>
</a>
</g>
</g>
<!-- m_appuser -->
<g id="node2" class="node">
<title>m_appuser</title>
<g id="a_node2"><a xlink:href="../../tables/m_appuser.html" xlink:title="m_appuser" target="_top">
<polygon fill="#ffffff" stroke="transparent" points="84,-498 84,-556 187,-556 187,-498 84,-498"/>
<polygon fill="#f5f5f5" stroke="transparent" points="84.5,-534 84.5,-556 187.5,-556 187.5,-534 84.5,-534"/>
<polygon fill="none" stroke="black" points="84.5,-534 84.5,-556 187.5,-556 187.5,-534 84.5,-534"/>
<text text-anchor="start" x="89.5" y="-543.2" font-family="Helvetica,sans-Serif" font-weight="bold" font-size="11.00">m_appuser</text>
<text text-anchor="start" x="152.5" y="-542.2" font-family="Helvetica,sans-Serif" font-size="11.00">[table]</text>
<polygon fill="none" stroke="black" points="84.5,-516 84.5,-534 187.5,-534 187.5,-516 84.5,-516"/>
<text text-anchor="start" x="87.5" y="-522.2" font-family="Helvetica,sans-Serif" font-size="11.00">...</text>
<polygon fill="#ffffff" stroke="transparent" points="84.5,-498 84.5,-516 113.5,-516 113.5,-498 84.5,-498"/>
<polygon fill="none" stroke="black" points="84.5,-498 84.5,-516 113.5,-516 113.5,-498 84.5,-498"/>
<text text-anchor="start" x="87.5" y="-504.2" font-family="Helvetica,sans-Serif" font-size="11.00">&lt; 2</text>
<polygon fill="#ffffff" stroke="transparent" points="113.5,-498 113.5,-516 155.5,-516 155.5,-498 113.5,-498"/>
<polygon fill="none" stroke="black" points="113.5,-498 113.5,-516 155.5,-516 155.5,-498 113.5,-498"/>
<text text-anchor="start" x="119.5" y="-504.2" font-family="Helvetica,sans-Serif" font-size="11.00">0 rows</text>
<polygon fill="#ffffff" stroke="transparent" points="155.5,-498 155.5,-516 187.5,-516 187.5,-498 155.5,-498"/>
<polygon fill="none" stroke="black" points="155.5,-498 155.5,-516 187.5,-516 187.5,-498 155.5,-498"/>
<text text-anchor="start" x="162.5" y="-504.2" font-family="Helvetica,sans-Serif" font-size="11.00">57 &gt;</text>
</a>
</g>
</g>
<!-- m_report_mailing_job&#45;&gt;m_appuser -->
<g id="edge1" class="edge">
<title>m_report_mailing_job:w&#45;&gt;m_appuser:e</title>
<path fill="none" stroke="black" d="M296.96,-546.46C253.35,-543.07 238.83,-525 188.5,-525"/>
<polygon fill="black" stroke="black" points="303.51,-546.7 311.37,-550.6 307.5,-546.85 311.5,-547 311.5,-547 311.5,-547 307.5,-546.85 311.63,-543.4 303.51,-546.7 303.51,-546.7"/>
<ellipse fill="none" stroke="black" cx="300.31" cy="-546.58" rx="3.2" ry="3.2"/>
</g>
<!-- m_report_mailing_job&#45;&gt;m_appuser -->
<g id="edge2" class="edge">
<title>m_report_mailing_job:w&#45;&gt;m_appuser:e</title>
<path fill="none" stroke="black" d="M296.86,-525C253.84,-525 237.93,-525 188.5,-525"/>
<polygon fill="black" stroke="black" points="303.5,-525 311.5,-528.6 307.5,-525 311.5,-525 311.5,-525 311.5,-525 307.5,-525 311.5,-521.4 303.5,-525 303.5,-525"/>
<ellipse fill="none" stroke="black" cx="300.3" cy="-525" rx="3.2" ry="3.2"/>
</g>
<!-- m_report_mailing_job&#45;&gt;m_appuser -->
<g id="edge3" class="edge">
<title>m_report_mailing_job:w&#45;&gt;m_appuser:e</title>
<path fill="none" stroke="black" d="M297.02,-482C251.79,-488.55 241.34,-525 188.5,-525"/>
<polygon fill="black" stroke="black" points="303.52,-481.55 311.75,-484.59 307.51,-481.28 311.5,-481 311.5,-481 311.5,-481 307.51,-481.28 311.25,-477.41 303.52,-481.55 303.52,-481.55"/>
<ellipse fill="none" stroke="black" cx="300.33" cy="-481.77" rx="3.2" ry="3.2"/>
</g>
<!-- stretchy_report -->
<g id="node3" class="node">
<title>stretchy_report</title>
<g id="a_node3"><a xlink:href="../../tables/stretchy_report.html" xlink:title="stretchy_report" target="_top">
<polygon fill="#ffffff" stroke="transparent" points="8,-129 8,-393 263,-393 263,-129 8,-129"/>
<polygon fill="#f5f5f5" stroke="transparent" points="10.5,-369 10.5,-391 261.5,-391 261.5,-369 10.5,-369"/>
<polygon fill="none" stroke="black" points="10.5,-369 10.5,-391 261.5,-391 261.5,-369 10.5,-369"/>
<text text-anchor="start" x="15.5" y="-378.2" font-family="Helvetica,sans-Serif" font-weight="bold" font-size="11.00">stretchy_report</text>
<text text-anchor="start" x="226.5" y="-377.2" font-family="Helvetica,sans-Serif" font-size="11.00">[table]</text>
<polygon fill="none" stroke="black" points="10.5,-347 10.5,-369 194.5,-369 194.5,-347 10.5,-347"/>
<image xlink:href="../../images/primaryKeys.png" width="11px" height="12px" preserveAspectRatio="xMinYMin meet" x="15.5" y="-364"/>
<text text-anchor="start" x="30.5" y="-355.2" font-family="Helvetica,sans-Serif" font-size="11.00">id</text>
<polygon fill="none" stroke="black" points="194.5,-347 194.5,-369 261.5,-369 261.5,-347 194.5,-347"/>
<text text-anchor="start" x="197.5" y="-355.2" font-family="Helvetica,sans-Serif" font-size="11.00">int[10]</text>
<polygon fill="#ffffff" stroke="transparent" points="10.5,-325 10.5,-347 194.5,-347 194.5,-325 10.5,-325"/>
<polygon fill="none" stroke="black" points="10.5,-325 10.5,-347 194.5,-347 194.5,-325 10.5,-325"/>
<text text-anchor="start" x="30.5" y="-333.2" font-family="Helvetica,sans-Serif" font-size="11.00">report_name</text>
<polygon fill="none" stroke="black" points="194.5,-325 194.5,-347 261.5,-347 261.5,-325 194.5,-325"/>
<text text-anchor="start" x="197.5" y="-333.2" font-family="Helvetica,sans-Serif" font-size="11.00">varchar[100]</text>
<polygon fill="none" stroke="black" points="10.5,-303 10.5,-325 194.5,-325 194.5,-303 10.5,-303"/>
<text text-anchor="start" x="30.5" y="-311.2" font-family="Helvetica,sans-Serif" font-size="11.00">report_type</text>
<polygon fill="none" stroke="black" points="194.5,-303 194.5,-325 261.5,-325 261.5,-303 194.5,-303"/>
<text text-anchor="start" x="197.5" y="-311.2" font-family="Helvetica,sans-Serif" font-size="11.00">varchar[20]</text>
<polygon fill="none" stroke="black" points="10.5,-281 10.5,-303 194.5,-303 194.5,-281 10.5,-281"/>
<text text-anchor="start" x="30.5" y="-289.2" font-family="Helvetica,sans-Serif" font-size="11.00">report_subtype</text>
<polygon fill="none" stroke="black" points="194.5,-281 194.5,-303 261.5,-303 261.5,-281 194.5,-281"/>
<text text-anchor="start" x="197.5" y="-289.2" font-family="Helvetica,sans-Serif" font-size="11.00">varchar[20]</text>
<polygon fill="none" stroke="black" points="10.5,-259 10.5,-281 194.5,-281 194.5,-259 10.5,-259"/>
<text text-anchor="start" x="30.5" y="-267.2" font-family="Helvetica,sans-Serif" font-size="11.00">report_category</text>
<polygon fill="none" stroke="black" points="194.5,-259 194.5,-281 261.5,-281 261.5,-259 194.5,-259"/>
<text text-anchor="start" x="197.5" y="-267.2" font-family="Helvetica,sans-Serif" font-size="11.00">varchar[45]</text>
<polygon fill="none" stroke="black" points="10.5,-237 10.5,-259 194.5,-259 194.5,-237 10.5,-237"/>
<text text-anchor="start" x="30.5" y="-245.2" font-family="Helvetica,sans-Serif" font-size="11.00">report_sql</text>
<polygon fill="none" stroke="black" points="194.5,-237 194.5,-259 261.5,-259 261.5,-237 194.5,-237"/>
<text text-anchor="start" x="197.5" y="-245.2" font-family="Helvetica,sans-Serif" font-size="11.00">text[65535]</text>
<polygon fill="none" stroke="black" points="10.5,-215 10.5,-237 194.5,-237 194.5,-215 10.5,-215"/>
<text text-anchor="start" x="30.5" y="-223.2" font-family="Helvetica,sans-Serif" font-size="11.00">description</text>
<polygon fill="none" stroke="black" points="194.5,-215 194.5,-237 261.5,-237 261.5,-215 194.5,-215"/>
<text text-anchor="start" x="197.5" y="-223.2" font-family="Helvetica,sans-Serif" font-size="11.00">text[65535]</text>
<polygon fill="none" stroke="black" points="10.5,-193 10.5,-215 194.5,-215 194.5,-193 10.5,-193"/>
<text text-anchor="start" x="30.5" y="-201.2" font-family="Helvetica,sans-Serif" font-size="11.00">core_report</text>
<polygon fill="none" stroke="black" points="194.5,-193 194.5,-215 261.5,-215 261.5,-193 194.5,-193"/>
<text text-anchor="start" x="197.5" y="-201.2" font-family="Helvetica,sans-Serif" font-size="11.00">bit[1]</text>
<polygon fill="none" stroke="black" points="10.5,-171 10.5,-193 194.5,-193 194.5,-171 10.5,-171"/>
<text text-anchor="start" x="30.5" y="-179.2" font-family="Helvetica,sans-Serif" font-size="11.00">use_report</text>
<polygon fill="none" stroke="black" points="194.5,-171 194.5,-193 261.5,-193 261.5,-171 194.5,-171"/>
<text text-anchor="start" x="197.5" y="-179.2" font-family="Helvetica,sans-Serif" font-size="11.00">bit[1]</text>
<polygon fill="none" stroke="black" points="10.5,-149 10.5,-171 194.5,-171 194.5,-149 10.5,-149"/>
<text text-anchor="start" x="30.5" y="-157.2" font-family="Helvetica,sans-Serif" font-size="11.00">self_service_user_report</text>
<polygon fill="none" stroke="black" points="194.5,-149 194.5,-171 261.5,-171 261.5,-149 194.5,-149"/>
<text text-anchor="start" x="197.5" y="-157.2" font-family="Helvetica,sans-Serif" font-size="11.00">bit[1]</text>
<polygon fill="#ffffff" stroke="transparent" points="10.5,-131 10.5,-149 93.5,-149 93.5,-131 10.5,-131"/>
<polygon fill="none" stroke="black" points="10.5,-131 10.5,-149 93.5,-149 93.5,-131 10.5,-131"/>
<text text-anchor="start" x="13.5" y="-137.2" font-family="Helvetica,sans-Serif" font-size="11.00">&lt; 0</text>
<polygon fill="#ffffff" stroke="transparent" points="93.5,-131 93.5,-149 194.5,-149 194.5,-131 93.5,-131"/>
<polygon fill="none" stroke="black" points="93.5,-131 93.5,-149 194.5,-149 194.5,-131 93.5,-131"/>
<text text-anchor="start" x="158.5" y="-137.2" font-family="Helvetica,sans-Serif" font-size="11.00">0 rows</text>
<polygon fill="#ffffff" stroke="transparent" points="194.5,-131 194.5,-149 261.5,-149 261.5,-131 194.5,-131"/>
<polygon fill="none" stroke="black" points="194.5,-131 194.5,-149 261.5,-149 261.5,-131 194.5,-131"/>
<text text-anchor="start" x="242.5" y="-137.2" font-family="Helvetica,sans-Serif" font-size="11.00">4 &gt;</text>
<polygon fill="none" stroke="black" stroke-width="2" points="9,-130 9,-392 262,-392 262,-130 9,-130"/>
</a>
</g>
</g>
<!-- m_report_mailing_job&#45;&gt;stretchy_report -->
<g id="edge4" class="edge">
<title>m_report_mailing_job:w&#45;&gt;stretchy_report:e</title>
<path fill="none" stroke="black" d="M297.2,-499.97C257.29,-479.15 324.68,-358 262.5,-358"/>
<polygon fill="black" stroke="black" points="303.67,-501.34 310.75,-506.52 307.59,-502.17 311.5,-503 311.5,-503 311.5,-503 307.59,-502.17 312.25,-499.48 303.67,-501.34 303.67,-501.34"/>
<ellipse fill="none" stroke="black" cx="300.54" cy="-500.68" rx="3.2" ry="3.2"/>
</g>
<!-- m_report_mailing_job_run_history -->
<g id="node4" class="node">
<title>m_report_mailing_job_run_history</title>
<g id="a_node4"><a xlink:href="../../tables/m_report_mailing_job_run_history.html" xlink:title="m_report_mailing_job_run_history" target="_top">
<polygon fill="#ffffff" stroke="transparent" points="593,-564 593,-622 819,-622 819,-564 593,-564"/>
<polygon fill="#f5f5f5" stroke="transparent" points="593,-600 593,-622 819,-622 819,-600 593,-600"/>
<polygon fill="none" stroke="black" points="593,-600 593,-622 819,-622 819,-600 593,-600"/>
<text text-anchor="start" x="598" y="-609.2" font-family="Helvetica,sans-Serif" font-weight="bold" font-size="11.00">m_report_mailing_job_run_history</text>
<text text-anchor="start" x="784" y="-608.2" font-family="Helvetica,sans-Serif" font-size="11.00">[table]</text>
<polygon fill="none" stroke="black" points="593,-582 593,-600 819,-600 819,-582 593,-582"/>
<text text-anchor="start" x="596" y="-588.2" font-family="Helvetica,sans-Serif" font-size="11.00">...</text>
<polygon fill="#ffffff" stroke="transparent" points="593,-564 593,-582 691,-582 691,-564 593,-564"/>
<polygon fill="none" stroke="black" points="593,-564 593,-582 691,-582 691,-564 593,-564"/>
<text text-anchor="start" x="596" y="-570.2" font-family="Helvetica,sans-Serif" font-size="11.00">&lt; 1</text>
<polygon fill="#ffffff" stroke="transparent" points="691,-564 691,-582 768,-582 768,-564 691,-564"/>
<polygon fill="none" stroke="black" points="691,-564 691,-582 768,-582 768,-564 691,-564"/>
<text text-anchor="start" x="732" y="-570.2" font-family="Helvetica,sans-Serif" font-size="11.00">0 rows</text>
<polygon fill="#ffffff" stroke="transparent" points="768,-564 768,-582 819,-582 819,-564 768,-564"/>
<polygon fill="none" stroke="black" points="768,-564 768,-582 819,-582 819,-564 768,-564"/>
<text text-anchor="start" x="809" y="-570.2" font-family="Helvetica,sans-Serif" font-size="11.00"> &#160;</text>
</a>
</g>
</g>
<!-- m_report_mailing_job_run_history&#45;&gt;m_report_mailing_job -->
<g id="edge5" class="edge">
<title>m_report_mailing_job_run_history:w&#45;&gt;m_report_mailing_job:e</title>
<path fill="none" stroke="black" d="M577.58,-591C562.73,-591 554.47,-591 534.5,-591"/>
<polygon fill="black" stroke="black" points="584,-591 592,-594.6 588,-591 592,-591 592,-591 592,-591 588,-591 592,-587.4 584,-591 584,-591"/>
<ellipse fill="none" stroke="black" cx="580.8" cy="-591" rx="3.2" ry="3.2"/>
</g>
<!-- scheduled_email_campaign -->
<g id="node5" class="node">
<title>scheduled_email_campaign</title>
<g id="a_node5"><a xlink:href="../../tables/scheduled_email_campaign.html" xlink:title="scheduled_email_campaign" target="_top">
<polygon fill="#ffffff" stroke="transparent" points="312,-311 312,-413 533,-413 533,-311 312,-311"/>
<polygon fill="#f5f5f5" stroke="transparent" points="312.5,-391 312.5,-413 533.5,-413 533.5,-391 312.5,-391"/>
<polygon fill="none" stroke="black" points="312.5,-391 312.5,-413 533.5,-413 533.5,-391 312.5,-391"/>
<text text-anchor="start" x="317.5" y="-400.2" font-family="Helvetica,sans-Serif" font-weight="bold" font-size="11.00">scheduled_email_campaign</text>
<text text-anchor="start" x="498.5" y="-399.2" font-family="Helvetica,sans-Serif" font-size="11.00">[table]</text>
<polygon fill="none" stroke="black" points="312.5,-369 312.5,-391 533.5,-391 533.5,-369 312.5,-369"/>
<image xlink:href="../../images/primaryKeys.png" width="11px" height="12px" preserveAspectRatio="xMinYMin meet" x="317.5" y="-386"/>
<text text-anchor="start" x="332.5" y="-377.2" font-family="Helvetica,sans-Serif" font-size="11.00">id</text>
<polygon fill="#ffffff" stroke="transparent" points="312.5,-347 312.5,-369 533.5,-369 533.5,-347 312.5,-347"/>
<polygon fill="none" stroke="black" points="312.5,-347 312.5,-369 533.5,-369 533.5,-347 312.5,-347"/>
<image xlink:href="../../images/foreignKeys.png" width="11px" height="12px" preserveAspectRatio="xMinYMin meet" x="317.5" y="-364"/>
<text text-anchor="start" x="332.5" y="-355.2" font-family="Helvetica,sans-Serif" font-size="11.00">stretchy_report_id</text>
<polygon fill="none" stroke="black" points="312.5,-329 312.5,-347 533.5,-347 533.5,-329 312.5,-329"/>
<text text-anchor="start" x="315.5" y="-335.2" font-family="Helvetica,sans-Serif" font-size="11.00">...</text>
<polygon fill="#ffffff" stroke="transparent" points="312.5,-311 312.5,-329 403.5,-329 403.5,-311 312.5,-311"/>
<polygon fill="none" stroke="black" points="312.5,-311 312.5,-329 403.5,-329 403.5,-311 312.5,-311"/>
<text text-anchor="start" x="315.5" y="-317.2" font-family="Helvetica,sans-Serif" font-size="11.00">&lt; 1</text>
<polygon fill="#ffffff" stroke="transparent" points="403.5,-311 403.5,-329 476.5,-329 476.5,-311 403.5,-311"/>
<polygon fill="none" stroke="black" points="403.5,-311 403.5,-329 476.5,-329 476.5,-311 403.5,-311"/>
<text text-anchor="start" x="440.5" y="-317.2" font-family="Helvetica,sans-Serif" font-size="11.00">0 rows</text>
<polygon fill="#ffffff" stroke="transparent" points="476.5,-311 476.5,-329 533.5,-329 533.5,-311 476.5,-311"/>
<polygon fill="none" stroke="black" points="476.5,-311 476.5,-329 533.5,-329 533.5,-311 476.5,-311"/>
<text text-anchor="start" x="514.5" y="-317.2" font-family="Helvetica,sans-Serif" font-size="11.00">1 &gt;</text>
</a>
</g>
</g>
<!-- scheduled_email_campaign&#45;&gt;stretchy_report -->
<g id="edge6" class="edge">
<title>scheduled_email_campaign:w&#45;&gt;stretchy_report:e</title>
<path fill="none" stroke="black" d="M296.99,-358C285.68,-358 278.49,-358 262.5,-358"/>
<polygon fill="black" stroke="black" points="303.5,-358 311.5,-361.6 307.5,-358 311.5,-358 311.5,-358 311.5,-358 307.5,-358 311.5,-354.4 303.5,-358 303.5,-358"/>
<ellipse fill="none" stroke="black" cx="300.3" cy="-358" rx="3.2" ry="3.2"/>
</g>
<!-- scheduled_email_messages_outbound -->
<g id="node6" class="node">
<title>scheduled_email_messages_outbound</title>
<g id="a_node6"><a xlink:href="../../tables/scheduled_email_messages_outbound.html" xlink:title="scheduled_email_messages_outbound" target="_top">
<polygon fill="#ffffff" stroke="transparent" points="582,-353 582,-411 830,-411 830,-353 582,-353"/>
<polygon fill="#f5f5f5" stroke="transparent" points="582,-389 582,-411 830,-411 830,-389 582,-389"/>
<polygon fill="none" stroke="black" points="582,-389 582,-411 830,-411 830,-389 582,-389"/>
<text text-anchor="start" x="587" y="-398.2" font-family="Helvetica,sans-Serif" font-weight="bold" font-size="11.00">scheduled_email_messages_outbound</text>
<text text-anchor="start" x="795" y="-397.2" font-family="Helvetica,sans-Serif" font-size="11.00">[table]</text>
<polygon fill="none" stroke="black" points="582,-371 582,-389 830,-389 830,-371 582,-371"/>
<text text-anchor="start" x="585" y="-377.2" font-family="Helvetica,sans-Serif" font-size="11.00">...</text>
<polygon fill="#ffffff" stroke="transparent" points="582,-353 582,-371 691,-371 691,-353 582,-353"/>
<polygon fill="none" stroke="black" points="582,-353 582,-371 691,-371 691,-353 582,-353"/>
<text text-anchor="start" x="585" y="-359.2" font-family="Helvetica,sans-Serif" font-size="11.00">&lt; 4</text>
<polygon fill="#ffffff" stroke="transparent" points="691,-353 691,-371 773,-371 773,-353 691,-353"/>
<polygon fill="none" stroke="black" points="691,-353 691,-371 773,-371 773,-353 691,-353"/>
<text text-anchor="start" x="737" y="-359.2" font-family="Helvetica,sans-Serif" font-size="11.00">0 rows</text>
<polygon fill="#ffffff" stroke="transparent" points="773,-353 773,-371 830,-371 830,-353 773,-353"/>
<polygon fill="none" stroke="black" points="773,-353 773,-371 830,-371 830,-353 773,-353"/>
<text text-anchor="start" x="820" y="-359.2" font-family="Helvetica,sans-Serif" font-size="11.00"> &#160;</text>
</a>
</g>
</g>
<!-- scheduled_email_messages_outbound&#45;&gt;scheduled_email_campaign -->
<g id="edge7" class="edge">
<title>scheduled_email_messages_outbound:w&#45;&gt;scheduled_email_campaign:e</title>
<path fill="none" stroke="black" d="M566.55,-380C556.2,-380 549.35,-380 534.5,-380"/>
<polygon fill="black" stroke="black" points="573,-380 581,-383.6 577,-380 581,-380 581,-380 581,-380 577,-380 581,-376.4 573,-380 573,-380"/>
<ellipse fill="none" stroke="black" cx="569.8" cy="-380" rx="3.2" ry="3.2"/>
</g>
<!-- sms_campaign -->
<g id="node7" class="node">
<title>sms_campaign</title>
<g id="a_node7"><a xlink:href="../../tables/sms_campaign.html" xlink:title="sms_campaign" target="_top">
<polygon fill="#ffffff" stroke="transparent" points="335,-188 335,-290 510,-290 510,-188 335,-188"/>
<polygon fill="#f5f5f5" stroke="transparent" points="335.5,-268 335.5,-290 510.5,-290 510.5,-268 335.5,-268"/>
<polygon fill="none" stroke="black" points="335.5,-268 335.5,-290 510.5,-290 510.5,-268 335.5,-268"/>
<text text-anchor="start" x="340.5" y="-277.2" font-family="Helvetica,sans-Serif" font-weight="bold" font-size="11.00">sms_campaign</text>
<text text-anchor="start" x="475.5" y="-276.2" font-family="Helvetica,sans-Serif" font-size="11.00">[table]</text>
<polygon fill="none" stroke="black" points="335.5,-246 335.5,-268 510.5,-268 510.5,-246 335.5,-246"/>
<image xlink:href="../../images/primaryKeys.png" width="11px" height="12px" preserveAspectRatio="xMinYMin meet" x="340.5" y="-263"/>
<text text-anchor="start" x="355.5" y="-254.2" font-family="Helvetica,sans-Serif" font-size="11.00">id</text>
<polygon fill="#ffffff" stroke="transparent" points="335.5,-224 335.5,-246 510.5,-246 510.5,-224 335.5,-224"/>
<polygon fill="none" stroke="black" points="335.5,-224 335.5,-246 510.5,-246 510.5,-224 335.5,-224"/>
<image xlink:href="../../images/foreignKeys.png" width="11px" height="12px" preserveAspectRatio="xMinYMin meet" x="340.5" y="-241"/>
<text text-anchor="start" x="355.5" y="-232.2" font-family="Helvetica,sans-Serif" font-size="11.00">report_id</text>
<polygon fill="none" stroke="black" points="335.5,-206 335.5,-224 510.5,-224 510.5,-206 335.5,-206"/>
<text text-anchor="start" x="338.5" y="-212.2" font-family="Helvetica,sans-Serif" font-size="11.00">...</text>
<polygon fill="#ffffff" stroke="transparent" points="335.5,-188 335.5,-206 403.5,-206 403.5,-188 335.5,-188"/>
<polygon fill="none" stroke="black" points="335.5,-188 335.5,-206 403.5,-206 403.5,-188 335.5,-188"/>
<text text-anchor="start" x="338.5" y="-194.2" font-family="Helvetica,sans-Serif" font-size="11.00">&lt; 1</text>
<polygon fill="#ffffff" stroke="transparent" points="403.5,-188 403.5,-206 465.5,-206 465.5,-188 403.5,-188"/>
<polygon fill="none" stroke="black" points="403.5,-188 403.5,-206 465.5,-206 465.5,-188 403.5,-188"/>
<text text-anchor="start" x="429.5" y="-194.2" font-family="Helvetica,sans-Serif" font-size="11.00">0 rows</text>
<polygon fill="#ffffff" stroke="transparent" points="465.5,-188 465.5,-206 510.5,-206 510.5,-188 465.5,-188"/>
<polygon fill="none" stroke="black" points="465.5,-188 465.5,-206 510.5,-206 510.5,-188 465.5,-188"/>
<text text-anchor="start" x="491.5" y="-194.2" font-family="Helvetica,sans-Serif" font-size="11.00">1 &gt;</text>
</a>
</g>
</g>
<!-- sms_campaign&#45;&gt;stretchy_report -->
<g id="edge8" class="edge">
<title>sms_campaign:w&#45;&gt;stretchy_report:e</title>
<path fill="none" stroke="black" d="M320.11,-237.8C280.03,-256.11 320.15,-358 262.5,-358"/>
<polygon fill="black" stroke="black" points="326.65,-236.53 335.19,-238.53 330.57,-235.76 334.5,-235 334.5,-235 334.5,-235 330.57,-235.76 333.81,-231.47 326.65,-236.53 326.65,-236.53"/>
<ellipse fill="none" stroke="black" cx="323.51" cy="-237.14" rx="3.2" ry="3.2"/>
</g>
<!-- sms_messages_outbound -->
<g id="node8" class="node">
<title>sms_messages_outbound</title>
<g id="a_node8"><a xlink:href="../../tables/sms_messages_outbound.html" xlink:title="sms_messages_outbound" target="_top">
<polygon fill="#ffffff" stroke="transparent" points="615,-230 615,-288 797,-288 797,-230 615,-230"/>
<polygon fill="#f5f5f5" stroke="transparent" points="615,-266 615,-288 797,-288 797,-266 615,-266"/>
<polygon fill="none" stroke="black" points="615,-266 615,-288 797,-288 797,-266 615,-266"/>
<text text-anchor="start" x="620" y="-275.2" font-family="Helvetica,sans-Serif" font-weight="bold" font-size="11.00">sms_messages_outbound</text>
<text text-anchor="start" x="762" y="-274.2" font-family="Helvetica,sans-Serif" font-size="11.00">[table]</text>
<polygon fill="none" stroke="black" points="615,-248 615,-266 797,-266 797,-248 615,-248"/>
<text text-anchor="start" x="618" y="-254.2" font-family="Helvetica,sans-Serif" font-size="11.00">...</text>
<polygon fill="#ffffff" stroke="transparent" points="615,-230 615,-248 691,-248 691,-230 615,-230"/>
<polygon fill="none" stroke="black" points="615,-230 615,-248 691,-248 691,-230 615,-230"/>
<text text-anchor="start" x="618" y="-236.2" font-family="Helvetica,sans-Serif" font-size="11.00">&lt; 4</text>
<polygon fill="#ffffff" stroke="transparent" points="691,-230 691,-248 757,-248 757,-230 691,-230"/>
<polygon fill="none" stroke="black" points="691,-230 691,-248 757,-248 757,-230 691,-230"/>
<text text-anchor="start" x="721" y="-236.2" font-family="Helvetica,sans-Serif" font-size="11.00">0 rows</text>
<polygon fill="#ffffff" stroke="transparent" points="757,-230 757,-248 797,-248 797,-230 757,-230"/>
<polygon fill="none" stroke="black" points="757,-230 757,-248 797,-248 797,-230 757,-230"/>
<text text-anchor="start" x="787" y="-236.2" font-family="Helvetica,sans-Serif" font-size="11.00"> &#160;</text>
</a>
</g>
</g>
<!-- sms_messages_outbound&#45;&gt;sms_campaign -->
<g id="edge9" class="edge">
<title>sms_messages_outbound:w&#45;&gt;sms_campaign:e</title>
<path fill="none" stroke="black" d="M599.28,-257C565.31,-257 551.72,-257 511.5,-257"/>
<polygon fill="black" stroke="black" points="606,-257 614,-260.6 610,-257 614,-257 614,-257 614,-257 610,-257 614,-253.4 606,-257 606,-257"/>
<ellipse fill="none" stroke="black" cx="602.8" cy="-257" rx="3.2" ry="3.2"/>
</g>
<!-- stretchy_report_parameter -->
<g id="node9" class="node">
<title>stretchy_report_parameter</title>
<g id="a_node9"><a xlink:href="../../tables/stretchy_report_parameter.html" xlink:title="stretchy_report_parameter" target="_top">
<polygon fill="#ffffff" stroke="transparent" points="321.5,-37 321.5,-161 523.5,-161 523.5,-37 321.5,-37"/>
<polygon fill="#f5f5f5" stroke="transparent" points="321.5,-139 321.5,-161 523.5,-161 523.5,-139 321.5,-139"/>
<polygon fill="none" stroke="black" points="321.5,-139 321.5,-161 523.5,-161 523.5,-139 321.5,-139"/>
<text text-anchor="start" x="326.5" y="-148.2" font-family="Helvetica,sans-Serif" font-weight="bold" font-size="11.00">stretchy_report_parameter</text>
<text text-anchor="start" x="488.5" y="-147.2" font-family="Helvetica,sans-Serif" font-size="11.00">[table]</text>
<polygon fill="none" stroke="black" points="321.5,-117 321.5,-139 523.5,-139 523.5,-117 321.5,-117"/>
<image xlink:href="../../images/primaryKeys.png" width="11px" height="12px" preserveAspectRatio="xMinYMin meet" x="326.5" y="-134"/>
<text text-anchor="start" x="341.5" y="-125.2" font-family="Helvetica,sans-Serif" font-size="11.00">id</text>
<polygon fill="#ffffff" stroke="transparent" points="321.5,-95 321.5,-117 523.5,-117 523.5,-95 321.5,-95"/>
<polygon fill="none" stroke="black" points="321.5,-95 321.5,-117 523.5,-117 523.5,-95 321.5,-95"/>
<image xlink:href="../../images/foreignKeys.png" width="11px" height="12px" preserveAspectRatio="xMinYMin meet" x="326.5" y="-112"/>
<text text-anchor="start" x="341.5" y="-103.2" font-family="Helvetica,sans-Serif" font-size="11.00">report_id</text>
<polygon fill="#ffffff" stroke="transparent" points="321.5,-73 321.5,-95 523.5,-95 523.5,-73 321.5,-73"/>
<polygon fill="none" stroke="black" points="321.5,-73 321.5,-95 523.5,-95 523.5,-73 321.5,-73"/>
<image xlink:href="../../images/foreignKeys.png" width="11px" height="12px" preserveAspectRatio="xMinYMin meet" x="326.5" y="-90"/>
<text text-anchor="start" x="341.5" y="-81.2" font-family="Helvetica,sans-Serif" font-size="11.00">parameter_id</text>
<polygon fill="none" stroke="black" points="321.5,-55 321.5,-73 523.5,-73 523.5,-55 321.5,-55"/>
<text text-anchor="start" x="324.5" y="-61.2" font-family="Helvetica,sans-Serif" font-size="11.00">...</text>
<polygon fill="#ffffff" stroke="transparent" points="321.5,-37 321.5,-55 407.5,-55 407.5,-37 321.5,-37"/>
<polygon fill="none" stroke="black" points="321.5,-37 321.5,-55 407.5,-55 407.5,-37 321.5,-37"/>
<text text-anchor="start" x="324.5" y="-43.2" font-family="Helvetica,sans-Serif" font-size="11.00">&lt; 2</text>
<polygon fill="#ffffff" stroke="transparent" points="407.5,-37 407.5,-55 478.5,-55 478.5,-37 407.5,-37"/>
<polygon fill="none" stroke="black" points="407.5,-37 407.5,-55 478.5,-55 478.5,-37 407.5,-37"/>
<text text-anchor="start" x="442.5" y="-43.2" font-family="Helvetica,sans-Serif" font-size="11.00">0 rows</text>
<polygon fill="#ffffff" stroke="transparent" points="478.5,-37 478.5,-55 523.5,-55 523.5,-37 478.5,-37"/>
<polygon fill="none" stroke="black" points="478.5,-37 478.5,-55 523.5,-55 523.5,-37 478.5,-37"/>
<text text-anchor="start" x="513.5" y="-43.2" font-family="Helvetica,sans-Serif" font-size="11.00"> &#160;</text>
</a>
</g>
</g>
<!-- stretchy_report_parameter&#45;&gt;stretchy_report -->
<g id="edge11" class="edge">
<title>stretchy_report_parameter:w&#45;&gt;stretchy_report:e</title>
<path fill="none" stroke="black" d="M307.17,-112.23C272.7,-151.04 314.58,-358 262.5,-358"/>
<polygon fill="black" stroke="black" points="313.25,-109.39 322.02,-109.26 316.88,-107.69 320.5,-106 320.5,-106 320.5,-106 316.88,-107.69 318.98,-102.74 313.25,-109.39 313.25,-109.39"/>
<ellipse fill="none" stroke="black" cx="310.35" cy="-110.74" rx="3.2" ry="3.2"/>
</g>
<!-- stretchy_parameter -->
<g id="node10" class="node">
<title>stretchy_parameter</title>
<g id="a_node10"><a xlink:href="../../tables/stretchy_parameter.html" xlink:title="stretchy_parameter" target="_top">
<polygon fill="#ffffff" stroke="transparent" points="62,-50 62,-108 209,-108 209,-50 62,-50"/>
<polygon fill="#f5f5f5" stroke="transparent" points="62.5,-86 62.5,-108 209.5,-108 209.5,-86 62.5,-86"/>
<polygon fill="none" stroke="black" points="62.5,-86 62.5,-108 209.5,-108 209.5,-86 62.5,-86"/>
<text text-anchor="start" x="67.5" y="-95.2" font-family="Helvetica,sans-Serif" font-weight="bold" font-size="11.00">stretchy_parameter</text>
<text text-anchor="start" x="174.5" y="-94.2" font-family="Helvetica,sans-Serif" font-size="11.00">[table]</text>
<polygon fill="none" stroke="black" points="62.5,-68 62.5,-86 209.5,-86 209.5,-68 62.5,-68"/>
<text text-anchor="start" x="65.5" y="-74.2" font-family="Helvetica,sans-Serif" font-size="11.00">...</text>
<polygon fill="#ffffff" stroke="transparent" points="62.5,-50 62.5,-68 116.5,-68 116.5,-50 62.5,-50"/>
<polygon fill="none" stroke="black" points="62.5,-50 62.5,-68 116.5,-68 116.5,-50 62.5,-50"/>
<text text-anchor="start" x="65.5" y="-56.2" font-family="Helvetica,sans-Serif" font-size="11.00">&lt; 1</text>
<polygon fill="#ffffff" stroke="transparent" points="116.5,-50 116.5,-68 171.5,-68 171.5,-50 116.5,-50"/>
<polygon fill="none" stroke="black" points="116.5,-50 116.5,-68 171.5,-68 171.5,-50 116.5,-50"/>
<text text-anchor="start" x="135.5" y="-56.2" font-family="Helvetica,sans-Serif" font-size="11.00">0 rows</text>
<polygon fill="#ffffff" stroke="transparent" points="171.5,-50 171.5,-68 209.5,-68 209.5,-50 171.5,-50"/>
<polygon fill="none" stroke="black" points="171.5,-50 171.5,-68 209.5,-68 209.5,-50 171.5,-50"/>
<text text-anchor="start" x="190.5" y="-56.2" font-family="Helvetica,sans-Serif" font-size="11.00">2 &gt;</text>
</a>
</g>
</g>
<!-- stretchy_report_parameter&#45;&gt;stretchy_parameter -->
<g id="edge10" class="edge">
<title>stretchy_report_parameter:w&#45;&gt;stretchy_parameter:e</title>
<path fill="none" stroke="black" d="M305.66,-83.77C268.44,-82.55 254.13,-77 210.5,-77"/>
<polygon fill="black" stroke="black" points="312.5,-83.87 320.44,-87.6 316.5,-83.94 320.5,-84 320.5,-84 320.5,-84 316.5,-83.94 320.56,-80.4 312.5,-83.87 312.5,-83.87"/>
<ellipse fill="none" stroke="black" cx="309.3" cy="-83.82" rx="3.2" ry="3.2"/>
</g>
</g>
</svg>
