<?xml version="1.0" encoding="UTF-8" standalone="no"?>
<!DOCTYPE svg PUBLIC "-//W3C//DTD SVG 1.1//EN"
 "http://www.w3.org/Graphics/SVG/1.1/DTD/svg11.dtd">
<!-- Generated by graphviz version 2.43.0 (0)
 -->
<!-- Title: oneDegreeRelationshipsDiagram Pages: 1 -->
<svg width="551pt" height="399pt"
 viewBox="0.00 0.00 551.01 399.00" xmlns="http://www.w3.org/2000/svg" xmlns:xlink="http://www.w3.org/1999/xlink">
<g id="graph0" class="graph" transform="scale(1 1) rotate(0) translate(4 395)">
<title>oneDegreeRelationshipsDiagram</title>
<polygon fill="#ffffff" stroke="transparent" points="-4,4 -4,-395 547.01,-395 547.01,4 -4,4"/>
<text text-anchor="middle" x="71.5" y="-7.2" font-family="Helvetica,sans-Serif" font-size="11.00">Generated by SchemaSpy</text>
<!-- stretchy_parameter -->
<g id="node1" class="node">
<title>stretchy_parameter</title>
<g id="a_node1"><a xlink:href="../../tables/stretchy_parameter.html" xlink:title="stretchy_parameter" target="_top">
<polygon fill="#ffffff" stroke="transparent" points="40.01,-37 40.01,-345 284.01,-345 284.01,-37 40.01,-37"/>
<polygon fill="#f5f5f5" stroke="transparent" points="42.01,-321 42.01,-343 282.01,-343 282.01,-321 42.01,-321"/>
<polygon fill="none" stroke="black" points="42.01,-321 42.01,-343 282.01,-343 282.01,-321 42.01,-321"/>
<text text-anchor="start" x="47.01" y="-330.2" font-family="Helvetica,sans-Serif" font-weight="bold" font-size="11.00">stretchy_parameter</text>
<text text-anchor="start" x="247.01" y="-329.2" font-family="Helvetica,sans-Serif" font-size="11.00">[table]</text>
<polygon fill="none" stroke="black" points="42.01,-299 42.01,-321 221.01,-321 221.01,-299 42.01,-299"/>
<image xlink:href="../../images/primaryKeys.png" width="11px" height="12px" preserveAspectRatio="xMinYMin meet" x="47.0068" y="-316"/>
<text text-anchor="start" x="62.01" y="-307.2" font-family="Helvetica,sans-Serif" font-size="11.00">id</text>
<polygon fill="none" stroke="black" points="221.01,-299 221.01,-321 282.01,-321 282.01,-299 221.01,-299"/>
<text text-anchor="start" x="224.01" y="-307.2" font-family="Helvetica,sans-Serif" font-size="11.00">int[10]</text>
<polygon fill="#ffffff" stroke="transparent" points="42.01,-277 42.01,-299 221.01,-299 221.01,-277 42.01,-277"/>
<polygon fill="none" stroke="black" points="42.01,-277 42.01,-299 221.01,-299 221.01,-277 42.01,-277"/>
<text text-anchor="start" x="62.01" y="-285.2" font-family="Helvetica,sans-Serif" font-size="11.00">parameter_name</text>
<polygon fill="none" stroke="black" points="221.01,-277 221.01,-299 282.01,-299 282.01,-277 221.01,-277"/>
<text text-anchor="start" x="224.01" y="-285.2" font-family="Helvetica,sans-Serif" font-size="11.00">varchar[45]</text>
<polygon fill="none" stroke="black" points="42.01,-255 42.01,-277 221.01,-277 221.01,-255 42.01,-255"/>
<text text-anchor="start" x="62.01" y="-263.2" font-family="Helvetica,sans-Serif" font-size="11.00">parameter_variable</text>
<polygon fill="none" stroke="black" points="221.01,-255 221.01,-277 282.01,-277 282.01,-255 221.01,-255"/>
<text text-anchor="start" x="224.01" y="-263.2" font-family="Helvetica,sans-Serif" font-size="11.00">varchar[45]</text>
<polygon fill="none" stroke="black" points="42.01,-233 42.01,-255 221.01,-255 221.01,-233 42.01,-233"/>
<text text-anchor="start" x="62.01" y="-241.2" font-family="Helvetica,sans-Serif" font-size="11.00">parameter_label</text>
<polygon fill="none" stroke="black" points="221.01,-233 221.01,-255 282.01,-255 282.01,-233 221.01,-233"/>
<text text-anchor="start" x="224.01" y="-241.2" font-family="Helvetica,sans-Serif" font-size="11.00">varchar[45]</text>
<polygon fill="none" stroke="black" points="42.01,-211 42.01,-233 221.01,-233 221.01,-211 42.01,-211"/>
<text text-anchor="start" x="62.01" y="-219.2" font-family="Helvetica,sans-Serif" font-size="11.00">parameter_displayType</text>
<polygon fill="none" stroke="black" points="221.01,-211 221.01,-233 282.01,-233 282.01,-211 221.01,-211"/>
<text text-anchor="start" x="224.01" y="-219.2" font-family="Helvetica,sans-Serif" font-size="11.00">varchar[45]</text>
<polygon fill="none" stroke="black" points="42.01,-189 42.01,-211 221.01,-211 221.01,-189 42.01,-189"/>
<text text-anchor="start" x="62.01" y="-197.2" font-family="Helvetica,sans-Serif" font-size="11.00">parameter_FormatType</text>
<polygon fill="none" stroke="black" points="221.01,-189 221.01,-211 282.01,-211 282.01,-189 221.01,-189"/>
<text text-anchor="start" x="224.01" y="-197.2" font-family="Helvetica,sans-Serif" font-size="11.00">varchar[10]</text>
<polygon fill="none" stroke="black" points="42.01,-167 42.01,-189 221.01,-189 221.01,-167 42.01,-167"/>
<text text-anchor="start" x="62.01" y="-175.2" font-family="Helvetica,sans-Serif" font-size="11.00">parameter_default</text>
<polygon fill="none" stroke="black" points="221.01,-167 221.01,-189 282.01,-189 282.01,-167 221.01,-167"/>
<text text-anchor="start" x="224.01" y="-175.2" font-family="Helvetica,sans-Serif" font-size="11.00">varchar[45]</text>
<polygon fill="none" stroke="black" points="42.01,-145 42.01,-167 221.01,-167 221.01,-145 42.01,-145"/>
<text text-anchor="start" x="62.01" y="-153.2" font-family="Helvetica,sans-Serif" font-size="11.00">special</text>
<polygon fill="none" stroke="black" points="221.01,-145 221.01,-167 282.01,-167 282.01,-145 221.01,-145"/>
<text text-anchor="start" x="224.01" y="-153.2" font-family="Helvetica,sans-Serif" font-size="11.00">varchar[1]</text>
<polygon fill="none" stroke="black" points="42.01,-123 42.01,-145 221.01,-145 221.01,-123 42.01,-123"/>
<text text-anchor="start" x="62.01" y="-131.2" font-family="Helvetica,sans-Serif" font-size="11.00">selectOne</text>
<polygon fill="none" stroke="black" points="221.01,-123 221.01,-145 282.01,-145 282.01,-123 221.01,-123"/>
<text text-anchor="start" x="224.01" y="-131.2" font-family="Helvetica,sans-Serif" font-size="11.00">varchar[1]</text>
<polygon fill="none" stroke="black" points="42.01,-101 42.01,-123 221.01,-123 221.01,-101 42.01,-101"/>
<text text-anchor="start" x="62.01" y="-109.2" font-family="Helvetica,sans-Serif" font-size="11.00">selectAll</text>
<polygon fill="none" stroke="black" points="221.01,-101 221.01,-123 282.01,-123 282.01,-101 221.01,-101"/>
<text text-anchor="start" x="224.01" y="-109.2" font-family="Helvetica,sans-Serif" font-size="11.00">varchar[1]</text>
<polygon fill="none" stroke="black" points="42.01,-79 42.01,-101 221.01,-101 221.01,-79 42.01,-79"/>
<text text-anchor="start" x="62.01" y="-87.2" font-family="Helvetica,sans-Serif" font-size="11.00">parameter_sql</text>
<polygon fill="none" stroke="black" points="221.01,-79 221.01,-101 282.01,-101 282.01,-79 221.01,-79"/>
<text text-anchor="start" x="224.01" y="-87.2" font-family="Helvetica,sans-Serif" font-size="11.00">text[65535]</text>
<polygon fill="#ffffff" stroke="transparent" points="42.01,-57 42.01,-79 221.01,-79 221.01,-57 42.01,-57"/>
<polygon fill="none" stroke="black" points="42.01,-57 42.01,-79 221.01,-79 221.01,-57 42.01,-57"/>
<image xlink:href="../../images/foreignKeys.png" width="11px" height="12px" preserveAspectRatio="xMinYMin meet" x="47.0068" y="-74"/>
<text text-anchor="start" x="62.01" y="-65.2" font-family="Helvetica,sans-Serif" font-size="11.00">parent_id</text>
<polygon fill="none" stroke="black" points="221.01,-57 221.01,-79 282.01,-79 282.01,-57 221.01,-57"/>
<text text-anchor="start" x="224.01" y="-65.2" font-family="Helvetica,sans-Serif" font-size="11.00">int[10]</text>
<polygon fill="#ffffff" stroke="transparent" points="42.01,-39 42.01,-57 123.01,-57 123.01,-39 42.01,-39"/>
<polygon fill="none" stroke="black" points="42.01,-39 42.01,-57 123.01,-57 123.01,-39 42.01,-39"/>
<text text-anchor="start" x="45.01" y="-45.2" font-family="Helvetica,sans-Serif" font-size="11.00">&lt; 1</text>
<polygon fill="#ffffff" stroke="transparent" points="123.01,-39 123.01,-57 221.01,-57 221.01,-39 123.01,-39"/>
<polygon fill="none" stroke="black" points="123.01,-39 123.01,-57 221.01,-57 221.01,-39 123.01,-39"/>
<text text-anchor="start" x="185.01" y="-45.2" font-family="Helvetica,sans-Serif" font-size="11.00">0 rows</text>
<polygon fill="#ffffff" stroke="transparent" points="221.01,-39 221.01,-57 282.01,-57 282.01,-39 221.01,-39"/>
<polygon fill="none" stroke="black" points="221.01,-39 221.01,-57 282.01,-57 282.01,-39 221.01,-39"/>
<text text-anchor="start" x="263.01" y="-45.2" font-family="Helvetica,sans-Serif" font-size="11.00">2 &gt;</text>
<polygon fill="none" stroke="black" stroke-width="2" points="41.01,-38 41.01,-344 283.01,-344 283.01,-38 41.01,-38"/>
</a>
</g>
</g>
<!-- stretchy_parameter&#45;&gt;stretchy_parameter -->
<g id="edge1" class="edge">
<title>stretchy_parameter:w&#45;&gt;stretchy_parameter:e</title>
<path fill="none" stroke="black" d="M31.83,-78.46C-25.47,-149.34 -16.08,-362 162.01,-362 350.01,-362 350.01,-353.33 282.01,-310"/>
<polygon fill="black" stroke="black" points="36.43,-73.73 44.59,-70.51 39.22,-70.87 42.01,-68 42.01,-68 42.01,-68 39.22,-70.87 39.43,-65.49 36.43,-73.73 36.43,-73.73"/>
<ellipse fill="none" stroke="black" cx="34.2" cy="-76.03" rx="3.2" ry="3.2"/>
</g>
<!-- stretchy_report_parameter -->
<g id="node2" class="node">
<title>stretchy_report_parameter</title>
<g id="a_node2"><a xlink:href="../../tables/stretchy_report_parameter.html" xlink:title="stretchy_report_parameter" target="_top">
<polygon fill="#ffffff" stroke="transparent" points="333.01,-263 333.01,-387 535.01,-387 535.01,-263 333.01,-263"/>
<polygon fill="#f5f5f5" stroke="transparent" points="333.01,-365 333.01,-387 535.01,-387 535.01,-365 333.01,-365"/>
<polygon fill="none" stroke="black" points="333.01,-365 333.01,-387 535.01,-387 535.01,-365 333.01,-365"/>
<text text-anchor="start" x="338.01" y="-374.2" font-family="Helvetica,sans-Serif" font-weight="bold" font-size="11.00">stretchy_report_parameter</text>
<text text-anchor="start" x="500.01" y="-373.2" font-family="Helvetica,sans-Serif" font-size="11.00">[table]</text>
<polygon fill="none" stroke="black" points="333.01,-343 333.01,-365 535.01,-365 535.01,-343 333.01,-343"/>
<image xlink:href="../../images/primaryKeys.png" width="11px" height="12px" preserveAspectRatio="xMinYMin meet" x="338.007" y="-360"/>
<text text-anchor="start" x="353.01" y="-351.2" font-family="Helvetica,sans-Serif" font-size="11.00">id</text>
<polygon fill="#ffffff" stroke="transparent" points="333.01,-321 333.01,-343 535.01,-343 535.01,-321 333.01,-321"/>
<polygon fill="none" stroke="black" points="333.01,-321 333.01,-343 535.01,-343 535.01,-321 333.01,-321"/>
<image xlink:href="../../images/foreignKeys.png" width="11px" height="12px" preserveAspectRatio="xMinYMin meet" x="338.007" y="-338"/>
<text text-anchor="start" x="353.01" y="-329.2" font-family="Helvetica,sans-Serif" font-size="11.00">report_id</text>
<polygon fill="#ffffff" stroke="transparent" points="333.01,-299 333.01,-321 535.01,-321 535.01,-299 333.01,-299"/>
<polygon fill="none" stroke="black" points="333.01,-299 333.01,-321 535.01,-321 535.01,-299 333.01,-299"/>
<image xlink:href="../../images/foreignKeys.png" width="11px" height="12px" preserveAspectRatio="xMinYMin meet" x="338.007" y="-316"/>
<text text-anchor="start" x="353.01" y="-307.2" font-family="Helvetica,sans-Serif" font-size="11.00">parameter_id</text>
<polygon fill="none" stroke="black" points="333.01,-281 333.01,-299 535.01,-299 535.01,-281 333.01,-281"/>
<text text-anchor="start" x="336.01" y="-287.2" font-family="Helvetica,sans-Serif" font-size="11.00">...</text>
<polygon fill="#ffffff" stroke="transparent" points="333.01,-263 333.01,-281 419.01,-281 419.01,-263 333.01,-263"/>
<polygon fill="none" stroke="black" points="333.01,-263 333.01,-281 419.01,-281 419.01,-263 333.01,-263"/>
<text text-anchor="start" x="336.01" y="-269.2" font-family="Helvetica,sans-Serif" font-size="11.00">&lt; 2</text>
<polygon fill="#ffffff" stroke="transparent" points="419.01,-263 419.01,-281 490.01,-281 490.01,-263 419.01,-263"/>
<polygon fill="none" stroke="black" points="419.01,-263 419.01,-281 490.01,-281 490.01,-263 419.01,-263"/>
<text text-anchor="start" x="454.01" y="-269.2" font-family="Helvetica,sans-Serif" font-size="11.00">0 rows</text>
<polygon fill="#ffffff" stroke="transparent" points="490.01,-263 490.01,-281 535.01,-281 535.01,-263 490.01,-263"/>
<polygon fill="none" stroke="black" points="490.01,-263 490.01,-281 535.01,-281 535.01,-263 490.01,-263"/>
<text text-anchor="start" x="525.01" y="-269.2" font-family="Helvetica,sans-Serif" font-size="11.00"> &#160;</text>
</a>
</g>
</g>
<!-- stretchy_report_parameter&#45;&gt;stretchy_parameter -->
<g id="edge2" class="edge">
<title>stretchy_report_parameter:w&#45;&gt;stretchy_parameter:e</title>
<path fill="none" stroke="black" d="M317.5,-310C306.18,-310 299,-310 283.01,-310"/>
<polygon fill="black" stroke="black" points="324.01,-310 332.01,-313.6 328.01,-310 332.01,-310 332.01,-310 332.01,-310 328.01,-310 332.01,-306.4 324.01,-310 324.01,-310"/>
<ellipse fill="none" stroke="black" cx="320.81" cy="-310" rx="3.2" ry="3.2"/>
</g>
</g>
</svg>
