<?xml version="1.0" encoding="UTF-8" standalone="no"?>
<!DOCTYPE svg PUBLIC "-//W3C//DTD SVG 1.1//EN"
 "http://www.w3.org/Graphics/SVG/1.1/DTD/svg11.dtd">
<!-- Generated by graphviz version 2.43.0 (0)
 -->
<!-- Title: oneDegreeRelationshipsDiagram Pages: 1 -->
<svg width="398pt" height="245pt"
 viewBox="0.00 0.00 398.00 245.00" xmlns="http://www.w3.org/2000/svg" xmlns:xlink="http://www.w3.org/1999/xlink">
<g id="graph0" class="graph" transform="scale(1 1) rotate(0) translate(4 241)">
<title>oneDegreeRelationshipsDiagram</title>
<polygon fill="#ffffff" stroke="transparent" points="-4,4 -4,-241 394,-241 394,4 -4,4"/>
<text text-anchor="middle" x="71.5" y="-7.2" font-family="Helvetica,sans-Serif" font-size="11.00">Generated by SchemaSpy</text>
<!-- topic_subscriber -->
<g id="node1" class="node">
<title>topic_subscriber</title>
<g id="a_node1"><a xlink:href="../../tables/topic_subscriber.html" xlink:title="topic_subscriber" target="_top">
<polygon fill="#ffffff" stroke="transparent" points="241,-109 241,-233 382,-233 382,-109 241,-109"/>
<polygon fill="#f5f5f5" stroke="transparent" points="241.5,-211 241.5,-233 382.5,-233 382.5,-211 241.5,-211"/>
<polygon fill="none" stroke="black" points="241.5,-211 241.5,-233 382.5,-233 382.5,-211 241.5,-211"/>
<text text-anchor="start" x="246.5" y="-220.2" font-family="Helvetica,sans-Serif" font-weight="bold" font-size="11.00">topic_subscriber</text>
<text text-anchor="start" x="347.5" y="-219.2" font-family="Helvetica,sans-Serif" font-size="11.00">[table]</text>
<polygon fill="none" stroke="black" points="241.5,-189 241.5,-211 382.5,-211 382.5,-189 241.5,-189"/>
<image xlink:href="../../images/primaryKeys.png" width="11px" height="12px" preserveAspectRatio="xMinYMin meet" x="246.5" y="-206"/>
<text text-anchor="start" x="261.5" y="-197.2" font-family="Helvetica,sans-Serif" font-size="11.00">id</text>
<polygon fill="#ffffff" stroke="transparent" points="241.5,-167 241.5,-189 382.5,-189 382.5,-167 241.5,-167"/>
<polygon fill="none" stroke="black" points="241.5,-167 241.5,-189 382.5,-189 382.5,-167 241.5,-167"/>
<image xlink:href="../../images/foreignKeys.png" width="11px" height="12px" preserveAspectRatio="xMinYMin meet" x="246.5" y="-184"/>
<text text-anchor="start" x="261.5" y="-175.2" font-family="Helvetica,sans-Serif" font-size="11.00">topic_id</text>
<polygon fill="#ffffff" stroke="transparent" points="241.5,-145 241.5,-167 382.5,-167 382.5,-145 241.5,-145"/>
<polygon fill="none" stroke="black" points="241.5,-145 241.5,-167 382.5,-167 382.5,-145 241.5,-145"/>
<image xlink:href="../../images/foreignKeys.png" width="11px" height="12px" preserveAspectRatio="xMinYMin meet" x="246.5" y="-162"/>
<text text-anchor="start" x="261.5" y="-153.2" font-family="Helvetica,sans-Serif" font-size="11.00">user_id</text>
<polygon fill="none" stroke="black" points="241.5,-127 241.5,-145 382.5,-145 382.5,-127 241.5,-127"/>
<text text-anchor="start" x="244.5" y="-133.2" font-family="Helvetica,sans-Serif" font-size="11.00">...</text>
<polygon fill="#ffffff" stroke="transparent" points="241.5,-109 241.5,-127 296.5,-127 296.5,-109 241.5,-109"/>
<polygon fill="none" stroke="black" points="241.5,-109 241.5,-127 296.5,-127 296.5,-109 241.5,-109"/>
<text text-anchor="start" x="244.5" y="-115.2" font-family="Helvetica,sans-Serif" font-size="11.00">&lt; 2</text>
<polygon fill="#ffffff" stroke="transparent" points="296.5,-109 296.5,-127 352.5,-127 352.5,-109 296.5,-109"/>
<polygon fill="none" stroke="black" points="296.5,-109 296.5,-127 352.5,-127 352.5,-109 296.5,-109"/>
<text text-anchor="start" x="316.5" y="-115.2" font-family="Helvetica,sans-Serif" font-size="11.00">0 rows</text>
<polygon fill="#ffffff" stroke="transparent" points="352.5,-109 352.5,-127 382.5,-127 382.5,-109 352.5,-109"/>
<polygon fill="none" stroke="black" points="352.5,-109 352.5,-127 382.5,-127 382.5,-109 352.5,-109"/>
<text text-anchor="start" x="372.5" y="-115.2" font-family="Helvetica,sans-Serif" font-size="11.00"> &#160;</text>
</a>
</g>
</g>
<!-- topic -->
<g id="node2" class="node">
<title>topic</title>
<g id="a_node2"><a xlink:href="../../tables/topic.html" xlink:title="topic" target="_top">
<polygon fill="#ffffff" stroke="transparent" points="8,-37 8,-213 192,-213 192,-37 8,-37"/>
<polygon fill="#f5f5f5" stroke="transparent" points="10,-189 10,-211 190,-211 190,-189 10,-189"/>
<polygon fill="none" stroke="black" points="10,-189 10,-211 190,-211 190,-189 10,-189"/>
<text text-anchor="start" x="15" y="-198.2" font-family="Helvetica,sans-Serif" font-weight="bold" font-size="11.00">topic</text>
<text text-anchor="start" x="155" y="-197.2" font-family="Helvetica,sans-Serif" font-size="11.00">[table]</text>
<polygon fill="none" stroke="black" points="10,-167 10,-189 123,-189 123,-167 10,-167"/>
<image xlink:href="../../images/primaryKeys.png" width="11px" height="12px" preserveAspectRatio="xMinYMin meet" x="15" y="-184"/>
<text text-anchor="start" x="30" y="-175.2" font-family="Helvetica,sans-Serif" font-size="11.00">id</text>
<polygon fill="none" stroke="black" points="123,-167 123,-189 190,-189 190,-167 123,-167"/>
<text text-anchor="start" x="126" y="-175.2" font-family="Helvetica,sans-Serif" font-size="11.00">bigint[19]</text>
<polygon fill="#ffffff" stroke="transparent" points="10,-145 10,-167 123,-167 123,-145 10,-145"/>
<polygon fill="none" stroke="black" points="10,-145 10,-167 123,-167 123,-145 10,-145"/>
<text text-anchor="start" x="30" y="-153.2" font-family="Helvetica,sans-Serif" font-size="11.00">title</text>
<polygon fill="none" stroke="black" points="123,-145 123,-167 190,-167 190,-145 123,-145"/>
<text text-anchor="start" x="126" y="-153.2" font-family="Helvetica,sans-Serif" font-size="11.00">varchar[100]</text>
<polygon fill="none" stroke="black" points="10,-123 10,-145 123,-145 123,-123 10,-123"/>
<text text-anchor="start" x="30" y="-131.2" font-family="Helvetica,sans-Serif" font-size="11.00">enabled</text>
<polygon fill="none" stroke="black" points="123,-123 123,-145 190,-145 190,-123 123,-123"/>
<text text-anchor="start" x="126" y="-131.2" font-family="Helvetica,sans-Serif" font-size="11.00">bit[1]</text>
<polygon fill="none" stroke="black" points="10,-101 10,-123 123,-123 123,-101 10,-101"/>
<text text-anchor="start" x="30" y="-109.2" font-family="Helvetica,sans-Serif" font-size="11.00">entity_id</text>
<polygon fill="none" stroke="black" points="123,-101 123,-123 190,-123 190,-101 123,-101"/>
<text text-anchor="start" x="126" y="-109.2" font-family="Helvetica,sans-Serif" font-size="11.00">bigint[19]</text>
<polygon fill="none" stroke="black" points="10,-79 10,-101 123,-101 123,-79 10,-79"/>
<text text-anchor="start" x="30" y="-87.2" font-family="Helvetica,sans-Serif" font-size="11.00">entity_type</text>
<polygon fill="none" stroke="black" points="123,-79 123,-101 190,-101 190,-79 123,-79"/>
<text text-anchor="start" x="126" y="-87.2" font-family="Helvetica,sans-Serif" font-size="11.00">text[65535]</text>
<polygon fill="none" stroke="black" points="10,-57 10,-79 123,-79 123,-57 10,-57"/>
<text text-anchor="start" x="30" y="-65.2" font-family="Helvetica,sans-Serif" font-size="11.00">member_type</text>
<polygon fill="none" stroke="black" points="123,-57 123,-79 190,-79 190,-57 123,-57"/>
<text text-anchor="start" x="126" y="-65.2" font-family="Helvetica,sans-Serif" font-size="11.00">text[65535]</text>
<polygon fill="#ffffff" stroke="transparent" points="10,-39 10,-57 58,-57 58,-39 10,-39"/>
<polygon fill="none" stroke="black" points="10,-39 10,-57 58,-57 58,-39 10,-39"/>
<text text-anchor="start" x="13" y="-45.2" font-family="Helvetica,sans-Serif" font-size="11.00">&lt; 0</text>
<polygon fill="#ffffff" stroke="transparent" points="58,-39 58,-57 123,-57 123,-39 58,-39"/>
<polygon fill="none" stroke="black" points="58,-39 58,-57 123,-57 123,-39 58,-39"/>
<text text-anchor="start" x="87" y="-45.2" font-family="Helvetica,sans-Serif" font-size="11.00">0 rows</text>
<polygon fill="#ffffff" stroke="transparent" points="123,-39 123,-57 190,-57 190,-39 123,-39"/>
<polygon fill="none" stroke="black" points="123,-39 123,-57 190,-57 190,-39 123,-39"/>
<text text-anchor="start" x="171" y="-45.2" font-family="Helvetica,sans-Serif" font-size="11.00">1 &gt;</text>
<polygon fill="none" stroke="black" stroke-width="2" points="9,-38 9,-212 191,-212 191,-38 9,-38"/>
</a>
</g>
</g>
<!-- topic_subscriber&#45;&gt;topic -->
<g id="edge1" class="edge">
<title>topic_subscriber:w&#45;&gt;topic:e</title>
<path fill="none" stroke="black" d="M225.84,-178C214.41,-178 207.16,-178 191,-178"/>
<polygon fill="black" stroke="black" points="232.5,-178 240.5,-181.6 236.5,-178 240.5,-178 240.5,-178 240.5,-178 236.5,-178 240.5,-174.4 232.5,-178 232.5,-178"/>
<ellipse fill="none" stroke="black" cx="229.3" cy="-178" rx="3.2" ry="3.2"/>
</g>
</g>
</svg>
