<?xml version="1.0" encoding="UTF-8" standalone="no"?>
<!DOCTYPE svg PUBLIC "-//W3C//DTD SVG 1.1//EN"
 "http://www.w3.org/Graphics/SVG/1.1/DTD/svg11.dtd">
<!-- Generated by graphviz version 2.43.0 (0)
 -->
<!-- Title: twoDegreesRelationshipsDiagram Pages: 1 -->
<svg width="398pt" height="304pt"
 viewBox="0.00 0.00 398.00 304.00" xmlns="http://www.w3.org/2000/svg" xmlns:xlink="http://www.w3.org/1999/xlink">
<g id="graph0" class="graph" transform="scale(1 1) rotate(0) translate(4 300)">
<title>twoDegreesRelationshipsDiagram</title>
<polygon fill="#ffffff" stroke="transparent" points="-4,4 -4,-300 394,-300 394,4 -4,4"/>
<text text-anchor="middle" x="71.5" y="-7.2" font-family="Helvetica,sans-Serif" font-size="11.00">Generated by SchemaSpy</text>
<!-- topic_subscriber -->
<g id="node1" class="node">
<title>topic_subscriber</title>
<g id="a_node1"><a xlink:href="../../tables/topic_subscriber.html" xlink:title="topic_subscriber" target="_top">
<polygon fill="#ffffff" stroke="transparent" points="241,-102 241,-226 382,-226 382,-102 241,-102"/>
<polygon fill="#f5f5f5" stroke="transparent" points="241.5,-204 241.5,-226 382.5,-226 382.5,-204 241.5,-204"/>
<polygon fill="none" stroke="black" points="241.5,-204 241.5,-226 382.5,-226 382.5,-204 241.5,-204"/>
<text text-anchor="start" x="246.5" y="-213.2" font-family="Helvetica,sans-Serif" font-weight="bold" font-size="11.00">topic_subscriber</text>
<text text-anchor="start" x="347.5" y="-212.2" font-family="Helvetica,sans-Serif" font-size="11.00">[table]</text>
<polygon fill="none" stroke="black" points="241.5,-182 241.5,-204 382.5,-204 382.5,-182 241.5,-182"/>
<image xlink:href="../../images/primaryKeys.png" width="11px" height="12px" preserveAspectRatio="xMinYMin meet" x="246.5" y="-199"/>
<text text-anchor="start" x="261.5" y="-190.2" font-family="Helvetica,sans-Serif" font-size="11.00">id</text>
<polygon fill="#ffffff" stroke="transparent" points="241.5,-160 241.5,-182 382.5,-182 382.5,-160 241.5,-160"/>
<polygon fill="none" stroke="black" points="241.5,-160 241.5,-182 382.5,-182 382.5,-160 241.5,-160"/>
<image xlink:href="../../images/foreignKeys.png" width="11px" height="12px" preserveAspectRatio="xMinYMin meet" x="246.5" y="-177"/>
<text text-anchor="start" x="261.5" y="-168.2" font-family="Helvetica,sans-Serif" font-size="11.00">topic_id</text>
<polygon fill="#ffffff" stroke="transparent" points="241.5,-138 241.5,-160 382.5,-160 382.5,-138 241.5,-138"/>
<polygon fill="none" stroke="black" points="241.5,-138 241.5,-160 382.5,-160 382.5,-138 241.5,-138"/>
<image xlink:href="../../images/foreignKeys.png" width="11px" height="12px" preserveAspectRatio="xMinYMin meet" x="246.5" y="-155"/>
<text text-anchor="start" x="261.5" y="-146.2" font-family="Helvetica,sans-Serif" font-size="11.00">user_id</text>
<polygon fill="none" stroke="black" points="241.5,-120 241.5,-138 382.5,-138 382.5,-120 241.5,-120"/>
<text text-anchor="start" x="244.5" y="-126.2" font-family="Helvetica,sans-Serif" font-size="11.00">...</text>
<polygon fill="#ffffff" stroke="transparent" points="241.5,-102 241.5,-120 296.5,-120 296.5,-102 241.5,-102"/>
<polygon fill="none" stroke="black" points="241.5,-102 241.5,-120 296.5,-120 296.5,-102 241.5,-102"/>
<text text-anchor="start" x="244.5" y="-108.2" font-family="Helvetica,sans-Serif" font-size="11.00">&lt; 2</text>
<polygon fill="#ffffff" stroke="transparent" points="296.5,-102 296.5,-120 352.5,-120 352.5,-102 296.5,-102"/>
<polygon fill="none" stroke="black" points="296.5,-102 296.5,-120 352.5,-120 352.5,-102 296.5,-102"/>
<text text-anchor="start" x="316.5" y="-108.2" font-family="Helvetica,sans-Serif" font-size="11.00">0 rows</text>
<polygon fill="#ffffff" stroke="transparent" points="352.5,-102 352.5,-120 382.5,-120 382.5,-102 352.5,-102"/>
<polygon fill="none" stroke="black" points="352.5,-102 352.5,-120 382.5,-120 382.5,-102 352.5,-102"/>
<text text-anchor="start" x="372.5" y="-108.2" font-family="Helvetica,sans-Serif" font-size="11.00"> &#160;</text>
</a>
</g>
</g>
<!-- topic -->
<g id="node2" class="node">
<title>topic</title>
<g id="a_node2"><a xlink:href="../../tables/topic.html" xlink:title="topic" target="_top">
<polygon fill="#ffffff" stroke="transparent" points="8,-116 8,-292 192,-292 192,-116 8,-116"/>
<polygon fill="#f5f5f5" stroke="transparent" points="10,-268 10,-290 190,-290 190,-268 10,-268"/>
<polygon fill="none" stroke="black" points="10,-268 10,-290 190,-290 190,-268 10,-268"/>
<text text-anchor="start" x="15" y="-277.2" font-family="Helvetica,sans-Serif" font-weight="bold" font-size="11.00">topic</text>
<text text-anchor="start" x="155" y="-276.2" font-family="Helvetica,sans-Serif" font-size="11.00">[table]</text>
<polygon fill="none" stroke="black" points="10,-246 10,-268 123,-268 123,-246 10,-246"/>
<image xlink:href="../../images/primaryKeys.png" width="11px" height="12px" preserveAspectRatio="xMinYMin meet" x="15" y="-263"/>
<text text-anchor="start" x="30" y="-254.2" font-family="Helvetica,sans-Serif" font-size="11.00">id</text>
<polygon fill="none" stroke="black" points="123,-246 123,-268 190,-268 190,-246 123,-246"/>
<text text-anchor="start" x="126" y="-254.2" font-family="Helvetica,sans-Serif" font-size="11.00">bigint[19]</text>
<polygon fill="#ffffff" stroke="transparent" points="10,-224 10,-246 123,-246 123,-224 10,-224"/>
<polygon fill="none" stroke="black" points="10,-224 10,-246 123,-246 123,-224 10,-224"/>
<text text-anchor="start" x="30" y="-232.2" font-family="Helvetica,sans-Serif" font-size="11.00">title</text>
<polygon fill="none" stroke="black" points="123,-224 123,-246 190,-246 190,-224 123,-224"/>
<text text-anchor="start" x="126" y="-232.2" font-family="Helvetica,sans-Serif" font-size="11.00">varchar[100]</text>
<polygon fill="none" stroke="black" points="10,-202 10,-224 123,-224 123,-202 10,-202"/>
<text text-anchor="start" x="30" y="-210.2" font-family="Helvetica,sans-Serif" font-size="11.00">enabled</text>
<polygon fill="none" stroke="black" points="123,-202 123,-224 190,-224 190,-202 123,-202"/>
<text text-anchor="start" x="126" y="-210.2" font-family="Helvetica,sans-Serif" font-size="11.00">bit[1]</text>
<polygon fill="none" stroke="black" points="10,-180 10,-202 123,-202 123,-180 10,-180"/>
<text text-anchor="start" x="30" y="-188.2" font-family="Helvetica,sans-Serif" font-size="11.00">entity_id</text>
<polygon fill="none" stroke="black" points="123,-180 123,-202 190,-202 190,-180 123,-180"/>
<text text-anchor="start" x="126" y="-188.2" font-family="Helvetica,sans-Serif" font-size="11.00">bigint[19]</text>
<polygon fill="none" stroke="black" points="10,-158 10,-180 123,-180 123,-158 10,-158"/>
<text text-anchor="start" x="30" y="-166.2" font-family="Helvetica,sans-Serif" font-size="11.00">entity_type</text>
<polygon fill="none" stroke="black" points="123,-158 123,-180 190,-180 190,-158 123,-158"/>
<text text-anchor="start" x="126" y="-166.2" font-family="Helvetica,sans-Serif" font-size="11.00">text[65535]</text>
<polygon fill="none" stroke="black" points="10,-136 10,-158 123,-158 123,-136 10,-136"/>
<text text-anchor="start" x="30" y="-144.2" font-family="Helvetica,sans-Serif" font-size="11.00">member_type</text>
<polygon fill="none" stroke="black" points="123,-136 123,-158 190,-158 190,-136 123,-136"/>
<text text-anchor="start" x="126" y="-144.2" font-family="Helvetica,sans-Serif" font-size="11.00">text[65535]</text>
<polygon fill="#ffffff" stroke="transparent" points="10,-118 10,-136 58,-136 58,-118 10,-118"/>
<polygon fill="none" stroke="black" points="10,-118 10,-136 58,-136 58,-118 10,-118"/>
<text text-anchor="start" x="13" y="-124.2" font-family="Helvetica,sans-Serif" font-size="11.00">&lt; 0</text>
<polygon fill="#ffffff" stroke="transparent" points="58,-118 58,-136 123,-136 123,-118 58,-118"/>
<polygon fill="none" stroke="black" points="58,-118 58,-136 123,-136 123,-118 58,-118"/>
<text text-anchor="start" x="87" y="-124.2" font-family="Helvetica,sans-Serif" font-size="11.00">0 rows</text>
<polygon fill="#ffffff" stroke="transparent" points="123,-118 123,-136 190,-136 190,-118 123,-118"/>
<polygon fill="none" stroke="black" points="123,-118 123,-136 190,-136 190,-118 123,-118"/>
<text text-anchor="start" x="171" y="-124.2" font-family="Helvetica,sans-Serif" font-size="11.00">1 &gt;</text>
<polygon fill="none" stroke="black" stroke-width="2" points="9,-117 9,-291 191,-291 191,-117 9,-117"/>
</a>
</g>
</g>
<!-- topic_subscriber&#45;&gt;topic -->
<g id="edge1" class="edge">
<title>topic_subscriber:w&#45;&gt;topic:e</title>
<path fill="none" stroke="black" d="M226.63,-175.38C205.43,-192.91 229.07,-257 191,-257"/>
<polygon fill="black" stroke="black" points="232.87,-173.41 241.58,-174.43 236.69,-172.21 240.5,-171 240.5,-171 240.5,-171 236.69,-172.21 239.42,-167.57 232.87,-173.41 232.87,-173.41"/>
<ellipse fill="none" stroke="black" cx="229.82" cy="-174.38" rx="3.2" ry="3.2"/>
</g>
<!-- m_appuser -->
<g id="node3" class="node">
<title>m_appuser</title>
<g id="a_node3"><a xlink:href="../../tables/m_appuser.html" xlink:title="m_appuser" target="_top">
<polygon fill="#ffffff" stroke="transparent" points="48.5,-37 48.5,-95 151.5,-95 151.5,-37 48.5,-37"/>
<polygon fill="#f5f5f5" stroke="transparent" points="49,-73 49,-95 152,-95 152,-73 49,-73"/>
<polygon fill="none" stroke="black" points="49,-73 49,-95 152,-95 152,-73 49,-73"/>
<text text-anchor="start" x="54" y="-82.2" font-family="Helvetica,sans-Serif" font-weight="bold" font-size="11.00">m_appuser</text>
<text text-anchor="start" x="117" y="-81.2" font-family="Helvetica,sans-Serif" font-size="11.00">[table]</text>
<polygon fill="none" stroke="black" points="49,-55 49,-73 152,-73 152,-55 49,-55"/>
<text text-anchor="start" x="52" y="-61.2" font-family="Helvetica,sans-Serif" font-size="11.00">...</text>
<polygon fill="#ffffff" stroke="transparent" points="49,-37 49,-55 78,-55 78,-37 49,-37"/>
<polygon fill="none" stroke="black" points="49,-37 49,-55 78,-55 78,-37 49,-37"/>
<text text-anchor="start" x="52" y="-43.2" font-family="Helvetica,sans-Serif" font-size="11.00">&lt; 2</text>
<polygon fill="#ffffff" stroke="transparent" points="78,-37 78,-55 120,-55 120,-37 78,-37"/>
<polygon fill="none" stroke="black" points="78,-37 78,-55 120,-55 120,-37 78,-37"/>
<text text-anchor="start" x="84" y="-43.2" font-family="Helvetica,sans-Serif" font-size="11.00">0 rows</text>
<polygon fill="#ffffff" stroke="transparent" points="120,-37 120,-55 152,-55 152,-37 120,-37"/>
<polygon fill="none" stroke="black" points="120,-37 120,-55 152,-55 152,-37 120,-37"/>
<text text-anchor="start" x="127" y="-43.2" font-family="Helvetica,sans-Serif" font-size="11.00">57 &gt;</text>
</a>
</g>
</g>
<!-- topic_subscriber&#45;&gt;m_appuser -->
<g id="edge2" class="edge">
<title>topic_subscriber:w&#45;&gt;m_appuser:e</title>
<path fill="none" stroke="black" d="M226.42,-145.33C215.1,-137.78 214.4,-120.03 200,-106 179.93,-86.45 181.01,-64 153,-64"/>
<polygon fill="black" stroke="black" points="232.76,-146.98 239.59,-152.48 236.63,-147.99 240.5,-149 240.5,-149 240.5,-149 236.63,-147.99 241.41,-145.52 232.76,-146.98 232.76,-146.98"/>
<ellipse fill="none" stroke="black" cx="229.66" cy="-146.18" rx="3.2" ry="3.2"/>
</g>
</g>
</svg>
