<?xml version="1.0" encoding="UTF-8" standalone="no"?>
<!DOCTYPE svg PUBLIC "-//W3C//DTD SVG 1.1//EN"
 "http://www.w3.org/Graphics/SVG/1.1/DTD/svg11.dtd">
<!-- Generated by graphviz version 2.43.0 (0)
 -->
<!-- Title: oneDegreeRelationshipsDiagram Pages: 1 -->
<svg width="483pt" height="340pt"
 viewBox="0.00 0.00 483.00 340.00" xmlns="http://www.w3.org/2000/svg" xmlns:xlink="http://www.w3.org/1999/xlink">
<g id="graph0" class="graph" transform="scale(1 1) rotate(0) translate(4 336)">
<title>oneDegreeRelationshipsDiagram</title>
<polygon fill="#ffffff" stroke="transparent" points="-4,4 -4,-336 479,-336 479,4 -4,4"/>
<text text-anchor="middle" x="71.5" y="-7.2" font-family="Helvetica,sans-Serif" font-size="11.00">Generated by SchemaSpy</text>
<!-- topic_subscriber -->
<g id="node1" class="node">
<title>topic_subscriber</title>
<g id="a_node1"><a xlink:href="../../tables/topic_subscriber.html" xlink:title="topic_subscriber" target="_top">
<polygon fill="#ffffff" stroke="transparent" points="272,-169 272,-301 467,-301 467,-169 272,-169"/>
<polygon fill="#f5f5f5" stroke="transparent" points="274.5,-277 274.5,-299 465.5,-299 465.5,-277 274.5,-277"/>
<polygon fill="none" stroke="black" points="274.5,-277 274.5,-299 465.5,-299 465.5,-277 274.5,-277"/>
<text text-anchor="start" x="279.5" y="-286.2" font-family="Helvetica,sans-Serif" font-weight="bold" font-size="11.00">topic_subscriber</text>
<text text-anchor="start" x="430.5" y="-285.2" font-family="Helvetica,sans-Serif" font-size="11.00">[table]</text>
<polygon fill="none" stroke="black" points="274.5,-255 274.5,-277 415.5,-277 415.5,-255 274.5,-255"/>
<image xlink:href="../../images/primaryKeys.png" width="11px" height="12px" preserveAspectRatio="xMinYMin meet" x="279.5" y="-272"/>
<text text-anchor="start" x="294.5" y="-263.2" font-family="Helvetica,sans-Serif" font-size="11.00">id</text>
<polygon fill="none" stroke="black" points="415.5,-255 415.5,-277 465.5,-277 465.5,-255 415.5,-255"/>
<text text-anchor="start" x="418.5" y="-263.2" font-family="Helvetica,sans-Serif" font-size="11.00">bigint[19]</text>
<polygon fill="#ffffff" stroke="transparent" points="274.5,-233 274.5,-255 415.5,-255 415.5,-233 274.5,-233"/>
<polygon fill="none" stroke="black" points="274.5,-233 274.5,-255 415.5,-255 415.5,-233 274.5,-233"/>
<image xlink:href="../../images/foreignKeys.png" width="11px" height="12px" preserveAspectRatio="xMinYMin meet" x="279.5" y="-250"/>
<text text-anchor="start" x="294.5" y="-241.2" font-family="Helvetica,sans-Serif" font-size="11.00">topic_id</text>
<polygon fill="none" stroke="black" points="415.5,-233 415.5,-255 465.5,-255 465.5,-233 415.5,-233"/>
<text text-anchor="start" x="418.5" y="-241.2" font-family="Helvetica,sans-Serif" font-size="11.00">bigint[19]</text>
<polygon fill="#ffffff" stroke="transparent" points="274.5,-211 274.5,-233 415.5,-233 415.5,-211 274.5,-211"/>
<polygon fill="none" stroke="black" points="274.5,-211 274.5,-233 415.5,-233 415.5,-211 274.5,-211"/>
<image xlink:href="../../images/foreignKeys.png" width="11px" height="12px" preserveAspectRatio="xMinYMin meet" x="279.5" y="-228"/>
<text text-anchor="start" x="294.5" y="-219.2" font-family="Helvetica,sans-Serif" font-size="11.00">user_id</text>
<polygon fill="none" stroke="black" points="415.5,-211 415.5,-233 465.5,-233 465.5,-211 415.5,-211"/>
<text text-anchor="start" x="418.5" y="-219.2" font-family="Helvetica,sans-Serif" font-size="11.00">bigint[19]</text>
<polygon fill="none" stroke="black" points="274.5,-189 274.5,-211 415.5,-211 415.5,-189 274.5,-189"/>
<text text-anchor="start" x="294.5" y="-197.2" font-family="Helvetica,sans-Serif" font-size="11.00">subscription_date</text>
<polygon fill="none" stroke="black" points="415.5,-189 415.5,-211 465.5,-211 465.5,-189 415.5,-189"/>
<text text-anchor="start" x="418.5" y="-197.2" font-family="Helvetica,sans-Serif" font-size="11.00">date[10]</text>
<polygon fill="#ffffff" stroke="transparent" points="274.5,-171 274.5,-189 336.5,-189 336.5,-171 274.5,-171"/>
<polygon fill="none" stroke="black" points="274.5,-171 274.5,-189 336.5,-189 336.5,-171 274.5,-171"/>
<text text-anchor="start" x="277.5" y="-177.2" font-family="Helvetica,sans-Serif" font-size="11.00">&lt; 2</text>
<polygon fill="#ffffff" stroke="transparent" points="336.5,-171 336.5,-189 415.5,-189 415.5,-171 336.5,-171"/>
<polygon fill="none" stroke="black" points="336.5,-171 336.5,-189 415.5,-189 415.5,-171 336.5,-171"/>
<text text-anchor="start" x="379.5" y="-177.2" font-family="Helvetica,sans-Serif" font-size="11.00">0 rows</text>
<polygon fill="#ffffff" stroke="transparent" points="415.5,-171 415.5,-189 465.5,-189 465.5,-171 415.5,-171"/>
<polygon fill="none" stroke="black" points="415.5,-171 415.5,-189 465.5,-189 465.5,-171 415.5,-171"/>
<text text-anchor="start" x="446.5" y="-177.2" font-family="Helvetica,sans-Serif" font-size="11.00">0 &gt;</text>
<polygon fill="none" stroke="black" stroke-width="2" points="273,-170 273,-300 466,-300 466,-170 273,-170"/>
</a>
</g>
</g>
<!-- topic -->
<g id="node2" class="node">
<title>topic</title>
<g id="a_node2"><a xlink:href="../../tables/topic.html" xlink:title="topic" target="_top">
<polygon fill="#ffffff" stroke="transparent" points="59,-226 59,-328 172,-328 172,-226 59,-226"/>
<polygon fill="#f5f5f5" stroke="transparent" points="59.5,-306 59.5,-328 172.5,-328 172.5,-306 59.5,-306"/>
<polygon fill="none" stroke="black" points="59.5,-306 59.5,-328 172.5,-328 172.5,-306 59.5,-306"/>
<text text-anchor="start" x="64.5" y="-315.2" font-family="Helvetica,sans-Serif" font-weight="bold" font-size="11.00">topic</text>
<text text-anchor="start" x="137.5" y="-314.2" font-family="Helvetica,sans-Serif" font-size="11.00">[table]</text>
<polygon fill="none" stroke="black" points="59.5,-284 59.5,-306 172.5,-306 172.5,-284 59.5,-284"/>
<image xlink:href="../../images/primaryKeys.png" width="11px" height="12px" preserveAspectRatio="xMinYMin meet" x="64.5" y="-301"/>
<text text-anchor="start" x="79.5" y="-292.2" font-family="Helvetica,sans-Serif" font-size="11.00">id</text>
<polygon fill="#ffffff" stroke="transparent" points="59.5,-262 59.5,-284 172.5,-284 172.5,-262 59.5,-262"/>
<polygon fill="none" stroke="black" points="59.5,-262 59.5,-284 172.5,-284 172.5,-262 59.5,-262"/>
<text text-anchor="start" x="79.5" y="-270.2" font-family="Helvetica,sans-Serif" font-size="11.00">title</text>
<polygon fill="none" stroke="black" points="59.5,-244 59.5,-262 172.5,-262 172.5,-244 59.5,-244"/>
<text text-anchor="start" x="62.5" y="-250.2" font-family="Helvetica,sans-Serif" font-size="11.00">...</text>
<polygon fill="#ffffff" stroke="transparent" points="59.5,-226 59.5,-244 91.5,-244 91.5,-226 59.5,-226"/>
<polygon fill="none" stroke="black" points="59.5,-226 59.5,-244 91.5,-244 91.5,-226 59.5,-226"/>
<text text-anchor="start" x="62.5" y="-232.2" font-family="Helvetica,sans-Serif" font-size="11.00"> &#160;</text>
<polygon fill="#ffffff" stroke="transparent" points="91.5,-226 91.5,-244 140.5,-244 140.5,-226 91.5,-226"/>
<polygon fill="none" stroke="black" points="91.5,-226 91.5,-244 140.5,-244 140.5,-226 91.5,-226"/>
<text text-anchor="start" x="104.5" y="-232.2" font-family="Helvetica,sans-Serif" font-size="11.00">0 rows</text>
<polygon fill="#ffffff" stroke="transparent" points="140.5,-226 140.5,-244 172.5,-244 172.5,-226 140.5,-226"/>
<polygon fill="none" stroke="black" points="140.5,-226 140.5,-244 172.5,-244 172.5,-226 140.5,-226"/>
<text text-anchor="start" x="153.5" y="-232.2" font-family="Helvetica,sans-Serif" font-size="11.00">1 &gt;</text>
</a>
</g>
</g>
<!-- topic_subscriber&#45;&gt;topic -->
<g id="edge1" class="edge">
<title>topic_subscriber:w&#45;&gt;topic:e</title>
<path fill="none" stroke="black" d="M258.78,-245.7C222.97,-254.55 217.93,-295 173.5,-295"/>
<polygon fill="black" stroke="black" points="265.55,-244.92 273.91,-247.58 269.53,-244.46 273.5,-244 273.5,-244 273.5,-244 269.53,-244.46 273.09,-240.42 265.55,-244.92 265.55,-244.92"/>
<ellipse fill="none" stroke="black" cx="262.37" cy="-245.28" rx="3.2" ry="3.2"/>
</g>
<!-- m_appuser -->
<g id="node3" class="node">
<title>m_appuser</title>
<g id="a_node3"><a xlink:href="../../tables/m_appuser.html" xlink:title="m_appuser" target="_top">
<polygon fill="#ffffff" stroke="transparent" points="8,-37 8,-205 223,-205 223,-37 8,-37"/>
<polygon fill="#f5f5f5" stroke="transparent" points="8.5,-183 8.5,-205 223.5,-205 223.5,-183 8.5,-183"/>
<polygon fill="none" stroke="black" points="8.5,-183 8.5,-205 223.5,-205 223.5,-183 8.5,-183"/>
<text text-anchor="start" x="13.5" y="-192.2" font-family="Helvetica,sans-Serif" font-weight="bold" font-size="11.00">m_appuser</text>
<text text-anchor="start" x="188.5" y="-191.2" font-family="Helvetica,sans-Serif" font-size="11.00">[table]</text>
<polygon fill="none" stroke="black" points="8.5,-161 8.5,-183 223.5,-183 223.5,-161 8.5,-161"/>
<image xlink:href="../../images/primaryKeys.png" width="11px" height="12px" preserveAspectRatio="xMinYMin meet" x="13.5" y="-178"/>
<text text-anchor="start" x="28.5" y="-169.2" font-family="Helvetica,sans-Serif" font-size="11.00">id</text>
<polygon fill="#ffffff" stroke="transparent" points="8.5,-139 8.5,-161 223.5,-161 223.5,-139 8.5,-139"/>
<polygon fill="none" stroke="black" points="8.5,-139 8.5,-161 223.5,-161 223.5,-139 8.5,-139"/>
<image xlink:href="../../images/foreignKeys.png" width="11px" height="12px" preserveAspectRatio="xMinYMin meet" x="13.5" y="-156"/>
<text text-anchor="start" x="28.5" y="-147.2" font-family="Helvetica,sans-Serif" font-size="11.00">office_id</text>
<polygon fill="#ffffff" stroke="transparent" points="8.5,-117 8.5,-139 223.5,-139 223.5,-117 8.5,-117"/>
<polygon fill="none" stroke="black" points="8.5,-117 8.5,-139 223.5,-139 223.5,-117 8.5,-117"/>
<image xlink:href="../../images/foreignKeys.png" width="11px" height="12px" preserveAspectRatio="xMinYMin meet" x="13.5" y="-134"/>
<text text-anchor="start" x="28.5" y="-125.2" font-family="Helvetica,sans-Serif" font-size="11.00">staff_id</text>
<polygon fill="#ffffff" stroke="transparent" points="8.5,-95 8.5,-117 223.5,-117 223.5,-95 8.5,-95"/>
<polygon fill="none" stroke="black" points="8.5,-95 8.5,-117 223.5,-117 223.5,-95 8.5,-95"/>
<text text-anchor="start" x="28.5" y="-103.2" font-family="Helvetica,sans-Serif" font-size="11.00">username</text>
<polygon fill="#ffffff" stroke="transparent" points="8.5,-73 8.5,-95 223.5,-95 223.5,-73 8.5,-73"/>
<polygon fill="none" stroke="black" points="8.5,-73 8.5,-95 223.5,-95 223.5,-73 8.5,-73"/>
<text text-anchor="start" x="28.5" y="-81.2" font-family="Helvetica,sans-Serif" font-size="11.00">last_time_password_updated</text>
<polygon fill="none" stroke="black" points="8.5,-55 8.5,-73 223.5,-73 223.5,-55 8.5,-55"/>
<text text-anchor="start" x="11.5" y="-61.2" font-family="Helvetica,sans-Serif" font-size="11.00">...</text>
<polygon fill="#ffffff" stroke="transparent" points="8.5,-37 8.5,-55 93.5,-55 93.5,-37 8.5,-37"/>
<polygon fill="none" stroke="black" points="8.5,-37 8.5,-55 93.5,-55 93.5,-37 8.5,-37"/>
<text text-anchor="start" x="11.5" y="-43.2" font-family="Helvetica,sans-Serif" font-size="11.00">&lt; 2</text>
<polygon fill="#ffffff" stroke="transparent" points="93.5,-37 93.5,-55 163.5,-55 163.5,-37 93.5,-37"/>
<polygon fill="none" stroke="black" points="93.5,-37 93.5,-55 163.5,-55 163.5,-37 93.5,-37"/>
<text text-anchor="start" x="127.5" y="-43.2" font-family="Helvetica,sans-Serif" font-size="11.00">0 rows</text>
<polygon fill="#ffffff" stroke="transparent" points="163.5,-37 163.5,-55 223.5,-55 223.5,-37 163.5,-37"/>
<polygon fill="none" stroke="black" points="163.5,-37 163.5,-55 223.5,-55 223.5,-37 163.5,-37"/>
<text text-anchor="start" x="198.5" y="-43.2" font-family="Helvetica,sans-Serif" font-size="11.00">57 &gt;</text>
</a>
</g>
</g>
<!-- topic_subscriber&#45;&gt;m_appuser -->
<g id="edge2" class="edge">
<title>topic_subscriber:w&#45;&gt;m_appuser:e</title>
<path fill="none" stroke="black" d="M259.68,-217.02C245.86,-204.38 249.54,-172 224.5,-172"/>
<polygon fill="black" stroke="black" points="265.97,-219.29 272.28,-225.39 269.74,-220.64 273.5,-222 273.5,-222 273.5,-222 269.74,-220.64 274.72,-218.61 265.97,-219.29 265.97,-219.29"/>
<ellipse fill="none" stroke="black" cx="262.96" cy="-218.2" rx="3.2" ry="3.2"/>
</g>
</g>
</svg>
