<?xml version="1.0" encoding="UTF-8" standalone="no"?>
<!DOCTYPE svg PUBLIC "-//W3C//DTD SVG 1.1//EN"
 "http://www.w3.org/Graphics/SVG/1.1/DTD/svg11.dtd">
<!-- Generated by graphviz version 2.43.0 (0)
 -->
<!-- Title: oneDegreeRelationshipsDiagram Pages: 1 -->
<svg width="513pt" height="223pt"
 viewBox="0.00 0.00 513.00 223.00" xmlns="http://www.w3.org/2000/svg" xmlns:xlink="http://www.w3.org/1999/xlink">
<g id="graph0" class="graph" transform="scale(1 1) rotate(0) translate(4 219)">
<title>oneDegreeRelationshipsDiagram</title>
<polygon fill="#ffffff" stroke="transparent" points="-4,4 -4,-219 509,-219 509,4 -4,4"/>
<text text-anchor="middle" x="71.5" y="-7.2" font-family="Helvetica,sans-Serif" font-size="11.00">Generated by SchemaSpy</text>
<!-- m_entity_datatable_check -->
<g id="node1" class="node">
<title>m_entity_datatable_check</title>
<g id="a_node1"><a xlink:href="../../tables/m_entity_datatable_check.html" xlink:title="m_entity_datatable_check" target="_top">
<polygon fill="#ffffff" stroke="transparent" points="302,-43 302,-211 497,-211 497,-43 302,-43"/>
<polygon fill="#f5f5f5" stroke="transparent" points="302.5,-189 302.5,-211 497.5,-211 497.5,-189 302.5,-189"/>
<polygon fill="none" stroke="black" points="302.5,-189 302.5,-211 497.5,-211 497.5,-189 302.5,-189"/>
<text text-anchor="start" x="307.5" y="-198.2" font-family="Helvetica,sans-Serif" font-weight="bold" font-size="11.00">m_entity_datatable_check</text>
<text text-anchor="start" x="462.5" y="-197.2" font-family="Helvetica,sans-Serif" font-size="11.00">[table]</text>
<polygon fill="none" stroke="black" points="302.5,-167 302.5,-189 497.5,-189 497.5,-167 302.5,-167"/>
<image xlink:href="../../images/primaryKeys.png" width="11px" height="12px" preserveAspectRatio="xMinYMin meet" x="307.5" y="-184"/>
<text text-anchor="start" x="322.5" y="-175.2" font-family="Helvetica,sans-Serif" font-size="11.00">id</text>
<polygon fill="#ffffff" stroke="transparent" points="302.5,-145 302.5,-167 497.5,-167 497.5,-145 302.5,-145"/>
<polygon fill="none" stroke="black" points="302.5,-145 302.5,-167 497.5,-167 497.5,-145 302.5,-145"/>
<text text-anchor="start" x="322.5" y="-153.2" font-family="Helvetica,sans-Serif" font-size="11.00">application_table_name</text>
<polygon fill="#ffffff" stroke="transparent" points="302.5,-123 302.5,-145 497.5,-145 497.5,-123 302.5,-123"/>
<polygon fill="none" stroke="black" points="302.5,-123 302.5,-145 497.5,-145 497.5,-123 302.5,-123"/>
<image xlink:href="../../images/foreignKeys.png" width="11px" height="12px" preserveAspectRatio="xMinYMin meet" x="307.5" y="-140"/>
<text text-anchor="start" x="322.5" y="-131.2" font-family="Helvetica,sans-Serif" font-size="11.00">x_registered_table_name</text>
<polygon fill="#ffffff" stroke="transparent" points="302.5,-101 302.5,-123 497.5,-123 497.5,-101 302.5,-101"/>
<polygon fill="none" stroke="black" points="302.5,-101 302.5,-123 497.5,-123 497.5,-101 302.5,-101"/>
<text text-anchor="start" x="322.5" y="-109.2" font-family="Helvetica,sans-Serif" font-size="11.00">status_enum</text>
<polygon fill="#ffffff" stroke="transparent" points="302.5,-79 302.5,-101 497.5,-101 497.5,-79 302.5,-79"/>
<polygon fill="none" stroke="black" points="302.5,-79 302.5,-101 497.5,-101 497.5,-79 302.5,-79"/>
<text text-anchor="start" x="322.5" y="-87.2" font-family="Helvetica,sans-Serif" font-size="11.00">product_id</text>
<polygon fill="none" stroke="black" points="302.5,-61 302.5,-79 497.5,-79 497.5,-61 302.5,-61"/>
<text text-anchor="start" x="305.5" y="-67.2" font-family="Helvetica,sans-Serif" font-size="11.00">...</text>
<polygon fill="#ffffff" stroke="transparent" points="302.5,-43 302.5,-61 384.5,-61 384.5,-43 302.5,-43"/>
<polygon fill="none" stroke="black" points="302.5,-43 302.5,-61 384.5,-61 384.5,-43 302.5,-43"/>
<text text-anchor="start" x="305.5" y="-49.2" font-family="Helvetica,sans-Serif" font-size="11.00">&lt; 1</text>
<polygon fill="#ffffff" stroke="transparent" points="384.5,-43 384.5,-61 453.5,-61 453.5,-43 384.5,-43"/>
<polygon fill="none" stroke="black" points="384.5,-43 384.5,-61 453.5,-61 453.5,-43 384.5,-43"/>
<text text-anchor="start" x="417.5" y="-49.2" font-family="Helvetica,sans-Serif" font-size="11.00">0 rows</text>
<polygon fill="#ffffff" stroke="transparent" points="453.5,-43 453.5,-61 497.5,-61 497.5,-43 453.5,-43"/>
<polygon fill="none" stroke="black" points="453.5,-43 453.5,-61 497.5,-61 497.5,-43 453.5,-43"/>
<text text-anchor="start" x="487.5" y="-49.2" font-family="Helvetica,sans-Serif" font-size="11.00"> &#160;</text>
</a>
</g>
</g>
<!-- x_registered_table -->
<g id="node2" class="node">
<title>x_registered_table</title>
<g id="a_node2"><a xlink:href="../../tables/x_registered_table.html" xlink:title="x_registered_table" target="_top">
<polygon fill="#ffffff" stroke="transparent" points="8,-37 8,-169 253,-169 253,-37 8,-37"/>
<polygon fill="#f5f5f5" stroke="transparent" points="10.5,-145 10.5,-167 251.5,-167 251.5,-145 10.5,-145"/>
<polygon fill="none" stroke="black" points="10.5,-145 10.5,-167 251.5,-167 251.5,-145 10.5,-145"/>
<text text-anchor="start" x="15.5" y="-154.2" font-family="Helvetica,sans-Serif" font-weight="bold" font-size="11.00">x_registered_table</text>
<text text-anchor="start" x="216.5" y="-153.2" font-family="Helvetica,sans-Serif" font-size="11.00">[table]</text>
<polygon fill="none" stroke="black" points="10.5,-123 10.5,-145 190.5,-145 190.5,-123 10.5,-123"/>
<image xlink:href="../../images/primaryKeys.png" width="11px" height="12px" preserveAspectRatio="xMinYMin meet" x="15.5" y="-140"/>
<text text-anchor="start" x="30.5" y="-131.2" font-family="Helvetica,sans-Serif" font-size="11.00">registered_table_name</text>
<polygon fill="none" stroke="black" points="190.5,-123 190.5,-145 251.5,-145 251.5,-123 190.5,-123"/>
<text text-anchor="start" x="193.5" y="-131.2" font-family="Helvetica,sans-Serif" font-size="11.00">varchar[50]</text>
<polygon fill="none" stroke="black" points="10.5,-101 10.5,-123 190.5,-123 190.5,-101 10.5,-101"/>
<text text-anchor="start" x="30.5" y="-109.2" font-family="Helvetica,sans-Serif" font-size="11.00">application_table_name</text>
<polygon fill="none" stroke="black" points="190.5,-101 190.5,-123 251.5,-123 251.5,-101 190.5,-101"/>
<text text-anchor="start" x="193.5" y="-109.2" font-family="Helvetica,sans-Serif" font-size="11.00">varchar[50]</text>
<polygon fill="none" stroke="black" points="10.5,-79 10.5,-101 190.5,-101 190.5,-79 10.5,-79"/>
<text text-anchor="start" x="30.5" y="-87.2" font-family="Helvetica,sans-Serif" font-size="11.00">entity_subtype</text>
<polygon fill="none" stroke="black" points="190.5,-79 190.5,-101 251.5,-101 251.5,-79 190.5,-79"/>
<text text-anchor="start" x="193.5" y="-87.2" font-family="Helvetica,sans-Serif" font-size="11.00">varchar[50]</text>
<polygon fill="none" stroke="black" points="10.5,-57 10.5,-79 190.5,-79 190.5,-57 10.5,-57"/>
<text text-anchor="start" x="30.5" y="-65.2" font-family="Helvetica,sans-Serif" font-size="11.00">category</text>
<polygon fill="none" stroke="black" points="190.5,-57 190.5,-79 251.5,-79 251.5,-57 190.5,-57"/>
<text text-anchor="start" x="193.5" y="-65.2" font-family="Helvetica,sans-Serif" font-size="11.00">int[10]</text>
<polygon fill="#ffffff" stroke="transparent" points="10.5,-39 10.5,-57 91.5,-57 91.5,-39 10.5,-39"/>
<polygon fill="none" stroke="black" points="10.5,-39 10.5,-57 91.5,-57 91.5,-39 10.5,-39"/>
<text text-anchor="start" x="13.5" y="-45.2" font-family="Helvetica,sans-Serif" font-size="11.00">&lt; 0</text>
<polygon fill="#ffffff" stroke="transparent" points="91.5,-39 91.5,-57 190.5,-57 190.5,-39 91.5,-39"/>
<polygon fill="none" stroke="black" points="91.5,-39 91.5,-57 190.5,-57 190.5,-39 91.5,-39"/>
<text text-anchor="start" x="154.5" y="-45.2" font-family="Helvetica,sans-Serif" font-size="11.00">0 rows</text>
<polygon fill="#ffffff" stroke="transparent" points="190.5,-39 190.5,-57 251.5,-57 251.5,-39 190.5,-39"/>
<polygon fill="none" stroke="black" points="190.5,-39 190.5,-57 251.5,-57 251.5,-39 190.5,-39"/>
<text text-anchor="start" x="232.5" y="-45.2" font-family="Helvetica,sans-Serif" font-size="11.00">1 &gt;</text>
<polygon fill="none" stroke="black" stroke-width="2" points="9,-38 9,-168 252,-168 252,-38 9,-38"/>
</a>
</g>
</g>
<!-- m_entity_datatable_check&#45;&gt;x_registered_table -->
<g id="edge1" class="edge">
<title>m_entity_datatable_check:w&#45;&gt;x_registered_table:e</title>
<path fill="none" stroke="black" d="M286.99,-134C275.68,-134 268.49,-134 252.5,-134"/>
<polygon fill="black" stroke="black" points="293.5,-134 301.5,-137.6 297.5,-134 301.5,-134 301.5,-134 301.5,-134 297.5,-134 301.5,-130.4 293.5,-134 293.5,-134"/>
<ellipse fill="none" stroke="black" cx="290.3" cy="-134" rx="3.2" ry="3.2"/>
</g>
</g>
</svg>
