<?xml version="1.0" encoding="UTF-8" standalone="no"?>
<!DOCTYPE svg PUBLIC "-//W3C//DTD SVG 1.1//EN"
 "http://www.w3.org/Graphics/SVG/1.1/DTD/svg11.dtd">
<!-- Generated by graphviz version 2.43.0 (0)
 -->
<!-- Title: oneDegreeRelationshipsDiagram Pages: 1 -->
<svg width="516pt" height="175pt"
 viewBox="0.00 0.00 516.00 175.00" xmlns="http://www.w3.org/2000/svg" xmlns:xlink="http://www.w3.org/1999/xlink">
<g id="graph0" class="graph" transform="scale(1 1) rotate(0) translate(4 171)">
<title>oneDegreeRelationshipsDiagram</title>
<polygon fill="#ffffff" stroke="transparent" points="-4,4 -4,-171 512,-171 512,4 -4,4"/>
<text text-anchor="middle" x="71.5" y="-7.2" font-family="Helvetica,sans-Serif" font-size="11.00">Generated by SchemaSpy</text>
<!-- x_table_column_code_mappings -->
<g id="node1" class="node">
<title>x_table_column_code_mappings</title>
<g id="a_node1"><a xlink:href="../../tables/x_table_column_code_mappings.html" xlink:title="x_table_column_code_mappings" target="_top">
<polygon fill="#ffffff" stroke="transparent" points="201,-75 201,-163 500,-163 500,-75 201,-75"/>
<polygon fill="#f5f5f5" stroke="transparent" points="203.5,-139 203.5,-161 498.5,-161 498.5,-139 203.5,-139"/>
<polygon fill="none" stroke="black" points="203.5,-139 203.5,-161 498.5,-161 498.5,-139 203.5,-139"/>
<text text-anchor="start" x="208.5" y="-148.2" font-family="Helvetica,sans-Serif" font-weight="bold" font-size="11.00">x_table_column_code_mappings</text>
<text text-anchor="start" x="463.5" y="-147.2" font-family="Helvetica,sans-Serif" font-size="11.00">[table]</text>
<polygon fill="none" stroke="black" points="203.5,-117 203.5,-139 437.5,-139 437.5,-117 203.5,-117"/>
<image xlink:href="../../images/primaryKeys.png" width="11px" height="12px" preserveAspectRatio="xMinYMin meet" x="208.5" y="-134"/>
<text text-anchor="start" x="223.5" y="-125.2" font-family="Helvetica,sans-Serif" font-size="11.00">column_alias_name</text>
<polygon fill="none" stroke="black" points="437.5,-117 437.5,-139 498.5,-139 498.5,-117 437.5,-117"/>
<text text-anchor="start" x="440.5" y="-125.2" font-family="Helvetica,sans-Serif" font-size="11.00">varchar[50]</text>
<polygon fill="#ffffff" stroke="transparent" points="203.5,-95 203.5,-117 437.5,-117 437.5,-95 203.5,-95"/>
<polygon fill="none" stroke="black" points="203.5,-95 203.5,-117 437.5,-117 437.5,-95 203.5,-95"/>
<image xlink:href="../../images/foreignKeys.png" width="11px" height="12px" preserveAspectRatio="xMinYMin meet" x="208.5" y="-112"/>
<text text-anchor="start" x="223.5" y="-103.2" font-family="Helvetica,sans-Serif" font-size="11.00">code_id</text>
<polygon fill="none" stroke="black" points="437.5,-95 437.5,-117 498.5,-117 498.5,-95 437.5,-95"/>
<text text-anchor="start" x="440.5" y="-103.2" font-family="Helvetica,sans-Serif" font-size="11.00">int[10]</text>
<polygon fill="#ffffff" stroke="transparent" points="203.5,-77 203.5,-95 311.5,-95 311.5,-77 203.5,-77"/>
<polygon fill="none" stroke="black" points="203.5,-77 203.5,-95 311.5,-95 311.5,-77 203.5,-77"/>
<text text-anchor="start" x="206.5" y="-83.2" font-family="Helvetica,sans-Serif" font-size="11.00">&lt; 1</text>
<polygon fill="#ffffff" stroke="transparent" points="311.5,-77 311.5,-95 437.5,-95 437.5,-77 311.5,-77"/>
<polygon fill="none" stroke="black" points="311.5,-77 311.5,-95 437.5,-95 437.5,-77 311.5,-77"/>
<text text-anchor="start" x="401.5" y="-83.2" font-family="Helvetica,sans-Serif" font-size="11.00">0 rows</text>
<polygon fill="#ffffff" stroke="transparent" points="437.5,-77 437.5,-95 498.5,-95 498.5,-77 437.5,-77"/>
<polygon fill="none" stroke="black" points="437.5,-77 437.5,-95 498.5,-95 498.5,-77 437.5,-77"/>
<text text-anchor="start" x="479.5" y="-83.2" font-family="Helvetica,sans-Serif" font-size="11.00">0 &gt;</text>
<polygon fill="none" stroke="black" stroke-width="2" points="202,-76 202,-162 499,-162 499,-76 202,-76"/>
</a>
</g>
</g>
<!-- m_code -->
<g id="node2" class="node">
<title>m_code</title>
<g id="a_node2"><a xlink:href="../../tables/m_code.html" xlink:title="m_code" target="_top">
<polygon fill="#ffffff" stroke="transparent" points="8,-37 8,-139 152,-139 152,-37 8,-37"/>
<polygon fill="#f5f5f5" stroke="transparent" points="8,-117 8,-139 152,-139 152,-117 8,-117"/>
<polygon fill="none" stroke="black" points="8,-117 8,-139 152,-139 152,-117 8,-117"/>
<text text-anchor="start" x="13" y="-126.2" font-family="Helvetica,sans-Serif" font-weight="bold" font-size="11.00">m_code</text>
<text text-anchor="start" x="117" y="-125.2" font-family="Helvetica,sans-Serif" font-size="11.00">[table]</text>
<polygon fill="none" stroke="black" points="8,-95 8,-117 152,-117 152,-95 8,-95"/>
<image xlink:href="../../images/primaryKeys.png" width="11px" height="12px" preserveAspectRatio="xMinYMin meet" x="13" y="-112"/>
<text text-anchor="start" x="28" y="-103.2" font-family="Helvetica,sans-Serif" font-size="11.00">id</text>
<polygon fill="#ffffff" stroke="transparent" points="8,-73 8,-95 152,-95 152,-73 8,-73"/>
<polygon fill="none" stroke="black" points="8,-73 8,-95 152,-95 152,-73 8,-73"/>
<text text-anchor="start" x="28" y="-81.2" font-family="Helvetica,sans-Serif" font-size="11.00">code_name</text>
<polygon fill="none" stroke="black" points="8,-55 8,-73 152,-73 152,-55 8,-55"/>
<text text-anchor="start" x="11" y="-61.2" font-family="Helvetica,sans-Serif" font-size="11.00">...</text>
<polygon fill="#ffffff" stroke="transparent" points="8,-37 8,-55 56,-55 56,-37 8,-37"/>
<polygon fill="none" stroke="black" points="8,-37 8,-55 56,-55 56,-37 8,-37"/>
<text text-anchor="start" x="11" y="-43.2" font-family="Helvetica,sans-Serif" font-size="11.00"> &#160;</text>
<polygon fill="#ffffff" stroke="transparent" points="56,-37 56,-55 112,-55 112,-37 56,-37"/>
<polygon fill="none" stroke="black" points="56,-37 56,-55 112,-55 112,-37 56,-37"/>
<text text-anchor="start" x="76" y="-43.2" font-family="Helvetica,sans-Serif" font-size="11.00">0 rows</text>
<polygon fill="#ffffff" stroke="transparent" points="112,-37 112,-55 152,-55 152,-37 112,-37"/>
<polygon fill="none" stroke="black" points="112,-37 112,-55 152,-55 152,-37 112,-37"/>
<text text-anchor="start" x="133" y="-43.2" font-family="Helvetica,sans-Serif" font-size="11.00">2 &gt;</text>
</a>
</g>
</g>
<!-- x_table_column_code_mappings&#45;&gt;m_code -->
<g id="edge1" class="edge">
<title>x_table_column_code_mappings:w&#45;&gt;m_code:e</title>
<path fill="none" stroke="black" d="M187.84,-106C176.41,-106 169.16,-106 153,-106"/>
<polygon fill="black" stroke="black" points="194.5,-106 202.5,-109.6 198.5,-106 202.5,-106 202.5,-106 202.5,-106 198.5,-106 202.5,-102.4 194.5,-106 194.5,-106"/>
<ellipse fill="none" stroke="black" cx="191.3" cy="-106" rx="3.2" ry="3.2"/>
</g>
</g>
</svg>
