<?xml version="1.0" encoding="UTF-8" standalone="no"?>
<!DOCTYPE svg PUBLIC "-//W3C//DTD SVG 1.1//EN"
 "http://www.w3.org/Graphics/SVG/1.1/DTD/svg11.dtd">
<!-- Generated by graphviz version 2.43.0 (0)
 -->
<!-- Title: c_account_number_format Pages: 1 -->
<svg width="286pt" height="148pt"
 viewBox="0.00 0.00 286.00 148.00" xmlns="http://www.w3.org/2000/svg" xmlns:xlink="http://www.w3.org/1999/xlink">
<g id="graph0" class="graph" transform="scale(1 1) rotate(0) translate(4 144)">
<title>c_account_number_format</title>
<polygon fill="#ffffff" stroke="transparent" points="-4,4 -4,-144 282,-144 282,4 -4,4"/>
<!-- c_account_number_format -->
<g id="node1" class="node">
<title>c_account_number_format</title>
<g id="a_node1"><a xlink:href="../../tables/c_account_number_format.html" xlink:title="c_account_number_format" target="_top">
<polygon fill="#ffffff" stroke="transparent" points="8,-4 8,-136 270,-136 270,-4 8,-4"/>
<polygon fill="#f5f5f5" stroke="transparent" points="10,-112 10,-134 268,-134 268,-112 10,-112"/>
<polygon fill="none" stroke="black" points="10,-112 10,-134 268,-134 268,-112 10,-112"/>
<text text-anchor="start" x="15" y="-121.2" font-family="Helvetica,sans-Serif" font-weight="bold" font-size="11.00">c_account_number_format</text>
<text text-anchor="start" x="233" y="-120.2" font-family="Helvetica,sans-Serif" font-size="11.00">[table]</text>
<polygon fill="none" stroke="black" points="10,-90 10,-112 207,-112 207,-90 10,-90"/>
<image xlink:href="../../images/primaryKeys.png" width="11px" height="12px" preserveAspectRatio="xMinYMin meet" x="15" y="-107"/>
<text text-anchor="start" x="30" y="-98.2" font-family="Helvetica,sans-Serif" font-size="11.00">id</text>
<polygon fill="none" stroke="black" points="207,-90 207,-112 268,-112 268,-90 207,-90"/>
<text text-anchor="start" x="210" y="-98.2" font-family="Helvetica,sans-Serif" font-size="11.00">bigint[19]</text>
<polygon fill="#ffffff" stroke="transparent" points="10,-68 10,-90 207,-90 207,-68 10,-68"/>
<polygon fill="none" stroke="black" points="10,-68 10,-90 207,-90 207,-68 10,-68"/>
<text text-anchor="start" x="30" y="-76.2" font-family="Helvetica,sans-Serif" font-size="11.00">account_type_enum</text>
<polygon fill="none" stroke="black" points="207,-68 207,-90 268,-90 268,-68 207,-68"/>
<text text-anchor="start" x="210" y="-76.2" font-family="Helvetica,sans-Serif" font-size="11.00">smallint[5]</text>
<polygon fill="none" stroke="black" points="10,-46 10,-68 207,-68 207,-46 10,-46"/>
<text text-anchor="start" x="30" y="-54.2" font-family="Helvetica,sans-Serif" font-size="11.00">prefix_type_enum</text>
<polygon fill="none" stroke="black" points="207,-46 207,-68 268,-68 268,-46 207,-46"/>
<text text-anchor="start" x="210" y="-54.2" font-family="Helvetica,sans-Serif" font-size="11.00">smallint[5]</text>
<polygon fill="none" stroke="black" points="10,-24 10,-46 207,-46 207,-24 10,-24"/>
<text text-anchor="start" x="30" y="-32.2" font-family="Helvetica,sans-Serif" font-size="11.00">prefix_character</text>
<polygon fill="none" stroke="black" points="207,-24 207,-46 268,-46 268,-24 207,-24"/>
<text text-anchor="start" x="210" y="-32.2" font-family="Helvetica,sans-Serif" font-size="11.00">varchar[50]</text>
<polygon fill="#ffffff" stroke="transparent" points="10,-6 10,-24 100,-24 100,-6 10,-6"/>
<polygon fill="none" stroke="black" points="10,-6 10,-24 100,-24 100,-6 10,-6"/>
<text text-anchor="start" x="13" y="-12.2" font-family="Helvetica,sans-Serif" font-size="11.00">&lt; 0</text>
<polygon fill="#ffffff" stroke="transparent" points="100,-6 100,-24 207,-24 207,-6 100,-6"/>
<polygon fill="none" stroke="black" points="100,-6 100,-24 207,-24 207,-6 100,-6"/>
<text text-anchor="start" x="171" y="-12.2" font-family="Helvetica,sans-Serif" font-size="11.00">0 rows</text>
<polygon fill="#ffffff" stroke="transparent" points="207,-6 207,-24 268,-24 268,-6 207,-6"/>
<polygon fill="none" stroke="black" points="207,-6 207,-24 268,-24 268,-6 207,-6"/>
<text text-anchor="start" x="249" y="-12.2" font-family="Helvetica,sans-Serif" font-size="11.00">0 &gt;</text>
<polygon fill="none" stroke="black" stroke-width="2" points="9,-5 9,-135 269,-135 269,-5 9,-5"/>
</a>
</g>
</g>
</g>
</svg>
