<?xml version="1.0" encoding="UTF-8" standalone="no"?>
<!DOCTYPE svg PUBLIC "-//W3C//DTD SVG 1.1//EN"
 "http://www.w3.org/Graphics/SVG/1.1/DTD/svg11.dtd">
<!-- Generated by graphviz version 2.43.0 (0)
 -->
<!-- Title: c_configuration Pages: 1 -->
<svg width="220pt" height="236pt"
 viewBox="0.00 0.00 220.00 236.00" xmlns="http://www.w3.org/2000/svg" xmlns:xlink="http://www.w3.org/1999/xlink">
<g id="graph0" class="graph" transform="scale(1 1) rotate(0) translate(4 232)">
<title>c_configuration</title>
<polygon fill="#ffffff" stroke="transparent" points="-4,4 -4,-232 216,-232 216,4 -4,4"/>
<!-- c_configuration -->
<g id="node1" class="node">
<title>c_configuration</title>
<g id="a_node1"><a xlink:href="../../tables/c_configuration.html" xlink:title="c_configuration" target="_top">
<polygon fill="#ffffff" stroke="transparent" points="8,-4 8,-224 204,-224 204,-4 8,-4"/>
<polygon fill="#f5f5f5" stroke="transparent" points="10,-200 10,-222 202,-222 202,-200 10,-200"/>
<polygon fill="none" stroke="black" points="10,-200 10,-222 202,-222 202,-200 10,-200"/>
<text text-anchor="start" x="15" y="-209.2" font-family="Helvetica,sans-Serif" font-weight="bold" font-size="11.00">c_configuration</text>
<text text-anchor="start" x="167" y="-208.2" font-family="Helvetica,sans-Serif" font-size="11.00">[table]</text>
<polygon fill="none" stroke="black" points="10,-178 10,-200 135,-200 135,-178 10,-178"/>
<image xlink:href="../../images/primaryKeys.png" width="11px" height="12px" preserveAspectRatio="xMinYMin meet" x="15" y="-195"/>
<text text-anchor="start" x="30" y="-186.2" font-family="Helvetica,sans-Serif" font-size="11.00">id</text>
<polygon fill="none" stroke="black" points="135,-178 135,-200 202,-200 202,-178 135,-178"/>
<text text-anchor="start" x="138" y="-186.2" font-family="Helvetica,sans-Serif" font-size="11.00">bigint[19]</text>
<polygon fill="#ffffff" stroke="transparent" points="10,-156 10,-178 135,-178 135,-156 10,-156"/>
<polygon fill="none" stroke="black" points="10,-156 10,-178 135,-178 135,-156 10,-156"/>
<text text-anchor="start" x="30" y="-164.2" font-family="Helvetica,sans-Serif" font-size="11.00">name</text>
<polygon fill="none" stroke="black" points="135,-156 135,-178 202,-178 202,-156 135,-156"/>
<text text-anchor="start" x="138" y="-164.2" font-family="Helvetica,sans-Serif" font-size="11.00">varchar[100]</text>
<polygon fill="none" stroke="black" points="10,-134 10,-156 135,-156 135,-134 10,-134"/>
<text text-anchor="start" x="30" y="-142.2" font-family="Helvetica,sans-Serif" font-size="11.00">value</text>
<polygon fill="none" stroke="black" points="135,-134 135,-156 202,-156 202,-134 135,-134"/>
<text text-anchor="start" x="138" y="-142.2" font-family="Helvetica,sans-Serif" font-size="11.00">int[10]</text>
<polygon fill="none" stroke="black" points="10,-112 10,-134 135,-134 135,-112 10,-112"/>
<text text-anchor="start" x="30" y="-120.2" font-family="Helvetica,sans-Serif" font-size="11.00">date_value</text>
<polygon fill="none" stroke="black" points="135,-112 135,-134 202,-134 202,-112 135,-112"/>
<text text-anchor="start" x="138" y="-120.2" font-family="Helvetica,sans-Serif" font-size="11.00">date[10]</text>
<polygon fill="none" stroke="black" points="10,-90 10,-112 135,-112 135,-90 10,-90"/>
<text text-anchor="start" x="30" y="-98.2" font-family="Helvetica,sans-Serif" font-size="11.00">string_value</text>
<polygon fill="none" stroke="black" points="135,-90 135,-112 202,-112 202,-90 135,-90"/>
<text text-anchor="start" x="138" y="-98.2" font-family="Helvetica,sans-Serif" font-size="11.00">varchar[100]</text>
<polygon fill="none" stroke="black" points="10,-68 10,-90 135,-90 135,-68 10,-68"/>
<text text-anchor="start" x="30" y="-76.2" font-family="Helvetica,sans-Serif" font-size="11.00">enabled</text>
<polygon fill="none" stroke="black" points="135,-68 135,-90 202,-90 202,-68 135,-68"/>
<text text-anchor="start" x="138" y="-76.2" font-family="Helvetica,sans-Serif" font-size="11.00">bit[1]</text>
<polygon fill="none" stroke="black" points="10,-46 10,-68 135,-68 135,-46 10,-46"/>
<text text-anchor="start" x="30" y="-54.2" font-family="Helvetica,sans-Serif" font-size="11.00">is_trap_door</text>
<polygon fill="none" stroke="black" points="135,-46 135,-68 202,-68 202,-46 135,-46"/>
<text text-anchor="start" x="138" y="-54.2" font-family="Helvetica,sans-Serif" font-size="11.00">bit[1]</text>
<polygon fill="none" stroke="black" points="10,-24 10,-46 135,-46 135,-24 10,-24"/>
<text text-anchor="start" x="30" y="-32.2" font-family="Helvetica,sans-Serif" font-size="11.00">description</text>
<polygon fill="none" stroke="black" points="135,-24 135,-46 202,-46 202,-24 135,-24"/>
<text text-anchor="start" x="138" y="-32.2" font-family="Helvetica,sans-Serif" font-size="11.00">varchar[300]</text>
<polygon fill="#ffffff" stroke="transparent" points="10,-6 10,-24 61,-24 61,-6 10,-6"/>
<polygon fill="none" stroke="black" points="10,-6 10,-24 61,-24 61,-6 10,-6"/>
<text text-anchor="start" x="13" y="-12.2" font-family="Helvetica,sans-Serif" font-size="11.00">&lt; 0</text>
<polygon fill="#ffffff" stroke="transparent" points="61,-6 61,-24 135,-24 135,-6 61,-6"/>
<polygon fill="none" stroke="black" points="61,-6 61,-24 135,-24 135,-6 61,-6"/>
<text text-anchor="start" x="93" y="-12.2" font-family="Helvetica,sans-Serif" font-size="11.00">38 rows</text>
<polygon fill="#ffffff" stroke="transparent" points="135,-6 135,-24 202,-24 202,-6 135,-6"/>
<polygon fill="none" stroke="black" points="135,-6 135,-24 202,-24 202,-6 135,-6"/>
<text text-anchor="start" x="183" y="-12.2" font-family="Helvetica,sans-Serif" font-size="11.00">0 &gt;</text>
<polygon fill="none" stroke="black" stroke-width="2" points="9,-5 9,-223 203,-223 203,-5 9,-5"/>
</a>
</g>
</g>
</g>
</svg>
