<?xml version="1.0" encoding="UTF-8" standalone="no"?>
<!DOCTYPE svg PUBLIC "-//W3C//DTD SVG 1.1//EN"
 "http://www.w3.org/Graphics/SVG/1.1/DTD/svg11.dtd">
<!-- Generated by graphviz version 2.43.0 (0)
 -->
<!-- Title: DATABASECHANGELOGLOCK Pages: 1 -->
<svg width="307pt" height="148pt"
 viewBox="0.00 0.00 307.00 148.00" xmlns="http://www.w3.org/2000/svg" xmlns:xlink="http://www.w3.org/1999/xlink">
<g id="graph0" class="graph" transform="scale(1 1) rotate(0) translate(4 144)">
<title>DATABASECHANGELOGLOCK</title>
<polygon fill="#ffffff" stroke="transparent" points="-4,4 -4,-144 303,-144 303,4 -4,4"/>
<!-- DATABASECHANGELOGLOCK -->
<g id="node1" class="node">
<title>DATABASECHANGELOGLOCK</title>
<g id="a_node1"><a xlink:href="../../tables/DATABASECHANGELOGLOCK.html" xlink:title="DATABASECHANGELOGLOCK" target="_top">
<polygon fill="#ffffff" stroke="transparent" points="8,-4 8,-136 291,-136 291,-4 8,-4"/>
<polygon fill="#f5f5f5" stroke="transparent" points="10.5,-112 10.5,-134 289.5,-134 289.5,-112 10.5,-112"/>
<polygon fill="none" stroke="black" points="10.5,-112 10.5,-134 289.5,-134 289.5,-112 10.5,-112"/>
<text text-anchor="start" x="15.5" y="-121.2" font-family="Helvetica,sans-Serif" font-weight="bold" font-size="11.00">DATABASECHANGELOGLOCK</text>
<text text-anchor="start" x="254.5" y="-120.2" font-family="Helvetica,sans-Serif" font-size="11.00">[table]</text>
<polygon fill="none" stroke="black" points="10.5,-90 10.5,-112 222.5,-112 222.5,-90 10.5,-90"/>
<image xlink:href="../../images/primaryKeys.png" width="11px" height="12px" preserveAspectRatio="xMinYMin meet" x="15.5" y="-107"/>
<text text-anchor="start" x="30.5" y="-98.2" font-family="Helvetica,sans-Serif" font-size="11.00">ID</text>
<polygon fill="none" stroke="black" points="222.5,-90 222.5,-112 289.5,-112 289.5,-90 222.5,-90"/>
<text text-anchor="start" x="225.5" y="-98.2" font-family="Helvetica,sans-Serif" font-size="11.00">int[10]</text>
<polygon fill="none" stroke="black" points="10.5,-68 10.5,-90 222.5,-90 222.5,-68 10.5,-68"/>
<text text-anchor="start" x="30.5" y="-76.2" font-family="Helvetica,sans-Serif" font-size="11.00">LOCKED</text>
<polygon fill="none" stroke="black" points="222.5,-68 222.5,-90 289.5,-90 289.5,-68 222.5,-68"/>
<text text-anchor="start" x="225.5" y="-76.2" font-family="Helvetica,sans-Serif" font-size="11.00">bit[1]</text>
<polygon fill="none" stroke="black" points="10.5,-46 10.5,-68 222.5,-68 222.5,-46 10.5,-46"/>
<text text-anchor="start" x="30.5" y="-54.2" font-family="Helvetica,sans-Serif" font-size="11.00">LOCKGRANTED</text>
<polygon fill="none" stroke="black" points="222.5,-46 222.5,-68 289.5,-68 289.5,-46 222.5,-46"/>
<text text-anchor="start" x="225.5" y="-54.2" font-family="Helvetica,sans-Serif" font-size="11.00">datetime[19]</text>
<polygon fill="none" stroke="black" points="10.5,-24 10.5,-46 222.5,-46 222.5,-24 10.5,-24"/>
<text text-anchor="start" x="30.5" y="-32.2" font-family="Helvetica,sans-Serif" font-size="11.00">LOCKEDBY</text>
<polygon fill="none" stroke="black" points="222.5,-24 222.5,-46 289.5,-46 289.5,-24 222.5,-24"/>
<text text-anchor="start" x="225.5" y="-32.2" font-family="Helvetica,sans-Serif" font-size="11.00">varchar[255]</text>
<polygon fill="#ffffff" stroke="transparent" points="10.5,-6 10.5,-24 107.5,-24 107.5,-6 10.5,-6"/>
<polygon fill="none" stroke="black" points="10.5,-6 10.5,-24 107.5,-24 107.5,-6 10.5,-6"/>
<text text-anchor="start" x="13.5" y="-12.2" font-family="Helvetica,sans-Serif" font-size="11.00">&lt; 0</text>
<polygon fill="#ffffff" stroke="transparent" points="107.5,-6 107.5,-24 222.5,-24 222.5,-6 107.5,-6"/>
<polygon fill="none" stroke="black" points="107.5,-6 107.5,-24 222.5,-24 222.5,-6 107.5,-6"/>
<text text-anchor="start" x="186.5" y="-12.2" font-family="Helvetica,sans-Serif" font-size="11.00">0 rows</text>
<polygon fill="#ffffff" stroke="transparent" points="222.5,-6 222.5,-24 289.5,-24 289.5,-6 222.5,-6"/>
<polygon fill="none" stroke="black" points="222.5,-6 222.5,-24 289.5,-24 289.5,-6 222.5,-6"/>
<text text-anchor="start" x="270.5" y="-12.2" font-family="Helvetica,sans-Serif" font-size="11.00">0 &gt;</text>
<polygon fill="none" stroke="black" stroke-width="2" points="9,-5 9,-135 290,-135 290,-5 9,-5"/>
</a>
</g>
</g>
</g>
</svg>
