<?xml version="1.0" encoding="UTF-8" standalone="no"?>
<!DOCTYPE svg PUBLIC "-//W3C//DTD SVG 1.1//EN"
 "http://www.w3.org/Graphics/SVG/1.1/DTD/svg11.dtd">
<!-- Generated by graphviz version 2.43.0 (0)
 -->
<!-- Title: DATABASECHANGELOG Pages: 1 -->
<svg width="271pt" height="368pt"
 viewBox="0.00 0.00 271.00 368.00" xmlns="http://www.w3.org/2000/svg" xmlns:xlink="http://www.w3.org/1999/xlink">
<g id="graph0" class="graph" transform="scale(1 1) rotate(0) translate(4 364)">
<title>DATABASECHANGELOG</title>
<polygon fill="#ffffff" stroke="transparent" points="-4,4 -4,-364 267,-364 267,4 -4,4"/>
<!-- DATABASECHANGELOG -->
<g id="node1" class="node">
<title>DATABASECHANGELOG</title>
<g id="a_node1"><a xlink:href="../../tables/DATABASECHANGELOG.html" xlink:title="DATABASECHANGELOG" target="_top">
<polygon fill="#ffffff" stroke="transparent" points="8,-4 8,-356 255,-356 255,-4 8,-4"/>
<polygon fill="#f5f5f5" stroke="transparent" points="10.5,-332 10.5,-354 253.5,-354 253.5,-332 10.5,-332"/>
<polygon fill="none" stroke="black" points="10.5,-332 10.5,-354 253.5,-354 253.5,-332 10.5,-332"/>
<text text-anchor="start" x="15.5" y="-341.2" font-family="Helvetica,sans-Serif" font-weight="bold" font-size="11.00">DATABASECHANGELOG</text>
<text text-anchor="start" x="218.5" y="-340.2" font-family="Helvetica,sans-Serif" font-size="11.00">[table]</text>
<polygon fill="none" stroke="black" points="10.5,-310 10.5,-332 186.5,-332 186.5,-310 10.5,-310"/>
<text text-anchor="start" x="30.5" y="-318.2" font-family="Helvetica,sans-Serif" font-size="11.00">ID</text>
<polygon fill="none" stroke="black" points="186.5,-310 186.5,-332 253.5,-332 253.5,-310 186.5,-310"/>
<text text-anchor="start" x="189.5" y="-318.2" font-family="Helvetica,sans-Serif" font-size="11.00">varchar[255]</text>
<polygon fill="none" stroke="black" points="10.5,-288 10.5,-310 186.5,-310 186.5,-288 10.5,-288"/>
<text text-anchor="start" x="30.5" y="-296.2" font-family="Helvetica,sans-Serif" font-size="11.00">AUTHOR</text>
<polygon fill="none" stroke="black" points="186.5,-288 186.5,-310 253.5,-310 253.5,-288 186.5,-288"/>
<text text-anchor="start" x="189.5" y="-296.2" font-family="Helvetica,sans-Serif" font-size="11.00">varchar[255]</text>
<polygon fill="none" stroke="black" points="10.5,-266 10.5,-288 186.5,-288 186.5,-266 10.5,-266"/>
<text text-anchor="start" x="30.5" y="-274.2" font-family="Helvetica,sans-Serif" font-size="11.00">FILENAME</text>
<polygon fill="none" stroke="black" points="186.5,-266 186.5,-288 253.5,-288 253.5,-266 186.5,-266"/>
<text text-anchor="start" x="189.5" y="-274.2" font-family="Helvetica,sans-Serif" font-size="11.00">varchar[255]</text>
<polygon fill="none" stroke="black" points="10.5,-244 10.5,-266 186.5,-266 186.5,-244 10.5,-244"/>
<text text-anchor="start" x="30.5" y="-252.2" font-family="Helvetica,sans-Serif" font-size="11.00">DATEEXECUTED</text>
<polygon fill="none" stroke="black" points="186.5,-244 186.5,-266 253.5,-266 253.5,-244 186.5,-244"/>
<text text-anchor="start" x="189.5" y="-252.2" font-family="Helvetica,sans-Serif" font-size="11.00">datetime[19]</text>
<polygon fill="none" stroke="black" points="10.5,-222 10.5,-244 186.5,-244 186.5,-222 10.5,-222"/>
<text text-anchor="start" x="30.5" y="-230.2" font-family="Helvetica,sans-Serif" font-size="11.00">ORDEREXECUTED</text>
<polygon fill="none" stroke="black" points="186.5,-222 186.5,-244 253.5,-244 253.5,-222 186.5,-222"/>
<text text-anchor="start" x="189.5" y="-230.2" font-family="Helvetica,sans-Serif" font-size="11.00">int[10]</text>
<polygon fill="none" stroke="black" points="10.5,-200 10.5,-222 186.5,-222 186.5,-200 10.5,-200"/>
<text text-anchor="start" x="30.5" y="-208.2" font-family="Helvetica,sans-Serif" font-size="11.00">EXECTYPE</text>
<polygon fill="none" stroke="black" points="186.5,-200 186.5,-222 253.5,-222 253.5,-200 186.5,-200"/>
<text text-anchor="start" x="189.5" y="-208.2" font-family="Helvetica,sans-Serif" font-size="11.00">varchar[10]</text>
<polygon fill="none" stroke="black" points="10.5,-178 10.5,-200 186.5,-200 186.5,-178 10.5,-178"/>
<text text-anchor="start" x="30.5" y="-186.2" font-family="Helvetica,sans-Serif" font-size="11.00">MD5SUM</text>
<polygon fill="none" stroke="black" points="186.5,-178 186.5,-200 253.5,-200 253.5,-178 186.5,-178"/>
<text text-anchor="start" x="189.5" y="-186.2" font-family="Helvetica,sans-Serif" font-size="11.00">varchar[35]</text>
<polygon fill="none" stroke="black" points="10.5,-156 10.5,-178 186.5,-178 186.5,-156 10.5,-156"/>
<text text-anchor="start" x="30.5" y="-164.2" font-family="Helvetica,sans-Serif" font-size="11.00">DESCRIPTION</text>
<polygon fill="none" stroke="black" points="186.5,-156 186.5,-178 253.5,-178 253.5,-156 186.5,-156"/>
<text text-anchor="start" x="189.5" y="-164.2" font-family="Helvetica,sans-Serif" font-size="11.00">varchar[255]</text>
<polygon fill="none" stroke="black" points="10.5,-134 10.5,-156 186.5,-156 186.5,-134 10.5,-134"/>
<text text-anchor="start" x="30.5" y="-142.2" font-family="Helvetica,sans-Serif" font-size="11.00">COMMENTS</text>
<polygon fill="none" stroke="black" points="186.5,-134 186.5,-156 253.5,-156 253.5,-134 186.5,-134"/>
<text text-anchor="start" x="189.5" y="-142.2" font-family="Helvetica,sans-Serif" font-size="11.00">varchar[255]</text>
<polygon fill="none" stroke="black" points="10.5,-112 10.5,-134 186.5,-134 186.5,-112 10.5,-112"/>
<text text-anchor="start" x="30.5" y="-120.2" font-family="Helvetica,sans-Serif" font-size="11.00">TAG</text>
<polygon fill="none" stroke="black" points="186.5,-112 186.5,-134 253.5,-134 253.5,-112 186.5,-112"/>
<text text-anchor="start" x="189.5" y="-120.2" font-family="Helvetica,sans-Serif" font-size="11.00">varchar[255]</text>
<polygon fill="none" stroke="black" points="10.5,-90 10.5,-112 186.5,-112 186.5,-90 10.5,-90"/>
<text text-anchor="start" x="30.5" y="-98.2" font-family="Helvetica,sans-Serif" font-size="11.00">LIQUIBASE</text>
<polygon fill="none" stroke="black" points="186.5,-90 186.5,-112 253.5,-112 253.5,-90 186.5,-90"/>
<text text-anchor="start" x="189.5" y="-98.2" font-family="Helvetica,sans-Serif" font-size="11.00">varchar[20]</text>
<polygon fill="none" stroke="black" points="10.5,-68 10.5,-90 186.5,-90 186.5,-68 10.5,-68"/>
<text text-anchor="start" x="30.5" y="-76.2" font-family="Helvetica,sans-Serif" font-size="11.00">CONTEXTS</text>
<polygon fill="none" stroke="black" points="186.5,-68 186.5,-90 253.5,-90 253.5,-68 186.5,-68"/>
<text text-anchor="start" x="189.5" y="-76.2" font-family="Helvetica,sans-Serif" font-size="11.00">varchar[255]</text>
<polygon fill="none" stroke="black" points="10.5,-46 10.5,-68 186.5,-68 186.5,-46 10.5,-46"/>
<text text-anchor="start" x="30.5" y="-54.2" font-family="Helvetica,sans-Serif" font-size="11.00">LABELS</text>
<polygon fill="none" stroke="black" points="186.5,-46 186.5,-68 253.5,-68 253.5,-46 186.5,-46"/>
<text text-anchor="start" x="189.5" y="-54.2" font-family="Helvetica,sans-Serif" font-size="11.00">varchar[255]</text>
<polygon fill="none" stroke="black" points="10.5,-24 10.5,-46 186.5,-46 186.5,-24 10.5,-24"/>
<text text-anchor="start" x="30.5" y="-32.2" font-family="Helvetica,sans-Serif" font-size="11.00">DEPLOYMENT_ID</text>
<polygon fill="none" stroke="black" points="186.5,-24 186.5,-46 253.5,-46 253.5,-24 186.5,-24"/>
<text text-anchor="start" x="189.5" y="-32.2" font-family="Helvetica,sans-Serif" font-size="11.00">varchar[10]</text>
<polygon fill="#ffffff" stroke="transparent" points="10.5,-6 10.5,-24 79.5,-24 79.5,-6 10.5,-6"/>
<polygon fill="none" stroke="black" points="10.5,-6 10.5,-24 79.5,-24 79.5,-6 10.5,-6"/>
<text text-anchor="start" x="13.5" y="-12.2" font-family="Helvetica,sans-Serif" font-size="11.00">&lt; 0</text>
<polygon fill="#ffffff" stroke="transparent" points="79.5,-6 79.5,-24 186.5,-24 186.5,-6 79.5,-6"/>
<polygon fill="none" stroke="black" points="79.5,-6 79.5,-24 186.5,-24 186.5,-6 79.5,-6"/>
<text text-anchor="start" x="129.5" y="-12.2" font-family="Helvetica,sans-Serif" font-size="11.00">1,034 rows</text>
<polygon fill="#ffffff" stroke="transparent" points="186.5,-6 186.5,-24 253.5,-24 253.5,-6 186.5,-6"/>
<polygon fill="none" stroke="black" points="186.5,-6 186.5,-24 253.5,-24 253.5,-6 186.5,-6"/>
<text text-anchor="start" x="234.5" y="-12.2" font-family="Helvetica,sans-Serif" font-size="11.00">0 &gt;</text>
<polygon fill="none" stroke="black" stroke-width="2" points="9,-5 9,-355 254,-355 254,-5 9,-5"/>
</a>
</g>
</g>
</g>
</svg>
