<?xml version="1.0" encoding="UTF-8" standalone="no"?>
<!DOCTYPE svg PUBLIC "-//W3C//DTD SVG 1.1//EN"
 "http://www.w3.org/Graphics/SVG/1.1/DTD/svg11.dtd">
<!-- Generated by graphviz version 2.43.0 (0)
 -->
<!-- Title: m_creditbureau_token Pages: 1 -->
<svg width="315pt" height="214pt"
 viewBox="0.00 0.00 315.00 214.00" xmlns="http://www.w3.org/2000/svg" xmlns:xlink="http://www.w3.org/1999/xlink">
<g id="graph0" class="graph" transform="scale(1 1) rotate(0) translate(4 210)">
<title>m_creditbureau_token</title>
<polygon fill="#ffffff" stroke="transparent" points="-4,4 -4,-210 311,-210 311,4 -4,4"/>
<!-- m_creditbureau_token -->
<g id="node1" class="node">
<title>m_creditbureau_token</title>
<g id="a_node1"><a xlink:href="../../tables/m_creditbureau_token.html" xlink:title="m_creditbureau_token" target="_top">
<polygon fill="#ffffff" stroke="transparent" points="8,-4 8,-202 299,-202 299,-4 8,-4"/>
<polygon fill="#f5f5f5" stroke="transparent" points="10.5,-178 10.5,-200 297.5,-200 297.5,-178 10.5,-178"/>
<polygon fill="none" stroke="black" points="10.5,-178 10.5,-200 297.5,-200 297.5,-178 10.5,-178"/>
<text text-anchor="start" x="15.5" y="-187.2" font-family="Helvetica,sans-Serif" font-weight="bold" font-size="11.00">m_creditbureau_token</text>
<text text-anchor="start" x="262.5" y="-186.2" font-family="Helvetica,sans-Serif" font-size="11.00">[table]</text>
<polygon fill="none" stroke="black" points="10.5,-156 10.5,-178 181.5,-178 181.5,-156 10.5,-156"/>
<image xlink:href="../../images/primaryKeys.png" width="11px" height="12px" preserveAspectRatio="xMinYMin meet" x="15.5" y="-173"/>
<text text-anchor="start" x="30.5" y="-164.2" font-family="Helvetica,sans-Serif" font-size="11.00">id</text>
<polygon fill="none" stroke="black" points="181.5,-156 181.5,-178 297.5,-178 297.5,-156 181.5,-156"/>
<text text-anchor="start" x="184.5" y="-164.2" font-family="Helvetica,sans-Serif" font-size="11.00">int[10]</text>
<polygon fill="none" stroke="black" points="10.5,-134 10.5,-156 181.5,-156 181.5,-134 10.5,-134"/>
<text text-anchor="start" x="30.5" y="-142.2" font-family="Helvetica,sans-Serif" font-size="11.00">username</text>
<polygon fill="none" stroke="black" points="181.5,-134 181.5,-156 297.5,-156 297.5,-134 181.5,-134"/>
<text text-anchor="start" x="184.5" y="-142.2" font-family="Helvetica,sans-Serif" font-size="11.00">varchar[128]</text>
<polygon fill="none" stroke="black" points="10.5,-112 10.5,-134 181.5,-134 181.5,-112 10.5,-112"/>
<text text-anchor="start" x="30.5" y="-120.2" font-family="Helvetica,sans-Serif" font-size="11.00">token</text>
<polygon fill="none" stroke="black" points="181.5,-112 181.5,-134 297.5,-134 297.5,-112 181.5,-112"/>
<text text-anchor="start" x="184.5" y="-120.2" font-family="Helvetica,sans-Serif" font-size="11.00">mediumtext[16777215]</text>
<polygon fill="none" stroke="black" points="10.5,-90 10.5,-112 181.5,-112 181.5,-90 10.5,-90"/>
<text text-anchor="start" x="30.5" y="-98.2" font-family="Helvetica,sans-Serif" font-size="11.00">token_type</text>
<polygon fill="none" stroke="black" points="181.5,-90 181.5,-112 297.5,-112 297.5,-90 181.5,-90"/>
<text text-anchor="start" x="184.5" y="-98.2" font-family="Helvetica,sans-Serif" font-size="11.00">varchar[128]</text>
<polygon fill="none" stroke="black" points="10.5,-68 10.5,-90 181.5,-90 181.5,-68 10.5,-68"/>
<text text-anchor="start" x="30.5" y="-76.2" font-family="Helvetica,sans-Serif" font-size="11.00">expires_in</text>
<polygon fill="none" stroke="black" points="181.5,-68 181.5,-90 297.5,-90 297.5,-68 181.5,-68"/>
<text text-anchor="start" x="184.5" y="-76.2" font-family="Helvetica,sans-Serif" font-size="11.00">varchar[128]</text>
<polygon fill="none" stroke="black" points="10.5,-46 10.5,-68 181.5,-68 181.5,-46 10.5,-46"/>
<text text-anchor="start" x="30.5" y="-54.2" font-family="Helvetica,sans-Serif" font-size="11.00">issued</text>
<polygon fill="none" stroke="black" points="181.5,-46 181.5,-68 297.5,-68 297.5,-46 181.5,-46"/>
<text text-anchor="start" x="184.5" y="-54.2" font-family="Helvetica,sans-Serif" font-size="11.00">varchar[128]</text>
<polygon fill="none" stroke="black" points="10.5,-24 10.5,-46 181.5,-46 181.5,-24 10.5,-24"/>
<text text-anchor="start" x="30.5" y="-32.2" font-family="Helvetica,sans-Serif" font-size="11.00">expiry_date</text>
<polygon fill="none" stroke="black" points="181.5,-24 181.5,-46 297.5,-46 297.5,-24 181.5,-24"/>
<text text-anchor="start" x="184.5" y="-32.2" font-family="Helvetica,sans-Serif" font-size="11.00">date[10]</text>
<polygon fill="#ffffff" stroke="transparent" points="10.5,-6 10.5,-24 87.5,-24 87.5,-6 10.5,-6"/>
<polygon fill="none" stroke="black" points="10.5,-6 10.5,-24 87.5,-24 87.5,-6 10.5,-6"/>
<text text-anchor="start" x="13.5" y="-12.2" font-family="Helvetica,sans-Serif" font-size="11.00">&lt; 0</text>
<polygon fill="#ffffff" stroke="transparent" points="87.5,-6 87.5,-24 181.5,-24 181.5,-6 87.5,-6"/>
<polygon fill="none" stroke="black" points="87.5,-6 87.5,-24 181.5,-24 181.5,-6 87.5,-6"/>
<text text-anchor="start" x="145.5" y="-12.2" font-family="Helvetica,sans-Serif" font-size="11.00">0 rows</text>
<polygon fill="#ffffff" stroke="transparent" points="181.5,-6 181.5,-24 297.5,-24 297.5,-6 181.5,-6"/>
<polygon fill="none" stroke="black" points="181.5,-6 181.5,-24 297.5,-24 297.5,-6 181.5,-6"/>
<text text-anchor="start" x="278.5" y="-12.2" font-family="Helvetica,sans-Serif" font-size="11.00">0 &gt;</text>
<polygon fill="none" stroke="black" stroke-width="2" points="9,-5 9,-201 298,-201 298,-5 9,-5"/>
</a>
</g>
</g>
</g>
</svg>
