<?xml version="1.0" encoding="UTF-8" standalone="no"?>
<!DOCTYPE svg PUBLIC "-//W3C//DTD SVG 1.1//EN"
 "http://www.w3.org/Graphics/SVG/1.1/DTD/svg11.dtd">
<!-- Generated by graphviz version 2.43.0 (0)
 -->
<!-- Title: m_field_configuration Pages: 1 -->
<svg width="261pt" height="214pt"
 viewBox="0.00 0.00 261.00 214.00" xmlns="http://www.w3.org/2000/svg" xmlns:xlink="http://www.w3.org/1999/xlink">
<g id="graph0" class="graph" transform="scale(1 1) rotate(0) translate(4 210)">
<title>m_field_configuration</title>
<polygon fill="#ffffff" stroke="transparent" points="-4,4 -4,-210 257,-210 257,4 -4,4"/>
<!-- m_field_configuration -->
<g id="node1" class="node">
<title>m_field_configuration</title>
<g id="a_node1"><a xlink:href="../../tables/m_field_configuration.html" xlink:title="m_field_configuration" target="_top">
<polygon fill="#ffffff" stroke="transparent" points="8,-4 8,-202 245,-202 245,-4 8,-4"/>
<polygon fill="#f5f5f5" stroke="transparent" points="10.5,-178 10.5,-200 243.5,-200 243.5,-178 10.5,-178"/>
<polygon fill="none" stroke="black" points="10.5,-178 10.5,-200 243.5,-200 243.5,-178 10.5,-178"/>
<text text-anchor="start" x="15.5" y="-187.2" font-family="Helvetica,sans-Serif" font-weight="bold" font-size="11.00">m_field_configuration</text>
<text text-anchor="start" x="208.5" y="-186.2" font-family="Helvetica,sans-Serif" font-size="11.00">[table]</text>
<polygon fill="none" stroke="black" points="10.5,-156 10.5,-178 176.5,-178 176.5,-156 10.5,-156"/>
<image xlink:href="../../images/primaryKeys.png" width="11px" height="12px" preserveAspectRatio="xMinYMin meet" x="15.5" y="-173"/>
<text text-anchor="start" x="30.5" y="-164.2" font-family="Helvetica,sans-Serif" font-size="11.00">id</text>
<polygon fill="none" stroke="black" points="176.5,-156 176.5,-178 243.5,-178 243.5,-156 176.5,-156"/>
<text text-anchor="start" x="179.5" y="-164.2" font-family="Helvetica,sans-Serif" font-size="11.00">bigint[19]</text>
<polygon fill="none" stroke="black" points="10.5,-134 10.5,-156 176.5,-156 176.5,-134 10.5,-134"/>
<text text-anchor="start" x="30.5" y="-142.2" font-family="Helvetica,sans-Serif" font-size="11.00">entity</text>
<polygon fill="none" stroke="black" points="176.5,-134 176.5,-156 243.5,-156 243.5,-134 176.5,-134"/>
<text text-anchor="start" x="179.5" y="-142.2" font-family="Helvetica,sans-Serif" font-size="11.00">varchar[100]</text>
<polygon fill="none" stroke="black" points="10.5,-112 10.5,-134 176.5,-134 176.5,-112 10.5,-112"/>
<text text-anchor="start" x="30.5" y="-120.2" font-family="Helvetica,sans-Serif" font-size="11.00">subentity</text>
<polygon fill="none" stroke="black" points="176.5,-112 176.5,-134 243.5,-134 243.5,-112 176.5,-112"/>
<text text-anchor="start" x="179.5" y="-120.2" font-family="Helvetica,sans-Serif" font-size="11.00">varchar[100]</text>
<polygon fill="none" stroke="black" points="10.5,-90 10.5,-112 176.5,-112 176.5,-90 10.5,-90"/>
<text text-anchor="start" x="30.5" y="-98.2" font-family="Helvetica,sans-Serif" font-size="11.00">field</text>
<polygon fill="none" stroke="black" points="176.5,-90 176.5,-112 243.5,-112 243.5,-90 176.5,-90"/>
<text text-anchor="start" x="179.5" y="-98.2" font-family="Helvetica,sans-Serif" font-size="11.00">varchar[100]</text>
<polygon fill="none" stroke="black" points="10.5,-68 10.5,-90 176.5,-90 176.5,-68 10.5,-68"/>
<text text-anchor="start" x="30.5" y="-76.2" font-family="Helvetica,sans-Serif" font-size="11.00">is_enabled</text>
<polygon fill="none" stroke="black" points="176.5,-68 176.5,-90 243.5,-90 243.5,-68 176.5,-68"/>
<text text-anchor="start" x="179.5" y="-76.2" font-family="Helvetica,sans-Serif" font-size="11.00">bit[1]</text>
<polygon fill="none" stroke="black" points="10.5,-46 10.5,-68 176.5,-68 176.5,-46 10.5,-46"/>
<text text-anchor="start" x="30.5" y="-54.2" font-family="Helvetica,sans-Serif" font-size="11.00">is_mandatory</text>
<polygon fill="none" stroke="black" points="176.5,-46 176.5,-68 243.5,-68 243.5,-46 176.5,-46"/>
<text text-anchor="start" x="179.5" y="-54.2" font-family="Helvetica,sans-Serif" font-size="11.00">bit[1]</text>
<polygon fill="none" stroke="black" points="10.5,-24 10.5,-46 176.5,-46 176.5,-24 10.5,-24"/>
<text text-anchor="start" x="30.5" y="-32.2" font-family="Helvetica,sans-Serif" font-size="11.00">validation_regex</text>
<polygon fill="none" stroke="black" points="176.5,-24 176.5,-46 243.5,-46 243.5,-24 176.5,-24"/>
<text text-anchor="start" x="179.5" y="-32.2" font-family="Helvetica,sans-Serif" font-size="11.00">varchar[50]</text>
<polygon fill="#ffffff" stroke="transparent" points="10.5,-6 10.5,-24 84.5,-24 84.5,-6 10.5,-6"/>
<polygon fill="none" stroke="black" points="10.5,-6 10.5,-24 84.5,-24 84.5,-6 10.5,-6"/>
<text text-anchor="start" x="13.5" y="-12.2" font-family="Helvetica,sans-Serif" font-size="11.00">&lt; 0</text>
<polygon fill="#ffffff" stroke="transparent" points="84.5,-6 84.5,-24 176.5,-24 176.5,-6 84.5,-6"/>
<polygon fill="none" stroke="black" points="84.5,-6 84.5,-24 176.5,-24 176.5,-6 84.5,-6"/>
<text text-anchor="start" x="140.5" y="-12.2" font-family="Helvetica,sans-Serif" font-size="11.00">0 rows</text>
<polygon fill="#ffffff" stroke="transparent" points="176.5,-6 176.5,-24 243.5,-24 243.5,-6 176.5,-6"/>
<polygon fill="none" stroke="black" points="176.5,-6 176.5,-24 243.5,-24 243.5,-6 176.5,-6"/>
<text text-anchor="start" x="224.5" y="-12.2" font-family="Helvetica,sans-Serif" font-size="11.00">0 &gt;</text>
<polygon fill="none" stroke="black" stroke-width="2" points="9,-5 9,-201 244,-201 244,-5 9,-5"/>
</a>
</g>
</g>
</g>
</svg>
