<?xml version="1.0" encoding="UTF-8" standalone="no"?>
<!DOCTYPE svg PUBLIC "-//W3C//DTD SVG 1.1//EN"
 "http://www.w3.org/Graphics/SVG/1.1/DTD/svg11.dtd">
<!-- Generated by graphviz version 2.43.0 (0)
 -->
<!-- Title: m_report_mailing_job_configuration Pages: 1 -->
<svg width="357pt" height="126pt"
 viewBox="0.00 0.00 357.00 126.00" xmlns="http://www.w3.org/2000/svg" xmlns:xlink="http://www.w3.org/1999/xlink">
<g id="graph0" class="graph" transform="scale(1 1) rotate(0) translate(4 122)">
<title>m_report_mailing_job_configuration</title>
<polygon fill="#ffffff" stroke="transparent" points="-4,4 -4,-122 353,-122 353,4 -4,4"/>
<!-- m_report_mailing_job_configuration -->
<g id="node1" class="node">
<title>m_report_mailing_job_configuration</title>
<g id="a_node1"><a xlink:href="../../tables/m_report_mailing_job_configuration.html" xlink:title="m_report_mailing_job_configuration" target="_top">
<polygon fill="#ffffff" stroke="transparent" points="8,-4 8,-114 341,-114 341,-4 8,-4"/>
<polygon fill="#f5f5f5" stroke="transparent" points="10.5,-90 10.5,-112 339.5,-112 339.5,-90 10.5,-90"/>
<polygon fill="none" stroke="black" points="10.5,-90 10.5,-112 339.5,-112 339.5,-90 10.5,-90"/>
<text text-anchor="start" x="15.5" y="-99.2" font-family="Helvetica,sans-Serif" font-weight="bold" font-size="11.00">m_report_mailing_job_configuration</text>
<text text-anchor="start" x="304.5" y="-98.2" font-family="Helvetica,sans-Serif" font-size="11.00">[table]</text>
<polygon fill="none" stroke="black" points="10.5,-68 10.5,-90 272.5,-90 272.5,-68 10.5,-68"/>
<image xlink:href="../../images/primaryKeys.png" width="11px" height="12px" preserveAspectRatio="xMinYMin meet" x="15.5" y="-85"/>
<text text-anchor="start" x="30.5" y="-76.2" font-family="Helvetica,sans-Serif" font-size="11.00">id</text>
<polygon fill="none" stroke="black" points="272.5,-68 272.5,-90 339.5,-90 339.5,-68 272.5,-68"/>
<text text-anchor="start" x="275.5" y="-76.2" font-family="Helvetica,sans-Serif" font-size="11.00">int[10]</text>
<polygon fill="#ffffff" stroke="transparent" points="10.5,-46 10.5,-68 272.5,-68 272.5,-46 10.5,-46"/>
<polygon fill="none" stroke="black" points="10.5,-46 10.5,-68 272.5,-68 272.5,-46 10.5,-46"/>
<text text-anchor="start" x="30.5" y="-54.2" font-family="Helvetica,sans-Serif" font-size="11.00">name</text>
<polygon fill="none" stroke="black" points="272.5,-46 272.5,-68 339.5,-68 339.5,-46 272.5,-46"/>
<text text-anchor="start" x="275.5" y="-54.2" font-family="Helvetica,sans-Serif" font-size="11.00">varchar[50]</text>
<polygon fill="none" stroke="black" points="10.5,-24 10.5,-46 272.5,-46 272.5,-24 10.5,-24"/>
<text text-anchor="start" x="30.5" y="-32.2" font-family="Helvetica,sans-Serif" font-size="11.00">value</text>
<polygon fill="none" stroke="black" points="272.5,-24 272.5,-46 339.5,-46 339.5,-24 272.5,-24"/>
<text text-anchor="start" x="275.5" y="-32.2" font-family="Helvetica,sans-Serif" font-size="11.00">varchar[200]</text>
<polygon fill="#ffffff" stroke="transparent" points="10.5,-6 10.5,-24 132.5,-24 132.5,-6 10.5,-6"/>
<polygon fill="none" stroke="black" points="10.5,-6 10.5,-24 132.5,-24 132.5,-6 10.5,-6"/>
<text text-anchor="start" x="13.5" y="-12.2" font-family="Helvetica,sans-Serif" font-size="11.00">&lt; 0</text>
<polygon fill="#ffffff" stroke="transparent" points="132.5,-6 132.5,-24 272.5,-24 272.5,-6 132.5,-6"/>
<polygon fill="none" stroke="black" points="132.5,-6 132.5,-24 272.5,-24 272.5,-6 132.5,-6"/>
<text text-anchor="start" x="236.5" y="-12.2" font-family="Helvetica,sans-Serif" font-size="11.00">0 rows</text>
<polygon fill="#ffffff" stroke="transparent" points="272.5,-6 272.5,-24 339.5,-24 339.5,-6 272.5,-6"/>
<polygon fill="none" stroke="black" points="272.5,-6 272.5,-24 339.5,-24 339.5,-6 272.5,-6"/>
<text text-anchor="start" x="320.5" y="-12.2" font-family="Helvetica,sans-Serif" font-size="11.00">0 &gt;</text>
<polygon fill="none" stroke="black" stroke-width="2" points="9,-5 9,-113 340,-113 340,-5 9,-5"/>
</a>
</g>
</g>
</g>
</svg>
