<?xml version="1.0" encoding="UTF-8" standalone="no"?>
<!DOCTYPE svg PUBLIC "-//W3C//DTD SVG 1.1//EN"
 "http://www.w3.org/Graphics/SVG/1.1/DTD/svg11.dtd">
<!-- Generated by graphviz version 2.43.0 (0)
 -->
<!-- Title: m_selfservice_beneficiaries_tpt Pages: 1 -->
<svg width="320pt" height="258pt"
 viewBox="0.00 0.00 320.00 258.00" xmlns="http://www.w3.org/2000/svg" xmlns:xlink="http://www.w3.org/1999/xlink">
<g id="graph0" class="graph" transform="scale(1 1) rotate(0) translate(4 254)">
<title>m_selfservice_beneficiaries_tpt</title>
<polygon fill="#ffffff" stroke="transparent" points="-4,4 -4,-254 316,-254 316,4 -4,4"/>
<!-- m_selfservice_beneficiaries_tpt -->
<g id="node1" class="node">
<title>m_selfservice_beneficiaries_tpt</title>
<g id="a_node1"><a xlink:href="../../tables/m_selfservice_beneficiaries_tpt.html" xlink:title="m_selfservice_beneficiaries_tpt" target="_top">
<polygon fill="#ffffff" stroke="transparent" points="8,-4 8,-246 304,-246 304,-4 8,-4"/>
<polygon fill="#f5f5f5" stroke="transparent" points="10,-222 10,-244 302,-244 302,-222 10,-222"/>
<polygon fill="none" stroke="black" points="10,-222 10,-244 302,-244 302,-222 10,-222"/>
<text text-anchor="start" x="15" y="-231.2" font-family="Helvetica,sans-Serif" font-weight="bold" font-size="11.00">m_selfservice_beneficiaries_tpt</text>
<text text-anchor="start" x="267" y="-230.2" font-family="Helvetica,sans-Serif" font-size="11.00">[table]</text>
<polygon fill="none" stroke="black" points="10,-200 10,-222 241,-222 241,-200 10,-200"/>
<image xlink:href="../../images/primaryKeys.png" width="11px" height="12px" preserveAspectRatio="xMinYMin meet" x="15" y="-217"/>
<text text-anchor="start" x="30" y="-208.2" font-family="Helvetica,sans-Serif" font-size="11.00">id</text>
<polygon fill="none" stroke="black" points="241,-200 241,-222 302,-222 302,-200 241,-200"/>
<text text-anchor="start" x="244" y="-208.2" font-family="Helvetica,sans-Serif" font-size="11.00">bigint[19]</text>
<polygon fill="#ffffff" stroke="transparent" points="10,-178 10,-200 241,-200 241,-178 10,-178"/>
<polygon fill="none" stroke="black" points="10,-178 10,-200 241,-200 241,-178 10,-178"/>
<text text-anchor="start" x="30" y="-186.2" font-family="Helvetica,sans-Serif" font-size="11.00">app_user_id</text>
<polygon fill="none" stroke="black" points="241,-178 241,-200 302,-200 302,-178 241,-178"/>
<text text-anchor="start" x="244" y="-186.2" font-family="Helvetica,sans-Serif" font-size="11.00">bigint[19]</text>
<polygon fill="#ffffff" stroke="transparent" points="10,-156 10,-178 241,-178 241,-156 10,-156"/>
<polygon fill="none" stroke="black" points="10,-156 10,-178 241,-178 241,-156 10,-156"/>
<text text-anchor="start" x="30" y="-164.2" font-family="Helvetica,sans-Serif" font-size="11.00">name</text>
<polygon fill="none" stroke="black" points="241,-156 241,-178 302,-178 302,-156 241,-156"/>
<text text-anchor="start" x="244" y="-164.2" font-family="Helvetica,sans-Serif" font-size="11.00">varchar[50]</text>
<polygon fill="none" stroke="black" points="10,-134 10,-156 241,-156 241,-134 10,-134"/>
<text text-anchor="start" x="30" y="-142.2" font-family="Helvetica,sans-Serif" font-size="11.00">office_id</text>
<polygon fill="none" stroke="black" points="241,-134 241,-156 302,-156 302,-134 241,-134"/>
<text text-anchor="start" x="244" y="-142.2" font-family="Helvetica,sans-Serif" font-size="11.00">bigint[19]</text>
<polygon fill="none" stroke="black" points="10,-112 10,-134 241,-134 241,-112 10,-112"/>
<text text-anchor="start" x="30" y="-120.2" font-family="Helvetica,sans-Serif" font-size="11.00">client_id</text>
<polygon fill="none" stroke="black" points="241,-112 241,-134 302,-134 302,-112 241,-112"/>
<text text-anchor="start" x="244" y="-120.2" font-family="Helvetica,sans-Serif" font-size="11.00">bigint[19]</text>
<polygon fill="none" stroke="black" points="10,-90 10,-112 241,-112 241,-90 10,-90"/>
<text text-anchor="start" x="30" y="-98.2" font-family="Helvetica,sans-Serif" font-size="11.00">account_id</text>
<polygon fill="none" stroke="black" points="241,-90 241,-112 302,-112 302,-90 241,-90"/>
<text text-anchor="start" x="244" y="-98.2" font-family="Helvetica,sans-Serif" font-size="11.00">bigint[19]</text>
<polygon fill="none" stroke="black" points="10,-68 10,-90 241,-90 241,-68 10,-68"/>
<text text-anchor="start" x="30" y="-76.2" font-family="Helvetica,sans-Serif" font-size="11.00">account_type</text>
<polygon fill="none" stroke="black" points="241,-68 241,-90 302,-90 302,-68 241,-68"/>
<text text-anchor="start" x="244" y="-76.2" font-family="Helvetica,sans-Serif" font-size="11.00">smallint[5]</text>
<polygon fill="none" stroke="black" points="10,-46 10,-68 241,-68 241,-46 10,-46"/>
<text text-anchor="start" x="30" y="-54.2" font-family="Helvetica,sans-Serif" font-size="11.00">transfer_limit</text>
<polygon fill="none" stroke="black" points="241,-46 241,-68 302,-68 302,-46 241,-46"/>
<text text-anchor="start" x="244" y="-54.2" font-family="Helvetica,sans-Serif" font-size="11.00">bigint[19]</text>
<polygon fill="#ffffff" stroke="transparent" points="10,-24 10,-46 241,-46 241,-24 10,-24"/>
<polygon fill="none" stroke="black" points="10,-24 10,-46 241,-46 241,-24 10,-24"/>
<text text-anchor="start" x="30" y="-32.2" font-family="Helvetica,sans-Serif" font-size="11.00">is_active</text>
<polygon fill="none" stroke="black" points="241,-24 241,-46 302,-46 302,-24 241,-24"/>
<text text-anchor="start" x="244" y="-32.2" font-family="Helvetica,sans-Serif" font-size="11.00">bit[1]</text>
<polygon fill="#ffffff" stroke="transparent" points="10,-6 10,-24 117,-24 117,-6 10,-6"/>
<polygon fill="none" stroke="black" points="10,-6 10,-24 117,-24 117,-6 10,-6"/>
<text text-anchor="start" x="13" y="-12.2" font-family="Helvetica,sans-Serif" font-size="11.00">&lt; 0</text>
<polygon fill="#ffffff" stroke="transparent" points="117,-6 117,-24 241,-24 241,-6 117,-6"/>
<polygon fill="none" stroke="black" points="117,-6 117,-24 241,-24 241,-6 117,-6"/>
<text text-anchor="start" x="205" y="-12.2" font-family="Helvetica,sans-Serif" font-size="11.00">0 rows</text>
<polygon fill="#ffffff" stroke="transparent" points="241,-6 241,-24 302,-24 302,-6 241,-6"/>
<polygon fill="none" stroke="black" points="241,-6 241,-24 302,-24 302,-6 241,-6"/>
<text text-anchor="start" x="283" y="-12.2" font-family="Helvetica,sans-Serif" font-size="11.00">0 &gt;</text>
<polygon fill="none" stroke="black" stroke-width="2" points="9,-5 9,-245 303,-245 303,-5 9,-5"/>
</a>
</g>
</g>
</g>
</svg>
