<?xml version="1.0" encoding="UTF-8" standalone="no"?>
<!DOCTYPE svg PUBLIC "-//W3C//DTD SVG 1.1//EN"
 "http://www.w3.org/Graphics/SVG/1.1/DTD/svg11.dtd">
<!-- Generated by graphviz version 2.43.0 (0)
 -->
<!-- Title: m_templatemappers Pages: 1 -->
<svg width="254pt" height="148pt"
 viewBox="0.00 0.00 254.00 148.00" xmlns="http://www.w3.org/2000/svg" xmlns:xlink="http://www.w3.org/1999/xlink">
<g id="graph0" class="graph" transform="scale(1 1) rotate(0) translate(4 144)">
<title>m_templatemappers</title>
<polygon fill="#ffffff" stroke="transparent" points="-4,4 -4,-144 250,-144 250,4 -4,4"/>
<!-- m_templatemappers -->
<g id="node1" class="node">
<title>m_templatemappers</title>
<g id="a_node1"><a xlink:href="../../tables/m_templatemappers.html" xlink:title="m_templatemappers" target="_top">
<polygon fill="#ffffff" stroke="transparent" points="8,-4 8,-136 238,-136 238,-4 8,-4"/>
<polygon fill="#f5f5f5" stroke="transparent" points="10,-112 10,-134 236,-134 236,-112 10,-112"/>
<polygon fill="none" stroke="black" points="10,-112 10,-134 236,-134 236,-112 10,-112"/>
<text text-anchor="start" x="15" y="-121.2" font-family="Helvetica,sans-Serif" font-weight="bold" font-size="11.00">m_templatemappers</text>
<text text-anchor="start" x="201" y="-120.2" font-family="Helvetica,sans-Serif" font-size="11.00">[table]</text>
<polygon fill="none" stroke="black" points="10,-90 10,-112 169,-112 169,-90 10,-90"/>
<image xlink:href="../../images/primaryKeys.png" width="11px" height="12px" preserveAspectRatio="xMinYMin meet" x="15" y="-107"/>
<text text-anchor="start" x="30" y="-98.2" font-family="Helvetica,sans-Serif" font-size="11.00">id</text>
<polygon fill="none" stroke="black" points="169,-90 169,-112 236,-112 236,-90 169,-90"/>
<text text-anchor="start" x="172" y="-98.2" font-family="Helvetica,sans-Serif" font-size="11.00">bigint[19]</text>
<polygon fill="none" stroke="black" points="10,-68 10,-90 169,-90 169,-68 10,-68"/>
<text text-anchor="start" x="30" y="-76.2" font-family="Helvetica,sans-Serif" font-size="11.00">mapperkey</text>
<polygon fill="none" stroke="black" points="169,-68 169,-90 236,-90 236,-68 169,-68"/>
<text text-anchor="start" x="172" y="-76.2" font-family="Helvetica,sans-Serif" font-size="11.00">varchar[255]</text>
<polygon fill="none" stroke="black" points="10,-46 10,-68 169,-68 169,-46 10,-46"/>
<text text-anchor="start" x="30" y="-54.2" font-family="Helvetica,sans-Serif" font-size="11.00">mapperorder</text>
<polygon fill="none" stroke="black" points="169,-46 169,-68 236,-68 236,-46 169,-46"/>
<text text-anchor="start" x="172" y="-54.2" font-family="Helvetica,sans-Serif" font-size="11.00">int[10]</text>
<polygon fill="none" stroke="black" points="10,-24 10,-46 169,-46 169,-24 10,-24"/>
<text text-anchor="start" x="30" y="-32.2" font-family="Helvetica,sans-Serif" font-size="11.00">mappervalue</text>
<polygon fill="none" stroke="black" points="169,-24 169,-46 236,-46 236,-24 169,-24"/>
<text text-anchor="start" x="172" y="-32.2" font-family="Helvetica,sans-Serif" font-size="11.00">varchar[255]</text>
<polygon fill="#ffffff" stroke="transparent" points="10,-6 10,-24 81,-24 81,-6 10,-6"/>
<polygon fill="none" stroke="black" points="10,-6 10,-24 81,-24 81,-6 10,-6"/>
<text text-anchor="start" x="13" y="-12.2" font-family="Helvetica,sans-Serif" font-size="11.00">&lt; 0</text>
<polygon fill="#ffffff" stroke="transparent" points="81,-6 81,-24 169,-24 169,-6 81,-6"/>
<polygon fill="none" stroke="black" points="81,-6 81,-24 169,-24 169,-6 81,-6"/>
<text text-anchor="start" x="133" y="-12.2" font-family="Helvetica,sans-Serif" font-size="11.00">0 rows</text>
<polygon fill="#ffffff" stroke="transparent" points="169,-6 169,-24 236,-24 236,-6 169,-6"/>
<polygon fill="none" stroke="black" points="169,-6 169,-24 236,-24 236,-6 169,-6"/>
<text text-anchor="start" x="217" y="-12.2" font-family="Helvetica,sans-Serif" font-size="11.00">0 &gt;</text>
<polygon fill="none" stroke="black" stroke-width="2" points="9,-5 9,-135 237,-135 237,-5 9,-5"/>
</a>
</g>
</g>
</g>
</svg>
