<?xml version="1.0" encoding="UTF-8" standalone="no"?>
<!DOCTYPE svg PUBLIC "-//W3C//DTD SVG 1.1//EN"
 "http://www.w3.org/Graphics/SVG/1.1/DTD/svg11.dtd">
<!-- Generated by graphviz version 2.43.0 (0)
 -->
<!-- Title: m_template_m_templatemappers Pages: 1 -->
<svg width="323pt" height="104pt"
 viewBox="0.00 0.00 323.00 104.00" xmlns="http://www.w3.org/2000/svg" xmlns:xlink="http://www.w3.org/1999/xlink">
<g id="graph0" class="graph" transform="scale(1 1) rotate(0) translate(4 100)">
<title>m_template_m_templatemappers</title>
<polygon fill="#ffffff" stroke="transparent" points="-4,4 -4,-100 319,-100 319,4 -4,4"/>
<!-- m_template_m_templatemappers -->
<g id="node1" class="node">
<title>m_template_m_templatemappers</title>
<g id="a_node1"><a xlink:href="../../tables/m_template_m_templatemappers.html" xlink:title="m_template_m_templatemappers" target="_top">
<polygon fill="#ffffff" stroke="transparent" points="8,-4 8,-92 307,-92 307,-4 8,-4"/>
<polygon fill="#f5f5f5" stroke="transparent" points="10.5,-68 10.5,-90 305.5,-90 305.5,-68 10.5,-68"/>
<polygon fill="none" stroke="black" points="10.5,-68 10.5,-90 305.5,-90 305.5,-68 10.5,-68"/>
<text text-anchor="start" x="15.5" y="-77.2" font-family="Helvetica,sans-Serif" font-weight="bold" font-size="11.00">m_template_m_templatemappers</text>
<text text-anchor="start" x="270.5" y="-76.2" font-family="Helvetica,sans-Serif" font-size="11.00">[table]</text>
<polygon fill="#ffffff" stroke="transparent" points="10.5,-46 10.5,-68 255.5,-68 255.5,-46 10.5,-46"/>
<polygon fill="none" stroke="black" points="10.5,-46 10.5,-68 255.5,-68 255.5,-46 10.5,-46"/>
<text text-anchor="start" x="30.5" y="-54.2" font-family="Helvetica,sans-Serif" font-size="11.00">m_template_id</text>
<polygon fill="none" stroke="black" points="255.5,-46 255.5,-68 305.5,-68 305.5,-46 255.5,-46"/>
<text text-anchor="start" x="258.5" y="-54.2" font-family="Helvetica,sans-Serif" font-size="11.00">bigint[19]</text>
<polygon fill="#ffffff" stroke="transparent" points="10.5,-24 10.5,-46 255.5,-46 255.5,-24 10.5,-24"/>
<polygon fill="none" stroke="black" points="10.5,-24 10.5,-46 255.5,-46 255.5,-24 10.5,-24"/>
<text text-anchor="start" x="30.5" y="-32.2" font-family="Helvetica,sans-Serif" font-size="11.00">mappers_id</text>
<polygon fill="none" stroke="black" points="255.5,-24 255.5,-46 305.5,-46 305.5,-24 255.5,-24"/>
<text text-anchor="start" x="258.5" y="-32.2" font-family="Helvetica,sans-Serif" font-size="11.00">bigint[19]</text>
<polygon fill="#ffffff" stroke="transparent" points="10.5,-6 10.5,-24 124.5,-24 124.5,-6 10.5,-6"/>
<polygon fill="none" stroke="black" points="10.5,-6 10.5,-24 124.5,-24 124.5,-6 10.5,-6"/>
<text text-anchor="start" x="13.5" y="-12.2" font-family="Helvetica,sans-Serif" font-size="11.00">&lt; 0</text>
<polygon fill="#ffffff" stroke="transparent" points="124.5,-6 124.5,-24 255.5,-24 255.5,-6 124.5,-6"/>
<polygon fill="none" stroke="black" points="124.5,-6 124.5,-24 255.5,-24 255.5,-6 124.5,-6"/>
<text text-anchor="start" x="219.5" y="-12.2" font-family="Helvetica,sans-Serif" font-size="11.00">0 rows</text>
<polygon fill="#ffffff" stroke="transparent" points="255.5,-6 255.5,-24 305.5,-24 305.5,-6 255.5,-6"/>
<polygon fill="none" stroke="black" points="255.5,-6 255.5,-24 305.5,-24 305.5,-6 255.5,-6"/>
<text text-anchor="start" x="286.5" y="-12.2" font-family="Helvetica,sans-Serif" font-size="11.00">0 &gt;</text>
<polygon fill="none" stroke="black" stroke-width="2" points="9,-5 9,-91 306,-91 306,-5 9,-5"/>
</a>
</g>
</g>
</g>
</svg>
