<?xml version="1.0" encoding="UTF-8" standalone="no"?>
<!DOCTYPE svg PUBLIC "-//W3C//DTD SVG 1.1//EN"
 "http://www.w3.org/Graphics/SVG/1.1/DTD/svg11.dtd">
<!-- Generated by graphviz version 2.43.0 (0)
 -->
<!-- Title: m_trial_balance Pages: 1 -->
<svg width="225pt" height="192pt"
 viewBox="0.00 0.00 225.00 192.00" xmlns="http://www.w3.org/2000/svg" xmlns:xlink="http://www.w3.org/1999/xlink">
<g id="graph0" class="graph" transform="scale(1 1) rotate(0) translate(4 188)">
<title>m_trial_balance</title>
<polygon fill="#ffffff" stroke="transparent" points="-4,4 -4,-188 221,-188 221,4 -4,4"/>
<!-- m_trial_balance -->
<g id="node1" class="node">
<title>m_trial_balance</title>
<g id="a_node1"><a xlink:href="../../tables/m_trial_balance.html" xlink:title="m_trial_balance" target="_top">
<polygon fill="#ffffff" stroke="transparent" points="8,-4 8,-180 209,-180 209,-4 8,-4"/>
<polygon fill="#f5f5f5" stroke="transparent" points="10.5,-156 10.5,-178 207.5,-178 207.5,-156 10.5,-156"/>
<polygon fill="none" stroke="black" points="10.5,-156 10.5,-178 207.5,-178 207.5,-156 10.5,-156"/>
<text text-anchor="start" x="15.5" y="-165.2" font-family="Helvetica,sans-Serif" font-weight="bold" font-size="11.00">m_trial_balance</text>
<text text-anchor="start" x="172.5" y="-164.2" font-family="Helvetica,sans-Serif" font-size="11.00">[table]</text>
<polygon fill="none" stroke="black" points="10.5,-134 10.5,-156 137.5,-156 137.5,-134 10.5,-134"/>
<text text-anchor="start" x="30.5" y="-142.2" font-family="Helvetica,sans-Serif" font-size="11.00">office_id</text>
<polygon fill="none" stroke="black" points="137.5,-134 137.5,-156 207.5,-156 207.5,-134 137.5,-134"/>
<text text-anchor="start" x="140.5" y="-142.2" font-family="Helvetica,sans-Serif" font-size="11.00">bigint[19]</text>
<polygon fill="none" stroke="black" points="10.5,-112 10.5,-134 137.5,-134 137.5,-112 10.5,-112"/>
<text text-anchor="start" x="30.5" y="-120.2" font-family="Helvetica,sans-Serif" font-size="11.00">account_id</text>
<polygon fill="none" stroke="black" points="137.5,-112 137.5,-134 207.5,-134 207.5,-112 137.5,-112"/>
<text text-anchor="start" x="140.5" y="-120.2" font-family="Helvetica,sans-Serif" font-size="11.00">bigint[19]</text>
<polygon fill="none" stroke="black" points="10.5,-90 10.5,-112 137.5,-112 137.5,-90 10.5,-90"/>
<text text-anchor="start" x="30.5" y="-98.2" font-family="Helvetica,sans-Serif" font-size="11.00">amount</text>
<polygon fill="none" stroke="black" points="137.5,-90 137.5,-112 207.5,-112 207.5,-90 137.5,-90"/>
<text text-anchor="start" x="140.5" y="-98.2" font-family="Helvetica,sans-Serif" font-size="11.00">decimal[19,6]</text>
<polygon fill="none" stroke="black" points="10.5,-68 10.5,-90 137.5,-90 137.5,-68 10.5,-68"/>
<text text-anchor="start" x="30.5" y="-76.2" font-family="Helvetica,sans-Serif" font-size="11.00">entry_date</text>
<polygon fill="none" stroke="black" points="137.5,-68 137.5,-90 207.5,-90 207.5,-68 137.5,-68"/>
<text text-anchor="start" x="140.5" y="-76.2" font-family="Helvetica,sans-Serif" font-size="11.00">date[10]</text>
<polygon fill="none" stroke="black" points="10.5,-46 10.5,-68 137.5,-68 137.5,-46 10.5,-46"/>
<text text-anchor="start" x="30.5" y="-54.2" font-family="Helvetica,sans-Serif" font-size="11.00">created_date</text>
<polygon fill="none" stroke="black" points="137.5,-46 137.5,-68 207.5,-68 207.5,-46 137.5,-46"/>
<text text-anchor="start" x="140.5" y="-54.2" font-family="Helvetica,sans-Serif" font-size="11.00">date[10]</text>
<polygon fill="none" stroke="black" points="10.5,-24 10.5,-46 137.5,-46 137.5,-24 10.5,-24"/>
<text text-anchor="start" x="30.5" y="-32.2" font-family="Helvetica,sans-Serif" font-size="11.00">closing_balance</text>
<polygon fill="none" stroke="black" points="137.5,-24 137.5,-46 207.5,-46 207.5,-24 137.5,-24"/>
<text text-anchor="start" x="140.5" y="-32.2" font-family="Helvetica,sans-Serif" font-size="11.00">decimal[19,6]</text>
<polygon fill="#ffffff" stroke="transparent" points="10.5,-6 10.5,-24 65.5,-24 65.5,-6 10.5,-6"/>
<polygon fill="none" stroke="black" points="10.5,-6 10.5,-24 65.5,-24 65.5,-6 10.5,-6"/>
<text text-anchor="start" x="13.5" y="-12.2" font-family="Helvetica,sans-Serif" font-size="11.00">&lt; 0</text>
<polygon fill="#ffffff" stroke="transparent" points="65.5,-6 65.5,-24 137.5,-24 137.5,-6 65.5,-6"/>
<polygon fill="none" stroke="black" points="65.5,-6 65.5,-24 137.5,-24 137.5,-6 65.5,-6"/>
<text text-anchor="start" x="101.5" y="-12.2" font-family="Helvetica,sans-Serif" font-size="11.00">0 rows</text>
<polygon fill="#ffffff" stroke="transparent" points="137.5,-6 137.5,-24 207.5,-24 207.5,-6 137.5,-6"/>
<polygon fill="none" stroke="black" points="137.5,-6 137.5,-24 207.5,-24 207.5,-6 137.5,-6"/>
<text text-anchor="start" x="188.5" y="-12.2" font-family="Helvetica,sans-Serif" font-size="11.00">0 &gt;</text>
<polygon fill="none" stroke="black" stroke-width="2" points="9,-5 9,-179 208,-179 208,-5 9,-5"/>
</a>
</g>
</g>
</g>
</svg>
