<?xml version="1.0" encoding="UTF-8" standalone="no"?>
<!DOCTYPE svg PUBLIC "-//W3C//DTD SVG 1.1//EN"
 "http://www.w3.org/Graphics/SVG/1.1/DTD/svg11.dtd">
<!-- Generated by graphviz version 2.43.0 (0)
 -->
<!-- Title: m_working_days Pages: 1 -->
<svg width="336pt" height="170pt"
 viewBox="0.00 0.00 336.00 170.00" xmlns="http://www.w3.org/2000/svg" xmlns:xlink="http://www.w3.org/1999/xlink">
<g id="graph0" class="graph" transform="scale(1 1) rotate(0) translate(4 166)">
<title>m_working_days</title>
<polygon fill="#ffffff" stroke="transparent" points="-4,4 -4,-166 332,-166 332,4 -4,4"/>
<!-- m_working_days -->
<g id="node1" class="node">
<title>m_working_days</title>
<g id="a_node1"><a xlink:href="../../tables/m_working_days.html" xlink:title="m_working_days" target="_top">
<polygon fill="#ffffff" stroke="transparent" points="8,-4 8,-158 320,-158 320,-4 8,-4"/>
<polygon fill="#f5f5f5" stroke="transparent" points="10,-134 10,-156 318,-156 318,-134 10,-134"/>
<polygon fill="none" stroke="black" points="10,-134 10,-156 318,-156 318,-134 10,-134"/>
<text text-anchor="start" x="15" y="-143.2" font-family="Helvetica,sans-Serif" font-weight="bold" font-size="11.00">m_working_days</text>
<text text-anchor="start" x="283" y="-142.2" font-family="Helvetica,sans-Serif" font-size="11.00">[table]</text>
<polygon fill="none" stroke="black" points="10,-112 10,-134 251,-134 251,-112 10,-112"/>
<image xlink:href="../../images/primaryKeys.png" width="11px" height="12px" preserveAspectRatio="xMinYMin meet" x="15" y="-129"/>
<text text-anchor="start" x="30" y="-120.2" font-family="Helvetica,sans-Serif" font-size="11.00">id</text>
<polygon fill="none" stroke="black" points="251,-112 251,-134 318,-134 318,-112 251,-112"/>
<text text-anchor="start" x="254" y="-120.2" font-family="Helvetica,sans-Serif" font-size="11.00">bigint[19]</text>
<polygon fill="none" stroke="black" points="10,-90 10,-112 251,-112 251,-90 10,-90"/>
<text text-anchor="start" x="30" y="-98.2" font-family="Helvetica,sans-Serif" font-size="11.00">recurrence</text>
<polygon fill="none" stroke="black" points="251,-90 251,-112 318,-112 318,-90 251,-90"/>
<text text-anchor="start" x="254" y="-98.2" font-family="Helvetica,sans-Serif" font-size="11.00">varchar[100]</text>
<polygon fill="none" stroke="black" points="10,-68 10,-90 251,-90 251,-68 10,-68"/>
<text text-anchor="start" x="30" y="-76.2" font-family="Helvetica,sans-Serif" font-size="11.00">repayment_rescheduling_enum</text>
<polygon fill="none" stroke="black" points="251,-68 251,-90 318,-90 318,-68 251,-68"/>
<text text-anchor="start" x="254" y="-76.2" font-family="Helvetica,sans-Serif" font-size="11.00">smallint[5]</text>
<polygon fill="none" stroke="black" points="10,-46 10,-68 251,-68 251,-46 10,-46"/>
<text text-anchor="start" x="30" y="-54.2" font-family="Helvetica,sans-Serif" font-size="11.00">extend_term_daily_repayments</text>
<polygon fill="none" stroke="black" points="251,-46 251,-68 318,-68 318,-46 251,-46"/>
<text text-anchor="start" x="254" y="-54.2" font-family="Helvetica,sans-Serif" font-size="11.00">bit[1]</text>
<polygon fill="none" stroke="black" points="10,-24 10,-46 251,-46 251,-24 10,-24"/>
<text text-anchor="start" x="30" y="-32.2" font-family="Helvetica,sans-Serif" font-size="11.00">extend_term_holiday_repayment</text>
<polygon fill="none" stroke="black" points="251,-24 251,-46 318,-46 318,-24 251,-24"/>
<text text-anchor="start" x="254" y="-32.2" font-family="Helvetica,sans-Serif" font-size="11.00">bit[1]</text>
<polygon fill="#ffffff" stroke="transparent" points="10,-6 10,-24 122,-24 122,-6 10,-6"/>
<polygon fill="none" stroke="black" points="10,-6 10,-24 122,-24 122,-6 10,-6"/>
<text text-anchor="start" x="13" y="-12.2" font-family="Helvetica,sans-Serif" font-size="11.00">&lt; 0</text>
<polygon fill="#ffffff" stroke="transparent" points="122,-6 122,-24 251,-24 251,-6 122,-6"/>
<polygon fill="none" stroke="black" points="122,-6 122,-24 251,-24 251,-6 122,-6"/>
<text text-anchor="start" x="215" y="-12.2" font-family="Helvetica,sans-Serif" font-size="11.00">0 rows</text>
<polygon fill="#ffffff" stroke="transparent" points="251,-6 251,-24 318,-24 318,-6 251,-6"/>
<polygon fill="none" stroke="black" points="251,-6 251,-24 318,-24 318,-6 251,-6"/>
<text text-anchor="start" x="299" y="-12.2" font-family="Helvetica,sans-Serif" font-size="11.00">0 &gt;</text>
<polygon fill="none" stroke="black" stroke-width="2" points="9,-5 9,-157 319,-157 319,-5 9,-5"/>
</a>
</g>
</g>
</g>
</svg>
