<?xml version="1.0" encoding="UTF-8" standalone="no"?>
<!DOCTYPE svg PUBLIC "-//W3C//DTD SVG 1.1//EN"
 "http://www.w3.org/Graphics/SVG/1.1/DTD/svg11.dtd">
<!-- Generated by graphviz version 2.43.0 (0)
 -->
<!-- Title: mix_taxonomy Pages: 1 -->
<svg width="220pt" height="214pt"
 viewBox="0.00 0.00 220.00 214.00" xmlns="http://www.w3.org/2000/svg" xmlns:xlink="http://www.w3.org/1999/xlink">
<g id="graph0" class="graph" transform="scale(1 1) rotate(0) translate(4 210)">
<title>mix_taxonomy</title>
<polygon fill="#ffffff" stroke="transparent" points="-4,4 -4,-210 216,-210 216,4 -4,4"/>
<!-- mix_taxonomy -->
<g id="node1" class="node">
<title>mix_taxonomy</title>
<g id="a_node1"><a xlink:href="../../tables/mix_taxonomy.html" xlink:title="mix_taxonomy" target="_top">
<polygon fill="#ffffff" stroke="transparent" points="8,-4 8,-202 204,-202 204,-4 8,-4"/>
<polygon fill="#f5f5f5" stroke="transparent" points="10,-178 10,-200 202,-200 202,-178 10,-178"/>
<polygon fill="none" stroke="black" points="10,-178 10,-200 202,-200 202,-178 10,-178"/>
<text text-anchor="start" x="15" y="-187.2" font-family="Helvetica,sans-Serif" font-weight="bold" font-size="11.00">mix_taxonomy</text>
<text text-anchor="start" x="167" y="-186.2" font-family="Helvetica,sans-Serif" font-size="11.00">[table]</text>
<polygon fill="none" stroke="black" points="10,-156 10,-178 129,-178 129,-156 10,-156"/>
<image xlink:href="../../images/primaryKeys.png" width="11px" height="12px" preserveAspectRatio="xMinYMin meet" x="15" y="-173"/>
<text text-anchor="start" x="30" y="-164.2" font-family="Helvetica,sans-Serif" font-size="11.00">id</text>
<polygon fill="none" stroke="black" points="129,-156 129,-178 202,-178 202,-156 129,-156"/>
<text text-anchor="start" x="132" y="-164.2" font-family="Helvetica,sans-Serif" font-size="11.00">int[10]</text>
<polygon fill="none" stroke="black" points="10,-134 10,-156 129,-156 129,-134 10,-134"/>
<text text-anchor="start" x="30" y="-142.2" font-family="Helvetica,sans-Serif" font-size="11.00">name</text>
<polygon fill="none" stroke="black" points="129,-134 129,-156 202,-156 202,-134 129,-134"/>
<text text-anchor="start" x="132" y="-142.2" font-family="Helvetica,sans-Serif" font-size="11.00">varchar[100]</text>
<polygon fill="none" stroke="black" points="10,-112 10,-134 129,-134 129,-112 10,-112"/>
<text text-anchor="start" x="30" y="-120.2" font-family="Helvetica,sans-Serif" font-size="11.00">namespace_id</text>
<polygon fill="none" stroke="black" points="129,-112 129,-134 202,-134 202,-112 129,-112"/>
<text text-anchor="start" x="132" y="-120.2" font-family="Helvetica,sans-Serif" font-size="11.00">int[10]</text>
<polygon fill="none" stroke="black" points="10,-90 10,-112 129,-112 129,-90 10,-90"/>
<text text-anchor="start" x="30" y="-98.2" font-family="Helvetica,sans-Serif" font-size="11.00">dimension</text>
<polygon fill="none" stroke="black" points="129,-90 129,-112 202,-112 202,-90 129,-90"/>
<text text-anchor="start" x="132" y="-98.2" font-family="Helvetica,sans-Serif" font-size="11.00">varchar[100]</text>
<polygon fill="none" stroke="black" points="10,-68 10,-90 129,-90 129,-68 10,-68"/>
<text text-anchor="start" x="30" y="-76.2" font-family="Helvetica,sans-Serif" font-size="11.00">type</text>
<polygon fill="none" stroke="black" points="129,-68 129,-90 202,-90 202,-68 129,-68"/>
<text text-anchor="start" x="132" y="-76.2" font-family="Helvetica,sans-Serif" font-size="11.00">int[10]</text>
<polygon fill="none" stroke="black" points="10,-46 10,-68 129,-68 129,-46 10,-46"/>
<text text-anchor="start" x="30" y="-54.2" font-family="Helvetica,sans-Serif" font-size="11.00">description</text>
<polygon fill="none" stroke="black" points="129,-46 129,-68 202,-68 202,-46 129,-46"/>
<text text-anchor="start" x="132" y="-54.2" font-family="Helvetica,sans-Serif" font-size="11.00">varchar[1000]</text>
<polygon fill="none" stroke="black" points="10,-24 10,-46 129,-46 129,-24 10,-24"/>
<text text-anchor="start" x="30" y="-32.2" font-family="Helvetica,sans-Serif" font-size="11.00">need_mapping</text>
<polygon fill="none" stroke="black" points="129,-24 129,-46 202,-46 202,-24 129,-24"/>
<text text-anchor="start" x="132" y="-32.2" font-family="Helvetica,sans-Serif" font-size="11.00">bit[1]</text>
<polygon fill="#ffffff" stroke="transparent" points="10,-6 10,-24 61,-24 61,-6 10,-6"/>
<polygon fill="none" stroke="black" points="10,-6 10,-24 61,-24 61,-6 10,-6"/>
<text text-anchor="start" x="13" y="-12.2" font-family="Helvetica,sans-Serif" font-size="11.00">&lt; 0</text>
<polygon fill="#ffffff" stroke="transparent" points="61,-6 61,-24 129,-24 129,-6 61,-6"/>
<polygon fill="none" stroke="black" points="61,-6 61,-24 129,-24 129,-6 61,-6"/>
<text text-anchor="start" x="93" y="-12.2" font-family="Helvetica,sans-Serif" font-size="11.00">0 rows</text>
<polygon fill="#ffffff" stroke="transparent" points="129,-6 129,-24 202,-24 202,-6 129,-6"/>
<polygon fill="none" stroke="black" points="129,-6 129,-24 202,-24 202,-6 129,-6"/>
<text text-anchor="start" x="183" y="-12.2" font-family="Helvetica,sans-Serif" font-size="11.00">0 &gt;</text>
<polygon fill="none" stroke="black" stroke-width="2" points="9,-5 9,-201 203,-201 203,-5 9,-5"/>
</a>
</g>
</g>
</g>
</svg>
