<?xml version="1.0" encoding="UTF-8" standalone="no"?>
<!DOCTYPE svg PUBLIC "-//W3C//DTD SVG 1.1//EN"
 "http://www.w3.org/Graphics/SVG/1.1/DTD/svg11.dtd">
<!-- Generated by graphviz version 2.43.0 (0)
 -->
<!-- Title: mix_xbrl_namespace Pages: 1 -->
<svg width="255pt" height="126pt"
 viewBox="0.00 0.00 255.00 126.00" xmlns="http://www.w3.org/2000/svg" xmlns:xlink="http://www.w3.org/1999/xlink">
<g id="graph0" class="graph" transform="scale(1 1) rotate(0) translate(4 122)">
<title>mix_xbrl_namespace</title>
<polygon fill="#ffffff" stroke="transparent" points="-4,4 -4,-122 251,-122 251,4 -4,4"/>
<!-- mix_xbrl_namespace -->
<g id="node1" class="node">
<title>mix_xbrl_namespace</title>
<g id="a_node1"><a xlink:href="../../tables/mix_xbrl_namespace.html" xlink:title="mix_xbrl_namespace" target="_top">
<polygon fill="#ffffff" stroke="transparent" points="8,-4 8,-114 239,-114 239,-4 8,-4"/>
<polygon fill="#f5f5f5" stroke="transparent" points="10.5,-90 10.5,-112 237.5,-112 237.5,-90 10.5,-90"/>
<polygon fill="none" stroke="black" points="10.5,-90 10.5,-112 237.5,-112 237.5,-90 10.5,-90"/>
<text text-anchor="start" x="15.5" y="-99.2" font-family="Helvetica,sans-Serif" font-weight="bold" font-size="11.00">mix_xbrl_namespace</text>
<text text-anchor="start" x="202.5" y="-98.2" font-family="Helvetica,sans-Serif" font-size="11.00">[table]</text>
<polygon fill="none" stroke="black" points="10.5,-68 10.5,-90 170.5,-90 170.5,-68 10.5,-68"/>
<image xlink:href="../../images/primaryKeys.png" width="11px" height="12px" preserveAspectRatio="xMinYMin meet" x="15.5" y="-85"/>
<text text-anchor="start" x="30.5" y="-76.2" font-family="Helvetica,sans-Serif" font-size="11.00">id</text>
<polygon fill="none" stroke="black" points="170.5,-68 170.5,-90 237.5,-90 237.5,-68 170.5,-68"/>
<text text-anchor="start" x="173.5" y="-76.2" font-family="Helvetica,sans-Serif" font-size="11.00">int[10]</text>
<polygon fill="#ffffff" stroke="transparent" points="10.5,-46 10.5,-68 170.5,-68 170.5,-46 10.5,-46"/>
<polygon fill="none" stroke="black" points="10.5,-46 10.5,-68 170.5,-68 170.5,-46 10.5,-46"/>
<text text-anchor="start" x="30.5" y="-54.2" font-family="Helvetica,sans-Serif" font-size="11.00">prefix</text>
<polygon fill="none" stroke="black" points="170.5,-46 170.5,-68 237.5,-68 237.5,-46 170.5,-46"/>
<text text-anchor="start" x="173.5" y="-54.2" font-family="Helvetica,sans-Serif" font-size="11.00">varchar[20]</text>
<polygon fill="none" stroke="black" points="10.5,-24 10.5,-46 170.5,-46 170.5,-24 10.5,-24"/>
<text text-anchor="start" x="30.5" y="-32.2" font-family="Helvetica,sans-Serif" font-size="11.00">url</text>
<polygon fill="none" stroke="black" points="170.5,-24 170.5,-46 237.5,-46 237.5,-24 170.5,-24"/>
<text text-anchor="start" x="173.5" y="-32.2" font-family="Helvetica,sans-Serif" font-size="11.00">varchar[100]</text>
<polygon fill="#ffffff" stroke="transparent" points="10.5,-6 10.5,-24 81.5,-24 81.5,-6 10.5,-6"/>
<polygon fill="none" stroke="black" points="10.5,-6 10.5,-24 81.5,-24 81.5,-6 10.5,-6"/>
<text text-anchor="start" x="13.5" y="-12.2" font-family="Helvetica,sans-Serif" font-size="11.00">&lt; 0</text>
<polygon fill="#ffffff" stroke="transparent" points="81.5,-6 81.5,-24 170.5,-24 170.5,-6 81.5,-6"/>
<polygon fill="none" stroke="black" points="81.5,-6 81.5,-24 170.5,-24 170.5,-6 81.5,-6"/>
<text text-anchor="start" x="134.5" y="-12.2" font-family="Helvetica,sans-Serif" font-size="11.00">0 rows</text>
<polygon fill="#ffffff" stroke="transparent" points="170.5,-6 170.5,-24 237.5,-24 237.5,-6 170.5,-6"/>
<polygon fill="none" stroke="black" points="170.5,-6 170.5,-24 237.5,-24 237.5,-6 170.5,-6"/>
<text text-anchor="start" x="218.5" y="-12.2" font-family="Helvetica,sans-Serif" font-size="11.00">0 &gt;</text>
<polygon fill="none" stroke="black" stroke-width="2" points="9,-5 9,-113 238,-113 238,-5 9,-5"/>
</a>
</g>
</g>
</g>
</svg>
