<?xml version="1.0" encoding="UTF-8" standalone="no"?>
<!DOCTYPE svg PUBLIC "-//W3C//DTD SVG 1.1//EN"
 "http://www.w3.org/Graphics/SVG/1.1/DTD/svg11.dtd">
<!-- Generated by graphviz version 2.43.0 (0)
 -->
<!-- Title: mix_taxonomy_mapping Pages: 1 -->
<svg width="278pt" height="170pt"
 viewBox="0.00 0.00 278.00 170.00" xmlns="http://www.w3.org/2000/svg" xmlns:xlink="http://www.w3.org/1999/xlink">
<g id="graph0" class="graph" transform="scale(1 1) rotate(0) translate(4 166)">
<title>mix_taxonomy_mapping</title>
<polygon fill="#ffffff" stroke="transparent" points="-4,4 -4,-166 274,-166 274,4 -4,4"/>
<!-- mix_taxonomy_mapping -->
<g id="node1" class="node">
<title>mix_taxonomy_mapping</title>
<g id="a_node1"><a xlink:href="../../tables/mix_taxonomy_mapping.html" xlink:title="mix_taxonomy_mapping" target="_top">
<polygon fill="#ffffff" stroke="transparent" points="8,-4 8,-158 262,-158 262,-4 8,-4"/>
<polygon fill="#f5f5f5" stroke="transparent" points="10,-134 10,-156 260,-156 260,-134 10,-134"/>
<polygon fill="none" stroke="black" points="10,-134 10,-156 260,-156 260,-134 10,-134"/>
<text text-anchor="start" x="15" y="-143.2" font-family="Helvetica,sans-Serif" font-weight="bold" font-size="11.00">mix_taxonomy_mapping</text>
<text text-anchor="start" x="225" y="-142.2" font-family="Helvetica,sans-Serif" font-size="11.00">[table]</text>
<polygon fill="none" stroke="black" points="10,-112 10,-134 193,-134 193,-112 10,-112"/>
<image xlink:href="../../images/primaryKeys.png" width="11px" height="12px" preserveAspectRatio="xMinYMin meet" x="15" y="-129"/>
<text text-anchor="start" x="30" y="-120.2" font-family="Helvetica,sans-Serif" font-size="11.00">id</text>
<polygon fill="none" stroke="black" points="193,-112 193,-134 260,-134 260,-112 193,-112"/>
<text text-anchor="start" x="196" y="-120.2" font-family="Helvetica,sans-Serif" font-size="11.00">int[10]</text>
<polygon fill="none" stroke="black" points="10,-90 10,-112 193,-112 193,-90 10,-90"/>
<text text-anchor="start" x="30" y="-98.2" font-family="Helvetica,sans-Serif" font-size="11.00">identifier</text>
<polygon fill="none" stroke="black" points="193,-90 193,-112 260,-112 260,-90 193,-90"/>
<text text-anchor="start" x="196" y="-98.2" font-family="Helvetica,sans-Serif" font-size="11.00">varchar[50]</text>
<polygon fill="none" stroke="black" points="10,-68 10,-90 193,-90 193,-68 10,-68"/>
<text text-anchor="start" x="30" y="-76.2" font-family="Helvetica,sans-Serif" font-size="11.00">config</text>
<polygon fill="none" stroke="black" points="193,-68 193,-90 260,-90 260,-68 193,-68"/>
<text text-anchor="start" x="196" y="-76.2" font-family="Helvetica,sans-Serif" font-size="11.00">varchar[200]</text>
<polygon fill="none" stroke="black" points="10,-46 10,-68 193,-68 193,-46 10,-46"/>
<text text-anchor="start" x="30" y="-54.2" font-family="Helvetica,sans-Serif" font-size="11.00">last_update_date</text>
<polygon fill="none" stroke="black" points="193,-46 193,-68 260,-68 260,-46 193,-46"/>
<text text-anchor="start" x="196" y="-54.2" font-family="Helvetica,sans-Serif" font-size="11.00">datetime[19]</text>
<polygon fill="none" stroke="black" points="10,-24 10,-46 193,-46 193,-24 10,-24"/>
<text text-anchor="start" x="30" y="-32.2" font-family="Helvetica,sans-Serif" font-size="11.00">currency</text>
<polygon fill="none" stroke="black" points="193,-24 193,-46 260,-46 260,-24 193,-24"/>
<text text-anchor="start" x="196" y="-32.2" font-family="Helvetica,sans-Serif" font-size="11.00">varchar[11]</text>
<polygon fill="#ffffff" stroke="transparent" points="10,-6 10,-24 93,-24 93,-6 10,-6"/>
<polygon fill="none" stroke="black" points="10,-6 10,-24 93,-24 93,-6 10,-6"/>
<text text-anchor="start" x="13" y="-12.2" font-family="Helvetica,sans-Serif" font-size="11.00">&lt; 0</text>
<polygon fill="#ffffff" stroke="transparent" points="93,-6 93,-24 193,-24 193,-6 93,-6"/>
<polygon fill="none" stroke="black" points="93,-6 93,-24 193,-24 193,-6 93,-6"/>
<text text-anchor="start" x="157" y="-12.2" font-family="Helvetica,sans-Serif" font-size="11.00">0 rows</text>
<polygon fill="#ffffff" stroke="transparent" points="193,-6 193,-24 260,-24 260,-6 193,-6"/>
<polygon fill="none" stroke="black" points="193,-6 193,-24 260,-24 260,-6 193,-6"/>
<text text-anchor="start" x="241" y="-12.2" font-family="Helvetica,sans-Serif" font-size="11.00">0 &gt;</text>
<polygon fill="none" stroke="black" stroke-width="2" points="9,-5 9,-157 261,-157 261,-5 9,-5"/>
</a>
</g>
</g>
</g>
</svg>
