<?xml version="1.0" encoding="UTF-8" standalone="no"?>
<!DOCTYPE svg PUBLIC "-//W3C//DTD SVG 1.1//EN"
 "http://www.w3.org/Graphics/SVG/1.1/DTD/svg11.dtd">
<!-- Generated by graphviz version 2.43.0 (0)
 -->
<!-- Title: oauth_access_token Pages: 1 -->
<svg width="250pt" height="214pt"
 viewBox="0.00 0.00 250.00 214.00" xmlns="http://www.w3.org/2000/svg" xmlns:xlink="http://www.w3.org/1999/xlink">
<g id="graph0" class="graph" transform="scale(1 1) rotate(0) translate(4 210)">
<title>oauth_access_token</title>
<polygon fill="#ffffff" stroke="transparent" points="-4,4 -4,-210 246,-210 246,4 -4,4"/>
<!-- oauth_access_token -->
<g id="node1" class="node">
<title>oauth_access_token</title>
<g id="a_node1"><a xlink:href="../../tables/oauth_access_token.html" xlink:title="oauth_access_token" target="_top">
<polygon fill="#ffffff" stroke="transparent" points="8,-4 8,-202 234,-202 234,-4 8,-4"/>
<polygon fill="#f5f5f5" stroke="transparent" points="10,-178 10,-200 232,-200 232,-178 10,-178"/>
<polygon fill="none" stroke="black" points="10,-178 10,-200 232,-200 232,-178 10,-178"/>
<text text-anchor="start" x="15" y="-187.2" font-family="Helvetica,sans-Serif" font-weight="bold" font-size="11.00">oauth_access_token</text>
<text text-anchor="start" x="197" y="-186.2" font-family="Helvetica,sans-Serif" font-size="11.00">[table]</text>
<polygon fill="none" stroke="black" points="10,-156 10,-178 165,-178 165,-156 10,-156"/>
<text text-anchor="start" x="30" y="-164.2" font-family="Helvetica,sans-Serif" font-size="11.00">token_id</text>
<polygon fill="none" stroke="black" points="165,-156 165,-178 232,-178 232,-156 165,-156"/>
<text text-anchor="start" x="168" y="-164.2" font-family="Helvetica,sans-Serif" font-size="11.00">varchar[256]</text>
<polygon fill="none" stroke="black" points="10,-134 10,-156 165,-156 165,-134 10,-134"/>
<text text-anchor="start" x="30" y="-142.2" font-family="Helvetica,sans-Serif" font-size="11.00">token</text>
<polygon fill="none" stroke="black" points="165,-134 165,-156 232,-156 232,-134 165,-134"/>
<text text-anchor="start" x="168" y="-142.2" font-family="Helvetica,sans-Serif" font-size="11.00">blob[65535]</text>
<polygon fill="none" stroke="black" points="10,-112 10,-134 165,-134 165,-112 10,-112"/>
<text text-anchor="start" x="30" y="-120.2" font-family="Helvetica,sans-Serif" font-size="11.00">authentication_id</text>
<polygon fill="none" stroke="black" points="165,-112 165,-134 232,-134 232,-112 165,-112"/>
<text text-anchor="start" x="168" y="-120.2" font-family="Helvetica,sans-Serif" font-size="11.00">varchar[256]</text>
<polygon fill="none" stroke="black" points="10,-90 10,-112 165,-112 165,-90 10,-90"/>
<text text-anchor="start" x="30" y="-98.2" font-family="Helvetica,sans-Serif" font-size="11.00">user_name</text>
<polygon fill="none" stroke="black" points="165,-90 165,-112 232,-112 232,-90 165,-90"/>
<text text-anchor="start" x="168" y="-98.2" font-family="Helvetica,sans-Serif" font-size="11.00">varchar[256]</text>
<polygon fill="none" stroke="black" points="10,-68 10,-90 165,-90 165,-68 10,-68"/>
<text text-anchor="start" x="30" y="-76.2" font-family="Helvetica,sans-Serif" font-size="11.00">client_id</text>
<polygon fill="none" stroke="black" points="165,-68 165,-90 232,-90 232,-68 165,-68"/>
<text text-anchor="start" x="168" y="-76.2" font-family="Helvetica,sans-Serif" font-size="11.00">varchar[256]</text>
<polygon fill="none" stroke="black" points="10,-46 10,-68 165,-68 165,-46 10,-46"/>
<text text-anchor="start" x="30" y="-54.2" font-family="Helvetica,sans-Serif" font-size="11.00">authentication</text>
<polygon fill="none" stroke="black" points="165,-46 165,-68 232,-68 232,-46 165,-46"/>
<text text-anchor="start" x="168" y="-54.2" font-family="Helvetica,sans-Serif" font-size="11.00">blob[65535]</text>
<polygon fill="none" stroke="black" points="10,-24 10,-46 165,-46 165,-24 10,-24"/>
<text text-anchor="start" x="30" y="-32.2" font-family="Helvetica,sans-Serif" font-size="11.00">refresh_token</text>
<polygon fill="none" stroke="black" points="165,-24 165,-46 232,-46 232,-24 165,-24"/>
<text text-anchor="start" x="168" y="-32.2" font-family="Helvetica,sans-Serif" font-size="11.00">varchar[256]</text>
<polygon fill="#ffffff" stroke="transparent" points="10,-6 10,-24 79,-24 79,-6 10,-6"/>
<polygon fill="none" stroke="black" points="10,-6 10,-24 79,-24 79,-6 10,-6"/>
<text text-anchor="start" x="13" y="-12.2" font-family="Helvetica,sans-Serif" font-size="11.00">&lt; 0</text>
<polygon fill="#ffffff" stroke="transparent" points="79,-6 79,-24 165,-24 165,-6 79,-6"/>
<polygon fill="none" stroke="black" points="79,-6 79,-24 165,-24 165,-6 79,-6"/>
<text text-anchor="start" x="129" y="-12.2" font-family="Helvetica,sans-Serif" font-size="11.00">0 rows</text>
<polygon fill="#ffffff" stroke="transparent" points="165,-6 165,-24 232,-24 232,-6 165,-6"/>
<polygon fill="none" stroke="black" points="165,-6 165,-24 232,-24 232,-6 165,-6"/>
<text text-anchor="start" x="213" y="-12.2" font-family="Helvetica,sans-Serif" font-size="11.00">0 &gt;</text>
<polygon fill="none" stroke="black" stroke-width="2" points="9,-5 9,-201 233,-201 233,-5 9,-5"/>
</a>
</g>
</g>
</g>
</svg>
