<?xml version="1.0" encoding="UTF-8" standalone="no"?>
<!DOCTYPE svg PUBLIC "-//W3C//DTD SVG 1.1//EN"
 "http://www.w3.org/Graphics/SVG/1.1/DTD/svg11.dtd">
<!-- Generated by graphviz version 2.43.0 (0)
 -->
<!-- Title: ppi_likelihoods Pages: 1 -->
<svg width="216pt" height="126pt"
 viewBox="0.00 0.00 216.00 126.00" xmlns="http://www.w3.org/2000/svg" xmlns:xlink="http://www.w3.org/1999/xlink">
<g id="graph0" class="graph" transform="scale(1 1) rotate(0) translate(4 122)">
<title>ppi_likelihoods</title>
<polygon fill="#ffffff" stroke="transparent" points="-4,4 -4,-122 212,-122 212,4 -4,4"/>
<!-- ppi_likelihoods -->
<g id="node1" class="node">
<title>ppi_likelihoods</title>
<g id="a_node1"><a xlink:href="../../tables/ppi_likelihoods.html" xlink:title="ppi_likelihoods" target="_top">
<polygon fill="#ffffff" stroke="transparent" points="8,-4 8,-114 200,-114 200,-4 8,-4"/>
<polygon fill="#f5f5f5" stroke="transparent" points="10,-90 10,-112 198,-112 198,-90 10,-90"/>
<polygon fill="none" stroke="black" points="10,-90 10,-112 198,-112 198,-90 10,-90"/>
<text text-anchor="start" x="15" y="-99.2" font-family="Helvetica,sans-Serif" font-weight="bold" font-size="11.00">ppi_likelihoods</text>
<text text-anchor="start" x="163" y="-98.2" font-family="Helvetica,sans-Serif" font-size="11.00">[table]</text>
<polygon fill="none" stroke="black" points="10,-68 10,-90 131,-90 131,-68 10,-68"/>
<image xlink:href="../../images/primaryKeys.png" width="11px" height="12px" preserveAspectRatio="xMinYMin meet" x="15" y="-85"/>
<text text-anchor="start" x="30" y="-76.2" font-family="Helvetica,sans-Serif" font-size="11.00">id</text>
<polygon fill="none" stroke="black" points="131,-68 131,-90 198,-90 198,-68 131,-68"/>
<text text-anchor="start" x="134" y="-76.2" font-family="Helvetica,sans-Serif" font-size="11.00">bigint[19]</text>
<polygon fill="none" stroke="black" points="10,-46 10,-68 131,-68 131,-46 10,-46"/>
<text text-anchor="start" x="30" y="-54.2" font-family="Helvetica,sans-Serif" font-size="11.00">code</text>
<polygon fill="none" stroke="black" points="131,-46 131,-68 198,-68 198,-46 131,-46"/>
<text text-anchor="start" x="134" y="-54.2" font-family="Helvetica,sans-Serif" font-size="11.00">varchar[100]</text>
<polygon fill="none" stroke="black" points="10,-24 10,-46 131,-46 131,-24 10,-24"/>
<text text-anchor="start" x="30" y="-32.2" font-family="Helvetica,sans-Serif" font-size="11.00">name</text>
<polygon fill="none" stroke="black" points="131,-24 131,-46 198,-46 198,-24 131,-24"/>
<text text-anchor="start" x="134" y="-32.2" font-family="Helvetica,sans-Serif" font-size="11.00">varchar[250]</text>
<polygon fill="#ffffff" stroke="transparent" points="10,-6 10,-24 62,-24 62,-6 10,-6"/>
<polygon fill="none" stroke="black" points="10,-6 10,-24 62,-24 62,-6 10,-6"/>
<text text-anchor="start" x="13" y="-12.2" font-family="Helvetica,sans-Serif" font-size="11.00">&lt; 0</text>
<polygon fill="#ffffff" stroke="transparent" points="62,-6 62,-24 131,-24 131,-6 62,-6"/>
<polygon fill="none" stroke="black" points="62,-6 62,-24 131,-24 131,-6 62,-6"/>
<text text-anchor="start" x="95" y="-12.2" font-family="Helvetica,sans-Serif" font-size="11.00">0 rows</text>
<polygon fill="#ffffff" stroke="transparent" points="131,-6 131,-24 198,-24 198,-6 131,-6"/>
<polygon fill="none" stroke="black" points="131,-6 131,-24 198,-24 198,-6 131,-6"/>
<text text-anchor="start" x="179" y="-12.2" font-family="Helvetica,sans-Serif" font-size="11.00">0 &gt;</text>
<polygon fill="none" stroke="black" stroke-width="2" points="9,-5 9,-113 199,-113 199,-5 9,-5"/>
</a>
</g>
</g>
</g>
</svg>
