<?xml version="1.0" encoding="UTF-8" standalone="no"?>
<!DOCTYPE svg PUBLIC "-//W3C//DTD SVG 1.1//EN"
 "http://www.w3.org/Graphics/SVG/1.1/DTD/svg11.dtd">
<!-- Generated by graphviz version 2.43.0 (0)
 -->
<!-- Title: ppi_scores Pages: 1 -->
<svg width="173pt" height="126pt"
 viewBox="0.00 0.00 173.00 126.00" xmlns="http://www.w3.org/2000/svg" xmlns:xlink="http://www.w3.org/1999/xlink">
<g id="graph0" class="graph" transform="scale(1 1) rotate(0) translate(4 122)">
<title>ppi_scores</title>
<polygon fill="#ffffff" stroke="transparent" points="-4,4 -4,-122 169,-122 169,4 -4,4"/>
<!-- ppi_scores -->
<g id="node1" class="node">
<title>ppi_scores</title>
<g id="a_node1"><a xlink:href="../../tables/ppi_scores.html" xlink:title="ppi_scores" target="_top">
<polygon fill="#ffffff" stroke="transparent" points="8,-4 8,-114 157,-114 157,-4 8,-4"/>
<polygon fill="#f5f5f5" stroke="transparent" points="10.5,-90 10.5,-112 155.5,-112 155.5,-90 10.5,-90"/>
<polygon fill="none" stroke="black" points="10.5,-90 10.5,-112 155.5,-112 155.5,-90 10.5,-90"/>
<text text-anchor="start" x="15.5" y="-99.2" font-family="Helvetica,sans-Serif" font-weight="bold" font-size="11.00">ppi_scores</text>
<text text-anchor="start" x="120.5" y="-98.2" font-family="Helvetica,sans-Serif" font-size="11.00">[table]</text>
<polygon fill="none" stroke="black" points="10.5,-68 10.5,-90 105.5,-90 105.5,-68 10.5,-68"/>
<image xlink:href="../../images/primaryKeys.png" width="11px" height="12px" preserveAspectRatio="xMinYMin meet" x="15.5" y="-85"/>
<text text-anchor="start" x="30.5" y="-76.2" font-family="Helvetica,sans-Serif" font-size="11.00">id</text>
<polygon fill="none" stroke="black" points="105.5,-68 105.5,-90 155.5,-90 155.5,-68 105.5,-68"/>
<text text-anchor="start" x="108.5" y="-76.2" font-family="Helvetica,sans-Serif" font-size="11.00">bigint[19]</text>
<polygon fill="none" stroke="black" points="10.5,-46 10.5,-68 105.5,-68 105.5,-46 10.5,-46"/>
<text text-anchor="start" x="30.5" y="-54.2" font-family="Helvetica,sans-Serif" font-size="11.00">score_from</text>
<polygon fill="none" stroke="black" points="105.5,-46 105.5,-68 155.5,-68 155.5,-46 105.5,-46"/>
<text text-anchor="start" x="108.5" y="-54.2" font-family="Helvetica,sans-Serif" font-size="11.00">int[10]</text>
<polygon fill="none" stroke="black" points="10.5,-24 10.5,-46 105.5,-46 105.5,-24 10.5,-24"/>
<text text-anchor="start" x="30.5" y="-32.2" font-family="Helvetica,sans-Serif" font-size="11.00">score_to</text>
<polygon fill="none" stroke="black" points="105.5,-24 105.5,-46 155.5,-46 155.5,-24 105.5,-24"/>
<text text-anchor="start" x="108.5" y="-32.2" font-family="Helvetica,sans-Serif" font-size="11.00">int[10]</text>
<polygon fill="#ffffff" stroke="transparent" points="10.5,-6 10.5,-24 49.5,-24 49.5,-6 10.5,-6"/>
<polygon fill="none" stroke="black" points="10.5,-6 10.5,-24 49.5,-24 49.5,-6 10.5,-6"/>
<text text-anchor="start" x="13.5" y="-12.2" font-family="Helvetica,sans-Serif" font-size="11.00">&lt; 0</text>
<polygon fill="#ffffff" stroke="transparent" points="49.5,-6 49.5,-24 105.5,-24 105.5,-6 49.5,-6"/>
<polygon fill="none" stroke="black" points="49.5,-6 49.5,-24 105.5,-24 105.5,-6 49.5,-6"/>
<text text-anchor="start" x="69.5" y="-12.2" font-family="Helvetica,sans-Serif" font-size="11.00">0 rows</text>
<polygon fill="#ffffff" stroke="transparent" points="105.5,-6 105.5,-24 155.5,-24 155.5,-6 105.5,-6"/>
<polygon fill="none" stroke="black" points="105.5,-6 105.5,-24 155.5,-24 155.5,-6 105.5,-6"/>
<text text-anchor="start" x="136.5" y="-12.2" font-family="Helvetica,sans-Serif" font-size="11.00">0 &gt;</text>
<polygon fill="none" stroke="black" stroke-width="2" points="9,-5 9,-113 156,-113 156,-5 9,-5"/>
</a>
</g>
</g>
</g>
</svg>
