<?xml version="1.0" encoding="UTF-8" standalone="no"?>
<!DOCTYPE svg PUBLIC "-//W3C//DTD SVG 1.1//EN"
 "http://www.w3.org/Graphics/SVG/1.1/DTD/svg11.dtd">
<!-- Generated by graphviz version 2.43.0 (0)
 -->
<!-- Title: ppi_likelihoods_ppi Pages: 1 -->
<svg width="243pt" height="148pt"
 viewBox="0.00 0.00 243.00 148.00" xmlns="http://www.w3.org/2000/svg" xmlns:xlink="http://www.w3.org/1999/xlink">
<g id="graph0" class="graph" transform="scale(1 1) rotate(0) translate(4 144)">
<title>ppi_likelihoods_ppi</title>
<polygon fill="#ffffff" stroke="transparent" points="-4,4 -4,-144 239,-144 239,4 -4,4"/>
<!-- ppi_likelihoods_ppi -->
<g id="node1" class="node">
<title>ppi_likelihoods_ppi</title>
<g id="a_node1"><a xlink:href="../../tables/ppi_likelihoods_ppi.html" xlink:title="ppi_likelihoods_ppi" target="_top">
<polygon fill="#ffffff" stroke="transparent" points="8,-4 8,-136 227,-136 227,-4 8,-4"/>
<polygon fill="#f5f5f5" stroke="transparent" points="10.5,-112 10.5,-134 225.5,-134 225.5,-112 10.5,-112"/>
<polygon fill="none" stroke="black" points="10.5,-112 10.5,-134 225.5,-134 225.5,-112 10.5,-112"/>
<text text-anchor="start" x="15.5" y="-121.2" font-family="Helvetica,sans-Serif" font-weight="bold" font-size="11.00">ppi_likelihoods_ppi</text>
<text text-anchor="start" x="190.5" y="-120.2" font-family="Helvetica,sans-Serif" font-size="11.00">[table]</text>
<polygon fill="none" stroke="black" points="10.5,-90 10.5,-112 158.5,-112 158.5,-90 10.5,-90"/>
<image xlink:href="../../images/primaryKeys.png" width="11px" height="12px" preserveAspectRatio="xMinYMin meet" x="15.5" y="-107"/>
<text text-anchor="start" x="30.5" y="-98.2" font-family="Helvetica,sans-Serif" font-size="11.00">id</text>
<polygon fill="none" stroke="black" points="158.5,-90 158.5,-112 225.5,-112 225.5,-90 158.5,-90"/>
<text text-anchor="start" x="161.5" y="-98.2" font-family="Helvetica,sans-Serif" font-size="11.00">bigint[19]</text>
<polygon fill="none" stroke="black" points="10.5,-68 10.5,-90 158.5,-90 158.5,-68 10.5,-68"/>
<text text-anchor="start" x="30.5" y="-76.2" font-family="Helvetica,sans-Serif" font-size="11.00">likelihood_id</text>
<polygon fill="none" stroke="black" points="158.5,-68 158.5,-90 225.5,-90 225.5,-68 158.5,-68"/>
<text text-anchor="start" x="161.5" y="-76.2" font-family="Helvetica,sans-Serif" font-size="11.00">bigint[19]</text>
<polygon fill="none" stroke="black" points="10.5,-46 10.5,-68 158.5,-68 158.5,-46 10.5,-46"/>
<text text-anchor="start" x="30.5" y="-54.2" font-family="Helvetica,sans-Serif" font-size="11.00">ppi_name</text>
<polygon fill="none" stroke="black" points="158.5,-46 158.5,-68 225.5,-68 225.5,-46 158.5,-46"/>
<text text-anchor="start" x="161.5" y="-54.2" font-family="Helvetica,sans-Serif" font-size="11.00">varchar[250]</text>
<polygon fill="none" stroke="black" points="10.5,-24 10.5,-46 158.5,-46 158.5,-24 10.5,-24"/>
<text text-anchor="start" x="30.5" y="-32.2" font-family="Helvetica,sans-Serif" font-size="11.00">enabled</text>
<polygon fill="none" stroke="black" points="158.5,-24 158.5,-46 225.5,-46 225.5,-24 158.5,-24"/>
<text text-anchor="start" x="161.5" y="-32.2" font-family="Helvetica,sans-Serif" font-size="11.00">int[10]</text>
<polygon fill="#ffffff" stroke="transparent" points="10.5,-6 10.5,-24 75.5,-24 75.5,-6 10.5,-6"/>
<polygon fill="none" stroke="black" points="10.5,-6 10.5,-24 75.5,-24 75.5,-6 10.5,-6"/>
<text text-anchor="start" x="13.5" y="-12.2" font-family="Helvetica,sans-Serif" font-size="11.00">&lt; 0</text>
<polygon fill="#ffffff" stroke="transparent" points="75.5,-6 75.5,-24 158.5,-24 158.5,-6 75.5,-6"/>
<polygon fill="none" stroke="black" points="75.5,-6 75.5,-24 158.5,-24 158.5,-6 75.5,-6"/>
<text text-anchor="start" x="122.5" y="-12.2" font-family="Helvetica,sans-Serif" font-size="11.00">0 rows</text>
<polygon fill="#ffffff" stroke="transparent" points="158.5,-6 158.5,-24 225.5,-24 225.5,-6 158.5,-6"/>
<polygon fill="none" stroke="black" points="158.5,-6 158.5,-24 225.5,-24 225.5,-6 158.5,-6"/>
<text text-anchor="start" x="206.5" y="-12.2" font-family="Helvetica,sans-Serif" font-size="11.00">0 &gt;</text>
<polygon fill="none" stroke="black" stroke-width="2" points="9,-5 9,-135 226,-135 226,-5 9,-5"/>
</a>
</g>
</g>
</g>
</svg>
