<?xml version="1.0" encoding="UTF-8" standalone="no"?>
<!DOCTYPE svg PUBLIC "-//W3C//DTD SVG 1.1//EN"
 "http://www.w3.org/Graphics/SVG/1.1/DTD/svg11.dtd">
<!-- Generated by graphviz version 2.43.0 (0)
 -->
<!-- Title: r_enum_value Pages: 1 -->
<svg width="284pt" height="170pt"
 viewBox="0.00 0.00 284.00 170.00" xmlns="http://www.w3.org/2000/svg" xmlns:xlink="http://www.w3.org/1999/xlink">
<g id="graph0" class="graph" transform="scale(1 1) rotate(0) translate(4 166)">
<title>r_enum_value</title>
<polygon fill="#ffffff" stroke="transparent" points="-4,4 -4,-166 280,-166 280,4 -4,4"/>
<!-- r_enum_value -->
<g id="node1" class="node">
<title>r_enum_value</title>
<g id="a_node1"><a xlink:href="../../tables/r_enum_value.html" xlink:title="r_enum_value" target="_top">
<polygon fill="#ffffff" stroke="transparent" points="8,-4 8,-158 268,-158 268,-4 8,-4"/>
<polygon fill="#f5f5f5" stroke="transparent" points="10,-134 10,-156 266,-156 266,-134 10,-134"/>
<polygon fill="none" stroke="black" points="10,-134 10,-156 266,-156 266,-134 10,-134"/>
<text text-anchor="start" x="15" y="-143.2" font-family="Helvetica,sans-Serif" font-weight="bold" font-size="11.00">r_enum_value</text>
<text text-anchor="start" x="231" y="-142.2" font-family="Helvetica,sans-Serif" font-size="11.00">[table]</text>
<polygon fill="none" stroke="black" points="10,-112 10,-134 199,-134 199,-112 10,-112"/>
<image xlink:href="../../images/primaryKeys.png" width="11px" height="12px" preserveAspectRatio="xMinYMin meet" x="15" y="-129"/>
<text text-anchor="start" x="30" y="-120.2" font-family="Helvetica,sans-Serif" font-size="11.00">enum_name</text>
<polygon fill="none" stroke="black" points="199,-112 199,-134 266,-134 266,-112 199,-112"/>
<text text-anchor="start" x="202" y="-120.2" font-family="Helvetica,sans-Serif" font-size="11.00">varchar[100]</text>
<polygon fill="none" stroke="black" points="10,-90 10,-112 199,-112 199,-90 10,-90"/>
<image xlink:href="../../images/primaryKeys.png" width="11px" height="12px" preserveAspectRatio="xMinYMin meet" x="15" y="-107"/>
<text text-anchor="start" x="30" y="-98.2" font-family="Helvetica,sans-Serif" font-size="11.00">enum_id</text>
<polygon fill="none" stroke="black" points="199,-90 199,-112 266,-112 266,-90 199,-90"/>
<text text-anchor="start" x="202" y="-98.2" font-family="Helvetica,sans-Serif" font-size="11.00">int[10]</text>
<polygon fill="#ffffff" stroke="transparent" points="10,-68 10,-90 199,-90 199,-68 10,-68"/>
<polygon fill="none" stroke="black" points="10,-68 10,-90 199,-90 199,-68 10,-68"/>
<text text-anchor="start" x="30" y="-76.2" font-family="Helvetica,sans-Serif" font-size="11.00">enum_message_property</text>
<polygon fill="none" stroke="black" points="199,-68 199,-90 266,-90 266,-68 199,-68"/>
<text text-anchor="start" x="202" y="-76.2" font-family="Helvetica,sans-Serif" font-size="11.00">varchar[100]</text>
<polygon fill="#ffffff" stroke="transparent" points="10,-46 10,-68 199,-68 199,-46 10,-46"/>
<polygon fill="none" stroke="black" points="10,-46 10,-68 199,-68 199,-46 10,-46"/>
<text text-anchor="start" x="30" y="-54.2" font-family="Helvetica,sans-Serif" font-size="11.00">enum_value</text>
<polygon fill="none" stroke="black" points="199,-46 199,-68 266,-68 266,-46 199,-46"/>
<text text-anchor="start" x="202" y="-54.2" font-family="Helvetica,sans-Serif" font-size="11.00">varchar[100]</text>
<polygon fill="none" stroke="black" points="10,-24 10,-46 199,-46 199,-24 10,-24"/>
<text text-anchor="start" x="30" y="-32.2" font-family="Helvetica,sans-Serif" font-size="11.00">enum_type</text>
<polygon fill="none" stroke="black" points="199,-24 199,-46 266,-46 266,-24 199,-24"/>
<text text-anchor="start" x="202" y="-32.2" font-family="Helvetica,sans-Serif" font-size="11.00">bit[1]</text>
<polygon fill="#ffffff" stroke="transparent" points="10,-6 10,-24 96,-24 96,-6 10,-6"/>
<polygon fill="none" stroke="black" points="10,-6 10,-24 96,-24 96,-6 10,-6"/>
<text text-anchor="start" x="13" y="-12.2" font-family="Helvetica,sans-Serif" font-size="11.00">&lt; 0</text>
<polygon fill="#ffffff" stroke="transparent" points="96,-6 96,-24 199,-24 199,-6 96,-6"/>
<polygon fill="none" stroke="black" points="96,-6 96,-24 199,-24 199,-6 96,-6"/>
<text text-anchor="start" x="163" y="-12.2" font-family="Helvetica,sans-Serif" font-size="11.00">0 rows</text>
<polygon fill="#ffffff" stroke="transparent" points="199,-6 199,-24 266,-24 266,-6 199,-6"/>
<polygon fill="none" stroke="black" points="199,-6 199,-24 266,-24 266,-6 199,-6"/>
<text text-anchor="start" x="247" y="-12.2" font-family="Helvetica,sans-Serif" font-size="11.00">0 &gt;</text>
<polygon fill="none" stroke="black" stroke-width="2" points="9,-5 9,-157 267,-157 267,-5 9,-5"/>
</a>
</g>
</g>
</g>
</svg>
