<?xml version="1.0" encoding="UTF-8" standalone="no"?>
<!DOCTYPE svg PUBLIC "-//W3C//DTD SVG 1.1//EN"
 "http://www.w3.org/Graphics/SVG/1.1/DTD/svg11.dtd">
<!-- Generated by graphviz version 2.43.0 (0)
 -->
<!-- Title: rpt_sequence Pages: 1 -->
<svg width="175pt" height="82pt"
 viewBox="0.00 0.00 175.00 82.00" xmlns="http://www.w3.org/2000/svg" xmlns:xlink="http://www.w3.org/1999/xlink">
<g id="graph0" class="graph" transform="scale(1 1) rotate(0) translate(4 78)">
<title>rpt_sequence</title>
<polygon fill="#ffffff" stroke="transparent" points="-4,4 -4,-78 171,-78 171,4 -4,4"/>
<!-- rpt_sequence -->
<g id="node1" class="node">
<title>rpt_sequence</title>
<g id="a_node1"><a xlink:href="../../tables/rpt_sequence.html" xlink:title="rpt_sequence" target="_top">
<polygon fill="#ffffff" stroke="transparent" points="8,-4 8,-70 159,-70 159,-4 8,-4"/>
<polygon fill="#f5f5f5" stroke="transparent" points="10.5,-46 10.5,-68 157.5,-68 157.5,-46 10.5,-46"/>
<polygon fill="none" stroke="black" points="10.5,-46 10.5,-68 157.5,-68 157.5,-46 10.5,-46"/>
<text text-anchor="start" x="15.5" y="-55.2" font-family="Helvetica,sans-Serif" font-weight="bold" font-size="11.00">rpt_sequence</text>
<text text-anchor="start" x="122.5" y="-54.2" font-family="Helvetica,sans-Serif" font-size="11.00">[table]</text>
<polygon fill="none" stroke="black" points="10.5,-24 10.5,-46 121.5,-46 121.5,-24 10.5,-24"/>
<image xlink:href="../../images/primaryKeys.png" width="11px" height="12px" preserveAspectRatio="xMinYMin meet" x="15.5" y="-41"/>
<text text-anchor="start" x="30.5" y="-32.2" font-family="Helvetica,sans-Serif" font-size="11.00">id</text>
<polygon fill="none" stroke="black" points="121.5,-24 121.5,-46 157.5,-46 157.5,-24 121.5,-24"/>
<text text-anchor="start" x="124.5" y="-32.2" font-family="Helvetica,sans-Serif" font-size="11.00">int[10]</text>
<polygon fill="#ffffff" stroke="transparent" points="10.5,-6 10.5,-24 57.5,-24 57.5,-6 10.5,-6"/>
<polygon fill="none" stroke="black" points="10.5,-6 10.5,-24 57.5,-24 57.5,-6 10.5,-6"/>
<text text-anchor="start" x="13.5" y="-12.2" font-family="Helvetica,sans-Serif" font-size="11.00">&lt; 0</text>
<polygon fill="#ffffff" stroke="transparent" points="57.5,-6 57.5,-24 121.5,-24 121.5,-6 57.5,-6"/>
<polygon fill="none" stroke="black" points="57.5,-6 57.5,-24 121.5,-24 121.5,-6 57.5,-6"/>
<text text-anchor="start" x="85.5" y="-12.2" font-family="Helvetica,sans-Serif" font-size="11.00">0 rows</text>
<polygon fill="#ffffff" stroke="transparent" points="121.5,-6 121.5,-24 157.5,-24 157.5,-6 121.5,-6"/>
<polygon fill="none" stroke="black" points="121.5,-6 121.5,-24 157.5,-24 157.5,-6 121.5,-6"/>
<text text-anchor="start" x="138.5" y="-12.2" font-family="Helvetica,sans-Serif" font-size="11.00">0 &gt;</text>
<polygon fill="none" stroke="black" stroke-width="2" points="9,-5 9,-69 158,-69 158,-5 9,-5"/>
</a>
</g>
</g>
</g>
</svg>
