<?xml version="1.0" encoding="UTF-8" standalone="no"?>
<!DOCTYPE svg PUBLIC "-//W3C//DTD SVG 1.1//EN"
 "http://www.w3.org/Graphics/SVG/1.1/DTD/svg11.dtd">
<!-- Generated by graphviz version 2.43.0 (0)
 -->
<!-- Title: scheduled_email_configuration Pages: 1 -->
<svg width="324pt" height="126pt"
 viewBox="0.00 0.00 324.00 126.00" xmlns="http://www.w3.org/2000/svg" xmlns:xlink="http://www.w3.org/1999/xlink">
<g id="graph0" class="graph" transform="scale(1 1) rotate(0) translate(4 122)">
<title>scheduled_email_configuration</title>
<polygon fill="#ffffff" stroke="transparent" points="-4,4 -4,-122 320,-122 320,4 -4,4"/>
<!-- scheduled_email_configuration -->
<g id="node1" class="node">
<title>scheduled_email_configuration</title>
<g id="a_node1"><a xlink:href="../../tables/scheduled_email_configuration.html" xlink:title="scheduled_email_configuration" target="_top">
<polygon fill="#ffffff" stroke="transparent" points="8,-4 8,-114 308,-114 308,-4 8,-4"/>
<polygon fill="#f5f5f5" stroke="transparent" points="10,-90 10,-112 306,-112 306,-90 10,-90"/>
<polygon fill="none" stroke="black" points="10,-90 10,-112 306,-112 306,-90 10,-90"/>
<text text-anchor="start" x="15" y="-99.2" font-family="Helvetica,sans-Serif" font-weight="bold" font-size="11.00">scheduled_email_configuration</text>
<text text-anchor="start" x="271" y="-98.2" font-family="Helvetica,sans-Serif" font-size="11.00">[table]</text>
<polygon fill="none" stroke="black" points="10,-68 10,-90 239,-90 239,-68 10,-68"/>
<image xlink:href="../../images/primaryKeys.png" width="11px" height="12px" preserveAspectRatio="xMinYMin meet" x="15" y="-85"/>
<text text-anchor="start" x="30" y="-76.2" font-family="Helvetica,sans-Serif" font-size="11.00">id</text>
<polygon fill="none" stroke="black" points="239,-68 239,-90 306,-90 306,-68 239,-68"/>
<text text-anchor="start" x="242" y="-76.2" font-family="Helvetica,sans-Serif" font-size="11.00">int[10]</text>
<polygon fill="#ffffff" stroke="transparent" points="10,-46 10,-68 239,-68 239,-46 10,-46"/>
<polygon fill="none" stroke="black" points="10,-46 10,-68 239,-68 239,-46 10,-46"/>
<text text-anchor="start" x="30" y="-54.2" font-family="Helvetica,sans-Serif" font-size="11.00">name</text>
<polygon fill="none" stroke="black" points="239,-46 239,-68 306,-68 306,-46 239,-46"/>
<text text-anchor="start" x="242" y="-54.2" font-family="Helvetica,sans-Serif" font-size="11.00">varchar[50]</text>
<polygon fill="none" stroke="black" points="10,-24 10,-46 239,-46 239,-24 10,-24"/>
<text text-anchor="start" x="30" y="-32.2" font-family="Helvetica,sans-Serif" font-size="11.00">value</text>
<polygon fill="none" stroke="black" points="239,-24 239,-46 306,-46 306,-24 239,-24"/>
<text text-anchor="start" x="242" y="-32.2" font-family="Helvetica,sans-Serif" font-size="11.00">varchar[200]</text>
<polygon fill="#ffffff" stroke="transparent" points="10,-6 10,-24 116,-24 116,-6 10,-6"/>
<polygon fill="none" stroke="black" points="10,-6 10,-24 116,-24 116,-6 10,-6"/>
<text text-anchor="start" x="13" y="-12.2" font-family="Helvetica,sans-Serif" font-size="11.00">&lt; 0</text>
<polygon fill="#ffffff" stroke="transparent" points="116,-6 116,-24 239,-24 239,-6 116,-6"/>
<polygon fill="none" stroke="black" points="116,-6 116,-24 239,-24 239,-6 116,-6"/>
<text text-anchor="start" x="203" y="-12.2" font-family="Helvetica,sans-Serif" font-size="11.00">0 rows</text>
<polygon fill="#ffffff" stroke="transparent" points="239,-6 239,-24 306,-24 306,-6 239,-6"/>
<polygon fill="none" stroke="black" points="239,-6 239,-24 306,-24 306,-6 239,-6"/>
<text text-anchor="start" x="287" y="-12.2" font-family="Helvetica,sans-Serif" font-size="11.00">0 &gt;</text>
<polygon fill="none" stroke="black" stroke-width="2" points="9,-5 9,-113 307,-113 307,-5 9,-5"/>
</a>
</g>
</g>
</g>
</svg>
