<?xml version="1.0" encoding="UTF-8" standalone="no"?>
<!DOCTYPE svg PUBLIC "-//W3C//DTD SVG 1.1//EN"
 "http://www.w3.org/Graphics/SVG/1.1/DTD/svg11.dtd">
<!-- Generated by graphviz version 2.43.0 (0)
 -->
<!-- Title: scheduler_detail Pages: 1 -->
<svg width="288pt" height="148pt"
 viewBox="0.00 0.00 288.00 148.00" xmlns="http://www.w3.org/2000/svg" xmlns:xlink="http://www.w3.org/1999/xlink">
<g id="graph0" class="graph" transform="scale(1 1) rotate(0) translate(4 144)">
<title>scheduler_detail</title>
<polygon fill="#ffffff" stroke="transparent" points="-4,4 -4,-144 284,-144 284,4 -4,4"/>
<!-- scheduler_detail -->
<g id="node1" class="node">
<title>scheduler_detail</title>
<g id="a_node1"><a xlink:href="../../tables/scheduler_detail.html" xlink:title="scheduler_detail" target="_top">
<polygon fill="#ffffff" stroke="transparent" points="8,-4 8,-136 272,-136 272,-4 8,-4"/>
<polygon fill="#f5f5f5" stroke="transparent" points="10,-112 10,-134 270,-134 270,-112 10,-112"/>
<polygon fill="none" stroke="black" points="10,-112 10,-134 270,-134 270,-112 10,-112"/>
<text text-anchor="start" x="15" y="-121.2" font-family="Helvetica,sans-Serif" font-weight="bold" font-size="11.00">scheduler_detail</text>
<text text-anchor="start" x="235" y="-120.2" font-family="Helvetica,sans-Serif" font-size="11.00">[table]</text>
<polygon fill="none" stroke="black" points="10,-90 10,-112 215,-112 215,-90 10,-90"/>
<image xlink:href="../../images/primaryKeys.png" width="11px" height="12px" preserveAspectRatio="xMinYMin meet" x="15" y="-107"/>
<text text-anchor="start" x="30" y="-98.2" font-family="Helvetica,sans-Serif" font-size="11.00">id</text>
<polygon fill="none" stroke="black" points="215,-90 215,-112 270,-112 270,-90 215,-90"/>
<text text-anchor="start" x="218" y="-98.2" font-family="Helvetica,sans-Serif" font-size="11.00">smallint[5]</text>
<polygon fill="none" stroke="black" points="10,-68 10,-90 215,-90 215,-68 10,-68"/>
<text text-anchor="start" x="30" y="-76.2" font-family="Helvetica,sans-Serif" font-size="11.00">is_suspended</text>
<polygon fill="none" stroke="black" points="215,-68 215,-90 270,-90 270,-68 215,-68"/>
<text text-anchor="start" x="218" y="-76.2" font-family="Helvetica,sans-Serif" font-size="11.00">bit[1]</text>
<polygon fill="none" stroke="black" points="10,-46 10,-68 215,-68 215,-46 10,-46"/>
<text text-anchor="start" x="30" y="-54.2" font-family="Helvetica,sans-Serif" font-size="11.00">execute_misfired_jobs</text>
<polygon fill="none" stroke="black" points="215,-46 215,-68 270,-68 270,-46 215,-46"/>
<text text-anchor="start" x="218" y="-54.2" font-family="Helvetica,sans-Serif" font-size="11.00">bit[1]</text>
<polygon fill="none" stroke="black" points="10,-24 10,-46 215,-46 215,-24 10,-24"/>
<text text-anchor="start" x="30" y="-32.2" font-family="Helvetica,sans-Serif" font-size="11.00">reset_scheduler_on_bootup</text>
<polygon fill="none" stroke="black" points="215,-24 215,-46 270,-46 270,-24 215,-24"/>
<text text-anchor="start" x="218" y="-32.2" font-family="Helvetica,sans-Serif" font-size="11.00">bit[1]</text>
<polygon fill="#ffffff" stroke="transparent" points="10,-6 10,-24 104,-24 104,-6 10,-6"/>
<polygon fill="none" stroke="black" points="10,-6 10,-24 104,-24 104,-6 10,-6"/>
<text text-anchor="start" x="13" y="-12.2" font-family="Helvetica,sans-Serif" font-size="11.00">&lt; 0</text>
<polygon fill="#ffffff" stroke="transparent" points="104,-6 104,-24 215,-24 215,-6 104,-6"/>
<polygon fill="none" stroke="black" points="104,-6 104,-24 215,-24 215,-6 104,-6"/>
<text text-anchor="start" x="179" y="-12.2" font-family="Helvetica,sans-Serif" font-size="11.00">0 rows</text>
<polygon fill="#ffffff" stroke="transparent" points="215,-6 215,-24 270,-24 270,-6 215,-6"/>
<polygon fill="none" stroke="black" points="215,-6 215,-24 270,-24 270,-6 215,-6"/>
<text text-anchor="start" x="251" y="-12.2" font-family="Helvetica,sans-Serif" font-size="11.00">0 &gt;</text>
<polygon fill="none" stroke="black" stroke-width="2" points="9,-5 9,-135 271,-135 271,-5 9,-5"/>
</a>
</g>
</g>
</g>
</svg>
