<?xml version="1.0" encoding="UTF-8" standalone="no"?>
<!DOCTYPE svg PUBLIC "-//W3C//DTD SVG 1.1//EN"
 "http://www.w3.org/Graphics/SVG/1.1/DTD/svg11.dtd">
<!-- Generated by graphviz version 2.43.0 (0)
 -->
<!-- Title: twofactor_configuration Pages: 1 -->
<svg width="284pt" height="126pt"
 viewBox="0.00 0.00 284.00 126.00" xmlns="http://www.w3.org/2000/svg" xmlns:xlink="http://www.w3.org/1999/xlink">
<g id="graph0" class="graph" transform="scale(1 1) rotate(0) translate(4 122)">
<title>twofactor_configuration</title>
<polygon fill="#ffffff" stroke="transparent" points="-4,4 -4,-122 280,-122 280,4 -4,4"/>
<!-- twofactor_configuration -->
<g id="node1" class="node">
<title>twofactor_configuration</title>
<g id="a_node1"><a xlink:href="../../tables/twofactor_configuration.html" xlink:title="twofactor_configuration" target="_top">
<polygon fill="#ffffff" stroke="transparent" points="8,-4 8,-114 268,-114 268,-4 8,-4"/>
<polygon fill="#f5f5f5" stroke="transparent" points="10,-90 10,-112 266,-112 266,-90 10,-90"/>
<polygon fill="none" stroke="black" points="10,-90 10,-112 266,-112 266,-90 10,-90"/>
<text text-anchor="start" x="15" y="-99.2" font-family="Helvetica,sans-Serif" font-weight="bold" font-size="11.00">twofactor_configuration</text>
<text text-anchor="start" x="231" y="-98.2" font-family="Helvetica,sans-Serif" font-size="11.00">[table]</text>
<polygon fill="none" stroke="black" points="10,-68 10,-90 193,-90 193,-68 10,-68"/>
<image xlink:href="../../images/primaryKeys.png" width="11px" height="12px" preserveAspectRatio="xMinYMin meet" x="15" y="-85"/>
<text text-anchor="start" x="30" y="-76.2" font-family="Helvetica,sans-Serif" font-size="11.00">id</text>
<polygon fill="none" stroke="black" points="193,-68 193,-90 266,-90 266,-68 193,-68"/>
<text text-anchor="start" x="196" y="-76.2" font-family="Helvetica,sans-Serif" font-size="11.00">bigint[19]</text>
<polygon fill="#ffffff" stroke="transparent" points="10,-46 10,-68 193,-68 193,-46 10,-46"/>
<polygon fill="none" stroke="black" points="10,-46 10,-68 193,-68 193,-46 10,-46"/>
<text text-anchor="start" x="30" y="-54.2" font-family="Helvetica,sans-Serif" font-size="11.00">name</text>
<polygon fill="none" stroke="black" points="193,-46 193,-68 266,-68 266,-46 193,-46"/>
<text text-anchor="start" x="196" y="-54.2" font-family="Helvetica,sans-Serif" font-size="11.00">varchar[40]</text>
<polygon fill="none" stroke="black" points="10,-24 10,-46 193,-46 193,-24 10,-24"/>
<text text-anchor="start" x="30" y="-32.2" font-family="Helvetica,sans-Serif" font-size="11.00">value</text>
<polygon fill="none" stroke="black" points="193,-24 193,-46 266,-46 266,-24 193,-24"/>
<text text-anchor="start" x="196" y="-32.2" font-family="Helvetica,sans-Serif" font-size="11.00">varchar[1024]</text>
<polygon fill="#ffffff" stroke="transparent" points="10,-6 10,-24 93,-24 93,-6 10,-6"/>
<polygon fill="none" stroke="black" points="10,-6 10,-24 93,-24 93,-6 10,-6"/>
<text text-anchor="start" x="13" y="-12.2" font-family="Helvetica,sans-Serif" font-size="11.00">&lt; 0</text>
<polygon fill="#ffffff" stroke="transparent" points="93,-6 93,-24 193,-24 193,-6 93,-6"/>
<polygon fill="none" stroke="black" points="93,-6 93,-24 193,-24 193,-6 93,-6"/>
<text text-anchor="start" x="157" y="-12.2" font-family="Helvetica,sans-Serif" font-size="11.00">0 rows</text>
<polygon fill="#ffffff" stroke="transparent" points="193,-6 193,-24 266,-24 266,-6 193,-6"/>
<polygon fill="none" stroke="black" points="193,-6 193,-24 266,-24 266,-6 193,-6"/>
<text text-anchor="start" x="247" y="-12.2" font-family="Helvetica,sans-Serif" font-size="11.00">0 &gt;</text>
<polygon fill="none" stroke="black" stroke-width="2" points="9,-5 9,-113 267,-113 267,-5 9,-5"/>
</a>
</g>
</g>
</g>
</svg>
